<svg xmlns="http://www.w3.org/2000/svg" viewBox="0 0 631.5 273.6"><title>ap_0_Tablet</title><g id="Layer_2" data-name="Layer 2"><g id="RC_ActP_Tablet"><rect width="631.5" height="273.6" fill="#fff"/><path d="M146.4,182.9a9.13,9.13,0,0,1,9.1,9.1,7.25,7.25,0,0,1-.7,3.3l5.3,5.3a22.1,22.1,0,0,0,6.2-8.6,21.31,21.31,0,0,0-27.2-12.3l3.9,3.9A8,8,0,0,1,146.4,182.9Zm-18.2-5,4.1,4.1.8.8a21.27,21.27,0,0,0-6.8,9.1,21.63,21.63,0,0,0,28,12.1l.8.8,5.3,5.3,2.3-2.3-32.2-32.2Zm10.1,10,2.8,2.8a4.87,4.87,0,0,0-.1,1.2,5.48,5.48,0,0,0,5.5,5.5c.4,0,.8-.1,1.2-.1l2.8,2.8a9,9,0,0,1-13.1-8.1A8.22,8.22,0,0,1,138.3,187.9Zm7.8-1.4,5.7,5.7v-.3a5.48,5.48,0,0,0-5.5-5.5Z" fill="#333"/><path d="M232.7,154.7h1.7l2.4,7.2,2.4-7.2h1.7v8.6h-1v-7.6h-.2l-2.5,7.2h-1.1l-2.5-7.2h-.2v7.6h-1v-8.6Z" fill="#3a3d3f"/><path d="M247.1,162.1c0,.4.3.5.7.5v.7a1.84,1.84,0,0,1-1.5-.5,6.13,6.13,0,0,1-2.2.5c-1.1,0-1.7-.6-1.7-1.9s.6-1.7,1.9-1.8l1.9-.2v-.5c0-.9-.4-1.2-1.1-1.2a20.87,20.87,0,0,0-2.3.2v-.7a14.26,14.26,0,0,1,2.4-.3c1.4,0,2,.6,2,2v3.2Zm-2.7-1.8c-.8.1-1.1.4-1.1,1.1s.3,1.1.9,1.1a6,6,0,0,0,1.9-.4v-2Z" fill="#3a3d3f"/><path d="M248.8,163.2V157h.9v.4a4.44,4.44,0,0,1,1.9-.6c1.7,0,2.1.8,2.1,3v3.3h-.9v-3.2c0-1.6-.2-2.2-1.3-2.2a3.63,3.63,0,0,0-1.7.5v5Z" fill="#3a3d3f"/><path d="M260.1,157v6.2h-.9v-.4a3.8,3.8,0,0,1-1.8.6c-1.7,0-2.1-.8-2.1-3.1v-3.2h.9v3.2c0,1.7.1,2.3,1.3,2.3a3.63,3.63,0,0,0,1.7-.5v-5h.9Z" fill="#3a3d3f"/><path d="M266,162.1c0,.4.3.5.7.5v.7a1.84,1.84,0,0,1-1.5-.5,6.13,6.13,0,0,1-2.2.5c-1.1,0-1.7-.6-1.7-1.9s.6-1.7,1.9-1.8l1.9-.2v-.5c0-.9-.4-1.2-1.1-1.2a20.87,20.87,0,0,0-2.3.2v-.7a14.26,14.26,0,0,1,2.4-.3c1.4,0,2,.6,2,2v3.2Zm-2.7-1.8c-.8.1-1.1.4-1.1,1.1s.3,1.1.9,1.1a6,6,0,0,0,1.9-.4v-2Z" fill="#3a3d3f"/><path d="M267.8,154.3h.9v8.9h-.9Z" fill="#3a3d3f"/><path d="M278.3,163.1a14.21,14.21,0,0,1-2.4.3c-2.6,0-3.1-1.6-3.1-4.4s.6-4.4,3.1-4.4a14.21,14.21,0,0,1,2.4.3v.8a16.35,16.35,0,0,0-2.2-.2c-1.9,0-2.2,1.1-2.2,3.6s.3,3.5,2.3,3.5a15,15,0,0,0,2.2-.2Z" fill="#3a3d3f"/><path d="M284.5,160.1c0,2.3-.6,3.3-2.7,3.3s-2.7-1-2.7-3.3c0-2.1.7-3.1,2.7-3.1S284.5,157.9,284.5,160.1Zm-.9,0c0-1.7-.4-2.3-1.7-2.3s-1.7.6-1.7,2.3.2,2.5,1.7,2.5S283.6,161.8,283.6,160.1Z" fill="#3a3d3f"/><path d="M285.9,163.2V157h.9v.4a4.44,4.44,0,0,1,1.9-.6c1.7,0,2.1.8,2.1,3v3.3h-.9v-3.2c0-1.6-.2-2.2-1.3-2.2a3.63,3.63,0,0,0-1.7.5v5Z" fill="#3a3d3f"/><path d="M293.6,163.2h-.9v-5.4h-.8V157h.8v-.6c0-1.8.5-2.3,1.7-2.3.4,0,1.3.1,1.3.1v.8h-1.1c-.7,0-.9.3-.9,1.4v.5h1.8v.8h-1.8v5.5Z" fill="#3a3d3f"/><path d="M296.3,154.6h.9v1.1h-.9Zm0,2.4h.9v6.2h-.9Z" fill="#3a3d3f"/><path d="M298.6,164.3a1.58,1.58,0,0,1,1-1.5c-.2-.1-.3-.5-.3-.9a5.13,5.13,0,0,1,.4-1c-.5-.2-1-.7-1-1.9,0-1.5.9-2.1,2.3-2.1a5.62,5.62,0,0,1,1.3.2h1.8v.8h-1.2a1.69,1.69,0,0,1,.4,1.2c0,1.6-.8,2.1-2.4,2.1h-.6a3.1,3.1,0,0,0-.2.7c0,.5.1.6,1.5.6,1.8,0,2.4.3,2.4,1.8s-1,2-2.8,2C299.3,166.1,298.6,165.7,298.6,164.3Zm1.6-1.2c-.5.4-.7.6-.7,1.1,0,.9.4,1.2,1.8,1.2,1.2,0,1.8-.3,1.8-1.2s-.4-1-1.5-1C301.1,163.2,300.2,163.1,300.2,163.1Zm2.2-4.1c0-1-.4-1.4-1.4-1.4s-1.4.4-1.4,1.4.4,1.4,1.4,1.4S302.4,160,302.4,159Z" fill="#3a3d3f"/><path d="M309.8,157v6.2h-.9v-.4a3.8,3.8,0,0,1-1.8.6c-1.7,0-2.1-.8-2.1-3.1v-3.2h.9v3.2c0,1.7.1,2.3,1.3,2.3a3.63,3.63,0,0,0,1.7-.5v-5h.9Z" fill="#3a3d3f"/><path d="M311.4,157h.9v.8a9,9,0,0,1,2.3-1v.9a8.36,8.36,0,0,0-2.3.8V163h-.9Z" fill="#3a3d3f"/><path d="M319.9,162.1c0,.4.3.5.7.5v.7a1.84,1.84,0,0,1-1.5-.5,6.13,6.13,0,0,1-2.2.5c-1.1,0-1.7-.6-1.7-1.9s.6-1.7,1.9-1.8l1.9-.2v-.5c0-.9-.4-1.2-1.1-1.2a20.87,20.87,0,0,0-2.3.2v-.7a14.26,14.26,0,0,1,2.4-.3c1.4,0,2,.6,2,2v3.2Zm-2.7-1.8c-.8.1-1.1.4-1.1,1.1s.3,1.1.9,1.1a6,6,0,0,0,1.9-.4v-2Z" fill="#3a3d3f"/><path d="M322.8,157.8v3c0,1.4.1,1.7.9,1.7.3,0,1.1-.1,1.1-.1l.1.8s-.8.1-1.3.1c-1.3,0-1.7-.5-1.7-2.3v-3.3H321v-.8h.9V155h.9v1.9h2v.8h-2Z" fill="#3a3d3f"/><path d="M325.8,154.6h.9v1.1h-.9Zm0,2.4h.9v6.2h-.9Z" fill="#3a3d3f"/><path d="M333.3,160.1c0,2.3-.6,3.3-2.7,3.3s-2.7-1-2.7-3.3c0-2.1.7-3.1,2.7-3.1S333.3,157.9,333.3,160.1Zm-.9,0c0-1.7-.4-2.3-1.7-2.3s-1.7.6-1.7,2.3.2,2.5,1.7,2.5S332.4,161.8,332.4,160.1Z" fill="#3a3d3f"/><path d="M334.7,163.2V157h.9v.4a4.44,4.44,0,0,1,1.9-.6c1.7,0,2.1.8,2.1,3v3.3h-.9v-3.2c0-1.6-.2-2.2-1.3-2.2a3.63,3.63,0,0,0-1.7.5v5Z" fill="#3a3d3f"/><path d="M123.6,159.4h-4.4v3.9h-1v-8.6h1v3.8h4.4v-3.8h.9v8.6h-.9Z" fill="#3a3d3f"/><path d="M126.3,154.6h.9v1.1h-.9Zm0,2.4h.9v6.2h-.9Z" fill="#3a3d3f"/><path d="M133.6,163.2h-.9v-.4a5.05,5.05,0,0,1-1.9.5c-1.2,0-2.2-.5-2.2-3.2,0-2.2.7-3.3,2.6-3.3a5.42,5.42,0,0,1,1.5.2v-2.7h.9v8.9Zm-.9-1.1v-4.2c-.2,0-1-.1-1.5-.1-1.3,0-1.7.9-1.7,2.5,0,2,.7,2.3,1.4,2.3A7,7,0,0,0,132.7,162.1Z" fill="#3a3d3f"/><path d="M139.8,162.4v.7a21.06,21.06,0,0,1-2.4.2c-1.8,0-2.5-1.1-2.5-3.2,0-2.4,1-3.3,2.6-3.3s2.5.9,2.5,2.9v.7h-4.1c0,1.3.4,2,1.6,2A15.78,15.78,0,0,0,139.8,162.4Zm-.7-2.6c0-1.5-.5-2.1-1.6-2.1s-1.6.6-1.7,2.1Z" fill="#3a3d3f"/><path d="M148.5,162.4v.7a21.06,21.06,0,0,1-2.4.2c-1.8,0-2.5-1.1-2.5-3.2,0-2.4,1-3.3,2.6-3.3s2.5.9,2.5,2.9v.7h-4.1c0,1.3.4,2,1.6,2A16.14,16.14,0,0,0,148.5,162.4Zm-.7-2.6c0-1.5-.5-2.1-1.6-2.1s-1.6.6-1.7,2.1Z" fill="#3a3d3f"/><path d="M151.2,163.2h-.9v-5.4h-.8V157h.8v-.6c0-1.8.5-2.3,1.7-2.3.4,0,1.3.1,1.3.1v.8h-1.1c-.7,0-.9.3-.9,1.4v.5h1.8v.8h-1.8v5.5Z" fill="#3a3d3f"/><path d="M155.1,163.2h-.9v-5.4h-.8V157h.8v-.6c0-1.8.5-2.3,1.7-2.3.4,0,1.3.1,1.3.1v.8h-1.1c-.7,0-.9.3-.9,1.4v.5H157v.8h-1.8v5.5Z" fill="#3a3d3f"/><path d="M162.4,162.4v.7a21.06,21.06,0,0,1-2.4.2c-1.8,0-2.5-1.1-2.5-3.2,0-2.4,1-3.3,2.6-3.3s2.5.9,2.5,2.9v.7h-4.1c0,1.3.4,2,1.6,2A15.78,15.78,0,0,0,162.4,162.4Zm-.7-2.6c0-1.5-.5-2.1-1.6-2.1s-1.6.6-1.7,2.1Z" fill="#3a3d3f"/><path d="M167.9,157.1v.8s-1-.1-1.5-.1c-1.4,0-1.8.6-1.8,2.3s.3,2.5,1.8,2.5c.5,0,1.5-.1,1.5-.1v.8a15.94,15.94,0,0,1-1.7.2c-2,0-2.6-.9-2.6-3.3,0-2.2.7-3.1,2.6-3.1A4.52,4.52,0,0,1,167.9,157.1Z" fill="#3a3d3f"/><path d="M170.4,157.8v3c0,1.4.1,1.7.9,1.7.3,0,1.1-.1,1.1-.1l.1.8s-.8.1-1.3.1c-1.3,0-1.7-.5-1.7-2.3v-3.3h-.9v-.8h.9V155h.9v1.9h2v.8h-2Z" fill="#3a3d3f"/><path d="M177.4,157.9a20.83,20.83,0,0,0-2.2-.2c-.8,0-1.3.2-1.3.9s.3.7,1.6,1c1.5.3,2.1.6,2.1,1.8,0,1.4-.9,1.9-2.4,1.9a20.83,20.83,0,0,1-2.2-.2v-.8s1.4.2,2,.2c1,0,1.6-.2,1.6-1.1,0-.6-.3-.8-1.7-1s-2.1-.5-2.1-1.7c0-1.4,1.1-1.8,2.2-1.8a18.13,18.13,0,0,1,2.2.2Z" fill="#3a3d3f"/><path d="M290.5,204.9H261a12,12,0,0,1,0-24h29.5a12,12,0,0,1,0,24" fill="#f2f2f2"/><path d="M277.4,192.4a15,15,0,1,1-15-15,15,15,0,0,1,15,15" fill="#b3b3b3"/><path d="M119.7,33.5v5.6h-1.6V24.6h5.4c3,0,4.6,1.3,4.6,4.4,0,2.1-.8,3.6-2.7,4.2l2.8,5.9h-1.8l-2.6-5.6Zm3.8-7.5h-3.8v6.1h3.8c2.2,0,3-1.3,3-3.1A2.65,2.65,0,0,0,123.5,26Z"/><path d="M131.1,24.6h8.8V26h-7.2v5h6v1.4h-6v5.2h7.2V39h-8.8Z"/><path d="M150.8,26.1s-2.9-.4-4.1-.4c-2.1,0-3.1.7-3.1,2.4,0,1.9,1,2.2,3.5,2.8,2.9.7,4.2,1.4,4.2,3.9,0,3.2-1.8,4.5-4.6,4.5a36,36,0,0,1-4.6-.5l.2-1.3s2.9.4,4.3.4c2.1,0,3.1-.9,3.1-2.9,0-1.6-.9-2.1-3.2-2.6-3-.7-4.5-1.4-4.5-4.1s1.8-3.9,4.7-3.9a38.82,38.82,0,0,1,4.4.4Z"/><path d="M162.8,38.9a22.49,22.49,0,0,1-4,.4c-4.3,0-5.3-2.6-5.3-7.4s.9-7.5,5.3-7.5a19.68,19.68,0,0,1,4,.5l-.1,1.4a21.11,21.11,0,0,0-3.8-.4c-3.2,0-3.8,1.9-3.8,6.1s.5,6,3.8,6a21,21,0,0,0,3.7-.4Z"/><path d="M174.5,32.5h-7.4v6.6h-1.6V24.6h1.6v6.5h7.4V24.6h1.6V39.1h-1.6Z"/><path d="M179.6,24.6h8.8V26h-7.2v5h6v1.4h-6v5.2h7.2V39h-8.8Z"/><path d="M191.3,39.1V24.6h5.2c4.2,0,5.4,2.9,5.4,7.1s-1.1,7.5-5.4,7.5h-5.2ZM196.4,26h-3.6V37.7h3.6c3,0,3.7-2.9,3.7-6S199.5,26,196.4,26Z"/><path d="M209.7,37.9c2.3,0,3.5-.9,3.5-3.1V24.6h1.6V34.7c0,3.3-1.8,4.6-5.1,4.6s-5-1.3-5-4.6V24.6h1.6V34.8C206.3,37,207.6,37.9,209.7,37.9Z"/><path d="M218.3,39.1V24.6h1.6V37.7h6.4v1.4Z"/><path d="M228.4,24.6H230V39.1h-1.6Z"/><path d="M233.6,24.6h3l5.6,13.1h.4V24.6h1.6V39.1h-3L235.6,26h-.4V39.1h-1.6Z"/><path d="M253.5,31.7h4v7.1a31.78,31.78,0,0,1-4.7.5c-4.5,0-5.6-2.7-5.6-7.4s1.2-7.5,5.6-7.5a30.17,30.17,0,0,1,4.8.5l-.1,1.3a36.49,36.49,0,0,0-4.5-.4c-3.4,0-4.1,2-4.1,6.1s.7,6,4.1,6a18.66,18.66,0,0,0,3-.3V33.1h-2.4V31.7Z"/><path d="M274.1,38.9a22.49,22.49,0,0,1-4,.4c-4.3,0-5.3-2.6-5.3-7.4s.9-7.5,5.3-7.5a19.68,19.68,0,0,1,4,.5l-.1,1.4a21.11,21.11,0,0,0-3.8-.4c-3.2,0-3.8,1.9-3.8,6.1s.5,6,3.8,6a21,21,0,0,0,3.7-.4Z"/><path d="M285.7,32.5h-7.4v6.6h-1.6V24.6h1.6v6.5h7.4V24.6h1.6V39.1h-1.6Z"/><path d="M293.6,24.6h3.5l4,14.5h-1.6l-1-3.7h-6.2l-1,3.7h-1.6Zm-1,9.3h5.5l-2.2-8h-1.1Z"/><path d="M305,33.5v5.6h-1.6V24.6h5.4c3,0,4.6,1.3,4.6,4.4,0,2.1-.8,3.6-2.7,4.2l2.8,5.9h-1.8l-2.6-5.6Zm3.8-7.5H305v6.1h3.8c2.2,0,3-1.3,3-3.1A2.65,2.65,0,0,0,308.8,26Z"/><path d="M322.1,31.7h4v7.1a31.78,31.78,0,0,1-4.7.5c-4.5,0-5.6-2.7-5.6-7.4s1.2-7.5,5.6-7.5a30.17,30.17,0,0,1,4.8.5l-.1,1.3a36.49,36.49,0,0,0-4.5-.4c-3.4,0-4.1,2-4.1,6.1s.7,6,4.1,6a20,20,0,0,0,3-.3V33.1h-2.4V31.7Z"/><path d="M329.3,24.6h1.6V39.1h-1.6Z"/><path d="M334.5,24.6h3l5.6,13.1h.4V24.6h1.6V39.1h-3L336.5,26h-.4V39.1h-1.6Z"/><path d="M354.4,31.7h4v7.1a31.78,31.78,0,0,1-4.7.5c-4.5,0-5.6-2.7-5.6-7.4s1.2-7.5,5.6-7.5a30.17,30.17,0,0,1,4.8.5l-.1,1.3a36.49,36.49,0,0,0-4.5-.4c-3.4,0-4.1,2-4.1,6.1s.7,6,4.1,6a18.66,18.66,0,0,0,3-.3V33.1h-2.4V31.7Z"/><polyline points="297.5 243.1 317.3 258.1 337.1 243.1" fill="none" stroke="#5b5b5b" stroke-linecap="round" stroke-linejoin="round" stroke-width="2"/><path d="M81.7,54.8A33.5,33.5,0,1,1,48.2,21.3,33.5,33.5,0,0,1,81.7,54.8" fill="#e3f0fc"/><path d="M124.4,71.4a14.16,14.16,0,0,1-3.1.3c-3.3,0-4-2-4-5.7s.7-5.7,4-5.7a13,13,0,0,1,3.1.4v1a23.57,23.57,0,0,0-2.9-.3c-2.5,0-2.9,1.5-2.9,4.6s.4,4.6,2.9,4.6a12,12,0,0,0,2.8-.3Z" fill="#3a3d3f"/><path d="M126.2,71.5V60h1.2v3.9a7,7,0,0,1,2.5-.6c2.2,0,2.7,1.1,2.7,3.9v4.2h-1.2V67.2c0-2.1-.2-2.9-1.7-2.9a7,7,0,0,0-2.3.5v6.6h-1.2Z" fill="#3a3d3f"/><path d="M140.4,70.1c0,.5.4.6.9.7v.9a2.88,2.88,0,0,1-1.9-.6,8.36,8.36,0,0,1-2.9.6,2.09,2.09,0,0,1-2.3-2.4c0-1.5.8-2.2,2.4-2.4l2.5-.2V66c0-1.1-.5-1.5-1.4-1.5-1.1,0-3,.2-3,.2v-.9a17.74,17.74,0,0,1,3.1-.4c1.8,0,2.6.8,2.6,2.6v4.1Zm-3.5-2.3c-1,.1-1.4.6-1.4,1.4s.4,1.5,1.2,1.5a8.16,8.16,0,0,0,2.5-.5V67.6Z" fill="#3a3d3f"/><path d="M142.8,63.5H144v1.1a8.76,8.76,0,0,1,2.9-1.3v1.2a11.12,11.12,0,0,0-2.9,1.1v5.9h-1.2Z" fill="#3a3d3f"/><path d="M148,72.9c0-.9.4-1.4,1.3-2a1.25,1.25,0,0,1-.4-1.1,5.89,5.89,0,0,1,.5-1.3c-.7-.3-1.3-.9-1.3-2.4,0-2,1.2-2.7,3-2.7a9.2,9.2,0,0,1,1.7.2l2.4-.1v1h-1.5a2.17,2.17,0,0,1,.5,1.6c0,2.1-1,2.7-3.1,2.7a2.2,2.2,0,0,1-.8-.1,4.65,4.65,0,0,0-.3.9c0,.6.1.7,1.9.7,2.3,0,3.1.4,3.1,2.4,0,1.8-1.3,2.5-3.6,2.5C148.9,75.3,148,74.7,148,72.9Zm2.1-1.5c-.7.5-.9.8-.9,1.4,0,1.1.5,1.5,2.3,1.5,1.6,0,2.3-.4,2.3-1.5s-.5-1.3-2-1.3C151.2,71.5,150.1,71.4,150.1,71.4Zm2.8-5.3c0-1.3-.5-1.8-1.8-1.8s-1.8.5-1.8,1.8.5,1.7,1.8,1.7S152.9,67.4,152.9,66.1Z" fill="#3a3d3f"/><path d="M156.6,60.3h1.2v1.4h-1.2Zm0,3.2h1.2v8h-1.2Z" fill="#3a3d3f"/><path d="M160.1,71.5v-8h1.2v.6a6.25,6.25,0,0,1,2.5-.7c2.2,0,2.7,1.1,2.7,3.9v4.2h-1.2V67.3c0-2.1-.2-2.9-1.7-2.9a5.46,5.46,0,0,0-2.3.6v6.5Z" fill="#3a3d3f"/><path d="M168.3,72.9c0-.9.4-1.4,1.3-2a1.25,1.25,0,0,1-.4-1.1,5.89,5.89,0,0,1,.5-1.3c-.7-.3-1.3-.9-1.3-2.4,0-2,1.2-2.7,3-2.7a9.2,9.2,0,0,1,1.7.2l2.4-.1v1H174a2.17,2.17,0,0,1,.5,1.6c0,2.1-1,2.7-3.1,2.7a2.2,2.2,0,0,1-.8-.1,4.65,4.65,0,0,0-.3.9c0,.6.1.7,1.9.7,2.3,0,3.1.4,3.1,2.4,0,1.8-1.3,2.5-3.6,2.5C169.2,75.3,168.3,74.7,168.3,72.9Zm2.1-1.5c-.7.5-.9.8-.9,1.4,0,1.1.5,1.5,2.3,1.5,1.6,0,2.3-.4,2.3-1.5s-.5-1.3-2-1.3C171.5,71.5,170.4,71.4,170.4,71.4Zm2.8-5.3c0-1.3-.5-1.8-1.8-1.8s-1.8.5-1.8,1.8.5,1.7,1.8,1.7S173.2,67.4,173.2,66.1Z" fill="#3a3d3f"/><path d="M180.3,71.5v-1l3.1-3.2c1.3-1.4,2.1-2.2,2.1-3.5s-.8-1.9-2.3-1.9a12.66,12.66,0,0,0-2.7.4l-.1-1a13.65,13.65,0,0,1,3.1-.4c2.2,0,3.3.8,3.3,2.8,0,1.6-.7,2.5-2.2,4l-2.8,2.9h5.3v1.1h-6.8Z" fill="#3a3d3f"/><path d="M195.1,60.5h2.7l3,11.1h-1.2l-.8-2.8h-4.7l-.8,2.8h-1.2Zm-.7,7.1h4.2l-1.7-6.1h-.8Z" fill="#3a3d3f"/><path d="M207,65.9h3.1v5.4a21.3,21.3,0,0,1-3.6.4c-3.4,0-4.3-2.1-4.3-5.7s.9-5.7,4.3-5.7a20.49,20.49,0,0,1,3.6.4v1a28.62,28.62,0,0,0-3.4-.3c-2.6,0-3.1,1.5-3.1,4.6s.5,4.6,3.1,4.6a13,13,0,0,0,2.3-.2V67h-1.8V65.9Z" fill="#3a3d3f"/><path d="M220,60.5l-2.9,11.1h-2.8l-2.9-11.1h1.3l2.5,10h.9l2.5-10Z" fill="#3a3d3f"/><path d="M226.9,64.7a23.1,23.1,0,0,0-2.8-.3c-1,0-1.7.3-1.7,1.2s.4,1,2.1,1.2c2,.3,2.8.7,2.8,2.3,0,1.9-1.2,2.5-3.1,2.5a23.1,23.1,0,0,1-2.8-.3l.1-1a23.63,23.63,0,0,0,2.6.3c1.3,0,2-.3,2-1.4,0-.8-.4-1-2.2-1.3s-2.7-.6-2.7-2.2c0-1.8,1.4-2.3,2.9-2.3a20.81,20.81,0,0,1,2.9.3Z" fill="#3a3d3f"/><path d="M234.1,71.5h-1.2v-7h-1v-1h1v-.7c0-2.3.6-2.9,2.2-2.9.5,0,1.6.1,1.6.1v1h-1.4c-.9,0-1.2.4-1.2,1.9v.7h2.3v1h-2.3v6.9Z" fill="#3a3d3f"/><path d="M244.3,67.4c0,2.9-.7,4.3-3.4,4.3s-3.4-1.3-3.4-4.3c0-2.8.9-4.1,3.4-4.1S244.3,64.7,244.3,67.4Zm-1.2,0c0-2.2-.5-3-2.2-3s-2.2.8-2.2,3,.3,3.2,2.2,3.2S243.1,69.7,243.1,67.4Z" fill="#3a3d3f"/><path d="M246.3,63.5h1.2v1.1a8.76,8.76,0,0,1,2.9-1.3v1.2a11.12,11.12,0,0,0-2.9,1.1v5.9h-1.2Z" fill="#3a3d3f"/><path d="M259.3,61h1.2V71.6h-1.2V62.4l-2.7,1.8-.6-.9Z" fill="#3a3d3f"/><path d="M267.8,71.5V60H269v3.9a7,7,0,0,1,2.5-.6c2.2,0,2.7,1.1,2.7,3.9v4.2H273V67.2c0-2.1-.2-2.9-1.7-2.9a7,7,0,0,0-2.3.5v6.6h-1.2Z" fill="#3a3d3f"/><path d="M282.9,67.4c0,2.9-.7,4.3-3.4,4.3s-3.4-1.3-3.4-4.3c0-2.8.9-4.1,3.4-4.1S282.9,64.7,282.9,67.4Zm-1.2,0c0-2.2-.5-3-2.2-3s-2.2.8-2.2,3,.3,3.2,2.2,3.2S281.7,69.7,281.7,67.4Z" fill="#3a3d3f"/><path d="M291,63.5v8h-1.2v-.6a5.54,5.54,0,0,1-2.4.7c-2.2,0-2.7-1-2.7-4V63.4h1.2v4.2c0,2.2.2,2.9,1.7,2.9a4.77,4.77,0,0,0,2.2-.6V63.4H291Z" fill="#3a3d3f"/><path d="M293.4,63.5h1.2v1.1a8.76,8.76,0,0,1,2.9-1.3v1.2a11.12,11.12,0,0,0-2.9,1.1v5.9h-1.2Z" fill="#3a3d3f"/><path d="M308.9,67.4c0,3.2-.9,4.3-3.8,4.3-1,0-2.7-.2-2.7-.2V60h1.2v3.9a6.21,6.21,0,0,1,2.4-.6C308.1,63.4,308.9,64.5,308.9,67.4Zm-1.3,0c0-2.1-.4-3-1.8-3a6.13,6.13,0,0,0-2.2.5v5.6s1,.1,1.5.1C307.3,70.6,307.6,69.7,307.6,67.4Z" fill="#3a3d3f"/><path d="M316.7,70.5v.9a23.34,23.34,0,0,1-3.1.3c-2.4,0-3.2-1.4-3.2-4.1,0-3,1.3-4.2,3.3-4.2s3.2,1.1,3.2,3.7l-.1.9h-5.3c0,1.7.5,2.6,2.1,2.6C315,70.6,316.7,70.5,316.7,70.5Zm-.9-3.4c0-2-.6-2.7-2-2.7s-2.1.8-2.1,2.7Z" fill="#3a3d3f"/><path d="M320.4,71.5h-1.2v-7h-1v-1h1v-.7c0-2.3.6-2.9,2.2-2.9.5,0,1.6.1,1.6.1v1h-1.4c-.9,0-1.2.4-1.2,1.9v.7h2.3v1h-2.3v6.9Z" fill="#3a3d3f"/><path d="M330.7,67.4c0,2.9-.7,4.3-3.4,4.3s-3.4-1.3-3.4-4.3c0-2.8.9-4.1,3.4-4.1S330.7,64.7,330.7,67.4Zm-1.2,0c0-2.2-.5-3-2.2-3s-2.2.8-2.2,3,.3,3.2,2.2,3.2S329.5,69.7,329.5,67.4Z" fill="#3a3d3f"/><path d="M332.6,63.5h1.2v1.1a8.76,8.76,0,0,1,2.9-1.3v1.2a11.12,11.12,0,0,0-2.9,1.1v5.9h-1.2Z" fill="#3a3d3f"/><path d="M344.1,70.5v.9a23.34,23.34,0,0,1-3.1.3c-2.4,0-3.2-1.4-3.2-4.1,0-3,1.3-4.2,3.3-4.2s3.2,1.1,3.2,3.7l-.1.9h-5.3c0,1.7.5,2.6,2.1,2.6C342.3,70.6,344.1,70.5,344.1,70.5Zm-.9-3.4c0-2-.6-2.7-2-2.7s-2.1.8-2.1,2.7Z" fill="#3a3d3f"/><path d="M351.4,64.6v3.8c0,1.7.1,2.2,1.2,2.2.4,0,1.4-.1,1.4-.1l.1,1a13.24,13.24,0,0,1-1.6.2c-1.6,0-2.2-.6-2.2-2.9V64.6h-1.1v-1h1.1V61.2h1.2v2.4H354v1Z" fill="#3a3d3f"/><path d="M355.4,71.5V60h1.2v3.9a7,7,0,0,1,2.5-.6c2.2,0,2.7,1.1,2.7,3.9v4.2h-1.2V67.2c0-2.1-.2-2.9-1.7-2.9a7,7,0,0,0-2.3.5v6.6h-1.2Z" fill="#3a3d3f"/><path d="M364,60.3h1.2v1.4H364Zm0,3.2h1.2v8H364Z" fill="#3a3d3f"/><path d="M372.8,64.7a23.1,23.1,0,0,0-2.8-.3c-1,0-1.7.3-1.7,1.2s.4,1,2.1,1.2c2,.3,2.8.7,2.8,2.3,0,1.9-1.2,2.5-3.1,2.5a23.1,23.1,0,0,1-2.8-.3l.1-1a23.63,23.63,0,0,0,2.6.3c1.3,0,2-.3,2-1.4,0-.8-.4-1-2.2-1.3s-2.7-.6-2.7-2.2c0-1.8,1.4-2.3,2.9-2.3a20.81,20.81,0,0,1,2.9.3Z" fill="#3a3d3f"/><path d="M380.1,64.6v3.8c0,1.7.1,2.2,1.2,2.2.4,0,1.4-.1,1.4-.1l.1,1a13.24,13.24,0,0,1-1.6.2c-1.6,0-2.2-.6-2.2-2.9V64.6h-1.1v-1H379V61.2h1.2v2.4h2.5v1Z" fill="#3a3d3f"/><path d="M384.1,60.3h1.2v1.4h-1.2Zm0,3.2h1.2v8h-1.2Z" fill="#3a3d3f"/><path d="M387.6,71.5v-8h1.2v.6a5.44,5.44,0,0,1,2.3-.7c1.1,0,1.7.2,2.1.8a6.56,6.56,0,0,1,2.8-.8c2.2,0,2.7,1,2.7,3.9v4.2h-1.2V67.3c0-2.1-.2-2.9-1.7-2.9a5.46,5.46,0,0,0-2.3.6,12.14,12.14,0,0,1,.2,2.3v4.2h-1.2V67.4c0-2.2-.2-3-1.7-3a4.64,4.64,0,0,0-2.1.6v6.5Z" fill="#3a3d3f"/><path d="M406.9,70.5v.9a23.34,23.34,0,0,1-3.1.3c-2.4,0-3.2-1.4-3.2-4.1,0-3,1.3-4.2,3.3-4.2s3.2,1.1,3.2,3.7l-.1.9h-5.3c0,1.7.5,2.6,2.1,2.6C405.1,70.6,406.9,70.5,406.9,70.5Zm-.9-3.4c0-2-.6-2.7-2-2.7s-2.1.8-2.1,2.7Z" fill="#3a3d3f"/><path d="M414.1,71.5h-1.2v-7h-1v-1h1v-.7c0-2.3.6-2.9,2.2-2.9.5,0,1.6.1,1.6.1v1h-1.4c-.9,0-1.2.4-1.2,1.9v.7h2.3v1h-2.3v6.9Z" fill="#3a3d3f"/><path d="M417.8,63.5H419v1.1a8.76,8.76,0,0,1,2.9-1.3v1.2a11.12,11.12,0,0,0-2.9,1.1v5.9h-1.2Z" fill="#3a3d3f"/><path d="M429,70.1c0,.5.4.6.9.7v.9a2.88,2.88,0,0,1-1.9-.6,8.36,8.36,0,0,1-2.9.6,2.09,2.09,0,0,1-2.3-2.4c0-1.5.8-2.2,2.4-2.4l2.5-.2V66c0-1.1-.5-1.5-1.4-1.5-1.1,0-3,.2-3,.2v-.9a17.74,17.74,0,0,1,3.1-.4c1.8,0,2.6.8,2.6,2.6v4.1Zm-3.5-2.3c-1,.1-1.4.6-1.4,1.4s.4,1.5,1.2,1.5a8.16,8.16,0,0,0,2.5-.5V67.6Z" fill="#3a3d3f"/><path d="M431.4,71.5v-8h1.2v.6a5.44,5.44,0,0,1,2.3-.7c1.1,0,1.7.2,2.1.8a6.56,6.56,0,0,1,2.8-.8c2.2,0,2.7,1,2.7,3.9v4.2h-1.2V67.3c0-2.1-.2-2.9-1.7-2.9a5.46,5.46,0,0,0-2.3.6,12.14,12.14,0,0,1,.2,2.3v4.2h-1.2V67.4c0-2.2-.2-3-1.7-3a4.64,4.64,0,0,0-2.1.6v6.5Z" fill="#3a3d3f"/><path d="M450.7,70.5v.9a23.34,23.34,0,0,1-3.1.3c-2.4,0-3.2-1.4-3.2-4.1,0-3,1.3-4.2,3.3-4.2s3.2,1.1,3.2,3.7l-.1.9h-5.3c0,1.7.5,2.6,2.1,2.6C448.9,70.6,450.7,70.5,450.7,70.5Zm-.9-3.4c0-2-.6-2.7-2-2.7s-2.1.8-2.1,2.7Z" fill="#3a3d3f"/><path d="M118,88.5l1.6,7h.3l1.9-6.8H123l1.9,6.8h.3l1.6-7H128l-1.9,8h-2l-1.7-6.3-1.7,6.3h-2l-1.9-8Z" fill="#3a3d3f"/><path d="M136.2,92.4c0,2.9-.7,4.3-3.4,4.3s-3.4-1.3-3.4-4.3c0-2.8.9-4.1,3.4-4.1S136.2,89.7,136.2,92.4Zm-1.3,0c0-2.2-.5-3-2.2-3s-2.2.8-2.2,3,.3,3.2,2.2,3.2S134.9,94.7,134.9,92.4Z" fill="#3a3d3f"/><path d="M144.3,88.5v8h-1.2v-.6a5.54,5.54,0,0,1-2.4.7c-2.2,0-2.7-1-2.7-4V88.4h1.2v4.2c0,2.2.2,2.9,1.7,2.9a4.77,4.77,0,0,0,2.2-.6V88.4h1.2Z" fill="#3a3d3f"/><path d="M146.7,85.1h1.2V96.6h-1.2Z" fill="#3a3d3f"/><path d="M156.5,96.5h-1.2V96a5.54,5.54,0,0,1-2.4.7c-1.6,0-2.9-.6-2.9-4.1,0-2.8.9-4.2,3.3-4.2.7,0,1.7.2,2,.2V85.1h1.2V96.5ZM155.3,95V89.6c-.3,0-1.2-.2-1.9-.2-1.7,0-2.2,1.1-2.2,3.2,0,2.6.8,3,1.8,3A6.08,6.08,0,0,0,155.3,95Z" fill="#3a3d3f"/><path d="M168.2,95.5v.9a23.34,23.34,0,0,1-3.1.3c-2.4,0-3.2-1.4-3.2-4.1,0-3,1.3-4.2,3.3-4.2s3.2,1.1,3.2,3.7l-.1.9H163c0,1.7.5,2.6,2.1,2.6C166.5,95.6,168.2,95.5,168.2,95.5Zm-.9-3.4c0-2-.6-2.7-2-2.7s-2.1.8-2.1,2.7Z" fill="#3a3d3f"/><path d="M170.4,96.5v-8h1.2v.6a6.25,6.25,0,0,1,2.5-.7c2.2,0,2.7,1.1,2.7,3.9v4.2h-1.2V92.3c0-2.1-.2-2.9-1.7-2.9a5.46,5.46,0,0,0-2.3.6v6.5Z" fill="#3a3d3f"/><path d="M184.6,95.1c0,.5.4.6.9.7v.9a2.88,2.88,0,0,1-1.9-.6,8.36,8.36,0,0,1-2.9.6,2.09,2.09,0,0,1-2.3-2.4c0-1.5.8-2.2,2.4-2.4l2.5-.2V91c0-1.1-.5-1.5-1.4-1.5-1.1,0-3,.2-3,.2v-.9a17.74,17.74,0,0,1,3.1-.4c1.8,0,2.6.8,2.6,2.6v4.1Zm-3.5-2.3c-1,.1-1.4.6-1.4,1.4s.4,1.5,1.2,1.5a8.16,8.16,0,0,0,2.5-.5V92.6Z" fill="#3a3d3f"/><path d="M193.4,92.4c0,3.2-.9,4.3-3.8,4.3-1,0-2.7-.2-2.7-.2V85h1.2v3.9a6.21,6.21,0,0,1,2.4-.6C192.7,88.4,193.4,89.5,193.4,92.4Zm-1.2,0c0-2.1-.4-3-1.8-3a6.13,6.13,0,0,0-2.2.5v5.6s1,.1,1.5.1C191.8,95.6,192.2,94.7,192.2,92.4Z" fill="#3a3d3f"/><path d="M195.5,85.1h1.2V96.6h-1.2Z" fill="#3a3d3f"/><path d="M205,95.5v.9a23.34,23.34,0,0,1-3.1.3c-2.4,0-3.2-1.4-3.2-4.1,0-3,1.3-4.2,3.3-4.2s3.2,1.1,3.2,3.7l-.1.9h-5.3c0,1.7.5,2.6,2.1,2.6C203.3,95.6,205,95.5,205,95.5Zm-.9-3.4c0-2-.6-2.7-2-2.7s-2.1.8-2.1,2.7Z" fill="#3a3d3f"/><path d="M216.9,88.5v8h-1.2v-.6a5.54,5.54,0,0,1-2.4.7c-2.2,0-2.7-1-2.7-4V88.4h1.2v4.2c0,2.2.2,2.9,1.7,2.9a4.77,4.77,0,0,0,2.2-.6V88.4h1.2Z" fill="#3a3d3f"/><path d="M224.5,89.7a23.1,23.1,0,0,0-2.8-.3c-1,0-1.7.3-1.7,1.2s.4,1,2.1,1.2c2,.3,2.8.7,2.8,2.3,0,1.9-1.2,2.5-3.1,2.5a23.1,23.1,0,0,1-2.8-.3l.1-1a23.63,23.63,0,0,0,2.6.3c1.3,0,2-.3,2-1.4,0-.8-.4-1-2.2-1.3s-2.7-.6-2.7-2.2c0-1.8,1.4-2.3,2.9-2.3a20.81,20.81,0,0,1,2.9.3Z" fill="#3a3d3f"/><path d="M231.8,89.6v3.8c0,1.7.1,2.2,1.2,2.2.4,0,1.4-.1,1.4-.1l.1,1a13.24,13.24,0,0,1-1.6.2c-1.6,0-2.2-.6-2.2-2.9V89.6h-1.1v-1h1.1V86.2h1.2v2.4h2.5v1Z" fill="#3a3d3f"/><path d="M242.3,92.4c0,2.9-.7,4.3-3.4,4.3s-3.4-1.3-3.4-4.3c0-2.8.9-4.1,3.4-4.1S242.3,89.7,242.3,92.4Zm-1.3,0c0-2.2-.5-3-2.2-3s-2.2.8-2.2,3,.3,3.2,2.2,3.2S241,94.7,241,92.4Z" fill="#3a3d3f"/><path d="M253.9,88.5v8h-1.2v-.6a5.54,5.54,0,0,1-2.4.7c-2.2,0-2.7-1-2.7-4V88.4h1.2v4.2c0,2.2.2,2.9,1.7,2.9a4.77,4.77,0,0,0,2.2-.6V88.4h1.2Z" fill="#3a3d3f"/><path d="M261.5,89.7a23.1,23.1,0,0,0-2.8-.3c-1,0-1.7.3-1.7,1.2s.4,1,2.1,1.2c2,.3,2.8.7,2.8,2.3,0,1.9-1.2,2.5-3.1,2.5a23.1,23.1,0,0,1-2.8-.3l.1-1a23.63,23.63,0,0,0,2.6.3c1.3,0,2-.3,2-1.4,0-.8-.4-1-2.2-1.3s-2.7-.6-2.7-2.2c0-1.8,1.4-2.3,2.9-2.3a20.81,20.81,0,0,1,2.9.3Z" fill="#3a3d3f"/><path d="M269.6,95.5v.9a23.34,23.34,0,0,1-3.1.3c-2.4,0-3.2-1.4-3.2-4.1,0-3,1.3-4.2,3.3-4.2s3.2,1.1,3.2,3.7l-.1.9h-5.3c0,1.7.5,2.6,2.1,2.6C267.8,95.6,269.6,95.5,269.6,95.5Zm-.9-3.4c0-2-.6-2.7-2-2.7s-2.1.8-2.1,2.7Z" fill="#3a3d3f"/><path d="M276.9,89.6v3.8c0,1.7.1,2.2,1.2,2.2.4,0,1.4-.1,1.4-.1l.1,1a13.24,13.24,0,0,1-1.6.2c-1.6,0-2.2-.6-2.2-2.9V89.6h-1.1v-1h1.1V86.2H277v2.4h2.5v1Z" fill="#3a3d3f"/><path d="M280.9,96.5V85h1.2v3.9a7,7,0,0,1,2.5-.6c2.2,0,2.7,1.1,2.7,3.9v4.2h-1.2V92.2c0-2.1-.2-2.9-1.7-2.9a7,7,0,0,0-2.3.5v6.6h-1.2Z" fill="#3a3d3f"/><path d="M295.4,95.5v.9a23.34,23.34,0,0,1-3.1.3c-2.4,0-3.2-1.4-3.2-4.1,0-3,1.3-4.2,3.3-4.2s3.2,1.1,3.2,3.7l-.1.9h-5.3c0,1.7.5,2.6,2.1,2.6C293.6,95.6,295.4,95.5,295.4,95.5Zm-.9-3.4c0-2-.6-2.7-2-2.7s-2.1.8-2.1,2.7Z" fill="#3a3d3f"/><path d="M297.6,96.5v-8h1.2v.6a5.44,5.44,0,0,1,2.3-.7c1.1,0,1.7.2,2.1.8a6.56,6.56,0,0,1,2.8-.8c2.2,0,2.7,1,2.7,3.9v4.2h-1.2V92.3c0-2.1-.2-2.9-1.7-2.9a5.46,5.46,0,0,0-2.3.6,12.14,12.14,0,0,1,.2,2.3v4.2h-1.2V92.4c0-2.2-.2-3-1.7-3a4.64,4.64,0,0,0-2.1.6v6.5Z" fill="#3a3d3f"/><path d="M320.1,95.1c0,.5.4.6.9.7v.9a2.88,2.88,0,0,1-1.9-.6,8.36,8.36,0,0,1-2.9.6,2.09,2.09,0,0,1-2.3-2.4c0-1.5.8-2.2,2.4-2.4l2.5-.2V91c0-1.1-.5-1.5-1.4-1.5-1.1,0-3,.2-3,.2v-.9a17.74,17.74,0,0,1,3.1-.4c1.8,0,2.6.8,2.6,2.6v4.1Zm-3.6-2.3c-1,.1-1.4.6-1.4,1.4s.4,1.5,1.2,1.5a8.16,8.16,0,0,0,2.5-.5V92.6Z" fill="#3a3d3f"/><path d="M324.1,89.6v3.8c0,1.7.1,2.2,1.2,2.2.4,0,1.4-.1,1.4-.1l.1,1a13.24,13.24,0,0,1-1.6.2c-1.6,0-2.2-.6-2.2-2.9V89.6h-1.1v-1H323V86.2h1.2v2.4h2.5v1Z" fill="#3a3d3f"/><path d="M337.3,95.1c0,.5.4.6.9.7v.9a2.88,2.88,0,0,1-1.9-.6,8.36,8.36,0,0,1-2.9.6,2.09,2.09,0,0,1-2.3-2.4c0-1.5.8-2.2,2.4-2.4l2.5-.2V91c0-1.1-.5-1.5-1.4-1.5-1.1,0-3,.2-3,.2v-.9a17.74,17.74,0,0,1,3.1-.4c1.8,0,2.6.8,2.6,2.6v4.1Zm-3.6-2.3c-1,.1-1.4.6-1.4,1.4s.4,1.5,1.2,1.5a8.16,8.16,0,0,0,2.5-.5V92.6Z" fill="#3a3d3f"/><path d="M339.7,85.1h1.2V96.6h-1.2Z" fill="#3a3d3f"/><path d="M343.3,96.5v-8h1.2v.6a5.44,5.44,0,0,1,2.3-.7c1.1,0,1.7.2,2.1.8a6.56,6.56,0,0,1,2.8-.8c2.2,0,2.7,1,2.7,3.9v4.2h-1.2V92.3c0-2.1-.2-2.9-1.7-2.9a5.46,5.46,0,0,0-2.3.6,12.14,12.14,0,0,1,.2,2.3v4.2h-1.2V92.4c0-2.2-.2-3-1.7-3a4.64,4.64,0,0,0-2.1.6v6.5Z" fill="#3a3d3f"/><path d="M363.2,92.4c0,2.9-.7,4.3-3.4,4.3s-3.4-1.3-3.4-4.3c0-2.8.9-4.1,3.4-4.1S363.2,89.7,363.2,92.4Zm-1.2,0c0-2.2-.5-3-2.2-3s-2.2.8-2.2,3,.3,3.2,2.2,3.2S362,94.7,362,92.4Z" fill="#3a3d3f"/><path d="M370.5,89.7a23.1,23.1,0,0,0-2.8-.3c-1,0-1.7.3-1.7,1.2s.4,1,2.1,1.2c2,.3,2.8.7,2.8,2.3,0,1.9-1.2,2.5-3.1,2.5a23.1,23.1,0,0,1-2.8-.3l.1-1a23.63,23.63,0,0,0,2.6.3c1.3,0,2-.3,2-1.4,0-.8-.4-1-2.2-1.3s-2.7-.6-2.7-2.2c0-1.8,1.4-2.3,2.9-2.3a20.81,20.81,0,0,1,2.9.3Z" fill="#3a3d3f"/><path d="M374.2,89.6v3.8c0,1.7.1,2.2,1.2,2.2.4,0,1.4-.1,1.4-.1l.1,1a13.24,13.24,0,0,1-1.6.2c-1.6,0-2.2-.6-2.2-2.9V89.6H372v-1h1.1V86.2h1.2v2.4h2.5v1Z" fill="#3a3d3f"/><path d="M383.3,96.5h-1.2v-7h-1v-1h1v-.7c0-2.3.6-2.9,2.2-2.9.5,0,1.6.1,1.6.1v1h-1.4c-.9,0-1.2.4-1.2,1.9v.7h2.3v1h-2.3v6.9Z" fill="#3a3d3f"/><path d="M393.2,88.5v8H392v-.6a5.54,5.54,0,0,1-2.4.7c-2.2,0-2.7-1-2.7-4V88.4h1.2v4.2c0,2.2.2,2.9,1.7,2.9a4.77,4.77,0,0,0,2.2-.6V88.4h1.2Z" fill="#3a3d3f"/><path d="M395.6,85.1h1.2V96.6h-1.2Z" fill="#3a3d3f"/><path d="M399.3,85.1h1.2V96.6h-1.2Z" fill="#3a3d3f"/><path d="M406.4,88.5h1.2v.6a5.54,5.54,0,0,1,2.4-.7c2,0,2.9,1.2,2.9,4.1,0,3.1-1,4.3-3.5,4.3a6.25,6.25,0,0,1-1.8-.2v3.6h-1.2V88.5Zm1.2,1.6v5.4a15.94,15.94,0,0,0,1.7.2c1.8,0,2.3-.9,2.3-3.2s-.7-3-1.9-3A5.22,5.22,0,0,0,407.6,90.1Z" fill="#3a3d3f"/><path d="M420.8,95.5v.9a23.34,23.34,0,0,1-3.1.3c-2.4,0-3.2-1.4-3.2-4.1,0-3,1.3-4.2,3.3-4.2s3.2,1.1,3.2,3.7l-.1.9h-5.3c0,1.7.5,2.6,2.1,2.6C419,95.6,420.8,95.5,420.8,95.5Zm-.9-3.4c0-2-.6-2.7-2-2.7s-2.1.8-2.1,2.7Z" fill="#3a3d3f"/><path d="M422.9,88.5h1.2v1.1a8.76,8.76,0,0,1,2.9-1.3v1.2a11.12,11.12,0,0,0-2.9,1.1v5.9h-1.2Z" fill="#3a3d3f"/><path d="M430,96.5h-1.2v-7h-1v-1h1v-.7c0-2.3.6-2.9,2.2-2.9.5,0,1.6.1,1.6.1v1h-1.4c-.9,0-1.2.4-1.2,1.9v.7h2.3v1H430v6.9Z" fill="#3a3d3f"/><path d="M440.3,92.4c0,2.9-.7,4.3-3.4,4.3s-3.4-1.3-3.4-4.3c0-2.8.9-4.1,3.4-4.1S440.3,89.7,440.3,92.4Zm-1.3,0c0-2.2-.5-3-2.2-3s-2.2.8-2.2,3,.3,3.2,2.2,3.2S439,94.7,439,92.4Z" fill="#3a3d3f"/><path d="M442.2,88.5h1.2v1.1a8.76,8.76,0,0,1,2.9-1.3v1.2a11.12,11.12,0,0,0-2.9,1.1v5.9h-1.2Z" fill="#3a3d3f"/><path d="M447.7,96.5v-8h1.2v.6a5.44,5.44,0,0,1,2.3-.7c1.1,0,1.7.2,2.1.8a6.56,6.56,0,0,1,2.8-.8c2.2,0,2.7,1,2.7,3.9v4.2h-1.2V92.3c0-2.1-.2-2.9-1.7-2.9a5.46,5.46,0,0,0-2.3.6,12.14,12.14,0,0,1,.2,2.3v4.2h-1.2V92.4c0-2.2-.2-3-1.7-3a4.64,4.64,0,0,0-2.1.6v6.5Z" fill="#3a3d3f"/><path d="M466.8,95.1c0,.5.4.6.9.7v.9a2.88,2.88,0,0,1-1.9-.6,8.36,8.36,0,0,1-2.9.6,2.09,2.09,0,0,1-2.3-2.4c0-1.5.8-2.2,2.4-2.4l2.5-.2V91c0-1.1-.5-1.5-1.4-1.5-1.1,0-3,.2-3,.2v-.9a17.74,17.74,0,0,1,3.1-.4c1.8,0,2.6.8,2.6,2.6v4.1Zm-3.6-2.3c-1,.1-1.4.6-1.4,1.4s.4,1.5,1.2,1.5a8.16,8.16,0,0,0,2.5-.5V92.6Z" fill="#3a3d3f"/><path d="M469.1,96.5v-8h1.2v.6a6.25,6.25,0,0,1,2.5-.7c2.2,0,2.7,1.1,2.7,3.9v4.2h-1.2V92.3c0-2.1-.2-2.9-1.7-2.9a5.46,5.46,0,0,0-2.3.6v6.5Z" fill="#3a3d3f"/><path d="M482.9,88.6v1s-1.3-.1-1.9-.1c-1.8,0-2.3.8-2.3,2.9,0,2.4.4,3.2,2.4,3.2.6,0,1.9-.1,1.9-.1v1s-1.5.2-2.2.2c-2.5,0-3.3-1.2-3.3-4.3,0-2.9.9-4,3.3-4A21,21,0,0,1,482.9,88.6Z" fill="#3a3d3f"/><path d="M490.6,95.5v.9a23.34,23.34,0,0,1-3.1.3c-2.4,0-3.2-1.4-3.2-4.1,0-3,1.3-4.2,3.3-4.2s3.2,1.1,3.2,3.7l-.1.9h-5.3c0,1.7.5,2.6,2.1,2.6C488.9,95.6,490.6,95.5,490.6,95.5Zm-.9-3.4c0-2-.6-2.7-2-2.7s-2.1.8-2.1,2.7Z" fill="#3a3d3f"/><path d="M123.1,120.1c0,.5.4.6.9.7v.9a2.88,2.88,0,0,1-1.9-.6,8.36,8.36,0,0,1-2.9.6,2.09,2.09,0,0,1-2.3-2.4c0-1.5.8-2.2,2.4-2.4l2.5-.2V116c0-1.1-.5-1.5-1.4-1.5-1.1,0-3,.2-3,.2v-.9a17.74,17.74,0,0,1,3.1-.4c1.8,0,2.6.8,2.6,2.6v4.1Zm-3.5-2.3c-1,.1-1.4.6-1.4,1.4s.4,1.5,1.2,1.5a8.16,8.16,0,0,0,2.5-.5v-2.6Z" fill="#3a3d3f"/><path d="M125.5,121.5v-8h1.2v.6a6.25,6.25,0,0,1,2.5-.7c2.2,0,2.7,1.1,2.7,3.9v4.2h-1.2v-4.2c0-2.1-.2-2.9-1.7-2.9a5.46,5.46,0,0,0-2.3.6v6.5Z" fill="#3a3d3f"/><path d="M140.2,121.5H139V121a5.54,5.54,0,0,1-2.4.7c-1.6,0-2.9-.6-2.9-4.1,0-2.8.9-4.2,3.3-4.2.7,0,1.7.2,2,.2v-3.5h1.2v11.4Zm-1.1-1.5v-5.4c-.3,0-1.2-.2-1.9-.2-1.7,0-2.2,1.1-2.2,3.2,0,2.6.8,3,1.8,3A6.08,6.08,0,0,0,139.1,120Z" fill="#3a3d3f"/><path d="M151.2,113.6v1s-1.3-.1-1.9-.1c-1.8,0-2.3.8-2.3,2.9,0,2.4.4,3.2,2.4,3.2.6,0,1.9-.1,1.9-.1v1s-1.5.2-2.2.2c-2.5,0-3.3-1.2-3.3-4.3,0-2.9.9-4,3.3-4A21,21,0,0,1,151.2,113.6Z" fill="#3a3d3f"/><path d="M158.7,120.1c0,.5.4.6.9.7v.9a2.88,2.88,0,0,1-1.9-.6,8.36,8.36,0,0,1-2.9.6,2.09,2.09,0,0,1-2.3-2.4c0-1.5.8-2.2,2.4-2.4l2.5-.2V116c0-1.1-.5-1.5-1.4-1.5-1.1,0-3,.2-3,.2v-.9a17.74,17.74,0,0,1,3.1-.4c1.8,0,2.6.8,2.6,2.6v4.1Zm-3.6-2.3c-1,.1-1.4.6-1.4,1.4s.4,1.5,1.2,1.5a8.16,8.16,0,0,0,2.5-.5v-2.6Z" fill="#3a3d3f"/><path d="M161.1,113.5h1.2v1.1a8.76,8.76,0,0,1,2.9-1.3v1.2a11.12,11.12,0,0,0-2.9,1.1v5.9h-1.2Z" fill="#3a3d3f"/><path d="M166.6,113.5h1.2v1.1a8.76,8.76,0,0,1,2.9-1.3v1.2a11.12,11.12,0,0,0-2.9,1.1v5.9h-1.2Z" fill="#3a3d3f"/><path d="M172.6,113.5l2,7h.5l2-7h1.2L175,125.1h-1.2l1-3.6h-1.2l-2.3-8Z" fill="#3a3d3f"/><path d="M187.3,111h1.2v10.6h-1.2v-9.2l-2.7,1.8-.6-.9Z" fill="#3a3d3f"/><path d="M197,119.5h-5.1v-1l3-7.5h1.3l-3.1,7.4h3.8v-3.3h1.2v3.3h1.3v1.1h-1.3v2.1h-1.2v-2.1Z" fill="#3a3d3f"/><path d="M208.4,113.6c0,1.4-.5,1.9-1.8,2.5a2.65,2.65,0,0,1,1.9,2.7c0,2.3-1.8,3-4,3s-3.9-.7-3.9-2.8a2.79,2.79,0,0,1,1.8-2.8,2.42,2.42,0,0,1-1.6-2.5c0-1.8,1.5-2.7,3.8-2.7C206.9,110.8,208.4,111.7,208.4,113.6Zm-1.1,4.9c0-1.2-.8-1.6-1.9-1.9h-1.7c-1.1.3-1.7.8-1.7,2,0,1.5,1.1,1.9,2.6,1.9S207.3,120.1,207.3,118.5Zm-5.1-4.8c0,1,.5,1.5,1.6,1.9h1.7c1.1-.4,1.7-.9,1.7-1.8,0-1.3-.9-1.8-2.5-1.8S202.2,112.4,202.2,113.7Z" fill="#3a3d3f"/><path d="M213.8,121.5v-8H215v.6a5.44,5.44,0,0,1,2.3-.7c1.1,0,1.7.2,2.1.8a6.56,6.56,0,0,1,2.8-.8c2.2,0,2.7,1,2.7,3.9v4.2h-1.2v-4.2c0-2.1-.2-2.9-1.7-2.9a5.46,5.46,0,0,0-2.3.6,12.14,12.14,0,0,1,.2,2.3v4.2h-1.2v-4.1c0-2.2-.2-3-1.7-3a4.64,4.64,0,0,0-2.1.6v6.5Z" fill="#3a3d3f"/><path d="M233.7,117.4c0,2.9-.7,4.3-3.4,4.3s-3.4-1.3-3.4-4.3c0-2.8.9-4.1,3.4-4.1S233.7,114.7,233.7,117.4Zm-1.3,0c0-2.2-.5-3-2.2-3s-2.2.8-2.2,3,.3,3.2,2.2,3.2S232.4,119.7,232.4,117.4Z" fill="#3a3d3f"/><path d="M235.6,113.5h1.2v1.1a8.76,8.76,0,0,1,2.9-1.3v1.2a11.12,11.12,0,0,0-2.9,1.1v5.9h-1.2Z" fill="#3a3d3f"/><path d="M247,120.5v.9a23.34,23.34,0,0,1-3.1.3c-2.4,0-3.2-1.4-3.2-4.1,0-3,1.3-4.2,3.3-4.2s3.2,1.1,3.2,3.7l-.1.9h-5.3c0,1.7.5,2.6,2.1,2.6C245.3,120.6,247,120.5,247,120.5Zm-.8-3.4c0-2-.6-2.7-2-2.7s-2.1.8-2.1,2.7Z" fill="#3a3d3f"/><path d="M259.2,117.4c0,3.2-.9,4.3-3.8,4.3-1,0-2.7-.2-2.7-.2V110h1.2v3.9a6.21,6.21,0,0,1,2.4-.6C258.5,113.4,259.2,114.5,259.2,117.4Zm-1.2,0c0-2.1-.4-3-1.8-3a6.13,6.13,0,0,0-2.2.5v5.6s1,.1,1.5.1C257.6,120.6,258,119.7,258,117.4Z" fill="#3a3d3f"/><path d="M266.8,120.1c0,.5.4.6.9.7v.9a2.88,2.88,0,0,1-1.9-.6,8.36,8.36,0,0,1-2.9.6,2.09,2.09,0,0,1-2.3-2.4c0-1.5.8-2.2,2.4-2.4l2.5-.2V116c0-1.1-.5-1.5-1.4-1.5-1.1,0-3,.2-3,.2v-.9a17.74,17.74,0,0,1,3.1-.4c1.8,0,2.6.8,2.6,2.6v4.1Zm-3.6-2.3c-1,.1-1.4.6-1.4,1.4s.4,1.5,1.2,1.5a8.16,8.16,0,0,0,2.5-.5v-2.6Z" fill="#3a3d3f"/><path d="M268.8,122.9c0-.9.4-1.4,1.3-2a1.25,1.25,0,0,1-.4-1.1,5.89,5.89,0,0,1,.5-1.3c-.7-.3-1.3-.9-1.3-2.4,0-2,1.2-2.7,3-2.7a9.2,9.2,0,0,1,1.7.2l2.4-.1v1h-1.5a2.17,2.17,0,0,1,.5,1.6c0,2.1-1,2.7-3.1,2.7a2.2,2.2,0,0,1-.8-.1,4.65,4.65,0,0,0-.3.9c0,.6.1.7,1.9.7,2.3,0,3.1.4,3.1,2.4,0,1.8-1.3,2.5-3.6,2.5C269.7,125.3,268.8,124.7,268.8,122.9Zm2.1-1.5c-.7.5-.9.8-.9,1.4,0,1.1.5,1.5,2.3,1.5,1.6,0,2.3-.4,2.3-1.5s-.5-1.3-2-1.3C272.1,121.5,270.9,121.4,270.9,121.4Zm2.9-5.3c0-1.3-.5-1.8-1.8-1.8s-1.8.5-1.8,1.8.5,1.7,1.8,1.7S273.8,117.4,273.8,116.1Z" fill="#3a3d3f"/><path d="M282.7,114.7a23.1,23.1,0,0,0-2.8-.3c-1,0-1.7.3-1.7,1.2s.4,1,2.1,1.2c2,.3,2.8.7,2.8,2.3,0,1.9-1.2,2.5-3.1,2.5a23.1,23.1,0,0,1-2.8-.3l.1-1a23.63,23.63,0,0,0,2.6.3c1.3,0,2-.3,2-1.4,0-.8-.4-1-2.2-1.3s-2.7-.6-2.7-2.2c0-1.8,1.4-2.3,2.9-2.3a20.81,20.81,0,0,1,2.9.3Z" fill="#3a3d3f"/><path d="M284.8,119.7h1.3v1.8h-1.3Z" fill="#3a3d3f"/><path d="M57.2,64.1a6,6,0,0,1-6,6,5.93,5.93,0,0,1-6-5.9V57.4l5.9-5.9V43.4a.68.68,0,0,0-.7-.7h-2v-6a1.22,1.22,0,0,0-1.2-1.2H47a1.22,1.22,0,0,0-1.2,1.2v6H40.5v-6a1.22,1.22,0,0,0-1.2-1.2,1.29,1.29,0,0,0-1.2,1.2v6H36.2a.68.68,0,0,0-.7.7v8.1l5.9,5.9v6.7a10.18,10.18,0,0,0,10.1,10A10.07,10.07,0,0,0,61.6,64H57.2Z" fill="#2277d6"/><path d="M554.3,100.3h6.2v.9h-2.6v7.7H557v-7.7h-2.6v-.9Z" fill="#3a3d3f"/><path d="M565.9,105.7c0,2.3-.6,3.3-2.7,3.3s-2.7-1-2.7-3.3c0-2.1.7-3.1,2.7-3.1S565.9,103.5,565.9,105.7Zm-1,0c0-1.7-.4-2.3-1.7-2.3s-1.7.6-1.7,2.3.2,2.5,1.7,2.5S564.9,107.4,564.9,105.7Z" fill="#3a3d3f"/><path d="M572.2,108.8h-.9v-.4a5.05,5.05,0,0,1-1.9.5c-1.2,0-2.2-.5-2.2-3.2,0-2.2.7-3.3,2.6-3.3a5.42,5.42,0,0,1,1.5.2V99.9h.9v8.9Zm-1-1.1v-4.2c-.2,0-1-.1-1.5-.1-1.3,0-1.7.9-1.7,2.5,0,2,.7,2.3,1.4,2.3A5.76,5.76,0,0,0,571.2,107.7Z" fill="#3a3d3f"/><path d="M578.3,107.7c0,.4.3.5.7.5v.7a1.84,1.84,0,0,1-1.5-.5,6.13,6.13,0,0,1-2.2.5c-1.1,0-1.7-.6-1.7-1.9s.6-1.7,1.9-1.8l1.9-.2v-.5c0-.9-.4-1.2-1.1-1.2a20.87,20.87,0,0,0-2.3.2v-.7a14.26,14.26,0,0,1,2.4-.3c1.4,0,2,.6,2,2v3.2Zm-2.7-1.8c-.8.1-1.1.4-1.1,1.1s.3,1.1.9,1.1a6,6,0,0,0,1.9-.4v-2Z" fill="#3a3d3f"/><path d="M580.3,102.6l1.5,5.4h.4l1.6-5.4h.9l-2.6,8.9h-.9l.8-2.8h-.9l-1.8-6.2h1Z" fill="#3a3d3f"/><path d="M598,13.6h3v18h-3.2V17.1l-4.5,2.7-1.5-2.3Z" fill="#2277d6"/><path d="M607.4,31.6V12.3h3.2v6.4a11.77,11.77,0,0,1,4-1c4,0,5,2.1,5,6.6v7.3h-3.2V24.4c0-2.7-.3-4.1-2.6-4.1a11.55,11.55,0,0,0-3.3.6V31.6Z" fill="#2277d6"/><circle cx="569.6" cy="55.5" r="23.9" fill="none" stroke="#3899e8" stroke-miterlimit="10" stroke-width="4"/><path d="M569.6,38.5a18.2,18.2,0,0,1,18.2,18.2H569.6Z" fill="#8dc5f2"/><path d="M531,118.5h1.56v10.12h-1.7v-8.18L528.43,122l-.78-1.27Z"/><path d="M535.92,128.62v-1.45l2.5-2.58c1.3-1.33,2.05-2.15,2.05-3.22s-.59-1.52-1.9-1.52a15.56,15.56,0,0,0-2.48.28l-.11-1.35a11.86,11.86,0,0,1,3-.45c2.24,0,3.27.92,3.27,2.83,0,1.53-.65,2.42-2.21,3.88l-2.16,2.1h4.57v1.48Z"/><path d="M544.42,121.77h1.79V124h-1.79Zm0,4.65h1.79v2.2h-1.79Z"/><path d="M555.26,123.67c0,3.85-1.39,5.12-3.82,5.12s-3.83-1.25-3.83-5.12,1.4-5.34,3.83-5.34S555.26,119.68,555.26,123.67Zm-5.89,0c0,2.78.69,3.64,2.09,3.64s2-.86,2-3.64c0-3-.63-3.85-2.06-3.85S549.37,120.68,549.37,123.67Z"/><path d="M563.85,123.67c0,3.85-1.39,5.12-3.81,5.12s-3.84-1.25-3.84-5.12,1.4-5.34,3.84-5.34S563.85,119.68,563.85,123.67Zm-5.88,0c0,2.78.69,3.64,2.08,3.64s2-.86,2-3.64c0-3-.63-3.85-2.05-3.85S558,120.68,558,123.67Z"/><path d="M568.64,123.73h4.59v1.52h-4.59Z"/><path d="M582.19,118.5h1.56v10.12h-1.7v-8.18L579.67,122l-.78-1.27Z"/><path d="M587.15,118.83a10.09,10.09,0,0,1,3-.5c2.54,0,3.42.88,3.42,2.72a2.56,2.56,0,0,1-1.34,2.28,2.13,2.13,0,0,1,1.53,2.3c0,2.1-1,3.16-3.37,3.16a15.12,15.12,0,0,1-3.31-.47l.11-1.32a19.92,19.92,0,0,0,3,.31c1.24,0,1.84-.53,1.84-1.63s-.74-1.5-1.73-1.52h-2v-1.42h2a1.63,1.63,0,0,0,1.53-1.58c0-.92-.52-1.34-1.76-1.34a16.34,16.34,0,0,0-2.72.29Z"/><path d="M595.66,121.77h1.8V124h-1.8Zm0,4.65h1.8v2.2h-1.8Z"/><path d="M606.5,123.67c0,3.85-1.39,5.12-3.81,5.12s-3.84-1.25-3.84-5.12,1.4-5.34,3.84-5.34S606.5,119.68,606.5,123.67Zm-5.88,0c0,2.78.69,3.64,2.08,3.64s2-.86,2-3.64c0-3-.63-3.85-2-3.85S600.62,120.68,600.62,123.67Z"/><path d="M615.1,123.67c0,3.85-1.4,5.12-3.82,5.12s-3.84-1.25-3.84-5.12,1.4-5.34,3.84-5.34S615.1,119.68,615.1,123.67Zm-5.89,0c0,2.78.69,3.64,2.08,3.64s2-.86,2-3.64c0-3-.63-3.85-2.05-3.85S609.21,120.68,609.21,123.67Z"/></g></g></svg>