<svg xmlns="http://www.w3.org/2000/svg" viewBox="0 0 631.5 273.6"><title>ap_1_Tablet_1</title><g id="Layer_2" data-name="Layer 2"><g id="White_Bg_For_AP"><rect width="631.5" height="273.6" fill="#fff"/><polyline points="297.5 243.1 317.3 258.1 337.1 243.1" fill="none" stroke="#5b5b5b" stroke-linecap="round" stroke-linejoin="round" stroke-width="2"/></g><g id="CMs_Msk_Screen"><path d="M118.92,32.4v4.89h-1.61V22.76h5.31c3.17,0,4.64,1.53,4.64,4.68s-1.47,5-4.64,5ZM122.6,31c2.12,0,3-1.28,3-3.53s-.88-3.25-3-3.25h-3.68V31Z"/><path d="M131.38,31.73v5.56h-1.62V22.76h5.38c3,0,4.64,1.34,4.64,4.41,0,2.14-.84,3.63-2.67,4.22l2.79,5.9h-1.78l-2.63-5.56Zm3.76-7.54h-3.76V30.3h3.78c2.18,0,3-1.3,3-3.13C138.12,25.17,137.17,24.19,135.14,24.19Z"/><path d="M142.7,22.76h1.61V37.29H142.7Z"/><path d="M147.28,30.09c0-4.79,1.23-7.54,5.73-7.54s5.75,2.71,5.75,7.54c0,5-1.24,7.41-5.75,7.41S147.28,35,147.28,30.09Zm9.8,0c0-3.93-.76-6.11-4.07-6.11s-4.08,2.16-4.08,6.11.72,6,4.08,6S157.08,34.18,157.08,30.09Z"/><path d="M163.34,31.73v5.56h-1.62V22.76h5.38c3,0,4.64,1.34,4.64,4.41,0,2.14-.84,3.63-2.67,4.22l2.79,5.9h-1.78l-2.63-5.56Zm3.76-7.54h-3.76V30.3h3.78c2.18,0,3-1.3,3-3.13C170.08,25.17,169.13,24.19,167.1,24.19Z"/><path d="M174.66,22.76h1.61V37.29h-1.61Z"/><path d="M178.31,22.76h10.5v1.45h-4.43V37.29h-1.6V24.21h-4.47Z"/><path d="M190.87,22.76h1.62V37.29h-1.62Z"/><path d="M195.15,22.76h9.45v1.89L197,35.44v.42h7.6v1.45h-9.45V35.44l7.58-10.79v-.46h-7.58Z"/><path d="M207.29,22.76h1.62V37.29h-1.62Z"/><path d="M212.46,22.76h3L221,35.86h.44V22.76h1.6V37.29h-3l-5.65-13.1h-.4v13.1h-1.61Z"/><path d="M232.41,29.86h4V37a36.46,36.46,0,0,1-4.73.5c-4.45,0-5.63-2.73-5.63-7.43s1.22-7.52,5.59-7.52a27,27,0,0,1,4.77.55l-.07,1.34a33.29,33.29,0,0,0-4.51-.44c-3.36,0-4.1,1.95-4.1,6.07s.72,6,4.08,6a20.23,20.23,0,0,0,3-.29V31.31h-2.41Z"/><path d="M244.21,22.76h8.69v1.43h-7.07v5.67h6v1.42h-6v6h-1.62Z"/><path d="M255.25,37.29V22.76h1.62V35.84h6.38v1.45Z"/><path d="M265.31,22.76h1.62V37.29h-1.62Z"/><path d="M276.23,29.86h4V37a36.25,36.25,0,0,1-4.72.5c-4.45,0-5.63-2.73-5.63-7.43s1.22-7.52,5.59-7.52a26.82,26.82,0,0,1,4.76.55l-.06,1.34a33.29,33.29,0,0,0-4.51-.44c-3.36,0-4.1,1.95-4.1,6.07s.72,6,4.07,6a20.39,20.39,0,0,0,3-.29V31.31h-2.42Z"/><path d="M292.42,30.72H285v6.57h-1.62V22.76H285v6.51h7.39V22.76H294V37.29h-1.6Z"/><path d="M296.08,22.76h10.5v1.45h-4.43V37.29h-1.6V24.21h-4.47Z"/><path d="M316.78,24.31s-2.92-.35-4.13-.35c-2.06,0-3.15.73-3.15,2.37,0,1.89,1,2.2,3.55,2.77,2.89.65,4.17,1.37,4.17,3.91,0,3.21-1.76,4.47-4.64,4.47A38.45,38.45,0,0,1,308,37l.17-1.35s2.86.38,4.35.38c2.06,0,3.11-.9,3.11-2.92,0-1.64-.86-2.1-3.24-2.56-3-.65-4.51-1.36-4.51-4.14s1.85-3.9,4.68-3.9a36.26,36.26,0,0,1,4.39.42Z"/><path d="M518.26,135.48h1.56V145.6h-1.7v-8.19L515.74,139l-.78-1.28Z"/><path d="M523.32,135.48h6.38v2L526,145.77l-1.59-.46,3.6-7.84V137h-4.66Z"/><path d="M531.73,138.75h1.79V141h-1.79Zm0,4.64h1.79v2.21h-1.79Z"/><path d="M542.57,140.65c0,3.85-1.39,5.12-3.82,5.12s-3.83-1.26-3.83-5.12,1.39-5.34,3.83-5.34S542.57,136.66,542.57,140.65Zm-5.89,0c0,2.77.69,3.63,2.09,3.63s2-.86,2-3.63c0-3-.63-3.85-2.06-3.85S536.68,137.66,536.68,140.65Z"/><path d="M551.16,140.65c0,3.85-1.39,5.12-3.82,5.12s-3.83-1.26-3.83-5.12,1.4-5.34,3.83-5.34S551.16,136.66,551.16,140.65Zm-5.89,0c0,2.77.69,3.63,2.09,3.63s2-.86,2-3.63c0-3-.63-3.85-2.06-3.85S545.27,137.66,545.27,140.65Z"/><path d="M556,140.71h4.59v1.52H556Z"/><path d="M565.88,145.6v-1.45l2.5-2.58c1.3-1.33,2-2.15,2-3.22s-.59-1.52-1.9-1.52a15.56,15.56,0,0,0-2.48.28l-.11-1.35a11.86,11.86,0,0,1,3-.45c2.24,0,3.27.92,3.27,2.82,0,1.54-.65,2.43-2.21,3.88l-2.16,2.11h4.57v1.48Z"/><path d="M581.55,140.65c0,3.85-1.39,5.12-3.81,5.12s-3.84-1.26-3.84-5.12,1.4-5.34,3.84-5.34S581.55,136.66,581.55,140.65Zm-5.88,0c0,2.77.69,3.63,2.08,3.63s2-.86,2-3.63c0-3-.63-3.85-2-3.85S575.67,137.66,575.67,140.65Z"/><path d="M583,138.75h1.79V141H583Zm0,4.64h1.79v2.21H583Z"/><path d="M593.81,140.65c0,3.85-1.39,5.12-3.82,5.12s-3.83-1.26-3.83-5.12,1.4-5.34,3.83-5.34S593.81,136.66,593.81,140.65Zm-5.89,0c0,2.77.69,3.63,2.09,3.63s2-.86,2-3.63c0-3-.63-3.85-2.06-3.85S587.92,137.66,587.92,140.65Z"/><path d="M602.4,140.65c0,3.85-1.39,5.12-3.81,5.12s-3.84-1.26-3.84-5.12,1.4-5.34,3.84-5.34S602.4,136.66,602.4,140.65Zm-5.88,0c0,2.77.69,3.63,2.08,3.63s2-.86,2-3.63c0-3-.63-3.85-2-3.85S596.52,137.66,596.52,140.65Z"/><path d="M542.92,117.19h6.19V118H546.5v7.72h-.94V118h-2.64Z" fill="#3a3d3f"/><path d="M554.54,122.59c0,2.25-.56,3.29-2.65,3.29s-2.65-1-2.65-3.29.69-3.15,2.65-3.15S554.54,120.46,554.54,122.59Zm-.95,0c0-1.72-.37-2.34-1.7-2.34s-1.7.62-1.7,2.34.24,2.49,1.7,2.49S553.59,124.35,553.59,122.59Z" fill="#3a3d3f"/><path d="M560.81,125.76h-.92v-.42a4.44,4.44,0,0,1-1.88.54c-1.21,0-2.23-.49-2.23-3.17,0-2.18.71-3.27,2.59-3.27a9.91,9.91,0,0,1,1.52.16v-2.74h.92Zm-.92-1.17v-4.2a11.77,11.77,0,0,0-1.47-.14c-1.3,0-1.69.85-1.69,2.46,0,2,.66,2.34,1.39,2.34A4.48,4.48,0,0,0,559.89,124.59Z" fill="#3a3d3f"/><path d="M567,124.61c0,.36.32.49.72.54l0,.73a1.89,1.89,0,0,1-1.47-.49,6.43,6.43,0,0,1-2.23.49c-1.13,0-1.75-.64-1.75-1.89s.62-1.71,1.9-1.84l1.94-.18v-.53c0-.87-.37-1.18-1.11-1.18s-2.34.16-2.34.16l0-.71a15.1,15.1,0,0,1,2.43-.27c1.4,0,2,.65,2,2Zm-2.76-1.76c-.76.07-1.05.43-1.05,1.11s.31,1.14.94,1.14a6.54,6.54,0,0,0,1.94-.38v-2Z" fill="#3a3d3f"/><path d="M569,119.56l1.55,5.39H571l1.56-5.39h.93l-2.58,8.95h-.93l.81-2.75h-.92l-1.76-6.2Z" fill="#3a3d3f"/><path d="M80.85,53a33.5,33.5,0,1,1-33.5-33.5A33.5,33.5,0,0,1,80.85,53" fill="#e3f0fc"/><path d="M119,58.67h2.69l3,11.07h-1.22l-.8-2.84h-4.74l-.8,2.84h-1.21Zm-.76,7.12h4.2l-1.68-6.07h-.83Z" fill="#3a3d3f"/><path d="M131.52,62.91a25.63,25.63,0,0,0-2.8-.26c-1,0-1.74.28-1.74,1.22,0,.75.38,1,2.08,1.25,2,.33,2.75.73,2.75,2.29,0,1.87-1.18,2.49-3.1,2.49a22.82,22.82,0,0,1-2.82-.3l.06-1s1.83.27,2.64.27c1.32,0,2-.29,2-1.37,0-.84-.41-1-2.16-1.32s-2.67-.62-2.67-2.22c0-1.76,1.42-2.34,2.88-2.34a20.81,20.81,0,0,1,2.9.3Z" fill="#3a3d3f"/><path d="M139,62.91a25.63,25.63,0,0,0-2.8-.26c-1,0-1.74.28-1.74,1.22,0,.75.38,1,2.08,1.25,2,.33,2.75.73,2.75,2.29,0,1.87-1.18,2.49-3.1,2.49a22.82,22.82,0,0,1-2.82-.3l.06-1s1.83.27,2.65.27c1.31,0,2-.29,2-1.37,0-.84-.41-1-2.16-1.32s-2.67-.62-2.67-2.22c0-1.76,1.42-2.34,2.88-2.34a20.81,20.81,0,0,1,2.9.3Z" fill="#3a3d3f"/><path d="M141.09,58.54h1.2v1.39h-1.2Zm0,3.2h1.2v8h-1.2Z" fill="#3a3d3f"/><path d="M144.24,71.09c0-.93.43-1.36,1.27-2a1.28,1.28,0,0,1-.45-1.1,5.2,5.2,0,0,1,.54-1.26,2.34,2.34,0,0,1-1.26-2.42c0-2,1.21-2.74,3-2.74a8.3,8.3,0,0,1,1.67.21l2.36-.06v1l-1.52,0a2,2,0,0,1,.53,1.6c0,2.08-1,2.7-3.09,2.7a7,7,0,0,1-.78-.06,4.66,4.66,0,0,0-.29.91c0,.64.13.74,1.94.74,2.27,0,3.09.45,3.09,2.35s-1.3,2.55-3.56,2.55C145.15,73.51,144.24,73,144.24,71.09Zm2.08-1.51c-.67.5-.89.79-.89,1.41,0,1.11.46,1.51,2.27,1.51,1.6,0,2.32-.43,2.32-1.49,0-1.22-.51-1.35-2-1.35C147.49,69.66,146.32,69.58,146.32,69.58Zm2.85-5.26c0-1.27-.49-1.76-1.84-1.76s-1.79.49-1.79,1.76.54,1.74,1.79,1.74S149.17,65.58,149.17,64.32Z" fill="#3a3d3f"/><path d="M152.82,69.74v-8H154v.56a6.1,6.1,0,0,1,2.48-.72c2.21,0,2.71,1.09,2.71,3.94v4.22H158V65.55c0-2.11-.24-2.9-1.72-2.9a5.4,5.4,0,0,0-2.26.6v6.49Z" fill="#3a3d3f"/><path d="M161.41,58.54h1.2v1.39h-1.2Zm0,3.2h1.2v8h-1.2Z" fill="#3a3d3f"/><path d="M164.91,69.74v-8h1.19v.56a6,6,0,0,1,2.48-.72c2.21,0,2.7,1.09,2.7,3.94v4.22H170.1V65.55c0-2.11-.24-2.9-1.73-2.9a5.46,5.46,0,0,0-2.26.6v6.49Z" fill="#3a3d3f"/><path d="M173.15,71.09c0-.93.44-1.36,1.27-2A1.28,1.28,0,0,1,174,68a5.2,5.2,0,0,1,.54-1.26,2.34,2.34,0,0,1-1.26-2.42c0-2,1.22-2.74,3-2.74a8.3,8.3,0,0,1,1.67.21l2.37-.06v1l-1.52,0a2.09,2.09,0,0,1,.52,1.6c0,2.08-1,2.7-3.09,2.7a7.19,7.19,0,0,1-.78-.06,4.66,4.66,0,0,0-.29.91c0,.64.13.74,1.94.74,2.27,0,3.09.45,3.09,2.35s-1.3,2.55-3.56,2.55C174.07,73.51,173.15,73,173.15,71.09Zm2.08-1.51c-.67.5-.89.79-.89,1.41,0,1.11.46,1.51,2.27,1.51,1.6,0,2.32-.43,2.32-1.49,0-1.22-.51-1.35-2-1.35C176.4,69.66,175.23,69.58,175.23,69.58Zm2.85-5.26c0-1.27-.49-1.76-1.84-1.76s-1.79.49-1.79,1.76.54,1.74,1.79,1.74S178.08,65.58,178.08,64.32Z" fill="#3a3d3f"/><path d="M191.39,69.74h-1.18V69.2a5.75,5.75,0,0,1-2.43.7c-1.57,0-2.88-.64-2.88-4.09,0-2.82.91-4.23,3.34-4.23a13.07,13.07,0,0,1,2,.21V58.25h1.18Zm-1.18-1.5V62.81a15.12,15.12,0,0,0-1.9-.19c-1.68,0-2.18,1.11-2.18,3.19,0,2.59.85,3,1.79,3A5.82,5.82,0,0,0,190.21,68.24Z" fill="#3a3d3f"/><path d="M199.62,68.7l0,1a28.44,28.44,0,0,1-3.12.25c-2.39,0-3.17-1.39-3.17-4.11,0-3,1.31-4.21,3.35-4.21s3.21,1.12,3.21,3.75l-.06.91h-5.28c0,1.71.52,2.61,2.09,2.61C197.87,68.85,199.62,68.7,199.62,68.7Zm-.9-3.42c0-2-.61-2.69-2-2.69s-2.13.75-2.15,2.69Z" fill="#3a3d3f"/><path d="M207.94,69.74h-1.19V69.2a5.75,5.75,0,0,1-2.43.7c-1.57,0-2.88-.64-2.88-4.09,0-2.82.91-4.23,3.35-4.23a13.07,13.07,0,0,1,2,.21V58.25h1.19Zm-1.19-1.5V62.81a14.72,14.72,0,0,0-1.9-.19c-1.68,0-2.18,1.11-2.18,3.19,0,2.59.85,3,1.79,3A5.82,5.82,0,0,0,206.75,68.24Z" fill="#3a3d3f"/><path d="M210.26,58.54h1.2v1.39h-1.2Zm0,3.2h1.2v8h-1.2Z" fill="#3a3d3f"/><path d="M218.93,61.82l-.05,1s-1.28-.15-1.89-.15c-1.84,0-2.33.8-2.33,2.95,0,2.37.36,3.23,2.35,3.23.61,0,1.89-.14,1.89-.14l0,1a21.65,21.65,0,0,1-2.23.22c-2.54,0-3.3-1.16-3.3-4.3,0-2.9,1-4,3.33-4A18.56,18.56,0,0,1,218.93,61.82Z" fill="#3a3d3f"/><path d="M226.39,68.26c0,.46.41.64.92.7l0,.94a2.46,2.46,0,0,1-1.91-.64,8.18,8.18,0,0,1-2.88.64c-1.46,0-2.26-.83-2.26-2.44s.8-2.21,2.45-2.37l2.52-.24v-.69c0-1.12-.48-1.52-1.44-1.52-1.13,0-3,.21-3,.21l-.05-.92a19.49,19.49,0,0,1,3.14-.35c1.81,0,2.58.83,2.58,2.58ZM222.82,66c-1,.1-1.36.56-1.36,1.44s.4,1.48,1.21,1.48a8.45,8.45,0,0,0,2.52-.5V65.76Z" fill="#3a3d3f"/><path d="M230.35,62.78v3.83c0,1.74.11,2.24,1.15,2.24.45,0,1.43-.1,1.43-.1l.08,1a13.65,13.65,0,0,1-1.63.18c-1.65,0-2.21-.62-2.21-2.93V62.78H228v-1h1.14V59.29h1.18v2.45h2.55v1Z" fill="#3a3d3f"/><path d="M240.27,68.7l0,1a28.73,28.73,0,0,1-3.13.25c-2.38,0-3.16-1.39-3.16-4.11,0-3,1.31-4.21,3.34-4.21s3.22,1.12,3.22,3.75l-.07.91h-5.28c0,1.71.53,2.61,2.1,2.61C238.53,68.85,240.27,68.7,240.27,68.7Zm-.89-3.42c0-2-.61-2.69-2-2.69s-2.13.75-2.14,2.69Z" fill="#3a3d3f"/><path d="M248.59,69.74h-1.18V69.2a5.75,5.75,0,0,1-2.43.7c-1.57,0-2.88-.64-2.88-4.09,0-2.82.91-4.23,3.34-4.23a13.07,13.07,0,0,1,2,.21V58.25h1.18Zm-1.18-1.5V62.81a15.12,15.12,0,0,0-1.9-.19c-1.69,0-2.18,1.11-2.18,3.19,0,2.59.85,3,1.79,3A5.82,5.82,0,0,0,247.41,68.24Z" fill="#3a3d3f"/><path d="M259.6,61.82l-.05,1s-1.28-.15-1.89-.15c-1.84,0-2.33.8-2.33,2.95,0,2.37.37,3.23,2.35,3.23.61,0,1.89-.14,1.89-.14l.05,1a21.65,21.65,0,0,1-2.23.22c-2.54,0-3.3-1.16-3.3-4.3,0-2.9.95-4,3.33-4A18.56,18.56,0,0,1,259.6,61.82Z" fill="#3a3d3f"/><path d="M261.41,69.74V58.25h1.2v3.94a6.74,6.74,0,0,1,2.46-.61c2.19,0,2.71,1.09,2.71,3.94v4.22h-1.2V65.55c0-2.11-.24-2.9-1.72-2.9a6.57,6.57,0,0,0-2.25.48v6.61Z" fill="#3a3d3f"/><path d="M275.9,68.7l0,1a28.71,28.71,0,0,1-3.12.25c-2.39,0-3.17-1.39-3.17-4.11,0-3,1.31-4.21,3.34-4.21s3.22,1.12,3.22,3.75l-.07.91h-5.28c0,1.71.53,2.61,2.1,2.61C274.16,68.85,275.9,68.7,275.9,68.7ZM275,65.28c0-2-.61-2.69-2-2.69s-2.13.75-2.14,2.69Z" fill="#3a3d3f"/><path d="M283.25,61.82l-.05,1s-1.28-.15-1.89-.15c-1.84,0-2.34.8-2.34,2.95,0,2.37.37,3.23,2.36,3.23.61,0,1.89-.14,1.89-.14l0,1a21.35,21.35,0,0,1-2.22.22c-2.55,0-3.3-1.16-3.3-4.3,0-2.9.95-4,3.33-4A18.56,18.56,0,0,1,283.25,61.82Z" fill="#3a3d3f"/><path d="M285.05,69.74V58.25h1.2V65L287.5,65l2.29-3.23h1.36l-2.61,3.68,2.72,4.32H289.9L287.52,66l-1.27,0v3.66Z" fill="#3a3d3f"/><path d="M292.65,64.78h4.85V65.9h-4.85Z" fill="#3a3d3f"/><path d="M299.73,58.54h1.2v1.39h-1.2Zm0,3.2h1.2v8h-1.2Z" fill="#3a3d3f"/><path d="M303.23,69.74v-8h1.18v.56a6.11,6.11,0,0,1,2.49-.72c2.2,0,2.7,1.09,2.7,3.94v4.22h-1.18V65.55c0-2.11-.24-2.9-1.73-2.9a5.4,5.4,0,0,0-2.26.6v6.49Z" fill="#3a3d3f"/><path d="M321.49,69.74H320.3V69.2a5.75,5.75,0,0,1-2.43.7c-1.57,0-2.88-.64-2.88-4.09,0-2.82.91-4.23,3.34-4.23a13.07,13.07,0,0,1,2,.21V58.25h1.19Zm-1.19-1.5V62.81a14.92,14.92,0,0,0-1.9-.19c-1.68,0-2.18,1.11-2.18,3.19,0,2.59.85,3,1.79,3A5.82,5.82,0,0,0,320.3,68.24Z" fill="#3a3d3f"/><path d="M329.71,68.7l0,1a28.44,28.44,0,0,1-3.12.25c-2.38,0-3.17-1.39-3.17-4.11,0-3,1.32-4.21,3.35-4.21S330,62.7,330,65.33l-.07.91h-5.28c0,1.71.53,2.61,2.1,2.61C328,68.85,329.71,68.7,329.71,68.7Zm-.9-3.42c0-2-.6-2.69-2-2.69s-2.13.75-2.15,2.69Z" fill="#3a3d3f"/><path d="M337.2,62.91a25.92,25.92,0,0,0-2.8-.26c-1,0-1.75.28-1.75,1.22,0,.75.39,1,2.08,1.25,2,.33,2.76.73,2.76,2.29,0,1.87-1.19,2.49-3.11,2.49a23.08,23.08,0,0,1-2.82-.3l.07-1s1.82.27,2.64.27c1.31,0,2-.29,2-1.37,0-.84-.42-1-2.16-1.32s-2.68-.62-2.68-2.22c0-1.76,1.43-2.34,2.88-2.34a20.81,20.81,0,0,1,2.9.3Z" fill="#3a3d3f"/><path d="M339.32,69.74V58.25h1.2V65l1.25-.07,2.29-3.23h1.36l-2.61,3.68,2.73,4.32h-1.37L341.79,66l-1.27,0v3.66Z" fill="#3a3d3f"/><path d="M352.3,62.91a25.63,25.63,0,0,0-2.8-.26c-1,0-1.74.28-1.74,1.22,0,.75.38,1,2.08,1.25,2,.33,2.75.73,2.75,2.29,0,1.87-1.18,2.49-3.1,2.49a22.82,22.82,0,0,1-2.82-.3l.06-1s1.83.27,2.64.27c1.32,0,2-.29,2-1.37,0-.84-.42-1-2.16-1.32s-2.67-.62-2.67-2.22c0-1.76,1.42-2.34,2.88-2.34a20.81,20.81,0,0,1,2.9.3Z" fill="#3a3d3f"/><path d="M359.55,62.78v3.83c0,1.74.11,2.24,1.15,2.24.45,0,1.43-.1,1.43-.1l.08,1a13.91,13.91,0,0,1-1.64.18c-1.65,0-2.21-.62-2.21-2.93V62.78h-1.13v-1h1.13V59.29h1.19v2.45h2.54v1Z" fill="#3a3d3f"/><path d="M370.06,65.65c0,2.91-.72,4.25-3.42,4.25s-3.43-1.34-3.43-4.25.9-4.07,3.43-4.07S370.06,62.89,370.06,65.65Zm-1.23,0c0-2.23-.48-3-2.19-3s-2.2.8-2.2,3,.31,3.21,2.2,3.21S368.83,67.92,368.83,65.65Z" fill="#3a3d3f"/><path d="M380.7,61.82l-.05,1s-1.28-.15-1.89-.15c-1.84,0-2.33.8-2.33,2.95,0,2.37.37,3.23,2.35,3.23.61,0,1.89-.14,1.89-.14l.05,1a21.65,21.65,0,0,1-2.23.22c-2.54,0-3.29-1.16-3.29-4.3,0-2.9.94-4,3.32-4A18.56,18.56,0,0,1,380.7,61.82Z" fill="#3a3d3f"/><path d="M388.41,68.7l0,1a28.73,28.73,0,0,1-3.13.25c-2.38,0-3.16-1.39-3.16-4.11,0-3,1.31-4.21,3.34-4.21s3.22,1.12,3.22,3.75l-.07.91h-5.28c0,1.71.53,2.61,2.1,2.61C386.67,68.85,388.41,68.7,388.41,68.7Zm-.89-3.42c0-2-.61-2.69-2-2.69s-2.13.75-2.14,2.69Z" fill="#3a3d3f"/><path d="M390.59,61.74h1.18v1.09a9,9,0,0,1,2.93-1.26v1.21a11.88,11.88,0,0,0-2.91,1.09v5.87h-1.2Z" fill="#3a3d3f"/><path d="M397.72,62.78v3.83c0,1.74.12,2.24,1.16,2.24.44,0,1.42-.1,1.42-.1l.08,1a13.65,13.65,0,0,1-1.63.18c-1.65,0-2.21-.62-2.21-2.93V62.78H395.4v-1h1.14V59.29h1.18v2.45h2.55v1Z" fill="#3a3d3f"/><path d="M407.39,68.26c0,.46.42.64.93.7l-.05.94a2.43,2.43,0,0,1-1.9-.64,8.27,8.27,0,0,1-2.89.64c-1.45,0-2.25-.83-2.25-2.44s.8-2.21,2.45-2.37l2.51-.24v-.69c0-1.12-.48-1.52-1.44-1.52-1.12,0-3,.21-3,.21l0-.92a19.47,19.47,0,0,1,3.13-.35c1.81,0,2.58.83,2.58,2.58ZM403.82,66c-1,.1-1.36.56-1.36,1.44s.4,1.48,1.22,1.48a8.44,8.44,0,0,0,2.51-.5V65.76Z" fill="#3a3d3f"/><path d="M409.76,58.54H411v1.39h-1.2Zm0,3.2H411v8h-1.2Z" fill="#3a3d3f"/><path d="M413.26,69.74v-8h1.18v.56a6.1,6.1,0,0,1,2.48-.72c2.21,0,2.71,1.09,2.71,3.94v4.22h-1.18V65.55c0-2.11-.24-2.9-1.73-2.9a5.4,5.4,0,0,0-2.26.6v6.49Z" fill="#3a3d3f"/><path d="M426.91,69.74h-1.2v-7h-1v-1h1V61c0-2.3.59-2.93,2.16-2.93.54,0,1.61.11,1.61.11v1s-.9,0-1.38,0c-.89,0-1.18.39-1.18,1.88v.7h2.32v1h-2.32Z" fill="#3a3d3f"/><path d="M430.76,58.25H432V69.74h-1.2Z" fill="#3a3d3f"/><path d="M434.36,58.54h1.2v1.39h-1.2Zm0,3.2h1.2v8h-1.2Z" fill="#3a3d3f"/><path d="M437.51,71.09c0-.93.44-1.36,1.27-2a1.28,1.28,0,0,1-.45-1.1,5.2,5.2,0,0,1,.54-1.26,2.34,2.34,0,0,1-1.26-2.42c0-2,1.22-2.74,3-2.74a8.3,8.3,0,0,1,1.67.21l2.37-.06v1l-1.52,0a2.09,2.09,0,0,1,.52,1.6c0,2.08-1,2.7-3.09,2.7a7.19,7.19,0,0,1-.78-.06,4.66,4.66,0,0,0-.29.91c0,.64.13.74,1.94.74,2.27,0,3.09.45,3.09,2.35s-1.3,2.55-3.55,2.55C438.43,73.51,437.51,73,437.51,71.09Zm2.08-1.51c-.67.5-.89.79-.89,1.41,0,1.11.46,1.51,2.27,1.51,1.6,0,2.32-.43,2.32-1.49,0-1.22-.51-1.35-2-1.35C440.76,69.66,439.59,69.58,439.59,69.58Zm2.85-5.26c0-1.27-.49-1.76-1.84-1.76s-1.79.49-1.79,1.76.54,1.74,1.79,1.74S442.44,65.58,442.44,64.32Z" fill="#3a3d3f"/><path d="M446.09,69.74V58.25h1.2v3.94a6.75,6.75,0,0,1,2.47-.61c2.19,0,2.7,1.09,2.7,3.94v4.22h-1.2V65.55c0-2.11-.24-2.9-1.71-2.9a6.59,6.59,0,0,0-2.26.48v6.61Z" fill="#3a3d3f"/><path d="M456.28,62.78v3.83c0,1.74.11,2.24,1.15,2.24.45,0,1.43-.1,1.43-.1l.08,1a13.65,13.65,0,0,1-1.63.18c-1.65,0-2.21-.62-2.21-2.93V62.78H454v-1h1.14V59.29h1.18v2.45h2.55v1Z" fill="#3a3d3f"/><path d="M465.61,62.91a25.92,25.92,0,0,0-2.8-.26c-1,0-1.74.28-1.74,1.22,0,.75.38,1,2.08,1.25,2,.33,2.75.73,2.75,2.29,0,1.87-1.19,2.49-3.11,2.49a22.83,22.83,0,0,1-2.81-.3l.06-1s1.83.27,2.64.27c1.31,0,2-.29,2-1.37,0-.84-.42-1-2.16-1.32s-2.67-.62-2.67-2.22c0-1.76,1.42-2.34,2.88-2.34a20.58,20.58,0,0,1,2.89.3Z" fill="#3a3d3f"/><path d="M116.67,94.74v-8h1.19v.56a5.37,5.37,0,0,1,2.34-.72,2.26,2.26,0,0,1,2.08.82,6.61,6.61,0,0,1,2.85-.82c2.17,0,2.7,1,2.7,3.94v4.22h-1.2V90.55c0-2.11-.24-2.9-1.68-2.9a5.23,5.23,0,0,0-2.26.6,8.7,8.7,0,0,1,.21,2.33v4.16h-1.2V90.61c0-2.2-.22-3-1.68-3a4.76,4.76,0,0,0-2.15.6v6.49Z" fill="#3a3d3f"/><path d="M130.05,83.54h1.2v1.39h-1.2Zm0,3.2h1.2v8h-1.2Z" fill="#3a3d3f"/><path d="M133.2,96.09c0-.93.43-1.36,1.27-2A1.28,1.28,0,0,1,134,93a5.2,5.2,0,0,1,.54-1.26,2.34,2.34,0,0,1-1.26-2.42c0-2,1.21-2.74,3-2.74a8.3,8.3,0,0,1,1.67.21l2.36-.06v1l-1.52,0a2,2,0,0,1,.53,1.6c0,2.08-1,2.7-3.09,2.7a7,7,0,0,1-.78-.06,4.66,4.66,0,0,0-.29.91c0,.64.13.74,1.94.74,2.27,0,3.09.45,3.09,2.35s-1.3,2.55-3.56,2.55C134.11,98.51,133.2,98,133.2,96.09Zm2.08-1.51c-.67.5-.89.79-.89,1.41,0,1.11.46,1.51,2.27,1.51,1.6,0,2.32-.43,2.32-1.49,0-1.22-.51-1.35-2-1.35C136.45,94.66,135.28,94.58,135.28,94.58Zm2.85-5.26c0-1.27-.49-1.76-1.84-1.76s-1.79.49-1.79,1.76.54,1.74,1.79,1.74S138.13,90.58,138.13,89.32Z" fill="#3a3d3f"/><path d="M141.78,94.74V83.25H143v3.94a6.74,6.74,0,0,1,2.46-.61c2.2,0,2.71,1.09,2.71,3.94v4.22H147V90.55c0-2.11-.24-2.9-1.72-2.9a6.57,6.57,0,0,0-2.25.48v6.61Z" fill="#3a3d3f"/><path d="M152,87.78v3.83c0,1.74.11,2.24,1.15,2.24.45,0,1.43-.1,1.43-.1l.08,1a13.91,13.91,0,0,1-1.64.18c-1.64,0-2.2-.62-2.2-2.93V87.78h-1.14v-1h1.14V84.29H152v2.45h2.54v1Z" fill="#3a3d3f"/><path d="M165.65,94.74h-1.18V94.2a5.81,5.81,0,0,1-2.44.7c-1.56,0-2.88-.64-2.88-4.09,0-2.82.92-4.23,3.35-4.23a13.07,13.07,0,0,1,2,.21V83.25h1.18Zm-1.18-1.5V87.81a15.12,15.12,0,0,0-1.91-.19c-1.68,0-2.17,1.11-2.17,3.19,0,2.59.84,3,1.79,3A5.88,5.88,0,0,0,164.47,93.24Z" fill="#3a3d3f"/><path d="M168,83.54h1.2v1.39H168Zm0,3.2h1.2v8H168Z" fill="#3a3d3f"/><path d="M176.79,87.91a25.92,25.92,0,0,0-2.8-.26c-1,0-1.75.28-1.75,1.22,0,.75.39,1,2.08,1.25,2,.33,2.76.73,2.76,2.29,0,1.87-1.19,2.49-3.11,2.49a23.08,23.08,0,0,1-2.82-.3l.07-1s1.82.27,2.64.27c1.31,0,2-.29,2-1.37,0-.84-.42-1-2.17-1.32S171,90.52,171,88.92c0-1.76,1.42-2.34,2.88-2.34a20.81,20.81,0,0,1,2.9.3Z" fill="#3a3d3f"/><path d="M180.51,87.78v3.83c0,1.74.12,2.24,1.16,2.24.44,0,1.42-.1,1.42-.1l.08,1a13.65,13.65,0,0,1-1.63.18c-1.65,0-2.21-.62-2.21-2.93V87.78h-1.14v-1h1.14V84.29h1.18v2.45h2.55v1Z" fill="#3a3d3f"/><path d="M184.53,86.74h1.18v1.09a9.07,9.07,0,0,1,2.93-1.26v1.21a11.88,11.88,0,0,0-2.91,1.09v5.87h-1.2Z" fill="#3a3d3f"/><path d="M190.06,83.54h1.2v1.39h-1.2Zm0,3.2h1.2v8h-1.2Z" fill="#3a3d3f"/><path d="M200,90.61c0,3.19-.87,4.29-3.78,4.29-1,0-2.67-.17-2.67-.17V83.25h1.18v3.89a6.64,6.64,0,0,1,2.36-.56C199.28,86.58,200,87.73,200,90.61Zm-1.22,0c0-2.06-.41-3-1.82-3a6.65,6.65,0,0,0-2.23.47v5.63s1,.08,1.48.08C198.42,93.83,198.8,92.86,198.8,90.61Z" fill="#3a3d3f"/><path d="M208.18,86.74v8H207v-.56a5.4,5.4,0,0,1-2.37.72c-2.24,0-2.71-1-2.71-4V86.74h1.2V90.9c0,2.21.2,2.93,1.69,2.93a4.87,4.87,0,0,0,2.19-.59v-6.5Z" fill="#3a3d3f"/><path d="M212.08,87.78v3.83c0,1.74.11,2.24,1.15,2.24.45,0,1.43-.1,1.43-.1l.08,1a13.65,13.65,0,0,1-1.63.18c-1.65,0-2.21-.62-2.21-2.93V87.78h-1.14v-1h1.14V84.29h1.18v2.45h2.55v1Z" fill="#3a3d3f"/><path d="M222,93.7l0,1a28.73,28.73,0,0,1-3.13.25c-2.38,0-3.16-1.39-3.16-4.11,0-3,1.31-4.21,3.34-4.21s3.22,1.12,3.22,3.75l-.07.91H217c0,1.71.53,2.61,2.1,2.61C220.26,93.85,222,93.7,222,93.7Zm-.89-3.42c0-2-.61-2.69-2-2.69s-2.13.75-2.14,2.69Z" fill="#3a3d3f"/><path d="M229.3,87.78v3.83c0,1.74.11,2.24,1.15,2.24.45,0,1.42-.1,1.42-.1l.08,1a13.65,13.65,0,0,1-1.63.18c-1.65,0-2.21-.62-2.21-2.93V87.78H227v-1h1.13V84.29h1.19v2.45h2.54v1Z" fill="#3a3d3f"/><path d="M233.31,94.74V83.25h1.2v3.94a6.75,6.75,0,0,1,2.47-.61c2.19,0,2.7,1.09,2.7,3.94v4.22h-1.2V90.55c0-2.11-.24-2.9-1.71-2.9a6.59,6.59,0,0,0-2.26.48v6.61Z" fill="#3a3d3f"/><path d="M247.81,93.7l0,1a28.44,28.44,0,0,1-3.12.25c-2.38,0-3.17-1.39-3.17-4.11,0-3,1.32-4.21,3.35-4.21s3.22,1.12,3.22,3.75l-.07.91h-5.28c0,1.71.53,2.61,2.1,2.61C246.07,93.85,247.81,93.7,247.81,93.7Zm-.9-3.42c0-2-.6-2.69-2-2.69s-2.13.75-2.15,2.69Z" fill="#3a3d3f"/><path d="M253.5,86.74h1.19v.58a5.44,5.44,0,0,1,2.4-.74c2,0,2.9,1.23,2.9,4.07,0,3.13-1,4.25-3.49,4.25a10.56,10.56,0,0,1-1.8-.17V98.3h-1.2Zm1.2,1.55v5.4a12.77,12.77,0,0,0,1.73.17c1.76,0,2.34-.91,2.34-3.21s-.69-3-1.86-3A5.27,5.27,0,0,0,254.7,88.29Z" fill="#3a3d3f"/><path d="M267.59,93.26c0,.46.41.64.92.7l0,.94a2.46,2.46,0,0,1-1.91-.64,8.18,8.18,0,0,1-2.88.64c-1.46,0-2.26-.83-2.26-2.44s.8-2.21,2.45-2.37l2.52-.24v-.69c0-1.12-.48-1.52-1.44-1.52-1.13,0-3,.21-3,.21l-.05-.92a19.49,19.49,0,0,1,3.14-.35c1.81,0,2.58.83,2.58,2.58ZM264,91c-1,.1-1.36.56-1.36,1.44s.4,1.48,1.21,1.48a8.45,8.45,0,0,0,2.52-.5V90.76Z" fill="#3a3d3f"/><path d="M275.27,87.91a25.92,25.92,0,0,0-2.81-.26c-1,0-1.74.28-1.74,1.22,0,.75.38,1,2.08,1.25,2,.33,2.75.73,2.75,2.29,0,1.87-1.18,2.49-3.1,2.49a22.82,22.82,0,0,1-2.82-.3l.07-1s1.82.27,2.64.27c1.31,0,2-.29,2-1.37,0-.84-.41-1-2.16-1.32s-2.67-.62-2.67-2.22c0-1.76,1.42-2.34,2.88-2.34a20.81,20.81,0,0,1,2.9.3Z" fill="#3a3d3f"/><path d="M282.71,87.91a25.92,25.92,0,0,0-2.81-.26c-1,0-1.74.28-1.74,1.22,0,.75.38,1,2.08,1.25,2,.33,2.75.73,2.75,2.29,0,1.87-1.18,2.49-3.1,2.49a22.82,22.82,0,0,1-2.82-.3l.06-1s1.83.27,2.65.27c1.31,0,2-.29,2-1.37,0-.84-.41-1-2.16-1.32S277,90.52,277,88.92c0-1.76,1.42-2.34,2.88-2.34a20.81,20.81,0,0,1,2.9.3Z" fill="#3a3d3f"/><path d="M290.74,93.7l0,1a28.71,28.71,0,0,1-3.12.25c-2.39,0-3.17-1.39-3.17-4.11,0-3,1.31-4.21,3.34-4.21S291,87.7,291,90.33l-.06.91h-5.29c0,1.71.53,2.61,2.1,2.61C289,93.85,290.74,93.7,290.74,93.7Zm-.9-3.42c0-2-.61-2.69-2-2.69s-2.13.75-2.14,2.69Z" fill="#3a3d3f"/><path d="M292.91,94.74v-8h1.18v.56a6.11,6.11,0,0,1,2.49-.72c2.2,0,2.7,1.09,2.7,3.94v4.22H298.1V90.55c0-2.11-.24-2.9-1.73-2.9a5.4,5.4,0,0,0-2.26.6v6.49Z" fill="#3a3d3f"/><path d="M301.15,96.09c0-.93.43-1.36,1.26-2A1.3,1.3,0,0,1,302,93a5.2,5.2,0,0,1,.54-1.26,2.34,2.34,0,0,1-1.26-2.42c0-2,1.21-2.74,3-2.74a8.14,8.14,0,0,1,1.66.21l2.37-.06v1l-1.52,0a2,2,0,0,1,.53,1.6c0,2.08-1,2.7-3.09,2.7a7,7,0,0,1-.78-.06,4.66,4.66,0,0,0-.29.91c0,.64.13.74,1.94.74,2.27,0,3.08.45,3.08,2.35s-1.29,2.55-3.55,2.55C302.06,98.51,301.15,98,301.15,96.09Zm2.08-1.51c-.67.5-.9.79-.9,1.41,0,1.11.47,1.51,2.28,1.51,1.6,0,2.32-.43,2.32-1.49,0-1.22-.51-1.35-2-1.35C304.4,94.66,303.23,94.58,303.23,94.58Zm2.85-5.26c0-1.27-.5-1.76-1.84-1.76s-1.79.49-1.79,1.76.54,1.74,1.79,1.74S306.08,90.58,306.08,89.32Z" fill="#3a3d3f"/><path d="M315.63,93.7l0,1a28.44,28.44,0,0,1-3.12.25c-2.38,0-3.17-1.39-3.17-4.11,0-3,1.32-4.21,3.35-4.21s3.22,1.12,3.22,3.75l-.07.91h-5.28c0,1.71.53,2.61,2.1,2.61C313.89,93.85,315.63,93.7,315.63,93.7Zm-.89-3.42c0-2-.61-2.69-2-2.69s-2.13.75-2.15,2.69Z" fill="#3a3d3f"/><path d="M317.81,86.74H319v1.09a9,9,0,0,1,2.93-1.26v1.21A11.88,11.88,0,0,0,319,88.87v5.87h-1.2Z" fill="#3a3d3f"/><path d="M327,83.25h1.2V94.74H327Z" fill="#3a3d3f"/><path d="M337.06,90.65c0,2.91-.72,4.25-3.43,4.25s-3.42-1.34-3.42-4.25.89-4.07,3.42-4.07S337.06,87.89,337.06,90.65Zm-1.24,0c0-2.23-.48-3-2.19-3s-2.19.8-2.19,3,.3,3.21,2.19,3.21S335.82,92.92,335.82,90.65Z" fill="#3a3d3f"/><path d="M344.66,93.26c0,.46.41.64.92.7l0,.94a2.46,2.46,0,0,1-1.91-.64,8.18,8.18,0,0,1-2.88.64c-1.46,0-2.26-.83-2.26-2.44s.8-2.21,2.45-2.37l2.52-.24v-.69c0-1.12-.49-1.52-1.45-1.52-1.12,0-3,.21-3,.21l-.05-.92a19.49,19.49,0,0,1,3.14-.35c1.81,0,2.58.83,2.58,2.58ZM341.09,91c-1,.1-1.36.56-1.36,1.44s.4,1.48,1.21,1.48a8.45,8.45,0,0,0,2.52-.5V90.76Z" fill="#3a3d3f"/><path d="M353.17,94.74H352V94.2a5.75,5.75,0,0,1-2.43.7c-1.57,0-2.88-.64-2.88-4.09,0-2.82.91-4.23,3.34-4.23a13.07,13.07,0,0,1,2,.21V83.25h1.19ZM352,93.24V87.81a14.92,14.92,0,0,0-1.9-.19c-1.68,0-2.18,1.11-2.18,3.19,0,2.59.85,3,1.79,3A5.82,5.82,0,0,0,352,93.24Z" fill="#3a3d3f"/><path d="M364.65,93.26c0,.46.42.64.93.7l0,.94a2.46,2.46,0,0,1-1.91-.64,8.18,8.18,0,0,1-2.88.64c-1.46,0-2.26-.83-2.26-2.44s.8-2.21,2.45-2.37l2.51-.24v-.69c0-1.12-.48-1.52-1.44-1.52-1.12,0-3,.21-3,.21l-.05-.92a19.49,19.49,0,0,1,3.14-.35c1.81,0,2.57.83,2.57,2.58ZM361.09,91c-1,.1-1.37.56-1.37,1.44s.4,1.48,1.22,1.48a8.35,8.35,0,0,0,2.51-.5V90.76Z" fill="#3a3d3f"/><path d="M367,94.74v-8h1.18v.56a6.11,6.11,0,0,1,2.49-.72c2.2,0,2.7,1.09,2.7,3.94v4.22h-1.18V90.55c0-2.11-.24-2.9-1.73-2.9a5.4,5.4,0,0,0-2.26.6v6.49Z" fill="#3a3d3f"/><path d="M381.76,94.74h-1.19V94.2a5.75,5.75,0,0,1-2.43.7c-1.57,0-2.88-.64-2.88-4.09,0-2.82.91-4.23,3.34-4.23a13.07,13.07,0,0,1,2,.21V83.25h1.19Zm-1.19-1.5V87.81a14.72,14.72,0,0,0-1.9-.19c-1.68,0-2.18,1.11-2.18,3.19,0,2.59.85,3,1.79,3A5.82,5.82,0,0,0,380.57,93.24Z" fill="#3a3d3f"/><path d="M387.59,94.74v-8h1.19v.56a5.37,5.37,0,0,1,2.34-.72,2.26,2.26,0,0,1,2.08.82,6.61,6.61,0,0,1,2.85-.82c2.17,0,2.7,1,2.7,3.94v4.22h-1.2V90.55c0-2.11-.24-2.9-1.68-2.9a5.29,5.29,0,0,0-2.26.6,8.7,8.7,0,0,1,.21,2.33v4.16h-1.2V90.61c0-2.2-.22-3-1.68-3a4.69,4.69,0,0,0-2.14.6v6.49Z" fill="#3a3d3f"/><path d="M406.62,93.26c0,.46.42.64.93.7l-.05.94a2.43,2.43,0,0,1-1.9-.64,8.18,8.18,0,0,1-2.88.64c-1.46,0-2.26-.83-2.26-2.44s.8-2.21,2.45-2.37l2.51-.24v-.69c0-1.12-.48-1.52-1.44-1.52-1.12,0-3,.21-3,.21l0-.92a19.47,19.47,0,0,1,3.13-.35c1.81,0,2.58.83,2.58,2.58ZM403.05,91c-1,.1-1.36.56-1.36,1.44s.4,1.48,1.22,1.48a8.44,8.44,0,0,0,2.51-.5V90.76Z" fill="#3a3d3f"/><path d="M409.43,86.74l2,7H412l2-7h1.2L411.85,98.3h-1.2l1-3.56h-1.18l-2.28-8Z" fill="#3a3d3f"/><path d="M420.23,94.74V83.25h1.2v3.94a6.75,6.75,0,0,1,2.47-.61c2.19,0,2.7,1.09,2.7,3.94v4.22h-1.2V90.55c0-2.11-.24-2.9-1.71-2.9a6.59,6.59,0,0,0-2.26.48v6.61Z" fill="#3a3d3f"/><path d="M434.73,93.7l0,1a28.44,28.44,0,0,1-3.12.25c-2.38,0-3.17-1.39-3.17-4.11,0-3,1.32-4.21,3.35-4.21S435,87.7,435,90.33l-.07.91h-5.28c0,1.71.53,2.61,2.1,2.61C433,93.85,434.73,93.7,434.73,93.7Zm-.89-3.42c0-2-.61-2.69-2-2.69s-2.13.75-2.15,2.69Z" fill="#3a3d3f"/><path d="M437,83.25h1.2V94.74H437Z" fill="#3a3d3f"/><path d="M440.6,86.74h1.19v.58a5.39,5.39,0,0,1,2.4-.74c2,0,2.89,1.23,2.89,4.07,0,3.13-1,4.25-3.49,4.25a10.41,10.41,0,0,1-1.79-.17V98.3h-1.2Zm1.2,1.55v5.4a12.58,12.58,0,0,0,1.73.17c1.76,0,2.34-.91,2.34-3.21s-.69-3-1.86-3A5.21,5.21,0,0,0,441.8,88.29Z" fill="#3a3d3f"/><path d="M121.84,111.82l0,1s-1.28-.15-1.89-.15c-1.84,0-2.34.8-2.34,2.95,0,2.37.37,3.23,2.35,3.23.61,0,1.89-.14,1.89-.14l0,1a21.65,21.65,0,0,1-2.23.22c-2.54,0-3.29-1.16-3.29-4.3,0-2.9.94-4,3.33-4A18.59,18.59,0,0,1,121.84,111.82Z" fill="#3a3d3f"/><path d="M129.3,118.26c0,.46.42.64.93.7l0,.94a2.43,2.43,0,0,1-1.9-.64,8.19,8.19,0,0,1-2.89.64c-1.45,0-2.25-.83-2.25-2.44s.8-2.21,2.45-2.37l2.51-.24v-.69c0-1.12-.48-1.52-1.44-1.52-1.12,0-3,.21-3,.21l0-.92a19.47,19.47,0,0,1,3.13-.35c1.81,0,2.58.83,2.58,2.58ZM125.73,116c-1,.1-1.36.56-1.36,1.44s.4,1.48,1.22,1.48a8.44,8.44,0,0,0,2.51-.5v-2.64Z" fill="#3a3d3f"/><path d="M131.67,111.74h1.18v1.09a9,9,0,0,1,2.93-1.26v1.21a11.69,11.69,0,0,0-2.91,1.09v5.87h-1.2Z" fill="#3a3d3f"/><path d="M137.2,111.74h1.19v1.09a9,9,0,0,1,2.93-1.26v1.21a11.85,11.85,0,0,0-2.92,1.09v5.87h-1.2Z" fill="#3a3d3f"/><path d="M143.19,111.74l2,7h.52l2-7h1.2L145.6,123.3h-1.2l1-3.56h-1.18l-2.27-8Z" fill="#3a3d3f"/><path d="M150.46,108.54h1.21v1.39h-1.21Zm0,3.2h1.21v8h-1.21Z" fill="#3a3d3f"/><path d="M154,119.74v-8h1.18v.56a6.1,6.1,0,0,1,2.48-.72c2.21,0,2.71,1.09,2.71,3.94v4.22h-1.18v-4.19c0-2.11-.24-2.9-1.73-2.9a5.4,5.4,0,0,0-2.26.6v6.49Z" fill="#3a3d3f"/><path d="M162.21,121.09c0-.93.43-1.36,1.26-2A1.28,1.28,0,0,1,163,118a5.15,5.15,0,0,1,.55-1.26,2.34,2.34,0,0,1-1.27-2.42c0-2,1.22-2.74,3-2.74a8.14,8.14,0,0,1,1.66.21l2.37-.06v1l-1.52,0a2,2,0,0,1,.53,1.6c0,2.08-1,2.7-3.09,2.7a7,7,0,0,1-.78-.06,4.66,4.66,0,0,0-.29.91c0,.64.13.74,1.93.74,2.28,0,3.09.45,3.09,2.35s-1.29,2.55-3.55,2.55C163.12,123.51,162.21,123,162.21,121.09Zm2.08-1.51c-.67.5-.9.79-.9,1.41,0,1.11.47,1.51,2.28,1.51,1.6,0,2.32-.43,2.32-1.49,0-1.22-.52-1.35-2-1.35C165.46,119.66,164.29,119.58,164.29,119.58Zm2.85-5.26c0-1.27-.5-1.76-1.84-1.76s-1.79.49-1.79,1.76.54,1.74,1.79,1.74S167.14,115.58,167.14,114.32Z" fill="#3a3d3f"/><path d="M175.9,112.78v3.83c0,1.74.12,2.24,1.16,2.24.45,0,1.42-.1,1.42-.1l.08,1a13.65,13.65,0,0,1-1.63.18c-1.65,0-2.21-.62-2.21-2.93v-4.21h-1.14v-1h1.14v-2.45h1.18v2.45h2.55v1Z" fill="#3a3d3f"/><path d="M179.92,119.74V108.25h1.2v3.94a6.75,6.75,0,0,1,2.47-.61c2.19,0,2.7,1.09,2.7,3.94v4.22h-1.2v-4.19c0-2.11-.24-2.9-1.71-2.9a6.59,6.59,0,0,0-2.26.48v6.61Z" fill="#3a3d3f"/><path d="M194.42,118.7l0,1a28.44,28.44,0,0,1-3.12.25c-2.39,0-3.17-1.39-3.17-4.11,0-3,1.31-4.21,3.35-4.21s3.21,1.12,3.21,3.75l-.06.91h-5.28c0,1.71.52,2.61,2.09,2.61C192.67,118.85,194.42,118.7,194.42,118.7Zm-.9-3.42c0-2-.61-2.69-2-2.69s-2.13.75-2.15,2.69Z" fill="#3a3d3f"/><path d="M206.56,115.61c0,3.19-.86,4.29-3.78,4.29-1,0-2.67-.17-2.67-.17V108.25h1.19v3.89a6.55,6.55,0,0,1,2.35-.56C205.83,111.58,206.56,112.73,206.56,115.61Zm-1.21,0c0-2.06-.42-3-1.83-3a6.64,6.64,0,0,0-2.22.47v5.63s1,.08,1.47.08C205,118.83,205.35,117.86,205.35,115.61Z" fill="#3a3d3f"/><path d="M214.18,118.26c0,.46.41.64.93.7l-.05.94a2.46,2.46,0,0,1-1.91-.64,8.18,8.18,0,0,1-2.88.64c-1.45,0-2.25-.83-2.25-2.44s.8-2.21,2.44-2.37l2.52-.24v-.69c0-1.12-.48-1.52-1.44-1.52-1.12,0-3,.21-3,.21l0-.92a19.49,19.49,0,0,1,3.14-.35c1.81,0,2.58.83,2.58,2.58ZM210.61,116c-1,.1-1.36.56-1.36,1.44s.4,1.48,1.21,1.48a8.45,8.45,0,0,0,2.52-.5v-2.64Z" fill="#3a3d3f"/><path d="M216.19,121.09c0-.93.43-1.36,1.27-2A1.28,1.28,0,0,1,217,118a5.2,5.2,0,0,1,.54-1.26,2.34,2.34,0,0,1-1.26-2.42c0-2,1.21-2.74,3-2.74a8.3,8.3,0,0,1,1.67.21l2.36-.06v1l-1.52,0a2,2,0,0,1,.53,1.6c0,2.08-1,2.7-3.09,2.7a7,7,0,0,1-.78-.06,4.66,4.66,0,0,0-.29.91c0,.64.13.74,1.94.74,2.27,0,3.09.45,3.09,2.35s-1.3,2.55-3.56,2.55C217.1,123.51,216.19,123,216.19,121.09Zm2.08-1.51c-.67.5-.89.79-.89,1.41,0,1.11.46,1.51,2.27,1.51,1.6,0,2.32-.43,2.32-1.49,0-1.22-.51-1.35-2-1.35C219.44,119.66,218.27,119.58,218.27,119.58Zm2.85-5.26c0-1.27-.49-1.76-1.84-1.76s-1.79.49-1.79,1.76.54,1.74,1.79,1.74S221.12,115.58,221.12,114.32Z" fill="#3a3d3f"/><path d="M230.08,112.91a25.92,25.92,0,0,0-2.8-.26c-1,0-1.74.28-1.74,1.22,0,.75.38,1,2.08,1.25,2,.33,2.75.73,2.75,2.29,0,1.87-1.19,2.49-3.11,2.49a22.83,22.83,0,0,1-2.81-.3l.06-1s1.83.27,2.64.27c1.31,0,2-.29,2-1.37,0-.84-.42-1-2.16-1.32s-2.67-.62-2.67-2.22c0-1.76,1.42-2.34,2.88-2.34a20.58,20.58,0,0,1,2.89.3Z" fill="#3a3d3f"/><path d="M237.26,119.74h-1.2v-7h-1v-1h1V111c0-2.3.6-2.93,2.16-2.93.55,0,1.62.11,1.62.11l0,1s-.89,0-1.37,0c-.9,0-1.19.39-1.19,1.88v.7h2.32v1h-2.32Z" fill="#3a3d3f"/><path d="M246.67,118.26c0,.46.42.64.93.7l0,.94a2.45,2.45,0,0,1-1.9-.64,8.18,8.18,0,0,1-2.88.64c-1.46,0-2.26-.83-2.26-2.44s.8-2.21,2.45-2.37l2.51-.24v-.69c0-1.12-.48-1.52-1.44-1.52-1.12,0-3,.21-3,.21l0-.92a19.49,19.49,0,0,1,3.14-.35c1.8,0,2.57.83,2.57,2.58ZM243.1,116c-1,.1-1.36.56-1.36,1.44s.4,1.48,1.22,1.48a8.44,8.44,0,0,0,2.51-.5v-2.64Z" fill="#3a3d3f"/><path d="M254.35,112.91a25.63,25.63,0,0,0-2.8-.26c-1,0-1.74.28-1.74,1.22,0,.75.38,1,2.08,1.25,2,.33,2.75.73,2.75,2.29,0,1.87-1.18,2.49-3.1,2.49a22.82,22.82,0,0,1-2.82-.3l.06-1s1.83.27,2.64.27c1.32,0,2-.29,2-1.37,0-.84-.42-1-2.16-1.32s-2.67-.62-2.67-2.22c0-1.76,1.42-2.34,2.88-2.34a20.58,20.58,0,0,1,2.89.3Z" fill="#3a3d3f"/><path d="M258.08,112.78v3.83c0,1.74.11,2.24,1.15,2.24.45,0,1.43-.1,1.43-.1l.08,1a13.91,13.91,0,0,1-1.64.18c-1.64,0-2.21-.62-2.21-2.93v-4.21h-1.13v-1h1.13v-2.45h1.19v2.45h2.54v1Z" fill="#3a3d3f"/><path d="M268,118.7l0,1a28.44,28.44,0,0,1-3.12.25c-2.38,0-3.17-1.39-3.17-4.11,0-3,1.32-4.21,3.35-4.21s3.22,1.12,3.22,3.75l-.07.91H263c0,1.71.53,2.61,2.1,2.61C266.26,118.85,268,118.7,268,118.7Zm-.9-3.42c0-2-.6-2.69-2-2.69s-2.13.75-2.15,2.69Z" fill="#3a3d3f"/><path d="M270.17,111.74h1.19v1.09a9,9,0,0,1,2.93-1.26v1.21a11.69,11.69,0,0,0-2.91,1.09v5.87h-1.21Z" fill="#3a3d3f"/><path d="M275.63,117.92h1.31v1.82h-1.31Z" fill="#3a3d3f"/><path d="M586.66,30.52h3v18h-3.24V34l-4.51,2.72-1.49-2.26Z" fill="#2277d6"/><path d="M596.07,48.48V29.22h3.17v6.36a11.45,11.45,0,0,1,4-1c4,0,5,2.14,5,6.61v7.29H605.1V41.27c0-2.72-.35-4.06-2.6-4.06a11.11,11.11,0,0,0-3.26.6V48.48Z" fill="#2277d6"/><circle cx="558.25" cy="72.37" r="23.9" fill="none" stroke="#3899e8" stroke-miterlimit="10" stroke-width="4"/><path d="M558.25,55.44A18.16,18.16,0,0,1,576.41,73.6H558.25Z" fill="#8dc5f2"/><path d="M67,50.84a2.77,2.77,0,0,0-3.41-2l-9.81,2.63L41,39.61l-3.57,1,7.65,13.26-9.19,2.46-3.64-2.85-2.68.72L33,60l1.43,2.46,3-.79L47.16,59l8.05-2.14L65,54.26A2.81,2.81,0,0,0,67,50.84Z" fill="#2277d6"/></g><g id="RC_ActP_Tablet"><path d="M146.4,174.79a9.13,9.13,0,0,1,9.1,9.1,7.25,7.25,0,0,1-.7,3.3l5.3,5.3a22.1,22.1,0,0,0,6.2-8.6,21.31,21.31,0,0,0-27.2-12.3l3.9,3.9A8,8,0,0,1,146.4,174.79Zm-18.2-5,4.1,4.1.8.8a21.27,21.27,0,0,0-6.8,9.1,21.63,21.63,0,0,0,28,12.1l.8.8,5.3,5.3,2.3-2.3-32.2-32.2Zm10.1,10,2.8,2.8a4.87,4.87,0,0,0-.1,1.2,5.48,5.48,0,0,0,5.5,5.5c.4,0,.8-.1,1.2-.1l2.8,2.8a9,9,0,0,1-13.1-8.1A8.22,8.22,0,0,1,138.3,179.79Zm7.8-1.4,5.7,5.7v-.3a5.48,5.48,0,0,0-5.5-5.5Z" fill="#333"/><path d="M232.7,146.59h1.7l2.4,7.2,2.4-7.2h1.7v8.6h-1v-7.6h-.2l-2.5,7.2h-1.1l-2.5-7.2h-.2v7.6h-1v-8.6Z" fill="#3a3d3f"/><path d="M247.1,154c0,.4.3.5.7.5v.7a1.84,1.84,0,0,1-1.5-.5,6.13,6.13,0,0,1-2.2.5c-1.1,0-1.7-.6-1.7-1.9s.6-1.7,1.9-1.8l1.9-.2v-.5c0-.9-.4-1.2-1.1-1.2a20.87,20.87,0,0,0-2.3.2v-.7a14.26,14.26,0,0,1,2.4-.3c1.4,0,2,.6,2,2V154Zm-2.7-1.8c-.8.1-1.1.4-1.1,1.1s.3,1.1.9,1.1a6,6,0,0,0,1.9-.4v-2Z" fill="#3a3d3f"/><path d="M248.8,155.09v-6.2h.9v.4a4.44,4.44,0,0,1,1.9-.6c1.7,0,2.1.8,2.1,3V155h-.9v-3.2c0-1.6-.2-2.2-1.3-2.2a3.63,3.63,0,0,0-1.7.5v5Z" fill="#3a3d3f"/><path d="M260.1,148.89v6.2h-.9v-.4a3.8,3.8,0,0,1-1.8.6c-1.7,0-2.1-.8-2.1-3.1V149h.9v3.2c0,1.7.1,2.3,1.3,2.3a3.63,3.63,0,0,0,1.7-.5v-5h.9Z" fill="#3a3d3f"/><path d="M266,154c0,.4.3.5.7.5v.7a1.84,1.84,0,0,1-1.5-.5,6.13,6.13,0,0,1-2.2.5c-1.1,0-1.7-.6-1.7-1.9s.6-1.7,1.9-1.8l1.9-.2v-.5c0-.9-.4-1.2-1.1-1.2a20.87,20.87,0,0,0-2.3.2v-.7a14.26,14.26,0,0,1,2.4-.3c1.4,0,2,.6,2,2V154Zm-2.7-1.8c-.8.1-1.1.4-1.1,1.1s.3,1.1.9,1.1a6,6,0,0,0,1.9-.4v-2Z" fill="#3a3d3f"/><path d="M267.8,146.19h.9v8.9h-.9Z" fill="#3a3d3f"/><path d="M278.3,155a14.21,14.21,0,0,1-2.4.3c-2.6,0-3.1-1.6-3.1-4.4s.6-4.4,3.1-4.4a14.21,14.21,0,0,1,2.4.3v.8a16.35,16.35,0,0,0-2.2-.2c-1.9,0-2.2,1.1-2.2,3.6s.3,3.5,2.3,3.5a15,15,0,0,0,2.2-.2Z" fill="#3a3d3f"/><path d="M284.5,152c0,2.3-.6,3.3-2.7,3.3s-2.7-1-2.7-3.3c0-2.1.7-3.1,2.7-3.1S284.5,149.79,284.5,152Zm-.9,0c0-1.7-.4-2.3-1.7-2.3s-1.7.6-1.7,2.3.2,2.5,1.7,2.5S283.6,153.69,283.6,152Z" fill="#3a3d3f"/><path d="M285.9,155.09v-6.2h.9v.4a4.44,4.44,0,0,1,1.9-.6c1.7,0,2.1.8,2.1,3V155h-.9v-3.2c0-1.6-.2-2.2-1.3-2.2a3.63,3.63,0,0,0-1.7.5v5Z" fill="#3a3d3f"/><path d="M293.6,155.09h-.9v-5.4h-.8v-.8h.8v-.6c0-1.8.5-2.3,1.7-2.3.4,0,1.3.1,1.3.1v.8h-1.1c-.7,0-.9.3-.9,1.4v.5h1.8v.8h-1.8v5.5Z" fill="#3a3d3f"/><path d="M296.3,146.49h.9v1.1h-.9Zm0,2.4h.9v6.2h-.9Z" fill="#3a3d3f"/><path d="M298.6,156.19a1.58,1.58,0,0,1,1-1.5c-.2-.1-.3-.5-.3-.9a5.13,5.13,0,0,1,.4-1c-.5-.2-1-.7-1-1.9,0-1.5.9-2.1,2.3-2.1a5.62,5.62,0,0,1,1.3.2h1.8v.8h-1.2a1.69,1.69,0,0,1,.4,1.2c0,1.6-.8,2.1-2.4,2.1h-.6a3.1,3.1,0,0,0-.2.7c0,.5.1.6,1.5.6,1.8,0,2.4.3,2.4,1.8s-1,2-2.8,2C299.3,158,298.6,157.59,298.6,156.19Zm1.6-1.2c-.5.4-.7.6-.7,1.1,0,.9.4,1.2,1.8,1.2,1.2,0,1.8-.3,1.8-1.2s-.4-1-1.5-1C301.1,155.09,300.2,155,300.2,155Zm2.2-4.1c0-1-.4-1.4-1.4-1.4s-1.4.4-1.4,1.4.4,1.4,1.4,1.4S302.4,151.89,302.4,150.89Z" fill="#3a3d3f"/><path d="M309.8,148.89v6.2h-.9v-.4a3.8,3.8,0,0,1-1.8.6c-1.7,0-2.1-.8-2.1-3.1V149h.9v3.2c0,1.7.1,2.3,1.3,2.3a3.63,3.63,0,0,0,1.7-.5v-5h.9Z" fill="#3a3d3f"/><path d="M311.4,148.89h.9v.8a9,9,0,0,1,2.3-1v.9a8.36,8.36,0,0,0-2.3.8v4.5h-.9Z" fill="#3a3d3f"/><path d="M319.9,154c0,.4.3.5.7.5v.7a1.84,1.84,0,0,1-1.5-.5,6.13,6.13,0,0,1-2.2.5c-1.1,0-1.7-.6-1.7-1.9s.6-1.7,1.9-1.8l1.9-.2v-.5c0-.9-.4-1.2-1.1-1.2a20.87,20.87,0,0,0-2.3.2v-.7a14.26,14.26,0,0,1,2.4-.3c1.4,0,2,.6,2,2V154Zm-2.7-1.8c-.8.1-1.1.4-1.1,1.1s.3,1.1.9,1.1a6,6,0,0,0,1.9-.4v-2Z" fill="#3a3d3f"/><path d="M322.8,149.69v3c0,1.4.1,1.7.9,1.7.3,0,1.1-.1,1.1-.1l.1.8s-.8.1-1.3.1c-1.3,0-1.7-.5-1.7-2.3v-3.3H321v-.8h.9v-1.9h.9v1.9h2v.8h-2Z" fill="#3a3d3f"/><path d="M325.8,146.49h.9v1.1h-.9Zm0,2.4h.9v6.2h-.9Z" fill="#3a3d3f"/><path d="M333.3,152c0,2.3-.6,3.3-2.7,3.3s-2.7-1-2.7-3.3c0-2.1.7-3.1,2.7-3.1S333.3,149.79,333.3,152Zm-.9,0c0-1.7-.4-2.3-1.7-2.3s-1.7.6-1.7,2.3.2,2.5,1.7,2.5S332.4,153.69,332.4,152Z" fill="#3a3d3f"/><path d="M334.7,155.09v-6.2h.9v.4a4.44,4.44,0,0,1,1.9-.6c1.7,0,2.1.8,2.1,3V155h-.9v-3.2c0-1.6-.2-2.2-1.3-2.2a3.63,3.63,0,0,0-1.7.5v5Z" fill="#3a3d3f"/><path d="M123.6,151.29h-4.4v3.9h-1v-8.6h1v3.8h4.4v-3.8h.9v8.6h-.9Z" fill="#3a3d3f"/><path d="M126.3,146.49h.9v1.1h-.9Zm0,2.4h.9v6.2h-.9Z" fill="#3a3d3f"/><path d="M133.6,155.09h-.9v-.4a5.05,5.05,0,0,1-1.9.5c-1.2,0-2.2-.5-2.2-3.2,0-2.2.7-3.3,2.6-3.3a5.42,5.42,0,0,1,1.5.2v-2.7h.9v8.9Zm-.9-1.1v-4.2c-.2,0-1-.1-1.5-.1-1.3,0-1.7.9-1.7,2.5,0,2,.7,2.3,1.4,2.3A7,7,0,0,0,132.7,154Z" fill="#3a3d3f"/><path d="M139.8,154.29v.7a21.06,21.06,0,0,1-2.4.2c-1.8,0-2.5-1.1-2.5-3.2,0-2.4,1-3.3,2.6-3.3s2.5.9,2.5,2.9v.7h-4.1c0,1.3.4,2,1.6,2A15.78,15.78,0,0,0,139.8,154.29Zm-.7-2.6c0-1.5-.5-2.1-1.6-2.1s-1.6.6-1.7,2.1Z" fill="#3a3d3f"/><path d="M148.5,154.29v.7a21.06,21.06,0,0,1-2.4.2c-1.8,0-2.5-1.1-2.5-3.2,0-2.4,1-3.3,2.6-3.3s2.5.9,2.5,2.9v.7h-4.1c0,1.3.4,2,1.6,2A16.14,16.14,0,0,0,148.5,154.29Zm-.7-2.6c0-1.5-.5-2.1-1.6-2.1s-1.6.6-1.7,2.1Z" fill="#3a3d3f"/><path d="M151.2,155.09h-.9v-5.4h-.8v-.8h.8v-.6c0-1.8.5-2.3,1.7-2.3.4,0,1.3.1,1.3.1v.8h-1.1c-.7,0-.9.3-.9,1.4v.5h1.8v.8h-1.8v5.5Z" fill="#3a3d3f"/><path d="M155.1,155.09h-.9v-5.4h-.8v-.8h.8v-.6c0-1.8.5-2.3,1.7-2.3.4,0,1.3.1,1.3.1v.8h-1.1c-.7,0-.9.3-.9,1.4v.5H157v.8h-1.8v5.5Z" fill="#3a3d3f"/><path d="M162.4,154.29v.7a21.06,21.06,0,0,1-2.4.2c-1.8,0-2.5-1.1-2.5-3.2,0-2.4,1-3.3,2.6-3.3s2.5.9,2.5,2.9v.7h-4.1c0,1.3.4,2,1.6,2A15.78,15.78,0,0,0,162.4,154.29Zm-.7-2.6c0-1.5-.5-2.1-1.6-2.1s-1.6.6-1.7,2.1Z" fill="#3a3d3f"/><path d="M167.9,149v.8s-1-.1-1.5-.1c-1.4,0-1.8.6-1.8,2.3s.3,2.5,1.8,2.5c.5,0,1.5-.1,1.5-.1v.8a15.94,15.94,0,0,1-1.7.2c-2,0-2.6-.9-2.6-3.3,0-2.2.7-3.1,2.6-3.1A4.52,4.52,0,0,1,167.9,149Z" fill="#3a3d3f"/><path d="M170.4,149.69v3c0,1.4.1,1.7.9,1.7.3,0,1.1-.1,1.1-.1l.1.8s-.8.1-1.3.1c-1.3,0-1.7-.5-1.7-2.3v-3.3h-.9v-.8h.9v-1.9h.9v1.9h2v.8h-2Z" fill="#3a3d3f"/><path d="M177.4,149.79a20.83,20.83,0,0,0-2.2-.2c-.8,0-1.3.2-1.3.9s.3.7,1.6,1c1.5.3,2.1.6,2.1,1.8,0,1.4-.9,1.9-2.4,1.9a20.83,20.83,0,0,1-2.2-.2v-.8s1.4.2,2,.2c1,0,1.6-.2,1.6-1.1,0-.6-.3-.8-1.7-1s-2.1-.5-2.1-1.7c0-1.4,1.1-1.8,2.2-1.8a18.13,18.13,0,0,1,2.2.2Z" fill="#3a3d3f"/><path d="M290.5,196.79H261a12,12,0,0,1,0-24h29.5a12,12,0,0,1,0,24" fill="#f2f2f2"/><path d="M277.4,184.29a15,15,0,1,1-15-15,15,15,0,0,1,15,15" fill="#b3b3b3"/></g></g></svg>