<svg xmlns="http://www.w3.org/2000/svg" viewBox="0 0 1893 246.47"><title>bar_3_opened</title><g id="Layer_2" data-name="Layer 2"><g id="CM4_New_Open"><rect width="1893" height="246.47" fill="#fff"/></g><g id="Layer_5" data-name="Layer 5"><circle cx="683.21" cy="110.41" r="29.44" fill="none" stroke="#2277d6" stroke-miterlimit="10" stroke-width="4"/><path d="M683.21,89.54a22.38,22.38,0,0,1,22.37,22.38H683.21Z" fill="#8dc5f2" opacity="0.47"/><path d="M163.31,42.42V48h-1.85V31.4h6.07c3.62,0,5.3,1.75,5.3,5.36s-1.68,5.66-5.3,5.66Zm4.2-1.63c2.42,0,3.43-1.47,3.43-4s-1-3.72-3.43-3.72h-4.2v7.75Z"/><path d="M177.54,41.65V48h-1.85V31.4h6.14c3.48,0,5.31,1.54,5.31,5,0,2.45-1,4.16-3,4.83L187.28,48h-2l-3-6.36ZM181.83,33h-4.29v7h4.32c2.49,0,3.38-1.49,3.38-3.58C185.24,34.16,184.16,33,181.83,33Z"/><path d="M190.47,31.4h1.85V48h-1.85Z"/><path d="M195.7,39.78c0-5.47,1.42-8.62,6.56-8.62s6.57,3.1,6.57,8.62c0,5.71-1.41,8.47-6.57,8.47S195.7,45.35,195.7,39.78Zm11.21,0c0-4.49-.86-7-4.65-7s-4.66,2.47-4.66,7,.81,6.84,4.66,6.84S206.91,44.46,206.91,39.78Z"/><path d="M214.06,41.65V48h-1.85V31.4h6.15c3.48,0,5.3,1.54,5.3,5,0,2.45-1,4.16-3,4.83L223.81,48h-2l-3-6.36Zm4.3-8.61h-4.3v7h4.32c2.5,0,3.39-1.49,3.39-3.58C221.77,34.16,220.69,33,218.36,33Z"/><path d="M227,31.4h1.85V48H227Z"/><path d="M231.17,31.4h12v1.66h-5.07V48h-1.82V33.06h-5.12Z"/><path d="M245.53,31.4h1.84V48h-1.84Z"/><path d="M250.42,31.4h10.8v2.16L252.53,45.9v.48h8.69V48h-10.8V45.9l8.67-12.34V33h-8.67Z"/><path d="M264.29,31.4h1.85V48h-1.85Z"/><path d="M270.2,31.4h3.45l6.36,15h.51v-15h1.82V48H279L272.5,33h-.45V48H270.2Z"/><path d="M293,39.52h4.58v8.16a41.74,41.74,0,0,1-5.4.57c-5.09,0-6.43-3.12-6.43-8.49,0-5.53,1.39-8.6,6.38-8.6a30.68,30.68,0,0,1,5.45.63l-.07,1.53a38.46,38.46,0,0,0-5.16-.5c-3.84,0-4.68,2.23-4.68,6.94s.81,6.86,4.65,6.86a22.4,22.4,0,0,0,3.44-.34V41.17H293Z"/><path d="M306.48,31.4h9.94V33h-8.09v6.48h6.84v1.63h-6.84V48h-1.85Z"/><path d="M319.11,48V31.4H321v15h7.29V48Z"/><path d="M330.6,31.4h1.85V48H330.6Z"/><path d="M343.08,39.52h4.59v8.16a42,42,0,0,1-5.4.57c-5.09,0-6.44-3.12-6.44-8.49,0-5.53,1.4-8.6,6.39-8.6a30.68,30.68,0,0,1,5.45.63l-.07,1.53a38.46,38.46,0,0,0-5.16-.5c-3.85,0-4.69,2.23-4.69,6.94s.82,6.86,4.66,6.86a22.12,22.12,0,0,0,3.43-.34V41.17h-2.76Z"/><path d="M361.59,40.5h-8.45V48h-1.85V31.4h1.85v7.44h8.45V31.4h1.82V48h-1.82Z"/><path d="M365.76,31.4h12v1.66H372.7V48h-1.82V33.06h-5.12Z"/><path d="M389.43,33.18s-3.34-.41-4.73-.41c-2.35,0-3.6.84-3.6,2.71,0,2.16,1.15,2.52,4.06,3.17,3.31.74,4.77,1.56,4.77,4.47,0,3.67-2,5.11-5.3,5.11a43.57,43.57,0,0,1-5.26-.53l.19-1.54s3.27.44,5,.44c2.35,0,3.55-1,3.55-3.34,0-1.87-1-2.4-3.69-2.93-3.44-.74-5.16-1.56-5.16-4.73s2.11-4.46,5.35-4.46a41.14,41.14,0,0,1,5,.48Z"/><path d="M650.06,41.31h10v1.38h-4.22V55.15h-1.52V42.69h-4.26Z"/><path d="M662,41.31h1.54V55.15H662Z"/><path d="M666.94,41.31h2.78L673.64,53l3.92-11.7h2.78V55.15H678.8V43h-.28l-4,11.7h-1.72l-4-11.7h-.28v12.2h-1.54Z"/><path d="M683.74,41.31h8.42v1.36h-6.88v4.78H691v1.34h-5.68v5h6.88v1.36h-8.42Z"/><path d="M700.74,50.49v4.66H699.2V41.31h5.06c3,0,4.42,1.46,4.42,4.46s-1.4,4.72-4.42,4.72Zm3.5-1.36c2,0,2.86-1.22,2.86-3.36s-.84-3.1-2.86-3.1h-3.5v6.46Z"/><path d="M711.06,41.31h8.42v1.36H712.6v4.78h5.68v1.34H712.6v5h6.88v1.36h-8.42Z"/><path d="M723.66,49.85v5.3h-1.54V41.31h5.12c2.9,0,4.42,1.28,4.42,4.2,0,2-.8,3.46-2.54,4l2.66,5.62h-1.7l-2.5-5.3Zm3.58-7.18h-3.58v5.82h3.6c2.08,0,2.82-1.24,2.82-3C730.08,43.61,729.18,42.67,727.24,42.67Z"/><path d="M734.44,41.31H736V55.15h-1.54Z"/><path d="M738.8,48.29c0-4.56,1.18-7.18,5.46-7.18s5.48,2.58,5.48,7.18c0,4.76-1.18,7.06-5.48,7.06S738.8,52.93,738.8,48.29Zm9.34,0c0-3.74-.72-5.82-3.88-5.82s-3.88,2.06-3.88,5.82.68,5.7,3.88,5.7S748.14,52.19,748.14,48.29Z"/><path d="M752.56,55.15V41.31h4.94c4,0,5.12,2.8,5.12,6.72s-1,7.12-5.12,7.12Zm4.94-12.48h-3.4V53.79h3.4C760.38,53.79,761,51,761,48S760.38,42.67,757.5,42.67Z"/><path d="M998.86,48.29c0-4.56,1.18-7.18,5.46-7.18s5.48,2.58,5.48,7.18c0,4.76-1.18,7.06-5.48,7.06S998.86,52.93,998.86,48.29Zm9.34,0c0-3.74-.72-5.82-3.88-5.82s-3.88,2.06-3.88,5.82.68,5.7,3.88,5.7S1008.2,52.19,1008.2,48.29Z"/><path d="M1022.08,41.31l-3.62,13.84H1015l-3.62-13.84h1.6l3.18,12.48h1.12l3.18-12.48Z"/><path d="M1024.26,41.31h8.42v1.36h-6.88v4.78h5.68v1.34h-5.68v5h6.88v1.36h-8.42Z"/><path d="M1036.86,49.85v5.3h-1.54V41.31h5.12c2.9,0,4.42,1.28,4.42,4.2,0,2-.8,3.46-2.54,4l2.66,5.62h-1.7l-2.5-5.3Zm3.58-7.18h-3.58v5.82h3.6c2.08,0,2.82-1.24,2.82-3C1043.28,43.61,1042.38,42.67,1040.44,42.67Z"/><path d="M1057.1,41.31l-3.62,13.84H1050l-3.62-13.84h1.6l3.18,12.48h1.12l3.18-12.48Z"/><path d="M1059.28,41.31h1.54V55.15h-1.54Z"/><path d="M1064.2,41.31h8.42v1.36h-6.88v4.78h5.68v1.34h-5.68v5h6.88v1.36h-8.42Z"/><path d="M1075.76,41.31l2.36,12.48h.58l2.82-12.36h1.8l2.82,12.36h.58l2.36-12.48h1.58l-2.8,13.84H1085l-2.62-11.82-2.62,11.82H1077l-2.82-13.84Z"/><path d="M675.3,102.09h2.84v17.17h-3.09V105.37l-4.32,2.6-1.42-2.16Z" fill="#2277d6"/><path d="M684.29,119.26V100.85h3v6.08a10.87,10.87,0,0,1,3.81-1c3.88,0,4.82,2,4.82,6.32v7h-3v-6.89c0-2.61-.34-3.88-2.48-3.88a10.72,10.72,0,0,0-3.12.57v10.2Z" fill="#2277d6"/><path d="M1010.94,132.23h-5.74v-1.07l3.37-8.44h1.5l-3.42,8.3h4.29v-3.69h1.37V131h1.51v1.21h-1.51v2.32h-1.37Z" fill="#3a3d3f"/><path d="M1045.31,129.44h3.39V126H1050v3.49h3.43v1.22H1050v3.53h-1.25v-3.53h-3.39Z" fill="#3a3d3f"/><path d="M1060,122.72h1.29v11.83H1060V124.26l-3,2-.63-1Z" fill="#3a3d3f"/><path d="M1065.64,134.55v-1.17l3.45-3.64c1.47-1.52,2.39-2.49,2.39-3.88,0-1.58-.88-2.08-2.58-2.08a17.46,17.46,0,0,0-3.07.39l-.11-1.14a14.28,14.28,0,0,1,3.43-.49c2.49,0,3.74.95,3.74,3.17,0,1.78-.81,2.82-2.47,4.43l-3.15,3.2h5.93v1.21Z" fill="#3a3d3f"/><path d="M1083.75,128.81c0,4.53-1.59,5.91-4.3,5.91s-4.32-1.34-4.32-5.89c0-4.87,1.58-6.31,4.3-6.31S1083.75,123.94,1083.75,128.81Zm-7.18,0c0,3.71,1,4.68,2.88,4.68s2.88-1,2.88-4.7c0-4-.91-5-2.88-5S1076.57,124.8,1076.57,128.83Z" fill="#3a3d3f"/><path d="M1119.84,124a27,27,0,0,0-3.12-.22c-2.06,0-3.19,1.47-3.19,4.09a9.77,9.77,0,0,1,3-.7c2.61,0,4,1.18,4,3.67s-1.5,3.9-4.14,3.9c-2.93,0-4.22-2.31-4.22-6.14,0-4.28,1.81-6,4.62-6a21.82,21.82,0,0,1,3.24.31Zm-6.33,5.08c0,2.53.77,4.45,2.81,4.45a2.43,2.43,0,0,0,2.71-2.69c0-1.65-1-2.44-2.63-2.44A8.3,8.3,0,0,0,1113.51,129.06Z" fill="#3a3d3f"/><path d="M1130.55,128.81c0,4.53-1.59,5.91-4.3,5.91s-4.32-1.34-4.32-5.89c0-4.87,1.58-6.31,4.3-6.31S1130.55,123.94,1130.55,128.81Zm-7.18,0c0,3.71,1,4.68,2.88,4.68s2.89-1,2.89-4.7c0-4-.92-5-2.89-5S1123.37,124.8,1123.37,128.83Z" fill="#3a3d3f"/><path d="M1135.71,125c0,1.74-.77,2.53-2,2.53s-2-.79-2-2.53.76-2.47,2-2.47S1135.71,123.3,1135.71,125Zm-2,1.62c.67,0,.9-.56.9-1.62s-.23-1.55-.9-1.55-.87.5-.87,1.55S1133.1,126.63,1133.74,126.63Zm4-4.28.86.28-3.67,12.24-.86-.25Zm3.08,9.85c0,1.72-.77,2.52-2,2.52s-1.95-.8-1.95-2.54.73-2.45,1.95-2.45S1140.8,130.48,1140.8,132.2Zm-2,1.61c.68,0,.9-.55.9-1.61s-.22-1.56-.9-1.56-.88.5-.88,1.54S1138.19,133.81,1138.83,133.81Z" fill="#3a3d3f"/><path d="M742.8,89h3.26v21.12h-3.55V93l-5,3.2-1.63-2.66Z"/><path d="M753.36,89h13.31v4.23l-7.78,17.24-3.32-.95,7.52-16.36v-1h-9.73Z"/><path d="M770.89,95.81h3.75v4.61h-3.75Zm0,9.7h3.75v4.6h-3.75Z"/><path d="M793.52,99.78c0,8-2.91,10.68-8,10.68s-8-2.62-8-10.68c0-8.29,2.91-11.14,8-11.14S793.52,91.46,793.52,99.78Zm-12.29,0c0,5.79,1.44,7.58,4.35,7.58s4.26-1.79,4.26-7.58c0-6.21-1.31-8-4.29-8S781.23,93.54,781.23,99.78Z"/><path d="M811.44,99.78c0,8-2.91,10.68-8,10.68s-8-2.62-8-10.68c0-8.29,2.91-11.14,8-11.14S811.44,91.46,811.44,99.78Zm-12.29,0c0,5.79,1.44,7.58,4.35,7.58s4.26-1.79,4.26-7.58c0-6.21-1.31-8-4.29-8S799.15,93.54,799.15,99.78Z"/><path d="M821.42,99.91H831v3.16h-9.57Z"/><path d="M842.12,110.11v-3l5.22-5.37c2.72-2.79,4.29-4.48,4.29-6.72,0-2.4-1.25-3.17-4-3.17a32.66,32.66,0,0,0-5.18.58l-.23-2.82a25,25,0,0,1,6.24-.93c4.67,0,6.82,1.92,6.82,5.89,0,3.2-1.35,5.06-4.61,8.1L846.19,107h9.53v3.1Z"/><path d="M874.83,99.78c0,8-2.91,10.68-8,10.68s-8-2.62-8-10.68c0-8.29,2.91-11.14,8-11.14S874.83,91.46,874.83,99.78Zm-12.29,0c0,5.79,1.44,7.58,4.35,7.58s4.26-1.79,4.26-7.58c0-6.21-1.31-8-4.29-8S862.54,93.54,862.54,99.78Z"/><path d="M877.77,95.81h3.75v4.61h-3.75Zm0,9.7h3.75v4.6h-3.75Z"/><path d="M900.4,99.78c0,8-2.92,10.68-8,10.68s-8-2.62-8-10.68c0-8.29,2.91-11.14,8-11.14S900.4,91.46,900.4,99.78Zm-12.29,0c0,5.79,1.44,7.58,4.35,7.58s4.26-1.79,4.26-7.58c0-6.21-1.31-8-4.29-8S888.11,93.54,888.11,99.78Z"/><path d="M918.32,99.78c0,8-2.92,10.68-8,10.68s-8-2.62-8-10.68c0-8.29,2.91-11.14,8-11.14S918.32,91.46,918.32,99.78Zm-12.29,0c0,5.79,1.44,7.58,4.35,7.58s4.26-1.79,4.26-7.58c0-6.21-1.32-8-4.29-8S906,93.54,906,99.78Z"/><path d="M733.33,122.15h9v1.23h-3.78v11.17h-1.36V123.38h-3.82Z" fill="#3a3d3f"/><path d="M751.09,130c0,3.26-.81,4.76-3.83,4.76s-3.84-1.5-3.84-4.76c0-3.08,1-4.55,3.84-4.55S751.09,126.88,751.09,130Zm-1.38,0c0-2.49-.54-3.39-2.45-3.39s-2.46.9-2.46,3.39.34,3.6,2.46,3.6S749.71,132.5,749.71,130Z" fill="#3a3d3f"/><path d="M760.16,134.55h-1.33v-.61a6.47,6.47,0,0,1-2.72.78c-1.76,0-3.22-.71-3.22-4.58,0-3.15,1-4.73,3.74-4.73a15.61,15.61,0,0,1,2.2.23v-4h1.33Zm-1.33-1.69v-6.07a14,14,0,0,0-2.13-.22c-1.88,0-2.43,1.24-2.43,3.57,0,2.9.94,3.38,2,3.38A6.53,6.53,0,0,0,758.83,132.86Z" fill="#3a3d3f"/><path d="M769.08,132.88c0,.52.47.72,1,.79l0,1.05a2.71,2.71,0,0,1-2.13-.71,9.29,9.29,0,0,1-3.23.71c-1.63,0-2.52-.93-2.52-2.74s.89-2.47,2.74-2.65l2.81-.27v-.77c0-1.25-.54-1.7-1.61-1.7-1.26,0-3.39.23-3.39.23l0-1a21.9,21.9,0,0,1,3.51-.39c2,0,2.88.93,2.88,2.88Zm-4-2.54c-1.1.1-1.52.62-1.52,1.61s.44,1.65,1.36,1.65a9.45,9.45,0,0,0,2.81-.56v-3Z" fill="#3a3d3f"/><path d="M772.24,125.59l2.24,7.79h.59l2.26-7.79h1.34l-3.73,12.93H773.6l1.17-4h-1.33l-2.54-9Z" fill="#3a3d3f"/><path d="M163.28,78.78h3l3.42,12.46h-1.37l-.9-3.21h-5.33l-.9,3.21h-1.37Zm-.84,8h4.72L165.27,80h-.94Z" fill="#3a3d3f"/><path d="M177.43,83.55a29.33,29.33,0,0,0-3.15-.29c-1.11,0-2,.3-2,1.37,0,.84.43,1.08,2.34,1.4,2.25.38,3.1.83,3.1,2.58,0,2.1-1.34,2.81-3.5,2.81a24.71,24.71,0,0,1-3.16-.35l.07-1.17a29.5,29.5,0,0,0,3,.31c1.48,0,2.27-.33,2.27-1.55,0-.94-.47-1.17-2.43-1.48s-3-.7-3-2.5c0-2,1.6-2.63,3.24-2.63a23.19,23.19,0,0,1,3.26.34Z" fill="#3a3d3f"/><path d="M185.8,83.55a29.33,29.33,0,0,0-3.15-.29c-1.11,0-2,.3-2,1.37,0,.84.43,1.08,2.34,1.4,2.25.38,3.1.83,3.1,2.58,0,2.1-1.34,2.81-3.5,2.81a24.71,24.71,0,0,1-3.16-.35l.07-1.17a29.5,29.5,0,0,0,3,.31c1.48,0,2.27-.33,2.27-1.55,0-.94-.47-1.17-2.43-1.48s-3-.7-3-2.5c0-2,1.6-2.63,3.24-2.63a23.19,23.19,0,0,1,3.26.34Z" fill="#3a3d3f"/><path d="M188.2,78.63h1.35V80.2H188.2Zm0,3.6h1.35v9H188.2Z" fill="#3a3d3f"/><path d="M191.74,92.75c0-1,.49-1.53,1.42-2.23a1.49,1.49,0,0,1-.5-1.25,5.82,5.82,0,0,1,.61-1.42c-.75-.34-1.42-1.06-1.42-2.72,0-2.21,1.37-3.08,3.37-3.08a9.07,9.07,0,0,1,1.87.24l2.66-.08v1.16l-1.71,0a2.31,2.31,0,0,1,.6,1.8c0,2.34-1.17,3-3.48,3a6.79,6.79,0,0,1-.88-.07,5.32,5.32,0,0,0-.32,1c0,.72.14.83,2.18.83,2.55,0,3.47.5,3.47,2.64s-1.46,2.87-4,2.87C192.77,95.47,191.74,94.84,191.74,92.75Zm2.34-1.7c-.75.56-1,.89-1,1.59,0,1.24.53,1.69,2.56,1.69,1.8,0,2.61-.48,2.61-1.67,0-1.37-.57-1.51-2.21-1.51C195.4,91.15,194.08,91.05,194.08,91.05Zm3.21-5.92c0-1.42-.56-2-2.07-2s-2,.56-2,2,.61,2,2,2S197.29,86.55,197.29,85.13Z" fill="#3a3d3f"/><path d="M201.39,91.24v-9h1.33v.63a6.85,6.85,0,0,1,2.79-.81c2.49,0,3.05,1.23,3.05,4.43v4.76h-1.34V86.52c0-2.38-.27-3.26-1.94-3.26a6.12,6.12,0,0,0-2.54.67v7.31Z" fill="#3a3d3f"/><path d="M211.06,78.63h1.35V80.2h-1.35Zm0,3.6h1.35v9h-1.35Z" fill="#3a3d3f"/><path d="M215,91.24v-9h1.33v.63a6.85,6.85,0,0,1,2.79-.81c2.49,0,3,1.23,3,4.43v4.76h-1.33V86.52c0-2.38-.27-3.26-1.94-3.26a6.12,6.12,0,0,0-2.54.67v7.31Z" fill="#3a3d3f"/><path d="M224.27,92.75c0-1,.48-1.53,1.42-2.23a1.49,1.49,0,0,1-.5-1.25,5.82,5.82,0,0,1,.61-1.42c-.76-.34-1.43-1.06-1.43-2.72,0-2.21,1.37-3.08,3.37-3.08a9.22,9.22,0,0,1,1.88.24l2.66-.08v1.16l-1.71,0a2.35,2.35,0,0,1,.59,1.8c0,2.34-1.17,3-3.47,3a6.65,6.65,0,0,1-.88-.07,5.21,5.21,0,0,0-.33,1c0,.72.15.83,2.18.83,2.56,0,3.48.5,3.48,2.64s-1.46,2.87-4,2.87C225.29,95.47,224.27,94.84,224.27,92.75Zm2.34-1.7c-.76.56-1,.89-1,1.59,0,1.24.52,1.69,2.56,1.69,1.8,0,2.61-.48,2.61-1.67,0-1.37-.58-1.51-2.22-1.51C227.92,91.15,226.61,91.05,226.61,91.05Zm3.2-5.92c0-1.42-.56-2-2.07-2s-2,.56-2,2,.61,2,2,2S229.81,86.55,229.81,85.13Z" fill="#3a3d3f"/><path d="M244.79,91.24h-1.33v-.62a6.44,6.44,0,0,1-2.74.8c-1.76,0-3.24-.72-3.24-4.61,0-3.17,1-4.76,3.76-4.76a14.13,14.13,0,0,1,2.22.24v-4h1.33Zm-1.33-1.7v-6.1a14.43,14.43,0,0,0-2.15-.22c-1.89,0-2.44,1.24-2.44,3.59,0,2.91.95,3.4,2,3.4A6.54,6.54,0,0,0,243.46,89.54Z" fill="#3a3d3f"/><path d="M254,90.06l0,1.07a31.38,31.38,0,0,1-3.51.29c-2.69,0-3.57-1.57-3.57-4.63,0-3.42,1.48-4.74,3.76-4.74s3.62,1.26,3.62,4.22l-.07,1h-5.94c0,1.93.59,2.94,2.36,2.94C252.08,90.23,254,90.06,254,90.06Zm-1-3.85c0-2.23-.68-3-2.27-3s-2.39.84-2.41,3Z" fill="#3a3d3f"/><path d="M263.4,91.24h-1.33v-.62a6.44,6.44,0,0,1-2.74.8c-1.76,0-3.24-.72-3.24-4.61,0-3.17,1-4.76,3.76-4.76a14.13,14.13,0,0,1,2.22.24v-4h1.33Zm-1.33-1.7v-6.1a14.42,14.42,0,0,0-2.14-.22c-1.9,0-2.45,1.24-2.45,3.59,0,2.91.95,3.4,2,3.4A6.54,6.54,0,0,0,262.07,89.54Z" fill="#3a3d3f"/><path d="M266,78.63h1.35V80.2H266Zm0,3.6h1.35v9H266Z" fill="#3a3d3f"/><path d="M275.77,82.32l-.06,1.1s-1.44-.16-2.12-.16c-2.07,0-2.63.9-2.63,3.31,0,2.67.41,3.64,2.65,3.64.68,0,2.12-.16,2.12-.16l0,1.11a23.06,23.06,0,0,1-2.5.26c-2.86,0-3.71-1.32-3.71-4.85,0-3.26,1.06-4.52,3.75-4.52A20.89,20.89,0,0,1,275.77,82.32Z" fill="#3a3d3f"/><path d="M284.15,89.56c0,.52.47.72,1.05.79l-.06,1.07A2.75,2.75,0,0,1,283,90.7a9.2,9.2,0,0,1-3.24.72c-1.64,0-2.54-.94-2.54-2.76s.9-2.48,2.76-2.66l2.82-.27V85c0-1.26-.54-1.71-1.62-1.71-1.26,0-3.4.23-3.4.23l0-1a21.6,21.6,0,0,1,3.53-.4c2,0,2.89.94,2.89,2.9Zm-4-2.56c-1.1.11-1.53.63-1.53,1.63s.45,1.65,1.37,1.65a9.47,9.47,0,0,0,2.82-.56v-3Z" fill="#3a3d3f"/><path d="M288.62,83.4v4.31c0,2,.12,2.52,1.29,2.52.51,0,1.61-.11,1.61-.11l.09,1.12a16.5,16.5,0,0,1-1.84.19c-1.86,0-2.49-.7-2.49-3.29V83.4H286V82.23h1.27V79.48h1.34v2.75h2.86V83.4Z" fill="#3a3d3f"/><path d="M299.78,90.06l0,1.07a31.12,31.12,0,0,1-3.51.29c-2.68,0-3.56-1.57-3.56-4.63,0-3.42,1.47-4.74,3.76-4.74s3.62,1.26,3.62,4.22l-.07,1h-5.94c0,1.93.59,2.94,2.35,2.94C297.82,90.23,299.78,90.06,299.78,90.06Zm-1-3.85c0-2.23-.68-3-2.27-3s-2.39.84-2.41,3Z" fill="#3a3d3f"/><path d="M309.14,91.24h-1.33v-.62a6.44,6.44,0,0,1-2.74.8c-1.77,0-3.24-.72-3.24-4.61,0-3.17,1-4.76,3.76-4.76a14.13,14.13,0,0,1,2.22.24v-4h1.33Zm-1.33-1.7v-6.1a14.43,14.43,0,0,0-2.15-.22c-1.89,0-2.45,1.24-2.45,3.59,0,2.91,1,3.4,2,3.4A6.54,6.54,0,0,0,307.81,89.54Z" fill="#3a3d3f"/><path d="M321.52,82.32l0,1.1s-1.44-.16-2.13-.16c-2.07,0-2.63.9-2.63,3.31,0,2.67.42,3.64,2.65,3.64.68,0,2.13-.16,2.13-.16l.05,1.11a23.06,23.06,0,0,1-2.5.26c-2.87,0-3.71-1.32-3.71-4.85,0-3.26,1.06-4.52,3.74-4.52A20.89,20.89,0,0,1,321.52,82.32Z" fill="#3a3d3f"/><path d="M323.55,91.24V78.31h1.35v4.43a7.57,7.57,0,0,1,2.78-.69c2.46,0,3,1.23,3,4.43v4.76h-1.35V86.52c0-2.38-.27-3.26-1.93-3.26a7.41,7.41,0,0,0-2.54.54v7.44Z" fill="#3a3d3f"/><path d="M339.86,90.06l0,1.07a31.12,31.12,0,0,1-3.51.29c-2.69,0-3.57-1.57-3.57-4.63,0-3.42,1.48-4.74,3.77-4.74s3.61,1.26,3.61,4.22l-.07,1h-5.94c0,1.93.6,2.94,2.36,2.94C337.9,90.23,339.86,90.06,339.86,90.06Zm-1-3.85c0-2.23-.68-3-2.26-3s-2.4.84-2.42,3Z" fill="#3a3d3f"/><path d="M348.12,82.32l-.05,1.1s-1.44-.16-2.12-.16c-2.07,0-2.63.9-2.63,3.31,0,2.67.41,3.64,2.64,3.64.69,0,2.13-.16,2.13-.16l.05,1.11a23.06,23.06,0,0,1-2.5.26c-2.86,0-3.71-1.32-3.71-4.85,0-3.26,1.06-4.52,3.75-4.52A20.91,20.91,0,0,1,348.12,82.32Z" fill="#3a3d3f"/><path d="M350.16,91.24V78.31h1.35v7.63l1.4-.07,2.58-3.64H357l-2.94,4.14,3.06,4.87h-1.53l-2.68-4.18-1.42,0v4.13Z" fill="#3a3d3f"/><path d="M358.71,85.65h5.45v1.26h-5.45Z" fill="#3a3d3f"/><path d="M366.66,78.63H368V80.2h-1.35Zm0,3.6H368v9h-1.35Z" fill="#3a3d3f"/><path d="M370.61,91.24v-9h1.33v.63a6.85,6.85,0,0,1,2.79-.81c2.48,0,3,1.23,3,4.43v4.76h-1.33V86.52c0-2.38-.27-3.26-1.95-3.26a6.18,6.18,0,0,0-2.54.67v7.31Z" fill="#3a3d3f"/><path d="M391.14,91.24h-1.33v-.62a6.37,6.37,0,0,1-2.73.8c-1.77,0-3.25-.72-3.25-4.61,0-3.17,1-4.76,3.77-4.76a14.12,14.12,0,0,1,2.21.24v-4h1.33Zm-1.33-1.7v-6.1a14.27,14.27,0,0,0-2.14-.22c-1.89,0-2.45,1.24-2.45,3.59,0,2.91,1,3.4,2,3.4A6.47,6.47,0,0,0,389.81,89.54Z" fill="#3a3d3f"/><path d="M400.4,90.06l0,1.07a31.12,31.12,0,0,1-3.51.29c-2.68,0-3.56-1.57-3.56-4.63,0-3.42,1.47-4.74,3.76-4.74s3.62,1.26,3.62,4.22l-.07,1h-5.95c0,1.93.6,2.94,2.36,2.94C398.43,90.23,400.4,90.06,400.4,90.06Zm-1-3.85c0-2.23-.69-3-2.27-3s-2.4.84-2.41,3Z" fill="#3a3d3f"/><path d="M408.82,83.55a29.33,29.33,0,0,0-3.15-.29c-1.12,0-2,.3-2,1.37,0,.84.43,1.08,2.34,1.4,2.25.38,3.09.83,3.09,2.58,0,2.1-1.33,2.81-3.49,2.81a25,25,0,0,1-3.17-.35l.07-1.17a29.8,29.8,0,0,0,3,.31c1.47,0,2.26-.33,2.26-1.55,0-.94-.47-1.17-2.43-1.48s-3-.7-3-2.5c0-2,1.6-2.63,3.24-2.63a23.19,23.19,0,0,1,3.26.34Z" fill="#3a3d3f"/><path d="M411.21,91.24V78.31h1.35v7.63l1.41-.07,2.57-3.64h1.53l-2.93,4.14,3.06,4.87h-1.53L414,87.06l-1.43,0v4.13Z" fill="#3a3d3f"/><path d="M425.81,83.55a29.33,29.33,0,0,0-3.15-.29c-1.12,0-2,.3-2,1.37,0,.84.43,1.08,2.34,1.4,2.25.38,3.1.83,3.1,2.58,0,2.1-1.34,2.81-3.5,2.81a25,25,0,0,1-3.17-.35l.08-1.17a29.5,29.5,0,0,0,3,.31c1.47,0,2.27-.33,2.27-1.55,0-.94-.47-1.17-2.43-1.48s-3-.7-3-2.5c0-2,1.6-2.63,3.24-2.63a23.19,23.19,0,0,1,3.26.34Z" fill="#3a3d3f"/><path d="M434,83.4v4.31c0,2,.13,2.52,1.3,2.52.51,0,1.6-.11,1.6-.11l.09,1.12a16.23,16.23,0,0,1-1.83.19c-1.86,0-2.49-.7-2.49-3.29V83.4h-1.28V82.23h1.28V79.48H434v2.75h2.87V83.4Z" fill="#3a3d3f"/><path d="M445.79,86.63c0,3.27-.81,4.79-3.85,4.79s-3.85-1.52-3.85-4.79c0-3.1,1-4.58,3.85-4.58S445.79,83.53,445.79,86.63Zm-1.38,0c0-2.51-.54-3.41-2.47-3.41s-2.47.9-2.47,3.41.35,3.62,2.47,3.62S444.41,89.18,444.41,86.63Z" fill="#3a3d3f"/><path d="M457.76,82.32l-.05,1.1s-1.44-.16-2.13-.16c-2.07,0-2.63.9-2.63,3.31,0,2.67.42,3.64,2.65,3.64.69,0,2.13-.16,2.13-.16l0,1.11a23.06,23.06,0,0,1-2.5.26c-2.87,0-3.71-1.32-3.71-4.85,0-3.26,1.06-4.52,3.74-4.52A20.89,20.89,0,0,1,457.76,82.32Z" fill="#3a3d3f"/><path d="M466.44,90.06l0,1.07a31.12,31.12,0,0,1-3.51.29c-2.68,0-3.56-1.57-3.56-4.63,0-3.42,1.47-4.74,3.76-4.74s3.62,1.26,3.62,4.22l-.07,1h-5.94c0,1.93.59,2.94,2.35,2.94C464.48,90.23,466.44,90.06,466.44,90.06Zm-1-3.85c0-2.23-.68-3-2.27-3s-2.39.84-2.41,3Z" fill="#3a3d3f"/><path d="M468.88,82.23h1.34v1.23A10.06,10.06,0,0,1,473.51,82V83.4a13.41,13.41,0,0,0-3.28,1.23v6.61h-1.35Z" fill="#3a3d3f"/><path d="M476.91,83.4v4.31c0,2,.13,2.52,1.3,2.52.5,0,1.6-.11,1.6-.11l.09,1.12a16.21,16.21,0,0,1-1.84.19c-1.85,0-2.48-.7-2.48-3.29V83.4H474.3V82.23h1.28V79.48h1.33v2.75h2.87V83.4Z" fill="#3a3d3f"/><path d="M487.79,89.56c0,.52.46.72,1,.79l-.05,1.07a2.76,2.76,0,0,1-2.15-.72,9.2,9.2,0,0,1-3.24.72c-1.64,0-2.54-.94-2.54-2.76s.9-2.48,2.76-2.66l2.83-.27V85c0-1.26-.54-1.71-1.62-1.71-1.27,0-3.41.23-3.41.23l-.05-1a21.6,21.6,0,0,1,3.53-.4c2,0,2.9.94,2.9,2.9Zm-4-2.56c-1.1.11-1.53.63-1.53,1.63s.45,1.65,1.37,1.65a9.57,9.57,0,0,0,2.83-.56v-3Z" fill="#3a3d3f"/><path d="M490.45,78.63h1.35V80.2h-1.35Zm0,3.6h1.35v9h-1.35Z" fill="#3a3d3f"/><path d="M494.39,91.24v-9h1.33v.63a6.85,6.85,0,0,1,2.79-.81c2.49,0,3.05,1.23,3.05,4.43v4.76h-1.34V86.52c0-2.38-.27-3.26-1.94-3.26a6.12,6.12,0,0,0-2.54.67v7.31Z" fill="#3a3d3f"/><path d="M509.74,91.24h-1.35V83.4h-1.13V82.23h1.13v-.81c0-2.59.67-3.29,2.43-3.29.62,0,1.82.12,1.82.12l0,1.12s-1,0-1.54,0c-1,0-1.34.44-1.34,2.11v.79h2.62V83.4h-2.62Z" fill="#3a3d3f"/><path d="M514.08,78.31h1.35V91.24h-1.35Z" fill="#3a3d3f"/><path d="M518.13,78.63h1.35V80.2h-1.35Zm0,3.6h1.35v9h-1.35Z" fill="#3a3d3f"/><path d="M521.68,92.75c0-1,.48-1.53,1.42-2.23a1.49,1.49,0,0,1-.5-1.25,5.82,5.82,0,0,1,.61-1.42c-.76-.34-1.43-1.06-1.43-2.72,0-2.21,1.37-3.08,3.37-3.08a9.22,9.22,0,0,1,1.88.24l2.66-.08v1.16l-1.71,0a2.35,2.35,0,0,1,.59,1.8c0,2.34-1.17,3-3.47,3a6.65,6.65,0,0,1-.88-.07,5.21,5.21,0,0,0-.33,1c0,.72.15.83,2.18.83,2.56,0,3.48.5,3.48,2.64s-1.46,2.87-4,2.87C522.7,95.47,521.68,94.84,521.68,92.75Zm2.34-1.7c-.76.56-1,.89-1,1.59,0,1.24.52,1.69,2.56,1.69,1.8,0,2.61-.48,2.61-1.67,0-1.37-.58-1.51-2.22-1.51C525.33,91.15,524,91.05,524,91.05Zm3.2-5.92c0-1.42-.56-2-2.07-2s-2,.56-2,2,.61,2,2,2S527.22,86.55,527.22,85.13Z" fill="#3a3d3f"/><path d="M531.33,91.24V78.31h1.35v4.43a7.55,7.55,0,0,1,2.77-.69c2.47,0,3,1.23,3,4.43v4.76h-1.35V86.52c0-2.38-.27-3.26-1.93-3.26a7.39,7.39,0,0,0-2.53.54v7.44Z" fill="#3a3d3f"/><path d="M542.79,83.4v4.31c0,2,.13,2.52,1.3,2.52.5,0,1.6-.11,1.6-.11l.09,1.12a16.5,16.5,0,0,1-1.84.19c-1.85,0-2.48-.7-2.48-3.29V83.4h-1.28V82.23h1.28V79.48h1.33v2.75h2.87V83.4Z" fill="#3a3d3f"/><path d="M553.29,83.55a29.33,29.33,0,0,0-3.15-.29c-1.12,0-2,.3-2,1.37,0,.84.44,1.08,2.34,1.4,2.26.38,3.1.83,3.1,2.58,0,2.1-1.33,2.81-3.49,2.81a25,25,0,0,1-3.17-.35L547,89.9a29.5,29.5,0,0,0,3,.31c1.48,0,2.27-.33,2.27-1.55,0-.94-.47-1.17-2.43-1.48s-3-.7-3-2.5c0-2,1.61-2.63,3.24-2.63a23.19,23.19,0,0,1,3.26.34Z" fill="#3a3d3f"/><path d="M160.73,119.24v-9h1.33v.63a6,6,0,0,1,2.63-.81A2.53,2.53,0,0,1,167,111a7.46,7.46,0,0,1,3.2-.92c2.45,0,3.05,1.17,3.05,4.43v4.76h-1.35v-4.72c0-2.38-.27-3.26-1.89-3.26a5.89,5.89,0,0,0-2.54.67,10.25,10.25,0,0,1,.23,2.62v4.69h-1.35v-4.65c0-2.48-.25-3.33-1.89-3.33a5.34,5.34,0,0,0-2.41.67v7.31Z" fill="#3a3d3f"/><path d="M175.78,106.63h1.35v1.57h-1.35Zm0,3.6h1.35v9h-1.35Z" fill="#3a3d3f"/><path d="M179.32,120.75c0-1,.49-1.53,1.42-2.23a1.49,1.49,0,0,1-.5-1.25,5.82,5.82,0,0,1,.61-1.42c-.75-.34-1.42-1.06-1.42-2.72,0-2.21,1.37-3.08,3.37-3.08a9.07,9.07,0,0,1,1.87.24l2.66-.08v1.16l-1.71,0a2.31,2.31,0,0,1,.6,1.8c0,2.34-1.17,3-3.48,3a6.79,6.79,0,0,1-.88-.07,5.32,5.32,0,0,0-.32,1c0,.72.14.83,2.18.83,2.55,0,3.47.5,3.47,2.64s-1.46,2.87-4,2.87C180.35,123.47,179.32,122.84,179.32,120.75Zm2.34-1.7c-.75.56-1,.89-1,1.59,0,1.24.53,1.69,2.56,1.69,1.8,0,2.61-.48,2.61-1.67,0-1.37-.57-1.51-2.21-1.51C183,119.15,181.66,119.05,181.66,119.05Zm3.21-5.92c0-1.42-.56-2-2.07-2s-2,.56-2,2,.61,2,2,2S184.87,114.55,184.87,113.13Z" fill="#3a3d3f"/><path d="M189,119.24V106.31h1.35v4.43a7.55,7.55,0,0,1,2.77-.69c2.47,0,3,1.23,3,4.43v4.76h-1.35v-4.72c0-2.38-.27-3.26-1.93-3.26a7.41,7.41,0,0,0-2.54.54v7.44Z" fill="#3a3d3f"/><path d="M200.44,111.4v4.31c0,2,.12,2.52,1.29,2.52.51,0,1.61-.11,1.61-.11l.09,1.12a16.5,16.5,0,0,1-1.84.19c-1.86,0-2.49-.7-2.49-3.29V111.4h-1.27v-1.17h1.27v-2.75h1.34v2.75h2.86v1.17Z" fill="#3a3d3f"/><path d="M215.83,119.24H214.5v-.62a6.44,6.44,0,0,1-2.74.8c-1.77,0-3.24-.72-3.24-4.61,0-3.17,1-4.76,3.76-4.76a14.13,14.13,0,0,1,2.22.24v-4h1.33Zm-1.33-1.7v-6.1a14.43,14.43,0,0,0-2.15-.22c-1.89,0-2.44,1.24-2.44,3.59,0,2.91,1,3.4,2,3.4A6.54,6.54,0,0,0,214.5,117.54Z" fill="#3a3d3f"/><path d="M218.44,106.63h1.35v1.57h-1.35Zm0,3.6h1.35v9h-1.35Z" fill="#3a3d3f"/><path d="M228.36,111.55a29.33,29.33,0,0,0-3.16-.29c-1.11,0-2,.3-2,1.37,0,.84.43,1.08,2.34,1.4,2.25.38,3.1.83,3.1,2.58,0,2.1-1.33,2.81-3.49,2.81a24.7,24.7,0,0,1-3.17-.35l.07-1.17a29.5,29.5,0,0,0,3,.31c1.48,0,2.27-.33,2.27-1.55,0-.94-.47-1.17-2.43-1.48s-3-.7-3-2.5c0-2,1.6-2.63,3.24-2.63a23.19,23.19,0,0,1,3.26.34Z" fill="#3a3d3f"/><path d="M232.55,111.4v4.31c0,2,.12,2.52,1.3,2.52.5,0,1.6-.11,1.6-.11l.09,1.12a16.5,16.5,0,0,1-1.84.19c-1.85,0-2.48-.7-2.48-3.29V111.4h-1.28v-1.17h1.28v-2.75h1.33v2.75h2.86v1.17Z" fill="#3a3d3f"/><path d="M237.07,110.23h1.33v1.23a10.18,10.18,0,0,1,3.29-1.42v1.36a13.24,13.24,0,0,0-3.27,1.23v6.61h-1.35Z" fill="#3a3d3f"/><path d="M243.29,106.63h1.35v1.57h-1.35Zm0,3.6h1.35v9h-1.35Z" fill="#3a3d3f"/><path d="M254.49,114.59c0,3.58-1,4.83-4.25,4.83-1.08,0-3-.2-3-.2V106.31h1.33v4.37a7.43,7.43,0,0,1,2.64-.63C253.66,110.05,254.49,111.35,254.49,114.59Zm-1.37,0c0-2.32-.46-3.33-2.05-3.33a7.57,7.57,0,0,0-2.5.52v6.34s1.17.09,1.65.09C252.69,118.21,253.12,117.11,253.12,114.59Z" fill="#3a3d3f"/><path d="M263.67,110.23v9h-1.35v-.63a6.07,6.07,0,0,1-2.66.81c-2.52,0-3.05-1.17-3.05-4.49v-4.7H258v4.68c0,2.49.22,3.3,1.89,3.3a5.42,5.42,0,0,0,2.47-.67v-7.31Z" fill="#3a3d3f"/><path d="M268.06,111.4v4.31c0,2,.13,2.52,1.3,2.52.5,0,1.6-.11,1.6-.11l.09,1.12a16.5,16.5,0,0,1-1.84.19c-1.85,0-2.48-.7-2.48-3.29V111.4h-1.28v-1.17h1.28v-2.75h1.33v2.75h2.86v1.17Z" fill="#3a3d3f"/><path d="M279.22,118.06l0,1.07a31.12,31.12,0,0,1-3.51.29c-2.68,0-3.57-1.57-3.57-4.63,0-3.42,1.48-4.74,3.77-4.74s3.62,1.26,3.62,4.22l-.08,1h-5.94c0,1.93.6,2.94,2.36,2.94C277.26,118.23,279.22,118.06,279.22,118.06Zm-1-3.85c0-2.23-.68-3-2.26-3s-2.4.84-2.42,3Z" fill="#3a3d3f"/><path d="M287.43,111.4v4.31c0,2,.13,2.52,1.3,2.52.5,0,1.6-.11,1.6-.11l.09,1.12a16.5,16.5,0,0,1-1.84.19c-1.85,0-2.48-.7-2.48-3.29V111.4h-1.28v-1.17h1.28v-2.75h1.33v2.75h2.86v1.17Z" fill="#3a3d3f"/><path d="M292,119.24V106.31h1.35v4.43a7.55,7.55,0,0,1,2.77-.69c2.47,0,3,1.23,3,4.43v4.76h-1.35v-4.72c0-2.38-.27-3.26-1.92-3.26a7.41,7.41,0,0,0-2.54.54v7.44Z" fill="#3a3d3f"/><path d="M308.26,118.06l0,1.07a31.12,31.12,0,0,1-3.51.29c-2.68,0-3.56-1.57-3.56-4.63,0-3.42,1.47-4.74,3.76-4.74s3.62,1.26,3.62,4.22l-.07,1h-5.94c0,1.93.59,2.94,2.35,2.94C306.29,118.23,308.26,118.06,308.26,118.06Zm-1-3.85c0-2.23-.68-3-2.27-3s-2.39.84-2.41,3Z" fill="#3a3d3f"/><path d="M314.66,110.23H316v.65a6.07,6.07,0,0,1,2.7-.83c2.27,0,3.26,1.39,3.26,4.58,0,3.53-1.16,4.79-3.93,4.79a12.16,12.16,0,0,1-2-.2v4h-1.35ZM316,112v6.07a14.47,14.47,0,0,0,1.95.2c2,0,2.63-1,2.63-3.62s-.78-3.37-2.09-3.37A5.87,5.87,0,0,0,316,112Z" fill="#3a3d3f"/><path d="M330.51,117.56c0,.52.46.72,1,.79l-.05,1.07a2.76,2.76,0,0,1-2.15-.72,9.2,9.2,0,0,1-3.24.72c-1.64,0-2.54-.94-2.54-2.76s.9-2.48,2.76-2.66l2.83-.27V113c0-1.26-.54-1.71-1.63-1.71-1.26,0-3.4.23-3.4.23l-.05-1a21.6,21.6,0,0,1,3.53-.4c2,0,2.9.94,2.9,2.9Zm-4-2.56c-1.1.11-1.53.63-1.53,1.63s.45,1.65,1.37,1.65a9.57,9.57,0,0,0,2.83-.56v-3Z" fill="#3a3d3f"/><path d="M339.15,111.55a29.33,29.33,0,0,0-3.16-.29c-1.11,0-2,.3-2,1.37,0,.84.43,1.08,2.34,1.4,2.25.38,3.1.83,3.1,2.58,0,2.1-1.33,2.81-3.49,2.81a24.7,24.7,0,0,1-3.17-.35l.07-1.17a29.5,29.5,0,0,0,3,.31c1.48,0,2.27-.33,2.27-1.55,0-.94-.47-1.17-2.43-1.48s-3-.7-3-2.5c0-2,1.6-2.63,3.24-2.63a23.19,23.19,0,0,1,3.26.34Z" fill="#3a3d3f"/><path d="M347.52,111.55a29.33,29.33,0,0,0-3.16-.29c-1.11,0-2,.3-2,1.37,0,.84.43,1.08,2.34,1.4,2.25.38,3.1.83,3.1,2.58,0,2.1-1.33,2.81-3.49,2.81a24.7,24.7,0,0,1-3.17-.35l.07-1.17a29.5,29.5,0,0,0,3,.31c1.48,0,2.27-.33,2.27-1.55,0-.94-.47-1.17-2.43-1.48s-3-.7-3-2.5c0-2,1.6-2.63,3.24-2.63a23.19,23.19,0,0,1,3.26.34Z" fill="#3a3d3f"/><path d="M356.55,118.06l0,1.07a31.38,31.38,0,0,1-3.51.29c-2.69,0-3.57-1.57-3.57-4.63,0-3.42,1.48-4.74,3.76-4.74s3.62,1.26,3.62,4.22l-.07,1h-5.94c0,1.93.59,2.94,2.36,2.94C354.59,118.23,356.55,118.06,356.55,118.06Zm-1-3.85c0-2.23-.68-3-2.27-3s-2.39.84-2.41,3Z" fill="#3a3d3f"/><path d="M359,119.24v-9h1.33v.63a6.85,6.85,0,0,1,2.79-.81c2.49,0,3,1.23,3,4.43v4.76h-1.33v-4.72c0-2.38-.27-3.26-1.94-3.26a6.12,6.12,0,0,0-2.54.67v7.31Z" fill="#3a3d3f"/><path d="M368.27,120.75c0-1,.48-1.53,1.42-2.23a1.49,1.49,0,0,1-.5-1.25,5.82,5.82,0,0,1,.61-1.42c-.76-.34-1.43-1.06-1.43-2.72,0-2.21,1.37-3.08,3.37-3.08a9.22,9.22,0,0,1,1.88.24l2.66-.08v1.16l-1.71,0a2.35,2.35,0,0,1,.59,1.8c0,2.34-1.17,3-3.47,3a6.65,6.65,0,0,1-.88-.07,5.21,5.21,0,0,0-.33,1c0,.72.15.83,2.18.83,2.56,0,3.48.5,3.48,2.64s-1.46,2.87-4,2.87C369.29,123.47,368.27,122.84,368.27,120.75Zm2.34-1.7c-.76.56-1,.89-1,1.59,0,1.24.52,1.69,2.56,1.69,1.8,0,2.61-.48,2.61-1.67,0-1.37-.58-1.51-2.22-1.51C371.92,119.15,370.61,119.05,370.61,119.05Zm3.2-5.92c0-1.42-.56-2-2.07-2s-2,.56-2,2,.61,2,2,2S373.81,114.55,373.81,113.13Z" fill="#3a3d3f"/><path d="M384.56,118.06l0,1.07a31.4,31.4,0,0,1-3.52.29c-2.68,0-3.56-1.57-3.56-4.63,0-3.42,1.48-4.74,3.76-4.74s3.62,1.26,3.62,4.22l-.07,1h-5.94c0,1.93.59,2.94,2.36,2.94C382.6,118.23,384.56,118.06,384.56,118.06Zm-1-3.85c0-2.23-.68-3-2.27-3s-2.39.84-2.41,3Z" fill="#3a3d3f"/><path d="M387,110.23h1.33v1.23a10.06,10.06,0,0,1,3.29-1.42v1.36a13.24,13.24,0,0,0-3.27,1.23v6.61H387Z" fill="#3a3d3f"/><path d="M397.3,106.31h1.35v12.93H397.3Z" fill="#3a3d3f"/><path d="M408.66,114.63c0,3.27-.81,4.79-3.85,4.79S401,117.9,401,114.63c0-3.1,1-4.58,3.86-4.58S408.66,111.53,408.66,114.63Zm-1.39,0c0-2.51-.54-3.41-2.46-3.41s-2.47.9-2.47,3.41.34,3.62,2.47,3.62S407.27,117.18,407.27,114.63Z" fill="#3a3d3f"/><path d="M417.21,117.56c0,.52.47.72,1,.79l-.05,1.07a2.75,2.75,0,0,1-2.14-.72,9.2,9.2,0,0,1-3.24.72c-1.64,0-2.54-.94-2.54-2.76s.9-2.48,2.75-2.66l2.83-.27V113c0-1.26-.54-1.71-1.62-1.71-1.26,0-3.4.23-3.4.23l-.06-1a21.6,21.6,0,0,1,3.53-.4c2,0,2.9.94,2.9,2.9Zm-4-2.56c-1.1.11-1.54.63-1.54,1.63s.46,1.65,1.37,1.65a9.48,9.48,0,0,0,2.83-.56v-3Z" fill="#3a3d3f"/><path d="M426.79,119.24h-1.34v-.62a6.37,6.37,0,0,1-2.73.8c-1.77,0-3.24-.72-3.24-4.61,0-3.17,1-4.76,3.76-4.76a14.12,14.12,0,0,1,2.21.24v-4h1.34Zm-1.34-1.7v-6.1a14.12,14.12,0,0,0-2.14-.22c-1.89,0-2.45,1.24-2.45,3.59,0,2.91,1,3.4,2,3.4A6.47,6.47,0,0,0,425.45,117.54Z" fill="#3a3d3f"/><path d="M439.71,117.56c0,.52.47.72,1,.79l-.05,1.07a2.75,2.75,0,0,1-2.14-.72,9.2,9.2,0,0,1-3.24.72c-1.64,0-2.54-.94-2.54-2.76s.9-2.48,2.75-2.66l2.83-.27V113c0-1.26-.54-1.71-1.62-1.71-1.26,0-3.4.23-3.4.23l-.06-1a21.6,21.6,0,0,1,3.53-.4c2,0,2.9.94,2.9,2.9Zm-4-2.56c-1.09.11-1.53.63-1.53,1.63s.45,1.65,1.37,1.65a9.48,9.48,0,0,0,2.83-.56v-3Z" fill="#3a3d3f"/><path d="M442.37,119.24v-9h1.33v.63a6.85,6.85,0,0,1,2.79-.81c2.49,0,3.05,1.23,3.05,4.43v4.76H448.2v-4.72c0-2.38-.26-3.26-1.94-3.26a6.12,6.12,0,0,0-2.54.67v7.31Z" fill="#3a3d3f"/><path d="M459,119.24h-1.33v-.62a6.44,6.44,0,0,1-2.74.8c-1.76,0-3.24-.72-3.24-4.61,0-3.17,1-4.76,3.76-4.76a14.13,14.13,0,0,1,2.22.24v-4H459Zm-1.33-1.7v-6.1a14.42,14.42,0,0,0-2.14-.22c-1.89,0-2.45,1.24-2.45,3.59,0,2.91,1,3.4,2,3.4A6.54,6.54,0,0,0,457.62,117.54Z" fill="#3a3d3f"/><path d="M465.52,119.24v-9h1.33v.63a6,6,0,0,1,2.63-.81,2.53,2.53,0,0,1,2.34.92,7.47,7.47,0,0,1,3.21-.92c2.44,0,3,1.17,3,4.43v4.76h-1.35v-4.72c0-2.38-.27-3.26-1.89-3.26a5.89,5.89,0,0,0-2.54.67,10.25,10.25,0,0,1,.23,2.62v4.69h-1.35v-4.65c0-2.48-.25-3.33-1.89-3.33a5.34,5.34,0,0,0-2.41.67v7.31Z" fill="#3a3d3f"/><path d="M486.92,117.56c0,.52.47.72,1.05.79l-.06,1.07a2.75,2.75,0,0,1-2.14-.72,9.2,9.2,0,0,1-3.24.72c-1.64,0-2.54-.94-2.54-2.76s.9-2.48,2.75-2.66l2.83-.27V113c0-1.26-.54-1.71-1.62-1.71-1.26,0-3.4.23-3.4.23l-.06-1a21.77,21.77,0,0,1,3.53-.4c2,0,2.9.94,2.9,2.9Zm-4-2.56c-1.1.11-1.53.63-1.53,1.63s.45,1.65,1.36,1.65a9.48,9.48,0,0,0,2.83-.56v-3Z" fill="#3a3d3f"/><path d="M490.09,110.23l2.25,7.83h.59l2.27-7.83h1.35l-3.74,13h-1.35l1.17-4h-1.34l-2.55-9Z" fill="#3a3d3f"/><path d="M502.24,119.24V106.31h1.35v4.43a7.55,7.55,0,0,1,2.77-.69c2.47,0,3,1.23,3,4.43v4.76h-1.35v-4.72c0-2.38-.27-3.26-1.92-3.26a7.41,7.41,0,0,0-2.54.54v7.44Z" fill="#3a3d3f"/><path d="M518.55,118.06l0,1.07a31.12,31.12,0,0,1-3.51.29c-2.68,0-3.56-1.57-3.56-4.63,0-3.42,1.47-4.74,3.76-4.74s3.62,1.26,3.62,4.22l-.07,1h-5.94c0,1.93.59,2.94,2.35,2.94C516.58,118.23,518.55,118.06,518.55,118.06Zm-1-3.85c0-2.23-.68-3-2.27-3s-2.39.84-2.41,3Z" fill="#3a3d3f"/><path d="M521.1,106.31h1.35v12.93H521.1Z" fill="#3a3d3f"/><path d="M525.15,110.23h1.33v.65a6.13,6.13,0,0,1,2.71-.83c2.26,0,3.25,1.39,3.25,4.58,0,3.53-1.15,4.79-3.92,4.79a12,12,0,0,1-2-.2v4h-1.35ZM526.5,112v6.07a14.47,14.47,0,0,0,2,.2c2,0,2.62-1,2.62-3.62s-.77-3.37-2.08-3.37A5.87,5.87,0,0,0,526.5,112Z" fill="#3a3d3f"/><path d="M166.54,138.32l0,1.1s-1.44-.16-2.12-.16c-2.08,0-2.63.9-2.63,3.31,0,2.67.41,3.64,2.64,3.64.69,0,2.13-.16,2.13-.16l.05,1.11a23.06,23.06,0,0,1-2.5.26c-2.86,0-3.71-1.32-3.71-4.85,0-3.26,1.06-4.52,3.74-4.52A20.89,20.89,0,0,1,166.54,138.32Z" fill="#3a3d3f"/><path d="M174.93,145.56c0,.52.47.72,1,.79l-.06,1.07a2.75,2.75,0,0,1-2.14-.72,9.2,9.2,0,0,1-3.24.72c-1.64,0-2.54-.94-2.54-2.76s.9-2.48,2.75-2.66l2.83-.27V141c0-1.26-.54-1.71-1.62-1.71-1.26,0-3.4.23-3.4.23l-.06-1a21.6,21.6,0,0,1,3.53-.4c2,0,2.9.94,2.9,2.9Zm-4-2.56c-1.1.11-1.53.63-1.53,1.63s.45,1.65,1.36,1.65a9.48,9.48,0,0,0,2.83-.56v-3Z" fill="#3a3d3f"/><path d="M177.59,138.23h1.34v1.23a10.06,10.06,0,0,1,3.29-1.42v1.36a13.41,13.41,0,0,0-3.28,1.23v6.61h-1.35Z" fill="#3a3d3f"/><path d="M183.82,138.23h1.33v1.23a10.17,10.17,0,0,1,3.3-1.42v1.36a13.41,13.41,0,0,0-3.28,1.23v6.61h-1.35Z" fill="#3a3d3f"/><path d="M190.55,138.23l2.25,7.83h.6l2.27-7.83H197l-3.75,13h-1.35l1.17-4h-1.33l-2.56-9Z" fill="#3a3d3f"/><path d="M198.74,134.63h1.35v1.57h-1.35Zm0,3.6h1.35v9h-1.35Z" fill="#3a3d3f"/><path d="M202.68,147.24v-9H204v.63a6.79,6.79,0,0,1,2.79-.81c2.48,0,3,1.23,3,4.43v4.76h-1.33v-4.72c0-2.38-.27-3.26-2-3.26a6.18,6.18,0,0,0-2.54.67v7.31Z" fill="#3a3d3f"/><path d="M212,148.75c0-1.05.49-1.53,1.42-2.23a1.49,1.49,0,0,1-.5-1.25,5.82,5.82,0,0,1,.61-1.42c-.75-.34-1.42-1.06-1.42-2.72,0-2.21,1.37-3.08,3.37-3.08a9.07,9.07,0,0,1,1.87.24l2.67-.08v1.16l-1.72,0a2.31,2.31,0,0,1,.6,1.8c0,2.34-1.17,3-3.48,3a6.79,6.79,0,0,1-.88-.07,5.32,5.32,0,0,0-.32,1c0,.72.14.83,2.18.83,2.55,0,3.47.5,3.47,2.64s-1.46,2.87-4,2.87C213,151.47,212,150.84,212,148.75Zm2.34-1.7c-.75.56-1,.89-1,1.59,0,1.24.53,1.69,2.56,1.69,1.8,0,2.61-.48,2.61-1.67,0-1.37-.57-1.51-2.21-1.51C215.61,147.15,214.29,147.05,214.29,147.05Zm3.21-5.92c0-1.42-.56-2-2.07-2s-2,.56-2,2,.61,2,2,2S217.5,142.55,217.5,141.13Z" fill="#3a3d3f"/><path d="M227.36,139.4v4.31c0,2,.13,2.52,1.3,2.52.5,0,1.6-.11,1.6-.11l.09,1.12a16.5,16.5,0,0,1-1.84.19c-1.85,0-2.48-.7-2.48-3.29V139.4h-1.28v-1.17H226v-2.75h1.33v2.75h2.86v1.17Z" fill="#3a3d3f"/><path d="M231.88,147.24V134.31h1.35v4.43a7.55,7.55,0,0,1,2.77-.69c2.47,0,3.05,1.23,3.05,4.43v4.76H237.7v-4.72c0-2.38-.28-3.26-1.93-3.26a7.41,7.41,0,0,0-2.54.54v7.44Z" fill="#3a3d3f"/><path d="M248.19,146.06l0,1.07a31.4,31.4,0,0,1-3.52.29c-2.68,0-3.56-1.57-3.56-4.63,0-3.42,1.48-4.74,3.76-4.74s3.62,1.26,3.62,4.22l-.07,1h-5.94c0,1.93.59,2.94,2.36,2.94C246.23,146.23,248.19,146.06,248.19,146.06Zm-1-3.85c0-2.23-.68-3-2.27-3s-2.39.84-2.41,3Z" fill="#3a3d3f"/><path d="M261.85,142.59c0,3.58-1,4.83-4.25,4.83-1.08,0-3-.2-3-.2V134.31h1.33v4.37a7.43,7.43,0,0,1,2.64-.63C261,138.05,261.85,139.35,261.85,142.59Zm-1.37,0c0-2.32-.47-3.33-2.05-3.33a7.57,7.57,0,0,0-2.5.52v6.34s1.17.09,1.65.09C260.05,146.21,260.48,145.11,260.48,142.59Z" fill="#3a3d3f"/><path d="M270.42,145.56c0,.52.47.72,1,.79l0,1.07a2.74,2.74,0,0,1-2.14-.72,9.2,9.2,0,0,1-3.24.72c-1.64,0-2.54-.94-2.54-2.76s.9-2.48,2.75-2.66l2.83-.27V141c0-1.26-.54-1.71-1.62-1.71-1.26,0-3.41.23-3.41.23l-.05-1a21.6,21.6,0,0,1,3.53-.4c2,0,2.9.94,2.9,2.9Zm-4-2.56c-1.09.11-1.53.63-1.53,1.63s.45,1.65,1.37,1.65a9.57,9.57,0,0,0,2.83-.56v-3Z" fill="#3a3d3f"/><path d="M272.68,148.75c0-1.05.49-1.53,1.43-2.23a1.47,1.47,0,0,1-.51-1.25,5.82,5.82,0,0,1,.61-1.42c-.75-.34-1.42-1.06-1.42-2.72,0-2.21,1.37-3.08,3.37-3.08a9.07,9.07,0,0,1,1.87.24l2.67-.08v1.16l-1.71,0a2.35,2.35,0,0,1,.59,1.8c0,2.34-1.17,3-3.47,3a6.94,6.94,0,0,1-.89-.07,5.32,5.32,0,0,0-.32,1c0,.72.14.83,2.18.83,2.55,0,3.47.5,3.47,2.64s-1.46,2.87-4,2.87C273.71,151.47,272.68,150.84,272.68,148.75Zm2.35-1.7c-.76.56-1,.89-1,1.59,0,1.24.52,1.69,2.55,1.69,1.8,0,2.61-.48,2.61-1.67,0-1.37-.57-1.51-2.21-1.51C276.34,147.15,275,147.05,275,147.05Zm3.2-5.92c0-1.42-.56-2-2.07-2s-2,.56-2,2,.61,2,2,2S278.23,142.55,278.23,141.13Z" fill="#3a3d3f"/><path d="M288.31,139.55a29.33,29.33,0,0,0-3.15-.29c-1.12,0-2,.3-2,1.37,0,.84.43,1.08,2.34,1.4,2.25.38,3.09.83,3.09,2.58,0,2.1-1.33,2.81-3.49,2.81a25,25,0,0,1-3.17-.35l.07-1.17a29.8,29.8,0,0,0,3,.31c1.47,0,2.26-.33,2.26-1.55,0-.94-.46-1.17-2.43-1.48s-3-.7-3-2.5c0-2,1.6-2.63,3.24-2.63a23.19,23.19,0,0,1,3.26.34Z" fill="#3a3d3f"/><path d="M296.39,147.24H295V139.4h-1.13v-1.17H295v-.81c0-2.59.67-3.29,2.43-3.29.61,0,1.82.12,1.82.12l0,1.12s-1,0-1.55,0c-1,0-1.33.44-1.33,2.11v.79H299v1.17h-2.61Z" fill="#3a3d3f"/><path d="M307,145.56c0,.52.46.72,1,.79l0,1.07a2.76,2.76,0,0,1-2.15-.72,9.2,9.2,0,0,1-3.24.72c-1.64,0-2.54-.94-2.54-2.76s.9-2.48,2.76-2.66l2.83-.27V141c0-1.26-.54-1.71-1.62-1.71-1.27,0-3.41.23-3.41.23l-.05-1a21.6,21.6,0,0,1,3.53-.4c2,0,2.9.94,2.9,2.9ZM303,143c-1.1.11-1.53.63-1.53,1.63s.45,1.65,1.37,1.65a9.57,9.57,0,0,0,2.83-.56v-3Z" fill="#3a3d3f"/><path d="M315.62,139.55a29.33,29.33,0,0,0-3.16-.29c-1.11,0-2,.3-2,1.37,0,.84.43,1.08,2.34,1.4,2.25.38,3.1.83,3.1,2.58,0,2.1-1.33,2.81-3.49,2.81a24.7,24.7,0,0,1-3.17-.35l.07-1.17a29.5,29.5,0,0,0,3,.31c1.48,0,2.27-.33,2.27-1.55,0-.94-.47-1.17-2.43-1.48s-3-.7-3-2.5c0-2,1.6-2.63,3.24-2.63a23.19,23.19,0,0,1,3.26.34Z" fill="#3a3d3f"/><path d="M319.81,139.4v4.31c0,2,.12,2.52,1.3,2.52.5,0,1.6-.11,1.6-.11l.09,1.12a16.5,16.5,0,0,1-1.84.19c-1.85,0-2.48-.7-2.48-3.29V139.4H317.2v-1.17h1.28v-2.75h1.33v2.75h2.86v1.17Z" fill="#3a3d3f"/><path d="M331,146.06l0,1.07a31.38,31.38,0,0,1-3.51.29c-2.69,0-3.57-1.57-3.57-4.63,0-3.42,1.48-4.74,3.76-4.74s3.62,1.26,3.62,4.22l-.07,1H325.3c0,1.93.59,2.94,2.36,2.94C329,146.23,331,146.06,331,146.06Zm-1-3.85c0-2.23-.68-3-2.27-3s-2.39.84-2.41,3Z" fill="#3a3d3f"/><path d="M333.42,138.23h1.33v1.23A10.18,10.18,0,0,1,338,138v1.36a13.24,13.24,0,0,0-3.27,1.23v6.61h-1.35Z" fill="#3a3d3f"/><path d="M339.55,145.18H341v2.06h-1.48Z" fill="#3a3d3f"/><path d="M1285.16,78.78h9V80h-3.79V91.24H1289V80h-3.84Z" fill="#3a3d3f"/><path d="M1295.69,91.24V78.31H1297v4.43a7.57,7.57,0,0,1,2.78-.69c2.46,0,3,1.23,3,4.43v4.76h-1.35V86.52c0-2.38-.27-3.26-1.93-3.26a7.41,7.41,0,0,0-2.54.54v7.44Z" fill="#3a3d3f"/><path d="M1312,90.07l0,1.06a31.12,31.12,0,0,1-3.51.29c-2.69,0-3.57-1.57-3.57-4.63,0-3.42,1.48-4.74,3.76-4.74s3.62,1.26,3.62,4.22l-.07,1h-5.94c0,1.93.59,2.94,2.36,2.94C1310,90.23,1312,90.07,1312,90.07Zm-1-3.86c0-2.23-.68-3-2.27-3s-2.39.84-2.41,3Z" fill="#3a3d3f"/><path d="M1314.45,82.23h1.33v1.23a10.18,10.18,0,0,1,3.29-1.42V83.4a13.24,13.24,0,0,0-3.27,1.23v6.61h-1.35Z" fill="#3a3d3f"/><path d="M1327.32,90.07l0,1.06a31.4,31.4,0,0,1-3.52.29c-2.68,0-3.56-1.57-3.56-4.63,0-3.42,1.48-4.74,3.76-4.74s3.62,1.26,3.62,4.22l-.07,1h-5.94c0,1.93.59,2.94,2.36,2.94C1325.36,90.23,1327.32,90.07,1327.32,90.07Zm-1-3.86c0-2.23-.68-3-2.27-3s-2.39.84-2.41,3Z" fill="#3a3d3f"/><path d="M1340.08,89.56c0,.52.47.72,1,.79l0,1.07a2.75,2.75,0,0,1-2.14-.72,9.2,9.2,0,0,1-3.24.72c-1.64,0-2.54-.94-2.54-2.76s.9-2.48,2.75-2.66l2.83-.27V85c0-1.26-.54-1.71-1.62-1.71-1.26,0-3.4.24-3.4.24l-.06-1a21.6,21.6,0,0,1,3.53-.4c2,0,2.9.94,2.9,2.9Zm-4-2.56c-1.1.11-1.54.63-1.54,1.63s.46,1.65,1.37,1.65a9.48,9.48,0,0,0,2.83-.56v-3Z" fill="#3a3d3f"/><path d="M1342.74,82.23h1.33v1.23a10.17,10.17,0,0,1,3.3-1.42V83.4a13.41,13.41,0,0,0-3.28,1.23v6.61h-1.35Z" fill="#3a3d3f"/><path d="M1355.61,90.07l0,1.06a31.12,31.12,0,0,1-3.51.29c-2.68,0-3.57-1.57-3.57-4.63,0-3.42,1.48-4.74,3.77-4.74s3.62,1.26,3.62,4.22l-.08,1h-5.94c0,1.93.6,2.94,2.36,2.94C1353.65,90.23,1355.61,90.07,1355.61,90.07Zm-1-3.86c0-2.23-.69-3-2.27-3s-2.4.84-2.42,3Z" fill="#3a3d3f"/><path d="M1367.2,88.91h-5.76V87.83l3.39-8.48h1.51l-3.44,8.34h4.3V84h1.39v3.71h1.51v1.22h-1.51v2.33h-1.39Z" fill="#3a3d3f"/><path d="M1378.62,78.78h3l3.42,12.46h-1.37l-.9-3.21h-5.33l-.9,3.21h-1.36Zm-.85,8h4.72L1380.6,80h-.94Z" fill="#3a3d3f"/><path d="M1392,84.86h3.44V91a28.56,28.56,0,0,1-4.05.44c-3.81,0-4.82-2.34-4.82-6.38s1-6.44,4.79-6.44a23.46,23.46,0,0,1,4.08.46l-.05,1.16a28.37,28.37,0,0,0-3.87-.38c-2.88,0-3.51,1.67-3.51,5.2s.61,5.15,3.49,5.15a16.86,16.86,0,0,0,2.58-.25V86.1H1392Z" fill="#3a3d3f"/><path d="M1406.63,78.78l-3.26,12.46h-3.1L1397,78.78h1.44L1401.31,90h1l2.87-11.23Z" fill="#3a3d3f"/><path d="M1414.33,83.55a29.33,29.33,0,0,0-3.15-.29c-1.12,0-2,.31-2,1.37,0,.84.44,1.08,2.35,1.4,2.25.38,3.09.83,3.09,2.58,0,2.1-1.33,2.81-3.49,2.81a25,25,0,0,1-3.17-.35l.07-1.17a29.86,29.86,0,0,0,3,.31c1.48,0,2.27-.33,2.27-1.55,0-.94-.47-1.17-2.43-1.48s-3-.7-3-2.5c0-2,1.6-2.63,3.24-2.63a23.19,23.19,0,0,1,3.26.34Z" fill="#3a3d3f"/><path d="M1427,89.56c0,.52.46.72,1,.79l0,1.07a2.76,2.76,0,0,1-2.15-.72,9.2,9.2,0,0,1-3.24.72c-1.64,0-2.53-.94-2.53-2.76s.89-2.48,2.75-2.66l2.83-.27V85c0-1.26-.54-1.71-1.62-1.71-1.26,0-3.41.24-3.41.24l-.05-1a21.6,21.6,0,0,1,3.53-.4c2,0,2.9.94,2.9,2.9ZM1423,87c-1.1.11-1.53.63-1.53,1.63s.45,1.65,1.37,1.65a9.57,9.57,0,0,0,2.83-.56v-3Z" fill="#3a3d3f"/><path d="M1430.29,82.23l2.11,7.84h.67l2.17-7.84h1.39l-2.54,9h-2.7l-2.54-9Z" fill="#3a3d3f"/><path d="M1444.71,89.56c0,.52.47.72,1,.79l-.06,1.07a2.75,2.75,0,0,1-2.14-.72,9.2,9.2,0,0,1-3.24.72c-1.64,0-2.54-.94-2.54-2.76s.9-2.48,2.75-2.66l2.83-.27V85c0-1.26-.54-1.71-1.62-1.71-1.26,0-3.4.24-3.4.24l-.06-1a21.77,21.77,0,0,1,3.53-.4c2,0,2.9.94,2.9,2.9Zm-4-2.56c-1.1.11-1.53.63-1.53,1.63s.45,1.65,1.36,1.65a9.48,9.48,0,0,0,2.83-.56v-3Z" fill="#3a3d3f"/><path d="M1447.37,78.63h1.35V80.2h-1.35Zm0,3.6h1.35v9h-1.35Z" fill="#3a3d3f"/><path d="M1451.42,78.31h1.35V91.24h-1.35Z" fill="#3a3d3f"/><path d="M1461.83,89.56c0,.52.47.72,1,.79l0,1.07a2.75,2.75,0,0,1-2.14-.72,9.2,9.2,0,0,1-3.24.72c-1.64,0-2.54-.94-2.54-2.76s.9-2.48,2.75-2.66l2.83-.27V85c0-1.26-.54-1.71-1.62-1.71-1.26,0-3.4.24-3.4.24l-.06-1a21.6,21.6,0,0,1,3.53-.4c2,0,2.9.94,2.9,2.9Zm-4-2.56c-1.09.11-1.53.63-1.53,1.63s.45,1.65,1.37,1.65a9.48,9.48,0,0,0,2.83-.56v-3Z" fill="#3a3d3f"/><path d="M1471.75,86.59c0,3.58-1,4.83-4.25,4.83-1.08,0-3-.2-3-.2V78.31h1.33v4.37a7.44,7.44,0,0,1,2.65-.63C1470.92,82.05,1471.75,83.35,1471.75,86.59Zm-1.37,0c0-2.32-.47-3.33-2.05-3.33a7.59,7.59,0,0,0-2.51.52v6.34s1.17.09,1.66.09C1470,90.21,1470.38,89.11,1470.38,86.59Z" fill="#3a3d3f"/><path d="M1474.07,78.31h1.35V91.24h-1.35Z" fill="#3a3d3f"/><path d="M1484.76,90.07l0,1.06a31.38,31.38,0,0,1-3.51.29c-2.69,0-3.57-1.57-3.57-4.63,0-3.42,1.48-4.74,3.76-4.74s3.62,1.26,3.62,4.22l-.07,1h-5.94c0,1.93.59,2.94,2.36,2.94C1482.8,90.23,1484.76,90.07,1484.76,90.07Zm-1-3.86c0-2.23-.68-3-2.27-3s-2.39.84-2.41,3Z" fill="#3a3d3f"/><path d="M1493,83.4v4.31c0,2,.12,2.52,1.29,2.52.51,0,1.61-.11,1.61-.11l.09,1.12a16.5,16.5,0,0,1-1.84.19c-1.85,0-2.48-.7-2.48-3.29V83.4h-1.28V82.23h1.28V79.48H1493v2.75h2.86V83.4Z" fill="#3a3d3f"/><path d="M1504.8,86.63c0,3.27-.81,4.79-3.86,4.79s-3.85-1.52-3.85-4.79c0-3.1,1-4.58,3.85-4.58S1504.8,83.53,1504.8,86.63Zm-1.39,0c0-2.51-.54-3.41-2.47-3.41s-2.46.9-2.46,3.41.34,3.62,2.46,3.62S1503.41,89.18,1503.41,86.63Z" fill="#3a3d3f"/><path d="M1511,82.23h1.33v1.23a10.17,10.17,0,0,1,3.3-1.42V83.4a13.21,13.21,0,0,0-3.28,1.23v6.61H1511Z" fill="#3a3d3f"/><path d="M1524.15,82.23v9h-1.36v-.63a6.07,6.07,0,0,1-2.66.81c-2.52,0-3-1.17-3-4.49v-4.7h1.35v4.68c0,2.49.21,3.3,1.89,3.3a5.4,5.4,0,0,0,2.46-.67V82.23Z" fill="#3a3d3f"/><path d="M1526.73,91.24v-9h1.34v.63a6.85,6.85,0,0,1,2.79-.81c2.48,0,3,1.23,3,4.43v4.76h-1.33V86.52c0-2.38-.27-3.26-2-3.26a6.18,6.18,0,0,0-2.54.67v7.31Z" fill="#3a3d3f"/><path d="M1547.28,91.24h-1.34v-.62a6.37,6.37,0,0,1-2.73.8c-1.77,0-3.25-.72-3.25-4.61,0-3.17,1-4.76,3.77-4.76a14.12,14.12,0,0,1,2.21.24v-4h1.34Zm-1.34-1.7v-6.1a15.75,15.75,0,0,0-2.14-.22c-1.89,0-2.45,1.25-2.45,3.59,0,2.91,1,3.4,2,3.4A6.47,6.47,0,0,0,1545.94,89.54Z" fill="#3a3d3f"/><path d="M1556.85,82.23v9h-1.35v-.63a6.08,6.08,0,0,1-2.67.81c-2.52,0-3-1.17-3-4.49v-4.7h1.35v4.68c0,2.49.22,3.3,1.89,3.3a5.42,5.42,0,0,0,2.47-.67V82.23Z" fill="#3a3d3f"/><path d="M1559.44,82.23h1.33v1.23a10.17,10.17,0,0,1,3.3-1.42V83.4a13.21,13.21,0,0,0-3.28,1.23v6.61h-1.35Z" fill="#3a3d3f"/><path d="M1565.67,78.63H1567V80.2h-1.35Zm0,3.6H1567v9h-1.35Z" fill="#3a3d3f"/><path d="M1569.61,91.24v-9h1.33v.63a6.85,6.85,0,0,1,2.79-.81c2.49,0,3,1.23,3,4.43v4.76h-1.34V86.52c0-2.38-.27-3.26-1.94-3.26a6.12,6.12,0,0,0-2.54.67v7.31Z" fill="#3a3d3f"/><path d="M1578.88,92.75c0-1,.49-1.53,1.42-2.23a1.49,1.49,0,0,1-.5-1.25,5.82,5.82,0,0,1,.61-1.42c-.76-.34-1.42-1.06-1.42-2.72,0-2.21,1.37-3.08,3.36-3.08a9.22,9.22,0,0,1,1.88.24l2.66-.08v1.16l-1.71,0a2.35,2.35,0,0,1,.59,1.8c0,2.34-1.17,3-3.47,3a6.79,6.79,0,0,1-.88-.07,5.21,5.21,0,0,0-.33,1c0,.72.15.83,2.18.83,2.56,0,3.48.5,3.48,2.64s-1.46,2.87-4,2.87C1579.91,95.47,1578.88,94.84,1578.88,92.75Zm2.34-1.69c-.76.55-1,.88-1,1.58,0,1.24.52,1.69,2.56,1.69,1.8,0,2.61-.48,2.61-1.67,0-1.37-.58-1.51-2.22-1.51C1582.53,91.15,1581.22,91.06,1581.22,91.06Zm3.2-5.93c0-1.42-.55-2-2.07-2s-2,.56-2,2,.61,2,2,2S1584.42,86.55,1584.42,85.13Z" fill="#3a3d3f"/><path d="M1594.29,83.4v4.31c0,2,.12,2.52,1.29,2.52.51,0,1.61-.11,1.61-.11l.09,1.12a16.5,16.5,0,0,1-1.84.19c-1.86,0-2.49-.7-2.49-3.29V83.4h-1.27V82.23H1593V79.48h1.34v2.75h2.86V83.4Z" fill="#3a3d3f"/><path d="M1598.8,91.24V78.31h1.36v4.43a7.55,7.55,0,0,1,2.77-.69c2.47,0,3,1.23,3,4.43v4.76h-1.35V86.52c0-2.38-.27-3.26-1.93-3.26a7.39,7.39,0,0,0-2.53.54v7.44Z" fill="#3a3d3f"/><path d="M1615.12,90.07l0,1.06a31.12,31.12,0,0,1-3.51.29c-2.68,0-3.57-1.57-3.57-4.63,0-3.42,1.48-4.74,3.77-4.74s3.62,1.26,3.62,4.22l-.08,1h-5.94c0,1.93.6,2.94,2.36,2.94C1613.15,90.23,1615.12,90.07,1615.12,90.07Zm-1-3.86c0-2.23-.69-3-2.27-3s-2.4.84-2.41,3Z" fill="#3a3d3f"/><path d="M1621.52,82.23h1.33v.65a6.12,6.12,0,0,1,2.7-.83c2.27,0,3.26,1.39,3.26,4.58,0,3.53-1.15,4.79-3.92,4.79a12,12,0,0,1-2-.2v4h-1.35Zm1.35,1.75v6.07a14.47,14.47,0,0,0,2,.2c2,0,2.62-1,2.62-3.62s-.77-3.37-2.08-3.37A5.87,5.87,0,0,0,1622.87,84Z" fill="#3a3d3f"/><path d="M1631,82.23h1.33v1.23a10.18,10.18,0,0,1,3.29-1.42V83.4a13.24,13.24,0,0,0-3.27,1.23v6.61H1631Z" fill="#3a3d3f"/><path d="M1644.54,86.63c0,3.27-.81,4.79-3.85,4.79s-3.85-1.52-3.85-4.79c0-3.1,1-4.58,3.85-4.58S1644.54,83.53,1644.54,86.63Zm-1.38,0c0-2.51-.54-3.41-2.47-3.41s-2.46.9-2.46,3.41.34,3.62,2.46,3.62S1643.16,89.18,1643.16,86.63Z" fill="#3a3d3f"/><path d="M1654,86.59c0,3.58-1,4.83-4.24,4.83-1.09,0-3-.2-3-.2V78.31h1.33v4.37a7.44,7.44,0,0,1,2.65-.63C1653.17,82.05,1654,83.35,1654,86.59Zm-1.36,0c0-2.32-.47-3.33-2.06-3.33a7.57,7.57,0,0,0-2.5.52v6.34s1.17.09,1.66.09C1652.19,90.21,1652.63,89.11,1652.63,86.59Z" fill="#3a3d3f"/><path d="M1656.31,78.31h1.35V91.24h-1.35Z" fill="#3a3d3f"/><path d="M1667,90.07l0,1.06a31.12,31.12,0,0,1-3.51.29c-2.68,0-3.56-1.57-3.56-4.63,0-3.42,1.48-4.74,3.76-4.74s3.62,1.26,3.62,4.22l-.07,1h-5.94c0,1.93.59,2.94,2.36,2.94C1665.05,90.23,1667,90.07,1667,90.07Zm-1-3.86c0-2.23-.68-3-2.27-3s-2.39.84-2.41,3Z" fill="#3a3d3f"/><path d="M1669.45,91.24v-9h1.34v.63a6,6,0,0,1,2.63-.81,2.54,2.54,0,0,1,2.34.92,7.46,7.46,0,0,1,3.2-.92c2.45,0,3,1.17,3,4.43v4.76h-1.35V86.52c0-2.38-.27-3.26-1.89-3.26a6,6,0,0,0-2.54.67,9.71,9.71,0,0,1,.24,2.62v4.69h-1.35V86.59c0-2.48-.25-3.33-1.89-3.33a5.4,5.4,0,0,0-2.42.67v7.31Z" fill="#3a3d3f"/><path d="M1690.86,89.56c0,.52.47.72,1,.79l-.05,1.07a2.74,2.74,0,0,1-2.14-.72,9.22,9.22,0,0,1-3.25.72c-1.63,0-2.53-.94-2.53-2.76s.9-2.48,2.75-2.66l2.83-.27V85c0-1.26-.54-1.71-1.62-1.71-1.26,0-3.41.24-3.41.24l0-1a21.6,21.6,0,0,1,3.53-.4c2,0,2.9.94,2.9,2.9Zm-4-2.56c-1.1.11-1.53.63-1.53,1.63s.45,1.65,1.37,1.65a9.57,9.57,0,0,0,2.83-.56v-3Z" fill="#3a3d3f"/><path d="M1695.32,83.4v4.31c0,2,.13,2.52,1.3,2.52.5,0,1.6-.11,1.6-.11l.09,1.12a16.5,16.5,0,0,1-1.84.19c-1.85,0-2.48-.7-2.48-3.29V83.4h-1.28V82.23H1694V79.48h1.33v2.75h2.86V83.4Z" fill="#3a3d3f"/><path d="M1699.84,78.63h1.35V80.2h-1.35Zm0,3.6h1.35v9h-1.35Z" fill="#3a3d3f"/><path d="M1709.6,82.32l-.06,1.1s-1.44-.16-2.12-.16c-2.07,0-2.63.9-2.63,3.31,0,2.67.41,3.64,2.65,3.64.68,0,2.12-.16,2.12-.16l0,1.11a23.06,23.06,0,0,1-2.5.26c-2.86,0-3.71-1.32-3.71-4.85,0-3.26,1.06-4.52,3.75-4.52A20.89,20.89,0,0,1,1709.6,82.32Z" fill="#3a3d3f"/><path d="M1288,111.4v4.31c0,2,.13,2.52,1.3,2.52.5,0,1.6-.11,1.6-.11l.09,1.12a16.23,16.23,0,0,1-1.83.19c-1.86,0-2.49-.7-2.49-3.29V111.4h-1.28v-1.17h1.28v-2.75H1288v2.75h2.87v1.17Z" fill="#3a3d3f"/><path d="M1292.54,106.63h1.35v1.57h-1.35Zm0,3.6h1.35v9h-1.35Z" fill="#3a3d3f"/><path d="M1296.48,119.24v-9h1.34v.63a6,6,0,0,1,2.63-.81,2.54,2.54,0,0,1,2.34.92,7.46,7.46,0,0,1,3.2-.92c2.45,0,3,1.17,3,4.43v4.76h-1.35v-4.72c0-2.38-.27-3.26-1.89-3.26a6,6,0,0,0-2.54.67,9.71,9.71,0,0,1,.24,2.62v4.69h-1.35v-4.65c0-2.48-.25-3.33-1.89-3.33a5.4,5.4,0,0,0-2.42.67v7.31Z" fill="#3a3d3f"/><path d="M1318.18,118.07l0,1.06a31.12,31.12,0,0,1-3.51.29c-2.68,0-3.56-1.57-3.56-4.63,0-3.42,1.47-4.74,3.76-4.74s3.62,1.26,3.62,4.22l-.07,1h-6c0,1.93.6,2.94,2.36,2.94C1316.21,118.23,1318.18,118.07,1318.18,118.07Zm-1-3.86c0-2.23-.69-3-2.27-3s-2.4.84-2.41,3Z" fill="#3a3d3f"/><path d="M1322.35,119.24H1321V111.4h-1.13v-1.17H1321v-.81c0-2.59.67-3.29,2.43-3.29.61,0,1.82.12,1.82.12l0,1.12s-1,0-1.55,0c-1,0-1.33.44-1.33,2.11v.79H1325v1.17h-2.61Z" fill="#3a3d3f"/><path d="M1326.58,110.23h1.33v1.23a10.17,10.17,0,0,1,3.3-1.42v1.36a13.21,13.21,0,0,0-3.28,1.23v6.61h-1.35Z" fill="#3a3d3f"/><path d="M1339.16,117.56c0,.52.47.72,1,.79l-.06,1.07a2.75,2.75,0,0,1-2.14-.72,9.2,9.2,0,0,1-3.24.72c-1.64,0-2.54-.94-2.54-2.76s.9-2.48,2.76-2.66l2.82-.27V113c0-1.26-.54-1.71-1.62-1.71-1.26,0-3.4.24-3.4.24l0-1a21.57,21.57,0,0,1,3.52-.4c2,0,2.9.94,2.9,2.9Zm-4-2.56c-1.1.11-1.53.63-1.53,1.63s.45,1.65,1.37,1.65a9.47,9.47,0,0,0,2.82-.56v-3Z" fill="#3a3d3f"/><path d="M1341.82,119.24v-9h1.34v.63a6,6,0,0,1,2.63-.81,2.54,2.54,0,0,1,2.34.92,7.46,7.46,0,0,1,3.2-.92c2.45,0,3,1.17,3,4.43v4.76H1353v-4.72c0-2.38-.27-3.26-1.89-3.26a6,6,0,0,0-2.54.67,9.71,9.71,0,0,1,.24,2.62v4.69h-1.35v-4.65c0-2.48-.25-3.33-1.89-3.33a5.4,5.4,0,0,0-2.42.67v7.31Z" fill="#3a3d3f"/><path d="M1363.52,118.07l0,1.06a31.12,31.12,0,0,1-3.51.29c-2.68,0-3.56-1.57-3.56-4.63,0-3.42,1.47-4.74,3.76-4.74s3.62,1.26,3.62,4.22l-.07,1h-6c0,1.93.6,2.94,2.36,2.94C1361.55,118.23,1363.52,118.07,1363.52,118.07Zm-1-3.86c0-2.23-.69-3-2.27-3s-2.4.84-2.41,3Z" fill="#3a3d3f"/><path d="M1365.87,117.18h1.48v2.06h-1.48Z" fill="#3a3d3f"/><path d="M1374,106.78h1.39v12.46H1374Z" fill="#3a3d3f"/><path d="M1380,119.24h-1.35V111.4h-1.14v-1.17h1.14v-.81c0-2.59.66-3.29,2.43-3.29.61,0,1.82.12,1.82.12l0,1.12s-1,0-1.55,0c-1,0-1.33.44-1.33,2.11v.79h2.61v1.17H1380Z" fill="#3a3d3f"/><path d="M1388.77,110.23l1.82,7.84h.28l2.15-7.66h1.4l2.14,7.66h.31l1.8-7.84H1400l-2.14,9h-2.25l-1.91-7-1.91,7h-2.25l-2.14-9Z" fill="#3a3d3f"/><path d="M1408.52,118.07l0,1.06a31.12,31.12,0,0,1-3.51.29c-2.68,0-3.56-1.57-3.56-4.63,0-3.42,1.47-4.74,3.76-4.74s3.62,1.26,3.62,4.22l-.08,1h-5.94c0,1.93.6,2.94,2.36,2.94C1406.55,118.23,1408.52,118.07,1408.52,118.07Zm-1-3.86c0-2.23-.69-3-2.27-3s-2.4.84-2.41,3Z" fill="#3a3d3f"/><path d="M1414.92,110.23h1.33v.65a6.12,6.12,0,0,1,2.7-.83c2.27,0,3.26,1.39,3.26,4.58,0,3.53-1.15,4.79-3.92,4.79a12,12,0,0,1-2-.2v4h-1.35Zm1.35,1.75v6.07a14.47,14.47,0,0,0,2,.2c2,0,2.62-1,2.62-3.62s-.77-3.37-2.08-3.37A5.87,5.87,0,0,0,1416.27,112Z" fill="#3a3d3f"/><path d="M1424.41,110.23h1.33v1.23A10.18,10.18,0,0,1,1429,110v1.36a13.24,13.24,0,0,0-3.27,1.23v6.61h-1.35Z" fill="#3a3d3f"/><path d="M1430.63,106.63H1432v1.57h-1.36Zm0,3.6H1432v9h-1.36Z" fill="#3a3d3f"/><path d="M1441.89,114.63c0,3.27-.81,4.79-3.86,4.79s-3.85-1.52-3.85-4.79c0-3.1,1-4.58,3.85-4.58S1441.89,111.53,1441.89,114.63Zm-1.39,0c0-2.51-.54-3.41-2.47-3.41s-2.46.9-2.46,3.41.34,3.62,2.46,3.62S1440.5,117.18,1440.5,114.63Z" fill="#3a3d3f"/><path d="M1444.08,110.23h1.33v1.23a10.17,10.17,0,0,1,3.3-1.42v1.36a13.41,13.41,0,0,0-3.28,1.23v6.61h-1.35Z" fill="#3a3d3f"/><path d="M1450.31,106.63h1.35v1.57h-1.35Zm0,3.6h1.35v9h-1.35Z" fill="#3a3d3f"/><path d="M1456.05,111.4v4.31c0,2,.13,2.52,1.3,2.52.5,0,1.6-.11,1.6-.11l.09,1.12a16.5,16.5,0,0,1-1.84.19c-1.85,0-2.48-.7-2.48-3.29V111.4h-1.28v-1.17h1.28v-2.75h1.33v2.75h2.86v1.17Z" fill="#3a3d3f"/><path d="M1460.57,106.63h1.35v1.57h-1.35Zm0,3.6h1.35v9h-1.35Z" fill="#3a3d3f"/><path d="M1464,110.23h6.68v1.21l-5,6.59h5v1.21H1464V118l5-6.59h-5Z" fill="#3a3d3f"/><path d="M1479.34,118.07l0,1.06a31.12,31.12,0,0,1-3.51.29c-2.68,0-3.57-1.57-3.57-4.63,0-3.42,1.48-4.74,3.77-4.74s3.62,1.26,3.62,4.22l-.07,1h-5.95c0,1.93.6,2.94,2.36,2.94C1477.38,118.23,1479.34,118.07,1479.34,118.07Zm-1-3.86c0-2.23-.69-3-2.27-3s-2.4.84-2.41,3Z" fill="#3a3d3f"/><path d="M1490.16,107.35h1.3v11.89h-1.39V108.9l-3.06,2-.63-1Z" fill="#3a3d3f"/><path d="M1495.76,113.65h5.45v1.26h-5.45Z" fill="#3a3d3f"/><path d="M1503.66,119.24v-1.17l3.48-3.66c1.47-1.53,2.39-2.5,2.39-3.91,0-1.58-.88-2.09-2.59-2.09a17.06,17.06,0,0,0-3.08.4l-.11-1.15a14.3,14.3,0,0,1,3.44-.49c2.5,0,3.76,1,3.76,3.19,0,1.78-.81,2.83-2.48,4.45L1505.3,118h6v1.21Z" fill="#3a3d3f"/><path d="M1519.48,119.24h-1.35V111.4H1517v-1.17h1.13v-.81c0-2.59.67-3.29,2.43-3.29.62,0,1.82.12,1.82.12l0,1.12s-1,0-1.54,0c-1,0-1.34.44-1.34,2.11v.79h2.61v1.17h-2.61Z" fill="#3a3d3f"/><path d="M1523.82,106.31h1.35v12.93h-1.35Z" fill="#3a3d3f"/><path d="M1527.87,106.63h1.35v1.57h-1.35Zm0,3.6h1.35v9h-1.35Z" fill="#3a3d3f"/><path d="M1531.42,120.75c0-1,.48-1.53,1.42-2.23a1.47,1.47,0,0,1-.51-1.25,5.78,5.78,0,0,1,.62-1.42c-.76-.34-1.43-1.06-1.43-2.72,0-2.21,1.37-3.08,3.37-3.08a9.07,9.07,0,0,1,1.87.24l2.67-.08v1.16l-1.71,0a2.35,2.35,0,0,1,.59,1.8c0,2.34-1.17,3-3.47,3a6.94,6.94,0,0,1-.89-.07,5.32,5.32,0,0,0-.32,1c0,.72.14.83,2.18.83,2.56,0,3.47.5,3.47,2.64s-1.45,2.87-4,2.87C1532.44,123.47,1531.42,122.84,1531.42,120.75Zm2.34-1.69c-.76.55-1,.88-1,1.58,0,1.24.52,1.69,2.55,1.69,1.81,0,2.62-.48,2.62-1.67,0-1.37-.58-1.51-2.22-1.51C1535.07,119.15,1533.76,119.06,1533.76,119.06Zm3.2-5.93c0-1.42-.56-2-2.07-2s-2,.56-2,2,.62,2,2,2S1537,114.55,1537,113.13Z" fill="#3a3d3f"/><path d="M1541.06,119.24V106.31h1.35v4.43a7.57,7.57,0,0,1,2.78-.69c2.46,0,3,1.23,3,4.43v4.76h-1.35v-4.72c0-2.38-.27-3.26-1.93-3.26a7.41,7.41,0,0,0-2.54.54v7.44Z" fill="#3a3d3f"/><path d="M1552.53,111.4v4.31c0,2,.13,2.52,1.3,2.52.5,0,1.6-.11,1.6-.11l.09,1.12a16.5,16.5,0,0,1-1.84.19c-1.85,0-2.48-.7-2.48-3.29V111.4h-1.28v-1.17h1.28v-2.75h1.33v2.75h2.86v1.17Z" fill="#3a3d3f"/><path d="M1563,111.55a29.33,29.33,0,0,0-3.16-.29c-1.11,0-2,.31-2,1.37,0,.84.43,1.08,2.34,1.4,2.25.38,3.1.83,3.1,2.58,0,2.1-1.33,2.81-3.49,2.81a24.7,24.7,0,0,1-3.17-.35l.07-1.17a29.5,29.5,0,0,0,3,.31c1.48,0,2.27-.33,2.27-1.55,0-.94-.47-1.17-2.43-1.48s-3-.7-3-2.5c0-2,1.6-2.63,3.24-2.63a23.19,23.19,0,0,1,3.26.34Z" fill="#3a3d3f"/><path d="M1575.73,117.56c0,.52.47.72,1,.79l-.06,1.07a2.75,2.75,0,0,1-2.14-.72,9.2,9.2,0,0,1-3.24.72c-1.64,0-2.54-.94-2.54-2.76s.9-2.48,2.76-2.66l2.82-.27V113c0-1.26-.54-1.71-1.62-1.71-1.26,0-3.4.24-3.4.24l0-1a21.6,21.6,0,0,1,3.53-.4c2,0,2.89.94,2.89,2.9Zm-4-2.56c-1.1.11-1.53.63-1.53,1.63s.45,1.65,1.37,1.65a9.47,9.47,0,0,0,2.82-.56v-3Z" fill="#3a3d3f"/><path d="M1578.4,119.24v-9h1.33v.63a6.85,6.85,0,0,1,2.79-.81c2.48,0,3,1.23,3,4.43v4.76h-1.33v-4.72c0-2.38-.27-3.26-2-3.26a6.11,6.11,0,0,0-2.53.67v7.31Z" fill="#3a3d3f"/><path d="M1595,119.24h-1.34v-.62a6.37,6.37,0,0,1-2.73.8c-1.77,0-3.24-.72-3.24-4.61,0-3.17,1-4.76,3.76-4.76a14.12,14.12,0,0,1,2.21.24v-4H1595Zm-1.34-1.7v-6.1a15.56,15.56,0,0,0-2.14-.22c-1.89,0-2.45,1.25-2.45,3.59,0,2.91,1,3.4,2,3.4A6.47,6.47,0,0,0,1593.64,117.54Z" fill="#3a3d3f"/><path d="M1607.9,117.56c0,.52.47.72,1,.79l0,1.07a2.75,2.75,0,0,1-2.14-.72,9.2,9.2,0,0,1-3.24.72c-1.64,0-2.54-.94-2.54-2.76s.9-2.48,2.75-2.66l2.83-.27V113c0-1.26-.54-1.71-1.62-1.71-1.26,0-3.4.24-3.4.24l-.06-1a21.6,21.6,0,0,1,3.53-.4c2,0,2.9.94,2.9,2.9Zm-4-2.56c-1.09.11-1.53.63-1.53,1.63s.45,1.65,1.37,1.65a9.57,9.57,0,0,0,2.83-.56v-3Z" fill="#3a3d3f"/><path d="M1616.54,111.55a29.33,29.33,0,0,0-3.15-.29c-1.12,0-2,.31-2,1.37,0,.84.43,1.08,2.34,1.4,2.25.38,3.09.83,3.09,2.58,0,2.1-1.33,2.81-3.49,2.81a25,25,0,0,1-3.17-.35l.07-1.17a29.5,29.5,0,0,0,3,.31c1.48,0,2.27-.33,2.27-1.55,0-.94-.47-1.17-2.43-1.48s-3-.7-3-2.5c0-2,1.61-2.63,3.25-2.63a23,23,0,0,1,3.25.34Z" fill="#3a3d3f"/><path d="M1624.91,111.55a29.33,29.33,0,0,0-3.15-.29c-1.12,0-2,.31-2,1.37,0,.84.44,1.08,2.35,1.4,2.25.38,3.09.83,3.09,2.58,0,2.1-1.33,2.81-3.49,2.81a25,25,0,0,1-3.17-.35l.07-1.17a29.86,29.86,0,0,0,3,.31c1.48,0,2.27-.33,2.27-1.55,0-.94-.47-1.17-2.43-1.48s-3-.7-3-2.5c0-2,1.6-2.63,3.24-2.63a23.19,23.19,0,0,1,3.26.34Z" fill="#3a3d3f"/><path d="M1627.3,106.63h1.35v1.57h-1.35Zm0,3.6h1.35v9h-1.35Z" fill="#3a3d3f"/><path d="M1630.85,120.75c0-1,.48-1.53,1.42-2.23a1.49,1.49,0,0,1-.5-1.25,5.82,5.82,0,0,1,.61-1.42c-.76-.34-1.43-1.06-1.43-2.72,0-2.21,1.37-3.08,3.37-3.08a9.22,9.22,0,0,1,1.88.24l2.66-.08v1.16l-1.71,0a2.35,2.35,0,0,1,.59,1.8c0,2.34-1.17,3-3.47,3a6.65,6.65,0,0,1-.88-.07,5.21,5.21,0,0,0-.33,1c0,.72.15.83,2.18.83,2.56,0,3.48.5,3.48,2.64s-1.46,2.87-4,2.87C1631.87,123.47,1630.85,122.84,1630.85,120.75Zm2.34-1.69c-.76.55-1,.88-1,1.58,0,1.24.52,1.69,2.56,1.69,1.8,0,2.61-.48,2.61-1.67,0-1.37-.58-1.51-2.22-1.51C1634.5,119.15,1633.19,119.06,1633.19,119.06Zm3.2-5.93c0-1.42-.56-2-2.07-2s-2,.56-2,2,.61,2,2,2S1636.39,114.55,1636.39,113.13Z" fill="#3a3d3f"/><path d="M1640.5,119.24v-9h1.33v.63a6.85,6.85,0,0,1,2.79-.81c2.48,0,3,1.23,3,4.43v4.76h-1.33v-4.72c0-2.38-.27-3.26-1.95-3.26a6.11,6.11,0,0,0-2.53.67v7.31Z" fill="#3a3d3f"/><path d="M1654.07,119.24v-1.17l3.47-3.66c1.48-1.53,2.4-2.5,2.4-3.91,0-1.58-.89-2.09-2.6-2.09a17,17,0,0,0-3.07.4l-.11-1.15a14.3,14.3,0,0,1,3.44-.49c2.5,0,3.76,1,3.76,3.19,0,1.78-.81,2.83-2.49,4.45l-3.16,3.22h6v1.21Z" fill="#3a3d3f"/><path d="M1674,110.32l-.06,1.1s-1.44-.16-2.12-.16c-2.07,0-2.63.9-2.63,3.31,0,2.67.41,3.64,2.65,3.64.68,0,2.12-.16,2.12-.16l0,1.11a23.06,23.06,0,0,1-2.5.26c-2.86,0-3.71-1.32-3.71-4.85,0-3.26,1.07-4.52,3.75-4.52A20.89,20.89,0,0,1,1674,110.32Z" fill="#3a3d3f"/><path d="M1676,119.24V106.31h1.35v4.43a7.55,7.55,0,0,1,2.77-.69c2.47,0,3,1.23,3,4.43v4.76h-1.36v-4.72c0-2.38-.27-3.26-1.92-3.26a7.41,7.41,0,0,0-2.54.54v7.44Z" fill="#3a3d3f"/><path d="M1692.32,118.07l0,1.06a31.4,31.4,0,0,1-3.52.29c-2.68,0-3.56-1.57-3.56-4.63,0-3.42,1.48-4.74,3.76-4.74s3.62,1.26,3.62,4.22l-.07,1h-5.94c0,1.93.59,2.94,2.36,2.94C1690.36,118.23,1692.32,118.07,1692.32,118.07Zm-1-3.86c0-2.23-.68-3-2.27-3s-2.39.84-2.41,3Z" fill="#3a3d3f"/><path d="M1700.58,110.32l0,1.1s-1.44-.16-2.13-.16c-2.07,0-2.63.9-2.63,3.31,0,2.67.42,3.64,2.65,3.64.68,0,2.12-.16,2.12-.16l.06,1.11a23.37,23.37,0,0,1-2.5.26c-2.87,0-3.71-1.32-3.71-4.85,0-3.26,1.06-4.52,3.74-4.52A20.89,20.89,0,0,1,1700.58,110.32Z" fill="#3a3d3f"/><path d="M1702.61,119.24V106.31H1704v7.63l1.41-.07,2.57-3.64h1.53l-2.93,4.15,3.06,4.86h-1.53l-2.68-4.18-1.43,0v4.13Z" fill="#3a3d3f"/><path d="M1711.16,113.65h5.46v1.26h-5.46Z" fill="#3a3d3f"/><path d="M1719.12,106.63h1.35v1.57h-1.35Zm0,3.6h1.35v9h-1.35Z" fill="#3a3d3f"/><path d="M1723.06,119.24v-9h1.33v.63a6.85,6.85,0,0,1,2.79-.81c2.49,0,3,1.23,3,4.43v4.76h-1.34v-4.72c0-2.38-.27-3.26-1.94-3.26a6.12,6.12,0,0,0-2.54.67v7.31Z" fill="#3a3d3f"/><path d="M1743.6,119.24h-1.33v-.62a6.44,6.44,0,0,1-2.74.8c-1.76,0-3.24-.72-3.24-4.61,0-3.17,1-4.76,3.76-4.76a14.13,14.13,0,0,1,2.22.24v-4h1.33Zm-1.33-1.7v-6.1a15.93,15.93,0,0,0-2.15-.22c-1.89,0-2.44,1.25-2.44,3.59,0,2.91,1,3.4,2,3.4A6.54,6.54,0,0,0,1742.27,117.54Z" fill="#3a3d3f"/><path d="M1752.85,118.07l0,1.06a31.38,31.38,0,0,1-3.51.29c-2.69,0-3.57-1.57-3.57-4.63,0-3.42,1.48-4.74,3.76-4.74s3.62,1.26,3.62,4.22l-.07,1h-5.94c0,1.93.59,2.94,2.36,2.94C1750.89,118.23,1752.85,118.07,1752.85,118.07Zm-1-3.86c0-2.23-.68-3-2.27-3s-2.39.84-2.41,3Z" fill="#3a3d3f"/><path d="M1761.28,111.55a29.33,29.33,0,0,0-3.16-.29c-1.11,0-2,.31-2,1.37,0,.84.43,1.08,2.34,1.4,2.25.38,3.1.83,3.1,2.58,0,2.1-1.33,2.81-3.49,2.81a24.7,24.7,0,0,1-3.17-.35l.07-1.17a29.5,29.5,0,0,0,3,.31c1.48,0,2.27-.33,2.27-1.55,0-.94-.47-1.17-2.43-1.48s-3-.7-3-2.5c0-2,1.6-2.63,3.24-2.63a23.19,23.19,0,0,1,3.26.34Z" fill="#3a3d3f"/><path d="M1763.67,119.24V106.31H1765v7.63l1.4-.07,2.58-3.64h1.53l-2.94,4.15,3.06,4.86h-1.53l-2.68-4.18-1.42,0v4.13Z" fill="#3a3d3f"/><path d="M1778.27,111.55a29.33,29.33,0,0,0-3.15-.29c-1.12,0-2,.31-2,1.37,0,.84.44,1.08,2.34,1.4,2.25.38,3.1.83,3.1,2.58,0,2.1-1.33,2.81-3.49,2.81a25,25,0,0,1-3.17-.35l.07-1.17a29.5,29.5,0,0,0,3,.31c1.48,0,2.27-.33,2.27-1.55,0-.94-.47-1.17-2.43-1.48s-3-.7-3-2.5c0-2,1.61-2.63,3.24-2.63a23.19,23.19,0,0,1,3.26.34Z" fill="#3a3d3f"/><path d="M1780.8,117.31h1.5l-1.21,4.14H1780Z" fill="#3a3d3f"/><path d="M1288,139.4v4.31c0,2,.13,2.52,1.3,2.52.5,0,1.6-.11,1.6-.11l.09,1.12a16.23,16.23,0,0,1-1.83.19c-1.86,0-2.49-.7-2.49-3.29V139.4h-1.28v-1.17h1.28v-2.75H1288v2.75h2.87v1.17Z" fill="#3a3d3f"/><path d="M1292.54,147.24V134.31h1.35v4.43a7.57,7.57,0,0,1,2.78-.69c2.46,0,3,1.23,3,4.43v4.76h-1.35v-4.72c0-2.38-.27-3.26-1.93-3.26a7.41,7.41,0,0,0-2.54.54v7.44Z" fill="#3a3d3f"/><path d="M1308.85,146.07l0,1.06a31.12,31.12,0,0,1-3.51.29c-2.69,0-3.57-1.57-3.57-4.63,0-3.42,1.48-4.74,3.76-4.74s3.62,1.26,3.62,4.22l-.07,1h-5.94c0,1.93.6,2.94,2.36,2.94C1306.89,146.23,1308.85,146.07,1308.85,146.07Zm-1-3.86c0-2.23-.68-3-2.27-3s-2.39.84-2.41,3Z" fill="#3a3d3f"/><path d="M1322.51,142.59c0,3.58-1,4.83-4.24,4.83-1.09,0-3-.2-3-.2V134.31h1.33v4.37a7.44,7.44,0,0,1,2.65-.63C1321.69,138.05,1322.51,139.35,1322.51,142.59Zm-1.36,0c0-2.32-.47-3.33-2.06-3.33a7.57,7.57,0,0,0-2.5.52v6.34s1.17.09,1.66.09C1320.71,146.21,1321.15,145.11,1321.15,142.59Z" fill="#3a3d3f"/><path d="M1331.08,145.56c0,.52.47.72,1.05.79l-.06,1.07a2.75,2.75,0,0,1-2.14-.72,9.2,9.2,0,0,1-3.24.72c-1.64,0-2.54-.94-2.54-2.76s.9-2.48,2.75-2.66l2.83-.27V141c0-1.26-.54-1.71-1.62-1.71-1.26,0-3.4.24-3.4.24l-.06-1a21.6,21.6,0,0,1,3.53-.4c2,0,2.9.94,2.9,2.9Zm-4-2.56c-1.1.11-1.53.63-1.53,1.63s.45,1.65,1.36,1.65a9.48,9.48,0,0,0,2.83-.56v-3Z" fill="#3a3d3f"/><path d="M1333.35,148.75c0-1.05.48-1.53,1.42-2.23a1.49,1.49,0,0,1-.5-1.25,5.82,5.82,0,0,1,.61-1.42c-.76-.34-1.43-1.06-1.43-2.72,0-2.21,1.37-3.08,3.37-3.08a9.22,9.22,0,0,1,1.88.24l2.66-.08v1.16l-1.71,0a2.35,2.35,0,0,1,.59,1.8c0,2.34-1.17,3-3.47,3a6.65,6.65,0,0,1-.88-.07,5.21,5.21,0,0,0-.33,1c0,.72.15.83,2.18.83,2.56,0,3.48.5,3.48,2.64s-1.46,2.87-4,2.87C1334.37,151.47,1333.35,150.84,1333.35,148.75Zm2.34-1.69c-.76.55-1,.88-1,1.58,0,1.24.52,1.69,2.56,1.69,1.8,0,2.61-.48,2.61-1.67,0-1.37-.58-1.51-2.22-1.51C1337,147.15,1335.69,147.06,1335.69,147.06Zm3.2-5.93c0-1.42-.56-2-2.07-2s-2,.56-2,2,.61,2,2,2S1338.89,142.55,1338.89,141.13Z" fill="#3a3d3f"/><path d="M1349,139.55a29.33,29.33,0,0,0-3.15-.29c-1.11,0-2,.31-2,1.37,0,.84.43,1.08,2.34,1.4,2.25.38,3.1.83,3.1,2.58,0,2.1-1.34,2.81-3.5,2.81a24.71,24.71,0,0,1-3.16-.35l.07-1.17a29.5,29.5,0,0,0,3,.31c1.48,0,2.27-.33,2.27-1.55,0-.94-.47-1.17-2.43-1.48s-3-.7-3-2.5c0-2,1.6-2.63,3.24-2.63a23.19,23.19,0,0,1,3.26.34Z" fill="#3a3d3f"/><path d="M1361.14,138.32l-.05,1.1s-1.44-.16-2.13-.16c-2.07,0-2.63.9-2.63,3.31,0,2.67.42,3.64,2.65,3.64.68,0,2.13-.16,2.13-.16l.05,1.11a23.06,23.06,0,0,1-2.5.26c-2.87,0-3.71-1.32-3.71-4.85,0-3.26,1.06-4.52,3.74-4.52A20.89,20.89,0,0,1,1361.14,138.32Z" fill="#3a3d3f"/><path d="M1369.53,145.56c0,.52.47.72,1,.79l0,1.07a2.75,2.75,0,0,1-2.14-.72,9.2,9.2,0,0,1-3.24.72c-1.64,0-2.54-.94-2.54-2.76s.9-2.48,2.75-2.66l2.83-.27V141c0-1.26-.54-1.71-1.62-1.71-1.26,0-3.4.24-3.4.24l-.06-1a21.6,21.6,0,0,1,3.53-.4c2,0,2.9.94,2.9,2.9Zm-4-2.56c-1.09.11-1.53.63-1.53,1.63s.45,1.65,1.37,1.65a9.57,9.57,0,0,0,2.83-.56v-3Z" fill="#3a3d3f"/><path d="M1372.19,147.24v-9h1.33v.63a6.85,6.85,0,0,1,2.79-.81c2.49,0,3,1.23,3,4.43v4.76H1378v-4.72c0-2.38-.27-3.26-1.94-3.26a6.12,6.12,0,0,0-2.54.67v7.31Z" fill="#3a3d3f"/><path d="M1393.07,142.59c0,3.58-1,4.83-4.25,4.83-1.08,0-3-.2-3-.2V134.31h1.33v4.37a7.44,7.44,0,0,1,2.65-.63C1392.24,138.05,1393.07,139.35,1393.07,142.59Zm-1.37,0c0-2.32-.46-3.33-2-3.33a7.57,7.57,0,0,0-2.5.52v6.34s1.17.09,1.66.09C1391.27,146.21,1391.7,145.11,1391.7,142.59Z" fill="#3a3d3f"/><path d="M1401.93,146.07l0,1.06a31.12,31.12,0,0,1-3.51.29c-2.68,0-3.56-1.57-3.56-4.63,0-3.42,1.48-4.74,3.76-4.74s3.62,1.26,3.62,4.22l-.07,1h-5.94c0,1.93.59,2.94,2.36,2.94C1400,146.23,1401.93,146.07,1401.93,146.07Zm-1-3.86c0-2.23-.68-3-2.27-3s-2.39.84-2.41,3Z" fill="#3a3d3f"/><path d="M1415.25,147.24h-1.33v-.62a6.44,6.44,0,0,1-2.74.8c-1.77,0-3.24-.72-3.24-4.61,0-3.17,1-4.76,3.76-4.76a14.13,14.13,0,0,1,2.22.24v-4h1.33Zm-1.33-1.7v-6.1a15.93,15.93,0,0,0-2.15-.22c-1.89,0-2.45,1.25-2.45,3.59,0,2.91,1,3.4,2,3.4A6.54,6.54,0,0,0,1413.92,145.54Z" fill="#3a3d3f"/><path d="M1424.5,146.07l0,1.06a31.38,31.38,0,0,1-3.51.29c-2.69,0-3.57-1.57-3.57-4.63,0-3.42,1.48-4.74,3.76-4.74s3.62,1.26,3.62,4.22l-.07,1h-5.94c0,1.93.59,2.94,2.36,2.94C1422.54,146.23,1424.5,146.07,1424.5,146.07Zm-1-3.86c0-2.23-.68-3-2.27-3s-2.39.84-2.41,3Z" fill="#3a3d3f"/><path d="M1427.05,134.31h1.35v12.93h-1.35Z" fill="#3a3d3f"/><path d="M1431.1,134.63h1.35v1.57h-1.35Zm0,3.6h1.35v9h-1.35Z" fill="#3a3d3f"/><path d="M1435.64,138.23l2.11,7.84h.66l2.18-7.84H1442l-2.54,9h-2.7l-2.54-9Z" fill="#3a3d3f"/><path d="M1450.35,146.07l0,1.06a31.12,31.12,0,0,1-3.51.29c-2.68,0-3.56-1.57-3.56-4.63,0-3.42,1.47-4.74,3.76-4.74s3.62,1.26,3.62,4.22l-.07,1h-5.94c0,1.93.59,2.94,2.35,2.94C1448.39,146.23,1450.35,146.07,1450.35,146.07Zm-1-3.86c0-2.23-.68-3-2.27-3s-2.39.84-2.41,3Z" fill="#3a3d3f"/><path d="M1452.79,138.23h1.34v1.23a10.06,10.06,0,0,1,3.29-1.42v1.36a13.41,13.41,0,0,0-3.28,1.23v6.61h-1.35Z" fill="#3a3d3f"/><path d="M1465.67,146.07l0,1.06a31.12,31.12,0,0,1-3.51.29c-2.68,0-3.56-1.57-3.56-4.63,0-3.42,1.47-4.74,3.76-4.74s3.62,1.26,3.62,4.22l-.07,1h-6c0,1.93.6,2.94,2.36,2.94C1463.7,146.23,1465.67,146.07,1465.67,146.07Zm-1-3.86c0-2.23-.69-3-2.27-3s-2.4.84-2.41,3Z" fill="#3a3d3f"/><path d="M1475,147.24h-1.34v-.62a6.37,6.37,0,0,1-2.73.8c-1.77,0-3.24-.72-3.24-4.61,0-3.17,1-4.76,3.76-4.76a14.12,14.12,0,0,1,2.21.24v-4H1475Zm-1.34-1.7v-6.1a15.56,15.56,0,0,0-2.14-.22c-1.89,0-2.45,1.25-2.45,3.59,0,2.91,1,3.4,2,3.4A6.47,6.47,0,0,0,1473.69,145.54Z" fill="#3a3d3f"/><path d="M1488.9,142.63c0,3.27-.81,4.79-3.85,4.79s-3.85-1.52-3.85-4.79c0-3.1,1-4.58,3.85-4.58S1488.9,139.53,1488.9,142.63Zm-1.38,0c0-2.51-.54-3.41-2.47-3.41s-2.47.9-2.47,3.41.35,3.62,2.47,3.62S1487.52,145.18,1487.52,142.63Z" fill="#3a3d3f"/><path d="M1491.1,147.24v-9h1.33v.63a6.85,6.85,0,0,1,2.79-.81c2.48,0,3,1.23,3,4.43v4.76h-1.33v-4.72c0-2.38-.27-3.26-1.94-3.26a6.12,6.12,0,0,0-2.54.67v7.31Z" fill="#3a3d3f"/><path d="M1506.52,139.4v4.31c0,2,.13,2.52,1.3,2.52.5,0,1.6-.11,1.6-.11l.09,1.12a16.23,16.23,0,0,1-1.83.19c-1.86,0-2.49-.7-2.49-3.29V139.4h-1.28v-1.17h1.28v-2.75h1.33v2.75h2.87v1.17Z" fill="#3a3d3f"/><path d="M1511,134.63h1.35v1.57H1511Zm0,3.6h1.35v9H1511Z" fill="#3a3d3f"/><path d="M1515,147.24v-9h1.34v.63a6,6,0,0,1,2.63-.81,2.54,2.54,0,0,1,2.34.92,7.46,7.46,0,0,1,3.2-.92c2.45,0,3,1.17,3,4.43v4.76h-1.35v-4.72c0-2.38-.27-3.26-1.89-3.26a6,6,0,0,0-2.54.67,9.71,9.71,0,0,1,.24,2.62v4.69h-1.35v-4.65c0-2.48-.25-3.33-1.89-3.33a5.4,5.4,0,0,0-2.42.67v7.31Z" fill="#3a3d3f"/><path d="M1536.68,146.07l0,1.06a31.12,31.12,0,0,1-3.51.29c-2.68,0-3.56-1.57-3.56-4.63,0-3.42,1.47-4.74,3.76-4.74s3.62,1.26,3.62,4.22l-.07,1h-6c0,1.93.6,2.94,2.36,2.94C1534.71,146.23,1536.68,146.07,1536.68,146.07Zm-1-3.86c0-2.23-.69-3-2.27-3s-2.4.84-2.41,3Z" fill="#3a3d3f"/><path d="M1539,145.18h1.48v2.06H1539Z" fill="#3a3d3f"/><rect x="1132.92" y="82.83" width="7.17" height="27.28" transform="translate(2273.01 192.95) rotate(-180)" fill="#2277d6"/><rect x="1122.92" y="91.92" width="7.17" height="18.2" transform="translate(2253.01 202.03) rotate(-180)" fill="#2277d6"/><rect x="1112.33" y="101.01" width="7.17" height="9.1" transform="translate(2231.83 211.13) rotate(-180)" fill="#2277d6"/><path d="M118.42,74.3A46.58,46.58,0,1,1,71.84,27.72,46.58,46.58,0,0,1,118.42,74.3" fill="#e3f0fc"/><path d="M1080,88.63h-5.73V85.76a2.86,2.86,0,0,0-2.87-2.86h-5.73a2.86,2.86,0,0,0-2.86,2.86v2.87h-5.73a2.84,2.84,0,0,0-2.85,2.86v15.76a2.85,2.85,0,0,0,2.86,2.86h22.53a3.24,3.24,0,0,0,3.25-3.25V91.49A2.86,2.86,0,0,0,1080,88.63Zm-8.6,0h-5.73V85.76h5.73Z" fill="#2277d6"/><path d="M1289.49,41.31l2.37,12.48h.58l2.82-12.36h1.8l2.82,12.36h.58l2.36-12.48h1.58l-2.8,13.84h-2.82l-2.62-11.82-2.62,11.82h-2.82l-2.82-13.84Z"/><path d="M1315.3,48.89h-7v6.26h-1.53V41.31h1.53v6.2h7v-6.2h1.52V55.15h-1.52Z"/><path d="M1324.67,55.15h-1.53V49.33l-4.43-8h1.74l3.45,6.48,3.44-6.48h1.74l-4.41,8Z"/><path d="M1335.37,41.31h1.54V55.15h-1.54Z"/><path d="M1348.06,42.79s-2.79-.34-4-.34c-2,0-3,.7-3,2.26,0,1.8,1,2.1,3.38,2.64,2.76.62,4,1.3,4,3.72,0,3.06-1.68,4.26-4.43,4.26a36.39,36.39,0,0,1-4.38-.44l.16-1.28s2.72.36,4.14.36c2,0,3-.86,3-2.78,0-1.56-.82-2-3.08-2.44-2.86-.62-4.3-1.3-4.3-3.94s1.76-3.72,4.46-3.72a34.47,34.47,0,0,1,4.19.4Z"/><path d="M1354.09,41.31h10v1.38h-4.22V55.15h-1.52V42.69h-4.26Z"/><path d="M1374.63,48.89h-7v6.26h-1.54V41.31h1.54v6.2h7v-6.2h1.53V55.15h-1.53Z"/><path d="M1379.55,41.31h1.54V55.15h-1.54Z"/><path d="M1392.23,42.79s-2.78-.34-3.94-.34c-2,0-3,.7-3,2.26,0,1.8,1,2.1,3.38,2.64,2.76.62,4,1.3,4,3.72,0,3.06-1.68,4.26-4.42,4.26a36.39,36.39,0,0,1-4.38-.44l.16-1.28s2.72.36,4.14.36c2,0,3-.86,3-2.78,0-1.56-.82-2-3.08-2.44-2.86-.62-4.3-1.3-4.3-3.94s1.76-3.72,4.46-3.72a34.46,34.46,0,0,1,4.18.4Z"/><path d="M1401.25,49.85v5.3h-1.54V41.31h5.12c2.9,0,4.42,1.28,4.42,4.2,0,2-.8,3.46-2.54,4l2.66,5.62h-1.7l-2.5-5.3Zm3.58-7.18h-3.58v5.82h3.6c2.08,0,2.82-1.24,2.82-3C1407.67,43.61,1406.77,42.67,1404.83,42.67Z"/><path d="M1412,41.31h8.42v1.36h-6.88v4.78h5.68v1.34h-5.68v5h6.88v1.36H1412Z"/><path d="M1431.45,54.93a20.83,20.83,0,0,1-3.82.42c-4.14,0-5.06-2.52-5.06-7.08s.9-7.16,5.06-7.16a20.32,20.32,0,0,1,3.82.44l-.06,1.3a24.64,24.64,0,0,0-3.6-.36c-3.08,0-3.62,1.84-3.62,5.78s.5,5.7,3.66,5.7a21.88,21.88,0,0,0,3.56-.36Z"/><path d="M1433.41,48.29c0-4.56,1.18-7.18,5.46-7.18s5.48,2.58,5.48,7.18c0,4.76-1.18,7.06-5.48,7.06S1433.41,52.93,1433.41,48.29Zm9.34,0c0-3.74-.72-5.82-3.88-5.82s-3.88,2.06-3.88,5.82.68,5.7,3.88,5.7S1442.75,52.19,1442.75,48.29Z"/><path d="M1447.17,41.31H1450l3.92,11.7,3.92-11.7h2.78V55.15H1459V43h-.28l-4,11.7H1453L1449,43h-.28v12.2h-1.54Z"/><path d="M1464,41.31h2.78l3.92,11.7,3.92-11.7h2.78V55.15h-1.54V43h-.28l-4,11.7h-1.72l-4-11.7h-.28v12.2H1464Z"/><path d="M1480.77,41.31h8.42v1.36h-6.88v4.78H1488v1.34h-5.68v5h6.88v1.36h-8.42Z"/><path d="M1491.83,41.31h2.88l5.3,12.48h.42V41.31H1502V55.15h-2.82l-5.38-12.48h-.38V55.15h-1.54Z"/><path d="M1505.35,55.15V41.31h4.94c4,0,5.12,2.8,5.12,6.72s-1,7.12-5.12,7.12Zm4.94-12.48h-3.4V53.79h3.4c2.88,0,3.54-2.76,3.54-5.76S1513.17,42.67,1510.29,42.67Z"/><path d="M1518.25,41.31h8.42v1.36h-6.88v4.78h5.68v1.34h-5.68v5h6.88v1.36h-8.42Z"/><path d="M1529.31,55.15V41.31h4.94c4,0,5.12,2.8,5.12,6.72s-1,7.12-5.12,7.12Zm4.94-12.48h-3.4V53.79h3.4c2.88,0,3.54-2.76,3.54-5.76S1537.13,42.67,1534.25,42.67Z"/><path d="M1546.77,47.93c-1.18,1-1.78,1.6-1.78,2.5v.7h-1.26a3.11,3.11,0,0,1-.26-1.22c0-1,.8-1.76,1.86-2.66,1.44-1.24,1.78-1.7,1.78-2.82,0-1.42-.86-2-2.66-2a18.55,18.55,0,0,0-3.1.46l-.1-1.22a15.14,15.14,0,0,1,3.34-.6c2.68,0,4,.88,4,3.2C1548.63,46,1548.33,46.63,1546.77,47.93Zm-3.26,5h1.64v2.24h-1.64Z"/><path d="M1001.55,97l3.81,5.22a4,4,0,0,0,2.87,1.18h23.87l-3.89-5.25c-.61-.82-1.06-1.15-1.79-1.15Z" fill="#2277d6"/><path d="M1032.75,105.06h-25.57a4.07,4.07,0,0,1-2.94-1.26L1000,98.28a2.7,2.7,0,0,0-2-.73c-2.29,0-5.46,0-7.57.08a2.36,2.36,0,0,0-1.93,1.51l-1.78,5.52a1.2,1.2,0,0,0,0,.77l1,2.31a1.46,1.46,0,0,0,1.37,1h42.19a2.08,2.08,0,0,0,2-1.35l.77-2.25Z" fill="#2277d6"/><path d="M997.61,110.35a3.32,3.32,0,0,1-6.57,0" fill="#2277d6"/><path d="M1029.05,110.35a3.33,3.33,0,0,1-6.58,0" fill="#2277d6"/><path d="M101.67,74a4,4,0,0,0-4.9-2.8L82.57,75l-18.4-17.2L59,59.15l11.1,19.2L56.77,82l-5.3-4.1-3.9,1,4.9,8.4,2.1,3.6,4.3-1.1L73.07,86l11.6-3.1,14.2-3.8A4.23,4.23,0,0,0,101.67,74Z" fill="#2277d6"/></g></g></svg>