<svg xmlns="http://www.w3.org/2000/svg" viewBox="0 0 1893 246.47"><title>bar_2_opened</title><g id="Layer_2" data-name="Layer 2"><g id="CM3_New_Open"><rect width="1893" height="246.47" fill="#fff"/></g><g id="Layer_1-2" data-name="Layer 1"><circle cx="683.21" cy="110.41" r="29.44" fill="none" stroke="#2277d6" stroke-miterlimit="10" stroke-width="4"/><path d="M683.21,89.54a22.38,22.38,0,0,1,22.37,22.38H683.21Z" fill="#8dc5f2" opacity="0.47"/><path d="M161.46,31.4h3.33l4.71,14,4.7-14h3.34V48h-1.85V33.37h-.34l-4.82,14h-2.06l-4.83-14h-.33V48h-1.85Z"/><path d="M184.71,31.4h4L193.31,48h-1.83l-1.2-4.27h-7.1L182,48h-1.83Zm-1.12,10.68h6.28L187.35,33H186.1Z"/><path d="M195.92,31.4h3.46l6.36,15h.5v-15h1.83V48h-3.39l-6.46-15h-.45V48h-1.85Z"/><path d="M217.76,46.62c2.59,0,4.06-1,4.06-3.6V31.4h1.82V43c0,3.79-2.09,5.28-5.88,5.28S212,46.79,212,43V31.4h1.85V43C213.87,45.61,215.31,46.62,217.76,46.62Z"/><path d="M230.36,31.4h4L239,48h-1.82l-1.2-4.27h-7.11L227.62,48H225.8Zm-1.13,10.68h6.29L233,33h-1.25Z"/><path d="M241.57,48V31.4h1.85v15h7.29V48Z"/><path d="M263.05,38.51l4.22-7.11h2l-5.11,8.43L269.26,48h-2.08L263,41.12,258.75,48h-2l5.14-8.14-5.14-8.47h2.09Z"/><path d="M271.33,40.57h7.27v1.68h-7.27Z"/><path d="M284.09,41.65V48h-1.84V31.4h6.14c3.48,0,5.3,1.54,5.3,5,0,2.45-1,4.16-3,4.83L293.84,48h-2l-3-6.36Zm4.3-8.62h-4.3v7h4.32c2.5,0,3.39-1.49,3.39-3.58C291.8,34.16,290.72,33,288.39,33Z"/><path d="M299.67,31.4h4L308.26,48h-1.82l-1.2-4.27h-7.11L296.93,48h-1.82Zm-1.13,10.68h6.29L302.31,33h-1.25Z"/><path d="M315,48h-1.85V41L307.8,31.4h2.09L314,39.18l4.13-7.78h2.09L315,41Z"/><path d="M337.83,47.75a25.07,25.07,0,0,1-4.59.5c-5,0-6.07-3-6.07-8.5s1.08-8.59,6.07-8.59a24.09,24.09,0,0,1,4.59.53l-.07,1.56a29.94,29.94,0,0,0-4.32-.43c-3.7,0-4.35,2.21-4.35,6.93s.6,6.85,4.39,6.85a25.92,25.92,0,0,0,4.28-.44Z"/><path d="M351.15,40.5H342.7V48h-1.85V31.4h1.85v7.44h8.45V31.4H353V48h-1.82Z"/><path d="M357.05,31.4h10.11V33H358.9v5.74h6.82v1.61H358.9v6h8.26V48H357.05Z"/><path d="M380.36,47.75a25.07,25.07,0,0,1-4.59.5c-5,0-6.07-3-6.07-8.5s1.08-8.59,6.07-8.59a24.09,24.09,0,0,1,4.59.53l-.08,1.56a29.8,29.8,0,0,0-4.32-.43c-3.69,0-4.34,2.21-4.34,6.93s.6,6.85,4.39,6.85a25.68,25.68,0,0,0,4.27-.44Z"/><path d="M388,40.67l-2.76.09V48h-1.85V31.4h1.85v7.73L388,39l4.25-7.63h2.11l-4.75,8.35,5,8.26H392.4Z"/><path d="M650.06,41.31h10v1.38h-4.22V55.15h-1.52V42.69h-4.26Z"/><path d="M662,41.31h1.54V55.15H662Z"/><path d="M666.94,41.31h2.78L673.64,53l3.92-11.7h2.78V55.15H678.8V43h-.28l-4,11.7h-1.72l-4-11.7h-.28v12.2h-1.54Z"/><path d="M683.74,41.31h8.42v1.36h-6.88v4.78H691v1.34h-5.68v5h6.88v1.36h-8.42Z"/><path d="M700.74,50.49v4.66H699.2V41.31h5.06c3,0,4.42,1.46,4.42,4.46s-1.4,4.72-4.42,4.72Zm3.5-1.36c2,0,2.86-1.22,2.86-3.36s-.84-3.1-2.86-3.1h-3.5v6.46Z"/><path d="M711.06,41.31h8.42v1.36H712.6v4.78h5.68v1.34H712.6v5h6.88v1.36h-8.42Z"/><path d="M723.66,49.85v5.3h-1.54V41.31h5.12c2.9,0,4.42,1.28,4.42,4.2,0,2-.8,3.46-2.54,4l2.66,5.62h-1.7l-2.5-5.3Zm3.58-7.18h-3.58v5.82h3.6c2.08,0,2.82-1.24,2.82-3C730.08,43.61,729.18,42.67,727.24,42.67Z"/><path d="M734.44,41.31H736V55.15h-1.54Z"/><path d="M738.8,48.29c0-4.56,1.18-7.18,5.46-7.18s5.48,2.58,5.48,7.18c0,4.76-1.18,7.06-5.48,7.06S738.8,52.93,738.8,48.29Zm9.34,0c0-3.74-.72-5.82-3.88-5.82s-3.88,2.06-3.88,5.82.68,5.7,3.88,5.7S748.14,52.19,748.14,48.29Z"/><path d="M752.56,55.15V41.31h4.94c4,0,5.12,2.8,5.12,6.72s-1,7.12-5.12,7.12Zm4.94-12.48h-3.4V53.79h3.4C760.38,53.79,761,51,761,48S760.38,42.67,757.5,42.67Z"/><path d="M998.86,48.29c0-4.56,1.18-7.18,5.46-7.18s5.48,2.58,5.48,7.18c0,4.76-1.18,7.06-5.48,7.06S998.86,52.93,998.86,48.29Zm9.34,0c0-3.74-.72-5.82-3.88-5.82s-3.88,2.06-3.88,5.82.68,5.7,3.88,5.7S1008.2,52.19,1008.2,48.29Z"/><path d="M1022.08,41.31l-3.62,13.84H1015l-3.62-13.84h1.6l3.18,12.48h1.12l3.18-12.48Z"/><path d="M1024.26,41.31h8.42v1.36h-6.88v4.78h5.68v1.34h-5.68v5h6.88v1.36h-8.42Z"/><path d="M1036.86,49.85v5.3h-1.54V41.31h5.12c2.9,0,4.42,1.28,4.42,4.2,0,2-.8,3.46-2.54,4l2.66,5.62h-1.7l-2.5-5.3Zm3.58-7.18h-3.58v5.82h3.6c2.08,0,2.82-1.24,2.82-3C1043.28,43.61,1042.38,42.67,1040.44,42.67Z"/><path d="M1057.1,41.31l-3.62,13.84H1050l-3.62-13.84h1.6l3.18,12.48h1.12l3.18-12.48Z"/><path d="M1059.28,41.31h1.54V55.15h-1.54Z"/><path d="M1064.2,41.31h8.42v1.36h-6.88v4.78h5.68v1.34h-5.68v5h6.88v1.36h-8.42Z"/><path d="M1075.76,41.31l2.36,12.48h.58l2.82-12.36h1.8l2.82,12.36h.58l2.36-12.48h1.58l-2.8,13.84H1085l-2.62-11.82-2.62,11.82H1077l-2.82-13.84Z"/><path d="M668.7,102.64a20,20,0,0,1,5.37-.83c4.63,0,6.21,1.48,6.21,4.6a4.32,4.32,0,0,1-2.42,3.87c1.67.73,2.79,1.41,2.79,3.9,0,3.57-1.79,5.36-6.13,5.36a29.37,29.37,0,0,1-6-.8l.2-2.24a39.25,39.25,0,0,0,5.4.52c2.26,0,3.34-.88,3.34-2.76s-1.33-2.54-3.14-2.57h-3.71v-2.42h3.71a2.86,2.86,0,0,0,2.78-2.68c0-1.56-.94-2.26-3.2-2.26a31.53,31.53,0,0,0-4.93.49Z" fill="#2277d6"/><path d="M684.29,119.26V100.85h3v6.08a10.87,10.87,0,0,1,3.81-1c3.88,0,4.82,2,4.82,6.32v7h-3v-6.9c0-2.6-.34-3.87-2.48-3.87a10.72,10.72,0,0,0-3.12.57v10.2Z" fill="#2277d6"/><path d="M1005.72,134.55v-1.17l3.46-3.64c1.47-1.52,2.38-2.49,2.38-3.88,0-1.58-.88-2.08-2.58-2.08a17.28,17.28,0,0,0-3.06.39l-.11-1.14a14.14,14.14,0,0,1,3.42-.49c2.49,0,3.75.95,3.75,3.17,0,1.78-.81,2.82-2.47,4.43l-3.16,3.21h5.93v1.2Z" fill="#3a3d3f"/><path d="M1045.31,129.44h3.39V126H1050v3.49h3.43v1.22H1050v3.53h-1.25v-3.53h-3.39Z" fill="#3a3d3f"/><path d="M1060,122.72h1.29v11.83H1060V124.26l-3,2-.63-1Z" fill="#3a3d3f"/><path d="M1073.71,128.81c0,4.54-1.59,5.91-4.3,5.91s-4.31-1.34-4.31-5.89c0-4.87,1.57-6.31,4.3-6.31S1073.71,123.94,1073.71,128.81Zm-7.18,0c0,3.71,1,4.68,2.88,4.68s2.89-1,2.89-4.7c0-4-.91-5-2.89-5S1066.53,124.8,1066.53,128.83Z" fill="#3a3d3f"/><path d="M1083.75,128.81c0,4.54-1.59,5.91-4.3,5.91s-4.32-1.34-4.32-5.89c0-4.87,1.58-6.31,4.3-6.31S1083.75,123.94,1083.75,128.81Zm-7.18,0c0,3.71,1,4.68,2.88,4.68s2.88-1,2.88-4.7c0-4-.91-5-2.88-5S1076.57,124.8,1076.57,128.83Z" fill="#3a3d3f"/><path d="M1112.49,123a13.59,13.59,0,0,1,3.48-.51c2.79,0,3.78,1,3.78,3.09a2.94,2.94,0,0,1-1.76,2.68,2.57,2.57,0,0,1,2,2.87c0,2.38-1.16,3.56-3.83,3.56a19.73,19.73,0,0,1-3.89-.48l.13-1.13a21,21,0,0,0,3.62.4c1.75,0,2.56-.77,2.56-2.3s-1.1-2.16-2.44-2.22h-2.38v-1.18h2.38a2.22,2.22,0,0,0,2.15-2.15c0-1.34-.66-1.9-2.42-1.9a17.86,17.86,0,0,0-3.29.36Z" fill="#3a3d3f"/><path d="M1127.69,132.23H1122v-1.07l3.37-8.44h1.5l-3.42,8.3h4.29v-3.69h1.37V131h1.51v1.21h-1.51v2.32h-1.37Z" fill="#3a3d3f"/><path d="M1135.71,125c0,1.74-.77,2.53-2,2.53s-2-.79-2-2.53.76-2.47,2-2.47S1135.71,123.3,1135.71,125Zm-2,1.62c.67,0,.9-.56.9-1.62s-.23-1.55-.9-1.55-.87.5-.87,1.55S1133.1,126.63,1133.74,126.63Zm4-4.28.86.28-3.67,12.24-.86-.25Zm3.08,9.85c0,1.72-.77,2.52-2,2.52s-1.95-.8-1.95-2.54.73-2.45,1.95-2.45S1140.8,130.48,1140.8,132.2Zm-2,1.61c.68,0,.9-.55.9-1.61s-.22-1.56-.9-1.56-.88.5-.88,1.54S1138.19,133.81,1138.83,133.81Z" fill="#3a3d3f"/><path d="M742.8,89h3.26v21.12h-3.55V93l-5,3.2-1.63-2.66Z"/><path d="M753.36,89h13.31v4.23l-7.78,17.25-3.32-1,7.52-16.36v-1h-9.73Z"/><path d="M770.89,95.81h3.75v4.61h-3.75Zm0,9.7h3.75v4.6h-3.75Z"/><path d="M793.52,99.78c0,8-2.91,10.69-8,10.69s-8-2.63-8-10.69c0-8.29,2.91-11.14,8-11.14S793.52,91.46,793.52,99.78Zm-12.29,0c0,5.79,1.44,7.58,4.35,7.58s4.26-1.79,4.26-7.58c0-6.21-1.31-8-4.29-8S781.23,93.54,781.23,99.78Z"/><path d="M811.44,99.78c0,8-2.91,10.69-8,10.69s-8-2.63-8-10.69c0-8.29,2.91-11.14,8-11.14S811.44,91.46,811.44,99.78Zm-12.29,0c0,5.79,1.44,7.58,4.35,7.58s4.26-1.79,4.26-7.58c0-6.21-1.31-8-4.29-8S799.15,93.54,799.15,99.78Z"/><path d="M821.42,99.91H831v3.16h-9.57Z"/><path d="M842.12,110.11v-3l5.22-5.37c2.72-2.79,4.29-4.48,4.29-6.72,0-2.4-1.25-3.17-4-3.17a32.66,32.66,0,0,0-5.18.58l-.23-2.82a25,25,0,0,1,6.24-.93c4.67,0,6.82,1.92,6.82,5.89,0,3.2-1.35,5.06-4.61,8.1L846.19,107h9.53v3.1Z"/><path d="M874.83,99.78c0,8-2.91,10.69-8,10.69s-8-2.63-8-10.69c0-8.29,2.91-11.14,8-11.14S874.83,91.46,874.83,99.78Zm-12.29,0c0,5.79,1.44,7.58,4.35,7.58s4.26-1.79,4.26-7.58c0-6.21-1.31-8-4.29-8S862.54,93.54,862.54,99.78Z"/><path d="M877.77,95.81h3.75v4.61h-3.75Zm0,9.7h3.75v4.6h-3.75Z"/><path d="M900.4,99.78c0,8-2.92,10.69-8,10.69s-8-2.63-8-10.69c0-8.29,2.91-11.14,8-11.14S900.4,91.46,900.4,99.78Zm-12.29,0c0,5.79,1.44,7.58,4.35,7.58s4.26-1.79,4.26-7.58c0-6.21-1.31-8-4.29-8S888.11,93.54,888.11,99.78Z"/><path d="M918.32,99.78c0,8-2.92,10.69-8,10.69s-8-2.63-8-10.69c0-8.29,2.91-11.14,8-11.14S918.32,91.46,918.32,99.78Zm-12.29,0c0,5.79,1.44,7.58,4.35,7.58s4.26-1.79,4.26-7.58c0-6.21-1.32-8-4.29-8S906,93.54,906,99.78Z"/><path d="M733.33,122.15h9v1.24h-3.78v11.16h-1.36V123.39h-3.82Z" fill="#3a3d3f"/><path d="M751.09,130c0,3.26-.81,4.76-3.83,4.76s-3.84-1.5-3.84-4.76c0-3.08,1-4.55,3.84-4.55S751.09,126.88,751.09,130Zm-1.38,0c0-2.49-.54-3.39-2.45-3.39s-2.46.9-2.46,3.39.34,3.6,2.46,3.6S749.71,132.5,749.71,130Z" fill="#3a3d3f"/><path d="M760.16,134.55h-1.33v-.61a6.47,6.47,0,0,1-2.72.78c-1.76,0-3.22-.71-3.22-4.58,0-3.15,1-4.73,3.74-4.73a15.61,15.61,0,0,1,2.2.23v-4h1.33Zm-1.33-1.69v-6.07a14,14,0,0,0-2.13-.22c-1.88,0-2.43,1.24-2.43,3.57,0,2.9.94,3.38,2,3.38A6.53,6.53,0,0,0,758.83,132.86Z" fill="#3a3d3f"/><path d="M769.08,132.88c0,.52.47.72,1,.79l0,1.05a2.71,2.71,0,0,1-2.13-.71,9.29,9.29,0,0,1-3.23.71c-1.63,0-2.52-.93-2.52-2.74s.89-2.47,2.74-2.65l2.81-.27v-.77c0-1.25-.54-1.7-1.61-1.7-1.26,0-3.39.23-3.39.23l0-1a21.9,21.9,0,0,1,3.51-.39c2,0,2.88.93,2.88,2.88Zm-4-2.54c-1.1.1-1.52.62-1.52,1.61s.44,1.65,1.36,1.65a9.45,9.45,0,0,0,2.81-.56v-2.95Z" fill="#3a3d3f"/><path d="M772.24,125.59l2.24,7.79h.59l2.26-7.79h1.34l-3.73,12.93H773.6l1.17-4h-1.33l-2.54-9Z" fill="#3a3d3f"/><path d="M163.28,78.77h3l3.42,12.46h-1.37l-.9-3.2h-5.33l-.9,3.2h-1.37Zm-.84,8h4.72L165.27,80h-.94Z" fill="#3a3d3f"/><path d="M177.43,83.55a29.33,29.33,0,0,0-3.15-.29c-1.11,0-2,.3-2,1.37,0,.84.43,1.08,2.34,1.4,2.25.38,3.1.83,3.1,2.58,0,2.1-1.34,2.81-3.5,2.81a24.71,24.71,0,0,1-3.16-.35l.07-1.17a29.5,29.5,0,0,0,3,.31c1.48,0,2.27-.33,2.27-1.55,0-.94-.47-1.17-2.43-1.48s-3-.7-3-2.5c0-2,1.6-2.63,3.24-2.63a23.19,23.19,0,0,1,3.26.34Z" fill="#3a3d3f"/><path d="M185.8,83.55a29.33,29.33,0,0,0-3.15-.29c-1.11,0-2,.3-2,1.37,0,.84.43,1.08,2.34,1.4,2.25.38,3.1.83,3.1,2.58,0,2.1-1.34,2.81-3.5,2.81a24.71,24.71,0,0,1-3.16-.35l.07-1.17a29.5,29.5,0,0,0,3,.31c1.48,0,2.27-.33,2.27-1.55,0-.94-.47-1.17-2.43-1.48s-3-.7-3-2.5c0-2,1.6-2.63,3.24-2.63a23.19,23.19,0,0,1,3.26.34Z" fill="#3a3d3f"/><path d="M188.2,78.63h1.35V80.2H188.2Zm0,3.6h1.35v9H188.2Z" fill="#3a3d3f"/><path d="M191.74,92.75c0-1,.49-1.53,1.42-2.24a1.46,1.46,0,0,1-.5-1.24,5.82,5.82,0,0,1,.61-1.42c-.75-.34-1.42-1.06-1.42-2.72,0-2.21,1.37-3.08,3.37-3.08a9.07,9.07,0,0,1,1.87.24l2.66-.08v1.16l-1.71,0a2.31,2.31,0,0,1,.6,1.8c0,2.34-1.17,3-3.48,3a6.79,6.79,0,0,1-.88-.07,5.32,5.32,0,0,0-.32,1c0,.72.14.83,2.18.83,2.55,0,3.47.5,3.47,2.64s-1.46,2.87-4,2.87C192.77,95.47,191.74,94.84,191.74,92.75Zm2.34-1.7c-.75.56-1,.89-1,1.59,0,1.24.53,1.69,2.56,1.69,1.8,0,2.61-.48,2.61-1.67,0-1.37-.57-1.52-2.21-1.52C195.4,91.14,194.08,91.05,194.08,91.05Zm3.21-5.92c0-1.42-.56-2-2.07-2s-2,.56-2,2,.61,2,2,2S197.29,86.55,197.29,85.13Z" fill="#3a3d3f"/><path d="M201.39,91.23v-9h1.33v.63a6.85,6.85,0,0,1,2.79-.81c2.49,0,3.05,1.23,3.05,4.43v4.75h-1.34V86.52c0-2.38-.27-3.26-1.94-3.26a6.12,6.12,0,0,0-2.54.67v7.3Z" fill="#3a3d3f"/><path d="M211.06,78.63h1.35V80.2h-1.35Zm0,3.6h1.35v9h-1.35Z" fill="#3a3d3f"/><path d="M215,91.23v-9h1.33v.63a6.85,6.85,0,0,1,2.79-.81c2.49,0,3,1.23,3,4.43v4.75h-1.33V86.52c0-2.38-.27-3.26-1.94-3.26a6.12,6.12,0,0,0-2.54.67v7.3Z" fill="#3a3d3f"/><path d="M224.27,92.75c0-1,.48-1.53,1.42-2.24a1.46,1.46,0,0,1-.5-1.24,5.82,5.82,0,0,1,.61-1.42c-.76-.34-1.43-1.06-1.43-2.72,0-2.21,1.37-3.08,3.37-3.08a9.22,9.22,0,0,1,1.88.24l2.66-.08v1.16l-1.71,0a2.35,2.35,0,0,1,.59,1.8c0,2.34-1.17,3-3.47,3a6.65,6.65,0,0,1-.88-.07,5.21,5.21,0,0,0-.33,1c0,.72.15.83,2.18.83,2.56,0,3.48.5,3.48,2.64s-1.46,2.87-4,2.87C225.29,95.47,224.27,94.84,224.27,92.75Zm2.34-1.7c-.76.56-1,.89-1,1.59,0,1.24.52,1.69,2.56,1.69,1.8,0,2.61-.48,2.61-1.67,0-1.37-.58-1.52-2.22-1.52C227.92,91.14,226.61,91.05,226.61,91.05Zm3.2-5.92c0-1.42-.56-2-2.07-2s-2,.56-2,2,.61,2,2,2S229.81,86.55,229.81,85.13Z" fill="#3a3d3f"/><path d="M244.23,89.56c0,.52.47.72,1.05.79l-.06,1.07a2.76,2.76,0,0,1-2.14-.73,9.1,9.1,0,0,1-3.24.73c-1.64,0-2.54-.94-2.54-2.76s.9-2.48,2.75-2.66l2.83-.28V85c0-1.26-.54-1.71-1.62-1.71-1.26,0-3.4.23-3.4.23l-.06-1a21.6,21.6,0,0,1,3.53-.4c2,0,2.9.94,2.9,2.9Zm-4-2.56c-1.1.11-1.53.63-1.53,1.62s.45,1.66,1.36,1.66a9.48,9.48,0,0,0,2.83-.56v-3Z" fill="#3a3d3f"/><path d="M250.85,82.23h1.34v.65a6.07,6.07,0,0,1,2.7-.83c2.27,0,3.26,1.39,3.26,4.58,0,3.52-1.16,4.79-3.93,4.79a12,12,0,0,1-2-.2v4h-1.35ZM252.2,84v6.07a14.93,14.93,0,0,0,2,.19c2,0,2.63-1,2.63-3.61s-.78-3.37-2.09-3.37A5.87,5.87,0,0,0,252.2,84Z" fill="#3a3d3f"/><path d="M267,90.06l0,1.07a31.12,31.12,0,0,1-3.51.29c-2.69,0-3.57-1.57-3.57-4.63,0-3.42,1.48-4.74,3.77-4.74s3.61,1.26,3.61,4.21l-.07,1h-5.94c0,1.93.6,2.94,2.36,2.94C265,90.23,267,90.06,267,90.06Zm-1-3.85c0-2.23-.68-3-2.26-3s-2.4.84-2.42,3Z" fill="#3a3d3f"/><path d="M269.43,82.23h1.33v1.23a10.32,10.32,0,0,1,3.3-1.43V83.4a12.78,12.78,0,0,0-3.28,1.23v6.6h-1.35Z" fill="#3a3d3f"/><path d="M281.63,83.55a29,29,0,0,0-3.15-.29c-1.11,0-2,.3-2,1.37,0,.84.43,1.08,2.34,1.4,2.25.38,3.1.83,3.1,2.58,0,2.1-1.33,2.81-3.49,2.81a24.7,24.7,0,0,1-3.17-.35l.07-1.17a29.5,29.5,0,0,0,3,.31c1.48,0,2.27-.33,2.27-1.55,0-.94-.47-1.17-2.43-1.48s-3-.7-3-2.5c0-2,1.6-2.63,3.24-2.63a23.19,23.19,0,0,1,3.26.34Z" fill="#3a3d3f"/><path d="M291.34,86.63c0,3.27-.81,4.79-3.86,4.79s-3.85-1.52-3.85-4.79c0-3.1,1-4.58,3.85-4.58S291.34,83.53,291.34,86.63Zm-1.39,0c0-2.51-.54-3.41-2.47-3.41s-2.46.9-2.46,3.41.34,3.61,2.46,3.61S290,89.18,290,86.63Z" fill="#3a3d3f"/><path d="M293.53,91.23v-9h1.33v.63a6.85,6.85,0,0,1,2.79-.81c2.49,0,3.05,1.23,3.05,4.43v4.75h-1.34V86.52c0-2.38-.27-3.26-1.94-3.26a6.12,6.12,0,0,0-2.54.67v7.3Z" fill="#3a3d3f"/><path d="M309,83.4v4.31c0,2,.12,2.52,1.29,2.52.51,0,1.61-.11,1.61-.11l.09,1.11a15.71,15.71,0,0,1-1.84.2c-1.86,0-2.49-.7-2.49-3.29V83.4h-1.27V82.23h1.27V79.48H309v2.75h2.86V83.4Z" fill="#3a3d3f"/><path d="M320.78,86.63c0,3.27-.81,4.79-3.85,4.79s-3.85-1.52-3.85-4.79c0-3.1,1-4.58,3.85-4.58S320.78,83.53,320.78,86.63Zm-1.38,0c0-2.51-.54-3.41-2.47-3.41s-2.46.9-2.46,3.41.34,3.61,2.46,3.61S319.4,89.18,319.4,86.63Z" fill="#3a3d3f"/><path d="M332.75,82.32l-.05,1.1s-1.44-.16-2.12-.16c-2.07,0-2.63.9-2.63,3.31,0,2.67.41,3.64,2.64,3.64.69,0,2.13-.16,2.13-.16l0,1.11a23.06,23.06,0,0,1-2.5.26c-2.86,0-3.71-1.32-3.71-4.85,0-3.26,1.06-4.52,3.75-4.52A20.91,20.91,0,0,1,332.75,82.32Z" fill="#3a3d3f"/><path d="M342.1,86.63c0,3.27-.81,4.79-3.86,4.79s-3.85-1.52-3.85-4.79c0-3.1,1-4.58,3.85-4.58S342.1,83.53,342.1,86.63Zm-1.39,0c0-2.51-.54-3.41-2.47-3.41s-2.46.9-2.46,3.41.34,3.61,2.46,3.61S340.71,89.18,340.71,86.63Z" fill="#3a3d3f"/><path d="M344.29,91.23v-9h1.33v.63a6.85,6.85,0,0,1,2.79-.81c2.49,0,3,1.23,3,4.43v4.75h-1.34V86.52c0-2.38-.27-3.26-1.94-3.26a6.12,6.12,0,0,0-2.54.67v7.3Z" fill="#3a3d3f"/><path d="M360.87,91.23h-1.33v-.61a6.44,6.44,0,0,1-2.74.8c-1.76,0-3.24-.73-3.24-4.61,0-3.17,1-4.76,3.76-4.76a14.13,14.13,0,0,1,2.22.24v-4h1.33Zm-1.33-1.69v-6.1a14.42,14.42,0,0,0-2.14-.22c-1.9,0-2.45,1.24-2.45,3.59,0,2.91.95,3.4,2,3.4A6.54,6.54,0,0,0,359.54,89.54Z" fill="#3a3d3f"/><path d="M370.45,82.23v9H369.1V90.6a6.09,6.09,0,0,1-2.67.82c-2.52,0-3-1.18-3-4.49v-4.7h1.35v4.68c0,2.49.21,3.3,1.89,3.3a5.47,5.47,0,0,0,2.47-.67V82.23Z" fill="#3a3d3f"/><path d="M378.85,82.32l-.05,1.1s-1.44-.16-2.13-.16c-2.07,0-2.63.9-2.63,3.31,0,2.67.42,3.64,2.65,3.64.68,0,2.13-.16,2.13-.16l.05,1.11a23.06,23.06,0,0,1-2.5.26c-2.87,0-3.71-1.32-3.71-4.85,0-3.26,1.06-4.52,3.74-4.52A20.89,20.89,0,0,1,378.85,82.32Z" fill="#3a3d3f"/><path d="M382.68,83.4v4.31c0,2,.13,2.52,1.3,2.52.5,0,1.6-.11,1.6-.11l.09,1.11a15.44,15.44,0,0,1-1.83.2c-1.86,0-2.49-.7-2.49-3.29V83.4h-1.28V82.23h1.28V79.48h1.33v2.75h2.87V83.4Z" fill="#3a3d3f"/><path d="M391.74,82.23l2.19,3.53,2.2-3.53h1.48l-2.87,4.47,2.85,4.53h-1.48l-2.18-3.51-2.19,3.51h-1.48l2.83-4.5-2.83-4.5Z" fill="#3a3d3f"/><path d="M399.23,85.65h5.45v1.26h-5.45Z" fill="#3a3d3f"/><path d="M407.18,82.23h1.33v1.23a10.32,10.32,0,0,1,3.3-1.43V83.4a13,13,0,0,0-3.28,1.23v6.6h-1.35Z" fill="#3a3d3f"/><path d="M419.76,89.56c0,.52.47.72,1.05.79l-.06,1.07a2.76,2.76,0,0,1-2.14-.73,9.1,9.1,0,0,1-3.24.73c-1.64,0-2.54-.94-2.54-2.76s.9-2.48,2.76-2.66l2.82-.28V85c0-1.26-.54-1.71-1.62-1.71-1.26,0-3.4.23-3.4.23l-.05-1a21.6,21.6,0,0,1,3.53-.4c2,0,2.89.94,2.89,2.9Zm-4-2.56c-1.1.11-1.53.63-1.53,1.62s.45,1.66,1.37,1.66a9.47,9.47,0,0,0,2.82-.56v-3Z" fill="#3a3d3f"/><path d="M422.93,82.23l2.25,7.83h.6L428,82.23h1.35l-3.74,13H424.3l1.17-4h-1.33l-2.56-9Z" fill="#3a3d3f"/><path d="M440.9,82.32l-.06,1.1s-1.44-.16-2.12-.16c-2.07,0-2.63.9-2.63,3.31,0,2.67.41,3.64,2.64,3.64.69,0,2.13-.16,2.13-.16l.05,1.11a23.06,23.06,0,0,1-2.5.26c-2.86,0-3.71-1.32-3.71-4.85,0-3.26,1.06-4.52,3.75-4.52A21.18,21.18,0,0,1,440.9,82.32Z" fill="#3a3d3f"/><path d="M442.93,91.23V78.31h1.35v4.43a7.55,7.55,0,0,1,2.77-.69c2.47,0,3,1.23,3,4.43v4.75h-1.35V86.52c0-2.38-.27-3.26-1.92-3.26a7.41,7.41,0,0,0-2.54.54v7.43Z" fill="#3a3d3f"/><path d="M459.24,90.06l0,1.07a31.12,31.12,0,0,1-3.51.29c-2.68,0-3.56-1.57-3.56-4.63,0-3.42,1.47-4.74,3.76-4.74s3.62,1.26,3.62,4.21l-.07,1h-5.94c0,1.93.59,2.94,2.35,2.94C457.27,90.23,459.24,90.06,459.24,90.06Zm-1-3.85c0-2.23-.69-3-2.27-3s-2.39.84-2.41,3Z" fill="#3a3d3f"/><path d="M467.5,82.32l-.05,1.1s-1.45-.16-2.13-.16c-2.07,0-2.63.9-2.63,3.31,0,2.67.42,3.64,2.65,3.64.68,0,2.12-.16,2.12-.16l.06,1.11a23.34,23.34,0,0,1-2.51.26c-2.86,0-3.71-1.32-3.71-4.85,0-3.26,1.07-4.52,3.75-4.52A20.89,20.89,0,0,1,467.5,82.32Z" fill="#3a3d3f"/><path d="M469.53,91.23V78.31h1.35v7.63l1.4-.07,2.58-3.64h1.53l-2.93,4.14,3.06,4.86H475l-2.69-4.17-1.42,0v4.12Z" fill="#3a3d3f"/><path d="M482.11,91.23v-9h1.34v.63a6,6,0,0,1,2.62-.81,2.52,2.52,0,0,1,2.34.92,7.53,7.53,0,0,1,3.21-.92c2.45,0,3,1.17,3,4.43v4.75h-1.35V86.52c0-2.38-.27-3.26-1.89-3.26a6,6,0,0,0-2.54.67,10.15,10.15,0,0,1,.24,2.62v4.68h-1.35V86.59c0-2.49-.26-3.33-1.89-3.33a5.4,5.4,0,0,0-2.42.67v7.3Z" fill="#3a3d3f"/><path d="M503.52,89.56c0,.52.46.72,1,.79l-.05,1.07a2.77,2.77,0,0,1-2.15-.73,9.1,9.1,0,0,1-3.24.73c-1.64,0-2.54-.94-2.54-2.76s.9-2.48,2.76-2.66l2.83-.28V85c0-1.26-.54-1.71-1.62-1.71-1.27,0-3.41.23-3.41.23l-.05-1a21.6,21.6,0,0,1,3.53-.4c2,0,2.9.94,2.9,2.9Zm-4-2.56c-1.1.11-1.53.63-1.53,1.62s.45,1.66,1.37,1.66a9.57,9.57,0,0,0,2.83-.56v-3Z" fill="#3a3d3f"/><path d="M506.68,82.23l2.25,7.83h.6l2.27-7.83h1.35l-3.75,13h-1.35l1.17-4h-1.33l-2.56-9Z" fill="#3a3d3f"/><path d="M160.73,119.23V106.31h1.35v4.43a7.55,7.55,0,0,1,2.77-.69c2.47,0,3,1.23,3,4.43v4.75h-1.35v-4.71c0-2.38-.27-3.26-1.92-3.26a7.41,7.41,0,0,0-2.54.54v7.43Z" fill="#3a3d3f"/><path d="M177,118.06l0,1.07a31.12,31.12,0,0,1-3.51.29c-2.68,0-3.56-1.57-3.56-4.63,0-3.42,1.47-4.74,3.76-4.74s3.62,1.26,3.62,4.21l-.07,1h-5.94c0,1.93.59,2.94,2.35,2.94C175.07,118.23,177,118.06,177,118.06Zm-1-3.85c0-2.23-.68-3-2.27-3s-2.39.84-2.41,3Z" fill="#3a3d3f"/><path d="M179.59,106.31h1.35v12.92h-1.35Z" fill="#3a3d3f"/><path d="M183.64,110.23H185v.65a6.13,6.13,0,0,1,2.71-.83c2.26,0,3.25,1.39,3.25,4.58,0,3.52-1.15,4.79-3.92,4.79a12,12,0,0,1-2-.2v4h-1.35ZM185,112v6.07a14.93,14.93,0,0,0,1.95.19c2,0,2.63-1,2.63-3.61s-.78-3.37-2.09-3.37A5.87,5.87,0,0,0,185,112Z" fill="#3a3d3f"/><path d="M197.09,119.23v-9h1.33v.63a6,6,0,0,1,2.63-.81,2.53,2.53,0,0,1,2.34.92,7.47,7.47,0,0,1,3.21-.92c2.44,0,3,1.17,3,4.43v4.75h-1.35v-4.71c0-2.38-.27-3.26-1.89-3.26a5.89,5.89,0,0,0-2.54.67,10.25,10.25,0,0,1,.23,2.62v4.68h-1.35v-4.64c0-2.49-.25-3.33-1.89-3.33a5.34,5.34,0,0,0-2.41.67v7.3Z" fill="#3a3d3f"/><path d="M218.49,117.56c0,.52.47.72,1,.79l-.06,1.07a2.76,2.76,0,0,1-2.14-.73,9.1,9.1,0,0,1-3.24.73c-1.64,0-2.54-.94-2.54-2.76s.9-2.48,2.75-2.66l2.83-.28V113c0-1.26-.54-1.71-1.62-1.71-1.26,0-3.4.23-3.4.23l-.06-1a21.6,21.6,0,0,1,3.53-.4c2,0,2.9.94,2.9,2.9Zm-4-2.56c-1.1.11-1.53.63-1.53,1.62s.45,1.66,1.36,1.66a9.48,9.48,0,0,0,2.83-.56v-3Z" fill="#3a3d3f"/><path d="M221.15,119.23V106.31h1.35v7.63l1.41-.07,2.57-3.64H228l-2.93,4.14,3.06,4.86h-1.53l-2.68-4.17-1.43,0v4.12Z" fill="#3a3d3f"/><path d="M236.42,118.06l0,1.07a31.38,31.38,0,0,1-3.51.29c-2.69,0-3.57-1.57-3.57-4.63,0-3.42,1.48-4.74,3.76-4.74s3.62,1.26,3.62,4.21l-.07,1h-5.94c0,1.93.59,2.94,2.36,2.94C234.46,118.23,236.42,118.06,236.42,118.06Zm-1-3.85c0-2.23-.68-3-2.27-3s-2.39.84-2.41,3Z" fill="#3a3d3f"/><path d="M244.63,111.4v4.31c0,2,.12,2.52,1.29,2.52.51,0,1.61-.11,1.61-.11l.09,1.11a15.71,15.71,0,0,1-1.84.2c-1.86,0-2.49-.7-2.49-3.29V111.4H242v-1.17h1.27v-2.75h1.34v2.75h2.86v1.17Z" fill="#3a3d3f"/><path d="M249.14,119.23V106.31h1.35v4.43a7.57,7.57,0,0,1,2.78-.69c2.46,0,3,1.23,3,4.43v4.75H255v-4.71c0-2.38-.27-3.26-1.93-3.26a7.41,7.41,0,0,0-2.54.54v7.43Z" fill="#3a3d3f"/><path d="M265.64,118.06l0,1.07a31.12,31.12,0,0,1-3.51.29c-2.69,0-3.57-1.57-3.57-4.63,0-3.42,1.48-4.74,3.77-4.74s3.61,1.26,3.61,4.21l-.07,1H260c0,1.93.6,2.94,2.36,2.94C263.68,118.23,265.64,118.06,265.64,118.06Zm-1-3.85c0-2.23-.68-3-2.26-3s-2.4.84-2.42,3Z" fill="#3a3d3f"/><path d="M281.8,111.55a29.33,29.33,0,0,0-3.15-.29c-1.12,0-2,.3-2,1.37,0,.84.44,1.08,2.34,1.4,2.26.38,3.1.83,3.1,2.58,0,2.1-1.33,2.81-3.49,2.81a25,25,0,0,1-3.17-.35l.07-1.17a29.5,29.5,0,0,0,3,.31c1.48,0,2.27-.33,2.27-1.55,0-.94-.47-1.17-2.43-1.48s-3-.7-3-2.5c0-2,1.61-2.63,3.24-2.63a23.19,23.19,0,0,1,3.26.34Z" fill="#3a3d3f"/><path d="M290.83,118.06l0,1.07a31.12,31.12,0,0,1-3.51.29c-2.68,0-3.57-1.57-3.57-4.63,0-3.42,1.48-4.74,3.77-4.74s3.62,1.26,3.62,4.21l-.08,1h-5.94c0,1.93.6,2.94,2.36,2.94C288.87,118.23,290.83,118.06,290.83,118.06Zm-1-3.85c0-2.23-.68-3-2.26-3s-2.4.84-2.42,3Z" fill="#3a3d3f"/><path d="M299.1,110.32l-.06,1.1s-1.44-.16-2.12-.16c-2.07,0-2.63.9-2.63,3.31,0,2.67.41,3.64,2.64,3.64.69,0,2.13-.16,2.13-.16l.05,1.11a23.06,23.06,0,0,1-2.5.26c-2.86,0-3.71-1.32-3.71-4.85,0-3.26,1.06-4.52,3.75-4.52A21.18,21.18,0,0,1,299.1,110.32Z" fill="#3a3d3f"/><path d="M308.1,110.23v9h-1.36v-.63a6,6,0,0,1-2.66.82c-2.52,0-3-1.18-3-4.49v-4.7h1.35v4.68c0,2.49.21,3.3,1.89,3.3a5.4,5.4,0,0,0,2.46-.67v-7.31Z" fill="#3a3d3f"/><path d="M310.69,110.23H312v1.23a10.21,10.21,0,0,1,3.29-1.43v1.37a13,13,0,0,0-3.28,1.23v6.6h-1.34Z" fill="#3a3d3f"/><path d="M316.91,106.63h1.35v1.57h-1.35Zm0,3.6h1.35v9h-1.35Z" fill="#3a3d3f"/><path d="M322.66,111.4v4.31c0,2,.12,2.52,1.29,2.52.51,0,1.6-.11,1.6-.11l.09,1.11a15.44,15.44,0,0,1-1.83.2c-1.86,0-2.49-.7-2.49-3.29V111.4H320v-1.17h1.28v-2.75h1.34v2.75h2.86v1.17Z" fill="#3a3d3f"/><path d="M327.68,110.23l2.25,7.83h.59l2.27-7.83h1.35l-3.74,13h-1.35l1.17-4h-1.34l-2.55-9Z" fill="#3a3d3f"/><path d="M345.64,110.32l-.05,1.1s-1.44-.16-2.13-.16c-2.07,0-2.63.9-2.63,3.31,0,2.67.42,3.64,2.65,3.64.69,0,2.13-.16,2.13-.16l.05,1.11a23.06,23.06,0,0,1-2.5.26c-2.87,0-3.71-1.32-3.71-4.85,0-3.26,1.06-4.52,3.74-4.52A20.89,20.89,0,0,1,345.64,110.32Z" fill="#3a3d3f"/><path d="M355,114.63c0,3.27-.81,4.79-3.85,4.79s-3.85-1.52-3.85-4.79c0-3.1,1-4.58,3.85-4.58S355,111.53,355,114.63Zm-1.38,0c0-2.51-.54-3.41-2.47-3.41s-2.47.9-2.47,3.41.35,3.61,2.47,3.61S353.6,117.18,353.6,114.63Z" fill="#3a3d3f"/><path d="M357.18,119.23v-9h1.33v.63a6.85,6.85,0,0,1,2.79-.81c2.49,0,3,1.23,3,4.43v4.75H363v-4.71c0-2.38-.27-3.26-1.94-3.26a6.12,6.12,0,0,0-2.54.67v7.3Z" fill="#3a3d3f"/><path d="M368.64,111.4v4.31c0,2,.13,2.52,1.3,2.52.51,0,1.6-.11,1.6-.11l.09,1.11a15.44,15.44,0,0,1-1.83.2c-1.86,0-2.49-.7-2.49-3.29V111.4H366v-1.17h1.28v-2.75h1.33v2.75h2.87v1.17Z" fill="#3a3d3f"/><path d="M373.16,110.23h1.33v1.23a10.32,10.32,0,0,1,3.3-1.43v1.37a13,13,0,0,0-3.28,1.23v6.6h-1.35Z" fill="#3a3d3f"/><path d="M386.7,114.63c0,3.27-.81,4.79-3.85,4.79S379,117.9,379,114.63c0-3.1,1-4.58,3.86-4.58S386.7,111.53,386.7,114.63Zm-1.39,0c0-2.51-.54-3.41-2.46-3.41s-2.47.9-2.47,3.41.34,3.61,2.47,3.61S385.31,117.18,385.31,114.63Z" fill="#3a3d3f"/><path d="M389,106.31h1.35v12.92H389Z" fill="#3a3d3f"/><path d="M397,110.23h1.33v.65a6.12,6.12,0,0,1,2.7-.83c2.27,0,3.26,1.39,3.26,4.58,0,3.52-1.15,4.79-3.92,4.79a12,12,0,0,1-2-.2v4H397Zm1.35,1.75v6.07a14.93,14.93,0,0,0,1.95.19c2,0,2.63-1,2.63-3.61s-.78-3.37-2.09-3.37A5.87,5.87,0,0,0,398.36,112Z" fill="#3a3d3f"/><path d="M406.5,110.23h1.33v1.23a10.32,10.32,0,0,1,3.3-1.43v1.37a12.78,12.78,0,0,0-3.28,1.23v6.6H406.5Z" fill="#3a3d3f"/><path d="M420,114.63c0,3.27-.81,4.79-3.86,4.79s-3.85-1.52-3.85-4.79c0-3.1,1-4.58,3.85-4.58S420,111.53,420,114.63Zm-1.39,0c0-2.51-.54-3.41-2.47-3.41s-2.46.9-2.46,3.41.34,3.61,2.46,3.61S418.65,117.18,418.65,114.63Z" fill="#3a3d3f"/><path d="M428.05,110.32l-.06,1.1s-1.44-.16-2.12-.16c-2.07,0-2.63.9-2.63,3.31,0,2.67.41,3.64,2.64,3.64.69,0,2.13-.16,2.13-.16l.05,1.11a23.06,23.06,0,0,1-2.5.26c-2.86,0-3.71-1.32-3.71-4.85,0-3.26,1.06-4.52,3.75-4.52A21.18,21.18,0,0,1,428.05,110.32Z" fill="#3a3d3f"/><path d="M436.72,118.06l0,1.07a31.38,31.38,0,0,1-3.51.29c-2.69,0-3.57-1.57-3.57-4.63,0-3.42,1.48-4.74,3.76-4.74s3.62,1.26,3.62,4.21l-.07,1h-5.94c0,1.93.59,2.94,2.36,2.94C434.76,118.23,436.72,118.06,436.72,118.06Zm-1-3.85c0-2.23-.68-3-2.27-3s-2.39.84-2.41,3Z" fill="#3a3d3f"/><path d="M445.15,111.55a29.33,29.33,0,0,0-3.16-.29c-1.11,0-2,.3-2,1.37,0,.84.43,1.08,2.34,1.4,2.25.38,3.1.83,3.1,2.58,0,2.1-1.33,2.81-3.49,2.81a24.7,24.7,0,0,1-3.17-.35l.07-1.17a29.5,29.5,0,0,0,3,.31c1.48,0,2.27-.33,2.27-1.55,0-.94-.47-1.17-2.43-1.48s-3-.7-3-2.5c0-2,1.6-2.63,3.24-2.63a23.19,23.19,0,0,1,3.26.34Z" fill="#3a3d3f"/><path d="M453.52,111.55a29.33,29.33,0,0,0-3.16-.29c-1.11,0-2,.3-2,1.37,0,.84.43,1.08,2.34,1.4,2.25.38,3.1.83,3.1,2.58,0,2.1-1.33,2.81-3.49,2.81a24.7,24.7,0,0,1-3.17-.35l.07-1.17a29.5,29.5,0,0,0,3,.31c1.48,0,2.27-.33,2.27-1.55,0-.94-.47-1.17-2.43-1.48s-3-.7-3-2.5c0-2,1.6-2.63,3.24-2.63a23.19,23.19,0,0,1,3.26.34Z" fill="#3a3d3f"/><path d="M461.6,119.23h-1.35V111.4h-1.14v-1.17h1.14v-.81c0-2.59.66-3.29,2.43-3.29.61,0,1.81.12,1.81.12v1.12s-1,0-1.55,0c-1,0-1.33.43-1.33,2.11v.79h2.61v1.17H461.6Z" fill="#3a3d3f"/><path d="M472.18,117.56c0,.52.47.72,1.05.79l-.06,1.07a2.76,2.76,0,0,1-2.14-.73,9.1,9.1,0,0,1-3.24.73c-1.64,0-2.54-.94-2.54-2.76s.9-2.48,2.75-2.66l2.83-.28V113c0-1.26-.54-1.71-1.62-1.71-1.26,0-3.4.23-3.4.23l-.06-1a21.6,21.6,0,0,1,3.53-.4c2,0,2.9.94,2.9,2.9Zm-4-2.56c-1.1.11-1.53.63-1.53,1.62s.45,1.66,1.36,1.66a9.48,9.48,0,0,0,2.83-.56v-3Z" fill="#3a3d3f"/><path d="M480.82,111.55a29.33,29.33,0,0,0-3.15-.29c-1.12,0-2,.3-2,1.37,0,.84.43,1.08,2.34,1.4,2.25.38,3.1.83,3.1,2.58,0,2.1-1.34,2.81-3.5,2.81a25,25,0,0,1-3.17-.35l.07-1.17a29.8,29.8,0,0,0,3,.31c1.47,0,2.26-.33,2.26-1.55,0-.94-.46-1.17-2.43-1.48s-3-.7-3-2.5c0-2,1.6-2.63,3.24-2.63a23.19,23.19,0,0,1,3.26.34Z" fill="#3a3d3f"/><path d="M485,111.4v4.31c0,2,.13,2.52,1.3,2.52.5,0,1.6-.11,1.6-.11l.09,1.11a15.44,15.44,0,0,1-1.83.2c-1.86,0-2.49-.7-2.49-3.29V111.4H482.4v-1.17h1.28v-2.75H485v2.75h2.87v1.17Z" fill="#3a3d3f"/><path d="M496.18,118.06l0,1.07a31.12,31.12,0,0,1-3.51.29c-2.68,0-3.56-1.57-3.56-4.63,0-3.42,1.47-4.74,3.76-4.74s3.62,1.26,3.62,4.21l-.07,1H490.5c0,1.93.6,2.94,2.36,2.94C494.21,118.23,496.18,118.06,496.18,118.06Zm-1-3.85c0-2.23-.69-3-2.27-3s-2.4.84-2.41,3Z" fill="#3a3d3f"/><path d="M498.62,110.23H500v1.23a10.32,10.32,0,0,1,3.3-1.43v1.37a13,13,0,0,0-3.28,1.23v6.6h-1.35Z" fill="#3a3d3f"/><path d="M504.76,117.18h1.48v2h-1.48Z" fill="#3a3d3f"/><path d="M1288.78,78.78h3l3.42,12.46h-1.37L1293,88h-5.33l-.9,3.21h-1.37Zm-.85,8h4.72L1290.76,80h-.94Z" fill="#3a3d3f"/><path d="M1302.93,83.55a29.33,29.33,0,0,0-3.15-.29c-1.12,0-2,.3-2,1.37,0,.84.43,1.08,2.34,1.4,2.25.38,3.09.83,3.09,2.58,0,2.1-1.33,2.81-3.49,2.81a25,25,0,0,1-3.17-.35l.07-1.17a29.86,29.86,0,0,0,3,.31c1.48,0,2.27-.33,2.27-1.55,0-.94-.47-1.17-2.43-1.48s-3-.7-3-2.5c0-2,1.6-2.63,3.24-2.63a23.19,23.19,0,0,1,3.26.34Z" fill="#3a3d3f"/><path d="M1313,84.1l3.17-5.32h1.5l-3.84,6.32,3.84,6.14h-1.57L1313,86.07l-3.19,5.17h-1.49l3.85-6.11-3.85-6.35h1.56Z" fill="#3a3d3f"/><path d="M1319.25,85.65h5.46v1.26h-5.46Z" fill="#3a3d3f"/><path d="M1328.83,86.46v4.78h-1.39V78.78h4.61c2.61,0,4,1.15,4,3.78,0,1.83-.72,3.11-2.29,3.62l2.4,5.06h-1.53l-2.25-4.78Zm3.22-6.46h-3.22v5.24h3.24c1.87,0,2.54-1.12,2.54-2.68A2.24,2.24,0,0,0,1332.05,80Z" fill="#3a3d3f"/><path d="M1344.65,89.56c0,.52.47.72,1,.79l-.06,1.07a2.72,2.72,0,0,1-2.14-.73,9.1,9.1,0,0,1-3.24.73c-1.64,0-2.54-.94-2.54-2.76s.9-2.48,2.76-2.66l2.82-.27V85c0-1.26-.54-1.71-1.62-1.71-1.26,0-3.4.23-3.4.23l0-1a21.57,21.57,0,0,1,3.52-.4c2,0,2.9.94,2.9,2.9Zm-4-2.56c-1.1.11-1.53.63-1.53,1.62s.45,1.66,1.37,1.66a9.47,9.47,0,0,0,2.82-.56v-3Z" fill="#3a3d3f"/><path d="M1347.82,82.23l2.25,7.83h.59l2.27-7.83h1.35l-3.74,13h-1.35l1.17-4H1349l-2.56-9Z" fill="#3a3d3f"/><path d="M1360,91.24v-9h1.33v.63a6,6,0,0,1,2.63-.81,2.53,2.53,0,0,1,2.34.92,7.46,7.46,0,0,1,3.2-.92c2.45,0,3,1.17,3,4.43v4.76h-1.35V86.52c0-2.38-.27-3.26-1.89-3.26a5.89,5.89,0,0,0-2.54.67,10.25,10.25,0,0,1,.23,2.62v4.69h-1.35V86.59c0-2.49-.25-3.33-1.89-3.33a5.34,5.34,0,0,0-2.41.67v7.31Z" fill="#3a3d3f"/><path d="M1381.37,89.56c0,.52.47.72,1.05.79l-.06,1.07a2.72,2.72,0,0,1-2.14-.73,9.1,9.1,0,0,1-3.24.73c-1.64,0-2.54-.94-2.54-2.76s.9-2.48,2.75-2.66l2.83-.27V85c0-1.26-.54-1.71-1.62-1.71-1.26,0-3.4.23-3.4.23l-.06-1a21.6,21.6,0,0,1,3.53-.4c2,0,2.9.94,2.9,2.9Zm-4-2.56c-1.1.11-1.53.63-1.53,1.62s.45,1.66,1.36,1.66a9.48,9.48,0,0,0,2.83-.56v-3Z" fill="#3a3d3f"/><path d="M1389.85,82.32l-.06,1.1s-1.43-.16-2.12-.16c-2.07,0-2.63.9-2.63,3.31,0,2.67.42,3.64,2.65,3.64.68,0,2.12-.16,2.12-.16l.06,1.11a23.34,23.34,0,0,1-2.51.26c-2.86,0-3.7-1.32-3.7-4.85,0-3.26,1.06-4.52,3.74-4.52A20.89,20.89,0,0,1,1389.85,82.32Z" fill="#3a3d3f"/><path d="M1391.88,91.24V78.31h1.35v4.43a7.55,7.55,0,0,1,2.77-.69c2.47,0,3,1.23,3,4.43v4.76h-1.35V86.52c0-2.38-.27-3.26-1.93-3.26a7.41,7.41,0,0,0-2.54.54v7.44Z" fill="#3a3d3f"/><path d="M1401.55,78.63h1.35V80.2h-1.35Zm0,3.6h1.35v9h-1.35Z" fill="#3a3d3f"/><path d="M1405.49,91.24v-9h1.33v.63a6.85,6.85,0,0,1,2.79-.81c2.49,0,3.05,1.23,3.05,4.43v4.76h-1.34V86.52c0-2.38-.27-3.26-1.94-3.26a6.12,6.12,0,0,0-2.54.67v7.31Z" fill="#3a3d3f"/><path d="M1421.8,90.06l0,1.07a31.4,31.4,0,0,1-3.52.29c-2.68,0-3.56-1.57-3.56-4.63,0-3.42,1.48-4.74,3.76-4.74s3.62,1.26,3.62,4.22l-.07,1h-5.94c0,1.93.59,2.94,2.36,2.94C1419.84,90.23,1421.8,90.06,1421.8,90.06Zm-1-3.85c0-2.23-.68-3-2.27-3s-2.39.84-2.41,3Z" fill="#3a3d3f"/><path d="M1434.56,89.56c0,.52.47.72,1,.79l-.06,1.07a2.72,2.72,0,0,1-2.14-.73,9.1,9.1,0,0,1-3.24.73c-1.64,0-2.54-.94-2.54-2.76s.9-2.48,2.75-2.66l2.83-.27V85c0-1.26-.54-1.71-1.62-1.71-1.26,0-3.4.23-3.4.23l-.06-1a21.6,21.6,0,0,1,3.53-.4c2,0,2.9.94,2.9,2.9Zm-4-2.56c-1.1.11-1.53.63-1.53,1.62s.45,1.66,1.36,1.66a9.48,9.48,0,0,0,2.83-.56v-3Z" fill="#3a3d3f"/><path d="M1437.33,78.31h1.35V91.24h-1.35Z" fill="#3a3d3f"/><path d="M1448.69,86.63c0,3.27-.81,4.79-3.85,4.79S1441,89.9,1441,86.63c0-3.1,1-4.58,3.85-4.58S1448.69,83.53,1448.69,86.63Zm-1.39,0c0-2.51-.54-3.41-2.46-3.41s-2.47.9-2.47,3.41.34,3.62,2.47,3.62S1447.3,89.18,1447.3,86.63Z" fill="#3a3d3f"/><path d="M1450.88,91.24v-9h1.34v.63a6.85,6.85,0,0,1,2.79-.81c2.48,0,3,1.23,3,4.43v4.76h-1.33V86.52c0-2.38-.27-3.26-2-3.26a6.11,6.11,0,0,0-2.53.67v7.31Z" fill="#3a3d3f"/><path d="M1467.2,90.06l0,1.07a31.12,31.12,0,0,1-3.51.29c-2.68,0-3.56-1.57-3.56-4.63,0-3.42,1.47-4.74,3.76-4.74s3.62,1.26,3.62,4.22l-.08,1h-5.94c0,1.93.6,2.94,2.36,2.94C1465.23,90.23,1467.2,90.06,1467.2,90.06Zm-1-3.85c0-2.23-.69-3-2.27-3s-2.4.84-2.41,3Z" fill="#3a3d3f"/><path d="M1479.42,82.32l-.06,1.1s-1.44-.16-2.12-.16c-2.07,0-2.63.9-2.63,3.31,0,2.67.41,3.64,2.65,3.64.68,0,2.12-.16,2.12-.16l0,1.11a23.06,23.06,0,0,1-2.5.26c-2.86,0-3.71-1.32-3.71-4.85,0-3.26,1.06-4.52,3.75-4.52A20.89,20.89,0,0,1,1479.42,82.32Z" fill="#3a3d3f"/><path d="M1487.8,89.56c0,.52.47.72,1,.79l-.06,1.07a2.72,2.72,0,0,1-2.14-.73,9.1,9.1,0,0,1-3.24.73c-1.64,0-2.54-.94-2.54-2.76s.9-2.48,2.76-2.66l2.82-.27V85c0-1.26-.54-1.71-1.62-1.71-1.26,0-3.4.23-3.4.23l0-1a21.6,21.6,0,0,1,3.53-.4c2,0,2.89.94,2.89,2.9Zm-4-2.56c-1.1.11-1.53.63-1.53,1.62s.45,1.66,1.37,1.66a9.47,9.47,0,0,0,2.82-.56v-3Z" fill="#3a3d3f"/><path d="M1490.47,91.24v-9h1.33v.63a6.85,6.85,0,0,1,2.79-.81c2.48,0,3,1.23,3,4.43v4.76h-1.33V86.52c0-2.38-.27-3.26-1.94-3.26a6.12,6.12,0,0,0-2.54.67v7.31Z" fill="#3a3d3f"/><path d="M1500.13,91.24v-9h1.33v.63a6.86,6.86,0,0,1,2.8-.81c2.48,0,3,1.23,3,4.43v4.76H1506V86.52c0-2.38-.27-3.26-2-3.26a6.12,6.12,0,0,0-2.54.67v7.31Z" fill="#3a3d3f"/><path d="M1517.11,86.63c0,3.27-.81,4.79-3.85,4.79s-3.86-1.52-3.86-4.79c0-3.1,1-4.58,3.86-4.58S1517.11,83.53,1517.11,86.63Zm-1.39,0c0-2.51-.54-3.41-2.46-3.41s-2.47.9-2.47,3.41.34,3.62,2.47,3.62S1515.72,89.18,1515.72,86.63Z" fill="#3a3d3f"/><path d="M1521.1,83.4v4.31c0,2,.13,2.52,1.3,2.52.5,0,1.6-.11,1.6-.11l.09,1.12a16.21,16.21,0,0,1-1.84.19c-1.85,0-2.48-.7-2.48-3.29V83.4h-1.28V82.23h1.28V79.48h1.33v2.75H1524V83.4Z" fill="#3a3d3f"/><path d="M1529.58,91.24V78.31h1.35v4.43a7.55,7.55,0,0,1,2.77-.69c2.47,0,3,1.23,3,4.43v4.76h-1.35V86.52c0-2.38-.27-3.26-1.93-3.26a7.41,7.41,0,0,0-2.54.54v7.44Z" fill="#3a3d3f"/><path d="M1545.6,89.56c0,.52.47.72,1.05.79l-.06,1.07a2.72,2.72,0,0,1-2.14-.73,9.1,9.1,0,0,1-3.24.73c-1.64,0-2.54-.94-2.54-2.76s.9-2.48,2.75-2.66l2.83-.27V85c0-1.26-.54-1.71-1.62-1.71-1.26,0-3.4.23-3.4.23l-.06-1a21.77,21.77,0,0,1,3.53-.4c2,0,2.9.94,2.9,2.9Zm-4-2.56c-1.1.11-1.53.63-1.53,1.62s.45,1.66,1.36,1.66a9.48,9.48,0,0,0,2.83-.56v-3Z" fill="#3a3d3f"/><path d="M1548.26,91.24v-9h1.34v.63a6.79,6.79,0,0,1,2.79-.81c2.48,0,3,1.23,3,4.43v4.76h-1.33V86.52c0-2.38-.27-3.26-1.95-3.26a6.18,6.18,0,0,0-2.54.67v7.31Z" fill="#3a3d3f"/><path d="M1564.84,91.24h-1.33v-.62a6.42,6.42,0,0,1-2.73.8c-1.77,0-3.25-.73-3.25-4.61,0-3.17,1-4.76,3.77-4.76a14.12,14.12,0,0,1,2.21.24v-4h1.33Zm-1.33-1.7v-6.1a15.75,15.75,0,0,0-2.14-.22c-1.89,0-2.45,1.25-2.45,3.59,0,2.91.95,3.4,2,3.4A6.47,6.47,0,0,0,1563.51,89.54Z" fill="#3a3d3f"/><path d="M1567.56,78.31h1.35V91.24h-1.35Z" fill="#3a3d3f"/><path d="M1578.25,90.06l0,1.07a31.12,31.12,0,0,1-3.51.29c-2.68,0-3.57-1.57-3.57-4.63,0-3.42,1.48-4.74,3.77-4.74s3.62,1.26,3.62,4.22l-.08,1h-5.94c0,1.93.6,2.94,2.36,2.94C1576.29,90.23,1578.25,90.06,1578.25,90.06Zm-1-3.85c0-2.23-.68-3-2.26-3s-2.4.84-2.42,3Z" fill="#3a3d3f"/><path d="M1586.46,83.4v4.31c0,2,.13,2.52,1.3,2.52.5,0,1.6-.11,1.6-.11l.09,1.12a16.5,16.5,0,0,1-1.84.19c-1.85,0-2.48-.7-2.48-3.29V83.4h-1.28V82.23h1.28V79.48h1.33v2.75h2.86V83.4Z" fill="#3a3d3f"/><path d="M1591,91.24V78.31h1.35v4.43a7.55,7.55,0,0,1,2.77-.69c2.47,0,3,1.23,3,4.43v4.76h-1.35V86.52c0-2.38-.27-3.26-1.92-3.26a7.41,7.41,0,0,0-2.54.54v7.44Z" fill="#3a3d3f"/><path d="M1607.29,90.06l0,1.07a31.12,31.12,0,0,1-3.51.29c-2.68,0-3.56-1.57-3.56-4.63,0-3.42,1.47-4.74,3.76-4.74s3.62,1.26,3.62,4.22l-.07,1h-5.94c0,1.93.59,2.94,2.35,2.94C1605.32,90.23,1607.29,90.06,1607.29,90.06Zm-1-3.85c0-2.23-.68-3-2.27-3s-2.39.84-2.41,3Z" fill="#3a3d3f"/><path d="M1613.69,82.23H1615v1.23a10.21,10.21,0,0,1,3.29-1.43V83.4a13.41,13.41,0,0,0-3.28,1.23v6.61h-1.35Z" fill="#3a3d3f"/><path d="M1626.57,90.06l0,1.07a31.12,31.12,0,0,1-3.51.29c-2.68,0-3.56-1.57-3.56-4.63,0-3.42,1.47-4.74,3.76-4.74s3.62,1.26,3.62,4.22l-.07,1h-5.95c0,1.93.6,2.94,2.36,2.94C1624.6,90.23,1626.57,90.06,1626.57,90.06Zm-1-3.85c0-2.23-.69-3-2.27-3s-2.4.84-2.41,3Z" fill="#3a3d3f"/><path d="M1628.62,86.88c0-3.55,1.08-4.83,4.24-4.83.94,0,3,.18,3,.18v13h-1.33V90.82a6.8,6.8,0,0,1-2.54.6C1629.55,91.42,1628.62,90.06,1628.62,86.88Zm1.36,0c0,2.25.58,3.33,2.16,3.33a6.6,6.6,0,0,0,2.4-.52V83.33s-1.12-.11-1.66-.11C1630.52,83.22,1630,84.39,1630,86.88Z" fill="#3a3d3f"/><path d="M1645.45,82.23v9h-1.35V90.6a6,6,0,0,1-2.67.82c-2.52,0-3-1.17-3-4.49v-4.7h1.35v4.68c0,2.49.21,3.3,1.89,3.3a5.47,5.47,0,0,0,2.47-.67V82.23Z" fill="#3a3d3f"/><path d="M1648,78.63h1.35V80.2H1648Zm0,3.6h1.35v9H1648Z" fill="#3a3d3f"/><path d="M1652,82.23h1.33v1.23a10.32,10.32,0,0,1,3.3-1.43V83.4a13.21,13.21,0,0,0-3.28,1.23v6.61H1652Z" fill="#3a3d3f"/><path d="M1664.85,90.06l0,1.07a31.4,31.4,0,0,1-3.52.29c-2.68,0-3.56-1.57-3.56-4.63,0-3.42,1.48-4.74,3.76-4.74s3.62,1.26,3.62,4.22l-.07,1h-5.94c0,1.93.59,2.94,2.36,2.94C1662.89,90.23,1664.85,90.06,1664.85,90.06Zm-1-3.85c0-2.23-.68-3-2.27-3s-2.39.84-2.41,3Z" fill="#3a3d3f"/><path d="M1674.21,91.24h-1.33v-.62a6.44,6.44,0,0,1-2.74.8c-1.76,0-3.24-.73-3.24-4.61,0-3.17,1-4.76,3.76-4.76a14.13,14.13,0,0,1,2.22.24v-4h1.33Zm-1.33-1.7v-6.1a15.93,15.93,0,0,0-2.15-.22c-1.89,0-2.44,1.25-2.44,3.59,0,2.91,1,3.4,2,3.4A6.54,6.54,0,0,0,1672.88,89.54Z" fill="#3a3d3f"/><path d="M1687.13,89.56c0,.52.47.72,1,.79l-.06,1.07a2.72,2.72,0,0,1-2.14-.73,9.1,9.1,0,0,1-3.24.73c-1.64,0-2.54-.94-2.54-2.76s.9-2.48,2.75-2.66l2.83-.27V85c0-1.26-.54-1.71-1.62-1.71-1.26,0-3.4.23-3.4.23l-.06-1a21.77,21.77,0,0,1,3.53-.4c2,0,2.9.94,2.9,2.9Zm-4-2.56c-1.1.11-1.53.63-1.53,1.62s.45,1.66,1.36,1.66a9.48,9.48,0,0,0,2.83-.56v-3Z" fill="#3a3d3f"/><path d="M1689.79,91.24v-9h1.34v.63a6,6,0,0,1,2.63-.81,2.54,2.54,0,0,1,2.34.92,7.46,7.46,0,0,1,3.2-.92c2.45,0,3,1.17,3,4.43v4.76H1701V86.52c0-2.38-.27-3.26-1.89-3.26a6,6,0,0,0-2.54.67,9.71,9.71,0,0,1,.24,2.62v4.69h-1.35V86.59c0-2.49-.25-3.33-1.89-3.33a5.4,5.4,0,0,0-2.42.67v7.31Z" fill="#3a3d3f"/><path d="M1712.15,86.63c0,3.27-.81,4.79-3.85,4.79s-3.85-1.52-3.85-4.79c0-3.1,1-4.58,3.85-4.58S1712.15,83.53,1712.15,86.63Zm-1.38,0c0-2.51-.54-3.41-2.47-3.41s-2.47.9-2.47,3.41.34,3.62,2.47,3.62S1710.77,89.18,1710.77,86.63Z" fill="#3a3d3f"/><path d="M1721.31,82.23v9H1720V90.6a6,6,0,0,1-2.66.82c-2.52,0-3-1.17-3-4.49v-4.7h1.35v4.68c0,2.49.21,3.3,1.89,3.3a5.4,5.4,0,0,0,2.46-.67V82.23Z" fill="#3a3d3f"/><path d="M1723.9,91.24v-9h1.34v.63a6.79,6.79,0,0,1,2.79-.81c2.48,0,3,1.23,3,4.43v4.76h-1.33V86.52c0-2.38-.27-3.26-2-3.26a6.18,6.18,0,0,0-2.54.67v7.31Z" fill="#3a3d3f"/><path d="M1735.37,83.4v4.31c0,2,.13,2.52,1.3,2.52.5,0,1.6-.11,1.6-.11l.09,1.12a16.5,16.5,0,0,1-1.84.19c-1.85,0-2.48-.7-2.48-3.29V83.4h-1.28V82.23H1734V79.48h1.33v2.75h2.86V83.4Z" fill="#3a3d3f"/><path d="M1292.58,117.56c0,.52.47.72,1,.79l0,1.07a2.72,2.72,0,0,1-2.14-.73,9.1,9.1,0,0,1-3.24.73c-1.64,0-2.54-.94-2.54-2.76s.9-2.48,2.75-2.66l2.83-.27V113c0-1.26-.54-1.71-1.62-1.71-1.26,0-3.4.23-3.4.23l-.06-1a21.6,21.6,0,0,1,3.53-.4c2,0,2.9.94,2.9,2.9Zm-4-2.56c-1.09.11-1.53.63-1.53,1.62s.45,1.66,1.37,1.66a9.48,9.48,0,0,0,2.83-.56v-3Z" fill="#3a3d3f"/><path d="M1295.35,106.31h1.35v12.93h-1.35Z" fill="#3a3d3f"/><path d="M1306.71,114.63c0,3.27-.81,4.79-3.85,4.79s-3.86-1.52-3.86-4.79c0-3.1,1-4.58,3.86-4.58S1306.71,111.53,1306.71,114.63Zm-1.39,0c0-2.51-.54-3.41-2.46-3.41s-2.47.9-2.47,3.41.34,3.62,2.47,3.62S1305.32,117.18,1305.32,114.63Z" fill="#3a3d3f"/><path d="M1308.9,119.24v-9h1.34v.63a6.79,6.79,0,0,1,2.79-.81c2.48,0,3,1.23,3,4.43v4.76h-1.33v-4.72c0-2.38-.27-3.26-2-3.26a6.18,6.18,0,0,0-2.54.67v7.31Z" fill="#3a3d3f"/><path d="M1325.21,118.06l0,1.07a31.12,31.12,0,0,1-3.51.29c-2.68,0-3.57-1.57-3.57-4.63,0-3.42,1.48-4.74,3.77-4.74s3.62,1.26,3.62,4.22l-.08,1h-5.94c0,1.93.6,2.94,2.36,2.94C1323.25,118.23,1325.21,118.06,1325.21,118.06Zm-1-3.85c0-2.23-.68-3-2.26-3s-2.4.84-2.42,3Z" fill="#3a3d3f"/><path d="M1327.8,117.31h1.5l-1.21,4.14H1327Z" fill="#3a3d3f"/><path d="M1335.58,119.24v-1.18l3.47-3.65c1.48-1.53,2.4-2.5,2.4-3.91,0-1.58-.88-2.09-2.59-2.09a17.06,17.06,0,0,0-3.08.4l-.11-1.15a14.3,14.3,0,0,1,3.44-.49c2.5,0,3.76,1,3.76,3.19,0,1.78-.81,2.82-2.48,4.45l-3.17,3.22h6v1.21Z" fill="#3a3d3f"/><path d="M1355.49,110.32l0,1.1s-1.45-.16-2.13-.16c-2.07,0-2.63.9-2.63,3.31,0,2.67.42,3.64,2.65,3.64.68,0,2.12-.16,2.12-.16l.06,1.11a23.34,23.34,0,0,1-2.51.26c-2.86,0-3.71-1.32-3.71-4.85,0-3.26,1.07-4.52,3.75-4.52A20.89,20.89,0,0,1,1355.49,110.32Z" fill="#3a3d3f"/><path d="M1364.83,114.63c0,3.27-.81,4.79-3.85,4.79s-3.86-1.52-3.86-4.79c0-3.1,1-4.58,3.86-4.58S1364.83,111.53,1364.83,114.63Zm-1.39,0c0-2.51-.54-3.41-2.46-3.41s-2.47.9-2.47,3.41.34,3.62,2.47,3.62S1363.44,117.18,1363.44,114.63Z" fill="#3a3d3f"/><path d="M1367.13,106.31h1.35v12.93h-1.35Z" fill="#3a3d3f"/><path d="M1371.29,106.31h1.35v12.93h-1.35Z" fill="#3a3d3f"/><path d="M1382,118.06l0,1.07a31.12,31.12,0,0,1-3.51.29c-2.68,0-3.56-1.57-3.56-4.63,0-3.42,1.47-4.74,3.76-4.74s3.62,1.26,3.62,4.22l-.07,1h-6c0,1.93.6,2.94,2.36,2.94C1380,118.23,1382,118.06,1382,118.06Zm-1-3.85c0-2.23-.69-3-2.27-3s-2.4.84-2.41,3Z" fill="#3a3d3f"/><path d="M1390.79,117.56c0,.52.46.72,1,.79l0,1.07a2.73,2.73,0,0,1-2.15-.73,9.1,9.1,0,0,1-3.24.73c-1.64,0-2.53-.94-2.53-2.76s.89-2.48,2.75-2.66l2.83-.27V113c0-1.26-.54-1.71-1.62-1.71-1.26,0-3.41.23-3.41.23l-.05-1a21.6,21.6,0,0,1,3.53-.4c2,0,2.9.94,2.9,2.9Zm-4-2.56c-1.1.11-1.53.63-1.53,1.62s.45,1.66,1.37,1.66a9.57,9.57,0,0,0,2.83-.56v-3Z" fill="#3a3d3f"/><path d="M1393.05,120.75c0-1,.49-1.53,1.42-2.24a1.46,1.46,0,0,1-.5-1.24,5.82,5.82,0,0,1,.61-1.42c-.75-.34-1.42-1.06-1.42-2.72,0-2.21,1.37-3.08,3.37-3.08a9.07,9.07,0,0,1,1.87.24l2.67-.08v1.16l-1.72,0a2.31,2.31,0,0,1,.6,1.8c0,2.34-1.17,3-3.48,3a6.79,6.79,0,0,1-.88-.07,5.32,5.32,0,0,0-.32,1c0,.72.14.83,2.18.83,2.55,0,3.47.5,3.47,2.64s-1.46,2.87-4,2.87C1394.08,123.47,1393.05,122.84,1393.05,120.75Zm2.34-1.7c-.75.56-1,.89-1,1.59,0,1.24.53,1.69,2.56,1.69,1.8,0,2.61-.48,2.61-1.67,0-1.37-.57-1.51-2.21-1.51C1396.71,119.15,1395.39,119.05,1395.39,119.05Zm3.21-5.92c0-1.42-.56-2-2.07-2s-2,.56-2,2,.61,2,2,2S1398.6,114.55,1398.6,113.13Z" fill="#3a3d3f"/><path d="M1409.67,110.23v9h-1.35v-.64a6,6,0,0,1-2.67.82c-2.52,0-3-1.17-3-4.49v-4.7H1404v4.68c0,2.49.22,3.3,1.89,3.3a5.47,5.47,0,0,0,2.47-.67v-7.31Z" fill="#3a3d3f"/><path d="M1418.9,118.06l0,1.07a31.12,31.12,0,0,1-3.51.29c-2.69,0-3.57-1.57-3.57-4.63,0-3.42,1.48-4.74,3.76-4.74s3.62,1.26,3.62,4.22l-.07,1h-5.94c0,1.93.59,2.94,2.36,2.94C1416.94,118.23,1418.9,118.06,1418.9,118.06Zm-1-3.85c0-2.23-.68-3-2.27-3s-2.39.84-2.41,3Z" fill="#3a3d3f"/><path d="M1427.33,111.55a29.33,29.33,0,0,0-3.16-.29c-1.11,0-2,.3-2,1.37,0,.84.43,1.08,2.34,1.4,2.25.38,3.1.83,3.1,2.58,0,2.1-1.33,2.81-3.49,2.81a24.7,24.7,0,0,1-3.17-.35l.07-1.17a29.5,29.5,0,0,0,3,.31c1.48,0,2.27-.33,2.27-1.55,0-.94-.47-1.17-2.43-1.48s-3-.7-3-2.5c0-2,1.6-2.63,3.24-2.63a23.19,23.19,0,0,1,3.26.34Z" fill="#3a3d3f"/><path d="M1439.49,110.32l0,1.1s-1.44-.16-2.12-.16c-2.08,0-2.63.9-2.63,3.31,0,2.67.41,3.64,2.64,3.64.69,0,2.13-.16,2.13-.16l0,1.11a23.06,23.06,0,0,1-2.5.26c-2.86,0-3.71-1.32-3.71-4.85,0-3.26,1.06-4.52,3.74-4.52A20.89,20.89,0,0,1,1439.49,110.32Z" fill="#3a3d3f"/><path d="M1447.88,117.56c0,.52.47.72,1,.79l-.06,1.07a2.72,2.72,0,0,1-2.14-.73,9.1,9.1,0,0,1-3.24.73c-1.64,0-2.54-.94-2.54-2.76s.9-2.48,2.75-2.66l2.83-.27V113c0-1.26-.54-1.71-1.62-1.71-1.26,0-3.4.23-3.4.23l-.06-1a21.6,21.6,0,0,1,3.53-.4c2,0,2.9.94,2.9,2.9Zm-4-2.56c-1.1.11-1.53.63-1.53,1.62s.45,1.66,1.36,1.66a9.48,9.48,0,0,0,2.83-.56v-3Z" fill="#3a3d3f"/><path d="M1450.54,119.24v-9h1.34v.63a6.79,6.79,0,0,1,2.79-.81c2.48,0,3,1.23,3,4.43v4.76h-1.33v-4.72c0-2.38-.27-3.26-2-3.26a6.18,6.18,0,0,0-2.54.67v7.31Z" fill="#3a3d3f"/><path d="M1464.78,110.23l1.82,7.83h.29l2.14-7.65h1.41l2.14,7.65h.3l1.8-7.83H1476l-2.14,9h-2.25l-1.91-7-1.91,7h-2.25l-2.14-9Z" fill="#3a3d3f"/><path d="M1485.2,114.63c0,3.27-.82,4.79-3.86,4.79s-3.85-1.52-3.85-4.79c0-3.1,1-4.58,3.85-4.58S1485.2,111.53,1485.2,114.63Zm-1.39,0c0-2.51-.54-3.41-2.47-3.41s-2.46.9-2.46,3.41.34,3.62,2.46,3.62S1483.81,117.18,1483.81,114.63Z" fill="#3a3d3f"/><path d="M1487.39,110.23h1.33v1.23A10.32,10.32,0,0,1,1492,110v1.37a13.21,13.21,0,0,0-3.28,1.23v6.61h-1.35Z" fill="#3a3d3f"/><path d="M1493.62,119.24V106.31H1495v7.63l1.4-.07,2.58-3.64h1.53l-2.94,4.14,3.06,4.87h-1.53l-2.68-4.18-1.42,0v4.13Z" fill="#3a3d3f"/><path d="M1508,111.4v4.31c0,2,.12,2.52,1.3,2.52.5,0,1.6-.11,1.6-.11l.09,1.12a16.5,16.5,0,0,1-1.84.19c-1.85,0-2.48-.7-2.48-3.29V111.4h-1.28v-1.17h1.28v-2.75H1508v2.75h2.86v1.17Z" fill="#3a3d3f"/><path d="M1519.83,114.63c0,3.27-.81,4.79-3.86,4.79s-3.85-1.52-3.85-4.79c0-3.1,1-4.58,3.85-4.58S1519.83,111.53,1519.83,114.63Zm-1.39,0c0-2.51-.54-3.41-2.47-3.41s-2.46.9-2.46,3.41.34,3.62,2.46,3.62S1518.44,117.18,1518.44,114.63Z" fill="#3a3d3f"/><path d="M1521.62,120.75c0-1,.49-1.53,1.43-2.24a1.43,1.43,0,0,1-.51-1.24,5.78,5.78,0,0,1,.62-1.42c-.76-.34-1.43-1.06-1.43-2.72,0-2.21,1.37-3.08,3.37-3.08a9.07,9.07,0,0,1,1.87.24l2.67-.08v1.16l-1.71,0a2.35,2.35,0,0,1,.59,1.8c0,2.34-1.17,3-3.47,3a6.94,6.94,0,0,1-.89-.07,5.32,5.32,0,0,0-.32,1c0,.72.14.83,2.18.83,2.55,0,3.47.5,3.47,2.64s-1.46,2.87-4,2.87C1522.65,123.47,1521.62,122.84,1521.62,120.75Zm2.35-1.7c-.76.56-1,.89-1,1.59,0,1.24.52,1.69,2.55,1.69,1.8,0,2.61-.48,2.61-1.67,0-1.37-.57-1.51-2.21-1.51C1525.28,119.15,1524,119.05,1524,119.05Zm3.2-5.92c0-1.42-.56-2-2.07-2s-2,.56-2,2,.62,2,2,2S1527.17,114.55,1527.17,113.13Z" fill="#3a3d3f"/><path d="M1537.92,118.06l0,1.07a31.12,31.12,0,0,1-3.51.29c-2.68,0-3.56-1.57-3.56-4.63,0-3.42,1.47-4.74,3.76-4.74s3.62,1.26,3.62,4.22l-.07,1h-6c0,1.93.6,2.94,2.36,2.94C1536,118.23,1537.92,118.06,1537.92,118.06Zm-1-3.85c0-2.23-.69-3-2.27-3s-2.4.84-2.41,3Z" fill="#3a3d3f"/><path d="M1542.16,111.4v4.31c0,2,.13,2.52,1.3,2.52.5,0,1.6-.11,1.6-.11l.09,1.12a16.23,16.23,0,0,1-1.83.19c-1.86,0-2.49-.7-2.49-3.29V111.4h-1.28v-1.17h1.28v-2.75h1.33v2.75H1545v1.17Z" fill="#3a3d3f"/><path d="M1546.68,119.24V106.31H1548v4.43a7.55,7.55,0,0,1,2.77-.69c2.47,0,3,1.23,3,4.43v4.76h-1.35v-4.72c0-2.38-.27-3.26-1.93-3.26a7.41,7.41,0,0,0-2.54.54v7.44Z" fill="#3a3d3f"/><path d="M1563,118.06l0,1.07a31.38,31.38,0,0,1-3.51.29c-2.69,0-3.57-1.57-3.57-4.63,0-3.42,1.48-4.74,3.76-4.74s3.62,1.26,3.62,4.22l-.07,1h-5.94c0,1.93.59,2.94,2.36,2.94C1561,118.23,1563,118.06,1563,118.06Zm-1-3.85c0-2.23-.68-3-2.27-3s-2.39.84-2.41,3Z" fill="#3a3d3f"/><path d="M1565.44,110.23h1.33v1.23a10.34,10.34,0,0,1,3.29-1.43v1.37a13.24,13.24,0,0,0-3.27,1.23v6.61h-1.35Z" fill="#3a3d3f"/><path d="M1577.42,111.4v4.31c0,2,.13,2.52,1.3,2.52.51,0,1.6-.11,1.6-.11l.09,1.12a16.23,16.23,0,0,1-1.83.19c-1.86,0-2.49-.7-2.49-3.29V111.4h-1.28v-1.17h1.28v-2.75h1.33v2.75h2.87v1.17Z" fill="#3a3d3f"/><path d="M1589.25,114.63c0,3.27-.81,4.79-3.85,4.79s-3.85-1.52-3.85-4.79c0-3.1,1-4.58,3.85-4.58S1589.25,111.53,1589.25,114.63Zm-1.38,0c0-2.51-.54-3.41-2.47-3.41s-2.47.9-2.47,3.41.35,3.62,2.47,3.62S1587.87,117.18,1587.87,114.63Z" fill="#3a3d3f"/><path d="M1601.38,111.55a29,29,0,0,0-3.15-.29c-1.11,0-2,.3-2,1.37,0,.84.43,1.08,2.34,1.4,2.25.38,3.1.83,3.1,2.58,0,2.1-1.33,2.81-3.49,2.81a24.7,24.7,0,0,1-3.17-.35l.07-1.17a29.5,29.5,0,0,0,3,.31c1.48,0,2.27-.33,2.27-1.55,0-.94-.47-1.17-2.43-1.48s-3-.7-3-2.5c0-2,1.6-2.63,3.24-2.63a23.19,23.19,0,0,1,3.26.34Z" fill="#3a3d3f"/><path d="M1609.59,110.32l0,1.1s-1.44-.16-2.13-.16c-2.07,0-2.63.9-2.63,3.31,0,2.67.42,3.64,2.65,3.64.69,0,2.13-.16,2.13-.16l0,1.11a23.06,23.06,0,0,1-2.5.26c-2.87,0-3.71-1.32-3.71-4.85,0-3.26,1.06-4.52,3.74-4.52A20.89,20.89,0,0,1,1609.59,110.32Z" fill="#3a3d3f"/><path d="M1618,117.56c0,.52.47.72,1,.79l0,1.07a2.72,2.72,0,0,1-2.14-.73,9.1,9.1,0,0,1-3.24.73c-1.64,0-2.54-.94-2.54-2.76s.9-2.48,2.75-2.66l2.83-.27V113c0-1.26-.54-1.71-1.62-1.71-1.26,0-3.4.23-3.4.23l-.06-1a21.6,21.6,0,0,1,3.53-.4c2,0,2.9.94,2.9,2.9Zm-4-2.56c-1.09.11-1.53.63-1.53,1.62s.45,1.66,1.37,1.66a9.48,9.48,0,0,0,2.83-.56v-3Z" fill="#3a3d3f"/><path d="M1620.64,119.24v-9H1622v.63a6.86,6.86,0,0,1,2.8-.81c2.48,0,3,1.23,3,4.43v4.76h-1.33v-4.72c0-2.38-.27-3.26-2-3.26a6.12,6.12,0,0,0-2.54.67v7.31Z" fill="#3a3d3f"/><path d="M1636.07,111.4v4.31c0,2,.12,2.52,1.3,2.52.5,0,1.6-.11,1.6-.11l.09,1.12a16.5,16.5,0,0,1-1.84.19c-1.85,0-2.48-.7-2.48-3.29V111.4h-1.28v-1.17h1.28v-2.75h1.33v2.75h2.86v1.17Z" fill="#3a3d3f"/><path d="M1640.59,119.24V106.31h1.35v4.43a7.55,7.55,0,0,1,2.77-.69c2.47,0,3,1.23,3,4.43v4.76h-1.35v-4.72c0-2.38-.27-3.26-1.92-3.26a7.41,7.41,0,0,0-2.54.54v7.44Z" fill="#3a3d3f"/><path d="M1656.9,118.06l0,1.07a31.12,31.12,0,0,1-3.51.29c-2.68,0-3.56-1.57-3.56-4.63,0-3.42,1.47-4.74,3.76-4.74s3.62,1.26,3.62,4.22l-.07,1h-6c0,1.93.6,2.94,2.36,2.94C1654.93,118.23,1656.9,118.06,1656.9,118.06Zm-1-3.85c0-2.23-.69-3-2.27-3s-2.4.84-2.41,3Z" fill="#3a3d3f"/><path d="M1670.56,114.59c0,3.58-1,4.83-4.25,4.83-1.08,0-3-.2-3-.2V106.31h1.33v4.37a7.44,7.44,0,0,1,2.65-.63C1669.73,110.05,1670.56,111.35,1670.56,114.59Zm-1.37,0c0-2.32-.47-3.33-2-3.33a7.59,7.59,0,0,0-2.51.52v6.34s1.17.09,1.66.09C1668.76,118.21,1669.19,117.11,1669.19,114.59Z" fill="#3a3d3f"/><path d="M1679.13,117.56c0,.52.46.72,1,.79l-.05,1.07a2.73,2.73,0,0,1-2.15-.73,9.1,9.1,0,0,1-3.24.73c-1.64,0-2.54-.94-2.54-2.76s.9-2.48,2.76-2.66l2.83-.27V113c0-1.26-.54-1.71-1.62-1.71-1.27,0-3.41.23-3.41.23l0-1a21.6,21.6,0,0,1,3.53-.4c2,0,2.9.94,2.9,2.9Zm-4-2.56c-1.1.11-1.53.63-1.53,1.62s.45,1.66,1.37,1.66a9.57,9.57,0,0,0,2.83-.56v-3Z" fill="#3a3d3f"/><path d="M1681.39,120.75c0-1,.49-1.53,1.42-2.24a1.46,1.46,0,0,1-.5-1.24,5.82,5.82,0,0,1,.61-1.42c-.75-.34-1.42-1.06-1.42-2.72,0-2.21,1.37-3.08,3.37-3.08a9.07,9.07,0,0,1,1.87.24l2.66-.08v1.16l-1.71,0a2.35,2.35,0,0,1,.6,1.8c0,2.34-1.17,3-3.48,3a6.79,6.79,0,0,1-.88-.07,5.32,5.32,0,0,0-.32,1c0,.72.14.83,2.17.83,2.56,0,3.48.5,3.48,2.64s-1.46,2.87-4,2.87C1682.42,123.47,1681.39,122.84,1681.39,120.75Zm2.34-1.7c-.75.56-1,.89-1,1.59,0,1.24.53,1.69,2.56,1.69,1.8,0,2.61-.48,2.61-1.67,0-1.37-.57-1.51-2.21-1.51C1685.05,119.15,1683.73,119.05,1683.73,119.05Zm3.21-5.92c0-1.42-.56-2-2.07-2s-2,.56-2,2,.61,2,2,2S1686.94,114.55,1686.94,113.13Z" fill="#3a3d3f"/><path d="M1697,111.55a29.33,29.33,0,0,0-3.15-.29c-1.12,0-2,.3-2,1.37,0,.84.44,1.08,2.34,1.4,2.25.38,3.1.83,3.1,2.58,0,2.1-1.33,2.81-3.49,2.81a25,25,0,0,1-3.17-.35l.07-1.17a29.5,29.5,0,0,0,3,.31c1.48,0,2.27-.33,2.27-1.55,0-.94-.47-1.17-2.43-1.48s-3-.7-3-2.5c0-2,1.61-2.63,3.24-2.63a23.19,23.19,0,0,1,3.26.34Z" fill="#3a3d3f"/><path d="M1703.37,119.24v-9h1.33v.63a6,6,0,0,1,2.63-.81,2.53,2.53,0,0,1,2.34.92,7.47,7.47,0,0,1,3.21-.92c2.44,0,3,1.17,3,4.43v4.76h-1.35v-4.72c0-2.38-.27-3.26-1.89-3.26a6,6,0,0,0-2.54.67,10.25,10.25,0,0,1,.23,2.62v4.69H1709v-4.65c0-2.49-.25-3.33-1.89-3.33a5.34,5.34,0,0,0-2.41.67v7.31Z" fill="#3a3d3f"/><path d="M1724.77,117.56c0,.52.47.72,1,.79l-.06,1.07a2.72,2.72,0,0,1-2.14-.73,9.1,9.1,0,0,1-3.24.73c-1.64,0-2.54-.94-2.54-2.76s.9-2.48,2.76-2.66l2.82-.27V113c0-1.26-.54-1.71-1.62-1.71-1.26,0-3.4.23-3.4.23l-.05-1a21.57,21.57,0,0,1,3.52-.4c2,0,2.9.94,2.9,2.9Zm-4-2.56c-1.1.11-1.53.63-1.53,1.62s.45,1.66,1.37,1.66a9.47,9.47,0,0,0,2.82-.56v-3Z" fill="#3a3d3f"/><path d="M1727.44,119.24v-9h1.33v.63a6.85,6.85,0,0,1,2.79-.81c2.48,0,3,1.23,3,4.43v4.76h-1.33v-4.72c0-2.38-.27-3.26-2-3.26a6.18,6.18,0,0,0-2.54.67v7.31Z" fill="#3a3d3f"/><path d="M1744.07,110.23v9h-1.35v-.64a6,6,0,0,1-2.67.82c-2.52,0-3-1.17-3-4.49v-4.7h1.35v4.68c0,2.49.22,3.3,1.89,3.3a5.47,5.47,0,0,0,2.47-.67v-7.31Z" fill="#3a3d3f"/><path d="M1753,117.56c0,.52.47.72,1,.79l-.06,1.07a2.72,2.72,0,0,1-2.14-.73,9.1,9.1,0,0,1-3.24.73c-1.64,0-2.54-.94-2.54-2.76s.9-2.48,2.76-2.66l2.82-.27V113c0-1.26-.54-1.71-1.62-1.71-1.26,0-3.4.23-3.4.23l-.05-1a21.6,21.6,0,0,1,3.53-.4c2,0,2.89.94,2.89,2.9Zm-4-2.56c-1.1.11-1.53.63-1.53,1.62s.45,1.66,1.37,1.66a9.47,9.47,0,0,0,2.82-.56v-3Z" fill="#3a3d3f"/><path d="M1755.78,106.31h1.35v12.93h-1.35Z" fill="#3a3d3f"/><path d="M1759.94,106.31h1.35v12.93h-1.35Z" fill="#3a3d3f"/><path d="M1764.5,110.23l2.25,7.83h.59l2.27-7.83H1771l-3.74,13h-1.35l1.16-4h-1.33l-2.55-9Z" fill="#3a3d3f"/><path d="M1772.6,117.18h1.47v2.06h-1.47Z" fill="#3a3d3f"/><path d="M1285.16,134.78h9V136h-3.79v11.22H1289V136h-3.84Z" fill="#3a3d3f"/><path d="M1295.69,147.24V134.31H1297v4.43a7.57,7.57,0,0,1,2.78-.69c2.46,0,3,1.23,3,4.43v4.76h-1.35v-4.72c0-2.38-.27-3.26-1.93-3.26a7.41,7.41,0,0,0-2.54.54v7.44Z" fill="#3a3d3f"/><path d="M1305.36,134.63h1.35v1.57h-1.35Zm0,3.6h1.35v9h-1.35Z" fill="#3a3d3f"/><path d="M1315.28,139.55a29.33,29.33,0,0,0-3.15-.29c-1.12,0-2,.3-2,1.37,0,.84.44,1.08,2.34,1.4,2.26.38,3.1.83,3.1,2.58,0,2.1-1.33,2.81-3.49,2.81a25,25,0,0,1-3.17-.35l.07-1.17a29.5,29.5,0,0,0,3,.31c1.48,0,2.27-.33,2.27-1.55,0-.94-.47-1.17-2.43-1.48s-3-.7-3-2.5c0-2,1.61-2.63,3.24-2.63a23,23,0,0,1,3.26.34Z" fill="#3a3d3f"/><path d="M1322.24,138.23l1.82,7.83h.29l2.14-7.65h1.41l2.14,7.65h.3l1.81-7.83h1.35l-2.15,9h-2.25l-1.91-7.05-1.91,7.05H1323l-2.14-9Z" fill="#3a3d3f"/><path d="M1342.66,142.63c0,3.27-.81,4.79-3.86,4.79s-3.85-1.52-3.85-4.79c0-3.1,1-4.58,3.85-4.58S1342.66,139.53,1342.66,142.63Zm-1.39,0c0-2.51-.54-3.41-2.47-3.41s-2.46.9-2.46,3.41.34,3.62,2.46,3.62S1341.27,145.18,1341.27,142.63Z" fill="#3a3d3f"/><path d="M1351.82,138.23v9h-1.35v-.64a6,6,0,0,1-2.67.82c-2.52,0-3-1.17-3-4.49v-4.7h1.35v4.68c0,2.49.22,3.3,1.89,3.3a5.47,5.47,0,0,0,2.47-.67v-7.31Z" fill="#3a3d3f"/><path d="M1354.52,134.31h1.35v12.93h-1.35Z" fill="#3a3d3f"/><path d="M1365.48,147.24h-1.33v-.62a6.44,6.44,0,0,1-2.74.8c-1.76,0-3.24-.73-3.24-4.61,0-3.17,1-4.76,3.76-4.76a14.13,14.13,0,0,1,2.22.24v-4h1.33Zm-1.33-1.7v-6.1a15.93,15.93,0,0,0-2.15-.22c-1.89,0-2.44,1.25-2.44,3.59,0,2.91,1,3.4,2,3.4A6.54,6.54,0,0,0,1364.15,145.54Z" fill="#3a3d3f"/><path d="M1378,139.55a29.33,29.33,0,0,0-3.16-.29c-1.11,0-2,.3-2,1.37,0,.84.43,1.08,2.34,1.4,2.25.38,3.1.83,3.1,2.58,0,2.1-1.33,2.81-3.49,2.81a24.7,24.7,0,0,1-3.17-.35l.07-1.17a29.5,29.5,0,0,0,3,.31c1.48,0,2.27-.33,2.27-1.55,0-.94-.47-1.17-2.43-1.48s-3-.7-3-2.5c0-2,1.6-2.63,3.24-2.63a23.19,23.19,0,0,1,3.26.34Z" fill="#3a3d3f"/><path d="M1386.77,145.56c0,.52.47.72,1,.79l-.06,1.07a2.72,2.72,0,0,1-2.14-.73,9.1,9.1,0,0,1-3.24.73c-1.64,0-2.54-.94-2.54-2.76s.9-2.48,2.76-2.66l2.82-.27V141c0-1.26-.54-1.71-1.62-1.71-1.26,0-3.4.23-3.4.23l-.05-1a21.57,21.57,0,0,1,3.52-.4c2,0,2.9.94,2.9,2.9Zm-4-2.56c-1.1.11-1.53.63-1.53,1.62s.45,1.66,1.37,1.66a9.47,9.47,0,0,0,2.82-.56v-3Z" fill="#3a3d3f"/><path d="M1390,138.23l2.11,7.83h.66l2.18-7.83h1.39l-2.54,9h-2.7l-2.54-9Z" fill="#3a3d3f"/><path d="M1404.74,146.06l0,1.07a31.12,31.12,0,0,1-3.51.29c-2.68,0-3.56-1.57-3.56-4.63,0-3.42,1.47-4.74,3.76-4.74s3.62,1.26,3.62,4.22l-.07,1h-5.94c0,1.93.59,2.94,2.35,2.94C1402.77,146.23,1404.74,146.06,1404.74,146.06Zm-1-3.85c0-2.23-.69-3-2.27-3s-2.39.84-2.41,3Z" fill="#3a3d3f"/><path d="M1411.14,147.24v-9h1.34v.63a6,6,0,0,1,2.62-.81,2.55,2.55,0,0,1,2.35.92,7.46,7.46,0,0,1,3.2-.92c2.45,0,3,1.17,3,4.43v4.76h-1.35v-4.72c0-2.38-.27-3.26-1.89-3.26a6,6,0,0,0-2.54.67,10.15,10.15,0,0,1,.24,2.62v4.69h-1.35v-4.65c0-2.49-.26-3.33-1.89-3.33a5.4,5.4,0,0,0-2.42.67v7.31Z" fill="#3a3d3f"/><path d="M1432.55,145.56c0,.52.46.72,1,.79l0,1.07a2.73,2.73,0,0,1-2.15-.73,9.1,9.1,0,0,1-3.24.73c-1.64,0-2.53-.94-2.53-2.76s.89-2.48,2.75-2.66l2.83-.27V141c0-1.26-.54-1.71-1.62-1.71-1.26,0-3.41.23-3.41.23l-.05-1a21.6,21.6,0,0,1,3.53-.4c2,0,2.9.94,2.9,2.9Zm-4-2.56c-1.1.11-1.53.63-1.53,1.62s.45,1.66,1.37,1.66a9.57,9.57,0,0,0,2.83-.56v-3Z" fill="#3a3d3f"/><path d="M1441,138.32l0,1.1s-1.44-.16-2.12-.16c-2.07,0-2.63.9-2.63,3.31,0,2.67.41,3.64,2.64,3.64.69,0,2.13-.16,2.13-.16l0,1.11a23.06,23.06,0,0,1-2.5.26c-2.86,0-3.71-1.32-3.71-4.85,0-3.26,1.06-4.52,3.74-4.52A20.89,20.89,0,0,1,1441,138.32Z" fill="#3a3d3f"/><path d="M1443.06,147.24V134.31h1.35v4.43a7.55,7.55,0,0,1,2.77-.69c2.47,0,3,1.23,3,4.43v4.76h-1.35v-4.72c0-2.38-.27-3.26-1.92-3.26a7.41,7.41,0,0,0-2.54.54v7.44Z" fill="#3a3d3f"/><path d="M1452.72,134.63h1.35v1.57h-1.35Zm0,3.6h1.35v9h-1.35Z" fill="#3a3d3f"/><path d="M1456.66,147.24v-9H1458v.63a6.79,6.79,0,0,1,2.79-.81c2.48,0,3,1.23,3,4.43v4.76h-1.33v-4.72c0-2.38-.27-3.26-2-3.26a6.18,6.18,0,0,0-2.54.67v7.31Z" fill="#3a3d3f"/><path d="M1473,146.06l0,1.07a31.12,31.12,0,0,1-3.51.29c-2.68,0-3.57-1.57-3.57-4.63,0-3.42,1.48-4.74,3.77-4.74s3.62,1.26,3.62,4.22l-.08,1h-5.94c0,1.93.6,2.94,2.36,2.94C1471,146.23,1473,146.06,1473,146.06Zm-1-3.85c0-2.23-.68-3-2.26-3s-2.4.84-2.42,3Z" fill="#3a3d3f"/><path d="M1479.38,138.23h1.33v.65a6.12,6.12,0,0,1,2.7-.83c2.27,0,3.26,1.39,3.26,4.58,0,3.52-1.15,4.79-3.92,4.79a12,12,0,0,1-2-.2v4h-1.35Zm1.35,1.75v6.07a14.27,14.27,0,0,0,1.94.2c2,0,2.63-1,2.63-3.62s-.77-3.37-2.09-3.37A5.86,5.86,0,0,0,1480.73,140Z" fill="#3a3d3f"/><path d="M1495.51,146.06l0,1.07a31.4,31.4,0,0,1-3.52.29c-2.68,0-3.56-1.57-3.56-4.63,0-3.42,1.48-4.74,3.76-4.74s3.62,1.26,3.62,4.22l-.07,1h-5.94c0,1.93.59,2.94,2.36,2.94C1493.55,146.23,1495.51,146.06,1495.51,146.06Zm-1-3.85c0-2.23-.68-3-2.27-3s-2.39.84-2.41,3Z" fill="#3a3d3f"/><path d="M1498,138.23h1.34v1.23a10.21,10.21,0,0,1,3.29-1.43v1.37a13.24,13.24,0,0,0-3.27,1.23v6.61H1498Z" fill="#3a3d3f"/><path d="M1505.91,147.24h-1.35V139.4h-1.13v-1.17h1.13v-.81c0-2.59.67-3.29,2.43-3.29.61,0,1.82.12,1.82.12l0,1.12s-1,0-1.55,0c-1,0-1.33.44-1.33,2.11v.79h2.61v1.17h-2.61Z" fill="#3a3d3f"/><path d="M1517.45,142.63c0,3.27-.81,4.79-3.85,4.79s-3.86-1.52-3.86-4.79c0-3.1,1-4.58,3.86-4.58S1517.45,139.53,1517.45,142.63Zm-1.39,0c0-2.51-.54-3.41-2.46-3.41s-2.47.9-2.47,3.41.34,3.62,2.47,3.62S1516.06,145.18,1516.06,142.63Z" fill="#3a3d3f"/><path d="M1519.64,138.23H1521v1.23a10.21,10.21,0,0,1,3.29-1.43v1.37a13.41,13.41,0,0,0-3.28,1.23v6.61h-1.35Z" fill="#3a3d3f"/><path d="M1525.87,147.24v-9h1.33v.63a6.1,6.1,0,0,1,2.63-.81,2.52,2.52,0,0,1,2.34.92,7.53,7.53,0,0,1,3.21-.92c2.45,0,3,1.17,3,4.43v4.76h-1.35v-4.72c0-2.38-.27-3.26-1.89-3.26a6,6,0,0,0-2.54.67,10.15,10.15,0,0,1,.24,2.62v4.69h-1.35v-4.65c0-2.49-.26-3.33-1.89-3.33a5.4,5.4,0,0,0-2.42.67v7.31Z" fill="#3a3d3f"/><path d="M1547.28,145.56c0,.52.46.72,1,.79l0,1.07a2.73,2.73,0,0,1-2.15-.73,9.1,9.1,0,0,1-3.24.73c-1.64,0-2.54-.94-2.54-2.76s.9-2.48,2.76-2.66l2.83-.27V141c0-1.26-.54-1.71-1.62-1.71-1.27,0-3.41.23-3.41.23l-.05-1a21.6,21.6,0,0,1,3.53-.4c2,0,2.9.94,2.9,2.9Zm-4-2.56c-1.1.11-1.53.63-1.53,1.62s.45,1.66,1.37,1.66a9.57,9.57,0,0,0,2.83-.56v-3Z" fill="#3a3d3f"/><path d="M1549.94,147.24v-9h1.33v.63a6.85,6.85,0,0,1,2.79-.81c2.49,0,3,1.23,3,4.43v4.76h-1.33v-4.72c0-2.38-.27-3.26-1.94-3.26a6.12,6.12,0,0,0-2.54.67v7.31Z" fill="#3a3d3f"/><path d="M1565.42,138.32l-.05,1.1s-1.44-.16-2.13-.16c-2.07,0-2.63.9-2.63,3.31,0,2.67.42,3.64,2.65,3.64.68,0,2.12-.16,2.12-.16l.06,1.11a23.34,23.34,0,0,1-2.51.26c-2.86,0-3.7-1.32-3.7-4.85,0-3.26,1.06-4.52,3.74-4.52A20.89,20.89,0,0,1,1565.42,138.32Z" fill="#3a3d3f"/><path d="M1574.1,146.06l0,1.07a31.12,31.12,0,0,1-3.51.29c-2.68,0-3.56-1.57-3.56-4.63,0-3.42,1.47-4.74,3.76-4.74s3.62,1.26,3.62,4.22l-.07,1h-5.95c0,1.93.6,2.94,2.36,2.94C1572.13,146.23,1574.1,146.06,1574.1,146.06Zm-1-3.85c0-2.23-.69-3-2.27-3s-2.4.84-2.41,3Z" fill="#3a3d3f"/><path d="M1580.5,134.63h1.35v1.57h-1.35Zm0,3.6h1.35v9h-1.35Z" fill="#3a3d3f"/><path d="M1584.44,147.24v-9h1.34v.63a6.79,6.79,0,0,1,2.79-.81c2.48,0,3,1.23,3,4.43v4.76h-1.33v-4.72c0-2.38-.27-3.26-2-3.26a6.12,6.12,0,0,0-2.54.67v7.31Z" fill="#3a3d3f"/><path d="M1599.87,139.4v4.31c0,2,.12,2.52,1.3,2.52.5,0,1.6-.11,1.6-.11l.09,1.12a16.5,16.5,0,0,1-1.84.19c-1.85,0-2.48-.7-2.48-3.29V139.4h-1.28v-1.17h1.28v-2.75h1.33v2.75h2.86v1.17Z" fill="#3a3d3f"/><path d="M1611,146.06l0,1.07a31.38,31.38,0,0,1-3.51.29c-2.69,0-3.57-1.57-3.57-4.63,0-3.42,1.48-4.74,3.76-4.74s3.62,1.26,3.62,4.22l-.07,1h-5.94c0,1.93.59,2.94,2.36,2.94C1609.07,146.23,1611,146.06,1611,146.06Zm-1-3.85c0-2.23-.68-3-2.27-3s-2.39.84-2.41,3Z" fill="#3a3d3f"/><path d="M1613.48,138.23h1.33v1.23a10.34,10.34,0,0,1,3.29-1.43v1.37a13.24,13.24,0,0,0-3.27,1.23v6.61h-1.35Z" fill="#3a3d3f"/><path d="M1619.7,147.24v-9H1621v.63a6,6,0,0,1,2.63-.81,2.54,2.54,0,0,1,2.34.92,7.46,7.46,0,0,1,3.2-.92c2.45,0,3,1.17,3,4.43v4.76h-1.35v-4.72c0-2.38-.27-3.26-1.89-3.26a6,6,0,0,0-2.54.67,9.71,9.71,0,0,1,.24,2.62v4.69h-1.35v-4.65c0-2.49-.25-3.33-1.89-3.33a5.4,5.4,0,0,0-2.42.67v7.31Z" fill="#3a3d3f"/><path d="M1640.73,139.55a29.33,29.33,0,0,0-3.15-.29c-1.12,0-2,.3-2,1.37,0,.84.43,1.08,2.34,1.4,2.25.38,3.09.83,3.09,2.58,0,2.1-1.33,2.81-3.49,2.81a25,25,0,0,1-3.17-.35l.07-1.17a29.8,29.8,0,0,0,3,.31c1.47,0,2.26-.33,2.26-1.55,0-.94-.46-1.17-2.43-1.48s-3-.7-3-2.5c0-2,1.6-2.63,3.24-2.63a23.19,23.19,0,0,1,3.26.34Z" fill="#3a3d3f"/><path d="M1654.39,142.63c0,3.27-.81,4.79-3.85,4.79s-3.85-1.52-3.85-4.79c0-3.1,1-4.58,3.85-4.58S1654.39,139.53,1654.39,142.63Zm-1.38,0c0-2.51-.54-3.41-2.47-3.41s-2.47.9-2.47,3.41.34,3.62,2.47,3.62S1653,145.18,1653,142.63Z" fill="#3a3d3f"/><path d="M1658.31,147.24H1657V139.4h-1.13v-1.17H1657v-.81c0-2.59.67-3.29,2.44-3.29.61,0,1.81.12,1.81.12v1.12s-1,0-1.55,0c-1,0-1.34.44-1.34,2.11v.79h2.62v1.17h-2.62Z" fill="#3a3d3f"/><path d="M1669.06,134.78h3l3.42,12.46h-1.37l-.9-3.21h-5.33l-.9,3.21h-1.37Zm-.85,8h4.72L1671,136h-.93Z" fill="#3a3d3f"/><path d="M1682.4,140.86h3.44V147a30.36,30.36,0,0,1-4,.44c-3.82,0-4.83-2.35-4.83-6.38s1-6.44,4.79-6.44a23.65,23.65,0,0,1,4.09.46l-.06,1.16a28.37,28.37,0,0,0-3.87-.38c-2.88,0-3.51,1.67-3.51,5.2s.61,5.15,3.5,5.15a16.71,16.71,0,0,0,2.57-.25V142.1h-2.07Z" fill="#3a3d3f"/><path d="M1697.07,134.78l-3.26,12.46h-3.1l-3.26-12.46h1.45l2.86,11.23h1l2.86-11.23Z" fill="#3a3d3f"/><path d="M1704.77,139.55a29.33,29.33,0,0,0-3.15-.29c-1.11,0-2,.3-2,1.37,0,.84.43,1.08,2.34,1.4,2.25.38,3.1.83,3.1,2.58,0,2.1-1.34,2.81-3.5,2.81a24.71,24.71,0,0,1-3.16-.35l.07-1.17a29.5,29.5,0,0,0,3,.31c1.47,0,2.27-.33,2.27-1.55,0-.94-.47-1.17-2.43-1.48s-3-.7-3-2.5c0-2,1.6-2.63,3.24-2.63a23.19,23.19,0,0,1,3.26.34Z" fill="#3a3d3f"/><path d="M1707.07,145.18h1.48v2.06h-1.48Z" fill="#3a3d3f"/><rect x="1132.92" y="82.83" width="7.17" height="27.28" transform="translate(2273.01 192.95) rotate(-180)" fill="#2277d6"/><rect x="1122.92" y="91.91" width="7.17" height="18.2" transform="translate(2253.01 202.03) rotate(-180)" fill="#2277d6"/><rect x="1112.33" y="101.01" width="7.17" height="9.1" transform="translate(2231.83 211.13) rotate(-180)" fill="#2277d6"/></g><g id="Layer_2-2" data-name="Layer 2"><path d="M118.42,74.3A46.58,46.58,0,1,1,71.84,27.72,46.58,46.58,0,0,1,118.42,74.3" fill="#e3f0fc"/><path d="M1080,88.63h-5.73V85.76a2.86,2.86,0,0,0-2.87-2.86h-5.73a2.86,2.86,0,0,0-2.86,2.86v2.87h-5.73a2.84,2.84,0,0,0-2.85,2.86v15.76a2.85,2.85,0,0,0,2.86,2.86h22.53a3.24,3.24,0,0,0,3.25-3.25V91.49A2.86,2.86,0,0,0,1080,88.63Zm-8.6,0h-5.73V85.76h5.73Z" fill="#2277d6"/><path d="M1289.49,41.31l2.37,12.48h.58l2.82-12.36h1.8l2.82,12.36h.58l2.36-12.48h1.58l-2.8,13.84h-2.82l-2.62-11.82-2.62,11.82h-2.82l-2.82-13.84Z"/><path d="M1315.3,48.89h-7v6.26h-1.53V41.31h1.53v6.2h7v-6.2h1.52V55.15h-1.52Z"/><path d="M1324.67,55.15h-1.53V49.33l-4.43-8h1.74l3.45,6.48,3.44-6.48h1.74l-4.41,8Z"/><path d="M1335.37,41.31h1.54V55.15h-1.54Z"/><path d="M1348.06,42.79s-2.79-.34-4-.34c-2,0-3,.7-3,2.26,0,1.8,1,2.1,3.38,2.64,2.76.62,4,1.3,4,3.72,0,3.06-1.68,4.26-4.43,4.26a36.39,36.39,0,0,1-4.38-.44l.16-1.28s2.72.36,4.14.36c2,0,3-.86,3-2.78,0-1.56-.82-2-3.08-2.44-2.86-.62-4.3-1.3-4.3-3.94s1.76-3.72,4.46-3.72a34.47,34.47,0,0,1,4.19.4Z"/><path d="M1354.09,41.31h10v1.38h-4.22V55.15h-1.52V42.69h-4.26Z"/><path d="M1374.63,48.89h-7v6.26h-1.54V41.31h1.54v6.2h7v-6.2h1.53V55.15h-1.53Z"/><path d="M1379.55,41.31h1.54V55.15h-1.54Z"/><path d="M1392.23,42.79s-2.78-.34-3.94-.34c-2,0-3,.7-3,2.26,0,1.8,1,2.1,3.38,2.64,2.76.62,4,1.3,4,3.72,0,3.06-1.68,4.26-4.42,4.26a36.39,36.39,0,0,1-4.38-.44l.16-1.28s2.72.36,4.14.36c2,0,3-.86,3-2.78,0-1.56-.82-2-3.08-2.44-2.86-.62-4.3-1.3-4.3-3.94s1.76-3.72,4.46-3.72a34.46,34.46,0,0,1,4.18.4Z"/><path d="M1401.25,49.85v5.3h-1.54V41.31h5.12c2.9,0,4.42,1.28,4.42,4.2,0,2-.8,3.46-2.54,4l2.66,5.62h-1.7l-2.5-5.3Zm3.58-7.18h-3.58v5.82h3.6c2.08,0,2.82-1.24,2.82-3C1407.67,43.61,1406.77,42.67,1404.83,42.67Z"/><path d="M1412,41.31h8.42v1.36h-6.88v4.78h5.68v1.34h-5.68v5h6.88v1.36H1412Z"/><path d="M1431.45,54.93a20.83,20.83,0,0,1-3.82.42c-4.14,0-5.06-2.52-5.06-7.08s.9-7.16,5.06-7.16a20.32,20.32,0,0,1,3.82.44l-.06,1.3a24.64,24.64,0,0,0-3.6-.36c-3.08,0-3.62,1.84-3.62,5.78s.5,5.7,3.66,5.7a21.88,21.88,0,0,0,3.56-.36Z"/><path d="M1433.41,48.29c0-4.56,1.18-7.18,5.46-7.18s5.48,2.58,5.48,7.18c0,4.76-1.18,7.06-5.48,7.06S1433.41,52.93,1433.41,48.29Zm9.34,0c0-3.74-.72-5.82-3.88-5.82s-3.88,2.06-3.88,5.82.68,5.7,3.88,5.7S1442.75,52.19,1442.75,48.29Z"/><path d="M1447.17,41.31H1450l3.92,11.7,3.92-11.7h2.78V55.15H1459V43h-.28l-4,11.7H1453L1449,43h-.28v12.2h-1.54Z"/><path d="M1464,41.31h2.78l3.92,11.7,3.92-11.7h2.78V55.15h-1.54V43h-.28l-4,11.7h-1.72l-4-11.7h-.28v12.2H1464Z"/><path d="M1480.77,41.31h8.42v1.36h-6.88v4.78H1488v1.34h-5.68v5h6.88v1.36h-8.42Z"/><path d="M1491.83,41.31h2.88l5.3,12.48h.42V41.31H1502V55.15h-2.82l-5.38-12.48h-.38V55.15h-1.54Z"/><path d="M1505.35,55.15V41.31h4.94c4,0,5.12,2.8,5.12,6.72s-1,7.12-5.12,7.12Zm4.94-12.48h-3.4V53.79h3.4c2.88,0,3.54-2.76,3.54-5.76S1513.17,42.67,1510.29,42.67Z"/><path d="M1518.25,41.31h8.42v1.36h-6.88v4.78h5.68v1.34h-5.68v5h6.88v1.36h-8.42Z"/><path d="M1529.31,55.15V41.31h4.94c4,0,5.12,2.8,5.12,6.72s-1,7.12-5.12,7.12Zm4.94-12.48h-3.4V53.79h3.4c2.88,0,3.54-2.76,3.54-5.76S1537.13,42.67,1534.25,42.67Z"/><path d="M1546.77,47.93c-1.18,1-1.78,1.6-1.78,2.5v.7h-1.26a3.11,3.11,0,0,1-.26-1.22c0-1,.8-1.76,1.86-2.66,1.44-1.24,1.78-1.7,1.78-2.82,0-1.42-.86-2-2.66-2a18.55,18.55,0,0,0-3.1.46l-.1-1.22a15.14,15.14,0,0,1,3.34-.6c2.68,0,4,.88,4,3.2C1548.63,46,1548.33,46.63,1546.77,47.93Zm-3.26,5h1.64v2.24h-1.64Z"/><path d="M1010.31,96.47a6.9,6.9,0,1,0-6.9-6.89A6.89,6.89,0,0,0,1010.31,96.47Zm0,3.45c-4.6,0-13.79,2.31-13.79,6.9v3.45h27.58v-3.45C1024.1,102.23,1014.91,99.92,1010.31,99.92Z" fill="#2277d6"/></g><g id="Icons_Tablet_and_Screens"><path d="M63.32,75.35A13.36,13.36,0,0,1,85.48,65.28v-4a3.35,3.35,0,0,0-3.36-3.36H75.4V54.56A3.35,3.35,0,0,0,72,51.2H65.32A3.35,3.35,0,0,0,62,54.56v3.36H55.24a3.34,3.34,0,0,0-3.35,3.36l0,18.49a3.36,3.36,0,0,0,3.37,3.36H65.83A13.35,13.35,0,0,1,63.32,75.35Zm2-20.79H72v3.36H65.32Z" fill="#2277d6"/><path d="M87.21,83.23H85.82l-.49-.47A11.39,11.39,0,1,0,84.11,84l.47.49v1.39l8.76,8.73L95.94,92Zm-10.51-2a5.88,5.88,0,1,1,5.88-5.88A5.89,5.89,0,0,1,76.7,81.23Z" fill="#2277d6"/></g></g></svg>