<svg xmlns="http://www.w3.org/2000/svg" viewBox="0 0 1900 250">
    <title>bar_0_opened</title>
    <g id="Layer_2" data-name="Layer 2">
        <g id="Layer_1-2" data-name="Layer 1">
            <circle cx="657.95" cy="82.69" r="29.44" fill="none" stroke="#2277d6" stroke-miterlimit="10" stroke-width="4"/>
            <path d="M658,61.82A22.38,22.38,0,0,1,680.33,84.2H658Z" fill="#8dc5f2" opacity="0.47"/>
            <path d="M138.05,13.93v6.36H136.2V3.68h6.14c3.49,0,5.31,1.54,5.31,5,0,2.45-1,4.16-3.05,4.83l3.19,6.74h-2l-3-6.36Zm4.29-8.62h-4.29v7h4.32c2.49,0,3.38-1.49,3.38-3.58C145.75,6.44,144.67,5.31,142.34,5.31Z"/>
            <path d="M151,3.68h10.11V5.31h-8.26v5.74h6.82v1.61h-6.82v6h8.26v1.63H151Z"/>
            <path d="M173.57,5.46s-3.34-.41-4.73-.41c-2.35,0-3.6.84-3.6,2.71,0,2.16,1.15,2.52,4.06,3.17,3.31.75,4.77,1.56,4.77,4.47,0,3.67-2,5.11-5.3,5.11a43.57,43.57,0,0,1-5.26-.53l.19-1.54s3.27.44,5,.44c2.35,0,3.55-1,3.55-3.34,0-1.87-1-2.4-3.69-2.93-3.44-.74-5.16-1.56-5.16-4.73s2.11-4.46,5.35-4.46a41.4,41.4,0,0,1,5,.48Z"/>
            <path d="M187.3,20a25.07,25.07,0,0,1-4.59.5c-5,0-6.07-3-6.07-8.49s1.08-8.6,6.07-8.6A24.09,24.09,0,0,1,187.3,4l-.08,1.56a29.8,29.8,0,0,0-4.32-.43c-3.69,0-4.34,2.21-4.34,6.94s.6,6.84,4.39,6.84a25.68,25.68,0,0,0,4.27-.44Z"/>
            <path d="M200.61,12.78h-8.44v7.51h-1.85V3.68h1.85v7.44h8.44V3.68h1.83V20.29h-1.83Z"/>
            <path d="M206.52,3.68h10.1V5.31h-8.25v5.74h6.81v1.61h-6.81v6h8.25v1.63h-10.1Z"/>
            <path d="M219.79,20.29V3.68h5.93c4.82,0,6.14,3.36,6.14,8.07s-1.25,8.54-6.14,8.54Zm5.93-15h-4.08V18.66h4.08c3.45,0,4.25-3.31,4.25-6.91S229.17,5.31,225.72,5.31Z"/>
            <path d="M240.89,18.9c2.59,0,4.05-1,4.05-3.6V3.68h1.83V15.25c0,3.79-2.09,5.28-5.88,5.28s-5.74-1.46-5.74-5.28V3.68H237V15.3C237,17.89,238.44,18.9,240.89,18.9Z"/>
            <path d="M250.73,20.29V3.68h1.84v15h7.3v1.65Z"/>
            <path d="M262.22,3.68h1.85V20.29h-1.85Z"/>
            <path d="M268.12,3.68h3.46l6.36,15h.5v-15h1.83V20.29h-3.39l-6.45-15H270v15h-1.85Z"/>
            <path d="M290.92,11.8h4.59V20a41.74,41.74,0,0,1-5.4.57c-5.09,0-6.44-3.12-6.44-8.49s1.4-8.6,6.39-8.6a30.68,30.68,0,0,1,5.45.63l-.07,1.53a38.46,38.46,0,0,0-5.16-.5c-3.85,0-4.69,2.23-4.69,6.94s.82,6.86,4.66,6.86a22.12,22.12,0,0,0,3.43-.34V13.45h-2.76Z"/>
            <path d="M314.44,20a25,25,0,0,1-4.58.5c-5,0-6.07-3-6.07-8.49s1.08-8.6,6.07-8.6a24,24,0,0,1,4.58.53l-.07,1.56a29.8,29.8,0,0,0-4.32-.43c-3.7,0-4.34,2.21-4.34,6.94s.6,6.84,4.39,6.84a25.8,25.8,0,0,0,4.27-.44Z"/>
            <path d="M327.76,12.78h-8.44v7.51h-1.85V3.68h1.85v7.44h8.44V3.68h1.83V20.29h-1.83Z"/>
            <path d="M336.76,3.68h4l4.56,16.61h-1.82L342.33,16h-7.1L334,20.29H332.2Zm-1.13,10.68h6.29L339.4,5.27h-1.25Z"/>
            <path d="M349.82,13.93v6.36H348V3.68h6.14c3.48,0,5.31,1.54,5.31,5,0,2.45-1,4.16-3.05,4.83l3.19,6.74h-2l-3-6.36Zm4.29-8.62h-4.29v7h4.32c2.49,0,3.38-1.49,3.38-3.58C357.52,6.44,356.44,5.31,354.11,5.31Z"/>
            <path d="M369.33,11.8h4.58V20a41.53,41.53,0,0,1-5.4.57c-5.09,0-6.43-3.12-6.43-8.49s1.39-8.6,6.39-8.6a30.5,30.5,0,0,1,5.44.63l-.07,1.53a38.24,38.24,0,0,0-5.16-.5C364.84,5.1,364,7.33,364,12s.82,6.86,4.66,6.86a22.12,22.12,0,0,0,3.43-.34V13.45h-2.76Z"/>
            <path d="M377.54,3.68h1.85V20.29h-1.85Z"/>
            <path d="M383.44,3.68h3.46l6.36,15h.5v-15h1.83V20.29H392.2l-6.45-15h-.46v15h-1.85Z"/>
            <path d="M406.24,11.8h4.59V20a42,42,0,0,1-5.41.57c-5.08,0-6.43-3.12-6.43-8.49s1.39-8.6,6.39-8.6a30.68,30.68,0,0,1,5.45.63l-.08,1.53a38.24,38.24,0,0,0-5.16-.5c-3.84,0-4.68,2.23-4.68,6.94s.82,6.86,4.66,6.86a22.12,22.12,0,0,0,3.43-.34V13.45h-2.76Z"/>
            <path d="M624.8,13.59h10V15h-4.22V27.43h-1.53V15H624.8Z"/>
            <path d="M636.76,13.59h1.54V27.43h-1.54Z"/>
            <path d="M641.68,13.59h2.78l3.92,11.7,3.92-11.7h2.79V27.43h-1.54V15.23h-.28l-4,11.7h-1.72l-4-11.7h-.28v12.2h-1.54Z"/>
            <path d="M658.48,13.59h8.42V15H660v4.78h5.68v1.34H660v5h6.88v1.36h-8.42Z"/>
            <path d="M675.48,22.77v4.66h-1.54V13.59H679c3,0,4.42,1.46,4.42,4.46S682,22.77,679,22.77Zm3.5-1.36c2,0,2.86-1.22,2.86-3.36S681,15,679,15h-3.5v6.46Z"/>
            <path d="M685.8,13.59h8.42V15h-6.88v4.78H693v1.34h-5.68v5h6.88v1.36H685.8Z"/>
            <path d="M698.4,22.13v5.3h-1.54V13.59H702c2.9,0,4.42,1.28,4.42,4.2,0,2-.8,3.46-2.54,4l2.66,5.62h-1.7l-2.5-5.3ZM702,15H698.4v5.82H702c2.08,0,2.82-1.24,2.82-3C704.82,15.89,703.92,15,702,15Z"/>
            <path d="M709.18,13.59h1.54V27.43h-1.54Z"/>
            <path d="M713.54,20.57c0-4.56,1.18-7.18,5.46-7.18s5.48,2.58,5.48,7.18c0,4.76-1.18,7.06-5.48,7.06S713.54,25.21,713.54,20.57Zm9.34,0c0-3.74-.72-5.82-3.88-5.82s-3.88,2.06-3.88,5.82.68,5.7,3.88,5.7S722.88,24.47,722.88,20.57Z"/>
            <path d="M727.3,27.43V13.59h4.94c4,0,5.12,2.8,5.12,6.72s-1,7.12-5.12,7.12ZM732.24,15h-3.4V26.07h3.4c2.88,0,3.54-2.76,3.54-5.76S735.12,15,732.24,15Z"/>
            <path d="M973.6,20.57c0-4.56,1.18-7.18,5.46-7.18s5.48,2.58,5.48,7.18c0,4.76-1.18,7.06-5.48,7.06S973.6,25.21,973.6,20.57Zm9.34,0c0-3.74-.72-5.82-3.88-5.82s-3.88,2.06-3.88,5.82.68,5.7,3.88,5.7S982.94,24.47,982.94,20.57Z"/>
            <path d="M996.82,13.59,993.2,27.43h-3.44l-3.62-13.84h1.6l3.18,12.48H992l3.18-12.48Z"/>
            <path d="M999,13.59h8.42V15h-6.88v4.78h5.68v1.34h-5.68v5h6.88v1.36H999Z"/>
            <path d="M1011.6,22.13v5.3h-1.54V13.59h5.12c2.9,0,4.42,1.28,4.42,4.2,0,2-.8,3.46-2.54,4l2.66,5.62H1018l-2.5-5.3Zm3.58-7.18h-3.58v5.82h3.6c2.08,0,2.82-1.24,2.82-3C1018,15.89,1017.12,15,1015.18,15Z"/>
            <path d="M1031.84,13.59l-3.62,13.84h-3.44l-3.62-13.84h1.6l3.18,12.48h1.12l3.18-12.48Z"/>
            <path d="M1034,13.59h1.54V27.43H1034Z"/>
            <path d="M1038.94,13.59h8.42V15h-6.88v4.78h5.68v1.34h-5.68v5h6.88v1.36h-8.42Z"/>
            <path d="M1050.5,13.59l2.36,12.48h.58l2.82-12.36h1.8l2.82,12.36h.58l2.36-12.48h1.58l-2.8,13.84h-2.82l-2.62-11.82-2.62,11.82h-2.82l-2.82-13.84Z"/>
            <path d="M650,74.38h2.84V91.54h-3.09V77.65l-4.31,2.6-1.43-2.16Z" fill="#2277d6"/>
            <path d="M659,91.54V73.13h3v6.08a10.88,10.88,0,0,1,3.82-1c3.87,0,4.81,2,4.81,6.32v7h-3V84.65c0-2.6-.33-3.88-2.48-3.88a10.72,10.72,0,0,0-3.12.57v10.2Z" fill="#2277d6"/>
            <path d="M980.47,106.83v-1.17l3.45-3.64c1.47-1.52,2.39-2.49,2.39-3.88,0-1.58-.88-2.08-2.58-2.08a17.46,17.46,0,0,0-3.07.39l-.11-1.14a14.28,14.28,0,0,1,3.43-.49c2.49,0,3.74,1,3.74,3.17,0,1.78-.81,2.82-2.47,4.43l-3.16,3.21H988v1.2Z" fill="#3a3d3f"/>
            <path d="M1018.06,101.72h3.38V98.23h1.26v3.49h3.42v1.22h-3.42v3.53h-1.26v-3.53h-3.38Z" fill="#3a3d3f"/>
            <path d="M1032.79,95h1.29v11.83h-1.38V96.54l-3,2-.63-1Z" fill="#3a3d3f"/>
            <path d="M1043.59,104.52h-5.73v-1.08l3.37-8.44h1.5l-3.42,8.3h4.28V99.61H1045v3.69h1.51v1.22H1045v2.31h-1.38Z" fill="#3a3d3f"/>
            <path d="M1056.44,97.89c0,1.52-.59,2.15-2,2.76a3,3,0,0,1,2.15,3c0,2.6-2,3.38-4.46,3.38s-4.41-.73-4.41-3.18a3.15,3.15,0,0,1,2-3.17,2.75,2.75,0,0,1-1.84-2.78c0-2,1.63-3.06,4.21-3.06S1056.44,95.81,1056.44,97.89Zm-1.29,5.59c0-1.38-.91-1.83-2.1-2.17h-1.88c-1.23.34-2,1-2,2.27,0,1.63,1.25,2.17,2.94,2.17S1055.15,105.21,1055.15,103.48ZM1049.42,98c0,1.09.59,1.67,1.75,2.08h1.88c1.22-.4,1.92-1,1.92-2.06,0-1.42-1.06-2-2.8-2S1049.42,96.61,1049.42,98Z" fill="#3a3d3f"/>
            <path d="M1094.49,95v1.26h-5.75l-.32,3.85a6.78,6.78,0,0,1,2.77-.74c2.31,0,3.76,1,3.76,3.5,0,2.72-1.48,4.12-4,4.12a19.58,19.58,0,0,1-3.93-.52l.16-1.1a23.26,23.26,0,0,0,3.64.4,2.5,2.5,0,0,0,2.67-2.8c0-1.79-1-2.36-2.51-2.36a6.73,6.73,0,0,0-2.81.72l-1-.18.32-6.15Z" fill="#3a3d3f"/>
            <path d="M1104.52,95v1.26h-5.75l-.32,3.85a6.79,6.79,0,0,1,2.78-.74c2.31,0,3.76,1,3.76,3.5,0,2.72-1.49,4.12-4,4.12a19.42,19.42,0,0,1-3.92-.52l.16-1.1a23.26,23.26,0,0,0,3.64.4,2.5,2.5,0,0,0,2.67-2.8c0-1.79-1-2.36-2.51-2.36a6.73,6.73,0,0,0-2.81.72l-1-.18.33-6.15Z" fill="#3a3d3f"/>
            <path d="M1110.46,97.3c0,1.73-.77,2.52-2,2.52s-2-.79-2-2.52.75-2.48,2-2.48S1110.46,95.58,1110.46,97.3Zm-2,1.61c.66,0,.89-.56.89-1.61s-.23-1.56-.89-1.56-.88.5-.88,1.56S1107.84,98.91,1108.49,98.91Zm4-4.28.86.28-3.67,12.24-.86-.25Zm3.08,9.85c0,1.72-.77,2.52-2,2.52s-2-.8-2-2.54.74-2.45,2-2.45S1115.54,102.76,1115.54,104.48Zm-2,1.61c.69,0,.9-.55.9-1.61s-.21-1.56-.9-1.56-.87.5-.87,1.54S1112.93,106.09,1113.57,106.09Z" fill="#3a3d3f"/>
            <path d="M717.54,61.27h3.26V82.39h-3.55V65.31l-5,3.2-1.63-2.66Z"/>
            <path d="M727.91,82.39v-3L733.12,74c2.72-2.79,4.29-4.48,4.29-6.72,0-2.4-1.24-3.17-4-3.17a32.66,32.66,0,0,0-5.18.58L728,61.85a24.87,24.87,0,0,1,6.24-.93c4.67,0,6.81,1.92,6.81,5.89,0,3.2-1.34,5.06-4.61,8.1L732,79.29h9.54v3.1Z"/>
            <path d="M745.64,68.09h3.74V72.7h-3.74Zm0,9.7h3.74v4.6h-3.74Z"/>
            <path d="M768.26,72.06c0,8-2.91,10.69-8,10.69s-8-2.63-8-10.69c0-8.29,2.92-11.14,8-11.14S768.26,63.74,768.26,72.06Zm-12.29,0c0,5.79,1.44,7.58,4.36,7.58s4.25-1.79,4.25-7.58c0-6.21-1.31-8-4.29-8S756,65.82,756,72.06Z"/>
            <path d="M786.18,72.06c0,8-2.91,10.69-8,10.69s-8-2.63-8-10.69c0-8.29,2.92-11.14,8-11.14S786.18,63.74,786.18,72.06Zm-12.29,0c0,5.79,1.44,7.58,4.36,7.58s4.25-1.79,4.25-7.58c0-6.21-1.31-8-4.29-8S773.89,65.82,773.89,72.06Z"/>
            <path d="M796.17,72.19h9.56v3.16h-9.56Z"/>
            <path d="M824.42,61.27h3.26V82.39h-3.55V65.31l-5,3.2-1.63-2.66Z"/>
            <path d="M834.76,62a21.34,21.34,0,0,1,6.17-1c5.31,0,7.14,1.83,7.14,5.67a5.35,5.35,0,0,1-2.79,4.76c1.92.9,3.2,1.73,3.2,4.8,0,4.39-2.05,6.6-7,6.6a31.09,31.09,0,0,1-6.91-1l.23-2.75a42.28,42.28,0,0,0,6.2.64c2.6,0,3.84-1.09,3.84-3.39,0-2.14-1.53-3.14-3.61-3.17h-4.26v-3h4.26a3.41,3.41,0,0,0,3.2-3.3c0-1.92-1.09-2.78-3.68-2.78a33.56,33.56,0,0,0-5.67.61Z"/>
            <path d="M852.52,68.09h3.74V72.7h-3.74Zm0,9.7h3.74v4.6h-3.74Z"/>
            <path d="M875.14,72.06c0,8-2.91,10.69-8,10.69s-8-2.63-8-10.69c0-8.29,2.92-11.14,8-11.14S875.14,63.74,875.14,72.06Zm-12.29,0c0,5.79,1.44,7.58,4.35,7.58s4.26-1.79,4.26-7.58c0-6.21-1.31-8-4.29-8S862.85,65.82,862.85,72.06Z"/>
            <path d="M893.06,72.06c0,8-2.91,10.69-8,10.69s-8-2.63-8-10.69c0-8.29,2.92-11.14,8-11.14S893.06,63.74,893.06,72.06Zm-12.29,0c0,5.79,1.44,7.58,4.35,7.58s4.26-1.79,4.26-7.58c0-6.21-1.31-8-4.29-8S880.77,65.82,880.77,72.06Z"/>
            <path d="M708.08,94.43H717v1.24h-3.77v11.16h-1.37V95.67h-3.81Z" fill="#3a3d3f"/>
            <path d="M725.83,102.24c0,3.26-.8,4.76-3.83,4.76s-3.83-1.5-3.83-4.76c0-3.08,1-4.55,3.83-4.55S725.83,99.16,725.83,102.24Zm-1.38,0c0-2.49-.53-3.39-2.45-3.39s-2.45.9-2.45,3.39.34,3.6,2.45,3.6S724.45,104.78,724.45,102.24Z" fill="#3a3d3f"/>
            <path d="M734.9,106.83h-1.32v-.61a6.48,6.48,0,0,1-2.73.78c-1.75,0-3.22-.71-3.22-4.58,0-3.15,1-4.73,3.74-4.73a15.79,15.79,0,0,1,2.21.23V94h1.32Zm-1.32-1.69V99.07a15.75,15.75,0,0,0-2.14-.22c-1.88,0-2.43,1.24-2.43,3.57,0,2.9,1,3.39,2,3.39A6.47,6.47,0,0,0,733.58,105.14Z" fill="#3a3d3f"/>
            <path d="M743.83,105.16c0,.52.46.72,1,.79l-.05,1a2.73,2.73,0,0,1-2.13-.71,9.22,9.22,0,0,1-3.23.71c-1.62,0-2.52-.93-2.52-2.74s.9-2.47,2.74-2.65l2.81-.27v-.77c0-1.25-.54-1.7-1.61-1.7-1.25,0-3.39.23-3.39.23l-.05-1a21.9,21.9,0,0,1,3.51-.39c2,0,2.89.93,2.89,2.88Zm-4-2.54c-1.09.1-1.52.62-1.52,1.61s.45,1.65,1.36,1.65a9.36,9.36,0,0,0,2.81-.56v-2.95Z" fill="#3a3d3f"/>
            <path d="M747,97.87l2.24,7.79h.59l2.26-7.79h1.34l-3.72,12.93h-1.35l1.17-4h-1.33l-2.54-9Z" fill="#3a3d3f"/>
            <path d="M143.23,63.32a18.72,18.72,0,0,1-3.44.38c-3.72,0-4.55-2.27-4.55-6.38s.81-6.44,4.55-6.44a18.5,18.5,0,0,1,3.44.39l0,1.17a22.79,22.79,0,0,0-3.24-.32c-2.77,0-3.26,1.65-3.26,5.2s.45,5.13,3.29,5.13a20.06,20.06,0,0,0,3.21-.32Z" fill="#3a3d3f"/>
            <path d="M145.26,63.52V50.59h1.35V55a7.57,7.57,0,0,1,2.78-.69c2.46,0,3,1.23,3,4.43v4.76h-1.35V58.8c0-2.38-.27-3.26-1.93-3.26a7.41,7.41,0,0,0-2.54.54v7.44Z" fill="#3a3d3f"/>
            <path d="M161.29,61.84c0,.52.46.72,1,.79l-.05,1.07a2.76,2.76,0,0,1-2.15-.72,9.2,9.2,0,0,1-3.24.72c-1.64,0-2.54-.94-2.54-2.76s.9-2.48,2.76-2.66l2.82-.27v-.78c0-1.26-.53-1.71-1.61-1.71-1.27,0-3.41.23-3.41.23l0-1a21.6,21.6,0,0,1,3.53-.4c2,0,2.9.94,2.9,2.9Zm-4-2.56c-1.1.11-1.53.63-1.53,1.62s.45,1.66,1.37,1.66a9.47,9.47,0,0,0,2.82-.56V59Z" fill="#3a3d3f"/>
            <path d="M164,54.51h1.33v1.23a10.32,10.32,0,0,1,3.3-1.43v1.37a12.78,12.78,0,0,0-3.28,1.23v6.61H164Z" fill="#3a3d3f"/>
            <path d="M169.78,65c0-1.05.48-1.53,1.42-2.23a1.49,1.49,0,0,1-.5-1.25,5.82,5.82,0,0,1,.61-1.42c-.76-.34-1.42-1.06-1.42-2.72,0-2.21,1.37-3.08,3.36-3.08a9.22,9.22,0,0,1,1.88.24l2.66-.08v1.16l-1.71,0a2.35,2.35,0,0,1,.59,1.8c0,2.34-1.16,3-3.47,3a6.65,6.65,0,0,1-.88-.07,5.21,5.21,0,0,0-.33,1c0,.72.15.83,2.18.83,2.56,0,3.48.5,3.48,2.64s-1.46,2.87-4,2.87C170.81,67.75,169.78,67.12,169.78,65Zm2.34-1.7c-.76.56-1,.89-1,1.59,0,1.24.52,1.69,2.56,1.69,1.8,0,2.61-.48,2.61-1.67,0-1.37-.58-1.51-2.22-1.51C173.43,63.43,172.12,63.33,172.12,63.33Zm3.21-5.92c0-1.42-.56-2-2.08-2s-2,.56-2,2,.61,2,2,2S175.33,58.83,175.33,57.41Z" fill="#3a3d3f"/>
            <path d="M179.43,50.91h1.35v1.57h-1.35Zm0,3.6h1.35v9h-1.35Z" fill="#3a3d3f"/>
            <path d="M183.37,63.52v-9h1.33v.63a6.85,6.85,0,0,1,2.79-.81c2.49,0,3,1.23,3,4.43v4.76H189.2V58.8c0-2.38-.27-3.26-1.94-3.26a6.12,6.12,0,0,0-2.54.67v7.31Z" fill="#3a3d3f"/>
            <path d="M192.64,65c0-1.05.48-1.53,1.42-2.23a1.49,1.49,0,0,1-.5-1.25,5.82,5.82,0,0,1,.61-1.42c-.76-.34-1.42-1.06-1.42-2.72,0-2.21,1.36-3.08,3.36-3.08a9.22,9.22,0,0,1,1.88.24l2.66-.08v1.16l-1.71,0a2.35,2.35,0,0,1,.59,1.8c0,2.34-1.17,3-3.47,3a6.65,6.65,0,0,1-.88-.07,5.21,5.21,0,0,0-.33,1c0,.72.15.83,2.18.83,2.56,0,3.48.5,3.48,2.64s-1.46,2.87-4,2.87C193.67,67.75,192.64,67.12,192.64,65Zm2.34-1.7c-.76.56-1,.89-1,1.59,0,1.24.52,1.69,2.56,1.69,1.8,0,2.61-.48,2.61-1.67,0-1.37-.58-1.51-2.22-1.51C196.29,63.43,195,63.33,195,63.33Zm3.2-5.92c0-1.42-.55-2-2.07-2s-2,.56-2,2,.61,2,2,2S198.18,58.83,198.18,57.41Z" fill="#3a3d3f"/>
            <path d="M206.19,63.52V62.34l3.48-3.65c1.47-1.53,2.39-2.5,2.39-3.91,0-1.58-.88-2.09-2.59-2.09a17.22,17.22,0,0,0-3.08.4l-.11-1.15a14.3,14.3,0,0,1,3.44-.49c2.5,0,3.76,1,3.76,3.19,0,1.78-.81,2.83-2.48,4.45l-3.17,3.22h6v1.21Z" fill="#3a3d3f"/>
            <path d="M222.84,51.06h3l3.42,12.46h-1.37l-.9-3.21h-5.33l-.9,3.21h-1.37Zm-.84,8h4.71l-1.89-6.83h-.93Z" fill="#3a3d3f"/>
            <path d="M236.18,57.14h3.44v6.12a30.36,30.36,0,0,1-4.05.44c-3.82,0-4.83-2.35-4.83-6.38s1-6.44,4.79-6.44a23.65,23.65,0,0,1,4.09.46l-.05,1.16a28.6,28.6,0,0,0-3.88-.38c-2.88,0-3.51,1.67-3.51,5.2s.62,5.15,3.5,5.15a16.71,16.71,0,0,0,2.57-.25V58.38h-2.07Z" fill="#3a3d3f"/>
            <path d="M250.85,51.06l-3.26,12.46H244.5l-3.26-12.46h1.44l2.86,11.23h1l2.86-11.23Z" fill="#3a3d3f"/>
            <path d="M258.56,55.83a29.33,29.33,0,0,0-3.16-.29c-1.11,0-2,.3-2,1.37,0,.84.43,1.08,2.34,1.4,2.25.38,3.1.83,3.1,2.58,0,2.1-1.33,2.81-3.49,2.81a24.7,24.7,0,0,1-3.17-.35l.07-1.17a29.5,29.5,0,0,0,3,.31c1.48,0,2.27-.33,2.27-1.55,0-.94-.47-1.17-2.43-1.48s-3-.7-3-2.5c0-2,1.6-2.63,3.24-2.63a23.19,23.19,0,0,1,3.26.34Z" fill="#3a3d3f"/>
            <path d="M266.64,63.52h-1.35V55.68h-1.14V54.51h1.14V53.7c0-2.59.66-3.29,2.43-3.29.61,0,1.81.12,1.81.12v1.12s-1,0-1.55,0c-1,0-1.33.44-1.33,2.11v.79h2.61v1.17h-2.61Z" fill="#3a3d3f"/>
            <path d="M278.17,58.91c0,3.27-.81,4.79-3.85,4.79s-3.85-1.52-3.85-4.79c0-3.1,1-4.58,3.85-4.58S278.17,55.81,278.17,58.91Zm-1.38,0c0-2.51-.54-3.41-2.47-3.41s-2.46.9-2.46,3.41.34,3.61,2.46,3.61S276.79,61.46,276.79,58.91Z" fill="#3a3d3f"/>
            <path d="M280.37,54.51h1.33v1.23a10.32,10.32,0,0,1,3.3-1.43v1.37a12.78,12.78,0,0,0-3.28,1.23v6.61h-1.35Z" fill="#3a3d3f"/>
            <path d="M295,51.63h1.29V63.52h-1.38V53.18l-3.06,2-.63-1.05Z" fill="#3a3d3f"/>
            <path d="M304.6,63.52V50.59H306V55a7.55,7.55,0,0,1,2.77-.69c2.47,0,3,1.23,3,4.43v4.76h-1.35V58.8c0-2.38-.27-3.26-1.92-3.26a7.41,7.41,0,0,0-2.54.54v7.44Z" fill="#3a3d3f"/>
            <path d="M321.57,58.91c0,3.27-.81,4.79-3.85,4.79s-3.85-1.52-3.85-4.79c0-3.1,1-4.58,3.85-4.58S321.57,55.81,321.57,58.91Zm-1.38,0c0-2.51-.54-3.41-2.47-3.41s-2.47.9-2.47,3.41.34,3.61,2.47,3.61S320.19,61.46,320.19,58.91Z" fill="#3a3d3f"/>
            <path d="M330.74,54.51v9h-1.36v-.63a6.07,6.07,0,0,1-2.66.81c-2.52,0-3-1.18-3-4.49v-4.7H325v4.68c0,2.49.21,3.3,1.89,3.3a5.4,5.4,0,0,0,2.46-.67V54.51Z" fill="#3a3d3f"/>
            <path d="M333.32,54.51h1.34v1.23A10.21,10.21,0,0,1,338,54.31v1.37a13,13,0,0,0-3.28,1.23v6.61h-1.35Z" fill="#3a3d3f"/>
            <path d="M350.77,58.87c0,3.58-1,4.83-4.25,4.83-1.08,0-3-.2-3-.2V50.59h1.33V55a7.44,7.44,0,0,1,2.65-.63C349.94,54.33,350.77,55.63,350.77,58.87Zm-1.37,0c0-2.32-.47-3.33-2-3.33a7.59,7.59,0,0,0-2.51.52V62.4s1.17.09,1.66.09C349,62.49,349.4,61.39,349.4,58.87Z" fill="#3a3d3f"/>
            <path d="M359.62,62.34l0,1.07a31.12,31.12,0,0,1-3.51.29c-2.68,0-3.57-1.57-3.57-4.63,0-3.42,1.48-4.74,3.77-4.74S360,55.59,360,58.55l-.08,1H354c0,1.93.6,2.94,2.36,2.94C357.66,62.51,359.62,62.34,359.62,62.34Zm-1-3.85c0-2.23-.68-3-2.26-3s-2.4.84-2.42,3Z" fill="#3a3d3f"/>
            <path d="M363.8,63.52h-1.35V55.68h-1.14V54.51h1.14V53.7c0-2.59.66-3.29,2.43-3.29.61,0,1.82.12,1.82.12l0,1.12s-1,0-1.55,0c-1,0-1.33.44-1.33,2.11v.79h2.61v1.17H363.8Z" fill="#3a3d3f"/>
            <path d="M375.34,58.91c0,3.27-.81,4.79-3.86,4.79s-3.85-1.52-3.85-4.79c0-3.1,1-4.58,3.85-4.58S375.34,55.81,375.34,58.91Zm-1.39,0c0-2.51-.54-3.41-2.47-3.41s-2.46.9-2.46,3.41.34,3.61,2.46,3.61S374,61.46,374,58.91Z" fill="#3a3d3f"/>
            <path d="M377.53,54.51h1.33v1.23a10.32,10.32,0,0,1,3.3-1.43v1.37a13,13,0,0,0-3.28,1.23v6.61h-1.35Z" fill="#3a3d3f"/>
            <path d="M390.4,62.34l0,1.07a31.12,31.12,0,0,1-3.51.29c-2.68,0-3.57-1.57-3.57-4.63,0-3.42,1.48-4.74,3.77-4.74s3.62,1.26,3.62,4.22l-.08,1h-5.94c0,1.93.6,2.94,2.36,2.94C388.44,62.51,390.4,62.34,390.4,62.34Zm-1-3.85c0-2.23-.68-3-2.26-3s-2.4.84-2.42,3Z" fill="#3a3d3f"/>
            <path d="M398.61,55.68V60c0,2,.13,2.52,1.3,2.52.5,0,1.6-.11,1.6-.11l.09,1.12a16.5,16.5,0,0,1-1.84.19c-1.85,0-2.48-.7-2.48-3.29V55.68H396V54.51h1.28V51.76h1.33v2.75h2.86v1.17Z" fill="#3a3d3f"/>
            <path d="M403.13,63.52V50.59h1.35V55a7.55,7.55,0,0,1,2.77-.69c2.47,0,3,1.23,3,4.43v4.76h-1.35V58.8c0-2.38-.27-3.26-1.92-3.26a7.41,7.41,0,0,0-2.54.54v7.44Z" fill="#3a3d3f"/>
            <path d="M412.79,50.91h1.35v1.57h-1.35Zm0,3.6h1.35v9h-1.35Z" fill="#3a3d3f"/>
            <path d="M422.71,55.83a29.33,29.33,0,0,0-3.15-.29c-1.11,0-2,.3-2,1.37,0,.84.43,1.08,2.34,1.4,2.25.38,3.1.83,3.1,2.58,0,2.1-1.34,2.81-3.5,2.81a24.71,24.71,0,0,1-3.16-.35l.07-1.17a29.5,29.5,0,0,0,3,.31c1.48,0,2.27-.33,2.27-1.55,0-.94-.47-1.17-2.43-1.48s-3-.7-3-2.5c0-2,1.6-2.63,3.24-2.63a23.19,23.19,0,0,1,3.26.34Z" fill="#3a3d3f"/>
            <path d="M430.87,55.68V60c0,2,.12,2.52,1.29,2.52.51,0,1.6-.11,1.6-.11l.09,1.12a16.23,16.23,0,0,1-1.83.19c-1.86,0-2.49-.7-2.49-3.29V55.68h-1.27V54.51h1.27V51.76h1.34v2.75h2.86v1.17Z" fill="#3a3d3f"/>
            <path d="M435.38,50.91h1.35v1.57h-1.35Zm0,3.6h1.35v9h-1.35Z" fill="#3a3d3f"/>
            <path d="M439.33,63.52v-9h1.33v.63a6,6,0,0,1,2.63-.81,2.54,2.54,0,0,1,2.34.92,7.46,7.46,0,0,1,3.2-.92c2.45,0,3,1.17,3,4.43v4.76h-1.35V58.8c0-2.38-.26-3.26-1.89-3.26a6,6,0,0,0-2.54.67,9.71,9.71,0,0,1,.24,2.62v4.69H445V58.87c0-2.48-.25-3.33-1.89-3.33a5.4,5.4,0,0,0-2.42.67v7.31Z" fill="#3a3d3f"/>
            <path d="M461,62.34l0,1.07a31.12,31.12,0,0,1-3.51.29c-2.68,0-3.56-1.57-3.56-4.63,0-3.42,1.47-4.74,3.76-4.74s3.62,1.26,3.62,4.22l-.07,1h-6c0,1.93.6,2.94,2.36,2.94C459.05,62.51,461,62.34,461,62.34Zm-1-3.85c0-2.23-.68-3-2.27-3s-2.4.84-2.41,3Z" fill="#3a3d3f"/>
            <path d="M469.15,63.52H467.8V55.68h-1.13V54.51h1.13V53.7c0-2.59.67-3.29,2.43-3.29.61,0,1.82.12,1.82.12l0,1.12s-1,0-1.55,0c-1,0-1.33.44-1.33,2.11v.79h2.61v1.17h-2.61Z" fill="#3a3d3f"/>
            <path d="M473.38,54.51h1.33v1.23a10.32,10.32,0,0,1,3.3-1.43v1.37a13,13,0,0,0-3.28,1.23v6.61h-1.35Z" fill="#3a3d3f"/>
            <path d="M486,61.84c0,.52.47.72,1.05.79L487,63.7a2.75,2.75,0,0,1-2.14-.72,9.2,9.2,0,0,1-3.24.72c-1.64,0-2.54-.94-2.54-2.76s.9-2.48,2.76-2.66l2.82-.27v-.78c0-1.26-.54-1.71-1.62-1.71-1.26,0-3.4.23-3.4.23l0-1a21.6,21.6,0,0,1,3.53-.4c2,0,2.89.94,2.89,2.9Zm-4-2.56c-1.1.11-1.53.63-1.53,1.62s.45,1.66,1.37,1.66a9.47,9.47,0,0,0,2.82-.56V59Z" fill="#3a3d3f"/>
            <path d="M488.63,63.52v-9H490v.63a6,6,0,0,1,2.63-.81,2.54,2.54,0,0,1,2.34.92,7.46,7.46,0,0,1,3.2-.92c2.45,0,3,1.17,3,4.43v4.76h-1.34V58.8c0-2.38-.27-3.26-1.9-3.26a5.88,5.88,0,0,0-2.53.67,10.25,10.25,0,0,1,.23,2.62v4.69h-1.35V58.87c0-2.48-.25-3.33-1.89-3.33a5.34,5.34,0,0,0-2.41.67v7.31Z" fill="#3a3d3f"/>
            <path d="M510.32,62.34l0,1.07a31.12,31.12,0,0,1-3.51.29c-2.68,0-3.56-1.57-3.56-4.63,0-3.42,1.48-4.74,3.76-4.74s3.62,1.26,3.62,4.22l-.07,1h-5.94c0,1.93.59,2.94,2.36,2.94C508.35,62.51,510.32,62.34,510.32,62.34Zm-1-3.85c0-2.23-.68-3-2.27-3s-2.39.84-2.41,3Z" fill="#3a3d3f"/>
            <path d="M136.08,82.51l1.82,7.83h.29l2.14-7.65h1.41l2.14,7.65h.31l1.8-7.83h1.35l-2.15,9h-2.25l-1.9-7-1.91,7h-2.25l-2.15-9Z" fill="#3a3d3f"/>
            <path d="M156.5,86.91c0,3.27-.81,4.79-3.86,4.79s-3.85-1.52-3.85-4.79c0-3.1,1-4.58,3.85-4.58S156.5,83.81,156.5,86.91Zm-1.39,0c0-2.51-.54-3.41-2.47-3.41s-2.46.9-2.46,3.41.34,3.61,2.46,3.61S155.11,89.46,155.11,86.91Z" fill="#3a3d3f"/>
            <path d="M165.66,82.51v9h-1.35v-.63a6.08,6.08,0,0,1-2.67.81c-2.52,0-3-1.18-3-4.49v-4.7H160v4.68c0,2.49.22,3.3,1.89,3.3a5.47,5.47,0,0,0,2.47-.67V82.51Z" fill="#3a3d3f"/>
            <path d="M168.36,78.59h1.35V91.52h-1.35Z" fill="#3a3d3f"/>
            <path d="M179.32,91.52H178V90.9a6.44,6.44,0,0,1-2.74.8c-1.76,0-3.24-.72-3.24-4.61,0-3.17,1-4.76,3.76-4.76a14.13,14.13,0,0,1,2.22.24v-4h1.33ZM178,89.82v-6.1a14.27,14.27,0,0,0-2.14-.22c-1.89,0-2.45,1.24-2.45,3.59,0,2.91.95,3.4,2,3.4A6.53,6.53,0,0,0,178,89.82Z" fill="#3a3d3f"/>
            <path d="M192.53,90.34l0,1.07a31.12,31.12,0,0,1-3.51.29c-2.69,0-3.57-1.57-3.57-4.63,0-3.42,1.48-4.74,3.77-4.74s3.61,1.26,3.61,4.22l-.07,1h-5.94c0,1.93.6,2.94,2.36,2.94C190.57,90.51,192.53,90.34,192.53,90.34Zm-1-3.85c0-2.23-.68-3-2.26-3s-2.4.84-2.42,3Z" fill="#3a3d3f"/>
            <path d="M195,91.52v-9h1.33v.63a6.85,6.85,0,0,1,2.79-.81c2.49,0,3.05,1.23,3.05,4.43v4.76h-1.34V86.8c0-2.38-.27-3.26-1.94-3.26a6.12,6.12,0,0,0-2.54.67v7.31Z" fill="#3a3d3f"/>
            <path d="M211,89.84c0,.52.47.72,1,.79l0,1.07a2.75,2.75,0,0,1-2.14-.72,9.2,9.2,0,0,1-3.24.72c-1.64,0-2.54-.94-2.54-2.76s.9-2.48,2.75-2.66l2.83-.27v-.78c0-1.26-.54-1.71-1.62-1.71-1.26,0-3.4.23-3.4.23l-.06-1a21.6,21.6,0,0,1,3.53-.4c2,0,2.9.94,2.9,2.9Zm-4-2.56c-1.1.11-1.54.63-1.54,1.62s.46,1.66,1.37,1.66a9.48,9.48,0,0,0,2.83-.56V87Z" fill="#3a3d3f"/>
            <path d="M220.92,86.87c0,3.58-1,4.83-4.25,4.83-1.08,0-3-.2-3-.2V78.59H215V83a7.36,7.36,0,0,1,2.64-.63C220.09,82.33,220.92,83.63,220.92,86.87Zm-1.37,0c0-2.32-.47-3.33-2.05-3.33a7.57,7.57,0,0,0-2.5.52V90.4s1.17.09,1.65.09C219.12,90.49,219.55,89.39,219.55,86.87Z" fill="#3a3d3f"/>
            <path d="M223.24,78.59h1.35V91.52h-1.35Z" fill="#3a3d3f"/>
            <path d="M233.93,90.34l0,1.07a31.12,31.12,0,0,1-3.51.29c-2.69,0-3.57-1.57-3.57-4.63,0-3.42,1.48-4.74,3.77-4.74s3.61,1.26,3.61,4.22l-.07,1h-5.94c0,1.93.59,2.94,2.36,2.94C232,90.51,233.93,90.34,233.93,90.34Zm-1-3.85c0-2.23-.68-3-2.26-3s-2.4.84-2.42,3Z" fill="#3a3d3f"/>
            <path d="M247.31,82.51v9H246v-.63a6.14,6.14,0,0,1-2.67.81c-2.52,0-3-1.18-3-4.49v-4.7h1.35v4.68c0,2.49.21,3.3,1.89,3.3a5.47,5.47,0,0,0,2.47-.67V82.51Z" fill="#3a3d3f"/>
            <path d="M255.87,83.83a29.33,29.33,0,0,0-3.15-.29c-1.11,0-2,.3-2,1.37,0,.84.43,1.08,2.34,1.4,2.25.38,3.1.83,3.1,2.58,0,2.1-1.34,2.81-3.5,2.81a24.71,24.71,0,0,1-3.16-.35l.07-1.17a29.5,29.5,0,0,0,3,.31c1.48,0,2.27-.33,2.27-1.55,0-.94-.47-1.17-2.43-1.48s-3-.7-3-2.5c0-2,1.6-2.63,3.24-2.63a23.19,23.19,0,0,1,3.26.34Z" fill="#3a3d3f"/>
            <path d="M264,83.68V88c0,2,.12,2.52,1.29,2.52.51,0,1.6-.11,1.6-.11l.09,1.12a16.23,16.23,0,0,1-1.83.19c-1.86,0-2.49-.7-2.49-3.29V83.68h-1.27V82.51h1.27V79.76H264v2.75h2.86v1.17Z" fill="#3a3d3f"/>
            <path d="M275.85,86.91c0,3.27-.81,4.79-3.85,4.79s-3.85-1.52-3.85-4.79c0-3.1,1-4.58,3.85-4.58S275.85,83.81,275.85,86.91Zm-1.38,0c0-2.51-.54-3.41-2.47-3.41s-2.47.9-2.47,3.41.35,3.61,2.47,3.61S274.47,89.46,274.47,86.91Z" fill="#3a3d3f"/>
            <path d="M289,82.51v9h-1.35v-.63a6.14,6.14,0,0,1-2.67.81c-2.52,0-3-1.18-3-4.49v-4.7h1.35v4.68c0,2.49.21,3.3,1.89,3.3a5.47,5.47,0,0,0,2.47-.67V82.51Z" fill="#3a3d3f"/>
            <path d="M297.54,83.83a29.33,29.33,0,0,0-3.15-.29c-1.11,0-2,.3-2,1.37,0,.84.43,1.08,2.34,1.4,2.25.38,3.1.83,3.1,2.58,0,2.1-1.34,2.81-3.5,2.81a24.71,24.71,0,0,1-3.16-.35l.07-1.17a29.5,29.5,0,0,0,3,.31c1.48,0,2.27-.33,2.27-1.55,0-.94-.47-1.17-2.43-1.48s-3-.7-3-2.5c0-2,1.6-2.63,3.24-2.63a23.19,23.19,0,0,1,3.26.34Z" fill="#3a3d3f"/>
            <path d="M306.58,90.34l0,1.07a31.4,31.4,0,0,1-3.52.29c-2.68,0-3.56-1.57-3.56-4.63,0-3.42,1.48-4.74,3.76-4.74s3.62,1.26,3.62,4.22l-.07,1h-5.94c0,1.93.59,2.94,2.36,2.94C304.62,90.51,306.58,90.34,306.58,90.34Zm-1-3.85c0-2.23-.68-3-2.27-3s-2.39.84-2.41,3Z" fill="#3a3d3f"/>
            <path d="M314.79,83.68V88c0,2,.12,2.52,1.29,2.52.51,0,1.6-.11,1.6-.11l.09,1.12a16.23,16.23,0,0,1-1.83.19c-1.86,0-2.49-.7-2.49-3.29V83.68h-1.28V82.51h1.28V79.76h1.34v2.75h2.86v1.17Z" fill="#3a3d3f"/>
            <path d="M319.3,91.52V78.59h1.35V83a7.57,7.57,0,0,1,2.78-.69c2.46,0,3,1.23,3,4.43v4.76h-1.35V86.8c0-2.38-.27-3.26-1.93-3.26a7.48,7.48,0,0,0-2.54.54v7.44Z" fill="#3a3d3f"/>
            <path d="M335.61,90.34l0,1.07a31.12,31.12,0,0,1-3.51.29c-2.68,0-3.57-1.57-3.57-4.63,0-3.42,1.48-4.74,3.77-4.74S336,83.59,336,86.55l-.08,1h-5.94c0,1.93.6,2.94,2.36,2.94C333.65,90.51,335.61,90.34,335.61,90.34Zm-1-3.85c0-2.23-.68-3-2.26-3s-2.4.84-2.42,3Z" fill="#3a3d3f"/>
            <path d="M338.06,91.52v-9h1.33v.63a6,6,0,0,1,2.63-.81,2.53,2.53,0,0,1,2.34.92,7.47,7.47,0,0,1,3.21-.92c2.44,0,3,1.17,3,4.43v4.76h-1.35V86.8c0-2.38-.27-3.26-1.89-3.26a6,6,0,0,0-2.54.67,10.25,10.25,0,0,1,.23,2.62v4.69h-1.35V86.87c0-2.48-.25-3.33-1.89-3.33a5.34,5.34,0,0,0-2.41.67v7.31Z" fill="#3a3d3f"/>
            <path d="M363.42,89.84c0,.52.47.72,1.05.79l-.06,1.07a2.75,2.75,0,0,1-2.14-.72,9.2,9.2,0,0,1-3.24.72c-1.64,0-2.54-.94-2.54-2.76s.9-2.48,2.76-2.66l2.82-.27v-.78c0-1.26-.54-1.71-1.62-1.71-1.26,0-3.4.23-3.4.23l-.05-1a21.57,21.57,0,0,1,3.52-.4c2,0,2.9.94,2.9,2.9Zm-4-2.56c-1.1.11-1.53.63-1.53,1.62s.45,1.66,1.37,1.66a9.47,9.47,0,0,0,2.82-.56V87Z" fill="#3a3d3f"/>
            <path d="M367.89,83.68V88c0,2,.12,2.52,1.29,2.52.51,0,1.6-.11,1.6-.11l.09,1.12a16.23,16.23,0,0,1-1.83.19c-1.86,0-2.49-.7-2.49-3.29V83.68h-1.28V82.51h1.28V79.76h1.34v2.75h2.86v1.17Z" fill="#3a3d3f"/>
            <path d="M382.72,89.84c0,.52.47.72,1,.79l-.05,1.07a2.75,2.75,0,0,1-2.14-.72,9.2,9.2,0,0,1-3.24.72c-1.64,0-2.54-.94-2.54-2.76s.9-2.48,2.75-2.66l2.83-.27v-.78c0-1.26-.54-1.71-1.62-1.71-1.26,0-3.41.23-3.41.23l0-1a21.6,21.6,0,0,1,3.53-.4c2,0,2.9.94,2.9,2.9Zm-4-2.56c-1.09.11-1.53.63-1.53,1.62s.45,1.66,1.37,1.66a9.57,9.57,0,0,0,2.83-.56V87Z" fill="#3a3d3f"/>
            <path d="M385.49,78.59h1.35V91.52h-1.35Z" fill="#3a3d3f"/>
            <path d="M389.54,91.52v-9h1.33v.63a6,6,0,0,1,2.63-.81,2.53,2.53,0,0,1,2.34.92,7.47,7.47,0,0,1,3.21-.92c2.45,0,3,1.17,3,4.43v4.76h-1.35V86.8c0-2.38-.27-3.26-1.89-3.26a5.89,5.89,0,0,0-2.54.67,10.25,10.25,0,0,1,.23,2.62v4.69h-1.35V86.87c0-2.48-.25-3.33-1.89-3.33a5.34,5.34,0,0,0-2.41.67v7.31Z" fill="#3a3d3f"/>
            <path d="M411.9,86.91c0,3.27-.81,4.79-3.86,4.79s-3.85-1.52-3.85-4.79c0-3.1,1-4.58,3.85-4.58S411.9,83.81,411.9,86.91Zm-1.39,0c0-2.51-.54-3.41-2.47-3.41s-2.46.9-2.46,3.41.34,3.61,2.46,3.61S410.51,89.46,410.51,86.91Z" fill="#3a3d3f"/>
            <path d="M420.07,83.83a29.33,29.33,0,0,0-3.15-.29c-1.12,0-2,.3-2,1.37,0,.84.44,1.08,2.35,1.4,2.25.38,3.09.83,3.09,2.58,0,2.1-1.33,2.81-3.49,2.81a25,25,0,0,1-3.17-.35l.07-1.17a29.5,29.5,0,0,0,3,.31c1.48,0,2.27-.33,2.27-1.55,0-.94-.47-1.17-2.43-1.48s-3-.7-3-2.5c0-2,1.61-2.63,3.24-2.63a23,23,0,0,1,3.26.34Z" fill="#3a3d3f"/>
            <path d="M424.26,83.68V88c0,2,.13,2.52,1.3,2.52.5,0,1.6-.11,1.6-.11l.09,1.12a16.5,16.5,0,0,1-1.84.19c-1.85,0-2.48-.7-2.48-3.29V83.68h-1.28V82.51h1.28V79.76h1.33v2.75h2.86v1.17Z" fill="#3a3d3f"/>
            <path d="M434.47,91.52h-1.35V83.68H432V82.51h1.14V81.7c0-2.59.66-3.29,2.43-3.29.61,0,1.82.12,1.82.12l0,1.12s-1,0-1.55,0c-1,0-1.33.44-1.33,2.11v.79h2.61v1.17h-2.61Z" fill="#3a3d3f"/>
            <path d="M445.67,82.51v9h-1.35v-.63a6.14,6.14,0,0,1-2.67.81c-2.52,0-3-1.18-3-4.49v-4.7H440v4.68c0,2.49.21,3.3,1.89,3.3a5.47,5.47,0,0,0,2.47-.67V82.51Z" fill="#3a3d3f"/>
            <path d="M448.36,78.59h1.35V91.52h-1.35Z" fill="#3a3d3f"/>
            <path d="M452.52,78.59h1.35V91.52h-1.35Z" fill="#3a3d3f"/>
            <path d="M135.47,110.51h1.33v.65a6.13,6.13,0,0,1,2.71-.83c2.26,0,3.25,1.39,3.25,4.58,0,3.53-1.15,4.79-3.92,4.79a12,12,0,0,1-2-.2v4h-1.35Zm1.35,1.75v6.07a14.93,14.93,0,0,0,2,.19c2,0,2.63-1,2.63-3.61s-.78-3.37-2.09-3.37A5.87,5.87,0,0,0,136.82,112.26Z" fill="#3a3d3f"/>
            <path d="M151.6,118.34l0,1.07a31.12,31.12,0,0,1-3.51.29c-2.69,0-3.57-1.57-3.57-4.63,0-3.42,1.48-4.74,3.77-4.74s3.61,1.26,3.61,4.22l-.07,1h-5.94c0,1.93.59,2.94,2.36,2.94C149.64,118.51,151.6,118.34,151.6,118.34Zm-1-3.85c0-2.23-.68-3-2.26-3s-2.4.84-2.42,3Z" fill="#3a3d3f"/>
            <path d="M154.05,110.51h1.33v1.23a10.34,10.34,0,0,1,3.29-1.43v1.37a12.81,12.81,0,0,0-3.27,1.23v6.61h-1.35Z" fill="#3a3d3f"/>
            <path d="M162,119.52h-1.35v-7.84h-1.13v-1.17h1.13v-.81c0-2.59.67-3.29,2.44-3.29.61,0,1.81.12,1.81.12l0,1.12s-1,0-1.54,0c-1,0-1.34.44-1.34,2.11v.79h2.61v1.17H162Z" fill="#3a3d3f"/>
            <path d="M173.54,114.91c0,3.27-.81,4.79-3.85,4.79s-3.85-1.52-3.85-4.79c0-3.1,1-4.58,3.85-4.58S173.54,111.81,173.54,114.91Zm-1.38,0c0-2.51-.54-3.41-2.47-3.41s-2.47.9-2.47,3.41.35,3.61,2.47,3.61S172.16,117.46,172.16,114.91Z" fill="#3a3d3f"/>
            <path d="M175.74,110.51h1.33v1.23a10.34,10.34,0,0,1,3.29-1.43v1.37a12.81,12.81,0,0,0-3.27,1.23v6.61h-1.35Z" fill="#3a3d3f"/>
            <path d="M182,119.52v-9h1.34v.63a6,6,0,0,1,2.63-.81,2.54,2.54,0,0,1,2.34.92,7.46,7.46,0,0,1,3.2-.92c2.45,0,3,1.17,3,4.43v4.76h-1.34V114.8c0-2.38-.28-3.26-1.9-3.26a5.88,5.88,0,0,0-2.53.67,10.25,10.25,0,0,1,.23,2.62v4.69h-1.35v-4.65c0-2.48-.25-3.33-1.89-3.33a5.34,5.34,0,0,0-2.41.67v7.31Z" fill="#3a3d3f"/>
            <path d="M203.37,117.84c0,.52.47.72,1,.79l0,1.07a2.75,2.75,0,0,1-2.14-.72,9.2,9.2,0,0,1-3.24.72c-1.64,0-2.54-.94-2.54-2.76s.9-2.48,2.75-2.66L202,114v-.78c0-1.26-.54-1.71-1.62-1.71-1.26,0-3.4.23-3.4.23l-.06-1a21.6,21.6,0,0,1,3.53-.4c2,0,2.9.94,2.9,2.9Zm-4-2.56c-1.09.11-1.53.63-1.53,1.62s.45,1.66,1.37,1.66A9.57,9.57,0,0,0,202,118v-3Z" fill="#3a3d3f"/>
            <path d="M206,119.52v-9h1.33v.63a6.85,6.85,0,0,1,2.79-.81c2.49,0,3,1.23,3,4.43v4.76h-1.34V114.8c0-2.38-.27-3.26-1.94-3.26a6.12,6.12,0,0,0-2.54.67v7.31Z" fill="#3a3d3f"/>
            <path d="M221.51,110.6l0,1.1s-1.44-.16-2.13-.16c-2.07,0-2.63.9-2.63,3.31,0,2.67.42,3.64,2.65,3.64.69,0,2.13-.16,2.13-.16l.05,1.11a23.06,23.06,0,0,1-2.5.26c-2.86,0-3.71-1.32-3.71-4.85,0-3.26,1.06-4.52,3.74-4.52A20.89,20.89,0,0,1,221.51,110.6Z" fill="#3a3d3f"/>
            <path d="M230.19,118.34l0,1.07a31.12,31.12,0,0,1-3.51.29c-2.68,0-3.56-1.57-3.56-4.63,0-3.42,1.47-4.74,3.76-4.74s3.62,1.26,3.62,4.22l-.07,1h-5.94c0,1.93.59,2.94,2.35,2.94C228.23,118.51,230.19,118.34,230.19,118.34Zm-1-3.85c0-2.23-.68-3-2.27-3s-2.39.84-2.41,3Z" fill="#3a3d3f"/>
            <path d="M243,117.84c0,.52.47.72,1,.79l-.05,1.07a2.75,2.75,0,0,1-2.14-.72,9.2,9.2,0,0,1-3.24.72c-1.64,0-2.54-.94-2.54-2.76s.9-2.48,2.75-2.66l2.83-.27v-.78c0-1.26-.54-1.71-1.62-1.71-1.26,0-3.4.23-3.4.23l-.06-1a21.6,21.6,0,0,1,3.53-.4c2,0,2.9.94,2.9,2.9Zm-4-2.56c-1.09.11-1.53.63-1.53,1.62s.45,1.66,1.37,1.66a9.57,9.57,0,0,0,2.83-.56v-3Z" fill="#3a3d3f"/>
            <path d="M245.61,119.52v-9h1.33v.63a6.86,6.86,0,0,1,2.8-.81c2.48,0,3,1.23,3,4.43v4.76h-1.34V114.8c0-2.38-.27-3.26-1.94-3.26a6.12,6.12,0,0,0-2.54.67v7.31Z" fill="#3a3d3f"/>
            <path d="M262.19,119.52h-1.33v-.62a6.44,6.44,0,0,1-2.74.8c-1.76,0-3.24-.72-3.24-4.61,0-3.17,1-4.76,3.76-4.76a14.13,14.13,0,0,1,2.22.24v-4h1.33Zm-1.33-1.7v-6.1a14.42,14.42,0,0,0-2.14-.22c-1.89,0-2.45,1.24-2.45,3.59,0,2.91,1,3.4,2,3.4A6.54,6.54,0,0,0,260.86,117.82Z" fill="#3a3d3f"/>
            <path d="M274.58,110.6l-.06,1.1s-1.44-.16-2.12-.16c-2.07,0-2.63.9-2.63,3.31,0,2.67.41,3.64,2.64,3.64.69,0,2.13-.16,2.13-.16l0,1.11a23.06,23.06,0,0,1-2.5.26c-2.86,0-3.71-1.32-3.71-4.85,0-3.26,1.06-4.52,3.75-4.52A21.18,21.18,0,0,1,274.58,110.6Z" fill="#3a3d3f"/>
            <path d="M283,117.84c0,.52.47.72,1.05.79L284,119.7a2.75,2.75,0,0,1-2.14-.72,9.2,9.2,0,0,1-3.24.72c-1.64,0-2.54-.94-2.54-2.76s.9-2.48,2.75-2.66l2.83-.27v-.78c0-1.26-.54-1.71-1.62-1.71-1.26,0-3.4.23-3.4.23l-.06-1a21.6,21.6,0,0,1,3.53-.4c2,0,2.9.94,2.9,2.9Zm-4-2.56c-1.1.11-1.53.63-1.53,1.62s.45,1.66,1.36,1.66a9.48,9.48,0,0,0,2.83-.56v-3Z" fill="#3a3d3f"/>
            <path d="M285.62,110.51H287v1.23a10.21,10.21,0,0,1,3.29-1.43v1.37a13,13,0,0,0-3.28,1.23v6.61h-1.35Z" fill="#3a3d3f"/>
            <path d="M291.85,110.51h1.33v1.23a10.32,10.32,0,0,1,3.3-1.43v1.37a13,13,0,0,0-3.28,1.23v6.61h-1.35Z" fill="#3a3d3f"/>
            <path d="M298.58,110.51l2.25,7.83h.6l2.27-7.83h1.35l-3.75,13H300l1.17-4h-1.33l-2.56-9Z" fill="#3a3d3f"/>
            <path d="M315.14,107.63h1.3v11.89h-1.39V109.18l-3.06,2-.63-1Z" fill="#3a3d3f"/>
            <path d="M326,117.19h-5.76v-1.08l3.38-8.48h1.51L321.69,116H326v-3.71h1.38V116h1.52v1.22h-1.52v2.33H326Z" fill="#3a3d3f"/>
            <path d="M338.91,110.53c0,1.53-.6,2.16-2,2.77,1.28.58,2.17,1.28,2.17,3,0,2.61-2,3.41-4.49,3.41s-4.43-.74-4.43-3.21a3.18,3.18,0,0,1,2.06-3.19,2.75,2.75,0,0,1-1.86-2.79c0-2.05,1.64-3.08,4.23-3.08S338.91,108.44,338.91,110.53Zm-1.3,5.62c0-1.39-.92-1.84-2.11-2.18h-1.89c-1.24.34-2,1-2,2.29,0,1.64,1.26,2.18,3,2.18S337.61,117.9,337.61,116.15Zm-5.76-5.48c0,1.1.59,1.68,1.76,2.09h1.89c1.23-.39,1.93-1,1.93-2.07,0-1.42-1.06-2-2.81-2S331.85,109.25,331.85,110.67Z" fill="#3a3d3f"/>
            <path d="M344.93,119.52v-9h1.33v.63a6.1,6.1,0,0,1,2.63-.81,2.55,2.55,0,0,1,2.35.92,7.46,7.46,0,0,1,3.2-.92c2.45,0,3,1.17,3,4.43v4.76h-1.35V114.8c0-2.38-.27-3.26-1.89-3.26a6,6,0,0,0-2.54.67,10.15,10.15,0,0,1,.24,2.62v4.69h-1.35v-4.65c0-2.48-.25-3.33-1.89-3.33a5.4,5.4,0,0,0-2.42.67v7.31Z" fill="#3a3d3f"/>
            <path d="M367.29,114.91c0,3.27-.81,4.79-3.85,4.79s-3.85-1.52-3.85-4.79c0-3.1,1-4.58,3.85-4.58S367.29,111.81,367.29,114.91Zm-1.39,0c0-2.51-.54-3.41-2.46-3.41s-2.47.9-2.47,3.41.34,3.61,2.47,3.61S365.9,117.46,365.9,114.91Z" fill="#3a3d3f"/>
            <path d="M369.48,110.51h1.34v1.23a10.21,10.21,0,0,1,3.29-1.43v1.37a12.81,12.81,0,0,0-3.27,1.23v6.61h-1.36Z" fill="#3a3d3f"/>
            <path d="M382.36,118.34l0,1.07a31.12,31.12,0,0,1-3.51.29c-2.68,0-3.56-1.57-3.56-4.63,0-3.42,1.47-4.74,3.76-4.74s3.62,1.26,3.62,4.22l-.07,1h-5.95c0,1.93.6,2.94,2.36,2.94C380.39,118.51,382.36,118.34,382.36,118.34Zm-1-3.85c0-2.23-.69-3-2.27-3s-2.4.84-2.41,3Z" fill="#3a3d3f"/>
            <path d="M396,114.87c0,3.58-1,4.83-4.25,4.83-1.08,0-3-.2-3-.2V106.59h1.33V111a7.44,7.44,0,0,1,2.65-.63C395.19,110.33,396,111.63,396,114.87Zm-1.37,0c0-2.32-.47-3.33-2-3.33a7.59,7.59,0,0,0-2.51.52v6.34s1.17.09,1.66.09C394.22,118.49,394.65,117.39,394.65,114.87Z" fill="#3a3d3f"/>
            <path d="M404.59,117.84c0,.52.46.72,1,.79l-.05,1.07a2.76,2.76,0,0,1-2.15-.72,9.2,9.2,0,0,1-3.24.72c-1.64,0-2.54-.94-2.54-2.76s.9-2.48,2.76-2.66l2.83-.27v-.78c0-1.26-.55-1.71-1.63-1.71-1.26,0-3.4.23-3.4.23l0-1a21.6,21.6,0,0,1,3.53-.4c2,0,2.9.94,2.9,2.9Zm-4-2.56c-1.1.11-1.53.63-1.53,1.62s.45,1.66,1.37,1.66a9.57,9.57,0,0,0,2.83-.56v-3Z" fill="#3a3d3f"/>
            <path d="M406.85,121c0-1,.49-1.53,1.42-2.23a1.49,1.49,0,0,1-.5-1.25,5.82,5.82,0,0,1,.61-1.42c-.75-.34-1.42-1.06-1.42-2.72,0-2.21,1.37-3.08,3.37-3.08a9.07,9.07,0,0,1,1.87.24l2.66-.08v1.16l-1.71,0a2.31,2.31,0,0,1,.6,1.8c0,2.34-1.17,3-3.48,3a6.79,6.79,0,0,1-.88-.07,5.32,5.32,0,0,0-.32,1c0,.72.14.83,2.18.83,2.55,0,3.47.5,3.47,2.64s-1.46,2.87-4,2.87C407.88,123.75,406.85,123.12,406.85,121Zm2.34-1.7c-.76.56-1,.89-1,1.59,0,1.24.53,1.69,2.56,1.69,1.8,0,2.61-.48,2.61-1.67,0-1.37-.58-1.51-2.21-1.51C410.51,119.43,409.19,119.33,409.19,119.33Zm3.21-5.92c0-1.42-.56-2-2.07-2s-2,.56-2,2,.61,2,2,2S412.4,114.83,412.4,113.41Z" fill="#3a3d3f"/>
            <path d="M422.48,111.83a29.33,29.33,0,0,0-3.15-.29c-1.12,0-2,.3-2,1.37,0,.84.44,1.08,2.34,1.4,2.25.38,3.1.83,3.1,2.58,0,2.1-1.33,2.81-3.49,2.81a25,25,0,0,1-3.17-.35l.07-1.17a29.5,29.5,0,0,0,3,.31c1.48,0,2.27-.33,2.27-1.55,0-.94-.47-1.17-2.43-1.48s-3-.7-3-2.5c0-2,1.61-2.63,3.24-2.63a23.19,23.19,0,0,1,3.26.34Z" fill="#3a3d3f"/>
            <path d="M424.78,117.46h1.48v2.06h-1.48Z" fill="#3a3d3f"/>
            <path d="M1259.9,51.06h9V52.3h-3.8V63.52h-1.37V52.3h-3.84Z" fill="#3a3d3f"/>
            <path d="M1277.74,58.91c0,3.27-.81,4.79-3.85,4.79s-3.85-1.52-3.85-4.79c0-3.1,1-4.58,3.85-4.58S1277.74,55.81,1277.74,58.91Zm-1.38,0c0-2.51-.54-3.41-2.47-3.41s-2.47.9-2.47,3.41.35,3.61,2.47,3.61S1276.36,61.46,1276.36,58.91Z" fill="#3a3d3f"/>
            <path d="M1286.85,63.52h-1.33V62.9a6.44,6.44,0,0,1-2.74.8c-1.76,0-3.24-.72-3.24-4.61,0-3.17,1-4.76,3.76-4.76a14.13,14.13,0,0,1,2.22.24v-4h1.33Zm-1.33-1.7v-6.1a14.27,14.27,0,0,0-2.14-.22c-1.89,0-2.45,1.24-2.45,3.59,0,2.91,1,3.4,2,3.4A6.53,6.53,0,0,0,1285.52,61.82Z" fill="#3a3d3f"/>
            <path d="M1295.82,61.84c0,.52.46.72,1,.79l0,1.07a2.76,2.76,0,0,1-2.15-.72,9.2,9.2,0,0,1-3.24.72c-1.64,0-2.54-.94-2.54-2.76s.9-2.48,2.76-2.66l2.82-.27v-.78c0-1.26-.54-1.71-1.62-1.71-1.26,0-3.4.23-3.4.23l0-1a21.6,21.6,0,0,1,3.53-.4c2,0,2.9.94,2.9,2.9Zm-4-2.56c-1.1.11-1.53.63-1.53,1.62s.45,1.66,1.37,1.66a9.47,9.47,0,0,0,2.82-.56V59Z" fill="#3a3d3f"/>
            <path d="M1299,54.51l2.25,7.83h.6l2.26-7.83h1.36l-3.75,13h-1.35l1.17-4h-1.33l-2.56-9Z" fill="#3a3d3f"/>
            <path d="M1312.93,55.68V60c0,2,.13,2.52,1.3,2.52.5,0,1.6-.11,1.6-.11l.09,1.12a16.5,16.5,0,0,1-1.84.19c-1.85,0-2.48-.7-2.48-3.29V55.68h-1.28V54.51h1.28V51.76h1.33v2.75h2.86v1.17Z" fill="#3a3d3f"/>
            <path d="M1317.45,63.52V50.59h1.35V55a7.55,7.55,0,0,1,2.77-.69c2.47,0,3,1.23,3,4.43v4.76h-1.36V58.8c0-2.38-.27-3.26-1.92-3.26a7.41,7.41,0,0,0-2.54.54v7.44Z" fill="#3a3d3f"/>
            <path d="M1333.76,62.34l0,1.07a31.4,31.4,0,0,1-3.52.29c-2.68,0-3.56-1.57-3.56-4.63,0-3.42,1.48-4.74,3.76-4.74s3.62,1.26,3.62,4.22l-.07,1h-5.94c0,1.93.59,2.94,2.36,2.94C1331.8,62.51,1333.76,62.34,1333.76,62.34Zm-1-3.85c0-2.23-.68-3-2.27-3s-2.39.84-2.41,3Z" fill="#3a3d3f"/>
            <path d="M1336.21,54.51h1.33v1.23a10.21,10.21,0,0,1,3.29-1.43v1.37a13,13,0,0,0-3.28,1.23v6.61h-1.34Z" fill="#3a3d3f"/>
            <path d="M1349.08,62.34l0,1.07a31.12,31.12,0,0,1-3.51.29c-2.68,0-3.56-1.57-3.56-4.63,0-3.42,1.47-4.74,3.76-4.74s3.62,1.26,3.62,4.22l-.07,1h-5.95c0,1.93.6,2.94,2.36,2.94C1347.11,62.51,1349.08,62.34,1349.08,62.34Zm-1-3.85c0-2.23-.69-3-2.27-3s-2.4.84-2.41,3Z" fill="#3a3d3f"/>
            <path d="M1361.84,61.84c0,.52.47.72,1,.79l-.05,1.07a2.74,2.74,0,0,1-2.14-.72,9.22,9.22,0,0,1-3.25.72c-1.63,0-2.53-.94-2.53-2.76s.9-2.48,2.75-2.66l2.83-.27v-.78c0-1.26-.54-1.71-1.62-1.71-1.26,0-3.41.23-3.41.23l0-1a21.6,21.6,0,0,1,3.53-.4c2,0,2.9.94,2.9,2.9Zm-4-2.56c-1.1.11-1.53.63-1.53,1.62s.45,1.66,1.37,1.66a9.57,9.57,0,0,0,2.83-.56V59Z" fill="#3a3d3f"/>
            <path d="M1364.5,54.51h1.33v1.23a10.32,10.32,0,0,1,3.3-1.43v1.37a12.78,12.78,0,0,0-3.28,1.23v6.61h-1.35Z" fill="#3a3d3f"/>
            <path d="M1377.37,62.34l0,1.07a31.38,31.38,0,0,1-3.51.29c-2.69,0-3.57-1.57-3.57-4.63,0-3.42,1.48-4.74,3.76-4.74s3.62,1.26,3.62,4.22l-.07,1h-5.94c0,1.93.59,2.94,2.36,2.94C1375.41,62.51,1377.37,62.34,1377.37,62.34Zm-1-3.85c0-2.23-.68-3-2.27-3s-2.39.84-2.41,3Z" fill="#3a3d3f"/>
            <path d="M1385.58,55.68V60c0,2,.12,2.52,1.29,2.52.51,0,1.61-.11,1.61-.11l.09,1.12a16.5,16.5,0,0,1-1.84.19c-1.85,0-2.48-.7-2.48-3.29V55.68H1383V54.51h1.28V51.76h1.33v2.75h2.86v1.17Z" fill="#3a3d3f"/>
            <path d="M1390.1,50.91h1.35v1.57h-1.35Zm0,3.6h1.35v9h-1.35Z" fill="#3a3d3f"/>
            <path d="M1394,63.52v-9h1.33v.63a6,6,0,0,1,2.63-.81,2.54,2.54,0,0,1,2.34.92,7.46,7.46,0,0,1,3.2-.92c2.45,0,3,1.17,3,4.43v4.76h-1.35V58.8c0-2.38-.27-3.26-1.89-3.26a5.89,5.89,0,0,0-2.54.67,10.25,10.25,0,0,1,.23,2.62v4.69h-1.35V58.87c0-2.48-.25-3.33-1.89-3.33a5.34,5.34,0,0,0-2.41.67v7.31Z" fill="#3a3d3f"/>
            <path d="M1415.73,62.34l0,1.07a31.12,31.12,0,0,1-3.51.29c-2.68,0-3.56-1.57-3.56-4.63,0-3.42,1.48-4.74,3.76-4.74s3.62,1.26,3.62,4.22l-.07,1h-5.94c0,1.93.59,2.94,2.36,2.94C1413.77,62.51,1415.73,62.34,1415.73,62.34Zm-1-3.85c0-2.23-.68-3-2.27-3s-2.39.84-2.41,3Z" fill="#3a3d3f"/>
            <path d="M1428.11,55.83a29.33,29.33,0,0,0-3.15-.29c-1.12,0-2,.3-2,1.37,0,.84.43,1.08,2.34,1.4,2.25.38,3.1.83,3.1,2.58,0,2.1-1.34,2.81-3.5,2.81a25,25,0,0,1-3.17-.35l.08-1.17a29.5,29.5,0,0,0,3,.31c1.47,0,2.27-.33,2.27-1.55,0-.94-.47-1.17-2.43-1.48s-3-.7-3-2.5c0-2,1.6-2.63,3.24-2.63a23.19,23.19,0,0,1,3.26.34Z" fill="#3a3d3f"/>
            <path d="M1430.61,50.59H1432V63.52h-1.35Z" fill="#3a3d3f"/>
            <path d="M1442,58.91c0,3.27-.81,4.79-3.85,4.79s-3.85-1.52-3.85-4.79c0-3.1,1-4.58,3.85-4.58S1442,55.81,1442,58.91Zm-1.38,0c0-2.51-.54-3.41-2.47-3.41s-2.47.9-2.47,3.41.35,3.61,2.47,3.61S1440.59,61.46,1440.59,58.91Z" fill="#3a3d3f"/>
            <path d="M1446,55.68V60c0,2,.12,2.52,1.29,2.52.51,0,1.61-.11,1.61-.11l.09,1.12a16.5,16.5,0,0,1-1.84.19c-1.86,0-2.49-.7-2.49-3.29V55.68h-1.27V54.51h1.27V51.76H1446v2.75h2.86v1.17Z" fill="#3a3d3f"/>
            <path d="M1456.46,55.83a29.33,29.33,0,0,0-3.15-.29c-1.11,0-2,.3-2,1.37,0,.84.43,1.08,2.34,1.4,2.25.38,3.1.83,3.1,2.58,0,2.1-1.34,2.81-3.5,2.81a24.71,24.71,0,0,1-3.16-.35l.07-1.17a29.5,29.5,0,0,0,3,.31c1.47,0,2.27-.33,2.27-1.55,0-.94-.47-1.17-2.43-1.48s-3-.7-3-2.5c0-2,1.6-2.63,3.24-2.63a23.19,23.19,0,0,1,3.26.34Z" fill="#3a3d3f"/>
            <path d="M1464.62,55.68V60c0,2,.12,2.52,1.29,2.52.51,0,1.6-.11,1.6-.11l.09,1.12a16.23,16.23,0,0,1-1.83.19c-1.86,0-2.49-.7-2.49-3.29V55.68H1462V54.51h1.27V51.76h1.34v2.75h2.86v1.17Z" fill="#3a3d3f"/>
            <path d="M1469.13,63.52V50.59h1.35V55a7.57,7.57,0,0,1,2.78-.69c2.46,0,3,1.23,3,4.43v4.76H1475V58.8c0-2.38-.27-3.26-1.93-3.26a7.41,7.41,0,0,0-2.54.54v7.44Z" fill="#3a3d3f"/>
            <path d="M1485.16,61.84c0,.52.46.72,1,.79l0,1.07A2.76,2.76,0,0,1,1484,63a9.2,9.2,0,0,1-3.24.72c-1.64,0-2.54-.94-2.54-2.76s.9-2.48,2.76-2.66l2.82-.27v-.78c0-1.26-.54-1.71-1.62-1.71-1.26,0-3.4.23-3.4.23l0-1a21.6,21.6,0,0,1,3.53-.4c2,0,2.9.94,2.9,2.9Zm-4-2.56c-1.1.11-1.53.63-1.53,1.62s.45,1.66,1.37,1.66a9.47,9.47,0,0,0,2.82-.56V59Z" fill="#3a3d3f"/>
            <path d="M1489.62,55.68V60c0,2,.12,2.52,1.29,2.52.51,0,1.61-.11,1.61-.11l.09,1.12a16.5,16.5,0,0,1-1.84.19c-1.85,0-2.48-.7-2.48-3.29V55.68H1487V54.51h1.28V51.76h1.33v2.75h2.86v1.17Z" fill="#3a3d3f"/>
            <path d="M1504.45,61.84c0,.52.47.72,1,.79l-.06,1.07a2.75,2.75,0,0,1-2.14-.72,9.2,9.2,0,0,1-3.24.72c-1.64,0-2.54-.94-2.54-2.76s.9-2.48,2.75-2.66l2.83-.27v-.78c0-1.26-.54-1.71-1.62-1.71-1.26,0-3.4.23-3.4.23l-.06-1a21.6,21.6,0,0,1,3.53-.4c2,0,2.9.94,2.9,2.9Zm-4-2.56c-1.1.11-1.53.63-1.53,1.62s.45,1.66,1.36,1.66a9.48,9.48,0,0,0,2.83-.56V59Z" fill="#3a3d3f"/>
            <path d="M1507.11,54.51h1.34v1.23a10.21,10.21,0,0,1,3.29-1.43v1.37a13,13,0,0,0-3.28,1.23v6.61h-1.35Z" fill="#3a3d3f"/>
            <path d="M1520,62.34l0,1.07a31.12,31.12,0,0,1-3.51.29c-2.68,0-3.57-1.57-3.57-4.63,0-3.42,1.48-4.74,3.77-4.74s3.62,1.26,3.62,4.22l-.08,1h-5.94c0,1.93.6,2.94,2.36,2.94C1518,62.51,1520,62.34,1520,62.34Zm-1-3.85c0-2.23-.69-3-2.27-3s-2.4.84-2.41,3Z" fill="#3a3d3f"/>
            <path d="M1526.39,63.52v-9h1.33v.63a6.85,6.85,0,0,1,2.79-.81c2.49,0,3,1.23,3,4.43v4.76h-1.34V58.8c0-2.38-.27-3.26-1.94-3.26a6.12,6.12,0,0,0-2.54.67v7.31Z" fill="#3a3d3f"/>
            <path d="M1543.37,58.91c0,3.27-.81,4.79-3.86,4.79s-3.85-1.52-3.85-4.79c0-3.1,1-4.58,3.85-4.58S1543.37,55.81,1543.37,58.91Zm-1.39,0c0-2.51-.54-3.41-2.47-3.41s-2.46.9-2.46,3.41.34,3.61,2.46,3.61S1542,61.46,1542,58.91Z" fill="#3a3d3f"/>
            <path d="M1547.36,55.68V60c0,2,.13,2.52,1.3,2.52.5,0,1.6-.11,1.6-.11l.09,1.12a16.5,16.5,0,0,1-1.84.19c-1.85,0-2.48-.7-2.48-3.29V55.68h-1.28V54.51H1546V51.76h1.33v2.75h2.86v1.17Z" fill="#3a3d3f"/>
            <path d="M1555.84,63.52V50.59h1.35V55a7.55,7.55,0,0,1,2.77-.69c2.47,0,3,1.23,3,4.43v4.76h-1.36V58.8c0-2.38-.27-3.26-1.92-3.26a7.41,7.41,0,0,0-2.54.54v7.44Z" fill="#3a3d3f"/>
            <path d="M1565.5,50.91h1.35v1.57h-1.35Zm0,3.6h1.35v9h-1.35Z" fill="#3a3d3f"/>
            <path d="M1569.05,65c0-1.05.49-1.53,1.42-2.23a1.49,1.49,0,0,1-.5-1.25,5.82,5.82,0,0,1,.61-1.42c-.75-.34-1.42-1.06-1.42-2.72,0-2.21,1.37-3.08,3.37-3.08a9.07,9.07,0,0,1,1.87.24l2.66-.08v1.16l-1.71,0a2.35,2.35,0,0,1,.6,1.8c0,2.34-1.17,3-3.48,3a6.79,6.79,0,0,1-.88-.07,5.32,5.32,0,0,0-.32,1c0,.72.14.83,2.17.83,2.56,0,3.48.5,3.48,2.64s-1.46,2.87-4,2.87C1570.08,67.75,1569.05,67.12,1569.05,65Zm2.34-1.7c-.76.56-1,.89-1,1.59,0,1.24.53,1.69,2.56,1.69,1.8,0,2.61-.48,2.61-1.67,0-1.37-.58-1.51-2.21-1.51C1572.71,63.43,1571.39,63.33,1571.39,63.33Zm3.21-5.92c0-1.42-.56-2-2.07-2s-2,.56-2,2,.61,2,2,2S1574.6,58.83,1574.6,57.41Z" fill="#3a3d3f"/>
            <path d="M1578.7,63.52V50.59h1.35V55a7.55,7.55,0,0,1,2.77-.69c2.47,0,3,1.23,3,4.43v4.76h-1.36V58.8c0-2.38-.27-3.26-1.92-3.26a7.41,7.41,0,0,0-2.54.54v7.44Z" fill="#3a3d3f"/>
            <path d="M1588.47,50.59h1.35V63.52h-1.35Z" fill="#3a3d3f"/>
            <path d="M1593,54.51l2.25,7.83h.59l2.27-7.83h1.35l-3.74,13h-1.35l1.17-4h-1.34l-2.55-9Z" fill="#3a3d3f"/>
            <path d="M1612.43,58.87c0,3.58-1,4.83-4.25,4.83-1.08,0-3-.2-3-.2V50.59h1.33V55a7.44,7.44,0,0,1,2.65-.63C1611.6,54.33,1612.43,55.63,1612.43,58.87Zm-1.37,0c0-2.32-.46-3.33-2-3.33a7.57,7.57,0,0,0-2.5.52V62.4s1.17.09,1.66.09C1610.63,62.49,1611.06,61.39,1611.06,58.87Z" fill="#3a3d3f"/>
            <path d="M1621.61,54.51v9h-1.35v-.63a6.07,6.07,0,0,1-2.66.81c-2.52,0-3-1.18-3-4.49v-4.7h1.35v4.68c0,2.49.22,3.3,1.9,3.3a5.4,5.4,0,0,0,2.46-.67V54.51Z" fill="#3a3d3f"/>
            <path d="M1630.18,55.83a29.33,29.33,0,0,0-3.15-.29c-1.12,0-2,.3-2,1.37,0,.84.43,1.08,2.34,1.4,2.25.38,3.09.83,3.09,2.58,0,2.1-1.33,2.81-3.49,2.81a25,25,0,0,1-3.17-.35l.07-1.17a29.86,29.86,0,0,0,3,.31c1.48,0,2.27-.33,2.27-1.55,0-.94-.47-1.17-2.43-1.48s-3-.7-3-2.5c0-2,1.6-2.63,3.24-2.63a23.19,23.19,0,0,1,3.26.34Z" fill="#3a3d3f"/>
            <path d="M1633.08,54.51l2.25,7.83h.59l2.27-7.83h1.35l-3.74,13h-1.36l1.17-4h-1.33l-2.55-9Z" fill="#3a3d3f"/>
            <path d="M1641.17,61.46h1.48v2.06h-1.48Z" fill="#3a3d3f"/>
            <path d="M1648.05,51.06h9V52.3h-3.8V63.52h-1.36V52.3h-3.84Z" fill="#3a3d3f"/>
            <path d="M1658.58,63.52V50.59h1.35V55a7.55,7.55,0,0,1,2.77-.69c2.47,0,3,1.23,3,4.43v4.76h-1.35V58.8c0-2.38-.27-3.26-1.93-3.26a7.41,7.41,0,0,0-2.54.54v7.44Z" fill="#3a3d3f"/>
            <path d="M1668.25,50.91h1.35v1.57h-1.35Zm0,3.6h1.35v9h-1.35Z" fill="#3a3d3f"/>
            <path d="M1678.17,55.83a29.33,29.33,0,0,0-3.15-.29c-1.12,0-2,.3-2,1.37,0,.84.44,1.08,2.34,1.4,2.25.38,3.1.83,3.1,2.58,0,2.1-1.33,2.81-3.49,2.81a25,25,0,0,1-3.17-.35l.07-1.17a29.5,29.5,0,0,0,3,.31c1.48,0,2.27-.33,2.27-1.55,0-.94-.47-1.17-2.43-1.48s-3-.7-3-2.5c0-2,1.61-2.63,3.24-2.63a23.19,23.19,0,0,1,3.26.34Z" fill="#3a3d3f"/>
            <path d="M1267.61,90.34l0,1.07a31.4,31.4,0,0,1-3.52.29c-2.68,0-3.56-1.57-3.56-4.63,0-3.42,1.48-4.74,3.76-4.74s3.62,1.26,3.62,4.22l-.07,1h-5.94c0,1.93.59,2.94,2.36,2.94C1265.65,90.51,1267.61,90.34,1267.61,90.34Zm-1-3.85c0-2.23-.68-3-2.27-3s-2.39.84-2.41,3Z" fill="#3a3d3f"/>
            <path d="M1270.06,91.52v-9h1.33v.63a6.85,6.85,0,0,1,2.79-.81c2.48,0,3,1.23,3,4.43v4.76h-1.33V86.8c0-2.38-.27-3.26-1.94-3.26a6.12,6.12,0,0,0-2.54.67v7.31Z" fill="#3a3d3f"/>
            <path d="M1286.08,89.84c0,.52.47.72,1,.79l0,1.07a2.74,2.74,0,0,1-2.14-.72,9.22,9.22,0,0,1-3.25.72c-1.63,0-2.53-.94-2.53-2.76s.9-2.48,2.75-2.66l2.83-.27v-.78c0-1.26-.54-1.71-1.62-1.71-1.26,0-3.41.23-3.41.23l0-1a21.6,21.6,0,0,1,3.53-.4c2,0,2.9.94,2.9,2.9Zm-4-2.56c-1.1.11-1.53.63-1.53,1.62s.45,1.66,1.37,1.66a9.57,9.57,0,0,0,2.83-.56V87Z" fill="#3a3d3f"/>
            <path d="M1296,86.87c0,3.58-1,4.83-4.25,4.83-1.08,0-3-.2-3-.2V78.59h1.33V83a7.44,7.44,0,0,1,2.65-.63C1295.17,82.33,1296,83.63,1296,86.87Zm-1.37,0c0-2.32-.47-3.33-2.05-3.33a7.59,7.59,0,0,0-2.51.52V90.4s1.17.09,1.66.09C1294.2,90.49,1294.63,89.39,1294.63,86.87Z" fill="#3a3d3f"/>
            <path d="M1298.32,78.59h1.35V91.52h-1.35Z" fill="#3a3d3f"/>
            <path d="M1309,90.34l0,1.07a31.38,31.38,0,0,1-3.51.29c-2.69,0-3.57-1.57-3.57-4.63,0-3.42,1.48-4.74,3.76-4.74s3.62,1.26,3.62,4.22l-.07,1h-5.94c0,1.93.59,2.94,2.36,2.94C1307.05,90.51,1309,90.34,1309,90.34Zm-1-3.85c0-2.23-.68-3-2.27-3s-2.39.84-2.41,3Z" fill="#3a3d3f"/>
            <path d="M1317.43,83.83a29.33,29.33,0,0,0-3.15-.29c-1.11,0-2,.3-2,1.37,0,.84.43,1.08,2.34,1.4,2.25.38,3.1.83,3.1,2.58,0,2.1-1.34,2.81-3.5,2.81a24.71,24.71,0,0,1-3.16-.35l.07-1.17a29.5,29.5,0,0,0,3,.31c1.48,0,2.27-.33,2.27-1.55,0-.94-.47-1.17-2.43-1.48s-3-.7-3-2.5c0-2,1.6-2.63,3.24-2.63a23.19,23.19,0,0,1,3.26.34Z" fill="#3a3d3f"/>
            <path d="M1330.75,82.51v9h-1.35v-.63a6.07,6.07,0,0,1-2.66.81c-2.52,0-3-1.18-3-4.49v-4.7h1.35v4.68c0,2.49.21,3.3,1.89,3.3a5.4,5.4,0,0,0,2.46-.67V82.51Z" fill="#3a3d3f"/>
            <path d="M1339.32,83.83a29.33,29.33,0,0,0-3.15-.29c-1.12,0-2,.3-2,1.37,0,.84.43,1.08,2.34,1.4,2.25.38,3.1.83,3.1,2.58,0,2.1-1.34,2.81-3.5,2.81a25,25,0,0,1-3.17-.35l.07-1.17a29.8,29.8,0,0,0,3,.31c1.47,0,2.27-.33,2.27-1.55,0-.94-.47-1.17-2.44-1.48s-3-.7-3-2.5c0-2,1.6-2.63,3.24-2.63a23.19,23.19,0,0,1,3.26.34Z" fill="#3a3d3f"/>
            <path d="M1347.47,83.68V88c0,2,.13,2.52,1.3,2.52.5,0,1.6-.11,1.6-.11l.09,1.12a16.23,16.23,0,0,1-1.83.19c-1.86,0-2.49-.7-2.49-3.29V83.68h-1.28V82.51h1.28V79.76h1.33v2.75h2.87v1.17Z" fill="#3a3d3f"/>
            <path d="M1359.3,86.91c0,3.27-.81,4.79-3.85,4.79s-3.85-1.52-3.85-4.79c0-3.1,1-4.58,3.85-4.58S1359.3,83.81,1359.3,86.91Zm-1.38,0c0-2.51-.54-3.41-2.47-3.41s-2.47.9-2.47,3.41.34,3.61,2.47,3.61S1357.92,89.46,1357.92,86.91Z" fill="#3a3d3f"/>
            <path d="M1371.27,82.6l0,1.1s-1.44-.16-2.13-.16c-2.07,0-2.63.9-2.63,3.31,0,2.67.42,3.64,2.65,3.64.69,0,2.13-.16,2.13-.16l0,1.11a23.06,23.06,0,0,1-2.5.26c-2.87,0-3.71-1.32-3.71-4.85,0-3.26,1.06-4.52,3.74-4.52A20.89,20.89,0,0,1,1371.27,82.6Z" fill="#3a3d3f"/>
            <path d="M1373.3,91.52V78.59h1.35V83a7.57,7.57,0,0,1,2.78-.69c2.46,0,3,1.23,3,4.43v4.76h-1.35V86.8c0-2.38-.27-3.26-1.93-3.26a7.41,7.41,0,0,0-2.54.54v7.44Z" fill="#3a3d3f"/>
            <path d="M1389.33,89.84c0,.52.46.72,1,.79l0,1.07a2.76,2.76,0,0,1-2.15-.72,9.2,9.2,0,0,1-3.24.72c-1.64,0-2.54-.94-2.54-2.76s.9-2.48,2.76-2.66L1388,86v-.78c0-1.26-.54-1.71-1.62-1.71-1.26,0-3.4.23-3.4.23l0-1a21.6,21.6,0,0,1,3.53-.4c2,0,2.9.94,2.9,2.9Zm-4-2.56c-1.1.11-1.53.63-1.53,1.62s.45,1.66,1.37,1.66A9.47,9.47,0,0,0,1388,90V87Z" fill="#3a3d3f"/>
            <path d="M1392,82.51h1.33v1.23a10.34,10.34,0,0,1,3.29-1.43v1.37a12.81,12.81,0,0,0-3.27,1.23v6.61H1392Z" fill="#3a3d3f"/>
            <path d="M1397.82,93c0-1,.48-1.53,1.42-2.23a1.49,1.49,0,0,1-.5-1.25,5.82,5.82,0,0,1,.61-1.42c-.76-.34-1.42-1.06-1.42-2.72,0-2.21,1.37-3.08,3.36-3.08a9.22,9.22,0,0,1,1.88.24l2.66-.08v1.16l-1.71,0a2.35,2.35,0,0,1,.59,1.8c0,2.34-1.17,3-3.47,3a6.65,6.65,0,0,1-.88-.07,5.21,5.21,0,0,0-.33,1c0,.72.15.83,2.18.83,2.56,0,3.48.5,3.48,2.64s-1.46,2.87-4,2.87C1398.84,95.75,1397.82,95.12,1397.82,93Zm2.34-1.7c-.76.56-1,.89-1,1.59,0,1.24.52,1.69,2.56,1.69,1.8,0,2.61-.48,2.61-1.67,0-1.37-.58-1.51-2.22-1.51C1401.47,91.43,1400.16,91.33,1400.16,91.33Zm3.2-5.92c0-1.42-.55-2-2.07-2s-2,.56-2,2,.61,2,2,2S1403.36,86.83,1403.36,85.41Z" fill="#3a3d3f"/>
            <path d="M1414.11,90.34l0,1.07a31.4,31.4,0,0,1-3.52.29c-2.68,0-3.56-1.57-3.56-4.63,0-3.42,1.48-4.74,3.76-4.74s3.62,1.26,3.62,4.22l-.07,1h-5.94c0,1.93.59,2.94,2.36,2.94C1412.15,90.51,1414.11,90.34,1414.11,90.34Zm-1-3.85c0-2.23-.68-3-2.27-3s-2.39.84-2.41,3Z" fill="#3a3d3f"/>
            <path d="M1426.33,82.6l0,1.1s-1.44-.16-2.13-.16c-2.07,0-2.63.9-2.63,3.31,0,2.67.42,3.64,2.65,3.64.69,0,2.13-.16,2.13-.16l0,1.11a23.06,23.06,0,0,1-2.5.26c-2.87,0-3.71-1.32-3.71-4.85,0-3.26,1.06-4.52,3.74-4.52A20.89,20.89,0,0,1,1426.33,82.6Z" fill="#3a3d3f"/>
            <path d="M1435,90.34l0,1.07a31.12,31.12,0,0,1-3.51.29c-2.68,0-3.56-1.57-3.56-4.63,0-3.42,1.47-4.74,3.76-4.74s3.62,1.26,3.62,4.22l-.07,1h-5.94c0,1.93.59,2.94,2.35,2.94C1433.05,90.51,1435,90.34,1435,90.34Zm-1-3.85c0-2.23-.68-3-2.27-3s-2.39.84-2.41,3Z" fill="#3a3d3f"/>
            <path d="M1437.45,82.51h1.34v1.23a10.21,10.21,0,0,1,3.29-1.43v1.37a13,13,0,0,0-3.28,1.23v6.61h-1.35Z" fill="#3a3d3f"/>
            <path d="M1445.48,83.68V88c0,2,.13,2.52,1.3,2.52.5,0,1.6-.11,1.6-.11l.09,1.12a16.5,16.5,0,0,1-1.84.19c-1.85,0-2.48-.7-2.48-3.29V83.68h-1.28V82.51h1.28V79.76h1.33v2.75h2.86v1.17Z" fill="#3a3d3f"/>
            <path d="M1456.36,89.84c0,.52.46.72,1,.79l-.05,1.07a2.76,2.76,0,0,1-2.15-.72,9.2,9.2,0,0,1-3.24.72c-1.64,0-2.54-.94-2.54-2.76s.9-2.48,2.76-2.66L1455,86v-.78c0-1.26-.55-1.71-1.63-1.71-1.26,0-3.4.23-3.4.23l0-1a21.6,21.6,0,0,1,3.53-.4c2,0,2.9.94,2.9,2.9Zm-4-2.56c-1.1.11-1.53.63-1.53,1.62s.45,1.66,1.37,1.66A9.57,9.57,0,0,0,1455,90V87Z" fill="#3a3d3f"/>
            <path d="M1459,78.91h1.35v1.57H1459Zm0,3.6h1.35v9H1459Z" fill="#3a3d3f"/>
            <path d="M1463,91.52v-9h1.33v.63a6.85,6.85,0,0,1,2.79-.81c2.49,0,3.05,1.23,3.05,4.43v4.76h-1.34V86.8c0-2.38-.27-3.26-1.94-3.26a6.12,6.12,0,0,0-2.54.67v7.31Z" fill="#3a3d3f"/>
            <path d="M1479.14,79.06h3l3.42,12.46h-1.37l-.9-3.21H1478l-.9,3.21h-1.37Zm-.84,8H1483l-1.89-6.83h-.93Z" fill="#3a3d3f"/>
            <path d="M1492.48,85.14h3.44v6.12a30.36,30.36,0,0,1-4.05.44c-3.82,0-4.83-2.35-4.83-6.38s1-6.44,4.79-6.44a23.65,23.65,0,0,1,4.09.46l-.06,1.16a28.37,28.37,0,0,0-3.87-.38c-2.88,0-3.51,1.67-3.51,5.2s.61,5.15,3.5,5.15a16.71,16.71,0,0,0,2.57-.25V86.38h-2.07Z" fill="#3a3d3f"/>
            <path d="M1507.15,79.06l-3.26,12.46h-3.09l-3.26-12.46H1499l2.86,11.23h1l2.86-11.23Z" fill="#3a3d3f"/>
            <path d="M1514.85,83.83a29.33,29.33,0,0,0-3.15-.29c-1.11,0-2,.3-2,1.37,0,.84.43,1.08,2.34,1.4,2.25.38,3.1.83,3.1,2.58,0,2.1-1.34,2.81-3.5,2.81a24.71,24.71,0,0,1-3.16-.35l.07-1.17a29.5,29.5,0,0,0,3,.31c1.48,0,2.27-.33,2.27-1.55,0-.94-.47-1.17-2.43-1.48s-3-.7-3-2.5c0-2,1.6-2.63,3.24-2.63a23.19,23.19,0,0,1,3.26.34Z" fill="#3a3d3f"/>
            <path d="M1521.82,82.51l1.82,7.83h.28l2.15-7.65h1.4l2.14,7.65h.31l1.8-7.83h1.35l-2.14,9h-2.25l-1.91-7-1.91,7h-2.25l-2.14-9Z" fill="#3a3d3f"/>
            <path d="M1534.92,91.52V78.59h1.35V83a7.57,7.57,0,0,1,2.78-.69c2.46,0,3,1.23,3,4.43v4.76h-1.35V86.8c0-2.38-.27-3.26-1.93-3.26a7.41,7.41,0,0,0-2.54.54v7.44Z" fill="#3a3d3f"/>
            <path d="M1544.59,78.91h1.35v1.57h-1.35Zm0,3.6h1.35v9h-1.35Z" fill="#3a3d3f"/>
            <path d="M1548.64,78.59H1550V91.52h-1.35Z" fill="#3a3d3f"/>
            <path d="M1559.33,90.34l0,1.07a31.38,31.38,0,0,1-3.51.29c-2.69,0-3.57-1.57-3.57-4.63,0-3.42,1.48-4.74,3.76-4.74s3.62,1.26,3.62,4.22l-.07,1h-5.94c0,1.93.59,2.94,2.36,2.94C1557.37,90.51,1559.33,90.34,1559.33,90.34Zm-1-3.85c0-2.23-.68-3-2.27-3s-2.39.84-2.41,3Z" fill="#3a3d3f"/>
            <path d="M1567.54,83.68V88c0,2,.12,2.52,1.29,2.52.51,0,1.61-.11,1.61-.11l.09,1.12a16.5,16.5,0,0,1-1.84.19c-1.85,0-2.48-.7-2.48-3.29V83.68h-1.28V82.51h1.28V79.76h1.33v2.75h2.86v1.17Z" fill="#3a3d3f"/>
            <path d="M1572.05,91.52V78.59h1.36V83a7.55,7.55,0,0,1,2.77-.69c2.47,0,3,1.23,3,4.43v4.76h-1.35V86.8c0-2.38-.27-3.26-1.93-3.26a7.39,7.39,0,0,0-2.53.54v7.44Z" fill="#3a3d3f"/>
            <path d="M1588.37,90.34l0,1.07a31.12,31.12,0,0,1-3.51.29c-2.68,0-3.56-1.57-3.56-4.63,0-3.42,1.47-4.74,3.76-4.74s3.62,1.26,3.62,4.22l-.08,1h-5.94c0,1.93.6,2.94,2.36,2.94C1586.4,90.51,1588.37,90.34,1588.37,90.34Zm-1-3.85c0-2.23-.69-3-2.27-3s-2.4.84-2.41,3Z" fill="#3a3d3f"/>
            <path d="M1590.81,82.51h1.33v1.23a10.32,10.32,0,0,1,3.3-1.43v1.37a13,13,0,0,0-3.28,1.23v6.61h-1.35Z" fill="#3a3d3f"/>
            <path d="M1603.68,90.34l0,1.07a31.12,31.12,0,0,1-3.51.29c-2.69,0-3.57-1.57-3.57-4.63,0-3.42,1.48-4.74,3.77-4.74s3.61,1.26,3.61,4.22l-.07,1H1598c0,1.93.6,2.94,2.36,2.94C1601.72,90.51,1603.68,90.34,1603.68,90.34Zm-1-3.85c0-2.23-.68-3-2.26-3s-2.4.84-2.42,3Z" fill="#3a3d3f"/>
            <path d="M1610.09,78.91h1.35v1.57h-1.35Zm0,3.6h1.35v9h-1.35Z" fill="#3a3d3f"/>
            <path d="M1620,83.83a29.33,29.33,0,0,0-3.15-.29c-1.12,0-2,.3-2,1.37,0,.84.44,1.08,2.35,1.4,2.25.38,3.09.83,3.09,2.58,0,2.1-1.33,2.81-3.49,2.81a25,25,0,0,1-3.17-.35l.07-1.17a29.86,29.86,0,0,0,3,.31c1.48,0,2.27-.33,2.27-1.55,0-.94-.47-1.17-2.43-1.48s-3-.7-3-2.5c0-2,1.6-2.63,3.24-2.63a23.19,23.19,0,0,1,3.26.34Z" fill="#3a3d3f"/>
            <path d="M1632.34,83.83a29.33,29.33,0,0,0-3.15-.29c-1.12,0-2,.3-2,1.37,0,.84.44,1.08,2.35,1.4,2.25.38,3.09.83,3.09,2.58,0,2.1-1.33,2.81-3.49,2.81a25,25,0,0,1-3.17-.35l.07-1.17a29.86,29.86,0,0,0,3,.31c1.48,0,2.27-.33,2.27-1.55,0-.94-.47-1.17-2.43-1.48s-3-.7-3-2.5c0-2,1.6-2.63,3.24-2.63a23.19,23.19,0,0,1,3.26.34Z" fill="#3a3d3f"/>
            <path d="M1636.53,83.68V88c0,2,.13,2.52,1.3,2.52.5,0,1.6-.11,1.6-.11l.09,1.12a16.5,16.5,0,0,1-1.84.19c-1.85,0-2.48-.7-2.48-3.29V83.68h-1.28V82.51h1.28V79.76h1.33v2.75h2.86v1.17Z" fill="#3a3d3f"/>
            <path d="M1641.05,78.91h1.35v1.57h-1.35Zm0,3.6h1.35v9h-1.35Z" fill="#3a3d3f"/>
            <path d="M1645.1,78.59h1.35V91.52h-1.35Z" fill="#3a3d3f"/>
            <path d="M1649.26,78.59h1.35V91.52h-1.35Z" fill="#3a3d3f"/>
            <path d="M1663.62,89.84c0,.52.47.72,1.05.79l-.06,1.07a2.75,2.75,0,0,1-2.14-.72,9.2,9.2,0,0,1-3.24.72c-1.64,0-2.54-.94-2.54-2.76s.9-2.48,2.76-2.66l2.82-.27v-.78c0-1.26-.54-1.71-1.62-1.71-1.26,0-3.4.23-3.4.23l0-1a21.57,21.57,0,0,1,3.52-.4c2,0,2.9.94,2.9,2.9Zm-4-2.56c-1.1.11-1.53.63-1.53,1.62s.45,1.66,1.37,1.66a9.47,9.47,0,0,0,2.82-.56V87Z" fill="#3a3d3f"/>
            <path d="M1666.29,78.91h1.35v1.57h-1.35Zm0,3.6h1.35v9h-1.35Z" fill="#3a3d3f"/>
            <path d="M1670.23,82.51h1.33v1.23a10.32,10.32,0,0,1,3.3-1.43v1.37a12.78,12.78,0,0,0-3.28,1.23v6.61h-1.35Z" fill="#3a3d3f"/>
            <path d="M1267.32,117.84c0,.52.47.72,1,.79l-.06,1.07a2.75,2.75,0,0,1-2.14-.72,9.2,9.2,0,0,1-3.24.72c-1.64,0-2.54-.94-2.54-2.76s.9-2.48,2.75-2.66L1266,114v-.78c0-1.26-.54-1.71-1.62-1.71-1.26,0-3.4.23-3.4.23l-.06-1a21.77,21.77,0,0,1,3.53-.4c2,0,2.9.94,2.9,2.9Zm-4-2.56c-1.1.11-1.53.63-1.53,1.62s.45,1.66,1.36,1.66A9.48,9.48,0,0,0,1266,118v-3Z" fill="#3a3d3f"/>
            <path d="M1270,119.52v-9h1.34v.63a6.79,6.79,0,0,1,2.79-.81c2.48,0,3,1.23,3,4.43v4.76h-1.33V114.8c0-2.38-.27-3.26-2-3.26a6.18,6.18,0,0,0-2.54.67v7.31Z" fill="#3a3d3f"/>
            <path d="M1286.56,119.52h-1.33v-.62a6.42,6.42,0,0,1-2.73.8c-1.77,0-3.25-.72-3.25-4.61,0-3.17,1-4.76,3.77-4.76a14.12,14.12,0,0,1,2.21.24v-4h1.33Zm-1.33-1.7v-6.1a14.27,14.27,0,0,0-2.14-.22c-1.89,0-2.45,1.24-2.45,3.59,0,2.91.95,3.4,2,3.4A6.47,6.47,0,0,0,1285.23,117.82Z" fill="#3a3d3f"/>
            <path d="M1293.13,110.51h1.33v.65a6.12,6.12,0,0,1,2.7-.83c2.27,0,3.26,1.39,3.26,4.58,0,3.53-1.15,4.79-3.92,4.79a12,12,0,0,1-2-.2v4h-1.35Zm1.35,1.75v6.07a14.93,14.93,0,0,0,2,.19c2,0,2.62-1,2.62-3.61s-.77-3.37-2.08-3.37A5.87,5.87,0,0,0,1294.48,112.26Z" fill="#3a3d3f"/>
            <path d="M1309,117.84c0,.52.47.72,1,.79l-.06,1.07a2.75,2.75,0,0,1-2.14-.72,9.2,9.2,0,0,1-3.24.72c-1.64,0-2.54-.94-2.54-2.76s.9-2.48,2.76-2.66l2.82-.27v-.78c0-1.26-.54-1.71-1.62-1.71-1.26,0-3.4.23-3.4.23l0-1a21.57,21.57,0,0,1,3.52-.4c2,0,2.9.94,2.9,2.9Zm-4-2.56c-1.1.11-1.53.63-1.53,1.62s.45,1.66,1.37,1.66a9.47,9.47,0,0,0,2.82-.56v-3Z" fill="#3a3d3f"/>
            <path d="M1317.61,111.83a29.33,29.33,0,0,0-3.15-.29c-1.11,0-2,.3-2,1.37,0,.84.43,1.08,2.34,1.4,2.25.38,3.1.83,3.1,2.58,0,2.1-1.34,2.81-3.5,2.81a24.71,24.71,0,0,1-3.16-.35l.07-1.17a29.5,29.5,0,0,0,3,.31c1.48,0,2.27-.33,2.27-1.55,0-.94-.47-1.17-2.43-1.48s-3-.7-3-2.5c0-2,1.6-2.63,3.24-2.63a23.19,23.19,0,0,1,3.26.34Z" fill="#3a3d3f"/>
            <path d="M1326,111.83a29.33,29.33,0,0,0-3.15-.29c-1.11,0-2,.3-2,1.37,0,.84.43,1.08,2.34,1.4,2.25.38,3.1.83,3.1,2.58,0,2.1-1.34,2.81-3.5,2.81a24.71,24.71,0,0,1-3.16-.35l.07-1.17a29.5,29.5,0,0,0,3,.31c1.48,0,2.27-.33,2.27-1.55,0-.94-.47-1.17-2.43-1.48s-3-.7-3-2.5c0-2,1.6-2.63,3.24-2.63a23.19,23.19,0,0,1,3.26.34Z" fill="#3a3d3f"/>
            <path d="M1335,118.34l0,1.07a31.38,31.38,0,0,1-3.51.29c-2.69,0-3.57-1.57-3.57-4.63,0-3.42,1.48-4.74,3.76-4.74s3.62,1.26,3.62,4.22l-.07,1h-5.94c0,1.93.59,2.94,2.36,2.94C1333.06,118.51,1335,118.34,1335,118.34Zm-1-3.85c0-2.23-.68-3-2.27-3s-2.39.84-2.41,3Z" fill="#3a3d3f"/>
            <path d="M1337.46,119.52v-9h1.34v.63a6.85,6.85,0,0,1,2.79-.81c2.48,0,3,1.23,3,4.43v4.76h-1.33V114.8c0-2.38-.27-3.26-2-3.26a6.11,6.11,0,0,0-2.53.67v7.31Z" fill="#3a3d3f"/>
            <path d="M1346.74,121c0-1,.48-1.53,1.42-2.23a1.47,1.47,0,0,1-.51-1.25,5.78,5.78,0,0,1,.62-1.42c-.76-.34-1.43-1.06-1.43-2.72,0-2.21,1.37-3.08,3.37-3.08a9.07,9.07,0,0,1,1.87.24l2.67-.08v1.16l-1.71,0a2.35,2.35,0,0,1,.59,1.8c0,2.34-1.17,3-3.47,3a6.94,6.94,0,0,1-.89-.07,5.32,5.32,0,0,0-.32,1c0,.72.14.83,2.18.83,2.56,0,3.47.5,3.47,2.64s-1.45,2.87-4,2.87C1347.76,123.75,1346.74,123.12,1346.74,121Zm2.34-1.7c-.76.56-1,.89-1,1.59,0,1.24.52,1.69,2.55,1.69,1.8,0,2.62-.48,2.62-1.67,0-1.37-.58-1.51-2.22-1.51C1350.39,119.43,1349.08,119.33,1349.08,119.33Zm3.2-5.92c0-1.42-.56-2-2.07-2s-2,.56-2,2,.62,2,2,2S1352.28,114.83,1352.28,113.41Z" fill="#3a3d3f"/>
            <path d="M1363,118.34l0,1.07a31.12,31.12,0,0,1-3.51.29c-2.68,0-3.56-1.57-3.56-4.63,0-3.42,1.47-4.74,3.76-4.74s3.62,1.26,3.62,4.22l-.07,1h-5.94c0,1.93.59,2.94,2.35,2.94C1361.06,118.51,1363,118.34,1363,118.34Zm-1-3.85c0-2.23-.68-3-2.27-3s-2.39.84-2.41,3Z" fill="#3a3d3f"/>
            <path d="M1365.47,110.51h1.34v1.23a10.21,10.21,0,0,1,3.29-1.43v1.37a13,13,0,0,0-3.28,1.23v6.61h-1.35Z" fill="#3a3d3f"/>
            <path d="M1377.46,111.68V116c0,2,.13,2.52,1.3,2.52.5,0,1.6-.11,1.6-.11l.09,1.12a16.5,16.5,0,0,1-1.84.19c-1.85,0-2.48-.7-2.48-3.29v-4.74h-1.28v-1.17h1.28v-2.75h1.33v2.75h2.86v1.17Z" fill="#3a3d3f"/>
            <path d="M1382,110.51h1.33v1.23a10.32,10.32,0,0,1,3.3-1.43v1.37a12.78,12.78,0,0,0-3.28,1.23v6.61H1382Z" fill="#3a3d3f"/>
            <path d="M1394.56,117.84c0,.52.47.72,1,.79l-.06,1.07a2.75,2.75,0,0,1-2.14-.72,9.2,9.2,0,0,1-3.24.72c-1.64,0-2.54-.94-2.54-2.76s.9-2.48,2.75-2.66l2.83-.27v-.78c0-1.26-.54-1.71-1.62-1.71-1.26,0-3.4.23-3.4.23l-.06-1a21.77,21.77,0,0,1,3.53-.4c2,0,2.9.94,2.9,2.9Zm-4-2.56c-1.1.11-1.53.63-1.53,1.62s.45,1.66,1.36,1.66a9.48,9.48,0,0,0,2.83-.56v-3Z" fill="#3a3d3f"/>
            <path d="M1399,119.52h-1.35v-7.84h-1.13v-1.17h1.13v-.81c0-2.59.67-3.29,2.43-3.29.62,0,1.82.12,1.82.12l0,1.12s-1,0-1.54,0c-1,0-1.34.44-1.34,2.11v.79h2.61v1.17H1399Z" fill="#3a3d3f"/>
            <path d="M1404.91,119.52h-1.35v-7.84h-1.13v-1.17h1.13v-.81c0-2.59.67-3.29,2.43-3.29.61,0,1.82.12,1.82.12l0,1.12s-1,0-1.55,0c-1,0-1.33.44-1.33,2.11v.79h2.61v1.17h-2.61Z" fill="#3a3d3f"/>
            <path d="M1409.14,106.91h1.35v1.57h-1.35Zm0,3.6h1.35v9h-1.35Z" fill="#3a3d3f"/>
            <path d="M1418.9,110.6l-.06,1.1s-1.44-.16-2.12-.16c-2.07,0-2.63.9-2.63,3.31,0,2.67.41,3.64,2.65,3.64.68,0,2.12-.16,2.12-.16l.06,1.11a23.34,23.34,0,0,1-2.51.26c-2.86,0-3.71-1.32-3.71-4.85,0-3.26,1.07-4.52,3.75-4.52A20.89,20.89,0,0,1,1418.9,110.6Z" fill="#3a3d3f"/>
            <path d="M1420.84,117.46h1.48v2.06h-1.48Z" fill="#3a3d3f"/>
            <rect x="1107.66" y="55.11" width="7.17" height="27.28" transform="translate(2222.5 137.51) rotate(-180)" fill="#2277d6"/>
            <rect x="1097.66" y="64.19" width="7.17" height="18.2" transform="translate(2202.5 146.59) rotate(-180)" fill="#2277d6"/>
            <rect x="1087.07" y="73.29" width="7.17" height="9.1" transform="translate(2181.32 155.69) rotate(-180)" fill="#2277d6"/>
        </g>
        <g id="Layer_2-2" data-name="Layer 2">
            <path d="M93.16,46.58A46.58,46.58,0,1,1,46.58,0,46.57,46.57,0,0,1,93.16,46.58" fill="#e3f0fc"/>
            <path d="M58.41,58.84a8,8,0,0,1-16,.18l.05-9,7.82-7.77V31.46a1,1,0,0,0-1-1H46.61V22.57A1.63,1.63,0,0,0,45,20.94h-.31A1.63,1.63,0,0,0,43,22.57v7.91H36V22.57a1.64,1.64,0,0,0-3.27,0v7.91H30.16a1,1,0,0,0-1,1l0,10.81L37,50.11,37,59a13.38,13.38,0,0,0,26.75-.18Z" fill="#2277d6"/>
            <path d="M989.84,76a4.41,4.41,0,0,1-8.81.1l0-5,4.3-4.27V60.9a.54.54,0,0,0-.54-.53h-1.47V56a.91.91,0,0,0-.9-.9h-.17a.9.9,0,0,0-.9.9v4.36h-3.9V56a.9.9,0,1,0-1.8,0v4.36h-1.39a.53.53,0,0,0-.53.53l0,5.95,4.32,4.32v4.91A7.37,7.37,0,0,0,992.8,76Z" fill="#2277d6"/>
            <path d="M1052.77,60.91H1047V58a2.86,2.86,0,0,0-2.86-2.86h-5.73a2.86,2.86,0,0,0-2.87,2.86v2.87h-5.73a2.84,2.84,0,0,0-2.85,2.86V79.53a2.85,2.85,0,0,0,2.86,2.86h22.53a3.24,3.24,0,0,0,3.25-3.25V63.77A2.86,2.86,0,0,0,1052.77,60.91Zm-8.59,0h-5.73V58h5.73Z" fill="#2277d6"/>
            <path d="M1264.24,13.59l2.36,12.48h.58L1270,13.71h1.8l2.82,12.36h.58l2.36-12.48h1.58l-2.8,13.84h-2.82l-2.62-11.82-2.62,11.82h-2.82l-2.82-13.84Z"/>
            <path d="M1290,21.17h-7v6.26h-1.54V13.59H1283v6.2h7v-6.2h1.52V27.43H1290Z"/>
            <path d="M1299.42,27.43h-1.54V21.61l-4.42-8h1.74l3.44,6.48,3.44-6.48h1.74l-4.4,8Z"/>
            <path d="M1310.12,13.59h1.54V27.43h-1.54Z"/>
            <path d="M1322.8,15.07s-2.78-.34-3.94-.34c-2,0-3,.7-3,2.26,0,1.8,1,2.1,3.38,2.64,2.76.62,4,1.3,4,3.72,0,3.06-1.68,4.26-4.42,4.26a36.39,36.39,0,0,1-4.38-.44l.16-1.28s2.72.36,4.14.36c2,0,3-.86,3-2.78,0-1.56-.82-2-3.08-2.44-2.86-.62-4.3-1.3-4.3-3.94s1.76-3.72,4.46-3.72a34.46,34.46,0,0,1,4.18.4Z"/>
            <path d="M1328.84,13.59h10V15h-4.22V27.43h-1.53V15h-4.25Z"/>
            <path d="M1349.38,21.17h-7v6.26h-1.55V13.59h1.55v6.2h7v-6.2h1.52V27.43h-1.52Z"/>
            <path d="M1354.29,13.59h1.55V27.43h-1.55Z"/>
            <path d="M1367,15.07s-2.78-.34-3.94-.34c-2,0-3,.7-3,2.26,0,1.8,1,2.1,3.39,2.64,2.76.62,4,1.3,4,3.72,0,3.06-1.68,4.26-4.42,4.26a36.66,36.66,0,0,1-4.39-.44l.17-1.28s2.72.36,4.14.36c2,0,3-.86,3-2.78,0-1.56-.82-2-3.09-2.44-2.85-.62-4.3-1.3-4.3-3.94s1.77-3.72,4.46-3.72a34.47,34.47,0,0,1,4.19.4Z"/>
            <path d="M1376,22.13v5.3h-1.54V13.59h5.13c2.9,0,4.42,1.28,4.42,4.2,0,2-.8,3.46-2.54,4l2.66,5.62h-1.7l-2.5-5.3Zm3.59-7.18H1376v5.82h3.6c2.08,0,2.83-1.24,2.83-3C1382.42,15.89,1381.51,15,1379.58,15Z"/>
            <path d="M1386.77,13.59h8.42V15h-6.88v4.78H1394v1.34h-5.69v5h6.88v1.36h-8.42Z"/>
            <path d="M1406.19,27.21a20.83,20.83,0,0,1-3.82.42c-4.14,0-5.06-2.52-5.06-7.08s.9-7.16,5.06-7.16a20.32,20.32,0,0,1,3.82.44l-.06,1.3a24.64,24.64,0,0,0-3.6-.36c-3.08,0-3.62,1.84-3.62,5.78s.5,5.7,3.66,5.7a21.88,21.88,0,0,0,3.56-.36Z"/>
            <path d="M1408.15,20.57c0-4.56,1.18-7.18,5.46-7.18s5.48,2.58,5.48,7.18c0,4.76-1.17,7.06-5.48,7.06S1408.15,25.21,1408.15,20.57Zm9.35,0c0-3.74-.73-5.82-3.89-5.82s-3.88,2.06-3.88,5.82.68,5.7,3.88,5.7S1417.5,24.47,1417.5,20.57Z"/>
            <path d="M1421.91,13.59h2.78l3.92,11.7,3.92-11.7h2.79V27.43h-1.55V15.23h-.27l-4,11.7h-1.71l-4-11.7h-.28v12.2h-1.54Z"/>
            <path d="M1438.71,13.59h2.78l3.92,11.7,3.93-11.7h2.78V27.43h-1.54V15.23h-.28l-4,11.7h-1.72l-4-11.7h-.28v12.2h-1.54Z"/>
            <path d="M1455.51,13.59h8.42V15h-6.88v4.78h5.68v1.34h-5.68v5h6.88v1.36h-8.42Z"/>
            <path d="M1466.57,13.59h2.88l5.3,12.48h.42V13.59h1.52V27.43h-2.82L1468.49,15h-.38V27.43h-1.54Z"/>
            <path d="M1480.09,27.43V13.59H1485c4,0,5.12,2.8,5.12,6.72s-1,7.12-5.12,7.12ZM1485,15h-3.4V26.07h3.4c2.88,0,3.54-2.76,3.54-5.76S1487.91,15,1485,15Z"/>
            <path d="M1493,13.59h8.42V15h-6.88v4.78h5.68v1.34h-5.68v5h6.88v1.36H1493Z"/>
            <path d="M1504.05,27.43V13.59H1509c4,0,5.12,2.8,5.12,6.72s-1,7.12-5.12,7.12ZM1509,15h-3.4V26.07h3.4c2.88,0,3.54-2.76,3.54-5.76S1511.87,15,1509,15Z"/>
            <path d="M1521.51,20.21c-1.18,1-1.78,1.6-1.78,2.5v.7h-1.26a3.11,3.11,0,0,1-.26-1.22c0-1,.8-1.76,1.86-2.66,1.44-1.24,1.78-1.7,1.78-2.82,0-1.42-.86-2-2.66-2a18.55,18.55,0,0,0-3.1.46L1516,14a15.14,15.14,0,0,1,3.34-.6c2.68,0,4,.88,4,3.2C1523.37,18.31,1523.07,18.91,1521.51,20.21Zm-3.26,5h1.64v2.24h-1.64Z"/>
        </g>
    </g>
</svg>