<svg xmlns="http://www.w3.org/2000/svg" viewBox="0 0 1893 246.47"><title>bar_1_opened</title><g id="Layer_2" data-name="Layer 2"><g id="CM2_New_Open"><rect width="1893" height="246.47" fill="#fff"/></g><g id="Layer_1-2" data-name="Layer 1"><circle cx="683.21" cy="110.41" r="29.44" fill="none" stroke="#2277d6" stroke-miterlimit="10" stroke-width="4"/><path d="M683.21,89.54a22.38,22.38,0,0,1,22.37,22.38H683.21Z" fill="#8dc5f2" opacity="0.47"/><path d="M162.06,31.4l2.83,15h.7L169,31.55h2.16l3.38,14.83h.7l2.83-15h1.9L176.58,48h-3.39l-3.14-14.18L166.9,48h-3.38L160.14,31.4Z"/><path d="M182.72,31.4h10.1V33h-8.25v5.74h6.81v1.61h-6.81v6h8.25V48h-10.1Z"/><path d="M199.09,31.4h4L207.68,48h-1.82l-1.2-4.27h-7.11L196.35,48h-1.82ZM198,42.08h6.29L201.73,33h-1.25Z"/><path d="M212.14,41.65V48h-1.85V31.4h6.15c3.48,0,5.3,1.54,5.3,5,0,2.45-1,4.15-3.05,4.83l3.2,6.74h-2l-3-6.36Zm4.3-8.62h-4.3v7h4.32c2.5,0,3.39-1.49,3.39-3.58C219.85,34.16,218.77,33,216.44,33Z"/><path d="M233.45,31.4h4L242.05,48h-1.83L239,43.74h-7.1L230.72,48h-1.83Zm-1.12,10.68h6.28L236.09,33h-1.24Z"/><path d="M244.66,31.4h3.46l6.36,15h.5v-15h1.83V48h-3.39L247,33h-.46V48h-1.85Z"/><path d="M260.89,48V31.4h5.92c4.83,0,6.15,3.36,6.15,8.07S271.71,48,266.81,48Zm5.92-15h-4.08V46.38h4.08c3.46,0,4.25-3.31,4.25-6.91S270.27,33,266.81,33Z"/><path d="M279.92,31.4h12v1.66h-5.07V48H285V33.06h-5.11Z"/><path d="M294.27,31.4h10.1V33h-8.25v5.74h6.81v1.61h-6.81v6h8.25V48h-10.1Z"/><path d="M310.64,31.4h4L319.23,48H317.4l-1.2-4.27h-7.1L307.9,48h-1.83Zm-1.13,10.68h6.29L313.27,33H312Z"/><path d="M323.69,41.65V48h-1.85V31.4H328c3.48,0,5.3,1.54,5.3,5,0,2.45-1,4.15-3.05,4.83l3.2,6.74h-2l-3-6.36ZM328,33h-4.3v7H328c2.5,0,3.39-1.49,3.39-3.58C331.4,34.16,330.32,33,328,33Z"/><path d="M341.91,31.4h3.33l4.71,14,4.7-14H358V48h-1.85V33.37h-.34l-4.82,14h-2.07l-4.82-14h-.34V48h-1.84Z"/><path d="M361.39,39.78c0-5.47,1.42-8.62,6.56-8.62s6.57,3.1,6.57,8.62c0,5.71-1.41,8.47-6.57,8.47S361.39,45.35,361.39,39.78Zm11.21,0c0-4.49-.86-7-4.65-7s-4.66,2.48-4.66,7,.82,6.84,4.66,6.84S372.6,44.46,372.6,39.78Z"/><path d="M377.91,48V31.4h5.92c4.83,0,6.15,3.36,6.15,8.07S388.73,48,383.83,48Zm5.92-15h-4.08V46.38h4.08c3.46,0,4.25-3.31,4.25-6.91S387.29,33,383.83,33Z"/><path d="M393.38,31.4h10.11V33h-8.26v5.74h6.82v1.61h-6.82v6h8.26V48H393.38Z"/><path d="M650.06,41.31h10v1.38h-4.22V55.15h-1.52V42.69h-4.26Z"/><path d="M662,41.31h1.54V55.15H662Z"/><path d="M666.94,41.31h2.78L673.64,53l3.92-11.7h2.78V55.15H678.8V43h-.28l-4,11.7h-1.72l-4-11.7h-.28v12.2h-1.54Z"/><path d="M683.74,41.31h8.42v1.36h-6.88v4.78H691v1.34h-5.68v5h6.88v1.36h-8.42Z"/><path d="M700.74,50.49v4.66H699.2V41.31h5.06c3,0,4.42,1.46,4.42,4.46s-1.4,4.72-4.42,4.72Zm3.5-1.36c2,0,2.86-1.22,2.86-3.36s-.84-3.1-2.86-3.1h-3.5v6.46Z"/><path d="M711.06,41.31h8.42v1.36H712.6v4.78h5.68v1.34H712.6v5h6.88v1.36h-8.42Z"/><path d="M723.66,49.85v5.3h-1.54V41.31h5.12c2.9,0,4.42,1.28,4.42,4.2,0,2-.8,3.46-2.54,4l2.66,5.62h-1.7l-2.5-5.3Zm3.58-7.18h-3.58v5.82h3.6c2.08,0,2.82-1.24,2.82-3C730.08,43.61,729.18,42.67,727.24,42.67Z"/><path d="M734.44,41.31H736V55.15h-1.54Z"/><path d="M738.8,48.29c0-4.56,1.18-7.18,5.46-7.18s5.48,2.58,5.48,7.18c0,4.76-1.18,7.06-5.48,7.06S738.8,52.93,738.8,48.29Zm9.34,0c0-3.74-.72-5.82-3.88-5.82s-3.88,2.06-3.88,5.82.68,5.7,3.88,5.7S748.14,52.19,748.14,48.29Z"/><path d="M752.56,55.15V41.31h4.94c4,0,5.12,2.8,5.12,6.72s-1,7.12-5.12,7.12Zm4.94-12.48h-3.4V53.79h3.4C760.38,53.79,761,51,761,48S760.38,42.67,757.5,42.67Z"/><path d="M998.86,48.29c0-4.56,1.18-7.18,5.46-7.18s5.48,2.58,5.48,7.18c0,4.76-1.18,7.06-5.48,7.06S998.86,52.93,998.86,48.29Zm9.34,0c0-3.74-.72-5.82-3.88-5.82s-3.88,2.06-3.88,5.82.68,5.7,3.88,5.7S1008.2,52.19,1008.2,48.29Z"/><path d="M1022.08,41.31l-3.62,13.84H1015l-3.62-13.84h1.6l3.18,12.48h1.12l3.18-12.48Z"/><path d="M1024.26,41.31h8.42v1.36h-6.88v4.78h5.68v1.34h-5.68v5h6.88v1.36h-8.42Z"/><path d="M1036.86,49.85v5.3h-1.54V41.31h5.12c2.9,0,4.42,1.28,4.42,4.2,0,2-.8,3.46-2.54,4l2.66,5.62h-1.7l-2.5-5.3Zm3.58-7.18h-3.58v5.82h3.6c2.08,0,2.82-1.24,2.82-3C1043.28,43.61,1042.38,42.67,1040.44,42.67Z"/><path d="M1057.1,41.31l-3.62,13.84H1050l-3.62-13.84h1.6l3.18,12.48h1.12l3.18-12.48Z"/><path d="M1059.28,41.31h1.54V55.15h-1.54Z"/><path d="M1064.2,41.31h8.42v1.36h-6.88v4.78h5.68v1.34h-5.68v5h6.88v1.36h-8.42Z"/><path d="M1075.76,41.31l2.36,12.48h.58l2.82-12.36h1.8l2.82,12.36h.58l2.36-12.48h1.58l-2.8,13.84H1085l-2.62-11.82-2.62,11.82H1077l-2.82-13.84Z"/><path d="M668.7,102.64a20,20,0,0,1,5.38-.83c4.62,0,6.21,1.48,6.21,4.6a4.36,4.36,0,0,1-2.43,3.88c1.67.72,2.79,1.4,2.79,3.9,0,3.56-1.79,5.35-6.13,5.35a29.37,29.37,0,0,1-6-.8l.2-2.24a39.25,39.25,0,0,0,5.4.52c2.26,0,3.34-.89,3.34-2.76s-1.33-2.55-3.14-2.57h-3.71v-2.42h3.71a2.86,2.86,0,0,0,2.78-2.68c0-1.56-.94-2.26-3.2-2.26a31.53,31.53,0,0,0-4.93.49Z" fill="#2277d6"/><path d="M684.29,119.26V100.85h3v6.08a10.87,10.87,0,0,1,3.81-1c3.88,0,4.82,2,4.82,6.32v7h-3v-6.89c0-2.6-.34-3.88-2.48-3.88a10.72,10.72,0,0,0-3.12.57v10.2Z" fill="#2277d6"/><path d="M1010.94,132.23h-5.74v-1.07l3.37-8.44h1.51l-3.43,8.3h4.29v-3.69h1.37V131h1.51v1.21h-1.51v2.32h-1.37Z" fill="#3a3d3f"/><path d="M1045.31,129.44h3.39V126H1050v3.49h3.43v1.22H1050v3.53h-1.25v-3.53h-3.39Z" fill="#3a3d3f"/><path d="M1055.6,134.55v-1.17l3.46-3.64c1.47-1.52,2.38-2.49,2.38-3.88,0-1.58-.88-2.08-2.58-2.08a17.28,17.28,0,0,0-3.06.39l-.11-1.14a14.14,14.14,0,0,1,3.42-.49c2.49,0,3.75.95,3.75,3.17,0,1.78-.81,2.82-2.48,4.43l-3.15,3.21h5.93v1.2Z" fill="#3a3d3f"/><path d="M1072.94,122.72V124h-5.75l-.32,3.85a6.79,6.79,0,0,1,2.78-.74c2.31,0,3.76,1,3.76,3.5,0,2.72-1.49,4.12-4,4.12a19.42,19.42,0,0,1-3.92-.52l.16-1.1a23.26,23.26,0,0,0,3.64.4,2.5,2.5,0,0,0,2.67-2.8c0-1.79-1-2.36-2.51-2.36a6.81,6.81,0,0,0-2.82.72l-1-.18.33-6.15Z" fill="#3a3d3f"/><path d="M1083.75,128.81c0,4.54-1.59,5.91-4.3,5.91s-4.32-1.34-4.32-5.89c0-4.87,1.58-6.3,4.3-6.3S1083.75,123.94,1083.75,128.81Zm-7.18,0c0,3.71,1,4.68,2.88,4.68s2.89-1,2.89-4.7c0-4-.92-5-2.89-5S1076.57,124.8,1076.57,128.83Z" fill="#3a3d3f"/><path d="M1120.46,125.61c0,1.52-.59,2.15-2,2.76a3,3,0,0,1,2.15,3c0,2.6-2,3.38-4.46,3.38s-4.41-.73-4.41-3.18a3.15,3.15,0,0,1,2-3.17,2.75,2.75,0,0,1-1.85-2.78c0-2,1.63-3.06,4.21-3.06S1120.46,123.53,1120.46,125.61Zm-1.29,5.59c0-1.38-.91-1.83-2.09-2.17h-1.88c-1.24.34-2,.95-2,2.27,0,1.63,1.26,2.17,2.94,2.17S1119.17,132.93,1119.17,131.2Zm-5.73-5.45c0,1.09.59,1.67,1.76,2.08h1.88c1.22-.4,1.91-1,1.91-2.06,0-1.42-1-2-2.79-2S1113.44,124.33,1113.44,125.75Z" fill="#3a3d3f"/><path d="M1126.92,122.72h1.29v11.83h-1.38V124.26l-3,2-.63-1Z" fill="#3a3d3f"/><path d="M1135.71,125c0,1.73-.77,2.52-2,2.52s-2-.79-2-2.52.76-2.48,2-2.48S1135.71,123.3,1135.71,125Zm-2,1.61c.67,0,.9-.56.9-1.61s-.23-1.56-.9-1.56-.87.5-.87,1.56S1133.1,126.63,1133.74,126.63Zm4-4.28.86.28-3.67,12.24-.86-.25Zm3.08,9.85c0,1.72-.77,2.52-2,2.52s-1.95-.8-1.95-2.54.73-2.45,1.95-2.45S1140.8,130.48,1140.8,132.2Zm-2,1.61c.68,0,.9-.55.9-1.61s-.22-1.56-.9-1.56-.88.5-.88,1.54S1138.19,133.81,1138.83,133.81Z" fill="#3a3d3f"/><path d="M742.8,89h3.26v21.11h-3.55V93l-5,3.2-1.63-2.66Z"/><path d="M753.36,89h13.31v4.22l-7.78,17.24-3.32-.95,7.52-16.36v-1h-9.73Z"/><path d="M770.89,95.81h3.75v4.61h-3.75Zm0,9.7h3.75v4.6h-3.75Z"/><path d="M793.52,99.78c0,8-2.91,10.68-8,10.68s-8-2.62-8-10.68c0-8.29,2.91-11.14,8-11.14S793.52,91.46,793.52,99.78Zm-12.29,0c0,5.79,1.44,7.58,4.35,7.58s4.26-1.79,4.26-7.58c0-6.21-1.31-8-4.29-8S781.23,93.54,781.23,99.78Z"/><path d="M811.44,99.78c0,8-2.91,10.68-8,10.68s-8-2.62-8-10.68c0-8.29,2.91-11.14,8-11.14S811.44,91.46,811.44,99.78Zm-12.29,0c0,5.79,1.44,7.58,4.35,7.58s4.26-1.79,4.26-7.58c0-6.21-1.31-8-4.29-8S799.15,93.54,799.15,99.78Z"/><path d="M821.42,99.91H831v3.16h-9.57Z"/><path d="M842.13,110.11v-3l5.21-5.37c2.72-2.79,4.29-4.48,4.29-6.72,0-2.4-1.25-3.17-4-3.17a32.66,32.66,0,0,0-5.18.58l-.23-2.82a25,25,0,0,1,6.24-.93c4.67,0,6.82,1.92,6.82,5.89,0,3.2-1.35,5.06-4.61,8.1L846.19,107h9.53v3.1Z"/><path d="M874.83,99.78c0,8-2.91,10.68-8,10.68s-8-2.62-8-10.68c0-8.29,2.91-11.14,8-11.14S874.83,91.46,874.83,99.78Zm-12.29,0c0,5.79,1.44,7.58,4.35,7.58s4.26-1.79,4.26-7.58c0-6.21-1.31-8-4.29-8S862.54,93.54,862.54,99.78Z"/><path d="M877.77,95.81h3.75v4.61h-3.75Zm0,9.7h3.75v4.6h-3.75Z"/><path d="M900.4,99.78c0,8-2.92,10.68-8,10.68s-8-2.62-8-10.68c0-8.29,2.91-11.14,8-11.14S900.4,91.46,900.4,99.78Zm-12.29,0c0,5.79,1.44,7.58,4.35,7.58s4.26-1.79,4.26-7.58c0-6.21-1.31-8-4.29-8S888.11,93.54,888.11,99.78Z"/><path d="M918.32,99.78c0,8-2.92,10.68-8,10.68s-8-2.62-8-10.68c0-8.29,2.91-11.14,8-11.14S918.32,91.46,918.32,99.78Zm-12.29,0c0,5.79,1.44,7.58,4.35,7.58s4.26-1.79,4.26-7.58c0-6.21-1.31-8-4.29-8S906,93.54,906,99.78Z"/><path d="M733.34,122.15h8.95v1.23h-3.78v11.17h-1.36V123.38h-3.81Z" fill="#3a3d3f"/><path d="M751.09,130c0,3.26-.8,4.76-3.83,4.76s-3.84-1.5-3.84-4.76c0-3.08,1-4.55,3.84-4.55S751.09,126.88,751.09,130Zm-1.38,0c0-2.49-.54-3.39-2.45-3.39s-2.46.9-2.46,3.39.34,3.6,2.46,3.6S749.71,132.5,749.71,130Z" fill="#3a3d3f"/><path d="M760.16,134.55h-1.33v-.61a6.47,6.47,0,0,1-2.72.78c-1.76,0-3.22-.71-3.22-4.58,0-3.15,1-4.73,3.74-4.73a15.61,15.61,0,0,1,2.2.23v-4h1.33Zm-1.33-1.69v-6.07a14,14,0,0,0-2.13-.22c-1.88,0-2.43,1.24-2.43,3.57,0,2.9.94,3.38,2,3.38A6.53,6.53,0,0,0,758.83,132.86Z" fill="#3a3d3f"/><path d="M769.08,132.88c0,.52.47.72,1,.79l0,1.05a2.71,2.71,0,0,1-2.13-.71,9.29,9.29,0,0,1-3.23.71c-1.63,0-2.52-.93-2.52-2.74s.89-2.47,2.74-2.65l2.81-.27v-.77c0-1.25-.54-1.7-1.61-1.7-1.26,0-3.39.23-3.39.23l0-1a21.9,21.9,0,0,1,3.51-.39c2,0,2.88.93,2.88,2.88Zm-4-2.54c-1.09.1-1.52.62-1.52,1.61s.44,1.65,1.36,1.65a9.45,9.45,0,0,0,2.81-.56v-2.95Z" fill="#3a3d3f"/><path d="M772.24,125.59l2.24,7.79h.59l2.26-7.79h1.34l-3.73,12.93H773.6l1.17-4h-1.33l-2.54-9Z" fill="#3a3d3f"/><path d="M159.67,78.78h9V80h-3.8V91.23H163.5V80h-3.83Z" fill="#3a3d3f"/><path d="M170.2,91.23V78.31h1.35v4.43a7.55,7.55,0,0,1,2.77-.69c2.47,0,3,1.23,3,4.43v4.75H176V86.52c0-2.38-.27-3.26-1.92-3.26a7.41,7.41,0,0,0-2.54.54v7.43Z" fill="#3a3d3f"/><path d="M179.86,78.63h1.35V80.2h-1.35Zm0,3.6h1.35v9h-1.35Z" fill="#3a3d3f"/><path d="M189.78,83.55a29.33,29.33,0,0,0-3.15-.29c-1.11,0-2,.3-2,1.37,0,.84.43,1.08,2.34,1.4,2.25.38,3.1.83,3.1,2.58,0,2.1-1.34,2.81-3.5,2.81a25,25,0,0,1-3.17-.35l.08-1.17a29.5,29.5,0,0,0,3,.31c1.47,0,2.27-.33,2.27-1.55,0-.94-.47-1.17-2.43-1.48s-3-.7-3-2.5c0-2,1.6-2.63,3.24-2.63a23.19,23.19,0,0,1,3.26.34Z" fill="#3a3d3f"/><path d="M196.75,82.23l1.82,7.83h.28L201,82.41h1.4l2.14,7.65h.31l1.8-7.83H208l-2.14,9h-2.25l-1.91-7-1.91,7h-2.25l-2.14-9Z" fill="#3a3d3f"/><path d="M217.16,86.63c0,3.27-.81,4.79-3.85,4.79s-3.86-1.52-3.86-4.79c0-3.1,1-4.58,3.86-4.58S217.16,83.53,217.16,86.63Zm-1.39,0c0-2.51-.54-3.41-2.46-3.41s-2.47.9-2.47,3.41.34,3.61,2.47,3.61S215.77,89.18,215.77,86.63Z" fill="#3a3d3f"/><path d="M226.32,82.23v9H225V90.6a6,6,0,0,1-2.66.82c-2.52,0-3.05-1.18-3.05-4.49v-4.7h1.35v4.68c0,2.49.22,3.3,1.9,3.3a5.4,5.4,0,0,0,2.46-.67V82.23Z" fill="#3a3d3f"/><path d="M229,78.31h1.35V91.23H229Z" fill="#3a3d3f"/><path d="M240,91.23h-1.33v-.61a6.37,6.37,0,0,1-2.73.8c-1.77,0-3.25-.72-3.25-4.61,0-3.17,1-4.76,3.77-4.76a14.12,14.12,0,0,1,2.21.24v-4H240Zm-1.33-1.69v-6.1a14.27,14.27,0,0,0-2.14-.22c-1.89,0-2.45,1.24-2.45,3.59,0,2.91,1,3.4,2,3.4A6.47,6.47,0,0,0,238.65,89.54Z" fill="#3a3d3f"/><path d="M246.55,82.23h1.33v.65a6.12,6.12,0,0,1,2.7-.83c2.27,0,3.26,1.39,3.26,4.58,0,3.52-1.15,4.79-3.92,4.79a12,12,0,0,1-2-.2v4h-1.35ZM247.9,84v6.07a14.93,14.93,0,0,0,1.95.19c2,0,2.63-1,2.63-3.61s-.78-3.37-2.09-3.37A5.87,5.87,0,0,0,247.9,84Z" fill="#3a3d3f"/><path d="M256,82.23h1.33v1.23a10.32,10.32,0,0,1,3.3-1.43V83.4a12.78,12.78,0,0,0-3.28,1.23v6.6H256Z" fill="#3a3d3f"/><path d="M269.58,86.63c0,3.27-.81,4.79-3.86,4.79s-3.85-1.52-3.85-4.79c0-3.1,1-4.58,3.85-4.58S269.58,83.53,269.58,86.63Zm-1.39,0c0-2.51-.54-3.41-2.47-3.41s-2.46.9-2.46,3.41.34,3.61,2.46,3.61S268.19,89.18,268.19,86.63Z" fill="#3a3d3f"/><path d="M272.36,82.23l2.11,7.83h.67l2.18-7.83h1.38l-2.54,9h-2.7l-2.54-9Z" fill="#3a3d3f"/><path d="M280.43,78.63h1.35V80.2h-1.35Zm0,3.6h1.35v9h-1.35Z" fill="#3a3d3f"/><path d="M291.28,91.23H290v-.61a6.44,6.44,0,0,1-2.74.8c-1.76,0-3.24-.72-3.24-4.61,0-3.17,1-4.76,3.77-4.76a14.12,14.12,0,0,1,2.21.24v-4h1.33ZM290,89.54v-6.1a14.27,14.27,0,0,0-2.14-.22c-1.89,0-2.45,1.24-2.45,3.59,0,2.91.95,3.4,2,3.4A6.53,6.53,0,0,0,290,89.54Z" fill="#3a3d3f"/><path d="M300.53,90.06l0,1.07a31.12,31.12,0,0,1-3.51.29c-2.68,0-3.57-1.57-3.57-4.63,0-3.42,1.48-4.74,3.77-4.74s3.62,1.26,3.62,4.22l-.07,1h-5.95c0,1.93.6,2.94,2.36,2.94C298.57,90.23,300.53,90.06,300.53,90.06Zm-1-3.85c0-2.23-.69-3-2.27-3s-2.4.84-2.41,3Z" fill="#3a3d3f"/><path d="M313.3,89.56c0,.52.46.72,1,.79l0,1.07a2.8,2.8,0,0,1-2.15-.72,9.2,9.2,0,0,1-3.24.72c-1.64,0-2.54-.94-2.54-2.76s.9-2.48,2.76-2.66l2.83-.28V85c0-1.26-.54-1.71-1.62-1.71-1.26,0-3.41.23-3.41.23l-.05-1a21.6,21.6,0,0,1,3.53-.4c2,0,2.9.94,2.9,2.9Zm-4-2.56c-1.1.11-1.53.63-1.53,1.62s.45,1.66,1.37,1.66a9.57,9.57,0,0,0,2.83-.56v-3Z" fill="#3a3d3f"/><path d="M316,91.23v-9h1.33v.63a6.85,6.85,0,0,1,2.79-.81c2.49,0,3,1.23,3,4.43v4.75h-1.33V86.52c0-2.38-.27-3.26-1.94-3.26a6.19,6.19,0,0,0-2.54.66v7.31Z" fill="#3a3d3f"/><path d="M329.58,78.63h1.35V80.2h-1.35Zm0,3.6h1.35v9h-1.35Z" fill="#3a3d3f"/><path d="M333.53,91.23v-9h1.33v.63a6.85,6.85,0,0,1,2.79-.81c2.48,0,3,1.23,3,4.43v4.75h-1.33V86.52c0-2.38-.27-3.26-1.95-3.26a6.18,6.18,0,0,0-2.53.66v7.31Z" fill="#3a3d3f"/><path d="M349,82.32l-.06,1.1s-1.44-.16-2.12-.16c-2.07,0-2.63.9-2.63,3.31,0,2.67.41,3.64,2.65,3.64.68,0,2.12-.16,2.12-.16l0,1.11a23.06,23.06,0,0,1-2.5.26c-2.86,0-3.71-1.32-3.71-4.85,0-3.26,1.07-4.52,3.75-4.52A20.89,20.89,0,0,1,349,82.32Z" fill="#3a3d3f"/><path d="M351,82.23h1.33v1.23a10.32,10.32,0,0,1,3.3-1.43V83.4a12.78,12.78,0,0,0-3.28,1.23v6.6H351Z" fill="#3a3d3f"/><path d="M363.91,90.06l0,1.07a31.38,31.38,0,0,1-3.51.29c-2.69,0-3.57-1.57-3.57-4.63,0-3.42,1.48-4.74,3.76-4.74s3.62,1.26,3.62,4.22l-.07,1h-5.94c0,1.93.59,2.94,2.36,2.94C362,90.23,363.91,90.06,363.91,90.06Zm-1-3.85c0-2.23-.68-3-2.27-3s-2.39.84-2.41,3Z" fill="#3a3d3f"/><path d="M372.71,89.56c0,.52.47.72,1.05.79l-.06,1.07a2.79,2.79,0,0,1-2.14-.72,9.2,9.2,0,0,1-3.24.72c-1.64,0-2.54-.94-2.54-2.76s.9-2.48,2.75-2.66l2.83-.28V85c0-1.26-.54-1.71-1.62-1.71-1.26,0-3.4.23-3.4.23l-.06-1a21.77,21.77,0,0,1,3.53-.4c2,0,2.9.94,2.9,2.9Zm-4-2.56c-1.1.11-1.53.63-1.53,1.62s.45,1.66,1.36,1.66a9.48,9.48,0,0,0,2.83-.56v-3Z" fill="#3a3d3f"/><path d="M381.35,83.55a29.33,29.33,0,0,0-3.15-.29c-1.12,0-2,.3-2,1.37,0,.84.43,1.08,2.34,1.4,2.25.38,3.1.83,3.1,2.58,0,2.1-1.34,2.81-3.5,2.81a25,25,0,0,1-3.17-.35l.08-1.17a29.5,29.5,0,0,0,3,.31c1.47,0,2.27-.33,2.27-1.55,0-.94-.47-1.17-2.43-1.48s-3-.7-3-2.5c0-2,1.6-2.63,3.24-2.63a23.19,23.19,0,0,1,3.26.34Z" fill="#3a3d3f"/><path d="M390.39,90.06l0,1.07a31.12,31.12,0,0,1-3.51.29c-2.68,0-3.56-1.57-3.56-4.63,0-3.42,1.47-4.74,3.76-4.74s3.62,1.26,3.62,4.22l-.07,1h-5.94c0,1.93.59,2.94,2.35,2.94C388.43,90.23,390.39,90.06,390.39,90.06Zm-1-3.85c0-2.23-.68-3-2.27-3s-2.39.84-2.41,3Z" fill="#3a3d3f"/><path d="M396.79,78.63h1.35V80.2h-1.35Zm0,3.6h1.35v9h-1.35Z" fill="#3a3d3f"/><path d="M400.74,91.23v-9h1.33v.63a6.85,6.85,0,0,1,2.79-.81c2.48,0,3,1.23,3,4.43v4.75h-1.33V86.52c0-2.38-.27-3.26-1.94-3.26a6.19,6.19,0,0,0-2.54.66v7.31Z" fill="#3a3d3f"/><path d="M416.16,83.4v4.31c0,2,.13,2.52,1.3,2.52.5,0,1.6-.11,1.6-.11l.09,1.11a15.44,15.44,0,0,1-1.83.2c-1.86,0-2.49-.7-2.49-3.29V83.4h-1.28V82.23h1.28V79.48h1.33v2.75H419V83.4Z" fill="#3a3d3f"/><path d="M420.68,91.23V78.31H422v4.43a7.55,7.55,0,0,1,2.77-.69c2.47,0,3.05,1.23,3.05,4.43v4.75H426.5V86.52c0-2.38-.27-3.26-1.93-3.26a7.41,7.41,0,0,0-2.54.54v7.43Z" fill="#3a3d3f"/><path d="M437,90.06l0,1.07a31.38,31.38,0,0,1-3.51.29c-2.69,0-3.57-1.57-3.57-4.63,0-3.42,1.48-4.74,3.76-4.74s3.62,1.26,3.62,4.22l-.07,1h-5.94c0,1.93.59,2.94,2.36,2.94C435,90.23,437,90.06,437,90.06Zm-1-3.85c0-2.23-.68-3-2.27-3s-2.39.84-2.41,3Z" fill="#3a3d3f"/><path d="M449.37,83.55a29,29,0,0,0-3.15-.29c-1.11,0-2,.3-2,1.37,0,.84.43,1.08,2.34,1.4,2.25.38,3.1.83,3.1,2.58,0,2.1-1.33,2.81-3.49,2.81a24.7,24.7,0,0,1-3.17-.35l.07-1.17a29.5,29.5,0,0,0,3,.31c1.48,0,2.27-.33,2.27-1.55,0-.94-.47-1.17-2.43-1.48s-3-.7-3-2.5c0-2,1.6-2.63,3.24-2.63a23.19,23.19,0,0,1,3.26.34Z" fill="#3a3d3f"/><path d="M452.27,82.23l2.25,7.83h.6l2.26-7.83h1.35l-3.74,13h-1.35l1.17-4h-1.33l-2.56-9Z" fill="#3a3d3f"/><path d="M466.44,83.55a29.33,29.33,0,0,0-3.15-.29c-1.12,0-2,.3-2,1.37,0,.84.44,1.08,2.34,1.4,2.26.38,3.1.83,3.1,2.58,0,2.1-1.33,2.81-3.49,2.81a25,25,0,0,1-3.17-.35l.07-1.17a29.5,29.5,0,0,0,3,.31c1.48,0,2.27-.33,2.27-1.55,0-.94-.47-1.17-2.43-1.48s-3-.7-3-2.5c0-2,1.61-2.63,3.24-2.63a23,23,0,0,1,3.26.34Z" fill="#3a3d3f"/><path d="M470.63,83.4v4.31c0,2,.13,2.52,1.3,2.52.5,0,1.6-.11,1.6-.11l.09,1.11a15.71,15.71,0,0,1-1.84.2c-1.85,0-2.48-.7-2.48-3.29V83.4H468V82.23h1.28V79.48h1.33v2.75h2.86V83.4Z" fill="#3a3d3f"/><path d="M481.79,90.06l0,1.07a31.12,31.12,0,0,1-3.51.29c-2.69,0-3.57-1.57-3.57-4.63,0-3.42,1.48-4.74,3.77-4.74s3.61,1.26,3.61,4.22l-.07,1h-5.94c0,1.93.6,2.94,2.36,2.94C479.83,90.23,481.79,90.06,481.79,90.06Zm-1-3.85c0-2.23-.68-3-2.26-3s-2.4.84-2.42,3Z" fill="#3a3d3f"/><path d="M484.24,91.23v-9h1.33v.63a6,6,0,0,1,2.63-.81,2.53,2.53,0,0,1,2.34.92,7.46,7.46,0,0,1,3.2-.92c2.45,0,3.05,1.17,3.05,4.43v4.75h-1.35V86.52c0-2.38-.27-3.26-1.89-3.26a6,6,0,0,0-2.54.66,10.4,10.4,0,0,1,.23,2.63v4.68h-1.35V86.59c0-2.48-.25-3.33-1.89-3.33a5.39,5.39,0,0,0-2.41.66v7.31Z" fill="#3a3d3f"/><path d="M160.73,110.23h1.33v.65a6.12,6.12,0,0,1,2.7-.83c2.27,0,3.26,1.39,3.26,4.58,0,3.52-1.15,4.79-3.92,4.79a12,12,0,0,1-2-.2v4h-1.35Zm1.35,1.75v6.07a14.72,14.72,0,0,0,1.94.19c2,0,2.63-1,2.63-3.61s-.77-3.37-2.09-3.37A5.86,5.86,0,0,0,162.08,112Z" fill="#3a3d3f"/><path d="M170.22,110.23h1.33v1.23a10.21,10.21,0,0,1,3.29-1.43v1.37a12.81,12.81,0,0,0-3.27,1.23v6.6h-1.35Z" fill="#3a3d3f"/><path d="M183.75,114.63c0,3.27-.81,4.79-3.85,4.79s-3.85-1.52-3.85-4.79c0-3.1,1-4.58,3.85-4.58S183.75,111.53,183.75,114.63Zm-1.38,0c0-2.51-.54-3.41-2.47-3.41s-2.47.9-2.47,3.41.34,3.61,2.47,3.61S182.37,117.18,182.37,114.63Z" fill="#3a3d3f"/><path d="M192.86,119.23h-1.33v-.61a6.44,6.44,0,0,1-2.74.8c-1.76,0-3.24-.72-3.24-4.61,0-3.17,1-4.76,3.76-4.76a14.13,14.13,0,0,1,2.22.24v-4h1.33Zm-1.33-1.69v-6.1a14.42,14.42,0,0,0-2.14-.22c-1.9,0-2.45,1.24-2.45,3.59,0,2.91.95,3.4,2,3.4A6.54,6.54,0,0,0,191.53,117.54Z" fill="#3a3d3f"/><path d="M202.44,110.23v9h-1.35v-.63a6.09,6.09,0,0,1-2.67.82c-2.52,0-3-1.18-3-4.49v-4.7h1.35v4.68c0,2.49.21,3.3,1.89,3.3a5.47,5.47,0,0,0,2.47-.67v-7.31Z" fill="#3a3d3f"/><path d="M210.84,110.32l-.05,1.1s-1.44-.16-2.13-.16c-2.07,0-2.63.9-2.63,3.31,0,2.67.42,3.64,2.65,3.64.68,0,2.13-.16,2.13-.16l.05,1.11a23.06,23.06,0,0,1-2.5.26c-2.87,0-3.71-1.32-3.71-4.85,0-3.26,1.06-4.52,3.74-4.52A20.89,20.89,0,0,1,210.84,110.32Z" fill="#3a3d3f"/><path d="M214.67,111.4v4.31c0,2,.13,2.52,1.3,2.52.5,0,1.6-.11,1.6-.11l.09,1.11a15.44,15.44,0,0,1-1.83.2c-1.86,0-2.49-.7-2.49-3.29V111.4h-1.28v-1.17h1.28v-2.75h1.33v2.75h2.87v1.17Z" fill="#3a3d3f"/><path d="M219.19,106.63h1.35v1.57h-1.35Zm0,3.6h1.35v9h-1.35Z" fill="#3a3d3f"/><path d="M223.73,110.23l2.1,7.83h.67l2.18-7.83h1.39l-2.54,9h-2.7l-2.54-9Z" fill="#3a3d3f"/><path d="M231.79,106.63h1.35v1.57h-1.35Zm0,3.6h1.35v9h-1.35Z" fill="#3a3d3f"/><path d="M237.53,111.4v4.31c0,2,.13,2.52,1.3,2.52.5,0,1.6-.11,1.6-.11l.09,1.11a15.44,15.44,0,0,1-1.83.2c-1.86,0-2.49-.7-2.49-3.29V111.4h-1.28v-1.17h1.28v-2.75h1.33v2.75h2.87v1.17Z" fill="#3a3d3f"/><path d="M242.56,110.23l2.25,7.83h.59l2.27-7.83H249l-3.75,13h-1.35l1.17-4h-1.33l-2.56-9Z" fill="#3a3d3f"/><path d="M250.65,117.18h1.48v2h-1.48Z" fill="#3a3d3f"/><path d="M261.15,106.78h3l3.42,12.45h-1.36l-.9-3.2H260l-.9,3.2h-1.37Zm-.85,8H265L263.13,108h-.94Z" fill="#3a3d3f"/><path d="M269.43,106.31h1.35v12.92h-1.35Z" fill="#3a3d3f"/><path d="M275.28,111.4v4.31c0,2,.12,2.52,1.29,2.52.51,0,1.61-.11,1.61-.11l.09,1.11a15.71,15.71,0,0,1-1.84.2c-1.85,0-2.48-.7-2.48-3.29V111.4h-1.28v-1.17H274v-2.75h1.33v2.75h2.86v1.17Z" fill="#3a3d3f"/><path d="M279.8,119.23V106.31h1.35v4.43a7.55,7.55,0,0,1,2.77-.69c2.47,0,3,1.23,3,4.43v4.75h-1.35v-4.71c0-2.38-.27-3.26-1.92-3.26a7.41,7.41,0,0,0-2.54.54v7.43Z" fill="#3a3d3f"/><path d="M296.77,114.63c0,3.27-.81,4.79-3.85,4.79s-3.85-1.52-3.85-4.79c0-3.1,1-4.58,3.85-4.58S296.77,111.53,296.77,114.63Zm-1.38,0c0-2.51-.54-3.41-2.47-3.41s-2.47.9-2.47,3.41.34,3.61,2.47,3.61S295.39,117.18,295.39,114.63Z" fill="#3a3d3f"/><path d="M305.93,110.23v9h-1.35v-.63a6,6,0,0,1-2.66.82c-2.52,0-3-1.18-3-4.49v-4.7h1.35v4.68c0,2.49.21,3.3,1.89,3.3a5.4,5.4,0,0,0,2.46-.67v-7.31Z" fill="#3a3d3f"/><path d="M308.13,120.75c0-1,.48-1.53,1.42-2.24a1.46,1.46,0,0,1-.5-1.24,5.82,5.82,0,0,1,.61-1.42c-.76-.34-1.43-1.06-1.43-2.72,0-2.21,1.37-3.08,3.37-3.08a9.22,9.22,0,0,1,1.88.24l2.66-.08v1.16l-1.71,0a2.35,2.35,0,0,1,.59,1.8c0,2.34-1.17,3-3.47,3a6.65,6.65,0,0,1-.88-.07,5.21,5.21,0,0,0-.33,1c0,.72.15.83,2.18.83,2.56,0,3.48.5,3.48,2.64s-1.46,2.87-4,2.87C309.15,123.47,308.13,122.84,308.13,120.75Zm2.34-1.7c-.76.56-1,.89-1,1.59,0,1.24.52,1.69,2.56,1.69,1.8,0,2.61-.48,2.61-1.67,0-1.37-.58-1.52-2.22-1.52C311.78,119.14,310.47,119.05,310.47,119.05Zm3.2-5.92c0-1.42-.56-2-2.07-2s-2,.56-2,2,.61,2,2,2S313.67,114.55,313.67,113.13Z" fill="#3a3d3f"/><path d="M317.78,119.23V106.31h1.35v4.43a7.55,7.55,0,0,1,2.77-.69c2.47,0,3,1.23,3,4.43v4.75h-1.35v-4.71c0-2.38-.27-3.26-1.93-3.26a7.39,7.39,0,0,0-2.53.54v7.43Z" fill="#3a3d3f"/><path d="M331.4,106.63h1.35v1.57H331.4Zm0,3.6h1.35v9H331.4Z" fill="#3a3d3f"/><path d="M337.14,111.4v4.31c0,2,.13,2.52,1.3,2.52.5,0,1.6-.11,1.6-.11l.09,1.11a15.44,15.44,0,0,1-1.83.2c-1.86,0-2.49-.7-2.49-3.29V111.4h-1.28v-1.17h1.28v-2.75h1.33v2.75H340v1.17Z" fill="#3a3d3f"/><path d="M345.62,119.23v-9H347v.63a6.1,6.1,0,0,1,2.63-.81,2.52,2.52,0,0,1,2.34.92,7.53,7.53,0,0,1,3.21-.92c2.45,0,3,1.17,3,4.43v4.75h-1.35v-4.71c0-2.38-.27-3.26-1.89-3.26a6,6,0,0,0-2.54.66,10.29,10.29,0,0,1,.24,2.63v4.68h-1.35v-4.64c0-2.48-.26-3.33-1.89-3.33a5.46,5.46,0,0,0-2.42.66v7.31Z" fill="#3a3d3f"/><path d="M367,117.56c0,.52.46.72,1,.79l-.05,1.07a2.8,2.8,0,0,1-2.15-.72,9.2,9.2,0,0,1-3.24.72c-1.64,0-2.54-.94-2.54-2.76s.9-2.48,2.76-2.66l2.83-.28V113c0-1.26-.54-1.71-1.62-1.71-1.27,0-3.41.23-3.41.23l0-1a21.6,21.6,0,0,1,3.53-.4c2,0,2.9.94,2.9,2.9ZM363,115c-1.1.11-1.53.63-1.53,1.62s.45,1.66,1.37,1.66a9.57,9.57,0,0,0,2.83-.56v-3Z" fill="#3a3d3f"/><path d="M370.19,110.23l2.25,7.83h.6l2.27-7.83h1.35l-3.75,13h-1.35l1.17-4H371.4l-2.56-9Z" fill="#3a3d3f"/><path d="M388.32,111.55a29.33,29.33,0,0,0-3.15-.29c-1.12,0-2,.3-2,1.37,0,.84.43,1.08,2.34,1.4,2.25.38,3.09.83,3.09,2.58,0,2.1-1.33,2.81-3.49,2.81a25,25,0,0,1-3.17-.35l.07-1.17a29.86,29.86,0,0,0,3,.31c1.48,0,2.27-.33,2.27-1.55,0-.94-.47-1.17-2.43-1.48s-3-.7-3-2.5c0-2,1.6-2.63,3.24-2.63a23.19,23.19,0,0,1,3.26.34Z" fill="#3a3d3f"/><path d="M398,114.63c0,3.27-.81,4.79-3.85,4.79s-3.85-1.52-3.85-4.79c0-3.1,1-4.58,3.85-4.58S398,111.53,398,114.63Zm-1.39,0c0-2.51-.54-3.41-2.46-3.41s-2.47.9-2.47,3.41.34,3.61,2.47,3.61S396.63,117.18,396.63,114.63Z" fill="#3a3d3f"/><path d="M400.32,106.31h1.35v12.92h-1.35Z" fill="#3a3d3f"/><path d="M405,110.23l2.1,7.83h.67l2.18-7.83h1.39l-2.54,9h-2.7l-2.54-9Z" fill="#3a3d3f"/><path d="M419.68,118.06l0,1.07a31.12,31.12,0,0,1-3.51.29c-2.68,0-3.56-1.57-3.56-4.63,0-3.42,1.47-4.74,3.76-4.74s3.62,1.26,3.62,4.22l-.07,1H414c0,1.93.6,2.94,2.36,2.94C417.71,118.23,419.68,118.06,419.68,118.06Zm-1-3.85c0-2.23-.69-3-2.27-3s-2.4.84-2.41,3Z" fill="#3a3d3f"/><path d="M427.88,111.4v4.31c0,2,.13,2.52,1.3,2.52.5,0,1.6-.11,1.6-.11l.09,1.11a15.71,15.71,0,0,1-1.84.2c-1.85,0-2.48-.7-2.48-3.29V111.4h-1.28v-1.17h1.28v-2.75h1.33v2.75h2.86v1.17Z" fill="#3a3d3f"/><path d="M432.4,119.23V106.31h1.35v4.43a7.55,7.55,0,0,1,2.77-.69c2.47,0,3.05,1.23,3.05,4.43v4.75h-1.35v-4.71c0-2.38-.28-3.26-1.93-3.26a7.41,7.41,0,0,0-2.54.54v7.43Z" fill="#3a3d3f"/><path d="M448.71,118.06l0,1.07a31.4,31.4,0,0,1-3.52.29c-2.68,0-3.56-1.57-3.56-4.63,0-3.42,1.48-4.74,3.76-4.74s3.62,1.26,3.62,4.22l-.07,1H443c0,1.93.59,2.94,2.36,2.94C446.75,118.23,448.71,118.06,448.71,118.06Zm-1-3.85c0-2.23-.68-3-2.27-3s-2.39.84-2.41,3Z" fill="#3a3d3f"/><path d="M455.12,106.63h1.35v1.57h-1.35Zm0,3.6h1.35v9h-1.35Z" fill="#3a3d3f"/><path d="M465,111.55a29,29,0,0,0-3.15-.29c-1.11,0-2,.3-2,1.37,0,.84.43,1.08,2.34,1.4,2.25.38,3.1.83,3.1,2.58,0,2.1-1.33,2.81-3.49,2.81a24.7,24.7,0,0,1-3.17-.35l.07-1.17a29.5,29.5,0,0,0,3,.31c1.48,0,2.27-.33,2.27-1.55,0-.94-.47-1.17-2.43-1.48s-3-.7-3-2.5c0-2,1.6-2.63,3.24-2.63a23.19,23.19,0,0,1,3.26.34Z" fill="#3a3d3f"/><path d="M473.4,111.55a29,29,0,0,0-3.15-.29c-1.11,0-2,.3-2,1.37,0,.84.43,1.08,2.34,1.4,2.25.38,3.1.83,3.1,2.58,0,2.1-1.33,2.81-3.49,2.81a24.7,24.7,0,0,1-3.17-.35l.07-1.17a29.5,29.5,0,0,0,3,.31c1.48,0,2.27-.33,2.27-1.55,0-.94-.47-1.17-2.43-1.48s-3-.7-3-2.5c0-2,1.6-2.63,3.24-2.63a23.19,23.19,0,0,1,3.26.34Z" fill="#3a3d3f"/><path d="M482.77,110.23v9h-1.36v-.63a6,6,0,0,1-2.66.82c-2.52,0-3-1.18-3-4.49v-4.7h1.35v4.68c0,2.49.21,3.3,1.89,3.3a5.4,5.4,0,0,0,2.46-.67v-7.31Z" fill="#3a3d3f"/><path d="M492,118.06l0,1.07a31.12,31.12,0,0,1-3.51.29c-2.68,0-3.56-1.57-3.56-4.63,0-3.42,1.48-4.74,3.76-4.74s3.62,1.26,3.62,4.22l-.07,1h-5.94c0,1.93.59,2.94,2.36,2.94C490,118.23,492,118.06,492,118.06Zm-1-3.85c0-2.23-.68-3-2.27-3s-2.39.84-2.41,3Z" fill="#3a3d3f"/><path d="M494.59,117.31h1.49l-1.2,4.14h-1.12Z" fill="#3a3d3f"/><path d="M502.42,106.63h1.35v1.57h-1.35Zm0,3.6h1.35v9h-1.35Z" fill="#3a3d3f"/><path d="M508.16,111.4v4.31c0,2,.13,2.52,1.3,2.52.5,0,1.6-.11,1.6-.11l.09,1.11a15.71,15.71,0,0,1-1.84.2c-1.85,0-2.48-.7-2.48-3.29V111.4h-1.28v-1.17h1.28v-2.75h1.33v2.75H511v1.17Z" fill="#3a3d3f"/><path d="M160.73,147.23V134.31h1.35v4.43a7.55,7.55,0,0,1,2.77-.69c2.47,0,3.05,1.23,3.05,4.43v4.75h-1.36v-4.71c0-2.38-.27-3.26-1.92-3.26a7.41,7.41,0,0,0-2.54.54v7.43Z" fill="#3a3d3f"/><path d="M170.4,134.63h1.34v1.57H170.4Zm0,3.6h1.34v9H170.4Z" fill="#3a3d3f"/><path d="M173.94,148.75c0-1.05.49-1.53,1.42-2.24a1.46,1.46,0,0,1-.5-1.24,5.82,5.82,0,0,1,.61-1.42c-.76-.34-1.42-1.06-1.42-2.72,0-2.21,1.37-3.08,3.36-3.08a9.09,9.09,0,0,1,1.88.24l2.66-.08v1.16l-1.71,0a2.35,2.35,0,0,1,.6,1.8c0,2.34-1.17,3-3.48,3a6.79,6.79,0,0,1-.88-.07,5.21,5.21,0,0,0-.33,1c0,.72.15.83,2.18.83,2.56,0,3.48.5,3.48,2.64s-1.46,2.87-4,2.87C175,151.47,173.94,150.84,173.94,148.75Zm2.34-1.7c-.76.56-1,.89-1,1.59,0,1.24.52,1.69,2.56,1.69,1.8,0,2.61-.48,2.61-1.67,0-1.37-.58-1.52-2.21-1.52C177.6,147.14,176.28,147.05,176.28,147.05Zm3.21-5.92c0-1.42-.56-2-2.08-2s-2,.56-2,2,.61,2,2,2S179.49,142.55,179.49,141.13Z" fill="#3a3d3f"/><path d="M183.59,147.23V134.31h1.35v4.43a7.55,7.55,0,0,1,2.77-.69c2.47,0,3,1.23,3,4.43v4.75H189.4v-4.71c0-2.38-.27-3.26-1.92-3.26a7.41,7.41,0,0,0-2.54.54v7.43Z" fill="#3a3d3f"/><path d="M193.36,134.31h1.35v12.92h-1.35Z" fill="#3a3d3f"/><path d="M197.92,138.23l2.25,7.83h.59l2.27-7.83h1.35l-3.74,13h-1.36l1.17-4h-1.33l-2.55-9Z" fill="#3a3d3f"/><path d="M210.07,134.63h1.35v1.57h-1.35Zm0,3.6h1.35v9h-1.35Z" fill="#3a3d3f"/><path d="M214,147.23v-9h1.33v.63a6.85,6.85,0,0,1,2.79-.81c2.49,0,3,1.23,3,4.43v4.75h-1.33v-4.71c0-2.38-.27-3.26-1.94-3.26a6.19,6.19,0,0,0-2.54.66v7.31Z" fill="#3a3d3f"/><path d="M229.49,138.32l-.05,1.1s-1.45-.16-2.13-.16c-2.07,0-2.63.9-2.63,3.31,0,2.67.42,3.64,2.65,3.64.68,0,2.12-.16,2.12-.16l.06,1.11a23.34,23.34,0,0,1-2.51.26c-2.86,0-3.7-1.32-3.7-4.85,0-3.26,1.06-4.52,3.74-4.52A20.89,20.89,0,0,1,229.49,138.32Z" fill="#3a3d3f"/><path d="M231.52,138.23h1.33v1.23a10.32,10.32,0,0,1,3.3-1.43v1.37a13,13,0,0,0-3.28,1.23v6.6h-1.35Z" fill="#3a3d3f"/><path d="M244.39,146.06l0,1.07a31.12,31.12,0,0,1-3.51.29c-2.69,0-3.57-1.57-3.57-4.63,0-3.42,1.48-4.74,3.77-4.74s3.61,1.26,3.61,4.22l-.07,1h-5.94c0,1.93.6,2.94,2.36,2.94C242.43,146.23,244.39,146.06,244.39,146.06Zm-1-3.85c0-2.23-.68-3-2.26-3s-2.4.84-2.42,3Z" fill="#3a3d3f"/><path d="M253.19,145.56c0,.52.47.72,1.05.79l-.05,1.07a2.8,2.8,0,0,1-2.15-.72,9.2,9.2,0,0,1-3.24.72c-1.64,0-2.54-.94-2.54-2.76s.9-2.48,2.76-2.66l2.82-.28V141c0-1.26-.54-1.71-1.62-1.71-1.26,0-3.4.23-3.4.23l0-1a21.6,21.6,0,0,1,3.53-.4c2,0,2.89.94,2.89,2.9Zm-4-2.56c-1.1.11-1.53.63-1.53,1.62s.45,1.66,1.37,1.66a9.47,9.47,0,0,0,2.82-.56v-3Z" fill="#3a3d3f"/><path d="M261.83,139.55a29,29,0,0,0-3.15-.29c-1.11,0-2,.3-2,1.37,0,.84.43,1.08,2.34,1.4,2.25.38,3.1.83,3.1,2.58,0,2.1-1.33,2.81-3.49,2.81a24.7,24.7,0,0,1-3.17-.35l.07-1.17a29.5,29.5,0,0,0,3,.31c1.48,0,2.27-.33,2.27-1.55,0-.94-.47-1.17-2.43-1.48s-3-.7-3-2.5c0-2,1.6-2.63,3.24-2.63a23.19,23.19,0,0,1,3.26.34Z" fill="#3a3d3f"/><path d="M270.87,146.06l0,1.07a31.38,31.38,0,0,1-3.51.29c-2.69,0-3.57-1.57-3.57-4.63,0-3.42,1.48-4.74,3.76-4.74s3.62,1.26,3.62,4.22l-.07,1H265.2c0,1.93.59,2.94,2.36,2.94C268.91,146.23,270.87,146.06,270.87,146.06Zm-1-3.85c0-2.23-.68-3-2.27-3s-2.39.84-2.41,3Z" fill="#3a3d3f"/><path d="M279.29,139.55a29,29,0,0,0-3.15-.29c-1.11,0-2,.3-2,1.37,0,.84.43,1.08,2.34,1.4,2.25.38,3.1.83,3.1,2.58,0,2.1-1.33,2.81-3.49,2.81a24.7,24.7,0,0,1-3.17-.35l.07-1.17a29.5,29.5,0,0,0,3,.31c1.48,0,2.27-.33,2.27-1.55,0-.94-.47-1.17-2.43-1.48s-3-.7-3-2.5c0-2,1.6-2.63,3.24-2.63a23.19,23.19,0,0,1,3.26.34Z" fill="#3a3d3f"/><path d="M287.45,139.4v4.31c0,2,.12,2.52,1.29,2.52.51,0,1.61-.11,1.61-.11l.09,1.11a15.71,15.71,0,0,1-1.84.2c-1.86,0-2.49-.7-2.49-3.29V139.4h-1.27v-1.17h1.27v-2.75h1.34v2.75h2.86v1.17Z" fill="#3a3d3f"/><path d="M292,147.23V134.31h1.35v4.43a7.55,7.55,0,0,1,2.77-.69c2.47,0,3,1.23,3,4.43v4.75h-1.35v-4.71c0-2.38-.27-3.26-1.93-3.26a7.39,7.39,0,0,0-2.53.54v7.43Z" fill="#3a3d3f"/><path d="M308.27,146.06l0,1.07a31.12,31.12,0,0,1-3.51.29c-2.68,0-3.57-1.57-3.57-4.63,0-3.42,1.48-4.74,3.77-4.74s3.62,1.26,3.62,4.22l-.07,1H302.6c0,1.93.6,2.94,2.36,2.94C306.31,146.23,308.27,146.06,308.27,146.06Zm-1-3.85c0-2.23-.69-3-2.27-3s-2.4.84-2.41,3Z" fill="#3a3d3f"/><path d="M321.94,142.59c0,3.58-1,4.83-4.25,4.83-1.08,0-3-.2-3-.2V134.31H316v4.37a7.44,7.44,0,0,1,2.65-.63C321.11,138.05,321.94,139.35,321.94,142.59Zm-1.37,0c0-2.32-.47-3.33-2.05-3.33a7.59,7.59,0,0,0-2.51.52v6.34s1.17.09,1.66.09C320.14,146.21,320.57,145.11,320.57,142.59Z" fill="#3a3d3f"/><path d="M330.5,145.56c0,.52.47.72,1.05.79l-.06,1.07a2.79,2.79,0,0,1-2.14-.72,9.2,9.2,0,0,1-3.24.72c-1.64,0-2.54-.94-2.54-2.76s.9-2.48,2.76-2.66l2.82-.28V141c0-1.26-.54-1.71-1.62-1.71-1.26,0-3.4.23-3.4.23l-.05-1a21.6,21.6,0,0,1,3.53-.4c2,0,2.89.94,2.89,2.9Zm-4-2.56c-1.1.11-1.53.63-1.53,1.62s.45,1.66,1.37,1.66a9.47,9.47,0,0,0,2.82-.56v-3Z" fill="#3a3d3f"/><path d="M335,139.4v4.31c0,2,.12,2.52,1.29,2.52.51,0,1.61-.11,1.61-.11l.09,1.11a15.71,15.71,0,0,1-1.84.2c-1.86,0-2.49-.7-2.49-3.29V139.4h-1.27v-1.17h1.27v-2.75H335v2.75h2.86v1.17Z" fill="#3a3d3f"/><path d="M341.28,139.4v4.31c0,2,.13,2.52,1.3,2.52.51,0,1.6-.11,1.6-.11l.09,1.11a15.44,15.44,0,0,1-1.83.2c-1.86,0-2.49-.7-2.49-3.29V139.4h-1.28v-1.17H340v-2.75h1.33v2.75h2.87v1.17Z" fill="#3a3d3f"/><path d="M352.45,146.06l0,1.07a31.12,31.12,0,0,1-3.51.29c-2.68,0-3.56-1.57-3.56-4.63,0-3.42,1.47-4.74,3.76-4.74s3.62,1.26,3.62,4.22l-.07,1h-6c0,1.93.6,2.94,2.36,2.94C350.48,146.23,352.45,146.06,352.45,146.06Zm-1-3.85c0-2.23-.69-3-2.27-3s-2.4.84-2.41,3Z" fill="#3a3d3f"/><path d="M354.89,138.23h1.34v1.23a10.21,10.21,0,0,1,3.29-1.43v1.37a13,13,0,0,0-3.28,1.23v6.6h-1.35Z" fill="#3a3d3f"/><path d="M361.62,138.23l2.25,7.83h.6l2.27-7.83h1.35l-3.75,13H363l1.17-4h-1.33l-2.56-9Z" fill="#3a3d3f"/><path d="M379.59,138.32l0,1.1s-1.45-.16-2.13-.16c-2.07,0-2.63.9-2.63,3.31,0,2.67.42,3.64,2.65,3.64.68,0,2.12-.16,2.12-.16l.06,1.11a23.34,23.34,0,0,1-2.51.26c-2.86,0-3.7-1.32-3.7-4.85,0-3.26,1.06-4.52,3.74-4.52A20.89,20.89,0,0,1,379.59,138.32Z" fill="#3a3d3f"/><path d="M388.93,142.63c0,3.27-.81,4.79-3.85,4.79s-3.85-1.52-3.85-4.79c0-3.1,1-4.58,3.85-4.58S388.93,139.53,388.93,142.63Zm-1.39,0c0-2.51-.54-3.41-2.46-3.41s-2.47.9-2.47,3.41.34,3.61,2.47,3.61S387.54,145.18,387.54,142.63Z" fill="#3a3d3f"/><path d="M391.13,147.23v-9h1.33v.63a6.85,6.85,0,0,1,2.79-.81c2.48,0,3,1.23,3,4.43v4.75H397v-4.71c0-2.38-.27-3.26-1.95-3.26a6.18,6.18,0,0,0-2.53.66v7.31Z" fill="#3a3d3f"/><path d="M406.77,139.55a29.33,29.33,0,0,0-3.15-.29c-1.12,0-2,.3-2,1.37,0,.84.44,1.08,2.35,1.4,2.25.38,3.09.83,3.09,2.58,0,2.1-1.33,2.81-3.49,2.81a25,25,0,0,1-3.17-.35l.07-1.17a29.86,29.86,0,0,0,3,.31c1.48,0,2.27-.33,2.27-1.55,0-.94-.47-1.17-2.43-1.48s-3-.7-3-2.5c0-2,1.6-2.63,3.24-2.63a23.19,23.19,0,0,1,3.26.34Z" fill="#3a3d3f"/><path d="M416.13,138.23v9h-1.35v-.63a6,6,0,0,1-2.67.82c-2.52,0-3-1.18-3-4.49v-4.7h1.35v4.68c0,2.49.22,3.3,1.89,3.3a5.47,5.47,0,0,0,2.47-.67v-7.31Z" fill="#3a3d3f"/><path d="M418.72,147.23v-9h1.33v.63a6,6,0,0,1,2.63-.81A2.53,2.53,0,0,1,425,139a7.47,7.47,0,0,1,3.21-.92c2.44,0,3,1.17,3,4.43v4.75h-1.35v-4.71c0-2.38-.27-3.26-1.89-3.26a6,6,0,0,0-2.54.66,10.4,10.4,0,0,1,.23,2.63v4.68h-1.35v-4.64c0-2.48-.25-3.33-1.89-3.33a5.39,5.39,0,0,0-2.41.66v7.31Z" fill="#3a3d3f"/><path d="M433.77,138.23h1.33v.65a6.12,6.12,0,0,1,2.7-.83c2.27,0,3.26,1.39,3.26,4.58,0,3.52-1.15,4.79-3.93,4.79a12,12,0,0,1-2-.2v4h-1.35Zm1.35,1.75v6.07a14.72,14.72,0,0,0,1.94.19c2,0,2.63-1,2.63-3.61s-.77-3.37-2.09-3.37A5.86,5.86,0,0,0,435.12,140Z" fill="#3a3d3f"/><path d="M445.05,139.4v4.31c0,2,.13,2.52,1.3,2.52.5,0,1.6-.11,1.6-.11l.09,1.11a15.44,15.44,0,0,1-1.83.2c-1.86,0-2.49-.7-2.49-3.29V139.4h-1.28v-1.17h1.28v-2.75h1.33v2.75h2.87v1.17Z" fill="#3a3d3f"/><path d="M449.57,134.63h1.35v1.57h-1.35Zm0,3.6h1.35v9h-1.35Z" fill="#3a3d3f"/><path d="M460.82,142.63c0,3.27-.81,4.79-3.85,4.79s-3.85-1.52-3.85-4.79c0-3.1,1-4.58,3.85-4.58S460.82,139.53,460.82,142.63Zm-1.38,0c0-2.51-.54-3.41-2.47-3.41s-2.47.9-2.47,3.41.35,3.61,2.47,3.61S459.44,145.18,459.44,142.63Z" fill="#3a3d3f"/><path d="M463,147.23v-9h1.33v.63a6.85,6.85,0,0,1,2.79-.81c2.49,0,3,1.23,3,4.43v4.75h-1.33v-4.71c0-2.38-.27-3.26-1.94-3.26a6.19,6.19,0,0,0-2.54.66v7.31Z" fill="#3a3d3f"/><path d="M472.59,145.18h1.48v2h-1.48Z" fill="#3a3d3f"/><path d="M1285.16,78.78h9V80h-3.8V91.24H1289V80h-3.84Z" fill="#3a3d3f"/><path d="M1295.69,91.24V78.31H1297v4.43a7.57,7.57,0,0,1,2.78-.69c2.46,0,3,1.23,3,4.43v4.76h-1.35V86.52c0-2.38-.27-3.26-1.93-3.26a7.41,7.41,0,0,0-2.54.54v7.44Z" fill="#3a3d3f"/><path d="M1305.36,78.63h1.35V80.2h-1.35Zm0,3.6h1.35v9h-1.35Z" fill="#3a3d3f"/><path d="M1315.28,83.55a29.33,29.33,0,0,0-3.15-.29c-1.12,0-2,.3-2,1.37,0,.84.44,1.08,2.34,1.4,2.26.38,3.1.83,3.1,2.58,0,2.1-1.33,2.81-3.49,2.81a25,25,0,0,1-3.17-.35l.07-1.17a29.5,29.5,0,0,0,3,.31c1.48,0,2.27-.33,2.27-1.55,0-.94-.47-1.17-2.43-1.48s-3-.7-3-2.5c0-2,1.61-2.63,3.24-2.63a23.19,23.19,0,0,1,3.26.34Z" fill="#3a3d3f"/><path d="M1322.24,82.23l1.82,7.83h.29l2.14-7.65h1.41l2.14,7.65h.3l1.81-7.83h1.35l-2.15,9h-2.25l-1.91-7-1.91,7H1323l-2.14-9Z" fill="#3a3d3f"/><path d="M1342.66,86.63c0,3.27-.81,4.79-3.86,4.79S1335,89.9,1335,86.63c0-3.1,1-4.58,3.85-4.58S1342.66,83.53,1342.66,86.63Zm-1.39,0c0-2.51-.54-3.41-2.47-3.41s-2.46.9-2.46,3.41.34,3.62,2.46,3.62S1341.27,89.18,1341.27,86.63Z" fill="#3a3d3f"/><path d="M1351.82,82.23v9h-1.35v-.63a6.08,6.08,0,0,1-2.67.81c-2.52,0-3-1.17-3-4.49v-4.7h1.35v4.68c0,2.49.22,3.3,1.89,3.3a5.47,5.47,0,0,0,2.47-.67V82.23Z" fill="#3a3d3f"/><path d="M1354.52,78.31h1.35V91.24h-1.35Z" fill="#3a3d3f"/><path d="M1365.48,91.24h-1.33v-.62a6.44,6.44,0,0,1-2.74.8c-1.76,0-3.24-.72-3.24-4.61,0-3.17,1-4.76,3.76-4.76a14.13,14.13,0,0,1,2.22.24v-4h1.33Zm-1.33-1.7v-6.1a14.43,14.43,0,0,0-2.15-.22c-1.89,0-2.44,1.24-2.44,3.59,0,2.91,1,3.4,2,3.4A6.54,6.54,0,0,0,1364.15,89.54Z" fill="#3a3d3f"/><path d="M1372.05,78.63h1.35V80.2h-1.35Zm0,3.6h1.35v9h-1.35Z" fill="#3a3d3f"/><path d="M1376,91.24v-9h1.33v.63a6.85,6.85,0,0,1,2.79-.81c2.49,0,3.05,1.23,3.05,4.43v4.76h-1.34V86.52c0-2.38-.27-3.26-1.94-3.26a6.12,6.12,0,0,0-2.54.67v7.31Z" fill="#3a3d3f"/><path d="M1391.47,82.32l0,1.1s-1.44-.16-2.13-.16c-2.07,0-2.63.9-2.63,3.31,0,2.67.42,3.64,2.65,3.64.68,0,2.13-.16,2.13-.16l0,1.11a23.06,23.06,0,0,1-2.5.26c-2.87,0-3.71-1.32-3.71-4.85,0-3.26,1.06-4.52,3.74-4.52A20.89,20.89,0,0,1,1391.47,82.32Z" fill="#3a3d3f"/><path d="M1393.5,82.23h1.34v1.23a10.06,10.06,0,0,1,3.29-1.42V83.4a13.41,13.41,0,0,0-3.28,1.23v6.61h-1.35Z" fill="#3a3d3f"/><path d="M1406.37,90.06l0,1.07a31.12,31.12,0,0,1-3.51.29c-2.68,0-3.57-1.57-3.57-4.63,0-3.42,1.48-4.74,3.77-4.74s3.62,1.26,3.62,4.22l-.08,1h-5.94c0,1.93.6,2.94,2.36,2.94C1404.41,90.23,1406.37,90.06,1406.37,90.06Zm-1-3.85c0-2.23-.69-3-2.27-3s-2.4.84-2.41,3Z" fill="#3a3d3f"/><path d="M1415.18,89.56c0,.52.46.72,1,.79l0,1.07a2.76,2.76,0,0,1-2.15-.72,9.2,9.2,0,0,1-3.24.72c-1.64,0-2.54-.94-2.54-2.76s.9-2.48,2.76-2.66l2.83-.27V85c0-1.26-.54-1.71-1.62-1.71-1.27,0-3.41.23-3.41.23l0-1a21.6,21.6,0,0,1,3.53-.4c2,0,2.9.94,2.9,2.9Zm-4-2.56c-1.1.11-1.53.63-1.53,1.63s.45,1.65,1.37,1.65a9.57,9.57,0,0,0,2.83-.56v-3Z" fill="#3a3d3f"/><path d="M1423.82,83.55a29.33,29.33,0,0,0-3.16-.29c-1.11,0-2,.3-2,1.37,0,.84.43,1.08,2.34,1.4,2.25.38,3.1.83,3.1,2.58,0,2.1-1.33,2.81-3.49,2.81a24.7,24.7,0,0,1-3.17-.35l.07-1.17a29.5,29.5,0,0,0,3,.31c1.48,0,2.27-.33,2.27-1.55,0-.94-.47-1.17-2.43-1.48s-3-.7-3-2.5c0-2,1.6-2.63,3.24-2.63a23.19,23.19,0,0,1,3.26.34Z" fill="#3a3d3f"/><path d="M1432.85,90.06l0,1.07a31.12,31.12,0,0,1-3.51.29c-2.69,0-3.57-1.57-3.57-4.63,0-3.42,1.48-4.74,3.76-4.74s3.62,1.26,3.62,4.22l-.07,1h-5.94c0,1.93.59,2.94,2.36,2.94C1430.89,90.23,1432.85,90.06,1432.85,90.06Zm-1-3.85c0-2.23-.68-3-2.27-3s-2.39.84-2.41,3Z" fill="#3a3d3f"/><path d="M1446.17,91.24h-1.33v-.62a6.44,6.44,0,0,1-2.74.8c-1.76,0-3.24-.72-3.24-4.61,0-3.17,1-4.76,3.76-4.76a14.13,14.13,0,0,1,2.22.24v-4h1.33Zm-1.33-1.7v-6.1a14.27,14.27,0,0,0-2.14-.22c-1.89,0-2.45,1.24-2.45,3.59,0,2.91,1,3.4,2,3.4A6.53,6.53,0,0,0,1444.84,89.54Z" fill="#3a3d3f"/><path d="M1448.78,82.23h1.33v1.23a10.17,10.17,0,0,1,3.3-1.42V83.4a13.21,13.21,0,0,0-3.28,1.23v6.61h-1.35Z" fill="#3a3d3f"/><path d="M1461.36,89.56c0,.52.47.72,1.05.79l-.06,1.07a2.75,2.75,0,0,1-2.14-.72,9.2,9.2,0,0,1-3.24.72c-1.64,0-2.54-.94-2.54-2.76s.9-2.48,2.76-2.66l2.82-.27V85c0-1.26-.54-1.71-1.62-1.71-1.26,0-3.4.23-3.4.23l0-1a21.57,21.57,0,0,1,3.52-.4c2,0,2.9.94,2.9,2.9Zm-4-2.56c-1.1.11-1.53.63-1.53,1.63s.45,1.65,1.37,1.65a9.47,9.47,0,0,0,2.82-.56v-3Z" fill="#3a3d3f"/><path d="M1464,91.24v-9h1.34v.63a6,6,0,0,1,2.63-.81,2.54,2.54,0,0,1,2.34.92,7.46,7.46,0,0,1,3.2-.92c2.45,0,3,1.17,3,4.43v4.76h-1.35V86.52c0-2.38-.27-3.26-1.89-3.26a6,6,0,0,0-2.54.67,9.71,9.71,0,0,1,.24,2.62v4.69h-1.35V86.59c0-2.48-.25-3.33-1.89-3.33a5.4,5.4,0,0,0-2.42.67v7.31Z" fill="#3a3d3f"/><path d="M1485.43,89.56c0,.52.47.72,1,.79l0,1.07a2.74,2.74,0,0,1-2.14-.72,9.22,9.22,0,0,1-3.25.72c-1.63,0-2.53-.94-2.53-2.76s.9-2.48,2.75-2.66l2.83-.27V85c0-1.26-.54-1.71-1.62-1.71-1.26,0-3.41.23-3.41.23l0-1a21.6,21.6,0,0,1,3.53-.4c2,0,2.9.94,2.9,2.9Zm-4-2.56c-1.09.11-1.53.63-1.53,1.63s.45,1.65,1.37,1.65a9.57,9.57,0,0,0,2.83-.56v-3Z" fill="#3a3d3f"/><path d="M1489.89,83.4v4.31c0,2,.13,2.52,1.3,2.52.5,0,1.6-.11,1.6-.11l.09,1.12a16.5,16.5,0,0,1-1.84.19c-1.85,0-2.48-.7-2.48-3.29V83.4h-1.28V82.23h1.28V79.48h1.33v2.75h2.86V83.4Z" fill="#3a3d3f"/><path d="M1494.41,78.63h1.35V80.2h-1.35Zm0,3.6h1.35v9h-1.35Z" fill="#3a3d3f"/><path d="M1504.17,82.32l-.06,1.1s-1.44-.16-2.12-.16c-2.07,0-2.63.9-2.63,3.31,0,2.67.41,3.64,2.65,3.64.68,0,2.12-.16,2.12-.16l0,1.11a23.06,23.06,0,0,1-2.5.26c-2.86,0-3.71-1.32-3.71-4.85,0-3.26,1.06-4.52,3.75-4.52A20.89,20.89,0,0,1,1504.17,82.32Z" fill="#3a3d3f"/><path d="M1512.55,89.56c0,.52.47.72,1,.79l-.06,1.07a2.75,2.75,0,0,1-2.14-.72,9.2,9.2,0,0,1-3.24.72c-1.64,0-2.54-.94-2.54-2.76s.9-2.48,2.76-2.66l2.82-.27V85c0-1.26-.54-1.71-1.62-1.71-1.26,0-3.4.23-3.4.23l0-1a21.6,21.6,0,0,1,3.53-.4c2,0,2.89.94,2.89,2.9Zm-4-2.56c-1.1.11-1.53.63-1.53,1.63s.45,1.65,1.37,1.65a9.47,9.47,0,0,0,2.82-.56v-3Z" fill="#3a3d3f"/><path d="M1515.32,78.31h1.35V91.24h-1.35Z" fill="#3a3d3f"/><path d="M1519.48,78.31h1.35V91.24h-1.35Z" fill="#3a3d3f"/><path d="M1524,82.23l2.25,7.83h.59l2.27-7.83h1.35l-3.74,13h-1.36l1.17-4h-1.33l-2.55-9Z" fill="#3a3d3f"/><path d="M1538,83.4v4.31c0,2,.12,2.52,1.29,2.52.51,0,1.61-.11,1.61-.11l.09,1.12a16.5,16.5,0,0,1-1.84.19c-1.86,0-2.49-.7-2.49-3.29V83.4h-1.27V82.23h1.27V79.48H1538v2.75h2.86V83.4Z" fill="#3a3d3f"/><path d="M1542.5,91.24V78.31h1.35v4.43a7.57,7.57,0,0,1,2.78-.69c2.46,0,3,1.23,3,4.43v4.76h-1.35V86.52c0-2.38-.27-3.26-1.93-3.26a7.41,7.41,0,0,0-2.54.54v7.44Z" fill="#3a3d3f"/><path d="M1558.81,90.06l0,1.07a31.12,31.12,0,0,1-3.51.29c-2.68,0-3.57-1.57-3.57-4.63,0-3.42,1.48-4.74,3.77-4.74s3.62,1.26,3.62,4.22l-.08,1h-5.94c0,1.93.6,2.94,2.36,2.94C1556.85,90.23,1558.81,90.06,1558.81,90.06Zm-1-3.85c0-2.23-.69-3-2.27-3s-2.4.84-2.42,3Z" fill="#3a3d3f"/><path d="M1571.2,83.55a29.33,29.33,0,0,0-3.15-.29c-1.12,0-2,.3-2,1.37,0,.84.44,1.08,2.34,1.4,2.26.38,3.1.83,3.1,2.58,0,2.1-1.33,2.81-3.49,2.81a25,25,0,0,1-3.17-.35l.07-1.17a29.5,29.5,0,0,0,3,.31c1.48,0,2.27-.33,2.27-1.55,0-.94-.47-1.17-2.43-1.48s-3-.7-3-2.5c0-2,1.61-2.63,3.24-2.63a23.19,23.19,0,0,1,3.26.34Z" fill="#3a3d3f"/><path d="M1574.09,82.23l2.25,7.83h.6l2.27-7.83h1.35l-3.75,13h-1.35l1.17-4h-1.33l-2.56-9Z" fill="#3a3d3f"/><path d="M1588.26,83.55a29.33,29.33,0,0,0-3.15-.29c-1.12,0-2,.3-2,1.37,0,.84.43,1.08,2.34,1.4,2.25.38,3.1.83,3.1,2.58,0,2.1-1.34,2.81-3.5,2.81a25,25,0,0,1-3.17-.35l.08-1.17a29.5,29.5,0,0,0,3,.31c1.47,0,2.26-.33,2.26-1.55,0-.94-.46-1.17-2.43-1.48s-3-.7-3-2.5c0-2,1.6-2.63,3.24-2.63a23.19,23.19,0,0,1,3.26.34Z" fill="#3a3d3f"/><path d="M1592.45,83.4v4.31c0,2,.13,2.52,1.3,2.52.5,0,1.6-.11,1.6-.11l.09,1.12a16.23,16.23,0,0,1-1.83.19c-1.86,0-2.49-.7-2.49-3.29V83.4h-1.28V82.23h1.28V79.48h1.33v2.75h2.87V83.4Z" fill="#3a3d3f"/><path d="M1603.62,90.06l0,1.07a31.12,31.12,0,0,1-3.51.29c-2.68,0-3.56-1.57-3.56-4.63,0-3.42,1.47-4.74,3.76-4.74s3.62,1.26,3.62,4.22l-.07,1h-6c0,1.93.6,2.94,2.36,2.94C1601.65,90.23,1603.62,90.06,1603.62,90.06Zm-1-3.85c0-2.23-.69-3-2.27-3s-2.4.84-2.41,3Z" fill="#3a3d3f"/><path d="M1606.06,91.24v-9h1.33v.63a6,6,0,0,1,2.63-.81,2.52,2.52,0,0,1,2.34.92,7.53,7.53,0,0,1,3.21-.92c2.45,0,3,1.17,3,4.43v4.76h-1.35V86.52c0-2.38-.27-3.26-1.89-3.26a6,6,0,0,0-2.54.67,10.15,10.15,0,0,1,.24,2.62v4.69h-1.35V86.59c0-2.48-.26-3.33-1.9-3.33a5.39,5.39,0,0,0-2.41.67v7.31Z" fill="#3a3d3f"/><path d="M1625.07,82.23h1.33v.65a6.12,6.12,0,0,1,2.7-.83c2.27,0,3.26,1.39,3.26,4.58,0,3.52-1.15,4.79-3.92,4.79a12,12,0,0,1-2-.2v4h-1.35Zm1.35,1.75v6.07a14.27,14.27,0,0,0,1.94.2c2,0,2.63-1,2.63-3.62s-.77-3.37-2.09-3.37A5.86,5.86,0,0,0,1626.42,84Z" fill="#3a3d3f"/><path d="M1641.2,90.06l0,1.07a31.4,31.4,0,0,1-3.52.29c-2.68,0-3.56-1.57-3.56-4.63,0-3.42,1.48-4.74,3.76-4.74s3.62,1.26,3.62,4.22l-.07,1h-5.94c0,1.93.59,2.94,2.36,2.94C1639.24,90.23,1641.2,90.06,1641.2,90.06Zm-1-3.85c0-2.23-.68-3-2.27-3s-2.39.84-2.41,3Z" fill="#3a3d3f"/><path d="M1643.65,82.23H1645v1.23a10.06,10.06,0,0,1,3.29-1.42V83.4a13.24,13.24,0,0,0-3.27,1.23v6.61h-1.35Z" fill="#3a3d3f"/><path d="M1651.6,91.24h-1.35V83.4h-1.13V82.23h1.13v-.81c0-2.59.67-3.29,2.43-3.29.61,0,1.82.12,1.82.12l0,1.12s-1,0-1.55,0c-1,0-1.33.44-1.33,2.11v.79h2.61V83.4h-2.61Z" fill="#3a3d3f"/><path d="M1663.14,86.63c0,3.27-.81,4.79-3.85,4.79s-3.85-1.52-3.85-4.79c0-3.1,1-4.58,3.85-4.58S1663.14,83.53,1663.14,86.63Zm-1.39,0c0-2.51-.54-3.41-2.46-3.41s-2.47.9-2.47,3.41.34,3.62,2.47,3.62S1661.75,89.18,1661.75,86.63Z" fill="#3a3d3f"/><path d="M1665.34,82.23h1.33v1.23A10.06,10.06,0,0,1,1670,82V83.4a13.24,13.24,0,0,0-3.27,1.23v6.61h-1.35Z" fill="#3a3d3f"/><path d="M1671.56,91.24v-9h1.34v.63a6,6,0,0,1,2.62-.81,2.52,2.52,0,0,1,2.34.92,7.53,7.53,0,0,1,3.21-.92c2.45,0,3,1.17,3,4.43v4.76h-1.35V86.52c0-2.38-.27-3.26-1.89-3.26a6,6,0,0,0-2.54.67,10.15,10.15,0,0,1,.24,2.62v4.69h-1.35V86.59c0-2.48-.26-3.33-1.89-3.33a5.4,5.4,0,0,0-2.42.67v7.31Z" fill="#3a3d3f"/><path d="M1693,89.56c0,.52.46.72,1,.79l0,1.07a2.76,2.76,0,0,1-2.15-.72,9.2,9.2,0,0,1-3.24.72c-1.64,0-2.54-.94-2.54-2.76s.9-2.48,2.76-2.66l2.83-.27V85c0-1.26-.54-1.71-1.62-1.71-1.27,0-3.41.23-3.41.23l0-1a21.6,21.6,0,0,1,3.53-.4c2,0,2.9.94,2.9,2.9ZM1689,87c-1.1.11-1.53.63-1.53,1.63s.45,1.65,1.37,1.65a9.57,9.57,0,0,0,2.83-.56v-3Z" fill="#3a3d3f"/><path d="M1695.63,91.24v-9H1697v.63a6.85,6.85,0,0,1,2.79-.81c2.49,0,3,1.23,3,4.43v4.76h-1.33V86.52c0-2.38-.27-3.26-1.94-3.26a6.12,6.12,0,0,0-2.54.67v7.31Z" fill="#3a3d3f"/><path d="M1711.11,82.32l0,1.1s-1.45-.16-2.13-.16c-2.07,0-2.63.9-2.63,3.31,0,2.67.42,3.64,2.65,3.64.68,0,2.12-.16,2.12-.16l.06,1.11a23.34,23.34,0,0,1-2.51.26c-2.86,0-3.7-1.32-3.7-4.85,0-3.26,1.06-4.52,3.74-4.52A20.89,20.89,0,0,1,1711.11,82.32Z" fill="#3a3d3f"/><path d="M1719.79,90.06l0,1.07a31.12,31.12,0,0,1-3.51.29c-2.68,0-3.56-1.57-3.56-4.63,0-3.42,1.47-4.74,3.76-4.74s3.62,1.26,3.62,4.22l-.07,1h-6c0,1.93.6,2.94,2.36,2.94C1717.82,90.23,1719.79,90.06,1719.79,90.06Zm-1-3.85c0-2.23-.69-3-2.27-3s-2.4.84-2.41,3Z" fill="#3a3d3f"/><path d="M1728,83.4v4.31c0,2,.13,2.52,1.3,2.52.5,0,1.6-.11,1.6-.11l.09,1.12a16.5,16.5,0,0,1-1.84.19c-1.85,0-2.48-.7-2.48-3.29V83.4h-1.28V82.23h1.28V79.48H1728v2.75h2.87V83.4Z" fill="#3a3d3f"/><path d="M1739.82,86.63c0,3.27-.81,4.79-3.85,4.79s-3.86-1.52-3.86-4.79c0-3.1,1-4.58,3.86-4.58S1739.82,83.53,1739.82,86.63Zm-1.39,0c0-2.51-.54-3.41-2.46-3.41s-2.47.9-2.47,3.41.34,3.62,2.47,3.62S1738.43,89.18,1738.43,86.63Z" fill="#3a3d3f"/><path d="M1746,91.24V78.31h1.35v4.43a7.57,7.57,0,0,1,2.78-.69c2.46,0,3,1.23,3,4.43v4.76h-1.35V86.52c0-2.38-.27-3.26-1.93-3.26a7.41,7.41,0,0,0-2.54.54v7.44Z" fill="#3a3d3f"/><path d="M1762.28,90.06l0,1.07a31.12,31.12,0,0,1-3.51.29c-2.68,0-3.57-1.57-3.57-4.63,0-3.42,1.48-4.74,3.77-4.74s3.62,1.26,3.62,4.22l-.08,1h-5.94c0,1.93.6,2.94,2.36,2.94C1760.32,90.23,1762.28,90.06,1762.28,90.06Zm-1-3.85c0-2.23-.68-3-2.26-3s-2.4.84-2.42,3Z" fill="#3a3d3f"/><path d="M1764.84,78.31h1.35V91.24h-1.35Z" fill="#3a3d3f"/><path d="M1768.89,82.23h1.33v.65a6.12,6.12,0,0,1,2.7-.83c2.27,0,3.26,1.39,3.26,4.58,0,3.52-1.15,4.79-3.93,4.79a12,12,0,0,1-2-.2v4h-1.35Zm1.35,1.75v6.07a14.27,14.27,0,0,0,1.94.2c2,0,2.63-1,2.63-3.62s-.77-3.37-2.09-3.37A5.86,5.86,0,0,0,1770.24,84Z" fill="#3a3d3f"/><path d="M1293.19,110.23v9h-1.35v-.63a6.07,6.07,0,0,1-2.66.81c-2.52,0-3-1.17-3-4.49v-4.7h1.35v4.68c0,2.49.22,3.3,1.89,3.3a5.42,5.42,0,0,0,2.47-.67v-7.31Z" fill="#3a3d3f"/><path d="M1301.76,111.55a29.33,29.33,0,0,0-3.15-.29c-1.12,0-2,.3-2,1.37,0,.84.43,1.08,2.34,1.4,2.25.38,3.09.83,3.09,2.58,0,2.1-1.33,2.81-3.49,2.81a25,25,0,0,1-3.17-.35l.07-1.17a29.86,29.86,0,0,0,3,.31c1.48,0,2.27-.33,2.27-1.55,0-.94-.47-1.17-2.43-1.48s-3-.7-3-2.5c0-2,1.6-2.63,3.24-2.63a23.19,23.19,0,0,1,3.26.34Z" fill="#3a3d3f"/><path d="M1313.93,110.32l-.06,1.1s-1.44-.16-2.12-.16c-2.07,0-2.63.9-2.63,3.31,0,2.67.41,3.64,2.65,3.64.68,0,2.12-.16,2.12-.16l0,1.11a23.06,23.06,0,0,1-2.5.26c-2.86,0-3.71-1.32-3.71-4.85,0-3.26,1.07-4.52,3.75-4.52A20.89,20.89,0,0,1,1313.93,110.32Z" fill="#3a3d3f"/><path d="M1323.27,114.63c0,3.27-.81,4.79-3.85,4.79s-3.86-1.52-3.86-4.79c0-3.1,1-4.58,3.86-4.58S1323.27,111.53,1323.27,114.63Zm-1.39,0c0-2.51-.54-3.41-2.46-3.41s-2.47.9-2.47,3.41.34,3.62,2.47,3.62S1321.88,117.18,1321.88,114.63Z" fill="#3a3d3f"/><path d="M1325.46,119.24v-9h1.34v.63a6.79,6.79,0,0,1,2.79-.81c2.48,0,3,1.23,3,4.43v4.76h-1.33v-4.72c0-2.38-.27-3.26-2-3.26a6.18,6.18,0,0,0-2.54.67v7.31Z" fill="#3a3d3f"/><path d="M1336.86,119.24h-1.35V111.4h-1.14v-1.17h1.14v-.81c0-2.59.66-3.29,2.43-3.29.61,0,1.82.12,1.82.12l0,1.12s-1,0-1.55,0c-1,0-1.33.44-1.33,2.11v.79h2.61v1.17h-2.61Z" fill="#3a3d3f"/><path d="M1341.09,110.23h1.33v1.23a10.18,10.18,0,0,1,3.29-1.42v1.36a13.24,13.24,0,0,0-3.27,1.23v6.61h-1.35Z" fill="#3a3d3f"/><path d="M1354.62,114.63c0,3.27-.81,4.79-3.85,4.79s-3.85-1.52-3.85-4.79c0-3.1,1-4.58,3.85-4.58S1354.62,111.53,1354.62,114.63Zm-1.38,0c0-2.51-.54-3.41-2.47-3.41s-2.46.9-2.46,3.41.34,3.62,2.46,3.62S1353.24,117.18,1353.24,114.63Z" fill="#3a3d3f"/><path d="M1356.82,119.24v-9h1.33v.63a6.85,6.85,0,0,1,2.79-.81c2.49,0,3,1.23,3,4.43v4.76h-1.33v-4.72c0-2.38-.27-3.26-1.94-3.26a6.12,6.12,0,0,0-2.54.67v7.31Z" fill="#3a3d3f"/><path d="M1368.28,111.4v4.31c0,2,.13,2.52,1.3,2.52.51,0,1.6-.11,1.6-.11l.09,1.12a16.23,16.23,0,0,1-1.83.19c-1.86,0-2.49-.7-2.49-3.29V111.4h-1.28v-1.17H1367v-2.75h1.33v2.75h2.87v1.17Z" fill="#3a3d3f"/><path d="M1378.56,111.4v4.31c0,2,.13,2.52,1.3,2.52.5,0,1.6-.11,1.6-.11l.09,1.12a16.23,16.23,0,0,1-1.83.19c-1.86,0-2.49-.7-2.49-3.29V111.4H1376v-1.17h1.28v-2.75h1.33v2.75h2.87v1.17Z" fill="#3a3d3f"/><path d="M1383.08,119.24V106.31h1.35v4.43a7.55,7.55,0,0,1,2.77-.69c2.47,0,3,1.23,3,4.43v4.76h-1.35v-4.72c0-2.38-.27-3.26-1.93-3.26a7.41,7.41,0,0,0-2.54.54v7.44Z" fill="#3a3d3f"/><path d="M1399.39,118.06l0,1.07a31.38,31.38,0,0,1-3.51.29c-2.69,0-3.57-1.57-3.57-4.63,0-3.42,1.48-4.74,3.76-4.74s3.62,1.26,3.62,4.22l-.07,1h-5.94c0,1.93.59,2.94,2.36,2.94C1397.43,118.23,1399.39,118.06,1399.39,118.06Zm-1-3.85c0-2.23-.68-3-2.27-3s-2.39.84-2.41,3Z" fill="#3a3d3f"/><path d="M1405.8,110.23h1.33v.65a6.12,6.12,0,0,1,2.7-.83c2.27,0,3.26,1.39,3.26,4.58,0,3.52-1.15,4.79-3.93,4.79a12,12,0,0,1-2-.2v4h-1.35Zm1.35,1.75v6.07a14.27,14.27,0,0,0,1.94.2c2,0,2.63-1,2.63-3.62s-.77-3.37-2.09-3.37A5.86,5.86,0,0,0,1407.15,112Z" fill="#3a3d3f"/><path d="M1422.59,114.63c0,3.27-.81,4.79-3.85,4.79s-3.85-1.52-3.85-4.79c0-3.1,1-4.58,3.85-4.58S1422.59,111.53,1422.59,114.63Zm-1.38,0c0-2.51-.54-3.41-2.47-3.41s-2.47.9-2.47,3.41.35,3.62,2.47,3.62S1421.21,117.18,1421.21,114.63Z" fill="#3a3d3f"/><path d="M1426.59,111.4v4.31c0,2,.12,2.52,1.29,2.52.51,0,1.61-.11,1.61-.11l.09,1.12a16.5,16.5,0,0,1-1.84.19c-1.85,0-2.48-.7-2.48-3.29V111.4H1424v-1.17h1.28v-2.75h1.33v2.75h2.86v1.17Z" fill="#3a3d3f"/><path d="M1437.75,118.06l0,1.07a31.4,31.4,0,0,1-3.52.29c-2.68,0-3.56-1.57-3.56-4.63,0-3.42,1.48-4.74,3.76-4.74s3.62,1.26,3.62,4.22l-.07,1h-5.94c0,1.93.59,2.94,2.36,2.94C1435.79,118.23,1437.75,118.06,1437.75,118.06Zm-1-3.85c0-2.23-.68-3-2.27-3s-2.39.84-2.41,3Z" fill="#3a3d3f"/><path d="M1440.19,119.24v-9h1.34v.63a6.85,6.85,0,0,1,2.79-.81c2.48,0,3,1.23,3,4.43v4.76H1446v-4.72c0-2.38-.27-3.26-2-3.26a6.11,6.11,0,0,0-2.53.67v7.31Z" fill="#3a3d3f"/><path d="M1451.66,111.4v4.31c0,2,.13,2.52,1.3,2.52.5,0,1.6-.11,1.6-.11l.09,1.12a16.5,16.5,0,0,1-1.84.19c-1.85,0-2.48-.7-2.48-3.29V111.4h-1.28v-1.17h1.28v-2.75h1.33v2.75h2.86v1.17Z" fill="#3a3d3f"/><path d="M1456.18,106.63h1.35v1.57h-1.35Zm0,3.6h1.35v9h-1.35Z" fill="#3a3d3f"/><path d="M1466.48,117.56c0,.52.47.72,1,.79l0,1.07a2.74,2.74,0,0,1-2.14-.72,9.22,9.22,0,0,1-3.25.72c-1.63,0-2.53-.94-2.53-2.76s.9-2.48,2.75-2.66l2.83-.27V113c0-1.26-.54-1.71-1.62-1.71-1.26,0-3.41.23-3.41.23l0-1a21.6,21.6,0,0,1,3.53-.4c2,0,2.9.94,2.9,2.9Zm-4-2.56c-1.1.11-1.53.63-1.53,1.63s.45,1.65,1.37,1.65a9.57,9.57,0,0,0,2.83-.56v-3Z" fill="#3a3d3f"/><path d="M1469.25,106.31h1.35v12.93h-1.35Z" fill="#3a3d3f"/><path d="M1484.17,119.24h-1.33v-.62a6.44,6.44,0,0,1-2.74.8c-1.76,0-3.24-.72-3.24-4.61,0-3.17,1-4.76,3.76-4.76a14.13,14.13,0,0,1,2.22.24v-4h1.33Zm-1.33-1.7v-6.1a14.27,14.27,0,0,0-2.14-.22c-1.89,0-2.45,1.24-2.45,3.59,0,2.91,1,3.4,2,3.4A6.53,6.53,0,0,0,1482.84,117.54Z" fill="#3a3d3f"/><path d="M1493.42,118.06l0,1.07a31.12,31.12,0,0,1-3.51.29c-2.68,0-3.57-1.57-3.57-4.63,0-3.42,1.48-4.74,3.77-4.74s3.62,1.26,3.62,4.22l-.08,1h-5.94c0,1.93.6,2.94,2.36,2.94C1491.46,118.23,1493.42,118.06,1493.42,118.06Zm-1-3.85c0-2.23-.68-3-2.26-3s-2.4.84-2.42,3Z" fill="#3a3d3f"/><path d="M1496,106.31h1.35v12.93H1496Z" fill="#3a3d3f"/><path d="M1506.38,117.56c0,.52.47.72,1,.79l-.06,1.07a2.75,2.75,0,0,1-2.14-.72,9.2,9.2,0,0,1-3.24.72c-1.64,0-2.54-.94-2.54-2.76s.9-2.48,2.76-2.66l2.82-.27V113c0-1.26-.54-1.71-1.62-1.71-1.26,0-3.4.23-3.4.23l0-1a21.57,21.57,0,0,1,3.52-.4c2,0,2.9.94,2.9,2.9Zm-4-2.56c-1.1.11-1.53.63-1.53,1.63s.45,1.65,1.37,1.65a9.47,9.47,0,0,0,2.82-.56v-3Z" fill="#3a3d3f"/><path d="M1509.55,110.23l2.25,7.83h.59l2.27-7.83H1516l-3.74,13h-1.35l1.17-4h-1.33l-2.56-9Z" fill="#3a3d3f"/><path d="M1523.72,111.55a29.33,29.33,0,0,0-3.15-.29c-1.12,0-2,.3-2,1.37,0,.84.43,1.08,2.34,1.4,2.25.38,3.1.83,3.1,2.58,0,2.1-1.33,2.81-3.49,2.81a25,25,0,0,1-3.17-.35l.07-1.17a29.5,29.5,0,0,0,3,.31c1.48,0,2.27-.33,2.27-1.55,0-.94-.47-1.17-2.43-1.48s-3-.7-3-2.5c0-2,1.61-2.63,3.24-2.63a23.19,23.19,0,0,1,3.26.34Z" fill="#3a3d3f"/><path d="M1526,117.18h1.47v2.06H1526Z" fill="#3a3d3f"/><path d="M1536.51,106.78h3l3.42,12.46h-1.37l-.9-3.21h-5.33l-.9,3.21h-1.37Zm-.84,8h4.71l-1.89-6.83h-.93Z" fill="#3a3d3f"/><path d="M1544.79,106.31h1.35v12.93h-1.35Z" fill="#3a3d3f"/><path d="M1550.64,111.4v4.31c0,2,.13,2.52,1.3,2.52.5,0,1.6-.11,1.6-.11l.09,1.12a16.21,16.21,0,0,1-1.84.19c-1.85,0-2.48-.7-2.48-3.29V111.4H1548v-1.17h1.28v-2.75h1.33v2.75h2.87v1.17Z" fill="#3a3d3f"/><path d="M1555.16,119.24V106.31h1.35v4.43a7.55,7.55,0,0,1,2.77-.69c2.47,0,3,1.23,3,4.43v4.76H1561v-4.72c0-2.38-.27-3.26-1.93-3.26a7.41,7.41,0,0,0-2.54.54v7.44Z" fill="#3a3d3f"/><path d="M1572.14,114.63c0,3.27-.81,4.79-3.86,4.79s-3.85-1.52-3.85-4.79c0-3.1,1-4.58,3.85-4.58S1572.14,111.53,1572.14,114.63Zm-1.39,0c0-2.51-.54-3.41-2.47-3.41s-2.46.9-2.46,3.41.34,3.62,2.46,3.62S1570.75,117.18,1570.75,114.63Z" fill="#3a3d3f"/><path d="M1581.3,110.23v9H1580v-.63a6.08,6.08,0,0,1-2.67.81c-2.52,0-3-1.17-3-4.49v-4.7h1.35v4.68c0,2.49.22,3.3,1.89,3.3a5.47,5.47,0,0,0,2.47-.67v-7.31Z" fill="#3a3d3f"/><path d="M1583.49,120.75c0-1,.49-1.53,1.42-2.23a1.49,1.49,0,0,1-.5-1.25,5.82,5.82,0,0,1,.61-1.42c-.75-.34-1.42-1.06-1.42-2.72,0-2.21,1.37-3.08,3.37-3.08a9.07,9.07,0,0,1,1.87.24l2.66-.08v1.16l-1.71,0a2.31,2.31,0,0,1,.6,1.8c0,2.34-1.17,3-3.48,3a6.79,6.79,0,0,1-.88-.07,5.32,5.32,0,0,0-.32,1c0,.72.14.83,2.18.83,2.55,0,3.47.5,3.47,2.64s-1.46,2.87-4,2.87C1584.52,123.47,1583.49,122.84,1583.49,120.75Zm2.34-1.7c-.75.56-1,.89-1,1.59,0,1.24.53,1.69,2.56,1.69,1.8,0,2.61-.48,2.61-1.67,0-1.37-.57-1.51-2.21-1.51C1587.15,119.15,1585.83,119.05,1585.83,119.05Zm3.21-5.92c0-1.42-.56-2-2.07-2s-2,.56-2,2,.61,2,2,2S1589,114.55,1589,113.13Z" fill="#3a3d3f"/><path d="M1593.14,119.24V106.31h1.35v4.43a7.55,7.55,0,0,1,2.77-.69c2.47,0,3,1.23,3,4.43v4.76H1599v-4.72c0-2.38-.27-3.26-1.93-3.26a7.41,7.41,0,0,0-2.54.54v7.44Z" fill="#3a3d3f"/><path d="M1606.77,106.63h1.35v1.57h-1.35Zm0,3.6h1.35v9h-1.35Z" fill="#3a3d3f"/><path d="M1612.51,111.4v4.31c0,2,.12,2.52,1.3,2.52.5,0,1.6-.11,1.6-.11l.09,1.12a16.5,16.5,0,0,1-1.84.19c-1.85,0-2.48-.7-2.48-3.29V111.4h-1.28v-1.17h1.28v-2.75h1.33v2.75h2.86v1.17Z" fill="#3a3d3f"/><path d="M1621,106.63h1.35v1.57H1621Zm0,3.6h1.35v9H1621Z" fill="#3a3d3f"/><path d="M1630.91,111.55a29.33,29.33,0,0,0-3.15-.29c-1.12,0-2,.3-2,1.37,0,.84.44,1.08,2.34,1.4,2.25.38,3.1.83,3.1,2.58,0,2.1-1.33,2.81-3.49,2.81a25,25,0,0,1-3.17-.35l.07-1.17a29.5,29.5,0,0,0,3,.31c1.48,0,2.27-.33,2.27-1.55,0-.94-.47-1.17-2.43-1.48s-3-.7-3-2.5c0-2,1.61-2.63,3.24-2.63a23.19,23.19,0,0,1,3.26.34Z" fill="#3a3d3f"/><path d="M1637.26,110.23h1.33v.65a6.12,6.12,0,0,1,2.7-.83c2.27,0,3.26,1.39,3.26,4.58,0,3.52-1.15,4.79-3.92,4.79a12,12,0,0,1-2-.2v4h-1.35Zm1.35,1.75v6.07a14.27,14.27,0,0,0,1.94.2c2,0,2.63-1,2.63-3.62s-.77-3.37-2.09-3.37A5.86,5.86,0,0,0,1638.61,112Z" fill="#3a3d3f"/><path d="M1646.75,110.23h1.33v1.23a10.06,10.06,0,0,1,3.29-1.42v1.36a13.24,13.24,0,0,0-3.27,1.23v6.61h-1.35Z" fill="#3a3d3f"/><path d="M1659.62,118.06l0,1.07a31.12,31.12,0,0,1-3.51.29c-2.68,0-3.56-1.57-3.56-4.63,0-3.42,1.47-4.74,3.76-4.74s3.62,1.26,3.62,4.22l-.07,1h-6c0,1.93.6,2.94,2.36,2.94C1657.65,118.23,1659.62,118.06,1659.62,118.06Zm-1-3.85c0-2.23-.69-3-2.27-3s-2.4.84-2.41,3Z" fill="#3a3d3f"/><path d="M1669,119.24h-1.34v-.62a6.37,6.37,0,0,1-2.73.8c-1.77,0-3.24-.72-3.24-4.61,0-3.17,1-4.76,3.76-4.76a14.12,14.12,0,0,1,2.21.24v-4H1669Zm-1.34-1.7v-6.1a14.12,14.12,0,0,0-2.14-.22c-1.89,0-2.45,1.24-2.45,3.59,0,2.91,1,3.4,2,3.4A6.47,6.47,0,0,0,1667.64,117.54Z" fill="#3a3d3f"/><path d="M1671.58,106.63h1.35v1.57h-1.35Zm0,3.6h1.35v9h-1.35Z" fill="#3a3d3f"/><path d="M1681.34,110.32l0,1.1s-1.44-.16-2.13-.16c-2.07,0-2.63.9-2.63,3.31,0,2.67.42,3.64,2.65,3.64.69,0,2.13-.16,2.13-.16l0,1.11a23.06,23.06,0,0,1-2.5.26c-2.87,0-3.71-1.32-3.71-4.85,0-3.26,1.06-4.52,3.74-4.52A20.89,20.89,0,0,1,1681.34,110.32Z" fill="#3a3d3f"/><path d="M1685.17,111.4v4.31c0,2,.13,2.52,1.3,2.52.51,0,1.6-.11,1.6-.11l.09,1.12a16.23,16.23,0,0,1-1.83.19c-1.86,0-2.49-.7-2.49-3.29V111.4h-1.28v-1.17h1.28v-2.75h1.33v2.75H1688v1.17Z" fill="#3a3d3f"/><path d="M1696.34,118.06l0,1.07a31.12,31.12,0,0,1-3.51.29c-2.68,0-3.56-1.57-3.56-4.63,0-3.42,1.47-4.74,3.76-4.74s3.62,1.26,3.62,4.22l-.07,1h-5.95c0,1.93.6,2.94,2.36,2.94C1694.37,118.23,1696.34,118.06,1696.34,118.06Zm-1-3.85c0-2.23-.69-3-2.27-3s-2.4.84-2.41,3Z" fill="#3a3d3f"/><path d="M1705.7,119.24h-1.34v-.62a6.37,6.37,0,0,1-2.73.8c-1.77,0-3.24-.72-3.24-4.61,0-3.17,1-4.76,3.76-4.76a14.12,14.12,0,0,1,2.21.24v-4h1.34Zm-1.34-1.7v-6.1a14.12,14.12,0,0,0-2.14-.22c-1.89,0-2.45,1.24-2.45,3.59,0,2.91,1,3.4,2,3.4A6.47,6.47,0,0,0,1704.36,117.54Z" fill="#3a3d3f"/><path d="M1714.06,111.4v4.31c0,2,.13,2.52,1.3,2.52.5,0,1.6-.11,1.6-.11l.09,1.12a16.23,16.23,0,0,1-1.83.19c-1.86,0-2.49-.7-2.49-3.29V111.4h-1.28v-1.17h1.28v-2.75h1.33v2.75h2.87v1.17Z" fill="#3a3d3f"/><path d="M1725.89,114.63c0,3.27-.81,4.79-3.85,4.79s-3.85-1.52-3.85-4.79c0-3.1,1-4.58,3.85-4.58S1725.89,111.53,1725.89,114.63Zm-1.38,0c0-2.51-.54-3.41-2.47-3.41s-2.47.9-2.47,3.41.34,3.62,2.47,3.62S1724.51,117.18,1724.51,114.63Z" fill="#3a3d3f"/><path d="M1739.3,114.59c0,3.58-1,4.83-4.25,4.83-1.08,0-3-.2-3-.2V106.31h1.33v4.37a7.43,7.43,0,0,1,2.64-.63C1738.47,110.05,1739.3,111.35,1739.3,114.59Zm-1.37,0c0-2.32-.46-3.33-2-3.33a7.57,7.57,0,0,0-2.5.52v6.34s1.17.09,1.65.09C1737.5,118.21,1737.93,117.11,1737.93,114.59Z" fill="#3a3d3f"/><path d="M1748.16,118.06l0,1.07a31.12,31.12,0,0,1-3.51.29c-2.68,0-3.56-1.57-3.56-4.63,0-3.42,1.47-4.74,3.76-4.74s3.62,1.26,3.62,4.22l-.07,1h-5.94c0,1.93.59,2.94,2.35,2.94C1746.19,118.23,1748.16,118.06,1748.16,118.06Zm-1-3.85c0-2.23-.68-3-2.27-3s-2.39.84-2.41,3Z" fill="#3a3d3f"/><path d="M1286.22,147.24V134.31h1.35v4.43a7.57,7.57,0,0,1,2.78-.69c2.46,0,3,1.23,3,4.43v4.76H1292v-4.72c0-2.38-.27-3.26-1.93-3.26a7.41,7.41,0,0,0-2.54.54v7.44Z" fill="#3a3d3f"/><path d="M1295.89,134.63h1.35v1.57h-1.35Zm0,3.6h1.35v9h-1.35Z" fill="#3a3d3f"/><path d="M1299.44,148.75c0-1.05.48-1.53,1.42-2.23a1.47,1.47,0,0,1-.51-1.25,5.78,5.78,0,0,1,.62-1.42c-.76-.34-1.43-1.06-1.43-2.72,0-2.21,1.37-3.08,3.37-3.08a9.07,9.07,0,0,1,1.87.24l2.67-.08v1.16l-1.71,0a2.35,2.35,0,0,1,.59,1.8c0,2.34-1.17,3-3.47,3a6.94,6.94,0,0,1-.89-.07,5.32,5.32,0,0,0-.32,1c0,.72.14.83,2.18.83,2.56,0,3.47.5,3.47,2.64s-1.45,2.87-4,2.87C1300.46,151.47,1299.44,150.84,1299.44,148.75Zm2.34-1.7c-.76.56-1,.89-1,1.59,0,1.24.52,1.69,2.55,1.69,1.8,0,2.62-.48,2.62-1.67,0-1.37-.58-1.51-2.22-1.51C1303.09,147.15,1301.78,147.05,1301.78,147.05Zm3.2-5.92c0-1.42-.56-2-2.07-2s-2,.56-2,2,.62,2,2,2S1305,142.55,1305,141.13Z" fill="#3a3d3f"/><path d="M1309.08,147.24V134.31h1.35v4.43a7.57,7.57,0,0,1,2.78-.69c2.46,0,3,1.23,3,4.43v4.76h-1.35v-4.72c0-2.38-.27-3.26-1.93-3.26a7.41,7.41,0,0,0-2.54.54v7.44Z" fill="#3a3d3f"/><path d="M1318.86,134.31h1.35v12.93h-1.35Z" fill="#3a3d3f"/><path d="M1323.41,138.23l2.25,7.83h.6l2.26-7.83h1.36l-3.75,13h-1.35l1.17-4h-1.33l-2.56-9Z" fill="#3a3d3f"/><path d="M1342.53,138.23v9h-1.35v-.63a6.08,6.08,0,0,1-2.67.81c-2.52,0-3-1.17-3-4.49v-4.7h1.35v4.68c0,2.49.22,3.3,1.89,3.3a5.47,5.47,0,0,0,2.47-.67v-7.31Z" fill="#3a3d3f"/><path d="M1351.1,139.55a29.33,29.33,0,0,0-3.16-.29c-1.11,0-2,.3-2,1.37,0,.84.43,1.08,2.34,1.4,2.25.38,3.1.83,3.1,2.58,0,2.1-1.33,2.81-3.49,2.81a24.7,24.7,0,0,1-3.17-.35l.07-1.17a29.5,29.5,0,0,0,3,.31c1.48,0,2.27-.33,2.27-1.55,0-.94-.47-1.17-2.43-1.48s-3-.7-3-2.5c0-2,1.6-2.63,3.24-2.63a23.19,23.19,0,0,1,3.26.34Z" fill="#3a3d3f"/><path d="M1360.13,146.06l0,1.07a31.12,31.12,0,0,1-3.51.29c-2.69,0-3.57-1.57-3.57-4.63,0-3.42,1.48-4.74,3.77-4.74s3.61,1.26,3.61,4.22l-.07,1h-5.94c0,1.93.6,2.94,2.36,2.94C1358.17,146.23,1360.13,146.06,1360.13,146.06Zm-1-3.85c0-2.23-.68-3-2.26-3s-2.4.84-2.42,3Z" fill="#3a3d3f"/><path d="M1364.31,147.24H1363V139.4h-1.14v-1.17H1363v-.81c0-2.59.66-3.29,2.43-3.29.61,0,1.82.12,1.82.12l0,1.12s-1,0-1.55,0c-1,0-1.33.44-1.33,2.11v.79h2.61v1.17h-2.61Z" fill="#3a3d3f"/><path d="M1375.5,138.23v9h-1.35v-.63a6.07,6.07,0,0,1-2.66.81c-2.52,0-3-1.17-3-4.49v-4.7h1.35v4.68c0,2.49.21,3.3,1.89,3.3a5.4,5.4,0,0,0,2.46-.67v-7.31Z" fill="#3a3d3f"/><path d="M1378.2,134.31h1.35v12.93h-1.35Z" fill="#3a3d3f"/><path d="M1382.4,145.31h1.49l-1.21,4.14h-1.11Z" fill="#3a3d3f"/><path d="M1392,139.4v4.31c0,2,.12,2.52,1.29,2.52.51,0,1.61-.11,1.61-.11l.09,1.12a16.5,16.5,0,0,1-1.84.19c-1.86,0-2.49-.7-2.49-3.29V139.4h-1.27v-1.17h1.27v-2.75H1392v2.75h2.86v1.17Z" fill="#3a3d3f"/><path d="M1396.54,147.24V134.31h1.35v4.43a7.57,7.57,0,0,1,2.78-.69c2.46,0,3,1.23,3,4.43v4.76h-1.35v-4.72c0-2.38-.27-3.26-1.93-3.26a7.41,7.41,0,0,0-2.54.54v7.44Z" fill="#3a3d3f"/><path d="M1412.85,146.06l0,1.07a31.12,31.12,0,0,1-3.51.29c-2.68,0-3.57-1.57-3.57-4.63,0-3.42,1.48-4.74,3.77-4.74s3.62,1.26,3.62,4.22l-.08,1h-5.94c0,1.93.6,2.94,2.36,2.94C1410.89,146.23,1412.85,146.06,1412.85,146.06Zm-1-3.85c0-2.23-.69-3-2.27-3s-2.4.84-2.42,3Z" fill="#3a3d3f"/><path d="M1415.3,138.23h1.33v1.23a10.17,10.17,0,0,1,3.3-1.42v1.36a13.21,13.21,0,0,0-3.28,1.23v6.61h-1.35Z" fill="#3a3d3f"/><path d="M1428.17,146.06l0,1.07a31.38,31.38,0,0,1-3.51.29c-2.69,0-3.57-1.57-3.57-4.63,0-3.42,1.48-4.74,3.76-4.74s3.62,1.26,3.62,4.22l-.07,1h-5.94c0,1.93.59,2.94,2.36,2.94C1426.21,146.23,1428.17,146.06,1428.17,146.06Zm-1-3.85c0-2.23-.68-3-2.27-3s-2.39.84-2.41,3Z" fill="#3a3d3f"/><path d="M1434.58,134.63h1.35v1.57h-1.35Zm0,3.6h1.35v9h-1.35Z" fill="#3a3d3f"/><path d="M1444.5,139.55a29.33,29.33,0,0,0-3.15-.29c-1.12,0-2,.3-2,1.37,0,.84.44,1.08,2.34,1.4,2.25.38,3.1.83,3.1,2.58,0,2.1-1.33,2.81-3.49,2.81a25,25,0,0,1-3.17-.35l.07-1.17a29.5,29.5,0,0,0,3,.31c1.48,0,2.27-.33,2.27-1.55,0-.94-.47-1.17-2.43-1.48s-3-.7-3-2.5c0-2,1.61-2.63,3.24-2.63a23.19,23.19,0,0,1,3.26.34Z" fill="#3a3d3f"/><path d="M1456.83,139.55a29.33,29.33,0,0,0-3.15-.29c-1.12,0-2,.3-2,1.37,0,.84.44,1.08,2.34,1.4,2.25.38,3.1.83,3.1,2.58,0,2.1-1.33,2.81-3.49,2.81a25,25,0,0,1-3.17-.35l.07-1.17a29.5,29.5,0,0,0,3,.31c1.48,0,2.27-.33,2.27-1.55,0-.94-.47-1.17-2.43-1.48s-3-.7-3-2.5c0-2,1.61-2.63,3.24-2.63a23.19,23.19,0,0,1,3.26.34Z" fill="#3a3d3f"/><path d="M1461,139.4v4.31c0,2,.13,2.52,1.3,2.52.5,0,1.6-.11,1.6-.11l.09,1.12a16.5,16.5,0,0,1-1.84.19c-1.85,0-2.48-.7-2.48-3.29V139.4h-1.28v-1.17h1.28v-2.75H1461v2.75h2.86v1.17Z" fill="#3a3d3f"/><path d="M1465.54,134.63h1.35v1.57h-1.35Zm0,3.6h1.35v9h-1.35Z" fill="#3a3d3f"/><path d="M1469.59,134.31h1.35v12.93h-1.35Z" fill="#3a3d3f"/><path d="M1473.75,134.31h1.35v12.93h-1.35Z" fill="#3a3d3f"/><path d="M1483.56,139.4v4.31c0,2,.12,2.52,1.29,2.52.51,0,1.61-.11,1.61-.11l.09,1.12a16.5,16.5,0,0,1-1.84.19c-1.86,0-2.49-.7-2.49-3.29V139.4H1481v-1.17h1.27v-2.75h1.34v2.75h2.86v1.17Z" fill="#3a3d3f"/><path d="M1488.07,134.63h1.35v1.57h-1.35Zm0,3.6h1.35v9h-1.35Z" fill="#3a3d3f"/><path d="M1492,147.24v-9h1.33v.63a6,6,0,0,1,2.63-.81,2.54,2.54,0,0,1,2.34.92,7.46,7.46,0,0,1,3.2-.92c2.45,0,3,1.17,3,4.43v4.76h-1.35v-4.72c0-2.38-.27-3.26-1.89-3.26a5.89,5.89,0,0,0-2.54.67,10.25,10.25,0,0,1,.23,2.62v4.69h-1.35v-4.65c0-2.48-.25-3.33-1.89-3.33a5.34,5.34,0,0,0-2.41.67v7.31Z" fill="#3a3d3f"/><path d="M1513.71,146.06l0,1.07a31.12,31.12,0,0,1-3.51.29c-2.68,0-3.56-1.57-3.56-4.63,0-3.42,1.48-4.74,3.76-4.74s3.62,1.26,3.62,4.22l-.07,1H1508c0,1.93.59,2.94,2.36,2.94C1511.75,146.23,1513.71,146.06,1513.71,146.06Zm-1-3.85c0-2.23-.68-3-2.27-3s-2.39.84-2.41,3Z" fill="#3a3d3f"/><path d="M1521.91,139.4v4.31c0,2,.13,2.52,1.3,2.52.51,0,1.6-.11,1.6-.11l.09,1.12a16.23,16.23,0,0,1-1.83.19c-1.86,0-2.49-.7-2.49-3.29V139.4h-1.28v-1.17h1.28v-2.75h1.33v2.75h2.87v1.17Z" fill="#3a3d3f"/><path d="M1533.74,142.63c0,3.27-.81,4.79-3.85,4.79s-3.85-1.52-3.85-4.79c0-3.1,1-4.58,3.85-4.58S1533.74,139.53,1533.74,142.63Zm-1.38,0c0-2.51-.54-3.41-2.47-3.41s-2.47.9-2.47,3.41.35,3.62,2.47,3.62S1532.36,145.18,1532.36,142.63Z" fill="#3a3d3f"/><path d="M1546.86,138.23v9h-1.35v-.63a6.07,6.07,0,0,1-2.66.81c-2.52,0-3-1.17-3-4.49v-4.7h1.35v4.68c0,2.49.21,3.3,1.89,3.3a5.4,5.4,0,0,0,2.46-.67v-7.31Z" fill="#3a3d3f"/><path d="M1549.45,147.24v-9h1.34v.63a6.79,6.79,0,0,1,2.79-.81c2.48,0,3,1.23,3,4.43v4.76h-1.33v-4.72c0-2.38-.27-3.26-2-3.26a6.18,6.18,0,0,0-2.54.67v7.31Z" fill="#3a3d3f"/><path d="M1566,147.24h-1.33v-.62a6.37,6.37,0,0,1-2.73.8c-1.77,0-3.25-.72-3.25-4.61,0-3.17,1-4.76,3.77-4.76a14.12,14.12,0,0,1,2.21.24v-4H1566Zm-1.33-1.7v-6.1a14.27,14.27,0,0,0-2.14-.22c-1.89,0-2.45,1.24-2.45,3.59,0,2.91,1,3.4,2,3.4A6.47,6.47,0,0,0,1564.7,145.54Z" fill="#3a3d3f"/><path d="M1575.29,146.06l0,1.07a31.12,31.12,0,0,1-3.51.29c-2.68,0-3.56-1.57-3.56-4.63,0-3.42,1.47-4.74,3.76-4.74s3.62,1.26,3.62,4.22l-.07,1h-6c0,1.93.6,2.94,2.36,2.94C1573.32,146.23,1575.29,146.06,1575.29,146.06Zm-1-3.85c0-2.23-.69-3-2.27-3s-2.4.84-2.41,3Z" fill="#3a3d3f"/><path d="M1577.73,138.23h1.33v1.23a10.17,10.17,0,0,1,3.3-1.42v1.36a13.41,13.41,0,0,0-3.28,1.23v6.61h-1.35Z" fill="#3a3d3f"/><path d="M1589.94,139.55a29.33,29.33,0,0,0-3.15-.29c-1.12,0-2,.3-2,1.37,0,.84.44,1.08,2.34,1.4,2.25.38,3.1.83,3.1,2.58,0,2.1-1.33,2.81-3.49,2.81a25,25,0,0,1-3.17-.35l.07-1.17a29.5,29.5,0,0,0,3,.31c1.48,0,2.27-.33,2.27-1.55,0-.94-.47-1.17-2.43-1.48s-3-.7-3-2.5c0-2,1.61-2.63,3.24-2.63a23.19,23.19,0,0,1,3.26.34Z" fill="#3a3d3f"/><path d="M1594.13,139.4v4.31c0,2,.13,2.52,1.3,2.52.5,0,1.6-.11,1.6-.11l.09,1.12a16.5,16.5,0,0,1-1.84.19c-1.85,0-2.48-.7-2.48-3.29V139.4h-1.28v-1.17h1.28v-2.75h1.33v2.75H1597v1.17Z" fill="#3a3d3f"/><path d="M1605,145.56c0,.52.47.72,1,.79l-.06,1.07a2.75,2.75,0,0,1-2.14-.72,9.2,9.2,0,0,1-3.24.72c-1.64,0-2.54-.94-2.54-2.76s.9-2.48,2.76-2.66l2.82-.27V141c0-1.26-.54-1.71-1.62-1.71-1.26,0-3.4.23-3.4.23l-.05-1a21.6,21.6,0,0,1,3.53-.4c2,0,2.89.94,2.89,2.9Zm-4-2.56c-1.1.11-1.53.63-1.53,1.63s.45,1.65,1.37,1.65a9.47,9.47,0,0,0,2.82-.56v-3Z" fill="#3a3d3f"/><path d="M1607.67,147.24v-9H1609v.63a6.85,6.85,0,0,1,2.79-.81c2.48,0,3,1.23,3,4.43v4.76h-1.33v-4.72c0-2.38-.27-3.26-2-3.26a6.11,6.11,0,0,0-2.53.67v7.31Z" fill="#3a3d3f"/><path d="M1624.25,147.24h-1.34v-.62a6.37,6.37,0,0,1-2.73.8c-1.77,0-3.24-.72-3.24-4.61,0-3.17,1-4.76,3.76-4.76a14.12,14.12,0,0,1,2.21.24v-4h1.34Zm-1.34-1.7v-6.1a14.27,14.27,0,0,0-2.14-.22c-1.89,0-2.45,1.24-2.45,3.59,0,2.91,1,3.4,2,3.4A6.47,6.47,0,0,0,1622.91,145.54Z" fill="#3a3d3f"/><path d="M1631.42,138.23l1.82,7.83h.29l2.14-7.65h1.41l2.14,7.65h.31l1.8-7.83h1.35l-2.14,9h-2.26l-1.9-7-1.91,7h-2.25l-2.15-9Z" fill="#3a3d3f"/><path d="M1644.53,147.24V134.31h1.35v4.43a7.55,7.55,0,0,1,2.77-.69c2.47,0,3,1.23,3,4.43v4.76h-1.35v-4.72c0-2.38-.27-3.26-1.92-3.26a7.41,7.41,0,0,0-2.54.54v7.44Z" fill="#3a3d3f"/><path d="M1660.84,146.06l0,1.07a31.12,31.12,0,0,1-3.51.29c-2.68,0-3.56-1.57-3.56-4.63,0-3.42,1.47-4.74,3.76-4.74s3.62,1.26,3.62,4.22l-.07,1h-5.94c0,1.93.59,2.94,2.35,2.94C1658.88,146.23,1660.84,146.06,1660.84,146.06Zm-1-3.85c0-2.23-.68-3-2.27-3s-2.39.84-2.41,3Z" fill="#3a3d3f"/><path d="M1665.08,139.4v4.31c0,2,.13,2.52,1.3,2.52.51,0,1.6-.11,1.6-.11l.09,1.12a16.23,16.23,0,0,1-1.83.19c-1.86,0-2.49-.7-2.49-3.29V139.4h-1.28v-1.17h1.28v-2.75h1.33v2.75H1668v1.17Z" fill="#3a3d3f"/><path d="M1669.6,147.24V134.31H1671v4.43a7.57,7.57,0,0,1,2.78-.69c2.46,0,3,1.23,3,4.43v4.76h-1.35v-4.72c0-2.38-.27-3.26-1.93-3.26a7.41,7.41,0,0,0-2.54.54v7.44Z" fill="#3a3d3f"/><path d="M1685.91,146.06l0,1.07a31.12,31.12,0,0,1-3.51.29c-2.69,0-3.57-1.57-3.57-4.63,0-3.42,1.48-4.74,3.77-4.74s3.61,1.26,3.61,4.22l-.07,1h-5.94c0,1.93.6,2.94,2.36,2.94C1684,146.23,1685.91,146.06,1685.91,146.06Zm-1-3.85c0-2.23-.68-3-2.26-3s-2.4.84-2.42,3Z" fill="#3a3d3f"/><path d="M1688.36,138.23h1.33v1.23A10.17,10.17,0,0,1,1693,138v1.36a13.21,13.21,0,0,0-3.28,1.23v6.61h-1.35Z" fill="#3a3d3f"/><path d="M1699.16,138.23l1.82,7.83h.29l2.14-7.65h1.4l2.14,7.65h.31l1.8-7.83h1.35l-2.14,9H1706l-1.91-7-1.91,7H1700l-2.14-9Z" fill="#3a3d3f"/><path d="M1718.91,146.06l0,1.07a31.12,31.12,0,0,1-3.51.29c-2.68,0-3.56-1.57-3.56-4.63,0-3.42,1.47-4.74,3.76-4.74s3.62,1.26,3.62,4.22l-.07,1h-6c0,1.93.6,2.94,2.36,2.94C1716.94,146.23,1718.91,146.06,1718.91,146.06Zm-1-3.85c0-2.23-.69-3-2.27-3s-2.4.84-2.41,3Z" fill="#3a3d3f"/><path d="M1725.31,147.24V134.31h1.35v4.43a7.57,7.57,0,0,1,2.78-.69c2.46,0,3,1.23,3,4.43v4.76h-1.35v-4.72c0-2.38-.27-3.26-1.93-3.26a7.41,7.41,0,0,0-2.54.54v7.44Z" fill="#3a3d3f"/><path d="M1741.33,145.56c0,.52.47.72,1.05.79l-.06,1.07a2.75,2.75,0,0,1-2.14-.72,9.2,9.2,0,0,1-3.24.72c-1.64,0-2.54-.94-2.54-2.76s.9-2.48,2.76-2.66l2.82-.27V141c0-1.26-.54-1.71-1.62-1.71-1.26,0-3.4.23-3.4.23l0-1a21.6,21.6,0,0,1,3.53-.4c2,0,2.89.94,2.89,2.9Zm-4-2.56c-1.1.11-1.53.63-1.53,1.63s.45,1.65,1.37,1.65a9.47,9.47,0,0,0,2.82-.56v-3Z" fill="#3a3d3f"/><path d="M1744.59,138.23l2.11,7.83h.66l2.18-7.83h1.39l-2.54,9h-2.7l-2.54-9Z" fill="#3a3d3f"/><path d="M1759.3,146.06l0,1.07a31.12,31.12,0,0,1-3.51.29c-2.68,0-3.56-1.57-3.56-4.63,0-3.42,1.47-4.74,3.76-4.74s3.62,1.26,3.62,4.22l-.07,1h-5.94c0,1.93.59,2.94,2.35,2.94C1757.33,146.23,1759.3,146.06,1759.3,146.06Zm-1-3.85c0-2.23-.68-3-2.27-3s-2.39.84-2.41,3Z" fill="#3a3d3f"/><path d="M1767.5,139.4v4.31c0,2,.13,2.52,1.3,2.52.5,0,1.6-.11,1.6-.11l.09,1.12a16.23,16.23,0,0,1-1.83.19c-1.86,0-2.49-.7-2.49-3.29V139.4h-1.28v-1.17h1.28v-2.75h1.33v2.75h2.87v1.17Z" fill="#3a3d3f"/><path d="M1779.33,142.63c0,3.27-.81,4.79-3.85,4.79s-3.85-1.52-3.85-4.79c0-3.1,1-4.58,3.85-4.58S1779.33,139.53,1779.33,142.63Zm-1.39,0c0-2.51-.54-3.41-2.46-3.41s-2.47.9-2.47,3.41.34,3.62,2.47,3.62S1777.94,145.18,1777.94,142.63Z" fill="#3a3d3f"/><path d="M1292.2,167.55a29.33,29.33,0,0,0-3.15-.29c-1.12,0-2,.3-2,1.37,0,.84.43,1.08,2.34,1.4,2.25.38,3.1.83,3.1,2.58,0,2.1-1.34,2.81-3.5,2.81a25,25,0,0,1-3.17-.35l.08-1.17a29.5,29.5,0,0,0,3,.31c1.47,0,2.27-.33,2.27-1.55,0-.94-.47-1.17-2.44-1.48s-3-.7-3-2.5c0-2,1.6-2.63,3.24-2.63a23.19,23.19,0,0,1,3.26.34Z" fill="#3a3d3f"/><path d="M1301.24,174.06l0,1.07a31.12,31.12,0,0,1-3.51.29c-2.68,0-3.56-1.57-3.56-4.63,0-3.42,1.47-4.74,3.76-4.74s3.62,1.26,3.62,4.22l-.07,1h-5.94c0,1.93.59,2.94,2.35,2.94C1299.27,174.23,1301.24,174.06,1301.24,174.06Zm-1-3.85c0-2.23-.68-3-2.27-3s-2.39.84-2.41,3Z" fill="#3a3d3f"/><path d="M1303.79,162.31h1.35v12.93h-1.35Z" fill="#3a3d3f"/><path d="M1314.49,174.06l0,1.07a31.12,31.12,0,0,1-3.51.29c-2.68,0-3.56-1.57-3.56-4.63,0-3.42,1.47-4.74,3.76-4.74s3.62,1.26,3.62,4.22l-.07,1h-6c0,1.93.6,2.94,2.36,2.94C1312.52,174.23,1314.49,174.06,1314.49,174.06Zm-1-3.85c0-2.23-.69-3-2.27-3s-2.4.84-2.41,3Z" fill="#3a3d3f"/><path d="M1322.75,166.32l-.06,1.1s-1.44-.16-2.12-.16c-2.07,0-2.63.9-2.63,3.31,0,2.67.41,3.64,2.65,3.64.68,0,2.12-.16,2.12-.16l.06,1.11a23.34,23.34,0,0,1-2.51.26c-2.86,0-3.71-1.32-3.71-4.85,0-3.26,1.07-4.52,3.75-4.52A20.89,20.89,0,0,1,1322.75,166.32Z" fill="#3a3d3f"/><path d="M1326.58,167.4v4.31c0,2,.13,2.52,1.3,2.52.5,0,1.6-.11,1.6-.11l.09,1.12a16.5,16.5,0,0,1-1.84.19c-1.85,0-2.48-.7-2.48-3.29V167.4H1324v-1.17h1.28v-2.75h1.33v2.75h2.86v1.17Z" fill="#3a3d3f"/><path d="M1336.86,167.4v4.31c0,2,.12,2.52,1.29,2.52.51,0,1.61-.11,1.61-.11l.09,1.12a16.5,16.5,0,0,1-1.84.19c-1.85,0-2.48-.7-2.48-3.29V167.4h-1.28v-1.17h1.28v-2.75h1.33v2.75h2.86v1.17Z" fill="#3a3d3f"/><path d="M1341.38,175.24V162.31h1.35v4.43a7.55,7.55,0,0,1,2.77-.69c2.47,0,3,1.23,3,4.43v4.76h-1.35v-4.72c0-2.38-.27-3.26-1.92-3.26a7.41,7.41,0,0,0-2.54.54v7.44Z" fill="#3a3d3f"/><path d="M1351,162.63h1.35v1.57H1351Zm0,3.6h1.35v9H1351Z" fill="#3a3d3f"/><path d="M1361,167.55a29.33,29.33,0,0,0-3.15-.29c-1.12,0-2,.3-2,1.37,0,.84.43,1.08,2.34,1.4,2.25.38,3.1.83,3.1,2.58,0,2.1-1.34,2.81-3.5,2.81a25,25,0,0,1-3.17-.35l.07-1.17a29.8,29.8,0,0,0,3,.31c1.47,0,2.27-.33,2.27-1.55,0-.94-.47-1.17-2.44-1.48s-3-.7-3-2.5c0-2,1.6-2.63,3.24-2.63a23.19,23.19,0,0,1,3.26.34Z" fill="#3a3d3f"/><path d="M1374.62,170.63c0,3.27-.81,4.79-3.85,4.79s-3.85-1.52-3.85-4.79c0-3.1,1-4.58,3.85-4.58S1374.62,167.53,1374.62,170.63Zm-1.38,0c0-2.51-.54-3.41-2.47-3.41s-2.47.9-2.47,3.41.35,3.62,2.47,3.62S1373.24,173.18,1373.24,170.63Z" fill="#3a3d3f"/><path d="M1376.82,166.23h1.33v.65a6.12,6.12,0,0,1,2.7-.83c2.27,0,3.26,1.39,3.26,4.58,0,3.52-1.15,4.79-3.93,4.79a12,12,0,0,1-2-.2v4h-1.35Zm1.35,1.75v6.07a14.27,14.27,0,0,0,1.94.2c2,0,2.63-1,2.63-3.62s-.77-3.37-2.09-3.37A5.86,5.86,0,0,0,1378.17,168Z" fill="#3a3d3f"/><path d="M1388.1,167.4v4.31c0,2,.13,2.52,1.3,2.52.5,0,1.6-.11,1.6-.11l.09,1.12a16.23,16.23,0,0,1-1.83.19c-1.86,0-2.49-.7-2.49-3.29V167.4h-1.28v-1.17h1.28v-2.75h1.33v2.75H1391v1.17Z" fill="#3a3d3f"/><path d="M1392.62,162.63H1394v1.57h-1.35Zm0,3.6H1394v9h-1.35Z" fill="#3a3d3f"/><path d="M1403.87,170.63c0,3.27-.81,4.79-3.85,4.79s-3.85-1.52-3.85-4.79c0-3.1,1-4.58,3.85-4.58S1403.87,167.53,1403.87,170.63Zm-1.38,0c0-2.51-.54-3.41-2.47-3.41s-2.47.9-2.47,3.41.35,3.62,2.47,3.62S1402.49,173.18,1402.49,170.63Z" fill="#3a3d3f"/><path d="M1406.07,175.24v-9h1.33v.63a6.85,6.85,0,0,1,2.79-.81c2.49,0,3,1.23,3,4.43v4.76h-1.33v-4.72c0-2.38-.27-3.26-1.94-3.26a6.12,6.12,0,0,0-2.54.67v7.31Z" fill="#3a3d3f"/><path d="M1415.64,173.18h1.48v2.06h-1.48Z" fill="#3a3d3f"/><rect x="1132.92" y="82.83" width="7.17" height="27.28" transform="translate(2273.01 192.95) rotate(-180)" fill="#2277d6"/><rect x="1122.92" y="91.91" width="7.17" height="18.2" transform="translate(2253.01 202.03) rotate(-180)" fill="#2277d6"/><rect x="1112.33" y="101.01" width="7.17" height="9.1" transform="translate(2231.83 211.13) rotate(-180)" fill="#2277d6"/></g><g id="Layer_2-2" data-name="Layer 2"><path d="M118.42,74.3A46.58,46.58,0,1,1,71.84,27.72,46.58,46.58,0,0,1,118.42,74.3" fill="#e3f0fc"/><path d="M1080,88.63h-5.73V85.76a2.86,2.86,0,0,0-2.87-2.86h-5.73a2.86,2.86,0,0,0-2.86,2.86v2.87h-5.73a2.84,2.84,0,0,0-2.85,2.86v15.76a2.85,2.85,0,0,0,2.86,2.86h22.53a3.24,3.24,0,0,0,3.25-3.25V91.49A2.86,2.86,0,0,0,1080,88.63Zm-8.6,0h-5.73V85.76h5.73Z" fill="#2277d6"/><path d="M1289.5,41.31l2.36,12.48h.58l2.82-12.36h1.8l2.82,12.36h.58l2.36-12.48h1.58l-2.8,13.84h-2.82l-2.62-11.82-2.62,11.82h-2.82l-2.82-13.84Z"/><path d="M1315.3,48.89h-7v6.26h-1.54V41.31h1.54v6.2h7v-6.2h1.52V55.15h-1.52Z"/><path d="M1324.67,55.15h-1.54V49.33l-4.42-8h1.74l3.44,6.48,3.45-6.48h1.74l-4.41,8Z"/><path d="M1335.37,41.31h1.54V55.15h-1.54Z"/><path d="M1348.05,42.79s-2.78-.34-3.94-.34c-2,0-3,.7-3,2.26,0,1.8,1,2.1,3.38,2.64,2.76.62,4,1.3,4,3.72,0,3.06-1.67,4.26-4.42,4.26a36.39,36.39,0,0,1-4.38-.44l.16-1.28s2.72.36,4.14.36c2,0,3-.86,3-2.78,0-1.56-.82-2-3.08-2.44-2.86-.62-4.3-1.3-4.3-3.94s1.76-3.72,4.46-3.72a34.72,34.72,0,0,1,4.19.4Z"/><path d="M1354.09,41.31h10v1.38h-4.22V55.15h-1.52V42.69h-4.26Z"/><path d="M1374.63,48.89h-7v6.26h-1.54V41.31h1.54v6.2h7v-6.2h1.52V55.15h-1.52Z"/><path d="M1379.55,41.31h1.54V55.15h-1.54Z"/><path d="M1392.23,42.79s-2.78-.34-3.94-.34c-2,0-3,.7-3,2.26,0,1.8,1,2.1,3.38,2.64,2.76.62,4,1.3,4,3.72,0,3.06-1.68,4.26-4.42,4.26a36.39,36.39,0,0,1-4.38-.44l.16-1.28s2.72.36,4.14.36c2,0,3-.86,3-2.78,0-1.56-.82-2-3.08-2.44-2.86-.62-4.3-1.3-4.3-3.94s1.76-3.72,4.46-3.72a34.46,34.46,0,0,1,4.18.4Z"/><path d="M1401.25,49.85v5.3h-1.54V41.31h5.12c2.9,0,4.42,1.28,4.42,4.2,0,2-.8,3.46-2.54,4l2.66,5.62h-1.7l-2.5-5.3Zm3.58-7.18h-3.58v5.82h3.6c2.08,0,2.82-1.24,2.82-3C1407.67,43.61,1406.77,42.67,1404.83,42.67Z"/><path d="M1412,41.31h8.42v1.36h-6.88v4.78h5.68v1.34h-5.68v5h6.88v1.36H1412Z"/><path d="M1431.45,54.93a20.83,20.83,0,0,1-3.82.42c-4.14,0-5.06-2.52-5.06-7.08s.9-7.16,5.06-7.16a20.32,20.32,0,0,1,3.82.44l-.06,1.3a24.64,24.64,0,0,0-3.6-.36c-3.08,0-3.62,1.84-3.62,5.78s.5,5.7,3.66,5.7a21.88,21.88,0,0,0,3.56-.36Z"/><path d="M1433.41,48.29c0-4.56,1.18-7.18,5.46-7.18s5.48,2.58,5.48,7.18c0,4.76-1.18,7.06-5.48,7.06S1433.41,52.93,1433.41,48.29Zm9.34,0c0-3.74-.72-5.82-3.88-5.82s-3.88,2.06-3.88,5.82.68,5.7,3.88,5.7S1442.75,52.19,1442.75,48.29Z"/><path d="M1447.17,41.31H1450l3.92,11.7,3.92-11.7h2.78V55.15H1459V43h-.28l-4,11.7H1453L1449,43h-.28v12.2h-1.54Z"/><path d="M1464,41.31h2.78l3.92,11.7,3.92-11.7h2.78V55.15h-1.54V43h-.28l-4,11.7h-1.72l-4-11.7h-.28v12.2H1464Z"/><path d="M1480.77,41.31h8.42v1.36h-6.88v4.78H1488v1.34h-5.68v5h6.88v1.36h-8.42Z"/><path d="M1491.83,41.31h2.88l5.3,12.48h.42V41.31H1502V55.15h-2.82l-5.38-12.48h-.38V55.15h-1.54Z"/><path d="M1505.35,55.15V41.31h4.94c4,0,5.12,2.8,5.12,6.72s-1,7.12-5.12,7.12Zm4.94-12.48h-3.4V53.79h3.4c2.88,0,3.54-2.76,3.54-5.76S1513.17,42.67,1510.29,42.67Z"/><path d="M1518.25,41.31h8.42v1.36h-6.88v4.78h5.68v1.34h-5.68v5h6.88v1.36h-8.42Z"/><path d="M1529.31,55.15V41.31h4.94c4,0,5.12,2.8,5.12,6.72s-1,7.12-5.12,7.12Zm4.94-12.48h-3.4V53.79h3.4c2.88,0,3.54-2.76,3.54-5.76S1537.13,42.67,1534.25,42.67Z"/><path d="M1546.77,47.93c-1.18,1-1.78,1.6-1.78,2.5v.7h-1.26a3.11,3.11,0,0,1-.26-1.22c0-1,.8-1.76,1.86-2.66,1.44-1.24,1.78-1.7,1.78-2.82,0-1.42-.86-2-2.66-2a18.55,18.55,0,0,0-3.1.46l-.1-1.22a15.14,15.14,0,0,1,3.34-.6c2.68,0,4,.88,4,3.2C1548.63,46,1548.33,46.63,1546.77,47.93Zm-3.26,5h1.64v2.24h-1.64Z"/><path d="M1001.36,91.84l3.81,5.22a4.06,4.06,0,0,0,2.87,1.19h23.87L1028,93c-.61-.82-1.06-1.16-1.8-1.16Z" fill="#2277d6"/><path d="M1032.56,99.9H1007a4,4,0,0,1-2.93-1.25l-4.25-5.53a2.76,2.76,0,0,0-2-.73c-2.29,0-5.46,0-7.57.09A2.33,2.33,0,0,0,988.27,94l-1.78,5.52a1.16,1.16,0,0,0,0,.76l1,2.31a1.47,1.47,0,0,0,1.38,1h42.19a2.08,2.08,0,0,0,2-1.36l.77-2.24Z" fill="#2277d6"/><path d="M997.42,105.19a3.32,3.32,0,0,1-6.57,0" fill="#2277d6"/><path d="M1028.85,105.19a3.32,3.32,0,0,1-6.57,0" fill="#2277d6"/></g><g id="Icons_Tablet_and_Screens"><polygon points="71.06 48.01 45.52 92.25 96.61 92.25 71.06 48.01" fill="#2277d6"/></g></g></svg>