<svg xmlns="http://www.w3.org/2000/svg" viewBox="0 0 1893 246.47"><title>bar_0_closed_3</title><g id="Layer_2" data-name="Layer 2"><g id="CM1_New_Open"><rect width="1893" height="246.47" fill="#fff"/></g><g id="Layer_1-2" data-name="Layer 1"><circle cx="683.21" cy="110.27" r="29.44" fill="none" stroke="#2277d6" stroke-miterlimit="10" stroke-width="4"/><path d="M683.21,89.4a22.38,22.38,0,0,1,22.37,22.38H683.21Z" fill="#8dc5f2" opacity="0.47"/><path d="M163.31,41.51v6.36h-1.85V31.26h6.14c3.48,0,5.31,1.54,5.31,5,0,2.45-1,4.16-3,4.83l3.19,6.74h-2l-3-6.36Zm4.29-8.61h-4.29v7h4.32c2.49,0,3.38-1.49,3.38-3.58C171,34,169.93,32.9,167.6,32.9Z"/><path d="M176.24,31.26h10.11V32.9h-8.26v5.73h6.82v1.61h-6.82v6h8.26v1.63H176.24Z"/><path d="M198.83,33s-3.34-.41-4.73-.41c-2.35,0-3.6.84-3.6,2.71,0,2.16,1.15,2.53,4.05,3.17,3.31.75,4.78,1.56,4.78,4.47,0,3.67-2,5.11-5.31,5.11a43.57,43.57,0,0,1-5.25-.53L189,46s3.26.43,5,.43c2.35,0,3.55-1,3.55-3.34,0-1.87-1-2.4-3.7-2.93-3.43-.74-5.16-1.56-5.16-4.73S190.74,31,194,31a41.39,41.39,0,0,1,5,.48Z"/><path d="M212.55,47.61a25,25,0,0,1-4.58.5c-5,0-6.07-3-6.07-8.49S203,31,208,31a24.81,24.81,0,0,1,4.58.53l-.07,1.56a29.8,29.8,0,0,0-4.32-.43c-3.7,0-4.34,2.21-4.34,6.94s.6,6.84,4.39,6.84a27,27,0,0,0,4.27-.43Z"/><path d="M225.87,40.36h-8.45v7.51h-1.84V31.26h1.84v7.45h8.45V31.26h1.83V47.87h-1.83Z"/><path d="M231.78,31.26h10.1V32.9h-8.26v5.73h6.82v1.61h-6.82v6h8.26v1.63h-10.1Z"/><path d="M245.05,47.87V31.26H251c4.82,0,6.14,3.37,6.14,8.07s-1.25,8.54-6.14,8.54Zm5.93-15H246.9V46.24H251c3.45,0,4.24-3.31,4.24-6.91S254.43,32.9,251,32.9Z"/><path d="M266.14,46.48c2.6,0,4.06-1,4.06-3.6V31.26H272V42.83c0,3.8-2.08,5.28-5.88,5.28-3.64,0-5.73-1.46-5.73-5.28V31.26h1.85V42.88C262.26,45.47,263.69,46.48,266.14,46.48Z"/><path d="M276,47.87V31.26h1.85v15h7.3v1.65Z"/><path d="M287.48,31.26h1.85V47.87h-1.85Z"/><path d="M293.38,31.26h3.46l6.36,15h.5v-15h1.83V47.87h-3.39l-6.45-15h-.46v15h-1.85Z"/><path d="M316.18,39.38h4.59v8.16a42,42,0,0,1-5.4.57c-5.09,0-6.44-3.12-6.44-8.49s1.4-8.6,6.39-8.6a30.68,30.68,0,0,1,5.45.63l-.08,1.53a38.24,38.24,0,0,0-5.16-.5c-3.84,0-4.68,2.23-4.68,6.94s.82,6.86,4.66,6.86a22.31,22.31,0,0,0,3.43-.33V41h-2.76Z"/><path d="M339.7,47.61a25.05,25.05,0,0,1-4.58.5c-5,0-6.08-3-6.08-8.49s1.08-8.6,6.08-8.6a24.81,24.81,0,0,1,4.58.53l-.07,1.56a29.94,29.94,0,0,0-4.32-.43c-3.7,0-4.35,2.21-4.35,6.94s.61,6.84,4.4,6.84a27,27,0,0,0,4.27-.43Z"/><path d="M353,40.36h-8.45v7.51h-1.85V31.26h1.85v7.45H353V31.26h1.82V47.87H353Z"/><path d="M362,31.26h4l4.56,16.61h-1.82l-1.2-4.27h-7.11l-1.2,4.27h-1.82ZM360.89,42h6.29l-2.52-9.1h-1.25Z"/><path d="M375.08,41.51v6.36h-1.85V31.26h6.14c3.48,0,5.3,1.54,5.3,5,0,2.45-.95,4.16-3,4.83l3.19,6.74h-2l-3-6.36Zm4.29-8.61h-4.29v7h4.32c2.49,0,3.38-1.49,3.38-3.58C382.78,34,381.7,32.9,379.37,32.9Z"/><path d="M394.59,39.38h4.58v8.16a41.74,41.74,0,0,1-5.4.57c-5.09,0-6.43-3.12-6.43-8.49s1.39-8.6,6.38-8.6a30.68,30.68,0,0,1,5.45.63l-.07,1.53a38.46,38.46,0,0,0-5.16-.5c-3.84,0-4.68,2.23-4.68,6.94s.82,6.86,4.66,6.86a22.58,22.58,0,0,0,3.43-.33V41h-2.76Z"/><path d="M402.79,31.26h1.85V47.87h-1.85Z"/><path d="M408.7,31.26h3.45l6.36,15H419v-15h1.82V47.87h-3.38L411,32.9h-.45v15H408.7Z"/><path d="M431.5,39.38h4.58v8.16a41.53,41.53,0,0,1-5.4.57c-5.09,0-6.43-3.12-6.43-8.49s1.39-8.6,6.38-8.6a30.68,30.68,0,0,1,5.45.63L436,33.18a38.46,38.46,0,0,0-5.16-.5c-3.84,0-4.68,2.23-4.68,6.94s.82,6.86,4.66,6.86a22.44,22.44,0,0,0,3.43-.33V41H431.5Z"/><path d="M650.06,41.17h10v1.38h-4.22V55h-1.52V42.55h-4.26Z"/><path d="M662,41.17h1.54V55H662Z"/><path d="M666.94,41.17h2.78l3.92,11.7,3.92-11.7h2.78V55H678.8V42.81h-.28l-4,11.7h-1.72l-4-11.7h-.28V55h-1.54Z"/><path d="M683.74,41.17h8.42v1.36h-6.88v4.78H691v1.34h-5.68v5h6.88V55h-8.42Z"/><path d="M700.74,50.35V55H699.2V41.17h5.06c3,0,4.42,1.46,4.42,4.46s-1.4,4.72-4.42,4.72Zm3.5-1.36c2,0,2.86-1.22,2.86-3.36s-.84-3.1-2.86-3.1h-3.5V49Z"/><path d="M711.06,41.17h8.42v1.36H712.6v4.78h5.68v1.34H712.6v5h6.88V55h-8.42Z"/><path d="M723.66,49.71V55h-1.54V41.17h5.12c2.9,0,4.42,1.28,4.42,4.2,0,2-.8,3.46-2.54,4L731.78,55h-1.7l-2.5-5.3Zm3.58-7.18h-3.58v5.82h3.6c2.08,0,2.82-1.24,2.82-3C730.08,43.47,729.18,42.53,727.24,42.53Z"/><path d="M734.44,41.17H736V55h-1.54Z"/><path d="M738.8,48.15c0-4.56,1.18-7.18,5.46-7.18s5.48,2.58,5.48,7.18c0,4.76-1.18,7.06-5.48,7.06S738.8,52.79,738.8,48.15Zm9.34,0c0-3.74-.72-5.82-3.88-5.82s-3.88,2.06-3.88,5.82.68,5.7,3.88,5.7S748.14,52.05,748.14,48.15Z"/><path d="M752.56,55V41.17h4.94c4,0,5.12,2.8,5.12,6.72s-1,7.12-5.12,7.12Zm4.94-12.48h-3.4V53.65h3.4c2.88,0,3.54-2.76,3.54-5.76S760.38,42.53,757.5,42.53Z"/><path d="M998.86,48.15c0-4.56,1.18-7.18,5.46-7.18s5.48,2.58,5.48,7.18c0,4.76-1.18,7.06-5.48,7.06S998.86,52.79,998.86,48.15Zm9.34,0c0-3.74-.72-5.82-3.88-5.82s-3.88,2.06-3.88,5.82.68,5.7,3.88,5.7S1008.2,52.05,1008.2,48.15Z"/><path d="M1022.08,41.17,1018.46,55H1015l-3.62-13.84h1.6l3.18,12.48h1.12l3.18-12.48Z"/><path d="M1024.26,41.17h8.42v1.36h-6.88v4.78h5.68v1.34h-5.68v5h6.88V55h-8.42Z"/><path d="M1036.86,49.71V55h-1.54V41.17h5.12c2.9,0,4.42,1.28,4.42,4.2,0,2-.8,3.46-2.54,4L1045,55h-1.7l-2.5-5.3Zm3.58-7.18h-3.58v5.82h3.6c2.08,0,2.82-1.24,2.82-3C1043.28,43.47,1042.38,42.53,1040.44,42.53Z"/><path d="M1057.1,41.17,1053.48,55H1050l-3.62-13.84h1.6l3.18,12.48h1.12l3.18-12.48Z"/><path d="M1059.28,41.17h1.54V55h-1.54Z"/><path d="M1064.2,41.17h8.42v1.36h-6.88v4.78h5.68v1.34h-5.68v5h6.88V55h-8.42Z"/><path d="M1075.76,41.17l2.36,12.48h.58l2.82-12.36h1.8l2.82,12.36h.58l2.36-12.48h1.58L1087.86,55H1085l-2.62-11.82L1079.8,55H1077l-2.82-13.84Z"/><path d="M675.3,102h2.84v17.16h-3.09V105.23l-4.32,2.6-1.42-2.16Z" fill="#2277d6"/><path d="M684.29,119.12V100.71h3v6.08a10.87,10.87,0,0,1,3.81-1c3.88,0,4.82,2,4.82,6.32v7h-3v-6.89c0-2.6-.34-3.88-2.48-3.88a10.72,10.72,0,0,0-3.12.57v10.2Z" fill="#2277d6"/><path d="M1005.72,134.41v-1.17l3.46-3.63c1.47-1.53,2.38-2.49,2.38-3.89,0-1.58-.88-2.08-2.58-2.08a16.87,16.87,0,0,0-3.06.4l-.11-1.15a14.41,14.41,0,0,1,3.42-.48c2.49,0,3.75.94,3.75,3.17,0,1.77-.81,2.81-2.47,4.42l-3.16,3.21h5.93v1.2Z" fill="#3a3d3f"/><path d="M1043.32,129.3h3.38v-3.49H1048v3.49h3.43v1.22H1048v3.53h-1.25v-3.53h-3.38Z" fill="#3a3d3f"/><path d="M1058,122.58h1.29v11.83H1058V124.13l-3,2-.63-1Z" fill="#3a3d3f"/><path d="M1068.85,132.1h-5.73V131l3.36-8.44H1068l-3.42,8.3h4.28v-3.69h1.38v3.69h1.5v1.22h-1.5v2.31h-1.38Z" fill="#3a3d3f"/><path d="M1081.7,125.47c0,1.52-.6,2.15-2,2.76a3,3,0,0,1,2.15,3c0,2.6-2,3.39-4.46,3.39s-4.41-.74-4.41-3.19a3.14,3.14,0,0,1,2-3.17,2.74,2.74,0,0,1-1.84-2.78c0-2,1.63-3.06,4.21-3.06S1081.7,123.39,1081.7,125.47Zm-1.29,5.59c0-1.38-.92-1.83-2.1-2.17h-1.88c-1.24.34-2,1-2,2.28,0,1.62,1.25,2.16,2.94,2.16S1080.41,132.79,1080.41,131.06Zm-5.74-5.45c0,1.09.59,1.67,1.76,2.08h1.88c1.22-.4,1.92-1,1.92-2.06,0-1.42-1.06-2-2.8-2S1074.67,124.2,1074.67,125.61Z" fill="#3a3d3f"/><path d="M1119.75,122.58v1.26H1114l-.33,3.85a6.86,6.86,0,0,1,2.78-.73c2.31,0,3.76,1,3.76,3.49,0,2.72-1.48,4.12-4,4.12a19.42,19.42,0,0,1-3.92-.52l.16-1.09a23.83,23.83,0,0,0,3.64.39,2.5,2.5,0,0,0,2.67-2.79c0-1.8-1-2.37-2.51-2.37a6.73,6.73,0,0,0-2.81.72l-1-.18.32-6.15Z" fill="#3a3d3f"/><path d="M1129.78,122.58v1.26H1124l-.32,3.85a6.86,6.86,0,0,1,2.78-.73c2.31,0,3.76,1,3.76,3.49,0,2.72-1.49,4.12-4,4.12a19.42,19.42,0,0,1-3.92-.52l.16-1.09a23.81,23.81,0,0,0,3.63.39,2.5,2.5,0,0,0,2.67-2.79c0-1.8-1-2.37-2.5-2.37a6.75,6.75,0,0,0-2.82.72l-1-.18.33-6.15Z" fill="#3a3d3f"/><path d="M1135.71,124.88c0,1.74-.77,2.52-2,2.52s-2-.78-2-2.52.76-2.47,2-2.47S1135.71,123.16,1135.71,124.88Zm-2,1.61c.67,0,.9-.56.9-1.61s-.23-1.56-.9-1.56-.87.5-.87,1.56S1133.1,126.49,1133.74,126.49Zm4-4.28.86.28-3.67,12.24-.86-.25Zm3.08,9.85c0,1.72-.77,2.53-2,2.53s-1.95-.81-1.95-2.55.73-2.45,1.95-2.45S1140.8,130.34,1140.8,132.06Zm-2,1.61c.68,0,.9-.55.9-1.61s-.22-1.56-.9-1.56-.88.5-.88,1.54S1138.19,133.67,1138.83,133.67Z" fill="#3a3d3f"/><path d="M742.8,88.86h3.26V110h-3.55V92.89l-5,3.2-1.63-2.66Z"/><path d="M753.17,110v-3l5.21-5.38c2.72-2.78,4.29-4.48,4.29-6.72,0-2.4-1.25-3.17-4-3.17a32.66,32.66,0,0,0-5.18.58l-.23-2.82a25,25,0,0,1,6.24-.93c4.68,0,6.82,1.92,6.82,5.89,0,3.2-1.34,5.06-4.61,8.1l-4.51,4.38h9.54V110Z"/><path d="M770.9,95.67h3.74v4.61H770.9Zm0,9.7h3.74V110H770.9Z"/><path d="M793.52,99.64c0,8-2.91,10.69-8,10.69s-8-2.63-8-10.69c0-8.29,2.91-11.14,8-11.14S793.52,91.32,793.52,99.64Zm-12.29,0c0,5.79,1.44,7.58,4.35,7.58s4.26-1.79,4.26-7.58c0-6.21-1.31-8-4.29-8S781.23,93.4,781.23,99.64Z"/><path d="M811.44,99.64c0,8-2.91,10.69-8,10.69s-8-2.63-8-10.69c0-8.29,2.91-11.14,8-11.14S811.44,91.32,811.44,99.64Zm-12.29,0c0,5.79,1.44,7.58,4.35,7.58s4.26-1.79,4.26-7.58c0-6.21-1.31-8-4.29-8S799.15,93.4,799.15,99.64Z"/><path d="M821.42,99.77H831v3.17h-9.57Z"/><path d="M849.68,88.86h3.26V110h-3.55V92.89l-5,3.2-1.63-2.66Z"/><path d="M860,89.53a21.45,21.45,0,0,1,6.18-1c5.31,0,7.14,1.83,7.14,5.67a5.38,5.38,0,0,1-2.79,4.77c1.92.89,3.2,1.72,3.2,4.8,0,4.38-2,6.59-7,6.59a31.09,31.09,0,0,1-6.91-1l.22-2.75a42.3,42.3,0,0,0,6.21.64c2.59,0,3.84-1.09,3.84-3.39,0-2.14-1.54-3.13-3.62-3.17h-4.25v-3h4.25a3.41,3.41,0,0,0,3.21-3.3c0-1.92-1.09-2.78-3.68-2.78a33.56,33.56,0,0,0-5.67.61Z"/><path d="M877.77,95.67h3.75v4.61h-3.75Zm0,9.7h3.75V110h-3.75Z"/><path d="M900.4,99.64c0,8-2.91,10.69-8,10.69s-8-2.63-8-10.69c0-8.29,2.91-11.14,8-11.14S900.4,91.32,900.4,99.64Zm-12.29,0c0,5.79,1.44,7.58,4.35,7.58s4.26-1.79,4.26-7.58c0-6.21-1.31-8-4.29-8S888.11,93.4,888.11,99.64Z"/><path d="M918.32,99.64c0,8-2.91,10.69-8,10.69s-8-2.63-8-10.69c0-8.29,2.91-11.14,8-11.14S918.32,91.32,918.32,99.64Zm-12.29,0c0,5.79,1.44,7.58,4.35,7.58s4.26-1.79,4.26-7.58c0-6.21-1.31-8-4.29-8S906,93.4,906,99.64Z"/><path d="M733.34,122h8.95v1.24h-3.78v11.16h-1.36V123.25h-3.81Z" fill="#3a3d3f"/><path d="M751.09,129.82c0,3.26-.8,4.77-3.83,4.77s-3.84-1.51-3.84-4.77c0-3.08,1-4.55,3.84-4.55S751.09,126.74,751.09,129.82Zm-1.38,0c0-2.49-.54-3.38-2.45-3.38s-2.46.89-2.46,3.38.34,3.6,2.46,3.6S749.71,132.37,749.71,129.82Z" fill="#3a3d3f"/><path d="M760.16,134.41h-1.33v-.61a6.41,6.41,0,0,1-2.72.79c-1.76,0-3.22-.72-3.22-4.59,0-3.15,1-4.73,3.74-4.73a15.43,15.43,0,0,1,2.2.23v-4h1.33Zm-1.33-1.69v-6.07a15.71,15.71,0,0,0-2.13-.21c-1.88,0-2.43,1.23-2.43,3.56,0,2.9,1,3.39,2,3.39A6.46,6.46,0,0,0,758.83,132.72Z" fill="#3a3d3f"/><path d="M769.08,132.74c0,.52.47.72,1,.79l0,1.06a2.72,2.72,0,0,1-2.13-.72,9.11,9.11,0,0,1-3.23.72c-1.63,0-2.52-.94-2.52-2.74s.89-2.48,2.74-2.66l2.81-.26v-.77c0-1.26-.54-1.71-1.61-1.71-1.26,0-3.39.24-3.39.24l0-1a21.38,21.38,0,0,1,3.51-.4c2,0,2.88.93,2.88,2.89Zm-4-2.54c-1.09.1-1.52.62-1.52,1.61s.44,1.65,1.36,1.65a9.45,9.45,0,0,0,2.81-.56v-3Z" fill="#3a3d3f"/><path d="M772.24,125.45l2.24,7.79h.59l2.26-7.79h1.34l-3.73,12.93H773.6l1.17-4h-1.33l-2.54-9Z" fill="#3a3d3f"/><path d="M168.49,90.9a18.72,18.72,0,0,1-3.44.38c-3.73,0-4.55-2.27-4.55-6.38s.81-6.44,4.55-6.44a18.5,18.5,0,0,1,3.44.39L168.44,80a22.79,22.79,0,0,0-3.25-.32c-2.77,0-3.25,1.66-3.25,5.2s.45,5.13,3.29,5.13a20.06,20.06,0,0,0,3.21-.32Z" fill="#3a3d3f"/><path d="M170.52,91.1V78.17h1.35V82.6a7.57,7.57,0,0,1,2.78-.69c2.46,0,3,1.23,3,4.43V91.1h-1.35V86.38c0-2.38-.27-3.26-1.93-3.26a7.41,7.41,0,0,0-2.54.54V91.1Z" fill="#3a3d3f"/><path d="M186.54,89.42c0,.52.47.72,1.05.79l-.06,1.07a2.75,2.75,0,0,1-2.14-.72,9.2,9.2,0,0,1-3.24.72c-1.64,0-2.54-.94-2.54-2.76s.9-2.48,2.76-2.66l2.82-.27v-.78c0-1.26-.54-1.71-1.62-1.71-1.26,0-3.4.24-3.4.24l0-1a21.57,21.57,0,0,1,3.52-.4c2,0,2.9.94,2.9,2.9Zm-4-2.55c-1.1.1-1.53.63-1.53,1.62s.45,1.65,1.37,1.65a9.47,9.47,0,0,0,2.82-.56v-3Z" fill="#3a3d3f"/><path d="M189.2,82.09h1.34v1.23a10.06,10.06,0,0,1,3.29-1.42v1.36a13.24,13.24,0,0,0-3.27,1.23V91.1H189.2Z" fill="#3a3d3f"/><path d="M195,92.61c0-1,.48-1.53,1.42-2.23a1.5,1.5,0,0,1-.51-1.25,5.78,5.78,0,0,1,.62-1.42c-.76-.34-1.43-1.06-1.43-2.72,0-2.21,1.37-3.08,3.37-3.08a9.07,9.07,0,0,1,1.87.24l2.67-.07v1.15l-1.71,0a2.35,2.35,0,0,1,.59,1.8c0,2.34-1.17,3.05-3.47,3.05a6.69,6.69,0,0,1-.88-.08,5.44,5.44,0,0,0-.33,1c0,.72.15.83,2.18.83,2.56,0,3.48.5,3.48,2.64s-1.46,2.87-4,2.87C196.06,95.33,195,94.7,195,92.61Zm2.34-1.69c-.76.55-1,.88-1,1.58,0,1.24.52,1.69,2.55,1.69,1.81,0,2.62-.48,2.62-1.67,0-1.37-.58-1.51-2.22-1.51C198.69,91,197.38,90.92,197.38,90.92Zm3.2-5.93c0-1.42-.56-2-2.07-2s-2,.56-2,2,.61,2,2,2S200.58,86.42,200.58,85Z" fill="#3a3d3f"/><path d="M204.68,78.49H206v1.57h-1.35Zm0,3.6H206v9h-1.35Z" fill="#3a3d3f"/><path d="M208.63,91.1v-9H210v.63a6.85,6.85,0,0,1,2.79-.81c2.48,0,3,1.23,3,4.43V91.1h-1.33V86.38c0-2.38-.27-3.26-2-3.26a6.11,6.11,0,0,0-2.53.67V91.1Z" fill="#3a3d3f"/><path d="M217.9,92.61c0-1,.48-1.53,1.42-2.23a1.5,1.5,0,0,1-.51-1.25,5.78,5.78,0,0,1,.62-1.42c-.76-.34-1.43-1.06-1.43-2.72,0-2.21,1.37-3.08,3.37-3.08a9.07,9.07,0,0,1,1.87.24l2.67-.07v1.15l-1.71,0a2.35,2.35,0,0,1,.59,1.8c0,2.34-1.17,3.05-3.47,3.05a7,7,0,0,1-.89-.08,5.56,5.56,0,0,0-.32,1c0,.72.15.83,2.18.83,2.56,0,3.47.5,3.47,2.64s-1.45,2.87-4,2.87C218.92,95.33,217.9,94.7,217.9,92.61Zm2.34-1.69c-.76.55-1,.88-1,1.58,0,1.24.52,1.69,2.55,1.69,1.81,0,2.62-.48,2.62-1.67,0-1.37-.58-1.51-2.22-1.51C221.55,91,220.24,90.92,220.24,90.92Zm3.2-5.93c0-1.42-.56-2-2.07-2s-2,.56-2,2,.62,2,2,2S223.44,86.42,223.44,85Z" fill="#3a3d3f"/><path d="M231.45,91.1V89.93l3.47-3.66c1.48-1.53,2.4-2.5,2.4-3.91,0-1.58-.88-2.08-2.59-2.08a17.47,17.47,0,0,0-3.08.39l-.11-1.15A14.3,14.3,0,0,1,235,79c2.5,0,3.76,1,3.76,3.19,0,1.78-.81,2.83-2.48,4.45l-3.17,3.22h6V91.1Z" fill="#3a3d3f"/><path d="M248.1,78.64h3l3.42,12.46h-1.37l-.9-3.21H247l-.9,3.21h-1.37Zm-.84,8H252l-1.89-6.82h-.93Z" fill="#3a3d3f"/><path d="M261.44,84.72h3.44v6.12a28.94,28.94,0,0,1-4.05.44c-3.82,0-4.83-2.34-4.83-6.38s1.05-6.44,4.79-6.44a23.65,23.65,0,0,1,4.09.46l-.06,1.16A28.37,28.37,0,0,0,261,79.7c-2.88,0-3.51,1.67-3.51,5.2s.61,5.15,3.49,5.15a16.73,16.73,0,0,0,2.58-.25V86h-2.07Z" fill="#3a3d3f"/><path d="M276.11,78.64,272.85,91.1h-3.09L266.5,78.64h1.43l2.87,11.23h1l2.86-11.23Z" fill="#3a3d3f"/><path d="M283.81,83.41a29.33,29.33,0,0,0-3.15-.29c-1.11,0-2,.31-2,1.37,0,.84.43,1.08,2.34,1.4,2.25.38,3.1.83,3.1,2.58,0,2.1-1.34,2.81-3.5,2.81a24.71,24.71,0,0,1-3.16-.35l.07-1.17a29.5,29.5,0,0,0,3,.31c1.48,0,2.27-.32,2.27-1.55,0-.93-.47-1.17-2.43-1.48s-3-.7-3-2.5c0-2,1.6-2.63,3.24-2.63a22.55,22.55,0,0,1,3.26.35Z" fill="#3a3d3f"/><path d="M291.89,91.1h-1.35V83.26h-1.13V82.09h1.13v-.81c0-2.59.67-3.29,2.43-3.29.62,0,1.82.13,1.82.13l0,1.11s-1,0-1.54,0c-1,0-1.34.43-1.34,2.1v.79h2.62v1.17h-2.62Z" fill="#3a3d3f"/><path d="M303.43,86.49c0,3.27-.81,4.79-3.85,4.79s-3.85-1.52-3.85-4.79c0-3.1,1-4.58,3.85-4.58S303.43,83.39,303.43,86.49Zm-1.38,0c0-2.51-.54-3.41-2.47-3.41s-2.47.9-2.47,3.41.35,3.62,2.47,3.62S302.05,89,302.05,86.49Z" fill="#3a3d3f"/><path d="M305.63,82.09H307v1.23a10.17,10.17,0,0,1,3.3-1.42v1.36A13.21,13.21,0,0,0,307,84.49V91.1h-1.35Z" fill="#3a3d3f"/><path d="M320.23,79.21h1.29V91.1h-1.38V80.76l-3.06,2-.64-1Z" fill="#3a3d3f"/><path d="M329.85,91.1V78.17h1.35V82.6a7.64,7.64,0,0,1,2.78-.69c2.46,0,3,1.23,3,4.43V91.1h-1.35V86.38c0-2.38-.27-3.26-1.93-3.26a7.48,7.48,0,0,0-2.54.54V91.1Z" fill="#3a3d3f"/><path d="M346.83,86.49c0,3.27-.81,4.79-3.85,4.79s-3.86-1.52-3.86-4.79c0-3.1,1-4.58,3.86-4.58S346.83,83.39,346.83,86.49Zm-1.39,0c0-2.51-.54-3.41-2.46-3.41s-2.47.9-2.47,3.41.34,3.62,2.47,3.62S345.44,89,345.44,86.49Z" fill="#3a3d3f"/><path d="M356,82.09v9h-1.35v-.63a6.07,6.07,0,0,1-2.66.81c-2.52,0-3.05-1.17-3.05-4.49v-4.7h1.35v4.69c0,2.48.22,3.29,1.89,3.29a5.42,5.42,0,0,0,2.47-.67V82.09Z" fill="#3a3d3f"/><path d="M358.58,82.09h1.34v1.23a10.06,10.06,0,0,1,3.29-1.42v1.36a13.41,13.41,0,0,0-3.28,1.23V91.1h-1.35Z" fill="#3a3d3f"/><path d="M376,86.45c0,3.58-1,4.83-4.25,4.83-1.08,0-3-.2-3-.2V78.17h1.33v4.37a7.44,7.44,0,0,1,2.65-.63C375.2,81.91,376,83.21,376,86.45Zm-1.37,0c0-2.32-.47-3.33-2.06-3.33a7.57,7.57,0,0,0-2.5.52V90s1.17.09,1.66.09C374.23,90.07,374.66,89,374.66,86.45Z" fill="#3a3d3f"/><path d="M384.88,89.93l0,1.06a31.38,31.38,0,0,1-3.51.29c-2.69,0-3.57-1.57-3.57-4.63,0-3.42,1.48-4.74,3.76-4.74s3.62,1.26,3.62,4.22l-.07,1h-5.94c0,1.93.59,2.94,2.36,2.94C382.92,90.09,384.88,89.93,384.88,89.93Zm-1-3.86c0-2.23-.68-3-2.27-3s-2.39.84-2.41,3Z" fill="#3a3d3f"/><path d="M389.06,91.1h-1.35V83.26h-1.14V82.09h1.14v-.81c0-2.59.66-3.29,2.43-3.29.61,0,1.81.13,1.81.13v1.11s-1,0-1.55,0c-1,0-1.33.43-1.33,2.1v.79h2.61v1.17h-2.61Z" fill="#3a3d3f"/><path d="M400.59,86.49c0,3.27-.81,4.79-3.85,4.79s-3.85-1.52-3.85-4.79c0-3.1,1-4.58,3.85-4.58S400.59,83.39,400.59,86.49Zm-1.38,0c0-2.51-.54-3.41-2.47-3.41s-2.46.9-2.46,3.41.34,3.62,2.46,3.62S399.21,89,399.21,86.49Z" fill="#3a3d3f"/><path d="M402.79,82.09h1.33v1.23a10.17,10.17,0,0,1,3.3-1.42v1.36a13.21,13.21,0,0,0-3.28,1.23V91.1h-1.35Z" fill="#3a3d3f"/><path d="M415.66,89.93l0,1.06a31.4,31.4,0,0,1-3.52.29c-2.68,0-3.56-1.57-3.56-4.63,0-3.42,1.48-4.74,3.76-4.74S416,83.17,416,86.13l-.07,1H410c0,1.93.59,2.94,2.36,2.94C413.7,90.09,415.66,89.93,415.66,89.93Zm-1-3.86c0-2.23-.68-3-2.27-3s-2.39.84-2.41,3Z" fill="#3a3d3f"/><path d="M423.87,83.26v4.31c0,2,.12,2.52,1.29,2.52.51,0,1.61-.11,1.61-.11l.09,1.12a16.5,16.5,0,0,1-1.84.19c-1.85,0-2.49-.7-2.49-3.29V83.26h-1.27V82.09h1.27V79.34h1.34v2.75h2.86v1.17Z" fill="#3a3d3f"/><path d="M428.38,91.1V78.17h1.36V82.6a7.48,7.48,0,0,1,2.77-.69c2.47,0,3,1.23,3,4.43V91.1H434.2V86.38c0-2.38-.27-3.26-1.93-3.26a7.39,7.39,0,0,0-2.53.54V91.1Z" fill="#3a3d3f"/><path d="M438.05,78.49h1.35v1.57h-1.35Zm0,3.6h1.35v9h-1.35Z" fill="#3a3d3f"/><path d="M448,83.41a29.33,29.33,0,0,0-3.15-.29c-1.12,0-2,.31-2,1.37,0,.84.43,1.08,2.34,1.4,2.25.38,3.1.83,3.1,2.58,0,2.1-1.34,2.81-3.5,2.81a25,25,0,0,1-3.17-.35l.07-1.17a29.8,29.8,0,0,0,3,.31c1.47,0,2.26-.32,2.26-1.55,0-.93-.46-1.17-2.43-1.48s-3-.7-3-2.5c0-2,1.6-2.63,3.24-2.63a22.55,22.55,0,0,1,3.26.35Z" fill="#3a3d3f"/><path d="M456.12,83.26v4.31c0,2,.13,2.52,1.3,2.52.5,0,1.6-.11,1.6-.11l.09,1.12a16.23,16.23,0,0,1-1.83.19c-1.86,0-2.49-.7-2.49-3.29V83.26h-1.28V82.09h1.28V79.34h1.33v2.75H459v1.17Z" fill="#3a3d3f"/><path d="M460.64,78.49H462v1.57h-1.35Zm0,3.6H462v9h-1.35Z" fill="#3a3d3f"/><path d="M464.58,91.1v-9h1.34v.63a6,6,0,0,1,2.62-.81,2.55,2.55,0,0,1,2.35.92,7.46,7.46,0,0,1,3.2-.92c2.45,0,3,1.17,3,4.43V91.1h-1.35V86.38c0-2.38-.27-3.26-1.89-3.26a6,6,0,0,0-2.54.67,10.19,10.19,0,0,1,.24,2.63V91.1h-1.35V86.45c0-2.48-.25-3.33-1.89-3.33a5.4,5.4,0,0,0-2.42.67V91.1Z" fill="#3a3d3f"/><path d="M486.27,89.93l0,1.06a31.12,31.12,0,0,1-3.51.29c-2.68,0-3.56-1.57-3.56-4.63,0-3.42,1.47-4.74,3.76-4.74s3.62,1.26,3.62,4.22l-.08,1H480.6c0,1.93.6,2.94,2.36,2.94C484.31,90.09,486.27,89.93,486.27,89.93Zm-1-3.86c0-2.23-.69-3-2.27-3s-2.4.84-2.41,3Z" fill="#3a3d3f"/><path d="M494.41,91.1h-1.35V83.26h-1.14V82.09h1.14v-.81c0-2.59.67-3.29,2.43-3.29.61,0,1.82.13,1.82.13l0,1.11s-1,0-1.55,0c-1,0-1.33.43-1.33,2.1v.79H497v1.17h-2.61Z" fill="#3a3d3f"/><path d="M498.64,82.09H500v1.23a10.17,10.17,0,0,1,3.3-1.42v1.36A13.21,13.21,0,0,0,500,84.49V91.1h-1.35Z" fill="#3a3d3f"/><path d="M511.22,89.42c0,.52.47.72,1,.79l-.06,1.07a2.75,2.75,0,0,1-2.14-.72,9.2,9.2,0,0,1-3.24.72c-1.64,0-2.54-.94-2.54-2.76s.9-2.48,2.75-2.66l2.83-.27v-.78c0-1.26-.54-1.71-1.62-1.71-1.26,0-3.4.24-3.4.24l-.06-1a21.6,21.6,0,0,1,3.53-.4c2,0,2.9.94,2.9,2.9Zm-4-2.55c-1.1.1-1.53.63-1.53,1.62s.45,1.65,1.36,1.65a9.48,9.48,0,0,0,2.83-.56v-3Z" fill="#3a3d3f"/><path d="M513.88,91.1v-9h1.34v.63a6,6,0,0,1,2.62-.81,2.55,2.55,0,0,1,2.35.92,7.46,7.46,0,0,1,3.2-.92c2.45,0,3,1.17,3,4.43V91.1h-1.35V86.38c0-2.38-.27-3.26-1.89-3.26a6,6,0,0,0-2.54.67,9.75,9.75,0,0,1,.24,2.63V91.1h-1.35V86.45c0-2.48-.25-3.33-1.89-3.33a5.4,5.4,0,0,0-2.42.67V91.1Z" fill="#3a3d3f"/><path d="M535.58,89.93l0,1.06a31.12,31.12,0,0,1-3.51.29c-2.68,0-3.56-1.57-3.56-4.63,0-3.42,1.47-4.74,3.76-4.74s3.62,1.26,3.62,4.22l-.08,1H529.9c0,1.93.6,2.94,2.36,2.94C533.61,90.09,535.58,89.93,535.58,89.93Zm-1-3.86c0-2.23-.69-3-2.27-3s-2.4.84-2.41,3Z" fill="#3a3d3f"/><path d="M161.34,110.09l1.82,7.84h.29l2.14-7.66H167l2.14,7.66h.3l1.81-7.84h1.34l-2.14,9H168.2l-1.91-7-1.91,7h-2.25l-2.14-9Z" fill="#3a3d3f"/><path d="M181.76,114.49c0,3.27-.82,4.79-3.86,4.79s-3.85-1.52-3.85-4.79c0-3.1,1-4.58,3.85-4.58S181.76,111.39,181.76,114.49Zm-1.39,0c0-2.51-.54-3.41-2.47-3.41s-2.46.9-2.46,3.41.34,3.62,2.46,3.62S180.37,117,180.37,114.49Z" fill="#3a3d3f"/><path d="M190.92,110.09v9h-1.35v-.63a6.08,6.08,0,0,1-2.67.81c-2.52,0-3-1.17-3-4.49v-4.7h1.35v4.69c0,2.48.21,3.29,1.89,3.29a5.47,5.47,0,0,0,2.47-.67v-7.31Z" fill="#3a3d3f"/><path d="M193.61,106.17H195V119.1h-1.36Z" fill="#3a3d3f"/><path d="M204.58,119.1h-1.33v-.62a6.44,6.44,0,0,1-2.74.8c-1.76,0-3.24-.72-3.24-4.61,0-3.17,1-4.76,3.76-4.76a14.13,14.13,0,0,1,2.22.24v-4h1.33Zm-1.33-1.7v-6.1a15.93,15.93,0,0,0-2.15-.22c-1.89,0-2.44,1.25-2.44,3.59,0,2.91,1,3.4,2,3.4A6.54,6.54,0,0,0,203.25,117.4Z" fill="#3a3d3f"/><path d="M217.79,117.93l0,1.06a31.38,31.38,0,0,1-3.51.29c-2.69,0-3.57-1.57-3.57-4.63,0-3.42,1.48-4.74,3.76-4.74s3.62,1.26,3.62,4.22l-.07,1h-5.94c0,1.93.59,2.94,2.36,2.94C215.83,118.09,217.79,117.93,217.79,117.93Zm-1-3.86c0-2.23-.68-3-2.27-3s-2.39.84-2.41,3Z" fill="#3a3d3f"/><path d="M220.24,119.1v-9h1.33v.63a6.85,6.85,0,0,1,2.79-.81c2.48,0,3,1.23,3,4.43v4.76h-1.33v-4.72c0-2.38-.27-3.26-1.94-3.26a6.12,6.12,0,0,0-2.54.67v7.31Z" fill="#3a3d3f"/><path d="M236.26,117.42c0,.52.47.72,1,.79l-.05,1.07a2.74,2.74,0,0,1-2.14-.72,9.22,9.22,0,0,1-3.25.72c-1.63,0-2.53-.94-2.53-2.76s.9-2.48,2.75-2.66l2.83-.27v-.78c0-1.26-.54-1.71-1.62-1.71-1.26,0-3.41.24-3.41.24l0-1a21.6,21.6,0,0,1,3.53-.4c2,0,2.9.94,2.9,2.9Zm-4-2.55a1.44,1.44,0,0,0-1.53,1.62c0,1,.45,1.65,1.37,1.65a9.57,9.57,0,0,0,2.83-.56v-3Z" fill="#3a3d3f"/><path d="M246.18,114.45c0,3.58-1,4.83-4.25,4.83-1.08,0-3-.2-3-.2V106.17h1.33v4.37a7.44,7.44,0,0,1,2.65-.63C245.35,109.91,246.18,111.21,246.18,114.45Zm-1.37,0c0-2.32-.47-3.33-2.05-3.33a7.59,7.59,0,0,0-2.51.52V118s1.17.09,1.66.09C244.38,118.07,244.81,117,244.81,114.45Z" fill="#3a3d3f"/><path d="M248.5,106.17h1.35V119.1H248.5Z" fill="#3a3d3f"/><path d="M259.19,117.93l0,1.06a31.4,31.4,0,0,1-3.52.29c-2.68,0-3.56-1.57-3.56-4.63,0-3.42,1.48-4.74,3.76-4.74s3.62,1.26,3.62,4.22l-.07,1h-5.94c0,1.93.59,2.94,2.36,2.94C257.23,118.09,259.19,117.93,259.19,117.93Zm-1-3.86c0-2.23-.68-3-2.27-3s-2.39.84-2.41,3Z" fill="#3a3d3f"/><path d="M272.56,110.09v9h-1.35v-.63a6.07,6.07,0,0,1-2.66.81c-2.52,0-3-1.17-3-4.49v-4.7h1.35v4.69c0,2.48.21,3.29,1.89,3.29a5.4,5.4,0,0,0,2.46-.67v-7.31Z" fill="#3a3d3f"/><path d="M281.13,111.41a29.33,29.33,0,0,0-3.15-.29c-1.12,0-2,.31-2,1.37,0,.84.43,1.08,2.34,1.4,2.25.38,3.1.83,3.1,2.58,0,2.1-1.34,2.81-3.5,2.81a25,25,0,0,1-3.17-.35l.07-1.17a29.8,29.8,0,0,0,3,.31c1.47,0,2.26-.32,2.26-1.55,0-.93-.46-1.17-2.43-1.48s-3-.7-3-2.5c0-2,1.6-2.63,3.24-2.63a22.55,22.55,0,0,1,3.26.35Z" fill="#3a3d3f"/><path d="M289.28,111.26v4.31c0,2,.13,2.52,1.3,2.52.51,0,1.6-.11,1.6-.11l.09,1.12a16.23,16.23,0,0,1-1.83.19c-1.86,0-2.49-.7-2.49-3.29v-4.74h-1.28v-1.17H288v-2.75h1.33v2.75h2.87v1.17Z" fill="#3a3d3f"/><path d="M301.11,114.49c0,3.27-.81,4.79-3.85,4.79s-3.85-1.52-3.85-4.79c0-3.1,1-4.58,3.85-4.58S301.11,111.39,301.11,114.49Zm-1.38,0c0-2.51-.55-3.41-2.47-3.41s-2.47.9-2.47,3.41.34,3.62,2.47,3.62S299.73,117,299.73,114.49Z" fill="#3a3d3f"/><path d="M314.23,110.09v9h-1.35v-.63a6.07,6.07,0,0,1-2.66.81c-2.52,0-3.05-1.17-3.05-4.49v-4.7h1.36v4.69c0,2.48.21,3.29,1.89,3.29a5.4,5.4,0,0,0,2.46-.67v-7.31Z" fill="#3a3d3f"/><path d="M322.8,111.41a29.33,29.33,0,0,0-3.15-.29c-1.12,0-2,.31-2,1.37,0,.84.43,1.08,2.34,1.4,2.25.38,3.1.83,3.1,2.58,0,2.1-1.34,2.81-3.5,2.81a25,25,0,0,1-3.17-.35l.07-1.17a29.8,29.8,0,0,0,3,.31c1.47,0,2.26-.32,2.26-1.55,0-.93-.46-1.17-2.43-1.48s-3-.7-3-2.5c0-2,1.6-2.63,3.24-2.63a22.55,22.55,0,0,1,3.26.35Z" fill="#3a3d3f"/><path d="M331.84,117.93l0,1.06a31.12,31.12,0,0,1-3.51.29c-2.68,0-3.56-1.57-3.56-4.63,0-3.42,1.47-4.74,3.76-4.74s3.62,1.26,3.62,4.22l-.07,1h-5.94c0,1.93.59,2.94,2.35,2.94C329.87,118.09,331.84,117.93,331.84,117.93Zm-1-3.86c0-2.23-.68-3-2.27-3s-2.39.84-2.41,3Z" fill="#3a3d3f"/><path d="M340,111.26v4.31c0,2,.13,2.52,1.3,2.52.5,0,1.6-.11,1.6-.11l.09,1.12a16.23,16.23,0,0,1-1.83.19c-1.86,0-2.49-.7-2.49-3.29v-4.74h-1.28v-1.17h1.28v-2.75H340v2.75h2.87v1.17Z" fill="#3a3d3f"/><path d="M344.56,119.1V106.17h1.35v4.43a7.55,7.55,0,0,1,2.77-.69c2.47,0,3.05,1.23,3.05,4.43v4.76h-1.35v-4.72c0-2.38-.27-3.26-1.93-3.26a7.41,7.41,0,0,0-2.54.54v7.44Z" fill="#3a3d3f"/><path d="M360.87,117.93l0,1.06a31.38,31.38,0,0,1-3.51.29c-2.69,0-3.57-1.57-3.57-4.63,0-3.42,1.48-4.74,3.76-4.74s3.62,1.26,3.62,4.22l-.07,1H355.2c0,1.93.59,2.94,2.36,2.94C358.91,118.09,360.87,117.93,360.87,117.93Zm-1-3.86c0-2.23-.68-3-2.27-3s-2.39.84-2.41,3Z" fill="#3a3d3f"/><path d="M363.32,119.1v-9h1.33v.63a6,6,0,0,1,2.63-.81,2.53,2.53,0,0,1,2.34.92,7.46,7.46,0,0,1,3.2-.92c2.45,0,3.05,1.17,3.05,4.43v4.76h-1.35v-4.72c0-2.38-.27-3.26-1.89-3.26a5.89,5.89,0,0,0-2.54.67,10.29,10.29,0,0,1,.23,2.63v4.68H369v-4.65c0-2.48-.25-3.33-1.89-3.33a5.34,5.34,0,0,0-2.41.67v7.31Z" fill="#3a3d3f"/><path d="M388.68,117.42c0,.52.47.72,1.05.79l-.06,1.07a2.75,2.75,0,0,1-2.14-.72,9.2,9.2,0,0,1-3.24.72c-1.64,0-2.54-.94-2.54-2.76s.9-2.48,2.75-2.66l2.83-.27v-.78c0-1.26-.54-1.71-1.62-1.71-1.26,0-3.4.24-3.4.24l-.06-1a21.6,21.6,0,0,1,3.53-.4c2,0,2.9.94,2.9,2.9Zm-4-2.55c-1.1.1-1.53.63-1.53,1.62s.45,1.65,1.36,1.65a9.48,9.48,0,0,0,2.83-.56v-3Z" fill="#3a3d3f"/><path d="M393.14,111.26v4.31c0,2,.13,2.52,1.3,2.52.5,0,1.6-.11,1.6-.11l.09,1.12a16.23,16.23,0,0,1-1.83.19c-1.86,0-2.49-.7-2.49-3.29v-4.74h-1.28v-1.17h1.28v-2.75h1.33v2.75H396v1.17Z" fill="#3a3d3f"/><path d="M408,117.42c0,.52.46.72,1,.79l0,1.07a2.73,2.73,0,0,1-2.14-.72,9.29,9.29,0,0,1-3.25.72c-1.64,0-2.54-.94-2.54-2.76s.9-2.48,2.76-2.66l2.83-.27v-.78c0-1.26-.54-1.71-1.62-1.71-1.26,0-3.41.24-3.41.24l-.05-1a21.6,21.6,0,0,1,3.53-.4c2,0,2.9.94,2.9,2.9Zm-4-2.55c-1.1.1-1.53.63-1.53,1.62s.45,1.65,1.37,1.65a9.57,9.57,0,0,0,2.83-.56v-3Z" fill="#3a3d3f"/><path d="M410.75,106.17h1.35V119.1h-1.35Z" fill="#3a3d3f"/><path d="M414.8,119.1v-9h1.33v.63a6,6,0,0,1,2.63-.81,2.54,2.54,0,0,1,2.34.92,7.46,7.46,0,0,1,3.2-.92c2.45,0,3.05,1.17,3.05,4.43v4.76H426v-4.72c0-2.38-.27-3.26-1.89-3.26a5.89,5.89,0,0,0-2.54.67,10.29,10.29,0,0,1,.23,2.63v4.68h-1.35v-4.65c0-2.48-.25-3.33-1.89-3.33a5.34,5.34,0,0,0-2.41.67v7.31Z" fill="#3a3d3f"/><path d="M437.16,114.49c0,3.27-.82,4.79-3.86,4.79s-3.85-1.52-3.85-4.79c0-3.1,1-4.58,3.85-4.58S437.16,111.39,437.16,114.49Zm-1.39,0c0-2.51-.54-3.41-2.47-3.41s-2.46.9-2.46,3.41.34,3.62,2.46,3.62S435.77,117,435.77,114.49Z" fill="#3a3d3f"/><path d="M445.33,111.41a29.33,29.33,0,0,0-3.16-.29c-1.11,0-2,.31-2,1.37,0,.84.44,1.08,2.34,1.4,2.25.38,3.1.83,3.1,2.58,0,2.1-1.33,2.81-3.49,2.81a25,25,0,0,1-3.17-.35l.07-1.17a29.5,29.5,0,0,0,3,.31c1.48,0,2.27-.32,2.27-1.55,0-.93-.47-1.17-2.43-1.48s-3-.7-3-2.5c0-2,1.61-2.63,3.24-2.63a22.55,22.55,0,0,1,3.26.35Z" fill="#3a3d3f"/><path d="M449.52,111.26v4.31c0,2,.13,2.52,1.3,2.52.5,0,1.6-.11,1.6-.11l.09,1.12a16.5,16.5,0,0,1-1.84.19c-1.85,0-2.48-.7-2.48-3.29v-4.74h-1.28v-1.17h1.28v-2.75h1.33v2.75h2.86v1.17Z" fill="#3a3d3f"/><path d="M459.73,119.1h-1.35v-7.84h-1.14v-1.17h1.14v-.81c0-2.59.66-3.29,2.43-3.29.61,0,1.81.13,1.81.13v1.11s-1,0-1.55,0c-1,0-1.33.43-1.33,2.1v.79h2.61v1.17h-2.61Z" fill="#3a3d3f"/><path d="M470.92,110.09v9h-1.35v-.63a6.07,6.07,0,0,1-2.66.81c-2.52,0-3.05-1.17-3.05-4.49v-4.7h1.36v4.69c0,2.48.21,3.29,1.89,3.29a5.4,5.4,0,0,0,2.46-.67v-7.31Z" fill="#3a3d3f"/><path d="M473.62,106.17H475V119.1h-1.35Z" fill="#3a3d3f"/><path d="M477.78,106.17h1.35V119.1h-1.35Z" fill="#3a3d3f"/><path d="M160.73,138.09h1.33v.65a6.12,6.12,0,0,1,2.7-.83c2.27,0,3.26,1.39,3.26,4.58,0,3.53-1.15,4.79-3.92,4.79a12,12,0,0,1-2-.2v4h-1.35Zm1.35,1.75v6.07a14.27,14.27,0,0,0,1.94.2c2,0,2.63-1,2.63-3.62s-.77-3.37-2.08-3.37A5.87,5.87,0,0,0,162.08,139.84Z" fill="#3a3d3f"/><path d="M176.86,145.93l0,1.06a31.4,31.4,0,0,1-3.52.29c-2.68,0-3.56-1.57-3.56-4.63,0-3.42,1.48-4.74,3.76-4.74s3.62,1.26,3.62,4.22l-.07,1h-5.94c0,1.93.59,2.94,2.36,2.94C174.9,146.09,176.86,145.93,176.86,145.93Zm-1-3.86c0-2.23-.68-3-2.27-3s-2.39.84-2.41,3Z" fill="#3a3d3f"/><path d="M179.31,138.09h1.33v1.23a10.06,10.06,0,0,1,3.29-1.42v1.36a13.24,13.24,0,0,0-3.27,1.23v6.61h-1.35Z" fill="#3a3d3f"/><path d="M187.26,147.1h-1.35v-7.84h-1.13v-1.17h1.13v-.81c0-2.59.67-3.29,2.43-3.29.61,0,1.82.13,1.82.13l0,1.11s-1,0-1.55,0c-1,0-1.33.43-1.33,2.1v.79h2.61v1.17h-2.61Z" fill="#3a3d3f"/><path d="M198.8,142.49c0,3.27-.81,4.79-3.85,4.79s-3.86-1.52-3.86-4.79c0-3.1,1-4.58,3.86-4.58S198.8,139.39,198.8,142.49Zm-1.38,0c0-2.51-.55-3.41-2.47-3.41s-2.47.9-2.47,3.41.34,3.62,2.47,3.62S197.42,145,197.42,142.49Z" fill="#3a3d3f"/><path d="M201,138.09h1.33v1.23a10.06,10.06,0,0,1,3.29-1.42v1.36a13.41,13.41,0,0,0-3.28,1.23v6.61H201Z" fill="#3a3d3f"/><path d="M207.22,147.1v-9h1.34v.63a6,6,0,0,1,2.62-.81,2.52,2.52,0,0,1,2.34.92,7.53,7.53,0,0,1,3.21-.92c2.45,0,3,1.17,3,4.43v4.76h-1.35v-4.72c0-2.38-.27-3.26-1.89-3.26a6,6,0,0,0-2.54.67,9.75,9.75,0,0,1,.24,2.63v4.68h-1.35v-4.65c0-2.48-.26-3.33-1.89-3.33a5.4,5.4,0,0,0-2.42.67v7.31Z" fill="#3a3d3f"/><path d="M228.63,145.42c0,.52.46.72,1,.79l0,1.07a2.76,2.76,0,0,1-2.15-.72,9.2,9.2,0,0,1-3.24.72c-1.64,0-2.54-.94-2.54-2.76s.9-2.48,2.76-2.66l2.83-.27v-.78c0-1.26-.54-1.71-1.62-1.71-1.26,0-3.41.24-3.41.24l-.05-1a21.6,21.6,0,0,1,3.53-.4c2,0,2.9.94,2.9,2.9Zm-4-2.55c-1.1.1-1.53.63-1.53,1.62s.45,1.65,1.37,1.65a9.57,9.57,0,0,0,2.83-.56v-3Z" fill="#3a3d3f"/><path d="M231.29,147.1v-9h1.33v.63a6.85,6.85,0,0,1,2.79-.81c2.49,0,3,1.23,3,4.43v4.76h-1.33v-4.72c0-2.38-.27-3.26-1.94-3.26a6.12,6.12,0,0,0-2.54.67v7.31Z" fill="#3a3d3f"/><path d="M246.77,138.18l-.05,1.1s-1.45-.16-2.13-.16c-2.07,0-2.63.9-2.63,3.31,0,2.67.42,3.64,2.65,3.64.68,0,2.12-.16,2.12-.16l.06,1.11a23.34,23.34,0,0,1-2.51.26c-2.86,0-3.7-1.32-3.7-4.85,0-3.26,1.06-4.52,3.74-4.52A20.89,20.89,0,0,1,246.77,138.18Z" fill="#3a3d3f"/><path d="M255.45,145.93l0,1.06a31.12,31.12,0,0,1-3.51.29c-2.68,0-3.56-1.57-3.56-4.63,0-3.42,1.47-4.74,3.76-4.74s3.62,1.26,3.62,4.22l-.07,1h-5.95c0,1.93.6,2.94,2.36,2.94C253.48,146.09,255.45,145.93,255.45,145.93Zm-1-3.86c0-2.23-.69-3-2.27-3s-2.4.84-2.41,3Z" fill="#3a3d3f"/><path d="M268.21,145.42c0,.52.46.72,1,.79l-.05,1.07a2.73,2.73,0,0,1-2.14-.72,9.29,9.29,0,0,1-3.25.72c-1.64,0-2.54-.94-2.54-2.76s.9-2.48,2.76-2.66l2.83-.27v-.78c0-1.26-.54-1.71-1.62-1.71-1.26,0-3.41.24-3.41.24l-.05-1a21.6,21.6,0,0,1,3.53-.4c2,0,2.9.94,2.9,2.9Zm-4-2.55c-1.1.1-1.53.63-1.53,1.62s.45,1.65,1.37,1.65a9.57,9.57,0,0,0,2.83-.56v-3Z" fill="#3a3d3f"/><path d="M270.87,147.1v-9h1.33v.63a6.85,6.85,0,0,1,2.79-.81c2.49,0,3.05,1.23,3.05,4.43v4.76H276.7v-4.72c0-2.38-.27-3.26-1.94-3.26a6.12,6.12,0,0,0-2.54.67v7.31Z" fill="#3a3d3f"/><path d="M287.45,147.1h-1.33v-.62a6.44,6.44,0,0,1-2.74.8c-1.76,0-3.24-.72-3.24-4.61,0-3.17,1-4.76,3.76-4.76a14.13,14.13,0,0,1,2.22.24v-4h1.33Zm-1.33-1.7v-6.1a15.93,15.93,0,0,0-2.15-.22c-1.89,0-2.44,1.25-2.44,3.59,0,2.91,1,3.4,2,3.4A6.54,6.54,0,0,0,286.12,145.4Z" fill="#3a3d3f"/><path d="M299.83,138.18l-.05,1.1s-1.44-.16-2.13-.16c-2.07,0-2.63.9-2.63,3.31,0,2.67.42,3.64,2.65,3.64.69,0,2.13-.16,2.13-.16l.05,1.11a23.06,23.06,0,0,1-2.5.26c-2.86,0-3.71-1.32-3.71-4.85,0-3.26,1.06-4.52,3.74-4.52A20.89,20.89,0,0,1,299.83,138.18Z" fill="#3a3d3f"/><path d="M308.22,145.42c0,.52.47.72,1,.79l-.05,1.07a2.75,2.75,0,0,1-2.14-.72,9.2,9.2,0,0,1-3.24.72c-1.64,0-2.54-.94-2.54-2.76s.9-2.48,2.75-2.66l2.83-.27v-.78c0-1.26-.54-1.71-1.62-1.71-1.26,0-3.4.24-3.4.24l-.06-1a21.6,21.6,0,0,1,3.53-.4c2,0,2.9.94,2.9,2.9Zm-4-2.55a1.44,1.44,0,0,0-1.53,1.62c0,1,.45,1.65,1.37,1.65a9.48,9.48,0,0,0,2.83-.56v-3Z" fill="#3a3d3f"/><path d="M310.88,138.09h1.33v1.23a10.17,10.17,0,0,1,3.3-1.42v1.36a13.41,13.41,0,0,0-3.28,1.23v6.61h-1.35Z" fill="#3a3d3f"/><path d="M317.11,138.09h1.33v1.23a10.17,10.17,0,0,1,3.3-1.42v1.36a13.21,13.21,0,0,0-3.28,1.23v6.61h-1.35Z" fill="#3a3d3f"/><path d="M323.84,138.09l2.25,7.84h.6l2.26-7.84h1.36l-3.75,13h-1.35l1.17-4h-1.33l-2.56-9Z" fill="#3a3d3f"/><path d="M340.4,135.21h1.3V147.1h-1.39V136.76l-3.06,2-.63-1.05Z" fill="#3a3d3f"/><path d="M351.26,144.77h-5.77v-1.08l3.39-8.48h1.51L347,143.55h4.31v-3.71h1.38v3.71h1.52v1.22h-1.52v2.33h-1.38Z" fill="#3a3d3f"/><path d="M364.16,138.11c0,1.53-.59,2.16-2,2.77a3,3,0,0,1,2.16,3c0,2.61-2,3.41-4.48,3.41s-4.43-.74-4.43-3.21a3.18,3.18,0,0,1,2.05-3.19,2.75,2.75,0,0,1-1.85-2.79c0-2.05,1.64-3.07,4.23-3.07S364.16,136,364.16,138.11Zm-1.29,5.62c0-1.39-.92-1.84-2.11-2.18h-1.89c-1.24.34-2,1-2,2.29,0,1.64,1.26,2.18,2.95,2.18S362.87,145.48,362.87,143.73Zm-5.77-5.47c0,1.09.6,1.67,1.77,2.08h1.89c1.22-.39,1.93-1,1.93-2.07,0-1.42-1.07-2-2.81-2S357.1,136.83,357.1,138.26Z" fill="#3a3d3f"/><path d="M370.19,147.1v-9h1.33v.63a6,6,0,0,1,2.63-.81,2.53,2.53,0,0,1,2.34.92,7.47,7.47,0,0,1,3.21-.92c2.45,0,3,1.17,3,4.43v4.76h-1.35v-4.72c0-2.38-.27-3.26-1.89-3.26a6,6,0,0,0-2.54.67,10.29,10.29,0,0,1,.23,2.63v4.68h-1.35v-4.65c0-2.48-.25-3.33-1.89-3.33a5.34,5.34,0,0,0-2.41.67v7.31Z" fill="#3a3d3f"/><path d="M392.55,142.49c0,3.27-.81,4.79-3.86,4.79s-3.85-1.52-3.85-4.79c0-3.1,1-4.58,3.85-4.58S392.55,139.39,392.55,142.49Zm-1.39,0c0-2.51-.54-3.41-2.47-3.41s-2.46.9-2.46,3.41.34,3.62,2.46,3.62S391.16,145,391.16,142.49Z" fill="#3a3d3f"/><path d="M394.74,138.09h1.34v1.23a10.06,10.06,0,0,1,3.29-1.42v1.36a13.41,13.41,0,0,0-3.28,1.23v6.61h-1.35Z" fill="#3a3d3f"/><path d="M407.61,145.93l0,1.06a31.12,31.12,0,0,1-3.51.29c-2.68,0-3.57-1.57-3.57-4.63,0-3.42,1.48-4.74,3.77-4.74s3.62,1.26,3.62,4.22l-.08,1h-5.94c0,1.93.6,2.94,2.36,2.94C405.65,146.09,407.61,145.93,407.61,145.93Zm-1-3.86c0-2.23-.68-3-2.26-3s-2.4.84-2.42,3Z" fill="#3a3d3f"/><path d="M421.28,142.45c0,3.58-1,4.83-4.25,4.83-1.08,0-3-.2-3-.2V134.17h1.33v4.37a7.44,7.44,0,0,1,2.65-.63C420.45,137.91,421.28,139.21,421.28,142.45Zm-1.37,0c0-2.32-.47-3.33-2.06-3.33a7.57,7.57,0,0,0-2.5.52V146s1.17.09,1.66.09C419.48,146.07,419.91,145,419.91,142.45Z" fill="#3a3d3f"/><path d="M429.84,145.42c0,.52.47.72,1.05.79l-.06,1.07a2.75,2.75,0,0,1-2.14-.72,9.2,9.2,0,0,1-3.24.72c-1.64,0-2.54-.94-2.54-2.76s.9-2.48,2.76-2.66l2.82-.27v-.78c0-1.26-.54-1.71-1.62-1.71-1.26,0-3.4.24-3.4.24l-.05-1a21.57,21.57,0,0,1,3.52-.4c2,0,2.9.94,2.9,2.9Zm-4-2.55c-1.1.1-1.53.63-1.53,1.62s.45,1.65,1.37,1.65a9.47,9.47,0,0,0,2.82-.56v-3Z" fill="#3a3d3f"/><path d="M432.11,148.61c0-1.05.48-1.53,1.42-2.23a1.49,1.49,0,0,1-.5-1.25,5.82,5.82,0,0,1,.61-1.42c-.76-.34-1.42-1.06-1.42-2.72,0-2.21,1.37-3.08,3.36-3.08a9.22,9.22,0,0,1,1.88.24l2.66-.07v1.15l-1.71,0a2.35,2.35,0,0,1,.6,1.8c0,2.34-1.17,3-3.48,3a6.69,6.69,0,0,1-.88-.08,5.44,5.44,0,0,0-.33,1c0,.72.15.83,2.18.83,2.56,0,3.48.5,3.48,2.64s-1.46,2.87-4,2.87C433.14,151.33,432.11,150.7,432.11,148.61Zm2.34-1.69c-.76.55-1,.88-1,1.58,0,1.24.52,1.69,2.56,1.69,1.8,0,2.61-.48,2.61-1.67,0-1.37-.58-1.51-2.22-1.51C435.76,147,434.45,146.92,434.45,146.92Zm3.21-5.93c0-1.42-.56-2-2.08-2s-2,.56-2,2,.61,2,2,2S437.66,142.42,437.66,141Z" fill="#3a3d3f"/><path d="M447.74,139.41a29.33,29.33,0,0,0-3.16-.29c-1.11,0-2,.31-2,1.37,0,.84.43,1.08,2.34,1.4,2.25.38,3.1.83,3.1,2.58,0,2.1-1.33,2.81-3.49,2.81a24.7,24.7,0,0,1-3.17-.35l.07-1.17a29.5,29.5,0,0,0,3,.31c1.48,0,2.27-.32,2.27-1.55,0-.93-.47-1.17-2.43-1.48s-3-.7-3-2.5c0-2,1.6-2.63,3.24-2.63a22.55,22.55,0,0,1,3.26.35Z" fill="#3a3d3f"/><path d="M450,145h1.47v2.06H450Z" fill="#3a3d3f"/><path d="M1285.16,78.64h9v1.24h-3.79V91.1H1289V79.88h-3.84Z" fill="#3a3d3f"/><path d="M1303,86.49c0,3.27-.81,4.79-3.85,4.79s-3.85-1.52-3.85-4.79c0-3.1,1-4.58,3.85-4.58S1303,83.39,1303,86.49Zm-1.38,0c0-2.51-.54-3.41-2.47-3.41s-2.47.9-2.47,3.41.34,3.62,2.47,3.62S1301.62,89,1301.62,86.49Z" fill="#3a3d3f"/><path d="M1312.11,91.1h-1.33v-.62a6.44,6.44,0,0,1-2.74.8c-1.76,0-3.24-.72-3.24-4.61,0-3.17,1-4.76,3.76-4.76a14.13,14.13,0,0,1,2.22.24v-4h1.33Zm-1.33-1.7V83.3a15.93,15.93,0,0,0-2.15-.22c-1.89,0-2.44,1.25-2.44,3.59,0,2.91,1,3.4,2,3.4A6.54,6.54,0,0,0,1310.78,89.4Z" fill="#3a3d3f"/><path d="M1321.07,89.42c0,.52.47.72,1,.79l-.06,1.07a2.75,2.75,0,0,1-2.14-.72,9.2,9.2,0,0,1-3.24.72c-1.64,0-2.54-.94-2.54-2.76s.9-2.48,2.76-2.66l2.82-.27v-.78c0-1.26-.54-1.71-1.62-1.71-1.26,0-3.4.24-3.4.24l0-1a21.57,21.57,0,0,1,3.52-.4c2,0,2.9.94,2.9,2.9Zm-4-2.55c-1.1.1-1.53.63-1.53,1.62s.45,1.65,1.37,1.65a9.47,9.47,0,0,0,2.82-.56v-3Z" fill="#3a3d3f"/><path d="M1324.24,82.09l2.25,7.84h.59l2.27-7.84h1.35l-3.74,13h-1.35l1.17-4h-1.33l-2.56-9Z" fill="#3a3d3f"/><path d="M1338.19,83.26v4.31c0,2,.12,2.52,1.3,2.52.5,0,1.6-.11,1.6-.11l.09,1.12a16.5,16.5,0,0,1-1.84.19c-1.85,0-2.48-.7-2.48-3.29V83.26h-1.28V82.09h1.28V79.34h1.33v2.75h2.86v1.17Z" fill="#3a3d3f"/><path d="M1342.71,91.1V78.17h1.35V82.6a7.55,7.55,0,0,1,2.77-.69c2.47,0,3,1.23,3,4.43V91.1h-1.35V86.38c0-2.38-.27-3.26-1.92-3.26a7.41,7.41,0,0,0-2.54.54V91.1Z" fill="#3a3d3f"/><path d="M1359,89.93l0,1.06a31.12,31.12,0,0,1-3.51.29c-2.68,0-3.56-1.57-3.56-4.63,0-3.42,1.47-4.74,3.76-4.74s3.62,1.26,3.62,4.22l-.07,1h-6c0,1.93.6,2.94,2.36,2.94C1357.05,90.09,1359,89.93,1359,89.93Zm-1-3.86c0-2.23-.69-3-2.27-3s-2.4.84-2.41,3Z" fill="#3a3d3f"/><path d="M1361.46,82.09h1.34v1.23a10.06,10.06,0,0,1,3.29-1.42v1.36a13.41,13.41,0,0,0-3.28,1.23V91.1h-1.35Z" fill="#3a3d3f"/><path d="M1374.33,89.93l0,1.06a31.12,31.12,0,0,1-3.51.29c-2.68,0-3.57-1.57-3.57-4.63,0-3.42,1.48-4.74,3.77-4.74s3.62,1.26,3.62,4.22l-.08,1h-5.94c0,1.93.6,2.94,2.36,2.94C1372.37,90.09,1374.33,89.93,1374.33,89.93Zm-1-3.86c0-2.23-.69-3-2.27-3s-2.4.84-2.42,3Z" fill="#3a3d3f"/><path d="M1387.1,89.42c0,.52.46.72,1,.79l-.05,1.07a2.76,2.76,0,0,1-2.15-.72,9.2,9.2,0,0,1-3.24.72c-1.64,0-2.54-.94-2.54-2.76s.9-2.48,2.76-2.66l2.83-.27v-.78c0-1.26-.54-1.71-1.62-1.71-1.27,0-3.41.24-3.41.24l0-1a21.6,21.6,0,0,1,3.53-.4c2,0,2.9.94,2.9,2.9Zm-4-2.55c-1.1.1-1.53.63-1.53,1.62s.45,1.65,1.37,1.65a9.57,9.57,0,0,0,2.83-.56v-3Z" fill="#3a3d3f"/><path d="M1389.76,82.09h1.33v1.23a10.18,10.18,0,0,1,3.29-1.42v1.36a13.24,13.24,0,0,0-3.27,1.23V91.1h-1.35Z" fill="#3a3d3f"/><path d="M1402.63,89.93l0,1.06a31.4,31.4,0,0,1-3.52.29c-2.68,0-3.56-1.57-3.56-4.63,0-3.42,1.48-4.74,3.76-4.74s3.62,1.26,3.62,4.22l-.07,1H1397c0,1.93.59,2.94,2.36,2.94C1400.67,90.09,1402.63,89.93,1402.63,89.93Zm-1-3.86c0-2.23-.68-3-2.27-3s-2.39.84-2.41,3Z" fill="#3a3d3f"/><path d="M1410.84,83.26v4.31c0,2,.12,2.52,1.29,2.52.51,0,1.6-.11,1.6-.11l.09,1.12a16.23,16.23,0,0,1-1.83.19c-1.86,0-2.49-.7-2.49-3.29V83.26h-1.28V82.09h1.28V79.34h1.34v2.75h2.86v1.17Z" fill="#3a3d3f"/><path d="M1415.35,78.49h1.35v1.57h-1.35Zm0,3.6h1.35v9h-1.35Z" fill="#3a3d3f"/><path d="M1419.3,91.1v-9h1.33v.63a6,6,0,0,1,2.63-.81,2.54,2.54,0,0,1,2.34.92,7.46,7.46,0,0,1,3.2-.92c2.45,0,3,1.17,3,4.43V91.1h-1.35V86.38c0-2.38-.27-3.26-1.89-3.26a6,6,0,0,0-2.54.67,9.75,9.75,0,0,1,.24,2.63V91.1H1425V86.45c0-2.48-.25-3.33-1.89-3.33a5.4,5.4,0,0,0-2.42.67V91.1Z" fill="#3a3d3f"/><path d="M1441,89.93l0,1.06a31.12,31.12,0,0,1-3.51.29c-2.68,0-3.56-1.57-3.56-4.63,0-3.42,1.47-4.74,3.76-4.74s3.62,1.26,3.62,4.22l-.07,1h-6c0,1.93.6,2.94,2.36,2.94C1439,90.09,1441,89.93,1441,89.93Zm-1-3.86c0-2.23-.69-3-2.27-3s-2.4.84-2.41,3Z" fill="#3a3d3f"/><path d="M1453.37,83.41a29.33,29.33,0,0,0-3.15-.29c-1.12,0-2,.31-2,1.37,0,.84.43,1.08,2.34,1.4,2.25.38,3.09.83,3.09,2.58,0,2.1-1.33,2.81-3.49,2.81a25,25,0,0,1-3.17-.35l.07-1.17a29.8,29.8,0,0,0,3,.31c1.47,0,2.26-.32,2.26-1.55,0-.93-.46-1.17-2.43-1.48s-3-.7-3-2.5c0-2,1.6-2.63,3.24-2.63a22.55,22.55,0,0,1,3.26.35Z" fill="#3a3d3f"/><path d="M1455.87,78.17h1.35V91.1h-1.35Z" fill="#3a3d3f"/><path d="M1467.23,86.49c0,3.27-.81,4.79-3.85,4.79s-3.86-1.52-3.86-4.79c0-3.1,1-4.58,3.86-4.58S1467.23,83.39,1467.23,86.49Zm-1.39,0c0-2.51-.54-3.41-2.46-3.41s-2.47.9-2.47,3.41.34,3.62,2.47,3.62S1465.84,89,1465.84,86.49Z" fill="#3a3d3f"/><path d="M1471.22,83.26v4.31c0,2,.13,2.52,1.3,2.52.51,0,1.6-.11,1.6-.11l.09,1.12a16.23,16.23,0,0,1-1.83.19c-1.86,0-2.49-.7-2.49-3.29V83.26h-1.28V82.09h1.28V79.34h1.33v2.75h2.87v1.17Z" fill="#3a3d3f"/><path d="M1481.72,83.41a29.33,29.33,0,0,0-3.15-.29c-1.12,0-2,.31-2,1.37,0,.84.43,1.08,2.34,1.4,2.25.38,3.1.83,3.1,2.58,0,2.1-1.34,2.81-3.5,2.81a25,25,0,0,1-3.17-.35l.08-1.17a29.5,29.5,0,0,0,3,.31c1.47,0,2.26-.32,2.26-1.55,0-.93-.46-1.17-2.43-1.48s-3-.7-3-2.5c0-2,1.6-2.63,3.24-2.63a22.55,22.55,0,0,1,3.26.35Z" fill="#3a3d3f"/><path d="M1489.87,83.26v4.31c0,2,.13,2.52,1.3,2.52.5,0,1.6-.11,1.6-.11l.09,1.12a16.23,16.23,0,0,1-1.83.19c-1.86,0-2.49-.7-2.49-3.29V83.26h-1.28V82.09h1.28V79.34h1.33v2.75h2.87v1.17Z" fill="#3a3d3f"/><path d="M1494.39,91.1V78.17h1.35V82.6a7.55,7.55,0,0,1,2.77-.69c2.47,0,3,1.23,3,4.43V91.1h-1.35V86.38c0-2.38-.27-3.26-1.93-3.26a7.41,7.41,0,0,0-2.54.54V91.1Z" fill="#3a3d3f"/><path d="M1510.41,89.42c0,.52.47.72,1,.79l-.06,1.07a2.75,2.75,0,0,1-2.14-.72,9.2,9.2,0,0,1-3.24.72c-1.64,0-2.54-.94-2.54-2.76s.9-2.48,2.76-2.66l2.82-.27v-.78c0-1.26-.54-1.71-1.62-1.71-1.26,0-3.4.24-3.4.24l0-1a21.57,21.57,0,0,1,3.52-.4c2,0,2.9.94,2.9,2.9Zm-4-2.55c-1.1.1-1.53.63-1.53,1.62s.45,1.65,1.37,1.65a9.47,9.47,0,0,0,2.82-.56v-3Z" fill="#3a3d3f"/><path d="M1514.88,83.26v4.31c0,2,.12,2.52,1.29,2.52.51,0,1.6-.11,1.6-.11l.09,1.12a16.23,16.23,0,0,1-1.83.19c-1.86,0-2.49-.7-2.49-3.29V83.26h-1.28V82.09h1.28V79.34h1.34v2.75h2.86v1.17Z" fill="#3a3d3f"/><path d="M1529.71,89.42c0,.52.47.72,1,.79l0,1.07a2.75,2.75,0,0,1-2.14-.72,9.2,9.2,0,0,1-3.24.72c-1.64,0-2.54-.94-2.54-2.76s.9-2.48,2.75-2.66l2.83-.27v-.78c0-1.26-.54-1.71-1.62-1.71-1.26,0-3.4.24-3.4.24l-.06-1a21.6,21.6,0,0,1,3.53-.4c2,0,2.9.94,2.9,2.9Zm-4-2.55a1.44,1.44,0,0,0-1.53,1.62c0,1,.45,1.65,1.37,1.65a9.57,9.57,0,0,0,2.83-.56v-3Z" fill="#3a3d3f"/><path d="M1532.37,82.09h1.33v1.23a10.17,10.17,0,0,1,3.3-1.42v1.36a13.41,13.41,0,0,0-3.28,1.23V91.1h-1.35Z" fill="#3a3d3f"/><path d="M1545.24,89.93l0,1.06a31.12,31.12,0,0,1-3.51.29c-2.69,0-3.57-1.57-3.57-4.63,0-3.42,1.48-4.74,3.76-4.74s3.62,1.26,3.62,4.22l-.07,1h-5.94c0,1.93.6,2.94,2.36,2.94C1543.28,90.09,1545.24,89.93,1545.24,89.93Zm-1-3.86c0-2.23-.68-3-2.27-3s-2.39.84-2.41,3Z" fill="#3a3d3f"/><path d="M1551.65,91.1v-9H1553v.63a6.85,6.85,0,0,1,2.79-.81c2.49,0,3,1.23,3,4.43V91.1h-1.33V86.38c0-2.38-.27-3.26-1.94-3.26a6.12,6.12,0,0,0-2.54.67V91.1Z" fill="#3a3d3f"/><path d="M1568.62,86.49c0,3.27-.81,4.79-3.85,4.79s-3.85-1.52-3.85-4.79c0-3.1,1-4.58,3.85-4.58S1568.62,83.39,1568.62,86.49Zm-1.38,0c0-2.51-.54-3.41-2.47-3.41s-2.47.9-2.47,3.41.35,3.62,2.47,3.62S1567.24,89,1567.24,86.49Z" fill="#3a3d3f"/><path d="M1572.62,83.26v4.31c0,2,.12,2.52,1.3,2.52.5,0,1.6-.11,1.6-.11l.09,1.12a16.5,16.5,0,0,1-1.84.19c-1.85,0-2.48-.7-2.48-3.29V83.26H1570V82.09h1.28V79.34h1.33v2.75h2.86v1.17Z" fill="#3a3d3f"/><path d="M1581.1,91.1V78.17h1.35V82.6a7.55,7.55,0,0,1,2.77-.69c2.47,0,3,1.23,3,4.43V91.1h-1.35V86.38c0-2.38-.27-3.26-1.92-3.26a7.41,7.41,0,0,0-2.54.54V91.1Z" fill="#3a3d3f"/><path d="M1590.76,78.49h1.35v1.57h-1.35Zm0,3.6h1.35v9h-1.35Z" fill="#3a3d3f"/><path d="M1594.31,92.61c0-1,.49-1.53,1.42-2.23a1.49,1.49,0,0,1-.5-1.25,5.82,5.82,0,0,1,.61-1.42c-.76-.34-1.42-1.06-1.42-2.72,0-2.21,1.37-3.08,3.36-3.08a9.22,9.22,0,0,1,1.88.24l2.66-.07v1.15l-1.71,0a2.35,2.35,0,0,1,.59,1.8c0,2.34-1.17,3.05-3.47,3.05a6.85,6.85,0,0,1-.88-.08,5.44,5.44,0,0,0-.33,1c0,.72.15.83,2.18.83,2.56,0,3.48.5,3.48,2.64s-1.46,2.87-4,2.87C1595.34,95.33,1594.31,94.7,1594.31,92.61Zm2.34-1.69c-.76.55-1,.88-1,1.58,0,1.24.52,1.69,2.56,1.69,1.8,0,2.61-.48,2.61-1.67,0-1.37-.58-1.51-2.22-1.51C1598,91,1596.65,90.92,1596.65,90.92Zm3.2-5.93c0-1.42-.55-2-2.07-2s-2,.56-2,2,.61,2,2,2S1599.85,86.42,1599.85,85Z" fill="#3a3d3f"/><path d="M1604,91.1V78.17h1.35V82.6a7.55,7.55,0,0,1,2.77-.69c2.47,0,3,1.23,3,4.43V91.1h-1.35V86.38c0-2.38-.27-3.26-1.92-3.26a7.41,7.41,0,0,0-2.54.54V91.1Z" fill="#3a3d3f"/><path d="M1613.73,78.17h1.35V91.1h-1.35Z" fill="#3a3d3f"/><path d="M1618.29,82.09l2.25,7.84h.59l2.27-7.84h1.35l-3.75,13h-1.35l1.17-4h-1.33l-2.56-9Z" fill="#3a3d3f"/><path d="M1637.69,86.45c0,3.58-1,4.83-4.25,4.83-1.08,0-3-.2-3-.2V78.17h1.34v4.37a7.36,7.36,0,0,1,2.64-.63C1636.86,81.91,1637.69,83.21,1637.69,86.45Zm-1.37,0c0-2.32-.47-3.33-2-3.33a7.57,7.57,0,0,0-2.5.52V90s1.17.09,1.65.09C1635.89,90.07,1636.32,89,1636.32,86.45Z" fill="#3a3d3f"/><path d="M1646.87,82.09v9h-1.35v-.63a6.08,6.08,0,0,1-2.67.81c-2.52,0-3-1.17-3-4.49v-4.7h1.35v4.69c0,2.48.22,3.29,1.89,3.29a5.47,5.47,0,0,0,2.47-.67V82.09Z" fill="#3a3d3f"/><path d="M1655.44,83.41a29.33,29.33,0,0,0-3.15-.29c-1.12,0-2,.31-2,1.37,0,.84.44,1.08,2.34,1.4,2.26.38,3.1.83,3.1,2.58,0,2.1-1.33,2.81-3.49,2.81a25,25,0,0,1-3.17-.35l.07-1.17a29.5,29.5,0,0,0,3,.31c1.48,0,2.27-.32,2.27-1.55,0-.93-.47-1.17-2.43-1.48s-3-.7-3-2.5c0-2,1.61-2.63,3.24-2.63a22.55,22.55,0,0,1,3.26.35Z" fill="#3a3d3f"/><path d="M1658.33,82.09l2.25,7.84h.6l2.27-7.84h1.35l-3.75,13h-1.35l1.17-4h-1.33l-2.56-9Z" fill="#3a3d3f"/><path d="M1666.43,89h1.48V91.1h-1.48Z" fill="#3a3d3f"/><path d="M1673.31,78.64h9v1.24h-3.8V91.1h-1.37V79.88h-3.83Z" fill="#3a3d3f"/><path d="M1683.84,91.1V78.17h1.35V82.6a7.55,7.55,0,0,1,2.77-.69c2.47,0,3,1.23,3,4.43V91.1h-1.36V86.38c0-2.38-.27-3.26-1.92-3.26a7.41,7.41,0,0,0-2.54.54V91.1Z" fill="#3a3d3f"/><path d="M1693.5,78.49h1.35v1.57h-1.35Zm0,3.6h1.35v9h-1.35Z" fill="#3a3d3f"/><path d="M1703.42,83.41a29,29,0,0,0-3.15-.29c-1.11,0-2,.31-2,1.37,0,.84.43,1.08,2.34,1.4,2.25.38,3.1.83,3.1,2.58,0,2.1-1.33,2.81-3.49,2.81a24.7,24.7,0,0,1-3.17-.35l.07-1.17a29.5,29.5,0,0,0,3,.31c1.48,0,2.27-.32,2.27-1.55,0-.93-.47-1.17-2.43-1.48s-3-.7-3-2.5c0-2,1.6-2.63,3.24-2.63a22.55,22.55,0,0,1,3.26.35Z" fill="#3a3d3f"/><path d="M1292.87,117.93l0,1.06a31.12,31.12,0,0,1-3.51.29c-2.68,0-3.56-1.57-3.56-4.63,0-3.42,1.47-4.74,3.76-4.74s3.62,1.26,3.62,4.22l-.07,1h-5.94c0,1.93.59,2.94,2.35,2.94C1290.91,118.09,1292.87,117.93,1292.87,117.93Zm-1-3.86c0-2.23-.68-3-2.27-3s-2.39.84-2.41,3Z" fill="#3a3d3f"/><path d="M1295.31,119.1v-9h1.34v.63a6.79,6.79,0,0,1,2.79-.81c2.48,0,3,1.23,3,4.43v4.76h-1.33v-4.72c0-2.38-.27-3.26-2-3.26a6.18,6.18,0,0,0-2.54.67v7.31Z" fill="#3a3d3f"/><path d="M1311.34,117.42c0,.52.46.72,1,.79l-.05,1.07a2.76,2.76,0,0,1-2.15-.72,9.2,9.2,0,0,1-3.24.72c-1.64,0-2.54-.94-2.54-2.76s.9-2.48,2.76-2.66l2.83-.27v-.78c0-1.26-.54-1.71-1.62-1.71-1.27,0-3.41.24-3.41.24l0-1a21.6,21.6,0,0,1,3.53-.4c2,0,2.9.94,2.9,2.9Zm-4-2.55c-1.1.1-1.53.63-1.53,1.62s.45,1.65,1.37,1.65a9.57,9.57,0,0,0,2.83-.56v-3Z" fill="#3a3d3f"/><path d="M1321.25,114.45c0,3.58-1,4.83-4.24,4.83-1.09,0-3-.2-3-.2V106.17h1.33v4.37a7.44,7.44,0,0,1,2.65-.63C1320.43,109.91,1321.25,111.21,1321.25,114.45Zm-1.36,0c0-2.32-.47-3.33-2.06-3.33a7.57,7.57,0,0,0-2.5.52V118s1.17.09,1.66.09C1319.45,118.07,1319.89,117,1319.89,114.45Z" fill="#3a3d3f"/><path d="M1323.57,106.17h1.35V119.1h-1.35Z" fill="#3a3d3f"/><path d="M1334.27,117.93l0,1.06a31.12,31.12,0,0,1-3.51.29c-2.68,0-3.56-1.57-3.56-4.63,0-3.42,1.47-4.74,3.76-4.74s3.62,1.26,3.62,4.22l-.07,1h-5.94c0,1.93.59,2.94,2.35,2.94C1332.3,118.09,1334.27,117.93,1334.27,117.93Zm-1-3.86c0-2.23-.68-3-2.27-3s-2.39.84-2.41,3Z" fill="#3a3d3f"/><path d="M1342.69,111.41a29.33,29.33,0,0,0-3.15-.29c-1.12,0-2,.31-2,1.37,0,.84.43,1.08,2.34,1.4,2.25.38,3.1.83,3.1,2.58,0,2.1-1.34,2.81-3.5,2.81a25,25,0,0,1-3.17-.35l.08-1.17a29.5,29.5,0,0,0,3,.31c1.47,0,2.27-.32,2.27-1.55,0-.93-.47-1.17-2.44-1.48s-3-.7-3-2.5c0-2,1.6-2.63,3.24-2.63a22.55,22.55,0,0,1,3.26.35Z" fill="#3a3d3f"/><path d="M1356,110.09v9h-1.35v-.63a6.07,6.07,0,0,1-2.66.81c-2.52,0-3-1.17-3-4.49v-4.7h1.35v4.69c0,2.48.22,3.29,1.89,3.29a5.42,5.42,0,0,0,2.47-.67v-7.31Z" fill="#3a3d3f"/><path d="M1364.58,111.41a29.33,29.33,0,0,0-3.15-.29c-1.12,0-2,.31-2,1.37,0,.84.44,1.08,2.35,1.4,2.25.38,3.09.83,3.09,2.58,0,2.1-1.33,2.81-3.49,2.81a25,25,0,0,1-3.17-.35l.07-1.17a29.86,29.86,0,0,0,3,.31c1.48,0,2.27-.32,2.27-1.55,0-.93-.47-1.17-2.43-1.48s-3-.7-3-2.5c0-2,1.6-2.63,3.24-2.63a22.55,22.55,0,0,1,3.26.35Z" fill="#3a3d3f"/><path d="M1372.73,111.26v4.31c0,2,.13,2.52,1.3,2.52.5,0,1.6-.11,1.6-.11l.09,1.12a16.5,16.5,0,0,1-1.84.19c-1.85,0-2.48-.7-2.48-3.29v-4.74h-1.28v-1.17h1.28v-2.75h1.33v2.75h2.86v1.17Z" fill="#3a3d3f"/><path d="M1384.56,114.49c0,3.27-.81,4.79-3.85,4.79s-3.86-1.52-3.86-4.79c0-3.1,1-4.58,3.86-4.58S1384.56,111.39,1384.56,114.49Zm-1.39,0c0-2.51-.54-3.41-2.46-3.41s-2.47.9-2.47,3.41.34,3.62,2.47,3.62S1383.17,117,1383.17,114.49Z" fill="#3a3d3f"/><path d="M1396.53,110.18l-.06,1.1s-1.43-.16-2.12-.16c-2.07,0-2.63.9-2.63,3.31,0,2.67.42,3.64,2.65,3.64.68,0,2.12-.16,2.12-.16l.06,1.11a23.34,23.34,0,0,1-2.51.26c-2.86,0-3.7-1.32-3.7-4.85,0-3.26,1.06-4.52,3.74-4.52A20.89,20.89,0,0,1,1396.53,110.18Z" fill="#3a3d3f"/><path d="M1398.56,119.1V106.17h1.35v4.43a7.55,7.55,0,0,1,2.77-.69c2.47,0,3,1.23,3,4.43v4.76h-1.35v-4.72c0-2.38-.27-3.26-1.93-3.26a7.41,7.41,0,0,0-2.54.54v7.44Z" fill="#3a3d3f"/><path d="M1414.58,117.42c0,.52.47.72,1.05.79l-.06,1.07a2.75,2.75,0,0,1-2.14-.72,9.2,9.2,0,0,1-3.24.72c-1.64,0-2.54-.94-2.54-2.76s.9-2.48,2.76-2.66l2.82-.27v-.78c0-1.26-.54-1.71-1.62-1.71-1.26,0-3.4.24-3.4.24l0-1a21.57,21.57,0,0,1,3.52-.4c2,0,2.9.94,2.9,2.9Zm-4-2.55c-1.1.1-1.53.63-1.53,1.62s.45,1.65,1.37,1.65a9.47,9.47,0,0,0,2.82-.56v-3Z" fill="#3a3d3f"/><path d="M1417.24,110.09h1.34v1.23a10.06,10.06,0,0,1,3.29-1.42v1.36a13.41,13.41,0,0,0-3.28,1.23v6.61h-1.35Z" fill="#3a3d3f"/><path d="M1423.08,120.61c0-1,.48-1.53,1.42-2.23a1.47,1.47,0,0,1-.51-1.25,5.78,5.78,0,0,1,.62-1.42c-.76-.34-1.43-1.06-1.43-2.72,0-2.21,1.37-3.08,3.37-3.08a9.07,9.07,0,0,1,1.87.24l2.67-.07v1.15l-1.71,0a2.35,2.35,0,0,1,.59,1.8c0,2.34-1.17,3.05-3.47,3.05a6.69,6.69,0,0,1-.88-.08,5.44,5.44,0,0,0-.33,1c0,.72.14.83,2.18.83,2.56,0,3.47.5,3.47,2.64s-1.45,2.87-4,2.87C1424.1,123.33,1423.08,122.7,1423.08,120.61Zm2.34-1.69c-.76.55-1,.88-1,1.58,0,1.24.52,1.69,2.55,1.69,1.81,0,2.62-.48,2.62-1.67,0-1.37-.58-1.51-2.22-1.51C1426.73,119,1425.42,118.92,1425.42,118.92Zm3.2-5.93c0-1.42-.56-2-2.07-2s-2,.56-2,2,.62,2,2,2S1428.62,114.42,1428.62,113Z" fill="#3a3d3f"/><path d="M1439.37,117.93l0,1.06a31.12,31.12,0,0,1-3.51.29c-2.68,0-3.56-1.57-3.56-4.63,0-3.42,1.47-4.74,3.76-4.74s3.62,1.26,3.62,4.22l-.07,1h-5.94c0,1.93.59,2.94,2.35,2.94C1437.41,118.09,1439.37,117.93,1439.37,117.93Zm-1-3.86c0-2.23-.68-3-2.27-3s-2.39.84-2.41,3Z" fill="#3a3d3f"/><path d="M1451.59,110.18l0,1.1s-1.44-.16-2.13-.16c-2.07,0-2.63.9-2.63,3.31,0,2.67.42,3.64,2.65,3.64.68,0,2.12-.16,2.12-.16l.06,1.11a23.34,23.34,0,0,1-2.51.26c-2.86,0-3.7-1.32-3.7-4.85,0-3.26,1.06-4.52,3.74-4.52A20.89,20.89,0,0,1,1451.59,110.18Z" fill="#3a3d3f"/><path d="M1460.27,117.93l0,1.06a31.12,31.12,0,0,1-3.51.29c-2.68,0-3.56-1.57-3.56-4.63,0-3.42,1.47-4.74,3.76-4.74s3.62,1.26,3.62,4.22l-.07,1h-6c0,1.93.6,2.94,2.36,2.94C1458.3,118.09,1460.27,117.93,1460.27,117.93Zm-1-3.86c0-2.23-.69-3-2.27-3s-2.4.84-2.41,3Z" fill="#3a3d3f"/><path d="M1462.71,110.09H1464v1.23a10.17,10.17,0,0,1,3.3-1.42v1.36a13.41,13.41,0,0,0-3.28,1.23v6.61h-1.35Z" fill="#3a3d3f"/><path d="M1470.74,111.26v4.31c0,2,.13,2.52,1.3,2.52.5,0,1.6-.11,1.6-.11l.09,1.12a16.5,16.5,0,0,1-1.84.19c-1.85,0-2.48-.7-2.48-3.29v-4.74h-1.28v-1.17h1.28v-2.75h1.33v2.75h2.86v1.17Z" fill="#3a3d3f"/><path d="M1481.61,117.42c0,.52.47.72,1.05.79l-.06,1.07a2.75,2.75,0,0,1-2.14-.72,9.2,9.2,0,0,1-3.24.72c-1.64,0-2.54-.94-2.54-2.76s.9-2.48,2.76-2.66l2.82-.27v-.78c0-1.26-.54-1.71-1.62-1.71-1.26,0-3.4.24-3.4.24l0-1a21.57,21.57,0,0,1,3.52-.4c2,0,2.9.94,2.9,2.9Zm-4-2.55c-1.1.1-1.53.63-1.53,1.62s.45,1.65,1.37,1.65a9.47,9.47,0,0,0,2.82-.56v-3Z" fill="#3a3d3f"/><path d="M1484.28,106.49h1.35v1.57h-1.35Zm0,3.6h1.35v9h-1.35Z" fill="#3a3d3f"/><path d="M1488.22,119.1v-9h1.33v.63a6.85,6.85,0,0,1,2.79-.81c2.48,0,3,1.23,3,4.43v4.76h-1.33v-4.72c0-2.38-.27-3.26-1.94-3.26a6.12,6.12,0,0,0-2.54.67v7.31Z" fill="#3a3d3f"/><path d="M1504.4,106.64h3l3.42,12.46h-1.36l-.9-3.21h-5.33l-.9,3.21H1501Zm-.85,8h4.72l-1.89-6.82h-.94Z" fill="#3a3d3f"/><path d="M1517.74,112.72h3.44v6.12a28.94,28.94,0,0,1-4,.44c-3.82,0-4.83-2.34-4.83-6.38s1-6.44,4.79-6.44a23.65,23.65,0,0,1,4.09.46l-.06,1.16a28.37,28.37,0,0,0-3.87-.38c-2.88,0-3.51,1.67-3.51,5.2s.61,5.15,3.49,5.15a16.86,16.86,0,0,0,2.58-.25V114h-2.07Z" fill="#3a3d3f"/><path d="M1532.41,106.64l-3.26,12.46h-3.1l-3.26-12.46h1.44l2.87,11.23h1l2.86-11.23Z" fill="#3a3d3f"/><path d="M1540.11,111.41a29.33,29.33,0,0,0-3.15-.29c-1.12,0-2,.31-2,1.37,0,.84.43,1.08,2.34,1.4,2.25.38,3.1.83,3.1,2.58,0,2.1-1.34,2.81-3.5,2.81a25,25,0,0,1-3.17-.35l.08-1.17a29.5,29.5,0,0,0,3,.31c1.47,0,2.27-.32,2.27-1.55,0-.93-.47-1.17-2.44-1.48s-3-.7-3-2.5c0-2,1.6-2.63,3.24-2.63a22.55,22.55,0,0,1,3.26.35Z" fill="#3a3d3f"/><path d="M1547.08,110.09l1.81,7.84h.29l2.15-7.66h1.4l2.14,7.66h.31l1.8-7.84h1.35l-2.14,9h-2.25l-1.91-7-1.91,7h-2.25l-2.14-9Z" fill="#3a3d3f"/><path d="M1560.18,119.1V106.17h1.35v4.43a7.55,7.55,0,0,1,2.77-.69c2.47,0,3,1.23,3,4.43v4.76H1566v-4.72c0-2.38-.28-3.26-1.93-3.26a7.41,7.41,0,0,0-2.54.54v7.44Z" fill="#3a3d3f"/><path d="M1569.85,106.49h1.35v1.57h-1.35Zm0,3.6h1.35v9h-1.35Z" fill="#3a3d3f"/><path d="M1573.89,106.17h1.36V119.1h-1.36Z" fill="#3a3d3f"/><path d="M1584.59,117.93l0,1.06a31.4,31.4,0,0,1-3.52.29c-2.68,0-3.56-1.57-3.56-4.63,0-3.42,1.48-4.74,3.76-4.74s3.62,1.26,3.62,4.22l-.07,1h-5.94c0,1.93.59,2.94,2.36,2.94C1582.63,118.09,1584.59,117.93,1584.59,117.93Zm-1-3.86c0-2.23-.68-3-2.27-3s-2.39.84-2.41,3Z" fill="#3a3d3f"/><path d="M1592.8,111.26v4.31c0,2,.12,2.52,1.29,2.52.51,0,1.6-.11,1.6-.11l.09,1.12a16.23,16.23,0,0,1-1.83.19c-1.86,0-2.49-.7-2.49-3.29v-4.74h-1.28v-1.17h1.28v-2.75h1.34v2.75h2.86v1.17Z" fill="#3a3d3f"/><path d="M1597.31,119.1V106.17h1.35v4.43a7.57,7.57,0,0,1,2.78-.69c2.46,0,3,1.23,3,4.43v4.76h-1.35v-4.72c0-2.38-.27-3.26-1.93-3.26a7.41,7.41,0,0,0-2.54.54v7.44Z" fill="#3a3d3f"/><path d="M1613.62,117.93l0,1.06a31.12,31.12,0,0,1-3.51.29c-2.69,0-3.57-1.57-3.57-4.63,0-3.42,1.48-4.74,3.77-4.74s3.61,1.26,3.61,4.22l-.07,1H1608c0,1.93.6,2.94,2.36,2.94C1611.66,118.09,1613.62,117.93,1613.62,117.93Zm-1-3.86c0-2.23-.68-3-2.26-3s-2.4.84-2.42,3Z" fill="#3a3d3f"/><path d="M1616.07,110.09h1.33v1.23a10.17,10.17,0,0,1,3.3-1.42v1.36a13.21,13.21,0,0,0-3.28,1.23v6.61h-1.35Z" fill="#3a3d3f"/><path d="M1628.94,117.93l0,1.06a31.4,31.4,0,0,1-3.52.29c-2.68,0-3.56-1.57-3.56-4.63,0-3.42,1.48-4.74,3.76-4.74s3.62,1.26,3.62,4.22l-.07,1h-5.94c0,1.93.59,2.94,2.36,2.94C1627,118.09,1628.94,117.93,1628.94,117.93Zm-1-3.86c0-2.23-.68-3-2.27-3s-2.39.84-2.41,3Z" fill="#3a3d3f"/><path d="M1635.35,106.49h1.35v1.57h-1.35Zm0,3.6h1.35v9h-1.35Z" fill="#3a3d3f"/><path d="M1645.27,111.41a29.33,29.33,0,0,0-3.15-.29c-1.12,0-2,.31-2,1.37,0,.84.44,1.08,2.34,1.4,2.25.38,3.1.83,3.1,2.58,0,2.1-1.33,2.81-3.49,2.81a25,25,0,0,1-3.17-.35l.07-1.17a29.5,29.5,0,0,0,3,.31c1.48,0,2.27-.32,2.27-1.55,0-.93-.47-1.17-2.43-1.48s-3-.7-3-2.5c0-2,1.61-2.63,3.24-2.63a22.55,22.55,0,0,1,3.26.35Z" fill="#3a3d3f"/><path d="M1657.6,111.41a29.33,29.33,0,0,0-3.15-.29c-1.12,0-2,.31-2,1.37,0,.84.44,1.08,2.34,1.4,2.25.38,3.1.83,3.1,2.58,0,2.1-1.33,2.81-3.49,2.81a25,25,0,0,1-3.17-.35l.07-1.17a29.5,29.5,0,0,0,3,.31c1.48,0,2.27-.32,2.27-1.55,0-.93-.47-1.17-2.43-1.48s-3-.7-3-2.5c0-2,1.61-2.63,3.24-2.63a22.55,22.55,0,0,1,3.26.35Z" fill="#3a3d3f"/><path d="M1661.79,111.26v4.31c0,2,.13,2.52,1.3,2.52.5,0,1.6-.11,1.6-.11l.09,1.12a16.5,16.5,0,0,1-1.84.19c-1.85,0-2.48-.7-2.48-3.29v-4.74h-1.28v-1.17h1.28v-2.75h1.33v2.75h2.86v1.17Z" fill="#3a3d3f"/><path d="M1666.31,106.49h1.35v1.57h-1.35Zm0,3.6h1.35v9h-1.35Z" fill="#3a3d3f"/><path d="M1670.36,106.17h1.35V119.1h-1.35Z" fill="#3a3d3f"/><path d="M1674.52,106.17h1.35V119.1h-1.35Z" fill="#3a3d3f"/><path d="M1688.88,117.42c0,.52.47.72,1,.79l-.06,1.07a2.75,2.75,0,0,1-2.14-.72,9.2,9.2,0,0,1-3.24.72c-1.64,0-2.54-.94-2.54-2.76s.9-2.48,2.75-2.66l2.83-.27v-.78c0-1.26-.54-1.71-1.62-1.71-1.26,0-3.4.24-3.4.24l-.06-1a21.6,21.6,0,0,1,3.53-.4c2,0,2.9.94,2.9,2.9Zm-4-2.55c-1.1.1-1.53.63-1.53,1.62s.45,1.65,1.36,1.65a9.48,9.48,0,0,0,2.83-.56v-3Z" fill="#3a3d3f"/><path d="M1691.54,106.49h1.35v1.57h-1.35Zm0,3.6h1.35v9h-1.35Z" fill="#3a3d3f"/><path d="M1695.49,110.09h1.33v1.23a10.06,10.06,0,0,1,3.29-1.42v1.36a13.24,13.24,0,0,0-3.27,1.23v6.61h-1.35Z" fill="#3a3d3f"/><path d="M1292.58,145.42c0,.52.47.72,1,.79l0,1.07a2.75,2.75,0,0,1-2.14-.72,9.2,9.2,0,0,1-3.24.72c-1.64,0-2.54-.94-2.54-2.76s.9-2.48,2.75-2.66l2.83-.27v-.78c0-1.26-.54-1.71-1.62-1.71-1.26,0-3.4.24-3.4.24l-.06-1a21.6,21.6,0,0,1,3.53-.4c2,0,2.9.94,2.9,2.9Zm-4-2.55a1.44,1.44,0,0,0-1.53,1.62c0,1,.45,1.65,1.37,1.65a9.48,9.48,0,0,0,2.83-.56v-3Z" fill="#3a3d3f"/><path d="M1295.24,147.1v-9h1.33v.63a6.86,6.86,0,0,1,2.8-.81c2.48,0,3,1.23,3,4.43v4.76h-1.33v-4.72c0-2.38-.27-3.26-1.95-3.26a6.12,6.12,0,0,0-2.54.67v7.31Z" fill="#3a3d3f"/><path d="M1311.82,147.1h-1.33v-.62a6.44,6.44,0,0,1-2.74.8c-1.76,0-3.24-.72-3.24-4.61,0-3.17,1-4.76,3.76-4.76a14.13,14.13,0,0,1,2.22.24v-4h1.33Zm-1.33-1.7v-6.1a15.75,15.75,0,0,0-2.14-.22c-1.89,0-2.45,1.25-2.45,3.59,0,2.91.95,3.4,2,3.4A6.53,6.53,0,0,0,1310.49,145.4Z" fill="#3a3d3f"/><path d="M1318.39,138.09h1.33v.65a6.12,6.12,0,0,1,2.7-.83c2.27,0,3.26,1.39,3.26,4.58,0,3.53-1.15,4.79-3.92,4.79a12,12,0,0,1-2-.2v4h-1.35Zm1.35,1.75v6.07a14.27,14.27,0,0,0,1.94.2c2,0,2.63-1,2.63-3.62s-.77-3.37-2.09-3.37A5.86,5.86,0,0,0,1319.74,139.84Z" fill="#3a3d3f"/><path d="M1334.23,145.42c0,.52.47.72,1,.79l-.06,1.07a2.75,2.75,0,0,1-2.14-.72,9.2,9.2,0,0,1-3.24.72c-1.64,0-2.54-.94-2.54-2.76s.9-2.48,2.75-2.66l2.83-.27v-.78c0-1.26-.54-1.71-1.62-1.71-1.26,0-3.4.24-3.4.24l-.06-1a21.6,21.6,0,0,1,3.53-.4c2,0,2.9.94,2.9,2.9Zm-4-2.55c-1.1.1-1.53.63-1.53,1.62s.45,1.65,1.36,1.65a9.48,9.48,0,0,0,2.83-.56v-3Z" fill="#3a3d3f"/><path d="M1342.87,139.41a29.33,29.33,0,0,0-3.15-.29c-1.12,0-2,.31-2,1.37,0,.84.43,1.08,2.34,1.4,2.25.38,3.1.83,3.1,2.58,0,2.1-1.34,2.81-3.5,2.81a25,25,0,0,1-3.17-.35l.08-1.17a29.5,29.5,0,0,0,3,.31c1.47,0,2.26-.32,2.26-1.55,0-.93-.46-1.17-2.43-1.48s-3-.7-3-2.5c0-2,1.6-2.63,3.24-2.63a22.55,22.55,0,0,1,3.26.35Z" fill="#3a3d3f"/><path d="M1351.24,139.41a29.33,29.33,0,0,0-3.15-.29c-1.12,0-2,.31-2,1.37,0,.84.43,1.08,2.34,1.4,2.25.38,3.1.83,3.1,2.58,0,2.1-1.34,2.81-3.5,2.81a25,25,0,0,1-3.17-.35l.07-1.17a29.8,29.8,0,0,0,3,.31c1.47,0,2.26-.32,2.26-1.55,0-.93-.46-1.17-2.43-1.48s-3-.7-3-2.5c0-2,1.6-2.63,3.24-2.63a22.55,22.55,0,0,1,3.26.35Z" fill="#3a3d3f"/><path d="M1360.28,145.93l0,1.06a31.12,31.12,0,0,1-3.51.29c-2.68,0-3.56-1.57-3.56-4.63,0-3.42,1.47-4.74,3.76-4.74s3.62,1.26,3.62,4.22l-.07,1h-5.94c0,1.93.59,2.94,2.35,2.94C1358.31,146.09,1360.28,145.93,1360.28,145.93Zm-1-3.86c0-2.23-.68-3-2.27-3s-2.39.84-2.41,3Z" fill="#3a3d3f"/><path d="M1362.72,147.1v-9h1.34v.63a6.79,6.79,0,0,1,2.79-.81c2.48,0,3,1.23,3,4.43v4.76h-1.33v-4.72c0-2.38-.27-3.26-2-3.26a6.18,6.18,0,0,0-2.54.67v7.31Z" fill="#3a3d3f"/><path d="M1372,148.61c0-1.05.49-1.53,1.43-2.23a1.47,1.47,0,0,1-.51-1.25,5.82,5.82,0,0,1,.61-1.42c-.75-.34-1.42-1.06-1.42-2.72,0-2.21,1.37-3.08,3.37-3.08a9.07,9.07,0,0,1,1.87.24l2.67-.07v1.15l-1.71,0a2.35,2.35,0,0,1,.59,1.8c0,2.34-1.17,3-3.48,3a6.85,6.85,0,0,1-.88-.08,5.56,5.56,0,0,0-.32,1c0,.72.14.83,2.18.83,2.55,0,3.47.5,3.47,2.64s-1.46,2.87-4,2.87C1373,151.33,1372,150.7,1372,148.61Zm2.34-1.69c-.75.55-1,.88-1,1.58,0,1.24.52,1.69,2.55,1.69,1.8,0,2.61-.48,2.61-1.67,0-1.37-.57-1.51-2.21-1.51C1375.65,147,1374.33,146.92,1374.33,146.92Zm3.21-5.93c0-1.42-.56-2-2.07-2s-2,.56-2,2,.61,2,2,2S1377.54,142.42,1377.54,141Z" fill="#3a3d3f"/><path d="M1388.29,145.93l0,1.06a31.12,31.12,0,0,1-3.51.29c-2.68,0-3.56-1.57-3.56-4.63,0-3.42,1.47-4.74,3.76-4.74s3.62,1.26,3.62,4.22l-.08,1h-5.94c0,1.93.6,2.94,2.36,2.94C1386.32,146.09,1388.29,145.93,1388.29,145.93Zm-1-3.86c0-2.23-.69-3-2.27-3s-2.4.84-2.41,3Z" fill="#3a3d3f"/><path d="M1390.73,138.09h1.33v1.23a10.17,10.17,0,0,1,3.3-1.42v1.36a13.41,13.41,0,0,0-3.28,1.23v6.61h-1.35Z" fill="#3a3d3f"/><path d="M1402.72,139.26v4.31c0,2,.12,2.52,1.3,2.52.5,0,1.6-.11,1.6-.11l.09,1.12a16.5,16.5,0,0,1-1.84.19c-1.85,0-2.48-.7-2.48-3.29v-4.74h-1.28v-1.17h1.28v-2.75h1.33v2.75h2.86v1.17Z" fill="#3a3d3f"/><path d="M1407.24,138.09h1.33v1.23a10.18,10.18,0,0,1,3.29-1.42v1.36a13.24,13.24,0,0,0-3.27,1.23v6.61h-1.35Z" fill="#3a3d3f"/><path d="M1419.82,145.42c0,.52.47.72,1,.79l0,1.07a2.75,2.75,0,0,1-2.14-.72,9.2,9.2,0,0,1-3.24.72c-1.64,0-2.54-.94-2.54-2.76s.9-2.48,2.75-2.66l2.83-.27v-.78c0-1.26-.54-1.71-1.62-1.71-1.26,0-3.4.24-3.4.24l-.06-1a21.6,21.6,0,0,1,3.53-.4c2,0,2.9.94,2.9,2.9Zm-4-2.55a1.44,1.44,0,0,0-1.53,1.62c0,1,.45,1.65,1.37,1.65a9.48,9.48,0,0,0,2.83-.56v-3Z" fill="#3a3d3f"/><path d="M1424.21,147.1h-1.35v-7.84h-1.13v-1.17h1.13v-.81c0-2.59.67-3.29,2.43-3.29.61,0,1.82.13,1.82.13l0,1.11s-1,0-1.55,0c-1,0-1.33.43-1.33,2.1v.79h2.61v1.17h-2.61Z" fill="#3a3d3f"/><path d="M1430.17,147.1h-1.35v-7.84h-1.14v-1.17h1.14v-.81c0-2.59.66-3.29,2.43-3.29.61,0,1.82.13,1.82.13l0,1.11s-1,0-1.55,0c-1,0-1.33.43-1.33,2.1v.79h2.61v1.17h-2.61Z" fill="#3a3d3f"/><path d="M1434.4,134.49h1.35v1.57h-1.35Zm0,3.6h1.35v9h-1.35Z" fill="#3a3d3f"/><path d="M1444.16,138.18l-.06,1.1s-1.44-.16-2.12-.16c-2.07,0-2.63.9-2.63,3.31,0,2.67.41,3.64,2.64,3.64.69,0,2.13-.16,2.13-.16l.05,1.11a23.06,23.06,0,0,1-2.5.26c-2.86,0-3.71-1.32-3.71-4.85,0-3.26,1.06-4.52,3.75-4.52A21.18,21.18,0,0,1,1444.16,138.18Z" fill="#3a3d3f"/><path d="M1446.1,145h1.47v2.06h-1.47Z" fill="#3a3d3f"/><rect x="1132.92" y="82.7" width="7.17" height="27.28" transform="translate(2273.01 192.67) rotate(-180)" fill="#2277d6"/><rect x="1122.92" y="91.78" width="7.17" height="18.2" transform="translate(2253.01 201.75) rotate(-180)" fill="#2277d6"/><rect x="1112.33" y="100.88" width="7.17" height="9.1" transform="translate(2231.83 210.85) rotate(-180)" fill="#2277d6"/></g><g id="Layer_2-2" data-name="Layer 2"><path d="M118.42,74.16A46.58,46.58,0,1,1,71.84,27.58a46.58,46.58,0,0,1,46.58,46.58" fill="#e3f0fc"/><path d="M83.67,86.42a8,8,0,0,1-16,.19l0-9,7.81-7.77V59a1,1,0,0,0-1-1H71.87v-7.9a1.63,1.63,0,0,0-1.63-1.64h-.32a1.63,1.63,0,0,0-1.63,1.64v7.9H61.21v-7.9a1.63,1.63,0,1,0-3.26,0v7.9H55.42a1,1,0,0,0-1,1l0,10.81,7.85,7.85,0,8.92A13.38,13.38,0,0,0,89,86.42Z" fill="#2277d6"/><path d="M1015.1,103.56a4.41,4.41,0,0,1-8.81.1l0-5,4.31-4.28V88.48a.54.54,0,0,0-.54-.53h-1.47V83.59a.9.9,0,0,0-.9-.89h-.18a.89.89,0,0,0-.89.89V88h-3.9V83.59a.9.9,0,0,0-1.8,0V88h-1.39a.54.54,0,0,0-.54.53l0,6,4.33,4.32v4.91a7.37,7.37,0,0,0,14.73-.1Z" fill="#2277d6"/><path d="M1078,88.49h-5.73V85.62a2.86,2.86,0,0,0-2.87-2.86h-5.73a2.86,2.86,0,0,0-2.86,2.87v2.86h-5.73a2.84,2.84,0,0,0-2.85,2.86v15.76a2.85,2.85,0,0,0,2.86,2.86h22.53a3.24,3.24,0,0,0,3.25-3.25V91.35A2.86,2.86,0,0,0,1078,88.49Zm-8.6,0h-5.73V85.62h5.73Z" fill="#2277d6"/><path d="M1289.5,41.17l2.36,12.48h.58l2.82-12.36h1.8l2.82,12.36h.58l2.36-12.48h1.58L1301.6,55h-2.82l-2.62-11.82L1293.54,55h-2.82l-2.82-13.84Z"/><path d="M1315.3,48.75h-7V55h-1.54V41.17h1.54v6.2h7v-6.2h1.52V55h-1.52Z"/><path d="M1324.67,55h-1.53V49.19l-4.43-8h1.74l3.45,6.48,3.44-6.48h1.74l-4.41,8Z"/><path d="M1335.37,41.17h1.54V55h-1.54Z"/><path d="M1348.06,42.65s-2.79-.34-4-.34c-2,0-3,.7-3,2.26,0,1.8,1,2.1,3.39,2.64,2.76.62,4,1.3,4,3.72,0,3.06-1.68,4.26-4.43,4.26a36.65,36.65,0,0,1-4.38-.44l.16-1.28s2.72.36,4.14.36c2,0,3-.86,3-2.78,0-1.56-.82-2-3.08-2.44-2.86-.62-4.3-1.3-4.3-3.94S1341.31,41,1344,41a34.47,34.47,0,0,1,4.19.4Z"/><path d="M1354.09,41.17h10v1.38h-4.22V55h-1.52V42.55h-4.26Z"/><path d="M1374.63,48.75h-7V55h-1.54V41.17h1.54v6.2h7v-6.2h1.53V55h-1.53Z"/><path d="M1379.55,41.17h1.54V55h-1.54Z"/><path d="M1392.23,42.65s-2.78-.34-3.94-.34c-2,0-3,.7-3,2.26,0,1.8,1,2.1,3.38,2.64,2.76.62,4,1.3,4,3.72,0,3.06-1.68,4.26-4.42,4.26a36.39,36.39,0,0,1-4.38-.44l.16-1.28s2.72.36,4.14.36c2,0,3-.86,3-2.78,0-1.56-.82-2-3.08-2.44-2.86-.62-4.3-1.3-4.3-3.94s1.76-3.72,4.46-3.72a34.46,34.46,0,0,1,4.18.4Z"/><path d="M1401.25,49.71V55h-1.54V41.17h5.12c2.9,0,4.42,1.28,4.42,4.2,0,2-.8,3.46-2.54,4l2.66,5.62h-1.7l-2.5-5.3Zm3.58-7.18h-3.58v5.82h3.6c2.08,0,2.82-1.24,2.82-3C1407.67,43.47,1406.77,42.53,1404.83,42.53Z"/><path d="M1412,41.17h8.42v1.36h-6.88v4.78h5.68v1.34h-5.68v5h6.88V55H1412Z"/><path d="M1431.45,54.79a20.83,20.83,0,0,1-3.82.42c-4.14,0-5.06-2.52-5.06-7.08s.9-7.16,5.06-7.16a20.32,20.32,0,0,1,3.82.44l-.06,1.3a24.64,24.64,0,0,0-3.6-.36c-3.08,0-3.62,1.84-3.62,5.78s.5,5.7,3.66,5.7a21.88,21.88,0,0,0,3.56-.36Z"/><path d="M1433.41,48.15c0-4.56,1.18-7.18,5.46-7.18s5.48,2.58,5.48,7.18c0,4.76-1.18,7.06-5.48,7.06S1433.41,52.79,1433.41,48.15Zm9.34,0c0-3.74-.72-5.82-3.88-5.82s-3.88,2.06-3.88,5.82.68,5.7,3.88,5.7S1442.75,52.05,1442.75,48.15Z"/><path d="M1447.17,41.17H1450l3.92,11.7,3.92-11.7h2.78V55H1459V42.81h-.28l-4,11.7H1453l-4-11.7h-.28V55h-1.54Z"/><path d="M1464,41.17h2.78l3.92,11.7,3.92-11.7h2.78V55h-1.54V42.81h-.28l-4,11.7h-1.72l-4-11.7h-.28V55H1464Z"/><path d="M1480.77,41.17h8.42v1.36h-6.88v4.78H1488v1.34h-5.68v5h6.88V55h-8.42Z"/><path d="M1491.83,41.17h2.88l5.3,12.48h.42V41.17H1502V55h-2.82l-5.38-12.48h-.38V55h-1.54Z"/><path d="M1505.35,55V41.17h4.94c4,0,5.12,2.8,5.12,6.72s-1,7.12-5.12,7.12Zm4.94-12.48h-3.4V53.65h3.4c2.88,0,3.54-2.76,3.54-5.76S1513.17,42.53,1510.29,42.53Z"/><path d="M1518.25,41.17h8.42v1.36h-6.88v4.78h5.68v1.34h-5.68v5h6.88V55h-8.42Z"/><path d="M1529.31,55V41.17h4.94c4,0,5.12,2.8,5.12,6.72s-1,7.12-5.12,7.12Zm4.94-12.48h-3.4V53.65h3.4c2.88,0,3.54-2.76,3.54-5.76S1537.13,42.53,1534.25,42.53Z"/><path d="M1546.77,47.79c-1.18,1-1.78,1.6-1.78,2.5V51h-1.26a3.11,3.11,0,0,1-.26-1.22c0-1,.8-1.76,1.86-2.66,1.44-1.24,1.78-1.7,1.78-2.82,0-1.42-.86-2-2.66-2a18.55,18.55,0,0,0-3.1.46l-.1-1.22a15.14,15.14,0,0,1,3.34-.6c2.68,0,4,.88,4,3.2C1548.63,45.89,1548.33,46.49,1546.77,47.79Zm-3.26,5h1.64V55h-1.64Z"/></g></g></svg>