<svg xmlns="http://www.w3.org/2000/svg" xmlns:xlink="http://www.w3.org/1999/xlink" viewBox="0 0 566.31 517.94">
	<defs>
		<clipPath id="clip-path">
			<rect x="86.6" y="139.9" width="12.28" height="79.78" fill="#76ce89" />
		</clipPath>
		<clipPath id="clip-path-2">
			<rect x="104.52" y="152.67" width="12.25" height="67.01" fill="#76ce89" />
		</clipPath>
		<clipPath id="clip-path-3">
			<rect x="122.41" y="152.7" width="12.25" height="66.99" fill="#76ce89" />
		</clipPath>
		<clipPath id="clip-path-4">
			<rect x="140.3" y="152.7" width="12.25" height="66.99" fill="#76ce89" />
		</clipPath>
		<clipPath id="clip-path-5">
			<rect x="158.2" y="160.83" width="12.22" height="58.85" fill="#76ce89" />
		</clipPath>
		<clipPath id="clip-path-6">
			<rect x="176.06" y="167.8" width="12.23" height="51.88" fill="#76ce89" />
		</clipPath>
		<clipPath id="clip-path-7">
			<rect x="193.93" y="179.79" width="12.21" height="39.89" fill="#ffda00" />
		</clipPath>
		<clipPath id="clip-path-8">
			<rect x="211.79" y="183.79" width="12.19" height="35.9" fill="#ffda00" />
		</clipPath>
		<clipPath id="clip-path-9">
			<rect x="229.63" y="152.67" width="12.18" height="67.01" fill="#76ce89" />
		</clipPath>
		<clipPath id="clip-path-10">
			<rect x="247.45" y="156.18" width="12.17" height="63.5" fill="#76ce89" />
		</clipPath>
		<clipPath id="clip-path-11">
			<rect x="265.26" y="156.18" width="12.25" height="63.5" fill="#76ce89" />
		</clipPath>
		<clipPath id="clip-path-12">
			<rect x="283.16" y="156.18" width="12.24" height="63.5" fill="#76ce89" />
		</clipPath>
		<clipPath id="clip-path-13">
			<rect x="301.04" y="156.18" width="12.23" height="63.5" fill="#76ce89" />
		</clipPath>
		<clipPath id="clip-path-14">
			<rect x="318.91" y="164.18" width="12.23" height="55.5" fill="#76ce89" />
		</clipPath>
		<clipPath id="clip-path-15">
			<rect x="336.79" y="166.96" width="12.22" height="52.72" fill="#76ce89" />
		</clipPath>
		<clipPath id="clip-path-16">
			<rect x="354.65" y="169.57" width="12.2" height="50.12" fill="#76ce89" />
		</clipPath>
		<clipPath id="clip-path-17">
			<rect x="372.5" y="169.57" width="12.2" height="50.12" fill="#76ce89" />
		</clipPath>
		<clipPath id="clip-path-18">
			<rect x="390.35" y="169.57" width="12.2" height="50.12" fill="#76ce89" />
		</clipPath>
		<clipPath id="clip-path-19">
			<rect x="408.19" y="174.04" width="12.2" height="45.64" fill="#76ce89" />
		</clipPath>
		<clipPath id="clip-path-20">
			<rect x="426.04" y="174.04" width="12.19" height="45.64" fill="#76ce89" />
		</clipPath>
		<clipPath id="clip-path-21">
			<rect x="443.88" y="174.04" width="12.19" height="45.64" fill="#76ce89" />
		</clipPath>
		<clipPath id="clip-path-22">
			<rect x="461.71" y="177.1" width="12.18" height="42.59" fill="#76ce89" />
		</clipPath>
		<clipPath id="clip-path-23">
			<rect x="479.53" y="187.54" width="12.15" height="32.14" fill="none" />
		</clipPath>
		<clipPath id="clip-path-24">
			<rect x="68.65" y="134.09" width="12.3" height="85.65" fill="#76ce89" />
		</clipPath>
		<clipPath id="clip-path-25">
			<rect x="50.69" y="128.28" width="12.32" height="91.52" fill="#76ce89" />
		</clipPath>
	</defs>
	<title>
		r_0_B_Screen
	</title>
	<g id="Layer_2" data-name="Layer 2">
		<g id="AGV3_Sel_Box">
			<rect width="566.31" height="517.94" fill="rgba(0,0,0,0)" />
		</g>
		<g id="Layer_1-2" data-name="Layer 1">
			<path d="M40.65,81.29c1.89,0,2.88.75,2.88,2.47A2.14,2.14,0,0,1,42.29,86a2.13,2.13,0,0,1,1.54,2.28c0,2-1.18,2.72-3,2.72h-3.7v-9.7Zm-2.44,1v3.34H40.7c1.22,0,1.73-.57,1.73-1.73s-.59-1.61-1.82-1.61Zm0,4.28V90h2.58c1.18,0,2-.37,2-1.8s-1.28-1.7-2-1.7Z" fill="#4c4c4c" />
			<path d="M50.52,89.68c0,.41.36.56.81.62l0,.83a2.15,2.15,0,0,1-1.67-.56,7.16,7.16,0,0,1-2.52.56c-1.27,0-2-.73-2-2.15s.7-1.93,2.14-2.07l2.2-.21v-.6c0-1-.42-1.33-1.26-1.33s-2.65.18-2.65.18l0-.8a16.84,16.84,0,0,1,2.74-.31c1.59,0,2.26.73,2.26,2.26Zm-3.12-2c-.86.09-1.2.49-1.2,1.26s.36,1.29,1.07,1.29a7.46,7.46,0,0,0,2.2-.43V87.5Z" fill="#4c4c4c" />
			<path d="M54,84.89v3.35c0,1.53.1,2,1,2,.39,0,1.24-.08,1.24-.08l.07.87a12.35,12.35,0,0,1-1.42.15c-1.45,0-1.94-.55-1.94-2.56V84.89H52V84h1V81.84h1V84h2.23v.91Z" fill="#4c4c4c" />
			<path d="M58.9,84.89v3.35c0,1.53.1,2,1,2,.39,0,1.25-.08,1.25-.08l.07.87a12.62,12.62,0,0,1-1.43.15c-1.44,0-1.93-.55-1.93-2.56V84.89h-1V84h1V81.84h1V84h2.23v.91Z" fill="#4c4c4c" />
			<path d="M67.59,90.08l0,.82a23.64,23.64,0,0,1-2.73.23c-2.09,0-2.77-1.22-2.77-3.6,0-2.66,1.15-3.69,2.93-3.69s2.81,1,2.81,3.28l0,.8H63.17c0,1.5.47,2.28,1.84,2.28C66.06,90.2,67.59,90.08,67.59,90.08Zm-.79-3c0-1.74-.53-2.36-1.76-2.36s-1.87.66-1.88,2.36Z" fill="#4c4c4c" />
			<path d="M69.49,84h1v1a7.83,7.83,0,0,1,2.57-1.1v1.06a10.14,10.14,0,0,0-2.55,1V91H69.49Z" fill="#4c4c4c" />
			<path d="M74.72,84l1.75,6.1h.47L78.7,84h1L76.84,94.1h-1L76.7,91h-1l-2-7Z" fill="#4c4c4c" />
			<path d="M84.35,91v-9.7h1.08V90h4.26v1Z" fill="#4c4c4c" />
			<path d="M96.05,90.08l0,.82a23.91,23.91,0,0,1-2.74.23c-2.08,0-2.77-1.22-2.77-3.6,0-2.66,1.15-3.69,2.93-3.69s2.81,1,2.81,3.28l0,.8H91.63c0,1.5.47,2.28,1.84,2.28C94.52,90.2,96.05,90.08,96.05,90.08Zm-.79-3c0-1.74-.53-2.36-1.76-2.36s-1.87.66-1.88,2.36Z" fill="#4c4c4c" />
			<path d="M98.41,84l1.64,6.1h.52l1.69-6.1h1.08l-2,7h-2.1l-2-7Z" fill="#4c4c4c" />
			<path d="M109.85,90.08l0,.82a23.89,23.89,0,0,1-2.73.23c-2.09,0-2.78-1.22-2.78-3.6,0-2.66,1.15-3.69,2.93-3.69s2.82,1,2.82,3.28l-.06.8h-4.62c0,1.5.46,2.28,1.83,2.28C108.32,90.2,109.85,90.08,109.85,90.08Zm-.78-3c0-1.74-.54-2.36-1.77-2.36s-1.86.66-1.88,2.36Z" fill="#4c4c4c" />
			<path d="M111.84,80.93h1V91h-1Z" fill="#4c4c4c" />
			<path d="M39.32,271h2l2.74,8.2,2.75-8.2h2v9.7H47.63v-8.55h-.2l-2.81,8.2H43.41l-2.81-8.2h-.2v8.55H39.32Z" fill="#4c4c4c" />
			<path d="M55.84,279.43c0,.41.37.57.82.62l0,.83a2.13,2.13,0,0,1-1.66-.56,7.16,7.16,0,0,1-2.52.56c-1.28,0-2-.73-2-2.15s.7-1.93,2.14-2.07l2.2-.21v-.6c0-1-.42-1.33-1.26-1.33s-2.65.18-2.65.18l0-.8a16.87,16.87,0,0,1,2.75-.31c1.58,0,2.25.73,2.25,2.26Zm-3.12-2c-.85.08-1.19.49-1.19,1.26s.35,1.29,1.06,1.29a7.32,7.32,0,0,0,2.2-.44v-2.31Z" fill="#4c4c4c" />
			<path d="M57.91,270.93H59v1.22H57.91Zm0,2.8H59v7H57.91Z" fill="#4c4c4c" />
			<path d="M61,280.74v-7h1v.49a5.29,5.29,0,0,1,2.17-.63c1.93,0,2.36,1,2.36,3.45v3.7h-1v-3.67c0-1.85-.21-2.54-1.52-2.54a4.8,4.8,0,0,0-2,.52v5.69Z" fill="#4c4c4c" />
			<path d="M69.9,274.64V278c0,1.53.1,2,1,2,.39,0,1.24-.08,1.24-.08l.07.87a12.62,12.62,0,0,1-1.43.15c-1.44,0-1.93-.54-1.93-2.56v-3.69h-1v-.91h1v-2.14h1v2.14h2.22v.91Z" fill="#4c4c4c" />
			<path d="M78.58,279.83l0,.82a23.89,23.89,0,0,1-2.73.23c-2.09,0-2.78-1.22-2.78-3.6,0-2.66,1.15-3.69,2.93-3.69s2.82,1,2.82,3.28l-.06.8H74.17c0,1.5.46,2.28,1.83,2.28C77.05,280,78.58,279.83,78.58,279.83Zm-.79-3c0-1.74-.53-2.35-1.76-2.35s-1.86.65-1.88,2.35Z" fill="#4c4c4c" />
			<path d="M80.48,280.74v-7h1v.49a5.29,5.29,0,0,1,2.17-.63c1.93,0,2.37,1,2.37,3.45v3.7H85v-3.67c0-1.85-.21-2.54-1.51-2.54a4.81,4.81,0,0,0-2,.52v5.69Z" fill="#4c4c4c" />
			<path d="M92.94,279.43c0,.41.37.57.82.62l-.05.83a2.13,2.13,0,0,1-1.66-.56,7.16,7.16,0,0,1-2.52.56c-1.28,0-2-.73-2-2.15s.7-1.93,2.14-2.07l2.2-.21v-.6c0-1-.42-1.33-1.26-1.33s-2.65.18-2.65.18l0-.8a16.87,16.87,0,0,1,2.75-.31c1.58,0,2.25.73,2.25,2.26Zm-3.12-2c-.86.08-1.19.49-1.19,1.26S89,280,89.69,280a7.32,7.32,0,0,0,2.2-.44v-2.31Z" fill="#4c4c4c" />
			<path d="M95,280.74v-7h1v.49a5.29,5.29,0,0,1,2.17-.63c1.93,0,2.37,1,2.37,3.45v3.7h-1v-3.67c0-1.85-.21-2.54-1.51-2.54a4.81,4.81,0,0,0-2,.52v5.69Z" fill="#4c4c4c" />
			<path d="M107.05,273.8l0,.86s-1.12-.13-1.65-.13c-1.61,0-2,.7-2,2.58,0,2.07.33,2.83,2.06,2.83.54,0,1.66-.13,1.66-.13l0,.87a18.15,18.15,0,0,1-1.95.2c-2.23,0-2.88-1-2.88-3.77,0-2.54.82-3.52,2.91-3.52A16.26,16.26,0,0,1,107.05,273.8Z" fill="#4c4c4c" />
			<path d="M113.8,279.83l0,.82a23.89,23.89,0,0,1-2.73.23c-2.09,0-2.77-1.22-2.77-3.6,0-2.66,1.14-3.69,2.92-3.69s2.82,1,2.82,3.28l-.06.8h-4.62c0,1.5.46,2.28,1.83,2.28C112.28,280,113.8,279.83,113.8,279.83Zm-.78-3c0-1.74-.53-2.35-1.77-2.35s-1.86.65-1.87,2.35Z" fill="#4c4c4c" />
			<path d="M41.43,364.72H43l2.15,6.43,2.16-6.43H48.8v7.61H48v-6.71H47.8l-2.21,6.44h-1l-2.21-6.44h-.15v6.71h-.85Z" fill="#4c4c4c" />
			<path d="M54.41,371.31c0,.32.29.44.64.48l0,.65A1.7,1.7,0,0,1,53.7,372a5.62,5.62,0,0,1-2,.44c-1,0-1.55-.57-1.55-1.68s.55-1.52,1.69-1.63l1.72-.17v-.47c0-.77-.33-1-1-1s-2.08.14-2.08.14l0-.63a13.44,13.44,0,0,1,2.16-.24c1.24,0,1.77.57,1.77,1.77ZM52,369.75c-.68.06-.94.38-.94,1s.28,1,.84,1a5.81,5.81,0,0,0,1.72-.34v-1.82Z" fill="#4c4c4c" />
			<path d="M56,366.83h.81v.75a6.27,6.27,0,0,1,2-.87v.84a7.78,7.78,0,0,0-2,.74v4H56Z" fill="#4c4c4c" />
			<path d="M100.05,364.72h1.84l2.09,7.61h-.83l-.55-2H99.34l-.55,2H98Zm-.52,4.89h2.88l-1.15-4.17h-.58Z" fill="#4c4c4c" />
			<path d="M105,366.83h.81v.4a3.74,3.74,0,0,1,1.65-.51c1.39,0,2,.85,2,2.79,0,2.16-.71,2.93-2.4,2.93a7.66,7.66,0,0,1-1.24-.12v2.45H105Zm.82,1.07v3.7a7.12,7.12,0,0,0,1.19.13c1.21,0,1.61-.63,1.61-2.22s-.47-2.05-1.28-2.05A3.59,3.59,0,0,0,105.86,367.9Z" fill="#4c4c4c" />
			<path d="M110.84,366.83h.81v.75a6.27,6.27,0,0,1,2-.87v.84a7.78,7.78,0,0,0-2,.74v4h-.82Z" fill="#4c4c4c" />
			<path d="M154.78,371.29c0,1.65-.64,1.83-2.09,1.83v-.76c1,0,1.24-.06,1.24-1.2v-6.44h.84Z" fill="#4c4c4c" />
			<path d="M160.72,366.83v5.5h-.82V372a3.77,3.77,0,0,1-1.63.49c-1.54,0-1.86-.71-1.86-2.74v-2.87h.82v2.86c0,1.52.14,2,1.16,2a3.42,3.42,0,0,0,1.51-.4v-4.47Z" fill="#4c4c4c" />
			<path d="M162.3,372.33v-5.5h.82v.38a4.2,4.2,0,0,1,1.7-.49c1.52,0,1.86.75,1.86,2.71v2.9h-.81v-2.88c0-1.45-.17-2-1.19-2a3.82,3.82,0,0,0-1.55.4v4.47Z" fill="#4c4c4c" />
			<path d="M208.35,371.29c0,1.65-.64,1.83-2.09,1.83v-.76c1,0,1.24-.06,1.24-1.2v-6.44h.84Z" fill="#4c4c4c" />
			<path d="M214.29,366.83v5.5h-.83V372a3.7,3.7,0,0,1-1.62.49c-1.55,0-1.86-.71-1.86-2.74v-2.87h.82v2.86c0,1.52.13,2,1.16,2a3.35,3.35,0,0,0,1.5-.4v-4.47Z" fill="#4c4c4c" />
			<path d="M215.94,364.43h.82v7.9h-.82Z" fill="#4c4c4c" />
			<path d="M258.62,364.72h1.84l2.1,7.61h-.84l-.55-2h-3.26l-.55,2h-.83Zm-.52,4.89H261l-1.15-4.17h-.58Z" fill="#4c4c4c" />
			<path d="M267.87,366.83v5.5H267V372a3.71,3.71,0,0,1-1.63.49c-1.54,0-1.85-.71-1.85-2.74v-2.87h.82v2.86c0,1.52.13,2,1.16,2a3.35,3.35,0,0,0,1.5-.4v-4.47Z" fill="#4c4c4c" />
			<path d="M269.21,373.25c0-.63.3-.93.87-1.36a.89.89,0,0,1-.31-.76,3.56,3.56,0,0,1,.37-.87,1.6,1.6,0,0,1-.86-1.66c0-1.35.83-1.88,2.05-1.88a5.91,5.91,0,0,1,1.15.14l1.62,0v.7l-1,0a1.43,1.43,0,0,1,.36,1.1c0,1.43-.71,1.86-2.12,1.86a5.09,5.09,0,0,1-.54,0,3.22,3.22,0,0,0-.2.62c0,.44.09.51,1.33.51,1.57,0,2.13.31,2.13,1.62s-.89,1.75-2.45,1.75C269.84,374.92,269.21,374.53,269.21,373.25Zm1.43-1c-.46.34-.62.54-.62,1,0,.76.32,1,1.57,1s1.59-.29,1.59-1-.35-.92-1.35-.92C271.44,372.28,270.64,372.22,270.64,372.22Zm2-3.62c0-.87-.34-1.21-1.27-1.21s-1.23.34-1.23,1.21.37,1.2,1.23,1.2S272.6,369.47,272.6,368.6Z" fill="#4c4c4c" />
			<path d="M318.16,365.53s-1.53-.19-2.17-.19c-1.08,0-1.65.39-1.65,1.25s.53,1.15,1.86,1.45c1.52.34,2.19.71,2.19,2,0,1.68-.92,2.34-2.43,2.34a20.26,20.26,0,0,1-2.41-.24l.09-.71s1.49.2,2.27.2c1.08,0,1.63-.47,1.63-1.53,0-.86-.45-1.1-1.69-1.34-1.57-.34-2.37-.72-2.37-2.17s1-2,2.46-2a19,19,0,0,1,2.3.22Z" fill="#4c4c4c" />
			<path d="M323.77,371.62l0,.64a18.65,18.65,0,0,1-2.14.18c-1.64,0-2.18-1-2.18-2.83,0-2.09.9-2.89,2.3-2.89s2.21.77,2.21,2.57l-.05.63H320.3c0,1.18.37,1.79,1.45,1.79C322.57,371.71,323.77,371.62,323.77,371.62Zm-.62-2.36c0-1.36-.41-1.85-1.38-1.85s-1.47.52-1.48,1.85Z" fill="#4c4c4c" />
			<path d="M325.26,366.83h.82v.4a3.69,3.69,0,0,1,1.65-.51c1.39,0,2,.85,2,2.79,0,2.16-.7,2.93-2.4,2.93a7.37,7.37,0,0,1-1.23-.12v2.45h-.83Zm.83,1.07v3.7a6.86,6.86,0,0,0,1.19.13c1.21,0,1.6-.63,1.6-2.22s-.47-2.05-1.27-2.05A3.59,3.59,0,0,0,326.09,367.9Z" fill="#4c4c4c" />
			<path d="M369.54,368.56c0-2.51.65-3.95,3-3.95s3,1.42,3,3.95-.65,3.88-3,3.88S369.54,371.11,369.54,368.56Zm5.14,0c0-2.06-.4-3.2-2.14-3.2s-2.13,1.13-2.13,3.2.37,3.13,2.13,3.13S374.68,370.7,374.68,368.56Z" fill="#4c4c4c" />
			<path d="M380.52,366.88l0,.68s-.88-.1-1.29-.1c-1.27,0-1.61.55-1.61,2,0,1.63.25,2.22,1.62,2.22.42,0,1.3-.1,1.3-.1l0,.69a15.21,15.21,0,0,1-1.53.15c-1.75,0-2.27-.8-2.27-3,0-2,.65-2.76,2.29-2.76A13.14,13.14,0,0,1,380.52,366.88Z" fill="#4c4c4c" />
			<path d="M382.86,367.55v2.62c0,1.2.08,1.54.79,1.54.31,0,1-.06,1-.06l.06.68a9.78,9.78,0,0,1-1.13.12c-1.13,0-1.51-.43-1.51-2v-2.89h-.79v-.72h.79v-1.68h.81v1.68h1.75v.72Z" fill="#4c4c4c" />
			<path d="M424.41,364.72H426l2.92,6.86h.23v-6.86H430v7.61h-1.55l-3-6.86h-.21v6.86h-.84Z" fill="#4c4c4c" />
			<path d="M436.16,369.51c0,2-.49,2.93-2.35,2.93s-2.35-.92-2.35-2.93.61-2.79,2.35-2.79S436.16,367.62,436.16,369.51Zm-.84,0c0-1.53-.33-2.07-1.51-2.07s-1.51.54-1.51,2.07.21,2.22,1.51,2.22S435.32,371.08,435.32,369.51Z" fill="#4c4c4c" />
			<path d="M437.77,366.83l1.29,4.79h.4l1.34-4.79h.84l-1.55,5.5h-1.65l-1.55-5.5Z" fill="#4c4c4c" />
			<path d="M481.48,372.33v-7.61h2.72c2.21,0,2.82,1.54,2.82,3.69s-.57,3.92-2.82,3.92Zm2.72-6.86h-1.87v6.11h1.87c1.59,0,1.95-1.52,1.95-3.17S485.79,365.47,484.2,365.47Z" fill="#4c4c4c" />
			<path d="M492.5,371.62l0,.64a18.93,18.93,0,0,1-2.15.18c-1.64,0-2.18-1-2.18-2.83,0-2.09.91-2.89,2.3-2.89s2.21.77,2.21,2.57l0,.63H489c0,1.18.36,1.79,1.44,1.79C491.3,371.71,492.5,371.62,492.5,371.62Zm-.62-2.36c0-1.36-.42-1.85-1.39-1.85s-1.46.52-1.47,1.85Z" fill="#4c4c4c" />
			<path d="M497.54,366.88l0,.68s-.88-.1-1.3-.1c-1.26,0-1.6.55-1.6,2,0,1.63.25,2.22,1.61,2.22.42,0,1.3-.1,1.3-.1l0,.69a14.9,14.9,0,0,1-1.52.15c-1.75,0-2.27-.8-2.27-3,0-2,.65-2.76,2.29-2.76A13.17,13.17,0,0,1,497.54,366.88Z" fill="#4c4c4c" />
			<path d="M40.22,29.6h3.36l3.8,13.84H45.86l-1-3.56H38.94l-1,3.56H36.42Zm-.94,8.9h5.24l-2.1-7.58h-1Z" />
			<path d="M55,36.36h3.82v6.8a33.32,33.32,0,0,1-4.5.49C50.12,43.65,49,41,49,36.56s1.16-7.16,5.32-7.16a25.77,25.77,0,0,1,4.54.52L58.8,31.2a31.73,31.73,0,0,0-4.3-.42c-3.2,0-3.9,1.86-3.9,5.78s.68,5.72,3.88,5.72A18.56,18.56,0,0,0,57.34,42V37.74H55Z" />
			<path d="M71.34,29.6,67.72,43.44H64.28L60.66,29.6h1.6l3.18,12.48h1.12L69.74,29.6Z" />
			<path d="M85.76,30.24v1.4H79.34L79,35.94a7.62,7.62,0,0,1,3.1-.82c2.58,0,4.2,1.08,4.2,3.9,0,3-1.66,4.61-4.42,4.61a21.77,21.77,0,0,1-4.38-.58l.18-1.23a26.33,26.33,0,0,0,4.06.44,2.79,2.79,0,0,0,3-3.12c0-2-1.12-2.64-2.8-2.64a7.57,7.57,0,0,0-3.14.8l-1.06-.2.36-6.86Z" />
			<line x1="496.68" y1="358.88" x2="37.73" y2="358.88" fill="none" stroke="#adadad" stroke-miterlimit="10" />
			<polyline points="41.93 354.38 84.22 352.19 117.57 347.8 139.01 345.16 155.68 339.89 175.93 335.5 194.11 333.93 210.98 327.34 222.38 318.81 233.1 315.3 248.59 310.91 268.84 308.27 285.51 303.88 297.43 303.88 311.72 308.27 326.01 310.03 339.11 315.3 352.22 319.69 364.13 321.45 385.57 325.84 397.48 332.87 410.58 339.89 420.11 344.28 435.59 348.67 445.12 351.31 466.56 353.94 481.45 351.75 493.36 346.48" fill="none" stroke="#3899e8" />
			<polyline points="40.74 354.38 83.03 352.19 116.38 347.8 137.82 345.16 154.49 339.89 174.74 335.5 192.92 333.93 209.79 327.34 221.19 318.81 231.91 315.3 247.4 311.79 267.65 310.03 284.32 305.64 296.23 303.88 310.53 308.27 324.82 310.03 337.92 315.3 351.02 319.69 362.94 321.45 384.38 325.84 396.29 332.87 409.39 339.89 418.92 344.28 434.4 348.67 443.93 351.31 465.37 353.94 480.26 351.75 492.17 346.48" fill="none" stroke="#8dc5f2" />
			<rect x="40.69" y="296.36" width="451.79" height="58.52" fill="none" />
			<path d="M37.89,431.86h9v1.24h-3.8v11.22H41.73V433.1H37.89Z" fill="#3a3d3f" />
			<path d="M55.73,439.71c0,3.28-.81,4.79-3.85,4.79S48,443,48,439.71c0-3.1,1-4.57,3.85-4.57S55.73,436.61,55.73,439.71Zm-1.39,0c0-2.5-.54-3.4-2.46-3.4s-2.47.9-2.47,3.4.34,3.62,2.47,3.62S54.34,442.27,54.34,439.71Z" fill="#3a3d3f" />
			<path d="M64.84,444.32H63.51v-.61a6.49,6.49,0,0,1-2.74.79c-1.76,0-3.24-.72-3.24-4.61,0-3.17,1-4.75,3.76-4.75a15.79,15.79,0,0,1,2.22.23v-4h1.33Zm-1.33-1.69v-6.11a16.26,16.26,0,0,0-2.15-.21c-1.89,0-2.44,1.24-2.44,3.58,0,2.92.95,3.4,2,3.4A6.62,6.62,0,0,0,63.51,442.63Z" fill="#3a3d3f" />
			<path d="M73.8,442.65c0,.52.47.72,1,.79l-.06,1.06a2.75,2.75,0,0,1-2.14-.72,9.2,9.2,0,0,1-3.24.72c-1.64,0-2.54-.94-2.54-2.75s.9-2.49,2.75-2.67l2.83-.27V438c0-1.26-.54-1.71-1.62-1.71-1.26,0-3.4.23-3.4.23l-.06-1a22.3,22.3,0,0,1,3.53-.39c2,0,2.9.93,2.9,2.9Zm-4-2.56c-1.1.11-1.53.63-1.53,1.62s.45,1.66,1.36,1.66a9.48,9.48,0,0,0,2.83-.56v-3Z" fill="#3a3d3f" />
			<path d="M77,435.32l2.25,7.83h.59l2.27-7.83h1.35l-3.74,13H78.34l1.17-4H78.17l-2.55-9Z" fill="#3a3d3f" />
			<path d="M89.12,431.72h1.35v1.56H89.12Zm0,3.6h1.35v9H89.12Z" fill="#3a3d3f" />
			<path d="M94.86,436.49v4.3c0,2,.13,2.52,1.3,2.52.5,0,1.6-.11,1.6-.11l.09,1.12a15.71,15.71,0,0,1-1.84.2c-1.85,0-2.48-.7-2.48-3.3v-4.73H92.25v-1.17h1.28v-2.76h1.33v2.76h2.86v1.17Z" fill="#3a3d3f" />
			<path d="M103.34,431.72h1.35v1.56h-1.35Zm0,3.6h1.35v9h-1.35Z" fill="#3a3d3f" />
			<path d="M113.26,436.63a29.33,29.33,0,0,0-3.15-.29c-1.12,0-2,.31-2,1.37,0,.85.44,1.08,2.34,1.41,2.26.38,3.1.83,3.1,2.57,0,2.11-1.33,2.81-3.49,2.81a25.65,25.65,0,0,1-3.17-.34L107,443s2.05.3,3,.3c1.48,0,2.27-.32,2.27-1.54,0-.94-.47-1.17-2.43-1.48s-3-.7-3-2.5c0-2,1.61-2.63,3.24-2.63a23.19,23.19,0,0,1,3.26.34Z" fill="#3a3d3f" />
			<path d="M119.61,435.32h1.33V436a6.12,6.12,0,0,1,2.7-.83c2.27,0,3.26,1.38,3.26,4.57,0,3.53-1.15,4.79-3.92,4.79a11,11,0,0,1-2-.2v4h-1.35Zm1.35,1.74v6.07a12.8,12.8,0,0,0,2,.2c2,0,2.62-1,2.62-3.62s-.77-3.37-2.08-3.37A5.87,5.87,0,0,0,121,437.06Z" fill="#3a3d3f" />
			<path d="M136.41,439.71c0,3.28-.81,4.79-3.86,4.79s-3.85-1.51-3.85-4.79c0-3.1,1-4.57,3.85-4.57S136.41,436.61,136.41,439.71Zm-1.39,0c0-2.5-.54-3.4-2.47-3.4s-2.46.9-2.46,3.4.34,3.62,2.46,3.62S135,442.27,135,439.71Z" fill="#3a3d3f" />
			<path d="M144.58,436.63a29.33,29.33,0,0,0-3.15-.29c-1.12,0-2,.31-2,1.37,0,.85.44,1.08,2.34,1.41,2.26.38,3.1.83,3.1,2.57,0,2.11-1.33,2.81-3.49,2.81a25.65,25.65,0,0,1-3.17-.34l.07-1.17s2.05.3,3,.3c1.48,0,2.27-.32,2.27-1.54,0-.94-.47-1.17-2.43-1.48s-3-.7-3-2.5c0-2,1.61-2.63,3.24-2.63a23.19,23.19,0,0,1,3.26.34Z" fill="#3a3d3f" />
			<path d="M153,436.63a29.33,29.33,0,0,0-3.15-.29c-1.12,0-2,.31-2,1.37,0,.85.44,1.08,2.34,1.41,2.26.38,3.1.83,3.1,2.57,0,2.11-1.33,2.81-3.49,2.81a25.65,25.65,0,0,1-3.17-.34l.07-1.17s2,.3,3,.3c1.48,0,2.27-.32,2.27-1.54,0-.94-.47-1.17-2.43-1.48s-3-.7-3-2.5c0-2,1.61-2.63,3.24-2.63a23,23,0,0,1,3.26.34Z" fill="#3a3d3f" />
			<path d="M155.34,431.72h1.35v1.56h-1.35Zm0,3.6h1.35v9h-1.35Z" fill="#3a3d3f" />
			<path d="M166.54,439.68c0,3.58-1,4.82-4.25,4.82-1.08,0-3-.2-3-.2V431.39h1.33v4.38a7.44,7.44,0,0,1,2.65-.63C165.71,435.14,166.54,436.43,166.54,439.68Zm-1.37,0c0-2.33-.47-3.34-2-3.34a7.47,7.47,0,0,0-2.51.53v6.33s1.17.09,1.66.09C164.74,443.29,165.17,442.2,165.17,439.68Z" fill="#3a3d3f" />
			<path d="M168.86,431.39h1.35v12.93h-1.35Z" fill="#3a3d3f" />
			<path d="M179.55,443.15l0,1.06a31.12,31.12,0,0,1-3.51.29c-2.69,0-3.57-1.57-3.57-4.63,0-3.42,1.48-4.73,3.76-4.73s3.62,1.26,3.62,4.21l-.07,1h-5.94c0,1.92.59,2.93,2.36,2.93C177.59,443.31,179.55,443.15,179.55,443.15Zm-1-3.85c0-2.24-.68-3-2.27-3s-2.39.85-2.41,3Z" fill="#3a3d3f" />
			<path d="M187.76,436.49v4.3c0,2,.12,2.52,1.29,2.52.51,0,1.61-.11,1.61-.11l.09,1.12a15.71,15.71,0,0,1-1.84.2c-1.85,0-2.48-.7-2.48-3.3v-4.73h-1.28v-1.17h1.28v-2.76h1.33v2.76h2.86v1.17Z" fill="#3a3d3f" />
			<path d="M199.59,439.71c0,3.28-.81,4.79-3.86,4.79s-3.85-1.51-3.85-4.79c0-3.1,1-4.57,3.85-4.57S199.59,436.61,199.59,439.71Zm-1.39,0c0-2.5-.54-3.4-2.47-3.4s-2.46.9-2.46,3.4.34,3.62,2.46,3.62S198.2,442.27,198.2,439.71Z" fill="#3a3d3f" />
			<path d="M211.56,435.41l-.06,1.1s-1.44-.17-2.12-.17c-2.07,0-2.63.9-2.63,3.32,0,2.66.41,3.63,2.64,3.63.69,0,2.13-.16,2.13-.16l0,1.12a24,24,0,0,1-2.5.25c-2.86,0-3.71-1.31-3.71-4.84,0-3.26,1.06-4.52,3.75-4.52A21.18,21.18,0,0,1,211.56,435.41Z" fill="#3a3d3f" />
			<path d="M213.59,444.32V431.39h1.35v4.43a7.64,7.64,0,0,1,2.77-.68c2.47,0,3,1.22,3,4.43v4.75H219.4V439.6c0-2.37-.27-3.26-1.92-3.26a7.41,7.41,0,0,0-2.54.54v7.44Z" fill="#3a3d3f" />
			<path d="M229.61,442.65c0,.52.47.72,1,.79l-.05,1.06a2.75,2.75,0,0,1-2.14-.72,9.2,9.2,0,0,1-3.24.72c-1.64,0-2.54-.94-2.54-2.75s.9-2.49,2.75-2.67l2.83-.27V438c0-1.26-.54-1.71-1.62-1.71-1.26,0-3.4.23-3.4.23l-.06-1a22.13,22.13,0,0,1,3.53-.39c2,0,2.9.93,2.9,2.9Zm-4-2.56c-1.09.11-1.53.63-1.53,1.62s.45,1.66,1.37,1.66a9.57,9.57,0,0,0,2.83-.56v-3Z" fill="#3a3d3f" />
			<path d="M232.27,435.32h1.33v1.22a10.17,10.17,0,0,1,3.3-1.42v1.37a13.15,13.15,0,0,0-3.28,1.22v6.61h-1.35Z" fill="#3a3d3f" />
			<path d="M238.1,445.83c0-1,.49-1.53,1.42-2.23a1.47,1.47,0,0,1-.5-1.24,5.82,5.82,0,0,1,.61-1.42,2.64,2.64,0,0,1-1.42-2.72c0-2.22,1.37-3.08,3.37-3.08a9.43,9.43,0,0,1,1.87.23l2.67-.07v1.15l-1.72,0a2.3,2.3,0,0,1,.6,1.8c0,2.34-1.17,3-3.48,3-.18,0-.68,0-.88-.07a5.42,5.42,0,0,0-.32,1c0,.72.14.83,2.18.83,2.55,0,3.47.51,3.47,2.65s-1.46,2.86-4,2.86C239.13,448.55,238.1,447.92,238.1,445.83Zm2.34-1.69c-.75.56-1,.88-1,1.58,0,1.25.53,1.7,2.56,1.7,1.8,0,2.61-.49,2.61-1.68,0-1.37-.57-1.51-2.21-1.51C241.76,444.23,240.44,444.14,240.44,444.14Zm3.21-5.92c0-1.43-.56-2-2.07-2s-2,.55-2,2,.61,2,2,2S243.65,439.64,243.65,438.22Z" fill="#3a3d3f" />
			<path d="M254.39,443.15l0,1.06a31.12,31.12,0,0,1-3.51.29c-2.68,0-3.57-1.57-3.57-4.63,0-3.42,1.48-4.73,3.77-4.73s3.62,1.26,3.62,4.21l-.08,1h-5.94c0,1.92.6,2.93,2.36,2.93C252.43,443.31,254.39,443.15,254.39,443.15Zm-1-3.85c0-2.24-.69-3-2.27-3s-2.4.85-2.42,3Z" fill="#3a3d3f" />
			<path d="M263.36,431.86h3l3.42,12.46h-1.37l-.9-3.2H262.2l-.9,3.2h-1.36Zm-.85,8h4.72l-1.89-6.82h-.94Z" fill="#3a3d3f" />
			<path d="M276.7,438h3.43v6.12a30.55,30.55,0,0,1-4.05.43c-3.81,0-4.82-2.34-4.82-6.37s1-6.45,4.79-6.45a23,23,0,0,1,4.08.47l-.05,1.15a28.37,28.37,0,0,0-3.87-.38c-2.88,0-3.51,1.68-3.51,5.21s.61,5.15,3.49,5.15a16.67,16.67,0,0,0,2.58-.26v-3.83H276.7Z" fill="#3a3d3f" />
			<path d="M291.37,431.86l-3.26,12.46H285l-3.26-12.46h1.44l2.86,11.24h1l2.87-11.24Z" fill="#3a3d3f" />
			<path d="M300.38,432.44v1.26H294.6l-.32,3.87a6.87,6.87,0,0,1,2.79-.74c2.32,0,3.78,1,3.78,3.51,0,2.74-1.49,4.14-4,4.14a19.6,19.6,0,0,1-3.94-.52l.16-1.1a23.49,23.49,0,0,0,3.66.4,2.51,2.51,0,0,0,2.68-2.81c0-1.8-1-2.38-2.52-2.38a6.82,6.82,0,0,0-2.83.72l-.95-.18.32-6.17Z" fill="#3a3d3f" />
			<path d="M307.13,431.72h1.35v1.56h-1.35Zm0,3.6h1.35v9h-1.35Z" fill="#3a3d3f" />
			<path d="M311.07,444.32v-9h1.34V436a6.79,6.79,0,0,1,2.79-.81c2.48,0,3,1.22,3,4.43v4.75h-1.33V439.6c0-2.37-.27-3.26-2-3.26a6.12,6.12,0,0,0-2.54.67v7.31Z" fill="#3a3d3f" />
			<path d="M331.05,442.65c0,.52.47.72,1.05.79L332,444.5a2.75,2.75,0,0,1-2.14-.72,9.2,9.2,0,0,1-3.24.72c-1.64,0-2.54-.94-2.54-2.75s.9-2.49,2.76-2.67l2.82-.27V438c0-1.26-.54-1.71-1.62-1.71-1.26,0-3.4.23-3.4.23l-.05-1a22.13,22.13,0,0,1,3.53-.39c2,0,2.89.93,2.89,2.9Zm-4-2.56c-1.1.11-1.53.63-1.53,1.62s.45,1.66,1.37,1.66a9.47,9.47,0,0,0,2.82-.56v-3Z" fill="#3a3d3f" />
			<path d="M337.78,431.39h1.35v12.93h-1.35Z" fill="#3a3d3f" />
			<path d="M348.48,443.15l0,1.06a31.12,31.12,0,0,1-3.51.29c-2.68,0-3.56-1.57-3.56-4.63,0-3.42,1.47-4.73,3.76-4.73s3.62,1.26,3.62,4.21l-.07,1h-5.94c0,1.92.59,2.93,2.35,2.93C346.52,443.31,348.48,443.15,348.48,443.15Zm-1-3.85c0-2.24-.68-3-2.27-3s-2.39.85-2.41,3Z" fill="#3a3d3f" />
			<path d="M356.9,436.63a29.33,29.33,0,0,0-3.15-.29c-1.12,0-2,.31-2,1.37,0,.85.43,1.08,2.34,1.41,2.25.38,3.1.83,3.1,2.57,0,2.11-1.34,2.81-3.5,2.81a25.65,25.65,0,0,1-3.17-.34l.08-1.17s2.05.3,3,.3c1.47,0,2.27-.32,2.27-1.54,0-.94-.47-1.17-2.43-1.48s-3-.7-3-2.5c0-2,1.6-2.63,3.24-2.63a23.19,23.19,0,0,1,3.26.34Z" fill="#3a3d3f" />
			<path d="M365.27,436.63a29.33,29.33,0,0,0-3.15-.29c-1.12,0-2,.31-2,1.37,0,.85.43,1.08,2.34,1.41,2.25.38,3.1.83,3.1,2.57,0,2.11-1.34,2.81-3.5,2.81a25.65,25.65,0,0,1-3.17-.34L359,443s2.05.3,3,.3c1.47,0,2.27-.32,2.27-1.54,0-.94-.47-1.17-2.43-1.48s-3-.7-3-2.5c0-2,1.6-2.63,3.24-2.63a23.19,23.19,0,0,1,3.26.34Z" fill="#3a3d3f" />
			<path d="M371.62,431.72H373v1.56h-1.35Zm0,3.6H373v9h-1.35Z" fill="#3a3d3f" />
			<path d="M375.57,444.32v-9h1.33V436a6.85,6.85,0,0,1,2.79-.81c2.48,0,3,1.22,3,4.43v4.75H381.4V439.6c0-2.37-.27-3.26-1.94-3.26a6.12,6.12,0,0,0-2.54.67v7.31Z" fill="#3a3d3f" />
			<path d="M387,436.49v4.3c0,2,.13,2.52,1.3,2.52.5,0,1.6-.11,1.6-.11l.09,1.12a15.44,15.44,0,0,1-1.83.2c-1.86,0-2.49-.7-2.49-3.3v-4.73h-1.28v-1.17h1.28v-2.76H387v2.76h2.87v1.17Z" fill="#3a3d3f" />
			<path d="M398.2,443.15l0,1.06a31.12,31.12,0,0,1-3.51.29c-2.68,0-3.56-1.57-3.56-4.63,0-3.42,1.47-4.73,3.76-4.73s3.62,1.26,3.62,4.21l-.07,1h-6c0,1.92.6,2.93,2.36,2.93C396.23,443.31,398.2,443.15,398.2,443.15Zm-1-3.85c0-2.24-.69-3-2.27-3s-2.4.85-2.41,3Z" fill="#3a3d3f" />
			<path d="M400.64,444.32v-9H402V436a6.85,6.85,0,0,1,2.79-.81c2.49,0,3.05,1.22,3.05,4.43v4.75h-1.34V439.6c0-2.37-.27-3.26-1.94-3.26A6.12,6.12,0,0,0,402,437v7.31Z" fill="#3a3d3f" />
			<path d="M416.29,436.63a29.33,29.33,0,0,0-3.16-.29c-1.11,0-2,.31-2,1.37,0,.85.43,1.08,2.34,1.41,2.25.38,3.1.83,3.1,2.57,0,2.11-1.33,2.81-3.49,2.81a25.4,25.4,0,0,1-3.17-.34L410,443s2.05.3,3,.3c1.48,0,2.27-.32,2.27-1.54,0-.94-.47-1.17-2.43-1.48s-3-.7-3-2.5c0-2,1.6-2.63,3.24-2.63a23.19,23.19,0,0,1,3.26.34Z" fill="#3a3d3f" />
			<path d="M418.68,431.72H420v1.56h-1.35Zm0,3.6H420v9h-1.35Z" fill="#3a3d3f" />
			<path d="M423.21,435.32l2.11,7.83H426l2.17-7.83h1.39l-2.54,9h-2.7l-2.54-9Z" fill="#3a3d3f" />
			<path d="M437.92,443.15l0,1.06a31.12,31.12,0,0,1-3.51.29c-2.69,0-3.57-1.57-3.57-4.63,0-3.42,1.48-4.73,3.76-4.73s3.62,1.26,3.62,4.21l-.07,1h-5.94c0,1.92.59,2.93,2.36,2.93C436,443.31,437.92,443.15,437.92,443.15Zm-1-3.85c0-2.24-.68-3-2.27-3s-2.39.85-2.41,3Z" fill="#3a3d3f" />
			<path d="M444.33,435.32h1.33V436a6.12,6.12,0,0,1,2.7-.83c2.27,0,3.26,1.38,3.26,4.57,0,3.53-1.15,4.79-3.93,4.79a11,11,0,0,1-2-.2v4h-1.35Zm1.35,1.74v6.07a12.78,12.78,0,0,0,1.94.2c2,0,2.63-1,2.63-3.62s-.77-3.37-2.09-3.37A5.86,5.86,0,0,0,445.68,437.06Z" fill="#3a3d3f" />
			<path d="M460.46,443.15l0,1.06a31.12,31.12,0,0,1-3.51.29c-2.68,0-3.56-1.57-3.56-4.63,0-3.42,1.47-4.73,3.76-4.73s3.62,1.26,3.62,4.21l-.07,1h-5.94c0,1.92.59,2.93,2.35,2.93C458.5,443.31,460.46,443.15,460.46,443.15Zm-1-3.85c0-2.24-.68-3-2.27-3s-2.39.85-2.41,3Z" fill="#3a3d3f" />
			<path d="M462.9,435.32h1.34v1.22a10.06,10.06,0,0,1,3.29-1.42v1.37a13.15,13.15,0,0,0-3.28,1.22v6.61H462.9Z" fill="#3a3d3f" />
			<path d="M469.13,431.72h1.35v1.56h-1.35Zm0,3.6h1.35v9h-1.35Z" fill="#3a3d3f" />
			<path d="M480.38,439.71c0,3.28-.81,4.79-3.85,4.79s-3.85-1.51-3.85-4.79c0-3.1,1-4.57,3.85-4.57S480.38,436.61,480.38,439.71Zm-1.38,0c0-2.5-.54-3.4-2.47-3.4s-2.47.9-2.47,3.4.35,3.62,2.47,3.62S479,442.27,479,439.71Z" fill="#3a3d3f" />
			<path d="M489.49,444.32h-1.33v-.61a6.49,6.49,0,0,1-2.74.79c-1.76,0-3.24-.72-3.24-4.61,0-3.17,1-4.75,3.76-4.75a15.79,15.79,0,0,1,2.22.23v-4h1.33Zm-1.33-1.69v-6.11a16.26,16.26,0,0,0-2.14-.21c-1.9,0-2.45,1.24-2.45,3.58,0,2.92.95,3.4,2,3.4A6.62,6.62,0,0,0,488.16,442.63Z" fill="#3a3d3f" />
			<path d="M492,442.27h1.47v2.05H492Z" fill="#3a3d3f" />
			<path d="M46.71,472.12a18.72,18.72,0,0,1-3.44.38c-3.72,0-4.55-2.27-4.55-6.37s.81-6.45,4.55-6.45a17.59,17.59,0,0,1,3.44.4l-.05,1.17a21.38,21.38,0,0,0-3.24-.33c-2.77,0-3.26,1.66-3.26,5.21s.45,5.13,3.29,5.13a18.84,18.84,0,0,0,3.21-.33Z" fill="#3a3d3f" />
			<path d="M48.75,472.32V459.39H50.1v4.43a7.64,7.64,0,0,1,2.77-.68c2.47,0,3,1.22,3,4.43v4.75H54.56V467.6c0-2.37-.27-3.26-1.93-3.26a7.39,7.39,0,0,0-2.53.54v7.44Z" fill="#3a3d3f" />
			<path d="M64.77,470.65c0,.52.47.72,1,.79l0,1.06a2.74,2.74,0,0,1-2.14-.72,9.22,9.22,0,0,1-3.25.72c-1.63,0-2.54-.94-2.54-2.75s.91-2.49,2.76-2.67l2.83-.27V466c0-1.26-.54-1.71-1.62-1.71-1.26,0-3.41.23-3.41.23l0-1a22.13,22.13,0,0,1,3.53-.39c2,0,2.9.93,2.9,2.9Zm-4-2.56c-1.1.11-1.53.63-1.53,1.62s.45,1.66,1.37,1.66a9.57,9.57,0,0,0,2.83-.56v-3Z" fill="#3a3d3f" />
			<path d="M67.43,463.32h1.33v1.22a10.17,10.17,0,0,1,3.3-1.42v1.37a13,13,0,0,0-3.28,1.22v6.61H67.43Z" fill="#3a3d3f" />
			<path d="M73.26,473.83c0-1,.49-1.53,1.42-2.23a1.47,1.47,0,0,1-.5-1.24,5.82,5.82,0,0,1,.61-1.42,2.64,2.64,0,0,1-1.42-2.72c0-2.22,1.37-3.08,3.37-3.08a9.43,9.43,0,0,1,1.87.23l2.66-.07v1.15l-1.71,0a2.33,2.33,0,0,1,.6,1.8c0,2.34-1.17,3-3.48,3-.18,0-.68,0-.88-.07a5.42,5.42,0,0,0-.32,1c0,.72.14.83,2.17.83,2.56,0,3.48.51,3.48,2.65s-1.46,2.86-4,2.86C74.29,476.55,73.26,475.92,73.26,473.83Zm2.34-1.69c-.76.56-1,.88-1,1.58,0,1.25.53,1.7,2.56,1.7,1.8,0,2.61-.49,2.61-1.68,0-1.37-.58-1.51-2.21-1.51C76.92,472.23,75.6,472.14,75.6,472.14Zm3.21-5.92c0-1.43-.56-2-2.07-2s-2,.55-2,2,.61,2,2,2S78.81,467.64,78.81,466.22Z" fill="#3a3d3f" />
			<path d="M82.91,459.72h1.35v1.56H82.91Zm0,3.6h1.35v9H82.91Z" fill="#3a3d3f" />
			<path d="M86.85,472.32v-9h1.33V464a6.85,6.85,0,0,1,2.79-.81c2.49,0,3,1.22,3,4.43v4.75H92.68V467.6c0-2.37-.27-3.26-1.94-3.26a6.12,6.12,0,0,0-2.54.67v7.31Z" fill="#3a3d3f" />
			<path d="M96.12,473.83c0-1,.49-1.53,1.42-2.23a1.47,1.47,0,0,1-.5-1.24,5.82,5.82,0,0,1,.61-1.42c-.76-.35-1.42-1.07-1.42-2.72,0-2.22,1.37-3.08,3.36-3.08a9.46,9.46,0,0,1,1.88.23l2.66-.07v1.15l-1.71,0a2.33,2.33,0,0,1,.6,1.8c0,2.34-1.17,3-3.48,3-.18,0-.68,0-.88-.07a5.3,5.3,0,0,0-.33,1c0,.72.15.83,2.18.83,2.56,0,3.48.51,3.48,2.65s-1.46,2.86-4,2.86C97.15,476.55,96.12,475.92,96.12,473.83Zm2.34-1.69c-.76.56-1,.88-1,1.58,0,1.25.52,1.7,2.56,1.7,1.8,0,2.61-.49,2.61-1.68,0-1.37-.58-1.51-2.21-1.51C99.78,472.23,98.46,472.14,98.46,472.14Zm3.21-5.92c0-1.43-.56-2-2.08-2s-2,.55-2,2,.61,2,2,2S101.67,467.64,101.67,466.22Z" fill="#3a3d3f" />
			<path d="M111.53,464.49v4.3c0,2,.12,2.52,1.3,2.52.5,0,1.6-.11,1.6-.11l.09,1.12a15.71,15.71,0,0,1-1.84.2c-1.85,0-2.48-.7-2.48-3.3v-4.73h-1.28v-1.17h1.28v-2.76h1.33v2.76h2.86v1.17Z" fill="#3a3d3f" />
			<path d="M116.05,472.32V459.39h1.35v4.43a7.64,7.64,0,0,1,2.77-.68c2.47,0,3,1.22,3,4.43v4.75h-1.35V467.6c0-2.37-.27-3.26-1.92-3.26a7.41,7.41,0,0,0-2.54.54v7.44Z" fill="#3a3d3f" />
			<path d="M125.71,459.72h1.35v1.56h-1.35Zm0,3.6h1.35v9h-1.35Z" fill="#3a3d3f" />
			<path d="M135.63,464.63a29.33,29.33,0,0,0-3.15-.29c-1.11,0-2,.31-2,1.37,0,.85.43,1.08,2.34,1.41,2.25.38,3.1.83,3.1,2.57,0,2.11-1.34,2.81-3.5,2.81a25.65,25.65,0,0,1-3.17-.34l.08-1.17s2,.3,3,.3c1.47,0,2.27-.32,2.27-1.54,0-.94-.47-1.17-2.43-1.48s-3-.7-3-2.5c0-2,1.6-2.63,3.24-2.63a23.19,23.19,0,0,1,3.26.34Z" fill="#3a3d3f" />
			<path d="M142.58,463.32l2.11,7.83h.66l2.18-7.83h1.39l-2.54,9h-2.7l-2.54-9Z" fill="#3a3d3f" />
			<path d="M157.29,471.15l0,1.06a31.12,31.12,0,0,1-3.51.29c-2.68,0-3.56-1.57-3.56-4.63,0-3.42,1.47-4.73,3.76-4.73s3.62,1.26,3.62,4.21l-.07,1h-5.94c0,1.92.59,2.93,2.35,2.93C155.32,471.31,157.29,471.15,157.29,471.15Zm-1-3.85c0-2.24-.69-3-2.27-3s-2.39.85-2.41,3Z" fill="#3a3d3f" />
			<path d="M159.73,472.32V459.39h1.35v4.43a7.65,7.65,0,0,1,2.78-.68c2.46,0,3,1.22,3,4.43v4.75h-1.35V467.6c0-2.37-.27-3.26-1.93-3.26a7.41,7.41,0,0,0-2.54.54v7.44Z" fill="#3a3d3f" />
			<path d="M169.4,459.72h1.35v1.56H169.4Zm0,3.6h1.35v9H169.4Z" fill="#3a3d3f" />
			<path d="M179.16,463.41l-.06,1.1s-1.44-.17-2.12-.17c-2.07,0-2.63.9-2.63,3.32,0,2.66.41,3.63,2.65,3.63.68,0,2.12-.16,2.12-.16l0,1.12a24,24,0,0,1-2.5.25c-2.86,0-3.71-1.31-3.71-4.84,0-3.26,1.06-4.52,3.75-4.52A20.89,20.89,0,0,1,179.16,463.41Z" fill="#3a3d3f" />
			<path d="M181.3,459.39h1.35v12.93H181.3Z" fill="#3a3d3f" />
			<path d="M192,471.15l0,1.06a31.4,31.4,0,0,1-3.52.29c-2.68,0-3.56-1.57-3.56-4.63,0-3.42,1.48-4.73,3.76-4.73s3.62,1.26,3.62,4.21l-.07,1h-5.94c0,1.92.59,2.93,2.36,2.93C190,471.31,192,471.15,192,471.15Zm-1-3.85c0-2.24-.68-3-2.27-3s-2.39.85-2.41,3Z" fill="#3a3d3f" />
			<path d="M205.31,472.32H204v-.61a6.49,6.49,0,0,1-2.74.79c-1.76,0-3.24-.72-3.24-4.61,0-3.17,1-4.75,3.76-4.75a15.79,15.79,0,0,1,2.22.23v-4h1.33ZM204,470.63v-6.11a16.26,16.26,0,0,0-2.15-.21c-1.89,0-2.44,1.24-2.44,3.58,0,2.92,1,3.4,2,3.4A6.62,6.62,0,0,0,204,470.63Z" fill="#3a3d3f" />
			<path d="M215.23,467.71c0,3.28-.81,4.79-3.86,4.79s-3.85-1.51-3.85-4.79c0-3.1,1-4.57,3.85-4.57S215.23,464.61,215.23,467.71Zm-1.39,0c0-2.5-.54-3.4-2.47-3.4s-2.46.9-2.46,3.4.34,3.62,2.46,3.62S213.84,470.27,213.84,467.71Z" fill="#3a3d3f" />
			<path d="M224.07,471.15l0,1.06a31.12,31.12,0,0,1-3.51.29c-2.68,0-3.56-1.57-3.56-4.63,0-3.42,1.47-4.73,3.76-4.73s3.62,1.26,3.62,4.21l-.08,1h-5.94c0,1.92.6,2.93,2.36,2.93C222.1,471.31,224.07,471.15,224.07,471.15Zm-1-3.85c0-2.24-.69-3-2.27-3s-2.4.85-2.41,3Z" fill="#3a3d3f" />
			<path d="M232.49,464.63a29.33,29.33,0,0,0-3.15-.29c-1.12,0-2,.31-2,1.37,0,.85.43,1.08,2.34,1.41,2.25.38,3.09.83,3.09,2.57,0,2.11-1.33,2.81-3.49,2.81a25.65,25.65,0,0,1-3.17-.34l.07-1.17s2.06.3,3,.3c1.48,0,2.27-.32,2.27-1.54,0-.94-.47-1.17-2.43-1.48s-3-.7-3-2.5c0-2,1.6-2.63,3.24-2.63a23.19,23.19,0,0,1,3.26.34Z" fill="#3a3d3f" />
			<path d="M238.84,472.32v-9h1.33V464a6.85,6.85,0,0,1,2.79-.81c2.49,0,3,1.22,3,4.43v4.75h-1.34V467.6c0-2.37-.26-3.26-1.94-3.26a6.12,6.12,0,0,0-2.54.67v7.31Z" fill="#3a3d3f" />
			<path d="M255.82,467.71c0,3.28-.81,4.79-3.86,4.79s-3.85-1.51-3.85-4.79c0-3.1,1-4.57,3.85-4.57S255.82,464.61,255.82,467.71Zm-1.39,0c0-2.5-.54-3.4-2.47-3.4s-2.46.9-2.46,3.4.34,3.62,2.46,3.62S254.43,470.27,254.43,467.71Z" fill="#3a3d3f" />
			<path d="M259.81,464.49v4.3c0,2,.13,2.52,1.3,2.52.5,0,1.6-.11,1.6-.11l.09,1.12a15.71,15.71,0,0,1-1.84.2c-1.85,0-2.48-.7-2.48-3.3v-4.73H257.2v-1.17h1.28v-2.76h1.33v2.76h2.86v1.17Z" fill="#3a3d3f" />
			<path d="M274.11,463.41l-.06,1.1s-1.44-.17-2.12-.17c-2.07,0-2.63.9-2.63,3.32,0,2.66.41,3.63,2.64,3.63.69,0,2.13-.16,2.13-.16l.05,1.12a24,24,0,0,1-2.5.25c-2.86,0-3.71-1.31-3.71-4.84,0-3.26,1.06-4.52,3.75-4.52A21.18,21.18,0,0,1,274.11,463.41Z" fill="#3a3d3f" />
			<path d="M283.45,467.71c0,3.28-.81,4.79-3.86,4.79s-3.85-1.51-3.85-4.79c0-3.1,1-4.57,3.85-4.57S283.45,464.61,283.45,467.71Zm-1.39,0c0-2.5-.54-3.4-2.47-3.4s-2.46.9-2.46,3.4.34,3.62,2.46,3.62S282.06,470.27,282.06,467.71Z" fill="#3a3d3f" />
			<path d="M285.64,472.32v-9H287V464a6,6,0,0,1,2.63-.81,2.53,2.53,0,0,1,2.34.92,7.53,7.53,0,0,1,3.21-.92c2.45,0,3,1.17,3,4.43v4.75h-1.35V467.6c0-2.37-.27-3.26-1.89-3.26a6,6,0,0,0-2.54.67,10.24,10.24,0,0,1,.24,2.63v4.68h-1.36v-4.64c0-2.49-.25-3.34-1.89-3.34A5.39,5.39,0,0,0,287,465v7.31Z" fill="#3a3d3f" />
			<path d="M300.69,463.32H302V464a6.12,6.12,0,0,1,2.7-.83c2.27,0,3.26,1.38,3.26,4.57,0,3.53-1.15,4.79-3.92,4.79a11,11,0,0,1-2-.2v4h-1.35Zm1.35,1.74v6.07a12.78,12.78,0,0,0,1.94.2c2,0,2.63-1,2.63-3.62s-.77-3.37-2.09-3.37A5.86,5.86,0,0,0,302,465.06Z" fill="#3a3d3f" />
			<path d="M310.17,463.32h1.34v1.22a10.06,10.06,0,0,1,3.29-1.42v1.37a13,13,0,0,0-3.27,1.22v6.61h-1.36Z" fill="#3a3d3f" />
			<path d="M323.71,467.71c0,3.28-.81,4.79-3.85,4.79S316,471,316,467.71c0-3.1,1-4.57,3.85-4.57S323.71,464.61,323.71,467.71Zm-1.38,0c0-2.5-.54-3.4-2.47-3.4s-2.47.9-2.47,3.4.35,3.62,2.47,3.62S322.33,470.27,322.33,467.71Z" fill="#3a3d3f" />
			<path d="M325.91,472.32v-9h1.33V464a6,6,0,0,1,2.63-.81,2.54,2.54,0,0,1,2.34.92,7.46,7.46,0,0,1,3.2-.92c2.45,0,3,1.17,3,4.43v4.75h-1.35V467.6c0-2.37-.27-3.26-1.89-3.26a5.89,5.89,0,0,0-2.54.67,10.34,10.34,0,0,1,.23,2.63v4.68h-1.35v-4.64c0-2.49-.25-3.34-1.89-3.34a5.34,5.34,0,0,0-2.41.67v7.31Z" fill="#3a3d3f" />
			<path d="M341,459.72h1.35v1.56H341Zm0,3.6h1.35v9H341Z" fill="#3a3d3f" />
			<path d="M350.87,464.63a29,29,0,0,0-3.15-.29c-1.11,0-2,.31-2,1.37,0,.85.43,1.08,2.34,1.41,2.25.38,3.1.83,3.1,2.57,0,2.11-1.33,2.81-3.49,2.81a25.4,25.4,0,0,1-3.17-.34l.07-1.17s2.05.3,3,.3c1.48,0,2.27-.32,2.27-1.54,0-.94-.47-1.17-2.43-1.48s-3-.7-3-2.5c0-2,1.6-2.63,3.24-2.63a23.19,23.19,0,0,1,3.26.34Z" fill="#3a3d3f" />
			<path d="M359.91,471.15l0,1.06a31.38,31.38,0,0,1-3.51.29c-2.69,0-3.57-1.57-3.57-4.63,0-3.42,1.48-4.73,3.76-4.73s3.62,1.26,3.62,4.21l-.07,1h-5.94c0,1.92.59,2.93,2.36,2.93C358,471.31,359.91,471.15,359.91,471.15Zm-1-3.85c0-2.24-.68-3-2.27-3s-2.39.85-2.41,3Z" fill="#3a3d3f" />
			<path d="M366.32,459.72h1.35v1.56h-1.35Zm0,3.6h1.35v9h-1.35Z" fill="#3a3d3f" />
			<path d="M372.06,464.49v4.3c0,2,.12,2.52,1.3,2.52.5,0,1.6-.11,1.6-.11l.09,1.12a15.71,15.71,0,0,1-1.84.2c-1.85,0-2.48-.7-2.48-3.3v-4.73h-1.28v-1.17h1.28v-2.76h1.33v2.76h2.86v1.17Z" fill="#3a3d3f" />
			<path d="M382.55,464.63a29,29,0,0,0-3.15-.29c-1.11,0-2,.31-2,1.37,0,.85.43,1.08,2.34,1.41,2.25.38,3.1.83,3.1,2.57,0,2.11-1.33,2.81-3.49,2.81a25.4,25.4,0,0,1-3.17-.34l.07-1.17s2,.3,3,.3c1.48,0,2.27-.32,2.27-1.54,0-.94-.47-1.17-2.43-1.48s-3-.7-3-2.5c0-2,1.6-2.63,3.24-2.63a23.19,23.19,0,0,1,3.26.34Z" fill="#3a3d3f" />
			<path d="M388.91,463.32h1.33v1.22a10.18,10.18,0,0,1,3.29-1.42v1.37a13,13,0,0,0-3.27,1.22v6.61h-1.35Z" fill="#3a3d3f" />
			<path d="M401.78,471.15l0,1.06a31.12,31.12,0,0,1-3.51.29c-2.68,0-3.56-1.57-3.56-4.63,0-3.42,1.47-4.73,3.76-4.73s3.62,1.26,3.62,4.21l-.07,1h-5.94c0,1.92.59,2.93,2.35,2.93C399.82,471.31,401.78,471.15,401.78,471.15Zm-1-3.85c0-2.24-.68-3-2.27-3s-2.39.85-2.41,3Z" fill="#3a3d3f" />
			<path d="M403.83,473.83c0-1,.48-1.53,1.42-2.23a1.47,1.47,0,0,1-.5-1.24,5.82,5.82,0,0,1,.61-1.42c-.76-.35-1.42-1.07-1.42-2.72,0-2.22,1.36-3.08,3.36-3.08a9.6,9.6,0,0,1,1.88.23l2.66-.07v1.15l-1.71,0a2.34,2.34,0,0,1,.59,1.8c0,2.34-1.17,3-3.47,3-.18,0-.69,0-.88-.07a5.3,5.3,0,0,0-.33,1c0,.72.15.83,2.18.83,2.56,0,3.48.51,3.48,2.65s-1.46,2.86-4,2.86C404.85,476.55,403.83,475.92,403.83,473.83Zm2.34-1.69c-.76.56-1,.88-1,1.58,0,1.25.52,1.7,2.56,1.7,1.8,0,2.61-.49,2.61-1.68,0-1.37-.58-1.51-2.22-1.51C407.48,472.23,406.17,472.14,406.17,472.14Zm3.2-5.92c0-1.43-.55-2-2.07-2s-2,.55-2,2,.61,2,2,2S409.37,467.64,409.37,466.22Z" fill="#3a3d3f" />
			<path d="M420.44,463.32v9h-1.35v-.63a6.07,6.07,0,0,1-2.66.81c-2.52,0-3-1.17-3-4.48v-4.7h1.35V468c0,2.48.21,3.29,1.89,3.29a5.46,5.46,0,0,0,2.46-.66v-7.31Z" fill="#3a3d3f" />
			<path d="M423.14,459.39h1.35v12.93h-1.35Z" fill="#3a3d3f" />
			<path d="M433.55,470.65c0,.52.47.72,1,.79l0,1.06a2.74,2.74,0,0,1-2.14-.72,9.22,9.22,0,0,1-3.25.72c-1.63,0-2.53-.94-2.53-2.75s.9-2.49,2.75-2.67l2.83-.27V466c0-1.26-.54-1.71-1.62-1.71-1.26,0-3.41.23-3.41.23l-.05-1a22.13,22.13,0,0,1,3.53-.39c2,0,2.9.93,2.9,2.9Zm-4-2.56c-1.1.11-1.53.63-1.53,1.62s.45,1.66,1.37,1.66a9.57,9.57,0,0,0,2.83-.56v-3Z" fill="#3a3d3f" />
			<path d="M436.21,463.32h1.33v1.22a10.17,10.17,0,0,1,3.3-1.42v1.37a13,13,0,0,0-3.28,1.22v6.61h-1.35Z" fill="#3a3d3f" />
			<path d="M446.4,472.32v-9h1.33V464a6,6,0,0,1,2.63-.81,2.54,2.54,0,0,1,2.34.92,7.46,7.46,0,0,1,3.2-.92c2.45,0,3.05,1.17,3.05,4.43v4.75H457.6V467.6c0-2.37-.27-3.26-1.89-3.26a5.89,5.89,0,0,0-2.54.67,10.34,10.34,0,0,1,.23,2.63v4.68h-1.35v-4.64c0-2.49-.25-3.34-1.89-3.34a5.34,5.34,0,0,0-2.41.67v7.31Z" fill="#3a3d3f" />
			<path d="M467.8,470.65c0,.52.47.72,1,.79l0,1.06a2.75,2.75,0,0,1-2.14-.72,9.2,9.2,0,0,1-3.24.72c-1.64,0-2.54-.94-2.54-2.75s.9-2.49,2.75-2.67l2.83-.27V466c0-1.26-.54-1.71-1.62-1.71-1.26,0-3.4.23-3.4.23l-.06-1a22.13,22.13,0,0,1,3.53-.39c2,0,2.9.93,2.9,2.9Zm-4-2.56c-1.1.11-1.54.63-1.54,1.62s.45,1.66,1.37,1.66a9.48,9.48,0,0,0,2.83-.56v-3Z" fill="#3a3d3f" />
			<path d="M470.46,459.72h1.35v1.56h-1.35Zm0,3.6h1.35v9h-1.35Z" fill="#3a3d3f" />
			<path d="M474.41,472.32v-9h1.33V464a6.85,6.85,0,0,1,2.79-.81c2.48,0,3,1.22,3,4.43v4.75h-1.33V467.6c0-2.37-.27-3.26-1.95-3.26a6.18,6.18,0,0,0-2.54.67v7.31Z" fill="#3a3d3f" />
			<path d="M485.87,464.49v4.3c0,2,.13,2.52,1.3,2.52.5,0,1.6-.11,1.6-.11l.09,1.12a15.71,15.71,0,0,1-1.84.2c-1.85,0-2.48-.7-2.48-3.3v-4.73h-1.28v-1.17h1.28v-2.76h1.33v2.76h2.86v1.17Z" fill="#3a3d3f" />
			<path d="M497,471.15l0,1.06a31.12,31.12,0,0,1-3.51.29c-2.69,0-3.57-1.57-3.57-4.63,0-3.42,1.48-4.73,3.77-4.73s3.61,1.26,3.61,4.21l-.07,1h-5.94c0,1.92.6,2.93,2.36,2.93C495.07,471.31,497,471.15,497,471.15Zm-1-3.85c0-2.24-.68-3-2.26-3s-2.4.85-2.42,3Z" fill="#3a3d3f" />
			<path d="M499.48,472.32v-9h1.33V464a6.85,6.85,0,0,1,2.79-.81c2.49,0,3,1.22,3,4.43v4.75h-1.34V467.6c0-2.37-.27-3.26-1.94-3.26a6.12,6.12,0,0,0-2.54.67v7.31Z" fill="#3a3d3f" />
			<path d="M515.5,470.65c0,.52.47.72,1,.79l0,1.06a2.75,2.75,0,0,1-2.14-.72,9.2,9.2,0,0,1-3.24.72c-1.64,0-2.54-.94-2.54-2.75s.9-2.49,2.75-2.67l2.83-.27V466c0-1.26-.54-1.71-1.62-1.71-1.26,0-3.4.23-3.4.23l-.06-1a22.13,22.13,0,0,1,3.53-.39c2,0,2.9.93,2.9,2.9Zm-4-2.56c-1.1.11-1.54.63-1.54,1.62s.46,1.66,1.37,1.66a9.48,9.48,0,0,0,2.83-.56v-3Z" fill="#3a3d3f" />
			<path d="M518.16,472.32v-9h1.34V464a6.79,6.79,0,0,1,2.79-.81c2.48,0,3,1.22,3,4.43v4.75H524V467.6c0-2.37-.27-3.26-2-3.26a6.12,6.12,0,0,0-2.54.67v7.31Z" fill="#3a3d3f" />
			<path d="M533.64,463.41l0,1.1s-1.44-.17-2.12-.17c-2.07,0-2.63.9-2.63,3.32,0,2.66.41,3.63,2.64,3.63.69,0,2.13-.16,2.13-.16l0,1.12a24,24,0,0,1-2.5.25c-2.86,0-3.71-1.31-3.71-4.84,0-3.26,1.06-4.52,3.75-4.52A20.91,20.91,0,0,1,533.64,463.41Z" fill="#3a3d3f" />
			<path d="M542.32,471.15l0,1.06a31.4,31.4,0,0,1-3.52.29c-2.68,0-3.56-1.57-3.56-4.63,0-3.42,1.48-4.73,3.76-4.73s3.62,1.26,3.62,4.21l-.07,1h-5.94c0,1.92.59,2.93,2.36,2.93C540.36,471.31,542.32,471.15,542.32,471.15Zm-1-3.85c0-2.24-.68-3-2.27-3s-2.39.85-2.41,3Z" fill="#3a3d3f" />
			<path d="M544.68,470.27h1.47v2.05h-1.47Z" fill="#3a3d3f" />
			<line x1="34.41" y1="51.75" x2="534" y2="51.75" fill="none" stroke="#a2a7aa" stroke-miterlimit="10" />
			<path d="M56,234.69H51.64v-.82l2.57-6.44h1.15l-2.61,6.33H56V231h1v2.81h1.15v.93H57.07v1.77H56Z" fill="#4c4c4c" />
			<path d="M37.92,220.65c0,3.81-1.34,5-3.61,5s-3.63-1.13-3.63-5c0-4.09,1.32-5.3,3.61-5.3S37.92,216.55,37.92,220.65Zm-6,0c0,3.12.86,3.93,2.43,3.93s2.42-.83,2.42-3.94c0-3.35-.77-4.25-2.42-4.25S31.88,217.27,31.88,220.66Z" fill="#4c4c4c" />
			<path d="M31.13,195.36v-1L34,191.32c1.23-1.28,2-2.09,2-3.27s-.74-1.74-2.17-1.74a14.41,14.41,0,0,0-2.57.33l-.1-1a12.07,12.07,0,0,1,2.88-.41c2.09,0,3.15.8,3.15,2.66,0,1.5-.68,2.37-2.08,3.72l-2.65,2.7h5v1Z" fill="#4c4c4c" />
			<path d="M35.51,162.24H30.69v-.9l2.83-7.1h1.27l-2.88,7h3.6v-3.11h1.16v3.11h1.27v1H36.67v1.94H35.51Z" fill="#4c4c4c" />
			<path d="M37.35,124.12a23.21,23.21,0,0,0-2.62-.18c-1.73,0-2.68,1.24-2.68,3.43a8.68,8.68,0,0,1,2.48-.58c2.2,0,3.35,1,3.35,3.08s-1.27,3.29-3.48,3.29c-2.47,0-3.56-1.94-3.56-5.17,0-3.6,1.53-5.07,3.89-5.07a19,19,0,0,1,2.72.25ZM32,128.4c0,2.12.65,3.73,2.37,3.73a2,2,0,0,0,2.27-2.26c0-1.38-.83-2-2.21-2A7,7,0,0,0,32,128.4Z" fill="#4c4c4c" />
			<path d="M139.18,229.65a2,2,0,0,1-1.51,2.11,2.26,2.26,0,0,1,1.65,2.27c0,2-1.54,2.58-3.41,2.58s-3.36-.56-3.36-2.43a2.4,2.4,0,0,1,1.56-2.42,2.09,2.09,0,0,1-1.41-2.12c0-1.56,1.24-2.34,3.21-2.34S139.18,228.06,139.18,229.65Zm-1,4.27c0-1.06-.69-1.4-1.6-1.66h-1.43c-.94.26-1.49.73-1.49,1.74,0,1.24,1,1.65,2.24,1.65S138.19,235.24,138.19,233.92Zm-4.37-4.16c0,.83.45,1.27,1.34,1.59h1.43c.93-.31,1.47-.74,1.47-1.58,0-1.08-.81-1.51-2.14-1.51S133.82,228.68,133.82,229.76Z" fill="#4c4c4c" />
			<path d="M217.46,227.45h1v9h-1.05v-7.85l-2.32,1.54-.48-.8Z" fill="#4c4c4c" />
			<path d="M221.73,236.47v-.89l2.63-2.77c1.13-1.16,1.82-1.9,1.82-3s-.67-1.58-2-1.58a13.15,13.15,0,0,0-2.33.3l-.09-.88a11,11,0,0,1,2.62-.37c1.9,0,2.85.73,2.85,2.42,0,1.36-.61,2.15-1.88,3.38L223,235.56h4.53v.91Z" fill="#4c4c4c" />
			<path d="M306.13,227.45h1v9h-1.05v-7.85l-2.33,1.54-.48-.8Z" fill="#4c4c4c" />
			<path d="M316.05,228.41a20.17,20.17,0,0,0-2.38-.17c-1.58,0-2.44,1.12-2.44,3.12a7.54,7.54,0,0,1,2.26-.53c2,0,3,.9,3,2.8s-1.14,3-3.15,3c-2.25,0-3.23-1.76-3.23-4.69,0-3.27,1.38-4.61,3.53-4.61a17,17,0,0,1,2.47.23Zm-4.83,3.88c0,1.93.59,3.39,2.15,3.39a1.85,1.85,0,0,0,2.06-2.05c0-1.26-.75-1.86-2-1.86A6.3,6.3,0,0,0,311.22,232.29Z" fill="#4c4c4c" />
			<path d="M391.41,236.47v-.89l2.64-2.77c1.12-1.16,1.82-1.9,1.82-3s-.67-1.58-2-1.58a13.17,13.17,0,0,0-2.34.3l-.08-.88a10.93,10.93,0,0,1,2.61-.37c1.9,0,2.86.73,2.86,2.42,0,1.36-.61,2.15-1.89,3.38l-2.4,2.45h4.52v.91Z" fill="#4c4c4c" />
			<path d="M405.24,232.1c0,3.46-1.22,4.51-3.29,4.51s-3.29-1-3.29-4.5c0-3.72,1.2-4.81,3.28-4.81S405.24,228.38,405.24,232.1Zm-5.49,0c0,2.83.78,3.57,2.2,3.57s2.21-.75,2.21-3.58c0-3-.7-3.86-2.21-3.86S399.75,229,399.75,232.11Z" fill="#4c4c4c" />
			<path d="M480.09,236.47v-.89l2.63-2.77c1.13-1.16,1.82-1.9,1.82-3s-.67-1.58-2-1.58a13.15,13.15,0,0,0-2.33.3l-.09-.88a11,11,0,0,1,2.62-.37c1.9,0,2.85.73,2.85,2.42,0,1.36-.61,2.15-1.88,3.38l-2.41,2.45h4.53v.91Z" fill="#4c4c4c" />
			<path d="M491.72,234.71h-4.37v-.82l2.57-6.44h1.14l-2.61,6.33h3.27V231h1v2.82h1.15v.93h-1.15v1.76h-1Z" fill="#4c4c4c" />
			<line x1="48.4" y1="116.7" x2="48.4" y2="229.06" fill="none" stroke="#adadad" stroke-miterlimit="10" />
			<line x1="495.95" y1="220.46" x2="38.19" y2="220.46" fill="none" stroke="#adadad" stroke-miterlimit="10" />
			<g style="isolation:isolate">
				<rect x="86.6" y="139.9" width="12.28" height="79.78" fill="#76ce89" />
				<g clip-path="url(#clip-path)">
					<polygon points="86.81 219.69 86.6 139.96 98.66 139.9 98.88 219.63 86.81 219.69" fill="#76ce89" />
				</g>
			</g>
			<g style="isolation:isolate">
				<rect x="104.52" y="152.67" width="12.25" height="67.01" fill="#76ce89" />
				<g clip-path="url(#clip-path-2)">
					<polygon points="104.71 219.68 104.53 152.73 116.59 152.67 116.77 219.63 104.71 219.68" fill="#76ce89" />
				</g>
			</g>
			<g style="isolation:isolate">
				<rect x="122.41" y="152.7" width="12.25" height="66.99" fill="#76ce89" />
				<g clip-path="url(#clip-path-3)">
					<polygon points="122.6 219.68 122.42 152.75 134.48 152.69 134.66 219.63 122.6 219.68" fill="#76ce89" />
				</g>
			</g>
			<g style="isolation:isolate">
				<rect x="140.3" y="152.7" width="12.25" height="66.99" fill="#76ce89" />
				<g clip-path="url(#clip-path-4)">
					<polygon points="140.49 219.68 140.31 152.75 152.37 152.69 152.55 219.63 140.49 219.68" fill="#76ce89" />
				</g>
			</g>
			<g style="isolation:isolate">
				<rect x="158.2" y="160.83" width="12.22" height="58.85" fill="#76ce89" />
				<g clip-path="url(#clip-path-5)">
					<polygon points="158.35 219.68 158.19 160.88 170.26 160.82 170.41 219.63 158.35 219.68" fill="#76ce89" />
				</g>
			</g>
			<g style="isolation:isolate">
				<rect x="176.06" y="167.8" width="12.23" height="51.88" fill="#76ce89" />
				<g clip-path="url(#clip-path-6)">
					<polygon points="176.22 219.68 176.06 167.85 188.13 167.8 188.28 219.63 176.22 219.68" fill="#76ce89" />
				</g>
			</g>
			<rect x="193.93" y="179.79" width="12.21" height="39.89" fill="#ffda00" />
			<g clip-path="url(#clip-path-7)">
				<rect x="194.01" y="179.81" width="12.06" height="39.85" transform="translate(-0.73 0.74) rotate(-0.21)" fill="#ffda00" />
			</g>
			<rect x="211.79" y="183.79" width="12.19" height="35.9" fill="#ffda00" />
			<g clip-path="url(#clip-path-8)">
				<rect x="211.85" y="183.81" width="12.06" height="35.86" transform="translate(-0.74 0.8) rotate(-0.21)" fill="#ffda00" />
			</g>
			<rect x="229.63" y="152.67" width="12.18" height="67.01" fill="#76ce89" />
			<g clip-path="url(#clip-path-9)">
				<polygon points="229.74 219.69 229.63 152.76 241.69 152.66 241.8 219.59 229.74 219.69" fill="#76ce89" />
			</g>
			<rect x="247.45" y="156.18" width="12.17" height="63.5" fill="#76ce89" />
			<g clip-path="url(#clip-path-10)">
				<polygon points="247.55 219.69 247.45 156.29 259.52 156.19 259.62 219.58 247.55 219.69" fill="#76ce89" />
			</g>
			<g style="isolation:isolate">
				<rect x="265.26" y="156.18" width="12.25" height="63.5" fill="#76ce89" />
				<g clip-path="url(#clip-path-11)">
					<polygon points="265.45 219.68 265.26 156.23 277.33 156.18 277.51 219.63 265.45 219.68" fill="#76ce89" />
				</g>
			</g>
			<g style="isolation:isolate">
				<rect x="283.16" y="156.18" width="12.24" height="63.5" fill="#76ce89" />
				<g clip-path="url(#clip-path-12)">
					<polygon points="283.32 219.68 283.15 156.24 295.22 156.18 295.39 219.63 283.32 219.68" fill="#76ce89" />
				</g>
			</g>
			<g style="isolation:isolate">
				<rect x="301.04" y="156.18" width="12.23" height="63.5" fill="#76ce89" />
				<g clip-path="url(#clip-path-13)">
					<polygon points="301.21 219.68 301.04 156.24 313.1 156.18 313.27 219.63 301.21 219.68" fill="#76ce89" />
				</g>
			</g>
			<g style="isolation:isolate">
				<rect x="318.91" y="164.18" width="12.23" height="55.5" fill="#76ce89" />
				<g clip-path="url(#clip-path-14)">
					<polygon points="319.07 219.68 318.91 164.24 330.97 164.19 331.14 219.63 319.07 219.68" fill="#76ce89" />
				</g>
			</g>
			<g style="isolation:isolate">
				<rect x="336.79" y="166.96" width="12.22" height="52.72" fill="#76ce89" />
				<g clip-path="url(#clip-path-15)">
					<polygon points="336.94 219.68 336.78 167.01 348.85 166.96 349.01 219.63 336.94 219.68" fill="#76ce89" />
				</g>
			</g>
			<g style="isolation:isolate">
				<rect x="354.65" y="169.57" width="12.2" height="50.12" fill="#76ce89" />
				<g clip-path="url(#clip-path-16)">
					<polygon points="354.79 219.68 354.65 169.62 366.71 169.56 366.85 219.63 354.79 219.68" fill="#76ce89" />
				</g>
			</g>
			<g style="isolation:isolate">
				<rect x="372.5" y="169.57" width="12.2" height="50.12" fill="#76ce89" />
				<g clip-path="url(#clip-path-17)">
					<polygon points="372.63 219.68 372.5 169.62 384.56 169.56 384.7 219.63 372.63 219.68" fill="#76ce89" />
				</g>
			</g>
			<g style="isolation:isolate">
				<rect x="390.35" y="169.57" width="12.2" height="50.12" fill="#76ce89" />
				<g clip-path="url(#clip-path-18)">
					<polygon points="390.48 219.68 390.34 169.62 402.41 169.56 402.55 219.63 390.48 219.68" fill="#76ce89" />
				</g>
			</g>
			<g style="isolation:isolate">
				<rect x="408.19" y="174.04" width="12.2" height="45.64" fill="#76ce89" />
				<g clip-path="url(#clip-path-19)">
					<polygon points="408.33 219.68 408.19 174.09 420.25 174.04 420.39 219.63 408.33 219.68" fill="#76ce89" />
				</g>
			</g>
			<g style="isolation:isolate">
				<rect x="426.04" y="174.04" width="12.19" height="45.64" fill="#76ce89" />
				<g clip-path="url(#clip-path-20)">
					<polygon points="426.17 219.68 426.04 174.1 438.11 174.04 438.24 219.63 426.17 219.68" fill="#76ce89" />
				</g>
			</g>
			<g style="isolation:isolate">
				<rect x="443.88" y="174.04" width="12.19" height="45.64" fill="#76ce89" />
				<g clip-path="url(#clip-path-21)">
					<polygon points="444 219.68 443.88 174.09 455.94 174.04 456.07 219.63 444 219.68" fill="#76ce89" />
				</g>
			</g>
			<g style="isolation:isolate">
				<rect x="461.71" y="177.1" width="12.18" height="42.59" fill="#76ce89" />
				<g clip-path="url(#clip-path-22)">
					<polygon points="461.82 219.68 461.71 177.15 473.77 177.09 473.89 219.63 461.82 219.68" fill="#76ce89" />
				</g>
			</g>
			<g style="isolation:isolate">
				<g clip-path="url(#clip-path-23)">
					<polygon points="479.62 219.68 479.53 187.6 491.59 187.54 491.68 219.63 479.62 219.68" fill="#ffda00" />
				</g>
			</g>
			<g style="isolation:isolate">
				<rect x="68.65" y="134.09" width="12.3" height="85.65" fill="#76ce89" />
				<g clip-path="url(#clip-path-24)">
					<polygon points="68.89 219.74 68.66 134.15 80.72 134.09 80.95 219.68 68.89 219.74" fill="#76ce89" />
				</g>
			</g>
			<g style="isolation:isolate">
				<rect x="50.69" y="128.28" width="12.32" height="91.52" fill="#76ce89" />
				<g clip-path="url(#clip-path-25)">
					<polygon points="50.94 219.8 50.7 128.34 62.76 128.28 63.01 219.74 50.94 219.8" fill="#76ce89" />
				</g>
			</g>
		</g>
	</g>
</svg>
