<svg xmlns="http://www.w3.org/2000/svg" viewBox="0 0 1191.52 166.6"><title>r_0_0_Screen</title><g id="Layer_2" data-name="Layer 2"><g id="Selection_Feedback"><rect width="1191.52" height="166.6" fill="#f7f7f7"/></g><g id="Layer_1-2" data-name="Layer 1"><circle cx="56.15" cy="98.24" r="29.44" fill="none" stroke="#2277d6" stroke-miterlimit="10" stroke-width="4"/><path d="M56.15,77.37A22.37,22.37,0,0,1,78.52,99.75H56.15Z" fill="#8dc5f2" opacity="0.47"/><path d="M23,29.14H33v1.38H28.78V43H27.26V30.52H23Z"/><path d="M35,29.14H36.5V43H35Z"/><path d="M39.88,29.14h2.78l3.92,11.7,3.92-11.7h2.78V43H51.74V30.78h-.28l-4,11.7H45.72l-4-11.7h-.28V43H39.88Z"/><path d="M56.68,29.14H65.1V30.5H58.22v4.78H63.9v1.34H58.22v5H65.1V43H56.68Z"/><path d="M73.68,38.32V43H72.14V29.14H77.2c3,0,4.42,1.46,4.42,4.46s-1.4,4.72-4.42,4.72ZM77.18,37c2,0,2.86-1.22,2.86-3.36s-.84-3.1-2.86-3.1h-3.5V37Z"/><path d="M84,29.14h8.42V30.5H85.54v4.78h5.68v1.34H85.54v5h6.88V43H84Z"/><path d="M96.6,37.68V43H95.06V29.14h5.12c2.9,0,4.42,1.28,4.42,4.2,0,2-.8,3.46-2.54,4L104.72,43H103l-2.5-5.3Zm3.58-7.18H96.6v5.82h3.6c2.08,0,2.82-1.24,2.82-3C103,31.44,102.12,30.5,100.18,30.5Z"/><path d="M107.38,29.14h1.54V43h-1.54Z"/><path d="M111.74,36.12c0-4.56,1.18-7.18,5.46-7.18s5.48,2.58,5.48,7.18c0,4.76-1.18,7.06-5.48,7.06S111.74,40.76,111.74,36.12Zm9.34,0c0-3.74-.72-5.82-3.88-5.82s-3.88,2.06-3.88,5.82.68,5.7,3.88,5.7S121.08,40,121.08,36.12Z"/><path d="M125.5,43V29.14h4.94c4,0,5.12,2.8,5.12,6.72s-1,7.12-5.12,7.12Zm4.94-12.48H127V41.62h3.4c2.88,0,3.54-2.76,3.54-5.76S133.32,30.5,130.44,30.5Z"/><path d="M371.8,36.12c0-4.56,1.18-7.18,5.46-7.18s5.48,2.58,5.48,7.18c0,4.76-1.18,7.06-5.48,7.06S371.8,40.76,371.8,36.12Zm9.34,0c0-3.74-.72-5.82-3.88-5.82s-3.88,2.06-3.88,5.82.68,5.7,3.88,5.7S381.14,40,381.14,36.12Z"/><path d="M395,29.14,391.4,43H388l-3.62-13.84h1.6l3.18,12.48h1.12l3.18-12.48Z"/><path d="M397.2,29.14h8.42V30.5h-6.88v4.78h5.68v1.34h-5.68v5h6.88V43H397.2Z"/><path d="M409.8,37.68V43h-1.54V29.14h5.12c2.9,0,4.42,1.28,4.42,4.2,0,2-.8,3.46-2.54,4L417.92,43h-1.7l-2.5-5.3Zm3.58-7.18H409.8v5.82h3.6c2.08,0,2.82-1.24,2.82-3C416.22,31.44,415.32,30.5,413.38,30.5Z"/><path d="M430,29.14,426.42,43H423l-3.62-13.84H421l3.18,12.48h1.12l3.18-12.48Z"/><path d="M432.22,29.14h1.54V43h-1.54Z"/><path d="M437.14,29.14h8.42V30.5h-6.88v4.78h5.68v1.34h-5.68v5h6.88V43h-8.42Z"/><path d="M448.7,29.14l2.36,12.48h.58l2.82-12.36h1.8l2.82,12.36h.58L462,29.14h1.58L460.8,43H458l-2.62-11.82L452.74,43h-2.82L447.1,29.14Z"/><path d="M48.24,89.92h2.84v17.16H48V93.2l-4.32,2.6-1.42-2.16Z" fill="#2277d6"/><path d="M57.23,107.08V88.68h3v6.08a10.88,10.88,0,0,1,3.82-1c3.87,0,4.81,2,4.81,6.32v7h-3v-6.89c0-2.6-.34-3.87-2.48-3.87a10.72,10.72,0,0,0-3.12.57v10.19Z" fill="#2277d6"/><path d="M378.66,122.37v-1.16l3.46-3.64c1.47-1.52,2.38-2.49,2.38-3.88,0-1.58-.87-2.08-2.58-2.08a17.44,17.44,0,0,0-3.06.39l-.11-1.14a14.25,14.25,0,0,1,3.42-.49c2.5,0,3.75.95,3.75,3.17,0,1.78-.81,2.81-2.47,4.43l-3.16,3.2h5.93v1.2Z" fill="#3a3d3f"/><path d="M416.26,117.27h3.38v-3.49h1.26v3.49h3.42v1.22H420.9V122h-1.26v-3.53h-3.38Z" fill="#3a3d3f"/><path d="M431,110.55h1.29v11.82h-1.38V112.09l-3,2-.63-1Z" fill="#3a3d3f"/><path d="M441.79,120.06h-5.73V119l3.36-8.44h1.51l-3.42,8.29h4.28v-3.69h1.38v3.69h1.5v1.22h-1.5v2.31h-1.38Z" fill="#3a3d3f"/><path d="M454.64,113.43c0,1.53-.59,2.15-2,2.76a3,3,0,0,1,2.15,3c0,2.59-2,3.38-4.46,3.38s-4.41-.73-4.41-3.19a3.16,3.16,0,0,1,2-3.17,2.74,2.74,0,0,1-1.84-2.77c0-2,1.63-3.07,4.21-3.07S454.64,111.36,454.64,113.43ZM453.35,119c0-1.38-.92-1.82-2.1-2.16h-1.88c-1.24.34-1.95,1-1.95,2.27,0,1.63,1.25,2.17,2.94,2.17S453.35,120.76,453.35,119Zm-5.73-5.44c0,1.09.59,1.66,1.75,2.08h1.88c1.22-.4,1.92-1,1.92-2.06,0-1.42-1.06-2-2.8-2S447.62,112.16,447.62,113.58Z" fill="#3a3d3f"/><path d="M492.69,110.55v1.25h-5.75l-.33,3.86a6.79,6.79,0,0,1,2.78-.74c2.31,0,3.76,1,3.76,3.49,0,2.73-1.48,4.13-4,4.13a19.42,19.42,0,0,1-3.92-.52l.16-1.1a23.26,23.26,0,0,0,3.64.4,2.5,2.5,0,0,0,2.67-2.8c0-1.79-1-2.36-2.51-2.36a6.81,6.81,0,0,0-2.81.71l-.95-.17.32-6.15Z" fill="#3a3d3f"/><path d="M502.72,110.55v1.25H497l-.32,3.86a6.79,6.79,0,0,1,2.78-.74c2.31,0,3.76,1,3.76,3.49,0,2.73-1.49,4.13-4,4.13a19.42,19.42,0,0,1-3.92-.52l.16-1.1a23.24,23.24,0,0,0,3.63.4,2.5,2.5,0,0,0,2.67-2.8c0-1.79-1-2.36-2.5-2.36a6.88,6.88,0,0,0-2.82.71l-.95-.17.33-6.15Z" fill="#3a3d3f"/><path d="M508.66,112.84c0,1.74-.78,2.53-2,2.53s-2-.79-2-2.53.76-2.47,2-2.47S508.66,111.12,508.66,112.84Zm-2,1.62c.67,0,.9-.56.9-1.62s-.23-1.55-.9-1.55-.87.5-.87,1.55S506,114.46,506.68,114.46Zm4-4.29.86.29-3.67,12.24-.86-.25Zm3.08,9.86c0,1.72-.77,2.52-2,2.52s-1.95-.8-1.95-2.54.73-2.45,1.95-2.45S513.74,118.31,513.74,120Zm-2,1.61c.68,0,.9-.56.9-1.61s-.22-1.56-.9-1.56-.88.5-.88,1.54S511.13,121.64,511.77,121.64Z" fill="#3a3d3f"/><path d="M115.74,76.82H119V97.94h-3.55V80.86l-5,3.19-1.63-2.65Z"/><path d="M126.11,97.94v-3l5.21-5.37c2.72-2.79,4.29-4.48,4.29-6.72,0-2.4-1.25-3.17-4-3.17a32.66,32.66,0,0,0-5.18.58l-.22-2.82a24.87,24.87,0,0,1,6.24-.93c4.67,0,6.81,1.92,6.81,5.89,0,3.2-1.34,5-4.61,8.09l-4.51,4.39h9.54v3.1Z"/><path d="M143.84,83.64h3.74v4.61h-3.74Zm0,9.69h3.74v4.61h-3.74Z"/><path d="M166.46,87.61c0,8-2.91,10.68-8,10.68s-8-2.62-8-10.68c0-8.29,2.91-11.14,8-11.14S166.46,79.29,166.46,87.61Zm-12.29,0c0,5.79,1.44,7.58,4.35,7.58s4.26-1.79,4.26-7.58c0-6.21-1.31-8-4.29-8S154.17,81.37,154.17,87.61Z"/><path d="M184.38,87.61c0,8-2.91,10.68-8,10.68s-8-2.62-8-10.68c0-8.29,2.91-11.14,8-11.14S184.38,79.29,184.38,87.61Zm-12.29,0c0,5.79,1.44,7.58,4.35,7.58s4.26-1.79,4.26-7.58c0-6.21-1.31-8-4.29-8S172.09,81.37,172.09,87.61Z"/><path d="M194.36,87.73h9.57V90.9h-9.57Z"/><path d="M222.62,76.82h3.26V97.94h-3.55V80.86l-5,3.19-1.63-2.65Z"/><path d="M233,77.5a21.34,21.34,0,0,1,6.17-1c5.31,0,7.14,1.83,7.14,5.66a5.37,5.37,0,0,1-2.79,4.77c1.92.9,3.2,1.73,3.2,4.8,0,4.39-2.05,6.59-7,6.59a31.38,31.38,0,0,1-6.91-1l.23-2.75a42.09,42.09,0,0,0,6.2.64c2.59,0,3.84-1.09,3.84-3.39,0-2.15-1.53-3.14-3.61-3.17h-4.26v-3h4.26a3.41,3.41,0,0,0,3.2-3.29c0-1.92-1.09-2.78-3.68-2.78a34.09,34.09,0,0,0-5.67.6Z"/><path d="M250.71,83.64h3.75v4.61h-3.75Zm0,9.69h3.75v4.61h-3.75Z"/><path d="M273.34,87.61c0,8-2.91,10.68-8,10.68s-8-2.62-8-10.68c0-8.29,2.91-11.14,8-11.14S273.34,79.29,273.34,87.61Zm-12.29,0c0,5.79,1.44,7.58,4.35,7.58s4.26-1.79,4.26-7.58c0-6.21-1.31-8-4.29-8S261.05,81.37,261.05,87.61Z"/><path d="M291.26,87.61c0,8-2.91,10.68-8,10.68s-8-2.62-8-10.68c0-8.29,2.91-11.14,8-11.14S291.26,79.29,291.26,87.61Zm-12.29,0c0,5.79,1.44,7.58,4.35,7.58s4.26-1.79,4.26-7.58c0-6.21-1.31-8-4.29-8S279,81.37,279,87.61Z"/><path d="M106.28,110h9v1.23h-3.78v11.16h-1.36V111.21h-3.81Z" fill="#3a3d3f"/><path d="M124,117.79c0,3.26-.8,4.76-3.83,4.76s-3.83-1.5-3.83-4.76c0-3.08,1-4.55,3.83-4.55S124,114.71,124,117.79Zm-1.38,0c0-2.49-.53-3.39-2.45-3.39s-2.45.9-2.45,3.39.34,3.6,2.45,3.6S122.65,120.33,122.65,117.79Z" fill="#3a3d3f"/><path d="M133.1,122.37h-1.33v-.61a6.35,6.35,0,0,1-2.72.79c-1.75,0-3.22-.71-3.22-4.58,0-3.16,1-4.73,3.74-4.73a15.43,15.43,0,0,1,2.2.23v-4h1.33Zm-1.33-1.68v-6.07a14,14,0,0,0-2.13-.22c-1.88,0-2.43,1.24-2.43,3.57,0,2.9,1,3.38,2,3.38A6.47,6.47,0,0,0,131.77,120.69Z" fill="#3a3d3f"/><path d="M142,120.71c0,.52.47.71,1,.79l-.05,1a2.76,2.76,0,0,1-2.13-.71,9.22,9.22,0,0,1-3.23.71c-1.63,0-2.52-.93-2.52-2.74s.89-2.47,2.74-2.65l2.81-.27v-.77c0-1.25-.54-1.7-1.61-1.7-1.26,0-3.39.23-3.39.23l-.05-1a21.9,21.9,0,0,1,3.51-.39c2,0,2.88.93,2.88,2.88Zm-4-2.55c-1.09.11-1.52.63-1.52,1.62s.45,1.64,1.36,1.64a9.6,9.6,0,0,0,2.81-.55v-3Z" fill="#3a3d3f"/><path d="M145.18,113.42l2.24,7.79H148l2.26-7.79h1.34l-3.72,12.93h-1.35l1.17-4h-1.33l-2.54-9Z" fill="#3a3d3f"/><path d="M658.1,66.61h9v1.24h-3.79V79.07h-1.37V67.85H658.1Z" fill="#3a3d3f"/><path d="M675.94,74.46c0,3.27-.81,4.79-3.85,4.79s-3.85-1.52-3.85-4.79c0-3.1,1-4.58,3.85-4.58S675.94,71.36,675.94,74.46Zm-1.38,0c0-2.51-.54-3.41-2.47-3.41s-2.47.9-2.47,3.41.34,3.62,2.47,3.62S674.56,77,674.56,74.46Z" fill="#3a3d3f"/><path d="M685.05,79.07h-1.33v-.62a6.44,6.44,0,0,1-2.74.8c-1.76,0-3.24-.72-3.24-4.61,0-3.17,1-4.76,3.76-4.76a14.13,14.13,0,0,1,2.22.24v-4h1.33Zm-1.33-1.7v-6.1a14.42,14.42,0,0,0-2.14-.22c-1.9,0-2.45,1.25-2.45,3.59,0,2.91,1,3.4,2,3.4A6.54,6.54,0,0,0,683.72,77.37Z" fill="#3a3d3f"/><path d="M694,77.39c0,.52.47.72,1,.79L695,79.25a2.75,2.75,0,0,1-2.14-.72,9.2,9.2,0,0,1-3.24.72c-1.64,0-2.54-.94-2.54-2.76s.9-2.48,2.76-2.66l2.82-.27v-.78c0-1.26-.54-1.71-1.62-1.71-1.26,0-3.4.24-3.4.24l0-1a21.57,21.57,0,0,1,3.52-.4c2,0,2.9.94,2.9,2.9Zm-4-2.56c-1.1.11-1.53.63-1.53,1.62s.45,1.66,1.37,1.66a9.47,9.47,0,0,0,2.82-.56v-3Z" fill="#3a3d3f"/><path d="M697.18,70.06l2.25,7.83H700l2.27-7.83h1.35l-3.74,13h-1.35l1.17-4h-1.33l-2.56-9Z" fill="#3a3d3f"/><path d="M711.13,71.23v4.31c0,2,.13,2.52,1.3,2.52.5,0,1.6-.11,1.6-.11l.09,1.12a16.5,16.5,0,0,1-1.84.19c-1.85,0-2.48-.7-2.48-3.29V71.23h-1.28V70.06h1.28V67.31h1.33v2.75H714v1.17Z" fill="#3a3d3f"/><path d="M715.65,79.07V66.14H717v4.43a7.55,7.55,0,0,1,2.77-.69c2.47,0,3,1.23,3,4.43v4.76h-1.35V74.35c0-2.38-.27-3.26-1.92-3.26a7.41,7.41,0,0,0-2.54.54v7.44Z" fill="#3a3d3f"/><path d="M732,77.89,732,79a31.12,31.12,0,0,1-3.51.29c-2.68,0-3.56-1.57-3.56-4.63,0-3.42,1.47-4.74,3.76-4.74s3.62,1.26,3.62,4.22l-.07,1h-5.94c0,1.93.59,2.94,2.35,2.94C730,78.06,732,77.89,732,77.89ZM731,74c0-2.23-.69-3-2.27-3s-2.39.84-2.41,3Z" fill="#3a3d3f"/><path d="M734.4,70.06h1.34v1.23A10.21,10.21,0,0,1,739,69.86v1.37a13.41,13.41,0,0,0-3.28,1.23v6.61H734.4Z" fill="#3a3d3f"/><path d="M747.27,77.89l0,1.07a31.12,31.12,0,0,1-3.51.29c-2.68,0-3.57-1.57-3.57-4.63,0-3.42,1.48-4.74,3.77-4.74s3.62,1.26,3.62,4.22l-.08,1H741.6c0,1.93.6,2.94,2.36,2.94C745.31,78.06,747.27,77.89,747.27,77.89Zm-1-3.85c0-2.23-.69-3-2.27-3s-2.4.84-2.41,3Z" fill="#3a3d3f"/><path d="M760,77.39c0,.52.46.72,1,.79L761,79.25a2.76,2.76,0,0,1-2.15-.72,9.2,9.2,0,0,1-3.24.72c-1.64,0-2.54-.94-2.54-2.76s.9-2.48,2.76-2.66l2.83-.27v-.78c0-1.26-.54-1.71-1.62-1.71-1.27,0-3.41.24-3.41.24l0-1a21.6,21.6,0,0,1,3.53-.4c2,0,2.9.94,2.9,2.9Zm-4-2.56c-1.1.11-1.53.63-1.53,1.62s.45,1.66,1.37,1.66a9.57,9.57,0,0,0,2.83-.56v-3Z" fill="#3a3d3f"/><path d="M762.7,70.06H764v1.23a10.32,10.32,0,0,1,3.3-1.43v1.37a13.21,13.21,0,0,0-3.28,1.23v6.61H762.7Z" fill="#3a3d3f"/><path d="M775.57,77.89l0,1.07a31.4,31.4,0,0,1-3.52.29c-2.68,0-3.56-1.57-3.56-4.63,0-3.42,1.48-4.74,3.76-4.74s3.62,1.26,3.62,4.22l-.07,1H769.9c0,1.93.59,2.94,2.36,2.94C773.61,78.06,775.57,77.89,775.57,77.89Zm-1-3.85c0-2.23-.68-3-2.27-3s-2.39.84-2.41,3Z" fill="#3a3d3f"/><path d="M783.78,71.23v4.31c0,2,.12,2.52,1.29,2.52.51,0,1.6-.11,1.6-.11l.09,1.12a16.23,16.23,0,0,1-1.83.19c-1.86,0-2.49-.7-2.49-3.29V71.23h-1.27V70.06h1.27V67.31h1.34v2.75h2.86v1.17Z" fill="#3a3d3f"/><path d="M788.29,66.46h1.35V68h-1.35Zm0,3.6h1.35v9h-1.35Z" fill="#3a3d3f"/><path d="M792.24,79.07v-9h1.33v.63a6,6,0,0,1,2.63-.81,2.54,2.54,0,0,1,2.34.92,7.46,7.46,0,0,1,3.2-.92c2.45,0,3,1.17,3,4.43v4.76h-1.35V74.35c0-2.38-.27-3.26-1.89-3.26a5.88,5.88,0,0,0-2.53.67,10.25,10.25,0,0,1,.23,2.62v4.69h-1.35V74.42c0-2.48-.25-3.33-1.89-3.33a5.34,5.34,0,0,0-2.41.67v7.31Z" fill="#3a3d3f"/><path d="M813.93,77.89,814,79a31.12,31.12,0,0,1-3.51.29c-2.68,0-3.56-1.57-3.56-4.63,0-3.42,1.47-4.74,3.76-4.74s3.62,1.26,3.62,4.22l-.07,1h-5.94c0,1.93.59,2.94,2.35,2.94C812,78.06,813.93,77.89,813.93,77.89Zm-1-3.85c0-2.23-.69-3-2.27-3s-2.39.84-2.41,3Z" fill="#3a3d3f"/><path d="M826.31,71.38a29.33,29.33,0,0,0-3.15-.29c-1.12,0-2,.3-2,1.37,0,.84.43,1.08,2.34,1.4,2.25.38,3.09.83,3.09,2.58,0,2.1-1.33,2.81-3.49,2.81A25,25,0,0,1,820,78.9l.07-1.17a29.8,29.8,0,0,0,3,.31c1.47,0,2.26-.33,2.26-1.55,0-.94-.46-1.17-2.43-1.48s-3-.7-3-2.5c0-2,1.6-2.63,3.24-2.63a23.19,23.19,0,0,1,3.26.34Z" fill="#3a3d3f"/><path d="M828.81,66.14h1.35V79.07h-1.35Z" fill="#3a3d3f"/><path d="M840.17,74.46c0,3.27-.81,4.79-3.85,4.79s-3.86-1.52-3.86-4.79c0-3.1,1-4.58,3.86-4.58S840.17,71.36,840.17,74.46Zm-1.39,0c0-2.51-.54-3.41-2.46-3.41s-2.47.9-2.47,3.41.34,3.62,2.47,3.62S838.78,77,838.78,74.46Z" fill="#3a3d3f"/><path d="M844.17,71.23v4.31c0,2,.12,2.52,1.29,2.52.51,0,1.6-.11,1.6-.11l.09,1.12a16.23,16.23,0,0,1-1.83.19c-1.86,0-2.49-.7-2.49-3.29V71.23h-1.28V70.06h1.28V67.31h1.34v2.75H847v1.17Z" fill="#3a3d3f"/><path d="M854.66,71.38a29.33,29.33,0,0,0-3.15-.29c-1.12,0-2,.3-2,1.37,0,.84.43,1.08,2.34,1.4,2.25.38,3.1.83,3.1,2.58,0,2.1-1.34,2.81-3.5,2.81a25,25,0,0,1-3.17-.35l.08-1.17a29.5,29.5,0,0,0,3,.31c1.47,0,2.26-.33,2.26-1.55,0-.94-.46-1.17-2.43-1.48s-3-.7-3-2.5c0-2,1.6-2.63,3.24-2.63a23.19,23.19,0,0,1,3.26.34Z" fill="#3a3d3f"/><path d="M862.81,71.23v4.31c0,2,.13,2.52,1.3,2.52.5,0,1.6-.11,1.6-.11l.09,1.12a16.23,16.23,0,0,1-1.83.19c-1.86,0-2.49-.7-2.49-3.29V71.23H860.2V70.06h1.28V67.31h1.33v2.75h2.87v1.17Z" fill="#3a3d3f"/><path d="M867.33,79.07V66.14h1.35v4.43a7.57,7.57,0,0,1,2.78-.69c2.46,0,3,1.23,3,4.43v4.76h-1.35V74.35c0-2.38-.27-3.26-1.93-3.26a7.41,7.41,0,0,0-2.54.54v7.44Z" fill="#3a3d3f"/><path d="M883.35,77.39c0,.52.47.72,1,.79l-.06,1.07a2.75,2.75,0,0,1-2.14-.72,9.2,9.2,0,0,1-3.24.72c-1.64,0-2.54-.94-2.54-2.76s.9-2.48,2.76-2.66l2.82-.27v-.78c0-1.26-.54-1.71-1.62-1.71-1.26,0-3.4.24-3.4.24l-.05-1a21.57,21.57,0,0,1,3.52-.4c2,0,2.9.94,2.9,2.9Zm-4-2.56c-1.1.11-1.53.63-1.53,1.62s.45,1.66,1.37,1.66a9.47,9.47,0,0,0,2.82-.56v-3Z" fill="#3a3d3f"/><path d="M887.82,71.23v4.31c0,2,.12,2.52,1.29,2.52.51,0,1.6-.11,1.6-.11l.09,1.12a16.23,16.23,0,0,1-1.83.19c-1.86,0-2.49-.7-2.49-3.29V71.23h-1.27V70.06h1.27V67.31h1.34v2.75h2.86v1.17Z" fill="#3a3d3f"/><path d="M902.65,77.39c0,.52.47.72,1,.79l-.05,1.07a2.75,2.75,0,0,1-2.14-.72,9.2,9.2,0,0,1-3.24.72c-1.64,0-2.54-.94-2.54-2.76s.9-2.48,2.75-2.66l2.83-.27v-.78c0-1.26-.54-1.71-1.62-1.71-1.26,0-3.4.24-3.4.24l-.06-1a21.6,21.6,0,0,1,3.53-.4c2,0,2.9.94,2.9,2.9Zm-4-2.56c-1.09.11-1.53.63-1.53,1.62s.45,1.66,1.37,1.66a9.57,9.57,0,0,0,2.83-.56v-3Z" fill="#3a3d3f"/><path d="M905.31,70.06h1.33v1.23a10.32,10.32,0,0,1,3.3-1.43v1.37a13.41,13.41,0,0,0-3.28,1.23v6.61h-1.35Z" fill="#3a3d3f"/><path d="M918.18,77.89l0,1.07a31.12,31.12,0,0,1-3.51.29c-2.69,0-3.57-1.57-3.57-4.63,0-3.42,1.48-4.74,3.77-4.74s3.61,1.26,3.61,4.22l-.07,1h-5.94c0,1.93.6,2.94,2.36,2.94C916.22,78.06,918.18,77.89,918.18,77.89Zm-1-3.85c0-2.23-.68-3-2.26-3s-2.4.84-2.42,3Z" fill="#3a3d3f"/><path d="M924.59,79.07v-9h1.33v.63a6.85,6.85,0,0,1,2.79-.81c2.49,0,3,1.23,3,4.43v4.76h-1.34V74.35c0-2.38-.27-3.26-1.94-3.26a6.12,6.12,0,0,0-2.54.67v7.31Z" fill="#3a3d3f"/><path d="M941.56,74.46c0,3.27-.81,4.79-3.85,4.79s-3.85-1.52-3.85-4.79c0-3.1,1-4.58,3.85-4.58S941.56,71.36,941.56,74.46Zm-1.38,0c0-2.51-.54-3.41-2.47-3.41s-2.46.9-2.46,3.41.34,3.62,2.46,3.62S940.18,77,940.18,74.46Z" fill="#3a3d3f"/><path d="M945.56,71.23v4.31c0,2,.12,2.52,1.3,2.52.5,0,1.6-.11,1.6-.11l.09,1.12a16.5,16.5,0,0,1-1.84.19c-1.85,0-2.48-.7-2.48-3.29V71.23H943V70.06h1.28V67.31h1.33v2.75h2.86v1.17Z" fill="#3a3d3f"/><path d="M954,79.07V66.14h1.35v4.43a7.55,7.55,0,0,1,2.77-.69c2.47,0,3,1.23,3,4.43v4.76h-1.35V74.35c0-2.38-.27-3.26-1.92-3.26a7.41,7.41,0,0,0-2.54.54v7.44Z" fill="#3a3d3f"/><path d="M963.7,66.46h1.35V68H963.7Zm0,3.6h1.35v9H963.7Z" fill="#3a3d3f"/><path d="M967.25,80.58c0-1,.49-1.53,1.42-2.23a1.49,1.49,0,0,1-.5-1.25,5.82,5.82,0,0,1,.61-1.42c-.76-.34-1.42-1.06-1.42-2.72,0-2.21,1.37-3.08,3.36-3.08a9.22,9.22,0,0,1,1.88.24l2.66-.08V71.2l-1.71,0a2.35,2.35,0,0,1,.59,1.8c0,2.34-1.17,3-3.47,3a6.79,6.79,0,0,1-.88-.07,5.21,5.21,0,0,0-.33,1c0,.72.15.83,2.18.83,2.56,0,3.48.5,3.48,2.64s-1.46,2.87-4,2.87C968.28,83.3,967.25,82.67,967.25,80.58Zm2.34-1.69c-.76.55-1,.88-1,1.58,0,1.24.52,1.69,2.56,1.69,1.8,0,2.61-.48,2.61-1.67,0-1.37-.58-1.51-2.22-1.51C970.9,79,969.59,78.89,969.59,78.89ZM972.8,73c0-1.42-.56-2-2.08-2s-2,.56-2,2,.61,2,2,2S972.8,74.38,972.8,73Z" fill="#3a3d3f"/><path d="M976.9,79.07V66.14h1.35v4.43a7.55,7.55,0,0,1,2.77-.69c2.47,0,3,1.23,3,4.43v4.76h-1.35V74.35c0-2.38-.27-3.26-1.92-3.26a7.41,7.41,0,0,0-2.54.54v7.44Z" fill="#3a3d3f"/><path d="M986.67,66.14H988V79.07h-1.35Z" fill="#3a3d3f"/><path d="M991.23,70.06l2.25,7.83h.59l2.27-7.83h1.35l-3.75,13h-1.35l1.17-4h-1.33l-2.55-9Z" fill="#3a3d3f"/><path d="M1010.63,74.42c0,3.58-1,4.83-4.25,4.83-1.08,0-3-.2-3-.2V66.14h1.34v4.37a7.43,7.43,0,0,1,2.64-.63C1009.8,69.88,1010.63,71.18,1010.63,74.42Zm-1.37,0c0-2.32-.47-3.33-2-3.33a7.57,7.57,0,0,0-2.5.52V78s1.17.09,1.65.09C1008.83,78,1009.26,76.94,1009.26,74.42Z" fill="#3a3d3f"/><path d="M1019.81,70.06v9h-1.35v-.64a6,6,0,0,1-2.66.82c-2.53,0-3-1.17-3-4.49v-4.7h1.35v4.68c0,2.49.22,3.3,1.89,3.3a5.42,5.42,0,0,0,2.47-.67V70.06Z" fill="#3a3d3f"/><path d="M1028.38,71.38a29.33,29.33,0,0,0-3.15-.29c-1.12,0-2,.3-2,1.37,0,.84.44,1.08,2.34,1.4,2.26.38,3.1.83,3.1,2.58,0,2.1-1.33,2.81-3.49,2.81a25,25,0,0,1-3.17-.35l.07-1.17a29.5,29.5,0,0,0,3,.31c1.48,0,2.27-.33,2.27-1.55,0-.94-.47-1.17-2.43-1.48s-3-.7-3-2.5c0-2,1.61-2.63,3.24-2.63a23,23,0,0,1,3.26.34Z" fill="#3a3d3f"/><path d="M1031.27,70.06l2.25,7.83h.6l2.27-7.83h1.35l-3.75,13h-1.35l1.17-4h-1.33l-2.56-9Z" fill="#3a3d3f"/><path d="M1039.37,77h1.48v2.06h-1.48Z" fill="#3a3d3f"/><path d="M1046.25,66.61h9v1.24h-3.8V79.07h-1.37V67.85h-3.83Z" fill="#3a3d3f"/><path d="M1056.78,79.07V66.14h1.35v4.43a7.55,7.55,0,0,1,2.77-.69c2.47,0,3,1.23,3,4.43v4.76h-1.36V74.35c0-2.38-.27-3.26-1.92-3.26a7.41,7.41,0,0,0-2.54.54v7.44Z" fill="#3a3d3f"/><path d="M1066.44,66.46h1.36V68h-1.36Zm0,3.6h1.36v9h-1.36Z" fill="#3a3d3f"/><path d="M1076.37,71.38a29.33,29.33,0,0,0-3.16-.29c-1.11,0-2,.3-2,1.37,0,.84.43,1.08,2.34,1.4,2.25.38,3.1.83,3.1,2.58,0,2.1-1.33,2.81-3.49,2.81a24.7,24.7,0,0,1-3.17-.35l.07-1.17a29.5,29.5,0,0,0,3,.31c1.48,0,2.27-.33,2.27-1.55,0-.94-.47-1.17-2.43-1.48s-3-.7-3-2.5c0-2,1.6-2.63,3.24-2.63a23.19,23.19,0,0,1,3.26.34Z" fill="#3a3d3f"/><path d="M665.81,105.89l0,1.07a31.12,31.12,0,0,1-3.51.29c-2.68,0-3.56-1.57-3.56-4.63,0-3.42,1.48-4.74,3.76-4.74s3.62,1.26,3.62,4.22l-.07,1h-5.94c0,1.93.59,2.94,2.36,2.94C663.85,106.06,665.81,105.89,665.81,105.89Zm-1-3.85c0-2.23-.68-3-2.27-3s-2.39.84-2.41,3Z" fill="#3a3d3f"/><path d="M668.26,107.07v-9h1.33v.63a6.85,6.85,0,0,1,2.79-.81c2.48,0,3,1.23,3,4.43v4.76h-1.33v-4.72c0-2.38-.27-3.26-2-3.26a6.18,6.18,0,0,0-2.54.67v7.31Z" fill="#3a3d3f"/><path d="M684.28,105.39c0,.52.46.72,1,.79l-.05,1.07a2.76,2.76,0,0,1-2.15-.72,9.2,9.2,0,0,1-3.24.72c-1.64,0-2.54-.94-2.54-2.76s.9-2.48,2.76-2.66l2.83-.27v-.78c0-1.26-.54-1.71-1.62-1.71-1.26,0-3.41.24-3.41.24l0-1a21.6,21.6,0,0,1,3.53-.4c2,0,2.9.94,2.9,2.9Zm-4-2.56c-1.1.11-1.53.63-1.53,1.62s.45,1.66,1.37,1.66a9.57,9.57,0,0,0,2.83-.56v-3Z" fill="#3a3d3f"/><path d="M694.19,102.42c0,3.58-1,4.83-4.24,4.83-1.09,0-3-.2-3-.2V94.14h1.33v4.37a7.44,7.44,0,0,1,2.65-.63C693.37,97.88,694.19,99.18,694.19,102.42Zm-1.36,0c0-2.32-.47-3.33-2.06-3.33a7.57,7.57,0,0,0-2.5.52V106s1.17.09,1.66.09C692.39,106,692.83,104.94,692.83,102.42Z" fill="#3a3d3f"/><path d="M696.51,94.14h1.35v12.93h-1.35Z" fill="#3a3d3f"/><path d="M707.21,105.89l0,1.07a31.12,31.12,0,0,1-3.51.29c-2.68,0-3.56-1.57-3.56-4.63,0-3.42,1.47-4.74,3.76-4.74s3.62,1.26,3.62,4.22l-.07,1h-5.94c0,1.93.59,2.94,2.35,2.94C705.25,106.06,707.21,105.89,707.21,105.89Zm-1-3.85c0-2.23-.68-3-2.27-3s-2.39.84-2.41,3Z" fill="#3a3d3f"/><path d="M715.63,99.38a29.33,29.33,0,0,0-3.15-.29c-1.12,0-2,.3-2,1.37,0,.84.43,1.08,2.34,1.4,2.25.38,3.1.83,3.1,2.58,0,2.1-1.34,2.81-3.5,2.81a25,25,0,0,1-3.17-.35l.08-1.17a29.5,29.5,0,0,0,3,.31c1.47,0,2.27-.33,2.27-1.55,0-.94-.47-1.17-2.44-1.48s-3-.7-3-2.5c0-2,1.6-2.63,3.24-2.63a23.19,23.19,0,0,1,3.26.34Z" fill="#3a3d3f"/><path d="M729,98.06v9H727.6v-.64a6,6,0,0,1-2.66.82c-2.52,0-3.05-1.17-3.05-4.49v-4.7h1.35v4.68c0,2.49.22,3.3,1.89,3.3a5.42,5.42,0,0,0,2.47-.67V98.06Z" fill="#3a3d3f"/><path d="M737.52,99.38a29.33,29.33,0,0,0-3.15-.29c-1.12,0-2,.3-2,1.37,0,.84.43,1.08,2.34,1.4,2.25.38,3.09.83,3.09,2.58,0,2.1-1.33,2.81-3.49,2.81a25,25,0,0,1-3.17-.35l.07-1.17a29.86,29.86,0,0,0,3,.31c1.48,0,2.27-.33,2.27-1.55,0-.94-.47-1.17-2.43-1.48s-3-.7-3-2.5c0-2,1.6-2.63,3.24-2.63a23.19,23.19,0,0,1,3.26.34Z" fill="#3a3d3f"/><path d="M745.67,99.23v4.31c0,2,.13,2.52,1.3,2.52.5,0,1.6-.11,1.6-.11l.09,1.12a16.21,16.21,0,0,1-1.84.19c-1.85,0-2.48-.7-2.48-3.29V99.23h-1.28V98.06h1.28V95.31h1.33v2.75h2.87v1.17Z" fill="#3a3d3f"/><path d="M757.5,102.46c0,3.27-.81,4.79-3.85,4.79s-3.86-1.52-3.86-4.79c0-3.1,1-4.58,3.86-4.58S757.5,99.36,757.5,102.46Zm-1.39,0c0-2.51-.54-3.41-2.46-3.41s-2.47.9-2.47,3.41.34,3.62,2.47,3.62S756.11,105,756.11,102.46Z" fill="#3a3d3f"/><path d="M769.47,98.15l-.05,1.1s-1.44-.16-2.13-.16c-2.07,0-2.63.9-2.63,3.31,0,2.67.42,3.64,2.65,3.64.68,0,2.12-.16,2.12-.16l.06,1.11a23.34,23.34,0,0,1-2.51.26c-2.86,0-3.7-1.32-3.7-4.85,0-3.26,1.06-4.52,3.74-4.52A20.89,20.89,0,0,1,769.47,98.15Z" fill="#3a3d3f"/><path d="M771.5,107.07V94.14h1.35v4.43a7.57,7.57,0,0,1,2.78-.69c2.46,0,3,1.23,3,4.43v4.76h-1.35v-4.72c0-2.38-.27-3.26-1.93-3.26a7.41,7.41,0,0,0-2.54.54v7.44Z" fill="#3a3d3f"/><path d="M787.52,105.39c0,.52.47.72,1.05.79l-.06,1.07a2.75,2.75,0,0,1-2.14-.72,9.2,9.2,0,0,1-3.24.72c-1.64,0-2.54-.94-2.54-2.76s.9-2.48,2.76-2.66l2.82-.27v-.78c0-1.26-.54-1.71-1.62-1.71-1.26,0-3.4.24-3.4.24l0-1a21.57,21.57,0,0,1,3.52-.4c2,0,2.9.94,2.9,2.9Zm-4-2.56c-1.1.11-1.53.63-1.53,1.62s.45,1.66,1.37,1.66a9.47,9.47,0,0,0,2.82-.56v-3Z" fill="#3a3d3f"/><path d="M790.18,98.06h1.34v1.23a10.21,10.21,0,0,1,3.29-1.43v1.37a13.24,13.24,0,0,0-3.27,1.23v6.61h-1.36Z" fill="#3a3d3f"/><path d="M796,108.58c0-1,.48-1.53,1.42-2.23a1.5,1.5,0,0,1-.51-1.25,5.78,5.78,0,0,1,.62-1.42c-.76-.34-1.43-1.06-1.43-2.72,0-2.21,1.37-3.08,3.37-3.08a9.07,9.07,0,0,1,1.87.24L804,98V99.2l-1.71,0a2.35,2.35,0,0,1,.59,1.8c0,2.34-1.17,3-3.47,3a6.65,6.65,0,0,1-.88-.07,5.21,5.21,0,0,0-.33,1c0,.72.15.83,2.18.83,2.56,0,3.47.5,3.47,2.64s-1.45,2.87-4,2.87C797,111.3,796,110.67,796,108.58Zm2.34-1.69c-.76.55-1,.88-1,1.58,0,1.24.52,1.69,2.56,1.69,1.8,0,2.61-.48,2.61-1.67,0-1.37-.58-1.51-2.22-1.51C799.67,107,798.36,106.89,798.36,106.89Zm3.2-5.93c0-1.42-.56-2-2.07-2s-2,.56-2,2,.62,2,2,2S801.56,102.38,801.56,101Z" fill="#3a3d3f"/><path d="M812.31,105.89l0,1.07a31.12,31.12,0,0,1-3.51.29c-2.68,0-3.56-1.57-3.56-4.63,0-3.42,1.48-4.74,3.76-4.74s3.62,1.26,3.62,4.22l-.07,1h-5.94c0,1.93.59,2.94,2.36,2.94C810.35,106.06,812.31,105.89,812.31,105.89Zm-1-3.85c0-2.23-.68-3-2.27-3s-2.39.84-2.41,3Z" fill="#3a3d3f"/><path d="M824.53,98.15l0,1.1s-1.44-.16-2.13-.16c-2.07,0-2.63.9-2.63,3.31,0,2.67.42,3.64,2.65,3.64.68,0,2.12-.16,2.12-.16l.06,1.11a23.37,23.37,0,0,1-2.5.26c-2.87,0-3.71-1.32-3.71-4.85,0-3.26,1.06-4.52,3.74-4.52A20.89,20.89,0,0,1,824.53,98.15Z" fill="#3a3d3f"/><path d="M833.21,105.89l0,1.07a31.12,31.12,0,0,1-3.51.29c-2.68,0-3.56-1.57-3.56-4.63,0-3.42,1.47-4.74,3.76-4.74s3.62,1.26,3.62,4.22l-.07,1h-6c0,1.93.6,2.94,2.36,2.94C831.24,106.06,833.21,105.89,833.21,105.89Zm-1-3.85c0-2.23-.69-3-2.27-3s-2.4.84-2.41,3Z" fill="#3a3d3f"/><path d="M835.65,98.06H837v1.23a10.32,10.32,0,0,1,3.3-1.43v1.37a13.41,13.41,0,0,0-3.28,1.23v6.61h-1.35Z" fill="#3a3d3f"/><path d="M843.68,99.23v4.31c0,2,.13,2.52,1.3,2.52.5,0,1.6-.11,1.6-.11l.09,1.12a16.5,16.5,0,0,1-1.84.19c-1.85,0-2.48-.7-2.48-3.29V99.23h-1.28V98.06h1.28V95.31h1.33v2.75h2.86v1.17Z" fill="#3a3d3f"/><path d="M854.55,105.39c0,.52.47.72,1.05.79l-.06,1.07a2.75,2.75,0,0,1-2.14-.72,9.2,9.2,0,0,1-3.24.72c-1.64,0-2.54-.94-2.54-2.76s.9-2.48,2.76-2.66l2.82-.27v-.78c0-1.26-.54-1.71-1.62-1.71-1.26,0-3.4.24-3.4.24l0-1a21.6,21.6,0,0,1,3.53-.4c2,0,2.89.94,2.89,2.9Zm-4-2.56c-1.1.11-1.53.63-1.53,1.62s.45,1.66,1.37,1.66a9.47,9.47,0,0,0,2.82-.56v-3Z" fill="#3a3d3f"/><path d="M857.22,94.46h1.35V96h-1.35Zm0,3.6h1.35v9h-1.35Z" fill="#3a3d3f"/><path d="M861.16,107.07v-9h1.33v.63a6.85,6.85,0,0,1,2.79-.81c2.48,0,3,1.23,3,4.43v4.76H867v-4.72c0-2.38-.27-3.26-1.94-3.26a6.12,6.12,0,0,0-2.54.67v7.31Z" fill="#3a3d3f"/><path d="M877.34,94.61h3l3.43,12.46h-1.37l-.9-3.21h-5.33l-.9,3.21h-1.37Zm-.85,8h4.72l-1.89-6.83h-.94Z" fill="#3a3d3f"/><path d="M890.68,100.69h3.44v6.12a28.94,28.94,0,0,1-4,.44c-3.82,0-4.83-2.35-4.83-6.38s1-6.44,4.79-6.44a23.65,23.65,0,0,1,4.09.46l-.06,1.16a28.37,28.37,0,0,0-3.87-.38c-2.88,0-3.51,1.67-3.51,5.2s.61,5.15,3.49,5.15a16.86,16.86,0,0,0,2.58-.25v-3.84h-2.07Z" fill="#3a3d3f"/><path d="M905.35,94.61l-3.26,12.46H899l-3.26-12.46h1.44L900,105.84h1l2.86-11.23Z" fill="#3a3d3f"/><path d="M913.05,99.38a29.33,29.33,0,0,0-3.15-.29c-1.12,0-2,.3-2,1.37,0,.84.43,1.08,2.34,1.4,2.25.38,3.1.83,3.1,2.58,0,2.1-1.34,2.81-3.5,2.81a25,25,0,0,1-3.17-.35l.08-1.17a29.5,29.5,0,0,0,3,.31c1.47,0,2.27-.33,2.27-1.55,0-.94-.47-1.17-2.44-1.48s-3-.7-3-2.5c0-2,1.6-2.63,3.24-2.63a23.19,23.19,0,0,1,3.26.34Z" fill="#3a3d3f"/><path d="M920,98.06l1.82,7.83h.28l2.15-7.65h1.4l2.14,7.65h.31l1.8-7.83h1.35l-2.14,9h-2.25L925,100l-1.91,7h-2.25l-2.14-9Z" fill="#3a3d3f"/><path d="M933.12,107.07V94.14h1.35v4.43a7.55,7.55,0,0,1,2.77-.69c2.47,0,3,1.23,3,4.43v4.76h-1.35v-4.72c0-2.38-.27-3.26-1.93-3.26a7.41,7.41,0,0,0-2.54.54v7.44Z" fill="#3a3d3f"/><path d="M942.79,94.46h1.35V96h-1.35Zm0,3.6h1.35v9h-1.35Z" fill="#3a3d3f"/><path d="M946.84,94.14h1.35v12.93h-1.35Z" fill="#3a3d3f"/><path d="M957.53,105.89l0,1.07a31.4,31.4,0,0,1-3.52.29c-2.68,0-3.56-1.57-3.56-4.63,0-3.42,1.48-4.74,3.76-4.74s3.62,1.26,3.62,4.22l-.07,1h-5.94c0,1.93.59,2.94,2.36,2.94C955.57,106.06,957.53,105.89,957.53,105.89Zm-1-3.85c0-2.23-.68-3-2.27-3s-2.39.84-2.41,3Z" fill="#3a3d3f"/><path d="M965.74,99.23v4.31c0,2,.12,2.52,1.29,2.52.51,0,1.6-.11,1.6-.11l.09,1.12a16.23,16.23,0,0,1-1.83.19c-1.86,0-2.49-.7-2.49-3.29V99.23h-1.27V98.06h1.27V95.31h1.34v2.75h2.86v1.17Z" fill="#3a3d3f"/><path d="M970.25,107.07V94.14h1.35v4.43a7.57,7.57,0,0,1,2.78-.69c2.46,0,3,1.23,3,4.43v4.76h-1.35v-4.72c0-2.38-.27-3.26-1.93-3.26a7.41,7.41,0,0,0-2.54.54v7.44Z" fill="#3a3d3f"/><path d="M986.56,105.89l0,1.07a31.12,31.12,0,0,1-3.51.29c-2.68,0-3.57-1.57-3.57-4.63,0-3.42,1.48-4.74,3.77-4.74s3.62,1.26,3.62,4.22l-.08,1h-5.94c0,1.93.6,2.94,2.36,2.94C984.6,106.06,986.56,105.89,986.56,105.89Zm-1-3.85c0-2.23-.68-3-2.26-3s-2.4.84-2.42,3Z" fill="#3a3d3f"/><path d="M989,98.06h1.33v1.23a10.32,10.32,0,0,1,3.3-1.43v1.37a13.21,13.21,0,0,0-3.28,1.23v6.61H989Z" fill="#3a3d3f"/><path d="M1001.88,105.89l0,1.07a31.38,31.38,0,0,1-3.51.29c-2.69,0-3.57-1.57-3.57-4.63,0-3.42,1.48-4.74,3.76-4.74s3.62,1.26,3.62,4.22l-.07,1h-5.94c0,1.93.59,2.94,2.36,2.94C999.92,106.06,1001.88,105.89,1001.88,105.89Zm-1-3.85c0-2.23-.68-3-2.27-3s-2.39.84-2.41,3Z" fill="#3a3d3f"/><path d="M1008.29,94.46h1.35V96h-1.35Zm0,3.6h1.35v9h-1.35Z" fill="#3a3d3f"/><path d="M1018.21,99.38a29.33,29.33,0,0,0-3.15-.29c-1.12,0-2,.3-2,1.37,0,.84.44,1.08,2.34,1.4,2.25.38,3.1.83,3.1,2.58,0,2.1-1.33,2.81-3.49,2.81a25,25,0,0,1-3.17-.35l.07-1.17a29.5,29.5,0,0,0,3,.31c1.48,0,2.27-.33,2.27-1.55,0-.94-.47-1.17-2.43-1.48s-3-.7-3-2.5c0-2,1.61-2.63,3.24-2.63a23.19,23.19,0,0,1,3.26.34Z" fill="#3a3d3f"/><path d="M1030.54,99.38a29.33,29.33,0,0,0-3.15-.29c-1.12,0-2,.3-2,1.37,0,.84.44,1.08,2.34,1.4,2.25.38,3.1.83,3.1,2.58,0,2.1-1.33,2.81-3.49,2.81a25,25,0,0,1-3.17-.35l.07-1.17a29.5,29.5,0,0,0,3,.31c1.48,0,2.27-.33,2.27-1.55,0-.94-.47-1.17-2.43-1.48s-3-.7-3-2.5c0-2,1.61-2.63,3.24-2.63a23.19,23.19,0,0,1,3.26.34Z" fill="#3a3d3f"/><path d="M1034.73,99.23v4.31c0,2,.13,2.52,1.3,2.52.5,0,1.6-.11,1.6-.11l.09,1.12a16.5,16.5,0,0,1-1.84.19c-1.85,0-2.48-.7-2.48-3.29V99.23h-1.28V98.06h1.28V95.31h1.33v2.75h2.86v1.17Z" fill="#3a3d3f"/><path d="M1039.25,94.46h1.35V96h-1.35Zm0,3.6h1.35v9h-1.35Z" fill="#3a3d3f"/><path d="M1043.3,94.14h1.35v12.93h-1.35Z" fill="#3a3d3f"/><path d="M1047.46,94.14h1.35v12.93h-1.35Z" fill="#3a3d3f"/><path d="M1061.82,105.39c0,.52.47.72,1,.79l-.06,1.07a2.75,2.75,0,0,1-2.14-.72,9.2,9.2,0,0,1-3.24.72c-1.64,0-2.54-.94-2.54-2.76s.9-2.48,2.75-2.66l2.83-.27v-.78c0-1.26-.54-1.71-1.62-1.71-1.26,0-3.4.24-3.4.24l-.06-1a21.77,21.77,0,0,1,3.53-.4c2,0,2.9.94,2.9,2.9Zm-4-2.56c-1.1.11-1.53.63-1.53,1.62s.45,1.66,1.36,1.66a9.48,9.48,0,0,0,2.83-.56v-3Z" fill="#3a3d3f"/><path d="M1064.48,94.46h1.35V96h-1.35Zm0,3.6h1.35v9h-1.35Z" fill="#3a3d3f"/><path d="M1068.43,98.06h1.33v1.23a10.34,10.34,0,0,1,3.29-1.43v1.37a13.24,13.24,0,0,0-3.27,1.23v6.61h-1.35Z" fill="#3a3d3f"/><path d="M665.52,133.39c0,.52.47.72,1,.79l0,1.07a2.75,2.75,0,0,1-2.14-.72,9.2,9.2,0,0,1-3.24.72c-1.64,0-2.54-.94-2.54-2.76s.9-2.48,2.75-2.66l2.83-.27v-.78c0-1.26-.54-1.71-1.62-1.71-1.26,0-3.4.24-3.4.24l-.06-1a21.6,21.6,0,0,1,3.53-.4c2,0,2.9.94,2.9,2.9Zm-4-2.56c-1.1.11-1.54.63-1.54,1.62s.45,1.66,1.37,1.66a9.48,9.48,0,0,0,2.83-.56v-3Z" fill="#3a3d3f"/><path d="M668.18,135.07v-9h1.33v.63a6.86,6.86,0,0,1,2.8-.81c2.48,0,3,1.23,3,4.43v4.76H674v-4.72c0-2.38-.27-3.26-1.95-3.26a6.12,6.12,0,0,0-2.54.67v7.31Z" fill="#3a3d3f"/><path d="M684.76,135.07h-1.33v-.62a6.44,6.44,0,0,1-2.74.8c-1.76,0-3.24-.72-3.24-4.61,0-3.17,1-4.76,3.76-4.76a14.13,14.13,0,0,1,2.22.24v-4h1.33Zm-1.33-1.7v-6.1a14.27,14.27,0,0,0-2.14-.22c-1.89,0-2.45,1.25-2.45,3.59,0,2.91.95,3.4,2,3.4A6.53,6.53,0,0,0,683.43,133.37Z" fill="#3a3d3f"/><path d="M691.33,126.06h1.33v.65a6.12,6.12,0,0,1,2.7-.83c2.27,0,3.26,1.39,3.26,4.58,0,3.53-1.15,4.79-3.92,4.79a12,12,0,0,1-2-.2v4h-1.35Zm1.35,1.75v6.07a14.27,14.27,0,0,0,2,.2c2,0,2.62-1,2.62-3.62s-.77-3.37-2.08-3.37A5.87,5.87,0,0,0,692.68,127.81Z" fill="#3a3d3f"/><path d="M707.17,133.39c0,.52.47.72,1.05.79l-.06,1.07a2.75,2.75,0,0,1-2.14-.72,9.2,9.2,0,0,1-3.24.72c-1.64,0-2.54-.94-2.54-2.76s.9-2.48,2.75-2.66l2.83-.27v-.78c0-1.26-.54-1.71-1.62-1.71-1.26,0-3.4.24-3.4.24l-.06-1a21.6,21.6,0,0,1,3.53-.4c2,0,2.9.94,2.9,2.9Zm-4-2.56c-1.1.11-1.53.63-1.53,1.62s.45,1.66,1.36,1.66a9.48,9.48,0,0,0,2.83-.56v-3Z" fill="#3a3d3f"/><path d="M715.81,127.38a29.33,29.33,0,0,0-3.15-.29c-1.12,0-2,.3-2,1.37,0,.84.43,1.08,2.34,1.4,2.25.38,3.1.83,3.1,2.58,0,2.1-1.34,2.81-3.5,2.81a25,25,0,0,1-3.17-.35l.08-1.17a29.5,29.5,0,0,0,3,.31c1.47,0,2.27-.33,2.27-1.55,0-.94-.47-1.17-2.44-1.48s-3-.7-3-2.5c0-2,1.6-2.63,3.24-2.63a23.19,23.19,0,0,1,3.26.34Z" fill="#3a3d3f"/><path d="M724.18,127.38a29.33,29.33,0,0,0-3.15-.29c-1.12,0-2,.3-2,1.37,0,.84.43,1.08,2.34,1.4,2.25.38,3.1.83,3.1,2.58,0,2.1-1.34,2.81-3.5,2.81a25,25,0,0,1-3.17-.35l.08-1.17a29.5,29.5,0,0,0,3,.31c1.47,0,2.27-.33,2.27-1.55,0-.94-.47-1.17-2.44-1.48s-3-.7-3-2.5c0-2,1.6-2.63,3.24-2.63a23.19,23.19,0,0,1,3.26.34Z" fill="#3a3d3f"/><path d="M733.22,133.89l0,1.07a31.12,31.12,0,0,1-3.51.29c-2.68,0-3.56-1.57-3.56-4.63,0-3.42,1.47-4.74,3.76-4.74s3.62,1.26,3.62,4.22l-.07,1h-5.94c0,1.93.59,2.94,2.35,2.94C731.26,134.06,733.22,133.89,733.22,133.89Zm-1-3.85c0-2.23-.68-3-2.27-3s-2.39.84-2.41,3Z" fill="#3a3d3f"/><path d="M735.66,135.07v-9H737v.63a6.79,6.79,0,0,1,2.79-.81c2.48,0,3,1.23,3,4.43v4.76H741.5v-4.72c0-2.38-.27-3.26-2-3.26a6.18,6.18,0,0,0-2.54.67v7.31Z" fill="#3a3d3f"/><path d="M744.93,136.58c0-1.05.49-1.53,1.43-2.23a1.47,1.47,0,0,1-.51-1.25,5.82,5.82,0,0,1,.61-1.42c-.75-.34-1.42-1.06-1.42-2.72,0-2.21,1.37-3.08,3.37-3.08a9.07,9.07,0,0,1,1.87.24L753,126v1.16l-1.71,0a2.35,2.35,0,0,1,.59,1.8c0,2.34-1.17,3-3.48,3a6.79,6.79,0,0,1-.88-.07,5.32,5.32,0,0,0-.32,1c0,.72.14.83,2.18.83,2.55,0,3.47.5,3.47,2.64s-1.46,2.87-4,2.87C746,139.3,744.93,138.67,744.93,136.58Zm2.34-1.69c-.75.55-1,.88-1,1.58,0,1.24.52,1.69,2.55,1.69,1.8,0,2.61-.48,2.61-1.67,0-1.37-.57-1.51-2.21-1.51C748.59,135,747.27,134.89,747.27,134.89Zm3.21-5.93c0-1.42-.56-2-2.07-2s-2,.56-2,2,.61,2,2,2S750.48,130.38,750.48,129Z" fill="#3a3d3f"/><path d="M761.23,133.89l0,1.07a31.12,31.12,0,0,1-3.51.29c-2.68,0-3.56-1.57-3.56-4.63,0-3.42,1.47-4.74,3.76-4.74s3.62,1.26,3.62,4.22l-.07,1h-6c0,1.93.6,2.94,2.36,2.94C759.26,134.06,761.23,133.89,761.23,133.89Zm-1-3.85c0-2.23-.69-3-2.27-3s-2.4.84-2.41,3Z" fill="#3a3d3f"/><path d="M763.67,126.06H765v1.23a10.32,10.32,0,0,1,3.3-1.43v1.37a13.41,13.41,0,0,0-3.28,1.23v6.61h-1.35Z" fill="#3a3d3f"/><path d="M775.66,127.23v4.31c0,2,.13,2.52,1.3,2.52.5,0,1.6-.11,1.6-.11l.09,1.12a16.5,16.5,0,0,1-1.84.19c-1.85,0-2.48-.7-2.48-3.29v-4.74h-1.28v-1.17h1.28v-2.75h1.33v2.75h2.86v1.17Z" fill="#3a3d3f"/><path d="M780.18,126.06h1.33v1.23a10.34,10.34,0,0,1,3.29-1.43v1.37a13.24,13.24,0,0,0-3.27,1.23v6.61h-1.35Z" fill="#3a3d3f"/><path d="M792.76,133.39c0,.52.47.72,1,.79l0,1.07a2.75,2.75,0,0,1-2.14-.72,9.2,9.2,0,0,1-3.24.72c-1.64,0-2.54-.94-2.54-2.76s.9-2.48,2.75-2.66l2.83-.27v-.78c0-1.26-.54-1.71-1.62-1.71-1.26,0-3.4.24-3.4.24l-.06-1a21.6,21.6,0,0,1,3.53-.4c2,0,2.9.94,2.9,2.9Zm-4-2.56c-1.1.11-1.54.63-1.54,1.62s.46,1.66,1.37,1.66a9.48,9.48,0,0,0,2.83-.56v-3Z" fill="#3a3d3f"/><path d="M797.15,135.07H795.8v-7.84h-1.13v-1.17h1.13v-.81c0-2.59.67-3.29,2.43-3.29.61,0,1.82.12,1.82.12l0,1.12s-1,0-1.55,0c-1,0-1.33.44-1.33,2.11v.79h2.61v1.17h-2.61Z" fill="#3a3d3f"/><path d="M803.11,135.07h-1.35v-7.84h-1.14v-1.17h1.14v-.81c0-2.59.66-3.29,2.43-3.29.61,0,1.82.12,1.82.12l0,1.12s-1,0-1.55,0c-1,0-1.33.44-1.33,2.11v.79h2.61v1.17h-2.61Z" fill="#3a3d3f"/><path d="M807.34,122.46h1.35V124h-1.35Zm0,3.6h1.35v9h-1.35Z" fill="#3a3d3f"/><path d="M817.1,126.15l-.06,1.1s-1.44-.16-2.12-.16c-2.07,0-2.63.9-2.63,3.31,0,2.67.41,3.64,2.64,3.64.69,0,2.13-.16,2.13-.16l.05,1.11a23.06,23.06,0,0,1-2.5.26c-2.86,0-3.71-1.32-3.71-4.85,0-3.26,1.06-4.52,3.75-4.52A21.18,21.18,0,0,1,817.1,126.15Z" fill="#3a3d3f"/><path d="M819,133h1.47v2.06H819Z" fill="#3a3d3f"/><rect x="505.86" y="70.66" width="7.17" height="27.28" transform="translate(1018.89 168.61) rotate(-180)" fill="#2277d6"/><rect x="495.86" y="79.74" width="7.17" height="18.2" transform="translate(998.89 177.69) rotate(-180)" fill="#2277d6"/><rect x="485.27" y="88.84" width="7.17" height="9.1" transform="translate(977.71 186.79) rotate(-180)" fill="#2277d6"/></g><g id="Layer_2-2" data-name="Layer 2"><path d="M388,91.53a4.41,4.41,0,0,1-8.81.1l0-5,4.3-4.27V76.45a.54.54,0,0,0-.54-.54h-1.47V71.56a.91.91,0,0,0-.9-.9h-.17a.9.9,0,0,0-.9.9v4.35h-3.9V71.56a.9.9,0,1,0-1.8,0v4.35h-1.39a.55.55,0,0,0-.54.54v6l4.32,4.32v4.91a7.37,7.37,0,0,0,14.73-.1Z" fill="#2277d6"/><path d="M451,76.46h-5.73V73.59a2.86,2.86,0,0,0-2.87-2.86h-5.72a2.86,2.86,0,0,0-2.87,2.86v2.87h-5.73a2.84,2.84,0,0,0-2.85,2.86V95.08a2.85,2.85,0,0,0,2.86,2.86h22.53a3.24,3.24,0,0,0,3.25-3.25V79.32A2.86,2.86,0,0,0,451,76.46Zm-8.6,0h-5.72V73.59h5.72Z" fill="#2277d6"/><path d="M662.44,29.14l2.36,12.48h.58l2.82-12.36H670l2.82,12.36h.58l2.36-12.48h1.58L674.54,43h-2.82L669.1,31.16,666.48,43h-2.82l-2.82-13.84Z"/><path d="M688.24,36.72h-7V43h-1.54V29.14h1.54v6.2h7v-6.2h1.52V43h-1.52Z"/><path d="M697.62,43h-1.54V37.16l-4.42-8h1.74l3.44,6.48,3.44-6.48H702l-4.4,8Z"/><path d="M708.31,29.14h1.54V43h-1.54Z"/><path d="M721,30.62s-2.78-.34-3.94-.34c-2,0-3,.7-3,2.26,0,1.8,1,2.1,3.39,2.64,2.76.62,4,1.3,4,3.72,0,3.06-1.68,4.26-4.42,4.26a36.66,36.66,0,0,1-4.39-.44l.16-1.28s2.73.36,4.15.36c2,0,3-.86,3-2.78,0-1.56-.82-2-3.08-2.44-2.87-.62-4.31-1.3-4.31-3.94s1.77-3.72,4.47-3.72a34.46,34.46,0,0,1,4.18.4Z"/><path d="M727,29.14h10v1.38h-4.23V43h-1.52V30.52H727Z"/><path d="M747.58,36.72h-7.05V43H739V29.14h1.54v6.2h7.05v-6.2h1.52V43h-1.52Z"/><path d="M752.49,29.14H754V43h-1.54Z"/><path d="M765.17,30.62s-2.78-.34-3.94-.34c-2,0-3,.7-3,2.26,0,1.8,1,2.1,3.38,2.64,2.77.62,4,1.3,4,3.72,0,3.06-1.67,4.26-4.42,4.26a36.39,36.39,0,0,1-4.38-.44l.16-1.28s2.72.36,4.14.36c2,0,3-.86,3-2.78,0-1.56-.82-2-3.08-2.44-2.86-.62-4.3-1.3-4.3-3.94s1.76-3.72,4.46-3.72a34.46,34.46,0,0,1,4.18.4Z"/><path d="M774.19,37.68V43h-1.54V29.14h5.12c2.9,0,4.42,1.28,4.42,4.2,0,2-.8,3.46-2.54,4L782.31,43h-1.7l-2.5-5.3Zm3.58-7.18h-3.58v5.82h3.6c2.08,0,2.82-1.24,2.82-3C780.61,31.44,779.71,30.5,777.77,30.5Z"/><path d="M785,29.14h8.42V30.5h-6.88v4.78h5.68v1.34h-5.68v5h6.88V43H785Z"/><path d="M804.39,42.76a20.83,20.83,0,0,1-3.82.42c-4.14,0-5.06-2.52-5.06-7.08s.9-7.16,5.06-7.16a20.32,20.32,0,0,1,3.82.44l-.06,1.3a24.64,24.64,0,0,0-3.6-.36c-3.08,0-3.62,1.84-3.62,5.78s.5,5.7,3.66,5.7a21.88,21.88,0,0,0,3.56-.36Z"/><path d="M806.35,36.12c0-4.56,1.18-7.18,5.46-7.18s5.48,2.58,5.48,7.18c0,4.76-1.18,7.06-5.48,7.06S806.35,40.76,806.35,36.12Zm9.34,0c0-3.74-.72-5.82-3.88-5.82s-3.88,2.06-3.88,5.82.68,5.7,3.88,5.7S815.69,40,815.69,36.12Z"/><path d="M820.11,29.14h2.78l3.92,11.7,3.92-11.7h2.78V43H832V30.78h-.28l-4,11.7H826l-4-11.7h-.28V43h-1.54Z"/><path d="M836.91,29.14h2.78l3.92,11.7,3.92-11.7h2.78V43h-1.54V30.78h-.28l-4,11.7h-1.72l-4-11.7h-.28V43h-1.54Z"/><path d="M853.71,29.14h8.42V30.5h-6.88v4.78h5.68v1.34h-5.68v5h6.88V43h-8.42Z"/><path d="M864.77,29.14h2.88L873,41.62h.42V29.14h1.52V43h-2.82L866.69,30.5h-.38V43h-1.54Z"/><path d="M878.29,43V29.14h4.94c4,0,5.12,2.8,5.12,6.72s-1,7.12-5.12,7.12Zm4.94-12.48h-3.4V41.62h3.4c2.88,0,3.54-2.76,3.54-5.76S886.11,30.5,883.23,30.5Z"/><path d="M891.19,29.14h8.42V30.5h-6.88v4.78h5.68v1.34h-5.68v5h6.88V43h-8.42Z"/><path d="M902.25,43V29.14h4.94c4,0,5.12,2.8,5.12,6.72s-1,7.12-5.12,7.12Zm4.94-12.48h-3.4V41.62h3.4c2.88,0,3.54-2.76,3.54-5.76S910.07,30.5,907.19,30.5Z"/><path d="M919.71,35.76c-1.18,1-1.78,1.6-1.78,2.5V39h-1.26a3.11,3.11,0,0,1-.26-1.22c0-1,.8-1.76,1.86-2.66,1.44-1.24,1.78-1.7,1.78-2.82,0-1.42-.86-2-2.66-2a18.55,18.55,0,0,0-3.1.46l-.1-1.22a15.14,15.14,0,0,1,3.34-.6c2.68,0,4,.88,4,3.2C921.57,33.86,921.27,34.46,919.71,35.76Zm-3.26,5h1.64V43h-1.64Z"/></g></g></svg>