<svg xmlns="http://www.w3.org/2000/svg" xmlns:xlink="http://www.w3.org/1999/xlink" viewBox="0 0 566.31 517.94">
	<defs>
		<clipPath id="clip-path">
			<rect x="23.92" y="212.03" width="520.26" height="73.31" fill="none" />
		</clipPath>
		<clipPath id="clip-path-2">
			<rect x="28.63" y="212.51" width="517.18" height="62.04" fill="none" />
		</clipPath>
		<clipPath id="clip-path-3">
			<rect x="284.05" y="170.96" width="54.85" height="141.23" fill="#edf4f9" />
		</clipPath>
	</defs>
	<title>
		r_0_C_Screen
	</title>
	<g style="isolation:isolate">
		<g id="Layer_2" data-name="Layer 2">
			<g id="AGV3_Sel_Box">
				<rect width="566.31" height="517.94" fill="rgba(0,0,0,0)" />
			</g>
			<g id="Layer_1-2" data-name="Layer 1">
				<path d="M41.4,82.22h1.3V94.1H41.31V83.77l-3.06,2-.63-1Z" fill="#3a3d3f" />
				<path d="M47,94.1V92.93l3.47-3.65c1.48-1.53,2.4-2.51,2.4-3.91,0-1.59-.88-2.09-2.59-2.09a17.06,17.06,0,0,0-3.08.4l-.11-1.16A14.58,14.58,0,0,1,50.55,82c2.5,0,3.76.95,3.76,3.18,0,1.79-.81,2.83-2.48,4.45l-3.17,3.22h6V94.1Z" fill="#3a3d3f" />
				<path d="M68.33,83s-2.5-.3-3.54-.3c-1.77,0-2.7.63-2.7,2,0,1.62.86,1.89,3,2.38,2.48.56,3.58,1.17,3.58,3.35,0,2.75-1.51,3.83-4,3.83a33.35,33.35,0,0,1-3.94-.39l.14-1.16s2.45.33,3.73.33c1.77,0,2.66-.78,2.66-2.5,0-1.41-.73-1.8-2.77-2.2-2.57-.56-3.87-1.17-3.87-3.55s1.59-3.35,4-3.35a31.11,31.11,0,0,1,3.76.36Z" fill="#3a3d3f" />
				<path d="M77.51,92.93l0,1.06a31.12,31.12,0,0,1-3.51.29c-2.68,0-3.57-1.57-3.57-4.63,0-3.42,1.48-4.73,3.77-4.73s3.62,1.26,3.62,4.21l-.08,1H71.84c0,1.92.6,2.93,2.36,2.93C75.55,93.09,77.51,92.93,77.51,92.93Zm-1-3.85c0-2.24-.68-3-2.26-3s-2.4.85-2.42,3Z" fill="#3a3d3f" />
				<path d="M80,85.1h1.33v.65a6.12,6.12,0,0,1,2.7-.83c2.27,0,3.26,1.38,3.26,4.57,0,3.53-1.15,4.79-3.92,4.79a11,11,0,0,1-2-.2v4H80Zm1.35,1.74v6.07a12.78,12.78,0,0,0,1.94.2c2,0,2.63-1,2.63-3.62s-.77-3.37-2.09-3.37A5.86,5.86,0,0,0,81.31,86.84Z" fill="#3a3d3f" />
				<path d="M93.35,94.1V92.93l3.48-3.65c1.47-1.53,2.39-2.51,2.39-3.91,0-1.59-.88-2.09-2.59-2.09a17.06,17.06,0,0,0-3.08.4l-.11-1.16A14.58,14.58,0,0,1,96.88,82c2.5,0,3.76.95,3.76,3.18,0,1.79-.81,2.83-2.48,4.45L95,92.89h6V94.1Z" fill="#3a3d3f" />
				<path d="M111.55,88.34c0,4.55-1.6,5.94-4.32,5.94s-4.34-1.35-4.34-5.92c0-4.9,1.59-6.34,4.32-6.34S111.55,83.44,111.55,88.34Zm-7.22,0c0,3.72,1,4.7,2.9,4.7s2.9-1,2.9-4.72c0-4-.92-5.08-2.9-5.08S104.33,84.31,104.33,88.36Z" fill="#3a3d3f" />
				<path d="M118,82.22h1.29V94.1h-1.38V83.77l-3.06,2-.64-1Z" fill="#3a3d3f" />
				<path d="M123.74,82.22h7.38V84l-4.58,10.24-1.31-.41L129.71,84v-.47h-6Z" fill="#3a3d3f" />
				<path d="M133.87,92.17h1.49l-1.2,4.15H133Z" fill="#3a3d3f" />
				<path d="M146.11,82.22h1.3V94.1H146V83.77l-3.06,2-.63-1Z" fill="#3a3d3f" />
				<path d="M151.78,82.52a14,14,0,0,1,3.49-.5c2.81,0,3.8,1,3.8,3.1a3,3,0,0,1-1.76,2.7,2.58,2.58,0,0,1,2.05,2.88c0,2.39-1.17,3.58-3.85,3.58a19.79,19.79,0,0,1-3.91-.48l.12-1.14a21.39,21.39,0,0,0,3.64.4c1.77,0,2.58-.78,2.58-2.31s-1.1-2.18-2.45-2.23h-2.4V87.33h2.4a2.23,2.23,0,0,0,2.16-2.16c0-1.35-.67-1.91-2.43-1.91a18.07,18.07,0,0,0-3.31.36Z" fill="#3a3d3f" />
				<path d="M161.77,86.25h1.48v2h-1.48Zm0,5.8h1.48v2h-1.48Z" fill="#3a3d3f" />
				<path d="M173.83,88.34c0,4.55-1.6,5.94-4.32,5.94s-4.34-1.35-4.34-5.92c0-4.9,1.59-6.34,4.32-6.34S173.83,83.44,173.83,88.34Zm-7.22,0c0,3.72,1,4.7,2.9,4.7s2.9-1,2.9-4.72c0-4-.92-5.08-2.9-5.08S166.61,84.31,166.61,88.36Z" fill="#3a3d3f" />
				<path d="M183.91,88.34c0,4.55-1.6,5.94-4.32,5.94s-4.34-1.35-4.34-5.92c0-4.9,1.59-6.34,4.32-6.34S183.91,83.44,183.91,88.34Zm-7.22,0c0,3.72,1,4.7,2.9,4.7s2.9-1,2.9-4.72c0-4-.92-5.08-2.9-5.08S176.69,84.31,176.69,88.36Z" fill="#3a3d3f" />
				<path d="M189.81,88.52h5.46v1.26h-5.46Z" fill="#3a3d3f" />
				<path d="M206.14,82.22h1.3V94.1h-1.39V83.77l-3.06,2-.63-1Z" fill="#3a3d3f" />
				<path d="M219.1,82.22v1.26h-5.78L213,87.35a6.81,6.81,0,0,1,2.79-.74c2.32,0,3.78,1,3.78,3.51,0,2.74-1.49,4.14-4,4.14a19.6,19.6,0,0,1-3.94-.52l.16-1.1a23.46,23.46,0,0,0,3.65.4,2.51,2.51,0,0,0,2.69-2.81c0-1.8-1-2.38-2.52-2.38a6.82,6.82,0,0,0-2.83.72l-1-.18.32-6.17Z" fill="#3a3d3f" />
				<path d="M221.8,86.25h1.47v2H221.8Zm0,5.8h1.47v2H221.8Z" fill="#3a3d3f" />
				<path d="M225.8,82.52a14,14,0,0,1,3.49-.5c2.81,0,3.8,1,3.8,3.1a3,3,0,0,1-1.77,2.7,2.58,2.58,0,0,1,2.06,2.88c0,2.39-1.18,3.58-3.86,3.58a19.92,19.92,0,0,1-3.91-.48l.13-1.14a21.39,21.39,0,0,0,3.64.4c1.76,0,2.57-.78,2.57-2.31s-1.09-2.18-2.44-2.23h-2.4V87.33h2.4a2.23,2.23,0,0,0,2.16-2.16c0-1.35-.67-1.91-2.44-1.91a18.22,18.22,0,0,0-3.31.36Z" fill="#3a3d3f" />
				<path d="M243.94,88.34c0,4.55-1.6,5.94-4.32,5.94s-4.34-1.35-4.34-5.92c0-4.9,1.59-6.34,4.32-6.34S243.94,83.44,243.94,88.34Zm-7.22,0c0,3.72,1,4.7,2.9,4.7s2.9-1,2.9-4.72c0-4-.92-5.08-2.9-5.08S236.72,84.31,236.72,88.36Z" fill="#3a3d3f" />
				<path d="M34.86,431.86h1.39v12.46H34.86Z" fill="#3a3d3f" />
				<path d="M39.05,444.32v-9h1.34V436a6.79,6.79,0,0,1,2.79-.81c2.48,0,3,1.22,3,4.43v4.75H44.89V439.6c0-2.37-.27-3.26-2-3.26a6.18,6.18,0,0,0-2.54.67v7.31Z" fill="#3a3d3f" />
				<path d="M54.48,436.49v4.3c0,2,.13,2.52,1.3,2.52.5,0,1.6-.11,1.6-.11l.09,1.12a15.71,15.71,0,0,1-1.84.2c-1.85,0-2.48-.7-2.48-3.3v-4.73H51.87v-1.17h1.28v-2.76h1.33v2.76h2.86v1.17Z" fill="#3a3d3f" />
				<path d="M59,444.32V431.39h1.35v4.43a7.64,7.64,0,0,1,2.77-.68c2.47,0,3,1.22,3,4.43v4.75H64.81V439.6c0-2.37-.27-3.26-1.92-3.26a7.41,7.41,0,0,0-2.54.54v7.44Z" fill="#3a3d3f" />
				<path d="M68.66,431.72H70v1.56H68.66Zm0,3.6H70v9H68.66Z" fill="#3a3d3f" />
				<path d="M78.58,436.63a29.33,29.33,0,0,0-3.15-.29c-1.11,0-2,.31-2,1.37,0,.85.43,1.08,2.34,1.41,2.25.38,3.1.83,3.1,2.57,0,2.11-1.34,2.81-3.5,2.81a25.4,25.4,0,0,1-3.16-.34l.07-1.17s2.05.3,3,.3c1.48,0,2.27-.32,2.27-1.54,0-.94-.47-1.17-2.43-1.48s-3-.7-3-2.5c0-2,1.6-2.63,3.24-2.63a23.19,23.19,0,0,1,3.26.34Z" fill="#3a3d3f" />
				<path d="M90.75,435.41l0,1.1s-1.44-.17-2.13-.17c-2.07,0-2.63.9-2.63,3.32,0,2.66.42,3.63,2.65,3.63.68,0,2.13-.16,2.13-.16l0,1.12a24,24,0,0,1-2.5.25c-2.87,0-3.71-1.31-3.71-4.84,0-3.26,1.06-4.52,3.74-4.52A20.89,20.89,0,0,1,90.75,435.41Z" fill="#3a3d3f" />
				<path d="M99.14,442.65c0,.52.47.72,1,.79l-.05,1.06a2.75,2.75,0,0,1-2.14-.72,9.2,9.2,0,0,1-3.24.72c-1.64,0-2.54-.94-2.54-2.75s.9-2.49,2.75-2.67l2.83-.27V438c0-1.26-.54-1.71-1.62-1.71-1.26,0-3.4.23-3.4.23l-.06-1a22.13,22.13,0,0,1,3.53-.39c2,0,2.9.93,2.9,2.9Zm-4-2.56c-1.09.11-1.53.63-1.53,1.62s.45,1.66,1.37,1.66a9.57,9.57,0,0,0,2.83-.56v-3Z" fill="#3a3d3f" />
				<path d="M107.78,436.63a29.33,29.33,0,0,0-3.15-.29c-1.12,0-2,.31-2,1.37,0,.85.44,1.08,2.35,1.41,2.25.38,3.09.83,3.09,2.57,0,2.11-1.33,2.81-3.49,2.81a25.65,25.65,0,0,1-3.17-.34l.07-1.17s2,.3,3,.3c1.48,0,2.27-.32,2.27-1.54,0-.94-.47-1.17-2.43-1.48s-3-.7-3-2.5c0-2,1.61-2.63,3.25-2.63a23,23,0,0,1,3.25.34Z" fill="#3a3d3f" />
				<path d="M116.81,443.15l0,1.06a31.12,31.12,0,0,1-3.51.29c-2.68,0-3.57-1.57-3.57-4.63,0-3.42,1.48-4.73,3.77-4.73s3.62,1.26,3.62,4.21l-.08,1h-5.94c0,1.92.6,2.93,2.36,2.93C114.85,443.31,116.81,443.15,116.81,443.15Zm-1-3.85c0-2.24-.69-3-2.27-3s-2.4.85-2.41,3Z" fill="#3a3d3f" />
				<path d="M119.4,442.39h1.5l-1.21,4.15h-1.11Z" fill="#3a3d3f" />
				<path d="M127.18,444.32v-1.17l3.48-3.65c1.47-1.54,2.39-2.51,2.39-3.91,0-1.59-.88-2.09-2.59-2.09a17.06,17.06,0,0,0-3.08.4l-.11-1.16a14.58,14.58,0,0,1,3.44-.48c2.5,0,3.76.95,3.76,3.18,0,1.79-.81,2.83-2.48,4.45l-3.17,3.22h6v1.21Z" fill="#3a3d3f" />
				<path d="M141.87,435.32l2.11,7.83h.66l2.18-7.83h1.39l-2.54,9H143l-2.54-9Z" fill="#3a3d3f" />
				<path d="M156.58,443.15l0,1.06a31.12,31.12,0,0,1-3.51.29c-2.68,0-3.56-1.57-3.56-4.63,0-3.42,1.47-4.73,3.76-4.73s3.62,1.26,3.62,4.21l-.07,1H150.9c0,1.92.6,2.93,2.36,2.93C154.61,443.31,156.58,443.15,156.58,443.15Zm-1-3.85c0-2.24-.69-3-2.27-3s-2.4.85-2.41,3Z" fill="#3a3d3f" />
				<path d="M159,444.32V431.39h1.35v4.43a7.65,7.65,0,0,1,2.78-.68c2.46,0,3,1.22,3,4.43v4.75h-1.35V439.6c0-2.37-.27-3.26-1.93-3.26a7.41,7.41,0,0,0-2.54.54v7.44Z" fill="#3a3d3f" />
				<path d="M168.69,431.72H170v1.56h-1.35Zm0,3.6H170v9h-1.35Z" fill="#3a3d3f" />
				<path d="M178.45,435.41l-.06,1.1s-1.44-.17-2.12-.17c-2.07,0-2.63.9-2.63,3.32,0,2.66.41,3.63,2.65,3.63.68,0,2.12-.16,2.12-.16l.05,1.12a24,24,0,0,1-2.5.25c-2.86,0-3.71-1.31-3.71-4.84,0-3.26,1.06-4.52,3.75-4.52A20.89,20.89,0,0,1,178.45,435.41Z" fill="#3a3d3f" />
				<path d="M180.59,431.39h1.35v12.93h-1.35Z" fill="#3a3d3f" />
				<path d="M191.28,443.15l0,1.06a31.38,31.38,0,0,1-3.51.29c-2.69,0-3.57-1.57-3.57-4.63,0-3.42,1.48-4.73,3.76-4.73s3.62,1.26,3.62,4.21l-.07,1h-5.94c0,1.92.59,2.93,2.36,2.93C189.32,443.31,191.28,443.15,191.28,443.15Zm-1-3.85c0-2.24-.68-3-2.27-3s-2.39.85-2.41,3Z" fill="#3a3d3f" />
				<path d="M199.7,436.63a29,29,0,0,0-3.15-.29c-1.11,0-2,.31-2,1.37,0,.85.43,1.08,2.34,1.41,2.25.38,3.1.83,3.1,2.57,0,2.11-1.33,2.81-3.49,2.81a25.4,25.4,0,0,1-3.17-.34l.07-1.17s2.05.3,3,.3c1.48,0,2.27-.32,2.27-1.54,0-.94-.47-1.17-2.43-1.48s-3-.7-3-2.5c0-2,1.6-2.63,3.24-2.63a23.19,23.19,0,0,1,3.26.34Z" fill="#3a3d3f" />
				<path d="M206.06,435.32h1.33v1.22a10.18,10.18,0,0,1,3.29-1.42v1.37a13,13,0,0,0-3.27,1.22v6.61h-1.35Z" fill="#3a3d3f" />
				<path d="M218.93,443.15l0,1.06a31.12,31.12,0,0,1-3.51.29c-2.68,0-3.56-1.57-3.56-4.63,0-3.42,1.47-4.73,3.76-4.73s3.62,1.26,3.62,4.21l-.07,1h-5.94c0,1.92.59,2.93,2.35,2.93C217,443.31,218.93,443.15,218.93,443.15Zm-1-3.85c0-2.24-.68-3-2.27-3s-2.39.85-2.41,3Z" fill="#3a3d3f" />
				<path d="M227.19,435.41l-.05,1.1s-1.44-.17-2.13-.17c-2.07,0-2.63.9-2.63,3.32,0,2.66.42,3.63,2.65,3.63.68,0,2.12-.16,2.12-.16l.06,1.12a24.24,24.24,0,0,1-2.51.25c-2.86,0-3.7-1.31-3.7-4.84,0-3.26,1.06-4.52,3.74-4.52A20.89,20.89,0,0,1,227.19,435.41Z" fill="#3a3d3f" />
				<path d="M229.22,444.32V431.39h1.35v4.43a7.65,7.65,0,0,1,2.78-.68c2.46,0,3,1.22,3,4.43v4.75H235V439.6c0-2.37-.27-3.26-1.93-3.26a7.41,7.41,0,0,0-2.54.54v7.44Z" fill="#3a3d3f" />
				<path d="M245.24,442.65c0,.52.47.72,1,.79l-.06,1.06a2.75,2.75,0,0,1-2.14-.72,9.2,9.2,0,0,1-3.24.72c-1.64,0-2.54-.94-2.54-2.75s.9-2.49,2.76-2.67l2.82-.27V438c0-1.26-.54-1.71-1.62-1.71-1.26,0-3.4.23-3.4.23l-.05-1a22.1,22.1,0,0,1,3.52-.39c2,0,2.9.93,2.9,2.9Zm-4-2.56c-1.1.11-1.53.63-1.53,1.62s.45,1.66,1.37,1.66a9.47,9.47,0,0,0,2.82-.56v-3Z" fill="#3a3d3f" />
				<path d="M247.9,435.32h1.34v1.22a10.06,10.06,0,0,1,3.29-1.42v1.37a13,13,0,0,0-3.27,1.22v6.61H247.9Z" fill="#3a3d3f" />
				<path d="M253.74,445.83c0-1,.48-1.53,1.42-2.23a1.47,1.47,0,0,1-.51-1.24,5.78,5.78,0,0,1,.62-1.42,2.63,2.63,0,0,1-1.43-2.72c0-2.22,1.37-3.08,3.37-3.08a9.43,9.43,0,0,1,1.87.23l2.67-.07v1.15l-1.71,0a2.34,2.34,0,0,1,.59,1.8c0,2.34-1.17,3-3.47,3-.18,0-.69,0-.88-.07a5.3,5.3,0,0,0-.33,1c0,.72.15.83,2.18.83,2.56,0,3.48.51,3.48,2.65s-1.46,2.86-4,2.86C254.76,448.55,253.74,447.92,253.74,445.83Zm2.34-1.69c-.76.56-1,.88-1,1.58,0,1.25.52,1.7,2.56,1.7,1.8,0,2.61-.49,2.61-1.68,0-1.37-.58-1.51-2.22-1.51C257.39,444.23,256.08,444.14,256.08,444.14Zm3.2-5.92c0-1.43-.56-2-2.07-2s-2,.55-2,2,.62,2,2,2S259.28,439.64,259.28,438.22Z" fill="#3a3d3f" />
				<path d="M270,443.15l0,1.06a31.12,31.12,0,0,1-3.51.29c-2.68,0-3.56-1.57-3.56-4.63,0-3.42,1.48-4.73,3.76-4.73s3.62,1.26,3.62,4.21l-.07,1h-5.94c0,1.92.59,2.93,2.36,2.93C268.07,443.31,270,443.15,270,443.15Zm-1-3.85c0-2.24-.68-3-2.27-3s-2.39.85-2.41,3Z" fill="#3a3d3f" />
				<path d="M279.39,444.32h-1.33v-.61a6.49,6.49,0,0,1-2.74.79c-1.76,0-3.24-.72-3.24-4.61,0-3.17,1-4.75,3.76-4.75a15.79,15.79,0,0,1,2.22.23v-4h1.33Zm-1.33-1.69v-6.11a16.26,16.26,0,0,0-2.15-.21c-1.89,0-2.44,1.24-2.44,3.58,0,2.92.95,3.4,2,3.4A6.62,6.62,0,0,0,278.06,442.63Z" fill="#3a3d3f" />
				<path d="M287.68,444.32h-1.35v-7.83H285.2v-1.17h1.13v-.81c0-2.6.67-3.3,2.44-3.3.61,0,1.81.13,1.81.13l0,1.11s-1,0-1.54,0c-1,0-1.34.43-1.34,2.11v.79h2.62v1.17h-2.62Z" fill="#3a3d3f" />
				<path d="M299.22,439.71c0,3.28-.81,4.79-3.85,4.79s-3.85-1.51-3.85-4.79c0-3.1,1-4.57,3.85-4.57S299.22,436.61,299.22,439.71Zm-1.38,0c0-2.5-.54-3.4-2.47-3.4s-2.47.9-2.47,3.4.35,3.62,2.47,3.62S297.84,442.27,297.84,439.71Z" fill="#3a3d3f" />
				<path d="M301.42,435.32h1.33v1.22a10.17,10.17,0,0,1,3.3-1.42v1.37a13,13,0,0,0-3.28,1.22v6.61h-1.35Z" fill="#3a3d3f" />
				<path d="M316,432.44h1.29v11.88h-1.38V434l-3.06,2-.63-1Z" fill="#3a3d3f" />
				<path d="M325.65,444.32V431.39H327v4.43a7.64,7.64,0,0,1,2.77-.68c2.47,0,3,1.22,3,4.43v4.75h-1.35V439.6c0-2.37-.27-3.26-1.93-3.26a7.39,7.39,0,0,0-2.53.54v7.44Z" fill="#3a3d3f" />
				<path d="M342.62,439.71c0,3.28-.81,4.79-3.85,4.79s-3.85-1.51-3.85-4.79c0-3.1,1-4.57,3.85-4.57S342.62,436.61,342.62,439.71Zm-1.39,0c0-2.5-.54-3.4-2.46-3.4s-2.47.9-2.47,3.4.34,3.62,2.47,3.62S341.23,442.27,341.23,439.71Z" fill="#3a3d3f" />
				<path d="M351.78,435.32v9h-1.35v-.63a6.07,6.07,0,0,1-2.66.81c-2.52,0-3-1.17-3-4.48v-4.7h1.35V440c0,2.48.21,3.29,1.89,3.29a5.46,5.46,0,0,0,2.46-.66v-7.31Z" fill="#3a3d3f" />
				<path d="M354.37,435.32h1.34v1.22a10.06,10.06,0,0,1,3.29-1.42v1.37a13.15,13.15,0,0,0-3.28,1.22v6.61h-1.35Z" fill="#3a3d3f" />
				<path d="M364.56,435.32h1.33V436a6.12,6.12,0,0,1,2.7-.83c2.27,0,3.26,1.38,3.26,4.57,0,3.53-1.15,4.79-3.92,4.79a11,11,0,0,1-2-.2v4h-1.35Zm1.35,1.74v6.07a13,13,0,0,0,1.95.2c2,0,2.62-1,2.62-3.62s-.77-3.37-2.08-3.37A5.87,5.87,0,0,0,365.91,437.06Z" fill="#3a3d3f" />
				<path d="M374.05,435.32h1.33v1.22a10.18,10.18,0,0,1,3.29-1.42v1.37a13,13,0,0,0-3.27,1.22v6.61h-1.35Z" fill="#3a3d3f" />
				<path d="M387.58,439.71c0,3.28-.81,4.79-3.85,4.79s-3.85-1.51-3.85-4.79c0-3.1,1-4.57,3.85-4.57S387.58,436.61,387.58,439.71Zm-1.38,0c0-2.5-.54-3.4-2.47-3.4s-2.46.9-2.46,3.4.34,3.62,2.46,3.62S386.2,442.27,386.2,439.71Z" fill="#3a3d3f" />
				<path d="M390.37,435.32l2.11,7.83h.67l2.17-7.83h1.39l-2.54,9h-2.7l-2.54-9Z" fill="#3a3d3f" />
				<path d="M398.44,431.72h1.35v1.56h-1.35Zm0,3.6h1.35v9h-1.35Z" fill="#3a3d3f" />
				<path d="M409.29,444.32H408v-.61a6.49,6.49,0,0,1-2.74.79c-1.76,0-3.24-.72-3.24-4.61,0-3.17,1-4.75,3.77-4.75a15.79,15.79,0,0,1,2.21.23v-4h1.33ZM408,442.63v-6.11a16.07,16.07,0,0,0-2.14-.21c-1.89,0-2.45,1.24-2.45,3.58,0,2.92.95,3.4,2,3.4A6.61,6.61,0,0,0,408,442.63Z" fill="#3a3d3f" />
				<path d="M418.54,443.15l0,1.06a31.12,31.12,0,0,1-3.51.29c-2.68,0-3.57-1.57-3.57-4.63,0-3.42,1.48-4.73,3.77-4.73s3.62,1.26,3.62,4.21l-.08,1h-5.94c0,1.92.6,2.93,2.36,2.93C416.58,443.31,418.54,443.15,418.54,443.15Zm-1-3.85c0-2.24-.69-3-2.27-3s-2.4.85-2.41,3Z" fill="#3a3d3f" />
				<path d="M427.9,444.32h-1.33v-.61a6.42,6.42,0,0,1-2.73.79c-1.77,0-3.25-.72-3.25-4.61,0-3.17,1-4.75,3.77-4.75a15.79,15.79,0,0,1,2.21.23v-4h1.33Zm-1.33-1.69v-6.11a16.07,16.07,0,0,0-2.14-.21c-1.89,0-2.45,1.24-2.45,3.58,0,2.92,1,3.4,2,3.4A6.54,6.54,0,0,0,426.57,442.63Z" fill="#3a3d3f" />
				<path d="M441.76,432.44v1.26H436l-.32,3.87a6.87,6.87,0,0,1,2.79-.74c2.32,0,3.78,1,3.78,3.51,0,2.74-1.49,4.14-4,4.14a19.6,19.6,0,0,1-3.94-.52l.16-1.1a23.49,23.49,0,0,0,3.66.4,2.5,2.5,0,0,0,2.68-2.81c0-1.8-1-2.38-2.52-2.38a6.82,6.82,0,0,0-2.83.72l-.95-.18.32-6.17Z" fill="#3a3d3f" />
				<path d="M452.62,438.56c0,4.55-1.6,5.94-4.32,5.94s-4.34-1.35-4.34-5.92c0-4.9,1.58-6.34,4.32-6.34S452.62,433.66,452.62,438.56Zm-7.22,0c0,3.72,1,4.7,2.9,4.7s2.9-1,2.9-4.72c0-4-.92-5.08-2.9-5.08S445.4,434.53,445.4,438.58Z" fill="#3a3d3f" />
				<path d="M457.8,434.74c0,1.75-.77,2.54-2,2.54s-2-.79-2-2.54.76-2.48,2-2.48S457.8,433,457.8,434.74Zm-2,1.62c.67,0,.9-.56.9-1.62s-.23-1.56-.9-1.56-.88.5-.88,1.56S455.17,436.36,455.82,436.36Zm4-4.3.86.29L457,444.64l-.86-.25Zm3.09,9.9c0,1.73-.77,2.54-2,2.54s-2-.81-2-2.56.74-2.46,2-2.46S462.91,440.23,462.91,442Zm-2,1.62c.69,0,.9-.56.9-1.62s-.21-1.56-.9-1.56-.88.5-.88,1.54S460.29,443.58,460.93,443.58Z" fill="#3a3d3f" />
				<path d="M468.67,444.32v-9H470V436a6.1,6.1,0,0,1,2.63-.81,2.52,2.52,0,0,1,2.34.92,7.53,7.53,0,0,1,3.21-.92c2.45,0,3,1.17,3,4.43v4.75h-1.35V439.6c0-2.37-.27-3.26-1.89-3.26a6,6,0,0,0-2.54.67,10.24,10.24,0,0,1,.24,2.63v4.68h-1.35v-4.64c0-2.49-.26-3.34-1.89-3.34A5.4,5.4,0,0,0,470,437v7.31Z" fill="#3a3d3f" />
				<path d="M491,439.71c0,3.28-.81,4.79-3.85,4.79s-3.86-1.51-3.86-4.79c0-3.1,1-4.57,3.86-4.57S491,436.61,491,439.71Zm-1.39,0c0-2.5-.54-3.4-2.46-3.4s-2.47.9-2.47,3.4.34,3.62,2.47,3.62S489.64,442.27,489.64,439.71Z" fill="#3a3d3f" />
				<path d="M493.22,435.32h1.34v1.22a10.06,10.06,0,0,1,3.29-1.42v1.37a13.15,13.15,0,0,0-3.28,1.22v6.61h-1.35Z" fill="#3a3d3f" />
				<path d="M506.1,443.15l0,1.06a31.12,31.12,0,0,1-3.51.29c-2.68,0-3.56-1.57-3.56-4.63,0-3.42,1.47-4.73,3.76-4.73s3.62,1.26,3.62,4.21l-.07,1h-5.95c0,1.92.6,2.93,2.36,2.93C504.13,443.31,506.1,443.15,506.1,443.15Zm-1-3.85c0-2.24-.69-3-2.27-3s-2.4.85-2.41,3Z" fill="#3a3d3f" />
				<path d="M40.44,463.41l0,1.1s-1.44-.17-2.13-.17c-2.07,0-2.63.9-2.63,3.32,0,2.66.42,3.63,2.65,3.63.68,0,2.12-.16,2.12-.16l.06,1.12a24.28,24.28,0,0,1-2.5.25c-2.87,0-3.71-1.31-3.71-4.84,0-3.26,1.06-4.52,3.74-4.52A20.89,20.89,0,0,1,40.44,463.41Z" fill="#3a3d3f" />
				<path d="M48.83,470.65c0,.52.47.72,1,.79l0,1.06a2.74,2.74,0,0,1-2.14-.72,9.2,9.2,0,0,1-3.24.72c-1.64,0-2.54-.94-2.54-2.75s.9-2.49,2.75-2.67l2.83-.27V466c0-1.26-.54-1.71-1.62-1.71-1.26,0-3.41.23-3.41.23l-.05-1a22.13,22.13,0,0,1,3.53-.39c2,0,2.9.93,2.9,2.9Zm-4-2.56c-1.09.11-1.53.63-1.53,1.62s.45,1.66,1.37,1.66a9.57,9.57,0,0,0,2.83-.56v-3Z" fill="#3a3d3f" />
				<path d="M51.49,463.32h1.33V464a6.12,6.12,0,0,1,2.7-.83c2.27,0,3.26,1.38,3.26,4.57,0,3.53-1.15,4.79-3.92,4.79a11,11,0,0,1-2-.2v4H51.49Zm1.35,1.74v6.07a12.8,12.8,0,0,0,1.95.2c2,0,2.62-1,2.62-3.62s-.77-3.37-2.08-3.37A5.87,5.87,0,0,0,52.84,465.06Z" fill="#3a3d3f" />
				<path d="M67.33,470.65c0,.52.47.72,1,.79l-.06,1.06a2.75,2.75,0,0,1-2.14-.72,9.2,9.2,0,0,1-3.24.72c-1.64,0-2.54-.94-2.54-2.75s.9-2.49,2.75-2.67l2.83-.27V466c0-1.26-.54-1.71-1.62-1.71-1.26,0-3.4.23-3.4.23l-.06-1a22.3,22.3,0,0,1,3.53-.39c2,0,2.9.93,2.9,2.9Zm-4-2.56c-1.1.11-1.53.63-1.53,1.62s.45,1.66,1.36,1.66a9.48,9.48,0,0,0,2.83-.56v-3Z" fill="#3a3d3f" />
				<path d="M75.81,463.41l0,1.1s-1.45-.17-2.13-.17c-2.07,0-2.63.9-2.63,3.32,0,2.66.42,3.63,2.65,3.63.68,0,2.12-.16,2.12-.16l.06,1.12a24.24,24.24,0,0,1-2.51.25c-2.86,0-3.7-1.31-3.7-4.84,0-3.26,1.06-4.52,3.74-4.52A20.89,20.89,0,0,1,75.81,463.41Z" fill="#3a3d3f" />
				<path d="M77.84,459.72h1.35v1.56H77.84Zm0,3.6h1.35v9H77.84Z" fill="#3a3d3f" />
				<path d="M83.58,464.49v4.3c0,2,.13,2.52,1.3,2.52.5,0,1.6-.11,1.6-.11l.09,1.12a15.44,15.44,0,0,1-1.83.2c-1.86,0-2.49-.7-2.49-3.3v-4.73H81v-1.17h1.28v-2.76h1.33v2.76h2.87v1.17Z" fill="#3a3d3f" />
				<path d="M88.61,463.32l2.25,7.83h.59l2.27-7.83h1.35l-3.75,13H90l1.17-4H89.81l-2.55-9Z" fill="#3a3d3f" />
				<path d="M107.67,472.32h-1.33v-.61a6.49,6.49,0,0,1-2.74.79c-1.76,0-3.24-.72-3.24-4.61,0-3.17,1-4.75,3.76-4.75a15.79,15.79,0,0,1,2.22.23v-4h1.33Zm-1.33-1.69v-6.11a16.26,16.26,0,0,0-2.15-.21c-1.89,0-2.44,1.24-2.44,3.58,0,2.92,1,3.4,2,3.4A6.62,6.62,0,0,0,106.34,470.63Z" fill="#3a3d3f" />
				<path d="M117.24,463.32v9h-1.35v-.63a6.07,6.07,0,0,1-2.66.81c-2.52,0-3-1.17-3-4.48v-4.7h1.35V468c0,2.48.21,3.29,1.89,3.29a5.46,5.46,0,0,0,2.46-.66v-7.31Z" fill="#3a3d3f" />
				<path d="M119.83,463.32h1.34v1.22a10.06,10.06,0,0,1,3.29-1.42v1.37a13.15,13.15,0,0,0-3.28,1.22v6.61h-1.35Z" fill="#3a3d3f" />
				<path d="M126.06,459.72h1.35v1.56h-1.35Zm0,3.6h1.35v9h-1.35Z" fill="#3a3d3f" />
				<path d="M130,472.32v-9h1.34V464a6.79,6.79,0,0,1,2.79-.81c2.48,0,3,1.22,3,4.43v4.75h-1.33V467.6c0-2.37-.27-3.26-2-3.26a6.18,6.18,0,0,0-2.54.67v7.31Z" fill="#3a3d3f" />
				<path d="M139.27,473.83c0-1,.49-1.53,1.43-2.23a1.45,1.45,0,0,1-.51-1.24,5.82,5.82,0,0,1,.61-1.42,2.64,2.64,0,0,1-1.42-2.72c0-2.22,1.37-3.08,3.37-3.08a9.43,9.43,0,0,1,1.87.23l2.67-.07v1.15l-1.71,0a2.34,2.34,0,0,1,.59,1.8c0,2.34-1.17,3-3.48,3-.17,0-.68,0-.88-.07a5.42,5.42,0,0,0-.32,1c0,.72.14.83,2.18.83,2.55,0,3.47.51,3.47,2.65s-1.46,2.86-4,2.86C140.3,476.55,139.27,475.92,139.27,473.83Zm2.34-1.69c-.75.56-1,.88-1,1.58,0,1.25.52,1.7,2.55,1.7,1.8,0,2.61-.49,2.61-1.68,0-1.37-.57-1.51-2.21-1.51C142.93,472.23,141.61,472.14,141.61,472.14Zm3.21-5.92c0-1.43-.56-2-2.07-2s-2,.55-2,2,.61,2,2,2S144.82,467.64,144.82,466.22Z" fill="#3a3d3f" />
				<path d="M154.68,464.49v4.3c0,2,.13,2.52,1.3,2.52.5,0,1.6-.11,1.6-.11l.09,1.12a15.43,15.43,0,0,1-1.84.2c-1.85,0-2.48-.7-2.48-3.3v-4.73h-1.28v-1.17h1.28v-2.76h1.33v2.76h2.87v1.17Z" fill="#3a3d3f" />
				<path d="M159.2,472.32V459.39h1.35v4.43a7.64,7.64,0,0,1,2.77-.68c2.47,0,3.05,1.22,3.05,4.43v4.75H165V467.6c0-2.37-.27-3.26-1.93-3.26a7.41,7.41,0,0,0-2.54.54v7.44Z" fill="#3a3d3f" />
				<path d="M175.51,471.15l0,1.06a31.38,31.38,0,0,1-3.51.29c-2.69,0-3.57-1.57-3.57-4.63,0-3.42,1.48-4.73,3.76-4.73s3.62,1.26,3.62,4.21l-.07,1h-5.94c0,1.92.59,2.93,2.36,2.93C173.55,471.31,175.51,471.15,175.51,471.15Zm-1-3.85c0-2.24-.68-3-2.27-3s-2.39.85-2.41,3Z" fill="#3a3d3f" />
				<path d="M181.92,463.32h1.33V464a6.12,6.12,0,0,1,2.7-.83c2.27,0,3.26,1.38,3.26,4.57,0,3.53-1.15,4.79-3.93,4.79a11,11,0,0,1-2-.2v4h-1.35Zm1.35,1.74v6.07a12.78,12.78,0,0,0,1.94.2c2,0,2.63-1,2.63-3.62s-.77-3.37-2.09-3.37A5.86,5.86,0,0,0,183.27,465.06Z" fill="#3a3d3f" />
				<path d="M191.4,463.32h1.33v1.22a10.17,10.17,0,0,1,3.3-1.42v1.37a13.15,13.15,0,0,0-3.28,1.22v6.61H191.4Z" fill="#3a3d3f" />
				<path d="M204.94,467.71c0,3.28-.81,4.79-3.85,4.79s-3.86-1.51-3.86-4.79c0-3.1,1-4.57,3.86-4.57S204.94,464.61,204.94,467.71Zm-1.39,0c0-2.5-.54-3.4-2.46-3.4s-2.47.9-2.47,3.4.34,3.62,2.47,3.62S203.55,470.27,203.55,467.71Z" fill="#3a3d3f" />
				<path d="M214.39,467.68c0,3.58-1,4.82-4.25,4.82-1.08,0-3-.2-3-.2V459.39h1.34v4.38a7.36,7.36,0,0,1,2.64-.63C213.56,463.14,214.39,464.43,214.39,467.68Zm-1.37,0c0-2.33-.47-3.34-2.05-3.34a7.45,7.45,0,0,0-2.5.53v6.33s1.17.09,1.65.09C212.59,471.29,213,470.2,213,467.68Z" fill="#3a3d3f" />
				<path d="M216.71,459.39h1.35v12.93h-1.35Z" fill="#3a3d3f" />
				<path d="M227.4,471.15l0,1.06a31.12,31.12,0,0,1-3.51.29c-2.68,0-3.57-1.57-3.57-4.63,0-3.42,1.48-4.73,3.77-4.73s3.62,1.26,3.62,4.21l-.08,1h-5.94c0,1.92.6,2.93,2.36,2.93C225.44,471.31,227.4,471.15,227.4,471.15Zm-1-3.85c0-2.24-.69-3-2.27-3s-2.4.85-2.42,3Z" fill="#3a3d3f" />
				<path d="M229.85,472.32v-9h1.33V464a6,6,0,0,1,2.63-.81,2.53,2.53,0,0,1,2.34.92,7.47,7.47,0,0,1,3.21-.92c2.45,0,3,1.17,3,4.43v4.75h-1.35V467.6c0-2.37-.27-3.26-1.89-3.26a6,6,0,0,0-2.54.67,10.34,10.34,0,0,1,.23,2.63v4.68H235.5v-4.64c0-2.49-.25-3.34-1.89-3.34a5.34,5.34,0,0,0-2.41.67v7.31Z" fill="#3a3d3f" />
				<path d="M251.25,470.65c0,.52.47.72,1.05.79l-.06,1.06a2.75,2.75,0,0,1-2.14-.72,9.2,9.2,0,0,1-3.24.72c-1.64,0-2.54-.94-2.54-2.75s.9-2.49,2.76-2.67l2.82-.27V466c0-1.26-.54-1.71-1.62-1.71-1.26,0-3.4.23-3.4.23l0-1a22.1,22.1,0,0,1,3.52-.39c2,0,2.9.93,2.9,2.9Zm-4-2.56c-1.1.11-1.53.63-1.53,1.62s.45,1.66,1.37,1.66a9.47,9.47,0,0,0,2.82-.56v-3Z" fill="#3a3d3f" />
				<path d="M255.72,464.49v4.3c0,2,.12,2.52,1.29,2.52.51,0,1.6-.11,1.6-.11l.09,1.12a15.44,15.44,0,0,1-1.83.2c-1.86,0-2.49-.7-2.49-3.3v-4.73h-1.27v-1.17h1.27v-2.76h1.34v2.76h2.86v1.17Z" fill="#3a3d3f" />
				<path d="M260.23,459.72h1.35v1.56h-1.35Zm0,3.6h1.35v9h-1.35Z" fill="#3a3d3f" />
				<path d="M270,463.41l-.05,1.1s-1.44-.17-2.13-.17c-2.07,0-2.63.9-2.63,3.32,0,2.66.42,3.63,2.65,3.63.69,0,2.13-.16,2.13-.16l.05,1.12a24,24,0,0,1-2.5.25c-2.87,0-3.71-1.31-3.71-4.84,0-3.26,1.06-4.52,3.74-4.52A20.89,20.89,0,0,1,270,463.41Z" fill="#3a3d3f" />
				<path d="M277.78,464.49v4.3c0,2,.13,2.52,1.3,2.52.5,0,1.6-.11,1.6-.11l.09,1.12a15.44,15.44,0,0,1-1.83.2c-1.86,0-2.49-.7-2.49-3.3v-4.73h-1.28v-1.17h1.28v-2.76h1.33v2.76h2.87v1.17Z" fill="#3a3d3f" />
				<path d="M282.3,459.72h1.35v1.56H282.3Zm0,3.6h1.35v9H282.3Z" fill="#3a3d3f" />
				<path d="M286.24,472.32v-9h1.34V464a6,6,0,0,1,2.63-.81,2.54,2.54,0,0,1,2.34.92,7.46,7.46,0,0,1,3.2-.92c2.45,0,3,1.17,3,4.43v4.75h-1.35V467.6c0-2.37-.27-3.26-1.89-3.26A6,6,0,0,0,293,465a9.8,9.8,0,0,1,.24,2.63v4.68H291.9v-4.64c0-2.49-.25-3.34-1.89-3.34a5.4,5.4,0,0,0-2.42.67v7.31Z" fill="#3a3d3f" />
				<path d="M307.94,471.15l0,1.06a31.12,31.12,0,0,1-3.51.29c-2.68,0-3.56-1.57-3.56-4.63,0-3.42,1.47-4.73,3.76-4.73s3.62,1.26,3.62,4.21l-.07,1h-5.95c0,1.92.6,2.93,2.36,2.93C306,471.31,307.94,471.15,307.94,471.15Zm-1-3.85c0-2.24-.69-3-2.27-3s-2.4.85-2.41,3Z" fill="#3a3d3f" />
				<path d="M316.07,472.32h-1.35v-7.83h-1.13v-1.17h1.13v-.81c0-2.6.67-3.3,2.43-3.3.61,0,1.82.13,1.82.13l0,1.11s-1,0-1.55,0c-1,0-1.33.43-1.33,2.11v.79h2.61v1.17h-2.61Z" fill="#3a3d3f" />
				<path d="M320.3,463.32h1.33v1.22a10.17,10.17,0,0,1,3.3-1.42v1.37a13,13,0,0,0-3.28,1.22v6.61H320.3Z" fill="#3a3d3f" />
				<path d="M332.88,470.65c0,.52.47.72,1.05.79l-.06,1.06a2.75,2.75,0,0,1-2.14-.72,9.2,9.2,0,0,1-3.24.72c-1.64,0-2.54-.94-2.54-2.75s.9-2.49,2.76-2.67l2.82-.27V466c0-1.26-.54-1.71-1.62-1.71-1.26,0-3.4.23-3.4.23l-.05-1a22.1,22.1,0,0,1,3.52-.39c2,0,2.9.93,2.9,2.9Zm-4-2.56c-1.1.11-1.53.63-1.53,1.62s.45,1.66,1.37,1.66a9.47,9.47,0,0,0,2.82-.56v-3Z" fill="#3a3d3f" />
				<path d="M335.55,472.32v-9h1.33V464a6,6,0,0,1,2.63-.81,2.54,2.54,0,0,1,2.34.92,7.46,7.46,0,0,1,3.2-.92c2.45,0,3,1.17,3,4.43v4.75h-1.35V467.6c0-2.37-.27-3.26-1.89-3.26a6,6,0,0,0-2.54.67,9.8,9.8,0,0,1,.24,2.63v4.68H341.2v-4.64c0-2.49-.25-3.34-1.89-3.34a5.34,5.34,0,0,0-2.41.67v7.31Z" fill="#3a3d3f" />
				<path d="M357.24,471.15l0,1.06a31.12,31.12,0,0,1-3.51.29c-2.68,0-3.56-1.57-3.56-4.63,0-3.42,1.47-4.73,3.76-4.73s3.62,1.26,3.62,4.21l-.07,1h-5.95c0,1.92.6,2.93,2.36,2.93C355.27,471.31,357.24,471.15,357.24,471.15Zm-1-3.85c0-2.24-.69-3-2.27-3s-2.4.85-2.41,3Z" fill="#3a3d3f" />
				<path d="M359.59,470.27h1.48v2.05h-1.48Z" fill="#3a3d3f" />
				<path d="M37.06,38.78v4.66H35.52V29.6h5.07c3,0,4.42,1.46,4.42,4.46s-1.4,4.72-4.42,4.72Zm3.51-1.36c2,0,2.86-1.22,2.86-3.36S42.59,31,40.57,31H37.06v6.46Z" />
				<path d="M48.92,38.14v5.3H47.38V29.6h5.13c2.9,0,4.42,1.28,4.42,4.2,0,2-.8,3.46-2.54,4l2.66,5.62h-1.7l-2.5-5.3ZM52.51,31H48.92v5.82h3.6c2.09,0,2.83-1.24,2.83-3C55.35,31.9,54.44,31,52.51,31Z" />
				<path d="M59.7,29.6h8.43V31H61.24v4.78h5.69v1.34H61.24v5h6.89v1.36H59.7Z" />
				<path d="M80.23,29.6,76.61,43.44H73.16L69.54,29.6h1.6l3.18,12.48h1.12L78.63,29.6Z" />
				<path d="M82.4,29.6h1.54V43.44H82.4Z" />
				<path d="M86.76,36.58c0-4.56,1.18-7.18,5.46-7.18s5.49,2.58,5.49,7.18c0,4.76-1.19,7.07-5.49,7.07S86.76,41.22,86.76,36.58Zm9.35,0c0-3.74-.73-5.82-3.89-5.82s-3.88,2.06-3.88,5.82.68,5.7,3.88,5.7S96.11,40.48,96.11,36.58Z" />
				<path d="M105.2,42.28c2.16,0,3.39-.84,3.39-3V29.6h1.52v9.64c0,3.16-1.75,4.41-4.91,4.41s-4.78-1.23-4.78-4.41V29.6H102v9.68C102,41.44,103.16,42.28,105.2,42.28Z" />
				<path d="M121.17,31.08s-2.79-.34-4-.34c-2,0-3,.7-3,2.26,0,1.8,1,2.1,3.39,2.64,2.75.62,4,1.3,4,3.72,0,3.06-1.68,4.27-4.43,4.27a35.61,35.61,0,0,1-4.38-.45l.16-1.28s2.72.36,4.14.36c2,0,3-.86,3-2.78,0-1.56-.82-2-3.08-2.44-2.86-.62-4.3-1.3-4.3-3.94s1.76-3.72,4.46-3.72a34.21,34.21,0,0,1,4.18.4Z" />
				<path d="M133.32,42.28c2.16,0,3.38-.84,3.38-3V29.6h1.52v9.64c0,3.16-1.74,4.41-4.9,4.41s-4.78-1.23-4.78-4.41V29.6h1.54v9.68C130.08,41.44,131.28,42.28,133.32,42.28Z" />
				<path d="M149.28,31.08s-2.78-.34-3.94-.34c-2,0-3,.7-3,2.26,0,1.8,1,2.1,3.38,2.64,2.76.62,4,1.3,4,3.72,0,3.06-1.68,4.27-4.42,4.27a35.61,35.61,0,0,1-4.38-.45l.16-1.28s2.72.36,4.14.36c2,0,3-.86,3-2.78,0-1.56-.82-2-3.08-2.44-2.86-.62-4.3-1.3-4.3-3.94s1.76-3.72,4.46-3.72a34.46,34.46,0,0,1,4.18.4Z" />
				<path d="M154.94,29.6h3.36l3.81,13.84h-1.53l-1-3.56h-5.92l-1,3.56h-1.52ZM154,38.5h5.24l-2.1-7.58h-1Z" />
				<path d="M169.76,36.36h3.82v6.8a33.32,33.32,0,0,1-4.5.49c-4.24,0-5.36-2.61-5.36-7.09s1.16-7.16,5.32-7.16a25.77,25.77,0,0,1,4.54.52l-.06,1.28a31.73,31.73,0,0,0-4.3-.42c-3.2,0-3.9,1.86-3.9,5.78s.68,5.72,3.88,5.72a18.56,18.56,0,0,0,2.86-.28V37.74h-2.3Z" />
				<path d="M176.6,29.6H185V31h-6.88v4.78h5.68v1.34h-5.68v5H185v1.36H176.6Z" />
				<line x1="35.7" y1="51.75" x2="535.29" y2="51.75" fill="none" stroke="#a2a7aa" stroke-miterlimit="10" />
				<g opacity="0.24" style="isolation:isolate">
					<g clip-path="url(#clip-path)">
						<path d="M536.13,225.4c-4.56-1.26-8-2.78-11.38-.55s-6.69,5.57-10.71,11.52-12.72,13.39-21.43,16.36-13.39,4.84-21.42,5.21-20.09-1.86-26.12,0-11.38,10-12.72,13-14,9.58-24.1,10c-28.8,1.3-52.91-5.64-57.59-5.76-14.06-.37-20,3.15-26.78,4.09-8,1.11-13.39,3.34-18.75,3.34s-20.09-7.43-29.46-8.18-20.35-6.69-22.76-6.69c-6,0-12.06,1.12-19.42-.37s-8.7-3.16-14.73-3.16-12,.37-17.41-2.23-9.37-.37-12.72,1.86-8,12.27-20.76,12.64-27.45,5.2-31.46,7.44-14.73,1.49-19.42-.38-3.58-7.89-7.37-8.73c-6.69-1.5-26.78-2.61-30.8-1.12S66.1,261.47,62.75,257.38c-3.1-3.79-8.7-18.59-18.75-16.73-6.47,1.2-8.08.66-12,2.23a41.46,41.46,0,0,1-6.7,2.23l-1.33-3.72S34.63,212,54.05,218.71s16.73,17.11,23.43,13.39,6-.56,21.43,2,25.44,8.18,30.13,5.21,4.68-12.27,10-12.64,10.71,4.09,16.07,4.46,18.75,1.49,24.78,1.49,9.37-14.5,17.4-13,28.79,7.43,32.15,12.27,10.71,1.49,12.05-.75,5.36-8.55,16.07-3.35,30.13,16.36,32.81,13.76,11.38-12.64,23.43-9.3S342,253.47,342,253.47s22.76,11.9,35.48,15.25,26.79,3.34,31.47-1.5,15.4-23.42,20.09-26,18.75-1.86,24.78-.75,21.42,6.7,26.78,5.58,14.06-2.6,16.74-6.69S508,223.73,513.38,220s9.37-10.41,18.08-7.06,12.72,8,12.72,8v7.81s-2-1.66-8-3.34" fill="#f2a120" />
					</g>
				</g>
				<g opacity="0.31" style="isolation:isolate">
					<g clip-path="url(#clip-path-2)">
						<path d="M545.81,219.68s-10-8.18-16.08-7.07-12.39,2-15.74,9.48S497.24,242.91,484.51,244s-22.78-3.34-27.47-3.34-22.1-4.09-24.11,1.85-15.41,21.94-20.77,25.29-13.4,4.83-18.09,4.09-20.77-2.23-22.78-2.23-13.4-4.09-19.43-4.84-10-5.57-20.76-10.78-23.45-15.24-26.8-14.13-8,6.7-14.74,5.95-15.4-9.67-20.09-9.3-15.41-7.8-18.09-7.06-9.38,8.55-14.07,8.18-15.41-12.64-22.78-12.64-12.05-3-18.09,0-6,11.52-11.38,11.52-11.39-2.6-16.75-3-10.72,1.49-14.07,1.49-9.38-3.72-14.74-.37-5.36,7.06-16.08,6.32-30.81-8.55-34.83-5.21-7-2.41-15.08-4.27-18.75-8.93-24.11-9.67S32.65,229,31.31,230.83a34.61,34.61,0,0,0-2.68,4.84v3s1.58-2.28,6.7-4.09c7.37-2.61,8.81-3.14,18.09.37,14.74,5.58,16.07,28.63,21.43,27.89s7.37,5.2,14.07,4.08,22.44.19,27.8,1.31,10.72,3.34,14.07-.75,10.72-5.2,16.75-5.2S165,258.9,167,260.39s11.38,7.06,15.4,3.35,10.72-15.25,19.43-15.62,26.8,1.12,29.48,4.84,12.4,6.88,13.06,5,2.35-7.25,11.72-1.3,19.43,3.35,20.77,5.95,6.7,7.07,16.08,7.81,21.77.18,25.79,2.42,8-3.72,17.42-4.09a160,160,0,0,1,20.77.37c3.35.37,18.42,5.39,27.13,5.39s28.13.37,30.81-1.49,14.07-4.09,16.08-9.3,6-14.13,28.14-12.27,41.53-4.83,50.91-16,12.73-17.84,19.43-17.1a63.35,63.35,0,0,1,11.72,2.41l4.69,2.61Z" fill="#f2a120" />
					</g>
				</g>
				<path d="M537.48,187.23a5.46,5.46,0,0,1,.9.07c4.27.65,11.18,5.81,11.71,6.44V196c-1.86-2.18-9.69-7.21-12.25-7.6a1.66,1.66,0,0,0-.91.07c-2,.73-6.91,5.43-11.68,10a156.64,156.64,0,0,1-12.84,11.45,60.68,60.68,0,0,1-32.87,11.75c-3.69.12-6.47,0-8.92-.11-5.52-.25-8.56-.38-15.27,2.6-4.48,2-7.78,5.11-11,8.13-3.92,3.7-7.62,7.19-13.31,8.67-10.35,2.68-25.94,10.83-35.37,10.09-2.74-.22-6.62-.74-11.11-1.34-10.49-1.39-24.85-3.31-31.24-2-7.9,1.57-38.11,4-49.91.44-2.88-.89-5.61-1.73-7.77-2.32-3.09-.86-5.87-1.57-8.57-2.26a240.39,240.39,0,0,1-23.64-7.07c-13.83-4.89-24.75-.49-30.92,2.55-3.63,1.8,4.12-12.25-1.67-13.62-4.84-1.13-8.2,1.41-11.29,2.19a48,48,0,0,0-8.87,3.59c-4.35,2.09-14.64,10-20.74,10.94-3.93.58-9,1-14,1.41-7.84.64-16,1.31-19.89,2.62-4.46,1.48-10.77,4.89-16.53,3.68a102.93,102.93,0,0,0-12.92-2.12,26.73,26.73,0,0,1-9.84-2.31c-2.56-1.1-3-4-13.43-4-9.56,0-14.29-5.57-18.41-4.09-3.8,1.38-4.53-3.87-8.87-5.28l-.62-.2c-7.65-2.49-14.71-23.42-29.33-21.66-14.8,1.79-11.86,7.3-13.38,1.86v-1.12c.11-.09.66-.36,2.68-1.49,3.73-2.07.58-3.24,10.7-4.46C61.52,203,68,227.71,75.59,230.17l2,.75c3.27,1.06,3.76,6.13,7.36,4.83,4.12-1.49,7.25-1.86,17.4-1.86,11.14,0,15,2,17.67,3.13A24,24,0,0,0,129,239.1a151.26,151.26,0,0,1,15.43,2.23c5.7,1.2,6.37-4.29,10-5.5,4.28-1.43,2.85-6.11,10.89-6.77,4.88-.4,7.55-9.48,11.37-10,5.65-.84,17-11.65,21.42-13.76,3.16-1.52,14.88.8,18.07,0,3.89-1,9.23,13,14.47,14.22s6.26,11.65,9,10.32c6.7-3.31,14.94-2.14,29.65,3.06a234.69,234.69,0,0,0,23.4,7c2.71.69,5.51,1.41,8.63,2.28,2.2.61,4.94,1.45,7.84,2.34,10.82,3.31,34.54-6.95,41.57-8.35s21.47,2.21,32.8,3.72c4.44.59,9.87.54,12.52.75,9.1.72,24.19,1.9,34.23-.7,5.14-1.33,8.68-4.68,12.44-8.23,3.29-3.1,6.68-6.31,11.45-8.43,7.33-3.26,11-3.09,16.69-2.84,2.39.1,5.09.23,8.65.11,12.4-.38,24.34-6.08,31.37-11.3a155.39,155.39,0,0,0,12.71-11.34c6.17-5.88,10.06-9.52,12.3-10.36a4.7,4.7,0,0,1,1.66-.27" fill="#3899e8" opacity="0.51" />
				<rect x="32.76" y="187.22" width="517.33" height="63.83" fill="none" />
				<path d="M30.71,209.74c.18,5.33.17,1.91,14.88.13S63,227.72,74.93,229.3l.63.2c4.34,1.41,6.68,5.53,10.48,4.16,4.12-1.49,8.92.38,18.48.38,10.46,0,9.88,7.37,12.44,8.47a26.73,26.73,0,0,0,9.84,2.31,103.09,103.09,0,0,1,12.93,2.12c5.76,1.21,12.07-2.2,16.54-3.68,3.94-1.32,4.69-2.73,12.54-3.37,4.94-.4,10.05-.82,14-1.41,6.1-.9,16.4-8.85,20.75-10.94a50.08,50.08,0,0,1,8.87-3.59c3.1-.78,14.8-4.06,19.65-2.93,5.79,1.37-1.61,15,2,13.25,6.17-3,17.1-7.44,30.94-2.55a239.76,239.76,0,0,0,23.65,7.07c2.69.69,5.48,1.4,8.57,2.26,2.16.6,4.89,1.43,7.77,2.32,11.81,3.61,41.37.39,49.27-1.18,6.4-1.27,20.76.64,31.26,2,4.49.6,8.38,1.12,11.11,1.33,9.44.75,24.37-4.8,34.72-7.48,5.7-1.48,9.4-5,13.32-8.67,3.2-3,6.5-6.14,11-8.13,6.71-3,9.76-2.85,15.28-2.6,2.45.11,5.23.23,8.92.11A60.74,60.74,0,0,0,512.78,207a156.65,156.65,0,0,0,12.85-11.44c4.77-4.55,9.71-9.26,11.68-10a1.7,1.7,0,0,1,.92-.07c2.56.4,10.39,5.42,12.25,7.6v-2.23c-.53-.63-7.44-5.79-11.72-6.44a5.46,5.46,0,0,0-.9-.07,4.67,4.67,0,0,0-1.66.28c-2.25.83-6.14,4.48-12.3,10.35a155.33,155.33,0,0,1-12.72,11.34c-7.05,5.22-19,10.93-31.4,11.31-3.56.11-6.26,0-8.65-.12-5.64-.25-9.36-.41-16.69,2.85-4.78,2.11-8.18,5.32-11.47,8.43-3.75,3.55-7.3,6.9-12.44,8.23-10,2.6-26.49,3.65-35.59,2.92-2.64-.21-6.48-.72-10.93-1.31-11.33-1.51-25.43-5.65-32.4-4.27s-34.78,11.29-45.61,8c-2.9-.89-5.65-1.73-7.84-2.34-3.13-.87-5.93-1.58-8.64-2.27a238.61,238.61,0,0,1-23.42-7c-14.72-5.2-20.28-5.62-27-2.32-2.69,1.33-3.06-10.58-8.28-11.81s-11.93-3.3-15.82-2.32c-3.19.81-12.24-3.75-15.41-2.23-4.39,2.11-11.08,15.16-16.74,16-3.82.57-8.5,3.32-13.39,3.72-8,.66-9.11,2.66-13.39,4.09-3.63,1.21-7,6-12.72,4.83-3.84-.81-11.11.09-16.25-.36a24.2,24.2,0,0,1-8.93-2.09c-2.71-1.17-3.18-5.73-14.33-5.73-10.16,0-14.79-1.31-18.9.17-3.61,1.3-3.77-5-7-6l-.62-.2c-4.91-3.59-14.29-29.25-31-26.27,0,0-15.71,4.94-15.55,9.53" fill="#3899e8" opacity="0.5" />
				<rect x="30.71" y="184.39" width="519.77" height="62.8" fill="none" />
				<g style="mix-blend-mode:multiply">
					<rect x="284.05" y="170.96" width="54.85" height="141.23" fill="#edf4f9" />
					<g clip-path="url(#clip-path-3)">
						<rect x="284.05" y="170.96" width="54.85" height="141.23" fill="#edf4f9" />
					</g>
				</g>
			</g>
		</g>
	</g>
</svg>
