<svg xmlns="http://www.w3.org/2000/svg" xmlns:xlink="http://www.w3.org/1999/xlink" viewBox="0 0 566.31 517.94"><defs><clipPath id="clip-path"><rect x="84.65" y="142.18" width="12.91" height="75.95" fill="#76ce89"/></clipPath><clipPath id="clip-path-2"><rect x="101.84" y="142.18" width="12.91" height="75.95" fill="#76ce89"/></clipPath><clipPath id="clip-path-3"><rect x="119.03" y="148.81" width="12.89" height="69.31" fill="#76ce89"/></clipPath><clipPath id="clip-path-4"><rect x="136.21" y="148.82" width="12.89" height="69.3" fill="#76ce89"/></clipPath><clipPath id="clip-path-5"><rect x="153.38" y="162.65" width="12.88" height="55.48" fill="#76ce89"/></clipPath><clipPath id="clip-path-6"><rect x="170.54" y="174.67" width="12.87" height="43.45" fill="#ffda00"/></clipPath><clipPath id="clip-path-7"><rect x="187.68" y="183.1" width="12.87" height="35.02" fill="#ffda00"/></clipPath><clipPath id="clip-path-8"><rect x="204.83" y="153.24" width="12.82" height="64.89" fill="#76ce89"/></clipPath><clipPath id="clip-path-9"><rect x="221.93" y="157.67" width="12.8" height="60.45" fill="#76ce89"/></clipPath><clipPath id="clip-path-10"><rect x="239.01" y="158.07" width="12.79" height="60.05" fill="#76ce89"/></clipPath><clipPath id="clip-path-11"><rect x="256.08" y="159.87" width="12.88" height="58.25" fill="#76ce89"/></clipPath><clipPath id="clip-path-12"><rect x="273.24" y="159.87" width="12.87" height="58.25" fill="#76ce89"/></clipPath><clipPath id="clip-path-13"><rect x="290.38" y="165.29" width="12.86" height="52.83" fill="#76ce89"/></clipPath><clipPath id="clip-path-14"><rect x="307.52" y="167.77" width="12.86" height="50.35" fill="#76ce89"/></clipPath><clipPath id="clip-path-15"><rect x="324.66" y="168.73" width="12.86" height="49.39" fill="#76ce89"/></clipPath><clipPath id="clip-path-16"><rect x="341.79" y="170.82" width="12.83" height="47.3" fill="#76ce89"/></clipPath><clipPath id="clip-path-17"><rect x="358.9" y="170.82" width="12.83" height="47.3" fill="#76ce89"/></clipPath><clipPath id="clip-path-18"><rect x="376.01" y="170.82" width="12.83" height="47.3" fill="#76ce89"/></clipPath><clipPath id="clip-path-19"><rect x="393.12" y="173.16" width="12.83" height="44.97" fill="#76ce89"/></clipPath><clipPath id="clip-path-20"><rect x="410.23" y="173.16" width="12.82" height="44.97" fill="#76ce89"/></clipPath><clipPath id="clip-path-21"><rect x="427.33" y="173.16" width="12.81" height="44.97" fill="#76ce89"/></clipPath><clipPath id="clip-path-22"><rect x="444.42" y="177.58" width="12.8" height="40.54" fill="#76ce89"/></clipPath><clipPath id="clip-path-23"><rect x="461.51" y="183.1" width="12.79" height="35.02" fill="none"/></clipPath><clipPath id="clip-path-24"><rect x="67.44" y="136.64" width="12.93" height="81.53" fill="#76ce89"/></clipPath><clipPath id="clip-path-25"><rect x="50.21" y="131.11" width="12.95" height="87.12" fill="#76ce89"/></clipPath></defs><title>r_0_A_Screen</title><g id="Layer_2" data-name="Layer 2">

<g id="AGV3_Sel_Box"><rect width="566.31" height="517.94" fill="rgba(0,0,0,0)"/></g>

<g id="Layer_1-2" data-name="Layer 1"><path d="M27.35,256.45H29.3l2.74,8.2,2.75-8.2h1.94v9.69H35.66V257.6h-.2l-2.82,8.19h-1.2l-2.82-8.19h-.19v8.54H27.35Z" fill="#4c4c4c"/><path d="M43.87,264.84c0,.41.37.56.81.62l0,.82a2.12,2.12,0,0,1-1.66-.56,7.17,7.17,0,0,1-2.53.56c-1.27,0-2-.72-2-2.14s.7-1.93,2.14-2.07l2.2-.21v-.6c0-1-.42-1.34-1.26-1.34s-2.65.19-2.65.19l0-.8a16.87,16.87,0,0,1,2.75-.31c1.58,0,2.25.73,2.25,2.26Zm-3.12-2c-.86.09-1.19.49-1.19,1.26s.35,1.29,1.06,1.29a7.46,7.46,0,0,0,2.2-.43v-2.31Z" fill="#4c4c4c"/><path d="M45.94,256.34H47v1.22H45.94Zm0,2.8H47v7H45.94Z" fill="#4c4c4c"/><path d="M49,266.14v-7h1v.49a5.36,5.36,0,0,1,2.18-.63c1.93,0,2.36.95,2.36,3.45v3.69h-1v-3.67c0-1.85-.21-2.53-1.52-2.53a4.74,4.74,0,0,0-2,.52v5.68Z" fill="#4c4c4c"/><path d="M57.93,260.05v3.35c0,1.53.09,2,1,2,.4,0,1.25-.09,1.25-.09l.07.87a11.86,11.86,0,0,1-1.43.16c-1.44,0-1.93-.55-1.93-2.57v-3.68h-1v-.91h1V257h1v2.14h2.22v.91Z" fill="#4c4c4c"/><path d="M66.61,265.23l0,.83a25,25,0,0,1-2.74.22c-2.08,0-2.77-1.22-2.77-3.6,0-2.66,1.15-3.68,2.93-3.68s2.81,1,2.81,3.28l-.05.8H62.2c0,1.49.46,2.28,1.83,2.28C65.08,265.36,66.61,265.23,66.61,265.23Zm-.79-3c0-1.74-.53-2.36-1.76-2.36s-1.86.66-1.88,2.36Z" fill="#4c4c4c"/><path d="M68.51,266.14v-7h1v.49a5.29,5.29,0,0,1,2.17-.63c1.93,0,2.36.95,2.36,3.45v3.69h-1v-3.67c0-1.85-.21-2.53-1.51-2.53a4.81,4.81,0,0,0-2,.52v5.68Z" fill="#4c4c4c"/><path d="M81,264.84c0,.41.37.56.81.62l0,.82a2.15,2.15,0,0,1-1.67-.56,7.16,7.16,0,0,1-2.52.56c-1.27,0-2-.72-2-2.14s.7-1.93,2.14-2.07l2.2-.21v-.6c0-1-.42-1.34-1.26-1.34s-2.65.19-2.65.19l0-.8a16.87,16.87,0,0,1,2.75-.31c1.58,0,2.25.73,2.25,2.26Zm-3.12-2c-.86.09-1.19.49-1.19,1.26s.35,1.29,1.06,1.29a7.46,7.46,0,0,0,2.2-.43v-2.31Z" fill="#4c4c4c"/><path d="M83,266.14v-7h1v.49a5.29,5.29,0,0,1,2.17-.63c1.93,0,2.37.95,2.37,3.45v3.69h-1v-3.67c0-1.85-.21-2.53-1.51-2.53a4.81,4.81,0,0,0-2,.52v5.68Z" fill="#4c4c4c"/><path d="M95.08,259.21l0,.85s-1.12-.12-1.65-.12c-1.61,0-2,.7-2,2.58,0,2.07.32,2.83,2.06,2.83.53,0,1.66-.13,1.66-.13l0,.87a19.4,19.4,0,0,1-1.95.19c-2.23,0-2.89-1-2.89-3.76,0-2.54.83-3.52,2.92-3.52A16.26,16.26,0,0,1,95.08,259.21Z" fill="#4c4c4c"/><path d="M101.83,265.23l0,.83a25,25,0,0,1-2.73.22c-2.09,0-2.78-1.22-2.78-3.6,0-2.66,1.15-3.68,2.93-3.68s2.82,1,2.82,3.28l-.06.8H97.42c0,1.49.46,2.28,1.83,2.28C100.3,265.36,101.83,265.23,101.83,265.23Zm-.78-3c0-1.74-.54-2.36-1.77-2.36s-1.86.66-1.88,2.36Z" fill="#4c4c4c"/><path d="M30.87,81.29c1.89,0,2.88.75,2.88,2.47A2.13,2.13,0,0,1,32.5,86a2.13,2.13,0,0,1,1.55,2.28c0,2-1.18,2.72-3,2.72h-3.7v-9.7Zm-2.44,1v3.34h2.49c1.22,0,1.72-.57,1.72-1.73s-.58-1.61-1.82-1.61Zm0,4.28V90H31c1.17,0,1.94-.37,1.94-1.8s-1.27-1.7-2-1.7Z" fill="#4c4c4c"/><path d="M40.74,89.68c0,.41.36.56.81.62l0,.83a2.14,2.14,0,0,1-1.67-.56,7.16,7.16,0,0,1-2.52.56c-1.28,0-2-.73-2-2.15s.7-1.93,2.15-2.07l2.2-.21v-.6c0-1-.42-1.33-1.27-1.33s-2.64.18-2.64.18l-.05-.8a17,17,0,0,1,2.75-.31c1.58,0,2.26.73,2.26,2.26Zm-3.13-2c-.85.09-1.19.49-1.19,1.26s.35,1.29,1.07,1.29a7.55,7.55,0,0,0,2.2-.43V87.5Z" fill="#4c4c4c"/><path d="M44.21,84.89v3.35c0,1.53.1,2,1,2,.39,0,1.24-.08,1.24-.08l.07.87a12.62,12.62,0,0,1-1.43.15c-1.44,0-1.93-.55-1.93-2.56V84.89h-1V84h1V81.84h1V84h2.22v.91Z" fill="#4c4c4c"/><path d="M49.12,84.89v3.35c0,1.53.1,2,1,2,.39,0,1.25-.08,1.25-.08l.07.87a12.62,12.62,0,0,1-1.43.15c-1.45,0-1.94-.55-1.94-2.56V84.89h-1V84h1V81.84h1V84h2.23v.91Z" fill="#4c4c4c"/><path d="M57.8,90.08l0,.82a23.89,23.89,0,0,1-2.73.23c-2.09,0-2.78-1.22-2.78-3.6,0-2.67,1.15-3.69,2.93-3.69s2.82,1,2.82,3.28l-.06.8H53.39c0,1.5.46,2.28,1.84,2.28C56.28,90.2,57.8,90.08,57.8,90.08Zm-.78-3c0-1.74-.54-2.35-1.77-2.35s-1.86.65-1.87,2.35Z" fill="#4c4c4c"/><path d="M59.7,84h1v1a7.75,7.75,0,0,1,2.56-1.11v1.06a10.33,10.33,0,0,0-2.55,1V91h-1Z" fill="#4c4c4c"/><path d="M64.94,84l1.75,6.1h.46L68.92,84h1L67.06,94.1H66L66.91,91h-1l-2-7Z" fill="#4c4c4c"/><path d="M74.57,91v-9.7h1.08V90h4.26v1Z" fill="#4c4c4c"/><path d="M86.26,90.08l0,.82a23.64,23.64,0,0,1-2.73.23c-2.09,0-2.77-1.22-2.77-3.6,0-2.67,1.15-3.69,2.93-3.69s2.81,1,2.81,3.28l0,.8H81.85c0,1.5.46,2.28,1.84,2.28C84.74,90.2,86.26,90.08,86.26,90.08Zm-.78-3c0-1.74-.53-2.35-1.76-2.35s-1.87.65-1.88,2.35Z" fill="#4c4c4c"/><path d="M88.63,84l1.64,6.1h.52L92.48,84h1.08l-2,7h-2.1l-2-7Z" fill="#4c4c4c"/><path d="M100.07,90.08l0,.82a23.91,23.91,0,0,1-2.74.23c-2.08,0-2.77-1.22-2.77-3.6,0-2.67,1.15-3.69,2.93-3.69s2.81,1,2.81,3.28l0,.8H95.65c0,1.5.47,2.28,1.84,2.28C98.54,90.2,100.07,90.08,100.07,90.08Zm-.79-3c0-1.74-.53-2.35-1.76-2.35s-1.87.65-1.88,2.35Z" fill="#4c4c4c"/><path d="M102.05,80.93h1V91h-1Z" fill="#4c4c4c"/><path d="M28,352.11h1.52l2.16,6.44,2.16-6.44h1.53v7.61h-.85V353h-.16l-2.21,6.44h-.94L29,353h-.16v6.71H28Z" fill="#4c4c4c"/><path d="M41,358.7c0,.32.28.44.63.49l0,.64a1.69,1.69,0,0,1-1.31-.44,5.62,5.62,0,0,1-2,.44c-1,0-1.55-.57-1.55-1.68s.55-1.52,1.68-1.63l1.73-.16v-.48c0-.77-.33-1-1-1s-2.08.14-2.08.14l0-.62a12.9,12.9,0,0,1,2.15-.25c1.25,0,1.78.58,1.78,1.77Zm-2.46-1.56a.87.87,0,0,0-.93,1c0,.64.27,1,.83,1a5.82,5.82,0,0,0,1.73-.34V357Z" fill="#4c4c4c"/><path d="M42.57,354.22h.82V355a6.14,6.14,0,0,1,2-.87v.84a8,8,0,0,0-2,.75v4h-.83Z" fill="#4c4c4c"/><path d="M85.66,352.11h1.85l2.09,7.61h-.83l-.55-2H85l-.55,2h-.84Zm-.52,4.9H88l-1.16-4.17H86.3Z" fill="#4c4c4c"/><path d="M90.66,354.22h.81v.4a3.74,3.74,0,0,1,1.65-.51c1.39,0,2,.85,2,2.8,0,2.15-.7,2.92-2.4,2.92a6.61,6.61,0,0,1-1.23-.12v2.46h-.82Zm.82,1.07V359a8.82,8.82,0,0,0,1.19.12c1.21,0,1.61-.63,1.61-2.21s-.48-2.06-1.28-2.06A3.59,3.59,0,0,0,91.48,355.29Z" fill="#4c4c4c"/><path d="M96.45,354.22h.82V355a6.27,6.27,0,0,1,2-.87v.84a8,8,0,0,0-2,.75v4h-.83Z" fill="#4c4c4c"/><path d="M139.48,358.68c0,1.65-.64,1.84-2.09,1.84v-.76c1,0,1.24-.07,1.24-1.2v-6.45h.84Z" fill="#4c4c4c"/><path d="M145.42,354.22v5.5h-.83v-.38a3.7,3.7,0,0,1-1.62.49c-1.54,0-1.86-.71-1.86-2.73v-2.88h.82v2.86c0,1.52.13,2,1.16,2a3.29,3.29,0,0,0,1.5-.41v-4.47Z" fill="#4c4c4c"/><path d="M147,359.72v-5.5h.82v.39a4.14,4.14,0,0,1,1.7-.5c1.52,0,1.86.75,1.86,2.71v2.9h-.81v-2.88c0-1.45-.17-2-1.19-2a3.75,3.75,0,0,0-1.55.41v4.46Z" fill="#4c4c4c"/><path d="M192.13,358.68c0,1.65-.64,1.84-2.09,1.84v-.76c1,0,1.24-.07,1.24-1.2v-6.45h.84Z" fill="#4c4c4c"/><path d="M198.07,354.22v5.5h-.83v-.38a3.7,3.7,0,0,1-1.62.49c-1.55,0-1.86-.71-1.86-2.73v-2.88h.82v2.86c0,1.52.13,2,1.16,2a3.29,3.29,0,0,0,1.5-.41v-4.47Z" fill="#4c4c4c"/><path d="M199.72,351.83h.82v7.89h-.82Z" fill="#4c4c4c"/><path d="M241.48,352.11h1.85l2.09,7.61h-.84l-.55-2h-3.26l-.54,2h-.84ZM241,357h2.88l-1.15-4.17h-.57Z" fill="#4c4c4c"/><path d="M250.73,354.22v5.5h-.83v-.38a3.7,3.7,0,0,1-1.62.49c-1.55,0-1.86-.71-1.86-2.73v-2.88h.82v2.86c0,1.52.13,2,1.16,2a3.29,3.29,0,0,0,1.5-.41v-4.47Z" fill="#4c4c4c"/><path d="M252.07,360.65c0-.64.3-.94.87-1.37a.88.88,0,0,1-.31-.76,3.58,3.58,0,0,1,.38-.86c-.47-.21-.87-.65-.87-1.67,0-1.35.83-1.88,2.05-1.88a5.54,5.54,0,0,1,1.15.15l1.63-.05v.71l-1.05,0a1.43,1.43,0,0,1,.36,1.1c0,1.44-.71,1.86-2.12,1.86a5.09,5.09,0,0,1-.54,0,3.13,3.13,0,0,0-.2.63c0,.44.09.5,1.33.5,1.57,0,2.13.31,2.13,1.62s-.89,1.75-2.44,1.75C252.7,362.31,252.07,361.92,252.07,360.65Zm1.43-1c-.46.34-.61.54-.61,1,0,.76.31,1,1.56,1s1.59-.3,1.59-1-.35-.92-1.35-.92C254.3,359.67,253.5,359.61,253.5,359.61Zm2-3.62c0-.86-.34-1.21-1.27-1.21S253,355.13,253,356s.38,1.2,1.23,1.2S255.46,356.86,255.46,356Z" fill="#4c4c4c"/><path d="M300.1,352.93s-1.53-.19-2.17-.19c-1.08,0-1.65.38-1.65,1.24s.53,1.16,1.86,1.45c1.52.34,2.19.72,2.19,2.05,0,1.68-.92,2.34-2.43,2.34a20.26,20.26,0,0,1-2.41-.24l.09-.7s1.5.2,2.28.2c1.07,0,1.62-.48,1.62-1.53,0-.86-.45-1.1-1.69-1.35-1.57-.34-2.36-.71-2.36-2.16s1-2.05,2.45-2.05a19,19,0,0,1,2.3.22Z" fill="#4c4c4c"/><path d="M305.71,359l0,.65a19.72,19.72,0,0,1-2.14.17c-1.64,0-2.18-.95-2.18-2.82,0-2.09.9-2.9,2.3-2.9s2.21.77,2.21,2.58l0,.62h-3.64c0,1.18.37,1.8,1.45,1.8C304.51,359.11,305.71,359,305.71,359Zm-.62-2.36c0-1.36-.41-1.84-1.38-1.84s-1.47.51-1.48,1.84Z" fill="#4c4c4c"/><path d="M307.21,354.22H308v.4a3.74,3.74,0,0,1,1.65-.51c1.39,0,2,.85,2,2.8,0,2.15-.7,2.92-2.4,2.92a6.51,6.51,0,0,1-1.23-.12v2.46h-.82Zm.82,1.07V359a8.63,8.63,0,0,0,1.19.12c1.21,0,1.61-.63,1.61-2.21s-.48-2.06-1.28-2.06A3.59,3.59,0,0,0,308,355.29Z" fill="#4c4c4c"/><path d="M350.56,356c0-2.51.65-3.95,3-3.95s3,1.42,3,3.95-.65,3.88-3,3.88S350.56,358.5,350.56,356Zm5.14,0c0-2.06-.4-3.2-2.14-3.2s-2.13,1.13-2.13,3.2.37,3.14,2.13,3.14S355.7,358.1,355.7,356Z" fill="#4c4c4c"/><path d="M361.54,354.28l0,.67s-.88-.1-1.3-.1c-1.27,0-1.61.55-1.61,2,0,1.63.25,2.23,1.62,2.23.42,0,1.3-.1,1.3-.1l0,.68a14.87,14.87,0,0,1-1.53.15c-1.75,0-2.27-.8-2.27-3,0-2,.65-2.76,2.29-2.76A12.4,12.4,0,0,1,361.54,354.28Z" fill="#4c4c4c"/><path d="M363.88,354.94v2.63c0,1.2.08,1.54.79,1.54.31,0,1-.07,1-.07l.06.68a9.07,9.07,0,0,1-1.12.13c-1.14,0-1.52-.43-1.52-2v-2.89h-.78v-.72h.78v-1.68h.81v1.68h1.75v.72Z" fill="#4c4c4c"/><path d="M404.51,352.11h1.58L409,359h.23v-6.87h.83v7.61h-1.55l-3-6.86h-.2v6.86h-.85Z" fill="#4c4c4c"/><path d="M416.27,356.91c0,2-.5,2.92-2.36,2.92s-2.35-.92-2.35-2.92.61-2.8,2.35-2.8S416.27,355,416.27,356.91Zm-.85,0c0-1.53-.33-2.08-1.51-2.08s-1.5.55-1.5,2.08.21,2.21,1.5,2.21S415.42,358.47,415.42,356.91Z" fill="#4c4c4c"/><path d="M417.87,354.22l1.29,4.79h.41l1.33-4.79h.84l-1.55,5.5h-1.65l-1.55-5.5Z" fill="#4c4c4c"/><path d="M460.67,359.72v-7.61h2.71c2.22,0,2.82,1.54,2.82,3.7s-.57,3.91-2.82,3.91Zm2.71-6.86h-1.87V359h1.87c1.59,0,1.95-1.52,1.95-3.17S465,352.86,463.38,352.86Z" fill="#4c4c4c"/><path d="M471.68,359l0,.65a19.72,19.72,0,0,1-2.14.17c-1.65,0-2.18-.95-2.18-2.82,0-2.09.9-2.9,2.3-2.9s2.21.77,2.21,2.58l-.05.62h-3.63c0,1.18.36,1.8,1.44,1.8C470.48,359.11,471.68,359,471.68,359Zm-.62-2.36c0-1.36-.42-1.84-1.38-1.84s-1.47.51-1.48,1.84Z" fill="#4c4c4c"/><path d="M476.73,354.28l0,.67s-.88-.1-1.3-.1c-1.26,0-1.6.55-1.6,2,0,1.63.25,2.23,1.62,2.23.41,0,1.29-.1,1.29-.1l0,.68a15.21,15.21,0,0,1-1.53.15c-1.75,0-2.27-.8-2.27-3,0-2,.65-2.76,2.29-2.76A12.4,12.4,0,0,1,476.73,354.28Z" fill="#4c4c4c"/><line x1="475.94" y1="345.06" x2="24.11" y2="345.06" fill="none" stroke="#adadad" stroke-miterlimit="10"/><polyline points="27.36 340.56 43.93 340.56 65.23 337.56 79.44 331.56 96 322.56 114.94 316.56 131.51 309.56 140.98 303.56 163.47 294.56 184.78 290.56 212 294.56 229.75 300.56 252.24 308.56 268.81 322.56 283.01 327.56 309.05 331.56 336.28 335.56 354.03 336.56 393.09 337.56 433.33 340.56 464.11 337.56 475.94 331.56" fill="none" stroke="#3899e8"/><polyline points="27.36 341.06 43.93 341.06 65.23 338.06 79.44 332.06 96 323.06 114.94 317.06 131.51 310.06 140.98 304.06 163.47 295.06 184.78 293.06 212 297.06 229.75 301.06 252.24 309.06 268.81 323.06 283.01 328.06 309.05 332.06 336.28 336.06 354.03 337.06 393.09 338.06 433.33 341.06 464.11 338.06 475.94 332.06" fill="none" stroke="#8dc5f2"/><path d="M31,29.6h3.36l3.8,13.84H36.6l-1-3.56H29.68l-1,3.56H27.16ZM30,38.5h5.24l-2.1-7.58h-1Z"/><path d="M45.78,36.36H49.6v6.8a33.32,33.32,0,0,1-4.5.49c-4.24,0-5.36-2.61-5.36-7.09s1.16-7.16,5.32-7.16a25.77,25.77,0,0,1,4.54.52l-.06,1.28a31.73,31.73,0,0,0-4.3-.42c-3.2,0-3.9,1.86-3.9,5.78s.68,5.72,3.88,5.72A17.39,17.39,0,0,0,48.08,42V37.74h-2.3Z"/><path d="M62.08,29.6,58.46,43.44H55L51.4,29.6H53l3.18,12.48H57.3L60.48,29.6Z"/><path d="M68.4,30.58A15.43,15.43,0,0,1,72.28,30c3.12,0,4.22,1.1,4.22,3.44a3.3,3.3,0,0,1-2,3,2.87,2.87,0,0,1,2.28,3.2c0,2.66-1.3,4-4.28,4a21.78,21.78,0,0,1-4.34-.54l.14-1.27a23.88,23.88,0,0,0,4,.44c2,0,2.86-.86,2.86-2.56S74,37.3,72.52,37.24H69.86V35.92h2.66a2.48,2.48,0,0,0,2.4-2.4c0-1.5-.74-2.12-2.7-2.12a20.15,20.15,0,0,0-3.68.4Z"/><path d="M24.31,431.86h9v1.24h-3.8v11.22H28.14V433.1H24.31Z" fill="#3a3d3f"/><path d="M42.15,439.71c0,3.28-.81,4.79-3.86,4.79s-3.85-1.51-3.85-4.79c0-3.1,1-4.57,3.85-4.57S42.15,436.61,42.15,439.71Zm-1.39,0c0-2.5-.54-3.4-2.47-3.4s-2.46.9-2.46,3.4.34,3.62,2.46,3.62S40.76,442.27,40.76,439.71Z" fill="#3a3d3f"/><path d="M51.26,444.32H49.92v-.61a6.42,6.42,0,0,1-2.73.79c-1.77,0-3.24-.72-3.24-4.61,0-3.17,1-4.75,3.76-4.75a15.79,15.79,0,0,1,2.21.23v-4h1.34Zm-1.34-1.69v-6.11a15.89,15.89,0,0,0-2.14-.21c-1.89,0-2.45,1.24-2.45,3.58,0,2.92,1,3.4,2,3.4A6.54,6.54,0,0,0,49.92,442.63Z" fill="#3a3d3f"/><path d="M60.22,442.65c0,.52.47.72,1,.79l0,1.06a2.75,2.75,0,0,1-2.14-.72,9.2,9.2,0,0,1-3.24.72c-1.64,0-2.54-.94-2.54-2.75s.9-2.49,2.75-2.67l2.83-.27V438c0-1.26-.54-1.71-1.62-1.71-1.26,0-3.4.23-3.4.23l-.06-1a22.13,22.13,0,0,1,3.53-.39c2,0,2.9.93,2.9,2.9Zm-4-2.56c-1.09.11-1.53.63-1.53,1.62s.45,1.66,1.37,1.66a9.57,9.57,0,0,0,2.83-.56v-3Z" fill="#3a3d3f"/><path d="M63.39,435.32l2.25,7.83h.59l2.27-7.83h1.35l-3.75,13H64.75l1.17-4H64.59l-2.56-9Z" fill="#3a3d3f"/><path d="M75.53,431.72h1.35v1.56H75.53Zm0,3.6h1.35v9H75.53Z" fill="#3a3d3f"/><path d="M81.28,436.49v4.3c0,2,.12,2.52,1.29,2.52.51,0,1.61-.11,1.61-.11l.09,1.12a15.71,15.71,0,0,1-1.84.2c-1.86,0-2.49-.7-2.49-3.3v-4.73H78.67v-1.17h1.27v-2.76h1.34v2.76h2.86v1.17Z" fill="#3a3d3f"/><path d="M89.75,431.72H91.1v1.56H89.75Zm0,3.6H91.1v9H89.75Z" fill="#3a3d3f"/><path d="M99.67,436.63a29,29,0,0,0-3.15-.29c-1.11,0-2,.31-2,1.37,0,.85.43,1.08,2.34,1.41,2.25.38,3.1.82,3.1,2.57,0,2.11-1.33,2.81-3.49,2.81a25.4,25.4,0,0,1-3.17-.34l.07-1.17s2,.3,3,.3c1.48,0,2.27-.32,2.27-1.54,0-.94-.47-1.17-2.43-1.48s-3-.7-3-2.5c0-2,1.6-2.63,3.24-2.63a23.19,23.19,0,0,1,3.26.34Z" fill="#3a3d3f"/><path d="M106,435.32h1.33V436a6.12,6.12,0,0,1,2.7-.83c2.27,0,3.26,1.38,3.26,4.57,0,3.53-1.15,4.79-3.93,4.79a11,11,0,0,1-2-.2v4H106Zm1.35,1.74v6.07a12.78,12.78,0,0,0,1.94.2c2,0,2.63-1,2.63-3.62s-.77-3.37-2.09-3.37A5.86,5.86,0,0,0,107.38,437.06Z" fill="#3a3d3f"/><path d="M122.82,439.71c0,3.28-.81,4.79-3.85,4.79s-3.85-1.51-3.85-4.79c0-3.1,1-4.57,3.85-4.57S122.82,436.61,122.82,439.71Zm-1.38,0c0-2.5-.54-3.4-2.47-3.4s-2.47.9-2.47,3.4.35,3.62,2.47,3.62S121.44,442.27,121.44,439.71Z" fill="#3a3d3f"/><path d="M131,436.63a29,29,0,0,0-3.15-.29c-1.11,0-2,.31-2,1.37,0,.85.43,1.08,2.34,1.41,2.25.38,3.1.82,3.1,2.57,0,2.11-1.33,2.81-3.49,2.81a25.4,25.4,0,0,1-3.17-.34l.07-1.17s2,.3,3,.3c1.48,0,2.27-.32,2.27-1.54,0-.94-.47-1.17-2.43-1.48s-3-.7-3-2.5c0-2,1.6-2.63,3.24-2.63a23.19,23.19,0,0,1,3.26.34Z" fill="#3a3d3f"/><path d="M139.36,436.63a29,29,0,0,0-3.15-.29c-1.11,0-2,.31-2,1.37,0,.85.43,1.08,2.34,1.41,2.25.38,3.1.82,3.1,2.57,0,2.11-1.33,2.81-3.49,2.81a25.4,25.4,0,0,1-3.17-.34l.07-1.17s2.05.3,3,.3c1.48,0,2.27-.32,2.27-1.54,0-.94-.47-1.17-2.43-1.48s-3-.7-3-2.5c0-2,1.6-2.63,3.24-2.63a23.19,23.19,0,0,1,3.26.34Z" fill="#3a3d3f"/><path d="M141.76,431.72h1.35v1.56h-1.35Zm0,3.6h1.35v9h-1.35Z" fill="#3a3d3f"/><path d="M153,439.68c0,3.58-1,4.82-4.24,4.82-1.09,0-3-.2-3-.2V431.39H147v4.38a7.44,7.44,0,0,1,2.65-.63C152.13,435.14,153,436.43,153,439.68Zm-1.36,0c0-2.33-.47-3.34-2.06-3.34a7.45,7.45,0,0,0-2.5.53v6.33s1.17.09,1.66.09C151.15,443.29,151.59,442.2,151.59,439.68Z" fill="#3a3d3f"/><path d="M155.27,431.39h1.35v12.93h-1.35Z" fill="#3a3d3f"/><path d="M166,443.15l0,1.06a31.12,31.12,0,0,1-3.51.29c-2.68,0-3.56-1.57-3.56-4.63,0-3.42,1.47-4.73,3.76-4.73s3.62,1.26,3.62,4.21l-.07,1H160.3c0,1.92.59,2.93,2.35,2.93C164,443.31,166,443.15,166,443.15Zm-1-3.85c0-2.24-.68-3-2.27-3s-2.39.85-2.41,3Z" fill="#3a3d3f"/><path d="M174.17,436.49v4.3c0,2,.13,2.52,1.3,2.52.51,0,1.6-.11,1.6-.11l.09,1.12a15.44,15.44,0,0,1-1.83.2c-1.86,0-2.49-.7-2.49-3.3v-4.73h-1.28v-1.17h1.28v-2.76h1.33v2.76H177v1.17Z" fill="#3a3d3f"/><path d="M186,439.71c0,3.28-.81,4.79-3.85,4.79s-3.85-1.51-3.85-4.79c0-3.1,1-4.57,3.85-4.57S186,436.61,186,439.71Zm-1.38,0c0-2.5-.54-3.4-2.47-3.4s-2.47.9-2.47,3.4.34,3.62,2.47,3.62S184.62,442.27,184.62,439.71Z" fill="#3a3d3f"/><path d="M198,435.41l-.05,1.1s-1.44-.17-2.13-.17c-2.07,0-2.63.9-2.63,3.32,0,2.66.42,3.63,2.65,3.63.69,0,2.13-.16,2.13-.16l.05,1.12a24,24,0,0,1-2.5.25c-2.87,0-3.71-1.31-3.71-4.84,0-3.26,1.06-4.52,3.74-4.52A20.89,20.89,0,0,1,198,435.41Z" fill="#3a3d3f"/><path d="M200,444.32V431.39h1.35v4.43a7.65,7.65,0,0,1,2.78-.68c2.46,0,3,1.22,3,4.43v4.75h-1.35V439.6c0-2.37-.27-3.26-1.93-3.26a7.41,7.41,0,0,0-2.54.54v7.44Z" fill="#3a3d3f"/><path d="M216,442.65c0,.52.46.72,1,.79l0,1.06a2.76,2.76,0,0,1-2.15-.72,9.2,9.2,0,0,1-3.24.72c-1.64,0-2.54-.94-2.54-2.75s.9-2.49,2.76-2.67l2.83-.27V438c0-1.26-.54-1.71-1.62-1.71-1.27,0-3.41.23-3.41.23l-.05-1a22.13,22.13,0,0,1,3.53-.39c2,0,2.9.93,2.9,2.9Zm-4-2.56c-1.1.11-1.53.63-1.53,1.62s.45,1.66,1.37,1.66a9.57,9.57,0,0,0,2.83-.56v-3Z" fill="#3a3d3f"/><path d="M218.69,435.32H220v1.22a10.18,10.18,0,0,1,3.29-1.42v1.37a13,13,0,0,0-3.27,1.22v6.61h-1.35Z" fill="#3a3d3f"/><path d="M224.52,445.83c0-1,.49-1.53,1.42-2.23a1.47,1.47,0,0,1-.5-1.24,5.82,5.82,0,0,1,.61-1.42c-.76-.35-1.42-1.07-1.42-2.72,0-2.22,1.37-3.08,3.36-3.08a9.6,9.6,0,0,1,1.88.23l2.66-.07v1.15l-1.71,0a2.34,2.34,0,0,1,.59,1.8c0,2.34-1.17,3-3.47,3-.18,0-.68,0-.88-.07a5.3,5.3,0,0,0-.33,1c0,.72.15.83,2.18.83,2.56,0,3.48.51,3.48,2.65s-1.46,2.86-4,2.86C225.55,448.55,224.52,447.92,224.52,445.83Zm2.34-1.69c-.76.56-1,.88-1,1.59,0,1.24.52,1.69,2.56,1.69,1.8,0,2.61-.49,2.61-1.68,0-1.37-.58-1.51-2.22-1.51C228.17,444.23,226.86,444.14,226.86,444.14Zm3.2-5.92c0-1.43-.55-2-2.07-2s-2,.55-2,2,.61,2,2,2S230.06,439.64,230.06,438.22Z" fill="#3a3d3f"/><path d="M240.81,443.15l0,1.06a31.38,31.38,0,0,1-3.51.29c-2.69,0-3.57-1.57-3.57-4.63,0-3.42,1.48-4.73,3.76-4.73s3.62,1.26,3.62,4.21l-.07,1h-5.94c0,1.92.59,2.93,2.36,2.93C238.85,443.31,240.81,443.15,240.81,443.15Zm-1-3.85c0-2.24-.68-3-2.27-3s-2.39.85-2.41,3Z" fill="#3a3d3f"/><path d="M249.77,431.86h3l3.42,12.46h-1.37l-.9-3.2h-5.33l-.9,3.2h-1.37Zm-.84,8h4.71l-1.89-6.82h-.93Z" fill="#3a3d3f"/><path d="M263.11,438h3.44v6.12a30.76,30.76,0,0,1-4.05.43c-3.82,0-4.83-2.34-4.83-6.37s1.05-6.45,4.79-6.45a23.17,23.17,0,0,1,4.09.47l-.05,1.15a28.58,28.58,0,0,0-3.87-.38c-2.89,0-3.52,1.68-3.52,5.21s.62,5.15,3.5,5.15a16.52,16.52,0,0,0,2.57-.26v-3.83h-2.07Z" fill="#3a3d3f"/><path d="M277.78,431.86l-3.26,12.46h-3.09l-3.26-12.46h1.44l2.86,11.24h1l2.86-11.24Z" fill="#3a3d3f"/><path d="M279.51,432.74a14,14,0,0,1,3.49-.5c2.81,0,3.8,1,3.8,3.1A3,3,0,0,1,285,438a2.58,2.58,0,0,1,2,2.88c0,2.39-1.17,3.58-3.86,3.58a19.38,19.38,0,0,1-3.9-.49l.12-1.13a21.39,21.39,0,0,0,3.64.4c1.76,0,2.58-.78,2.58-2.31s-1.1-2.18-2.45-2.23h-2.4v-1.19h2.4a2.23,2.23,0,0,0,2.16-2.16c0-1.35-.67-1.91-2.43-1.91a18.25,18.25,0,0,0-3.32.36Z" fill="#3a3d3f"/><path d="M293.55,431.72h1.35v1.56h-1.35Zm0,3.6h1.35v9h-1.35Z" fill="#3a3d3f"/><path d="M297.49,444.32v-9h1.33V436a6.85,6.85,0,0,1,2.79-.81c2.49,0,3.05,1.22,3.05,4.43v4.75h-1.34V439.6c0-2.37-.27-3.26-1.94-3.26a6.12,6.12,0,0,0-2.54.67v7.31Z" fill="#3a3d3f"/><path d="M317.47,442.65c0,.52.47.72,1,.79l-.06,1.06a2.75,2.75,0,0,1-2.14-.72,9.2,9.2,0,0,1-3.24.72c-1.64,0-2.54-.94-2.54-2.75s.9-2.49,2.75-2.67l2.83-.27V438c0-1.26-.54-1.71-1.62-1.71-1.26,0-3.4.23-3.4.23l-.06-1a22.13,22.13,0,0,1,3.53-.39c2,0,2.9.93,2.9,2.9Zm-4-2.56c-1.1.11-1.53.63-1.53,1.62s.45,1.66,1.36,1.66a9.48,9.48,0,0,0,2.83-.56v-3Z" fill="#3a3d3f"/><path d="M324.2,431.39h1.35v12.93H324.2Z" fill="#3a3d3f"/><path d="M334.89,443.15l0,1.06a31.12,31.12,0,0,1-3.51.29c-2.68,0-3.57-1.57-3.57-4.63,0-3.42,1.48-4.73,3.77-4.73s3.62,1.26,3.62,4.21l-.07,1h-5.95c0,1.92.6,2.93,2.36,2.93C332.93,443.31,334.89,443.15,334.89,443.15Zm-1-3.85c0-2.24-.69-3-2.27-3s-2.4.85-2.41,3Z" fill="#3a3d3f"/><path d="M343.32,436.63a29.33,29.33,0,0,0-3.15-.29c-1.12,0-2,.31-2,1.37,0,.85.44,1.08,2.35,1.41,2.25.38,3.09.82,3.09,2.57,0,2.11-1.33,2.81-3.49,2.81a25.65,25.65,0,0,1-3.17-.34l.07-1.17s2.05.3,3,.3c1.48,0,2.27-.32,2.27-1.54,0-.94-.47-1.17-2.43-1.48s-3-.7-3-2.5c0-2,1.61-2.63,3.25-2.63a23,23,0,0,1,3.25.34Z" fill="#3a3d3f"/><path d="M351.69,436.63a29.33,29.33,0,0,0-3.15-.29c-1.12,0-2,.31-2,1.37,0,.85.43,1.08,2.34,1.41,2.25.38,3.09.82,3.09,2.57,0,2.11-1.33,2.81-3.49,2.81a25.65,25.65,0,0,1-3.17-.34l.07-1.17s2.06.3,3,.3c1.48,0,2.27-.32,2.27-1.54,0-.94-.47-1.17-2.43-1.48s-3-.7-3-2.5c0-2,1.6-2.63,3.24-2.63a23.19,23.19,0,0,1,3.26.34Z" fill="#3a3d3f"/><path d="M358,431.72h1.35v1.56H358Zm0,3.6h1.35v9H358Z" fill="#3a3d3f"/><path d="M362,444.32v-9h1.34V436a6.79,6.79,0,0,1,2.79-.81c2.48,0,3,1.22,3,4.43v4.75h-1.33V439.6c0-2.37-.27-3.26-1.95-3.26a6.18,6.18,0,0,0-2.54.67v7.31Z" fill="#3a3d3f"/><path d="M373.45,436.49v4.3c0,2,.13,2.52,1.3,2.52.5,0,1.6-.11,1.6-.11l.09,1.12a15.71,15.71,0,0,1-1.84.2c-1.85,0-2.48-.7-2.48-3.3v-4.73h-1.28v-1.17h1.28v-2.76h1.33v2.76h2.86v1.17Z" fill="#3a3d3f"/><path d="M384.61,443.15l0,1.06a31.12,31.12,0,0,1-3.51.29c-2.69,0-3.57-1.57-3.57-4.63,0-3.42,1.48-4.73,3.76-4.73s3.62,1.26,3.62,4.21l-.07,1h-5.94c0,1.92.59,2.93,2.36,2.93C382.65,443.31,384.61,443.15,384.61,443.15Zm-1-3.85c0-2.24-.68-3-2.27-3s-2.39.85-2.41,3Z" fill="#3a3d3f"/><path d="M387.06,444.32v-9h1.33V436a6.85,6.85,0,0,1,2.79-.81c2.49,0,3,1.22,3,4.43v4.75h-1.33V439.6c0-2.37-.27-3.26-1.94-3.26a6.12,6.12,0,0,0-2.54.67v7.31Z" fill="#3a3d3f"/><path d="M402.7,436.63a29.33,29.33,0,0,0-3.15-.29c-1.12,0-2,.31-2,1.37,0,.85.43,1.08,2.34,1.41,2.25.38,3.1.82,3.1,2.57,0,2.11-1.34,2.81-3.5,2.81a25.65,25.65,0,0,1-3.17-.34l.07-1.17s2.06.3,3,.3c1.47,0,2.27-.32,2.27-1.54,0-.94-.47-1.17-2.44-1.48s-3-.7-3-2.5c0-2,1.6-2.63,3.24-2.63a23.19,23.19,0,0,1,3.26.34Z" fill="#3a3d3f"/><path d="M405.09,431.72h1.35v1.56h-1.35Zm0,3.6h1.35v9h-1.35Z" fill="#3a3d3f"/><path d="M409.63,435.32l2.11,7.83h.66l2.18-7.83H416l-2.54,9h-2.7l-2.54-9Z" fill="#3a3d3f"/><path d="M424.34,443.15l0,1.06a31.12,31.12,0,0,1-3.51.29c-2.68,0-3.56-1.57-3.56-4.63,0-3.42,1.47-4.73,3.76-4.73s3.62,1.26,3.62,4.21l-.07,1h-5.94c0,1.92.59,2.93,2.35,2.93C422.38,443.31,424.34,443.15,424.34,443.15Zm-1-3.85c0-2.24-.68-3-2.27-3s-2.39.85-2.41,3Z" fill="#3a3d3f"/><path d="M430.74,435.32h1.34V436a6.07,6.07,0,0,1,2.7-.83c2.27,0,3.26,1.38,3.26,4.57,0,3.53-1.16,4.79-3.93,4.79a11.25,11.25,0,0,1-2-.2v4h-1.35Zm1.35,1.74v6.07a13.12,13.12,0,0,0,2,.2c2,0,2.63-1,2.63-3.62s-.78-3.37-2.09-3.37A5.87,5.87,0,0,0,432.09,437.06Z" fill="#3a3d3f"/><path d="M446.87,443.15l0,1.06a31.12,31.12,0,0,1-3.51.29c-2.68,0-3.57-1.57-3.57-4.63,0-3.42,1.48-4.73,3.77-4.73s3.62,1.26,3.62,4.21l-.08,1H441.2c0,1.92.6,2.93,2.36,2.93C444.91,443.31,446.87,443.15,446.87,443.15Zm-1-3.85c0-2.24-.69-3-2.27-3s-2.4.85-2.42,3Z" fill="#3a3d3f"/><path d="M449.32,435.32h1.33v1.22a10.17,10.17,0,0,1,3.3-1.42v1.37a13.15,13.15,0,0,0-3.28,1.22v6.61h-1.35Z" fill="#3a3d3f"/><path d="M455.55,431.72h1.35v1.56h-1.35Zm0,3.6h1.35v9h-1.35Z" fill="#3a3d3f"/><path d="M466.8,439.71c0,3.28-.81,4.79-3.85,4.79s-3.86-1.51-3.86-4.79c0-3.1,1-4.57,3.86-4.57S466.8,436.61,466.8,439.71Zm-1.39,0c0-2.5-.54-3.4-2.46-3.4s-2.47.9-2.47,3.4.34,3.62,2.47,3.62S465.41,442.27,465.41,439.71Z" fill="#3a3d3f"/><path d="M475.91,444.32h-1.34v-.61a6.42,6.42,0,0,1-2.73.79c-1.77,0-3.24-.72-3.24-4.61,0-3.17,1-4.75,3.76-4.75a15.61,15.61,0,0,1,2.21.23v-4h1.34Zm-1.34-1.69v-6.11a15.89,15.89,0,0,0-2.14-.21c-1.89,0-2.45,1.24-2.45,3.58,0,2.92,1,3.4,2,3.4A6.54,6.54,0,0,0,474.57,442.63Z" fill="#3a3d3f"/><path d="M478.42,442.27h1.48v2.05h-1.48Z" fill="#3a3d3f"/><path d="M33.13,472.12a18.72,18.72,0,0,1-3.44.38c-3.73,0-4.55-2.27-4.55-6.37s.81-6.45,4.55-6.45a17.59,17.59,0,0,1,3.44.4l-.05,1.17a21.38,21.38,0,0,0-3.24-.33c-2.78,0-3.26,1.66-3.26,5.21s.45,5.13,3.29,5.13a18.94,18.94,0,0,0,3.21-.33Z" fill="#3a3d3f"/><path d="M35.16,472.32V459.39h1.35v4.43a7.65,7.65,0,0,1,2.78-.68c2.46,0,3,1.22,3,4.43v4.75H41V467.6c0-2.37-.27-3.26-1.93-3.26a7.41,7.41,0,0,0-2.54.54v7.44Z" fill="#3a3d3f"/><path d="M51.18,470.65c0,.52.47.72,1,.79l-.06,1.06a2.75,2.75,0,0,1-2.14-.72,9.2,9.2,0,0,1-3.24.72c-1.64,0-2.54-.94-2.54-2.75s.9-2.49,2.76-2.67l2.82-.27V466c0-1.26-.54-1.71-1.62-1.71-1.26,0-3.4.23-3.4.23l-.05-1a22.1,22.1,0,0,1,3.52-.39c2,0,2.9.93,2.9,2.9Zm-4-2.56c-1.1.11-1.53.63-1.53,1.62s.45,1.66,1.37,1.66a9.47,9.47,0,0,0,2.82-.56v-3Z" fill="#3a3d3f"/><path d="M53.85,463.32h1.33v1.22a10.06,10.06,0,0,1,3.29-1.42v1.37a13,13,0,0,0-3.27,1.22v6.61H53.85Z" fill="#3a3d3f"/><path d="M59.68,473.83c0-1,.48-1.53,1.42-2.23a1.47,1.47,0,0,1-.5-1.24,5.82,5.82,0,0,1,.61-1.42,2.63,2.63,0,0,1-1.43-2.72c0-2.22,1.37-3.08,3.37-3.08a9.43,9.43,0,0,1,1.87.23l2.67-.07v1.15l-1.71,0a2.34,2.34,0,0,1,.59,1.8c0,2.34-1.17,3-3.47,3-.18,0-.69,0-.88-.07a5.3,5.3,0,0,0-.33,1c0,.72.15.83,2.18.83,2.56,0,3.48.51,3.48,2.65s-1.46,2.86-4,2.86C60.7,476.55,59.68,475.92,59.68,473.83ZM62,472.14c-.76.56-1,.88-1,1.59,0,1.24.52,1.69,2.56,1.69,1.8,0,2.61-.49,2.61-1.68,0-1.37-.58-1.51-2.22-1.51C63.33,472.23,62,472.14,62,472.14Zm3.2-5.92c0-1.43-.56-2-2.07-2s-2,.55-2,2,.61,2,2,2S65.22,467.64,65.22,466.22Z" fill="#3a3d3f"/><path d="M69.33,459.72h1.35v1.56H69.33Zm0,3.6h1.35v9H69.33Z" fill="#3a3d3f"/><path d="M73.27,472.32v-9H74.6V464a6.85,6.85,0,0,1,2.79-.81c2.48,0,3,1.22,3,4.43v4.75H79.1V467.6c0-2.37-.27-3.26-1.94-3.26a6.12,6.12,0,0,0-2.54.67v7.31Z" fill="#3a3d3f"/><path d="M82.54,473.83c0-1,.48-1.53,1.42-2.23a1.47,1.47,0,0,1-.51-1.24,5.78,5.78,0,0,1,.62-1.42,2.63,2.63,0,0,1-1.43-2.72c0-2.22,1.37-3.08,3.37-3.08a9.43,9.43,0,0,1,1.87.23l2.67-.07v1.15l-1.71,0a2.34,2.34,0,0,1,.59,1.8c0,2.34-1.17,3-3.47,3-.18,0-.69,0-.88-.07a5.3,5.3,0,0,0-.33,1c0,.72.14.83,2.18.83,2.56,0,3.47.51,3.47,2.65s-1.45,2.86-4,2.86C83.56,476.55,82.54,475.92,82.54,473.83Zm2.34-1.69c-.76.56-1,.88-1,1.59,0,1.24.52,1.69,2.56,1.69,1.8,0,2.61-.49,2.61-1.68,0-1.37-.58-1.51-2.22-1.51C86.19,472.23,84.88,472.14,84.88,472.14Zm3.2-5.92c0-1.43-.56-2-2.07-2s-2,.55-2,2,.62,2,2,2S88.08,467.64,88.08,466.22Z" fill="#3a3d3f"/><path d="M97.94,464.49v4.3c0,2,.13,2.52,1.3,2.52.51,0,1.6-.11,1.6-.11l.09,1.12a15.44,15.44,0,0,1-1.83.2c-1.86,0-2.49-.7-2.49-3.3v-4.73H95.33v-1.17h1.28v-2.76h1.33v2.76h2.87v1.17Z" fill="#3a3d3f"/><path d="M102.46,472.32V459.39h1.35v4.43a7.65,7.65,0,0,1,2.78-.68c2.46,0,3,1.22,3,4.43v4.75h-1.35V467.6c0-2.37-.27-3.26-1.93-3.26a7.41,7.41,0,0,0-2.54.54v7.44Z" fill="#3a3d3f"/><path d="M112.13,459.72h1.35v1.56h-1.35Zm0,3.6h1.35v9h-1.35Z" fill="#3a3d3f"/><path d="M122.05,464.63a29.33,29.33,0,0,0-3.15-.29c-1.12,0-2,.31-2,1.37,0,.85.44,1.08,2.35,1.41,2.25.38,3.09.82,3.09,2.57,0,2.11-1.33,2.81-3.49,2.81a25.65,25.65,0,0,1-3.17-.34l.07-1.17s2.06.3,3,.3c1.48,0,2.27-.32,2.27-1.54,0-.94-.47-1.17-2.43-1.48s-3-.7-3-2.5c0-2,1.6-2.63,3.24-2.63a23.19,23.19,0,0,1,3.26.34Z" fill="#3a3d3f"/><path d="M129,463.32l2.1,7.83h.67l2.18-7.83h1.38l-2.54,9h-2.7l-2.53-9Z" fill="#3a3d3f"/><path d="M143.7,471.15l0,1.06a31.12,31.12,0,0,1-3.51.29c-2.68,0-3.57-1.57-3.57-4.63,0-3.42,1.48-4.73,3.77-4.73s3.62,1.26,3.62,4.21l-.08,1H138c0,1.92.6,2.93,2.36,2.93C141.74,471.31,143.7,471.15,143.7,471.15Zm-1-3.85c0-2.24-.68-3-2.26-3s-2.4.85-2.42,3Z" fill="#3a3d3f"/><path d="M146.15,472.32V459.39h1.35v4.43a7.64,7.64,0,0,1,2.77-.68c2.47,0,3,1.22,3,4.43v4.75H152V467.6c0-2.37-.28-3.26-1.93-3.26a7.41,7.41,0,0,0-2.54.54v7.44Z" fill="#3a3d3f"/><path d="M155.82,459.72h1.35v1.56h-1.35Zm0,3.6h1.35v9h-1.35Z" fill="#3a3d3f"/><path d="M165.57,463.41l0,1.1s-1.44-.17-2.13-.17c-2.07,0-2.62.9-2.62,3.32,0,2.66.41,3.63,2.64,3.63.69,0,2.13-.16,2.13-.16l.05,1.12a24,24,0,0,1-2.5.25c-2.86,0-3.71-1.31-3.71-4.84,0-3.26,1.06-4.52,3.74-4.52A20.89,20.89,0,0,1,165.57,463.41Z" fill="#3a3d3f"/><path d="M167.71,459.39h1.35v12.93h-1.35Z" fill="#3a3d3f"/><path d="M178.41,471.15l0,1.06a31.12,31.12,0,0,1-3.51.29c-2.68,0-3.56-1.57-3.56-4.63,0-3.42,1.47-4.73,3.76-4.73s3.62,1.26,3.62,4.21l-.07,1h-6c0,1.92.6,2.93,2.36,2.93C176.44,471.31,178.41,471.15,178.41,471.15Zm-1-3.85c0-2.24-.69-3-2.27-3s-2.4.85-2.41,3Z" fill="#3a3d3f"/><path d="M191.73,472.32h-1.34v-.61a6.42,6.42,0,0,1-2.73.79c-1.77,0-3.24-.72-3.24-4.61,0-3.17,1-4.75,3.76-4.75a15.79,15.79,0,0,1,2.21.23v-4h1.34Zm-1.34-1.69v-6.11a15.89,15.89,0,0,0-2.14-.21c-1.89,0-2.45,1.24-2.45,3.58,0,2.92,1,3.4,2,3.4A6.54,6.54,0,0,0,190.39,470.63Z" fill="#3a3d3f"/><path d="M201.64,467.71c0,3.28-.81,4.79-3.85,4.79s-3.85-1.51-3.85-4.79c0-3.1,1-4.57,3.85-4.57S201.64,464.61,201.64,467.71Zm-1.38,0c0-2.5-.54-3.4-2.47-3.4s-2.47.9-2.47,3.4.35,3.62,2.47,3.62S200.26,470.27,200.26,467.71Z" fill="#3a3d3f"/><path d="M210.48,471.15l0,1.06a31.12,31.12,0,0,1-3.51.29c-2.69,0-3.57-1.57-3.57-4.63,0-3.42,1.48-4.73,3.76-4.73s3.62,1.26,3.62,4.21l-.07,1h-5.94c0,1.92.59,2.93,2.36,2.93C208.52,471.31,210.48,471.15,210.48,471.15Zm-1-3.85c0-2.24-.68-3-2.27-3s-2.39.85-2.41,3Z" fill="#3a3d3f"/><path d="M218.91,464.63a29.33,29.33,0,0,0-3.16-.29c-1.11,0-2,.31-2,1.37,0,.85.43,1.08,2.34,1.41,2.25.38,3.1.82,3.1,2.57,0,2.11-1.33,2.81-3.49,2.81a25.4,25.4,0,0,1-3.17-.34l.07-1.17s2.05.3,3,.3c1.48,0,2.27-.32,2.27-1.54,0-.94-.47-1.17-2.43-1.48s-3-.7-3-2.5c0-2,1.6-2.63,3.24-2.63a23.19,23.19,0,0,1,3.26.34Z" fill="#3a3d3f"/><path d="M225.26,472.32v-9h1.33V464a6.85,6.85,0,0,1,2.79-.81c2.49,0,3,1.22,3,4.43v4.75h-1.33V467.6c0-2.37-.27-3.26-1.94-3.26a6.12,6.12,0,0,0-2.54.67v7.31Z" fill="#3a3d3f"/><path d="M242.23,467.71c0,3.28-.81,4.79-3.85,4.79s-3.85-1.51-3.85-4.79c0-3.1,1-4.57,3.85-4.57S242.23,464.61,242.23,467.71Zm-1.38,0c0-2.5-.54-3.4-2.47-3.4s-2.47.9-2.47,3.4.35,3.62,2.47,3.62S240.85,470.27,240.85,467.71Z" fill="#3a3d3f"/><path d="M246.23,464.49v4.3c0,2,.12,2.52,1.29,2.52.51,0,1.61-.11,1.61-.11l.09,1.12a15.71,15.71,0,0,1-1.84.2c-1.85,0-2.48-.7-2.48-3.3v-4.73h-1.28v-1.17h1.28v-2.76h1.33v2.76h2.86v1.17Z" fill="#3a3d3f"/><path d="M260.52,463.41l0,1.1s-1.44-.17-2.13-.17c-2.07,0-2.63.9-2.63,3.32,0,2.66.42,3.63,2.65,3.63.69,0,2.13-.16,2.13-.16l.05,1.12a24,24,0,0,1-2.5.25c-2.87,0-3.71-1.31-3.71-4.84,0-3.26,1.06-4.52,3.74-4.52A20.89,20.89,0,0,1,260.52,463.41Z" fill="#3a3d3f"/><path d="M269.86,467.71c0,3.28-.81,4.79-3.85,4.79s-3.85-1.51-3.85-4.79c0-3.1,1-4.57,3.85-4.57S269.86,464.61,269.86,467.71Zm-1.38,0c0-2.5-.54-3.4-2.47-3.4s-2.47.9-2.47,3.4.35,3.62,2.47,3.62S268.48,470.27,268.48,467.71Z" fill="#3a3d3f"/><path d="M272.06,472.32v-9h1.33V464a6,6,0,0,1,2.63-.81,2.53,2.53,0,0,1,2.34.92,7.46,7.46,0,0,1,3.2-.92c2.45,0,3.05,1.17,3.05,4.43v4.75h-1.35V467.6c0-2.37-.27-3.26-1.89-3.26a5.89,5.89,0,0,0-2.54.67,10.34,10.34,0,0,1,.23,2.63v4.68h-1.35v-4.64c0-2.49-.25-3.34-1.89-3.34a5.34,5.34,0,0,0-2.41.67v7.31Z" fill="#3a3d3f"/><path d="M287.1,463.32h1.34V464a6.12,6.12,0,0,1,2.7-.83c2.27,0,3.26,1.38,3.26,4.57,0,3.53-1.15,4.79-3.93,4.79a11,11,0,0,1-2-.2v4H287.1Zm1.36,1.74v6.07a12.78,12.78,0,0,0,1.94.2c2,0,2.63-1,2.63-3.62s-.77-3.37-2.09-3.37A5.86,5.86,0,0,0,288.46,465.06Z" fill="#3a3d3f"/><path d="M296.59,463.32h1.33v1.22a10.17,10.17,0,0,1,3.3-1.42v1.37a13.15,13.15,0,0,0-3.28,1.22v6.61h-1.35Z" fill="#3a3d3f"/><path d="M310.13,467.71c0,3.28-.81,4.79-3.85,4.79s-3.86-1.51-3.86-4.79c0-3.1,1-4.57,3.86-4.57S310.13,464.61,310.13,467.71Zm-1.39,0c0-2.5-.54-3.4-2.46-3.4s-2.47.9-2.47,3.4.34,3.62,2.47,3.62S308.74,470.27,308.74,467.71Z" fill="#3a3d3f"/><path d="M312.32,472.32v-9h1.34V464a6,6,0,0,1,2.62-.81,2.55,2.55,0,0,1,2.35.92,7.46,7.46,0,0,1,3.2-.92c2.45,0,3,1.17,3,4.43v4.75h-1.35V467.6c0-2.37-.27-3.26-1.89-3.26a6,6,0,0,0-2.54.67,9.8,9.8,0,0,1,.24,2.63v4.68H318v-4.64c0-2.49-.25-3.34-1.89-3.34a5.4,5.4,0,0,0-2.42.67v7.31Z" fill="#3a3d3f"/><path d="M327.37,459.72h1.35v1.56h-1.35Zm0,3.6h1.35v9h-1.35Z" fill="#3a3d3f"/><path d="M337.29,464.63a29.33,29.33,0,0,0-3.15-.29c-1.12,0-2,.31-2,1.37,0,.85.43,1.08,2.34,1.41,2.25.38,3.1.82,3.1,2.57,0,2.11-1.34,2.81-3.5,2.81a25.65,25.65,0,0,1-3.17-.34L331,471s2.06.3,3,.3c1.47,0,2.27-.32,2.27-1.54,0-.94-.47-1.17-2.44-1.48s-3-.7-3-2.5c0-2,1.6-2.63,3.24-2.63a23.19,23.19,0,0,1,3.26.34Z" fill="#3a3d3f"/><path d="M346.33,471.15l0,1.06a31.12,31.12,0,0,1-3.51.29c-2.68,0-3.56-1.57-3.56-4.63,0-3.42,1.47-4.73,3.76-4.73s3.62,1.26,3.62,4.21l-.07,1h-5.94c0,1.92.59,2.93,2.35,2.93C344.36,471.31,346.33,471.15,346.33,471.15Zm-1-3.85c0-2.24-.68-3-2.27-3s-2.39.85-2.41,3Z" fill="#3a3d3f"/><path d="M352.73,459.72h1.35v1.56h-1.35Zm0,3.6h1.35v9h-1.35Z" fill="#3a3d3f"/><path d="M358.48,464.49v4.3c0,2,.12,2.52,1.29,2.52.51,0,1.6-.11,1.6-.11l.09,1.12a15.44,15.44,0,0,1-1.83.2c-1.86,0-2.49-.7-2.49-3.3v-4.73h-1.28v-1.17h1.28v-2.76h1.34v2.76h2.86v1.17Z" fill="#3a3d3f"/><path d="M369,464.63a29.33,29.33,0,0,0-3.15-.29c-1.12,0-2,.31-2,1.37,0,.85.43,1.08,2.34,1.41,2.25.38,3.1.82,3.1,2.57,0,2.11-1.34,2.81-3.5,2.81a25.65,25.65,0,0,1-3.17-.34l.07-1.17s2.06.3,3,.3c1.47,0,2.26-.32,2.26-1.54,0-.94-.46-1.17-2.43-1.48s-3-.7-3-2.5c0-2,1.6-2.63,3.24-2.63a23.19,23.19,0,0,1,3.26.34Z" fill="#3a3d3f"/><path d="M375.32,463.32h1.34v1.22a10.06,10.06,0,0,1,3.29-1.42v1.37a13.15,13.15,0,0,0-3.28,1.22v6.61h-1.35Z" fill="#3a3d3f"/><path d="M388.19,471.15l0,1.06a31.12,31.12,0,0,1-3.51.29c-2.68,0-3.57-1.57-3.57-4.63,0-3.42,1.48-4.73,3.77-4.73s3.62,1.26,3.62,4.21l-.08,1h-5.94c0,1.92.6,2.93,2.36,2.93C386.23,471.31,388.19,471.15,388.19,471.15Zm-1-3.85c0-2.24-.69-3-2.27-3s-2.4.85-2.41,3Z" fill="#3a3d3f"/><path d="M390.24,473.83c0-1,.49-1.53,1.43-2.23a1.45,1.45,0,0,1-.51-1.24,5.82,5.82,0,0,1,.61-1.42,2.64,2.64,0,0,1-1.42-2.72c0-2.22,1.37-3.08,3.37-3.08a9.43,9.43,0,0,1,1.87.23l2.67-.07v1.15l-1.71,0a2.34,2.34,0,0,1,.59,1.8c0,2.34-1.17,3-3.47,3-.18,0-.69,0-.89-.07a5.42,5.42,0,0,0-.32,1c0,.72.14.83,2.18.83,2.55,0,3.47.51,3.47,2.65s-1.46,2.86-4,2.86C391.27,476.55,390.24,475.92,390.24,473.83Zm2.35-1.69c-.76.56-1,.88-1,1.59,0,1.24.52,1.69,2.55,1.69,1.8,0,2.61-.49,2.61-1.68,0-1.37-.57-1.51-2.21-1.51C393.9,472.23,392.59,472.14,392.59,472.14Zm3.2-5.92c0-1.43-.56-2-2.07-2s-2,.55-2,2,.61,2,2,2S395.79,467.64,395.79,466.22Z" fill="#3a3d3f"/><path d="M406.86,463.32v9h-1.35v-.63a6.07,6.07,0,0,1-2.66.81c-2.53,0-3.05-1.17-3.05-4.48v-4.7h1.35V468c0,2.48.22,3.29,1.89,3.29a5.48,5.48,0,0,0,2.47-.66v-7.31Z" fill="#3a3d3f"/><path d="M409.56,459.39h1.35v12.93h-1.35Z" fill="#3a3d3f"/><path d="M420,470.65c0,.52.47.72,1.05.79L421,472.5a2.75,2.75,0,0,1-2.14-.72,9.2,9.2,0,0,1-3.24.72c-1.64,0-2.54-.94-2.54-2.75s.9-2.49,2.76-2.67l2.82-.27V466c0-1.26-.54-1.71-1.62-1.71-1.26,0-3.4.23-3.4.23l0-1a22.13,22.13,0,0,1,3.53-.39c2,0,2.89.93,2.89,2.9Zm-4-2.56c-1.1.11-1.53.63-1.53,1.62s.45,1.66,1.37,1.66a9.47,9.47,0,0,0,2.82-.56v-3Z" fill="#3a3d3f"/><path d="M422.63,463.32H424v1.22a10.06,10.06,0,0,1,3.29-1.42v1.37a13,13,0,0,0-3.27,1.22v6.61h-1.35Z" fill="#3a3d3f"/><path d="M432.81,472.32v-9h1.34V464a6,6,0,0,1,2.62-.81,2.55,2.55,0,0,1,2.35.92,7.46,7.46,0,0,1,3.2-.92c2.45,0,3,1.17,3,4.43v4.75H444V467.6c0-2.37-.27-3.26-1.89-3.26a6,6,0,0,0-2.54.67,9.8,9.8,0,0,1,.24,2.63v4.68h-1.35v-4.64c0-2.49-.25-3.34-1.89-3.34a5.4,5.4,0,0,0-2.42.67v7.31Z" fill="#3a3d3f"/><path d="M454.22,470.65c0,.52.46.72,1,.79l-.05,1.06a2.76,2.76,0,0,1-2.15-.72,9.2,9.2,0,0,1-3.24.72c-1.64,0-2.54-.94-2.54-2.75s.9-2.49,2.76-2.67l2.83-.27V466c0-1.26-.54-1.71-1.62-1.71-1.26,0-3.41.23-3.41.23l0-1a22.13,22.13,0,0,1,3.53-.39c2,0,2.9.93,2.9,2.9Zm-4-2.56c-1.1.11-1.53.63-1.53,1.62s.45,1.66,1.37,1.66a9.57,9.57,0,0,0,2.83-.56v-3Z" fill="#3a3d3f"/><path d="M456.88,459.72h1.35v1.56h-1.35Zm0,3.6h1.35v9h-1.35Z" fill="#3a3d3f"/><path d="M460.82,472.32v-9h1.33V464a6.85,6.85,0,0,1,2.79-.81c2.49,0,3.05,1.22,3.05,4.43v4.75h-1.34V467.6c0-2.37-.26-3.26-1.94-3.26a6.12,6.12,0,0,0-2.54.67v7.31Z" fill="#3a3d3f"/><path d="M472.29,464.49v4.3c0,2,.12,2.52,1.29,2.52.51,0,1.61-.11,1.61-.11l.09,1.12a15.71,15.71,0,0,1-1.84.2c-1.85,0-2.48-.7-2.48-3.3v-4.73h-1.28v-1.17H471v-2.76h1.33v2.76h2.86v1.17Z" fill="#3a3d3f"/><path d="M483.45,471.15l0,1.06a31.4,31.4,0,0,1-3.52.29c-2.68,0-3.56-1.57-3.56-4.63,0-3.42,1.48-4.73,3.76-4.73s3.62,1.26,3.62,4.21l-.07,1h-5.94c0,1.92.59,2.93,2.36,2.93C481.49,471.31,483.45,471.15,483.45,471.15Zm-1-3.85c0-2.24-.68-3-2.27-3s-2.39.85-2.41,3Z" fill="#3a3d3f"/><path d="M485.9,472.32v-9h1.33V464a6.85,6.85,0,0,1,2.79-.81c2.48,0,3,1.22,3,4.43v4.75h-1.33V467.6c0-2.37-.27-3.26-2-3.26a6.11,6.11,0,0,0-2.53.67v7.31Z" fill="#3a3d3f"/><path d="M501.92,470.65c0,.52.47.72,1,.79l0,1.06a2.74,2.74,0,0,1-2.14-.72,9.29,9.29,0,0,1-3.25.72c-1.63,0-2.53-.94-2.53-2.75s.9-2.49,2.75-2.67l2.83-.27V466c0-1.26-.54-1.71-1.62-1.71-1.26,0-3.41.23-3.41.23l-.05-1a22.13,22.13,0,0,1,3.53-.39c2,0,2.9.93,2.9,2.9Zm-4-2.56c-1.1.11-1.53.63-1.53,1.62s.45,1.66,1.37,1.66a9.57,9.57,0,0,0,2.83-.56v-3Z" fill="#3a3d3f"/><path d="M504.58,472.32v-9h1.33V464a6.85,6.85,0,0,1,2.79-.81c2.49,0,3.05,1.22,3.05,4.43v4.75h-1.34V467.6c0-2.37-.27-3.26-1.94-3.26a6.12,6.12,0,0,0-2.54.67v7.31Z" fill="#3a3d3f"/><path d="M520.06,463.41l0,1.1s-1.44-.17-2.13-.17c-2.07,0-2.63.9-2.63,3.32,0,2.66.42,3.63,2.65,3.63.68,0,2.12-.16,2.12-.16l.06,1.12a24.28,24.28,0,0,1-2.5.25c-2.87,0-3.71-1.31-3.71-4.84,0-3.26,1.06-4.52,3.74-4.52A20.89,20.89,0,0,1,520.06,463.41Z" fill="#3a3d3f"/><path d="M528.74,471.15l0,1.06a31.12,31.12,0,0,1-3.51.29c-2.68,0-3.56-1.57-3.56-4.63,0-3.42,1.47-4.73,3.76-4.73s3.62,1.26,3.62,4.21l-.07,1h-6c0,1.92.6,2.93,2.36,2.93C526.77,471.31,528.74,471.15,528.74,471.15Zm-1-3.85c0-2.24-.69-3-2.27-3s-2.4.85-2.41,3Z" fill="#3a3d3f"/><path d="M531.09,470.27h1.48v2.05h-1.48Z" fill="#3a3d3f"/><line x1="26.65" y1="51.75" x2="526.24" y2="51.75" fill="none" stroke="#a2a7aa" stroke-miterlimit="10"/><path d="M53.36,232.41H49.19v-.78l2.45-6.13h1.09l-2.48,6h3.11v-2.68h1v2.68h1.09v.88H54.36v1.68h-1Z" fill="#4c4c4c"/><path d="M32.58,219c0,3.63-1.28,4.73-3.44,4.73s-3.45-1.07-3.45-4.71c0-3.9,1.26-5,3.44-5S32.58,215.15,32.58,219Zm-5.75,0c0,3,.82,3.74,2.31,3.74s2.31-.79,2.31-3.76c0-3.18-.73-4-2.31-4S26.83,215.83,26.83,219.06Z" fill="#4c4c4c"/><path d="M26.12,195V194l2.76-2.91c1.18-1.22,1.91-2,1.91-3.11s-.71-1.66-2.07-1.66a14.07,14.07,0,0,0-2.45.31l-.08-.91a11.35,11.35,0,0,1,2.73-.39c2,0,3,.76,3,2.53,0,1.42-.65,2.25-2,3.54L27.42,194h4.74v1Z" fill="#4c4c4c"/><path d="M30.29,163.44H25.7v-.86l2.69-6.75H29.6l-2.74,6.64h3.43v-2.95h1.1v2.95h1.2v1h-1.2v1.85h-1.1Z" fill="#4c4c4c"/><path d="M32,127.16a22.13,22.13,0,0,0-2.49-.17c-1.65,0-2.55,1.17-2.55,3.26a8.16,8.16,0,0,1,2.36-.56c2.1,0,3.19.95,3.19,2.94s-1.21,3.13-3.31,3.13c-2.35,0-3.39-1.85-3.39-4.92,0-3.42,1.45-4.83,3.7-4.83a17.28,17.28,0,0,1,2.59.25ZM27,131.23c0,2,.61,3.55,2.25,3.55a1.94,1.94,0,0,0,2.16-2.15c0-1.32-.79-1.95-2.11-1.95A6.51,6.51,0,0,0,27,131.23Z" fill="#4c4c4c"/><path d="M126.13,227.61a1.91,1.91,0,0,1-1.43,2,2.15,2.15,0,0,1,1.56,2.16c0,1.89-1.46,2.46-3.24,2.46s-3.2-.54-3.2-2.32a2.29,2.29,0,0,1,1.48-2.3,2,2,0,0,1-1.34-2c0-1.48,1.18-2.23,3.06-2.23S126.13,226.1,126.13,227.61Zm-.94,4.06c0-1-.66-1.32-1.52-1.57H122.3c-.89.25-1.41.69-1.41,1.65,0,1.19.91,1.58,2.13,1.58S125.19,232.94,125.19,231.67ZM121,227.72c0,.79.43,1.21,1.27,1.51h1.37c.89-.29,1.39-.71,1.39-1.5,0-1-.76-1.44-2-1.44S121,226.69,121,227.72Z" fill="#4c4c4c"/><path d="M194.26,225.52h.93v8.59h-1v-7.47L192,228.09l-.46-.75Z" fill="#4c4c4c"/><path d="M198.32,234.11v-.85l2.51-2.64c1.07-1.11,1.73-1.81,1.73-2.82s-.64-1.51-1.87-1.51a12.85,12.85,0,0,0-2.23.28l-.08-.83a10.5,10.5,0,0,1,2.49-.35c1.81,0,2.72.69,2.72,2.3,0,1.29-.59,2-1.8,3.22l-2.29,2.33h4.31v.87Z" fill="#4c4c4c"/><path d="M273,225.52H274v8.59h-1v-7.47l-2.22,1.45-.45-.75Z" fill="#4c4c4c"/><path d="M282.45,226.43a19.42,19.42,0,0,0-2.27-.16c-1.49,0-2.31,1.07-2.31,3a7.13,7.13,0,0,1,2.14-.51c1.9,0,2.89.86,2.89,2.67s-1.09,2.84-3,2.84c-2.14,0-3.08-1.68-3.08-4.47,0-3.11,1.32-4.38,3.36-4.38a16.16,16.16,0,0,1,2.36.22Zm-4.6,3.7c0,1.83.56,3.22,2,3.22a1.76,1.76,0,0,0,2-1.95c0-1.2-.71-1.77-1.91-1.77A6,6,0,0,0,277.85,230.13Z" fill="#4c4c4c"/><path d="M348.54,234.11v-.85l2.51-2.64c1.07-1.11,1.73-1.81,1.73-2.82s-.64-1.51-1.87-1.51a12.85,12.85,0,0,0-2.23.28l-.08-.83a10.5,10.5,0,0,1,2.49-.35c1.81,0,2.72.69,2.72,2.3,0,1.29-.59,2-1.8,3.22l-2.29,2.33H354v.87Z" fill="#4c4c4c"/><path d="M361.7,229.94c0,3.3-1.16,4.3-3.13,4.3s-3.13-1-3.13-4.28c0-3.54,1.14-4.59,3.12-4.59S361.7,226.4,361.7,229.94Zm-5.22,0c0,2.69.74,3.39,2.09,3.39s2.1-.71,2.1-3.41c0-2.89-.67-3.67-2.1-3.67S356.48,227,356.48,230Z" fill="#4c4c4c"/><path d="M460.78,234.11v-.85l2.51-2.64c1.07-1.11,1.73-1.81,1.73-2.82s-.63-1.51-1.87-1.51a12.85,12.85,0,0,0-2.23.28l-.07-.83a10.37,10.37,0,0,1,2.48-.35c1.81,0,2.72.69,2.72,2.3,0,1.29-.58,2-1.79,3.22L462,233.24h4.3v.87Z" fill="#4c4c4c"/><path d="M471.86,232.43h-4.17v-.78l2.45-6.13h1.09l-2.48,6h3.11v-2.68h1v2.68H474v.89h-1.09v1.68h-1Z" fill="#4c4c4c"/><line x1="45.94" y1="120.09" x2="45.94" y2="227.05" fill="none" stroke="#adadad" stroke-miterlimit="10"/><line x1="475.94" y1="218.86" x2="36.21" y2="218.86" fill="none" stroke="#adadad" stroke-miterlimit="10"/><g style="isolation:isolate"><rect x="84.65" y="142.18" width="12.91" height="75.95" fill="#76ce89"/><g clip-path="url(#clip-path)"><polygon points="84.88 218.13 84.65 142.23 97.34 142.18 97.56 218.07 84.88 218.13" fill="#76ce89"/></g></g><g style="isolation:isolate"><rect x="101.84" y="142.18" width="12.91" height="75.95" fill="#76ce89"/><g clip-path="url(#clip-path-2)"><polygon points="102.07 218.13 101.84 142.23 114.53 142.18 114.76 218.07 102.07 218.13" fill="#76ce89"/></g></g><g style="isolation:isolate"><rect x="119.03" y="148.81" width="12.89" height="69.31" fill="#76ce89"/><g clip-path="url(#clip-path-3)"><polygon points="119.24 218.13 119.03 148.86 131.72 148.81 131.93 218.07 119.24 218.13" fill="#76ce89"/></g></g><g style="isolation:isolate"><rect x="136.21" y="148.82" width="12.89" height="69.3" fill="#76ce89"/><g clip-path="url(#clip-path-4)"><polygon points="136.41 218.13 136.21 148.88 148.89 148.82 149.1 218.07 136.41 218.13" fill="#76ce89"/></g></g><g style="isolation:isolate"><rect x="153.38" y="162.65" width="12.88" height="55.48" fill="#76ce89"/><g clip-path="url(#clip-path-5)"><rect x="153.47" y="162.67" width="12.69" height="55.43" transform="translate(-0.66 0.56) rotate(-0.2)" fill="#76ce89"/></g></g><rect x="170.54" y="174.67" width="12.87" height="43.45" fill="#ffda00"/><g clip-path="url(#clip-path-6)"><rect x="170.63" y="174.7" width="12.68" height="43.41" transform="translate(-0.81 0.74) rotate(-0.24)" fill="#ffda00"/></g><rect x="187.68" y="183.1" width="12.87" height="35.02" fill="#ffda00"/><g clip-path="url(#clip-path-7)"><polygon points="187.86 218.13 187.68 183.13 200.37 183.1 200.55 218.09 187.86 218.13" fill="#ffda00"/></g><rect x="204.83" y="153.24" width="12.82" height="64.89" fill="#76ce89"/><g clip-path="url(#clip-path-8)"><polygon points="204.96 218.13 204.82 153.31 217.51 153.23 217.65 218.05 204.96 218.13" fill="#76ce89"/></g><rect x="221.93" y="157.67" width="12.8" height="60.45" fill="#76ce89"/><g clip-path="url(#clip-path-9)"><polygon points="222.04 218.13 221.93 157.75 234.61 157.66 234.73 218.04 222.04 218.13" fill="#76ce89"/></g><rect x="239.01" y="158.07" width="12.79" height="60.05" fill="#76ce89"/><g clip-path="url(#clip-path-10)"><polygon points="239.12 218.13 239.01 158.17 251.69 158.08 251.8 218.03 239.12 218.13" fill="#76ce89"/></g><g style="isolation:isolate"><rect x="256.08" y="159.87" width="12.88" height="58.25" fill="#76ce89"/><g clip-path="url(#clip-path-11)"><rect x="256.18" y="159.89" width="12.69" height="58.21" transform="translate(-0.63 0.88) rotate(-0.19)" fill="#76ce89"/></g></g><g style="isolation:isolate"><rect x="273.24" y="159.87" width="12.87" height="58.25" fill="#76ce89"/><g clip-path="url(#clip-path-12)"><polygon points="273.42 218.13 273.24 159.92 285.92 159.87 286.1 218.07 273.42 218.13" fill="#76ce89"/></g></g><g style="isolation:isolate"><rect x="290.38" y="165.29" width="12.86" height="52.83" fill="#76ce89"/><g clip-path="url(#clip-path-13)"><rect x="290.47" y="165.31" width="12.69" height="52.79" transform="translate(-0.65 1.01) rotate(-0.2)" fill="#76ce89"/></g></g><g style="isolation:isolate"><rect x="307.52" y="167.77" width="12.86" height="50.35" fill="#76ce89"/><g clip-path="url(#clip-path-14)"><rect x="307.6" y="167.8" width="12.69" height="50.3" transform="translate(-0.67 1.09) rotate(-0.2)" fill="#76ce89"/></g></g><g style="isolation:isolate"><rect x="324.66" y="168.73" width="12.86" height="49.39" fill="#76ce89"/><g clip-path="url(#clip-path-15)"><rect x="324.74" y="168.76" width="12.69" height="49.34" transform="translate(-0.68 1.17) rotate(-0.2)" fill="#76ce89"/></g></g><g style="isolation:isolate"><rect x="341.79" y="170.82" width="12.83" height="47.3" fill="#76ce89"/><g clip-path="url(#clip-path-16)"><polygon points="341.94 218.13 341.79 170.87 354.48 170.81 354.62 218.07 341.94 218.13" fill="#76ce89"/></g></g><g style="isolation:isolate"><rect x="358.9" y="170.82" width="12.83" height="47.3" fill="#76ce89"/><g clip-path="url(#clip-path-17)"><polygon points="359.05 218.13 358.9 170.87 371.58 170.81 371.73 218.07 359.05 218.13" fill="#76ce89"/></g></g><g style="isolation:isolate"><rect x="376.01" y="170.82" width="12.83" height="47.3" fill="#76ce89"/><g clip-path="url(#clip-path-18)"><polygon points="376.16 218.13 376.01 170.87 388.69 170.81 388.84 218.07 376.16 218.13" fill="#76ce89"/></g></g><g style="isolation:isolate"><rect x="393.12" y="173.16" width="12.83" height="44.97" fill="#76ce89"/><g clip-path="url(#clip-path-19)"><rect x="393.19" y="173.18" width="12.69" height="44.92" transform="translate(-0.64 1.31) rotate(-0.19)" fill="#76ce89"/></g></g><g style="isolation:isolate"><rect x="410.23" y="173.16" width="12.82" height="44.97" fill="#76ce89"/><g clip-path="url(#clip-path-20)"><polygon points="410.37 218.13 410.23 173.22 422.92 173.16 423.06 218.07 410.37 218.13" fill="#76ce89"/></g></g><g style="isolation:isolate"><rect x="427.33" y="173.16" width="12.81" height="44.97" fill="#76ce89"/><g clip-path="url(#clip-path-21)"><polygon points="427.46 218.13 427.33 173.21 440.01 173.15 440.15 218.07 427.46 218.13" fill="#76ce89"/></g></g><g style="isolation:isolate"><rect x="444.42" y="177.58" width="12.8" height="40.54" fill="#76ce89"/><g clip-path="url(#clip-path-22)"><polygon points="444.54 218.13 444.42 177.63 457.11 177.58 457.23 218.07 444.54 218.13" fill="#76ce89"/></g></g><g style="isolation:isolate"><g clip-path="url(#clip-path-23)"><polygon points="461.61 218.13 461.51 183.16 474.19 183.1 474.3 218.07 461.61 218.13" fill="#ffda00"/></g></g><g style="isolation:isolate"><rect x="67.44" y="136.64" width="12.93" height="81.53" fill="#76ce89"/><g clip-path="url(#clip-path-24)"><polygon points="67.69 218.18 67.44 136.7 80.13 136.65 80.37 218.13 67.69 218.18" fill="#76ce89"/></g></g><g style="isolation:isolate"><rect x="50.21" y="131.11" width="12.95" height="87.12" fill="#76ce89"/><g clip-path="url(#clip-path-25)"><polygon points="50.48 218.24 50.22 131.17 62.9 131.12 63.16 218.18 50.48 218.24" fill="#76ce89"/></g></g></g></g></svg>