<svg xmlns="http://www.w3.org/2000/svg" xmlns:xlink="http://www.w3.org/1999/xlink" viewBox="0 0 566.31 517.94"><defs><clipPath id="clip-path"><rect x="77.24" y="151.35" width="13.08" height="72.04" fill="#76ce89"/></clipPath><clipPath id="clip-path-2"><rect x="94.79" y="153.36" width="13.08" height="70.03" fill="#76ce89"/></clipPath><clipPath id="clip-path-3"><rect x="112.35" y="156.37" width="13.07" height="67.02" fill="#76ce89"/></clipPath><clipPath id="clip-path-4"><rect x="129.9" y="156.7" width="13.07" height="66.68" fill="#76ce89"/></clipPath><clipPath id="clip-path-5"><rect x="147.45" y="156.72" width="13.06" height="66.67" fill="#76ce89"/></clipPath><clipPath id="clip-path-6"><rect x="164.99" y="156.7" width="13.06" height="66.68" fill="#76ce89"/></clipPath><clipPath id="clip-path-7"><rect x="182.52" y="160.08" width="13.06" height="63.3" fill="#76ce89"/></clipPath><clipPath id="clip-path-8"><rect x="200.06" y="162.33" width="13.04" height="61.06" fill="#76ce89"/></clipPath><clipPath id="clip-path-9"><rect x="217.58" y="162.33" width="13.04" height="61.06" fill="#76ce89"/></clipPath><clipPath id="clip-path-10"><rect x="235.1" y="164.56" width="13.04" height="58.82" fill="#76ce89"/></clipPath><clipPath id="clip-path-11"><rect x="252.61" y="165.7" width="13.04" height="57.69" fill="#76ce89"/></clipPath><clipPath id="clip-path-12"><rect x="270.13" y="167.93" width="13.03" height="55.45" fill="#76ce89"/></clipPath><clipPath id="clip-path-13"><rect x="287.64" y="170.19" width="13.02" height="53.2" fill="#76ce89"/></clipPath><clipPath id="clip-path-14"><rect x="305.13" y="173.55" width="13.01" height="49.84" fill="#76ce89"/></clipPath><clipPath id="clip-path-15"><rect x="322.62" y="175.79" width="13" height="47.59" fill="#ffda00"/></clipPath><clipPath id="clip-path-16"><rect x="340.1" y="179.17" width="12.99" height="44.22" fill="#ffda00"/></clipPath><clipPath id="clip-path-17"><rect x="357.56" y="190.39" width="12.95" height="33" fill="none"/></clipPath><clipPath id="clip-path-18"><rect x="409.8" y="171.31" width="13.01" height="52.07" fill="#76ce89"/></clipPath><clipPath id="clip-path-19"><rect x="427.28" y="175.8" width="13" height="47.58" fill="#76ce89"/></clipPath><clipPath id="clip-path-20"><rect x="444.76" y="179.16" width="13" height="44.23" fill="#76ce89"/></clipPath><clipPath id="clip-path-21"><rect x="462.23" y="179.16" width="13" height="44.23" fill="#76ce89"/></clipPath><clipPath id="clip-path-22"><rect x="374.99" y="203.86" width="12.95" height="19.53" fill="#ff4200"/></clipPath><clipPath id="clip-path-23"><rect x="392.41" y="171.31" width="12.91" height="52.07" fill="#76ce89"/></clipPath><clipPath id="clip-path-24"><rect x="59.67" y="147.32" width="13.09" height="76.11" fill="#76ce89"/></clipPath><clipPath id="clip-path-25"><rect x="42.09" y="144.31" width="13.1" height="79.18" fill="#76ce89"/></clipPath></defs><title>r_1_A_Screen</title><g id="Layer_2" data-name="Layer 2">

<g id="AGV3_Sel_Box"><rect width="566.31" height="517.94" fill="rgba(0,0,0,0)"/></g>

<g id="Layer_1-2" data-name="Layer 1"><path d="M28,369.46h1.53l2.16,6.43,2.16-6.43h1.53v7.61h-.85v-6.71h-.16l-2.21,6.43h-.94L29,370.36h-.16v6.71H28Z" fill="#4c4c4c"/><path d="M41,376.05c0,.32.28.44.63.48l0,.65a1.69,1.69,0,0,1-1.31-.44,5.62,5.62,0,0,1-2,.44c-1,0-1.55-.57-1.55-1.68s.55-1.52,1.68-1.63l1.73-.17v-.47c0-.77-.33-1-1-1s-2.08.14-2.08.14l0-.63a13.41,13.41,0,0,1,2.15-.24c1.25,0,1.78.57,1.78,1.77Zm-2.46-1.57c-.67.07-.93.39-.93,1s.27,1,.83,1a5.82,5.82,0,0,0,1.73-.34v-1.82Z" fill="#4c4c4c"/><path d="M42.57,371.57h.82v.75a6.14,6.14,0,0,1,2-.87v.84a7.78,7.78,0,0,0-2,.74v4h-.83Z" fill="#4c4c4c"/><path d="M85.66,369.46h1.85l2.09,7.61h-.84l-.55-2H85l-.55,2h-.84Zm-.52,4.89H88l-1.16-4.17H86.3Z" fill="#4c4c4c"/><path d="M90.66,371.57h.81v.4a3.74,3.74,0,0,1,1.65-.51c1.39,0,2,.85,2,2.79,0,2.16-.7,2.93-2.4,2.93a7.5,7.5,0,0,1-1.23-.12v2.45h-.82Zm.82,1.07v3.7a7.27,7.27,0,0,0,1.19.12c1.21,0,1.61-.62,1.61-2.21S93.8,372.2,93,372.2A3.59,3.59,0,0,0,91.48,372.64Z" fill="#4c4c4c"/><path d="M96.45,371.57h.82v.75a6.14,6.14,0,0,1,2-.87v.84a7.61,7.61,0,0,0-2,.74v4h-.83Z" fill="#4c4c4c"/><path d="M139.48,376c0,1.65-.64,1.83-2.09,1.83v-.76c1,0,1.24-.06,1.24-1.2v-6.44h.84Z" fill="#4c4c4c"/><path d="M145.42,371.57v5.5h-.83v-.38a3.7,3.7,0,0,1-1.62.49c-1.55,0-1.86-.72-1.86-2.74v-2.87h.82v2.86c0,1.52.13,2,1.16,2a3.35,3.35,0,0,0,1.5-.4v-4.47Z" fill="#4c4c4c"/><path d="M147,377.07v-5.5h.82V372a4.14,4.14,0,0,1,1.7-.5c1.52,0,1.86.75,1.86,2.71v2.9h-.81v-2.88c0-1.45-.17-2-1.19-2a3.82,3.82,0,0,0-1.55.4v4.47Z" fill="#4c4c4c"/><path d="M192.13,376c0,1.65-.64,1.83-2.09,1.83v-.76c1,0,1.24-.06,1.24-1.2v-6.44h.84Z" fill="#4c4c4c"/><path d="M198.07,371.57v5.5h-.83v-.38a3.71,3.71,0,0,1-1.63.49c-1.54,0-1.85-.72-1.85-2.74v-2.87h.82v2.86c0,1.52.13,2,1.16,2a3.35,3.35,0,0,0,1.5-.4v-4.47Z" fill="#4c4c4c"/><path d="M199.72,369.17h.82v7.9h-.82Z" fill="#4c4c4c"/><path d="M241.48,369.46h1.85l2.09,7.61h-.84l-.55-2h-3.26l-.55,2h-.83Zm-.52,4.89h2.88l-1.15-4.17h-.57Z" fill="#4c4c4c"/><path d="M250.73,371.57v5.5h-.83v-.38a3.7,3.7,0,0,1-1.62.49c-1.55,0-1.86-.72-1.86-2.74v-2.87h.82v2.86c0,1.52.13,2,1.16,2a3.35,3.35,0,0,0,1.5-.4v-4.47Z" fill="#4c4c4c"/><path d="M252.07,378c0-.63.3-.93.87-1.36a.89.89,0,0,1-.31-.76A3.56,3.56,0,0,1,253,375a1.6,1.6,0,0,1-.86-1.66c0-1.35.83-1.88,2.05-1.88a5.91,5.91,0,0,1,1.15.14l1.62,0v.7l-1,0a1.43,1.43,0,0,1,.36,1.1c0,1.43-.71,1.86-2.12,1.86a5.09,5.09,0,0,1-.54,0,3.22,3.22,0,0,0-.2.62c0,.44.09.51,1.33.51,1.57,0,2.13.31,2.13,1.62s-.89,1.75-2.45,1.75C252.7,379.66,252.07,379.27,252.07,378Zm1.43-1c-.46.34-.62.54-.62,1,0,.76.32,1,1.57,1s1.59-.29,1.59-1-.35-.92-1.35-.92C254.3,377,253.5,377,253.5,377Zm2-3.62c0-.87-.34-1.21-1.27-1.21s-1.23.34-1.23,1.21.37,1.2,1.23,1.2S255.46,374.21,255.46,373.34Z" fill="#4c4c4c"/><path d="M300.1,370.27s-1.53-.19-2.17-.19c-1.08,0-1.65.39-1.65,1.25s.53,1.15,1.86,1.45c1.52.34,2.19.71,2.19,2.05,0,1.68-.92,2.34-2.43,2.34a20.26,20.26,0,0,1-2.41-.24l.09-.71s1.49.2,2.27.2c1.08,0,1.63-.47,1.63-1.53,0-.86-.45-1.1-1.69-1.34-1.57-.34-2.37-.72-2.37-2.17s1-2,2.46-2a19,19,0,0,1,2.3.22Z" fill="#4c4c4c"/><path d="M305.71,376.36l0,.64a18.65,18.65,0,0,1-2.14.18c-1.64,0-2.18-1-2.18-2.83,0-2.09.9-2.89,2.3-2.89s2.21.77,2.21,2.57l-.05.63h-3.63c0,1.18.37,1.79,1.44,1.79C304.51,376.45,305.71,376.36,305.71,376.36Zm-.62-2.36c0-1.36-.41-1.85-1.38-1.85s-1.47.52-1.48,1.85Z" fill="#4c4c4c"/><path d="M307.2,371.57H308v.4a3.69,3.69,0,0,1,1.65-.51c1.39,0,2,.85,2,2.79,0,2.16-.7,2.93-2.4,2.93a7.37,7.37,0,0,1-1.23-.12v2.45h-.83Zm.83,1.07v3.7a7.14,7.14,0,0,0,1.19.12c1.21,0,1.6-.62,1.6-2.21s-.47-2.05-1.27-2.05A3.59,3.59,0,0,0,308,372.64Z" fill="#4c4c4c"/><path d="M350.56,373.3c0-2.51.65-3.95,3-3.95s3,1.42,3,3.95-.65,3.88-3,3.88S350.56,375.85,350.56,373.3Zm5.14,0c0-2.06-.4-3.2-2.14-3.2s-2.13,1.13-2.13,3.2.37,3.13,2.13,3.13S355.7,375.44,355.7,373.3Z" fill="#4c4c4c"/><path d="M361.54,371.63l0,.66s-.88-.09-1.29-.09c-1.27,0-1.61.55-1.61,2,0,1.63.25,2.22,1.62,2.22.42,0,1.3-.1,1.3-.1l0,.69a14.87,14.87,0,0,1-1.53.15c-1.75,0-2.27-.8-2.27-3,0-2,.65-2.76,2.29-2.76A12.4,12.4,0,0,1,361.54,371.63Z" fill="#4c4c4c"/><path d="M363.88,372.29v2.62c0,1.2.08,1.54.79,1.54.31,0,1-.06,1-.06l.06.68a9.78,9.78,0,0,1-1.13.12c-1.13,0-1.51-.43-1.51-2v-2.89h-.78v-.72h.78v-1.68h.81v1.68h1.75v.72Z" fill="#4c4c4c"/><path d="M404.51,369.46h1.58l2.92,6.86h.23v-6.86h.83v7.61h-1.55l-3-6.86h-.21v6.86h-.84Z" fill="#4c4c4c"/><path d="M416.27,374.25c0,2-.5,2.93-2.36,2.93s-2.35-.92-2.35-2.93.61-2.79,2.35-2.79S416.27,372.36,416.27,374.25Zm-.85,0c0-1.53-.33-2.08-1.51-2.08s-1.5.55-1.5,2.08.2,2.21,1.5,2.21S415.42,375.82,415.42,374.25Z" fill="#4c4c4c"/><path d="M417.87,371.57l1.29,4.79h.41l1.33-4.79h.84l-1.55,5.5h-1.65l-1.55-5.5Z" fill="#4c4c4c"/><path d="M460.67,377.07v-7.61h2.71c2.21,0,2.82,1.54,2.82,3.69s-.57,3.92-2.82,3.92Zm2.71-6.86h-1.87v6.11h1.87c1.59,0,1.95-1.52,1.95-3.17S465,370.21,463.38,370.21Z" fill="#4c4c4c"/><path d="M471.68,376.36l0,.64a18.93,18.93,0,0,1-2.15.18c-1.64,0-2.18-1-2.18-2.83,0-2.09.91-2.89,2.3-2.89s2.22.77,2.22,2.57l-.05.63h-3.63c0,1.18.36,1.79,1.44,1.79C470.48,376.45,471.68,376.36,471.68,376.36Zm-.62-2.36c0-1.36-.42-1.85-1.39-1.85s-1.46.52-1.47,1.85Z" fill="#4c4c4c"/><path d="M476.73,371.63l0,.66s-.88-.09-1.3-.09c-1.26,0-1.6.55-1.6,2,0,1.63.25,2.22,1.62,2.22.41,0,1.29-.1,1.29-.1l0,.69a15.21,15.21,0,0,1-1.53.15c-1.75,0-2.27-.8-2.27-3,0-2,.65-2.76,2.29-2.76A12.4,12.4,0,0,1,476.73,371.63Z" fill="#4c4c4c"/><line x1="475.94" y1="362.41" x2="24.11" y2="362.41" fill="none" stroke="#adadad" stroke-miterlimit="10"/><path d="M31,33h3.36l3.8,13.84H36.6l-1-3.56H29.68l-1,3.56H27.16ZM30,41.88h5.24l-2.1-7.58h-1Z"/><path d="M45.78,39.74H49.6v6.8a33.71,33.71,0,0,1-4.5.48c-4.24,0-5.36-2.6-5.36-7.08s1.16-7.16,5.32-7.16a25.77,25.77,0,0,1,4.54.52l-.06,1.28a31.73,31.73,0,0,0-4.3-.42c-3.2,0-3.9,1.86-3.9,5.78s.68,5.72,3.88,5.72a18.56,18.56,0,0,0,2.86-.28V41.12h-2.3Z"/><path d="M62.08,33,58.46,46.82H55L51.4,33H53l3.18,12.48H57.3L60.48,33Z"/><path d="M68.4,34a15.43,15.43,0,0,1,3.88-.56c3.12,0,4.22,1.1,4.22,3.44a3.3,3.3,0,0,1-2,3A2.87,2.87,0,0,1,76.82,43c0,2.66-1.3,4-4.28,4a21.78,21.78,0,0,1-4.34-.54l.14-1.26a23.88,23.88,0,0,0,4,.44c2,0,2.86-.86,2.86-2.56S74,40.68,72.52,40.62H69.86V39.3h2.66a2.48,2.48,0,0,0,2.4-2.4c0-1.5-.74-2.12-2.7-2.12a20.15,20.15,0,0,0-3.68.4Z"/><path d="M24.31,435.24h9v1.24h-3.8V447.7H28.14V436.48H24.31Z" fill="#3a3d3f"/><path d="M42.15,443.09c0,3.28-.81,4.79-3.86,4.79s-3.85-1.51-3.85-4.79c0-3.1,1-4.57,3.85-4.57S42.15,440,42.15,443.09Zm-1.39,0c0-2.5-.54-3.4-2.47-3.4s-2.46.9-2.46,3.4.34,3.62,2.46,3.62S40.76,445.65,40.76,443.09Z" fill="#3a3d3f"/><path d="M51.25,447.7H49.92v-.61a6.42,6.42,0,0,1-2.73.79c-1.77,0-3.24-.72-3.24-4.61,0-3.17,1-4.75,3.76-4.75a15.79,15.79,0,0,1,2.21.23v-4h1.33ZM49.92,446V439.9a16.07,16.07,0,0,0-2.14-.21c-1.89,0-2.45,1.24-2.45,3.58,0,2.92,1,3.4,2,3.4A6.54,6.54,0,0,0,49.92,446Z" fill="#3a3d3f"/><path d="M60.22,446c0,.52.47.72,1,.79l0,1.06a2.74,2.74,0,0,1-2.14-.72,9.2,9.2,0,0,1-3.24.72c-1.64,0-2.54-.94-2.54-2.75s.9-2.49,2.75-2.67l2.83-.27v-.77c0-1.27-.54-1.71-1.62-1.71-1.26,0-3.41.23-3.41.23l-.05-1a22.13,22.13,0,0,1,3.53-.39c2,0,2.9.93,2.9,2.9Zm-4-2.56c-1.09.11-1.53.63-1.53,1.62s.45,1.66,1.37,1.66a9.57,9.57,0,0,0,2.83-.56v-3Z" fill="#3a3d3f"/><path d="M63.38,438.7l2.25,7.83h.6l2.27-7.83h1.35l-3.75,13H64.75l1.17-4H64.59l-2.56-9Z" fill="#3a3d3f"/><path d="M75.53,435.1h1.35v1.56H75.53Zm0,3.6h1.35v9H75.53Z" fill="#3a3d3f"/><path d="M81.28,439.87v4.3c0,2,.12,2.52,1.29,2.52.51,0,1.6-.11,1.6-.11l.09,1.12a15.44,15.44,0,0,1-1.83.2c-1.86,0-2.49-.7-2.49-3.3v-4.73H78.66V438.7h1.28v-2.76h1.34v2.76h2.86v1.17Z" fill="#3a3d3f"/><path d="M89.75,435.1H91.1v1.56H89.75Zm0,3.6H91.1v9H89.75Z" fill="#3a3d3f"/><path d="M99.67,440a29.33,29.33,0,0,0-3.15-.29c-1.11,0-2,.31-2,1.37,0,.85.43,1.08,2.34,1.41,2.25.37,3.1.82,3.1,2.57,0,2.11-1.34,2.81-3.5,2.81a25.4,25.4,0,0,1-3.16-.34l.07-1.17s2,.3,3,.3c1.48,0,2.27-.32,2.27-1.54,0-.94-.47-1.18-2.43-1.48s-3-.7-3-2.5c0-2,1.6-2.63,3.24-2.63a23.19,23.19,0,0,1,3.26.34Z" fill="#3a3d3f"/><path d="M106,438.7h1.33v.64a6.17,6.17,0,0,1,2.7-.82c2.27,0,3.26,1.38,3.26,4.57,0,3.53-1.15,4.79-3.93,4.79a11,11,0,0,1-2-.2v4H106Zm1.35,1.74v6.07a12.78,12.78,0,0,0,1.94.2c2,0,2.63-1,2.63-3.62s-.77-3.37-2.09-3.37A5.86,5.86,0,0,0,107.38,440.44Z" fill="#3a3d3f"/><path d="M122.82,443.09c0,3.28-.81,4.79-3.85,4.79s-3.85-1.51-3.85-4.79c0-3.1,1-4.57,3.85-4.57S122.82,440,122.82,443.09Zm-1.38,0c0-2.5-.54-3.4-2.47-3.4s-2.47.9-2.47,3.4.34,3.62,2.47,3.62S121.44,445.65,121.44,443.09Z" fill="#3a3d3f"/><path d="M131,440a29.33,29.33,0,0,0-3.15-.29c-1.11,0-2,.31-2,1.37,0,.85.43,1.08,2.34,1.41,2.25.37,3.1.82,3.1,2.57,0,2.11-1.33,2.81-3.49,2.81a25.4,25.4,0,0,1-3.17-.34l.07-1.17s2,.3,3,.3c1.48,0,2.27-.32,2.27-1.54,0-.94-.47-1.18-2.43-1.48s-3-.7-3-2.5c0-2,1.6-2.63,3.24-2.63a23.19,23.19,0,0,1,3.26.34Z" fill="#3a3d3f"/><path d="M139.36,440a29,29,0,0,0-3.15-.29c-1.11,0-2,.31-2,1.37,0,.85.43,1.08,2.34,1.41,2.25.37,3.1.82,3.1,2.57,0,2.11-1.33,2.81-3.49,2.81a25.4,25.4,0,0,1-3.17-.34l.07-1.17s2.05.3,3,.3c1.48,0,2.27-.32,2.27-1.54,0-.94-.47-1.18-2.43-1.48s-3-.7-3-2.5c0-2,1.6-2.63,3.24-2.63a23.19,23.19,0,0,1,3.26.34Z" fill="#3a3d3f"/><path d="M141.76,435.1h1.35v1.56h-1.35Zm0,3.6h1.35v9h-1.35Z" fill="#3a3d3f"/><path d="M153,443.05c0,3.59-1,4.83-4.25,4.83-1.08,0-3-.2-3-.2V434.77H147v4.38a7.44,7.44,0,0,1,2.65-.63C152.13,438.52,153,439.81,153,443.05Zm-1.36,0c0-2.32-.47-3.33-2.06-3.33a7.45,7.45,0,0,0-2.5.53v6.33s1.17.09,1.66.09C151.15,446.67,151.59,445.57,151.59,443.05Z" fill="#3a3d3f"/><path d="M155.27,434.77h1.35V447.7h-1.35Z" fill="#3a3d3f"/><path d="M166,446.53l0,1.06a31.12,31.12,0,0,1-3.51.29c-2.68,0-3.56-1.57-3.56-4.63,0-3.42,1.47-4.73,3.76-4.73s3.62,1.26,3.62,4.21l-.07,1H160.3c0,1.92.59,2.93,2.35,2.93C164,446.69,166,446.53,166,446.53Zm-1-3.85c0-2.24-.68-3-2.27-3s-2.39.85-2.41,3Z" fill="#3a3d3f"/><path d="M174.17,439.87v4.3c0,2,.13,2.52,1.3,2.52.5,0,1.6-.11,1.6-.11l.09,1.12a15.44,15.44,0,0,1-1.83.2c-1.86,0-2.49-.7-2.49-3.3v-4.73h-1.28V438.7h1.28v-2.76h1.33v2.76H177v1.17Z" fill="#3a3d3f"/><path d="M186,443.09c0,3.28-.81,4.79-3.85,4.79s-3.85-1.51-3.85-4.79c0-3.1,1-4.57,3.85-4.57S186,440,186,443.09Zm-1.38,0c0-2.5-.54-3.4-2.47-3.4s-2.47.9-2.47,3.4.34,3.62,2.47,3.62S184.62,445.65,184.62,443.09Z" fill="#3a3d3f"/><path d="M199.12,438.7v9h-1.35v-.63a6.07,6.07,0,0,1-2.66.81c-2.52,0-3-1.17-3-4.48v-4.7h1.35v4.68c0,2.48.21,3.29,1.89,3.29a5.46,5.46,0,0,0,2.46-.66V438.7Z" fill="#3a3d3f"/><path d="M207.69,440a29.33,29.33,0,0,0-3.15-.29c-1.12,0-2,.31-2,1.37,0,.85.43,1.08,2.34,1.41,2.25.37,3.1.82,3.1,2.57,0,2.11-1.34,2.81-3.5,2.81a25.65,25.65,0,0,1-3.17-.34l.07-1.17s2.06.3,3,.3c1.47,0,2.26-.32,2.26-1.54,0-.94-.46-1.18-2.43-1.48s-3-.7-3-2.5c0-2,1.6-2.63,3.24-2.63a23.19,23.19,0,0,1,3.26.34Z" fill="#3a3d3f"/><path d="M216.73,446.53l0,1.06a31.12,31.12,0,0,1-3.51.29c-2.68,0-3.56-1.57-3.56-4.63,0-3.42,1.47-4.73,3.76-4.73s3.62,1.26,3.62,4.21l-.07,1h-5.94c0,1.92.59,2.93,2.35,2.93C214.76,446.69,216.73,446.53,216.73,446.53Zm-1-3.85c0-2.24-.68-3-2.27-3s-2.39.85-2.41,3Z" fill="#3a3d3f"/><path d="M225.69,435.24h3l3.43,12.46h-1.37l-.9-3.21h-5.33l-.9,3.21h-1.37Zm-.85,8h4.72l-1.89-6.82h-.94Z" fill="#3a3d3f"/><path d="M239,441.33h3.44v6.12a31,31,0,0,1-4.05.43c-3.82,0-4.83-2.34-4.83-6.37s1-6.45,4.79-6.45a23.17,23.17,0,0,1,4.09.47l-.06,1.15a28.37,28.37,0,0,0-3.87-.38c-2.88,0-3.51,1.68-3.51,5.21s.61,5.14,3.49,5.14a16.86,16.86,0,0,0,2.58-.25v-3.83H239Z" fill="#3a3d3f"/><path d="M253.7,435.24l-3.26,12.46h-3.1l-3.26-12.46h1.44l2.87,11.23h1l2.86-11.23Z" fill="#3a3d3f"/><path d="M259.33,447.7v-1.17l3.48-3.66c1.47-1.53,2.39-2.5,2.39-3.9,0-1.59-.88-2.09-2.59-2.09a17.47,17.47,0,0,0-3.08.39l-.11-1.15a14.58,14.58,0,0,1,3.44-.48c2.5,0,3.76.95,3.76,3.18,0,1.79-.81,2.83-2.48,4.45L261,446.49h6v1.21Z" fill="#3a3d3f"/><path d="M279.78,446c0,.52.47.72,1,.79l-.05,1.06a2.75,2.75,0,0,1-2.14-.72,9.2,9.2,0,0,1-3.24.72c-1.64,0-2.54-.94-2.54-2.75s.9-2.49,2.75-2.67l2.83-.27v-.77c0-1.27-.54-1.71-1.62-1.71-1.26,0-3.4.23-3.4.23l-.06-1a22.13,22.13,0,0,1,3.53-.39c2,0,2.9.93,2.9,2.9Zm-4-2.56c-1.09.11-1.53.63-1.53,1.62s.45,1.66,1.37,1.66a9.48,9.48,0,0,0,2.83-.56v-3Z" fill="#3a3d3f"/><path d="M284.24,439.87v4.3c0,2,.13,2.52,1.3,2.52.5,0,1.6-.11,1.6-.11l.09,1.12a15.43,15.43,0,0,1-1.84.2c-1.85,0-2.48-.7-2.48-3.3v-4.73h-1.28V438.7h1.28v-2.76h1.33v2.76h2.87v1.17Z" fill="#3a3d3f"/><path d="M292.72,435.1h1.35v1.56h-1.35Zm0,3.6h1.35v9h-1.35Z" fill="#3a3d3f"/><path d="M298.46,439.87v4.3c0,2,.13,2.52,1.3,2.52.5,0,1.6-.11,1.6-.11l.09,1.12a15.44,15.44,0,0,1-1.83.2c-1.86,0-2.49-.7-2.49-3.3v-4.73h-1.28V438.7h1.28v-2.76h1.33v2.76h2.87v1.17Z" fill="#3a3d3f"/><path d="M309,440a29.33,29.33,0,0,0-3.15-.29c-1.12,0-2,.31-2,1.37,0,.85.44,1.08,2.35,1.41,2.25.37,3.09.82,3.09,2.57,0,2.11-1.33,2.81-3.49,2.81a25.65,25.65,0,0,1-3.17-.34l.07-1.17s2.05.3,3,.3c1.48,0,2.27-.32,2.27-1.54,0-.94-.47-1.18-2.43-1.48s-3-.7-3-2.5c0-2,1.61-2.63,3.25-2.63a23,23,0,0,1,3.25.34Z" fill="#3a3d3f"/><path d="M317,447.7h-1.35v-7.83h-1.14V438.7h1.14v-.81c0-2.6.67-3.3,2.43-3.3.61,0,1.82.13,1.82.13l0,1.11s-1,0-1.55,0c-1,0-1.33.43-1.33,2.1v.8h2.61v1.17H317Z" fill="#3a3d3f"/><path d="M328.24,438.7v9h-1.35v-.63a6.08,6.08,0,0,1-2.67.81c-2.52,0-3-1.17-3-4.48v-4.7h1.35v4.68c0,2.48.21,3.29,1.89,3.29a5.53,5.53,0,0,0,2.47-.66V438.7Z" fill="#3a3d3f"/><path d="M330.93,434.77h1.36V447.7h-1.36Z" fill="#3a3d3f"/><path d="M335.09,434.77h1.35V447.7h-1.35Z" fill="#3a3d3f"/><path d="M343.1,438.7h1.34v.64a6.12,6.12,0,0,1,2.7-.82c2.27,0,3.26,1.38,3.26,4.57,0,3.53-1.16,4.79-3.93,4.79a11,11,0,0,1-2-.2v4H343.1Zm1.35,1.74v6.07a13,13,0,0,0,1.95.2c2,0,2.63-1,2.63-3.62s-.78-3.37-2.09-3.37A5.87,5.87,0,0,0,344.45,440.44Z" fill="#3a3d3f"/><path d="M359.23,446.53l0,1.06a31.12,31.12,0,0,1-3.51.29c-2.68,0-3.57-1.57-3.57-4.63,0-3.42,1.48-4.73,3.77-4.73s3.62,1.26,3.62,4.21l-.08,1h-5.94c0,1.92.6,2.93,2.36,2.93C357.27,446.69,359.23,446.53,359.23,446.53Zm-1-3.85c0-2.24-.68-3-2.26-3s-2.4.85-2.42,3Z" fill="#3a3d3f"/><path d="M361.68,438.7H363v1.22a10.17,10.17,0,0,1,3.3-1.42v1.37a13,13,0,0,0-3.28,1.22v6.61h-1.35Z" fill="#3a3d3f"/><path d="M369.64,447.7h-1.35v-7.83h-1.14V438.7h1.14v-.81c0-2.6.66-3.3,2.43-3.3.61,0,1.81.13,1.81.13v1.11s-1,0-1.55,0c-1,0-1.33.43-1.33,2.1v.8h2.61v1.17h-2.61Z" fill="#3a3d3f"/><path d="M381.17,443.09c0,3.28-.81,4.79-3.85,4.79s-3.85-1.51-3.85-4.79c0-3.1,1-4.57,3.85-4.57S381.17,440,381.17,443.09Zm-1.38,0c0-2.5-.54-3.4-2.47-3.4s-2.46.9-2.46,3.4.34,3.62,2.46,3.62S379.79,445.65,379.79,443.09Z" fill="#3a3d3f"/><path d="M383.37,438.7h1.33v1.22a10.17,10.17,0,0,1,3.3-1.42v1.37a13,13,0,0,0-3.28,1.22v6.61h-1.35Z" fill="#3a3d3f"/><path d="M389.6,447.7v-9h1.33v.63a6,6,0,0,1,2.63-.81,2.56,2.56,0,0,1,2.34.91,7.52,7.52,0,0,1,3.2-.91c2.45,0,3,1.17,3,4.43v4.75H400.8V443c0-2.37-.27-3.26-1.89-3.26a5.89,5.89,0,0,0-2.54.67,10.34,10.34,0,0,1,.23,2.63v4.68h-1.35v-4.65c0-2.48-.25-3.33-1.89-3.33a5.34,5.34,0,0,0-2.41.67v7.31Z" fill="#3a3d3f"/><path d="M411,446c0,.52.47.72,1,.79l-.05,1.06a2.75,2.75,0,0,1-2.14-.72,9.2,9.2,0,0,1-3.24.72c-1.64,0-2.54-.94-2.54-2.75s.9-2.49,2.75-2.67l2.83-.27v-.77c0-1.27-.54-1.71-1.62-1.71-1.26,0-3.4.23-3.4.23l-.06-1a22.13,22.13,0,0,1,3.53-.39c2,0,2.9.93,2.9,2.9Zm-4-2.56c-1.09.11-1.53.63-1.53,1.62s.45,1.66,1.37,1.66a9.48,9.48,0,0,0,2.83-.56v-3Z" fill="#3a3d3f"/><path d="M413.66,447.7v-9H415v.63a6.86,6.86,0,0,1,2.8-.81c2.48,0,3,1.22,3,4.43v4.75h-1.34V443c0-2.37-.26-3.26-1.94-3.26a6.12,6.12,0,0,0-2.54.67v7.31Z" fill="#3a3d3f"/><path d="M429.14,438.79l-.05,1.09s-1.44-.16-2.13-.16c-2.07,0-2.62.9-2.62,3.32,0,2.66.41,3.63,2.64,3.63.69,0,2.13-.16,2.13-.16l.05,1.12a24,24,0,0,1-2.5.25c-2.86,0-3.71-1.32-3.71-4.84,0-3.26,1.06-4.52,3.74-4.52A20.89,20.89,0,0,1,429.14,438.79Z" fill="#3a3d3f"/><path d="M437.82,446.53l0,1.06a31.4,31.4,0,0,1-3.52.29c-2.68,0-3.56-1.57-3.56-4.63,0-3.42,1.48-4.73,3.76-4.73s3.62,1.26,3.62,4.21l-.07,1h-5.94c0,1.92.59,2.93,2.36,2.93C435.86,446.69,437.82,446.53,437.82,446.53Zm-1-3.85c0-2.24-.68-3-2.27-3s-2.39.85-2.41,3Z" fill="#3a3d3f"/><path d="M440.17,445.65h1.48v2.05h-1.48Z" fill="#3a3d3f"/><path d="M448.35,435.24h1.38V447.7h-1.38Z" fill="#3a3d3f"/><path d="M454.34,439.87v4.3c0,2,.13,2.52,1.3,2.52.5,0,1.6-.11,1.6-.11l.09,1.12a15.71,15.71,0,0,1-1.84.2c-1.85,0-2.48-.7-2.48-3.3v-4.73h-1.28V438.7H453v-2.76h1.33v2.76h2.86v1.17Z" fill="#3a3d3f"/><path d="M463.43,438.7l1.82,7.83h.29l2.14-7.65h1.4l2.15,7.65h.3l1.8-7.83h1.35l-2.14,9h-2.25l-1.91-7-1.91,7h-2.25l-2.14-9Z" fill="#3a3d3f"/><path d="M483.84,443.09c0,3.28-.81,4.79-3.85,4.79s-3.85-1.51-3.85-4.79c0-3.1,1-4.57,3.85-4.57S483.84,440,483.84,443.09Zm-1.38,0c0-2.5-.54-3.4-2.47-3.4s-2.46.9-2.46,3.4.34,3.62,2.46,3.62S482.46,445.65,482.46,443.09Z" fill="#3a3d3f"/><path d="M493,438.7v9h-1.35v-.63a6.08,6.08,0,0,1-2.67.81c-2.52,0-3-1.17-3-4.48v-4.7h1.35v4.68c0,2.48.21,3.29,1.89,3.29a5.53,5.53,0,0,0,2.47-.66V438.7Z" fill="#3a3d3f"/><path d="M495.7,434.77h1.35V447.7H495.7Z" fill="#3a3d3f"/><path d="M506.67,447.7h-1.33v-.61a6.49,6.49,0,0,1-2.74.79c-1.77,0-3.24-.72-3.24-4.61,0-3.17,1-4.75,3.76-4.75a15.79,15.79,0,0,1,2.22.23v-4h1.33ZM505.34,446V439.9a16.26,16.26,0,0,0-2.15-.21c-1.89,0-2.45,1.24-2.45,3.58,0,2.92,1,3.4,2,3.4A6.62,6.62,0,0,0,505.34,446Z" fill="#3a3d3f"/><path d="M25.37,475.7v-9H26.7v.63a6.85,6.85,0,0,1,2.79-.81c2.49,0,3.05,1.22,3.05,4.43v4.75H31.2V471c0-2.37-.27-3.26-1.94-3.26a6.12,6.12,0,0,0-2.54.67v7.31Z" fill="#3a3d3f"/><path d="M41.68,474.53l0,1.06a31.4,31.4,0,0,1-3.52.29c-2.68,0-3.56-1.57-3.56-4.63,0-3.42,1.48-4.73,3.76-4.73S42,467.78,42,470.73l-.07,1H36c0,1.92.59,2.93,2.36,2.93C39.72,474.69,41.68,474.53,41.68,474.53Zm-1-3.85c0-2.24-.68-3-2.27-3s-2.39.85-2.41,3Z" fill="#3a3d3f"/><path d="M50.77,474.53l0,1.06a31.4,31.4,0,0,1-3.52.29c-2.68,0-3.56-1.57-3.56-4.63,0-3.42,1.48-4.73,3.76-4.73s3.62,1.26,3.62,4.21l-.07,1H45.1c0,1.92.59,2.93,2.36,2.93C48.81,474.69,50.77,474.53,50.77,474.53Zm-1-3.85c0-2.24-.68-3-2.27-3s-2.39.85-2.41,3Z" fill="#3a3d3f"/><path d="M60.13,475.7H58.8v-.61a6.49,6.49,0,0,1-2.74.79c-1.76,0-3.24-.72-3.24-4.61,0-3.17,1-4.75,3.76-4.75a15.79,15.79,0,0,1,2.22.23v-4h1.33ZM58.8,474V467.9a16.26,16.26,0,0,0-2.15-.21c-1.89,0-2.44,1.24-2.44,3.58,0,2.92.95,3.4,2,3.4A6.62,6.62,0,0,0,58.8,474Z" fill="#3a3d3f"/><path d="M72.51,466.79l-.05,1.09s-1.44-.16-2.13-.16c-2.07,0-2.63.9-2.63,3.32,0,2.66.42,3.63,2.65,3.63.69,0,2.13-.16,2.13-.16l0,1.12a24,24,0,0,1-2.5.25c-2.87,0-3.71-1.32-3.71-4.84,0-3.26,1.06-4.52,3.74-4.52A20.89,20.89,0,0,1,72.51,466.79Z" fill="#3a3d3f"/><path d="M74.54,475.7V462.77h1.35v4.43a7.65,7.65,0,0,1,2.78-.68c2.46,0,3,1.22,3,4.43v4.75H80.36V471c0-2.37-.27-3.26-1.93-3.26a7.48,7.48,0,0,0-2.54.54v7.44Z" fill="#3a3d3f"/><path d="M90.57,474c0,.52.46.72,1,.79l0,1.06a2.76,2.76,0,0,1-2.15-.72,9.2,9.2,0,0,1-3.24.72c-1.64,0-2.54-.94-2.54-2.75s.9-2.49,2.76-2.67l2.83-.27v-.77c0-1.27-.54-1.71-1.62-1.71-1.27,0-3.41.23-3.41.23l0-1a22.13,22.13,0,0,1,3.53-.39c2,0,2.9.93,2.9,2.9Zm-4-2.56c-1.1.11-1.53.63-1.53,1.62s.45,1.66,1.37,1.66a9.57,9.57,0,0,0,2.83-.56v-3Z" fill="#3a3d3f"/><path d="M93.23,466.7h1.33v1.22a10.17,10.17,0,0,1,3.3-1.42v1.37a13,13,0,0,0-3.28,1.22v6.61H93.23Z" fill="#3a3d3f"/><path d="M99.06,477.21c0-1,.49-1.53,1.42-2.23a1.48,1.48,0,0,1-.5-1.24,5.75,5.75,0,0,1,.61-1.43c-.76-.34-1.42-1.06-1.42-2.71,0-2.22,1.37-3.08,3.36-3.08a9.6,9.6,0,0,1,1.88.23l2.66-.07v1.15l-1.71,0a2.38,2.38,0,0,1,.59,1.81c0,2.34-1.16,3-3.47,3-.18,0-.68,0-.88-.07a5.3,5.3,0,0,0-.33,1c0,.72.15.83,2.18.83,2.56,0,3.48.5,3.48,2.65s-1.46,2.86-4,2.86C100.09,479.93,99.06,479.3,99.06,477.21Zm2.34-1.69c-.76.56-1,.88-1,1.58,0,1.25.52,1.7,2.56,1.7,1.8,0,2.61-.49,2.61-1.68,0-1.37-.58-1.51-2.22-1.51C102.71,475.61,101.4,475.52,101.4,475.52Zm3.21-5.92c0-1.43-.56-2-2.08-2s-2,.55-2,2,.61,2,2,2S104.61,471,104.61,469.6Z" fill="#3a3d3f"/><path d="M115.35,474.53l0,1.06a31.38,31.38,0,0,1-3.51.29c-2.69,0-3.57-1.57-3.57-4.63,0-3.42,1.48-4.73,3.76-4.73s3.62,1.26,3.62,4.21l-.07,1h-5.94c0,1.92.59,2.93,2.36,2.93C113.39,474.69,115.35,474.53,115.35,474.53Zm-1-3.85c0-2.24-.68-3-2.27-3s-2.39.85-2.41,3Z" fill="#3a3d3f"/><path d="M128.11,474c0,.52.47.72,1,.79l-.06,1.06a2.75,2.75,0,0,1-2.14-.72,9.2,9.2,0,0,1-3.24.72c-1.64,0-2.54-.94-2.54-2.75s.9-2.49,2.76-2.67l2.82-.27v-.77c0-1.27-.54-1.71-1.62-1.71-1.26,0-3.4.23-3.4.23l0-1a22.1,22.1,0,0,1,3.52-.39c2,0,2.9.93,2.9,2.9Zm-4-2.56c-1.1.11-1.53.63-1.53,1.62s.45,1.66,1.37,1.66a9.47,9.47,0,0,0,2.82-.56v-3Z" fill="#3a3d3f"/><path d="M130.77,466.7h1.34v1.22a10.06,10.06,0,0,1,3.29-1.42v1.37a13.15,13.15,0,0,0-3.28,1.22v6.61h-1.35Z" fill="#3a3d3f"/><path d="M144.31,471.09c0,3.28-.81,4.79-3.85,4.79s-3.85-1.51-3.85-4.79c0-3.1,1-4.57,3.85-4.57S144.31,468,144.31,471.09Zm-1.38,0c0-2.5-.54-3.4-2.47-3.4s-2.47.9-2.47,3.4.34,3.62,2.47,3.62S142.93,473.65,142.93,471.09Z" fill="#3a3d3f"/><path d="M153.47,466.7v9h-1.35v-.63a6.07,6.07,0,0,1-2.66.81c-2.52,0-3-1.17-3-4.48v-4.7h1.35v4.68c0,2.48.21,3.29,1.89,3.29a5.46,5.46,0,0,0,2.46-.66V466.7Z" fill="#3a3d3f"/><path d="M156.06,475.7v-9h1.34v.63a6.79,6.79,0,0,1,2.79-.81c2.48,0,3,1.22,3,4.43v4.75H161.9V471c0-2.37-.27-3.26-2-3.26a6.18,6.18,0,0,0-2.54.67v7.31Z" fill="#3a3d3f"/><path d="M172.64,475.7h-1.33v-.61a6.48,6.48,0,0,1-2.73.79c-1.77,0-3.25-.72-3.25-4.61,0-3.17,1-4.75,3.77-4.75a15.79,15.79,0,0,1,2.21.23v-4h1.33ZM171.31,474V467.9a16.07,16.07,0,0,0-2.14-.21c-1.89,0-2.45,1.24-2.45,3.58,0,2.92.95,3.4,2,3.4A6.54,6.54,0,0,0,171.31,474Z" fill="#3a3d3f"/><path d="M179.16,475.7v-1.17l3.47-3.66c1.48-1.53,2.4-2.5,2.4-3.9,0-1.59-.89-2.09-2.6-2.09a17.46,17.46,0,0,0-3.07.39l-.11-1.15a14.58,14.58,0,0,1,3.44-.48c2.5,0,3.76.95,3.76,3.18,0,1.79-.81,2.83-2.49,4.45l-3.16,3.22h6v1.21Z" fill="#3a3d3f"/><path d="M193.7,463.82H195V475.7h-1.39V465.36l-3.06,2-.63-1Z" fill="#3a3d3f"/><path d="M199.28,467.85h1.48v2h-1.48Zm0,5.8h1.48v2.05h-1.48Z" fill="#3a3d3f"/><path d="M211.34,469.94c0,4.55-1.6,5.94-4.32,5.94s-4.34-1.35-4.34-5.92c0-4.9,1.59-6.34,4.32-6.34S211.34,465,211.34,469.94Zm-7.22,0c0,3.72,1,4.69,2.9,4.69s2.9-1,2.9-4.71c0-4-.92-5.08-2.9-5.08S204.12,465.9,204.12,470Z" fill="#3a3d3f"/><path d="M221.42,469.94c0,4.55-1.6,5.94-4.32,5.94s-4.34-1.35-4.34-5.92c0-4.9,1.59-6.34,4.32-6.34S221.42,465,221.42,469.94Zm-7.22,0c0,3.72,1,4.69,2.9,4.69s2.9-1,2.9-4.71c0-4-.92-5.08-2.9-5.08S214.2,465.9,214.2,470Z" fill="#3a3d3f"/><path d="M223.35,473.65h1.47v2.05h-1.47Z" fill="#3a3d3f"/><line x1="26.65" y1="55.13" x2="526.24" y2="55.13" fill="none" stroke="#ddd" stroke-miterlimit="10"/><path d="M52.69,234.24H48.46v-.79l2.48-6.22h1.11l-2.52,6.12h3.16v-2.73h1v2.73h1.11v.89H53.7V236h-1Z" fill="#4c4c4c"/><path d="M33.4,224c0,3.34-1.18,4.36-3.17,4.36s-3.19-1-3.19-4.35c0-3.59,1.17-4.65,3.18-4.65S33.4,220.45,33.4,224Zm-5.3,0c0,2.74.75,3.45,2.13,3.45s2.13-.72,2.13-3.46c0-2.93-.68-3.73-2.13-3.73S28.1,221.08,28.1,224.05Z" fill="#4c4c4c"/><path d="M27.44,202.22v-.86L30,198.68c1.08-1.12,1.76-1.84,1.76-2.87s-.65-1.53-1.9-1.53a12.64,12.64,0,0,0-2.26.29l-.08-.85a10.69,10.69,0,0,1,2.52-.35c1.84,0,2.76.7,2.76,2.34,0,1.3-.59,2.07-1.82,3.26l-2.33,2.36H33v.89Z" fill="#4c4c4c"/><path d="M31.29,173.54H27.06v-.79l2.48-6.22h1.11l-2.52,6.11h3.16v-2.72h1v2.72h1.11v.9H32.3v1.71h-1Z" fill="#4c4c4c"/><path d="M32.9,140.48a20,20,0,0,0-2.3-.16c-1.52,0-2.35,1.08-2.35,3a7.6,7.6,0,0,1,2.18-.51c1.93,0,2.93.87,2.93,2.71s-1.11,2.88-3.05,2.88c-2.17,0-3.12-1.71-3.12-4.53,0-3.16,1.33-4.46,3.41-4.46a16,16,0,0,1,2.39.23Zm-4.67,3.75c0,1.86.57,3.28,2.08,3.28a1.79,1.79,0,0,0,2-2c0-1.22-.72-1.8-1.94-1.8A6.11,6.11,0,0,0,28.23,144.23Z" fill="#4c4c4c"/><path d="M127,229.37a1.94,1.94,0,0,1-1.46,2,2.2,2.2,0,0,1,1.59,2.2c0,1.91-1.48,2.49-3.29,2.49s-3.25-.54-3.25-2.35a2.32,2.32,0,0,1,1.5-2.34,2,2,0,0,1-1.36-2.05c0-1.5,1.21-2.25,3.11-2.25S127,227.83,127,229.37Zm-1,4.12c0-1-.67-1.35-1.54-1.6h-1.39c-.91.25-1.44.7-1.44,1.68,0,1.2.93,1.6,2.17,1.6S126.07,234.77,126.07,233.49Zm-4.22-4c0,.81.43,1.23,1.29,1.54h1.39c.9-.29,1.41-.72,1.41-1.52,0-1.05-.78-1.47-2.06-1.47S121.85,228.43,121.85,229.47Z" fill="#4c4c4c"/><path d="M196.65,227.24h.95V236h-1v-7.58l-2.24,1.48-.47-.77Z" fill="#4c4c4c"/><path d="M200.77,236v-.86l2.55-2.68c1.08-1.12,1.76-1.84,1.76-2.87s-.65-1.53-1.9-1.53a12.64,12.64,0,0,0-2.26.29l-.08-.85a10.69,10.69,0,0,1,2.52-.35c1.84,0,2.76.7,2.76,2.34,0,1.31-.59,2.07-1.82,3.26L202,235.08h4.38V236Z" fill="#4c4c4c"/><path d="M276.31,227.24h.95V236h-1v-7.58L274,229.86l-.46-.77Z" fill="#4c4c4c"/><path d="M285.89,228.17a20,20,0,0,0-2.3-.16c-1.52,0-2.35,1.08-2.35,3a7.23,7.23,0,0,1,2.18-.52c1.93,0,2.93.88,2.93,2.71s-1.1,2.88-3.05,2.88c-2.16,0-3.12-1.7-3.12-4.53,0-3.16,1.34-4.45,3.41-4.45a16.87,16.87,0,0,1,2.4.22Zm-4.66,3.75c0,1.86.57,3.28,2.07,3.28a1.79,1.79,0,0,0,2-2c0-1.21-.73-1.79-1.94-1.79A6.11,6.11,0,0,0,281.23,231.92Z" fill="#4c4c4c"/><path d="M352.7,236v-.86l2.55-2.68c1.09-1.12,1.76-1.84,1.76-2.87s-.65-1.53-1.9-1.53a12.64,12.64,0,0,0-2.26.29l-.08-.85a10.69,10.69,0,0,1,2.52-.35c1.84,0,2.76.7,2.76,2.34,0,1.31-.59,2.07-1.82,3.26l-2.33,2.37h4.38V236Z" fill="#4c4c4c"/><path d="M366.06,231.73c0,3.35-1.18,4.36-3.17,4.36s-3.19-1-3.19-4.34c0-3.6,1.17-4.65,3.18-4.65S366.06,228.14,366.06,231.73Zm-5.3,0c0,2.73.75,3.45,2.13,3.45s2.13-.73,2.13-3.47c0-2.93-.68-3.72-2.13-3.72S360.76,228.77,360.76,231.75Z" fill="#4c4c4c"/><path d="M463.15,236v-.86l2.55-2.68c1.08-1.12,1.75-1.84,1.75-2.87s-.64-1.53-1.9-1.53a12.8,12.8,0,0,0-2.26.29l-.08-.85a10.83,10.83,0,0,1,2.53-.35c1.83,0,2.76.7,2.76,2.34,0,1.31-.6,2.07-1.82,3.26l-2.33,2.37h4.37V236Z" fill="#4c4c4c"/><path d="M474.39,234.26h-4.23v-.8l2.49-6.22h1.11l-2.53,6.12h3.16v-2.72h1v2.72h1.11v.9h-1.11V236h-1Z" fill="#4c4c4c"/><line x1="40.95" y1="138.61" x2="40.95" y2="231.38" fill="none" stroke="#adadad" stroke-miterlimit="10"/><line x1="476.77" y1="223.94" x2="36.94" y2="223.94" fill="none" stroke="#adadad" stroke-miterlimit="10"/><g style="isolation:isolate"><rect x="77.24" y="151.35" width="13.08" height="72.04" fill="#76ce89"/><g clip-path="url(#clip-path)"><rect x="77.35" y="151.38" width="12.84" height="71.98" transform="translate(-0.62 0.28) rotate(-0.19)" fill="#76ce89"/></g></g><g style="isolation:isolate"><rect x="94.79" y="153.36" width="13.08" height="70.03" fill="#76ce89"/><g clip-path="url(#clip-path-2)"><rect x="94.91" y="153.38" width="12.84" height="69.97" transform="translate(-0.63 0.34) rotate(-0.19)" fill="#76ce89"/></g></g><g style="isolation:isolate"><rect x="112.35" y="156.37" width="13.07" height="67.02" fill="#76ce89"/><g clip-path="url(#clip-path-3)"><rect x="112.46" y="156.39" width="12.84" height="66.97" transform="translate(-0.63 0.4) rotate(-0.19)" fill="#76ce89"/></g></g><g style="isolation:isolate"><rect x="129.9" y="156.7" width="13.07" height="66.68" fill="#76ce89"/><g clip-path="url(#clip-path-4)"><rect x="130.01" y="156.73" width="12.84" height="66.63" transform="translate(-0.63 0.45) rotate(-0.19)" fill="#76ce89"/></g></g><g style="isolation:isolate"><rect x="147.45" y="156.72" width="13.06" height="66.67" fill="#76ce89"/><g clip-path="url(#clip-path-5)"><rect x="147.55" y="156.74" width="12.84" height="66.62" transform="translate(-0.63 0.51) rotate(-0.19)" fill="#76ce89"/></g></g><g style="isolation:isolate"><rect x="164.99" y="156.7" width="13.06" height="66.68" fill="#76ce89"/><g clip-path="url(#clip-path-6)"><rect x="165.09" y="156.73" width="12.84" height="66.63" transform="translate(-0.63 0.57) rotate(-0.19)" fill="#76ce89"/></g></g><g style="isolation:isolate"><rect x="182.52" y="160.08" width="13.06" height="63.3" fill="#76ce89"/><g clip-path="url(#clip-path-7)"><rect x="182.63" y="160.11" width="12.84" height="63.25" transform="translate(-0.64 0.63) rotate(-0.19)" fill="#76ce89"/></g></g><g style="isolation:isolate"><rect x="200.06" y="162.33" width="13.04" height="61.06" fill="#76ce89"/><g clip-path="url(#clip-path-8)"><rect x="200.16" y="162.35" width="12.84" height="61.01" transform="translate(-0.64 0.69) rotate(-0.19)" fill="#76ce89"/></g></g><g style="isolation:isolate"><rect x="217.58" y="162.33" width="13.04" height="61.06" fill="#76ce89"/><g clip-path="url(#clip-path-9)"><rect x="217.68" y="162.35" width="12.84" height="61.01" transform="translate(-0.64 0.75) rotate(-0.19)" fill="#76ce89"/></g></g><g style="isolation:isolate"><rect x="235.1" y="164.56" width="13.04" height="58.82" fill="#76ce89"/><g clip-path="url(#clip-path-10)"><rect x="235.19" y="164.59" width="12.84" height="58.77" transform="translate(-0.65 0.81) rotate(-0.19)" fill="#76ce89"/></g></g><g style="isolation:isolate"><rect x="252.61" y="165.7" width="13.04" height="57.69" fill="#76ce89"/><g clip-path="url(#clip-path-11)"><rect x="252.71" y="165.72" width="12.84" height="57.64" transform="translate(-0.64 0.86) rotate(-0.19)" fill="#76ce89"/></g></g><g style="isolation:isolate"><rect x="270.13" y="167.93" width="13.03" height="55.45" fill="#76ce89"/><g clip-path="url(#clip-path-12)"><rect x="270.22" y="167.96" width="12.84" height="55.4" transform="translate(-0.65 0.92) rotate(-0.19)" fill="#76ce89"/></g></g><g style="isolation:isolate"><rect x="287.64" y="170.19" width="13.02" height="53.2" fill="#76ce89"/><g clip-path="url(#clip-path-13)"><rect x="287.73" y="170.21" width="12.84" height="53.15" transform="translate(-0.65 0.98) rotate(-0.19)" fill="#76ce89"/></g></g><g style="isolation:isolate"><rect x="305.13" y="173.55" width="13.01" height="49.84" fill="#76ce89"/><g clip-path="url(#clip-path-14)"><rect x="305.21" y="173.57" width="12.84" height="49.79" transform="translate(-0.66 1.04) rotate(-0.19)" fill="#76ce89"/></g></g><rect x="322.62" y="175.79" width="13" height="47.59" fill="#ffda00"/><g clip-path="url(#clip-path-15)"><rect x="322.7" y="175.82" width="12.84" height="47.54" transform="translate(-0.66 1.1) rotate(-0.19)" fill="#ffda00"/></g><rect x="340.1" y="179.17" width="12.99" height="44.22" fill="#ffda00"/><g clip-path="url(#clip-path-16)"><rect x="340.17" y="179.2" width="12.84" height="44.16" transform="translate(-0.67 1.16) rotate(-0.19)" fill="#ffda00"/></g><g style="isolation:isolate"><g clip-path="url(#clip-path-17)"><rect x="357.61" y="190.41" width="12.84" height="32.94" transform="translate(-0.69 1.21) rotate(-0.19)" fill="#ffda00"/></g></g><g style="isolation:isolate"><rect x="409.8" y="171.31" width="13.01" height="52.07" fill="#76ce89"/><g clip-path="url(#clip-path-18)"><rect x="409.88" y="171.34" width="12.84" height="52.02" transform="translate(-0.65 1.39) rotate(-0.19)" fill="#76ce89"/></g></g><g style="isolation:isolate"><rect x="427.28" y="175.8" width="13" height="47.58" fill="#76ce89"/><g clip-path="url(#clip-path-19)"><rect x="427.36" y="175.82" width="12.84" height="47.54" transform="translate(-0.66 1.45) rotate(-0.19)" fill="#76ce89"/></g></g><g style="isolation:isolate"><rect x="444.76" y="179.16" width="13" height="44.23" fill="#76ce89"/><g clip-path="url(#clip-path-20)"><rect x="444.83" y="179.19" width="12.84" height="44.17" transform="translate(-0.67 1.5) rotate(-0.19)" fill="#76ce89"/></g></g><g style="isolation:isolate"><rect x="462.23" y="179.16" width="13" height="44.23" fill="#76ce89"/><g clip-path="url(#clip-path-21)"><rect x="462.31" y="179.19" width="12.84" height="44.17" transform="translate(-0.67 1.56) rotate(-0.19)" fill="#76ce89"/></g></g><rect x="374.99" y="203.86" width="12.95" height="19.53" fill="#ff4200"/><g clip-path="url(#clip-path-22)"><polygon points="375.09 223.38 374.98 203.89 387.83 203.86 387.93 223.35 375.09 223.38" fill="#ff4200"/></g><rect x="392.41" y="171.31" width="12.91" height="52.07" fill="#76ce89"/><g clip-path="url(#clip-path-23)"><polygon points="392.48 223.38 392.41 171.44 405.26 171.3 405.32 223.25 392.48 223.38" fill="#76ce89"/></g><g style="isolation:isolate"><rect x="59.67" y="147.32" width="13.09" height="76.11" fill="#76ce89"/><g clip-path="url(#clip-path-24)"><rect x="59.79" y="147.34" width="12.84" height="76.07" transform="translate(-0.62 0.22) rotate(-0.19)" fill="#76ce89"/></g></g><g style="isolation:isolate"><rect x="42.09" y="144.31" width="13.1" height="79.18" fill="#76ce89"/><g clip-path="url(#clip-path-25)"><rect x="42.22" y="144.33" width="12.84" height="79.13" transform="translate(-0.61 0.16) rotate(-0.19)" fill="#76ce89"/></g></g><path d="M27.69,271h2.5l3.53,10.53L37.25,271h2.5v12.46H38.37v-11h-.26L34.49,283H33l-3.62-10.53h-.25v11H27.69Z" fill="#4c4c4c"/><path d="M48.93,281.82c0,.52.47.72,1,.79l0,1.06a2.75,2.75,0,0,1-2.14-.72,9.2,9.2,0,0,1-3.24.72c-1.64,0-2.54-.94-2.54-2.75s.9-2.49,2.75-2.67l2.83-.27v-.77c0-1.26-.54-1.71-1.62-1.71-1.26,0-3.4.23-3.4.23l-.06-1a22.13,22.13,0,0,1,3.53-.39c2,0,2.9.93,2.9,2.9Zm-4-2.56c-1.09.11-1.53.63-1.53,1.62s.45,1.66,1.37,1.66a9.48,9.48,0,0,0,2.83-.56v-3Z" fill="#4c4c4c"/><path d="M51.59,270.89h1.35v1.56H51.59Zm0,3.6h1.35v9H51.59Z" fill="#4c4c4c"/><path d="M55.54,283.49v-9h1.33v.63a6.85,6.85,0,0,1,2.79-.81c2.48,0,3,1.22,3,4.43v4.75H61.37v-4.72c0-2.37-.27-3.26-1.95-3.26a6.18,6.18,0,0,0-2.54.67v7.31Z" fill="#4c4c4c"/><path d="M67,275.66V280c0,2,.13,2.52,1.3,2.52.5,0,1.6-.11,1.6-.11l.09,1.12a15.71,15.71,0,0,1-1.84.2c-1.85,0-2.48-.7-2.48-3.3v-4.73H64.39v-1.17h1.28v-2.76H67v2.76h2.86v1.17Z" fill="#4c4c4c"/><path d="M78.16,282.32l0,1.06a31.12,31.12,0,0,1-3.51.29c-2.69,0-3.57-1.57-3.57-4.63,0-3.42,1.48-4.73,3.76-4.73s3.62,1.26,3.62,4.21l-.07,1H72.49c0,1.92.59,2.93,2.36,2.93C76.2,282.48,78.16,282.32,78.16,282.32Zm-1-3.85c0-2.24-.68-3-2.27-3s-2.39.85-2.41,3Z" fill="#4c4c4c"/><path d="M80.61,283.49v-9h1.33v.63a6.85,6.85,0,0,1,2.79-.81c2.49,0,3,1.22,3,4.43v4.75H86.44v-4.72c0-2.37-.27-3.26-1.94-3.26a6.12,6.12,0,0,0-2.54.67v7.31Z" fill="#4c4c4c"/><path d="M96.63,281.82c0,.52.47.72,1,.79l0,1.06a2.75,2.75,0,0,1-2.14-.72,9.2,9.2,0,0,1-3.24.72c-1.64,0-2.54-.94-2.54-2.75s.9-2.49,2.75-2.67l2.83-.27v-.77c0-1.26-.54-1.71-1.62-1.71-1.26,0-3.4.23-3.4.23l-.06-1a22.13,22.13,0,0,1,3.53-.39c2,0,2.9.93,2.9,2.9Zm-4-2.56c-1.09.11-1.53.63-1.53,1.62s.45,1.66,1.37,1.66a9.48,9.48,0,0,0,2.83-.56v-3Z" fill="#4c4c4c"/><path d="M99.29,283.49v-9h1.33v.63a6.85,6.85,0,0,1,2.79-.81c2.49,0,3,1.22,3,4.43v4.75h-1.34v-4.72c0-2.37-.26-3.26-1.94-3.26a6.12,6.12,0,0,0-2.54.67v7.31Z" fill="#4c4c4c"/><path d="M114.77,274.58l0,1.1s-1.44-.17-2.13-.17c-2.07,0-2.62.9-2.62,3.32,0,2.66.41,3.63,2.64,3.63.69,0,2.13-.16,2.13-.16l.05,1.12a24,24,0,0,1-2.5.25c-2.86,0-3.71-1.31-3.71-4.84,0-3.26,1.06-4.52,3.74-4.52A20.89,20.89,0,0,1,114.77,274.58Z" fill="#4c4c4c"/><path d="M123.45,282.32l0,1.06a31.4,31.4,0,0,1-3.52.29c-2.68,0-3.56-1.57-3.56-4.63,0-3.42,1.48-4.73,3.76-4.73s3.62,1.26,3.62,4.21l-.07,1h-5.94c0,1.92.59,2.93,2.36,2.93C121.49,282.48,123.45,282.32,123.45,282.32Zm-1-3.85c0-2.24-.68-3-2.27-3s-2.39.85-2.41,3Z" fill="#4c4c4c"/><path d="M32.21,81.9c2.43,0,3.71,1,3.71,3.17a2.74,2.74,0,0,1-1.61,2.87,2.73,2.73,0,0,1,2,2.93c0,2.63-1.51,3.49-3.85,3.49H27.69V81.9Zm-3.13,1.23v4.3h3.2c1.57,0,2.21-.74,2.21-2.23s-.75-2.07-2.34-2.07Zm0,5.51v4.5h3.31c1.51,0,2.5-.49,2.5-2.32s-1.64-2.18-2.59-2.18Z" fill="#4c4c4c"/><path d="M44.9,92.69c0,.52.47.72,1,.79l0,1.06a2.74,2.74,0,0,1-2.14-.72,9.22,9.22,0,0,1-3.25.72c-1.63,0-2.53-.93-2.53-2.75s.9-2.49,2.75-2.67l2.83-.27v-.77c0-1.26-.54-1.71-1.62-1.71-1.26,0-3.41.23-3.41.23l-.05-1a21.6,21.6,0,0,1,3.53-.4c2,0,2.9.94,2.9,2.9Zm-4-2.56c-1.09.11-1.53.63-1.53,1.62s.45,1.66,1.37,1.66a9.57,9.57,0,0,0,2.83-.56v-3Z" fill="#4c4c4c"/><path d="M49.36,86.53v4.31c0,2,.13,2.52,1.3,2.52.5,0,1.6-.11,1.6-.11l.09,1.11a15.71,15.71,0,0,1-1.84.2c-1.85,0-2.48-.7-2.48-3.29V86.53H46.75V85.36H48V82.61h1.33v2.75h2.86v1.17Z" fill="#4c4c4c"/><path d="M55.68,86.53v4.31c0,2,.12,2.52,1.3,2.52.5,0,1.6-.11,1.6-.11l.09,1.11a15.71,15.71,0,0,1-1.84.2c-1.85,0-2.48-.7-2.48-3.29V86.53H53.07V85.36h1.28V82.61h1.33v2.75h2.86v1.17Z" fill="#4c4c4c"/><path d="M66.84,93.19l0,1.07a32.47,32.47,0,0,1-3.51.28c-2.69,0-3.57-1.56-3.57-4.62,0-3.42,1.48-4.74,3.76-4.74s3.62,1.26,3.62,4.21l-.07,1H61.17c0,1.93.59,2.94,2.36,2.94C64.88,93.36,66.84,93.19,66.84,93.19Zm-1-3.85c0-2.23-.68-3-2.27-3s-2.39.84-2.41,3Z" fill="#4c4c4c"/><path d="M69.29,85.36h1.33v1.23a10.34,10.34,0,0,1,3.29-1.43v1.37a12.81,12.81,0,0,0-3.27,1.23v6.6H69.29Z" fill="#4c4c4c"/><path d="M76,85.36l2.25,7.83h.59l2.27-7.83h1.35l-3.74,13H77.39l1.17-4H77.22l-2.55-9Z" fill="#4c4c4c"/><path d="M88.4,94.36V81.9h1.39V93.12h5.47v1.24Z" fill="#4c4c4c"/><path d="M103.43,93.19l0,1.07a32.2,32.2,0,0,1-3.51.28c-2.68,0-3.57-1.56-3.57-4.62,0-3.42,1.48-4.74,3.77-4.74s3.62,1.26,3.62,4.21l-.08,1H97.76c0,1.93.6,2.94,2.36,2.94C101.47,93.36,103.43,93.19,103.43,93.19Zm-1-3.85c0-2.23-.68-3-2.26-3s-2.4.84-2.42,3Z" fill="#4c4c4c"/><path d="M106.47,85.36l2.11,7.83h.67l2.17-7.83h1.39l-2.54,9h-2.7l-2.54-9Z" fill="#4c4c4c"/><path d="M121.18,93.19l0,1.07a32.5,32.5,0,0,1-3.52.28c-2.68,0-3.56-1.56-3.56-4.62,0-3.42,1.48-4.74,3.76-4.74s3.62,1.26,3.62,4.21l-.07,1h-5.94c0,1.93.59,2.94,2.36,2.94C119.22,93.36,121.18,93.19,121.18,93.19Zm-1-3.85c0-2.23-.68-3-2.27-3s-2.39.84-2.41,3Z" fill="#4c4c4c"/><path d="M123.73,81.44h1.35V94.36h-1.35Z" fill="#4c4c4c"/></g><g id="WT_Screen_Assets"><polyline points="26.69 356.12 43.29 356.12 64.62 353.12 78.85 347.12 95.44 338.12 114.41 332.12 131 325.12 140.49 319.12 163.01 310.12 184.34 306.12 211.61 310.12 229.39 316.12 251.91 324.12 268.5 338.12 282.73 343.12 308.81 347.12 336.07 351.12 353.85 352.12 392.97 353.12 433.27 356.12 464.09 353.12 475.94 347.12" fill="none" stroke="#3899e8"/><polyline points="26.69 356.62 43.29 356.62 64.62 353.62 78.85 347.62 95.44 338.62 114.41 332.62 131 325.62 140.49 319.62 163.01 310.62 184.34 308.62 211.61 312.62 229.39 316.62 251.91 324.62 268.5 338.62 282.73 343.62 308.81 347.62 336.07 351.62 353.85 352.62 392.97 353.62 433.27 356.62 464.09 353.62 475.94 347.62" fill="none" stroke="#8dc5f2" opacity="0.8" style="isolation:isolate"/></g></g></svg>