<svg xmlns="http://www.w3.org/2000/svg" xmlns:xlink="http://www.w3.org/1999/xlink" viewBox="0 0 1132 250">
	<defs>
		<clipPath id="clip-path">
			<rect x="188.06" y="34.61" width="10.89" height="59.98" fill="#76ce89" />
		</clipPath>
		<clipPath id="clip-path-2">
			<rect x="202.68" y="36.28" width="10.89" height="58.31" fill="#76ce89" />
		</clipPath>
		<clipPath id="clip-path-3">
			<rect x="217.3" y="38.79" width="10.88" height="55.8" fill="#76ce89" />
		</clipPath>
		<clipPath id="clip-path-4">
			<rect x="231.91" y="39.07" width="10.88" height="55.52" fill="#76ce89" />
		</clipPath>
		<clipPath id="clip-path-5">
			<rect x="246.52" y="39.08" width="10.87" height="55.51" fill="#76ce89" />
		</clipPath>
		<clipPath id="clip-path-6">
			<rect x="261.13" y="39.07" width="10.87" height="55.52" fill="#76ce89" />
		</clipPath>
		<clipPath id="clip-path-7">
			<rect x="275.73" y="41.88" width="10.87" height="52.71" fill="#76ce89" />
		</clipPath>
		<clipPath id="clip-path-8">
			<rect x="290.33" y="43.75" width="10.86" height="50.84" fill="#76ce89" />
		</clipPath>
		<clipPath id="clip-path-9">
			<rect x="304.92" y="43.75" width="10.86" height="50.84" fill="#76ce89" />
		</clipPath>
		<clipPath id="clip-path-10">
			<rect x="319.5" y="45.61" width="10.86" height="48.98" fill="#76ce89" />
		</clipPath>
		<clipPath id="clip-path-11">
			<rect x="334.09" y="46.56" width="10.86" height="48.03" fill="#76ce89" />
		</clipPath>
		<clipPath id="clip-path-12">
			<rect x="348.67" y="48.42" width="10.85" height="46.17" fill="#76ce89" />
		</clipPath>
		<clipPath id="clip-path-13">
			<rect x="363.25" y="50.29" width="10.84" height="44.29" fill="#76ce89" />
		</clipPath>
		<clipPath id="clip-path-14">
			<rect x="377.82" y="53.09" width="10.83" height="41.5" fill="#76ce89" />
		</clipPath>
		<clipPath id="clip-path-15">
			<rect x="392.38" y="54.96" width="10.82" height="39.63" fill="#ffda00" />
		</clipPath>
		<clipPath id="clip-path-16">
			<rect x="406.93" y="57.77" width="10.81" height="36.81" fill="#ffda00" />
		</clipPath>
		<clipPath id="clip-path-17">
			<rect x="421.47" y="67.11" width="10.78" height="27.48" fill="none" />
		</clipPath>
		<clipPath id="clip-path-18">
			<rect x="464.96" y="51.23" width="10.83" height="43.36" fill="#76ce89" />
		</clipPath>
		<clipPath id="clip-path-19">
			<rect x="479.52" y="54.97" width="10.82" height="39.62" fill="#76ce89" />
		</clipPath>
		<clipPath id="clip-path-20">
			<rect x="494.07" y="57.76" width="10.82" height="36.82" fill="#76ce89" />
		</clipPath>
		<clipPath id="clip-path-21">
			<rect x="508.62" y="57.76" width="10.82" height="36.82" fill="#76ce89" />
		</clipPath>
		<clipPath id="clip-path-22">
			<rect x="435.98" y="78.33" width="10.78" height="16.26" fill="#ff4200" />
		</clipPath>
		<clipPath id="clip-path-23">
			<rect x="450.49" y="51.23" width="10.75" height="43.36" fill="#76ce89" />
		</clipPath>
		<clipPath id="clip-path-24">
			<rect x="173.43" y="31.25" width="10.9" height="63.37" fill="#76ce89" />
		</clipPath>
		<clipPath id="clip-path-25">
			<rect x="158.8" y="28.75" width="10.91" height="65.93" fill="#76ce89" />
		</clipPath>
		<clipPath id="clip-path-26">
			<rect x="753.4" y="32.74" width="10.11" height="59.98" fill="#76ce89" />
		</clipPath>
		<clipPath id="clip-path-27">
			<rect x="767.7" y="34.41" width="10.11" height="58.31" fill="#76ce89" />
		</clipPath>
		<clipPath id="clip-path-28">
			<rect x="782" y="36.92" width="10.11" height="55.8" fill="#76ce89" />
		</clipPath>
		<clipPath id="clip-path-29">
			<rect x="796.29" y="37.2" width="10.11" height="55.52" fill="#76ce89" />
		</clipPath>
		<clipPath id="clip-path-30">
			<rect x="810.59" y="37.21" width="10.1" height="55.51" fill="#76ce89" />
		</clipPath>
		<clipPath id="clip-path-31">
			<rect x="824.87" y="37.2" width="10.1" height="55.52" fill="#76ce89" />
		</clipPath>
		<clipPath id="clip-path-32">
			<rect x="839.16" y="40.01" width="10.1" height="52.71" fill="#76ce89" />
		</clipPath>
		<clipPath id="clip-path-33">
			<rect x="853.44" y="41.88" width="10.08" height="50.84" fill="#76ce89" />
		</clipPath>
		<clipPath id="clip-path-34">
			<rect x="867.71" y="41.88" width="10.08" height="50.84" fill="#76ce89" />
		</clipPath>
		<clipPath id="clip-path-35">
			<rect x="881.98" y="43.74" width="10.08" height="48.98" fill="#76ce89" />
		</clipPath>
		<clipPath id="clip-path-36">
			<rect x="896.25" y="44.69" width="10.08" height="48.03" fill="#76ce89" />
		</clipPath>
		<clipPath id="clip-path-37">
			<rect x="910.52" y="46.55" width="10.07" height="46.17" fill="#76ce89" />
		</clipPath>
		<clipPath id="clip-path-38">
			<rect x="924.78" y="48.42" width="10.07" height="44.29" fill="#76ce89" />
		</clipPath>
		<clipPath id="clip-path-39">
			<rect x="939.03" y="51.22" width="10.06" height="41.5" fill="#76ce89" />
		</clipPath>
		<clipPath id="clip-path-40">
			<rect x="953.28" y="53.09" width="10.05" height="39.63" fill="#76ce89" />
		</clipPath>
		<clipPath id="clip-path-41">
			<rect x="967.52" y="55.9" width="10.04" height="36.81" fill="#ffda00" />
		</clipPath>
		<clipPath id="clip-path-42">
			<rect x="981.75" y="58.71" width="10.03" height="34.01" fill="#ffda00" />
		</clipPath>
		<clipPath id="clip-path-43">
			<rect x="995.97" y="76.97" width="10.03" height="15.75" fill="#ff4200" />
		</clipPath>
		<clipPath id="clip-path-44">
			<rect x="1010.18" y="54.51" width="10.01" height="38.21" fill="#76ce89" />
		</clipPath>
		<clipPath id="clip-path-45">
			<rect x="1052.73" y="49.36" width="10.06" height="43.36" fill="#76ce89" />
		</clipPath>
		<clipPath id="clip-path-46">
			<rect x="1066.98" y="49.36" width="10.05" height="43.36" fill="#76ce89" />
		</clipPath>
		<clipPath id="clip-path-47">
			<rect x="1024.38" y="49.36" width="10" height="43.36" fill="#76ce89" />
		</clipPath>
		<clipPath id="clip-path-48">
			<rect x="1038.57" y="49.36" width="9.98" height="43.36" fill="#76ce89" />
		</clipPath>
		<clipPath id="clip-path-49">
			<rect x="739.09" y="29.38" width="10.12" height="63.37" fill="#76ce89" />
		</clipPath>
		<clipPath id="clip-path-50">
			<rect x="724.77" y="26.88" width="10.13" height="65.93" fill="#76ce89" />
		</clipPath>
		<clipPath id="clip-path-51">
			<rect x="753.42" y="146.06" width="10.22" height="59.98" fill="#76ce89" />
		</clipPath>
		<clipPath id="clip-path-52">
			<rect x="767.72" y="147.73" width="10.22" height="58.31" fill="#76ce89" />
		</clipPath>
		<clipPath id="clip-path-53">
			<rect x="782.03" y="150.24" width="10.21" height="55.8" fill="#76ce89" />
		</clipPath>
		<clipPath id="clip-path-54">
			<rect x="796.33" y="150.52" width="10.21" height="55.52" fill="#76ce89" />
		</clipPath>
		<clipPath id="clip-path-55">
			<rect x="810.63" y="150.53" width="10.2" height="55.51" fill="#76ce89" />
		</clipPath>
		<clipPath id="clip-path-56">
			<rect x="824.93" y="150.52" width="10.2" height="55.52" fill="#76ce89" />
		</clipPath>
		<clipPath id="clip-path-57">
			<rect x="839.22" y="153.33" width="10.2" height="52.71" fill="#76ce89" />
		</clipPath>
		<clipPath id="clip-path-58">
			<rect x="853.51" y="155.2" width="10.19" height="50.84" fill="#76ce89" />
		</clipPath>
		<clipPath id="clip-path-59">
			<rect x="867.79" y="155.2" width="10.19" height="50.84" fill="#76ce89" />
		</clipPath>
		<clipPath id="clip-path-60">
			<rect x="882.07" y="157.06" width="10.19" height="48.98" fill="#76ce89" />
		</clipPath>
		<clipPath id="clip-path-61">
			<rect x="896.34" y="158.01" width="10.19" height="48.03" fill="#76ce89" />
		</clipPath>
		<clipPath id="clip-path-62">
			<rect x="910.62" y="159.87" width="10.18" height="46.17" fill="#76ce89" />
		</clipPath>
		<clipPath id="clip-path-63">
			<rect x="924.89" y="161.74" width="10.17" height="44.29" fill="#76ce89" />
		</clipPath>
		<clipPath id="clip-path-64">
			<rect x="939.15" y="178.56" width="10.16" height="27.48" fill="#ffda00" />
		</clipPath>
		<clipPath id="clip-path-65">
			<rect x="953.4" y="184.17" width="10.15" height="21.87" fill="#ffda00" />
		</clipPath>
		<clipPath id="clip-path-66">
			<rect x="967.65" y="189.78" width="10.15" height="16.26" fill="#ff4200" />
		</clipPath>
		<clipPath id="clip-path-67">
			<rect x="981.88" y="161.74" width="10.14" height="44.29" fill="#76ce89" />
		</clipPath>
		<clipPath id="clip-path-68">
			<rect x="996.11" y="164.94" width="10.13" height="41.1" fill="#76ce89" />
		</clipPath>
		<clipPath id="clip-path-69">
			<rect x="1010.33" y="166.97" width="10.13" height="39.06" fill="#76ce89" />
		</clipPath>
		<clipPath id="clip-path-70">
			<rect x="1024.55" y="166.97" width="10.11" height="39.06" fill="#76ce89" />
		</clipPath>
		<clipPath id="clip-path-71">
			<rect x="1067.13" y="166.97" width="9.75" height="39.06" fill="#76ce89" />
		</clipPath>
		<clipPath id="clip-path-72">
			<rect x="1038.76" y="166.97" width="10.11" height="39.06" fill="#76ce89" />
		</clipPath>
		<clipPath id="clip-path-73">
			<rect x="1052.96" y="166.97" width="10.08" height="39.06" fill="#76ce89" />
		</clipPath>
		<clipPath id="clip-path-74">
			<rect x="739.1" y="142.66" width="10.23" height="63.37" fill="#76ce89" />
		</clipPath>
		<clipPath id="clip-path-75">
			<rect x="724.77" y="140.11" width="10.23" height="65.93" fill="#76ce89" />
		</clipPath>
		<clipPath id="clip-path-76">
			<rect x="188.05" y="146.91" width="11.25" height="59.98" fill="#76ce89" />
		</clipPath>
		<clipPath id="clip-path-77">
			<rect x="202.67" y="148.58" width="11.25" height="58.31" fill="#76ce89" />
		</clipPath>
		<clipPath id="clip-path-78">
			<rect x="217.28" y="151.09" width="11.24" height="55.8" fill="#76ce89" />
		</clipPath>
		<clipPath id="clip-path-79">
			<rect x="231.89" y="151.37" width="11.24" height="55.52" fill="#76ce89" />
		</clipPath>
		<clipPath id="clip-path-80">
			<rect x="246.49" y="151.38" width="11.23" height="55.51" fill="#76ce89" />
		</clipPath>
		<clipPath id="clip-path-81">
			<rect x="261.09" y="151.37" width="11.24" height="55.52" fill="#76ce89" />
		</clipPath>
		<clipPath id="clip-path-82">
			<rect x="275.69" y="154.18" width="11.24" height="52.71" fill="#76ce89" />
		</clipPath>
		<clipPath id="clip-path-83">
			<rect x="290.29" y="156.05" width="11.22" height="50.84" fill="#76ce89" />
		</clipPath>
		<clipPath id="clip-path-84">
			<rect x="304.86" y="156.05" width="11.22" height="50.84" fill="#76ce89" />
		</clipPath>
		<clipPath id="clip-path-85">
			<rect x="319.44" y="157.91" width="11.22" height="48.98" fill="#76ce89" />
		</clipPath>
		<clipPath id="clip-path-86">
			<rect x="334.02" y="158.86" width="11.22" height="48.03" fill="#76ce89" />
		</clipPath>
		<clipPath id="clip-path-87">
			<rect x="348.6" y="160.72" width="11.21" height="46.17" fill="#76ce89" />
		</clipPath>
		<clipPath id="clip-path-88">
			<rect x="363.17" y="162.6" width="11.2" height="44.29" fill="#76ce89" />
		</clipPath>
		<clipPath id="clip-path-89">
			<rect x="377.73" y="165.39" width="11.19" height="41.5" fill="#ffda00" />
		</clipPath>
		<clipPath id="clip-path-90">
			<rect x="392.29" y="167.26" width="11.18" height="39.63" fill="#ffda00" />
		</clipPath>
		<clipPath id="clip-path-91">
			<rect x="406.83" y="190.63" width="11.17" height="16.26" fill="#ff4200" />
		</clipPath>
		<clipPath id="clip-path-92">
			<rect x="421.37" y="165.39" width="11.16" height="41.5" fill="#76ce89" />
		</clipPath>
		<clipPath id="clip-path-93">
			<rect x="435.89" y="170.06" width="11.14" height="36.82" fill="#76ce89" />
		</clipPath>
		<clipPath id="clip-path-94">
			<rect x="493.9" y="171.36" width="11.18" height="35.53" fill="#76ce89" />
		</clipPath>
		<clipPath id="clip-path-95">
			<rect x="479.36" y="171.36" width="11.18" height="35.53" fill="#76ce89" />
		</clipPath>
		<clipPath id="clip-path-96">
			<rect x="508.44" y="171.36" width="11.18" height="35.53" fill="#76ce89" />
		</clipPath>
		<clipPath id="clip-path-97">
			<rect x="450.39" y="171.36" width="11.14" height="35.53" fill="#76ce89" />
		</clipPath>
		<clipPath id="clip-path-98">
			<rect x="464.89" y="171.36" width="11.1" height="35.53" fill="#76ce89" />
		</clipPath>
		<clipPath id="clip-path-99">
			<rect x="173.43" y="143.55" width="11.26" height="63.37" fill="#76ce89" />
		</clipPath>
		<clipPath id="clip-path-100">
			<rect x="158.8" y="141.05" width="11.27" height="65.93" fill="#76ce89" />
		</clipPath>
	</defs>
	<title>
		Wear_Tear_Screen
	</title>
	<g style="isolation:isolate">
		<g id="Layer_2" data-name="Layer 2">
			<g id="Layer_5" data-name="Layer 5">
				<rect x="3.22" y="1.88" width="1125.31" height="241.14" fill="rgba(0,0,0,0)" />
			</g>
			<g id="Layer_6" data-name="Layer 6">
				<line x1="3.22" y1="11" x2="3.22" y2="235.67" fill="none" stroke="#ddd" stroke-miterlimit="10" />
			</g>
			<g id="Layer_1-2" data-name="Layer 1">
				<line x1="723.61" y1="23.67" x2="723.61" y2="100.43" fill="none" stroke="#adadad" stroke-miterlimit="10" />
				<line x1="1078.78" y1="93.51" x2="715.39" y2="93.51" fill="none" stroke="#adadad" stroke-miterlimit="10" />
				<line x1="723.61" y1="136.33" x2="723.61" y2="213.6" fill="none" stroke="#adadad" stroke-miterlimit="10" />
				<line x1="1078.78" y1="206.67" x2="715.39" y2="206.67" fill="none" stroke="#adadad" stroke-miterlimit="10" />
				<path d="M167.62,103.63H164.1V103l2.07-5.18h.92l-2.1,5.09h2.63v-2.26h.85v2.26h.92v.75h-.92v1.42h-.85Z" fill="#4c4c4c" />
				<path d="M151.56,95.13c0,2.79-1,3.63-2.64,3.63s-2.65-.82-2.65-3.62c0-3,1-3.87,2.64-3.87S151.56,92.14,151.56,95.13Zm-4.41,0c0,2.28.63,2.88,1.77,2.88s1.77-.61,1.77-2.89c0-2.44-.56-3.1-1.77-3.1S147.15,92.67,147.15,95.14Z" fill="#4c4c4c" />
				<path d="M146.6,77v-.72L148.73,74c.9-.94,1.46-1.53,1.46-2.39s-.54-1.28-1.59-1.28a10.28,10.28,0,0,0-1.88.25l-.06-.71a8.94,8.94,0,0,1,2.1-.29c1.53,0,2.3.58,2.3,1.94,0,1.09-.5,1.73-1.52,2.72l-1.94,2h3.64V77Z" fill="#4c4c4c" />
				<path d="M149.8,53.09h-3.52v-.66l2.07-5.18h.93l-2.11,5.09h2.63V50.07h.85v2.27h.92v.75h-.92v1.42h-.85Z" fill="#4c4c4c" />
				<path d="M151.15,25.56a17.09,17.09,0,0,0-1.92-.13c-1.26,0-2,.9-2,2.51a6.17,6.17,0,0,1,1.82-.43c1.6,0,2.44.72,2.44,2.25a2.24,2.24,0,0,1-2.54,2.4c-1.81,0-2.6-1.42-2.6-3.77,0-2.63,1.11-3.71,2.84-3.71a13.27,13.27,0,0,1,2,.19Zm-3.89,3.12c0,1.55.48,2.73,1.73,2.73a1.49,1.49,0,0,0,1.66-1.65c0-1-.61-1.49-1.62-1.49A5.19,5.19,0,0,0,147.26,28.68Z" fill="#4c4c4c" />
				<path d="M229.52,99.57a1.6,1.6,0,0,1-1.21,1.69,1.83,1.83,0,0,1,1.32,1.83c0,1.6-1.23,2.08-2.74,2.08s-2.71-.45-2.71-2a2,2,0,0,1,1.26-1.95,1.68,1.68,0,0,1-1.14-1.7c0-1.26,1-1.88,2.59-1.88S229.52,98.29,229.52,99.57Zm-.79,3.43c0-.84-.56-1.12-1.29-1.33h-1.15c-.76.21-1.2.58-1.2,1.4,0,1,.77,1.33,1.8,1.33S228.73,104.07,228.73,103Zm-3.52-3.34c0,.67.36,1,1.08,1.27h1.15c.75-.24,1.18-.59,1.18-1.26,0-.87-.65-1.22-1.72-1.22S225.21,98.79,225.21,99.66Z" fill="#4c4c4c" />
				<path d="M287.49,97.8h.79v7.26h-.84V98.75L285.56,100l-.38-.64Z" fill="#4c4c4c" />
				<path d="M290.92,105.06v-.72l2.12-2.23c.91-.93,1.47-1.53,1.47-2.39s-.54-1.27-1.59-1.27a10.68,10.68,0,0,0-1.88.24L291,98a8.67,8.67,0,0,1,2.1-.3c1.53,0,2.3.58,2.3,2,0,1.09-.5,1.72-1.52,2.71l-1.94,2h3.64v.74Z" fill="#4c4c4c" />
				<path d="M353.82,97.8h.79v7.26h-.84V98.75L351.9,100l-.39-.64Z" fill="#4c4c4c" />
				<path d="M361.8,98.57a17.09,17.09,0,0,0-1.92-.13c-1.26,0-2,.9-2,2.51a6.17,6.17,0,0,1,1.82-.43c1.6,0,2.44.72,2.44,2.25a2.24,2.24,0,0,1-2.54,2.4c-1.81,0-2.6-1.42-2.6-3.77,0-2.63,1.11-3.71,2.84-3.71a13.27,13.27,0,0,1,2,.19Zm-3.89,3.12c0,1.55.48,2.73,1.73,2.73a1.49,1.49,0,0,0,1.66-1.65c0-1-.6-1.49-1.62-1.49A5.19,5.19,0,0,0,357.91,101.69Z" fill="#4c4c4c" />
				<path d="M417.42,105.06v-.72l2.13-2.23c.9-.93,1.46-1.53,1.46-2.39s-.54-1.27-1.58-1.27a10.69,10.69,0,0,0-1.89.24l-.06-.7a8.67,8.67,0,0,1,2.1-.3c1.53,0,2.3.58,2.3,2,0,1.09-.5,1.72-1.52,2.71l-1.94,2h3.65v.74Z" fill="#4c4c4c" />
				<path d="M428.54,101.54c0,2.78-1,3.63-2.64,3.63s-2.65-.83-2.65-3.62c0-3,1-3.87,2.64-3.87S428.54,98.55,428.54,101.54Zm-4.41,0c0,2.28.63,2.87,1.77,2.87s1.78-.6,1.78-2.88c0-2.44-.56-3.1-1.78-3.1S424.13,99.08,424.13,101.55Z" fill="#4c4c4c" />
				<path d="M509.38,105.06v-.72l2.13-2.23c.9-.93,1.46-1.53,1.46-2.39s-.54-1.27-1.59-1.27a10.68,10.68,0,0,0-1.88.24l-.06-.7a8.67,8.67,0,0,1,2.1-.3c1.53,0,2.3.58,2.3,2,0,1.09-.5,1.72-1.52,2.71l-1.94,2H514v.74Z" fill="#4c4c4c" />
				<path d="M518.74,103.64h-3.52V103l2.07-5.18h.93l-2.1,5.09h2.62v-2.26h.85v2.26h.93v.75h-.93v1.42h-.85Z" fill="#4c4c4c" />
				<path d="M62.49,52.57h3.36l3.8,13.85H68.13l-1-3.56H61.21l-1,3.56H58.69Zm-.94,8.9h5.24l-2.1-7.58h-1Z" />
				<path d="M77.31,59.33h3.82v6.81a33.71,33.71,0,0,1-4.5.48c-4.24,0-5.36-2.6-5.36-7.08s1.16-7.17,5.32-7.17a25.77,25.77,0,0,1,4.54.52l-.06,1.28a31.73,31.73,0,0,0-4.3-.42c-3.2,0-3.9,1.86-3.9,5.79s.68,5.72,3.88,5.72A18.56,18.56,0,0,0,79.61,65V60.71h-2.3Z" />
				<path d="M93.61,52.57,90,66.42H86.55L82.93,52.57h1.6l3.18,12.49h1.12L92,52.57Z" />
				<path d="M99.87,66.42v-1.3l3.86-4.07c1.64-1.7,2.66-2.78,2.66-4.34,0-1.76-1-2.32-2.88-2.32a19.21,19.21,0,0,0-3.42.44L100,53.55a16,16,0,0,1,3.82-.54c2.78,0,4.18,1.06,4.18,3.54,0,2-.9,3.15-2.76,5l-3.52,3.58h6.62v1.34Z" />
				<line x1="157.85" y1="24" x2="157.85" y2="101.24" fill="none" stroke="#adadad" stroke-miterlimit="10" />
				<line x1="520.73" y1="95.05" x2="154.51" y2="95.05" fill="none" stroke="#adadad" stroke-miterlimit="10" />
				<path d="M734.63,103.63h-3.52V103l2.07-5.18h.93L732,102.88h2.63v-2.26h.85v2.26h.93v.75h-.93v1.42h-.85Z" fill="#4c4c4c" />
				<path d="M714.1,95.13c0,2.79-1,3.63-2.64,3.63s-2.65-.82-2.65-3.62c0-3,1-3.87,2.64-3.87S714.1,92.14,714.1,95.13Zm-4.41,0c0,2.28.62,2.88,1.77,2.88s1.77-.61,1.77-2.89c0-2.44-.56-3.1-1.77-3.1S709.69,92.67,709.69,95.14Z" fill="#4c4c4c" />
				<path d="M709.14,77v-.72L711.26,74c.9-.94,1.46-1.53,1.46-2.39s-.54-1.28-1.58-1.28a10.12,10.12,0,0,0-1.88.25l-.07-.71a9.05,9.05,0,0,1,2.1-.29c1.53,0,2.3.58,2.3,1.94,0,1.09-.49,1.73-1.52,2.72l-1.93,2h3.64V77Z" fill="#4c4c4c" />
				<path d="M712.34,53.09h-3.52v-.66l2.07-5.18h.92l-2.1,5.09h2.63V50.07h.84v2.27h.93v.75h-.93v1.42h-.84Z" fill="#4c4c4c" />
				<path d="M713.68,25.56a17,17,0,0,0-1.91-.13c-1.27,0-2,.9-2,2.51a6.07,6.07,0,0,1,1.81-.43c1.61,0,2.44.72,2.44,2.25a2.24,2.24,0,0,1-2.54,2.4c-1.8,0-2.59-1.42-2.59-3.77,0-2.63,1.11-3.71,2.84-3.71a13.46,13.46,0,0,1,2,.19Zm-3.88,3.12c0,1.55.47,2.73,1.72,2.73a1.49,1.49,0,0,0,1.66-1.65c0-1-.6-1.49-1.61-1.49A5.11,5.11,0,0,0,709.8,28.68Z" fill="#4c4c4c" />
				<path d="M800,99.57a1.61,1.61,0,0,1-1.21,1.69,1.83,1.83,0,0,1,1.32,1.83c0,1.6-1.24,2.08-2.74,2.08s-2.71-.45-2.71-2a2,2,0,0,1,1.26-1.95,1.68,1.68,0,0,1-1.14-1.7c0-1.26,1-1.88,2.59-1.88S800,98.29,800,99.57Zm-.8,3.43c0-.84-.56-1.12-1.28-1.33h-1.16c-.76.21-1.2.58-1.2,1.4,0,1,.77,1.33,1.81,1.33S799.16,104.07,799.16,103Zm-3.52-3.34c0,.67.37,1,1.08,1.27h1.16c.75-.24,1.17-.59,1.17-1.26,0-.87-.64-1.22-1.71-1.22S795.64,98.79,795.64,99.66Z" fill="#4c4c4c" />
				<path d="M861.35,97.8h.79v7.26h-.84V98.75L859.43,100l-.39-.64Z" fill="#4c4c4c" />
				<path d="M864.78,105.06v-.72l2.13-2.23c.9-.93,1.46-1.53,1.46-2.39s-.54-1.27-1.58-1.27a10.69,10.69,0,0,0-1.89.24l-.06-.7a8.67,8.67,0,0,1,2.1-.3c1.53,0,2.3.58,2.3,2,0,1.09-.5,1.72-1.52,2.71l-1.94,2h3.64v.74Z" fill="#4c4c4c" />
				<path d="M931.11,97.8h.79v7.26h-.85V98.75L929.18,100l-.39-.64Z" fill="#4c4c4c" />
				<path d="M939.08,98.57a17,17,0,0,0-1.91-.13c-1.27,0-2,.9-2,2.51a6.07,6.07,0,0,1,1.81-.43c1.61,0,2.45.72,2.45,2.25a2.25,2.25,0,0,1-2.55,2.4c-1.8,0-2.59-1.42-2.59-3.77,0-2.63,1.11-3.71,2.84-3.71a13.46,13.46,0,0,1,2,.19Zm-3.88,3.12c0,1.55.47,2.73,1.72,2.73a1.49,1.49,0,0,0,1.67-1.65c0-1-.61-1.49-1.62-1.49A5.11,5.11,0,0,0,935.2,101.69Z" fill="#4c4c4c" />
				<path d="M998.13,105.06v-.72l2.13-2.23c.9-.93,1.46-1.53,1.46-2.39s-.54-1.27-1.59-1.27a10.68,10.68,0,0,0-1.88.24l-.06-.7a8.67,8.67,0,0,1,2.1-.3c1.53,0,2.3.58,2.3,2,0,1.09-.5,1.72-1.52,2.71l-1.94,2h3.64v.74Z" fill="#4c4c4c" />
				<path d="M1009.25,101.54c0,2.78-1,3.63-2.64,3.63s-2.65-.83-2.65-3.62c0-3,1-3.87,2.64-3.87S1009.25,98.55,1009.25,101.54Zm-4.41,0c0,2.28.63,2.87,1.77,2.87s1.77-.6,1.77-2.88c0-2.44-.56-3.1-1.77-3.1S1004.84,99.08,1004.84,101.55Z" fill="#4c4c4c" />
				<path d="M1067.89,105.06v-.72l2.12-2.23c.9-.93,1.46-1.53,1.46-2.39s-.54-1.27-1.58-1.27a10.68,10.68,0,0,0-1.88.24l-.07-.7a8.77,8.77,0,0,1,2.1-.3c1.53,0,2.3.58,2.3,2,0,1.09-.49,1.72-1.52,2.71l-1.93,2h3.64v.74Z" fill="#4c4c4c" />
				<path d="M1077.25,103.64h-3.52V103l2.07-5.18h.92l-2.1,5.09h2.63v-2.26h.85v2.26h.92v.75h-.92v1.42h-.85Z" fill="#4c4c4c" />
				<path d="M627.38,52.57h3.37l3.8,13.85H633l-1-3.56H626.1l-1,3.56h-1.52Zm-.94,8.9h5.25l-2.11-7.58h-1Z" />
				<path d="M642.21,59.33H646v6.8a33.51,33.51,0,0,1-4.51.49c-4.24,0-5.36-2.6-5.36-7.09s1.16-7.16,5.32-7.16a26,26,0,0,1,4.55.52L646,54.17a31.73,31.73,0,0,0-4.3-.42c-3.21,0-3.91,1.86-3.91,5.78s.68,5.73,3.88,5.73a17.24,17.24,0,0,0,2.87-.29V60.71h-2.3Z" />
				<path d="M658.51,52.57l-3.62,13.85h-3.45l-3.62-13.85h1.6l3.18,12.48h1.13l3.18-12.48Z" />
				<path d="M664.92,53.21h8.21v2L668,66.62l-1.46-.46,5-11v-.52h-6.64Z" />
				<path d="M167.62,216.1H164.1v-.66l2.07-5.19h.92l-2.1,5.1h2.63v-2.27h.85v2.27h.92v.75h-.92v1.42h-.85Z" fill="#4c4c4c" />
				<path d="M151.56,207.6c0,2.78-1,3.63-2.64,3.63s-2.65-.83-2.65-3.62c0-3,1-3.87,2.64-3.87S151.56,204.61,151.56,207.6Zm-4.41,0c0,2.28.63,2.87,1.77,2.87s1.77-.6,1.77-2.88c0-2.44-.56-3.1-1.77-3.1S147.15,205.13,147.15,207.61Z" fill="#4c4c4c" />
				<path d="M146.6,189.43v-.71l2.13-2.24c.9-.93,1.46-1.52,1.46-2.38s-.54-1.28-1.59-1.28a10.68,10.68,0,0,0-1.88.24l-.06-.7a8.67,8.67,0,0,1,2.1-.3c1.53,0,2.3.58,2.3,1.95,0,1.09-.5,1.73-1.52,2.72l-1.94,2h3.64v.73Z" fill="#4c4c4c" />
				<path d="M149.8,165.55h-3.52v-.66l2.07-5.18h.93l-2.11,5.1h2.63v-2.27h.85v2.27h.92v.74h-.92V167h-.85Z" fill="#4c4c4c" />
				<path d="M151.15,138a15.9,15.9,0,0,0-1.92-.14c-1.26,0-2,.9-2,2.51a6.17,6.17,0,0,1,1.82-.43c1.6,0,2.44.73,2.44,2.26a2.24,2.24,0,0,1-2.54,2.4c-1.81,0-2.6-1.42-2.6-3.78,0-2.63,1.11-3.71,2.84-3.71a13.27,13.27,0,0,1,2,.19Zm-3.89,3.12c0,1.55.48,2.73,1.73,2.73a1.49,1.49,0,0,0,1.66-1.65c0-1-.61-1.5-1.62-1.5A5.09,5.09,0,0,0,147.26,141.15Z" fill="#4c4c4c" />
				<path d="M230.6,212a1.61,1.61,0,0,1-1.21,1.69,1.82,1.82,0,0,1,1.32,1.83c0,1.59-1.23,2.08-2.74,2.08s-2.71-.45-2.71-2a1.94,1.94,0,0,1,1.26-2,1.67,1.67,0,0,1-1.13-1.7c0-1.26,1-1.89,2.58-1.89S230.6,210.76,230.6,212Zm-.79,3.43c0-.85-.56-1.12-1.29-1.33h-1.15c-.76.21-1.2.58-1.2,1.4,0,1,.77,1.33,1.8,1.33S229.81,216.54,229.81,215.47Zm-3.52-3.35c0,.67.36,1,1.08,1.28h1.15c.75-.24,1.18-.59,1.18-1.27,0-.86-.65-1.22-1.72-1.22S226.29,211.25,226.29,212.12Z" fill="#4c4c4c" />
				<path d="M289.65,210.26h.79v7.27h-.84v-6.32l-1.87,1.23-.39-.64Z" fill="#4c4c4c" />
				<path d="M293.08,217.53v-.72l2.13-2.23c.9-.94,1.46-1.53,1.46-2.39s-.54-1.28-1.58-1.28a10.12,10.12,0,0,0-1.88.25l-.07-.71a8.67,8.67,0,0,1,2.1-.3c1.53,0,2.3.59,2.3,1.95,0,1.09-.5,1.73-1.52,2.72l-1.94,2h3.65v.74Z" fill="#4c4c4c" />
				<path d="M357.06,210.26h.8v7.27H357v-6.32l-1.87,1.23-.39-.64Z" fill="#4c4c4c" />
				<path d="M365,211a15.85,15.85,0,0,0-1.91-.14c-1.27,0-2,.9-2,2.51A6.07,6.07,0,0,1,363,213c1.61,0,2.44.73,2.44,2.26a2.24,2.24,0,0,1-2.54,2.4c-1.8,0-2.59-1.42-2.59-3.78,0-2.63,1.11-3.71,2.84-3.71a13.46,13.46,0,0,1,2,.19Zm-3.88,3.12c0,1.55.47,2.73,1.72,2.73a1.49,1.49,0,0,0,1.66-1.65c0-1-.6-1.5-1.61-1.5A5,5,0,0,0,361.16,214.16Z" fill="#4c4c4c" />
				<path d="M421.75,217.53v-.72l2.12-2.23c.9-.94,1.46-1.53,1.46-2.39s-.53-1.28-1.58-1.28a10.28,10.28,0,0,0-1.88.25l-.07-.71a8.77,8.77,0,0,1,2.1-.3c1.53,0,2.3.59,2.3,1.95,0,1.09-.49,1.73-1.51,2.72l-1.94,2h3.64v.74Z" fill="#4c4c4c" />
				<path d="M432.87,214c0,2.78-1,3.63-2.64,3.63s-2.65-.83-2.65-3.62c0-3,1-3.88,2.64-3.88S432.87,211,432.87,214Zm-4.41,0c0,2.27.63,2.87,1.77,2.87S432,216.28,432,214c0-2.45-.56-3.11-1.77-3.11S428.46,211.54,428.46,214Z" fill="#4c4c4c" />
				<path d="M507.14,217.53v-.72l2.12-2.23c.9-.94,1.47-1.53,1.47-2.39s-.54-1.28-1.59-1.28a10.28,10.28,0,0,0-1.88.25l-.07-.71a8.77,8.77,0,0,1,2.1-.3c1.53,0,2.3.59,2.3,1.95,0,1.09-.49,1.73-1.51,2.72l-1.94,2h3.64v.74Z" fill="#4c4c4c" />
				<path d="M516.5,216.11H513v-.66l2.07-5.19H516l-2.1,5.1h2.63v-2.27h.85v2.27h.92v.75h-.92v1.42h-.85Z" fill="#4c4c4c" />
				<path d="M62.49,163.06h3.36l3.8,13.84H68.13l-1-3.56H61.21l-1,3.56H58.69Zm-.94,8.9h5.24l-2.1-7.58h-1Z" />
				<path d="M77.31,169.82h3.82v6.8a33.71,33.71,0,0,1-4.5.48c-4.24,0-5.36-2.6-5.36-7.08s1.16-7.16,5.32-7.16a25.77,25.77,0,0,1,4.54.52l-.06,1.28a31.73,31.73,0,0,0-4.3-.42c-3.2,0-3.9,1.86-3.9,5.78s.68,5.72,3.88,5.72a18.56,18.56,0,0,0,2.86-.28V171.2h-2.3Z" />
				<path d="M93.61,163.06,90,176.9H86.55l-3.62-13.84h1.6l3.18,12.48h1.12L92,163.06Z" />
				<path d="M105.69,174.32h-6.4v-1.2l3.76-9.42h1.68L100.91,173h4.78v-4.12h1.54V173h1.68v1.36h-1.68v2.58h-1.54Z" />
				<line x1="157.85" y1="132.77" x2="157.85" y2="213.71" fill="none" stroke="#adadad" stroke-miterlimit="10" />
				<line x1="520.73" y1="207.51" x2="154.51" y2="207.51" fill="none" stroke="#adadad" stroke-miterlimit="10" />
				<path d="M734.63,216.1h-3.52v-.66l2.07-5.19h.93l-2.11,5.1h2.63v-2.27h.85v2.27h.93v.75h-.93v1.42h-.85Z" fill="#4c4c4c" />
				<path d="M714.1,207.6c0,2.78-1,3.63-2.64,3.63s-2.65-.83-2.65-3.62c0-3,1-3.87,2.64-3.87S714.1,204.61,714.1,207.6Zm-4.41,0c0,2.28.62,2.87,1.77,2.87s1.77-.6,1.77-2.88c0-2.44-.56-3.1-1.77-3.1S709.69,205.13,709.69,207.61Z" fill="#4c4c4c" />
				<path d="M709.14,189.43v-.71l2.12-2.24c.9-.93,1.46-1.52,1.46-2.38s-.54-1.28-1.58-1.28a10.52,10.52,0,0,0-1.88.24l-.07-.7a8.77,8.77,0,0,1,2.1-.3c1.53,0,2.3.58,2.3,1.95,0,1.09-.49,1.73-1.52,2.72l-1.93,2h3.64v.73Z" fill="#4c4c4c" />
				<path d="M712.34,165.55h-3.52v-.66l2.07-5.18h.92l-2.1,5.1h2.63v-2.27h.84v2.27h.93v.74h-.93V167h-.84Z" fill="#4c4c4c" />
				<path d="M713.68,138a15.85,15.85,0,0,0-1.91-.14c-1.27,0-2,.9-2,2.51a6.07,6.07,0,0,1,1.81-.43c1.61,0,2.44.73,2.44,2.26a2.24,2.24,0,0,1-2.54,2.4c-1.8,0-2.59-1.42-2.59-3.78,0-2.63,1.11-3.71,2.84-3.71a13.46,13.46,0,0,1,2,.19Zm-3.88,3.12c0,1.55.47,2.73,1.72,2.73a1.49,1.49,0,0,0,1.66-1.65c0-1-.6-1.5-1.61-1.5A5,5,0,0,0,709.8,141.15Z" fill="#4c4c4c" />
				<path d="M800,212a1.62,1.62,0,0,1-1.21,1.69,1.82,1.82,0,0,1,1.32,1.83c0,1.59-1.24,2.08-2.74,2.08s-2.71-.45-2.71-2a1.94,1.94,0,0,1,1.26-2,1.68,1.68,0,0,1-1.14-1.7c0-1.26,1-1.89,2.59-1.89S800,210.76,800,212Zm-.8,3.43c0-.85-.56-1.12-1.28-1.33h-1.16c-.76.21-1.2.58-1.2,1.4,0,1,.77,1.33,1.81,1.33S799.16,216.54,799.16,215.47Zm-3.52-3.35c0,.67.37,1,1.08,1.28h1.16c.75-.24,1.17-.59,1.17-1.27,0-.86-.64-1.22-1.71-1.22S795.64,211.25,795.64,212.12Z" fill="#4c4c4c" />
				<path d="M861.35,210.26h.79v7.27h-.84v-6.32l-1.87,1.23-.39-.64Z" fill="#4c4c4c" />
				<path d="M864.78,217.53v-.72l2.13-2.23c.9-.94,1.46-1.53,1.46-2.39s-.54-1.28-1.58-1.28a10.29,10.29,0,0,0-1.89.25l-.06-.71a8.67,8.67,0,0,1,2.1-.3c1.53,0,2.3.59,2.3,1.95,0,1.09-.5,1.73-1.52,2.72l-1.94,2h3.64v.74Z" fill="#4c4c4c" />
				<path d="M931.11,210.26h.79v7.27h-.85v-6.32l-1.87,1.23-.39-.64Z" fill="#4c4c4c" />
				<path d="M939.08,211a15.85,15.85,0,0,0-1.91-.14c-1.27,0-2,.9-2,2.51A6.07,6.07,0,0,1,937,213c1.61,0,2.45.73,2.45,2.26a2.25,2.25,0,0,1-2.55,2.4c-1.8,0-2.59-1.42-2.59-3.78,0-2.63,1.11-3.71,2.84-3.71a13.46,13.46,0,0,1,2,.19Zm-3.88,3.12c0,1.55.47,2.73,1.72,2.73a1.5,1.5,0,0,0,1.67-1.65c0-1-.61-1.5-1.62-1.5A5,5,0,0,0,935.2,214.16Z" fill="#4c4c4c" />
				<path d="M998.13,217.53v-.72l2.13-2.23c.9-.94,1.46-1.53,1.46-2.39s-.54-1.28-1.59-1.28a10.28,10.28,0,0,0-1.88.25l-.06-.71a8.67,8.67,0,0,1,2.1-.3c1.53,0,2.3.59,2.3,1.95,0,1.09-.5,1.73-1.52,2.72l-1.94,2h3.64v.74Z" fill="#4c4c4c" />
				<path d="M1009.25,214c0,2.78-1,3.63-2.64,3.63s-2.65-.83-2.65-3.62c0-3,1-3.88,2.64-3.88S1009.25,211,1009.25,214Zm-4.41,0c0,2.27.63,2.87,1.77,2.87s1.77-.61,1.77-2.88c0-2.45-.56-3.11-1.77-3.11S1004.84,211.54,1004.84,214Z" fill="#4c4c4c" />
				<path d="M1067.89,217.53v-.72l2.12-2.23c.9-.94,1.46-1.53,1.46-2.39s-.54-1.28-1.58-1.28a10.28,10.28,0,0,0-1.88.25l-.07-.71a8.77,8.77,0,0,1,2.1-.3c1.53,0,2.3.59,2.3,1.95,0,1.09-.49,1.73-1.52,2.72l-1.93,2h3.64v.74Z" fill="#4c4c4c" />
				<path d="M1077.25,216.11h-3.52v-.66l2.07-5.19h.92l-2.1,5.1h2.63v-2.27h.85v2.27h.92v.75h-.92v1.42h-.85Z" fill="#4c4c4c" />
				<path d="M627.38,163.06h3.37l3.8,13.84H633l-1-3.56H626.1l-1,3.56h-1.52Zm-.94,8.9h5.25l-2.11-7.58h-1Z" />
				<path d="M642.21,169.82H646v6.8a33.9,33.9,0,0,1-4.51.48c-4.24,0-5.36-2.6-5.36-7.08s1.16-7.16,5.32-7.16a26,26,0,0,1,4.55.52l-.06,1.28a31.73,31.73,0,0,0-4.3-.42c-3.21,0-3.91,1.86-3.91,5.78s.68,5.72,3.88,5.72a18.58,18.58,0,0,0,2.87-.28V171.2h-2.3Z" />
				<path d="M658.51,163.06l-3.62,13.84h-3.45l-3.62-13.84h1.6l3.18,12.48h1.13l3.18-12.48Z" />
				<path d="M664.84,175.5a30.56,30.56,0,0,0,3.48.24c2.42,0,3.62-1.48,3.64-4.6a12.19,12.19,0,0,1-3.44.76c-2.76,0-4.32-1.24-4.32-4s1.8-4.38,4.58-4.38c3.32,0,4.79,2.64,4.79,6.84,0,5.12-2,6.76-5.25,6.76a23.42,23.42,0,0,1-3.62-.36Zm7.14-5.68c0-2.88-.88-5-3.2-5a2.77,2.77,0,0,0-3,3c0,1.86,1,2.66,2.84,2.66A12.27,12.27,0,0,0,672,169.82Z" />
				<g style="isolation:isolate">
					<rect x="188.06" y="34.61" width="10.89" height="59.98" fill="#76ce89" />
					<g clip-path="url(#clip-path)">
						<rect x="188.16" y="34.63" width="10.69" height="59.94" transform="translate(-0.21 0.65) rotate(-0.19)" fill="#76ce89" />
					</g>
				</g>
				<g style="isolation:isolate">
					<rect x="202.68" y="36.28" width="10.89" height="58.31" fill="#76ce89" />
					<g clip-path="url(#clip-path-2)">
						<rect x="202.78" y="36.3" width="10.69" height="58.26" transform="translate(-0.22 0.69) rotate(-0.19)" fill="#76ce89" />
					</g>
				</g>
				<g style="isolation:isolate">
					<rect x="217.3" y="38.79" width="10.88" height="55.8" fill="#76ce89" />
					<g clip-path="url(#clip-path-3)">
						<rect x="217.39" y="38.81" width="10.69" height="55.76" transform="translate(-0.22 0.74) rotate(-0.19)" fill="#76ce89" />
					</g>
				</g>
				<g style="isolation:isolate">
					<rect x="231.91" y="39.07" width="10.88" height="55.52" fill="#76ce89" />
					<g clip-path="url(#clip-path-4)">
						<rect x="232.01" y="39.09" width="10.69" height="55.48" transform="matrix(1, 0, 0, 1, -0.22, 0.79)" fill="#76ce89" />
					</g>
				</g>
				<g style="isolation:isolate">
					<rect x="246.52" y="39.08" width="10.87" height="55.51" fill="#76ce89" />
					<g clip-path="url(#clip-path-5)">
						<rect x="246.61" y="39.1" width="10.69" height="55.47" transform="matrix(1, 0, 0, 1, -0.22, 0.84)" fill="#76ce89" />
					</g>
				</g>
				<g style="isolation:isolate">
					<rect x="261.13" y="39.07" width="10.87" height="55.52" fill="#76ce89" />
					<g clip-path="url(#clip-path-6)">
						<rect x="261.22" y="39.09" width="10.69" height="55.48" transform="translate(-0.22 0.89) rotate(-0.19)" fill="#76ce89" />
					</g>
				</g>
				<g style="isolation:isolate">
					<rect x="275.73" y="41.88" width="10.87" height="52.71" fill="#76ce89" />
					<g clip-path="url(#clip-path-7)">
						<rect x="275.82" y="41.9" width="10.69" height="52.67" transform="translate(-0.23 0.94) rotate(-0.19)" fill="#76ce89" />
					</g>
				</g>
				<g style="isolation:isolate">
					<rect x="290.33" y="43.75" width="10.86" height="50.84" fill="#76ce89" />
					<g clip-path="url(#clip-path-8)">
						<rect x="290.41" y="43.77" width="10.69" height="50.8" transform="translate(-0.23 0.98) rotate(-0.19)" fill="#76ce89" />
					</g>
				</g>
				<g style="isolation:isolate">
					<rect x="304.92" y="43.75" width="10.86" height="50.84" fill="#76ce89" />
					<g clip-path="url(#clip-path-9)">
						<rect x="305" y="43.77" width="10.69" height="50.8" transform="translate(-0.23 1.03) rotate(-0.19)" fill="#76ce89" />
					</g>
				</g>
				<g style="isolation:isolate">
					<rect x="319.5" y="45.61" width="10.86" height="48.98" fill="#76ce89" />
					<g clip-path="url(#clip-path-10)">
						<rect x="319.58" y="45.63" width="10.69" height="48.93" transform="translate(-0.23 1.08) rotate(-0.19)" fill="#76ce89" />
					</g>
				</g>
				<g style="isolation:isolate">
					<rect x="334.09" y="46.56" width="10.86" height="48.03" fill="#76ce89" />
					<g clip-path="url(#clip-path-11)">
						<rect x="334.17" y="46.57" width="10.69" height="47.99" transform="translate(-0.23 1.13) rotate(-0.19)" fill="#76ce89" />
					</g>
				</g>
				<g style="isolation:isolate">
					<rect x="348.67" y="48.42" width="10.85" height="46.17" fill="#76ce89" />
					<g clip-path="url(#clip-path-12)">
						<rect x="348.75" y="48.44" width="10.69" height="46.13" transform="translate(-0.24 1.18) rotate(-0.19)" fill="#76ce89" />
					</g>
				</g>
				<g style="isolation:isolate">
					<rect x="363.25" y="50.29" width="10.84" height="44.29" fill="#76ce89" />
					<g clip-path="url(#clip-path-13)">
						<rect x="363.32" y="50.31" width="10.69" height="44.25" transform="translate(-0.24 1.23) rotate(-0.19)" fill="#76ce89" />
					</g>
				</g>
				<g style="isolation:isolate">
					<rect x="377.82" y="53.09" width="10.83" height="41.5" fill="#76ce89" />
					<g clip-path="url(#clip-path-14)">
						<rect x="377.88" y="53.11" width="10.69" height="41.45" transform="translate(-0.24 1.28) rotate(-0.19)" fill="#76ce89" />
					</g>
				</g>
				<rect x="392.38" y="54.96" width="10.82" height="39.63" fill="#ffda00" />
				<g clip-path="url(#clip-path-15)">
					<rect x="392.44" y="54.98" width="10.69" height="39.58" transform="translate(-0.25 1.33) rotate(-0.19)" fill="#ffda00" />
				</g>
				<rect x="406.93" y="57.77" width="10.81" height="36.81" fill="#ffda00" />
				<g clip-path="url(#clip-path-16)">
					<rect x="406.99" y="57.8" width="10.69" height="36.77" transform="translate(-0.25 1.37) rotate(-0.19)" fill="#ffda00" />
				</g>
				<g style="isolation:isolate">
					<g clip-path="url(#clip-path-17)">
						<rect x="421.51" y="67.13" width="10.69" height="27.43" transform="translate(-0.27 1.42) rotate(-0.19)" fill="#ffda00" />
					</g>
				</g>
				<g style="isolation:isolate">
					<rect x="464.96" y="51.23" width="10.83" height="43.36" fill="#76ce89" />
					<g clip-path="url(#clip-path-18)">
						<rect x="465.03" y="51.25" width="10.69" height="43.31" transform="translate(-0.24 1.57) rotate(-0.19)" fill="#76ce89" />
					</g>
				</g>
				<g style="isolation:isolate">
					<rect x="479.52" y="54.97" width="10.82" height="39.62" fill="#76ce89" />
					<g clip-path="url(#clip-path-19)">
						<rect x="479.58" y="54.99" width="10.69" height="39.58" transform="translate(-0.25 1.62) rotate(-0.19)" fill="#76ce89" />
					</g>
				</g>
				<g style="isolation:isolate">
					<rect x="494.07" y="57.76" width="10.82" height="36.82" fill="#76ce89" />
					<g clip-path="url(#clip-path-20)">
						<rect x="494.14" y="57.79" width="10.69" height="36.78" transform="translate(-0.25 1.66) rotate(-0.19)" fill="#76ce89" />
					</g>
				</g>
				<g style="isolation:isolate">
					<rect x="508.62" y="57.76" width="10.82" height="36.82" fill="#76ce89" />
					<g clip-path="url(#clip-path-21)">
						<rect x="508.69" y="57.79" width="10.69" height="36.78" transform="translate(-0.25 1.71) rotate(-0.19)" fill="#76ce89" />
					</g>
				</g>
				<rect x="435.98" y="78.33" width="10.78" height="16.26" fill="#ff4200" />
				<g clip-path="url(#clip-path-22)">
					<polygon points="436.06 94.59 435.98 78.36 446.67 78.33 446.76 94.56 436.06 94.59" fill="#ff4200" />
				</g>
				<rect x="450.49" y="51.23" width="10.75" height="43.36" fill="#76ce89" />
				<g clip-path="url(#clip-path-23)">
					<polygon points="450.54 94.58 450.49 51.34 461.18 51.22 461.24 94.47 450.54 94.58" fill="#76ce89" />
				</g>
				<g style="isolation:isolate">
					<rect x="173.43" y="31.25" width="10.9" height="63.37" fill="#76ce89" />
					<g clip-path="url(#clip-path-24)">
						<rect x="173.54" y="31.27" width="10.69" height="63.34" transform="translate(-0.21 0.6) rotate(-0.19)" fill="#76ce89" />
					</g>
				</g>
				<g style="isolation:isolate">
					<rect x="158.8" y="28.75" width="10.91" height="65.93" fill="#76ce89" />
					<g clip-path="url(#clip-path-25)">
						<rect x="158.91" y="28.77" width="10.69" height="65.88" transform="translate(-0.2 0.55) rotate(-0.19)" fill="#76ce89" />
					</g>
				</g>
				<g style="isolation:isolate">
					<rect x="753.4" y="32.74" width="10.11" height="59.98" fill="#76ce89" />
					<g clip-path="url(#clip-path-26)">
						<polygon points="753.58 92.72 753.4 32.78 763.33 32.74 763.51 92.68 753.58 92.72" fill="#76ce89" />
					</g>
				</g>
				<g style="isolation:isolate">
					<rect x="767.7" y="34.41" width="10.11" height="58.31" fill="#76ce89" />
					<g clip-path="url(#clip-path-27)">
						<polygon points="767.88 92.72 767.7 34.45 777.63 34.41 777.81 92.67 767.88 92.72" fill="#76ce89" />
					</g>
				</g>
				<g style="isolation:isolate">
					<rect x="782" y="36.92" width="10.11" height="55.8" fill="#76ce89" />
					<g clip-path="url(#clip-path-28)">
						<polygon points="782.17 92.72 782 36.96 791.93 36.92 792.1 92.67 782.17 92.72" fill="#76ce89" />
					</g>
				</g>
				<g style="isolation:isolate">
					<rect x="796.29" y="37.2" width="10.11" height="55.52" fill="#76ce89" />
					<g clip-path="url(#clip-path-29)">
						<polygon points="796.47 92.72 796.3 37.24 806.23 37.2 806.4 92.67 796.47 92.72" fill="#76ce89" />
					</g>
				</g>
				<g style="isolation:isolate">
					<rect x="810.59" y="37.21" width="10.1" height="55.51" fill="#76ce89" />
					<g clip-path="url(#clip-path-30)">
						<polygon points="810.75 92.72 810.58 37.25 820.51 37.2 820.68 92.67 810.75 92.72" fill="#76ce89" />
					</g>
				</g>
				<g style="isolation:isolate">
					<rect x="824.87" y="37.2" width="10.1" height="55.52" fill="#76ce89" />
					<g clip-path="url(#clip-path-31)">
						<polygon points="825.04 92.72 824.87 37.24 834.8 37.2 834.97 92.67 825.04 92.72" fill="#76ce89" />
					</g>
				</g>
				<g style="isolation:isolate">
					<rect x="839.16" y="40.01" width="10.1" height="52.71" fill="#76ce89" />
					<g clip-path="url(#clip-path-32)">
						<polygon points="839.32 92.72 839.16 40.05 849.09 40.01 849.25 92.67 839.32 92.72" fill="#76ce89" />
					</g>
				</g>
				<g style="isolation:isolate">
					<rect x="853.44" y="41.88" width="10.08" height="50.84" fill="#76ce89" />
					<g clip-path="url(#clip-path-33)">
						<polygon points="853.6 92.72 853.44 41.92 863.37 41.88 863.53 92.67 853.6 92.72" fill="#76ce89" />
					</g>
				</g>
				<g style="isolation:isolate">
					<rect x="867.71" y="41.88" width="10.08" height="50.84" fill="#76ce89" />
					<g clip-path="url(#clip-path-34)">
						<polygon points="867.87 92.72 867.71 41.92 877.64 41.88 877.8 92.67 867.87 92.72" fill="#76ce89" />
					</g>
				</g>
				<g style="isolation:isolate">
					<rect x="881.98" y="43.74" width="10.08" height="48.98" fill="#76ce89" />
					<g clip-path="url(#clip-path-35)">
						<polygon points="882.13 92.72 881.98 43.78 891.91 43.74 892.06 92.67 882.13 92.72" fill="#76ce89" />
					</g>
				</g>
				<g style="isolation:isolate">
					<rect x="896.25" y="44.69" width="10.08" height="48.03" fill="#76ce89" />
					<g clip-path="url(#clip-path-36)">
						<polygon points="896.4 92.72 896.25 44.72 906.18 44.68 906.33 92.67 896.4 92.72" fill="#76ce89" />
					</g>
				</g>
				<g style="isolation:isolate">
					<rect x="910.52" y="46.55" width="10.07" height="46.17" fill="#76ce89" />
					<g clip-path="url(#clip-path-37)">
						<polygon points="910.66 92.72 910.52 46.59 920.45 46.55 920.59 92.67 910.66 92.72" fill="#76ce89" />
					</g>
				</g>
				<g style="isolation:isolate">
					<rect x="924.78" y="48.42" width="10.07" height="44.29" fill="#76ce89" />
					<g clip-path="url(#clip-path-38)">
						<polygon points="924.92 92.72 924.78 48.46 934.71 48.42 934.85 92.67 924.92 92.72" fill="#76ce89" />
					</g>
				</g>
				<g style="isolation:isolate">
					<rect x="939.03" y="51.22" width="10.06" height="41.5" fill="#76ce89" />
					<g clip-path="url(#clip-path-39)">
						<polygon points="939.16 92.72 939.03 51.26 948.96 51.22 949.09 92.67 939.16 92.72" fill="#76ce89" />
					</g>
				</g>
				<g style="isolation:isolate">
					<rect x="953.28" y="53.09" width="10.05" height="39.63" fill="#76ce89" />
					<g clip-path="url(#clip-path-40)">
						<polygon points="953.4 92.72 953.28 53.13 963.21 53.09 963.33 92.67 953.4 92.72" fill="#76ce89" />
					</g>
				</g>
				<rect x="967.52" y="55.9" width="10.04" height="36.81" fill="#ffda00" />
				<g clip-path="url(#clip-path-41)">
					<polygon points="967.63 92.72 967.52 55.95 977.45 55.91 977.56 92.67 967.63 92.72" fill="#ffda00" />
				</g>
				<rect x="981.75" y="58.71" width="10.03" height="34.01" fill="#ffda00" />
				<g clip-path="url(#clip-path-42)">
					<polygon points="981.85 92.72 981.75 58.75 991.67 58.7 991.78 92.67 981.85 92.72" fill="#ffda00" />
				</g>
				<rect x="995.97" y="76.97" width="10.03" height="15.75" fill="#ff4200" />
				<g clip-path="url(#clip-path-43)">
					<polygon points="996.07 92.72 995.97 76.98 1005.9 76.96 1006 92.7 996.07 92.72" fill="#ff4200" />
				</g>
				<rect x="1010.18" y="54.51" width="10.01" height="38.21" fill="#76ce89" />
				<g clip-path="url(#clip-path-44)">
					<polygon points="1010.26 92.72 1010.18 54.57 1020.11 54.51 1020.19 92.66 1010.26 92.72" fill="#76ce89" />
				</g>
				<g style="isolation:isolate">
					<rect x="1052.73" y="49.36" width="10.06" height="43.36" fill="#76ce89" />
					<g clip-path="url(#clip-path-45)">
						<polygon points="1052.87 92.72 1052.73 49.41 1062.66 49.36 1062.8 92.67 1052.87 92.72" fill="#76ce89" />
					</g>
				</g>
				<g style="isolation:isolate">
					<rect x="1066.98" y="49.36" width="10.05" height="43.36" fill="#76ce89" />
					<g clip-path="url(#clip-path-46)">
						<polygon points="1067.1 92.72 1066.98 49.4 1076.91 49.35 1077.03 92.67 1067.1 92.72" fill="#76ce89" />
					</g>
				</g>
				<rect x="1024.38" y="49.36" width="10" height="43.36" fill="#76ce89" />
				<g clip-path="url(#clip-path-47)">
					<polygon points="1024.45 92.72 1024.38 49.45 1034.31 49.37 1034.38 92.63 1024.45 92.72" fill="#76ce89" />
				</g>
				<rect x="1038.57" y="49.36" width="9.98" height="43.36" fill="#76ce89" />
				<g clip-path="url(#clip-path-48)">
					<polygon points="1038.62 92.71 1038.57 49.47 1048.5 49.35 1048.55 92.6 1038.62 92.71" fill="#76ce89" />
				</g>
				<g style="isolation:isolate">
					<rect x="739.09" y="29.38" width="10.12" height="63.37" fill="#76ce89" />
					<g clip-path="url(#clip-path-49)">
						<polygon points="739.28 92.76 739.09 29.42 749.02 29.38 749.21 92.72 739.28 92.76" fill="#76ce89" />
					</g>
				</g>
				<g style="isolation:isolate">
					<rect x="724.77" y="26.88" width="10.13" height="65.93" fill="#76ce89" />
					<g clip-path="url(#clip-path-50)">
						<polygon points="724.98 92.8 724.77 26.92 734.7 26.88 734.91 92.76 724.98 92.8" fill="#76ce89" />
					</g>
				</g>
				<g style="isolation:isolate">
					<rect x="753.42" y="146.06" width="10.22" height="59.98" fill="#76ce89" />
					<g clip-path="url(#clip-path-51)">
						<polygon points="753.6 206.04 753.41 146.1 763.45 146.06 763.63 206 753.6 206.04" fill="#76ce89" />
					</g>
				</g>
				<g style="isolation:isolate">
					<rect x="767.72" y="147.73" width="10.22" height="58.31" fill="#76ce89" />
					<g clip-path="url(#clip-path-52)">
						<polygon points="767.91 206.04 767.73 147.77 777.76 147.73 777.94 205.99 767.91 206.04" fill="#76ce89" />
					</g>
				</g>
				<g style="isolation:isolate">
					<rect x="782.03" y="150.24" width="10.21" height="55.8" fill="#76ce89" />
					<g clip-path="url(#clip-path-53)">
						<polygon points="782.21 206.04 782.03 150.28 792.07 150.24 792.24 205.99 782.21 206.04" fill="#76ce89" />
					</g>
				</g>
				<g style="isolation:isolate">
					<rect x="796.33" y="150.52" width="10.21" height="55.52" fill="#76ce89" />
					<g clip-path="url(#clip-path-54)">
						<polygon points="796.51 206.04 796.34 150.56 806.37 150.52 806.54 205.99 796.51 206.04" fill="#76ce89" />
					</g>
				</g>
				<g style="isolation:isolate">
					<rect x="810.63" y="150.53" width="10.2" height="55.51" fill="#76ce89" />
					<g clip-path="url(#clip-path-55)">
						<polygon points="810.8 206.04 810.63 150.57 820.66 150.53 820.84 205.99 810.8 206.04" fill="#76ce89" />
					</g>
				</g>
				<g style="isolation:isolate">
					<rect x="824.93" y="150.52" width="10.2" height="55.52" fill="#76ce89" />
					<g clip-path="url(#clip-path-56)">
						<polygon points="825.1 206.04 824.92 150.56 834.96 150.52 835.13 205.99 825.1 206.04" fill="#76ce89" />
					</g>
				</g>
				<g style="isolation:isolate">
					<rect x="839.22" y="153.33" width="10.2" height="52.71" fill="#76ce89" />
					<g clip-path="url(#clip-path-57)">
						<polygon points="839.39 206.04 839.22 153.37 849.26 153.33 849.42 205.99 839.39 206.04" fill="#76ce89" />
					</g>
				</g>
				<g style="isolation:isolate">
					<rect x="853.51" y="155.2" width="10.19" height="50.84" fill="#76ce89" />
					<g clip-path="url(#clip-path-58)">
						<polygon points="853.67 206.04 853.51 155.24 863.54 155.2 863.7 205.99 853.67 206.04" fill="#76ce89" />
					</g>
				</g>
				<g style="isolation:isolate">
					<rect x="867.79" y="155.2" width="10.19" height="50.84" fill="#76ce89" />
					<g clip-path="url(#clip-path-59)">
						<polygon points="867.95 206.04 867.79 155.24 877.82 155.2 877.98 205.99 867.95 206.04" fill="#76ce89" />
					</g>
				</g>
				<g style="isolation:isolate">
					<rect x="882.07" y="157.06" width="10.19" height="48.98" fill="#76ce89" />
					<g clip-path="url(#clip-path-60)">
						<polygon points="882.22 206.04 882.06 157.1 892.1 157.06 892.25 205.99 882.22 206.04" fill="#76ce89" />
					</g>
				</g>
				<g style="isolation:isolate">
					<rect x="896.34" y="158.01" width="10.19" height="48.03" fill="#76ce89" />
					<g clip-path="url(#clip-path-61)">
						<polygon points="896.49 206.04 896.35 158.04 906.38 158 906.53 205.99 896.49 206.04" fill="#76ce89" />
					</g>
				</g>
				<g style="isolation:isolate">
					<rect x="910.62" y="159.87" width="10.18" height="46.17" fill="#76ce89" />
					<g clip-path="url(#clip-path-62)">
						<polygon points="910.77 206.04 910.62 159.91 920.66 159.87 920.8 205.99 910.77 206.04" fill="#76ce89" />
					</g>
				</g>
				<g style="isolation:isolate">
					<rect x="924.89" y="161.74" width="10.17" height="44.29" fill="#76ce89" />
					<g clip-path="url(#clip-path-63)">
						<polygon points="925.03 206.04 924.89 161.78 934.92 161.74 935.06 205.99 925.03 206.04" fill="#76ce89" />
					</g>
				</g>
				<rect x="939.15" y="178.56" width="10.16" height="27.48" fill="#ffda00" />
				<g clip-path="url(#clip-path-64)">
					<polygon points="939.28 206.04 939.15 178.59 949.18 178.56 949.31 206.01 939.28 206.04" fill="#ffda00" />
				</g>
				<rect x="953.4" y="184.17" width="10.15" height="21.87" fill="#ffda00" />
				<g clip-path="url(#clip-path-65)">
					<polygon points="953.52 206.04 953.4 184.2 963.43 184.17 963.56 206.01 953.52 206.04" fill="#ffda00" />
				</g>
				<rect x="967.65" y="189.78" width="10.15" height="16.26" fill="#ff4200" />
				<g clip-path="url(#clip-path-66)">
					<polygon points="967.76 206.04 967.65 189.8 977.68 189.78 977.8 206.02 967.76 206.04" fill="#ff4200" />
				</g>
				<g style="isolation:isolate">
					<rect x="981.88" y="161.74" width="10.14" height="44.29" fill="#76ce89" />
					<g clip-path="url(#clip-path-67)">
						<polygon points="981.99 206.04 981.88 161.79 991.92 161.74 992.02 205.98 981.99 206.04" fill="#76ce89" />
					</g>
				</g>
				<g style="isolation:isolate">
					<rect x="996.11" y="164.94" width="10.13" height="41.1" fill="#76ce89" />
					<g clip-path="url(#clip-path-68)">
						<polygon points="996.21 206.04 996.11 164.98 1006.15 164.93 1006.25 205.98 996.21 206.04" fill="#76ce89" />
					</g>
				</g>
				<g style="isolation:isolate">
					<rect x="1010.33" y="166.97" width="10.13" height="39.06" fill="#76ce89" />
					<g clip-path="url(#clip-path-69)">
						<polygon points="1010.43 206.04 1010.33 167.02 1020.37 166.97 1020.47 205.99 1010.43 206.04" fill="#76ce89" />
					</g>
				</g>
				<rect x="1024.55" y="166.97" width="10.11" height="39.06" fill="#76ce89" />
				<g clip-path="url(#clip-path-70)">
					<polygon points="1024.64 206.04 1024.55 167.03 1034.59 166.97 1034.67 205.98 1024.64 206.04" fill="#76ce89" />
				</g>
				<g style="isolation:isolate">
					<rect x="1067.13" y="166.97" width="9.75" height="39.06" fill="#76ce89" />
					<g clip-path="url(#clip-path-71)">
						<polygon points="1067.24 206.04 1067.13 167.01 1076.76 166.97 1076.88 206 1067.24 206.04" fill="#76ce89" />
					</g>
				</g>
				<rect x="1038.76" y="166.97" width="10.11" height="39.06" fill="#76ce89" />
				<g clip-path="url(#clip-path-72)">
					<polygon points="1038.83 206.03 1038.76 167.06 1048.8 166.98 1048.86 205.96 1038.83 206.03" fill="#76ce89" />
				</g>
				<rect x="1052.96" y="166.97" width="10.08" height="39.06" fill="#76ce89" />
				<g clip-path="url(#clip-path-73)">
					<polygon points="1053.01 206.03 1052.95 167.07 1062.99 166.97 1063.04 205.93 1053.01 206.03" fill="#76ce89" />
				</g>
				<g style="isolation:isolate">
					<rect x="739.1" y="142.66" width="10.23" height="63.37" fill="#76ce89" />
					<g clip-path="url(#clip-path-74)">
						<polygon points="739.29 206.04 739.1 142.71 749.13 142.66 749.33 206 739.29 206.04" fill="#76ce89" />
					</g>
				</g>
				<g style="isolation:isolate">
					<rect x="724.77" y="140.11" width="10.23" height="65.93" fill="#76ce89" />
					<g clip-path="url(#clip-path-75)">
						<polygon points="724.98 206.04 724.77 140.15 734.81 140.11 735.01 206 724.98 206.04" fill="#76ce89" />
					</g>
				</g>
				<g style="isolation:isolate">
					<rect x="188.05" y="146.91" width="11.25" height="59.98" fill="#76ce89" />
					<g clip-path="url(#clip-path-76)">
						<rect x="188.15" y="146.93" width="11.05" height="59.94" transform="translate(-0.61 0.67) rotate(-0.2)" fill="#76ce89" />
					</g>
				</g>
				<g style="isolation:isolate">
					<rect x="202.67" y="148.58" width="11.25" height="58.31" fill="#76ce89" />
					<g clip-path="url(#clip-path-77)">
						<rect x="202.77" y="148.6" width="11.05" height="58.26" transform="translate(-0.61 0.72) rotate(-0.2)" fill="#76ce89" />
					</g>
				</g>
				<g style="isolation:isolate">
					<rect x="217.28" y="151.09" width="11.24" height="55.8" fill="#76ce89" />
					<g clip-path="url(#clip-path-78)">
						<rect x="217.38" y="151.11" width="11.05" height="55.76" transform="translate(-0.61 0.77) rotate(-0.2)" fill="#76ce89" />
					</g>
				</g>
				<g style="isolation:isolate">
					<rect x="231.89" y="151.37" width="11.24" height="55.52" fill="#76ce89" />
					<g clip-path="url(#clip-path-79)">
						<rect x="231.99" y="151.39" width="11.05" height="55.48" transform="translate(-0.61 0.82) rotate(-0.2)" fill="#76ce89" />
					</g>
				</g>
				<g style="isolation:isolate">
					<rect x="246.49" y="151.38" width="11.23" height="55.51" fill="#76ce89" />
					<g clip-path="url(#clip-path-80)">
						<rect x="246.59" y="151.4" width="11.05" height="55.47" transform="translate(-0.61 0.87) rotate(-0.2)" fill="#76ce89" />
					</g>
				</g>
				<g style="isolation:isolate">
					<rect x="261.09" y="151.37" width="11.24" height="55.52" fill="#76ce89" />
					<g clip-path="url(#clip-path-81)">
						<rect x="261.18" y="151.39" width="11.05" height="55.48" transform="translate(-0.62 0.92) rotate(-0.2)" fill="#76ce89" />
					</g>
				</g>
				<g style="isolation:isolate">
					<rect x="275.69" y="154.18" width="11.24" height="52.71" fill="#76ce89" />
					<g clip-path="url(#clip-path-82)">
						<rect x="275.78" y="154.2" width="11.05" height="52.67" transform="translate(-0.62 0.97) rotate(-0.2)" fill="#76ce89" />
					</g>
				</g>
				<g style="isolation:isolate">
					<rect x="290.29" y="156.05" width="11.22" height="50.84" fill="#76ce89" />
					<g clip-path="url(#clip-path-83)">
						<rect x="290.37" y="156.07" width="11.05" height="50.8" transform="matrix(1, 0, 0, 1, -0.62, 1.02)" fill="#76ce89" />
					</g>
				</g>
				<g style="isolation:isolate">
					<rect x="304.86" y="156.05" width="11.22" height="50.84" fill="#76ce89" />
					<g clip-path="url(#clip-path-84)">
						<rect x="304.95" y="156.07" width="11.05" height="50.8" transform="translate(-0.62 1.07) rotate(-0.2)" fill="#76ce89" />
					</g>
				</g>
				<g style="isolation:isolate">
					<rect x="319.44" y="157.91" width="11.22" height="48.98" fill="#76ce89" />
					<g clip-path="url(#clip-path-85)">
						<rect x="319.52" y="157.93" width="11.05" height="48.93" transform="translate(-0.63 1.12) rotate(-0.2)" fill="#76ce89" />
					</g>
				</g>
				<g style="isolation:isolate">
					<rect x="334.02" y="158.86" width="11.22" height="48.03" fill="#76ce89" />
					<g clip-path="url(#clip-path-86)">
						<rect x="334.11" y="158.87" width="11.05" height="47.99" transform="translate(-0.63 1.17) rotate(-0.2)" fill="#76ce89" />
					</g>
				</g>
				<g style="isolation:isolate">
					<rect x="348.6" y="160.72" width="11.21" height="46.17" fill="#76ce89" />
					<g clip-path="url(#clip-path-87)">
						<rect x="348.68" y="160.74" width="11.05" height="46.13" transform="translate(-0.63 1.22) rotate(-0.2)" fill="#76ce89" />
					</g>
				</g>
				<g style="isolation:isolate">
					<rect x="363.17" y="162.6" width="11.2" height="44.29" fill="#76ce89" />
					<g clip-path="url(#clip-path-88)">
						<rect x="363.25" y="162.61" width="11.05" height="44.25" transform="translate(-0.63 1.27) rotate(-0.2)" fill="#76ce89" />
					</g>
				</g>
				<rect x="377.73" y="165.39" width="11.19" height="41.5" fill="#ffda00" />
				<g clip-path="url(#clip-path-89)">
					<rect x="377.8" y="165.41" width="11.05" height="41.45" transform="translate(-0.64 1.32) rotate(-0.2)" fill="#ffda00" />
				</g>
				<rect x="392.29" y="167.26" width="11.18" height="39.63" fill="#ffda00" />
				<g clip-path="url(#clip-path-90)">
					<rect x="392.35" y="167.28" width="11.05" height="39.58" transform="translate(-0.64 1.37) rotate(-0.2)" fill="#ffda00" />
				</g>
				<rect x="406.83" y="190.63" width="11.17" height="16.26" fill="#ff4200" />
				<g clip-path="url(#clip-path-91)">
					<polygon points="406.96 206.89 406.83 190.65 417.88 190.63 418.01 206.87 406.96 206.89" fill="#ff4200" />
				</g>
				<rect x="421.37" y="165.39" width="11.16" height="41.5" fill="#76ce89" />
				<g clip-path="url(#clip-path-92)">
					<polygon points="421.48 206.89 421.37 165.44 432.42 165.39 432.53 206.83 421.48 206.89" fill="#76ce89" />
				</g>
				<rect x="435.89" y="170.06" width="11.14" height="36.82" fill="#76ce89" />
				<g clip-path="url(#clip-path-93)">
					<polygon points="435.98 206.89 435.89 170.12 446.94 170.07 447.03 206.83 435.98 206.89" fill="#76ce89" />
				</g>
				<g style="isolation:isolate">
					<rect x="493.9" y="171.36" width="11.18" height="35.53" fill="#76ce89" />
					<g clip-path="url(#clip-path-94)">
						<rect x="493.97" y="171.38" width="11.05" height="35.49" transform="translate(-0.67 1.78) rotate(-0.2)" fill="#76ce89" />
					</g>
				</g>
				<g style="isolation:isolate">
					<rect x="479.36" y="171.36" width="11.18" height="35.53" fill="#76ce89" />
					<g clip-path="url(#clip-path-95)">
						<rect x="479.42" y="171.38" width="11.05" height="35.49" transform="translate(-0.67 1.73) rotate(-0.2)" fill="#76ce89" />
					</g>
				</g>
				<g style="isolation:isolate">
					<rect x="508.44" y="171.36" width="11.18" height="35.53" fill="#76ce89" />
					<g clip-path="url(#clip-path-96)">
						<rect x="508.51" y="171.38" width="11.05" height="35.49" transform="translate(-0.67 1.83) rotate(-0.2)" fill="#76ce89" />
					</g>
				</g>
				<rect x="450.39" y="171.36" width="11.14" height="35.53" fill="#76ce89" />
				<g clip-path="url(#clip-path-97)">
					<polygon points="450.48 206.89 450.39 171.42 461.44 171.36 461.53 206.83 450.48 206.89" fill="#76ce89" />
				</g>
				<rect x="464.89" y="171.36" width="11.1" height="35.53" fill="#76ce89" />
				<g clip-path="url(#clip-path-98)">
					<polygon points="464.95 206.88 464.89 171.44 475.94 171.35 476 206.79 464.95 206.88" fill="#76ce89" />
				</g>
				<g style="isolation:isolate">
					<rect x="173.43" y="143.55" width="11.26" height="63.37" fill="#76ce89" />
					<g clip-path="url(#clip-path-99)">
						<rect x="173.54" y="143.57" width="11.05" height="63.34" transform="translate(-0.6 0.62) rotate(-0.2)" fill="#76ce89" />
					</g>
				</g>
				<g style="isolation:isolate">
					<rect x="158.8" y="141.05" width="11.27" height="65.93" fill="#76ce89" />
					<g clip-path="url(#clip-path-100)">
						<rect x="158.91" y="141.07" width="11.05" height="65.88" transform="translate(-0.6 0.57) rotate(-0.2)" fill="#76ce89" />
					</g>
				</g>
			</g>
		</g>
	</g>
</svg>
