<svg xmlns="http://www.w3.org/2000/svg" viewBox="0 0 1191.52 182.27">
	<title>
		r_1_0_Screen
	</title>
	<g id="Layer_2" data-name="Layer 2">
		<g id="AGV3_Sel_Box">
			<rect width="1191.52" height="182.27" fill="rgba(0,0,0,0)" />
		</g>
		<g id="Layer_1-2" data-name="Layer 1">
			<circle cx="57.15" cy="93.51" r="29.44" fill="none" stroke="#2277d6" stroke-miterlimit="10" stroke-width="4" />
			<path d="M57.15,72.65A22.37,22.37,0,0,1,79.52,95H57.15Z" fill="#8dc5f2" opacity="0.47" />
			<path d="M24,24.42H34V25.8H29.78V38.26H28.26V25.8H24Z" />
			<path d="M36,24.42H37.5V38.26H36Z" />
			<path d="M40.88,24.42h2.78l3.92,11.7,3.92-11.7h2.78V38.26H52.74V26.06h-.28l-4,11.7H46.72l-4-11.7h-.28v12.2H40.88Z" />
			<path d="M57.68,24.42H66.1v1.36H59.22v4.78H64.9V31.9H59.22v5H66.1v1.36H57.68Z" />
			<path d="M74.68,33.6v4.66H73.14V24.42H78.2c3,0,4.42,1.46,4.42,4.46s-1.4,4.72-4.42,4.72Zm3.5-1.36c2,0,2.86-1.22,2.86-3.36s-.84-3.1-2.86-3.1h-3.5v6.46Z" />
			<path d="M85,24.42h8.42v1.36H86.54v4.78h5.68V31.9H86.54v5h6.88v1.36H85Z" />
			<path d="M97.6,33v5.3H96.06V24.42h5.12c2.9,0,4.42,1.28,4.42,4.2,0,2-.8,3.46-2.54,4l2.66,5.62H104l-2.5-5.3Zm3.58-7.18H97.6V31.6h3.6c2.08,0,2.82-1.24,2.82-3C104,26.72,103.12,25.78,101.18,25.78Z" />
			<path d="M108.38,24.42h1.54V38.26h-1.54Z" />
			<path d="M112.74,31.4c0-4.56,1.18-7.18,5.46-7.18s5.48,2.58,5.48,7.18c0,4.76-1.18,7.06-5.48,7.06S112.74,36,112.74,31.4Zm9.34,0c0-3.74-.72-5.82-3.88-5.82s-3.88,2.06-3.88,5.82.68,5.7,3.88,5.7S122.08,35.3,122.08,31.4Z" />
			<path d="M126.5,38.26V24.42h4.94c4,0,5.12,2.8,5.12,6.72s-1,7.12-5.12,7.12Zm4.94-12.48H128V36.9h3.4c2.88,0,3.54-2.76,3.54-5.76S134.32,25.78,131.44,25.78Z" />
			<path d="M372.8,31.4c0-4.56,1.18-7.18,5.46-7.18s5.48,2.58,5.48,7.18c0,4.76-1.18,7.06-5.48,7.06S372.8,36,372.8,31.4Zm9.34,0c0-3.74-.72-5.82-3.88-5.82s-3.88,2.06-3.88,5.82.68,5.7,3.88,5.7S382.14,35.3,382.14,31.4Z" />
			<path d="M396,24.42,392.4,38.26H389l-3.62-13.84h1.6l3.18,12.48h1.12l3.18-12.48Z" />
			<path d="M398.2,24.42h8.42v1.36h-6.88v4.78h5.68V31.9h-5.68v5h6.88v1.36H398.2Z" />
			<path d="M410.8,33v5.3h-1.54V24.42h5.12c2.9,0,4.42,1.28,4.42,4.2,0,2-.8,3.46-2.54,4l2.66,5.62h-1.7l-2.5-5.3Zm3.58-7.18H410.8V31.6h3.6c2.08,0,2.82-1.24,2.82-3C417.22,26.72,416.32,25.78,414.38,25.78Z" />
			<path d="M431,24.42l-3.62,13.84H424l-3.62-13.84H422l3.18,12.48h1.12l3.18-12.48Z" />
			<path d="M433.22,24.42h1.54V38.26h-1.54Z" />
			<path d="M438.14,24.42h8.42v1.36h-6.88v4.78h5.68V31.9h-5.68v5h6.88v1.36h-8.42Z" />
			<path d="M449.7,24.42l2.36,12.48h.58l2.82-12.36h1.8l2.82,12.36h.58L463,24.42h1.58l-2.8,13.84H459l-2.62-11.82-2.62,11.82h-2.82L448.1,24.42Z" />
			<path d="M42.64,85.75A19.76,19.76,0,0,1,48,84.91c4.62,0,6.21,1.49,6.21,4.61a4.32,4.32,0,0,1-2.43,3.87c1.67.73,2.79,1.41,2.79,3.9,0,3.56-1.78,5.36-6.13,5.36a28.88,28.88,0,0,1-6-.81l.19-2.23a39.25,39.25,0,0,0,5.4.52c2.26,0,3.35-.89,3.35-2.76s-1.34-2.55-3.15-2.57H44.53V92.38h3.71A2.86,2.86,0,0,0,51,89.7c0-1.56-.94-2.26-3.2-2.26a31.53,31.53,0,0,0-4.93.49Z" fill="#2277d6" />
			<path d="M58.24,102.36V84h3V90a10.79,10.79,0,0,1,3.82-1c3.87,0,4.81,2.06,4.81,6.32v7h-3V95.47c0-2.6-.34-3.87-2.48-3.87a10.72,10.72,0,0,0-3.12.57v10.19Z" fill="#2277d6" />
			<path d="M384.88,115.34h-5.74v-1.07l3.37-8.44H384l-3.42,8.29h4.28v-3.69h1.38v3.69h1.5v1.22h-1.5v2.31h-1.38Z" fill="#3a3d3f" />
			<path d="M419.26,112.55h3.38v-3.5h1.26v3.5h3.42v1.21H423.9v3.53h-1.26v-3.53h-3.38Z" fill="#3a3d3f" />
			<path d="M429.54,117.65v-1.16l3.46-3.64c1.47-1.52,2.38-2.49,2.38-3.89,0-1.57-.88-2.07-2.58-2.07a17.28,17.28,0,0,0-3.06.39l-.11-1.15a14.41,14.41,0,0,1,3.42-.48c2.49,0,3.75.95,3.75,3.17,0,1.77-.81,2.81-2.48,4.42l-3.15,3.21h5.93v1.2Z" fill="#3a3d3f" />
			<path d="M446.89,105.83v1.25h-5.75l-.33,3.85a6.86,6.86,0,0,1,2.78-.73c2.31,0,3.76,1,3.76,3.49,0,2.73-1.49,4.12-4,4.12a19.42,19.42,0,0,1-3.92-.52l.16-1.09a23.26,23.26,0,0,0,3.64.4,2.5,2.5,0,0,0,2.67-2.8c0-1.79-1-2.36-2.51-2.36a6.81,6.81,0,0,0-2.81.71l-.95-.18.32-6.14Z" fill="#3a3d3f" />
			<path d="M457.69,111.92c0,4.53-1.59,5.91-4.3,5.91s-4.32-1.34-4.32-5.89c0-4.88,1.58-6.31,4.3-6.31S457.69,107.05,457.69,111.92Zm-7.18,0c0,3.71,1,4.67,2.88,4.67s2.89-1,2.89-4.69c0-4-.92-5-2.89-5S450.51,107.91,450.51,111.94Z" fill="#3a3d3f" />
			<path d="M494.4,108.71c0,1.53-.59,2.15-2,2.76a3,3,0,0,1,2.15,3c0,2.59-2,3.38-4.46,3.38s-4.4-.73-4.4-3.19a3.15,3.15,0,0,1,2-3.17,2.75,2.75,0,0,1-1.85-2.78c0-2,1.63-3.06,4.21-3.06S494.4,106.64,494.4,108.71Zm-1.29,5.59c0-1.38-.91-1.82-2.09-2.17h-1.88c-1.24.35-2,1-2,2.28,0,1.63,1.26,2.17,2.94,2.17S493.11,116,493.11,114.3Zm-5.73-5.44c0,1.09.59,1.66,1.76,2.07H491c1.22-.39,1.92-1,1.92-2.06,0-1.41-1.06-2-2.8-2S487.38,107.44,487.38,108.86Z" fill="#3a3d3f" />
			<path d="M500.86,105.83h1.29v11.82h-1.38V107.37l-3,2-.63-1Z" fill="#3a3d3f" />
			<path d="M509.66,108.12c0,1.74-.78,2.53-2,2.53s-2-.79-2-2.53.76-2.47,2-2.47S509.66,106.4,509.66,108.12Zm-2,1.61c.67,0,.9-.55.9-1.61s-.23-1.56-.9-1.56-.87.5-.87,1.56S507,109.73,507.68,109.73Zm4-4.28.86.29L508.85,118l-.86-.25Zm3.08,9.86c0,1.71-.77,2.52-2,2.52s-1.95-.81-1.95-2.54.73-2.46,1.95-2.46S514.74,113.59,514.74,115.31Zm-2,1.61c.68,0,.9-.56.9-1.61s-.22-1.56-.9-1.56-.88.5-.88,1.54S512.13,116.92,512.77,116.92Z" fill="#3a3d3f" />
			<path d="M116.74,72.1H120V93.22h-3.55V76.13l-5,3.2-1.63-2.65Z" />
			<path d="M127.3,72.1h13.31v4.22l-7.78,17.25-3.32-1L137,76.26v-1H127.3Z" />
			<path d="M144.84,78.92h3.74v4.6h-3.74Zm0,9.69h3.74v4.61h-3.74Z" />
			<path d="M167.46,82.88c0,8-2.91,10.69-8,10.69s-8-2.62-8-10.69c0-8.28,2.91-11.13,8-11.13S167.46,74.56,167.46,82.88Zm-12.29,0c0,5.8,1.44,7.59,4.35,7.59s4.26-1.79,4.26-7.59c0-6.2-1.31-8-4.29-8S155.17,76.65,155.17,82.88Z" />
			<path d="M185.38,82.88c0,8-2.91,10.69-8,10.69s-8-2.62-8-10.69c0-8.28,2.91-11.13,8-11.13S185.38,74.56,185.38,82.88Zm-12.29,0c0,5.8,1.44,7.59,4.35,7.59s4.26-1.79,4.26-7.59c0-6.2-1.31-8-4.29-8S173.09,76.65,173.09,82.88Z" />
			<path d="M195.36,83h9.57v3.17h-9.57Z" />
			<path d="M216.07,93.22v-3l5.21-5.38c2.72-2.78,4.29-4.48,4.29-6.72,0-2.39-1.25-3.16-4-3.16a33.21,33.21,0,0,0-5.18.57l-.23-2.81a25,25,0,0,1,6.24-.93c4.68,0,6.82,1.92,6.82,5.89,0,3.2-1.34,5-4.61,8.09l-4.51,4.39h9.54v3.1Z" />
			<path d="M248.77,82.88c0,8-2.91,10.69-8,10.69s-8-2.62-8-10.69c0-8.28,2.91-11.13,8-11.13S248.77,74.56,248.77,82.88Zm-12.29,0c0,5.8,1.44,7.59,4.35,7.59s4.26-1.79,4.26-7.59c0-6.2-1.31-8-4.29-8S236.48,76.65,236.48,82.88Z" />
			<path d="M251.71,78.92h3.75v4.6h-3.75Zm0,9.69h3.75v4.61h-3.75Z" />
			<path d="M274.34,82.88c0,8-2.91,10.69-8,10.69s-8-2.62-8-10.69c0-8.28,2.91-11.13,8-11.13S274.34,74.56,274.34,82.88Zm-12.29,0c0,5.8,1.44,7.59,4.35,7.59s4.26-1.79,4.26-7.59c0-6.2-1.31-8-4.29-8S262.05,76.65,262.05,82.88Z" />
			<path d="M292.26,82.88c0,8-2.91,10.69-8,10.69s-8-2.62-8-10.69c0-8.28,2.91-11.13,8-11.13S292.26,74.56,292.26,82.88Zm-12.29,0c0,5.8,1.44,7.59,4.35,7.59s4.26-1.79,4.26-7.59c0-6.2-1.31-8-4.29-8S280,76.65,280,82.88Z" />
			<path d="M107.28,105.26h9v1.23h-3.78v11.16h-1.36V106.49h-3.81Z" fill="#3a3d3f" />
			<path d="M125,113.07c0,3.26-.8,4.76-3.83,4.76s-3.84-1.5-3.84-4.76c0-3.09,1-4.55,3.84-4.55S125,110,125,113.07Zm-1.38,0c0-2.49-.53-3.39-2.45-3.39s-2.46.9-2.46,3.39.34,3.6,2.46,3.6S123.65,115.61,123.65,113.07Z" fill="#3a3d3f" />
			<path d="M134.1,117.65h-1.33V117a6.35,6.35,0,0,1-2.72.79c-1.75,0-3.22-.72-3.22-4.59,0-3.15,1-4.72,3.74-4.72a14.08,14.08,0,0,1,2.2.23v-4h1.33ZM132.77,116V109.9a14,14,0,0,0-2.13-.22c-1.88,0-2.43,1.24-2.43,3.56,0,2.91.95,3.39,2,3.39A6.47,6.47,0,0,0,132.77,116Z" fill="#3a3d3f" />
			<path d="M143,116c0,.52.47.71,1,.78l-.05,1.06a2.72,2.72,0,0,1-2.13-.72,9.11,9.11,0,0,1-3.23.72c-1.63,0-2.52-.93-2.52-2.74s.89-2.47,2.74-2.65l2.81-.27v-.77c0-1.25-.54-1.7-1.61-1.7-1.26,0-3.39.23-3.39.23l-.05-1a21.9,21.9,0,0,1,3.51-.39c2,0,2.88.93,2.88,2.88Zm-4-2.55c-1.09.11-1.52.63-1.52,1.61s.44,1.65,1.36,1.65a9.6,9.6,0,0,0,2.81-.55v-3Z" fill="#3a3d3f" />
			<path d="M146.18,108.69l2.24,7.8H149l2.26-7.8h1.34l-3.72,12.94h-1.35l1.17-4h-1.33l-2.54-9Z" fill="#3a3d3f" />
			<path d="M659.1,61.88h9v1.25h-3.79V74.34h-1.37V63.13H659.1Z" fill="#3a3d3f" />
			<path d="M669.63,74.34V61.41H671v4.43a7.65,7.65,0,0,1,2.78-.68c2.46,0,3,1.22,3,4.43v4.75h-1.35V69.63c0-2.38-.27-3.26-1.93-3.26a7.41,7.41,0,0,0-2.54.54v7.43Z" fill="#3a3d3f" />
			<path d="M679.3,61.74h1.35v1.57H679.3Zm0,3.6h1.35v9H679.3Z" fill="#3a3d3f" />
			<path d="M689.22,66.65a30.35,30.35,0,0,0-3.15-.28c-1.12,0-2,.3-2,1.36,0,.85.44,1.08,2.35,1.41,2.25.38,3.09.83,3.09,2.57,0,2.11-1.33,2.81-3.49,2.81a25.65,25.65,0,0,1-3.17-.34L683,73a29.86,29.86,0,0,0,3,.31c1.48,0,2.27-.33,2.27-1.55,0-.94-.47-1.17-2.43-1.48s-3-.7-3-2.5c0-2,1.6-2.63,3.24-2.63a23.19,23.19,0,0,1,3.26.34Z" fill="#3a3d3f" />
			<path d="M696.18,65.34,698,73.17h.29l2.14-7.65h1.41L704,73.17h.31l1.8-7.83h1.35l-2.15,9H703l-1.91-7-1.9,7H697l-2.15-9Z" fill="#3a3d3f" />
			<path d="M716.6,69.73c0,3.28-.81,4.79-3.86,4.79s-3.85-1.51-3.85-4.79c0-3.09,1-4.57,3.85-4.57S716.6,66.64,716.6,69.73Zm-1.39,0c0-2.5-.54-3.4-2.47-3.4s-2.46.9-2.46,3.4.34,3.62,2.46,3.62S715.21,72.29,715.21,69.73Z" fill="#3a3d3f" />
			<path d="M725.76,65.34v9h-1.35v-.63a6.08,6.08,0,0,1-2.67.81c-2.52,0-3-1.17-3-4.48v-4.7h1.35V70c0,2.49.22,3.3,1.89,3.3a5.47,5.47,0,0,0,2.47-.67V65.34Z" fill="#3a3d3f" />
			<path d="M728.46,61.41h1.35V74.34h-1.35Z" fill="#3a3d3f" />
			<path d="M739.42,74.34h-1.33v-.61a6.49,6.49,0,0,1-2.74.79c-1.76,0-3.24-.72-3.24-4.61,0-3.17,1-4.75,3.76-4.75a15.79,15.79,0,0,1,2.22.23v-4h1.33Zm-1.33-1.69v-6.1a14.42,14.42,0,0,0-2.14-.22c-1.9,0-2.45,1.24-2.45,3.58,0,2.92,1,3.41,2,3.41A6.54,6.54,0,0,0,738.09,72.65Z" fill="#3a3d3f" />
			<path d="M746,61.74h1.35v1.57H746Zm0,3.6h1.35v9H746Z" fill="#3a3d3f" />
			<path d="M749.93,74.34v-9h1.33V66a6.85,6.85,0,0,1,2.79-.81c2.49,0,3.05,1.22,3.05,4.43v4.75h-1.34V69.63c0-2.38-.27-3.26-1.94-3.26a6.19,6.19,0,0,0-2.54.66v7.31Z" fill="#3a3d3f" />
			<path d="M765.41,65.43l0,1.1s-1.44-.16-2.13-.16c-2.07,0-2.63.9-2.63,3.31,0,2.66.42,3.64,2.65,3.64.69,0,2.13-.17,2.13-.17l0,1.12a24,24,0,0,1-2.5.25c-2.87,0-3.71-1.31-3.71-4.84,0-3.26,1.06-4.52,3.74-4.52A20.89,20.89,0,0,1,765.41,65.43Z" fill="#3a3d3f" />
			<path d="M767.44,65.34h1.34v1.22a10.06,10.06,0,0,1,3.29-1.42v1.37a13.15,13.15,0,0,0-3.28,1.22v6.61h-1.35Z" fill="#3a3d3f" />
			<path d="M780.32,73.17l0,1.06a31.12,31.12,0,0,1-3.51.29c-2.68,0-3.56-1.56-3.56-4.62,0-3.43,1.47-4.74,3.76-4.74s3.62,1.26,3.62,4.21l-.07,1h-6c0,1.93.6,2.93,2.36,2.93C778.35,73.33,780.32,73.17,780.32,73.17Zm-1-3.85c0-2.23-.69-3-2.27-3s-2.4.85-2.41,3Z" fill="#3a3d3f" />
			<path d="M789.12,72.67c0,.52.47.72,1,.79l0,1.06A2.74,2.74,0,0,1,788,73.8a9.29,9.29,0,0,1-3.25.72c-1.63,0-2.54-.93-2.54-2.75s.91-2.49,2.76-2.67l2.83-.27v-.77c0-1.26-.54-1.71-1.62-1.71-1.26,0-3.41.23-3.41.23l0-1a21.6,21.6,0,0,1,3.53-.4c2,0,2.9.94,2.9,2.9Zm-4-2.56c-1.1.11-1.53.63-1.53,1.62s.45,1.66,1.37,1.66a9.57,9.57,0,0,0,2.83-.56v-3Z" fill="#3a3d3f" />
			<path d="M797.76,66.65a30.35,30.35,0,0,0-3.15-.28c-1.12,0-2,.3-2,1.36,0,.85.44,1.08,2.34,1.41,2.25.38,3.1.83,3.1,2.57,0,2.11-1.33,2.81-3.49,2.81a25.65,25.65,0,0,1-3.17-.34l.07-1.17a29.5,29.5,0,0,0,3,.31c1.48,0,2.27-.33,2.27-1.55,0-.94-.47-1.17-2.43-1.48s-3-.7-3-2.5c0-2,1.61-2.63,3.24-2.63a23.19,23.19,0,0,1,3.26.34Z" fill="#3a3d3f" />
			<path d="M806.79,73.17l0,1.06a31.12,31.12,0,0,1-3.51.29c-2.69,0-3.57-1.56-3.57-4.62,0-3.43,1.48-4.74,3.77-4.74s3.61,1.26,3.61,4.21l-.07,1h-5.94c0,1.93.6,2.93,2.36,2.93C804.83,73.33,806.79,73.17,806.79,73.17Zm-1-3.85c0-2.23-.68-3-2.26-3s-2.4.85-2.42,3Z" fill="#3a3d3f" />
			<path d="M820.11,74.34h-1.33v-.61a6.49,6.49,0,0,1-2.74.79c-1.76,0-3.24-.72-3.24-4.61,0-3.17,1-4.75,3.77-4.75a15.79,15.79,0,0,1,2.21.23v-4h1.33Zm-1.33-1.69v-6.1a14.27,14.27,0,0,0-2.14-.22c-1.89,0-2.45,1.24-2.45,3.58,0,2.92.95,3.41,2,3.41A6.53,6.53,0,0,0,818.78,72.65Z" fill="#3a3d3f" />
			<path d="M822.72,65.34h1.33v1.22a10.17,10.17,0,0,1,3.3-1.42v1.37a13.15,13.15,0,0,0-3.28,1.22v6.61h-1.35Z" fill="#3a3d3f" />
			<path d="M835.3,72.67c0,.52.47.72,1.05.79l-.06,1.06a2.75,2.75,0,0,1-2.14-.72,9.2,9.2,0,0,1-3.24.72c-1.64,0-2.54-.93-2.54-2.75s.9-2.49,2.76-2.67l2.82-.27v-.77c0-1.26-.54-1.71-1.62-1.71-1.26,0-3.4.23-3.4.23l0-1a21.6,21.6,0,0,1,3.53-.4c2,0,2.89.94,2.89,2.9Zm-4-2.56c-1.1.11-1.53.63-1.53,1.62s.45,1.66,1.37,1.66a9.47,9.47,0,0,0,2.82-.56v-3Z" fill="#3a3d3f" />
			<path d="M838,74.34v-9h1.33V66a6,6,0,0,1,2.63-.81,2.54,2.54,0,0,1,2.34.92,7.46,7.46,0,0,1,3.2-.92c2.45,0,3,1.17,3,4.43v4.75h-1.34V69.63c0-2.38-.28-3.26-1.9-3.26a6,6,0,0,0-2.53.66,10.4,10.4,0,0,1,.23,2.63v4.68h-1.35V69.7c0-2.49-.25-3.33-1.89-3.33a5.39,5.39,0,0,0-2.41.66v7.31Z" fill="#3a3d3f" />
			<path d="M859.37,72.67c0,.52.47.72,1,.79l0,1.06a2.75,2.75,0,0,1-2.14-.72,9.2,9.2,0,0,1-3.24.72c-1.64,0-2.54-.93-2.54-2.75s.9-2.49,2.75-2.67l2.83-.27v-.77c0-1.26-.54-1.71-1.62-1.71-1.26,0-3.4.23-3.4.23l-.06-1a21.6,21.6,0,0,1,3.53-.4c2,0,2.9.94,2.9,2.9Zm-4-2.56c-1.09.11-1.53.63-1.53,1.62s.45,1.66,1.37,1.66a9.57,9.57,0,0,0,2.83-.56v-3Z" fill="#3a3d3f" />
			<path d="M863.83,66.51v4.3c0,2,.13,2.52,1.3,2.52.5,0,1.6-.1,1.6-.1l.09,1.11a15.71,15.71,0,0,1-1.84.2c-1.85,0-2.48-.7-2.48-3.3V66.51h-1.28V65.34h1.28V62.58h1.33v2.76h2.86v1.17Z" fill="#3a3d3f" />
			<path d="M868.35,61.74h1.35v1.57h-1.35Zm0,3.6h1.35v9h-1.35Z" fill="#3a3d3f" />
			<path d="M878.11,65.43l-.06,1.1s-1.44-.16-2.12-.16c-2.07,0-2.63.9-2.63,3.31,0,2.66.41,3.64,2.65,3.64.68,0,2.12-.17,2.12-.17l.06,1.12a24.24,24.24,0,0,1-2.51.25c-2.86,0-3.71-1.31-3.71-4.84,0-3.26,1.07-4.52,3.75-4.52A20.89,20.89,0,0,1,878.11,65.43Z" fill="#3a3d3f" />
			<path d="M886.5,72.67c0,.52.46.72,1,.79l0,1.06a2.76,2.76,0,0,1-2.15-.72,9.2,9.2,0,0,1-3.24.72c-1.64,0-2.54-.93-2.54-2.75s.9-2.49,2.76-2.67l2.82-.27v-.77c0-1.26-.54-1.71-1.62-1.71-1.26,0-3.4.23-3.4.23l0-1a21.6,21.6,0,0,1,3.53-.4c2,0,2.9.94,2.9,2.9Zm-4-2.56c-1.1.11-1.53.63-1.53,1.62s.45,1.66,1.37,1.66a9.47,9.47,0,0,0,2.82-.56v-3Z" fill="#3a3d3f" />
			<path d="M889.26,61.41h1.36V74.34h-1.36Z" fill="#3a3d3f" />
			<path d="M893.42,61.41h1.35V74.34h-1.35Z" fill="#3a3d3f" />
			<path d="M898,65.34l2.25,7.83h.59l2.27-7.83h1.35l-3.74,13h-1.35l1.17-4h-1.34l-2.55-9Z" fill="#3a3d3f" />
			<path d="M911.93,66.51v4.3c0,2,.12,2.52,1.29,2.52.51,0,1.61-.1,1.61-.1l.09,1.11a15.71,15.71,0,0,1-1.84.2c-1.86,0-2.49-.7-2.49-3.3V66.51h-1.27V65.34h1.27V62.58h1.34v2.76h2.86v1.17Z" fill="#3a3d3f" />
			<path d="M916.44,74.34V61.41h1.36v4.43a7.64,7.64,0,0,1,2.77-.68c2.47,0,3,1.22,3,4.43v4.75h-1.35V69.63c0-2.38-.27-3.26-1.93-3.26a7.39,7.39,0,0,0-2.53.54v7.43Z" fill="#3a3d3f" />
			<path d="M932.76,73.17l0,1.06a31.12,31.12,0,0,1-3.51.29c-2.68,0-3.56-1.56-3.56-4.62,0-3.43,1.47-4.74,3.76-4.74s3.62,1.26,3.62,4.21l-.08,1h-5.94c0,1.93.6,2.93,2.36,2.93C930.79,73.33,932.76,73.17,932.76,73.17Zm-1-3.85c0-2.23-.69-3-2.27-3s-2.4.85-2.41,3Z" fill="#3a3d3f" />
			<path d="M945.14,66.65a30.35,30.35,0,0,0-3.15-.28c-1.12,0-2,.3-2,1.36,0,.85.44,1.08,2.35,1.41,2.25.38,3.09.83,3.09,2.57,0,2.11-1.33,2.81-3.49,2.81a25.65,25.65,0,0,1-3.17-.34l.07-1.17a29.86,29.86,0,0,0,3,.31c1.48,0,2.27-.33,2.27-1.55,0-.94-.47-1.17-2.43-1.48s-3-.7-3-2.5c0-2,1.6-2.63,3.24-2.63a23.19,23.19,0,0,1,3.26.34Z" fill="#3a3d3f" />
			<path d="M948,65.34l2.25,7.83h.59l2.27-7.83h1.35l-3.75,13H949.4l1.17-4h-1.33l-2.56-9Z" fill="#3a3d3f" />
			<path d="M962.2,66.65a30.35,30.35,0,0,0-3.15-.28c-1.12,0-2,.3-2,1.36,0,.85.43,1.08,2.34,1.41,2.25.38,3.1.83,3.1,2.57,0,2.11-1.34,2.81-3.5,2.81a25.65,25.65,0,0,1-3.17-.34l.08-1.17a29.5,29.5,0,0,0,3,.31c1.47,0,2.27-.33,2.27-1.55,0-.94-.47-1.17-2.43-1.48s-3-.7-3-2.5c0-2,1.6-2.63,3.24-2.63a23.19,23.19,0,0,1,3.26.34Z" fill="#3a3d3f" />
			<path d="M966.39,66.51v4.3c0,2,.13,2.52,1.3,2.52.51,0,1.6-.1,1.6-.1l.09,1.11a15.44,15.44,0,0,1-1.83.2c-1.86,0-2.49-.7-2.49-3.3V66.51h-1.28V65.34h1.28V62.58h1.33v2.76h2.87v1.17Z" fill="#3a3d3f" />
			<path d="M977.56,73.17l0,1.06a31.12,31.12,0,0,1-3.51.29c-2.68,0-3.56-1.56-3.56-4.62,0-3.43,1.47-4.74,3.76-4.74s3.62,1.26,3.62,4.21l-.07,1h-6c0,1.93.6,2.93,2.36,2.93C975.59,73.33,977.56,73.17,977.56,73.17Zm-1-3.85c0-2.23-.69-3-2.27-3s-2.4.85-2.41,3Z" fill="#3a3d3f" />
			<path d="M980,74.34v-9h1.34V66a6,6,0,0,1,2.62-.81,2.52,2.52,0,0,1,2.34.92,7.53,7.53,0,0,1,3.21-.92c2.45,0,3,1.17,3,4.43v4.75H991.2V69.63c0-2.38-.27-3.26-1.89-3.26a6,6,0,0,0-2.54.66,10.29,10.29,0,0,1,.24,2.63v4.68h-1.35V69.7c0-2.49-.26-3.33-1.89-3.33a5.46,5.46,0,0,0-2.42.66v7.31Z" fill="#3a3d3f" />
			<path d="M999,65.34h1.33V66a6.12,6.12,0,0,1,2.7-.83c2.27,0,3.26,1.39,3.26,4.57,0,3.53-1.15,4.79-3.92,4.79a11,11,0,0,1-2-.2v4H999Zm1.35,1.75v6.06a12.8,12.8,0,0,0,1.95.2c2,0,2.62-1,2.62-3.62s-.77-3.36-2.08-3.36A5.87,5.87,0,0,0,1000.36,67.09Z" fill="#3a3d3f" />
			<path d="M1015.14,73.17l0,1.06a31.38,31.38,0,0,1-3.51.29c-2.69,0-3.57-1.56-3.57-4.62,0-3.43,1.48-4.74,3.76-4.74s3.62,1.26,3.62,4.21l-.07,1h-5.94c0,1.93.59,2.93,2.36,2.93C1013.18,73.33,1015.14,73.17,1015.14,73.17Zm-1-3.85c0-2.23-.68-3-2.27-3s-2.39.85-2.41,3Z" fill="#3a3d3f" />
			<path d="M1017.59,65.34h1.33v1.22a10.18,10.18,0,0,1,3.29-1.42v1.37a13,13,0,0,0-3.27,1.22v6.61h-1.35Z" fill="#3a3d3f" />
			<path d="M1025.54,74.34h-1.35V66.51h-1.13V65.34h1.13v-.81c0-2.59.67-3.3,2.43-3.3.62,0,1.82.13,1.82.13l0,1.12s-1,0-1.54,0c-1,0-1.34.43-1.34,2.11v.79h2.61v1.17h-2.61Z" fill="#3a3d3f" />
			<path d="M1037.08,69.73c0,3.28-.81,4.79-3.85,4.79s-3.85-1.51-3.85-4.79c0-3.09,1-4.57,3.85-4.57S1037.08,66.64,1037.08,69.73Zm-1.38,0c0-2.5-.54-3.4-2.47-3.4s-2.47.9-2.47,3.4.34,3.62,2.47,3.62S1035.7,72.29,1035.7,69.73Z" fill="#3a3d3f" />
			<path d="M1039.28,65.34h1.33v1.22a10.18,10.18,0,0,1,3.29-1.42v1.37a13,13,0,0,0-3.27,1.22v6.61h-1.35Z" fill="#3a3d3f" />
			<path d="M1045.5,74.34v-9h1.34V66a6,6,0,0,1,2.63-.81,2.54,2.54,0,0,1,2.34.92,7.46,7.46,0,0,1,3.2-.92c2.45,0,3,1.17,3,4.43v4.75h-1.35V69.63c0-2.38-.27-3.26-1.89-3.26a6,6,0,0,0-2.54.66,9.85,9.85,0,0,1,.24,2.63v4.68h-1.35V69.7c0-2.49-.25-3.33-1.89-3.33a5.46,5.46,0,0,0-2.42.66v7.31Z" fill="#3a3d3f" />
			<path d="M1066.91,72.67c0,.52.47.72,1,.79l0,1.06a2.74,2.74,0,0,1-2.14-.72,9.29,9.29,0,0,1-3.25.72c-1.63,0-2.53-.93-2.53-2.75s.9-2.49,2.75-2.67l2.83-.27v-.77c0-1.26-.54-1.71-1.62-1.71-1.26,0-3.41.23-3.41.23l0-1a21.6,21.6,0,0,1,3.53-.4c2,0,2.9.94,2.9,2.9Zm-4-2.56c-1.1.11-1.53.63-1.53,1.62s.45,1.66,1.37,1.66a9.57,9.57,0,0,0,2.83-.56v-3Z" fill="#3a3d3f" />
			<path d="M1069.57,74.34v-9h1.33V66a6.85,6.85,0,0,1,2.79-.81c2.49,0,3,1.22,3,4.43v4.75h-1.34V69.63c0-2.38-.27-3.26-1.94-3.26a6.19,6.19,0,0,0-2.54.66v7.31Z" fill="#3a3d3f" />
			<path d="M1085.05,65.43l0,1.1s-1.44-.16-2.13-.16c-2.07,0-2.63.9-2.63,3.31,0,2.66.42,3.64,2.65,3.64.68,0,2.12-.17,2.12-.17l.06,1.12a24.28,24.28,0,0,1-2.5.25c-2.87,0-3.71-1.31-3.71-4.84,0-3.26,1.06-4.52,3.74-4.52A20.89,20.89,0,0,1,1085.05,65.43Z" fill="#3a3d3f" />
			<path d="M1093.73,73.17l0,1.06a31.12,31.12,0,0,1-3.51.29c-2.68,0-3.56-1.56-3.56-4.62,0-3.43,1.47-4.74,3.76-4.74s3.62,1.26,3.62,4.21l-.07,1h-6c0,1.93.6,2.93,2.36,2.93C1091.76,73.33,1093.73,73.17,1093.73,73.17Zm-1-3.85c0-2.23-.69-3-2.27-3s-2.4.85-2.41,3Z" fill="#3a3d3f" />
			<path d="M1101.93,66.51v4.3c0,2,.13,2.52,1.3,2.52.5,0,1.6-.1,1.6-.1l.09,1.11a15.44,15.44,0,0,1-1.83.2c-1.86,0-2.49-.7-2.49-3.3V66.51h-1.28V65.34h1.28V62.58h1.33v2.76h2.87v1.17Z" fill="#3a3d3f" />
			<path d="M1113.76,69.73c0,3.28-.81,4.79-3.85,4.79s-3.86-1.51-3.86-4.79c0-3.09,1-4.57,3.86-4.57S1113.76,66.64,1113.76,69.73Zm-1.39,0c0-2.5-.54-3.4-2.46-3.4s-2.47.9-2.47,3.4.34,3.62,2.47,3.62S1112.37,72.29,1112.37,69.73Z" fill="#3a3d3f" />
			<path d="M1119.92,74.34V61.41h1.34v4.43a7.72,7.72,0,0,1,2.78-.68c2.47,0,3,1.22,3,4.43v4.75h-1.35V69.63c0-2.38-.27-3.26-1.93-3.26a7.48,7.48,0,0,0-2.54.54v7.43Z" fill="#3a3d3f" />
			<path d="M1136.22,73.17l0,1.06a31.12,31.12,0,0,1-3.51.29c-2.68,0-3.57-1.56-3.57-4.62,0-3.43,1.48-4.74,3.77-4.74s3.62,1.26,3.62,4.21l-.07,1h-6c0,1.93.6,2.93,2.36,2.93C1134.26,73.33,1136.22,73.17,1136.22,73.17Zm-1-3.85c0-2.23-.69-3-2.27-3s-2.4.85-2.41,3Z" fill="#3a3d3f" />
			<path d="M1138.78,61.41h1.35V74.34h-1.35Z" fill="#3a3d3f" />
			<path d="M1142.83,65.34h1.33V66a6.12,6.12,0,0,1,2.7-.83c2.27,0,3.26,1.39,3.26,4.57,0,3.53-1.15,4.79-3.92,4.79a11,11,0,0,1-2-.2v4h-1.35Zm1.35,1.75v6.06a12.78,12.78,0,0,0,1.94.2c2,0,2.63-1,2.63-3.62s-.77-3.36-2.09-3.36A5.86,5.86,0,0,0,1144.18,67.09Z" fill="#3a3d3f" />
			<path d="M667.13,93.34v9h-1.35v-.63a6.07,6.07,0,0,1-2.66.81c-2.52,0-3-1.17-3-4.48v-4.7h1.36V98c0,2.49.21,3.3,1.89,3.3a5.4,5.4,0,0,0,2.46-.67V93.34Z" fill="#3a3d3f" />
			<path d="M675.7,94.65a30.35,30.35,0,0,0-3.15-.28c-1.12,0-2,.3-2,1.36,0,.85.43,1.08,2.34,1.41,2.25.38,3.09.83,3.09,2.57,0,2.11-1.33,2.81-3.49,2.81a25.65,25.65,0,0,1-3.17-.34l.07-1.17a29.8,29.8,0,0,0,3,.31c1.47,0,2.26-.33,2.26-1.55,0-.94-.46-1.17-2.43-1.48s-3-.7-3-2.5c0-2,1.6-2.63,3.24-2.63a23.19,23.19,0,0,1,3.26.34Z" fill="#3a3d3f" />
			<path d="M687.87,93.43l-.06,1.1s-1.44-.16-2.12-.16c-2.07,0-2.63.9-2.63,3.31,0,2.66.41,3.64,2.65,3.64.68,0,2.12-.17,2.12-.17l.06,1.12a24.24,24.24,0,0,1-2.51.25c-2.86,0-3.71-1.31-3.71-4.84,0-3.26,1.07-4.52,3.75-4.52A20.89,20.89,0,0,1,687.87,93.43Z" fill="#3a3d3f" />
			<path d="M697.21,97.73c0,3.28-.81,4.79-3.85,4.79s-3.86-1.51-3.86-4.79c0-3.09,1-4.57,3.86-4.57S697.21,94.64,697.21,97.73Zm-1.39,0c0-2.5-.54-3.4-2.46-3.4s-2.47.9-2.47,3.4.34,3.62,2.47,3.62S695.82,100.29,695.82,97.73Z" fill="#3a3d3f" />
			<path d="M699.4,102.34v-9h1.34V94a6.79,6.79,0,0,1,2.79-.81c2.48,0,3,1.22,3,4.43v4.75h-1.33V97.63c0-2.38-.27-3.26-2-3.26a6.25,6.25,0,0,0-2.54.66v7.31Z" fill="#3a3d3f" />
			<path d="M710.8,102.34h-1.35V94.51h-1.14V93.34h1.14v-.81c0-2.59.66-3.3,2.43-3.3.61,0,1.82.13,1.82.13l0,1.12s-1,0-1.55,0c-1,0-1.33.43-1.33,2.11v.79h2.61v1.17H710.8Z" fill="#3a3d3f" />
			<path d="M715,93.34h1.33v1.22a10.17,10.17,0,0,1,3.3-1.42v1.37a13,13,0,0,0-3.28,1.22v6.61H715Z" fill="#3a3d3f" />
			<path d="M728.57,97.73c0,3.28-.81,4.79-3.86,4.79s-3.85-1.51-3.85-4.79c0-3.09,1-4.57,3.85-4.57S728.57,94.64,728.57,97.73Zm-1.39,0c0-2.5-.54-3.4-2.47-3.4s-2.46.9-2.46,3.4.34,3.62,2.46,3.62S727.18,100.29,727.18,97.73Z" fill="#3a3d3f" />
			<path d="M730.76,102.34v-9h1.33V94a6.85,6.85,0,0,1,2.79-.81c2.49,0,3,1.22,3,4.43v4.75h-1.34V97.63c0-2.38-.27-3.26-1.94-3.26a6.19,6.19,0,0,0-2.54.66v7.31Z" fill="#3a3d3f" />
			<path d="M742.23,94.51v4.3c0,2,.12,2.52,1.29,2.52.51,0,1.61-.1,1.61-.1l.09,1.11a15.71,15.71,0,0,1-1.84.2c-1.86,0-2.49-.7-2.49-3.3V94.51h-1.27V93.34h1.27V90.58h1.34v2.76h2.86v1.17Z" fill="#3a3d3f" />
			<path d="M752.5,94.51v4.3c0,2,.13,2.52,1.3,2.52.5,0,1.6-.1,1.6-.1l.09,1.11a15.44,15.44,0,0,1-1.83.2c-1.86,0-2.49-.7-2.49-3.3V94.51h-1.28V93.34h1.28V90.58h1.33v2.76h2.87v1.17Z" fill="#3a3d3f" />
			<path d="M757,102.34V89.41h1.35v4.43a7.65,7.65,0,0,1,2.78-.68c2.46,0,3,1.22,3,4.43v4.75h-1.35V97.63c0-2.38-.27-3.26-1.93-3.26a7.41,7.41,0,0,0-2.54.54v7.43Z" fill="#3a3d3f" />
			<path d="M773.33,101.17l0,1.06a31.12,31.12,0,0,1-3.51.29c-2.69,0-3.57-1.56-3.57-4.62,0-3.43,1.48-4.74,3.76-4.74s3.62,1.26,3.62,4.21l-.07,1h-5.94c0,1.93.6,2.93,2.36,2.93C771.37,101.33,773.33,101.17,773.33,101.17Zm-1-3.85c0-2.23-.68-3-2.27-3s-2.39.85-2.41,3Z" fill="#3a3d3f" />
			<path d="M779.74,93.34h1.33V94a6.12,6.12,0,0,1,2.7-.83c2.27,0,3.26,1.39,3.26,4.57,0,3.53-1.15,4.79-3.93,4.79a11,11,0,0,1-2-.2v4h-1.35Zm1.35,1.75v6.06a12.78,12.78,0,0,0,1.94.2c2,0,2.63-1,2.63-3.62s-.77-3.36-2.09-3.36A5.86,5.86,0,0,0,781.09,95.09Z" fill="#3a3d3f" />
			<path d="M796.53,97.73c0,3.28-.81,4.79-3.85,4.79s-3.85-1.51-3.85-4.79c0-3.09,1-4.57,3.85-4.57S796.53,94.64,796.53,97.73Zm-1.38,0c0-2.5-.54-3.4-2.47-3.4s-2.46.9-2.46,3.4.34,3.62,2.46,3.62S795.15,100.29,795.15,97.73Z" fill="#3a3d3f" />
			<path d="M800.53,94.51v4.3c0,2,.12,2.52,1.3,2.52.5,0,1.6-.1,1.6-.1l.09,1.11a15.71,15.71,0,0,1-1.84.2c-1.85,0-2.48-.7-2.48-3.3V94.51h-1.28V93.34h1.28V90.58h1.33v2.76h2.86v1.17Z" fill="#3a3d3f" />
			<path d="M811.69,101.17l0,1.06a31.38,31.38,0,0,1-3.51.29c-2.69,0-3.57-1.56-3.57-4.62,0-3.43,1.48-4.74,3.76-4.74S812,94.42,812,97.37l-.07,1H806c0,1.93.59,2.93,2.36,2.93C809.73,101.33,811.69,101.17,811.69,101.17Zm-1-3.85c0-2.23-.68-3-2.27-3s-2.39.85-2.41,3Z" fill="#3a3d3f" />
			<path d="M814.14,102.34v-9h1.33V94a6.85,6.85,0,0,1,2.79-.81c2.48,0,3,1.22,3,4.43v4.75H820V97.63c0-2.38-.27-3.26-1.94-3.26a6.19,6.19,0,0,0-2.54.66v7.31Z" fill="#3a3d3f" />
			<path d="M825.6,94.51v4.3c0,2,.13,2.52,1.3,2.52.5,0,1.6-.1,1.6-.1l.09,1.11a15.44,15.44,0,0,1-1.83.2c-1.86,0-2.49-.7-2.49-3.3V94.51H823V93.34h1.28V90.58h1.33v2.76h2.87v1.17Z" fill="#3a3d3f" />
			<path d="M830.12,89.74h1.35v1.57h-1.35Zm0,3.6h1.35v9h-1.35Z" fill="#3a3d3f" />
			<path d="M840.42,100.67c0,.52.47.72,1,.79l-.05,1.06a2.75,2.75,0,0,1-2.14-.72,9.2,9.2,0,0,1-3.24.72c-1.64,0-2.54-.93-2.54-2.75s.9-2.49,2.75-2.67l2.83-.27v-.77c0-1.26-.54-1.71-1.62-1.71-1.26,0-3.4.23-3.4.23l-.06-1a21.6,21.6,0,0,1,3.53-.4c2,0,2.9.94,2.9,2.9Zm-4-2.56c-1.09.11-1.53.63-1.53,1.62s.45,1.66,1.37,1.66a9.57,9.57,0,0,0,2.83-.56v-3Z" fill="#3a3d3f" />
			<path d="M843.19,89.41h1.35v12.93h-1.35Z" fill="#3a3d3f" />
			<path d="M858.11,102.34h-1.33v-.61a6.49,6.49,0,0,1-2.74.79c-1.76,0-3.24-.72-3.24-4.61,0-3.17,1-4.75,3.77-4.75a15.79,15.79,0,0,1,2.21.23v-4h1.33Zm-1.33-1.69v-6.1a14.27,14.27,0,0,0-2.14-.22c-1.89,0-2.45,1.24-2.45,3.58,0,2.92.95,3.41,2,3.41A6.53,6.53,0,0,0,856.78,100.65Z" fill="#3a3d3f" />
			<path d="M867.36,101.17l0,1.06a31.12,31.12,0,0,1-3.51.29c-2.68,0-3.57-1.56-3.57-4.62,0-3.43,1.48-4.74,3.77-4.74s3.62,1.26,3.62,4.21l-.08,1h-5.94c0,1.93.6,2.93,2.36,2.93C865.4,101.33,867.36,101.17,867.36,101.17Zm-1-3.85c0-2.23-.69-3-2.27-3s-2.4.85-2.41,3Z" fill="#3a3d3f" />
			<path d="M869.92,89.41h1.35v12.93h-1.35Z" fill="#3a3d3f" />
			<path d="M880.32,100.67c0,.52.47.72,1,.79l-.06,1.06a2.75,2.75,0,0,1-2.14-.72,9.2,9.2,0,0,1-3.24.72c-1.64,0-2.54-.93-2.54-2.75s.9-2.49,2.76-2.67l2.82-.27v-.77c0-1.26-.54-1.71-1.62-1.71-1.26,0-3.4.23-3.4.23l-.05-1a21.6,21.6,0,0,1,3.53-.4c2,0,2.89.94,2.89,2.9Zm-4-2.56c-1.1.11-1.53.63-1.53,1.62s.45,1.66,1.37,1.66a9.47,9.47,0,0,0,2.82-.56v-3Z" fill="#3a3d3f" />
			<path d="M883.49,93.34l2.25,7.83h.6l2.26-7.83H890l-3.74,13h-1.35l1.17-4H884.7l-2.56-9Z" fill="#3a3d3f" />
			<path d="M897.66,94.65a30.35,30.35,0,0,0-3.15-.28c-1.12,0-2,.3-2,1.36,0,.85.44,1.08,2.34,1.41,2.25.38,3.1.83,3.1,2.57,0,2.11-1.33,2.81-3.49,2.81a25.65,25.65,0,0,1-3.17-.34l.07-1.17a29.5,29.5,0,0,0,3,.31c1.48,0,2.27-.33,2.27-1.55,0-.94-.47-1.17-2.43-1.48s-3-.7-3-2.5c0-2,1.61-2.63,3.24-2.63a23.19,23.19,0,0,1,3.26.34Z" fill="#3a3d3f" />
			<path d="M900,100.29h1.48v2H900Z" fill="#3a3d3f" />
			<path d="M910.45,89.88h3l3.42,12.46h-1.37l-.9-3.2H909.3l-.9,3.2H907Zm-.84,8h4.72l-1.9-6.83h-.93Z" fill="#3a3d3f" />
			<path d="M918.73,89.41h1.35v12.93h-1.35Z" fill="#3a3d3f" />
			<path d="M924.58,94.51v4.3c0,2,.13,2.52,1.3,2.52.5,0,1.6-.1,1.6-.1l.09,1.11a15.44,15.44,0,0,1-1.83.2c-1.86,0-2.49-.7-2.49-3.3V94.51H922V93.34h1.28V90.58h1.33v2.76h2.87v1.17Z" fill="#3a3d3f" />
			<path d="M929.1,102.34V89.41h1.35v4.43a7.64,7.64,0,0,1,2.77-.68c2.47,0,3,1.22,3,4.43v4.75h-1.35V97.63c0-2.38-.27-3.26-1.93-3.26a7.41,7.41,0,0,0-2.54.54v7.43Z" fill="#3a3d3f" />
			<path d="M946.08,97.73c0,3.28-.81,4.79-3.86,4.79s-3.85-1.51-3.85-4.79c0-3.09,1-4.57,3.85-4.57S946.08,94.64,946.08,97.73Zm-1.39,0c0-2.5-.54-3.4-2.47-3.4s-2.46.9-2.46,3.4.34,3.62,2.46,3.62S944.69,100.29,944.69,97.73Z" fill="#3a3d3f" />
			<path d="M955.24,93.34v9h-1.35v-.63a6.08,6.08,0,0,1-2.67.81c-2.52,0-3-1.17-3-4.48v-4.7h1.35V98c0,2.49.22,3.3,1.89,3.3a5.47,5.47,0,0,0,2.47-.67V93.34Z" fill="#3a3d3f" />
			<path d="M957.43,103.85c0-1,.49-1.53,1.42-2.23a1.46,1.46,0,0,1-.5-1.24A5.82,5.82,0,0,1,959,99c-.75-.34-1.42-1.06-1.42-2.72,0-2.22,1.37-3.08,3.37-3.08a9.43,9.43,0,0,1,1.87.23l2.67-.07v1.15l-1.72,0a2.3,2.3,0,0,1,.6,1.8c0,2.34-1.17,3-3.48,3-.18,0-.68,0-.88-.07a5.32,5.32,0,0,0-.32,1c0,.72.14.82,2.18.82,2.55,0,3.47.51,3.47,2.65s-1.46,2.86-4,2.86C958.46,106.57,957.43,105.94,957.43,103.85Zm2.34-1.69c-.75.56-1,.88-1,1.59,0,1.24.53,1.69,2.56,1.69,1.8,0,2.61-.49,2.61-1.68,0-1.36-.57-1.51-2.21-1.51C961.09,102.25,959.77,102.16,959.77,102.16ZM963,96.24c0-1.42-.56-2-2.07-2s-2,.56-2,2,.61,2,2,2S963,97.66,963,96.24Z" fill="#3a3d3f" />
			<path d="M967.08,102.34V89.41h1.35v4.43a7.64,7.64,0,0,1,2.77-.68c2.47,0,3,1.22,3,4.43v4.75H972.9V97.63c0-2.38-.27-3.26-1.93-3.26a7.41,7.41,0,0,0-2.54.54v7.43Z" fill="#3a3d3f" />
			<path d="M980.71,89.74h1.35v1.57h-1.35Zm0,3.6h1.35v9h-1.35Z" fill="#3a3d3f" />
			<path d="M986.45,94.51v4.3c0,2,.13,2.52,1.3,2.52.5,0,1.6-.1,1.6-.1l.09,1.11a15.71,15.71,0,0,1-1.84.2c-1.85,0-2.48-.7-2.48-3.3V94.51h-1.28V93.34h1.28V90.58h1.33v2.76h2.86v1.17Z" fill="#3a3d3f" />
			<path d="M994.93,89.74h1.35v1.57h-1.35Zm0,3.6h1.35v9h-1.35Z" fill="#3a3d3f" />
			<path d="M1004.85,94.65a30.35,30.35,0,0,0-3.15-.28c-1.12,0-2,.3-2,1.36,0,.85.44,1.08,2.34,1.41,2.26.38,3.1.83,3.1,2.57,0,2.11-1.33,2.81-3.49,2.81a25.65,25.65,0,0,1-3.17-.34l.07-1.17a29.5,29.5,0,0,0,3,.31c1.48,0,2.27-.33,2.27-1.55,0-.94-.47-1.17-2.43-1.48s-3-.7-3-2.5c0-2,1.61-2.63,3.24-2.63a23.19,23.19,0,0,1,3.26.34Z" fill="#3a3d3f" />
			<path d="M1011.2,93.34h1.33V94a6.12,6.12,0,0,1,2.7-.83c2.27,0,3.26,1.39,3.26,4.57,0,3.53-1.15,4.79-3.92,4.79a11,11,0,0,1-2-.2v4h-1.35Zm1.35,1.75v6.06a12.8,12.8,0,0,0,2,.2c2,0,2.62-1,2.62-3.62s-.77-3.36-2.08-3.36A5.87,5.87,0,0,0,1012.55,95.09Z" fill="#3a3d3f" />
			<path d="M1020.69,93.34H1022v1.22a10.18,10.18,0,0,1,3.29-1.42v1.37a13,13,0,0,0-3.27,1.22v6.61h-1.35Z" fill="#3a3d3f" />
			<path d="M1033.56,101.17l0,1.06a31.12,31.12,0,0,1-3.51.29c-2.68,0-3.56-1.56-3.56-4.62,0-3.43,1.47-4.74,3.76-4.74s3.62,1.26,3.62,4.21l-.07,1h-5.94c0,1.93.59,2.93,2.35,2.93C1031.59,101.33,1033.56,101.17,1033.56,101.17Zm-1-3.85c0-2.23-.68-3-2.27-3s-2.39.85-2.41,3Z" fill="#3a3d3f" />
			<path d="M1042.92,102.34h-1.33v-.61a6.49,6.49,0,0,1-2.74.79c-1.77,0-3.24-.72-3.24-4.61,0-3.17,1-4.75,3.76-4.75a16,16,0,0,1,2.22.23v-4h1.33Zm-1.33-1.69v-6.1a14.43,14.43,0,0,0-2.15-.22c-1.89,0-2.45,1.24-2.45,3.58,0,2.92,1,3.41,2,3.41A6.54,6.54,0,0,0,1041.59,100.65Z" fill="#3a3d3f" />
			<path d="M1045.52,89.74h1.36v1.57h-1.36Zm0,3.6h1.36v9h-1.36Z" fill="#3a3d3f" />
			<path d="M1055.28,93.43l0,1.1s-1.44-.16-2.13-.16c-2.07,0-2.62.9-2.62,3.31,0,2.66.41,3.64,2.64,3.64.69,0,2.13-.17,2.13-.17l0,1.12a24,24,0,0,1-2.5.25c-2.86,0-3.71-1.31-3.71-4.84,0-3.26,1.06-4.52,3.74-4.52A20.89,20.89,0,0,1,1055.28,93.43Z" fill="#3a3d3f" />
			<path d="M1059.12,94.51v4.3c0,2,.12,2.52,1.29,2.52.51,0,1.6-.1,1.6-.1l.09,1.11a15.44,15.44,0,0,1-1.83.2c-1.86,0-2.49-.7-2.49-3.3V94.51h-1.27V93.34h1.27V90.58h1.34v2.76H1062v1.17Z" fill="#3a3d3f" />
			<path d="M1070.28,101.17l0,1.06a31.12,31.12,0,0,1-3.51.29c-2.68,0-3.56-1.56-3.56-4.62,0-3.43,1.47-4.74,3.76-4.74s3.62,1.26,3.62,4.21l-.07,1h-5.94c0,1.93.59,2.93,2.35,2.93C1068.31,101.33,1070.28,101.17,1070.28,101.17Zm-1-3.85c0-2.23-.68-3-2.27-3s-2.39.85-2.41,3Z" fill="#3a3d3f" />
			<path d="M1079.64,102.34h-1.34v-.61a6.42,6.42,0,0,1-2.73.79c-1.77,0-3.24-.72-3.24-4.61,0-3.17,1-4.75,3.76-4.75a15.61,15.61,0,0,1,2.21.23v-4h1.34Zm-1.34-1.69v-6.1a14.12,14.12,0,0,0-2.14-.22c-1.89,0-2.45,1.24-2.45,3.58,0,2.92,1,3.41,2,3.41A6.47,6.47,0,0,0,1078.3,100.65Z" fill="#3a3d3f" />
			<path d="M1088,94.51v4.3c0,2,.12,2.52,1.29,2.52.51,0,1.6-.1,1.6-.1l.09,1.11a15.44,15.44,0,0,1-1.83.2c-1.86,0-2.49-.7-2.49-3.3V94.51h-1.28V93.34h1.28V90.58H1088v2.76h2.86v1.17Z" fill="#3a3d3f" />
			<path d="M1099.83,97.73c0,3.28-.81,4.79-3.85,4.79s-3.85-1.51-3.85-4.79c0-3.09,1-4.57,3.85-4.57S1099.83,94.64,1099.83,97.73Zm-1.38,0c0-2.5-.54-3.4-2.47-3.4s-2.47.9-2.47,3.4.35,3.62,2.47,3.62S1098.45,100.29,1098.45,97.73Z" fill="#3a3d3f" />
			<path d="M1113.24,97.7c0,3.58-1,4.82-4.25,4.82-1.08,0-3-.2-3-.2V89.41h1.33v4.38a7.44,7.44,0,0,1,2.65-.63C1112.42,93.16,1113.24,94.46,1113.24,97.7Zm-1.36,0c0-2.33-.47-3.33-2.06-3.33a7.57,7.57,0,0,0-2.5.52v6.34s1.17.09,1.66.09C1111.44,101.32,1111.88,100.22,1111.88,97.7Z" fill="#3a3d3f" />
			<path d="M1122.1,101.17l0,1.06a31.12,31.12,0,0,1-3.51.29c-2.68,0-3.56-1.56-3.56-4.62,0-3.43,1.48-4.74,3.76-4.74s3.62,1.26,3.62,4.21l-.07,1h-5.94c0,1.93.59,2.93,2.36,2.93C1120.14,101.33,1122.1,101.17,1122.1,101.17Zm-1-3.85c0-2.23-.68-3-2.27-3s-2.39.85-2.41,3Z" fill="#3a3d3f" />
			<path d="M660.17,130.34V117.41h1.34v4.43a7.72,7.72,0,0,1,2.78-.68c2.47,0,3,1.22,3,4.43v4.75H666v-4.71c0-2.38-.27-3.26-1.93-3.26a7.48,7.48,0,0,0-2.54.54v7.43Z" fill="#3a3d3f" />
			<path d="M669.83,117.74h1.35v1.57h-1.35Zm0,3.6h1.35v9h-1.35Z" fill="#3a3d3f" />
			<path d="M673.38,131.85c0-1,.48-1.53,1.42-2.23a1.43,1.43,0,0,1-.51-1.24,5.78,5.78,0,0,1,.62-1.42c-.76-.34-1.43-1.06-1.43-2.72,0-2.22,1.37-3.08,3.37-3.08a9.43,9.43,0,0,1,1.87.23l2.67-.07v1.15l-1.71,0a2.34,2.34,0,0,1,.59,1.8c0,2.34-1.17,3-3.47,3-.18,0-.69,0-.88-.07a5.21,5.21,0,0,0-.33,1c0,.72.14.82,2.18.82,2.56,0,3.47.51,3.47,2.65s-1.45,2.86-4,2.86C674.4,134.57,673.38,133.94,673.38,131.85Zm2.34-1.69c-.76.56-1,.88-1,1.59,0,1.24.52,1.69,2.55,1.69,1.81,0,2.62-.49,2.62-1.68,0-1.36-.58-1.51-2.22-1.51C677,130.25,675.72,130.16,675.72,130.16Zm3.2-5.92c0-1.42-.56-2-2.07-2s-2,.56-2,2,.62,2,2,2S678.92,125.66,678.92,124.24Z" fill="#3a3d3f" />
			<path d="M683,130.34V117.41h1.35v4.43a7.65,7.65,0,0,1,2.78-.68c2.46,0,3,1.22,3,4.43v4.75h-1.35v-4.71c0-2.38-.27-3.26-1.93-3.26a7.41,7.41,0,0,0-2.54.54v7.43Z" fill="#3a3d3f" />
			<path d="M692.8,117.41h1.35v12.93H692.8Z" fill="#3a3d3f" />
			<path d="M697.35,121.34l2.25,7.83h.6l2.27-7.83h1.35l-3.75,13h-1.35l1.17-4h-1.33l-2.56-9Z" fill="#3a3d3f" />
			<path d="M716.47,121.34v9h-1.35v-.63a6.08,6.08,0,0,1-2.67.81c-2.52,0-3-1.17-3-4.48v-4.7h1.35V126c0,2.49.22,3.3,1.89,3.3a5.47,5.47,0,0,0,2.47-.67v-7.31Z" fill="#3a3d3f" />
			<path d="M725,122.65a30.35,30.35,0,0,0-3.15-.28c-1.12,0-2,.3-2,1.36,0,.85.44,1.08,2.34,1.41,2.25.38,3.1.83,3.1,2.57,0,2.11-1.33,2.81-3.49,2.81a25.65,25.65,0,0,1-3.17-.34l.07-1.17a29.5,29.5,0,0,0,3,.31c1.48,0,2.27-.33,2.27-1.55,0-.94-.47-1.17-2.43-1.48s-3-.7-3-2.5c0-2,1.61-2.63,3.24-2.63a23.19,23.19,0,0,1,3.26.34Z" fill="#3a3d3f" />
			<path d="M734.07,129.17l0,1.06a31.12,31.12,0,0,1-3.51.29c-2.68,0-3.57-1.56-3.57-4.62,0-3.43,1.48-4.74,3.77-4.74s3.62,1.26,3.62,4.21l-.08,1H728.4c0,1.93.6,2.93,2.36,2.93C732.11,129.33,734.07,129.17,734.07,129.17Zm-1-3.85c0-2.23-.68-3-2.26-3s-2.4.85-2.42,3Z" fill="#3a3d3f" />
			<path d="M738.25,130.34H736.9v-7.83h-1.14v-1.17h1.14v-.81c0-2.59.66-3.3,2.43-3.3.61,0,1.82.13,1.82.13l0,1.12s-1,0-1.55,0c-1,0-1.33.43-1.33,2.11v.79h2.61v1.17h-2.61Z" fill="#3a3d3f" />
			<path d="M749.45,121.34v9h-1.36v-.63a6.07,6.07,0,0,1-2.66.81c-2.52,0-3-1.17-3-4.48v-4.7h1.35V126c0,2.49.21,3.3,1.89,3.3a5.4,5.4,0,0,0,2.46-.67v-7.31Z" fill="#3a3d3f" />
			<path d="M752.14,117.41h1.35v12.93h-1.35Z" fill="#3a3d3f" />
			<path d="M756.34,128.42h1.49l-1.2,4.14h-1.12Z" fill="#3a3d3f" />
			<path d="M766,122.51v4.3c0,2,.12,2.52,1.29,2.52.51,0,1.61-.1,1.61-.1l.09,1.11a15.71,15.71,0,0,1-1.84.2c-1.86,0-2.49-.7-2.49-3.3v-4.73h-1.27v-1.17h1.27v-2.76H766v2.76h2.86v1.17Z" fill="#3a3d3f" />
			<path d="M770.49,130.34V117.41h1.35v4.43a7.64,7.64,0,0,1,2.77-.68c2.47,0,3,1.22,3,4.43v4.75H776.3v-4.71c0-2.38-.27-3.26-1.93-3.26a7.39,7.39,0,0,0-2.53.54v7.43Z" fill="#3a3d3f" />
			<path d="M786.8,129.17l0,1.06a31.12,31.12,0,0,1-3.51.29c-2.68,0-3.56-1.56-3.56-4.62,0-3.43,1.47-4.74,3.76-4.74s3.62,1.26,3.62,4.21l-.07,1h-6c0,1.93.6,2.93,2.36,2.93C784.83,129.33,786.8,129.17,786.8,129.17Zm-1-3.85c0-2.23-.69-3-2.27-3s-2.4.85-2.41,3Z" fill="#3a3d3f" />
			<path d="M789.24,121.34h1.33v1.22a10.17,10.17,0,0,1,3.3-1.42v1.37a13.15,13.15,0,0,0-3.28,1.22v6.61h-1.35Z" fill="#3a3d3f" />
			<path d="M802.11,129.17l0,1.06a31.12,31.12,0,0,1-3.51.29c-2.69,0-3.57-1.56-3.57-4.62,0-3.43,1.48-4.74,3.77-4.74s3.61,1.26,3.61,4.21l-.07,1h-5.94c0,1.93.6,2.93,2.36,2.93C800.15,129.33,802.11,129.17,802.11,129.17Zm-1-3.85c0-2.23-.68-3-2.26-3s-2.4.85-2.42,3Z" fill="#3a3d3f" />
			<path d="M808.52,117.74h1.35v1.57h-1.35Zm0,3.6h1.35v9h-1.35Z" fill="#3a3d3f" />
			<path d="M818.44,122.65a30.35,30.35,0,0,0-3.15-.28c-1.12,0-2,.3-2,1.36,0,.85.44,1.08,2.34,1.41,2.26.38,3.1.83,3.1,2.57,0,2.11-1.33,2.81-3.49,2.81a25.65,25.65,0,0,1-3.17-.34l.07-1.17a29.5,29.5,0,0,0,3,.31c1.48,0,2.27-.33,2.27-1.55,0-.94-.47-1.17-2.43-1.48s-3-.7-3-2.5c0-2,1.61-2.63,3.24-2.63a23.19,23.19,0,0,1,3.26.34Z" fill="#3a3d3f" />
			<path d="M830.77,122.65a30.35,30.35,0,0,0-3.15-.28c-1.12,0-2,.3-2,1.36,0,.85.44,1.08,2.34,1.41,2.26.38,3.1.83,3.1,2.57,0,2.11-1.33,2.81-3.49,2.81a25.65,25.65,0,0,1-3.17-.34l.07-1.17a29.5,29.5,0,0,0,3,.31c1.48,0,2.27-.33,2.27-1.55,0-.94-.47-1.17-2.43-1.48s-3-.7-3-2.5c0-2,1.61-2.63,3.24-2.63a23.19,23.19,0,0,1,3.26.34Z" fill="#3a3d3f" />
			<path d="M835,122.51v4.3c0,2,.13,2.52,1.3,2.52.5,0,1.6-.1,1.6-.1l.09,1.11a15.71,15.71,0,0,1-1.84.2c-1.85,0-2.48-.7-2.48-3.3v-4.73h-1.28v-1.17h1.28v-2.76H835v2.76h2.86v1.17Z" fill="#3a3d3f" />
			<path d="M839.48,117.74h1.35v1.57h-1.35Zm0,3.6h1.35v9h-1.35Z" fill="#3a3d3f" />
			<path d="M843.53,117.41h1.35v12.93h-1.35Z" fill="#3a3d3f" />
			<path d="M847.69,117.41H849v12.93h-1.35Z" fill="#3a3d3f" />
			<path d="M857.5,122.51v4.3c0,2,.12,2.52,1.29,2.52.51,0,1.61-.1,1.61-.1l.09,1.11a15.71,15.71,0,0,1-1.84.2c-1.85,0-2.48-.7-2.48-3.3v-4.73h-1.28v-1.17h1.28v-2.76h1.33v2.76h2.86v1.17Z" fill="#3a3d3f" />
			<path d="M862,117.74h1.36v1.57H862Zm0,3.6h1.36v9H862Z" fill="#3a3d3f" />
			<path d="M866,130.34v-9h1.33V122a6,6,0,0,1,2.63-.81,2.53,2.53,0,0,1,2.34.92,7.46,7.46,0,0,1,3.2-.92c2.45,0,3,1.17,3,4.43v4.75h-1.35v-4.71c0-2.38-.27-3.26-1.89-3.26a6,6,0,0,0-2.54.66,10.4,10.4,0,0,1,.23,2.63v4.68h-1.35V125.7c0-2.49-.25-3.33-1.89-3.33a5.39,5.39,0,0,0-2.41.66v7.31Z" fill="#3a3d3f" />
			<path d="M887.65,129.17l0,1.06a31.38,31.38,0,0,1-3.51.29c-2.69,0-3.57-1.56-3.57-4.62,0-3.43,1.48-4.74,3.76-4.74s3.62,1.26,3.62,4.21l-.07,1H882c0,1.93.59,2.93,2.36,2.93C885.69,129.33,887.65,129.17,887.65,129.17Zm-1-3.85c0-2.23-.68-3-2.27-3s-2.39.85-2.41,3Z" fill="#3a3d3f" />
			<path d="M895.86,122.51v4.3c0,2,.12,2.52,1.29,2.52.51,0,1.61-.1,1.61-.1l.08,1.11a15.44,15.44,0,0,1-1.83.2c-1.86,0-2.49-.7-2.49-3.3v-4.73h-1.27v-1.17h1.27v-2.76h1.34v2.76h2.86v1.17Z" fill="#3a3d3f" />
			<path d="M907.68,125.73c0,3.28-.81,4.79-3.85,4.79S900,129,900,125.73c0-3.09,1-4.57,3.85-4.57S907.68,122.64,907.68,125.73Zm-1.38,0c0-2.5-.54-3.4-2.47-3.4s-2.47.9-2.47,3.4.35,3.62,2.47,3.62S906.3,128.29,906.3,125.73Z" fill="#3a3d3f" />
			<path d="M920.81,121.34v9h-1.35v-.63a6.14,6.14,0,0,1-2.67.81c-2.52,0-3-1.17-3-4.48v-4.7h1.35V126c0,2.49.21,3.3,1.89,3.3a5.47,5.47,0,0,0,2.47-.67v-7.31Z" fill="#3a3d3f" />
			<path d="M923.4,130.34v-9h1.33V122a6.85,6.85,0,0,1,2.79-.81c2.48,0,3,1.22,3,4.43v4.75h-1.33v-4.71c0-2.38-.27-3.26-2-3.26a6.18,6.18,0,0,0-2.53.66v7.31Z" fill="#3a3d3f" />
			<path d="M940,130.34h-1.34v-.61a6.42,6.42,0,0,1-2.73.79c-1.77,0-3.24-.72-3.24-4.61,0-3.17,1-4.75,3.76-4.75a15.79,15.79,0,0,1,2.21.23v-4H940Zm-1.34-1.69v-6.1a14.27,14.27,0,0,0-2.14-.22c-1.89,0-2.45,1.24-2.45,3.58,0,2.92,1,3.41,2,3.41A6.47,6.47,0,0,0,938.64,128.65Z" fill="#3a3d3f" />
			<path d="M949.23,129.17l0,1.06a31.12,31.12,0,0,1-3.51.29c-2.68,0-3.56-1.56-3.56-4.62,0-3.43,1.47-4.74,3.76-4.74s3.62,1.26,3.62,4.21l-.07,1h-6c0,1.93.6,2.93,2.36,2.93C947.26,129.33,949.23,129.17,949.23,129.17Zm-1-3.85c0-2.23-.69-3-2.27-3s-2.4.85-2.41,3Z" fill="#3a3d3f" />
			<path d="M951.67,121.34H953v1.22a10.06,10.06,0,0,1,3.29-1.42v1.37a13.15,13.15,0,0,0-3.28,1.22v6.61h-1.35Z" fill="#3a3d3f" />
			<path d="M963.88,122.65a30.35,30.35,0,0,0-3.15-.28c-1.12,0-2,.3-2,1.36,0,.85.44,1.08,2.34,1.41,2.26.38,3.1.83,3.1,2.57,0,2.11-1.33,2.81-3.49,2.81a25.65,25.65,0,0,1-3.17-.34l.07-1.17a29.5,29.5,0,0,0,3,.31c1.48,0,2.27-.33,2.27-1.55,0-.94-.47-1.17-2.43-1.48s-3-.7-3-2.5c0-2,1.61-2.63,3.24-2.63a23,23,0,0,1,3.26.34Z" fill="#3a3d3f" />
			<path d="M968.07,122.51v4.3c0,2,.13,2.52,1.3,2.52.5,0,1.6-.1,1.6-.1l.09,1.11a15.71,15.71,0,0,1-1.84.2c-1.85,0-2.48-.7-2.48-3.3v-4.73h-1.28v-1.17h1.28v-2.76h1.33v2.76h2.86v1.17Z" fill="#3a3d3f" />
			<path d="M978.94,128.67c0,.52.47.72,1,.79l-.06,1.06a2.75,2.75,0,0,1-2.14-.72,9.2,9.2,0,0,1-3.24.72c-1.64,0-2.54-.93-2.54-2.75s.9-2.49,2.76-2.67l2.82-.27v-.77c0-1.26-.54-1.71-1.62-1.71-1.26,0-3.4.23-3.4.23l-.05-1a21.6,21.6,0,0,1,3.53-.4c2,0,2.89.94,2.89,2.9Zm-4-2.56c-1.1.11-1.53.63-1.53,1.62s.45,1.66,1.37,1.66a9.47,9.47,0,0,0,2.82-.56v-3Z" fill="#3a3d3f" />
			<path d="M981.61,130.34v-9h1.33V122a6.85,6.85,0,0,1,2.79-.81c2.48,0,3,1.22,3,4.43v4.75h-1.33v-4.71c0-2.38-.27-3.26-1.94-3.26A6.19,6.19,0,0,0,983,123v7.31Z" fill="#3a3d3f" />
			<path d="M998.19,130.34h-1.34v-.61a6.42,6.42,0,0,1-2.73.79c-1.77,0-3.24-.72-3.24-4.61,0-3.17,1-4.75,3.76-4.75a15.79,15.79,0,0,1,2.21.23v-4h1.34Zm-1.34-1.69v-6.1a14.12,14.12,0,0,0-2.14-.22c-1.89,0-2.45,1.24-2.45,3.58,0,2.92,1,3.41,2,3.41A6.47,6.47,0,0,0,996.85,128.65Z" fill="#3a3d3f" />
			<path d="M1005.37,121.34l1.81,7.83h.29l2.15-7.65h1.4l2.14,7.65h.31l1.8-7.83h1.35l-2.14,9h-2.25l-1.91-7-1.91,7h-2.25l-2.14-9Z" fill="#3a3d3f" />
			<path d="M1018.47,130.34V117.41h1.35v4.43a7.64,7.64,0,0,1,2.77-.68c2.47,0,3.05,1.22,3.05,4.43v4.75h-1.35v-4.71c0-2.38-.28-3.26-1.93-3.26a7.41,7.41,0,0,0-2.54.54v7.43Z" fill="#3a3d3f" />
			<path d="M1034.78,129.17l0,1.06a31.4,31.4,0,0,1-3.52.29c-2.68,0-3.56-1.56-3.56-4.62,0-3.43,1.48-4.74,3.76-4.74s3.62,1.26,3.62,4.21l-.07,1h-5.94c0,1.93.59,2.93,2.36,2.93C1032.82,129.33,1034.78,129.17,1034.78,129.17Zm-1-3.85c0-2.23-.68-3-2.27-3s-2.39.85-2.41,3Z" fill="#3a3d3f" />
			<path d="M1039,122.51v4.3c0,2,.12,2.52,1.29,2.52.51,0,1.61-.1,1.61-.1l.08,1.11a15.44,15.44,0,0,1-1.83.2c-1.86,0-2.49-.7-2.49-3.3v-4.73h-1.27v-1.17h1.27v-2.76H1039v2.76h2.86v1.17Z" fill="#3a3d3f" />
			<path d="M1043.54,130.34V117.41h1.35v4.43a7.65,7.65,0,0,1,2.78-.68c2.46,0,3,1.22,3,4.43v4.75h-1.35v-4.71c0-2.38-.27-3.26-1.93-3.26a7.41,7.41,0,0,0-2.54.54v7.43Z" fill="#3a3d3f" />
			<path d="M1059.85,129.17l0,1.06a31.12,31.12,0,0,1-3.51.29c-2.68,0-3.57-1.56-3.57-4.62,0-3.43,1.48-4.74,3.77-4.74s3.62,1.26,3.62,4.21l-.08,1h-5.94c0,1.93.6,2.93,2.36,2.93C1057.89,129.33,1059.85,129.17,1059.85,129.17Zm-1-3.85c0-2.23-.68-3-2.26-3s-2.4.85-2.42,3Z" fill="#3a3d3f" />
			<path d="M1062.3,121.34h1.33v1.22a10.17,10.17,0,0,1,3.3-1.42v1.37a13,13,0,0,0-3.28,1.22v6.61h-1.35Z" fill="#3a3d3f" />
			<path d="M1073.1,121.34l1.82,7.83h.29l2.14-7.65h1.4l2.15,7.65h.3l1.8-7.83h1.35l-2.14,9H1080l-1.91-7-1.91,7h-2.25l-2.14-9Z" fill="#3a3d3f" />
			<path d="M1092.85,129.17l0,1.06a31.12,31.12,0,0,1-3.51.29c-2.68,0-3.56-1.56-3.56-4.62,0-3.43,1.47-4.74,3.76-4.74s3.62,1.26,3.62,4.21l-.07,1h-5.94c0,1.93.59,2.93,2.35,2.93C1090.88,129.33,1092.85,129.17,1092.85,129.17Zm-1-3.85c0-2.23-.69-3-2.27-3s-2.39.85-2.41,3Z" fill="#3a3d3f" />
			<path d="M1099.25,130.34V117.41h1.35v4.43a7.65,7.65,0,0,1,2.78-.68c2.46,0,3,1.22,3,4.43v4.75h-1.35v-4.71c0-2.38-.27-3.26-1.93-3.26a7.41,7.41,0,0,0-2.54.54v7.43Z" fill="#3a3d3f" />
			<path d="M1115.27,128.67c0,.52.47.72,1,.79l-.06,1.06a2.75,2.75,0,0,1-2.14-.72,9.2,9.2,0,0,1-3.24.72c-1.64,0-2.54-.93-2.54-2.75s.9-2.49,2.76-2.67l2.82-.27v-.77c0-1.26-.54-1.71-1.62-1.71-1.26,0-3.4.23-3.4.23l-.05-1a21.6,21.6,0,0,1,3.53-.4c2,0,2.89.94,2.89,2.9Zm-4-2.56c-1.1.11-1.53.63-1.53,1.62s.45,1.66,1.37,1.66a9.47,9.47,0,0,0,2.82-.56v-3Z" fill="#3a3d3f" />
			<path d="M1118.53,121.34l2.11,7.83h.66l2.18-7.83h1.39l-2.54,9h-2.7l-2.54-9Z" fill="#3a3d3f" />
			<path d="M1133.24,129.17l0,1.06a31.12,31.12,0,0,1-3.51.29c-2.68,0-3.56-1.56-3.56-4.62,0-3.43,1.48-4.74,3.76-4.74s3.62,1.26,3.62,4.21l-.07,1h-5.94c0,1.93.59,2.93,2.36,2.93C1131.28,129.33,1133.24,129.17,1133.24,129.17Zm-1-3.85c0-2.23-.68-3-2.27-3s-2.39.85-2.41,3Z" fill="#3a3d3f" />
			<path d="M1141.44,122.51v4.3c0,2,.13,2.52,1.3,2.52.51,0,1.6-.1,1.6-.1l.09,1.11a15.44,15.44,0,0,1-1.83.2c-1.86,0-2.49-.7-2.49-3.3v-4.73h-1.28v-1.17h1.28v-2.76h1.33v2.76h2.87v1.17Z" fill="#3a3d3f" />
			<path d="M1153.27,125.73c0,3.28-.81,4.79-3.85,4.79s-3.85-1.51-3.85-4.79c0-3.09,1-4.57,3.85-4.57S1153.27,122.64,1153.27,125.73Zm-1.38,0c0-2.5-.54-3.4-2.47-3.4s-2.47.9-2.47,3.4.35,3.62,2.47,3.62S1151.89,128.29,1151.89,125.73Z" fill="#3a3d3f" />
			<path d="M666.14,150.65a30.35,30.35,0,0,0-3.15-.28c-1.11,0-2,.3-2,1.36,0,.85.43,1.08,2.34,1.41,2.25.38,3.1.83,3.1,2.57,0,2.11-1.34,2.81-3.5,2.81a25.65,25.65,0,0,1-3.17-.34l.08-1.17a29.5,29.5,0,0,0,3,.31c1.47,0,2.27-.33,2.27-1.55,0-.94-.47-1.17-2.43-1.48s-3-.7-3-2.5c0-2,1.6-2.63,3.24-2.63a23.19,23.19,0,0,1,3.26.34Z" fill="#3a3d3f" />
			<path d="M675.18,157.17l0,1.06a31.4,31.4,0,0,1-3.52.29c-2.68,0-3.56-1.56-3.56-4.62,0-3.43,1.48-4.74,3.76-4.74s3.62,1.26,3.62,4.21l-.07,1h-5.94c0,1.93.59,2.93,2.36,2.93C673.22,157.33,675.18,157.17,675.18,157.17Zm-1-3.85c0-2.23-.68-3-2.27-3s-2.39.85-2.41,3Z" fill="#3a3d3f" />
			<path d="M677.73,145.41h1.35v12.93h-1.35Z" fill="#3a3d3f" />
			<path d="M688.43,157.17l0,1.06a31.12,31.12,0,0,1-3.51.29c-2.68,0-3.56-1.56-3.56-4.62,0-3.43,1.47-4.74,3.76-4.74s3.62,1.26,3.62,4.21l-.07,1h-5.94c0,1.93.59,2.93,2.35,2.93C686.46,157.33,688.43,157.17,688.43,157.17Zm-1-3.85c0-2.23-.69-3-2.27-3s-2.39.85-2.41,3Z" fill="#3a3d3f" />
			<path d="M696.69,149.43l-.06,1.1s-1.44-.16-2.12-.16c-2.07,0-2.63.9-2.63,3.31,0,2.66.42,3.64,2.65,3.64.68,0,2.12-.17,2.12-.17l.06,1.12a24.24,24.24,0,0,1-2.51.25c-2.86,0-3.71-1.31-3.71-4.84,0-3.26,1.07-4.52,3.75-4.52A20.89,20.89,0,0,1,696.69,149.43Z" fill="#3a3d3f" />
			<path d="M700.52,150.51v4.3c0,2,.13,2.52,1.3,2.52.5,0,1.6-.1,1.6-.1l.09,1.11a15.71,15.71,0,0,1-1.84.2c-1.85,0-2.48-.7-2.48-3.3v-4.73h-1.28v-1.17h1.28v-2.76h1.33v2.76h2.86v1.17Z" fill="#3a3d3f" />
			<path d="M710.8,150.51v4.3c0,2,.13,2.52,1.3,2.52.5,0,1.6-.1,1.6-.1l.09,1.11a15.71,15.71,0,0,1-1.84.2c-1.85,0-2.48-.7-2.48-3.3v-4.73h-1.28v-1.17h1.28v-2.76h1.33v2.76h2.86v1.17Z" fill="#3a3d3f" />
			<path d="M715.32,158.34V145.41h1.35v4.43a7.64,7.64,0,0,1,2.77-.68c2.47,0,3,1.22,3,4.43v4.75h-1.35v-4.71c0-2.38-.27-3.26-1.92-3.26a7.41,7.41,0,0,0-2.54.54v7.43Z" fill="#3a3d3f" />
			<path d="M725,145.74h1.35v1.57H725Zm0,3.6h1.35v9H725Z" fill="#3a3d3f" />
			<path d="M734.9,150.65a30.35,30.35,0,0,0-3.15-.28c-1.12,0-2,.3-2,1.36,0,.85.43,1.08,2.34,1.41,2.25.38,3.1.83,3.1,2.57,0,2.11-1.34,2.81-3.5,2.81a25.65,25.65,0,0,1-3.17-.34l.08-1.17a29.5,29.5,0,0,0,3,.31c1.47,0,2.27-.33,2.27-1.55,0-.94-.47-1.17-2.43-1.48s-3-.7-3-2.5c0-2,1.6-2.63,3.24-2.63a23.19,23.19,0,0,1,3.26.34Z" fill="#3a3d3f" />
			<path d="M748.56,153.73c0,3.28-.81,4.79-3.85,4.79s-3.85-1.51-3.85-4.79c0-3.09,1-4.57,3.85-4.57S748.56,150.64,748.56,153.73Zm-1.38,0c0-2.5-.54-3.4-2.47-3.4s-2.46.9-2.46,3.4.34,3.62,2.46,3.62S747.18,156.29,747.18,153.73Z" fill="#3a3d3f" />
			<path d="M750.76,149.34h1.33V150a6.12,6.12,0,0,1,2.7-.83c2.27,0,3.26,1.39,3.26,4.57,0,3.53-1.15,4.79-3.92,4.79a11,11,0,0,1-2-.2v4h-1.35Zm1.35,1.75v6.06a12.78,12.78,0,0,0,1.94.2c2,0,2.63-1,2.63-3.62s-.77-3.36-2.09-3.36A5.86,5.86,0,0,0,752.11,151.09Z" fill="#3a3d3f" />
			<path d="M762.05,150.51v4.3c0,2,.12,2.52,1.29,2.52.51,0,1.6-.1,1.6-.1l.09,1.11a15.44,15.44,0,0,1-1.83.2c-1.86,0-2.49-.7-2.49-3.3v-4.73h-1.28v-1.17h1.28v-2.76h1.34v2.76h2.86v1.17Z" fill="#3a3d3f" />
			<path d="M766.56,145.74h1.35v1.57h-1.35Zm0,3.6h1.35v9h-1.35Z" fill="#3a3d3f" />
			<path d="M777.81,153.73c0,3.28-.81,4.79-3.85,4.79s-3.85-1.51-3.85-4.79c0-3.09,1-4.57,3.85-4.57S777.81,150.64,777.81,153.73Zm-1.38,0c0-2.5-.54-3.4-2.47-3.4s-2.46.9-2.46,3.4.34,3.62,2.46,3.62S776.43,156.29,776.43,153.73Z" fill="#3a3d3f" />
			<path d="M780,158.34v-9h1.33V150a6.85,6.85,0,0,1,2.79-.81c2.49,0,3,1.22,3,4.43v4.75h-1.34v-4.71c0-2.38-.27-3.26-1.94-3.26a6.19,6.19,0,0,0-2.54.66v7.31Z" fill="#3a3d3f" />
			<path d="M789.58,156.29h1.48v2.05h-1.48Z" fill="#3a3d3f" />
			<rect x="506.86" y="65.94" width="7.17" height="27.28" transform="translate(1020.89 159.16) rotate(-180)" fill="#2277d6" />
			<rect x="496.86" y="75.02" width="7.17" height="18.2" transform="translate(1000.89 168.24) rotate(-180)" fill="#2277d6" />
			<rect x="486.27" y="84.12" width="7.17" height="9.1" transform="translate(979.71 177.34) rotate(-180)" fill="#2277d6" />
		</g>
		<g id="Layer_2-2" data-name="Layer 2">
			<path d="M454,71.73h-5.73V68.87A2.86,2.86,0,0,0,445.37,66h-5.72a2.86,2.86,0,0,0-2.87,2.86v2.86h-5.73a2.85,2.85,0,0,0-2.85,2.87V90.36a2.85,2.85,0,0,0,2.86,2.86h22.53A3.25,3.25,0,0,0,456.83,90V74.6A2.87,2.87,0,0,0,454,71.73Zm-8.6,0h-5.72V68.87h5.72Z" fill="#2277d6" />
			<path d="M663.44,24.42,665.8,36.9h.58l2.82-12.36H671l2.82,12.36h.58l2.36-12.48h1.58l-2.8,13.84h-2.82L670.1,26.44l-2.62,11.82h-2.82l-2.82-13.84Z" />
			<path d="M689.24,32h-7v6.26h-1.54V24.42h1.54v6.2h7v-6.2h1.52V38.26h-1.52Z" />
			<path d="M698.62,38.26h-1.54V32.44l-4.42-8h1.74l3.44,6.48,3.44-6.48H703l-4.4,8Z" />
			<path d="M709.31,24.42h1.54V38.26h-1.54Z" />
			<path d="M722,25.9s-2.78-.34-3.94-.34c-2,0-3,.7-3,2.26,0,1.8,1,2.1,3.39,2.64,2.76.62,4,1.3,4,3.72,0,3.06-1.68,4.26-4.43,4.26a36.65,36.65,0,0,1-4.38-.44l.16-1.28s2.72.36,4.14.36c2,0,3-.86,3-2.78,0-1.56-.82-2-3.09-2.44-2.86-.62-4.3-1.3-4.3-3.94s1.76-3.72,4.46-3.72a34.47,34.47,0,0,1,4.19.4Z" />
			<path d="M728,24.42h10V25.8h-4.22V38.26h-1.52V25.8H728Z" />
			<path d="M748.57,32h-7v6.26H740V24.42h1.54v6.2h7v-6.2h1.53V38.26h-1.53Z" />
			<path d="M753.49,24.42H755V38.26h-1.54Z" />
			<path d="M766.17,25.9s-2.78-.34-3.94-.34c-2,0-3,.7-3,2.26,0,1.8,1,2.1,3.38,2.64,2.76.62,4,1.3,4,3.72,0,3.06-1.68,4.26-4.42,4.26a36.39,36.39,0,0,1-4.38-.44l.16-1.28s2.72.36,4.14.36c2,0,3-.86,3-2.78,0-1.56-.82-2-3.08-2.44-2.86-.62-4.3-1.3-4.3-3.94s1.76-3.72,4.46-3.72a34.46,34.46,0,0,1,4.18.4Z" />
			<path d="M775.19,33v5.3h-1.54V24.42h5.12c2.9,0,4.42,1.28,4.42,4.2,0,2-.8,3.46-2.54,4l2.66,5.62h-1.7l-2.5-5.3Zm3.58-7.18h-3.58V31.6h3.6c2.08,0,2.82-1.24,2.82-3C781.61,26.72,780.71,25.78,778.77,25.78Z" />
			<path d="M786,24.42h8.42v1.36h-6.88v4.78h5.68V31.9h-5.68v5h6.88v1.36H786Z" />
			<path d="M805.39,38a20.83,20.83,0,0,1-3.82.42c-4.14,0-5.06-2.52-5.06-7.08s.9-7.16,5.06-7.16a20.32,20.32,0,0,1,3.82.44l-.06,1.3a24.64,24.64,0,0,0-3.6-.36c-3.08,0-3.62,1.84-3.62,5.78s.5,5.7,3.66,5.7a21.88,21.88,0,0,0,3.56-.36Z" />
			<path d="M807.35,31.4c0-4.56,1.18-7.18,5.46-7.18s5.48,2.58,5.48,7.18c0,4.76-1.18,7.06-5.48,7.06S807.35,36,807.35,31.4Zm9.34,0c0-3.74-.72-5.82-3.88-5.82s-3.88,2.06-3.88,5.82.68,5.7,3.88,5.7S816.69,35.3,816.69,31.4Z" />
			<path d="M821.11,24.42h2.78l3.92,11.7,3.92-11.7h2.78V38.26H833V26.06h-.28l-4,11.7H827l-4-11.7h-.28v12.2h-1.54Z" />
			<path d="M837.91,24.42h2.78l3.92,11.7,3.92-11.7h2.78V38.26h-1.54V26.06h-.28l-4,11.7h-1.72l-4-11.7h-.28v12.2h-1.54Z" />
			<path d="M854.71,24.42h8.42v1.36h-6.88v4.78h5.68V31.9h-5.68v5h6.88v1.36h-8.42Z" />
			<path d="M865.77,24.42h2.88L874,36.9h.42V24.42h1.52V38.26h-2.82l-5.38-12.48h-.38V38.26h-1.54Z" />
			<path d="M879.29,38.26V24.42h4.94c4,0,5.12,2.8,5.12,6.72s-1,7.12-5.12,7.12Zm4.94-12.48h-3.4V36.9h3.4c2.88,0,3.54-2.76,3.54-5.76S887.11,25.78,884.23,25.78Z" />
			<path d="M892.19,24.42h8.42v1.36h-6.88v4.78h5.68V31.9h-5.68v5h6.88v1.36h-8.42Z" />
			<path d="M903.25,38.26V24.42h4.94c4,0,5.12,2.8,5.12,6.72s-1,7.12-5.12,7.12Zm4.94-12.48h-3.4V36.9h3.4c2.88,0,3.54-2.76,3.54-5.76S911.07,25.78,908.19,25.78Z" />
			<path d="M920.71,31c-1.18,1-1.78,1.6-1.78,2.5v.7h-1.26a3.11,3.11,0,0,1-.26-1.22c0-1,.8-1.76,1.86-2.66,1.44-1.24,1.78-1.7,1.78-2.82,0-1.42-.86-2-2.66-2a18.55,18.55,0,0,0-3.1.46l-.1-1.22a15.14,15.14,0,0,1,3.34-.6c2.68,0,4,.88,4,3.2C922.57,29.14,922.27,29.74,920.71,31Zm-3.26,5h1.64v2.24h-1.64Z" />
			<path d="M375.3,75l3.81,5.22A4.06,4.06,0,0,0,382,81.36h23.87L402,76.1c-.61-.81-1.06-1.15-1.8-1.15Z" fill="#2277d6" />
			<path d="M406.5,83H380.92A4,4,0,0,1,378,81.75l-4.25-5.52a2.76,2.76,0,0,0-2-.73c-2.29,0-5.46,0-7.57.09a2.33,2.33,0,0,0-1.93,1.51l-1.78,5.51a1.27,1.27,0,0,0,0,.77l1,2.31a1.47,1.47,0,0,0,1.38,1H405a2.07,2.07,0,0,0,2-1.36l.77-2.24Z" fill="#2277d6" />
			<path d="M371.36,88.3a3.32,3.32,0,0,1-6.57,0" fill="#2277d6" />
			<path d="M402.79,88.3a3.32,3.32,0,0,1-6.57,0" fill="#2277d6" />
		</g>
	</g>
</svg>
