<svg xmlns="http://www.w3.org/2000/svg" xmlns:xlink="http://www.w3.org/1999/xlink" viewBox="0 0 566.31 517.94"><defs><clipPath id="clip-path"><rect x="89.35" y="152.93" width="12.42" height="72.92" fill="#76ce89"/></clipPath><clipPath id="clip-path-2"><rect x="106.75" y="154.96" width="12.42" height="70.88" fill="#76ce89"/></clipPath><clipPath id="clip-path-3"><rect x="124.14" y="158.01" width="12.41" height="67.84" fill="#76ce89"/></clipPath><clipPath id="clip-path-4"><rect x="141.53" y="158.35" width="12.41" height="67.5" fill="#76ce89"/></clipPath><clipPath id="clip-path-5"><rect x="158.91" y="158.36" width="12.4" height="67.48" fill="#76ce89"/></clipPath><clipPath id="clip-path-6"><rect x="176.29" y="158.35" width="12.4" height="67.5" fill="#76ce89"/></clipPath><clipPath id="clip-path-7"><rect x="193.66" y="161.77" width="12.4" height="64.07" fill="#76ce89"/></clipPath><clipPath id="clip-path-8"><rect x="211.04" y="164.04" width="12.38" height="61.8" fill="#76ce89"/></clipPath><clipPath id="clip-path-9"><rect x="228.39" y="164.04" width="12.38" height="61.8" fill="#76ce89"/></clipPath><clipPath id="clip-path-10"><rect x="245.75" y="166.31" width="12.38" height="59.54" fill="#76ce89"/></clipPath><clipPath id="clip-path-11"><rect x="263.1" y="167.45" width="12.38" height="58.39" fill="#76ce89"/></clipPath><clipPath id="clip-path-12"><rect x="280.46" y="169.71" width="12.37" height="56.13" fill="#76ce89"/></clipPath><clipPath id="clip-path-13"><rect x="297.81" y="172" width="12.36" height="53.85" fill="#76ce89"/></clipPath><clipPath id="clip-path-14"><rect x="315.14" y="192.44" width="12.35" height="33.4" fill="#ffda00"/></clipPath><clipPath id="clip-path-15"><rect x="332.47" y="199.26" width="12.34" height="26.58" fill="#ffda00"/></clipPath><clipPath id="clip-path-16"><rect x="349.79" y="206.08" width="12.33" height="19.76" fill="#ff4200"/></clipPath><clipPath id="clip-path-17"><rect x="367.09" y="172" width="12.33" height="53.85" fill="#76ce89"/></clipPath><clipPath id="clip-path-18"><rect x="384.39" y="175.88" width="12.32" height="49.97" fill="#76ce89"/></clipPath><clipPath id="clip-path-19"><rect x="401.68" y="178.36" width="12.32" height="47.49" fill="#76ce89"/></clipPath><clipPath id="clip-path-20"><rect x="418.97" y="178.36" width="12.3" height="47.49" fill="#76ce89"/></clipPath><clipPath id="clip-path-21"><rect x="470.72" y="178.36" width="11.86" height="47.49" fill="#76ce89"/></clipPath><clipPath id="clip-path-22"><rect x="436.23" y="178.36" width="12.29" height="47.49" fill="#76ce89"/></clipPath><clipPath id="clip-path-23"><rect x="453.49" y="178.36" width="12.26" height="47.49" fill="#76ce89"/></clipPath><clipPath id="clip-path-24"><rect x="71.95" y="148.8" width="12.43" height="77.04" fill="#76ce89"/></clipPath><clipPath id="clip-path-25"><rect x="54.53" y="145.7" width="12.44" height="80.14" fill="#76ce89"/></clipPath></defs><title>r_1_D_Screen</title><g id="Layer_2" data-name="Layer 2">

<g id="AGV3_Sel_Box"><rect width="566.31" height="517.94" fill="rgba(0,0,0,0)"/></g>

<g id="Layer_1-2" data-name="Layer 1"><path d="M39.61,372.11h1.53l2.16,6.43,2.15-6.43H47v7.61h-.85V373H46l-2.21,6.44h-1L40.61,373h-.15v6.71h-.85Z" fill="#4c4c4c"/><path d="M52.59,378.7c0,.32.29.44.64.48l0,.65a1.67,1.67,0,0,1-1.31-.44,5.62,5.62,0,0,1-2,.44c-1,0-1.55-.57-1.55-1.68s.55-1.52,1.68-1.63l1.73-.16v-.48c0-.77-.33-1-1-1s-2.08.14-2.08.14l0-.63a13.44,13.44,0,0,1,2.16-.24c1.24,0,1.77.57,1.77,1.77Zm-2.45-1.56c-.67.06-.94.38-.94,1s.28,1,.84,1a5.91,5.91,0,0,0,1.73-.34V377Z" fill="#4c4c4c"/><path d="M54.22,374.22H55V375a6.27,6.27,0,0,1,2-.87v.84a8.22,8.22,0,0,0-2,.74v4h-.82Z" fill="#4c4c4c"/><path d="M98.23,372.11h1.85l2.09,7.61h-.84l-.55-2H97.52l-.55,2h-.83ZM97.71,377h2.88l-1.15-4.16h-.57Z" fill="#4c4c4c"/><path d="M103.22,374.22H104v.4a3.69,3.69,0,0,1,1.65-.51c1.38,0,2,.85,2,2.8,0,2.15-.71,2.92-2.4,2.92a7.37,7.37,0,0,1-1.23-.12v2.46h-.83Zm.83,1.07V379a8.44,8.44,0,0,0,1.18.12c1.21,0,1.61-.63,1.61-2.21s-.47-2.06-1.28-2.06A3.57,3.57,0,0,0,104.05,375.29Z" fill="#4c4c4c"/><path d="M109,374.22h.81V375a6.25,6.25,0,0,1,2-.87v.84a8.2,8.2,0,0,0-2,.74v4H109Z" fill="#4c4c4c"/><path d="M153,378.68c0,1.65-.64,1.83-2.09,1.83v-.75c1,0,1.25-.07,1.25-1.2v-6.45H153Z" fill="#4c4c4c"/><path d="M158.9,374.22v5.5h-.82v-.38a3.77,3.77,0,0,1-1.63.49c-1.54,0-1.86-.71-1.86-2.74v-2.87h.83v2.86c0,1.52.13,2,1.15,2a3.36,3.36,0,0,0,1.51-.41v-4.47Z" fill="#4c4c4c"/><path d="M160.49,379.72v-5.5h.81v.39a4.15,4.15,0,0,1,1.71-.5c1.51,0,1.85.75,1.85,2.71v2.9h-.81v-2.88c0-1.45-.16-2-1.19-2a3.75,3.75,0,0,0-1.55.41v4.46Z" fill="#4c4c4c"/><path d="M206.53,378.68c0,1.65-.64,1.83-2.09,1.83v-.75c1,0,1.24-.07,1.24-1.2v-6.45h.84Z" fill="#4c4c4c"/><path d="M212.47,374.22v5.5h-.82v-.38a3.77,3.77,0,0,1-1.63.49c-1.54,0-1.86-.71-1.86-2.74v-2.87H209v2.86c0,1.52.14,2,1.16,2a3.36,3.36,0,0,0,1.51-.41v-4.47Z" fill="#4c4c4c"/><path d="M214.12,371.82H215v7.9h-.83Z" fill="#4c4c4c"/><path d="M256.8,372.11h1.85l2.09,7.61h-.84l-.55-2H256.1l-.55,2h-.84Zm-.52,4.89h2.88L258,372.84h-.57Z" fill="#4c4c4c"/><path d="M266.05,374.22v5.5h-.83v-.38a3.7,3.7,0,0,1-1.62.49c-1.54,0-1.86-.71-1.86-2.74v-2.87h.82v2.86c0,1.52.13,2,1.16,2a3.29,3.29,0,0,0,1.5-.41v-4.47Z" fill="#4c4c4c"/><path d="M267.39,380.65c0-.64.3-.94.87-1.37a.89.89,0,0,1-.31-.76,3.51,3.51,0,0,1,.38-.87c-.47-.2-.87-.65-.87-1.66,0-1.35.83-1.88,2.05-1.88a5.91,5.91,0,0,1,1.15.14l1.63,0v.71l-1.05,0a1.43,1.43,0,0,1,.36,1.1c0,1.43-.71,1.86-2.12,1.86a5.09,5.09,0,0,1-.54,0,3.13,3.13,0,0,0-.2.63c0,.44.09.5,1.34.5,1.56,0,2.12.31,2.12,1.62s-.89,1.75-2.44,1.75C268,382.31,267.39,381.92,267.39,380.65Zm1.43-1c-.46.34-.61.54-.61,1,0,.76.31,1,1.56,1s1.59-.29,1.59-1-.35-.92-1.35-.92C269.62,379.67,268.82,379.61,268.82,379.61Zm2-3.62c0-.87-.34-1.21-1.27-1.21s-1.23.34-1.23,1.21.38,1.2,1.23,1.2S270.78,376.86,270.78,376Z" fill="#4c4c4c"/><path d="M316.34,372.92s-1.53-.18-2.17-.18c-1.07,0-1.65.38-1.65,1.24s.53,1.15,1.86,1.45c1.52.34,2.19.72,2.19,2.05,0,1.68-.92,2.34-2.43,2.34a20.26,20.26,0,0,1-2.41-.24l.09-.7s1.5.19,2.28.19c1.08,0,1.63-.47,1.63-1.53,0-.85-.46-1.1-1.7-1.34-1.57-.34-2.36-.71-2.36-2.17s1-2,2.45-2a19,19,0,0,1,2.3.22Z" fill="#4c4c4c"/><path d="M322,379l0,.65a19.72,19.72,0,0,1-2.14.17c-1.64,0-2.18-.95-2.18-2.83,0-2.08.9-2.89,2.3-2.89s2.21.77,2.21,2.58l0,.62h-3.63c0,1.18.36,1.8,1.44,1.8C320.75,379.11,322,379,322,379Zm-.61-2.36c0-1.36-.42-1.85-1.39-1.85s-1.46.52-1.48,1.85Z" fill="#4c4c4c"/><path d="M323.45,374.22h.81v.4a3.74,3.74,0,0,1,1.65-.51c1.39,0,2,.85,2,2.8,0,2.15-.7,2.92-2.4,2.92a7.64,7.64,0,0,1-1.23-.12v2.46h-.82Zm.82,1.07V379a8.82,8.82,0,0,0,1.19.12c1.21,0,1.61-.63,1.61-2.21s-.48-2.06-1.28-2.06A3.59,3.59,0,0,0,324.27,375.29Z" fill="#4c4c4c"/><path d="M367.72,376c0-2.51.65-3.95,3-3.95s3,1.42,3,3.95-.65,3.88-3,3.88S367.72,378.5,367.72,376Zm5.14,0c0-2.06-.4-3.2-2.14-3.2s-2.13,1.13-2.13,3.2.37,3.13,2.13,3.13S372.86,378.09,372.86,376Z" fill="#4c4c4c"/><path d="M378.7,374.28l0,.67s-.88-.1-1.3-.1c-1.27,0-1.61.55-1.61,2,0,1.63.25,2.23,1.62,2.23.42,0,1.3-.1,1.3-.1l0,.68a14.87,14.87,0,0,1-1.53.15c-1.75,0-2.26-.8-2.26-3,0-2,.64-2.76,2.28-2.76A12.4,12.4,0,0,1,378.7,374.28Z" fill="#4c4c4c"/><path d="M381,374.94v2.63c0,1.2.08,1.54.79,1.54.31,0,1-.07,1-.07l.06.68a9.79,9.79,0,0,1-1.12.12c-1.14,0-1.52-.43-1.52-2v-2.89h-.78v-.72h.78v-1.68H381v1.68h1.75v.72Z" fill="#4c4c4c"/><path d="M422.59,372.11h1.58l2.92,6.86h.23v-6.86h.83v7.61H426.6l-3-6.86h-.21v6.86h-.84Z" fill="#4c4c4c"/><path d="M434.35,376.91c0,2-.5,2.92-2.36,2.92s-2.35-.92-2.35-2.92.61-2.8,2.35-2.8S434.35,375,434.35,376.91Zm-.85,0c0-1.53-.33-2.08-1.51-2.08s-1.5.55-1.5,2.08.2,2.21,1.5,2.21S433.5,378.47,433.5,376.91Z" fill="#4c4c4c"/><path d="M436,374.22l1.29,4.79h.41l1.33-4.79h.84l-1.55,5.5h-1.65l-1.55-5.5Z" fill="#4c4c4c"/><path d="M479.67,379.72v-7.61h2.71c2.22,0,2.82,1.54,2.82,3.7s-.57,3.91-2.82,3.91Zm2.71-6.86h-1.87V379h1.87c1.59,0,1.95-1.51,1.95-3.16S484,372.86,482.38,372.86Z" fill="#4c4c4c"/><path d="M490.68,379l0,.65a20,20,0,0,1-2.15.17c-1.64,0-2.17-.95-2.17-2.83,0-2.08.9-2.89,2.3-2.89s2.21.77,2.21,2.58l-.05.62h-3.63c0,1.18.36,1.8,1.44,1.8C489.48,379.11,490.68,379,490.68,379Zm-.62-2.36c0-1.36-.42-1.85-1.38-1.85s-1.47.52-1.48,1.85Z" fill="#4c4c4c"/><path d="M495.73,374.28l0,.67s-.88-.1-1.3-.1c-1.26,0-1.6.55-1.6,2,0,1.63.25,2.23,1.62,2.23.41,0,1.29-.1,1.29-.1l0,.68a15.21,15.21,0,0,1-1.53.15c-1.75,0-2.27-.8-2.27-3,0-2,.65-2.76,2.29-2.76A12.4,12.4,0,0,1,495.73,374.28Z" fill="#4c4c4c"/><line x1="494.86" y1="366.28" x2="35.92" y2="366.28" fill="none" stroke="#adadad" stroke-miterlimit="10"/><polyline points="40.11 361.77 82.4 359.58 115.75 355.19 135.54 347.85 153.31 343.83 174.11 342.89 192.29 341.32 210.06 335.92 221.75 328.7 231.29 322.69 246.77 318.3 264.64 313.11 281.94 307.49 299.49 305.43 308.66 309.44 324.19 317.42 340.38 320.62 351.54 323.98 364.06 326.58 383.52 334.29 395.66 340.26 408.76 347.28 418.29 351.68 433.78 356.07 443.31 358.7 464.75 361.34 479.63 359.14 491.55 353.87" fill="none" stroke="#3899e8"/><polyline points="38.92 361.77 81.21 359.58 114.56 355.19 136.24 347.69 153.31 343.83 172.92 342.89 191.1 341.32 210.06 335.92 221.75 328.7 230.1 322.69 245.58 319.18 264.64 313.11 281.94 307.49 298.8 306.8 307.05 309.9 323 317.42 340.38 320.62 351.54 323.98 365.93 326.83 383.52 334.29 395.66 340.26 407.57 347.28 417.1 351.68 432.59 356.07 442.11 358.7 463.55 361.34 478.44 359.14 490.35 353.87" fill="none" stroke="#8dc5f2"/><rect x="38.88" y="303.76" width="451.79" height="58.52" fill="none"/><path d="M36.1,439.25h9v1.25H41.3v11.21H39.93V440.5H36.1Z" fill="#3a3d3f"/><path d="M53.94,447.1c0,3.28-.81,4.79-3.86,4.79s-3.85-1.51-3.85-4.79c0-3.09,1-4.57,3.85-4.57S53.94,444,53.94,447.1Zm-1.39,0c0-2.5-.54-3.4-2.47-3.4s-2.46.9-2.46,3.4.34,3.62,2.46,3.62S52.55,449.66,52.55,447.1Z" fill="#3a3d3f"/><path d="M63,451.71H61.71v-.61a6.48,6.48,0,0,1-2.73.79c-1.77,0-3.25-.72-3.25-4.61,0-3.16,1-4.75,3.77-4.75a15.79,15.79,0,0,1,2.21.23v-4H63ZM61.71,450v-6.1a14.27,14.27,0,0,0-2.14-.22c-1.89,0-2.45,1.24-2.45,3.58,0,2.92,1,3.41,2,3.41A6.47,6.47,0,0,0,61.71,450Z" fill="#3a3d3f"/><path d="M72,450c0,.52.47.72,1,.79l0,1.06a2.74,2.74,0,0,1-2.14-.72,9.22,9.22,0,0,1-3.25.72c-1.63,0-2.53-.93-2.53-2.75s.9-2.49,2.75-2.67l2.83-.27v-.77c0-1.26-.54-1.71-1.62-1.71-1.26,0-3.41.23-3.41.23l0-1a21.6,21.6,0,0,1,3.53-.4c2,0,2.9.94,2.9,2.9Zm-4-2.56c-1.1.11-1.53.63-1.53,1.62s.45,1.66,1.37,1.66a9.57,9.57,0,0,0,2.83-.56v-3Z" fill="#3a3d3f"/><path d="M75.17,442.71l2.25,7.83H78l2.27-7.83h1.35l-3.75,13H76.54l1.17-4H76.38l-2.56-9Z" fill="#3a3d3f"/><path d="M87.32,439.11h1.35v1.57H87.32Zm0,3.6h1.35v9H87.32Z" fill="#3a3d3f"/><path d="M93.07,443.88v4.3c0,2,.12,2.53,1.29,2.53.51,0,1.6-.11,1.6-.11l.09,1.11a15.44,15.44,0,0,1-1.83.2c-1.86,0-2.49-.7-2.49-3.29v-4.74H90.45v-1.17h1.28V440h1.34v2.75h2.86v1.17Z" fill="#3a3d3f"/><path d="M101.54,439.11h1.35v1.57h-1.35Zm0,3.6h1.35v9h-1.35Z" fill="#3a3d3f"/><path d="M111.46,444a30.35,30.35,0,0,0-3.15-.28c-1.11,0-2,.3-2,1.37,0,.84.43,1.08,2.34,1.4,2.25.38,3.1.83,3.1,2.57,0,2.11-1.34,2.81-3.5,2.81a25.4,25.4,0,0,1-3.16-.34l.07-1.17a29.5,29.5,0,0,0,3,.31c1.48,0,2.27-.33,2.27-1.55,0-.94-.47-1.17-2.43-1.48s-3-.7-3-2.5c0-2,1.6-2.63,3.24-2.63a23.19,23.19,0,0,1,3.26.34Z" fill="#3a3d3f"/><path d="M117.82,442.71h1.33v.65a6.12,6.12,0,0,1,2.7-.83c2.27,0,3.26,1.39,3.26,4.57,0,3.53-1.15,4.79-3.93,4.79a12.32,12.32,0,0,1-2-.19v4h-1.35Zm1.35,1.75v6.06a12.78,12.78,0,0,0,1.94.2c2,0,2.63-1,2.63-3.62s-.77-3.36-2.09-3.36A5.86,5.86,0,0,0,119.17,444.46Z" fill="#3a3d3f"/><path d="M134.61,447.1c0,3.28-.81,4.79-3.85,4.79s-3.85-1.51-3.85-4.79c0-3.09,1-4.57,3.85-4.57S134.61,444,134.61,447.1Zm-1.38,0c0-2.5-.54-3.4-2.47-3.4s-2.47.9-2.47,3.4.34,3.62,2.47,3.62S133.23,449.66,133.23,447.1Z" fill="#3a3d3f"/><path d="M142.78,444a30.35,30.35,0,0,0-3.15-.28c-1.11,0-2,.3-2,1.37,0,.84.43,1.08,2.34,1.4,2.25.38,3.1.83,3.1,2.57,0,2.11-1.33,2.81-3.49,2.81a25.4,25.4,0,0,1-3.17-.34l.07-1.17a29.5,29.5,0,0,0,3,.31c1.48,0,2.27-.33,2.27-1.55,0-.94-.47-1.17-2.43-1.48s-3-.7-3-2.5c0-2,1.6-2.63,3.24-2.63a23.19,23.19,0,0,1,3.26.34Z" fill="#3a3d3f"/><path d="M151.15,444a30,30,0,0,0-3.15-.28c-1.11,0-2,.3-2,1.37,0,.84.43,1.08,2.34,1.4,2.25.38,3.1.83,3.1,2.57,0,2.11-1.33,2.81-3.49,2.81a25.4,25.4,0,0,1-3.17-.34l.07-1.17a29.5,29.5,0,0,0,3,.31c1.48,0,2.27-.33,2.27-1.55,0-.94-.47-1.17-2.43-1.48s-3-.7-3-2.5c0-2,1.6-2.63,3.24-2.63a23.19,23.19,0,0,1,3.26.34Z" fill="#3a3d3f"/><path d="M153.55,439.11h1.35v1.57h-1.35Zm0,3.6h1.35v9h-1.35Z" fill="#3a3d3f"/><path d="M164.74,447.07c0,3.58-1,4.82-4.25,4.82-1.08,0-3-.19-3-.19V438.79h1.33v4.37a7.44,7.44,0,0,1,2.65-.63C163.92,442.53,164.74,443.83,164.74,447.07Zm-1.36,0c0-2.32-.47-3.33-2.06-3.33a7.57,7.57,0,0,0-2.5.52v6.34s1.17.09,1.66.09C162.94,450.69,163.38,449.59,163.38,447.07Z" fill="#3a3d3f"/><path d="M167.06,438.79h1.35v12.92h-1.35Z" fill="#3a3d3f"/><path d="M177.76,450.54l0,1.07a32.2,32.2,0,0,1-3.51.28c-2.68,0-3.56-1.56-3.56-4.62,0-3.43,1.47-4.74,3.76-4.74s3.62,1.26,3.62,4.21l-.07,1h-5.94c0,1.93.59,2.94,2.35,2.94C175.79,450.71,177.76,450.54,177.76,450.54Zm-1-3.85c0-2.23-.68-3-2.27-3s-2.39.84-2.41,3Z" fill="#3a3d3f"/><path d="M186,443.88v4.3c0,2,.13,2.53,1.3,2.53.5,0,1.6-.11,1.6-.11l.09,1.11a15.44,15.44,0,0,1-1.83.2c-1.86,0-2.49-.7-2.49-3.29v-4.74h-1.28v-1.17h1.28V440H186v2.75h2.87v1.17Z" fill="#3a3d3f"/><path d="M197.79,447.1c0,3.28-.81,4.79-3.85,4.79s-3.85-1.51-3.85-4.79c0-3.09,1-4.57,3.85-4.57S197.79,444,197.79,447.1Zm-1.38,0c0-2.5-.54-3.4-2.47-3.4s-2.47.9-2.47,3.4.34,3.62,2.47,3.62S196.41,449.66,196.41,447.1Z" fill="#3a3d3f"/><path d="M210.91,442.71v9h-1.35v-.63a6.07,6.07,0,0,1-2.66.81c-2.52,0-3-1.17-3-4.48v-4.7h1.35v4.68c0,2.49.21,3.3,1.89,3.3a5.4,5.4,0,0,0,2.46-.67v-7.31Z" fill="#3a3d3f"/><path d="M219.48,444a30.35,30.35,0,0,0-3.15-.28c-1.12,0-2,.3-2,1.37,0,.84.43,1.08,2.34,1.4,2.25.38,3.1.83,3.1,2.57,0,2.11-1.34,2.81-3.5,2.81a25.65,25.65,0,0,1-3.17-.34l.07-1.17a29.8,29.8,0,0,0,3,.31c1.47,0,2.26-.33,2.26-1.55,0-.94-.46-1.17-2.43-1.48s-3-.7-3-2.5c0-2,1.6-2.63,3.24-2.63a23.19,23.19,0,0,1,3.26.34Z" fill="#3a3d3f"/><path d="M228.52,450.54l0,1.07a32.2,32.2,0,0,1-3.51.28c-2.68,0-3.56-1.56-3.56-4.62,0-3.43,1.47-4.74,3.76-4.74s3.62,1.26,3.62,4.21l-.07,1h-5.94c0,1.93.59,2.94,2.35,2.94C226.55,450.71,228.52,450.54,228.52,450.54Zm-1-3.85c0-2.23-.69-3-2.27-3s-2.39.84-2.41,3Z" fill="#3a3d3f"/><path d="M237.48,439.25h3l3.43,12.46h-1.37l-.9-3.2h-5.33l-.9,3.2h-1.37Zm-.85,8h4.72l-1.89-6.83h-.94Z" fill="#3a3d3f"/><path d="M250.82,445.34h3.44v6.12a31,31,0,0,1-4,.43c-3.82,0-4.83-2.34-4.83-6.37s1-6.45,4.79-6.45a23.17,23.17,0,0,1,4.09.47l-.06,1.15a29.11,29.11,0,0,0-3.87-.37c-2.88,0-3.51,1.67-3.51,5.2s.61,5.15,3.49,5.15a16.86,16.86,0,0,0,2.58-.25v-3.84h-2.07Z" fill="#3a3d3f"/><path d="M265.49,439.25l-3.26,12.46h-3.1l-3.26-12.46h1.44l2.87,11.24h1l2.86-11.24Z" fill="#3a3d3f"/><path d="M271.19,450.45a27,27,0,0,0,3.13.22c2.18,0,3.26-1.33,3.28-4.14a11,11,0,0,1-3.1.68c-2.48,0-3.88-1.11-3.88-3.62a3.76,3.76,0,0,1,4.12-3.94c3,0,4.3,2.38,4.3,6.16,0,4.61-1.78,6.08-4.72,6.08a21.2,21.2,0,0,1-3.25-.32Zm6.43-5.11c0-2.59-.79-4.47-2.88-4.47a2.5,2.5,0,0,0-2.68,2.72c0,1.68.9,2.4,2.55,2.4A11,11,0,0,0,277.62,445.34Z" fill="#3a3d3f"/><path d="M291.57,450c0,.52.47.72,1,.79l-.05,1.06a2.75,2.75,0,0,1-2.14-.72,9.2,9.2,0,0,1-3.24.72c-1.64,0-2.54-.93-2.54-2.75s.9-2.49,2.75-2.67l2.83-.27v-.77c0-1.26-.54-1.71-1.62-1.71-1.26,0-3.4.23-3.4.23l-.06-1a21.6,21.6,0,0,1,3.53-.4c2,0,2.9.94,2.9,2.9Zm-4-2.56c-1.09.11-1.53.63-1.53,1.62s.45,1.66,1.37,1.66a9.48,9.48,0,0,0,2.83-.56v-3Z" fill="#3a3d3f"/><path d="M296,443.88v4.3c0,2,.13,2.53,1.3,2.53.5,0,1.6-.11,1.6-.11l.09,1.11a15.43,15.43,0,0,1-1.84.2c-1.85,0-2.48-.7-2.48-3.29v-4.74h-1.28v-1.17h1.28V440H296v2.75h2.87v1.17Z" fill="#3a3d3f"/><path d="M304.51,439.11h1.35v1.57h-1.35Zm0,3.6h1.35v9h-1.35Z" fill="#3a3d3f"/><path d="M310.25,443.88v4.3c0,2,.13,2.53,1.3,2.53.5,0,1.6-.11,1.6-.11l.09,1.11a15.44,15.44,0,0,1-1.83.2c-1.86,0-2.49-.7-2.49-3.29v-4.74h-1.28v-1.17h1.28V440h1.33v2.75h2.87v1.17Z" fill="#3a3d3f"/><path d="M320.75,444a30.35,30.35,0,0,0-3.15-.28c-1.12,0-2,.3-2,1.37,0,.84.44,1.08,2.35,1.4,2.25.38,3.09.83,3.09,2.57,0,2.11-1.33,2.81-3.49,2.81a25.65,25.65,0,0,1-3.17-.34l.07-1.17a29.5,29.5,0,0,0,3,.31c1.48,0,2.27-.33,2.27-1.55,0-.94-.47-1.17-2.43-1.48s-3-.7-3-2.5c0-2,1.61-2.63,3.25-2.63a23,23,0,0,1,3.25.34Z" fill="#3a3d3f"/><path d="M328.83,451.71h-1.35v-7.83h-1.14v-1.17h1.14v-.81c0-2.59.67-3.29,2.43-3.29.61,0,1.82.12,1.82.12l0,1.12s-1,0-1.55,0c-1,0-1.33.43-1.33,2.11v.79h2.61v1.17h-2.61Z" fill="#3a3d3f"/><path d="M340,442.71v9h-1.35v-.63a6.08,6.08,0,0,1-2.67.81c-2.52,0-3-1.17-3-4.48v-4.7h1.35v4.68c0,2.49.21,3.3,1.89,3.3a5.47,5.47,0,0,0,2.47-.67v-7.31Z" fill="#3a3d3f"/><path d="M342.72,438.79h1.35v12.92h-1.35Z" fill="#3a3d3f"/><path d="M346.88,438.79h1.35v12.92h-1.35Z" fill="#3a3d3f"/><path d="M354.89,442.71h1.34v.65a6.07,6.07,0,0,1,2.7-.83c2.27,0,3.26,1.39,3.26,4.57,0,3.53-1.16,4.79-3.93,4.79a12.35,12.35,0,0,1-2-.19v4h-1.35Zm1.35,1.75v6.06a13,13,0,0,0,1.95.2c2,0,2.63-1,2.63-3.62s-.78-3.36-2.09-3.36A5.87,5.87,0,0,0,356.24,444.46Z" fill="#3a3d3f"/><path d="M371,450.54l0,1.07a32.2,32.2,0,0,1-3.51.28c-2.68,0-3.57-1.56-3.57-4.62,0-3.43,1.48-4.74,3.77-4.74s3.62,1.26,3.62,4.21l-.08,1h-5.94c0,1.93.6,2.94,2.36,2.94C369.06,450.71,371,450.54,371,450.54Zm-1-3.85c0-2.23-.68-3-2.26-3s-2.4.84-2.42,3Z" fill="#3a3d3f"/><path d="M373.47,442.71h1.33v1.22a10.17,10.17,0,0,1,3.3-1.42v1.37a12.78,12.78,0,0,0-3.28,1.23v6.6h-1.35Z" fill="#3a3d3f"/><path d="M381.43,451.71h-1.36v-7.83h-1.13v-1.17h1.13v-.81c0-2.59.67-3.29,2.44-3.29.61,0,1.81.12,1.81.12v1.12s-1,0-1.55,0c-1,0-1.33.43-1.33,2.11v.79H384v1.17h-2.61Z" fill="#3a3d3f"/><path d="M393,447.1c0,3.28-.81,4.79-3.85,4.79s-3.85-1.51-3.85-4.79c0-3.09,1-4.57,3.85-4.57S393,444,393,447.1Zm-1.38,0c0-2.5-.54-3.4-2.47-3.4s-2.46.9-2.46,3.4.34,3.62,2.46,3.62S391.58,449.66,391.58,447.1Z" fill="#3a3d3f"/><path d="M395.16,442.71h1.33v1.22a10.17,10.17,0,0,1,3.3-1.42v1.37a12.78,12.78,0,0,0-3.28,1.23v6.6h-1.35Z" fill="#3a3d3f"/><path d="M401.39,451.71v-9h1.33v.63a6,6,0,0,1,2.63-.81,2.54,2.54,0,0,1,2.34.92,7.46,7.46,0,0,1,3.2-.92c2.45,0,3.05,1.17,3.05,4.43v4.75h-1.35V447c0-2.38-.27-3.26-1.89-3.26a6,6,0,0,0-2.54.66,10.4,10.4,0,0,1,.23,2.63v4.68H407v-4.64c0-2.49-.25-3.33-1.89-3.33a5.39,5.39,0,0,0-2.41.66v7.31Z" fill="#3a3d3f"/><path d="M422.79,450c0,.52.47.72,1,.79l-.05,1.06a2.75,2.75,0,0,1-2.14-.72,9.2,9.2,0,0,1-3.24.72c-1.64,0-2.54-.93-2.54-2.75s.9-2.49,2.75-2.67l2.83-.27v-.77c0-1.26-.54-1.71-1.62-1.71-1.26,0-3.4.23-3.4.23l-.06-1a21.6,21.6,0,0,1,3.53-.4c2,0,2.9.94,2.9,2.9Zm-4-2.56c-1.09.11-1.53.63-1.53,1.62s.45,1.66,1.37,1.66a9.48,9.48,0,0,0,2.83-.56v-3Z" fill="#3a3d3f"/><path d="M425.45,451.71v-9h1.33v.63a6.85,6.85,0,0,1,2.79-.81c2.49,0,3.05,1.22,3.05,4.43v4.75h-1.34V447c0-2.38-.26-3.26-1.94-3.26a6.19,6.19,0,0,0-2.54.66v7.31Z" fill="#3a3d3f"/><path d="M440.93,442.8l-.05,1.1s-1.44-.16-2.13-.16c-2.07,0-2.62.9-2.62,3.31,0,2.66.41,3.64,2.64,3.64.69,0,2.13-.17,2.13-.17l.05,1.12a24,24,0,0,1-2.5.25c-2.86,0-3.71-1.31-3.71-4.84,0-3.26,1.06-4.52,3.74-4.52A20.89,20.89,0,0,1,440.93,442.8Z" fill="#3a3d3f"/><path d="M449.61,450.54l0,1.07a32.5,32.5,0,0,1-3.52.28c-2.68,0-3.56-1.56-3.56-4.62,0-3.43,1.48-4.74,3.76-4.74s3.62,1.26,3.62,4.21l-.07,1h-5.94c0,1.93.59,2.94,2.36,2.94C447.65,450.71,449.61,450.54,449.61,450.54Zm-1-3.85c0-2.23-.68-3-2.27-3s-2.39.84-2.41,3Z" fill="#3a3d3f"/><path d="M452,449.66h1.48v2H452Z" fill="#3a3d3f"/><path d="M460.14,439.25h1.38v12.46h-1.38Z" fill="#3a3d3f"/><path d="M466.13,443.88v4.3c0,2,.13,2.53,1.3,2.53.5,0,1.6-.11,1.6-.11l.09,1.11a15.71,15.71,0,0,1-1.84.2c-1.85,0-2.48-.7-2.48-3.29v-4.74h-1.28v-1.17h1.28V440h1.33v2.75H469v1.17Z" fill="#3a3d3f"/><path d="M475.22,442.71l1.82,7.83h.29l2.14-7.65h1.4l2.15,7.65h.3l1.8-7.83h1.35l-2.14,9h-2.25l-1.91-7-1.91,7H476l-2.14-9Z" fill="#3a3d3f"/><path d="M495.63,447.1c0,3.28-.81,4.79-3.85,4.79s-3.85-1.51-3.85-4.79c0-3.09,1-4.57,3.85-4.57S495.63,444,495.63,447.1Zm-1.38,0c0-2.5-.54-3.4-2.47-3.4s-2.46.9-2.46,3.4.34,3.62,2.46,3.62S494.25,449.66,494.25,447.1Z" fill="#3a3d3f"/><path d="M504.8,442.71v9h-1.35v-.63a6.08,6.08,0,0,1-2.67.81c-2.52,0-3-1.17-3-4.48v-4.7h1.35v4.68c0,2.49.21,3.3,1.89,3.3a5.47,5.47,0,0,0,2.47-.67v-7.31Z" fill="#3a3d3f"/><path d="M507.49,438.79h1.35v12.92h-1.35Z" fill="#3a3d3f"/><path d="M518.46,451.71h-1.33v-.61a6.49,6.49,0,0,1-2.74.79c-1.77,0-3.24-.72-3.24-4.61,0-3.16,1-4.75,3.76-4.75a15.79,15.79,0,0,1,2.22.23v-4h1.33ZM517.13,450v-6.1a14.43,14.43,0,0,0-2.15-.22c-1.89,0-2.45,1.24-2.45,3.58,0,2.92,1,3.41,2,3.41A6.54,6.54,0,0,0,517.13,450Z" fill="#3a3d3f"/><path d="M37.16,479.71v-9h1.33v.63a6.85,6.85,0,0,1,2.79-.81c2.49,0,3,1.22,3,4.43v4.75H43V475c0-2.38-.27-3.26-1.94-3.26a6.19,6.19,0,0,0-2.54.66v7.31Z" fill="#3a3d3f"/><path d="M53.47,478.54l0,1.07a32.2,32.2,0,0,1-3.51.28c-2.68,0-3.56-1.56-3.56-4.62,0-3.43,1.48-4.74,3.76-4.74s3.62,1.26,3.62,4.21l-.07,1H47.8c0,1.93.59,2.94,2.36,2.94C51.51,478.71,53.47,478.54,53.47,478.54Zm-1-3.85c0-2.23-.68-3-2.27-3s-2.39.84-2.41,3Z" fill="#3a3d3f"/><path d="M62.56,478.54l0,1.07a32.2,32.2,0,0,1-3.51.28c-2.68,0-3.56-1.56-3.56-4.62,0-3.43,1.47-4.74,3.76-4.74s3.62,1.26,3.62,4.21l-.07,1H56.89c0,1.93.59,2.94,2.35,2.94C60.6,478.71,62.56,478.54,62.56,478.54Zm-1-3.85c0-2.23-.68-3-2.27-3s-2.39.84-2.41,3Z" fill="#3a3d3f"/><path d="M71.92,479.71H70.59v-.61a6.49,6.49,0,0,1-2.74.79c-1.77,0-3.24-.72-3.24-4.61,0-3.16,1-4.75,3.76-4.75a15.79,15.79,0,0,1,2.22.23v-4h1.33ZM70.59,478v-6.1a14.43,14.43,0,0,0-2.15-.22c-1.89,0-2.45,1.24-2.45,3.58,0,2.92,1,3.41,2,3.41A6.54,6.54,0,0,0,70.59,478Z" fill="#3a3d3f"/><path d="M84.3,470.8l0,1.1s-1.44-.16-2.13-.16c-2.07,0-2.63.9-2.63,3.31,0,2.66.42,3.64,2.65,3.64.68,0,2.13-.17,2.13-.17l0,1.12a24,24,0,0,1-2.5.25c-2.87,0-3.71-1.31-3.71-4.84,0-3.26,1.06-4.52,3.74-4.52A20.89,20.89,0,0,1,84.3,470.8Z" fill="#3a3d3f"/><path d="M86.33,479.71V466.79h1.35v4.42a7.65,7.65,0,0,1,2.78-.68c2.46,0,3,1.22,3,4.43v4.75H92.15V475c0-2.38-.27-3.26-1.93-3.26a7.41,7.41,0,0,0-2.54.54v7.43Z" fill="#3a3d3f"/><path d="M102.36,478c0,.52.46.72,1,.79l-.05,1.06a2.76,2.76,0,0,1-2.15-.72,9.2,9.2,0,0,1-3.24.72c-1.64,0-2.54-.93-2.54-2.75s.9-2.49,2.76-2.67l2.82-.27v-.77c0-1.26-.54-1.71-1.62-1.71-1.26,0-3.4.23-3.4.23l0-1a21.6,21.6,0,0,1,3.53-.4c2,0,2.9.94,2.9,2.9Zm-4-2.56c-1.1.11-1.53.63-1.53,1.62s.45,1.66,1.37,1.66a9.47,9.47,0,0,0,2.82-.56v-3Z" fill="#3a3d3f"/><path d="M105,470.71h1.33v1.22a10.18,10.18,0,0,1,3.29-1.42v1.37a12.81,12.81,0,0,0-3.27,1.23v6.6H105Z" fill="#3a3d3f"/><path d="M110.85,481.23c0-1.05.48-1.53,1.42-2.24a1.46,1.46,0,0,1-.5-1.24,5.82,5.82,0,0,1,.61-1.42c-.76-.34-1.42-1.06-1.42-2.72,0-2.22,1.36-3.08,3.36-3.08a9.6,9.6,0,0,1,1.88.23l2.66-.07v1.15l-1.71,0a2.35,2.35,0,0,1,.59,1.8c0,2.34-1.17,3-3.47,3a6.65,6.65,0,0,1-.88-.07,5.21,5.21,0,0,0-.33,1c0,.72.15.82,2.18.82,2.56,0,3.48.51,3.48,2.65s-1.46,2.86-4,2.86C111.87,483.94,110.85,483.31,110.85,481.23Zm2.34-1.7c-.76.56-1,.89-1,1.59,0,1.24.52,1.69,2.56,1.69,1.8,0,2.61-.49,2.61-1.67,0-1.37-.58-1.52-2.22-1.52C114.5,479.62,113.19,479.53,113.19,479.53Zm3.2-5.92c0-1.42-.55-2-2.07-2s-2,.56-2,2,.61,2,2,2S116.39,475,116.39,473.61Z" fill="#3a3d3f"/><path d="M127.14,478.54l0,1.07a32.47,32.47,0,0,1-3.51.28c-2.69,0-3.57-1.56-3.57-4.62,0-3.43,1.48-4.74,3.76-4.74s3.62,1.26,3.62,4.21l-.07,1h-5.94c0,1.93.59,2.94,2.36,2.94C125.18,478.71,127.14,478.54,127.14,478.54Zm-1-3.85c0-2.23-.68-3-2.27-3s-2.39.84-2.41,3Z" fill="#3a3d3f"/><path d="M139.9,478c0,.52.47.72,1,.79l-.06,1.06a2.75,2.75,0,0,1-2.14-.72,9.2,9.2,0,0,1-3.24.72c-1.64,0-2.54-.93-2.54-2.75s.9-2.49,2.75-2.67l2.83-.27v-.77c0-1.26-.54-1.71-1.62-1.71-1.26,0-3.4.23-3.4.23l-.06-1a21.6,21.6,0,0,1,3.53-.4c2,0,2.9.94,2.9,2.9Zm-4-2.56c-1.1.11-1.53.63-1.53,1.62s.45,1.66,1.36,1.66a9.48,9.48,0,0,0,2.83-.56v-3Z" fill="#3a3d3f"/><path d="M142.56,470.71h1.34v1.22a10.06,10.06,0,0,1,3.29-1.42v1.37a13,13,0,0,0-3.28,1.23v6.6h-1.35Z" fill="#3a3d3f"/><path d="M156.1,475.1c0,3.28-.81,4.79-3.85,4.79s-3.85-1.51-3.85-4.79c0-3.09,1-4.57,3.85-4.57S156.1,472,156.1,475.1Zm-1.39,0c0-2.5-.54-3.4-2.46-3.4s-2.47.9-2.47,3.4.34,3.62,2.47,3.62S154.71,477.66,154.71,475.1Z" fill="#3a3d3f"/><path d="M165.26,470.71v9h-1.35v-.63a6.07,6.07,0,0,1-2.66.81c-2.52,0-3.05-1.17-3.05-4.48v-4.7h1.36v4.68c0,2.49.21,3.3,1.89,3.3a5.4,5.4,0,0,0,2.46-.67v-7.31Z" fill="#3a3d3f"/><path d="M167.85,479.71v-9h1.34v.63a6.79,6.79,0,0,1,2.79-.81c2.48,0,3,1.22,3,4.43v4.75h-1.33V475c0-2.38-.27-3.26-1.95-3.26a6.25,6.25,0,0,0-2.54.66v7.31Z" fill="#3a3d3f"/><path d="M184.43,479.71H183.1v-.61a6.49,6.49,0,0,1-2.74.79c-1.76,0-3.24-.72-3.24-4.61,0-3.16,1-4.75,3.77-4.75a15.79,15.79,0,0,1,2.21.23v-4h1.33ZM183.1,478v-6.1a14.27,14.27,0,0,0-2.14-.22c-1.89,0-2.45,1.24-2.45,3.58,0,2.92,1,3.41,2,3.41A6.53,6.53,0,0,0,183.1,478Z" fill="#3a3d3f"/><path d="M195.41,467.83h1.3v11.88h-1.39V469.38l-3.06,2-.63-1Z" fill="#3a3d3f"/><path d="M209.09,470.73c0,1.53-.59,2.16-2,2.77a3,3,0,0,1,2.16,3c0,2.61-2,3.4-4.48,3.4s-4.43-.73-4.43-3.2a3.17,3.17,0,0,1,2-3.19,2.75,2.75,0,0,1-1.85-2.79c0-2,1.64-3.08,4.23-3.08S209.09,468.64,209.09,470.73Zm-1.29,5.62c0-1.39-.92-1.84-2.11-2.18H203.8c-1.24.34-2,.95-2,2.28,0,1.64,1.26,2.18,2.95,2.18S207.8,478.09,207.8,476.35ZM202,470.87c0,1.1.6,1.68,1.77,2.09h1.89c1.22-.39,1.93-1,1.93-2.07,0-1.42-1.07-2-2.81-2S202,469.45,202,470.87Z" fill="#3a3d3f"/><path d="M211.07,471.86h1.48v2.06h-1.48Zm0,5.8h1.48v2h-1.48Z" fill="#3a3d3f"/><path d="M223.13,474c0,4.56-1.6,5.94-4.32,5.94s-4.34-1.35-4.34-5.92c0-4.9,1.59-6.34,4.32-6.34S223.13,469.05,223.13,474Zm-7.22,0c0,3.73,1,4.7,2.9,4.7s2.9-1,2.9-4.72c0-4-.92-5.08-2.9-5.08S215.91,469.92,215.91,474Z" fill="#3a3d3f"/><path d="M233.21,474c0,4.56-1.6,5.94-4.32,5.94s-4.34-1.35-4.34-5.92c0-4.9,1.59-6.34,4.32-6.34S233.21,469.05,233.21,474ZM226,474c0,3.73,1,4.7,2.9,4.7s2.9-1,2.9-4.72c0-4-.92-5.08-2.9-5.08S226,469.92,226,474Z" fill="#3a3d3f"/><path d="M235.14,477.66h1.47v2h-1.47Z" fill="#3a3d3f"/><path d="M40.64,37H44l3.8,13.85H46.28l-1-3.56H39.36l-1,3.56H36.84ZM39.7,45.9h5.24l-2.1-7.59h-1Z"/><path d="M55.46,43.75h3.82v6.81a33.71,33.71,0,0,1-4.5.48c-4.24,0-5.36-2.6-5.36-7.09s1.16-7.16,5.32-7.16a25.77,25.77,0,0,1,4.54.52l-.06,1.28a31.73,31.73,0,0,0-4.3-.42C51.72,38.17,51,40,51,44s.68,5.73,3.88,5.73a18.56,18.56,0,0,0,2.86-.28V45.14h-2.3Z"/><path d="M71.76,37,68.14,50.84H64.7L61.08,37h1.6l3.18,12.49H67L70.16,37Z"/><path d="M78.1,49.44a30.56,30.56,0,0,0,3.48.24c2.42,0,3.62-1.48,3.64-4.6a12.19,12.19,0,0,1-3.44.76c-2.76,0-4.32-1.24-4.32-4s1.8-4.38,4.58-4.38c3.32,0,4.78,2.64,4.78,6.84,0,5.13-2,6.77-5.24,6.77A23.42,23.42,0,0,1,78,50.68Zm7.14-5.69c0-2.88-.88-5-3.2-5a2.77,2.77,0,0,0-3,3c0,1.86,1,2.66,2.84,2.66A12.27,12.27,0,0,0,85.24,43.75Z"/><line x1="38.23" y1="59.15" x2="537.82" y2="59.15" fill="none" stroke="#ddd" stroke-miterlimit="10"/><line x1="53.12" y1="141.11" x2="53.12" y2="235.03" fill="none" stroke="#adadad" stroke-miterlimit="10"/><line x1="484.89" y1="226.62" x2="43.12" y2="226.62" fill="none" stroke="#adadad" stroke-miterlimit="10"/><path d="M66.52,238.07H62.24v-.8l2.51-6.3h1.12l-2.55,6.19h3.2v-2.75h1v2.75h1.12v.91H67.55v1.73h-1Z" fill="#4c4c4c"/><path d="M41.55,227.75c0,3.38-1.19,4.41-3.21,4.41s-3.22-1-3.22-4.4c0-3.64,1.18-4.71,3.21-4.71S41.55,224.11,41.55,227.75Zm-5.36,0c0,2.77.76,3.49,2.15,3.49s2.15-.74,2.15-3.5c0-3-.68-3.77-2.15-3.77S36.19,224.75,36.19,227.76Z" fill="#4c4c4c"/><path d="M35.52,205.66v-.87l2.58-2.72c1.1-1.13,1.78-1.85,1.78-2.9s-.66-1.55-1.93-1.55a12.59,12.59,0,0,0-2.28.3l-.08-.86a10.72,10.72,0,0,1,2.55-.36c1.86,0,2.79.71,2.79,2.37,0,1.32-.6,2.1-1.84,3.3l-2.35,2.39h4.42v.9Z" fill="#4c4c4c"/><path d="M39.41,176.63H35.13v-.8l2.52-6.3h1.12l-2.55,6.19h3.19V173h1v2.75h1.12v.91H40.44v1.73h-1Z" fill="#4c4c4c"/><path d="M41,143.17a20.43,20.43,0,0,0-2.33-.16c-1.53,0-2.37,1.09-2.37,3.05a7.22,7.22,0,0,1,2.2-.53c2,0,3,.89,3,2.74s-1.12,2.92-3.09,2.92c-2.19,0-3.15-1.73-3.15-4.59,0-3.19,1.35-4.5,3.44-4.5a16.23,16.23,0,0,1,2.42.23ZM36.32,147c0,1.89.58,3.32,2.1,3.32a1.81,1.81,0,0,0,2-2c0-1.23-.74-1.81-2-1.81A6.28,6.28,0,0,0,36.32,147Z" fill="#4c4c4c"/><path d="M145.92,233.14a2,2,0,0,1-1.47,2.06,2.22,2.22,0,0,1,1.61,2.22c0,1.94-1.5,2.52-3.33,2.52s-3.29-.54-3.29-2.38A2.35,2.35,0,0,1,141,235.2a2,2,0,0,1-1.38-2.07c0-1.53,1.21-2.29,3.14-2.29S145.92,231.59,145.92,233.14Zm-1,4.17c0-1-.68-1.36-1.56-1.62H142c-.92.26-1.45.71-1.45,1.7,0,1.22.93,1.62,2.19,1.62S145,238.61,145,237.31Zm-4.28-4.06c0,.81.45,1.24,1.31,1.55h1.41c.91-.3,1.43-.72,1.43-1.54,0-1.06-.79-1.48-2.09-1.48S140.68,232.19,140.68,233.25Z" fill="#4c4c4c"/><path d="M220.56,231h1v8.82h-1v-7.67l-2.27,1.49-.47-.77Z" fill="#4c4c4c"/><path d="M224.74,239.81v-.87l2.57-2.71c1.1-1.14,1.78-1.86,1.78-2.9s-.65-1.55-1.92-1.55a13,13,0,0,0-2.29.29l-.08-.85a10.45,10.45,0,0,1,2.55-.37c1.86,0,2.8.71,2.8,2.37,0,1.32-.6,2.1-1.85,3.3L226,238.91h4.43v.9Z" fill="#4c4c4c"/><path d="M305.36,231h1v8.82h-1v-7.67L303,233.63l-.47-.77Z" fill="#4c4c4c"/><path d="M315.05,231.92a20.37,20.37,0,0,0-2.32-.16c-1.54,0-2.38,1.1-2.38,3.05a7.35,7.35,0,0,1,2.21-.52c1.95,0,3,.88,3,2.74s-1.12,2.91-3.09,2.91c-2.19,0-3.15-1.72-3.15-4.58,0-3.2,1.35-4.51,3.45-4.51a16.41,16.41,0,0,1,2.42.23Zm-4.71,3.8c0,1.88.57,3.31,2.09,3.31a1.81,1.81,0,0,0,2-2c0-1.23-.73-1.82-2-1.82A6.11,6.11,0,0,0,310.34,235.72Z" fill="#4c4c4c"/><path d="M386.85,239.81v-.87l2.57-2.71c1.1-1.14,1.78-1.86,1.78-2.9s-.65-1.55-1.92-1.55a13,13,0,0,0-2.29.29l-.08-.85a10.45,10.45,0,0,1,2.55-.37c1.86,0,2.8.71,2.8,2.37,0,1.32-.6,2.1-1.85,3.3l-2.35,2.39h4.43v.9Z" fill="#4c4c4c"/><path d="M400.36,235.53c0,3.38-1.19,4.41-3.21,4.41s-3.22-1-3.22-4.39c0-3.64,1.18-4.71,3.21-4.71S400.36,231.9,400.36,235.53Zm-5.36,0c0,2.76.76,3.48,2.15,3.48s2.16-.73,2.16-3.5c0-3-.69-3.77-2.16-3.77S395,232.54,395,235.55Z" fill="#4c4c4c"/><path d="M471.64,239.81v-.87l2.58-2.71c1.1-1.14,1.78-1.86,1.78-2.9s-.65-1.55-1.92-1.55a13,13,0,0,0-2.29.29l-.08-.85a10.45,10.45,0,0,1,2.55-.37c1.86,0,2.8.71,2.8,2.37,0,1.32-.6,2.1-1.85,3.3l-2.35,2.39h4.42v.9Z" fill="#4c4c4c"/><path d="M483,238.09h-4.28v-.81l2.52-6.29h1.12l-2.55,6.19H483v-2.76h1v2.76h1.12v.91h-1.12v1.72h-1Z" fill="#4c4c4c"/><g style="isolation:isolate"><rect x="89.35" y="152.93" width="12.42" height="72.92" fill="#76ce89"/><g clip-path="url(#clip-path)"><polygon points="89.58 225.84 89.35 152.98 101.55 152.93 101.77 225.79 89.58 225.84" fill="#76ce89"/></g></g><g style="isolation:isolate"><rect x="106.75" y="154.96" width="12.42" height="70.88" fill="#76ce89"/><g clip-path="url(#clip-path-2)"><polygon points="106.97 225.84 106.75 155.02 118.94 154.97 119.17 225.79 106.97 225.84" fill="#76ce89"/></g></g><g style="isolation:isolate"><rect x="124.14" y="158.01" width="12.41" height="67.84" fill="#76ce89"/><g clip-path="url(#clip-path-3)"><polygon points="124.35 225.84 124.14 158.06 136.34 158.01 136.55 225.79 124.35 225.84" fill="#76ce89"/></g></g><g style="isolation:isolate"><rect x="141.53" y="158.35" width="12.41" height="67.5" fill="#76ce89"/><g clip-path="url(#clip-path-4)"><polygon points="141.74 225.84 141.53 158.4 153.73 158.35 153.94 225.79 141.74 225.84" fill="#76ce89"/></g></g><g style="isolation:isolate"><rect x="158.91" y="158.36" width="12.4" height="67.48" fill="#76ce89"/><g clip-path="url(#clip-path-5)"><polygon points="159.12 225.84 158.91 158.41 171.1 158.36 171.31 225.79 159.12 225.84" fill="#76ce89"/></g></g><g style="isolation:isolate"><rect x="176.29" y="158.35" width="12.4" height="67.5" fill="#76ce89"/><g clip-path="url(#clip-path-6)"><polygon points="176.49 225.84 176.28 158.4 188.48 158.35 188.69 225.79 176.49 225.84" fill="#76ce89"/></g></g><g style="isolation:isolate"><rect x="193.66" y="161.77" width="12.4" height="64.07" fill="#76ce89"/><g clip-path="url(#clip-path-7)"><polygon points="193.87 225.84 193.67 161.82 205.86 161.77 206.06 225.79 193.87 225.84" fill="#76ce89"/></g></g><g style="isolation:isolate"><rect x="211.04" y="164.04" width="12.38" height="61.8" fill="#76ce89"/><g clip-path="url(#clip-path-8)"><polygon points="211.23 225.84 211.03 164.09 223.23 164.04 223.42 225.79 211.23 225.84" fill="#76ce89"/></g></g><g style="isolation:isolate"><rect x="228.39" y="164.04" width="12.38" height="61.8" fill="#76ce89"/><g clip-path="url(#clip-path-9)"><polygon points="228.58 225.84 228.39 164.09 240.59 164.04 240.78 225.79 228.58 225.84" fill="#76ce89"/></g></g><g style="isolation:isolate"><rect x="245.75" y="166.31" width="12.38" height="59.54" fill="#76ce89"/><g clip-path="url(#clip-path-10)"><polygon points="245.93 225.84 245.75 166.36 257.94 166.31 258.13 225.79 245.93 225.84" fill="#76ce89"/></g></g><g style="isolation:isolate"><rect x="263.1" y="167.45" width="12.38" height="58.39" fill="#76ce89"/><g clip-path="url(#clip-path-11)"><polygon points="263.29 225.84 263.11 167.5 275.3 167.45 275.49 225.79 263.29 225.84" fill="#76ce89"/></g></g><g style="isolation:isolate"><rect x="280.46" y="169.71" width="12.37" height="56.13" fill="#76ce89"/><g clip-path="url(#clip-path-12)"><polygon points="280.64 225.84 280.46 169.77 292.66 169.72 292.83 225.79 280.64 225.84" fill="#76ce89"/></g></g><g style="isolation:isolate"><rect x="297.81" y="172" width="12.36" height="53.85" fill="#76ce89"/><g clip-path="url(#clip-path-13)"><polygon points="297.98 225.84 297.81 172.04 310.01 171.99 310.17 225.79 297.98 225.84" fill="#76ce89"/></g></g><rect x="315.14" y="192.44" width="12.35" height="33.4" fill="#ffda00"/><g clip-path="url(#clip-path-14)"><polygon points="315.3 225.84 315.14 192.48 327.34 192.44 327.5 225.81 315.3 225.84" fill="#ffda00"/></g><rect x="332.47" y="199.26" width="12.34" height="26.58" fill="#ffda00"/><g clip-path="url(#clip-path-15)"><polygon points="332.62 225.84 332.47 199.29 344.66 199.26 344.81 225.82 332.62 225.84" fill="#ffda00"/></g><rect x="349.79" y="206.08" width="12.33" height="19.76" fill="#ff4200"/><g clip-path="url(#clip-path-16)"><polygon points="349.93 225.84 349.79 206.11 361.99 206.08 362.13 225.82 349.93 225.84" fill="#ff4200"/></g><g style="isolation:isolate"><rect x="367.09" y="172" width="12.33" height="53.85" fill="#76ce89"/><g clip-path="url(#clip-path-17)"><polygon points="367.22 225.84 367.09 172.06 379.29 171.99 379.42 225.78 367.22 225.84" fill="#76ce89"/></g></g><g style="isolation:isolate"><rect x="384.39" y="175.88" width="12.32" height="49.97" fill="#76ce89"/><g clip-path="url(#clip-path-18)"><polygon points="384.51 225.84 384.39 175.94 396.59 175.87 396.71 225.78 384.51 225.84" fill="#76ce89"/></g></g><g style="isolation:isolate"><rect x="401.68" y="178.36" width="12.32" height="47.49" fill="#76ce89"/><g clip-path="url(#clip-path-19)"><polygon points="401.8 225.84 401.68 178.41 413.88 178.35 414 225.78 401.8 225.84" fill="#76ce89"/></g></g><rect x="418.97" y="178.36" width="12.3" height="47.49" fill="#76ce89"/><g clip-path="url(#clip-path-20)"><polygon points="419.07 225.84 418.96 178.43 431.16 178.36 431.26 225.77 419.07 225.84" fill="#76ce89"/></g><g style="isolation:isolate"><rect x="470.72" y="178.36" width="11.86" height="47.49" fill="#76ce89"/><g clip-path="url(#clip-path-21)"><polygon points="470.86 225.84 470.72 178.4 482.44 178.35 482.58 225.79 470.86 225.84" fill="#76ce89"/></g></g><rect x="436.23" y="178.36" width="12.29" height="47.49" fill="#76ce89"/><g clip-path="url(#clip-path-22)"><polygon points="436.32 225.84 436.24 178.46 448.44 178.37 448.52 225.75 436.32 225.84" fill="#76ce89"/></g><rect x="453.49" y="178.36" width="12.26" height="47.49" fill="#76ce89"/><g clip-path="url(#clip-path-23)"><polygon points="453.55 225.84 453.49 178.47 465.69 178.35 465.75 225.72 453.55 225.84" fill="#76ce89"/></g><g style="isolation:isolate"><rect x="71.95" y="148.8" width="12.43" height="77.04" fill="#76ce89"/><g clip-path="url(#clip-path-24)"><polygon points="72.18 225.85 71.94 148.85 84.14 148.8 84.38 225.8 72.18 225.85" fill="#76ce89"/></g></g><g style="isolation:isolate"><rect x="54.53" y="145.7" width="12.44" height="80.14" fill="#76ce89"/><g clip-path="url(#clip-path-25)"><polygon points="54.78 225.84 54.53 145.75 66.73 145.7 66.98 225.79 54.78 225.84" fill="#76ce89"/></g></g><path d="M42.28,85.92c2.43,0,3.71,1,3.71,3.17A2.72,2.72,0,0,1,44.39,92a2.74,2.74,0,0,1,2,2.93c0,2.63-1.51,3.5-3.86,3.5H37.76V85.92Zm-3.13,1.22v4.31h3.2c1.57,0,2.22-.74,2.22-2.24s-.76-2.07-2.34-2.07Zm0,5.51v4.5h3.31c1.51,0,2.5-.48,2.5-2.32s-1.64-2.18-2.59-2.18Z" fill="#4c4c4c"/><path d="M55,96.7c0,.53.47.72,1,.79l0,1.07a2.75,2.75,0,0,1-2.14-.72,9.2,9.2,0,0,1-3.24.72c-1.64,0-2.54-.94-2.54-2.76s.9-2.48,2.75-2.66l2.83-.27v-.78c0-1.26-.54-1.71-1.62-1.71-1.26,0-3.4.24-3.4.24l-.06-1a21.6,21.6,0,0,1,3.53-.4c2,0,2.9.94,2.9,2.9Zm-4-2.55a1.44,1.44,0,0,0-1.53,1.62c0,1,.45,1.65,1.37,1.65a9.48,9.48,0,0,0,2.83-.56v-3Z" fill="#4c4c4c"/><path d="M59.43,90.55v4.3c0,2,.13,2.52,1.3,2.52.5,0,1.6-.11,1.6-.11l.09,1.12a15.43,15.43,0,0,1-1.84.2c-1.85,0-2.48-.71-2.48-3.3V90.55H56.82V89.37H58.1V86.62h1.33v2.75H62.3v1.18Z" fill="#4c4c4c"/><path d="M65.75,90.55v4.3c0,2,.13,2.52,1.3,2.52.5,0,1.6-.11,1.6-.11l.09,1.12a15.71,15.71,0,0,1-1.84.2c-1.85,0-2.48-.71-2.48-3.3V90.55H63.14V89.37h1.28V86.62h1.33v2.75h2.86v1.18Z" fill="#4c4c4c"/><path d="M76.91,97.21l0,1.06a31.12,31.12,0,0,1-3.51.29c-2.69,0-3.57-1.57-3.57-4.63,0-3.42,1.48-4.74,3.77-4.74s3.61,1.27,3.61,4.22l-.07,1H71.24c0,1.93.6,2.94,2.36,2.94C75,97.37,76.91,97.21,76.91,97.21Zm-1-3.86c0-2.23-.68-3-2.26-3s-2.4.85-2.42,3Z" fill="#4c4c4c"/><path d="M79.36,89.37h1.33V90.6A10.17,10.17,0,0,1,84,89.18v1.37a13,13,0,0,0-3.28,1.22v6.61H79.36Z" fill="#4c4c4c"/><path d="M86.09,89.37l2.25,7.84h.6l2.26-7.84h1.35l-3.74,13H87.46l1.17-4H87.3l-2.56-9Z" fill="#4c4c4c"/><path d="M98.47,98.38V85.92h1.39V97.14h5.47v1.24Z" fill="#4c4c4c"/><path d="M113.51,97.21l0,1.06a31.12,31.12,0,0,1-3.51.29c-2.68,0-3.56-1.57-3.56-4.63,0-3.42,1.47-4.74,3.76-4.74s3.62,1.27,3.62,4.22l-.07,1h-6c0,1.93.6,2.94,2.36,2.94C111.54,97.37,113.51,97.21,113.51,97.21Zm-1-3.86c0-2.23-.69-3-2.27-3s-2.4.85-2.41,3Z" fill="#4c4c4c"/><path d="M116.55,89.37l2.1,7.84h.67l2.18-7.84h1.38l-2.54,9h-2.7l-2.53-9Z" fill="#4c4c4c"/><path d="M131.25,97.21l0,1.06a31.12,31.12,0,0,1-3.51.29c-2.69,0-3.57-1.57-3.57-4.63,0-3.42,1.48-4.74,3.77-4.74s3.61,1.27,3.61,4.22l-.07,1h-5.94c0,1.93.6,2.94,2.36,2.94C129.29,97.37,131.25,97.21,131.25,97.21Zm-1-3.86c0-2.23-.68-3-2.26-3s-2.4.85-2.42,3Z" fill="#4c4c4c"/><path d="M133.81,85.45h1.35V98.38h-1.35Z" fill="#4c4c4c"/><path d="M39.76,275.67h2.5l3.53,10.53,3.53-10.53h2.5v12.46H50.44v-11h-.26l-3.61,10.53H45L41.4,277.15h-.25v11H39.76Z" fill="#4c4c4c"/><path d="M61,286.45c0,.53.47.72,1,.8L62,288.31a2.75,2.75,0,0,1-2.14-.72,9.2,9.2,0,0,1-3.24.72c-1.64,0-2.54-.94-2.54-2.76s.9-2.48,2.75-2.66l2.83-.27v-.77c0-1.27-.54-1.71-1.62-1.71-1.26,0-3.4.23-3.4.23l-.06-1A22.13,22.13,0,0,1,58.1,279c2,0,2.9.93,2.9,2.9Zm-4-2.55c-1.1.11-1.53.63-1.53,1.62s.45,1.65,1.36,1.65a9.63,9.63,0,0,0,2.83-.55v-3Z" fill="#4c4c4c"/><path d="M63.66,275.53H65v1.56H63.66Zm0,3.6H65v9H63.66Z" fill="#4c4c4c"/><path d="M67.61,288.13v-9h1.33v.63a6.85,6.85,0,0,1,2.79-.81c2.48,0,3,1.22,3,4.43v4.75H73.44v-4.72c0-2.38-.27-3.26-1.94-3.26a6.12,6.12,0,0,0-2.54.67v7.31Z" fill="#4c4c4c"/><path d="M79.07,280.3v4.3c0,2,.13,2.52,1.3,2.52.5,0,1.6-.11,1.6-.11l.09,1.12a15.71,15.71,0,0,1-1.84.2c-1.85,0-2.48-.7-2.48-3.3V280.3H76.46v-1.17h1.28v-2.76h1.33v2.76h2.86v1.17Z" fill="#4c4c4c"/><path d="M90.23,287l0,1.06a31.12,31.12,0,0,1-3.51.29c-2.68,0-3.57-1.57-3.57-4.63,0-3.42,1.48-4.73,3.77-4.73s3.62,1.26,3.62,4.21l-.08,1H84.56c0,1.92.6,2.93,2.36,2.93C88.27,287.12,90.23,287,90.23,287Zm-1-3.85c0-2.24-.68-3-2.26-3s-2.4.85-2.42,3Z" fill="#4c4c4c"/><path d="M92.68,288.13v-9H94v.63A6.85,6.85,0,0,1,96.8,279c2.49,0,3,1.22,3,4.43v4.75H98.51v-4.72c0-2.38-.27-3.26-1.94-3.26a6.12,6.12,0,0,0-2.54.67v7.31Z" fill="#4c4c4c"/><path d="M108.7,286.45c0,.53.47.72,1,.8l-.06,1.06a2.75,2.75,0,0,1-2.14-.72,9.2,9.2,0,0,1-3.24.72c-1.64,0-2.54-.94-2.54-2.76s.9-2.48,2.75-2.66l2.83-.27v-.77c0-1.27-.54-1.71-1.62-1.71-1.26,0-3.4.23-3.4.23l-.06-1a22.13,22.13,0,0,1,3.53-.39c2,0,2.9.93,2.9,2.9Zm-4-2.55c-1.1.11-1.53.63-1.53,1.62s.45,1.65,1.36,1.65a9.63,9.63,0,0,0,2.83-.55v-3Z" fill="#4c4c4c"/><path d="M111.36,288.13v-9h1.34v.63a6.79,6.79,0,0,1,2.79-.81c2.48,0,3,1.22,3,4.43v4.75H117.2v-4.72c0-2.38-.27-3.26-2-3.26a6.18,6.18,0,0,0-2.54.67v7.31Z" fill="#4c4c4c"/><path d="M126.85,279.22l-.06,1.09s-1.44-.16-2.12-.16c-2.07,0-2.63.9-2.63,3.32,0,2.66.41,3.63,2.64,3.63.69,0,2.13-.16,2.13-.16l0,1.12a24,24,0,0,1-2.5.25c-2.86,0-3.71-1.32-3.71-4.84,0-3.26,1.06-4.52,3.75-4.52A21.18,21.18,0,0,1,126.85,279.22Z" fill="#4c4c4c"/><path d="M135.52,287l0,1.06a31.38,31.38,0,0,1-3.51.29c-2.69,0-3.57-1.57-3.57-4.63,0-3.42,1.48-4.73,3.76-4.73s3.62,1.26,3.62,4.21l-.07,1h-5.94c0,1.92.59,2.93,2.36,2.93C133.56,287.12,135.52,287,135.52,287Zm-1-3.85c0-2.24-.68-3-2.27-3s-2.39.85-2.41,3Z" fill="#4c4c4c"/></g></g></svg>