<svg xmlns="http://www.w3.org/2000/svg" xmlns:xlink="http://www.w3.org/1999/xlink" viewBox="0 0 566.31 517.94"><defs><clipPath id="clip-path"><rect x="86.63" y="152.47" width="13.36" height="71.21" fill="#76ce89"/></clipPath><clipPath id="clip-path-2"><rect x="103.98" y="154.46" width="13.36" height="69.23" fill="#76ce89"/></clipPath><clipPath id="clip-path-3"><rect x="121.33" y="157.43" width="13.35" height="66.25" fill="#76ce89"/></clipPath><clipPath id="clip-path-4"><rect x="138.68" y="157.76" width="13.35" height="65.92" fill="#76ce89"/></clipPath><clipPath id="clip-path-5"><rect x="156.02" y="157.77" width="13.34" height="65.91" fill="#76ce89"/></clipPath><clipPath id="clip-path-6"><rect x="173.35" y="157.76" width="13.34" height="65.92" fill="#76ce89"/></clipPath><clipPath id="clip-path-7"><rect x="190.68" y="161.1" width="13.34" height="62.58" fill="#76ce89"/></clipPath><clipPath id="clip-path-8"><rect x="208.01" y="163.32" width="13.32" height="60.36" fill="#76ce89"/></clipPath><clipPath id="clip-path-9"><rect x="225.32" y="163.32" width="13.32" height="60.36" fill="#76ce89"/></clipPath><clipPath id="clip-path-10"><rect x="242.63" y="165.53" width="13.32" height="58.15" fill="#76ce89"/></clipPath><clipPath id="clip-path-11"><rect x="259.94" y="166.65" width="13.32" height="57.03" fill="#76ce89"/></clipPath><clipPath id="clip-path-12"><rect x="277.25" y="168.86" width="13.31" height="54.82" fill="#76ce89"/></clipPath><clipPath id="clip-path-13"><rect x="294.55" y="171.09" width="13.3" height="52.59" fill="#76ce89"/></clipPath><clipPath id="clip-path-14"><rect x="311.84" y="174.41" width="13.29" height="49.27" fill="#ffda00"/></clipPath><clipPath id="clip-path-15"><rect x="329.12" y="176.63" width="13.28" height="47.05" fill="#ffda00"/></clipPath><clipPath id="clip-path-16"><rect x="346.38" y="204.38" width="13.27" height="19.3" fill="#ff4200"/></clipPath><clipPath id="clip-path-17"><rect x="363.64" y="174.41" width="13.26" height="49.27" fill="#76ce89"/></clipPath><clipPath id="clip-path-18"><rect x="380.89" y="179.96" width="13.22" height="43.72" fill="#76ce89"/></clipPath><clipPath id="clip-path-19"><rect x="449.76" y="181.5" width="13.28" height="42.19" fill="#76ce89"/></clipPath><clipPath id="clip-path-20"><rect x="432.49" y="181.5" width="13.28" height="42.19" fill="#76ce89"/></clipPath><clipPath id="clip-path-21"><rect x="467.03" y="181.5" width="13.28" height="42.19" fill="#76ce89"/></clipPath><clipPath id="clip-path-22"><rect x="398.1" y="181.5" width="13.22" height="42.19" fill="#76ce89"/></clipPath><clipPath id="clip-path-23"><rect x="415.32" y="181.5" width="13.18" height="42.19" fill="#76ce89"/></clipPath><clipPath id="clip-path-24"><rect x="69.27" y="148.48" width="13.37" height="75.24" fill="#76ce89"/></clipPath><clipPath id="clip-path-25"><rect x="51.9" y="145.51" width="13.38" height="78.27" fill="#76ce89"/></clipPath></defs><title>r_1_B_Screen</title><g id="Layer_2" data-name="Layer 2">

<g id="AGV3_Sel_Box"><rect width="566.31" height="517.94" fill="rgba(0,0,0,0)"/></g>
<g id="Layer_1-2" data-name="Layer 1"><path d="M39.51,368.1H41l2.15,6.43,2.16-6.43h1.53v7.61H46V369h-.15l-2.21,6.43h-1L40.51,369h-.15v6.71h-.85Z" fill="#4c4c4c"/><path d="M52.49,374.69c0,.32.29.44.64.48l0,.65a1.67,1.67,0,0,1-1.31-.44,5.62,5.62,0,0,1-2,.44c-1,0-1.56-.57-1.56-1.68s.55-1.52,1.69-1.63l1.72-.17v-.47c0-.77-.33-1.05-1-1.05s-2.07.15-2.07.15l0-.63a13.44,13.44,0,0,1,2.16-.24c1.24,0,1.77.57,1.77,1.77ZM50,373.12c-.68.07-.94.39-.94,1s.28,1,.84,1a5.81,5.81,0,0,0,1.72-.34V373Z" fill="#4c4c4c"/><path d="M54.12,370.21h.81V371a6.27,6.27,0,0,1,2-.87v.83a8,8,0,0,0-2,.75v4h-.82Z" fill="#4c4c4c"/><path d="M98.13,368.1H100l2.1,7.61h-.84l-.55-2H97.42l-.55,2H96ZM97.61,373h2.88l-1.15-4.17h-.58Z" fill="#4c4c4c"/><path d="M103.12,370.21h.81v.4a3.74,3.74,0,0,1,1.65-.51c1.39,0,2,.85,2,2.79,0,2.16-.71,2.93-2.4,2.93a7.37,7.37,0,0,1-1.23-.12v2.45h-.83Zm.83,1.07V375a7.12,7.12,0,0,0,1.18.12c1.21,0,1.61-.62,1.61-2.21s-.47-2.05-1.28-2.05A3.57,3.57,0,0,0,104,371.28Z" fill="#4c4c4c"/><path d="M108.92,370.21h.81V371a6.27,6.27,0,0,1,2-.87v.83a8,8,0,0,0-2,.75v4h-.82Z" fill="#4c4c4c"/><path d="M152.86,374.66c0,1.65-.64,1.84-2.09,1.84v-.76c1,0,1.24-.06,1.24-1.2V368.1h.84Z" fill="#4c4c4c"/><path d="M158.8,370.21v5.5H158v-.39a3.72,3.72,0,0,1-1.63.5c-1.54,0-1.86-.72-1.86-2.74v-2.87h.82v2.86c0,1.52.14,2,1.16,2a3.42,3.42,0,0,0,1.51-.4v-4.47Z" fill="#4c4c4c"/><path d="M160.38,375.71v-5.5h.82v.38a4.2,4.2,0,0,1,1.7-.49c1.52,0,1.86.75,1.86,2.7v2.91H164v-2.88c0-1.46-.17-2-1.19-2a3.82,3.82,0,0,0-1.55.4v4.47Z" fill="#4c4c4c"/><path d="M206.43,374.66c0,1.65-.64,1.84-2.09,1.84v-.76c1,0,1.24-.06,1.24-1.2V368.1h.84Z" fill="#4c4c4c"/><path d="M212.37,370.21v5.5h-.83v-.39a3.65,3.65,0,0,1-1.62.5c-1.54,0-1.86-.72-1.86-2.74v-2.87h.82v2.86c0,1.52.13,2,1.16,2a3.35,3.35,0,0,0,1.5-.4v-4.47Z" fill="#4c4c4c"/><path d="M214,367.81h.82v7.9H214Z" fill="#4c4c4c"/><path d="M256.7,368.1h1.85l2.09,7.61h-.84l-.55-2H256l-.55,2h-.83Zm-.52,4.89h2.88l-1.15-4.17h-.57Z" fill="#4c4c4c"/><path d="M266,370.21v5.5h-.83v-.39a3.65,3.65,0,0,1-1.62.5c-1.54,0-1.86-.72-1.86-2.74v-2.87h.82v2.86c0,1.52.13,2,1.16,2a3.35,3.35,0,0,0,1.5-.4v-4.47Z" fill="#4c4c4c"/><path d="M267.29,376.63c0-.63.3-.93.87-1.36a.89.89,0,0,1-.31-.76,3.51,3.51,0,0,1,.38-.87,1.59,1.59,0,0,1-.87-1.66c0-1.35.83-1.88,2.05-1.88a5.91,5.91,0,0,1,1.15.14l1.63,0v.7l-1.05,0a1.43,1.43,0,0,1,.36,1.1c0,1.43-.71,1.86-2.12,1.86a3.39,3.39,0,0,1-.54,0,3.37,3.37,0,0,0-.2.63c0,.44.09.51,1.33.51,1.57,0,2.13.31,2.13,1.61s-.89,1.75-2.44,1.75C267.92,378.29,267.29,377.91,267.29,376.63Zm1.43-1c-.46.34-.62.54-.62,1,0,.76.32,1,1.57,1,1.1,0,1.59-.3,1.59-1s-.35-.93-1.35-.93C269.52,375.65,268.72,375.6,268.72,375.6Zm2-3.62c0-.87-.34-1.21-1.27-1.21s-1.23.34-1.23,1.21.38,1.2,1.23,1.2S270.68,372.85,270.68,372Z" fill="#4c4c4c"/><path d="M316.24,368.91s-1.53-.19-2.17-.19c-1.07,0-1.65.39-1.65,1.25s.53,1.15,1.86,1.45c1.52.34,2.19.71,2.19,2,0,1.69-.92,2.35-2.43,2.35a20.26,20.26,0,0,1-2.41-.24l.09-.71s1.5.2,2.28.2c1.07,0,1.63-.47,1.63-1.53,0-.86-.46-1.1-1.7-1.34-1.57-.34-2.36-.72-2.36-2.17s1-2,2.45-2a19,19,0,0,1,2.3.22Z" fill="#4c4c4c"/><path d="M321.85,375l0,.65a18.65,18.65,0,0,1-2.14.18c-1.64,0-2.18-1-2.18-2.83,0-2.09.9-2.89,2.3-2.89s2.21.77,2.21,2.57l0,.63h-3.64c0,1.18.37,1.79,1.45,1.79C320.65,375.09,321.85,375,321.85,375Zm-.62-2.35c0-1.36-.41-1.85-1.38-1.85s-1.47.52-1.48,1.85Z" fill="#4c4c4c"/><path d="M323.35,370.21h.81v.4a3.74,3.74,0,0,1,1.65-.51c1.39,0,2,.85,2,2.79,0,2.16-.7,2.93-2.4,2.93a7.64,7.64,0,0,1-1.23-.12v2.45h-.82Zm.82,1.07V375a7.27,7.27,0,0,0,1.19.12c1.21,0,1.61-.62,1.61-2.21s-.48-2.05-1.28-2.05A3.59,3.59,0,0,0,324.17,371.28Z" fill="#4c4c4c"/><path d="M367.62,371.94c0-2.51.65-3.95,3-3.95s3,1.42,3,3.95-.65,3.88-3,3.88S367.62,374.49,367.62,371.94Zm5.14,0c0-2.06-.4-3.21-2.14-3.21s-2.13,1.14-2.13,3.21.37,3.13,2.13,3.13S372.76,374.08,372.76,371.94Z" fill="#4c4c4c"/><path d="M378.6,370.26l0,.67s-.88-.09-1.3-.09c-1.27,0-1.61.55-1.61,2,0,1.63.25,2.22,1.62,2.22.42,0,1.3-.1,1.3-.1l0,.69a14.87,14.87,0,0,1-1.53.15c-1.75,0-2.27-.8-2.27-3,0-2,.65-2.76,2.29-2.76A13.14,13.14,0,0,1,378.6,370.26Z" fill="#4c4c4c"/><path d="M380.94,370.92v2.63c0,1.2.08,1.54.79,1.54.31,0,1-.06,1-.06l.06.68a9.79,9.79,0,0,1-1.12.12c-1.14,0-1.52-.43-1.52-2v-2.9h-.78v-.71h.78v-1.68h.81v1.68h1.75v.71Z" fill="#4c4c4c"/><path d="M422.49,368.1h1.58L427,375h.23V368.1h.83v7.61H426.5l-3-6.87h-.21v6.87h-.84Z" fill="#4c4c4c"/><path d="M434.25,372.89c0,2-.5,2.93-2.36,2.93s-2.35-.92-2.35-2.93.61-2.79,2.35-2.79S434.25,371,434.25,372.89Zm-.85,0c0-1.53-.33-2.08-1.51-2.08s-1.51.55-1.51,2.08.21,2.21,1.51,2.21S433.4,374.45,433.4,372.89Z" fill="#4c4c4c"/><path d="M435.85,370.21l1.29,4.78h.41l1.33-4.78h.84l-1.55,5.5h-1.65l-1.55-5.5Z" fill="#4c4c4c"/><path d="M479.57,375.71V368.1h2.71c2.21,0,2.82,1.54,2.82,3.69s-.57,3.92-2.82,3.92Zm2.71-6.87h-1.87V375h1.87c1.59,0,2-1.52,2-3.17S483.87,368.84,482.28,368.84Z" fill="#4c4c4c"/><path d="M490.58,375l0,.65a18.93,18.93,0,0,1-2.15.18c-1.64,0-2.18-1-2.18-2.83,0-2.09.91-2.89,2.3-2.89s2.22.77,2.22,2.57l-.05.63h-3.63c0,1.18.36,1.79,1.44,1.79C489.38,375.09,490.58,375,490.58,375Zm-.62-2.35c0-1.36-.42-1.85-1.39-1.85s-1.46.52-1.47,1.85Z" fill="#4c4c4c"/><path d="M495.63,370.26l0,.67s-.88-.09-1.3-.09c-1.26,0-1.6.55-1.6,2,0,1.63.25,2.22,1.61,2.22.42,0,1.3-.1,1.3-.1l0,.69a15.21,15.21,0,0,1-1.53.15c-1.75,0-2.27-.8-2.27-3,0-2,.65-2.76,2.29-2.76A13.44,13.44,0,0,1,495.63,370.26Z" fill="#4c4c4c"/><path d="M44.3,33h3.36l3.81,13.84H49.94l-1-3.56H43l-1,3.56H40.5Zm-.94,8.9H48.6L46.5,34.3h-1Z"/><path d="M59.12,39.74h3.82v6.8a33.71,33.71,0,0,1-4.5.48c-4.24,0-5.36-2.6-5.36-7.08s1.16-7.16,5.32-7.16a25.77,25.77,0,0,1,4.54.52l0,1.28a32,32,0,0,0-4.31-.42c-3.2,0-3.9,1.86-3.9,5.78s.68,5.72,3.88,5.72a18.85,18.85,0,0,0,2.87-.28V41.12H59.12Z"/><path d="M75.43,33,71.81,46.82H68.36L64.74,33h1.6l3.18,12.48h1.13L73.83,33Z"/><path d="M89.84,33.62V35H83.42l-.36,4.3a7.62,7.62,0,0,1,3.1-.82c2.58,0,4.2,1.08,4.2,3.9,0,3-1.66,4.6-4.42,4.6a21.77,21.77,0,0,1-4.38-.58l.18-1.22a26.33,26.33,0,0,0,4.06.44,2.79,2.79,0,0,0,3-3.12c0-2-1.12-2.64-2.8-2.64a7.57,7.57,0,0,0-3.14.8l-1.06-.2.36-6.86Z"/><line x1="494.76" y1="362.26" x2="35.82" y2="362.26" fill="none" stroke="#adadad" stroke-miterlimit="10"/><polyline points="40.01 357.76 82.3 355.57 115.65 351.18 137.09 348.54 153.76 343.27 174.01 338.88 192.19 337.31 209.06 330.72 220.47 322.19 231.19 318.68 246.67 314.29 266.92 311.65 283.6 307.26 295.51 307.26 309.8 311.65 324.09 313.41 337.2 318.68 350.3 323.07 362.21 324.83 383.65 329.22 395.56 336.25 408.66 343.27 418.19 347.66 433.68 352.05 443.2 354.69 464.64 357.32 479.53 355.13 491.44 349.86" fill="none" stroke="#3899e8"/><polyline points="38.82 357.76 81.11 355.57 114.46 351.18 135.9 348.54 152.57 343.27 172.82 338.88 191 337.31 207.87 330.72 219.28 322.19 230 318.68 245.48 315.17 265.73 313.41 282.4 309.02 294.32 307.26 308.61 311.65 322.9 313.41 336 318.68 349.11 323.07 361.02 324.83 382.46 329.22 394.37 336.25 407.47 343.27 417 347.66 432.49 352.05 442.01 354.69 463.45 357.32 478.34 355.13 490.25 349.86" fill="none" stroke="#8dc5f2"/><rect x="38.78" y="299.74" width="451.79" height="58.52" fill="none"/><path d="M42,435.24h9v1.24H47.18V447.7H45.81V436.48H42Z" fill="#3a3d3f"/><path d="M59.81,443.09c0,3.28-.81,4.79-3.85,4.79s-3.85-1.51-3.85-4.79c0-3.1,1-4.57,3.85-4.57S59.81,440,59.81,443.09Zm-1.38,0c0-2.5-.54-3.4-2.47-3.4s-2.47.9-2.47,3.4.34,3.62,2.47,3.62S58.43,445.65,58.43,443.09Z" fill="#3a3d3f"/><path d="M68.92,447.7H67.59v-.61a6.49,6.49,0,0,1-2.74.79c-1.76,0-3.24-.72-3.24-4.61,0-3.17,1-4.75,3.76-4.75a15.79,15.79,0,0,1,2.22.23v-4h1.33ZM67.59,446V439.9a16.26,16.26,0,0,0-2.15-.21c-1.89,0-2.44,1.24-2.44,3.58,0,2.92,1,3.4,2,3.4A6.62,6.62,0,0,0,67.59,446Z" fill="#3a3d3f"/><path d="M77.88,446c0,.52.47.72,1.05.79l-.06,1.06a2.75,2.75,0,0,1-2.14-.72,9.2,9.2,0,0,1-3.24.72c-1.64,0-2.54-.94-2.54-2.76s.9-2.48,2.76-2.66l2.82-.27v-.77c0-1.27-.54-1.72-1.62-1.72-1.26,0-3.4.24-3.4.24l-.05-1a22.1,22.1,0,0,1,3.52-.39c2,0,2.9.93,2.9,2.9Zm-4-2.56c-1.1.11-1.53.63-1.53,1.62s.45,1.66,1.37,1.66a9.47,9.47,0,0,0,2.82-.56v-3Z" fill="#3a3d3f"/><path d="M81.05,438.7l2.25,7.83h.59l2.27-7.83h1.35l-3.74,13H82.42l1.17-4H82.26l-2.56-9Z" fill="#3a3d3f"/><path d="M93.2,435.1h1.35v1.56H93.2Zm0,3.6h1.35v9H93.2Z" fill="#3a3d3f"/><path d="M98.94,439.87v4.3c0,2,.13,2.52,1.3,2.52.5,0,1.6-.11,1.6-.11l.09,1.12a15.71,15.71,0,0,1-1.84.2c-1.85,0-2.48-.7-2.48-3.3v-4.73H96.33V438.7h1.28v-2.76h1.33v2.76h2.86v1.17Z" fill="#3a3d3f"/><path d="M107.42,435.1h1.35v1.56h-1.35Zm0,3.6h1.35v9h-1.35Z" fill="#3a3d3f"/><path d="M117.34,440a29.33,29.33,0,0,0-3.15-.29c-1.12,0-2,.31-2,1.37,0,.85.44,1.08,2.34,1.41,2.26.37,3.1.82,3.1,2.57,0,2.11-1.33,2.81-3.49,2.81a25.65,25.65,0,0,1-3.17-.34l.07-1.17s2.05.3,3,.3c1.48,0,2.27-.32,2.27-1.55,0-.93-.47-1.17-2.43-1.47s-3-.7-3-2.5c0-2,1.61-2.63,3.24-2.63a23,23,0,0,1,3.26.34Z" fill="#3a3d3f"/><path d="M123.69,438.7H125v.64a6.17,6.17,0,0,1,2.7-.82c2.27,0,3.26,1.38,3.26,4.57,0,3.53-1.15,4.79-3.92,4.79a11,11,0,0,1-2-.2v4h-1.35Zm1.35,1.74v6.07a12.8,12.8,0,0,0,1.95.2c2,0,2.62-1,2.62-3.62s-.77-3.37-2.08-3.37A5.87,5.87,0,0,0,125,440.44Z" fill="#3a3d3f"/><path d="M140.49,443.09c0,3.28-.81,4.79-3.86,4.79s-3.85-1.51-3.85-4.79c0-3.1,1-4.57,3.85-4.57S140.49,440,140.49,443.09Zm-1.39,0c0-2.5-.54-3.4-2.47-3.4s-2.46.9-2.46,3.4.34,3.62,2.46,3.62S139.1,445.65,139.1,443.09Z" fill="#3a3d3f"/><path d="M148.66,440a29.33,29.33,0,0,0-3.15-.29c-1.12,0-2,.31-2,1.37,0,.85.44,1.08,2.35,1.41,2.25.37,3.09.82,3.09,2.57,0,2.11-1.33,2.81-3.49,2.81a25.65,25.65,0,0,1-3.17-.34l.07-1.17s2.05.3,3,.3c1.48,0,2.27-.32,2.27-1.55,0-.93-.47-1.17-2.43-1.47s-3-.7-3-2.5c0-2,1.61-2.63,3.25-2.63a23,23,0,0,1,3.25.34Z" fill="#3a3d3f"/><path d="M157,440a29.33,29.33,0,0,0-3.15-.29c-1.12,0-2,.31-2,1.37,0,.85.43,1.08,2.34,1.41,2.25.37,3.09.82,3.09,2.57,0,2.11-1.33,2.81-3.49,2.81a25.65,25.65,0,0,1-3.17-.34l.07-1.17s2.05.3,3,.3c1.48,0,2.27-.32,2.27-1.55,0-.93-.47-1.17-2.43-1.47s-3-.7-3-2.5c0-2,1.61-2.63,3.25-2.63a23,23,0,0,1,3.25.34Z" fill="#3a3d3f"/><path d="M159.42,435.1h1.35v1.56h-1.35Zm0,3.6h1.35v9h-1.35Z" fill="#3a3d3f"/><path d="M170.62,443.05c0,3.59-1,4.83-4.25,4.83-1.08,0-3-.2-3-.2V434.77h1.33v4.38a7.44,7.44,0,0,1,2.65-.63C169.79,438.52,170.62,439.81,170.62,443.05Zm-1.37,0c0-2.32-.47-3.33-2.05-3.33a7.47,7.47,0,0,0-2.51.53v6.33s1.17.09,1.66.09C168.82,446.67,169.25,445.57,169.25,443.05Z" fill="#3a3d3f"/><path d="M172.94,434.77h1.35V447.7h-1.35Z" fill="#3a3d3f"/><path d="M183.63,446.53l0,1.06a31.12,31.12,0,0,1-3.51.29c-2.69,0-3.57-1.57-3.57-4.63,0-3.42,1.48-4.73,3.76-4.73s3.62,1.26,3.62,4.21l-.07,1H178c0,1.92.6,2.93,2.36,2.93C181.67,446.69,183.63,446.53,183.63,446.53Zm-1-3.85c0-2.24-.68-3-2.27-3s-2.39.85-2.41,3Z" fill="#3a3d3f"/><path d="M191.84,439.87v4.3c0,2,.12,2.52,1.3,2.52.5,0,1.6-.11,1.6-.11l.09,1.12a15.71,15.71,0,0,1-1.84.2c-1.85,0-2.48-.7-2.48-3.3v-4.73h-1.28V438.7h1.28v-2.76h1.33v2.76h2.86v1.17Z" fill="#3a3d3f"/><path d="M203.67,443.09c0,3.28-.81,4.79-3.86,4.79s-3.85-1.51-3.85-4.79c0-3.1,1-4.57,3.85-4.57S203.67,440,203.67,443.09Zm-1.39,0c0-2.5-.54-3.4-2.47-3.4s-2.46.9-2.46,3.4.34,3.62,2.46,3.62S202.28,445.65,202.28,443.09Z" fill="#3a3d3f"/><path d="M216.79,438.7v9h-1.35v-.63a6.08,6.08,0,0,1-2.67.81c-2.52,0-3-1.17-3-4.48v-4.7h1.35v4.68c0,2.48.22,3.29,1.89,3.29a5.53,5.53,0,0,0,2.47-.66V438.7Z" fill="#3a3d3f"/><path d="M225.36,440a29.33,29.33,0,0,0-3.16-.29c-1.11,0-2,.31-2,1.37,0,.85.43,1.08,2.34,1.41,2.25.37,3.1.82,3.1,2.57,0,2.11-1.33,2.81-3.49,2.81a25.4,25.4,0,0,1-3.17-.34l.07-1.17s2,.3,3,.3c1.48,0,2.27-.32,2.27-1.55,0-.93-.47-1.17-2.43-1.47s-3-.7-3-2.5c0-2,1.6-2.63,3.24-2.63a23.19,23.19,0,0,1,3.26.34Z" fill="#3a3d3f"/><path d="M234.39,446.53l0,1.06a31.12,31.12,0,0,1-3.51.29c-2.69,0-3.57-1.57-3.57-4.63,0-3.42,1.48-4.73,3.76-4.73s3.62,1.26,3.62,4.21l-.07,1h-5.94c0,1.92.59,2.93,2.36,2.93C232.43,446.69,234.39,446.53,234.39,446.53Zm-1-3.85c0-2.24-.68-3-2.27-3s-2.39.85-2.41,3Z" fill="#3a3d3f"/><path d="M243.35,435.24h3l3.42,12.46h-1.37l-.9-3.21H242.2l-.9,3.21h-1.37Zm-.84,8h4.72l-1.89-6.82h-.94Z" fill="#3a3d3f"/><path d="M256.69,441.33h3.44v6.12a30.76,30.76,0,0,1-4.05.43c-3.82,0-4.82-2.34-4.82-6.37s1-6.45,4.78-6.45a23,23,0,0,1,4.09.47l-.05,1.15a28.37,28.37,0,0,0-3.87-.38c-2.88,0-3.51,1.68-3.51,5.21s.61,5.14,3.49,5.14a16.58,16.58,0,0,0,2.57-.25v-3.83h-2.07Z" fill="#3a3d3f"/><path d="M271.36,435.24,268.1,447.7H265l-3.26-12.46h1.44l2.86,11.23h1l2.86-11.23Z" fill="#3a3d3f"/><path d="M282.23,445.38h-5.76V444.3l3.39-8.48h1.51l-3.44,8.33h4.3v-3.71h1.39v3.71h1.51v1.23h-1.51v2.32h-1.39Z" fill="#3a3d3f"/><path d="M297.44,446c0,.52.47.72,1.05.79l-.05,1.06a2.76,2.76,0,0,1-2.15-.72,9.2,9.2,0,0,1-3.24.72c-1.64,0-2.54-.94-2.54-2.76s.9-2.48,2.76-2.66l2.82-.27v-.77c0-1.27-.54-1.72-1.62-1.72-1.26,0-3.4.24-3.4.24l-.05-1a22.13,22.13,0,0,1,3.53-.39c2,0,2.89.93,2.89,2.9Zm-4-2.56c-1.1.11-1.53.63-1.53,1.62s.45,1.66,1.37,1.66a9.47,9.47,0,0,0,2.82-.56v-3Z" fill="#3a3d3f"/><path d="M301.91,439.87v4.3c0,2,.12,2.52,1.29,2.52.51,0,1.61-.11,1.61-.11l.09,1.12a15.71,15.71,0,0,1-1.84.2c-1.86,0-2.49-.7-2.49-3.3v-4.73H299.3V438.7h1.27v-2.76h1.34v2.76h2.86v1.17Z" fill="#3a3d3f"/><path d="M310.38,435.1h1.35v1.56h-1.35Zm0,3.6h1.35v9h-1.35Z" fill="#3a3d3f"/><path d="M316.13,439.87v4.3c0,2,.12,2.52,1.29,2.52.51,0,1.61-.11,1.61-.11l.09,1.12a15.71,15.71,0,0,1-1.84.2c-1.85,0-2.48-.7-2.48-3.3v-4.73h-1.28V438.7h1.28v-2.76h1.33v2.76H319v1.17Z" fill="#3a3d3f"/><path d="M326.62,440a29.33,29.33,0,0,0-3.15-.29c-1.11,0-2,.31-2,1.37,0,.85.43,1.08,2.34,1.41,2.25.37,3.1.82,3.1,2.57,0,2.11-1.34,2.81-3.5,2.81a25.4,25.4,0,0,1-3.16-.34l.07-1.17s2.05.3,3,.3c1.48,0,2.27-.32,2.27-1.55,0-.93-.47-1.17-2.43-1.47s-3-.7-3-2.5c0-2,1.6-2.63,3.24-2.63a23.19,23.19,0,0,1,3.26.34Z" fill="#3a3d3f"/><path d="M334.7,447.7h-1.35v-7.83h-1.13V438.7h1.13v-.81c0-2.6.67-3.3,2.43-3.3.62,0,1.82.13,1.82.13v1.11s-1,0-1.55,0c-1,0-1.34.43-1.34,2.1v.8h2.61v1.17H334.7Z" fill="#3a3d3f"/><path d="M345.9,438.7v9h-1.35v-.63a6.07,6.07,0,0,1-2.66.81c-2.52,0-3.05-1.17-3.05-4.48v-4.7h1.35v4.68c0,2.48.22,3.29,1.89,3.29a5.48,5.48,0,0,0,2.47-.66V438.7Z" fill="#3a3d3f"/><path d="M348.6,434.77H350V447.7H348.6Z" fill="#3a3d3f"/><path d="M352.76,434.77h1.35V447.7h-1.35Z" fill="#3a3d3f"/><path d="M360.77,438.7h1.33v.64a6.17,6.17,0,0,1,2.7-.82c2.27,0,3.26,1.38,3.26,4.57,0,3.53-1.15,4.79-3.93,4.79a11,11,0,0,1-2-.2v4h-1.35Zm1.35,1.74v6.07a12.78,12.78,0,0,0,1.94.2c2,0,2.63-1,2.63-3.62s-.77-3.37-2.09-3.37A5.86,5.86,0,0,0,362.12,440.44Z" fill="#3a3d3f"/><path d="M376.9,446.53l0,1.06a31.12,31.12,0,0,1-3.51.29c-2.68,0-3.56-1.57-3.56-4.63,0-3.42,1.47-4.73,3.76-4.73s3.62,1.26,3.62,4.21l-.07,1h-5.94c0,1.92.59,2.93,2.35,2.93C374.94,446.69,376.9,446.53,376.9,446.53Zm-1-3.85c0-2.24-.68-3-2.27-3s-2.39.85-2.41,3Z" fill="#3a3d3f"/><path d="M379.34,438.7h1.34v1.22A10.06,10.06,0,0,1,384,438.5v1.37a13.15,13.15,0,0,0-3.28,1.22v6.61h-1.35Z" fill="#3a3d3f"/><path d="M387.3,447.7H386v-7.83h-1.14V438.7H386v-.81c0-2.6.67-3.3,2.43-3.3.61,0,1.82.13,1.82.13l0,1.11s-1,0-1.55,0c-1,0-1.33.43-1.33,2.1v.8h2.61v1.17H387.3Z" fill="#3a3d3f"/><path d="M398.84,443.09c0,3.28-.81,4.79-3.85,4.79s-3.86-1.51-3.86-4.79c0-3.1,1-4.57,3.86-4.57S398.84,440,398.84,443.09Zm-1.39,0c0-2.5-.54-3.4-2.46-3.4s-2.47.9-2.47,3.4.34,3.62,2.47,3.62S397.45,445.65,397.45,443.09Z" fill="#3a3d3f"/><path d="M401,438.7h1.34v1.22a10.06,10.06,0,0,1,3.29-1.42v1.37a13.15,13.15,0,0,0-3.28,1.22v6.61H401Z" fill="#3a3d3f"/><path d="M407.26,447.7v-9h1.33v.63a6,6,0,0,1,2.63-.81,2.55,2.55,0,0,1,2.34.91,7.59,7.59,0,0,1,3.21-.91c2.45,0,3,1.17,3,4.43v4.75h-1.35V443c0-2.37-.27-3.26-1.89-3.26a6,6,0,0,0-2.54.67,10.24,10.24,0,0,1,.24,2.63v4.68h-1.36v-4.65c0-2.48-.25-3.33-1.89-3.33a5.39,5.39,0,0,0-2.41.67v7.31Z" fill="#3a3d3f"/><path d="M428.66,446c0,.52.47.72,1,.79l-.06,1.06a2.75,2.75,0,0,1-2.14-.72,9.2,9.2,0,0,1-3.24.72c-1.64,0-2.54-.94-2.54-2.76s.9-2.48,2.76-2.66l2.82-.27v-.77c0-1.27-.54-1.72-1.62-1.72-1.26,0-3.4.24-3.4.24l-.05-1a22.13,22.13,0,0,1,3.53-.39c2,0,2.89.93,2.89,2.9Zm-4-2.56c-1.1.11-1.53.63-1.53,1.62s.45,1.66,1.37,1.66a9.47,9.47,0,0,0,2.82-.56v-3Z" fill="#3a3d3f"/><path d="M431.33,447.7v-9h1.33v.63a6.85,6.85,0,0,1,2.79-.81c2.48,0,3,1.22,3,4.43v4.75h-1.33V443c0-2.37-.27-3.26-1.94-3.26a6.12,6.12,0,0,0-2.54.67v7.31Z" fill="#3a3d3f"/><path d="M446.81,438.79l-.06,1.09s-1.44-.16-2.12-.16c-2.07,0-2.63.9-2.63,3.32,0,2.66.41,3.63,2.65,3.63.68,0,2.12-.16,2.12-.16l.06,1.12a24.24,24.24,0,0,1-2.51.25c-2.86,0-3.71-1.32-3.71-4.84,0-3.26,1.07-4.52,3.75-4.52A20.89,20.89,0,0,1,446.81,438.79Z" fill="#3a3d3f"/><path d="M455.48,446.53l0,1.06a31.12,31.12,0,0,1-3.51.29c-2.68,0-3.57-1.57-3.57-4.63,0-3.42,1.48-4.73,3.77-4.73s3.62,1.26,3.62,4.21l-.08,1h-5.94c0,1.92.6,2.93,2.36,2.93C453.52,446.69,455.48,446.53,455.48,446.53Zm-1-3.85c0-2.24-.69-3-2.27-3s-2.4.85-2.42,3Z" fill="#3a3d3f"/><path d="M457.84,445.65h1.48v2.05h-1.48Z" fill="#3a3d3f"/><path d="M466,435.24h1.39V447.7H466Z" fill="#3a3d3f"/><path d="M472,439.87v4.3c0,2,.12,2.52,1.29,2.52.51,0,1.6-.11,1.6-.11l.09,1.12a15.44,15.44,0,0,1-1.83.2c-1.86,0-2.49-.7-2.49-3.3v-4.73H469.4V438.7h1.27v-2.76H472v2.76h2.86v1.17Z" fill="#3a3d3f"/><path d="M481.1,438.7l1.81,7.83h.29l2.15-7.65h1.4l2.14,7.65h.31l1.8-7.83h1.35l-2.14,9H488l-1.91-7-1.91,7h-2.25l-2.14-9Z" fill="#3a3d3f"/><path d="M501.51,443.09c0,3.28-.81,4.79-3.85,4.79s-3.86-1.51-3.86-4.79c0-3.1,1-4.57,3.86-4.57S501.51,440,501.51,443.09Zm-1.39,0c0-2.5-.54-3.4-2.46-3.4s-2.47.9-2.47,3.4.34,3.62,2.47,3.62S500.12,445.65,500.12,443.09Z" fill="#3a3d3f"/><path d="M510.67,438.7v9h-1.35v-.63a6.07,6.07,0,0,1-2.66.81c-2.52,0-3.05-1.17-3.05-4.48v-4.7H505v4.68c0,2.48.22,3.29,1.89,3.29a5.48,5.48,0,0,0,2.47-.66V438.7Z" fill="#3a3d3f"/><path d="M513.37,434.77h1.35V447.7h-1.35Z" fill="#3a3d3f"/><path d="M524.33,447.7H523v-.61a6.49,6.49,0,0,1-2.74.79c-1.76,0-3.24-.72-3.24-4.61,0-3.17,1-4.75,3.77-4.75a15.79,15.79,0,0,1,2.21.23v-4h1.33ZM523,446V439.9a16.07,16.07,0,0,0-2.14-.21c-1.89,0-2.45,1.24-2.45,3.58,0,2.92,1,3.4,2,3.4A6.61,6.61,0,0,0,523,446Z" fill="#3a3d3f"/><path d="M43,475.7v-9h1.34v.63a6.79,6.79,0,0,1,2.79-.81c2.48,0,3,1.22,3,4.43v4.75H48.87V471c0-2.37-.27-3.26-1.95-3.26a6.18,6.18,0,0,0-2.54.67v7.31Z" fill="#3a3d3f"/><path d="M59.34,474.53l0,1.06a31.12,31.12,0,0,1-3.51.29c-2.68,0-3.57-1.57-3.57-4.63,0-3.42,1.48-4.73,3.77-4.73s3.62,1.26,3.62,4.21l-.08,1H53.67c0,1.92.6,2.93,2.36,2.93C57.38,474.69,59.34,474.53,59.34,474.53Zm-1-3.85c0-2.24-.69-3-2.27-3s-2.4.85-2.42,3Z" fill="#3a3d3f"/><path d="M68.43,474.53l0,1.06a31.12,31.12,0,0,1-3.51.29c-2.68,0-3.57-1.57-3.57-4.63,0-3.42,1.48-4.73,3.77-4.73s3.62,1.26,3.62,4.21l-.08,1H62.76c0,1.92.6,2.93,2.36,2.93C66.47,474.69,68.43,474.53,68.43,474.53Zm-1-3.85c0-2.24-.69-3-2.27-3s-2.4.85-2.42,3Z" fill="#3a3d3f"/><path d="M77.79,475.7H76.46v-.61a6.48,6.48,0,0,1-2.73.79c-1.77,0-3.25-.72-3.25-4.61,0-3.17,1-4.75,3.77-4.75a15.79,15.79,0,0,1,2.21.23v-4h1.33ZM76.46,474V467.9a16.07,16.07,0,0,0-2.14-.21c-1.89,0-2.45,1.24-2.45,3.58,0,2.92.95,3.4,2,3.4A6.54,6.54,0,0,0,76.46,474Z" fill="#3a3d3f"/><path d="M90.18,466.79l-.06,1.09s-1.44-.16-2.12-.16c-2.07,0-2.63.9-2.63,3.32,0,2.66.41,3.63,2.65,3.63.68,0,2.12-.16,2.12-.16l0,1.12a24,24,0,0,1-2.5.25c-2.86,0-3.71-1.32-3.71-4.84,0-3.26,1.07-4.52,3.75-4.52A20.89,20.89,0,0,1,90.18,466.79Z" fill="#3a3d3f"/><path d="M92.21,475.7V462.77h1.35v4.43a7.64,7.64,0,0,1,2.77-.68c2.47,0,3,1.22,3,4.43v4.75H98V471c0-2.37-.27-3.26-1.92-3.26a7.41,7.41,0,0,0-2.54.54v7.44Z" fill="#3a3d3f"/><path d="M108.23,474c0,.52.47.72,1,.79l0,1.06a2.75,2.75,0,0,1-2.14-.72,9.2,9.2,0,0,1-3.24.72c-1.64,0-2.54-.94-2.54-2.76s.9-2.48,2.75-2.66l2.83-.27v-.77c0-1.27-.54-1.72-1.62-1.72-1.26,0-3.4.24-3.4.24l-.06-1a22.13,22.13,0,0,1,3.53-.39c2,0,2.9.93,2.9,2.9Zm-4-2.56c-1.1.11-1.53.63-1.53,1.62s.45,1.66,1.36,1.66a9.48,9.48,0,0,0,2.83-.56v-3Z" fill="#3a3d3f"/><path d="M110.89,466.7h1.34v1.22a10.06,10.06,0,0,1,3.29-1.42v1.37a13.15,13.15,0,0,0-3.28,1.22v6.61h-1.35Z" fill="#3a3d3f"/><path d="M116.72,477.21c0-1,.49-1.53,1.43-2.23a1.46,1.46,0,0,1-.51-1.24,5.75,5.75,0,0,1,.61-1.43c-.75-.34-1.42-1.06-1.42-2.71,0-2.22,1.37-3.08,3.37-3.08a9.43,9.43,0,0,1,1.87.23l2.67-.07v1.15l-1.71,0a2.38,2.38,0,0,1,.59,1.81c0,2.34-1.17,3-3.47,3-.18,0-.69,0-.89-.07a5.42,5.42,0,0,0-.32,1c0,.72.14.83,2.18.83,2.55,0,3.47.5,3.47,2.65s-1.46,2.86-4,2.86C117.75,479.93,116.72,479.3,116.72,477.21Zm2.34-1.69c-.75.56-1,.88-1,1.58,0,1.25.52,1.7,2.55,1.7,1.8,0,2.61-.49,2.61-1.68,0-1.37-.57-1.51-2.21-1.51C120.38,475.61,119.06,475.52,119.06,475.52Zm3.21-5.92c0-1.43-.56-2-2.07-2s-2,.55-2,2,.61,2,2,2S122.27,471,122.27,469.6Z" fill="#3a3d3f"/><path d="M133,474.53l0,1.06a31.12,31.12,0,0,1-3.51.29c-2.68,0-3.56-1.57-3.56-4.63,0-3.42,1.47-4.73,3.76-4.73s3.62,1.26,3.62,4.21l-.07,1h-5.95c0,1.92.6,2.93,2.36,2.93C131.05,474.69,133,474.53,133,474.53Zm-1-3.85c0-2.24-.69-3-2.27-3s-2.4.85-2.41,3Z" fill="#3a3d3f"/><path d="M145.78,474c0,.52.47.72,1,.79l0,1.06a2.74,2.74,0,0,1-2.14-.72,9.22,9.22,0,0,1-3.25.72c-1.63,0-2.53-.94-2.53-2.76s.9-2.48,2.75-2.66l2.83-.27v-.77c0-1.27-.54-1.72-1.62-1.72-1.26,0-3.41.24-3.41.24l-.05-1a22.13,22.13,0,0,1,3.53-.39c2,0,2.9.93,2.9,2.9Zm-4-2.56c-1.1.11-1.53.63-1.53,1.62s.45,1.66,1.37,1.66a9.57,9.57,0,0,0,2.83-.56v-3Z" fill="#3a3d3f"/><path d="M148.44,466.7h1.33v1.22a10.17,10.17,0,0,1,3.3-1.42v1.37a13,13,0,0,0-3.28,1.22v6.61h-1.35Z" fill="#3a3d3f"/><path d="M162,471.09c0,3.28-.81,4.79-3.86,4.79s-3.85-1.51-3.85-4.79c0-3.1,1-4.57,3.85-4.57S162,468,162,471.09Zm-1.39,0c0-2.5-.54-3.4-2.47-3.4s-2.46.9-2.46,3.4.34,3.62,2.46,3.62S160.59,473.65,160.59,471.09Z" fill="#3a3d3f"/><path d="M171.14,466.7v9h-1.35v-.63a6.08,6.08,0,0,1-2.67.81c-2.52,0-3-1.17-3-4.48v-4.7h1.35v4.68c0,2.48.22,3.29,1.89,3.29a5.53,5.53,0,0,0,2.47-.66V466.7Z" fill="#3a3d3f"/><path d="M173.73,475.7v-9h1.33v.63a6.85,6.85,0,0,1,2.79-.81c2.49,0,3.05,1.22,3.05,4.43v4.75h-1.34V471c0-2.37-.27-3.26-1.94-3.26a6.12,6.12,0,0,0-2.54.67v7.31Z" fill="#3a3d3f"/><path d="M190.31,475.7H189v-.61a6.49,6.49,0,0,1-2.74.79c-1.76,0-3.24-.72-3.24-4.61,0-3.17,1-4.75,3.76-4.75a15.79,15.79,0,0,1,2.22.23v-4h1.33ZM189,474V467.9a16.26,16.26,0,0,0-2.15-.21c-1.89,0-2.44,1.24-2.44,3.58,0,2.92,1,3.4,2,3.4A6.62,6.62,0,0,0,189,474Z" fill="#3a3d3f"/><path d="M201.29,463.82h1.29V475.7H201.2V465.36l-3.06,2-.63-1Z" fill="#3a3d3f"/><path d="M207,474.44a28.32,28.32,0,0,0,3.14.21c2.18,0,3.26-1.33,3.27-4.14a10.89,10.89,0,0,1-3.09.69c-2.49,0-3.89-1.12-3.89-3.62a3.76,3.76,0,0,1,4.12-3.94c3,0,4.3,2.37,4.3,6.15,0,4.61-1.78,6.09-4.71,6.09a20.61,20.61,0,0,1-3.26-.33Zm6.43-5.11c0-2.6-.79-4.47-2.88-4.47a2.5,2.5,0,0,0-2.68,2.72c0,1.67.9,2.39,2.56,2.39A11.12,11.12,0,0,0,213.4,469.33Z" fill="#3a3d3f"/><path d="M217,467.85h1.47v2H217Zm0,5.8h1.47v2.05H217Z" fill="#3a3d3f"/><path d="M229,469.94c0,4.55-1.6,5.94-4.32,5.94s-4.34-1.35-4.34-5.93c0-4.89,1.58-6.33,4.32-6.33S229,465,229,469.94Zm-7.22,0c0,3.73,1,4.7,2.9,4.7s2.9-1,2.9-4.71c0-4-.92-5.08-2.9-5.08S221.79,465.9,221.79,470Z" fill="#3a3d3f"/><path d="M239.09,469.94c0,4.55-1.6,5.94-4.32,5.94s-4.34-1.35-4.34-5.93c0-4.89,1.58-6.33,4.32-6.33S239.09,465,239.09,469.94Zm-7.22,0c0,3.73,1,4.7,2.9,4.7s2.9-1,2.9-4.71c0-4-.92-5.08-2.9-5.08S231.87,465.9,231.87,470Z" fill="#3a3d3f"/><path d="M241,473.65h1.48v2.05H241Z" fill="#3a3d3f"/><line x1="38.49" y1="55.13" x2="538.08" y2="55.13" fill="none" stroke="#ddd" stroke-miterlimit="10"/><path d="M62.37,234.61H58.19v-.78l2.46-6.15h1.09l-2.49,6h3.12V231h1v2.69h1.09v.88H63.38v1.69h-1Z" fill="#4c4c4c"/><path d="M43.31,224.53c0,3.3-1.17,4.31-3.14,4.31s-3.15-1-3.15-4.3c0-3.55,1.15-4.6,3.14-4.6S43.31,221,43.31,224.53Zm-5.24,0c0,2.7.74,3.41,2.1,3.41s2.1-.72,2.1-3.42c0-2.9-.66-3.69-2.1-3.69S38.07,221.6,38.07,224.54Z" fill="#4c4c4c"/><path d="M37.41,203v-.85l2.53-2.65c1.07-1.11,1.73-1.82,1.73-2.84s-.64-1.51-1.88-1.51a12.85,12.85,0,0,0-2.23.28l-.08-.83a10.26,10.26,0,0,1,2.5-.36c1.81,0,2.72.7,2.72,2.32,0,1.29-.58,2-1.8,3.22l-2.3,2.34h4.33V203Z" fill="#4c4c4c"/><path d="M41.22,174.61H37v-.79l2.45-6.15h1.1l-2.5,6.05h3.13V171h1v2.69h1.1v.89h-1.1v1.68h-1Z" fill="#4c4c4c"/><path d="M42.81,141.92a19.65,19.65,0,0,0-2.27-.16c-1.51,0-2.33,1.07-2.33,3a7.24,7.24,0,0,1,2.16-.51c1.9,0,2.9.86,2.9,2.68s-1.1,2.85-3,2.85c-2.14,0-3.08-1.69-3.08-4.48,0-3.12,1.32-4.41,3.37-4.41a15.66,15.66,0,0,1,2.36.23Zm-4.61,3.71c0,1.84.56,3.24,2,3.24a1.77,1.77,0,0,0,2-2c0-1.2-.72-1.78-1.92-1.78A6,6,0,0,0,38.2,145.63Z" fill="#4c4c4c"/><path d="M137.15,229.79a1.93,1.93,0,0,1-1.44,2,2.15,2.15,0,0,1,1.57,2.16c0,1.9-1.47,2.47-3.26,2.47s-3.21-.53-3.21-2.32a2.29,2.29,0,0,1,1.49-2.31,2,2,0,0,1-1.35-2c0-1.49,1.19-2.23,3.07-2.23S137.15,228.28,137.15,229.79Zm-.94,4.08c0-1-.67-1.33-1.53-1.58h-1.37c-.91.25-1.43.69-1.43,1.66,0,1.19.92,1.58,2.14,1.58S136.21,235.14,136.21,233.87Zm-4.18-4c0,.8.43,1.21,1.28,1.51h1.37c.89-.28,1.39-.7,1.39-1.5,0-1-.77-1.45-2-1.45S132,228.87,132,229.9Z" fill="#4c4c4c"/><path d="M207.26,227.69h.94v8.62h-1v-7.5L205,230.28l-.45-.76Z" fill="#4c4c4c"/><path d="M211.33,236.31v-.85l2.52-2.65c1.07-1.11,1.74-1.81,1.74-2.83s-.64-1.52-1.88-1.52a12.43,12.43,0,0,0-2.23.29l-.08-.84a10.5,10.5,0,0,1,2.49-.35c1.82,0,2.73.69,2.73,2.31,0,1.29-.59,2-1.8,3.23l-2.3,2.34h4.32v.87Z" fill="#4c4c4c"/><path d="M287.3,227.69h.94v8.62h-1v-7.5L285,230.28l-.46-.76Z" fill="#4c4c4c"/><path d="M296.76,228.61a19.42,19.42,0,0,0-2.27-.16c-1.5,0-2.32,1.07-2.32,3a7.14,7.14,0,0,1,2.15-.51c1.91,0,2.9.86,2.9,2.67s-1.1,2.85-3,2.85c-2.14,0-3.08-1.68-3.08-4.48,0-3.12,1.32-4.4,3.37-4.4a16.39,16.39,0,0,1,2.37.22Zm-4.61,3.7c0,1.85.57,3.24,2.05,3.24a1.77,1.77,0,0,0,2-2c0-1.2-.72-1.77-1.92-1.77A6.11,6.11,0,0,0,292.15,232.31Z" fill="#4c4c4c"/><path d="M364.09,236.31v-.85l2.52-2.65c1.08-1.11,1.74-1.81,1.74-2.83s-.64-1.52-1.88-1.52a12.43,12.43,0,0,0-2.23.29l-.08-.84a10.5,10.5,0,0,1,2.49-.35c1.82,0,2.73.69,2.73,2.31,0,1.29-.58,2-1.8,3.23l-2.3,2.34h4.33v.87Z" fill="#4c4c4c"/><path d="M377.3,232.13c0,3.31-1.16,4.31-3.14,4.31s-3.14-1-3.14-4.3c0-3.55,1.14-4.59,3.13-4.59S377.3,228.58,377.3,232.13Zm-5.24,0c0,2.71.75,3.41,2.1,3.41s2.11-.71,2.11-3.42c0-2.9-.67-3.68-2.11-3.68S372.06,229.21,372.06,232.14Z" fill="#4c4c4c"/><path d="M465.48,236.31v-.85l2.52-2.65c1.07-1.11,1.74-1.81,1.74-2.83s-.64-1.52-1.89-1.52a12.43,12.43,0,0,0-2.23.29l-.08-.84a10.53,10.53,0,0,1,2.5-.35c1.81,0,2.73.69,2.73,2.31,0,1.29-.59,2-1.8,3.23l-2.3,2.34H471v.87Z" fill="#4c4c4c"/><path d="M476.59,234.63h-4.18v-.79l2.46-6.15H476l-2.5,6.05h3.12v-2.69h1v2.69h1.09v.89H477.6v1.68h-1Z" fill="#4c4c4c"/><line x1="50.77" y1="135.68" x2="50.77" y2="231.78" fill="none" stroke="#adadad" stroke-miterlimit="10"/><line x1="481.61" y1="224.42" x2="46.8" y2="224.42" fill="none" stroke="#adadad" stroke-miterlimit="10"/><g style="isolation:isolate"><rect x="86.63" y="152.47" width="13.36" height="71.21" fill="#76ce89"/><g clip-path="url(#clip-path)"><rect x="86.75" y="152.5" width="13.12" height="71.16" transform="translate(-0.65 0.32) rotate(-0.2)" fill="#76ce89"/></g></g><g style="isolation:isolate"><rect x="103.98" y="154.46" width="13.36" height="69.23" fill="#76ce89"/><g clip-path="url(#clip-path-2)"><rect x="104.1" y="154.48" width="13.12" height="69.17" transform="translate(-0.65 0.38) rotate(-0.2)" fill="#76ce89"/></g></g><g style="isolation:isolate"><rect x="121.33" y="157.43" width="13.35" height="66.25" fill="#76ce89"/><g clip-path="url(#clip-path-3)"><rect x="121.45" y="157.46" width="13.12" height="66.2" transform="translate(-0.65 0.44) rotate(-0.2)" fill="#76ce89"/></g></g><g style="isolation:isolate"><rect x="138.68" y="157.76" width="13.35" height="65.92" fill="#76ce89"/><g clip-path="url(#clip-path-4)"><rect x="138.79" y="157.79" width="13.12" height="65.87" transform="translate(-0.65 0.5) rotate(-0.2)" fill="#76ce89"/></g></g><g style="isolation:isolate"><rect x="156.02" y="157.77" width="13.34" height="65.91" fill="#76ce89"/><g clip-path="url(#clip-path-5)"><rect x="156.13" y="157.8" width="13.12" height="65.86" transform="translate(-0.65 0.56) rotate(-0.2)" fill="#76ce89"/></g></g><g style="isolation:isolate"><rect x="173.35" y="157.76" width="13.34" height="65.92" fill="#76ce89"/><g clip-path="url(#clip-path-6)"><rect x="173.46" y="157.79" width="13.12" height="65.87" transform="translate(-0.66 0.62) rotate(-0.2)" fill="#76ce89"/></g></g><g style="isolation:isolate"><rect x="190.68" y="161.1" width="13.34" height="62.58" fill="#76ce89"/><g clip-path="url(#clip-path-7)"><rect x="190.79" y="161.13" width="13.12" height="62.53" transform="translate(-0.66 0.68) rotate(-0.2)" fill="#76ce89"/></g></g><g style="isolation:isolate"><rect x="208.01" y="163.32" width="13.32" height="60.36" fill="#76ce89"/><g clip-path="url(#clip-path-8)"><rect x="208.11" y="163.34" width="13.12" height="60.31" transform="translate(-0.66 0.74) rotate(-0.2)" fill="#76ce89"/></g></g><g style="isolation:isolate"><rect x="225.32" y="163.32" width="13.32" height="60.36" fill="#76ce89"/><g clip-path="url(#clip-path-9)"><rect x="225.42" y="163.34" width="13.12" height="60.31" transform="translate(-0.66 0.8) rotate(-0.2)" fill="#76ce89"/></g></g><g style="isolation:isolate"><rect x="242.63" y="165.53" width="13.32" height="58.15" fill="#76ce89"/><g clip-path="url(#clip-path-10)"><rect x="242.72" y="165.56" width="13.12" height="58.1" transform="translate(-0.67 0.86) rotate(-0.2)" fill="#76ce89"/></g></g><g style="isolation:isolate"><rect x="259.94" y="166.65" width="13.32" height="57.03" fill="#76ce89"/><g clip-path="url(#clip-path-11)"><rect x="260.04" y="166.67" width="13.12" height="56.98" transform="translate(-0.67 0.92) rotate(-0.2)" fill="#76ce89"/></g></g><g style="isolation:isolate"><rect x="277.25" y="168.86" width="13.31" height="54.82" fill="#76ce89"/><g clip-path="url(#clip-path-12)"><rect x="277.34" y="168.89" width="13.12" height="54.77" transform="translate(-0.67 0.98) rotate(-0.2)" fill="#76ce89"/></g></g><g style="isolation:isolate"><rect x="294.55" y="171.09" width="13.3" height="52.59" fill="#76ce89"/><g clip-path="url(#clip-path-13)"><rect x="294.64" y="171.11" width="13.12" height="52.54" transform="translate(-0.68 1.04) rotate(-0.2)" fill="#76ce89"/></g></g><rect x="311.84" y="174.41" width="13.29" height="49.27" fill="#ffda00"/><g clip-path="url(#clip-path-14)"><rect x="311.92" y="174.44" width="13.12" height="49.22" transform="translate(-0.68 1.1) rotate(-0.2)" fill="#ffda00"/></g><rect x="329.12" y="176.63" width="13.28" height="47.05" fill="#ffda00"/><g clip-path="url(#clip-path-15)"><rect x="329.19" y="176.66" width="13.12" height="47" transform="translate(-0.69 1.16) rotate(-0.2)" fill="#ffda00"/></g><rect x="346.38" y="204.38" width="13.27" height="19.3" fill="#ff4200"/><g clip-path="url(#clip-path-16)"><polygon points="346.54 223.68 346.38 204.4 359.5 204.38 359.65 223.66 346.54 223.68" fill="#ff4200"/></g><rect x="363.64" y="174.41" width="13.26" height="49.27" fill="#76ce89"/><g clip-path="url(#clip-path-17)"><polygon points="363.78 223.68 363.64 174.47 376.76 174.41 376.9 223.62 363.78 223.68" fill="#76ce89"/></g><rect x="380.89" y="179.96" width="13.22" height="43.72" fill="#76ce89"/><g clip-path="url(#clip-path-18)"><polygon points="381 223.68 380.88 180.03 394 179.96 394.11 223.61 381 223.68" fill="#76ce89"/></g><g style="isolation:isolate"><rect x="449.76" y="181.5" width="13.28" height="42.19" fill="#76ce89"/><g clip-path="url(#clip-path-19)"><rect x="449.84" y="181.52" width="13.12" height="42.14" transform="translate(-0.72 1.63) rotate(-0.2)" fill="#76ce89"/></g></g><g style="isolation:isolate"><rect x="432.49" y="181.5" width="13.28" height="42.19" fill="#76ce89"/><g clip-path="url(#clip-path-20)"><rect x="432.57" y="181.52" width="13.12" height="42.14" transform="translate(-0.72 1.57) rotate(-0.2)" fill="#76ce89"/></g></g><g style="isolation:isolate"><rect x="467.03" y="181.5" width="13.28" height="42.19" fill="#76ce89"/><g clip-path="url(#clip-path-21)"><rect x="467.11" y="181.52" width="13.12" height="42.14" transform="translate(-0.72 1.69) rotate(-0.2)" fill="#76ce89"/></g></g><rect x="398.1" y="181.5" width="13.22" height="42.19" fill="#76ce89"/><g clip-path="url(#clip-path-22)"><polygon points="398.2 223.68 398.1 181.57 411.22 181.5 411.32 223.61 398.2 223.68" fill="#76ce89"/></g><rect x="415.32" y="181.5" width="13.18" height="42.19" fill="#76ce89"/><g clip-path="url(#clip-path-23)"><polygon points="415.38 223.68 415.32 181.6 428.44 181.49 428.5 223.57 415.38 223.68" fill="#76ce89"/></g><g style="isolation:isolate"><rect x="69.27" y="148.48" width="13.37" height="75.24" fill="#76ce89"/><g clip-path="url(#clip-path-24)"><rect x="69.39" y="148.51" width="13.12" height="75.2" transform="translate(-0.64 0.26) rotate(-0.2)" fill="#76ce89"/></g></g><g style="isolation:isolate"><rect x="51.9" y="145.51" width="13.38" height="78.27" fill="#76ce89"/><g clip-path="url(#clip-path-25)"><rect x="52.03" y="145.53" width="13.12" height="78.22" transform="translate(-0.64 0.2) rotate(-0.2)" fill="#76ce89"/></g></g><path d="M42.56,81.9c2.43,0,3.71,1,3.71,3.17a2.74,2.74,0,0,1-1.6,2.87,2.73,2.73,0,0,1,2,2.93c0,2.63-1.51,3.49-3.85,3.49H38V81.9Zm-3.13,1.23v4.3h3.2c1.57,0,2.22-.74,2.22-2.23s-.76-2.07-2.34-2.07Zm0,5.51v4.5h3.31c1.51,0,2.51-.49,2.51-2.32s-1.64-2.18-2.6-2.18Z" fill="#4c4c4c"/><path d="M55.25,92.69c0,.52.47.72,1,.79l-.06,1.06a2.75,2.75,0,0,1-2.14-.72,9.2,9.2,0,0,1-3.24.72c-1.64,0-2.54-.93-2.54-2.75s.9-2.49,2.76-2.67l2.82-.27v-.77c0-1.26-.54-1.71-1.62-1.71-1.26,0-3.4.23-3.4.23l-.05-1a21.57,21.57,0,0,1,3.52-.4c2,0,2.9.94,2.9,2.9Zm-4-2.56c-1.1.11-1.53.63-1.53,1.62s.45,1.66,1.37,1.66a9.47,9.47,0,0,0,2.82-.56v-3Z" fill="#4c4c4c"/><path d="M59.71,86.53v4.31c0,2,.13,2.52,1.3,2.52.51,0,1.6-.11,1.6-.11l.09,1.11a15.44,15.44,0,0,1-1.83.2c-1.86,0-2.49-.7-2.49-3.29V86.53H57.1V85.36h1.28V82.61h1.33v2.75h2.87v1.17Z" fill="#4c4c4c"/><path d="M66,86.53v4.31c0,2,.13,2.52,1.3,2.52.5,0,1.6-.11,1.6-.11L69,94.36a15.44,15.44,0,0,1-1.83.2c-1.86,0-2.49-.7-2.49-3.29V86.53H63.42V85.36H64.7V82.61H66v2.75H68.9v1.17Z" fill="#4c4c4c"/><path d="M77.2,93.19l0,1.07a32.2,32.2,0,0,1-3.51.28c-2.68,0-3.56-1.56-3.56-4.62,0-3.42,1.47-4.74,3.76-4.74s3.62,1.26,3.62,4.21l-.07,1h-6c0,1.93.6,2.94,2.36,2.94C75.23,93.36,77.2,93.19,77.2,93.19Zm-1-3.85c0-2.23-.69-3-2.27-3s-2.4.84-2.41,3Z" fill="#4c4c4c"/><path d="M79.64,85.36H81v1.23a10.32,10.32,0,0,1,3.3-1.43v1.37A13,13,0,0,0,81,87.76v6.6H79.64Z" fill="#4c4c4c"/><path d="M86.37,85.36l2.25,7.83h.6l2.27-7.83h1.35l-3.75,13H87.74l1.17-4H87.58l-2.56-9Z" fill="#4c4c4c"/><path d="M98.76,94.36V81.9h1.38V93.12h5.48v1.24Z" fill="#4c4c4c"/><path d="M113.79,93.19l0,1.07a32.2,32.2,0,0,1-3.51.28c-2.68,0-3.56-1.56-3.56-4.62,0-3.42,1.47-4.74,3.76-4.74s3.62,1.26,3.62,4.21l-.07,1h-5.94c0,1.93.59,2.94,2.35,2.94C111.83,93.36,113.79,93.19,113.79,93.19Zm-1-3.85c0-2.23-.68-3-2.27-3s-2.39.84-2.41,3Z" fill="#4c4c4c"/><path d="M116.83,85.36l2.1,7.83h.67l2.18-7.83h1.39l-2.54,9h-2.7l-2.54-9Z" fill="#4c4c4c"/><path d="M131.54,93.19l0,1.07a32.2,32.2,0,0,1-3.51.28c-2.68,0-3.56-1.56-3.56-4.62,0-3.42,1.47-4.74,3.76-4.74s3.62,1.26,3.62,4.21l-.07,1h-6c0,1.93.6,2.94,2.36,2.94C129.57,93.36,131.54,93.19,131.54,93.19Zm-1-3.85c0-2.23-.69-3-2.27-3s-2.4.84-2.41,3Z" fill="#4c4c4c"/><path d="M134.09,81.44h1.35V94.36h-1.35Z" fill="#4c4c4c"/><path d="M38,271.66h2.51l3.53,10.53,3.52-10.53h2.51v12.46H48.72v-11h-.25l-3.62,10.54H43.3l-3.62-10.54h-.25v11H38Z" fill="#4c4c4c"/><path d="M59.29,282.44c0,.52.46.72,1,.79l0,1.07a2.76,2.76,0,0,1-2.15-.72,9.2,9.2,0,0,1-3.24.72c-1.64,0-2.54-.94-2.54-2.76s.9-2.48,2.76-2.66l2.82-.27v-.78c0-1.26-.54-1.71-1.62-1.71-1.26,0-3.4.24-3.4.24l0-1a21.6,21.6,0,0,1,3.53-.4c2,0,2.9.94,2.9,2.9Zm-4-2.56c-1.1.11-1.53.63-1.53,1.63s.45,1.65,1.37,1.65a9.47,9.47,0,0,0,2.82-.56v-3Z" fill="#4c4c4c"/><path d="M62,271.51H63.3v1.57H62Zm0,3.6H63.3v9H62Z" fill="#4c4c4c"/><path d="M65.89,284.12v-9h1.33v.63a6.85,6.85,0,0,1,2.79-.81c2.49,0,3,1.23,3,4.43v4.76H71.72V279.4c0-2.38-.27-3.26-1.94-3.26a6.12,6.12,0,0,0-2.54.67v7.31Z" fill="#4c4c4c"/><path d="M77.35,276.28v4.31c0,2,.13,2.52,1.3,2.52.51,0,1.6-.11,1.6-.11l.09,1.12a16.23,16.23,0,0,1-1.83.19c-1.86,0-2.49-.7-2.49-3.29v-4.74H74.74v-1.17H76v-2.75h1.33v2.75h2.87v1.17Z" fill="#4c4c4c"/><path d="M88.52,283l0,1.06a31.12,31.12,0,0,1-3.51.29c-2.68,0-3.56-1.57-3.56-4.63,0-3.42,1.47-4.74,3.76-4.74s3.62,1.26,3.62,4.22l-.07,1h-6c0,1.93.6,2.94,2.36,2.94C86.55,283.11,88.52,283,88.52,283Zm-1-3.86c0-2.23-.69-3-2.27-3s-2.4.84-2.41,3Z" fill="#4c4c4c"/><path d="M91,284.12v-9h1.33v.63a6.86,6.86,0,0,1,2.8-.81c2.48,0,3,1.23,3,4.43v4.76H96.8V279.4c0-2.38-.27-3.26-2-3.26a6.18,6.18,0,0,0-2.54.67v7.31Z" fill="#4c4c4c"/><path d="M107,282.44c0,.52.47.72,1,.79L108,284.3a2.75,2.75,0,0,1-2.14-.72,9.2,9.2,0,0,1-3.24.72c-1.64,0-2.54-.94-2.54-2.76s.9-2.48,2.76-2.66l2.82-.27v-.78c0-1.26-.54-1.71-1.62-1.71-1.26,0-3.4.24-3.4.24l0-1a21.57,21.57,0,0,1,3.52-.4c2,0,2.9.94,2.9,2.9Zm-4-2.56c-1.1.11-1.53.63-1.53,1.63s.45,1.65,1.37,1.65a9.47,9.47,0,0,0,2.82-.56v-3Z" fill="#4c4c4c"/><path d="M109.65,284.12v-9H111v.63a6.85,6.85,0,0,1,2.79-.81c2.48,0,3,1.23,3,4.43v4.76h-1.33V279.4c0-2.38-.27-3.26-1.94-3.26a6.12,6.12,0,0,0-2.54.67v7.31Z" fill="#4c4c4c"/><path d="M125.13,275.2l-.06,1.1s-1.44-.16-2.12-.16c-2.07,0-2.63.9-2.63,3.31,0,2.67.41,3.64,2.65,3.64.68,0,2.12-.16,2.12-.16l.06,1.11a23.34,23.34,0,0,1-2.51.26c-2.86,0-3.71-1.32-3.71-4.85,0-3.26,1.07-4.52,3.75-4.52A20.89,20.89,0,0,1,125.13,275.2Z" fill="#4c4c4c"/><path d="M133.8,283l0,1.06a31.12,31.12,0,0,1-3.51.29c-2.68,0-3.57-1.57-3.57-4.63,0-3.42,1.48-4.74,3.77-4.74s3.62,1.26,3.62,4.22l-.08,1h-5.94c0,1.93.6,2.94,2.36,2.94C131.84,283.11,133.8,283,133.8,283Zm-1-3.86c0-2.23-.68-3-2.26-3s-2.4.84-2.42,3Z" fill="#4c4c4c"/></g></g></svg>