<svg xmlns="http://www.w3.org/2000/svg" xmlns:xlink="http://www.w3.org/1999/xlink" viewBox="0 0 566.31 517.94"><defs><clipPath id="clip-path"><rect x="438.25" y="183.92" width="23.04" height="37.93" fill="none"/></clipPath><clipPath id="clip-path-2"><rect x="71.52" y="169.67" width="229.58" height="53.33" fill="none"/></clipPath></defs><title>r_2_B_Screen</title><g id="Layer_2" data-name="Layer 2">
<g id="MC_Bg_Screen"><rect width="566.31" height="517.94" fill="rgb(0,0,0,0)"/></g>

<g id="Layer_1-2" data-name="Layer 1"><path d="M41.72,33H44.5l3.92,11.7L52.34,33h2.79V46.82H53.59V34.62h-.28l-4,11.7H47.56l-4-11.7h-.28v12.2H41.72Z"/><path d="M61.1,33h3.36l3.8,13.84H66.74l-1-3.56H59.82l-1,3.56H57.3Zm-.94,8.9H65.4L63.3,34.3h-1Z"/><path d="M70.44,33h2.88l5.3,12.48H79V33h1.52V46.82H77.74L72.36,34.34H72V46.82H70.44Z"/><path d="M88.64,45.66c2.16,0,3.38-.84,3.38-3V33h1.52v9.64c0,3.16-1.74,4.4-4.9,4.4s-4.78-1.22-4.78-4.4V33H85.4v9.68C85.4,44.82,86.6,45.66,88.64,45.66Z"/><path d="M99.42,33h3.36l3.8,13.84h-1.52l-1-3.56H98.14l-1,3.56H95.62Zm-.94,8.9h5.24l-2.1-7.58h-1Z"/><path d="M108.76,46.82V33h1.54V45.44h6.08v1.38Z"/><path d="M131.1,46.6a20.83,20.83,0,0,1-3.82.42c-4.14,0-5.06-2.52-5.06-7.08s.9-7.16,5.06-7.16a20.32,20.32,0,0,1,3.82.44l-.06,1.3a24.64,24.64,0,0,0-3.6-.36c-3.08,0-3.62,1.84-3.62,5.78s.5,5.7,3.66,5.7a21.88,21.88,0,0,0,3.56-.36Z"/><path d="M142.2,40.56h-7v6.26h-1.54V33h1.54v6.2h7V33h1.52V46.82H142.2Z"/><path d="M147.12,33h8.42v1.36h-6.88v4.78h5.68v1.34h-5.68v5h6.88v1.36h-8.42Z"/><path d="M166.54,46.6a20.83,20.83,0,0,1-3.82.42c-4.14,0-5.06-2.52-5.06-7.08s.9-7.16,5.06-7.16a20.32,20.32,0,0,1,3.82.44l-.06,1.3a24.64,24.64,0,0,0-3.6-.36c-3.08,0-3.62,1.84-3.62,5.78s.5,5.7,3.66,5.7a21.88,21.88,0,0,0,3.56-.36Z"/><path d="M172.9,40.7l-2.3.08v6h-1.54V33h1.54v6.44l2.28-.08L176.42,33h1.76l-4,7,4.18,6.88h-1.82Z"/><path d="M42,435.24h9v1.24H47.18V447.7H45.81V436.48H42Z" fill="#3a3d3f"/><path d="M59.81,443.09c0,3.28-.81,4.79-3.85,4.79s-3.85-1.51-3.85-4.79c0-3.1,1-4.57,3.85-4.57S59.81,440,59.81,443.09Zm-1.38,0c0-2.5-.55-3.4-2.47-3.4s-2.47.9-2.47,3.4.34,3.62,2.47,3.62S58.43,445.65,58.43,443.09Z" fill="#3a3d3f"/><path d="M68.92,447.7H67.59v-.61a6.49,6.49,0,0,1-2.74.79c-1.76,0-3.24-.72-3.24-4.61,0-3.17,1-4.75,3.76-4.75a15.79,15.79,0,0,1,2.22.23v-4h1.33ZM67.59,446V439.9a16.26,16.26,0,0,0-2.15-.21c-1.89,0-2.44,1.24-2.44,3.58,0,2.92,1,3.4,2,3.4A6.62,6.62,0,0,0,67.59,446Z" fill="#3a3d3f"/><path d="M77.88,446c0,.52.47.72,1.05.79l-.06,1.06a2.75,2.75,0,0,1-2.14-.72,9.2,9.2,0,0,1-3.24.72c-1.64,0-2.54-.94-2.54-2.75s.9-2.49,2.76-2.67l2.82-.27v-.77c0-1.26-.54-1.71-1.62-1.71-1.26,0-3.4.23-3.4.23l-.05-1a22.1,22.1,0,0,1,3.52-.39c2,0,2.9.93,2.9,2.9Zm-4-2.56c-1.1.11-1.53.63-1.53,1.62s.45,1.66,1.37,1.66a9.47,9.47,0,0,0,2.82-.56v-3Z" fill="#3a3d3f"/><path d="M81.05,438.7l2.25,7.83h.59l2.27-7.83h1.35l-3.74,13H82.42l1.17-4H82.26l-2.56-9Z" fill="#3a3d3f"/><path d="M100.49,435.82v1.26H94.71L94.39,441a6.81,6.81,0,0,1,2.79-.74c2.32,0,3.78,1,3.78,3.51,0,2.74-1.5,4.14-4,4.14a19.6,19.6,0,0,1-3.94-.52l.16-1.1a23.46,23.46,0,0,0,3.65.4,2.51,2.51,0,0,0,2.69-2.81c0-1.8-1-2.38-2.53-2.38a6.81,6.81,0,0,0-2.82.72l-1-.18.33-6.17Z" fill="#3a3d3f"/><path d="M113.05,438.79l0,1.1s-1.44-.17-2.12-.17c-2.08,0-2.63.9-2.63,3.32,0,2.66.41,3.63,2.64,3.63.69,0,2.13-.16,2.13-.16l0,1.12a24,24,0,0,1-2.5.25c-2.86,0-3.71-1.31-3.71-4.84,0-3.26,1.06-4.52,3.74-4.52A20.89,20.89,0,0,1,113.05,438.79Z" fill="#3a3d3f"/><path d="M122.4,443.09c0,3.28-.81,4.79-3.86,4.79s-3.85-1.51-3.85-4.79c0-3.1,1-4.57,3.85-4.57S122.4,440,122.4,443.09Zm-1.39,0c0-2.5-.54-3.4-2.47-3.4s-2.46.9-2.46,3.4.34,3.62,2.46,3.62S121,445.65,121,443.09Z" fill="#3a3d3f"/><path d="M124.7,434.77h1.35V447.7H124.7Z" fill="#3a3d3f"/><path d="M128.86,434.77h1.35V447.7h-1.35Z" fill="#3a3d3f"/><path d="M139.55,446.53l0,1.06a31.38,31.38,0,0,1-3.51.29c-2.69,0-3.57-1.57-3.57-4.63,0-3.42,1.48-4.73,3.76-4.73s3.62,1.26,3.62,4.21l-.07,1h-5.94c0,1.92.59,2.93,2.36,2.93C137.59,446.69,139.55,446.53,139.55,446.53Zm-1-3.85c0-2.24-.68-3-2.27-3s-2.39.85-2.41,3Z" fill="#3a3d3f"/><path d="M148.35,446c0,.52.47.72,1.05.79l-.06,1.06a2.75,2.75,0,0,1-2.14-.72,9.2,9.2,0,0,1-3.24.72c-1.64,0-2.54-.94-2.54-2.75s.9-2.49,2.75-2.67l2.83-.27v-.77c0-1.26-.54-1.71-1.62-1.71-1.26,0-3.4.23-3.4.23l-.06-1a22.13,22.13,0,0,1,3.53-.39c2,0,2.9.93,2.9,2.9Zm-4-2.56c-1.1.11-1.53.63-1.53,1.62s.45,1.66,1.36,1.66a9.48,9.48,0,0,0,2.83-.56v-3Z" fill="#3a3d3f"/><path d="M150.62,449.21c0-1,.48-1.53,1.42-2.23a1.47,1.47,0,0,1-.5-1.24,5.82,5.82,0,0,1,.61-1.42c-.76-.35-1.42-1.07-1.42-2.72,0-2.22,1.36-3.08,3.36-3.08a9.6,9.6,0,0,1,1.88.23l2.66-.07v1.15l-1.71,0a2.34,2.34,0,0,1,.59,1.8c0,2.34-1.17,3-3.47,3-.18,0-.69,0-.88-.07a5.3,5.3,0,0,0-.33,1c0,.72.15.83,2.18.83,2.56,0,3.48.5,3.48,2.65s-1.46,2.86-4,2.86C151.64,451.93,150.62,451.3,150.62,449.21Zm2.34-1.69c-.76.56-1,.88-1,1.58,0,1.25.52,1.7,2.56,1.7,1.8,0,2.61-.49,2.61-1.68,0-1.37-.58-1.51-2.22-1.51C154.27,447.61,153,447.52,153,447.52Zm3.2-5.92c0-1.43-.56-2-2.07-2s-2,.55-2,2,.61,2,2,2S156.16,443,156.16,441.6Z" fill="#3a3d3f"/><path d="M167.23,438.7v9h-1.35v-.63a6.07,6.07,0,0,1-2.66.81c-2.52,0-3-1.17-3-4.48v-4.7h1.35v4.68c0,2.48.21,3.29,1.89,3.29a5.46,5.46,0,0,0,2.46-.66V438.7Z" fill="#3a3d3f"/><path d="M176.47,446.53l0,1.06a31.12,31.12,0,0,1-3.51.29c-2.68,0-3.56-1.57-3.56-4.63,0-3.42,1.47-4.73,3.76-4.73s3.62,1.26,3.62,4.21l-.07,1H170.8c0,1.92.59,2.93,2.35,2.93C174.5,446.69,176.47,446.53,176.47,446.53Zm-1-3.85c0-2.24-.69-3-2.27-3s-2.39.85-2.41,3Z" fill="#3a3d3f"/><path d="M184.89,440a29.33,29.33,0,0,0-3.15-.29c-1.12,0-2,.31-2,1.37,0,.85.43,1.08,2.34,1.41,2.25.37,3.1.82,3.1,2.57,0,2.11-1.34,2.81-3.5,2.81a25.65,25.65,0,0,1-3.17-.34l.07-1.17s2.06.3,3,.3c1.47,0,2.26-.32,2.26-1.54,0-.94-.46-1.18-2.43-1.48s-3-.7-3-2.5c0-2,1.6-2.63,3.24-2.63a23.19,23.19,0,0,1,3.26.34Z" fill="#3a3d3f"/><path d="M197.6,446c0,.52.47.72,1,.79l0,1.06a2.74,2.74,0,0,1-2.14-.72,9.2,9.2,0,0,1-3.24.72c-1.64,0-2.54-.94-2.54-2.75s.9-2.49,2.75-2.67l2.83-.27v-.77c0-1.26-.54-1.71-1.62-1.71-1.26,0-3.41.23-3.41.23l-.05-1a22.13,22.13,0,0,1,3.53-.39c2,0,2.9.93,2.9,2.9Zm-4-2.56c-1.09.11-1.53.63-1.53,1.62s.45,1.66,1.37,1.66a9.57,9.57,0,0,0,2.83-.56v-3Z" fill="#3a3d3f"/><path d="M200.26,438.7h1.33v1.22a10.17,10.17,0,0,1,3.3-1.42v1.37a13.15,13.15,0,0,0-3.28,1.22v6.61h-1.35Z" fill="#3a3d3f"/><path d="M213.13,446.53l0,1.06a31.12,31.12,0,0,1-3.51.29c-2.69,0-3.57-1.57-3.57-4.63,0-3.42,1.48-4.73,3.76-4.73s3.62,1.26,3.62,4.21l-.07,1h-5.94c0,1.92.59,2.93,2.36,2.93C211.17,446.69,213.13,446.53,213.13,446.53Zm-1-3.85c0-2.24-.68-3-2.27-3s-2.39.85-2.41,3Z" fill="#3a3d3f"/><path d="M225.89,446c0,.52.47.72,1.05.79l-.06,1.06a2.75,2.75,0,0,1-2.14-.72,9.2,9.2,0,0,1-3.24.72c-1.64,0-2.54-.94-2.54-2.75s.9-2.49,2.76-2.67l2.82-.27v-.77c0-1.26-.54-1.71-1.62-1.71-1.26,0-3.4.23-3.4.23l-.05-1a22.13,22.13,0,0,1,3.53-.39c2,0,2.89.93,2.89,2.9Zm-4-2.56c-1.1.11-1.53.63-1.53,1.62s.45,1.66,1.37,1.66a9.47,9.47,0,0,0,2.82-.56v-3Z" fill="#3a3d3f"/><path d="M229.15,438.7l2.11,7.83h.66l2.18-7.83h1.39l-2.54,9h-2.7l-2.54-9Z" fill="#3a3d3f"/><path d="M243.57,446c0,.52.47.72,1,.79l-.05,1.06a2.75,2.75,0,0,1-2.14-.72,9.2,9.2,0,0,1-3.24.72c-1.64,0-2.54-.94-2.54-2.75s.9-2.49,2.75-2.67l2.83-.27v-.77c0-1.26-.54-1.71-1.62-1.71-1.26,0-3.4.23-3.4.23l-.06-1a22.13,22.13,0,0,1,3.53-.39c2,0,2.9.93,2.9,2.9Zm-4-2.56c-1.09.11-1.53.63-1.53,1.62s.45,1.66,1.37,1.66a9.57,9.57,0,0,0,2.83-.56v-3Z" fill="#3a3d3f"/><path d="M246.23,435.1h1.35v1.56h-1.35Zm0,3.6h1.35v9h-1.35Z" fill="#3a3d3f"/><path d="M250.28,434.77h1.35V447.7h-1.35Z" fill="#3a3d3f"/><path d="M260.69,446c0,.52.46.72,1,.79l-.05,1.06a2.76,2.76,0,0,1-2.15-.72,9.2,9.2,0,0,1-3.24.72c-1.64,0-2.53-.94-2.53-2.75s.89-2.49,2.75-2.67l2.83-.27v-.77c0-1.26-.54-1.71-1.62-1.71-1.26,0-3.41.23-3.41.23l-.05-1a22.13,22.13,0,0,1,3.53-.39c2,0,2.9.93,2.9,2.9Zm-4-2.56c-1.1.11-1.53.63-1.53,1.62s.45,1.66,1.37,1.66a9.57,9.57,0,0,0,2.83-.56v-3Z" fill="#3a3d3f"/><path d="M270.6,443.05c0,3.59-1,4.83-4.24,4.83-1.09,0-3-.2-3-.2V434.77h1.33v4.38a7.44,7.44,0,0,1,2.65-.63C269.78,438.52,270.6,439.81,270.6,443.05Zm-1.36,0c0-2.32-.47-3.33-2.06-3.33a7.45,7.45,0,0,0-2.5.53v6.33s1.17.09,1.66.09C268.8,446.67,269.24,445.58,269.24,443.05Z" fill="#3a3d3f"/><path d="M272.92,434.77h1.35V447.7h-1.35Z" fill="#3a3d3f"/><path d="M283.62,446.53l0,1.06a31.12,31.12,0,0,1-3.51.29c-2.68,0-3.56-1.57-3.56-4.63,0-3.42,1.47-4.73,3.76-4.73s3.62,1.26,3.62,4.21l-.07,1H278c0,1.92.59,2.93,2.35,2.93C281.66,446.69,283.62,446.53,283.62,446.53Zm-1-3.85c0-2.24-.68-3-2.27-3s-2.39.85-2.41,3Z" fill="#3a3d3f"/><path d="M291.75,447.7H290.4v-7.83h-1.13V438.7h1.13v-.81c0-2.6.67-3.3,2.43-3.3.62,0,1.82.13,1.82.13l0,1.11s-1,0-1.54,0c-1,0-1.34.43-1.34,2.11v.79h2.61v1.17h-2.61Z" fill="#3a3d3f"/><path d="M303.29,443.09c0,3.28-.81,4.79-3.85,4.79s-3.85-1.51-3.85-4.79c0-3.1,1-4.57,3.85-4.57S303.29,440,303.29,443.09Zm-1.38,0c0-2.5-.54-3.4-2.47-3.4s-2.47.9-2.47,3.4.34,3.62,2.47,3.62S301.91,445.65,301.91,443.09Z" fill="#3a3d3f"/><path d="M305.49,438.7h1.33v1.22a10.06,10.06,0,0,1,3.29-1.42v1.37a13,13,0,0,0-3.27,1.22v6.61h-1.35Z" fill="#3a3d3f"/><path d="M315.67,447.7v-9H317v.63a6,6,0,0,1,2.62-.81,2.57,2.57,0,0,1,2.35.91,7.52,7.52,0,0,1,3.2-.91c2.45,0,3,1.17,3,4.43v4.75h-1.35V443c0-2.37-.27-3.26-1.89-3.26a6,6,0,0,0-2.54.67,9.8,9.8,0,0,1,.24,2.63v4.68h-1.35v-4.65c0-2.48-.25-3.33-1.89-3.33a5.4,5.4,0,0,0-2.42.67v7.31Z" fill="#3a3d3f"/><path d="M337.08,446c0,.52.47.72,1,.79l-.05,1.06a2.74,2.74,0,0,1-2.14-.72,9.29,9.29,0,0,1-3.25.72c-1.63,0-2.53-.94-2.53-2.75s.9-2.49,2.75-2.67l2.83-.27v-.77c0-1.26-.54-1.71-1.62-1.71-1.26,0-3.41.23-3.41.23l-.05-1a22.13,22.13,0,0,1,3.53-.39c2,0,2.9.93,2.9,2.9Zm-4-2.56c-1.1.11-1.53.63-1.53,1.62s.45,1.66,1.37,1.66a9.57,9.57,0,0,0,2.83-.56v-3Z" fill="#3a3d3f"/><path d="M339.74,447.7v-9h1.33v.63a6.85,6.85,0,0,1,2.79-.81c2.49,0,3.05,1.22,3.05,4.43v4.75h-1.34V443c0-2.37-.27-3.26-1.94-3.26a6.12,6.12,0,0,0-2.54.67v7.31Z" fill="#3a3d3f"/><path d="M356.37,438.7v9H355v-.63a6.07,6.07,0,0,1-2.66.81c-2.52,0-3.05-1.17-3.05-4.48v-4.7h1.36v4.68c0,2.48.21,3.29,1.89,3.29A5.46,5.46,0,0,0,355,446V438.7Z" fill="#3a3d3f"/><path d="M365.32,446c0,.52.47.72,1,.79l-.05,1.06a2.74,2.74,0,0,1-2.14-.72,9.2,9.2,0,0,1-3.24.72c-1.64,0-2.54-.94-2.54-2.75s.9-2.49,2.75-2.67l2.83-.27v-.77c0-1.26-.54-1.71-1.62-1.71-1.26,0-3.41.23-3.41.23l-.05-1a22.13,22.13,0,0,1,3.53-.39c2,0,2.9.93,2.9,2.9Zm-4-2.56c-1.09.11-1.53.63-1.53,1.62s.45,1.66,1.37,1.66a9.57,9.57,0,0,0,2.83-.56v-3Z" fill="#3a3d3f"/><path d="M368.09,434.77h1.35V447.7h-1.35Z" fill="#3a3d3f"/><path d="M381.91,438.79l-.05,1.1s-1.44-.17-2.12-.17c-2.07,0-2.63.9-2.63,3.32,0,2.66.41,3.63,2.64,3.63.69,0,2.13-.16,2.13-.16l.05,1.12a24,24,0,0,1-2.5.25c-2.86,0-3.71-1.31-3.71-4.84,0-3.26,1.06-4.52,3.75-4.52A20.91,20.91,0,0,1,381.91,438.79Z" fill="#3a3d3f"/><path d="M384,447.7V434.77h1.35v4.43a7.64,7.64,0,0,1,2.77-.68c2.47,0,3,1.22,3,4.43v4.75h-1.35V443c0-2.37-.27-3.26-1.92-3.26a7.41,7.41,0,0,0-2.54.54v7.44Z" fill="#3a3d3f"/><path d="M400.26,446.53l0,1.06a31.12,31.12,0,0,1-3.51.29c-2.68,0-3.56-1.57-3.56-4.63,0-3.42,1.47-4.73,3.76-4.73s3.62,1.26,3.62,4.21l-.07,1h-5.95c0,1.92.6,2.93,2.36,2.93C398.29,446.69,400.26,446.53,400.26,446.53Zm-1-3.85c0-2.24-.69-3-2.27-3s-2.4.85-2.41,3Z" fill="#3a3d3f"/><path d="M408.52,438.79l-.06,1.1s-1.44-.17-2.12-.17c-2.07,0-2.63.9-2.63,3.32,0,2.66.41,3.63,2.65,3.63.68,0,2.12-.16,2.12-.16l.06,1.12a24.24,24.24,0,0,1-2.51.25c-2.86,0-3.71-1.31-3.71-4.84,0-3.26,1.07-4.52,3.75-4.52A20.89,20.89,0,0,1,408.52,438.79Z" fill="#3a3d3f"/><path d="M410.55,447.7V434.77h1.35v7.64l1.4-.08,2.58-3.63h1.53l-2.94,4.14,3.07,4.86H416l-2.69-4.18-1.42.06v4.12Z" fill="#3a3d3f"/><path d="M424.93,439.87v4.3c0,2,.13,2.52,1.3,2.52.5,0,1.6-.11,1.6-.11l.09,1.12a15.43,15.43,0,0,1-1.84.2c-1.85,0-2.48-.7-2.48-3.3v-4.73h-1.28V438.7h1.28v-2.76h1.33v2.76h2.87v1.17Z" fill="#3a3d3f"/><path d="M435.81,446c0,.52.46.72,1,.79l-.05,1.06a2.76,2.76,0,0,1-2.15-.72,9.2,9.2,0,0,1-3.24.72c-1.64,0-2.54-.94-2.54-2.75s.9-2.49,2.76-2.67l2.83-.27v-.77c0-1.26-.54-1.71-1.62-1.71-1.27,0-3.41.23-3.41.23l-.05-1a22.13,22.13,0,0,1,3.53-.39c2,0,2.9.93,2.9,2.9Zm-4-2.56c-1.1.11-1.53.63-1.53,1.62s.45,1.66,1.37,1.66a9.57,9.57,0,0,0,2.83-.56v-3Z" fill="#3a3d3f"/><path d="M444.45,440a29.33,29.33,0,0,0-3.16-.29c-1.11,0-2,.31-2,1.37,0,.85.43,1.08,2.34,1.41,2.25.37,3.1.82,3.1,2.57,0,2.11-1.33,2.81-3.49,2.81a25.4,25.4,0,0,1-3.17-.34l.07-1.17s2.05.3,3,.3c1.48,0,2.27-.32,2.27-1.54,0-.94-.47-1.18-2.43-1.48s-3-.7-3-2.5c0-2,1.6-2.63,3.24-2.63a23.19,23.19,0,0,1,3.26.34Z" fill="#3a3d3f"/><path d="M446.84,447.7V434.77h1.35v7.64l1.4-.08,2.58-3.63h1.53l-2.94,4.14,3.06,4.86h-1.53l-2.68-4.18-1.42.06v4.12Z" fill="#3a3d3f"/><path d="M455.37,445.65h1.48v2.05h-1.48Z" fill="#3a3d3f"/><path d="M462.25,435.24h9v1.24h-3.8V447.7h-1.37V436.48h-3.83Z" fill="#3a3d3f"/><path d="M472.77,447.7V434.77h1.36v4.43a7.64,7.64,0,0,1,2.77-.68c2.47,0,3,1.22,3,4.43v4.75h-1.35V443c0-2.37-.27-3.26-1.93-3.26a7.39,7.39,0,0,0-2.53.54v7.44Z" fill="#3a3d3f"/><path d="M482.44,435.1h1.35v1.56h-1.35Zm0,3.6h1.35v9h-1.35Z" fill="#3a3d3f"/><path d="M492.36,440a29.33,29.33,0,0,0-3.15-.29c-1.12,0-2,.31-2,1.37,0,.85.43,1.08,2.34,1.41,2.25.37,3.1.82,3.1,2.57,0,2.11-1.34,2.81-3.5,2.81a25.65,25.65,0,0,1-3.17-.34l.07-1.17s2.06.3,3,.3c1.47,0,2.27-.32,2.27-1.54,0-.94-.47-1.18-2.44-1.48s-3-.7-3-2.5c0-2,1.6-2.63,3.24-2.63a23.19,23.19,0,0,1,3.26.34Z" fill="#3a3d3f"/><path d="M50.34,471.09c0,3.28-.81,4.79-3.85,4.79s-3.85-1.51-3.85-4.79c0-3.1,1-4.57,3.85-4.57S50.34,468,50.34,471.09Zm-1.38,0c0-2.5-.54-3.4-2.47-3.4s-2.47.9-2.47,3.4.35,3.62,2.47,3.62S49,473.65,49,471.09Z" fill="#3a3d3f"/><path d="M52.54,466.7h1.33v.64a6.17,6.17,0,0,1,2.7-.82c2.27,0,3.26,1.38,3.26,4.57,0,3.53-1.15,4.79-3.93,4.79a11,11,0,0,1-2-.2v4H52.54Zm1.35,1.74v6.07a12.78,12.78,0,0,0,1.94.2c2,0,2.63-1,2.63-3.62s-.77-3.37-2.09-3.37A5.86,5.86,0,0,0,53.89,468.44Z" fill="#3a3d3f"/><path d="M68.67,474.53l0,1.06a31.12,31.12,0,0,1-3.51.29c-2.68,0-3.56-1.57-3.56-4.63,0-3.42,1.47-4.73,3.76-4.73S69,467.78,69,470.73l-.07,1H63c0,1.92.59,2.93,2.35,2.93C66.71,474.69,68.67,474.53,68.67,474.53Zm-1-3.85c0-2.24-.68-3-2.27-3s-2.39.85-2.41,3Z" fill="#3a3d3f"/><path d="M71.11,466.7h1.34v1.22a10.06,10.06,0,0,1,3.29-1.42v1.37a13.15,13.15,0,0,0-3.28,1.22v6.61H71.11Z" fill="#3a3d3f"/><path d="M83.7,474c0,.52.47.72,1,.79l0,1.06a2.74,2.74,0,0,1-2.14-.72,9.22,9.22,0,0,1-3.25.72c-1.63,0-2.54-.94-2.54-2.75s.91-2.49,2.76-2.67l2.83-.27v-.77c0-1.26-.54-1.71-1.62-1.71-1.26,0-3.41.23-3.41.23l0-1a22.13,22.13,0,0,1,3.53-.39c2,0,2.9.93,2.9,2.9Zm-4-2.56c-1.1.11-1.53.63-1.53,1.62s.45,1.66,1.37,1.66a9.57,9.57,0,0,0,2.83-.56v-3Z" fill="#3a3d3f"/><path d="M88.16,467.87v4.3c0,2,.13,2.52,1.3,2.52.5,0,1.6-.11,1.6-.11l.09,1.12a15.71,15.71,0,0,1-1.84.2c-1.85,0-2.48-.7-2.48-3.3v-4.73H85.55V466.7h1.28v-2.76h1.33v2.76H91v1.17Z" fill="#3a3d3f"/><path d="M92.68,463.1H94v1.56H92.68Zm0,3.6H94v9H92.68Z" fill="#3a3d3f"/><path d="M103.93,471.09c0,3.28-.81,4.79-3.85,4.79s-3.86-1.51-3.86-4.79c0-3.1,1-4.57,3.86-4.57S103.93,468,103.93,471.09Zm-1.39,0c0-2.5-.54-3.4-2.46-3.4s-2.47.9-2.47,3.4.34,3.62,2.47,3.62S102.54,473.65,102.54,471.09Z" fill="#3a3d3f"/><path d="M106.12,475.7v-9h1.34v.63a6.79,6.79,0,0,1,2.79-.81c2.48,0,3,1.22,3,4.43v4.75H112V471c0-2.37-.27-3.26-1.95-3.26a6.18,6.18,0,0,0-2.54.67v7.31Z" fill="#3a3d3f"/><path d="M125.57,466.79l-.06,1.1s-1.44-.17-2.12-.17c-2.07,0-2.63.9-2.63,3.32,0,2.66.41,3.63,2.64,3.63.69,0,2.13-.16,2.13-.16l0,1.12a24,24,0,0,1-2.5.25c-2.86,0-3.71-1.31-3.71-4.84,0-3.26,1.06-4.52,3.75-4.52A21.18,21.18,0,0,1,125.57,466.79Z" fill="#3a3d3f"/><path d="M134,474c0,.52.47.72,1.05.79l-.06,1.06a2.75,2.75,0,0,1-2.14-.72,9.2,9.2,0,0,1-3.24.72c-1.64,0-2.54-.94-2.54-2.75s.9-2.49,2.76-2.67l2.82-.27v-.77c0-1.26-.54-1.71-1.62-1.71-1.26,0-3.4.23-3.4.23l0-1a22.1,22.1,0,0,1,3.52-.39c2,0,2.9.93,2.9,2.9Zm-4-2.56c-1.1.11-1.53.63-1.53,1.62s.45,1.66,1.37,1.66a9.47,9.47,0,0,0,2.82-.56v-3Z" fill="#3a3d3f"/><path d="M136.61,475.7v-9H138v.63a6.85,6.85,0,0,1,2.79-.81c2.48,0,3,1.22,3,4.43v4.75h-1.33V471c0-2.37-.27-3.26-1.95-3.26a6.11,6.11,0,0,0-2.53.67v7.31Z" fill="#3a3d3f"/><path d="M156.22,468a29.33,29.33,0,0,0-3.15-.29c-1.12,0-2,.31-2,1.37,0,.85.44,1.08,2.35,1.41,2.25.37,3.09.82,3.09,2.57,0,2.11-1.33,2.81-3.49,2.81a25.65,25.65,0,0,1-3.17-.34l.07-1.17s2.06.3,3,.3c1.48,0,2.27-.32,2.27-1.54,0-.94-.47-1.18-2.43-1.48s-3-.7-3-2.5c0-2,1.6-2.63,3.24-2.63a23.19,23.19,0,0,1,3.26.34Z" fill="#3a3d3f"/><path d="M164.43,466.79l-.06,1.1s-1.44-.17-2.12-.17c-2.07,0-2.63.9-2.63,3.32,0,2.66.41,3.63,2.65,3.63.68,0,2.12-.16,2.12-.16l.05,1.12a24,24,0,0,1-2.5.25c-2.86,0-3.71-1.31-3.71-4.84,0-3.26,1.07-4.52,3.75-4.52A20.89,20.89,0,0,1,164.43,466.79Z" fill="#3a3d3f"/><path d="M172.81,474c0,.52.47.72,1.05.79l-.06,1.06a2.75,2.75,0,0,1-2.14-.72,9.2,9.2,0,0,1-3.24.72c-1.64,0-2.54-.94-2.54-2.75s.9-2.49,2.76-2.67l2.82-.27v-.77c0-1.26-.54-1.71-1.62-1.71-1.26,0-3.4.23-3.4.23l-.05-1a22.13,22.13,0,0,1,3.53-.39c2,0,2.89.93,2.89,2.9Zm-4-2.56c-1.1.11-1.53.63-1.53,1.62s.45,1.66,1.37,1.66a9.47,9.47,0,0,0,2.82-.56v-3Z" fill="#3a3d3f"/><path d="M175.48,475.7v-9h1.33v.63a6.85,6.85,0,0,1,2.79-.81c2.48,0,3,1.22,3,4.43v4.75h-1.33V471c0-2.37-.27-3.26-1.94-3.26a6.12,6.12,0,0,0-2.54.67v7.31Z" fill="#3a3d3f"/><path d="M196.07,466.7v9h-1.35v-.63a6.08,6.08,0,0,1-2.67.81c-2.52,0-3-1.17-3-4.48v-4.7h1.35v4.68c0,2.48.22,3.29,1.89,3.29a5.48,5.48,0,0,0,2.47-.66V466.7Z" fill="#3a3d3f"/><path d="M198.66,466.7H200v.64a6.17,6.17,0,0,1,2.7-.82c2.27,0,3.26,1.38,3.26,4.57,0,3.53-1.15,4.79-3.92,4.79a11,11,0,0,1-2-.2v4h-1.35Zm1.35,1.74v6.07a12.8,12.8,0,0,0,2,.2c2,0,2.62-1,2.62-3.62s-.77-3.37-2.08-3.37A5.87,5.87,0,0,0,200,468.44Z" fill="#3a3d3f"/><path d="M213.91,467.87v4.3c0,2,.12,2.52,1.29,2.52.51,0,1.61-.11,1.61-.11l.09,1.12a15.71,15.71,0,0,1-1.84.2c-1.86,0-2.49-.7-2.49-3.3v-4.73H211.3V466.7h1.27v-2.76h1.34v2.76h2.86v1.17Z" fill="#3a3d3f"/><path d="M225.73,471.09c0,3.28-.81,4.79-3.85,4.79s-3.85-1.51-3.85-4.79c0-3.1,1-4.57,3.85-4.57S225.73,468,225.73,471.09Zm-1.38,0c0-2.5-.54-3.4-2.47-3.4s-2.46.9-2.46,3.4.34,3.62,2.46,3.62S224.35,473.65,224.35,471.09Z" fill="#3a3d3f"/><path d="M236.3,463.82h1.3V475.7h-1.39V465.36l-3.06,2-.63-1Z" fill="#3a3d3f"/><path d="M250,469.94c0,4.55-1.6,5.94-4.32,5.94s-4.34-1.35-4.34-5.92c0-4.9,1.59-6.34,4.33-6.34S250,465,250,469.94Zm-7.22,0c0,3.72,1,4.7,2.9,4.7s2.9-1,2.9-4.72c0-4-.92-5.08-2.9-5.08S242.81,465.91,242.81,470Z" fill="#3a3d3f"/><path d="M260.11,469.94c0,4.55-1.6,5.94-4.32,5.94s-4.34-1.35-4.34-5.92c0-4.9,1.59-6.34,4.33-6.34S260.11,465,260.11,469.94Zm-7.22,0c0,3.72,1,4.7,2.9,4.7s2.9-1,2.9-4.72c0-4-.92-5.08-2.9-5.08S252.89,465.91,252.89,470Z" fill="#3a3d3f"/><path d="M273.34,471.05c0,3.59-1,4.83-4.24,4.83-1.09,0-3-.2-3-.2V462.77h1.33v4.38a7.44,7.44,0,0,1,2.65-.63C272.52,466.52,273.34,467.81,273.34,471.05Zm-1.36,0c0-2.32-.47-3.33-2.06-3.33a7.45,7.45,0,0,0-2.5.53v6.33s1.17.09,1.66.09C271.54,474.67,272,473.58,272,471.05Z" fill="#3a3d3f"/><path d="M281.91,474c0,.52.47.72,1,.79l-.06,1.06a2.75,2.75,0,0,1-2.14-.72,9.2,9.2,0,0,1-3.24.72c-1.64,0-2.54-.94-2.54-2.75s.9-2.49,2.75-2.67l2.83-.27v-.77c0-1.26-.54-1.71-1.62-1.71-1.26,0-3.4.23-3.4.23l-.06-1a22.3,22.3,0,0,1,3.53-.39c2,0,2.9.93,2.9,2.9Zm-4-2.56c-1.1.11-1.53.63-1.53,1.62s.45,1.66,1.36,1.66a9.48,9.48,0,0,0,2.83-.56v-3Z" fill="#3a3d3f"/><path d="M284.18,477.21c0-1,.48-1.53,1.42-2.23a1.47,1.47,0,0,1-.5-1.24,5.82,5.82,0,0,1,.61-1.42c-.76-.35-1.42-1.07-1.42-2.72,0-2.22,1.36-3.08,3.36-3.08a9.6,9.6,0,0,1,1.88.23l2.66-.07v1.15l-1.71,0a2.34,2.34,0,0,1,.59,1.8c0,2.34-1.17,3-3.47,3-.18,0-.69,0-.88-.07a5.3,5.3,0,0,0-.33,1c0,.72.15.83,2.18.83,2.56,0,3.48.5,3.48,2.65s-1.46,2.86-4,2.86C285.2,479.93,284.18,479.3,284.18,477.21Zm2.34-1.69c-.76.56-1,.88-1,1.58,0,1.25.52,1.7,2.56,1.7,1.8,0,2.61-.49,2.61-1.68,0-1.37-.58-1.51-2.22-1.51C287.83,475.61,286.52,475.52,286.52,475.52Zm3.2-5.92c0-1.43-.55-2-2.07-2s-2,.55-2,2,.61,2,2,2S289.72,471,289.72,469.6Z" fill="#3a3d3f"/><path d="M299.8,468a29.33,29.33,0,0,0-3.15-.29c-1.11,0-2,.31-2,1.37,0,.85.43,1.08,2.34,1.41,2.25.37,3.1.82,3.1,2.57,0,2.11-1.33,2.81-3.5,2.81a25.4,25.4,0,0,1-3.16-.34l.07-1.17s2,.3,3,.3c1.48,0,2.27-.32,2.27-1.54,0-.94-.47-1.18-2.43-1.48s-3-.7-3-2.5c0-2,1.6-2.63,3.24-2.63a23.19,23.19,0,0,1,3.26.34Z" fill="#3a3d3f"/><path d="M302.11,473.65h1.47v2.05h-1.47Z" fill="#3a3d3f"/><path d="M310.08,463.46H318v2.16h-5.44v2.86h4.36v2.12h-4.36v2.94H318v2.16h-7.92Z" fill="#3a3d3f"/><path d="M319.84,475.7v-9h2.39v.5a5.51,5.51,0,0,1,2.12-.72,2.86,2.86,0,0,1,2.26.85,8,8,0,0,1,3-.85c2.45,0,3.17,1.44,3.17,4.34v4.88h-2.41v-4.81c0-1.37-.18-2.25-1.26-2.25a6.24,6.24,0,0,0-1.68.34s.07,1.35.07,2.06v4.66h-2.41v-4.63c0-1.62-.14-2.43-1.26-2.43a4.91,4.91,0,0,0-1.6.33v6.73Z" fill="#3a3d3f"/><path d="M334.94,463.1h2.41v2.44h-2.41Zm0,3.6h2.41v9h-2.41Z" fill="#3a3d3f"/><path d="M339.69,463.1h2.41v12.6h-2.41Z" fill="#3a3d3f"/><path d="M344.44,463.1h2.41v2.44h-2.41Zm0,3.6h2.41v9h-2.41Z" fill="#3a3d3f"/><path d="M356,473.25c0,.54.11.76.59.85l-.07,1.82a4,4,0,0,1-2.57-.63,7,7,0,0,1-2.65.63c-1.89,0-2.79-1.05-2.79-3s1.17-2.61,3.15-2.75l1.93-.15v-.55c0-.78-.35-1-1.07-1-1.18,0-3.38.15-3.38.15l-.07-1.68a16.37,16.37,0,0,1,3.65-.52c2.34,0,3.28.92,3.28,3Zm-4.05-1.37c-.63.06-1,.36-1,1s.23,1.06.88,1.06a7.9,7.9,0,0,0,1.77-.28v-1.93Z" fill="#3a3d3f"/><path d="M368.78,474c0,.52.47.72,1,.79l-.05,1.06a2.74,2.74,0,0,1-2.14-.72,9.22,9.22,0,0,1-3.25.72c-1.63,0-2.54-.94-2.54-2.75s.91-2.49,2.76-2.67l2.83-.27v-.77c0-1.26-.54-1.71-1.62-1.71-1.26,0-3.41.23-3.41.23l0-1a22.13,22.13,0,0,1,3.53-.39c2,0,2.9.93,2.9,2.9Zm-4-2.56c-1.1.11-1.53.63-1.53,1.62s.45,1.66,1.37,1.66a9.57,9.57,0,0,0,2.83-.56v-3Z" fill="#3a3d3f"/><path d="M371.44,475.7v-9h1.33v.63a6.85,6.85,0,0,1,2.79-.81c2.49,0,3.05,1.22,3.05,4.43v4.75h-1.34V471c0-2.37-.27-3.26-1.94-3.26a6.12,6.12,0,0,0-2.54.67v7.31Z" fill="#3a3d3f"/><path d="M388,475.7h-1.33v-.61a6.49,6.49,0,0,1-2.74.79c-1.76,0-3.24-.72-3.24-4.61,0-3.17,1-4.75,3.76-4.75a15.79,15.79,0,0,1,2.22.23v-4H388ZM386.69,474V467.9a16.26,16.26,0,0,0-2.15-.21c-1.89,0-2.44,1.24-2.44,3.58,0,2.92.95,3.4,2,3.4A6.62,6.62,0,0,0,386.69,474Z" fill="#3a3d3f"/><path d="M394.62,463.46h4.23l2.16,8.93,2.17-8.93h4.23V475.7h-2.49v-9.47h-.27l-2.39,8.93h-2.49l-2.39-8.93h-.27v9.47h-2.49Z" fill="#3a3d3f"/><path d="M416.75,473.25c0,.54.1.76.59.85l-.07,1.82a4,4,0,0,1-2.58-.63,6.88,6.88,0,0,1-2.64.63c-1.89,0-2.79-1.05-2.79-3s1.17-2.61,3.15-2.75l1.92-.15v-.55c0-.78-.34-1-1.06-1-1.19,0-3.38.15-3.38.15l-.08-1.68a16.52,16.52,0,0,1,3.66-.52c2.34,0,3.28.92,3.28,3Zm-4.06-1.37c-.63.06-1,.36-1,1s.23,1.06.88,1.06a7.88,7.88,0,0,0,1.76-.28v-1.93Z" fill="#3a3d3f"/><path d="M419.05,466.7h2.39v.95a10.87,10.87,0,0,1,2.88-1.17v2.43a23,23,0,0,0-2.86.76v6h-2.41Z" fill="#3a3d3f"/><path d="M428.52,468.75v3.69c0,.9,0,1.32.75,1.32.51,0,1.37,0,1.37,0l.11,1.93a11.83,11.83,0,0,1-1.84.27c-2.18,0-2.81-.83-2.81-3.42v-3.75H425V466.7h1.06v-2.51h2.42v2.51h2.21v2.05Z" fill="#3a3d3f"/><path d="M432.3,463.1h2.41v2.44H432.3Zm0,3.6h2.41v9H432.3Z" fill="#3a3d3f"/><path d="M436.94,475.7v-9h2.39v.5a5.49,5.49,0,0,1,2.25-.72c2.52,0,3.17,1.59,3.17,4.34v4.88h-2.41v-4.81c0-1.37-.18-2.25-1.35-2.25a4.83,4.83,0,0,0-1.64.33v6.73Z" fill="#3a3d3f"/><path d="M49,496a29.33,29.33,0,0,0-3.15-.29c-1.12,0-2,.31-2,1.37,0,.85.43,1.08,2.34,1.41,2.25.37,3.1.82,3.1,2.57,0,2.11-1.34,2.81-3.5,2.81a25.65,25.65,0,0,1-3.17-.34l.08-1.17s2,.3,3,.3c1.47,0,2.27-.32,2.27-1.54,0-.94-.47-1.18-2.44-1.48s-3-.7-3-2.5c0-2,1.6-2.63,3.24-2.63a23.19,23.19,0,0,1,3.26.34Z" fill="#3a3d3f"/><path d="M58.05,502.53l0,1.06a31.12,31.12,0,0,1-3.51.29c-2.68,0-3.56-1.57-3.56-4.63,0-3.42,1.47-4.73,3.76-4.73s3.62,1.26,3.62,4.21l-.07,1H52.38c0,1.92.59,2.93,2.35,2.93C56.09,502.69,58.05,502.53,58.05,502.53Zm-1-3.85c0-2.24-.68-3-2.27-3s-2.39.85-2.41,3Z" fill="#3a3d3f"/><path d="M67.14,502.53l0,1.06a31.12,31.12,0,0,1-3.51.29c-2.68,0-3.56-1.57-3.56-4.63,0-3.42,1.47-4.73,3.76-4.73s3.62,1.26,3.62,4.21l-.07,1H61.47c0,1.92.59,2.93,2.35,2.93C65.18,502.69,67.14,502.53,67.14,502.53Zm-1-3.85c0-2.24-.68-3-2.27-3s-2.39.85-2.41,3Z" fill="#3a3d3f"/><path d="M69.58,503.7v-9h1.34v.63a6,6,0,0,1,2.63-.81,2.56,2.56,0,0,1,2.34.91,7.52,7.52,0,0,1,3.2-.91c2.45,0,3,1.17,3,4.43v4.75H80.78V499c0-2.37-.27-3.26-1.89-3.26a6,6,0,0,0-2.54.67,9.8,9.8,0,0,1,.24,2.63v4.68H75.24v-4.65c0-2.48-.25-3.33-1.89-3.33a5.4,5.4,0,0,0-2.42.67v7.31Z" fill="#3a3d3f"/><path d="M90.39,495.87v4.3c0,2,.13,2.52,1.3,2.52.5,0,1.6-.11,1.6-.11l.09,1.12a15.43,15.43,0,0,1-1.84.2c-1.85,0-2.48-.7-2.48-3.3v-4.73H87.78V494.7h1.28v-2.76h1.33v2.76h2.87v1.17Z" fill="#3a3d3f"/><path d="M102.22,499.09c0,3.28-.81,4.79-3.85,4.79s-3.86-1.51-3.86-4.79c0-3.1,1-4.57,3.86-4.57S102.22,496,102.22,499.09Zm-1.39,0c0-2.5-.54-3.4-2.46-3.4s-2.47.9-2.47,3.4.34,3.62,2.47,3.62S100.83,501.65,100.83,499.09Z" fill="#3a3d3f"/><path d="M108.37,503.7V490.77h1.35v4.43a7.65,7.65,0,0,1,2.78-.68c2.46,0,3,1.22,3,4.43v4.75h-1.35V499c0-2.37-.27-3.26-1.93-3.26a7.41,7.41,0,0,0-2.54.54v7.44Z" fill="#3a3d3f"/><path d="M124.4,502c0,.52.46.72,1,.79l0,1.06a2.76,2.76,0,0,1-2.15-.72,9.2,9.2,0,0,1-3.24.72c-1.64,0-2.54-.94-2.54-2.75s.9-2.49,2.76-2.67l2.83-.27v-.77c0-1.26-.54-1.71-1.62-1.71-1.27,0-3.41.23-3.41.23l0-1a22.13,22.13,0,0,1,3.53-.39c2,0,2.9.93,2.9,2.9Zm-4-2.56c-1.1.11-1.53.63-1.53,1.62s.45,1.66,1.37,1.66a9.57,9.57,0,0,0,2.83-.56v-3Z" fill="#3a3d3f"/><path d="M127.65,494.7l2.11,7.83h.66l2.18-7.83H134l-2.54,9h-2.7l-2.54-9Z" fill="#3a3d3f"/><path d="M142.36,502.53l0,1.06a31.4,31.4,0,0,1-3.52.29c-2.68,0-3.56-1.57-3.56-4.63,0-3.42,1.48-4.73,3.76-4.73s3.62,1.26,3.62,4.21l-.07,1h-5.94c0,1.92.59,2.93,2.36,2.93C140.4,502.69,142.36,502.53,142.36,502.53Zm-1-3.85c0-2.24-.68-3-2.27-3s-2.39.85-2.41,3Z" fill="#3a3d3f"/><path d="M150.57,495.87v4.3c0,2,.12,2.52,1.29,2.52.51,0,1.61-.11,1.61-.11l.08,1.12a15.44,15.44,0,0,1-1.83.2c-1.86,0-2.49-.7-2.49-3.3v-4.73H148V494.7h1.27v-2.76h1.34v2.76h2.86v1.17Z" fill="#3a3d3f"/><path d="M155.08,503.7V490.77h1.35v4.43a7.65,7.65,0,0,1,2.78-.68c2.46,0,3,1.22,3,4.43v4.75H160.9V499c0-2.37-.27-3.26-1.93-3.26a7.41,7.41,0,0,0-2.54.54v7.44Z" fill="#3a3d3f"/><path d="M171.39,502.53l0,1.06a31.12,31.12,0,0,1-3.51.29c-2.68,0-3.57-1.57-3.57-4.63,0-3.42,1.48-4.73,3.77-4.73s3.62,1.26,3.62,4.21l-.08,1h-5.94c0,1.92.6,2.93,2.36,2.93C169.43,502.69,171.39,502.53,171.39,502.53Zm-1-3.85c0-2.24-.68-3-2.26-3s-2.4.85-2.42,3Z" fill="#3a3d3f"/><path d="M177.8,503.7v-9h1.33v.63a6,6,0,0,1,2.63-.81,2.55,2.55,0,0,1,2.34.91,7.53,7.53,0,0,1,3.21-.91c2.45,0,3,1.17,3,4.43v4.75H189V499c0-2.37-.27-3.26-1.89-3.26a6,6,0,0,0-2.54.67,10.34,10.34,0,0,1,.23,2.63v4.68h-1.35v-4.65c0-2.48-.25-3.33-1.89-3.33a5.34,5.34,0,0,0-2.41.67v7.31Z" fill="#3a3d3f"/><path d="M200.16,499.09c0,3.28-.81,4.79-3.86,4.79s-3.85-1.51-3.85-4.79c0-3.1,1-4.57,3.85-4.57S200.16,496,200.16,499.09Zm-1.39,0c0-2.5-.54-3.4-2.47-3.4s-2.46.9-2.46,3.4.34,3.62,2.46,3.62S198.77,501.65,198.77,499.09Z" fill="#3a3d3f"/><path d="M208.33,496a29.33,29.33,0,0,0-3.15-.29c-1.12,0-2,.31-2,1.37,0,.85.43,1.08,2.34,1.41,2.25.37,3.09.82,3.09,2.57,0,2.11-1.33,2.81-3.49,2.81a25.65,25.65,0,0,1-3.17-.34l.07-1.17s2.06.3,3,.3c1.48,0,2.27-.32,2.27-1.54,0-.94-.47-1.18-2.43-1.48s-3-.7-3-2.5c0-2,1.6-2.63,3.24-2.63a23.19,23.19,0,0,1,3.26.34Z" fill="#3a3d3f"/><path d="M212.52,495.87v4.3c0,2,.13,2.52,1.3,2.52.5,0,1.6-.11,1.6-.11l.09,1.12a15.71,15.71,0,0,1-1.84.2c-1.85,0-2.48-.7-2.48-3.3v-4.73h-1.28V494.7h1.28v-2.76h1.33v2.76h2.86v1.17Z" fill="#3a3d3f"/><path d="M227,496a29.33,29.33,0,0,0-3.15-.29c-1.12,0-2,.31-2,1.37,0,.85.44,1.08,2.34,1.41,2.26.37,3.1.82,3.1,2.57,0,2.11-1.33,2.81-3.49,2.81a25.65,25.65,0,0,1-3.17-.34l.07-1.17s2,.3,3,.3c1.48,0,2.27-.32,2.27-1.54,0-.94-.47-1.18-2.43-1.48s-3-.7-3-2.5c0-2,1.61-2.63,3.24-2.63a23.19,23.19,0,0,1,3.26.34Z" fill="#3a3d3f"/><path d="M236.34,494.7v9H235v-.63a6.08,6.08,0,0,1-2.67.81c-2.52,0-3-1.17-3-4.48v-4.7h1.35v4.68c0,2.48.22,3.29,1.89,3.29A5.53,5.53,0,0,0,235,502V494.7Z" fill="#3a3d3f"/><path d="M238.93,491.1h1.35v1.56h-1.35Zm0,3.6h1.35v9h-1.35Z" fill="#3a3d3f"/><path d="M244.67,495.87v4.3c0,2,.13,2.52,1.3,2.52.5,0,1.6-.11,1.6-.11l.09,1.12a15.71,15.71,0,0,1-1.84.2c-1.85,0-2.48-.7-2.48-3.3v-4.73h-1.28V494.7h1.28v-2.76h1.33v2.76h2.86v1.17Z" fill="#3a3d3f"/><path d="M255.54,502c0,.52.47.72,1,.79l-.06,1.06a2.75,2.75,0,0,1-2.14-.72,9.2,9.2,0,0,1-3.24.72c-1.64,0-2.54-.94-2.54-2.75s.9-2.49,2.76-2.67l2.82-.27v-.77c0-1.26-.54-1.71-1.62-1.71-1.26,0-3.4.23-3.4.23l0-1a22.13,22.13,0,0,1,3.53-.39c2,0,2.89.93,2.89,2.9Zm-4-2.56c-1.1.11-1.53.63-1.53,1.62s.45,1.66,1.37,1.66a9.47,9.47,0,0,0,2.82-.56v-3Z" fill="#3a3d3f"/><path d="M265.46,499.05c0,3.59-1,4.83-4.25,4.83-1.08,0-3-.2-3-.2V490.77h1.33v4.38a7.43,7.43,0,0,1,2.64-.63C264.63,494.52,265.46,495.81,265.46,499.05Zm-1.37,0c0-2.32-.46-3.33-2-3.33a7.45,7.45,0,0,0-2.5.53v6.33s1.17.09,1.65.09C263.66,502.67,264.09,501.58,264.09,499.05Z" fill="#3a3d3f"/><path d="M267.78,490.77h1.35V503.7h-1.35Z" fill="#3a3d3f"/><path d="M278.48,502.53l0,1.06a31.12,31.12,0,0,1-3.51.29c-2.68,0-3.56-1.57-3.56-4.63,0-3.42,1.47-4.73,3.76-4.73s3.62,1.26,3.62,4.21l-.07,1H272.8c0,1.92.6,2.93,2.36,2.93C276.51,502.69,278.48,502.53,278.48,502.53Zm-1-3.85c0-2.24-.69-3-2.27-3s-2.4.85-2.41,3Z" fill="#3a3d3f"/><path d="M284.88,494.7h1.33v.64a6.18,6.18,0,0,1,2.71-.82c2.26,0,3.25,1.38,3.25,4.57,0,3.53-1.15,4.79-3.92,4.79a11,11,0,0,1-2-.2v4h-1.35Zm1.35,1.74v6.07a13,13,0,0,0,1.95.2c2,0,2.62-1,2.62-3.62s-.77-3.37-2.08-3.37A5.87,5.87,0,0,0,286.23,496.44Z" fill="#3a3d3f"/><path d="M294.37,494.7h1.33v1.22a10.17,10.17,0,0,1,3.3-1.42v1.37a13,13,0,0,0-3.28,1.22v6.61h-1.35Z" fill="#3a3d3f"/><path d="M307.91,499.09c0,3.28-.82,4.79-3.86,4.79s-3.85-1.51-3.85-4.79c0-3.1,1-4.57,3.85-4.57S307.91,496,307.91,499.09Zm-1.39,0c0-2.5-.54-3.4-2.47-3.4s-2.46.9-2.46,3.4.34,3.62,2.46,3.62S306.52,501.65,306.52,499.09Z" fill="#3a3d3f"/><path d="M311.83,503.7h-1.35v-7.83h-1.14V494.7h1.14v-.81c0-2.6.66-3.3,2.43-3.3.61,0,1.82.13,1.82.13l0,1.11s-1,0-1.55,0c-1,0-1.33.43-1.33,2.11v.79h2.61v1.17h-2.61Z" fill="#3a3d3f"/><path d="M316.06,491.1h1.35v1.56h-1.35Zm0,3.6h1.35v9h-1.35Z" fill="#3a3d3f"/><path d="M320.11,490.77h1.35V503.7h-1.35Z" fill="#3a3d3f"/><path d="M330.8,502.53l0,1.06a31.38,31.38,0,0,1-3.51.29c-2.69,0-3.57-1.57-3.57-4.63,0-3.42,1.48-4.73,3.76-4.73s3.62,1.26,3.62,4.21l-.07,1h-5.94c0,1.92.59,2.93,2.36,2.93C328.84,502.69,330.8,502.53,330.8,502.53Zm-1-3.85c0-2.24-.68-3-2.27-3s-2.39.85-2.41,3Z" fill="#3a3d3f"/><path d="M343.56,502c0,.52.47.72,1.05.79l-.06,1.06a2.75,2.75,0,0,1-2.14-.72,9.2,9.2,0,0,1-3.24.72c-1.64,0-2.54-.94-2.54-2.75s.9-2.49,2.75-2.67l2.83-.27v-.77c0-1.26-.54-1.71-1.62-1.71-1.26,0-3.4.23-3.4.23l-.06-1a22.3,22.3,0,0,1,3.53-.39c2,0,2.9.93,2.9,2.9Zm-4-2.56c-1.1.11-1.53.63-1.53,1.62s.45,1.66,1.36,1.66a9.48,9.48,0,0,0,2.83-.56v-3Z" fill="#3a3d3f"/><path d="M346.22,503.7v-9h1.34v.63a6.79,6.79,0,0,1,2.79-.81c2.48,0,3,1.22,3,4.43v4.75h-1.33V499c0-2.37-.27-3.26-1.95-3.26a6.18,6.18,0,0,0-2.54.67v7.31Z" fill="#3a3d3f"/><path d="M362.8,503.7h-1.33v-.61a6.42,6.42,0,0,1-2.73.79c-1.77,0-3.25-.72-3.25-4.61,0-3.17,1-4.75,3.77-4.75a15.79,15.79,0,0,1,2.21.23v-4h1.33ZM361.47,502V495.9a16.07,16.07,0,0,0-2.14-.21c-1.89,0-2.45,1.24-2.45,3.58,0,2.92,1,3.4,2,3.4A6.54,6.54,0,0,0,361.47,502Z" fill="#3a3d3f"/><path d="M375.35,496a29.33,29.33,0,0,0-3.15-.29c-1.12,0-2,.31-2,1.37,0,.85.43,1.08,2.34,1.41,2.25.37,3.09.82,3.09,2.57,0,2.11-1.33,2.81-3.49,2.81a25.65,25.65,0,0,1-3.17-.34l.07-1.17s2.06.3,3,.3c1.48,0,2.27-.32,2.27-1.54,0-.94-.47-1.18-2.43-1.48s-3-.7-3-2.5c0-2,1.6-2.63,3.24-2.63a23.19,23.19,0,0,1,3.26.34Z" fill="#3a3d3f"/><path d="M383.56,494.79l-.06,1.1s-1.44-.17-2.12-.17c-2.07,0-2.63.9-2.63,3.32,0,2.66.41,3.63,2.65,3.63.68,0,2.12-.16,2.12-.16l.06,1.12a24.24,24.24,0,0,1-2.51.25c-2.86,0-3.71-1.31-3.71-4.84,0-3.26,1.07-4.52,3.75-4.52A20.89,20.89,0,0,1,383.56,494.79Z" fill="#3a3d3f"/><path d="M385.59,503.7V490.77h1.35v4.43a7.64,7.64,0,0,1,2.77-.68c2.47,0,3.05,1.22,3.05,4.43v4.75h-1.35V499c0-2.37-.28-3.26-1.93-3.26a7.41,7.41,0,0,0-2.54.54v7.44Z" fill="#3a3d3f"/><path d="M401.9,502.53l0,1.06a31.38,31.38,0,0,1-3.51.29c-2.69,0-3.57-1.57-3.57-4.63,0-3.42,1.48-4.73,3.76-4.73s3.62,1.26,3.62,4.21l-.07,1h-5.94c0,1.92.59,2.93,2.36,2.93C399.94,502.69,401.9,502.53,401.9,502.53Zm-1-3.85c0-2.24-.68-3-2.27-3s-2.39.85-2.41,3Z" fill="#3a3d3f"/><path d="M411.26,503.7h-1.33v-.61a6.49,6.49,0,0,1-2.74.79c-1.76,0-3.24-.72-3.24-4.61,0-3.17,1-4.75,3.76-4.75a15.79,15.79,0,0,1,2.22.23v-4h1.33ZM409.93,502V495.9a16.26,16.26,0,0,0-2.15-.21c-1.89,0-2.44,1.24-2.44,3.58,0,2.92,1,3.4,2,3.4A6.62,6.62,0,0,0,409.93,502Z" fill="#3a3d3f"/><path d="M420.84,494.7v9h-1.36v-.63a6.07,6.07,0,0,1-2.66.81c-2.52,0-3-1.17-3-4.48v-4.7h1.35v4.68c0,2.48.21,3.29,1.89,3.29a5.46,5.46,0,0,0,2.46-.66V494.7Z" fill="#3a3d3f"/><path d="M423.53,490.77h1.35V503.7h-1.35Z" fill="#3a3d3f"/><path d="M434.23,502.53l0,1.06a31.12,31.12,0,0,1-3.51.29c-2.68,0-3.56-1.57-3.56-4.63,0-3.42,1.47-4.73,3.76-4.73s3.62,1.26,3.62,4.21l-.07,1h-5.95c0,1.92.6,2.93,2.36,2.93C432.26,502.69,434.23,502.53,434.23,502.53Zm-1-3.85c0-2.24-.69-3-2.27-3s-2.4.85-2.41,3Z" fill="#3a3d3f"/><path d="M436.58,501.65h1.48v2.05h-1.48Z" fill="#3a3d3f"/><line x1="38.49" y1="55.13" x2="538.08" y2="55.13" fill="none" stroke="#ddd" stroke-miterlimit="10"/><path d="M74.26,245.1H70.33v-.73l2.31-5.77h1l-2.34,5.67h2.93v-2.52h.94v2.52h1v.83h-1v1.58h-.94Z" fill="#4c4c4c"/><path d="M55.84,226.26c0,3.1-1.09,4-2.94,4s-2.95-.91-2.95-4C50,222.94,51,222,52.89,222S55.84,222.93,55.84,226.26Zm-4.91,0c0,2.54.7,3.2,2,3.2s2-.67,2-3.21c0-2.72-.62-3.45-2-3.45S50.93,223.52,50.93,226.27Z" fill="#4c4c4c"/><path d="M48.63,193.23v.85H44.7l-.22,2.64a4.66,4.66,0,0,1,1.9-.5c1.58,0,2.57.66,2.57,2.38a2.5,2.5,0,0,1-2.71,2.82,13.57,13.57,0,0,1-2.68-.35l.11-.75a16.13,16.13,0,0,0,2.49.27A1.7,1.7,0,0,0,48,198.68c0-1.23-.68-1.62-1.71-1.62a4.66,4.66,0,0,0-1.93.49l-.65-.12.22-4.2Z" fill="#4c4c4c"/><path d="M56,197.39c0,3.1-1.09,4-2.94,4s-2.95-.91-2.95-4c0-3.33,1.08-4.31,2.94-4.31S56,194.06,56,197.39Zm-4.91,0c0,2.54.7,3.2,2,3.2s2-.67,2-3.21c0-2.72-.62-3.45-2-3.45S51.11,194.65,51.11,197.4Z" fill="#4c4c4c"/><path d="M42.21,163.33h.88v8.09h-.94v-7l-2.08,1.38-.43-.71Z" fill="#4c4c4c"/><path d="M51.56,167.5c0,3.1-1.09,4-2.94,4s-2.95-.92-2.95-4c0-3.33,1.08-4.31,2.94-4.31S51.56,164.16,51.56,167.5Zm-4.91,0c0,2.54.7,3.2,2,3.2s2-.68,2-3.21c0-2.72-.62-3.46-2-3.46S46.65,164.75,46.65,167.51Z" fill="#4c4c4c"/><path d="M58.43,167.5c0,3.1-1.1,4-3,4s-2.95-.92-2.95-4c0-3.33,1.08-4.31,2.94-4.31S58.43,164.16,58.43,167.5Zm-4.92,0c0,2.54.7,3.2,2,3.2s2-.68,2-3.21c0-2.72-.63-3.46-2-3.46S53.51,164.75,53.51,167.51Z" fill="#4c4c4c"/><path d="M42.21,133.43h.88v8.09h-.94v-7l-2.08,1.37-.43-.71Z" fill="#4c4c4c"/><path d="M51,133.43v.86H47.1l-.22,2.64a4.6,4.6,0,0,1,1.9-.51c1.58,0,2.57.67,2.57,2.39a2.49,2.49,0,0,1-2.71,2.82,13.57,13.57,0,0,1-2.68-.35l.11-.75a16.13,16.13,0,0,0,2.49.27,1.7,1.7,0,0,0,1.82-1.91c0-1.23-.68-1.62-1.71-1.62a4.64,4.64,0,0,0-1.92.49l-.65-.12.22-4.21Z" fill="#4c4c4c"/><path d="M58.43,137.6c0,3.1-1.1,4-3,4s-2.95-.92-2.95-4c0-3.33,1.08-4.31,2.94-4.31S58.43,134.27,58.43,137.6Zm-4.92,0c0,2.54.7,3.2,2,3.2s2-.67,2-3.21c0-2.72-.63-3.45-2-3.45S53.51,134.86,53.51,137.61Z" fill="#4c4c4c"/><path d="M152.47,240.58a1.8,1.8,0,0,1-1.35,1.89,2,2,0,0,1,1.47,2c0,1.78-1.37,2.32-3.05,2.32s-3-.5-3-2.18a2.15,2.15,0,0,1,1.39-2.17,1.88,1.88,0,0,1-1.26-1.9c0-1.4,1.12-2.09,2.88-2.09S152.47,239.16,152.47,240.58Zm-.88,3.83c0-.95-.63-1.25-1.44-1.49h-1.28c-.85.24-1.34.65-1.34,1.56,0,1.11.86,1.48,2,1.48S151.59,245.59,151.59,244.41Zm-3.92-3.73c0,.75.4,1.14,1.2,1.42h1.28c.84-.27,1.32-.66,1.32-1.41,0-1-.73-1.36-1.92-1.36S147.67,239.71,147.67,240.68Z" fill="#4c4c4c"/><path d="M219.11,238.61H220v8.09h-.94v-7L217,241l-.43-.71Z" fill="#4c4c4c"/><path d="M222.93,246.7v-.8l2.37-2.49c1-1,1.63-1.7,1.63-2.65s-.6-1.43-1.77-1.43a11.73,11.73,0,0,0-2.09.27l-.08-.78a9.89,9.89,0,0,1,2.34-.33c1.71,0,2.56.65,2.56,2.17,0,1.21-.55,1.92-1.69,3l-2.15,2.2h4v.82Z" fill="#4c4c4c"/><path d="M304.69,238.61h.89v8.09h-.95v-7L302.55,241l-.43-.71Z" fill="#4c4c4c"/><path d="M313.58,239.47a18.29,18.29,0,0,0-2.13-.15c-1.41,0-2.18,1-2.18,2.79a7.24,7.24,0,0,1,2-.47c1.79,0,2.72.81,2.72,2.51a2.5,2.5,0,0,1-2.83,2.67c-2,0-2.89-1.58-2.89-4.2,0-2.93,1.23-4.13,3.16-4.13a15.08,15.08,0,0,1,2.22.21ZM309.25,243c0,1.73.53,3,1.93,3a1.66,1.66,0,0,0,1.85-1.84c0-1.13-.68-1.67-1.8-1.67A5.61,5.61,0,0,0,309.25,243Z" fill="#4c4c4c"/><path d="M379,246.7v-.8l2.37-2.49c1-1,1.63-1.7,1.63-2.65s-.6-1.43-1.76-1.43a11.74,11.74,0,0,0-2.1.27l-.07-.78a9.78,9.78,0,0,1,2.34-.33c1.7,0,2.56.65,2.56,2.17,0,1.21-.56,1.92-1.69,3l-2.16,2.2h4v.82Z" fill="#4c4c4c"/><path d="M391.37,242.78c0,3.1-1.09,4-2.94,4s-2.95-.92-2.95-4c0-3.33,1.08-4.31,2.94-4.31S391.37,239.44,391.37,242.78Zm-4.91,0c0,2.54.7,3.2,2,3.2s2-.68,2-3.21c0-2.72-.63-3.46-2-3.46S386.46,240,386.46,242.79Z" fill="#4c4c4c"/><path d="M451.16,246.7v-.8l2.37-2.49c1-1,1.63-1.7,1.63-2.65s-.6-1.43-1.77-1.43a11.73,11.73,0,0,0-2.09.27l-.08-.78a9.89,9.89,0,0,1,2.34-.33c1.71,0,2.56.65,2.56,2.17,0,1.21-.55,1.92-1.69,3l-2.15,2.2h4.05v.82Z" fill="#4c4c4c"/><path d="M461.59,245.12h-3.92v-.74l2.3-5.77h1l-2.34,5.67h2.93v-2.52h1v2.52h1v.84h-1v1.58h-1Z" fill="#4c4c4c"/><line x1="67.09" y1="135.43" x2="67.09" y2="233.63" fill="none" stroke="#adadad" stroke-miterlimit="10"/><line x1="464.58" y1="225.38" x2="57.29" y2="225.38" fill="none" stroke="#adadad" stroke-miterlimit="10"/><circle cx="62.82" cy="363.55" r="26.31" fill="#ebefa5" stroke="#2277d6" stroke-miterlimit="10" stroke-width="5"/><path d="M48.08,355.56h9.19v1.49H49.76v5.22H56v1.46H49.76v5.46h7.51v1.48H48.08Z" fill="#424127"/><path d="M61.25,355.56h3l4.28,12.78,4.28-12.78h3v15.11H74.2V357.35h-.31l-4.38,12.78H67.63l-4.39-12.78h-.31v13.32H61.25Z" fill="#424127"/><circle cx="129.37" cy="363.55" r="26.31" fill="#dbb8f4"/><path d="M126.84,363.84h-7.69v6.83h-1.68V355.56h1.68v6.77h7.69v-6.77h1.66v15.11h-1.66Z" fill="#574666"/><path d="M133.31,370.67V355.56H135v13.61h6.64v1.5Z" fill="#574666"/><circle cx="195.91" cy="363.55" r="26.31" fill="#a5ebef" stroke="#2277d6" stroke-miterlimit="10" stroke-width="5"/><path d="M179.7,355.56h3L187,368.34l4.28-12.78h3v15.11h-1.68V357.35h-.3L188,370.13h-1.88l-4.39-12.78h-.31v13.32H179.7Z" fill="#274444"/><path d="M199.14,355.56h3.15l5.78,13.63h.46V355.56h1.66v15.11h-3.08l-5.87-13.62h-.42v13.62h-1.68Z" fill="#274444"/><circle cx="262.45" cy="363.55" r="26.31" fill="#c2e3f2"/><path d="M253,355.56h10.91v1.51h-4.6v13.6h-1.66v-13.6H253Z" fill="#2f4249"/><path d="M269.87,368.6c0,3.27-1.27,3.65-4.15,3.65v-1.51c2,0,2.46-.13,2.46-2.38v-12.8h1.66Z" fill="#2f4249"/><circle cx="329" cy="363.55" r="26.31" fill="#efd3a5"/><path d="M320.54,355.56h9.19v1.49h-7.51v5.22h6.2v1.46h-6.2v5.46h7.51v1.48h-9.19Z" fill="#4c3d28"/><path d="M333.71,370.67V355.56h1.68v13.61H342v1.5Z" fill="#4c3d28"/><g opacity="0.1"><g clip-path="url(#clip-path)"><polyline points="439.26 184.38 450.41 208.89 460.44 221.15" fill="none" stroke="#000" stroke-width="2"/></g></g><polyline points="301.1 193.29 323.94 177.14 340.65 171.56 358.48 164.88 374.08 171.56 390.8 167.11 404.17 177.14 415.31 177.14 429.79 179.37 439.26 184.38" fill="none" stroke="#f2a120" stroke-miterlimit="10" stroke-width="3"/><g opacity="0.1"><g clip-path="url(#clip-path-2)"><polyline points="72.07 222.04 87.17 213.35 107.22 197.75 128.39 197.75 135.08 188.84 149.56 176.58 162.93 189.95 184.1 188.84 198.59 179.92 211.96 171.01 225.33 179.92 245.39 176.58 258.76 179.92 281.04 193.29 301.1 193.29" fill="none" stroke="#000" stroke-width="2"/></g></g><path d="M42.56,81.9c2.43,0,3.71,1,3.71,3.17a2.74,2.74,0,0,1-1.6,2.87,2.73,2.73,0,0,1,2,2.93c0,2.63-1.51,3.49-3.85,3.49H38V81.9Zm-3.13,1.23v4.3h3.2c1.57,0,2.22-.74,2.22-2.23s-.76-2.07-2.34-2.07Zm0,5.51v4.5h3.31c1.51,0,2.51-.49,2.51-2.32s-1.64-2.18-2.6-2.18Z" fill="#4c4c4c"/><path d="M55.25,92.69c0,.52.47.72,1,.79l-.06,1.06a2.75,2.75,0,0,1-2.14-.72,9.2,9.2,0,0,1-3.24.72c-1.64,0-2.54-.93-2.54-2.75s.9-2.49,2.76-2.67l2.82-.27v-.77c0-1.26-.54-1.71-1.62-1.71-1.26,0-3.4.23-3.4.23l-.05-1a21.57,21.57,0,0,1,3.52-.4c2,0,2.9.94,2.9,2.9Zm-4-2.56c-1.1.11-1.53.63-1.53,1.62s.45,1.66,1.37,1.66a9.47,9.47,0,0,0,2.82-.56v-3Z" fill="#4c4c4c"/><path d="M57.52,95.88c0-1,.48-1.53,1.42-2.24a1.46,1.46,0,0,1-.5-1.24A5.82,5.82,0,0,1,59.05,91c-.76-.34-1.42-1.06-1.42-2.72,0-2.21,1.37-3.08,3.36-3.08a9.22,9.22,0,0,1,1.88.24l2.66-.08V86.5l-1.71,0a2.35,2.35,0,0,1,.59,1.8c0,2.34-1.17,3-3.47,3a6.65,6.65,0,0,1-.88-.07,5.21,5.21,0,0,0-.33,1c0,.72.15.83,2.18.83,2.56,0,3.48.5,3.48,2.64s-1.46,2.87-4,2.87C58.54,98.6,57.52,98,57.52,95.88Zm2.34-1.7c-.76.56-1,.89-1,1.59,0,1.24.52,1.69,2.56,1.69,1.8,0,2.61-.48,2.61-1.67,0-1.37-.58-1.52-2.22-1.52C61.17,94.27,59.86,94.18,59.86,94.18Zm3.2-5.92c0-1.42-.55-2-2.07-2s-2,.56-2,2,.61,2,2,2S63.06,89.68,63.06,88.26Z" fill="#4c4c4c"/><path d="M73.14,86.68A29,29,0,0,0,70,86.39c-1.11,0-2,.3-2,1.37,0,.84.43,1.08,2.34,1.4,2.25.38,3.1.83,3.1,2.58,0,2.1-1.33,2.8-3.49,2.8a25.4,25.4,0,0,1-3.17-.34L66.88,93a29.5,29.5,0,0,0,3,.31c1.48,0,2.27-.33,2.27-1.55,0-.94-.47-1.17-2.43-1.48s-3-.7-3-2.5c0-2,1.6-2.63,3.24-2.63a23.19,23.19,0,0,1,3.26.34Z" fill="#4c4c4c"/><path d="M43.18,288.85h3l3.42,12.46H48.26l-.9-3.21H42l-.9,3.21H39.76Zm-.85,8h4.72L45.16,290h-.94Z" fill="#4c4c4c"/><path d="M51.94,292.3l2.11,7.84h.67l2.18-7.84h1.38l-2.54,9H53l-2.54-9Z" fill="#4c4c4c"/><path d="M66.36,299.63c0,.53.47.72,1,.79l-.06,1.07a2.75,2.75,0,0,1-2.14-.72,9.2,9.2,0,0,1-3.24.72c-1.64,0-2.54-.94-2.54-2.76s.9-2.48,2.76-2.66L65,295.8V295c0-1.26-.54-1.71-1.62-1.71-1.26,0-3.4.24-3.4.24l-.05-1a21.57,21.57,0,0,1,3.52-.4c2,0,2.9.94,2.9,2.9Zm-4-2.55c-1.1.1-1.53.63-1.53,1.62s.45,1.65,1.37,1.65a9.47,9.47,0,0,0,2.82-.56v-3Z" fill="#4c4c4c"/><path d="M69,288.7h1.36v1.57H69Zm0,3.6h1.36v9H69Z" fill="#4c4c4c"/><path d="M73.08,288.38h1.35v12.93H73.08Z" fill="#4c4c4c"/><path d="M83.48,299.63c0,.53.47.72,1,.79l0,1.07a2.75,2.75,0,0,1-2.14-.72,9.2,9.2,0,0,1-3.24.72c-1.64,0-2.54-.94-2.54-2.76s.9-2.48,2.75-2.66l2.83-.27V295c0-1.26-.54-1.71-1.62-1.71-1.26,0-3.4.24-3.4.24l-.06-1a21.6,21.6,0,0,1,3.53-.4c2,0,2.9.94,2.9,2.9Zm-4-2.55c-1.1.1-1.53.63-1.53,1.62s.45,1.65,1.36,1.65a9.48,9.48,0,0,0,2.83-.56v-3Z" fill="#4c4c4c"/><path d="M93.4,296.66c0,3.59-1,4.83-4.25,4.83-1.08,0-3-.2-3-.2V288.38h1.34v4.38a7.27,7.27,0,0,1,2.64-.64C92.57,292.12,93.4,293.42,93.4,296.66Zm-1.37,0c0-2.32-.47-3.33-2-3.33a7.57,7.57,0,0,0-2.5.52v6.34s1.17.09,1.65.09C91.6,300.28,92,299.18,92,296.66Z" fill="#4c4c4c"/><path d="M95.72,288.38h1.35v12.93H95.72Z" fill="#4c4c4c"/><path d="M106.41,300.14l0,1.06a31.12,31.12,0,0,1-3.51.29c-2.69,0-3.57-1.57-3.57-4.63,0-3.42,1.48-4.74,3.77-4.74s3.61,1.26,3.61,4.22l-.07,1h-5.94c0,1.93.6,2.94,2.36,2.94C104.45,300.3,106.41,300.14,106.41,300.14Zm-1-3.86c0-2.23-.68-3-2.26-3s-2.4.84-2.42,3Z" fill="#4c4c4c"/><path d="M120.58,301.11a18.72,18.72,0,0,1-3.44.38c-3.73,0-4.56-2.27-4.56-6.38s.81-6.44,4.56-6.44a18.5,18.5,0,0,1,3.44.39l-.06,1.17a22.65,22.65,0,0,0-3.24-.32c-2.77,0-3.26,1.66-3.26,5.2s.46,5.14,3.3,5.14a19.78,19.78,0,0,0,3.2-.33Z" fill="#4c4c4c"/><path d="M129.92,296.7c0,3.27-.81,4.79-3.85,4.79s-3.86-1.52-3.86-4.79c0-3.1,1-4.58,3.86-4.58S129.92,293.6,129.92,296.7Zm-1.39,0c0-2.51-.54-3.4-2.46-3.4s-2.47.89-2.47,3.4.34,3.62,2.47,3.62S128.53,299.26,128.53,296.7Z" fill="#4c4c4c"/><path d="M132.22,288.38h1.35v12.93h-1.35Z" fill="#4c4c4c"/><path d="M136.38,288.38h1.35v12.93h-1.35Z" fill="#4c4c4c"/><path d="M147.07,300.14l0,1.06a31.12,31.12,0,0,1-3.51.29c-2.68,0-3.57-1.57-3.57-4.63,0-3.42,1.48-4.74,3.77-4.74s3.62,1.26,3.62,4.22l-.08,1H141.4c0,1.93.6,2.94,2.36,2.94C145.11,300.3,147.07,300.14,147.07,300.14Zm-1-3.86c0-2.23-.68-3-2.26-3s-2.4.84-2.42,3Z" fill="#4c4c4c"/><path d="M155.88,299.63c0,.53.46.72,1,.79l0,1.07a2.76,2.76,0,0,1-2.15-.72,9.2,9.2,0,0,1-3.24.72c-1.64,0-2.54-.94-2.54-2.76s.9-2.48,2.76-2.66l2.82-.27V295c0-1.26-.54-1.71-1.62-1.71-1.26,0-3.4.24-3.4.24l-.05-1a21.6,21.6,0,0,1,3.53-.4c2,0,2.9.94,2.9,2.9Zm-4-2.55c-1.1.1-1.53.63-1.53,1.62s.45,1.65,1.37,1.65a9.47,9.47,0,0,0,2.82-.56v-3Z" fill="#4c4c4c"/><path d="M158.14,302.82c0-1,.49-1.53,1.42-2.23a1.49,1.49,0,0,1-.5-1.25,5.82,5.82,0,0,1,.61-1.42c-.75-.34-1.42-1.06-1.42-2.72,0-2.21,1.37-3.08,3.37-3.08a9.07,9.07,0,0,1,1.87.24l2.66-.07v1.15l-1.71,0a2.37,2.37,0,0,1,.6,1.8c0,2.34-1.17,3.05-3.48,3.05a6.85,6.85,0,0,1-.88-.08,5.56,5.56,0,0,0-.32,1c0,.72.14.83,2.17.83,2.56,0,3.48.5,3.48,2.64s-1.46,2.87-4,2.87C159.17,305.54,158.14,304.91,158.14,302.82Zm2.34-1.69c-.75.55-1,.88-1,1.58,0,1.24.53,1.69,2.56,1.69,1.8,0,2.61-.48,2.61-1.67,0-1.37-.58-1.51-2.21-1.51C161.8,301.22,160.48,301.13,160.48,301.13Zm3.21-5.93c0-1.42-.56-2-2.07-2s-2,.56-2,2,.61,2,2,2S163.69,296.63,163.69,295.2Z" fill="#4c4c4c"/><path d="M174.76,292.3v9h-1.35v-.63a6.08,6.08,0,0,1-2.67.81c-2.52,0-3-1.17-3-4.49v-4.7h1.35V297c0,2.48.22,3.29,1.89,3.29a5.47,5.47,0,0,0,2.47-.67V292.3Z" fill="#4c4c4c"/><path d="M184,300.14l0,1.06a31.38,31.38,0,0,1-3.51.29c-2.69,0-3.57-1.57-3.57-4.63,0-3.42,1.48-4.74,3.76-4.74s3.62,1.26,3.62,4.22l-.07,1h-5.94c0,1.93.59,2.94,2.36,2.94C182,300.3,184,300.14,184,300.14Zm-1-3.86c0-2.23-.68-3-2.27-3s-2.39.84-2.41,3Z" fill="#4c4c4c"/><path d="M192.41,293.62a29,29,0,0,0-3.15-.29c-1.11,0-2,.31-2,1.37,0,.85.43,1.08,2.34,1.4,2.25.38,3.1.83,3.1,2.58,0,2.11-1.33,2.81-3.49,2.81a25.4,25.4,0,0,1-3.17-.34l.07-1.18a29.5,29.5,0,0,0,3,.31c1.48,0,2.27-.32,2.27-1.55,0-.93-.47-1.17-2.43-1.47s-3-.71-3-2.51c0-2,1.6-2.63,3.24-2.63a22.55,22.55,0,0,1,3.26.35Z" fill="#4c4c4c"/></g></g></svg>