<svg xmlns="http://www.w3.org/2000/svg" xmlns:xlink="http://www.w3.org/1999/xlink" viewBox="0 0 1132 266">
	<defs>
		<clipPath id="clip-path">
			<rect x="1057.37" y="83.68" width="20.68" height="34.04" fill="none" />
		</clipPath>
		<clipPath id="clip-path-2">
			<rect x="728.24" y="70.89" width="206.04" height="47.86" fill="none" />
		</clipPath>
	</defs>
	<title>
		XRay_Check_Screen
	</title>
	<g style="isolation:isolate">
		<g id="Layer_2" data-name="Layer 2">
			<g id="Layer_5" data-name="Layer 5">
				<rect x="3.22" y="1.91" width="1125.31" height="258.21" fill="rgba(0,0,0,0)" />
			</g>
			<g id="Layer_6" data-name="Layer 6">
				<line x1="3.22" y1="7.66" x2="3.22" y2="252" fill="none" stroke="#ddd" stroke-miterlimit="10" />
			</g>
			<g id="Layer_1-2" data-name="Layer 1">
				<path d="M165.1,238h1.53l2.15,6.43,2.16-6.43h1.53v7.61h-.85v-6.71h-.15l-2.21,6.43h-.95l-2.21-6.43h-.16v6.71h-.84Z" fill="#4c4c4c" />
				<path d="M178.08,244.56c0,.32.28.44.63.48l0,.65a1.69,1.69,0,0,1-1.31-.44,5.62,5.62,0,0,1-2,.44c-1,0-1.55-.57-1.55-1.68s.55-1.52,1.69-1.63l1.72-.17v-.47c0-.77-.33-1-1-1s-2.08.14-2.08.14l0-.63a13.44,13.44,0,0,1,2.16-.24c1.24,0,1.77.57,1.77,1.77ZM175.63,243c-.68.07-.94.39-.94,1s.27,1,.84,1a5.81,5.81,0,0,0,1.72-.34v-1.82Z" fill="#4c4c4c" />
				<path d="M179.71,240.08h.81v.75a6.27,6.27,0,0,1,2-.87v.83a8,8,0,0,0-2,.75v4h-.82Z" fill="#4c4c4c" />
				<path d="M212.5,238h1.85l2.09,7.61h-.84l-.55-2h-3.26l-.55,2h-.83Zm-.52,4.89h2.88l-1.15-4.17h-.57Z" fill="#4c4c4c" />
				<path d="M217.49,240.08h.82v.4A3.69,3.69,0,0,1,220,240c1.38,0,2,.85,2,2.79,0,2.16-.71,2.93-2.4,2.93a7.37,7.37,0,0,1-1.23-.12V248h-.83Zm.83,1.07v3.7a7.12,7.12,0,0,0,1.18.12c1.21,0,1.61-.62,1.61-2.21s-.47-2-1.28-2A3.57,3.57,0,0,0,218.32,241.15Z" fill="#4c4c4c" />
				<path d="M223.29,240.08h.81v.75a6.25,6.25,0,0,1,2-.87v.83a8,8,0,0,0-2,.75v4h-.82Z" fill="#4c4c4c" />
				<path d="M256,244.54c0,1.65-.64,1.83-2.09,1.83v-.76c1,0,1.24-.06,1.24-1.2V238H256Z" fill="#4c4c4c" />
				<path d="M262,240.08v5.5h-.83v-.38a3.71,3.71,0,0,1-1.63.49c-1.54,0-1.86-.72-1.86-2.74v-2.87h.83v2.86c0,1.52.13,2,1.15,2a3.37,3.37,0,0,0,1.51-.4v-4.47Z" fill="#4c4c4c" />
				<path d="M263.54,245.58v-5.5h.81v.38a4.21,4.21,0,0,1,1.71-.49c1.52,0,1.86.75,1.86,2.71v2.9h-.82V242.7c0-1.45-.16-2-1.18-2a3.83,3.83,0,0,0-1.56.4v4.47Z" fill="#4c4c4c" />
				<path d="M298.37,244.54c0,1.65-.64,1.83-2.09,1.83v-.76c1,0,1.24-.06,1.24-1.2V238h.84Z" fill="#4c4c4c" />
				<path d="M304.31,240.08v5.5h-.83v-.38a3.7,3.7,0,0,1-1.62.49c-1.55,0-1.86-.72-1.86-2.74v-2.87h.82v2.86c0,1.52.13,2,1.16,2a3.35,3.35,0,0,0,1.5-.4v-4.47Z" fill="#4c4c4c" />
				<path d="M306,237.68h.82v7.9H306Z" fill="#4c4c4c" />
				<path d="M337.42,238h1.85l2.09,7.61h-.84l-.55-2h-3.26l-.54,2h-.84Zm-.52,4.89h2.88l-1.15-4.17h-.57Z" fill="#4c4c4c" />
				<path d="M346.67,240.08v5.5h-.83v-.38a3.7,3.7,0,0,1-1.62.49c-1.54,0-1.86-.72-1.86-2.74v-2.87h.82v2.86c0,1.52.13,2,1.16,2a3.35,3.35,0,0,0,1.5-.4v-4.47Z" fill="#4c4c4c" />
				<path d="M348,246.5c0-.63.3-.93.87-1.36a.89.89,0,0,1-.31-.76,3.51,3.51,0,0,1,.38-.87,1.59,1.59,0,0,1-.87-1.66c0-1.35.83-1.88,2.05-1.88a5.91,5.91,0,0,1,1.15.14l1.63,0v.7l-1.05,0a1.43,1.43,0,0,1,.36,1.1c0,1.43-.71,1.86-2.12,1.86a5.09,5.09,0,0,1-.54,0,3.22,3.22,0,0,0-.2.62c0,.44.09.51,1.34.51,1.56,0,2.12.31,2.12,1.62s-.89,1.75-2.44,1.75C348.64,248.17,348,247.78,348,246.5Zm1.43-1c-.46.34-.61.54-.61,1,0,.76.31,1,1.56,1s1.59-.29,1.59-1-.35-.92-1.35-.92C350.24,245.53,349.44,245.47,349.44,245.47Zm2-3.62c0-.87-.34-1.21-1.27-1.21s-1.23.34-1.23,1.21.38,1.2,1.23,1.2S351.4,242.72,351.4,241.85Z" fill="#4c4c4c" />
				<path d="M385.75,238.78s-1.53-.19-2.17-.19c-1.08,0-1.65.39-1.65,1.25s.53,1.15,1.86,1.45c1.51.34,2.19.71,2.19,2.05,0,1.68-.93,2.34-2.44,2.34a20.26,20.26,0,0,1-2.41-.24l.09-.71s1.5.2,2.28.2c1.08,0,1.63-.47,1.63-1.53,0-.86-.45-1.1-1.7-1.34-1.57-.34-2.36-.72-2.36-2.17s1-2,2.45-2a19,19,0,0,1,2.3.22Z" fill="#4c4c4c" />
				<path d="M391.35,244.87l0,.64a18.93,18.93,0,0,1-2.15.18c-1.64,0-2.18-1-2.18-2.83,0-2.09.91-2.89,2.3-2.89s2.21.77,2.21,2.57l0,.63h-3.63c0,1.18.36,1.79,1.44,1.79C390.16,245,391.35,244.87,391.35,244.87Zm-.61-2.36c0-1.36-.42-1.85-1.39-1.85s-1.46.52-1.47,1.85Z" fill="#4c4c4c" />
				<path d="M392.85,240.08h.81v.4a3.74,3.74,0,0,1,1.65-.51c1.39,0,2,.85,2,2.79,0,2.16-.71,2.93-2.4,2.93a7.66,7.66,0,0,1-1.24-.12V248h-.82Zm.82,1.07v3.7a7.41,7.41,0,0,0,1.19.12c1.21,0,1.61-.62,1.61-2.21s-.47-2-1.28-2A3.64,3.64,0,0,0,393.67,241.15Z" fill="#4c4c4c" />
				<path d="M425.91,241.81c0-2.51.64-3.95,3-3.95s3,1.42,3,3.95-.65,3.88-3,3.88S425.91,244.36,425.91,241.81Zm5.13,0c0-2.06-.39-3.2-2.13-3.2s-2.14,1.13-2.14,3.2.38,3.13,2.14,3.13S431,244,431,241.81Z" fill="#4c4c4c" />
				<path d="M436.88,240.13l0,.67s-.88-.09-1.3-.09c-1.26,0-1.6.55-1.6,2,0,1.63.25,2.22,1.61,2.22.42,0,1.3-.1,1.3-.1l0,.69a14.9,14.9,0,0,1-1.52.15c-1.75,0-2.27-.8-2.27-3,0-2,.65-2.76,2.29-2.76A13.17,13.17,0,0,1,436.88,240.13Z" fill="#4c4c4c" />
				<path d="M439.23,240.79v2.63c0,1.2.07,1.54.79,1.54.31,0,1-.06,1-.06l.05.68a9.51,9.51,0,0,1-1.12.12c-1.13,0-1.52-.43-1.52-2v-2.9h-.78v-.71h.78V238.4h.82v1.68H441v.71Z" fill="#4c4c4c" />
				<path d="M469.56,238h1.58l2.92,6.86h.23V238h.83v7.61h-1.55l-3-6.87h-.21v6.87h-.84Z" fill="#4c4c4c" />
				<path d="M481.32,242.76c0,2-.5,2.93-2.36,2.93s-2.35-.92-2.35-2.93S477.22,240,479,240,481.32,240.87,481.32,242.76Zm-.85,0c0-1.53-.33-2.08-1.51-2.08s-1.51.55-1.51,2.08S477.66,245,479,245,480.47,244.33,480.47,242.76Z" fill="#4c4c4c" />
				<path d="M482.92,240.08l1.29,4.79h.41l1.33-4.79h.84l-1.55,5.5h-1.65l-1.55-5.5Z" fill="#4c4c4c" />
				<path d="M515.42,245.58V238h2.71c2.22,0,2.82,1.54,2.82,3.69s-.57,3.92-2.82,3.92Zm2.71-6.87h-1.87v6.12h1.87c1.59,0,2-1.52,2-3.17S519.72,238.71,518.13,238.71Z" fill="#4c4c4c" />
				<path d="M526.43,244.87l0,.64a18.67,18.67,0,0,1-2.15.18c-1.63,0-2.17-1-2.17-2.83,0-2.09.9-2.89,2.3-2.89s2.21.77,2.21,2.57l0,.63H523c0,1.18.37,1.79,1.44,1.79C525.23,245,526.43,244.87,526.43,244.87Zm-.62-2.36c0-1.36-.42-1.85-1.38-1.85s-1.47.52-1.48,1.85Z" fill="#4c4c4c" />
				<path d="M531.48,240.13l0,.67s-.88-.09-1.29-.09c-1.27,0-1.61.55-1.61,2,0,1.63.25,2.22,1.62,2.22.41,0,1.29-.1,1.29-.1l0,.69a15.21,15.21,0,0,1-1.53.15c-1.75,0-2.27-.8-2.27-3,0-2,.65-2.76,2.29-2.76A13.14,13.14,0,0,1,531.48,240.13Z" fill="#4c4c4c" />
				<path d="M171.48,163.21H173l2.16,6.44,2.15-6.44h1.53v7.62H178v-6.71h-.15l-2.21,6.43h-.95l-2.21-6.43h-.15v6.71h-.85Z" fill="#4c4c4c" />
				<path d="M184.46,169.8c0,.32.29.44.64.49l0,.65a1.67,1.67,0,0,1-1.31-.44,5.62,5.62,0,0,1-2,.44c-1,0-1.55-.58-1.55-1.69s.55-1.52,1.68-1.63l1.73-.16V167c0-.77-.33-1.05-1-1.05s-2.08.14-2.08.14l0-.62a12.93,12.93,0,0,1,2.16-.25c1.24,0,1.77.58,1.77,1.78ZM182,168.24c-.67.07-.94.39-.94,1s.28,1,.84,1a5.91,5.91,0,0,0,1.73-.34v-1.81Z" fill="#4c4c4c" />
				<path d="M186.09,163.13h.82v1h-.82Zm0,2.19h.82v5.51h-.82Z" fill="#4c4c4c" />
				<path d="M188.5,170.83v-5.51h.81v.39a4.15,4.15,0,0,1,1.71-.5c1.52,0,1.86.75,1.86,2.71v2.91h-.82v-2.89c0-1.45-.16-2-1.19-2a3.75,3.75,0,0,0-1.55.41v4.47Z" fill="#4c4c4c" />
				<path d="M195.5,166v2.63c0,1.2.08,1.54.8,1.54.3,0,1-.07,1-.07l.05.69a9.79,9.79,0,0,1-1.12.12c-1.13,0-1.52-.43-1.52-2V166h-.78v-.72h.78v-1.68h.81v1.68h1.75V166Z" fill="#4c4c4c" />
				<path d="M202.33,170.11l0,.65a18.93,18.93,0,0,1-2.15.18c-1.64,0-2.18-1-2.18-2.83,0-2.09.91-2.9,2.3-2.9s2.21.77,2.21,2.58l0,.63h-3.63c0,1.17.36,1.79,1.44,1.79C201.13,170.21,202.33,170.11,202.33,170.11Zm-.62-2.35c0-1.37-.42-1.85-1.39-1.85s-1.46.52-1.47,1.85Z" fill="#4c4c4c" />
				<path d="M203.82,170.83v-5.51h.81v.39a4.21,4.21,0,0,1,1.71-.5c1.52,0,1.86.75,1.86,2.71v2.91h-.82v-2.89c0-1.45-.16-2-1.18-2a3.69,3.69,0,0,0-1.55.41v4.47Z" fill="#4c4c4c" />
				<path d="M213.61,169.8c0,.32.29.44.64.49l0,.65a1.67,1.67,0,0,1-1.31-.44,5.62,5.62,0,0,1-2,.44c-1,0-1.55-.58-1.55-1.69s.55-1.52,1.68-1.63l1.73-.16V167c0-.77-.33-1.05-1-1.05s-2.08.14-2.08.14l0-.62a12.93,12.93,0,0,1,2.16-.25c1.24,0,1.77.58,1.77,1.78Zm-2.45-1.56c-.67.07-.94.39-.94,1s.28,1,.84,1a5.91,5.91,0,0,0,1.73-.34v-1.81Z" fill="#4c4c4c" />
				<path d="M215.24,170.83v-5.51h.81v.39a4.15,4.15,0,0,1,1.71-.5c1.52,0,1.86.75,1.86,2.71v2.91h-.82v-2.89c0-1.45-.16-2-1.18-2a3.76,3.76,0,0,0-1.56.41v4.47Z" fill="#4c4c4c" />
				<path d="M224.7,165.38l0,.67s-.88-.1-1.3-.1c-1.27,0-1.61.55-1.61,2s.25,2.22,1.62,2.22c.42,0,1.3-.1,1.3-.1l0,.68a14,14,0,0,1-1.53.16c-1.75,0-2.26-.81-2.26-3,0-2,.64-2.77,2.28-2.77A12.4,12.4,0,0,1,224.7,165.38Z" fill="#4c4c4c" />
				<path d="M230,170.11l0,.65a18.65,18.65,0,0,1-2.14.18c-1.64,0-2.18-1-2.18-2.83,0-2.09.9-2.9,2.3-2.9s2.21.77,2.21,2.58l0,.63h-3.63c0,1.17.36,1.79,1.44,1.79C228.8,170.21,230,170.11,230,170.11Zm-.62-2.35c0-1.37-.41-1.85-1.38-1.85s-1.46.52-1.48,1.85Z" fill="#4c4c4c" />
				<path d="M177.22,15.56c1.89,0,2.89.74,2.89,2.46a2.13,2.13,0,0,1-1.25,2.23,2.12,2.12,0,0,1,1.54,2.28c0,2-1.17,2.72-3,2.72h-3.69V15.56Zm-2.43,1v3.35h2.49c1.22,0,1.72-.58,1.72-1.74s-.59-1.61-1.82-1.61Zm0,4.28V24.3h2.57c1.18,0,1.95-.38,1.95-1.81s-1.28-1.7-2-1.7Z" fill="#3a3d3f" />
				<path d="M187.09,24c0,.4.37.56.82.61l0,.83a2.13,2.13,0,0,1-1.66-.56,7.17,7.17,0,0,1-2.53.56c-1.27,0-2-.73-2-2.14s.7-1.94,2.14-2.08L186,21v-.6c0-1-.42-1.33-1.26-1.33s-2.65.18-2.65.18l0-.8a17.4,17.4,0,0,1,2.75-.3c1.58,0,2.25.72,2.25,2.25ZM184,22c-.86.08-1.19.49-1.19,1.26s.35,1.29,1.06,1.29a7.32,7.32,0,0,0,2.2-.44V21.76Z" fill="#3a3d3f" />
				<path d="M188.85,26.43c0-.82.38-1.19,1.11-1.74a1.15,1.15,0,0,1-.39-1,4.58,4.58,0,0,1,.47-1.1,2.05,2.05,0,0,1-1.1-2.12c0-1.72,1.06-2.39,2.62-2.39a7.22,7.22,0,0,1,1.45.18l2.08-.06v.9l-1.33,0a1.85,1.85,0,0,1,.46,1.4c0,1.82-.91,2.37-2.7,2.37a5.51,5.51,0,0,1-.69-.06,4.27,4.27,0,0,0-.25.8c0,.56.11.65,1.69.65,2,0,2.7.39,2.7,2s-1.13,2.23-3.1,2.23C189.65,28.54,188.85,28.05,188.85,26.43Zm1.82-1.32c-.58.43-.78.69-.78,1.23,0,1,.41,1.32,2,1.32,1.4,0,2-.38,2-1.3s-.45-1.18-1.72-1.18C191.7,25.18,190.67,25.11,190.67,25.11Zm2.5-4.61c0-1.11-.44-1.54-1.61-1.54S190,19.39,190,20.5s.47,1.53,1.57,1.53S193.17,21.61,193.17,20.5Z" fill="#3a3d3f" />
				<path d="M201,19.27a22.51,22.51,0,0,0-2.45-.23c-.87,0-1.53.24-1.53,1.07,0,.66.34.84,1.82,1.09,1.75.3,2.41.65,2.41,2,0,1.63-1,2.18-2.72,2.18a19.53,19.53,0,0,1-2.46-.27l0-.91a23.19,23.19,0,0,0,2.32.24c1.14,0,1.76-.25,1.76-1.2,0-.73-.36-.91-1.89-1.15s-2.34-.55-2.34-2,1.25-2,2.52-2a18.43,18.43,0,0,1,2.54.26Z" fill="#3a3d3f" />
				<path d="M63.83,74l3.52-5.92H69l-4.26,7L69,81.91H67.27l-3.48-5.74-3.54,5.74H58.59l4.28-6.78-4.28-7.06h1.74Z" />
				<path d="M70.73,75.71h6.06v1.4H70.73Z" />
				<path d="M81.37,76.61v5.3H79.83V68.07H85c2.9,0,4.42,1.28,4.42,4.2,0,2-.8,3.46-2.54,4l2.66,5.62h-1.7l-2.5-5.3ZM85,69.43H81.37v5.82H85c2.08,0,2.82-1.24,2.82-3C87.79,70.37,86.89,69.43,85,69.43Z" />
				<path d="M94.73,68.07h3.36l3.8,13.84h-1.52l-1-3.56H93.45l-1,3.56H90.93ZM93.79,77H99l-2.1-7.58h-1Z" />
				<path d="M108.53,81.91H107V76.09l-4.42-8h1.74l3.44,6.48,3.44-6.48h1.74l-4.4,8Z" />
				<path d="M177,139.16h-3.52v-.66l2.07-5.19h.92l-2.1,5.1H177v-2.27h.85v2.27h.92v.75h-.92v1.42H177Z" fill="#4c4c4c" />
				<path d="M158.45,122.25c0,2.78-1,3.63-2.64,3.63s-2.65-.83-2.65-3.62c0-3,1-3.87,2.64-3.87S158.45,119.25,158.45,122.25Zm-4.41,0c0,2.28.63,2.87,1.77,2.87s1.77-.61,1.77-2.88c0-2.45-.56-3.11-1.77-3.11S154,119.78,154,122.26Z" fill="#4c4c4c" />
				<path d="M152,92.6v.77h-3.53l-.2,2.36a4.22,4.22,0,0,1,1.71-.45c1.42,0,2.31.6,2.31,2.15a2.24,2.24,0,0,1-2.43,2.53,12,12,0,0,1-2.41-.32l.1-.67a14.5,14.5,0,0,0,2.23.24,1.54,1.54,0,0,0,1.64-1.72c0-1.1-.62-1.45-1.54-1.45a4.2,4.2,0,0,0-1.73.44l-.58-.11.2-3.77Z" fill="#4c4c4c" />
				<path d="M158.62,96.34c0,2.78-1,3.63-2.65,3.63s-2.65-.83-2.65-3.62c0-3,1-3.87,2.64-3.87S158.62,93.34,158.62,96.34Zm-4.41,0c0,2.28.62,2.87,1.76,2.87s1.78-.61,1.78-2.88c0-2.45-.56-3.11-1.78-3.11S154.21,93.87,154.21,96.35Z" fill="#4c4c4c" />
				<path d="M146.22,65.77H147V73h-.85V66.71l-1.87,1.23-.38-.63Z" fill="#4c4c4c" />
				<path d="M154.61,69.51c0,2.78-1,3.63-2.64,3.63s-2.65-.83-2.65-3.62c0-3,1-3.88,2.64-3.88S154.61,66.51,154.61,69.51Zm-4.41,0c0,2.27.63,2.87,1.77,2.87s1.77-.61,1.77-2.88c0-2.45-.56-3.11-1.77-3.11S150.2,67,150.2,69.52Z" fill="#4c4c4c" />
				<path d="M160.77,69.51c0,2.78-1,3.63-2.64,3.63s-2.65-.83-2.65-3.62c0-3,1-3.88,2.64-3.88S160.77,66.51,160.77,69.51Zm-4.41,0c0,2.27.63,2.87,1.77,2.87s1.77-.61,1.77-2.88c0-2.45-.56-3.11-1.77-3.11S156.36,67,156.36,69.52Z" fill="#4c4c4c" />
				<path d="M146.22,38.94H147V46.2h-.85V39.88l-1.87,1.23-.38-.63Z" fill="#4c4c4c" />
				<path d="M154.14,38.94v.77h-3.53l-.2,2.36a4.22,4.22,0,0,1,1.71-.45c1.41,0,2.31.59,2.31,2.15A2.24,2.24,0,0,1,152,46.29a12.33,12.33,0,0,1-2.41-.31l.1-.68a14.14,14.14,0,0,0,2.24.25,1.54,1.54,0,0,0,1.64-1.72c0-1.1-.62-1.45-1.54-1.45a4.14,4.14,0,0,0-1.73.44l-.58-.11.19-3.77Z" fill="#4c4c4c" />
				<path d="M160.77,42.68c0,2.78-1,3.63-2.64,3.63s-2.65-.83-2.65-3.62c0-3,1-3.88,2.64-3.88S160.77,39.68,160.77,42.68Zm-4.41,0c0,2.27.63,2.87,1.77,2.87s1.77-.61,1.77-2.88c0-2.45-.56-3.11-1.77-3.11S156.36,40.21,156.36,42.69Z" fill="#4c4c4c" />
				<path d="M247.17,135.1a1.61,1.61,0,0,1-1.21,1.69,1.83,1.83,0,0,1,1.33,1.83c0,1.59-1.24,2.08-2.75,2.08s-2.7-.45-2.7-2a2,2,0,0,1,1.25-2,1.67,1.67,0,0,1-1.13-1.7c0-1.26,1-1.88,2.58-1.88S247.17,133.82,247.17,135.1Zm-.79,3.43c0-.85-.56-1.12-1.28-1.33h-1.16c-.76.21-1.2.58-1.2,1.4,0,1,.77,1.33,1.8,1.33S246.38,139.6,246.38,138.53Zm-3.52-3.34c0,.67.36,1,1.08,1.27h1.16c.74-.24,1.17-.59,1.17-1.26,0-.87-.65-1.22-1.71-1.22S242.86,134.32,242.86,135.19Z" fill="#4c4c4c" />
				<path d="M307,133.33h.79v7.26h-.85v-6.32l-1.87,1.24-.38-.64Z" fill="#4c4c4c" />
				<path d="M310.41,140.59v-.72l2.12-2.23c.91-.93,1.47-1.53,1.47-2.39s-.54-1.27-1.59-1.27a10.68,10.68,0,0,0-1.88.24l-.07-.71a9.08,9.08,0,0,1,2.11-.29c1.53,0,2.3.58,2.3,1.95,0,1.08-.5,1.72-1.52,2.71l-1.94,2h3.64v.74Z" fill="#4c4c4c" />
				<path d="M383.79,133.33h.79v7.26h-.84v-6.32l-1.87,1.24-.39-.64Z" fill="#4c4c4c" />
				<path d="M391.77,134.1a17.09,17.09,0,0,0-1.92-.13c-1.26,0-2,.9-2,2.5a6.53,6.53,0,0,1,1.82-.43c1.6,0,2.44.73,2.44,2.26a2.24,2.24,0,0,1-2.54,2.4c-1.81,0-2.6-1.42-2.6-3.77,0-2.63,1.12-3.71,2.84-3.71a14,14,0,0,1,2,.18Zm-3.89,3.12c0,1.55.48,2.73,1.73,2.73a1.49,1.49,0,0,0,1.66-1.65c0-1-.6-1.5-1.62-1.5A5.09,5.09,0,0,0,387.88,137.22Z" fill="#4c4c4c" />
				<path d="M450.46,140.59v-.72l2.13-2.23c.9-.93,1.46-1.53,1.46-2.39s-.54-1.27-1.59-1.27a10.68,10.68,0,0,0-1.88.24l-.06-.71a8.94,8.94,0,0,1,2.1-.29c1.53,0,2.3.58,2.3,1.95,0,1.08-.5,1.72-1.52,2.71l-1.94,2h3.65v.74Z" fill="#4c4c4c" />
				<path d="M461.58,137.07c0,2.78-1,3.63-2.64,3.63s-2.65-.83-2.65-3.62c0-3,1-3.87,2.64-3.87S461.58,134.08,461.58,137.07Zm-4.41,0c0,2.28.63,2.87,1.77,2.87s1.77-.6,1.77-2.88c0-2.44-.56-3.1-1.77-3.1S457.17,134.6,457.17,137.08Z" fill="#4c4c4c" />
				<path d="M515.24,140.59v-.72l2.12-2.23c.91-.93,1.47-1.53,1.47-2.39s-.54-1.27-1.59-1.27a10.68,10.68,0,0,0-1.88.24l-.07-.71a9.08,9.08,0,0,1,2.11-.29c1.53,0,2.3.58,2.3,1.95,0,1.08-.5,1.72-1.52,2.71l-1.94,2h3.64v.74Z" fill="#4c4c4c" />
				<path d="M524.6,139.17h-3.52v-.66l2.07-5.18h.92l-2.1,5.09h2.63v-2.26h.85v2.26h.92v.75h-.92v1.42h-.85Z" fill="#4c4c4c" />
				<line x1="170.55" y1="43.16" x2="170.55" y2="128.86" fill="none" stroke="#adadad" stroke-miterlimit="10" />
				<line x1="527.28" y1="121.46" x2="161.75" y2="121.46" fill="none" stroke="#adadad" stroke-miterlimit="10" />
				<line x1="551.06" y1="230.66" x2="164.06" y2="230.66" fill="none" stroke="#adadad" stroke-miterlimit="10" />
				<polyline points="168.06 226.16 182.06 226.16 200.06 223.16 212.06 217.16 226.06 208.16 242.06 202.16 256.06 195.16 264.06 189.16 283.06 180.16 301.06 176.16 324.06 180.16 339.06 186.16 358.06 194.16 372.06 208.16 384.06 213.16 406.06 217.16 429.06 221.16 444.06 222.16 477.06 223.16 511.06 226.16 537.06 223.16 547.06 217.16" fill="none" stroke="#f2a120" stroke-miterlimit="10" stroke-width="3" />
				<path d="M711.27,175.21h1.85l2.09,7.62h-.83l-.56-2h-3.25l-.55,2h-.84Zm-.52,4.9h2.89l-1.16-4.17h-.57Z" fill="#4c4c4c" />
				<path d="M716.63,177.32l1.29,4.79h.4l1.33-4.79h.85L719,182.83H717.3l-1.55-5.51Z" fill="#4c4c4c" />
				<path d="M725.44,181.8c0,.32.29.44.64.49l0,.65a1.66,1.66,0,0,1-1.3-.44,5.62,5.62,0,0,1-2,.44c-1,0-1.55-.58-1.55-1.69s.54-1.52,1.68-1.63l1.73-.16V179c0-.77-.33-1.05-1-1.05s-2.09.14-2.09.14l0-.62a12.93,12.93,0,0,1,2.16-.25c1.24,0,1.77.58,1.77,1.78ZM723,180.24c-.68.07-.94.39-.94,1s.28,1,.84,1a5.91,5.91,0,0,0,1.73-.34v-1.81Z" fill="#4c4c4c" />
				<path d="M727.07,175.13h.82v1h-.82Zm0,2.19h.82v5.51h-.82Z" fill="#4c4c4c" />
				<path d="M729.54,174.93h.83v7.9h-.83Z" fill="#4c4c4c" />
				<path d="M735.9,181.8c0,.32.29.44.64.49l0,.65a1.67,1.67,0,0,1-1.31-.44,5.62,5.62,0,0,1-2,.44c-1,0-1.55-.58-1.55-1.69s.54-1.52,1.68-1.63l1.73-.16V179c0-.77-.33-1.05-1-1.05s-2.08.14-2.08.14l0-.62a12.93,12.93,0,0,1,2.16-.25c1.24,0,1.77.58,1.77,1.78Zm-2.45-1.56c-.67.07-.94.39-.94,1s.28,1,.84,1a5.91,5.91,0,0,0,1.73-.34v-1.81Z" fill="#4c4c4c" />
				<path d="M742,180c0,2.19-.59,2.95-2.59,2.95-.66,0-1.84-.13-1.84-.13v-7.88h.81v2.67a4.52,4.52,0,0,1,1.62-.39C741.46,177.21,742,178,742,180Zm-.83,0c0-1.42-.29-2-1.26-2a4.61,4.61,0,0,0-1.53.32v3.87s.72.06,1,.06C740.86,182.2,741.13,181.53,741.13,180Z" fill="#4c4c4c" />
				<path d="M743.38,174.93h.83v7.9h-.83Z" fill="#4c4c4c" />
				<path d="M749.91,182.11l0,.65a18.93,18.93,0,0,1-2.15.18c-1.64,0-2.18-1-2.18-2.83,0-2.09.91-2.9,2.3-2.9s2.21.77,2.21,2.58l0,.63h-3.63c0,1.17.36,1.79,1.44,1.79C748.71,182.21,749.91,182.11,749.91,182.11Zm-.61-2.35c0-1.37-.42-1.85-1.39-1.85s-1.46.52-1.47,1.85Z" fill="#4c4c4c" />
				<path d="M758.24,176s-1.53-.19-2.17-.19c-1.07,0-1.65.38-1.65,1.24s.53,1.16,1.86,1.46c1.52.34,2.19.71,2.19,2,0,1.68-.92,2.34-2.43,2.34a20.26,20.26,0,0,1-2.41-.24l.09-.7s1.5.2,2.28.2c1.07,0,1.63-.48,1.63-1.53,0-.86-.46-1.1-1.7-1.35-1.57-.34-2.36-.71-2.36-2.16s1-2,2.45-2a19,19,0,0,1,2.3.22Z" fill="#4c4c4c" />
				<path d="M760.89,178v2.63c0,1.2.08,1.54.79,1.54.31,0,1-.07,1-.07l.06.69a9.79,9.79,0,0,1-1.12.12c-1.14,0-1.52-.43-1.52-2V178h-.78v-.72h.78v-1.68h.81v1.68h1.75V178Z" fill="#4c4c4c" />
				<path d="M767.54,181.8c0,.32.28.44.63.49l0,.65a1.69,1.69,0,0,1-1.31-.44,5.62,5.62,0,0,1-2,.44c-1,0-1.55-.58-1.55-1.69s.55-1.52,1.68-1.63l1.73-.16V179c0-.77-.33-1.05-1-1.05s-2.08.14-2.08.14l0-.62a12.93,12.93,0,0,1,2.16-.25c1.24,0,1.77.58,1.77,1.78Zm-2.46-1.56c-.67.07-.93.39-.93,1s.27,1,.83,1a5.82,5.82,0,0,0,1.73-.34v-1.81Z" fill="#4c4c4c" />
				<path d="M770.22,182.83h-.83V178h-.69v-.72h.69v-.49c0-1.58.41-2,1.49-2,.37,0,1.11.07,1.11.07v.69s-.62,0-1,0c-.61,0-.81.27-.81,1.29v.48h1.59V178h-1.59Z" fill="#4c4c4c" />
				<path d="M773.86,182.83H773V178h-.7v-.72h.7v-.49c0-1.58.4-2,1.48-2,.37,0,1.11.07,1.11.07v.69s-.62,0-1,0c-.61,0-.81.27-.81,1.29v.48h1.6V178h-1.6Z" fill="#4c4c4c" />
				<path d="M728,15.56c1.89,0,2.89.74,2.89,2.46a2.14,2.14,0,0,1-1.25,2.23,2.13,2.13,0,0,1,1.54,2.28c0,2-1.18,2.72-3,2.72h-3.7V15.56Zm-2.44,1v3.35h2.5c1.22,0,1.72-.58,1.72-1.74s-.59-1.61-1.82-1.61Zm0,4.28V24.3h2.58c1.18,0,2-.38,2-1.81s-1.28-1.7-2-1.7Z" fill="#3a3d3f" />
				<path d="M737.89,24c0,.4.37.56.81.61l0,.83a2.13,2.13,0,0,1-1.66-.56,7.24,7.24,0,0,1-2.53.56c-1.27,0-2-.73-2-2.14s.7-1.94,2.14-2.08l2.2-.21v-.6c0-1-.42-1.33-1.26-1.33s-2.65.18-2.65.18l0-.8a17.4,17.4,0,0,1,2.75-.3c1.58,0,2.25.72,2.25,2.25Zm-3.12-2c-.86.08-1.19.49-1.19,1.26s.35,1.29,1.06,1.29a7.32,7.32,0,0,0,2.2-.44V21.76Z" fill="#3a3d3f" />
				<path d="M739.65,26.43c0-.82.38-1.19,1.11-1.74a1.15,1.15,0,0,1-.39-1,4.58,4.58,0,0,1,.47-1.1,2,2,0,0,1-1.1-2.12c0-1.72,1.06-2.39,2.62-2.39a7.22,7.22,0,0,1,1.45.18l2.08-.06v.9l-1.34,0a1.81,1.81,0,0,1,.47,1.4c0,1.82-.91,2.37-2.71,2.37a5.36,5.36,0,0,1-.68-.06,4.27,4.27,0,0,0-.25.8c0,.56.11.65,1.69.65,2,0,2.7.39,2.7,2s-1.13,2.23-3.11,2.23C740.45,28.54,739.65,28.05,739.65,26.43Zm1.82-1.32c-.59.43-.78.69-.78,1.23,0,1,.41,1.32,2,1.32,1.4,0,2-.38,2-1.3s-.45-1.18-1.72-1.18C742.5,25.18,741.47,25.11,741.47,25.11ZM744,20.5c0-1.11-.44-1.54-1.61-1.54s-1.57.43-1.57,1.54.47,1.53,1.57,1.53S744,21.61,744,20.5Z" fill="#3a3d3f" />
				<path d="M751.81,19.27a22.51,22.51,0,0,0-2.45-.23c-.87,0-1.53.24-1.53,1.07,0,.66.34.84,1.82,1.09,1.75.3,2.41.65,2.41,2,0,1.63-1,2.18-2.72,2.18a19.53,19.53,0,0,1-2.46-.27l0-.91s1.6.24,2.31.24c1.15,0,1.77-.25,1.77-1.2,0-.73-.37-.91-1.89-1.15s-2.34-.55-2.34-2,1.25-2,2.52-2a18.43,18.43,0,0,1,2.54.26Z" fill="#3a3d3f" />
				<path d="M614.25,68.07H617L621,79.77l3.92-11.7h2.78V81.91h-1.54V69.71h-.28l-4,11.7h-1.72l-4-11.7h-.28v12.2h-1.54Z" />
				<path d="M633.63,68.07H637l3.8,13.84h-1.52l-1-3.56h-5.92l-1,3.56h-1.52Zm-.94,8.9h5.24l-2.1-7.58h-1Z" />
				<path d="M643,68.07h2.88l5.3,12.48h.42V68.07h1.52V81.91h-2.82l-5.38-12.48h-.38V81.91H643Z" />
				<path d="M661.17,80.75c2.16,0,3.38-.84,3.38-3V68.07h1.52v9.64c0,3.16-1.74,4.4-4.9,4.4s-4.78-1.22-4.78-4.4V68.07h1.54v9.68C657.93,79.91,659.13,80.75,661.17,80.75Z" />
				<path d="M669,79.63h1.64v2.28H669Z" />
				<path d="M730.69,138.59h-3.52v-.66l2.07-5.18h.93l-2.11,5.09h2.63v-2.26h.85v2.26h.92v.75h-.92V140h-.85Z" fill="#4c4c4c" />
				<path d="M714.17,121.68c0,2.78-1,3.63-2.64,3.63s-2.65-.82-2.65-3.62c0-3,1-3.87,2.64-3.87S714.17,118.69,714.17,121.68Zm-4.41,0c0,2.28.62,2.87,1.77,2.87s1.77-.6,1.77-2.88c0-2.44-.56-3.1-1.77-3.1S709.76,119.22,709.76,121.69Z" fill="#4c4c4c" />
				<path d="M707.7,92v.77h-3.53l-.2,2.37a4.14,4.14,0,0,1,1.7-.46c1.42,0,2.31.6,2.31,2.15a2.24,2.24,0,0,1-2.43,2.53,12,12,0,0,1-2.41-.32l.1-.67a14.71,14.71,0,0,0,2.24.24,1.53,1.53,0,0,0,1.64-1.71c0-1.1-.62-1.46-1.55-1.46a4.13,4.13,0,0,0-1.72.44l-.59-.11.2-3.77Z" fill="#4c4c4c" />
				<path d="M714.33,95.77c0,2.78-1,3.63-2.64,3.63S709,98.58,709,95.78c0-3,1-3.87,2.64-3.87S714.33,92.78,714.33,95.77Zm-4.41,0c0,2.28.63,2.87,1.77,2.87s1.77-.6,1.77-2.88c0-2.44-.56-3.1-1.77-3.1S709.92,93.31,709.92,95.78Z" fill="#4c4c4c" />
				<path d="M701.93,65.2h.8v7.26h-.85V66.15L700,67.38l-.39-.64Z" fill="#4c4c4c" />
				<path d="M710.33,68.94c0,2.78-1,3.63-2.64,3.63S705,71.75,705,69c0-3,1-3.87,2.64-3.87S710.33,66,710.33,68.94Zm-4.41,0c0,2.28.62,2.87,1.77,2.87s1.77-.6,1.77-2.88c0-2.44-.56-3.1-1.77-3.1S705.92,66.48,705.92,69Z" fill="#4c4c4c" />
				<path d="M716.49,68.94c0,2.78-1,3.63-2.64,3.63s-2.65-.82-2.65-3.62c0-3,1-3.87,2.64-3.87S716.49,66,716.49,68.94Zm-4.41,0c0,2.28.62,2.87,1.77,2.87s1.77-.6,1.77-2.88c0-2.44-.56-3.1-1.77-3.1S712.08,66.48,712.08,69Z" fill="#4c4c4c" />
				<path d="M701.93,38.37h.8v7.26h-.85V39.32L700,40.55l-.39-.64Z" fill="#4c4c4c" />
				<path d="M709.85,38.37v.77h-3.53l-.19,2.37a4.08,4.08,0,0,1,1.7-.46c1.42,0,2.31.6,2.31,2.15a2.24,2.24,0,0,1-2.43,2.53,12,12,0,0,1-2.41-.32l.1-.67a14.5,14.5,0,0,0,2.23.24,1.53,1.53,0,0,0,1.64-1.71c0-1.1-.61-1.46-1.54-1.46a4.2,4.2,0,0,0-1.73.44l-.58-.11.2-3.77Z" fill="#4c4c4c" />
				<path d="M716.49,42.11c0,2.78-1,3.63-2.64,3.63s-2.65-.82-2.65-3.62c0-3,1-3.87,2.64-3.87S716.49,39.12,716.49,42.11Zm-4.41,0c0,2.28.62,2.87,1.77,2.87s1.77-.6,1.77-2.88c0-2.44-.56-3.1-1.77-3.1S712.08,39.65,712.08,42.12Z" fill="#4c4c4c" />
				<path d="M800.89,134.53a1.62,1.62,0,0,1-1.21,1.7,1.82,1.82,0,0,1,1.32,1.82c0,1.6-1.23,2.08-2.74,2.08s-2.71-.45-2.71-1.95a1.93,1.93,0,0,1,1.26-2,1.7,1.7,0,0,1-1.14-1.71c0-1.25,1-1.88,2.59-1.88S800.89,133.26,800.89,134.53ZM800.1,138c0-.85-.56-1.13-1.29-1.34h-1.15c-.76.21-1.2.59-1.2,1.4,0,1,.77,1.33,1.8,1.33S800.1,139,800.1,138Zm-3.52-3.35c0,.67.36,1,1.08,1.28h1.15c.75-.24,1.18-.6,1.18-1.27,0-.87-.65-1.22-1.72-1.22S796.58,133.75,796.58,134.62Z" fill="#4c4c4c" />
				<path d="M860.69,132.76h.8V140h-.85v-6.31l-1.87,1.23-.39-.64Z" fill="#4c4c4c" />
				<path d="M864.13,140v-.71l2.12-2.23c.9-.94,1.46-1.53,1.46-2.39s-.54-1.28-1.58-1.28a10.52,10.52,0,0,0-1.88.24l-.07-.7a8.77,8.77,0,0,1,2.1-.3c1.53,0,2.3.59,2.3,1.95,0,1.09-.49,1.73-1.52,2.72l-1.93,2h3.64V140Z" fill="#4c4c4c" />
				<path d="M937.51,132.76h.79V140h-.85v-6.31l-1.87,1.23-.38-.64Z" fill="#4c4c4c" />
				<path d="M945.48,133.53a17,17,0,0,0-1.91-.13c-1.27,0-2,.9-2,2.51a6.07,6.07,0,0,1,1.81-.43c1.61,0,2.45.73,2.45,2.26a2.24,2.24,0,0,1-2.54,2.39c-1.81,0-2.6-1.42-2.6-3.77,0-2.63,1.11-3.71,2.84-3.71a13.46,13.46,0,0,1,2,.19Zm-3.88,3.13c0,1.55.47,2.72,1.73,2.72a1.49,1.49,0,0,0,1.66-1.64c0-1-.61-1.5-1.62-1.5A5,5,0,0,0,941.6,136.66Z" fill="#4c4c4c" />
				<path d="M1004.18,140v-.71l2.12-2.23c.9-.94,1.46-1.53,1.46-2.39s-.53-1.28-1.58-1.28a10.68,10.68,0,0,0-1.88.24l-.07-.7a8.77,8.77,0,0,1,2.1-.3c1.53,0,2.3.59,2.3,1.95,0,1.09-.49,1.73-1.51,2.72l-1.94,2h3.64V140Z" fill="#4c4c4c" />
				<path d="M1015.3,136.5c0,2.79-1,3.63-2.64,3.63s-2.65-.82-2.65-3.62c0-3,1-3.87,2.64-3.87S1015.3,133.51,1015.3,136.5Zm-4.41,0c0,2.28.63,2.87,1.77,2.87s1.77-.6,1.77-2.88c0-2.44-.56-3.1-1.77-3.1S1010.89,134,1010.89,136.51Z" fill="#4c4c4c" />
				<path d="M1069,140v-.71l2.12-2.23c.9-.94,1.46-1.53,1.46-2.39s-.54-1.28-1.58-1.28a10.52,10.52,0,0,0-1.88.24l-.07-.7a8.77,8.77,0,0,1,2.1-.3c1.53,0,2.3.59,2.3,1.95,0,1.09-.49,1.73-1.52,2.72l-1.93,2h3.64V140Z" fill="#4c4c4c" />
				<path d="M1078.32,138.6h-3.52v-.66l2.07-5.18h.92l-2.1,5.1h2.63v-2.27h.84v2.27h.93v.74h-.93V140h-.84Z" fill="#4c4c4c" />
				<line x1="724.26" y1="40.16" x2="724.26" y2="128.3" fill="none" stroke="#adadad" stroke-miterlimit="10" />
				<line x1="1080.99" y1="120.89" x2="715.47" y2="120.89" fill="none" stroke="#adadad" stroke-miterlimit="10" />
				<circle cx="724.91" cy="211.74" r="20.92" fill="#ebefa5" />
				<path d="M713.19,205.39h7.31v1.18h-6v4.15h4.93v1.16h-4.93v4.34h6v1.19h-7.31Z" fill="#424127" />
				<path d="M723.67,205.39h2.41l3.4,10.16,3.41-10.16h2.41v12H734v-10.6h-.24L730.23,217h-1.49l-3.49-10.16H725v10.6h-1.33Z" fill="#424127" />
				<circle cx="777.82" cy="211.74" r="20.92" fill="#dbb8f4" />
				<path d="M775.82,212h-6.11v5.44h-1.34v-12h1.34v5.38h6.11v-5.38h1.32v12h-1.32Z" fill="#574666" />
				<path d="M781,217.41v-12h1.34v10.82h5.28v1.2Z" fill="#574666" />
				<circle cx="830.74" cy="211.74" r="20.92" fill="#a5ebef" />
				<path d="M817.85,205.39h2.41l3.41,10.16,3.4-10.16h2.41v12h-1.33v-10.6h-.25L824.41,217h-1.49l-3.49-10.16h-.24v10.6h-1.34Z" fill="#274444" />
				<path d="M833.31,205.39h2.5l4.6,10.83h.36V205.39h1.32v12h-2.44L835,206.57h-.33v10.84h-1.33Z" fill="#274444" />
				<circle cx="883.65" cy="211.74" r="20.92" fill="#c2e3f2" />
				<path d="M876.15,205.39h8.68v1.2h-3.66v10.82h-1.32V206.59h-3.7Z" fill="#2f4249" />
				<path d="M889.54,215.76c0,2.6-1,2.9-3.3,2.9v-1.2c1.58,0,2-.11,2-1.9V205.39h1.32Z" fill="#2f4249" />
				<circle cx="936.56" cy="211.74" r="20.92" fill="#efd3a5" />
				<path d="M929.83,205.39h7.32v1.18h-6v4.15h4.93v1.16h-4.93v4.34h6v1.19h-7.32Z" fill="#4c3d28" />
				<path d="M940.31,217.41v-12h1.34v10.82h5.27v1.2Z" fill="#4c3d28" />
				<polyline points="175.02 118.46 188.56 110.66 206.56 96.66 225.56 96.66 231.56 88.66 244.56 77.66 256.56 89.66 275.56 88.66 288.56 80.66 300.56 72.66 312.56 80.66 330.56 77.66 342.56 80.66 362.56 92.66 380.56 92.66 399.56 72.66 415.06 55.16 432.06 46.16 445.06 37.16 456.06 37.16 470.06 43.16 482.06 46.16 491.06 51.16 501.06 63.16 509.06 85.16 514.56 106.66 523.56 117.66" fill="none" stroke="#f2a120" stroke-miterlimit="10" stroke-width="3" />
				<g opacity="0.1">
					<g clip-path="url(#clip-path)">
						<polyline points="1058.28 84.09 1068.28 106.09 1077.28 117.09" fill="none" stroke="#000" stroke-width="2" />
					</g>
				</g>
				<polyline points="934.28 92.09 954.78 77.59 969.78 72.59 985.78 66.59 999.78 72.59 1014.78 68.59 1026.78 77.59 1036.78 77.59 1049.78 79.59 1058.28 84.09" fill="none" stroke="#f2a120" stroke-miterlimit="10" stroke-width="3" />
				<g opacity="0.1">
					<g clip-path="url(#clip-path-2)">
						<polyline points="728.73 117.89 742.28 110.09 760.28 96.09 779.28 96.09 785.28 88.09 798.28 77.09 810.28 89.09 829.28 88.09 842.28 80.09 854.28 72.09 866.28 80.09 884.28 77.09 896.28 80.09 916.28 92.09 934.28 92.09" fill="none" stroke="#000" stroke-width="2" />
					</g>
				</g>
			</g>
		</g>
	</g>
</svg>
