<svg xmlns="http://www.w3.org/2000/svg" viewBox="0 0 566.31 517.94"><title>r_2_C_Screen</title><g id="Layer_2" data-name="Layer 2">
<g id="MC_Bg_Screen"><rect width="566.31" height="517.94" fill="rgb(0,0,0,0)"/></g>
<g id="Layer_1-2" data-name="Layer 1"><path d="M101.53,263.17h2.27v11.89h-2.49V266l-2.57,1.66-1.14-1.86Z" fill="#4c4c4c"/><path d="M107.59,263.17h7.6V266L111,275.27l-2.3-.65,4-8.66v-.57h-5.12Z" fill="#4c4c4c"/><path d="M117.44,266.87H120v3h-2.59Zm0,5.2H120v3h-2.59Z" fill="#4c4c4c"/><path d="M130.69,269.19c0,4.5-1.66,6.08-4.61,6.08s-4.61-1.58-4.61-6.08,1.66-6.23,4.61-6.23S130.69,264.69,130.69,269.19Zm-6.66,0c0,2.91.63,3.92,2.07,3.92s2-1,2-3.92c0-3.1-.59-4.07-2-4.07S124,266.09,124,269.19Z" fill="#4c4c4c"/><path d="M140.77,269.19c0,4.5-1.66,6.08-4.61,6.08s-4.61-1.58-4.61-6.08,1.66-6.23,4.61-6.23S140.77,264.69,140.77,269.19Zm-6.66,0c0,2.91.63,3.92,2.07,3.92s2-1,2-3.92c0-3.1-.59-4.07-2-4.07S134.11,266.09,134.11,269.19Z" fill="#4c4c4c"/><path d="M183.29,263.17h2.26v11.89h-2.48V266l-2.58,1.66-1.13-1.86Z" fill="#4c4c4c"/><path d="M197.49,266.22a2.78,2.78,0,0,1-1.3,2.72,3.21,3.21,0,0,1,1.48,2.89c0,2.51-2,3.44-4.56,3.44s-4.5-.74-4.5-3.24a3.4,3.4,0,0,1,1.5-3.09,3,3,0,0,1-1.3-2.74c0-2.05,1.71-3.24,4.3-3.24S197.49,264.13,197.49,266.22ZM195,271.46a1.46,1.46,0,0,0-1.06-1.35h-1.58a1.44,1.44,0,0,0-1.08,1.35c0,1.09.61,1.58,1.83,1.58S195,272.55,195,271.46Zm-3.53-4.87a1.68,1.68,0,0,0,.89,1.41h1.58a1.67,1.67,0,0,0,.88-1.41c0-.9-.57-1.4-1.67-1.4S191.47,265.69,191.47,266.59Z" fill="#4c4c4c"/><path d="M199.2,266.87h2.59v3H199.2Zm0,5.2h2.59v3H199.2Z" fill="#4c4c4c"/><path d="M212.45,269.19c0,4.5-1.66,6.08-4.61,6.08s-4.61-1.58-4.61-6.08,1.65-6.23,4.61-6.23S212.45,264.69,212.45,269.19Zm-6.66,0c0,2.91.62,3.92,2.07,3.92s2-1,2-3.92c0-3.1-.59-4.07-2-4.07S205.79,266.09,205.79,269.19Z" fill="#4c4c4c"/><path d="M222.53,269.19c0,4.5-1.66,6.08-4.61,6.08s-4.61-1.58-4.61-6.08S215,263,217.92,263,222.53,264.69,222.53,269.19Zm-6.66,0c0,2.91.62,3.92,2.07,3.92s2-1,2-3.92c0-3.1-.59-4.07-2-4.07S215.87,266.09,215.87,269.19Z" fill="#4c4c4c"/><path d="M268.07,263.17h2.27v11.89h-2.48V266l-2.58,1.66-1.13-1.86Z" fill="#4c4c4c"/><path d="M274,272.84a27.56,27.56,0,0,0,3.35.27c1.64,0,2.4-1.1,2.4-2.91a9.41,9.41,0,0,1-2.27.54c-2.58,0-4.09-1.23-4.09-3.8s1.68-4,4.36-4c3.13,0,4.55,2.32,4.55,6.08,0,4.72-1.91,6.23-4.95,6.23a17.9,17.9,0,0,1-3.56-.52Zm5.77-4.68c0-1.67-.51-3-2-3a1.64,1.64,0,0,0-1.8,1.82,1.53,1.53,0,0,0,1.74,1.64A6.89,6.89,0,0,0,279.78,268.16Z" fill="#4c4c4c"/><path d="M284,266.87h2.6v3H284Zm0,5.2h2.6v3H284Z" fill="#4c4c4c"/><path d="M297.24,269.19c0,4.5-1.66,6.08-4.61,6.08s-4.61-1.58-4.61-6.08,1.65-6.23,4.61-6.23S297.24,264.69,297.24,269.19Zm-6.67,0c0,2.91.63,3.92,2.07,3.92s2-1,2-3.92c0-3.1-.59-4.07-2-4.07S290.57,266.09,290.57,269.19Z" fill="#4c4c4c"/><path d="M307.32,269.19c0,4.5-1.66,6.08-4.61,6.08s-4.61-1.58-4.61-6.08,1.65-6.23,4.61-6.23S307.32,264.69,307.32,269.19Zm-6.67,0c0,2.91.64,3.92,2.07,3.92s2-1,2-3.92c0-3.1-.59-4.07-2-4.07S300.65,266.09,300.65,269.19Z" fill="#4c4c4c"/><path d="M345.74,275.06V273l2.54-2.57c1.55-1.59,2.42-2.51,2.42-3.66s-.56-1.57-1.95-1.57a20.42,20.42,0,0,0-2.81.27l-.12-1.92a13.88,13.88,0,0,1,3.56-.54c2.72,0,3.87,1.19,3.87,3.4,0,1.84-.7,2.88-2.66,4.66l-2.07,1.88h4.93v2.16Z" fill="#4c4c4c"/><path d="M364.3,269.19c0,4.5-1.65,6.08-4.61,6.08s-4.61-1.58-4.61-6.08,1.66-6.23,4.61-6.23S364.3,264.69,364.3,269.19Zm-6.66,0c0,2.91.63,3.92,2.07,3.92s2-1,2-3.92c0-3.1-.6-4.07-2-4.07S357.64,266.09,357.64,269.19Z" fill="#4c4c4c"/><path d="M365.74,266.87h2.59v3h-2.59Zm0,5.2h2.59v3h-2.59Z" fill="#4c4c4c"/><path d="M379,269.19c0,4.5-1.65,6.08-4.61,6.08s-4.61-1.58-4.61-6.08,1.66-6.23,4.61-6.23S379,264.69,379,269.19Zm-6.66,0c0,2.91.63,3.92,2.07,3.92s2-1,2-3.92c0-3.1-.6-4.07-2-4.07S372.33,266.09,372.33,269.19Z" fill="#4c4c4c"/><path d="M389.07,269.19c0,4.5-1.65,6.08-4.61,6.08s-4.61-1.58-4.61-6.08,1.66-6.23,4.61-6.23S389.07,264.69,389.07,269.19Zm-6.66,0c0,2.91.63,3.92,2.07,3.92s2-1,2-3.92c0-3.1-.6-4.07-2-4.07S382.41,266.09,382.41,269.19Z" fill="#4c4c4c"/><path d="M426.27,275.06V273l2.54-2.57c1.55-1.59,2.41-2.51,2.41-3.66s-.56-1.57-1.94-1.57a20.22,20.22,0,0,0-2.81.27l-.13-1.92a13.9,13.9,0,0,1,3.57-.54c2.71,0,3.87,1.19,3.87,3.4,0,1.84-.71,2.88-2.67,4.66L429,272.9H434v2.16Z" fill="#4c4c4c"/><path d="M440.44,263.17h2.26v11.89h-2.48V266l-2.58,1.66-1.13-1.86Z" fill="#4c4c4c"/><path d="M446.27,266.87h2.59v3h-2.59Zm0,5.2h2.59v3h-2.59Z" fill="#4c4c4c"/><path d="M459.52,269.19c0,4.5-1.66,6.08-4.61,6.08s-4.61-1.58-4.61-6.08S452,263,454.91,263,459.52,264.69,459.52,269.19Zm-6.66,0c0,2.91.63,3.92,2.07,3.92s2-1,2-3.92c0-3.1-.59-4.07-2-4.07S452.86,266.09,452.86,269.19Z" fill="#4c4c4c"/><path d="M469.6,269.19c0,4.5-1.66,6.08-4.61,6.08s-4.61-1.58-4.61-6.08S462,263,465,263,469.6,264.69,469.6,269.19Zm-6.66,0c0,2.91.63,3.92,2.07,3.92s2-1,2-3.92c0-3.1-.59-4.07-2-4.07S462.94,266.09,462.94,269.19Z" fill="#4c4c4c"/><path d="M35.06,435.21h9v1.24h-3.8v11.22H38.9V436.45H35.06Z" fill="#3a3d3f"/><path d="M52,446c0,.52.47.72,1,.79l-.05,1.06a2.75,2.75,0,0,1-2.14-.72,9.2,9.2,0,0,1-3.24.72c-1.64,0-2.54-.94-2.54-2.75s.9-2.49,2.75-2.67l2.83-.27v-.77c0-1.26-.54-1.71-1.62-1.71-1.26,0-3.4.23-3.4.23l-.06-1a22.13,22.13,0,0,1,3.53-.39c2,0,2.9.93,2.9,2.9Zm-4-2.56c-1.09.11-1.53.63-1.53,1.62s.45,1.66,1.37,1.66a9.48,9.48,0,0,0,2.83-.56v-3Z" fill="#3a3d3f"/><path d="M54.61,447.67V434.74H56v7.64l1.41-.08,2.57-3.63h1.53l-2.93,4.14,3.06,4.86H60.07l-2.69-4.18-1.42.06v4.12Z" fill="#3a3d3f"/><path d="M69.88,446.5l0,1.06a31.12,31.12,0,0,1-3.51.29c-2.68,0-3.56-1.57-3.56-4.63,0-3.42,1.47-4.73,3.76-4.73s3.62,1.26,3.62,4.21l-.07,1H64.21c0,1.92.59,2.93,2.35,2.93C67.91,446.66,69.88,446.5,69.88,446.5Zm-1-3.85c0-2.24-.68-3-2.27-3s-2.39.85-2.41,3Z" fill="#3a3d3f"/><path d="M82.64,446c0,.52.47.72,1,.79l-.05,1.06a2.75,2.75,0,0,1-2.14-.72,9.2,9.2,0,0,1-3.24.72c-1.64,0-2.54-.94-2.54-2.75s.9-2.49,2.75-2.67l2.83-.27v-.77c0-1.26-.54-1.71-1.62-1.71-1.26,0-3.4.23-3.4.23l-.06-1a22.13,22.13,0,0,1,3.53-.39c2,0,2.9.93,2.9,2.9Zm-4-2.56c-1.09.11-1.53.63-1.53,1.62s.45,1.66,1.37,1.66a9.57,9.57,0,0,0,2.83-.56v-3Z" fill="#3a3d3f"/><path d="M89.37,434.74h1.35v12.93H89.37Z" fill="#3a3d3f"/><path d="M100.73,443.06c0,3.28-.81,4.79-3.85,4.79S93,446.34,93,443.06c0-3.1,1-4.57,3.86-4.57S100.73,440,100.73,443.06Zm-1.39,0c0-2.5-.54-3.4-2.46-3.4s-2.47.9-2.47,3.4.34,3.62,2.47,3.62S99.34,445.62,99.34,443.06Z" fill="#3a3d3f"/><path d="M110.23,443.06c0,3.28-.81,4.79-3.85,4.79s-3.85-1.51-3.85-4.79c0-3.1,1-4.57,3.85-4.57S110.23,440,110.23,443.06Zm-1.38,0c0-2.5-.54-3.4-2.47-3.4s-2.47.9-2.47,3.4.35,3.62,2.47,3.62S108.85,445.62,108.85,443.06Z" fill="#3a3d3f"/><path d="M112.43,447.67V434.74h1.35v7.64l1.4-.08,2.58-3.63h1.53l-2.94,4.14,3.06,4.86h-1.53l-2.68-4.18-1.42.06v4.12Z" fill="#3a3d3f"/><path d="M131.37,446c0,.52.46.72,1,.79l0,1.06a2.76,2.76,0,0,1-2.15-.72,9.2,9.2,0,0,1-3.24.72c-1.64,0-2.54-.94-2.54-2.75s.9-2.49,2.76-2.67l2.82-.27v-.77c0-1.26-.54-1.71-1.62-1.71-1.26,0-3.4.23-3.4.23l0-1a22.13,22.13,0,0,1,3.53-.39c2,0,2.9.93,2.9,2.9Zm-4-2.56c-1.1.11-1.53.63-1.53,1.62s.45,1.66,1.37,1.66a9.47,9.47,0,0,0,2.82-.56v-3Z" fill="#3a3d3f"/><path d="M135.83,439.84v4.3c0,2,.12,2.52,1.29,2.52.51,0,1.61-.11,1.61-.11l.09,1.12a15.71,15.71,0,0,1-1.84.2c-1.86,0-2.49-.7-2.49-3.3v-4.73h-1.27v-1.17h1.27v-2.76h1.34v2.76h2.86v1.17Z" fill="#3a3d3f"/><path d="M151,446.5l0,1.06a31.4,31.4,0,0,1-3.52.29c-2.68,0-3.56-1.57-3.56-4.63,0-3.42,1.48-4.73,3.76-4.73s3.62,1.26,3.62,4.21l-.07,1h-5.94c0,1.92.59,2.93,2.36,2.93C149,446.66,151,446.5,151,446.5Zm-1-3.85c0-2.24-.68-3-2.27-3s-2.39.85-2.41,3Z" fill="#3a3d3f"/><path d="M159.75,446c0,.52.47.72,1,.79l0,1.06a2.75,2.75,0,0,1-2.14-.72,9.2,9.2,0,0,1-3.24.72c-1.64,0-2.54-.94-2.54-2.75s.9-2.49,2.75-2.67l2.83-.27v-.77c0-1.26-.54-1.71-1.62-1.71-1.26,0-3.4.23-3.4.23l-.06-1a22.13,22.13,0,0,1,3.53-.39c2,0,2.9.93,2.9,2.9Zm-4-2.56c-1.1.11-1.54.63-1.54,1.62s.46,1.66,1.37,1.66a9.48,9.48,0,0,0,2.83-.56v-3Z" fill="#3a3d3f"/><path d="M168.23,438.76l-.06,1.1s-1.44-.17-2.12-.17c-2.07,0-2.63.9-2.63,3.32,0,2.66.41,3.63,2.65,3.63.68,0,2.12-.16,2.12-.16l.06,1.12a24.24,24.24,0,0,1-2.51.25c-2.86,0-3.71-1.31-3.71-4.84,0-3.26,1.07-4.52,3.75-4.52A20.89,20.89,0,0,1,168.23,438.76Z" fill="#3a3d3f"/><path d="M170.26,447.67V434.74h1.35v4.43a7.64,7.64,0,0,1,2.77-.68c2.47,0,3.05,1.22,3.05,4.43v4.75h-1.35V443c0-2.37-.27-3.26-1.93-3.26a7.41,7.41,0,0,0-2.54.54v7.44Z" fill="#3a3d3f"/><path d="M189.86,440a29,29,0,0,0-3.15-.29c-1.11,0-2,.31-2,1.37,0,.85.43,1.08,2.34,1.41,2.25.37,3.1.82,3.1,2.57,0,2.11-1.33,2.81-3.49,2.81a25.4,25.4,0,0,1-3.17-.34l.07-1.17s2.05.3,3,.3c1.48,0,2.27-.32,2.27-1.54,0-.94-.47-1.17-2.43-1.48s-3-.7-3-2.5c0-2,1.6-2.63,3.24-2.63a23.19,23.19,0,0,1,3.26.34Z" fill="#3a3d3f"/><path d="M198.07,438.76l0,1.1s-1.44-.17-2.13-.17c-2.07,0-2.63.9-2.63,3.32,0,2.66.42,3.63,2.65,3.63.69,0,2.13-.16,2.13-.16l.05,1.12a24,24,0,0,1-2.5.25c-2.87,0-3.71-1.31-3.71-4.84,0-3.26,1.06-4.52,3.74-4.52A20.89,20.89,0,0,1,198.07,438.76Z" fill="#3a3d3f"/><path d="M200.1,447.67V434.74h1.35v4.43a7.65,7.65,0,0,1,2.78-.68c2.46,0,3,1.22,3,4.43v4.75h-1.35V443c0-2.37-.27-3.26-1.93-3.26a7.41,7.41,0,0,0-2.54.54v7.44Z" fill="#3a3d3f"/><path d="M216.41,446.5l0,1.06a31.12,31.12,0,0,1-3.51.29c-2.68,0-3.57-1.57-3.57-4.63,0-3.42,1.48-4.73,3.77-4.73s3.62,1.26,3.62,4.21l-.08,1h-5.94c0,1.92.6,2.93,2.36,2.93C214.45,446.66,216.41,446.5,216.41,446.5Zm-1-3.85c0-2.24-.69-3-2.27-3s-2.4.85-2.42,3Z" fill="#3a3d3f"/><path d="M225.77,447.67h-1.33v-.61a6.49,6.49,0,0,1-2.74.79c-1.76,0-3.24-.72-3.24-4.61,0-3.17,1-4.75,3.77-4.75a15.79,15.79,0,0,1,2.21.23v-4h1.33ZM224.44,446v-6.11a16.07,16.07,0,0,0-2.14-.21c-1.89,0-2.45,1.24-2.45,3.58,0,2.92,1,3.4,2,3.4A6.54,6.54,0,0,0,224.44,446Z" fill="#3a3d3f"/><path d="M235.35,438.67v9H234V447a6.08,6.08,0,0,1-2.67.81c-2.52,0-3-1.17-3-4.48v-4.7h1.35v4.68c0,2.48.22,3.29,1.89,3.29A5.53,5.53,0,0,0,234,446v-7.31Z" fill="#3a3d3f"/><path d="M238.05,434.74h1.35v12.93h-1.35Z" fill="#3a3d3f"/><path d="M248.74,446.5l0,1.06a31.38,31.38,0,0,1-3.51.29c-2.69,0-3.57-1.57-3.57-4.63,0-3.42,1.48-4.73,3.76-4.73s3.62,1.26,3.62,4.21l-.07,1h-5.94c0,1.92.59,2.93,2.36,2.93C246.78,446.66,248.74,446.5,248.74,446.5Zm-1-3.85c0-2.24-.68-3-2.27-3s-2.39.85-2.41,3Z" fill="#3a3d3f"/><path d="M261.5,446c0,.52.47.72,1.05.79l-.06,1.06a2.75,2.75,0,0,1-2.14-.72,9.2,9.2,0,0,1-3.24.72c-1.64,0-2.54-.94-2.54-2.75s.9-2.49,2.76-2.67l2.82-.27v-.77c0-1.26-.54-1.71-1.62-1.71-1.26,0-3.4.23-3.4.23l0-1a22.1,22.1,0,0,1,3.52-.39c2,0,2.9.93,2.9,2.9Zm-4-2.56c-1.1.11-1.53.63-1.53,1.62s.45,1.66,1.37,1.66a9.47,9.47,0,0,0,2.82-.56v-3Z" fill="#3a3d3f"/><path d="M264.16,447.67v-9h1.34v.63a6.79,6.79,0,0,1,2.79-.81c2.48,0,3,1.22,3,4.43v4.75H270V443c0-2.37-.27-3.26-1.95-3.26a6.18,6.18,0,0,0-2.54.67v7.31Z" fill="#3a3d3f"/><path d="M280.74,447.67h-1.33v-.61a6.42,6.42,0,0,1-2.73.79c-1.77,0-3.25-.72-3.25-4.61,0-3.17,1-4.75,3.77-4.75a15.79,15.79,0,0,1,2.21.23v-4h1.33ZM279.41,446v-6.11a16.07,16.07,0,0,0-2.14-.21c-1.89,0-2.45,1.24-2.45,3.58,0,2.92,1,3.4,2,3.4A6.54,6.54,0,0,0,279.41,446Z" fill="#3a3d3f"/><path d="M293.67,446c0,.52.47.72,1,.79l0,1.06a2.74,2.74,0,0,1-2.14-.72,9.22,9.22,0,0,1-3.25.72c-1.63,0-2.53-.94-2.53-2.75s.9-2.49,2.75-2.67l2.83-.27v-.77c0-1.26-.54-1.71-1.62-1.71-1.26,0-3.41.23-3.41.23l-.05-1a22.13,22.13,0,0,1,3.53-.39c2,0,2.9.93,2.9,2.9Zm-4-2.56c-1.1.11-1.53.63-1.53,1.62s.45,1.66,1.37,1.66a9.57,9.57,0,0,0,2.83-.56v-3Z" fill="#3a3d3f"/><path d="M302.31,440a29.33,29.33,0,0,0-3.15-.29c-1.12,0-2,.31-2,1.37,0,.85.44,1.08,2.34,1.41,2.26.37,3.1.82,3.1,2.57,0,2.11-1.33,2.81-3.49,2.81a25.65,25.65,0,0,1-3.17-.34l.07-1.17s2,.3,3,.3c1.48,0,2.27-.32,2.27-1.54,0-.94-.47-1.17-2.43-1.48s-3-.7-3-2.5c0-2,1.61-2.63,3.24-2.63a23.19,23.19,0,0,1,3.26.34Z" fill="#3a3d3f"/><path d="M310.68,440a29.33,29.33,0,0,0-3.15-.29c-1.12,0-2,.31-2,1.37,0,.85.44,1.08,2.34,1.41,2.26.37,3.1.82,3.1,2.57,0,2.11-1.33,2.81-3.49,2.81a25.65,25.65,0,0,1-3.17-.34l.07-1.17s2,.3,3,.3c1.48,0,2.27-.32,2.27-1.54,0-.94-.47-1.17-2.43-1.48s-3-.7-3-2.5c0-2,1.61-2.63,3.24-2.63a23.19,23.19,0,0,1,3.26.34Z" fill="#3a3d3f"/><path d="M313.07,435.07h1.35v1.56h-1.35Zm0,3.6h1.35v9h-1.35Z" fill="#3a3d3f"/><path d="M316.62,449.18c0-1,.48-1.53,1.42-2.23a1.45,1.45,0,0,1-.51-1.24,5.88,5.88,0,0,1,.62-1.43c-.76-.34-1.43-1.06-1.43-2.71,0-2.22,1.37-3.08,3.37-3.08a9.43,9.43,0,0,1,1.87.23l2.67-.07v1.15l-1.71,0a2.34,2.34,0,0,1,.59,1.8c0,2.34-1.17,3-3.47,3-.18,0-.69,0-.88-.07a5.3,5.3,0,0,0-.33,1c0,.72.14.83,2.18.83,2.56,0,3.47.51,3.47,2.65s-1.45,2.86-4,2.86C317.64,451.9,316.62,451.27,316.62,449.18Zm2.34-1.69c-.76.56-1,.88-1,1.59,0,1.24.52,1.69,2.55,1.69,1.81,0,2.62-.49,2.62-1.68,0-1.37-.58-1.51-2.22-1.51C320.27,447.58,319,447.49,319,447.49Zm3.2-5.92c0-1.43-.56-2-2.07-2s-2,.55-2,2,.62,2,2,2S322.16,443,322.16,441.57Z" fill="#3a3d3f"/><path d="M326.26,447.67v-9h1.34v.63a6.79,6.79,0,0,1,2.79-.81c2.48,0,3,1.22,3,4.43v4.75H332.1V443c0-2.37-.27-3.26-2-3.26a6.18,6.18,0,0,0-2.54.67v7.31Z" fill="#3a3d3f"/><path d="M339.84,447.67V446.5l3.47-3.66c1.48-1.53,2.4-2.5,2.4-3.9,0-1.59-.89-2.09-2.6-2.09a17.64,17.64,0,0,0-3.08.39l-.1-1.15a14.58,14.58,0,0,1,3.44-.48c2.5,0,3.76.95,3.76,3.18,0,1.79-.81,2.83-2.49,4.45l-3.17,3.22h6v1.21Z" fill="#3a3d3f"/><path d="M359.75,438.76l-.06,1.1s-1.44-.17-2.12-.17c-2.07,0-2.63.9-2.63,3.32,0,2.66.41,3.63,2.64,3.63.69,0,2.13-.16,2.13-.16l.05,1.12a24,24,0,0,1-2.5.25c-2.86,0-3.71-1.31-3.71-4.84,0-3.26,1.06-4.52,3.75-4.52A21.18,21.18,0,0,1,359.75,438.76Z" fill="#3a3d3f"/><path d="M369.09,443.06c0,3.28-.81,4.79-3.85,4.79s-3.86-1.51-3.86-4.79c0-3.1,1-4.57,3.86-4.57S369.09,440,369.09,443.06Zm-1.39,0c0-2.5-.54-3.4-2.46-3.4s-2.47.9-2.47,3.4.34,3.62,2.47,3.62S367.7,445.62,367.7,443.06Z" fill="#3a3d3f"/><path d="M371.39,434.74h1.35v12.93h-1.35Z" fill="#3a3d3f"/><path d="M375.55,434.74h1.35v12.93h-1.35Z" fill="#3a3d3f"/><path d="M386.24,446.5l0,1.06a31.12,31.12,0,0,1-3.51.29c-2.69,0-3.57-1.57-3.57-4.63,0-3.42,1.48-4.73,3.76-4.73s3.62,1.26,3.62,4.21l-.07,1h-5.94c0,1.92.59,2.93,2.36,2.93C384.28,446.66,386.24,446.5,386.24,446.5Zm-1-3.85c0-2.24-.68-3-2.27-3s-2.39.85-2.41,3Z" fill="#3a3d3f"/><path d="M395,446c0,.52.47.72,1,.79l-.06,1.06a2.75,2.75,0,0,1-2.14-.72,9.2,9.2,0,0,1-3.24.72c-1.64,0-2.54-.94-2.54-2.75s.9-2.49,2.76-2.67l2.82-.27v-.77c0-1.26-.54-1.71-1.62-1.71-1.26,0-3.4.23-3.4.23l-.05-1a22.13,22.13,0,0,1,3.53-.39c2,0,2.89.93,2.89,2.9Zm-4-2.56c-1.1.11-1.53.63-1.53,1.62s.45,1.66,1.37,1.66a9.47,9.47,0,0,0,2.82-.56v-3Z" fill="#3a3d3f"/><path d="M397.31,449.18c0-1,.49-1.53,1.42-2.23a1.47,1.47,0,0,1-.5-1.24,5.93,5.93,0,0,1,.61-1.43c-.76-.34-1.42-1.06-1.42-2.71,0-2.22,1.37-3.08,3.36-3.08a9.6,9.6,0,0,1,1.88.23l2.66-.07v1.15l-1.71,0a2.34,2.34,0,0,1,.59,1.8c0,2.34-1.16,3-3.47,3-.18,0-.68,0-.88-.07a5.3,5.3,0,0,0-.33,1c0,.72.15.83,2.18.83,2.56,0,3.48.51,3.48,2.65s-1.46,2.86-4,2.86C398.34,451.9,397.31,451.27,397.31,449.18Zm2.34-1.69c-.76.56-1,.88-1,1.59,0,1.24.52,1.69,2.56,1.69,1.8,0,2.61-.49,2.61-1.68,0-1.37-.58-1.51-2.22-1.51C401,447.58,399.65,447.49,399.65,447.49Zm3.21-5.92c0-1.43-.56-2-2.08-2s-2,.55-2,2,.61,2,2,2S402.86,443,402.86,441.57Z" fill="#3a3d3f"/><path d="M413.93,438.67v9h-1.35V447a6.14,6.14,0,0,1-2.67.81c-2.52,0-3-1.17-3-4.48v-4.7h1.35v4.68c0,2.48.21,3.29,1.89,3.29a5.53,5.53,0,0,0,2.47-.66v-7.31Z" fill="#3a3d3f"/><path d="M423.16,446.5l0,1.06a31.4,31.4,0,0,1-3.52.29c-2.68,0-3.56-1.57-3.56-4.63,0-3.42,1.48-4.73,3.76-4.73s3.62,1.26,3.62,4.21l-.07,1h-5.94c0,1.92.59,2.93,2.36,2.93C421.2,446.66,423.16,446.5,423.16,446.5Zm-1-3.85c0-2.24-.68-3-2.27-3s-2.39.85-2.41,3Z" fill="#3a3d3f"/><path d="M431.58,440a29.33,29.33,0,0,0-3.15-.29c-1.11,0-2,.31-2,1.37,0,.85.43,1.08,2.34,1.41,2.25.37,3.1.82,3.1,2.57,0,2.11-1.34,2.81-3.5,2.81a25.65,25.65,0,0,1-3.17-.34l.08-1.17s2.05.3,3,.3c1.47,0,2.27-.32,2.27-1.54,0-.94-.47-1.17-2.43-1.48s-3-.7-3-2.5c0-2,1.6-2.63,3.24-2.63a23.19,23.19,0,0,1,3.26.34Z" fill="#3a3d3f"/><path d="M439.66,447.67h-1.35v-7.83h-1.13v-1.17h1.13v-.81c0-2.6.67-3.3,2.43-3.3.62,0,1.82.13,1.82.13l0,1.11s-1,0-1.54,0c-1,0-1.34.43-1.34,2.11v.79h2.61v1.17h-2.61Z" fill="#3a3d3f"/><path d="M451.2,443.06c0,3.28-.81,4.79-3.85,4.79s-3.85-1.51-3.85-4.79c0-3.1,1-4.57,3.85-4.57S451.2,440,451.2,443.06Zm-1.38,0c0-2.5-.54-3.4-2.47-3.4s-2.47.9-2.47,3.4.35,3.62,2.47,3.62S449.82,445.62,449.82,443.06Z" fill="#3a3d3f"/><path d="M453.4,438.67h1.33v1.22a10.18,10.18,0,0,1,3.29-1.42v1.37a13,13,0,0,0-3.27,1.22v6.61H453.4Z" fill="#3a3d3f"/><path d="M465.38,439.84v4.3c0,2,.13,2.52,1.3,2.52.51,0,1.6-.11,1.6-.11l.09,1.12a15.44,15.44,0,0,1-1.83.2c-1.86,0-2.49-.7-2.49-3.3v-4.73h-1.28v-1.17h1.28v-2.76h1.33v2.76h2.87v1.17Z" fill="#3a3d3f"/><path d="M469.9,447.67V434.74h1.35v4.43a7.65,7.65,0,0,1,2.78-.68c2.46,0,3,1.22,3,4.43v4.75h-1.35V443c0-2.37-.27-3.26-1.93-3.26a7.41,7.41,0,0,0-2.54.54v7.44Z" fill="#3a3d3f"/><path d="M479.57,435.07h1.35v1.56h-1.35Zm0,3.6h1.35v9h-1.35Z" fill="#3a3d3f"/><path d="M489.49,440a29.33,29.33,0,0,0-3.15-.29c-1.12,0-2,.31-2,1.37,0,.85.44,1.08,2.34,1.41,2.26.37,3.1.82,3.1,2.57,0,2.11-1.33,2.81-3.49,2.81a25.65,25.65,0,0,1-3.17-.34l.07-1.17s2,.3,3,.3c1.48,0,2.27-.32,2.27-1.54,0-.94-.47-1.17-2.43-1.48s-3-.7-3-2.5c0-2,1.61-2.63,3.24-2.63a23,23,0,0,1,3.26.34Z" fill="#3a3d3f"/><path d="M497.64,439.84v4.3c0,2,.13,2.52,1.3,2.52.5,0,1.6-.11,1.6-.11l.09,1.12a15.71,15.71,0,0,1-1.84.2c-1.85,0-2.48-.7-2.48-3.3v-4.73H495v-1.17h1.28v-2.76h1.33v2.76h2.86v1.17Z" fill="#3a3d3f"/><path d="M508.51,446c0,.52.47.72,1.05.79l-.06,1.06a2.75,2.75,0,0,1-2.14-.72,9.2,9.2,0,0,1-3.24.72c-1.64,0-2.54-.94-2.54-2.75s.9-2.49,2.76-2.67l2.82-.27v-.77c0-1.26-.54-1.71-1.62-1.71-1.26,0-3.4.23-3.4.23l-.05-1a22.13,22.13,0,0,1,3.53-.39c2,0,2.89.93,2.89,2.9Zm-4-2.56c-1.1.11-1.53.63-1.53,1.62s.45,1.66,1.37,1.66a9.47,9.47,0,0,0,2.82-.56v-3Z" fill="#3a3d3f"/><path d="M517.15,440a29,29,0,0,0-3.15-.29c-1.11,0-2,.31-2,1.37,0,.85.43,1.08,2.34,1.41,2.25.37,3.1.82,3.1,2.57,0,2.11-1.33,2.81-3.49,2.81a25.4,25.4,0,0,1-3.17-.34l.07-1.17s2.05.3,3,.3c1.48,0,2.27-.32,2.27-1.54,0-.94-.47-1.17-2.43-1.48s-3-.7-3-2.5c0-2,1.6-2.63,3.24-2.63a23.19,23.19,0,0,1,3.26.34Z" fill="#3a3d3f"/><path d="M519.55,447.67V434.74h1.35v7.64l1.4-.08,2.58-3.63h1.53l-2.94,4.14,3.06,4.86H525l-2.68-4.18-1.42.06v4.12Z" fill="#3a3d3f"/><path d="M528.08,445.62h1.47v2.05h-1.47Z" fill="#3a3d3f"/><path d="M44.79,34.46s-2.78-.34-3.94-.34c-2,0-3,.7-3,2.26,0,1.8,1,2.1,3.38,2.64,2.76.62,4,1.3,4,3.72,0,3.06-1.68,4.26-4.42,4.26a36.39,36.39,0,0,1-4.38-.44l.16-1.28s2.72.36,4.14.36c2,0,3-.86,3-2.78,0-1.56-.82-2-3.08-2.44-2.86-.62-4.3-1.3-4.3-3.94s1.76-3.72,4.46-3.72a34.46,34.46,0,0,1,4.18.4Z"/><path d="M47.87,33h8.42v1.36H49.41v4.78h5.68v1.34H49.41v5h6.88v1.36H47.87Z"/><path d="M58.93,46.82V33h1.54V45.44h6.08v1.38Z"/><path d="M68.51,33h8.42v1.36H70.05v4.78h5.68v1.34H70.05v5h6.88v1.36H68.51Z"/><path d="M87.93,46.6a20.83,20.83,0,0,1-3.82.42c-4.14,0-5.06-2.52-5.06-7.08s.9-7.16,5.06-7.16a20.32,20.32,0,0,1,3.82.44l-.06,1.3a24.64,24.64,0,0,0-3.6-.36c-3.08,0-3.62,1.84-3.62,5.78s.5,5.7,3.66,5.7a21.88,21.88,0,0,0,3.56-.36Z"/><path d="M89,33H99v1.38H94.79V46.82H93.27V34.36H89Z"/><path d="M113.73,46.6a20.83,20.83,0,0,1-3.82.42c-4.15,0-5.07-2.52-5.07-7.08s.9-7.16,5.07-7.16a20.32,20.32,0,0,1,3.82.44l-.06,1.3a24.64,24.64,0,0,0-3.6-.36c-3.09,0-3.63,1.84-3.63,5.78s.5,5.7,3.67,5.7a21.88,21.88,0,0,0,3.56-.36Z"/><path d="M115.68,40c0-4.56,1.18-7.18,5.47-7.18s5.48,2.58,5.48,7.18c0,4.76-1.18,7.06-5.48,7.06S115.68,44.6,115.68,40ZM125,40c0-3.74-.72-5.82-3.88-5.82s-3.89,2.06-3.89,5.82.68,5.7,3.89,5.7S125,43.86,125,40Z"/><path d="M129.44,46.82V33H131V45.44h6.09v1.38Z"/><path d="M139,46.82V33h1.54V45.44h6.09v1.38Z"/><path d="M148.6,33H157v1.36h-6.89v4.78h5.69v1.34h-5.69v5H157v1.36H148.6Z"/><path d="M162.24,33h3.37l3.8,13.84h-1.52l-1-3.56H161l-1,3.56h-1.52Zm-.94,8.9h5.25l-2.1-7.58h-1Z"/><path d="M177.07,39.74h3.82v6.8a33.7,33.7,0,0,1-4.51.48c-4.24,0-5.36-2.6-5.36-7.08s1.16-7.16,5.32-7.16a25.8,25.8,0,0,1,4.55.52l-.06,1.28a31.73,31.73,0,0,0-4.3-.42c-3.21,0-3.91,1.86-3.91,5.78s.68,5.72,3.88,5.72a18.58,18.58,0,0,0,2.87-.28V41.12h-2.3Z"/><path d="M188.59,45.66c2.16,0,3.38-.84,3.38-3V33h1.52v9.64c0,3.16-1.74,4.4-4.9,4.4s-4.79-1.22-4.79-4.4V33h1.54v9.68C185.34,44.82,186.54,45.66,188.59,45.66Z"/><path d="M196.78,33h8.43v1.36h-6.89v4.78H204v1.34h-5.69v5h6.89v1.36h-8.43Z"/><path d="M215.61,34.46s-2.78-.34-4-.34c-2,0-3,.7-3,2.26,0,1.8,1,2.1,3.38,2.64,2.77.62,4,1.3,4,3.72,0,3.06-1.68,4.26-4.43,4.26a36.39,36.39,0,0,1-4.38-.44l.16-1.28s2.72.36,4.14.36c2,0,3-.86,3-2.78,0-1.56-.83-2-3.09-2.44-2.86-.62-4.3-1.3-4.3-3.94s1.76-3.72,4.46-3.72a34.72,34.72,0,0,1,4.19.4Z"/><line x1="37.2" y1="55.13" x2="536.79" y2="55.13" fill="none" stroke="#ddd" stroke-miterlimit="10"/><circle cx="75.13" cy="122.86" r="39.47" fill="#ebefa5" stroke="#2277d6" stroke-miterlimit="10" stroke-width="3"/><path d="M54.53,110.88H68.32v2.23H57.05v7.83h9.31v2.19H57.05v8.19H68.32v2.23H54.53Z" fill="#2f4249"/><path d="M74.29,110.88h4.55L85.26,130l6.43-19.16h4.55v22.67H93.72v-20h-.46l-6.59,19.17H83.86l-6.59-19.17h-.46v20H74.29Z" fill="#2f4249"/><circle cx="153.91" cy="363.55" r="26.31" fill="#ebefa5" stroke="#2277d6" stroke-miterlimit="10" stroke-width="3"/><path d="M139.17,355.56h9.19v1.49h-7.51v5.22h6.2v1.46h-6.2v5.46h7.51v1.48h-9.19Z" fill="#424127"/><path d="M152.34,355.56h3l4.28,12.78,4.28-12.78h3v15.11h-1.68V357.35H165l-4.39,12.78h-1.88l-4.39-12.78H154v13.32h-1.68Z" fill="#424127"/><circle cx="220.45" cy="363.55" r="26.31" fill="#dbb8f4"/><path d="M217.93,363.84h-7.69v6.83h-1.68V355.56h1.68v6.77h7.69v-6.77h1.65v15.11h-1.65Z" fill="#574666"/><path d="M224.39,370.67V355.56h1.69v13.61h6.63v1.5Z" fill="#574666"/><circle cx="286.99" cy="363.55" r="26.31" fill="#a5ebef"/><path d="M270.79,355.56h3l4.28,12.78,4.28-12.78h3v15.11h-1.68V357.35h-.31L279,370.13h-1.88l-4.39-12.78h-.3v13.32h-1.68Z" fill="#274444"/><path d="M290.23,355.56h3.14l5.79,13.63h.46V355.56h1.66v15.11H298.2l-5.88-13.62h-.41v13.62h-1.68Z" fill="#274444"/><circle cx="353.54" cy="363.55" r="26.31" fill="#c2e3f2"/><path d="M344.11,355.56H355v1.51h-4.61v13.6h-1.66v-13.6h-4.65Z" fill="#2f4249"/><path d="M361,368.6c0,3.27-1.27,3.65-4.15,3.65v-1.51c2,0,2.47-.13,2.47-2.38v-12.8h1.66Z" fill="#2f4249"/><circle cx="420.08" cy="363.55" r="26.31" fill="#efd3a5"/><path d="M411.62,355.56h9.2v1.49h-7.51v5.22h6.2v1.46h-6.2v5.46h7.51v1.48h-9.2Z" fill="#4c3d28"/><path d="M424.8,370.67V355.56h1.68v13.61h6.64v1.5Z" fill="#4c3d28"/><rect x="81.09" y="229.18" width="77.78" height="27.52" fill="#76ce89"/><rect x="35.08" y="229.18" width="41.24" height="27.52" fill="#76ce89" opacity="0.3"/><rect x="491.32" y="229.18" width="44.43" height="27.52" fill="#76ce89" opacity="0.3"/><rect x="163.12" y="229.18" width="77.78" height="27.52" fill="#76ce89"/><rect x="245.29" y="229.18" width="77.78" height="27.52" fill="#ed0000"/><rect x="327.27" y="229.18" width="77.78" height="27.52" fill="#76ce89"/><rect x="409.53" y="229.18" width="77.78" height="27.52" fill="#76ce89"/><path d="M144.27,93h4.89l3.45,11.75h.21V93h2.89v14.27H151l-3.57-11.75h-.21v11.75h-2.9Z" fill="#4c4c4c"/><path d="M166.61,104.46c0,.63.13.88.7,1l-.09,2.12a4.66,4.66,0,0,1-3-.74,8,8,0,0,1-3.09.74c-2.2,0-3.25-1.22-3.25-3.45s1.36-3,3.67-3.21l2.25-.17v-.65c0-.9-.4-1.13-1.24-1.13-1.38,0-3.95.17-3.95.17l-.08-2a19.13,19.13,0,0,1,4.26-.61c2.73,0,3.82,1.07,3.82,3.53Zm-4.72-1.6c-.74.07-1.18.42-1.18,1.18s.28,1.24,1,1.24a8.82,8.82,0,0,0,2.06-.34v-2.25Z" fill="#4c4c4c"/><path d="M169.3,107.31V96.82h2.79v.58a6.45,6.45,0,0,1,2.48-.84,3.34,3.34,0,0,1,2.63,1,9.43,9.43,0,0,1,3.52-1c2.86,0,3.7,1.68,3.7,5.06v5.69h-2.81v-5.6c0-1.6-.21-2.63-1.47-2.63a7.22,7.22,0,0,0-2,.4s.09,1.58.09,2.4v5.43h-2.82v-5.39c0-1.89-.16-2.84-1.46-2.84a5.76,5.76,0,0,0-1.87.38v7.85Z" fill="#4c4c4c"/><path d="M195.24,104.9l0,2.08a22.22,22.22,0,0,1-4.37.59c-3.17,0-4.51-1.58-4.51-5.36S188,96.56,191,96.56s4.57,1.58,4.57,4.75l-.21,2h-6.17c0,1.26.61,1.83,2.12,1.83C193.07,105.09,195.24,104.9,195.24,104.9Zm-2.4-3.78c0-1.7-.48-2.25-1.8-2.25s-1.81.65-1.83,2.25Z" fill="#4c4c4c"/><path d="M197.51,97.76h3v3.49h-3Zm0,6.07h3v3.48h-3Z" fill="#4c4c4c"/><path d="M208.11,92.78H217v1.43h-7.22v5h6v1.41h-6v5.25H217v1.42h-8.84Z" fill="#4c4c4c"/><path d="M219.45,107.31V96.82H221v.73a7.11,7.11,0,0,1,3.07-.94,3,3,0,0,1,2.73,1.07,8.75,8.75,0,0,1,3.74-1.07c2.85,0,3.54,1.36,3.54,5.16v5.54h-1.57v-5.5c0-2.77-.32-3.8-2.2-3.8a7,7,0,0,0-3,.78,11.73,11.73,0,0,1,.28,3.06v5.46H226V101.9c0-2.9-.29-3.89-2.2-3.89a6.31,6.31,0,0,0-2.82.78v8.52Z" fill="#4c4c4c"/><path d="M237,92.62h1.57v1.82H237Zm0,4.2h1.57v10.49H237Z" fill="#4c4c4c"/><path d="M241.73,92.24h1.58v15.07h-1.58Z" fill="#4c4c4c"/><path d="M246.46,92.62H248v1.82h-1.57Zm0,4.2H248v10.49h-1.57Z" fill="#4c4c4c"/><path d="M258.47,105.36c0,.61.54.84,1.21.93l-.06,1.23a3.22,3.22,0,0,1-2.5-.84,10.73,10.73,0,0,1-3.78.84c-1.91,0-3-1.09-3-3.21s1.05-2.9,3.21-3.11l3.3-.31V100c0-1.47-.63-2-1.89-2-1.47,0-4,.27-4,.27L251,97.07a25.55,25.55,0,0,1,4.12-.46c2.37,0,3.38,1.09,3.38,3.38Zm-4.69-3c-1.28.13-1.78.73-1.78,1.89s.52,1.93,1.59,1.93a11.12,11.12,0,0,0,3.3-.65v-3.46Z" fill="#4c4c4c"/><path d="M152.84,118.1s-3-.34-4.18-.34c-1.55,0-2.29.57-2.29,1.51s.57,1.22,3,2c3.09,1,4,1.84,4,4.22,0,3.11-2.12,4.55-4.93,4.55a26.74,26.74,0,0,1-4.77-.65l.3-2.24s2.81.38,4.3.38,2.23-.74,2.23-1.85c0-.89-.51-1.28-2.57-1.87-3.21-.93-4.43-2-4.43-4.31,0-3,2-4.24,4.88-4.24a29.61,29.61,0,0,1,4.7.57Z" fill="#4c4c4c"/><path d="M164.45,119.27v10.5h-2.79v-.59A6.91,6.91,0,0,1,159,130c-3.06,0-3.69-1.7-3.69-5.25v-5.5h2.81v5.55c0,1.87.09,2.69,1.47,2.69a6.27,6.27,0,0,0,2-.38v-7.86Z" fill="#4c4c4c"/><path d="M167.06,119.27h2.79v1.12a12.77,12.77,0,0,1,3.36-1.37v2.84a25,25,0,0,0-3.34.88v7h-2.81Z" fill="#4c4c4c"/><path d="M174.87,129.77v-10.5h2.79v.59a6.36,6.36,0,0,1,2.62-.84c2.94,0,3.7,1.85,3.7,5.06v5.69h-2.81v-5.6c0-1.6-.21-2.63-1.58-2.63a5.75,5.75,0,0,0-1.91.38v7.85Z" fill="#4c4c4c"/><path d="M194.52,126.92c0,.63.13.88.69,1l-.08,2.12a4.64,4.64,0,0,1-3-.73A8.12,8.12,0,0,1,189,130c-2.2,0-3.25-1.21-3.25-3.44s1.36-3,3.67-3.21l2.25-.17v-.65c0-.9-.4-1.13-1.24-1.13-1.39,0-3.95.16-3.95.16l-.08-2a19,19,0,0,1,4.26-.61c2.73,0,3.82,1.07,3.82,3.53Zm-4.72-1.6c-.74.06-1.18.42-1.18,1.18s.28,1.24,1,1.24a8.94,8.94,0,0,0,2.06-.34v-2.25Z" fill="#4c4c4c"/><path d="M197.21,129.77v-10.5H200v.59a6.45,6.45,0,0,1,2.48-.84,3.34,3.34,0,0,1,2.63,1,9.43,9.43,0,0,1,3.52-1c2.86,0,3.7,1.68,3.7,5.06v5.69h-2.81v-5.6c0-1.6-.21-2.63-1.47-2.63a7.22,7.22,0,0,0-2,.4s.09,1.57.09,2.39v5.44h-2.82v-5.39c0-1.89-.16-2.84-1.47-2.84a5.74,5.74,0,0,0-1.86.38v7.85Z" fill="#4c4c4c"/><path d="M223.14,127.36l.05,2.08a22.58,22.58,0,0,1-4.37.58c-3.17,0-4.51-1.57-4.51-5.35S215.88,119,219,119s4.57,1.58,4.57,4.75l-.21,2h-6.17c0,1.26.61,1.83,2.12,1.83C221,127.55,223.14,127.36,223.14,127.36Zm-2.39-3.78c0-1.7-.48-2.25-1.8-2.25s-1.81.65-1.83,2.25Z" fill="#4c4c4c"/><path d="M225.41,120.22h3v3.48h-3Zm0,6.07h3v3.48h-3Z" fill="#4c4c4c"/><path d="M236,115.24h2.92l4.11,12.29,4.12-12.29h2.92v14.53h-1.62V117h-.29L244,129.25h-1.81L237.93,117h-.29v12.81H236Z" fill="#4c4c4c"/><path d="M261.91,124.4c0,3.82-.94,5.58-4.49,5.58s-4.5-1.76-4.5-5.58c0-3.61,1.18-5.34,4.5-5.34S261.91,120.79,261.91,124.4Zm-1.62,0c0-2.92-.63-4-2.87-4s-2.88,1-2.88,4,.4,4.22,2.88,4.22S260.29,127.38,260.29,124.4Z" fill="#4c4c4c"/><path d="M264.6,114.7h1.57v15.07H264.6Z" fill="#4c4c4c"/><path d="M277.07,128.41l0,1.24A37.14,37.14,0,0,1,273,130c-3.13,0-4.16-1.82-4.16-5.39,0-4,1.72-5.53,4.39-5.53s4.22,1.47,4.22,4.92l-.08,1.19h-6.93c0,2.25.69,3.43,2.75,3.43C274.78,128.6,277.07,128.41,277.07,128.41Zm-1.17-4.5c0-2.6-.8-3.52-2.65-3.52s-2.79,1-2.81,3.52Z" fill="#4c4c4c"/><path d="M279.93,129.77v-10.5h1.55V120a7.94,7.94,0,0,1,3.26-1c2.9,0,3.55,1.43,3.55,5.17v5.54h-1.56v-5.5c0-2.77-.31-3.8-2.27-3.8a7.17,7.17,0,0,0-3,.78v8.52Z" fill="#4c4c4c"/><path d="M147.17,147.44v4.79h-2.9V138h5.54c3.26,0,5,1.45,5,4.71a4.5,4.5,0,0,1-2.1,4.11l2,5.46h-3.17L150,147.44Zm2.64-7h-2.64V145h2.69c1.45,0,2-1,2-2.26A2,2,0,0,0,149.81,140.43Z" fill="#4c4c4c"/><path d="M166.15,147c0,3.23-1.17,5.52-4.83,5.52s-4.83-2.29-4.83-5.52,1.18-5.48,4.83-5.48S166.15,143.73,166.15,147Zm-2.85,0c0-2-.42-3.09-2-3.09s-2,1-2,3.09.42,3.13,2,3.13S163.3,149,163.3,147Z" fill="#4c4c4c"/><path d="M168.34,137.53h2.81v14.7h-2.81Z" fill="#4c4c4c"/><path d="M182.2,149.82l0,2.07a22.22,22.22,0,0,1-4.37.59c-3.17,0-4.51-1.57-4.51-5.35s1.57-5.65,4.64-5.65,4.57,1.57,4.57,4.74l-.21,2h-6.17c0,1.26.61,1.82,2.12,1.82C180,150,182.2,149.82,182.2,149.82ZM179.8,146c0-1.7-.48-2.25-1.8-2.25s-1.81.65-1.83,2.25Z" fill="#4c4c4c"/><path d="M184.46,142.68h3v3.48h-3Zm0,6.06h3v3.49h-3Z" fill="#4c4c4c"/><path d="M200.82,144.8h4v7.14a36.25,36.25,0,0,1-4.72.5c-4.45,0-5.63-2.73-5.63-7.43s1.22-7.52,5.59-7.52a26.82,26.82,0,0,1,4.76.55l-.06,1.34a33.29,33.29,0,0,0-4.51-.44c-3.36,0-4.1,1.95-4.1,6.07s.72,6,4.08,6a20.38,20.38,0,0,0,3-.29v-4.47h-2.42Z" fill="#4c4c4c"/><path d="M207.73,141.73h1.56v1.43a11.79,11.79,0,0,1,3.84-1.66v1.6a15.28,15.28,0,0,0-3.82,1.42v7.71h-1.58Z" fill="#4c4c4c"/><path d="M223.52,146.85c0,3.83-.94,5.59-4.49,5.59s-4.49-1.76-4.49-5.59c0-3.61,1.17-5.33,4.49-5.33S223.52,143.24,223.52,146.85Zm-1.62,0c0-2.91-.62-4-2.87-4s-2.88,1.05-2.88,4,.4,4.23,2.88,4.23S221.9,149.84,221.9,146.85Z" fill="#4c4c4c"/><path d="M234.21,141.73v10.5h-1.57v-.73a7.14,7.14,0,0,1-3.11.94c-2.94,0-3.55-1.36-3.55-5.23v-5.48h1.58v5.46c0,2.9.25,3.84,2.2,3.84a6.4,6.4,0,0,0,2.88-.77v-8.53Z" fill="#4c4c4c"/><path d="M237.24,152.23v-10.5h1.55v.74a7.94,7.94,0,0,1,3.26-.95c2.89,0,3.54,1.43,3.54,5.17v5.54H244v-5.5c0-2.77-.31-3.8-2.27-3.8a7.17,7.17,0,0,0-3,.78v8.52Z" fill="#4c4c4c"/><path d="M256.58,152.23H255v-.71a7.57,7.57,0,0,1-3.19.92c-2.06,0-3.78-.84-3.78-5.38,0-3.69,1.2-5.54,4.39-5.54a18,18,0,0,1,2.58.27v-4.64h1.56Zm-1.56-2v-7.12a18.28,18.28,0,0,0-2.5-.25c-2.2,0-2.85,1.45-2.85,4.17,0,3.41,1.11,4,2.35,4A7.67,7.67,0,0,0,255,150.26Z" fill="#4c4c4c"/><path d="M263.93,145c0-4.79,1.24-7.54,5.73-7.54s5.75,2.71,5.75,7.54c0,5-1.24,7.41-5.75,7.41S263.93,149.9,263.93,145Zm9.8,0c0-3.93-.75-6.11-4.07-6.11s-4.07,2.16-4.07,6.11.71,6,4.07,6S273.73,149.12,273.73,145Z" fill="#4c4c4c"/><path d="M278.1,141.73h1.56v.76a7.09,7.09,0,0,1,3.15-1c2.64,0,3.8,1.62,3.8,5.33,0,4.12-1.35,5.59-4.58,5.59a13.86,13.86,0,0,1-2.35-.23v4.68H278.1Zm1.58,2v7.07a14.21,14.21,0,0,0,2.26.24c2.31,0,3.07-1.2,3.07-4.23,0-2.87-.9-3.92-2.44-3.92A6.83,6.83,0,0,0,279.68,143.77Z" fill="#4c4c4c"/><path d="M296.92,150.86l0,1.24a36.1,36.1,0,0,1-4.1.34c-3.12,0-4.15-1.83-4.15-5.4,0-4,1.72-5.52,4.38-5.52s4.23,1.47,4.23,4.91l-.09,1.2H290.3c0,2.25.69,3.42,2.75,3.42C294.63,151.05,296.92,150.86,296.92,150.86Zm-1.18-4.49c0-2.6-.8-3.53-2.65-3.53s-2.79,1-2.81,3.53Z" fill="#4c4c4c"/><path d="M299.77,141.73h1.56v1.43a11.79,11.79,0,0,1,3.84-1.66v1.6a15.48,15.48,0,0,0-3.82,1.42v7.71h-1.58Z" fill="#4c4c4c"/><path d="M314.45,150.28c0,.61.55.84,1.22.92l-.06,1.24a3.2,3.2,0,0,1-2.5-.84,10.73,10.73,0,0,1-3.78.84c-1.91,0-3-1.09-3-3.21s1.05-2.9,3.21-3.11l3.3-.32v-.9c0-1.47-.63-2-1.89-2-1.47,0-4,.27-4,.27L307,142a25.53,25.53,0,0,1,4.11-.46c2.37,0,3.38,1.09,3.38,3.38Zm-4.68-3c-1.28.12-1.78.73-1.78,1.88s.52,1.94,1.59,1.94a11.21,11.21,0,0,0,3.3-.65V147Z" fill="#4c4c4c"/><path d="M319.66,143.1v5c0,2.29.15,2.94,1.51,2.94.59,0,1.87-.12,1.87-.12l.11,1.3a18.53,18.53,0,0,1-2.15.23c-2.16,0-2.89-.82-2.89-3.84V143.1h-1.49v-1.37h1.49v-3.21h1.55v3.21H323v1.37Z" fill="#4c4c4c"/><path d="M324.93,137.53h1.58v1.83h-1.58Zm0,4.2h1.58v10.5h-1.58Z" fill="#4c4c4c"/><path d="M338.05,146.85c0,3.83-.94,5.59-4.49,5.59s-4.49-1.76-4.49-5.59c0-3.61,1.17-5.33,4.49-5.33S338.05,143.24,338.05,146.85Zm-1.61,0c0-2.91-.63-4-2.88-4s-2.88,1.05-2.88,4,.4,4.23,2.88,4.23S336.44,149.84,336.44,146.85Z" fill="#4c4c4c"/><path d="M340.62,152.23v-10.5h1.55v.74a7.94,7.94,0,0,1,3.26-.95c2.89,0,3.54,1.43,3.54,5.17v5.54h-1.55v-5.5c0-2.77-.31-3.8-2.27-3.8a7.17,7.17,0,0,0-3,.78v8.52Z" fill="#4c4c4c"/><path d="M359.5,137.7H363l4,14.53h-1.59l-1.05-3.74h-6.22l-1,3.74h-1.59Zm-1,9.34H364l-2.2-7.95h-1.1Z" fill="#4c4c4c"/><path d="M376,143.26a35,35,0,0,0-3.67-.33c-1.31,0-2.29.36-2.29,1.59,0,1,.5,1.26,2.73,1.64,2.62.44,3.61,1,3.61,3,0,2.46-1.56,3.28-4.07,3.28a29.52,29.52,0,0,1-3.7-.4l.08-1.36s2.4.35,3.47.35c1.72,0,2.64-.37,2.64-1.8,0-1.09-.54-1.37-2.83-1.72s-3.51-.82-3.51-2.92c0-2.31,1.87-3.07,3.78-3.07a26.66,26.66,0,0,1,3.8.4Z" fill="#4c4c4c"/><path d="M385.77,143.26a35,35,0,0,0-3.68-.33c-1.3,0-2.29.36-2.29,1.59,0,1,.51,1.26,2.73,1.64,2.63.44,3.61,1,3.61,3,0,2.46-1.55,3.28-4.07,3.28a29.53,29.53,0,0,1-3.69-.4l.08-1.36s2.39.35,3.46.35c1.73,0,2.65-.37,2.65-1.8,0-1.09-.55-1.37-2.83-1.72s-3.51-.82-3.51-2.92c0-2.31,1.87-3.07,3.78-3.07a26.87,26.87,0,0,1,3.8.4Z" fill="#4c4c4c"/><path d="M388.56,137.53h1.58v1.83h-1.58Zm0,4.2h1.58v10.5h-1.58Z" fill="#4c4c4c"/><path d="M400.13,143.26a35,35,0,0,0-3.67-.33c-1.31,0-2.29.36-2.29,1.59,0,1,.5,1.26,2.73,1.64,2.62.44,3.61,1,3.61,3,0,2.46-1.56,3.28-4.08,3.28a29.53,29.53,0,0,1-3.69-.4l.08-1.36s2.4.35,3.47.35c1.72,0,2.64-.37,2.64-1.8,0-1.09-.54-1.37-2.83-1.72s-3.51-.82-3.51-2.92c0-2.31,1.87-3.07,3.78-3.07a26.66,26.66,0,0,1,3.8.4Z" fill="#4c4c4c"/><path d="M405,143.1v5c0,2.29.15,2.94,1.52,2.94.58,0,1.86-.12,1.86-.12l.11,1.3a18.55,18.55,0,0,1-2.14.23c-2.16,0-2.9-.82-2.9-3.84V143.1H402v-1.37h1.49v-3.21H405v3.21h3.34v1.37Z" fill="#4c4c4c"/><path d="M417.71,150.28c0,.61.54.84,1.21.92l-.06,1.24a3.22,3.22,0,0,1-2.5-.84,10.73,10.73,0,0,1-3.78.84c-1.91,0-3-1.09-3-3.21s1.05-2.9,3.21-3.11l3.3-.32v-.9c0-1.47-.63-2-1.89-2-1.47,0-4,.27-4,.27l-.06-1.2a25.55,25.55,0,0,1,4.12-.46c2.37,0,3.38,1.09,3.38,3.38Zm-4.69-3c-1.28.12-1.78.73-1.78,1.88s.52,1.94,1.59,1.94a11.12,11.12,0,0,0,3.3-.65V147Z" fill="#4c4c4c"/><path d="M420.82,152.23v-10.5h1.55v.74a7.93,7.93,0,0,1,3.25-.95c2.9,0,3.55,1.43,3.55,5.17v5.54h-1.55v-5.5c0-2.77-.32-3.8-2.27-3.8a7.17,7.17,0,0,0-3,.78v8.52Z" fill="#4c4c4c"/><path d="M434.19,143.1v5c0,2.29.15,2.94,1.51,2.94.59,0,1.87-.12,1.87-.12l.11,1.3a18.55,18.55,0,0,1-2.14.23c-2.17,0-2.9-.82-2.9-3.84V143.1h-1.49v-1.37h1.49v-3.21h1.55v3.21h3.34v1.37Z" fill="#4c4c4c"/></g><g id="Layer_2-2" data-name="Layer 2"><path d="M479.78,102.05h2.69l3,11.08h-1.22l-.8-2.85h-4.74l-.8,2.85h-1.21Zm-.76,7.12h4.2l-1.68-6.06h-.84Z" fill="#3a3d3f"/><path d="M492.13,106.29a26.93,26.93,0,0,0-2.8-.25c-1,0-1.75.27-1.75,1.21,0,.76.39,1,2.09,1.25,2,.34,2.75.74,2.75,2.29,0,1.87-1.19,2.5-3.11,2.5a22.12,22.12,0,0,1-2.81-.31l.06-1a25.74,25.74,0,0,0,2.64.28c1.31,0,2-.29,2-1.38,0-.83-.42-1-2.16-1.31s-2.68-.63-2.68-2.23c0-1.76,1.43-2.34,2.89-2.34a20,20,0,0,1,2.89.31Z" fill="#3a3d3f"/><path d="M499.35,106.29a26.92,26.92,0,0,0-2.81-.25c-1,0-1.74.27-1.74,1.21,0,.76.38,1,2.08,1.25,2,.34,2.75.74,2.75,2.29,0,1.87-1.18,2.5-3.1,2.5a22.12,22.12,0,0,1-2.82-.31l.07-1a25.74,25.74,0,0,0,2.64.28c1.31,0,2-.29,2-1.38,0-.83-.41-1-2.16-1.31s-2.67-.63-2.67-2.23c0-1.76,1.42-2.34,2.88-2.34a20.17,20.17,0,0,1,2.9.31Z" fill="#3a3d3f"/><path d="M501.25,101.92h1.2v1.4h-1.2Zm0,3.2h1.2v8h-1.2Z" fill="#3a3d3f"/><path d="M504.18,114.47c0-.93.43-1.36,1.26-2a1.3,1.3,0,0,1-.45-1.11,5.15,5.15,0,0,1,.55-1.26,2.33,2.33,0,0,1-1.27-2.42c0-2,1.22-2.74,3-2.74a8.3,8.3,0,0,1,1.67.21l2.37-.06v1l-1.52,0a2.1,2.1,0,0,1,.53,1.6c0,2.08-1,2.71-3.09,2.71a7.46,7.46,0,0,1-.79-.07,4.91,4.91,0,0,0-.29.91c0,.65.13.74,1.94.74,2.27,0,3.09.45,3.09,2.35s-1.3,2.55-3.55,2.55C505.09,116.89,504.18,116.33,504.18,114.47Zm2.08-1.5c-.68.49-.9.78-.9,1.41,0,1.1.46,1.5,2.27,1.5,1.6,0,2.32-.43,2.32-1.49s-.51-1.34-2-1.34C507.42,113.05,506.26,113,506.26,113Zm2.85-5.27c0-1.26-.5-1.76-1.85-1.76s-1.79.5-1.79,1.76.55,1.75,1.79,1.75S509.11,109,509.11,107.7Z" fill="#3a3d3f"/><path d="M512.53,113.13v-8h1.18v.56a6.1,6.1,0,0,1,2.48-.72c2.21,0,2.71,1.09,2.71,3.94v4.23h-1.19v-4.2c0-2.11-.24-2.89-1.73-2.89a5.46,5.46,0,0,0-2.25.59v6.5Z" fill="#3a3d3f"/><path d="M510.21,154.08H480.69a12,12,0,0,1,0-24h29.52a12,12,0,1,1,0,24" fill="#f2f2f2"/><path d="M526,141.58a15,15,0,1,1-15-15,15,15,0,0,1,15,15" fill="#40bd73"/></g></g></svg>