<svg xmlns="http://www.w3.org/2000/svg" viewBox="0 0 1191.52 182.27">
	<title>
		r_2_0_Screen
	</title>
	<g id="Layer_2" data-name="Layer 2">
		<g id="AGV3_Sel_Box">
			<rect width="1191.52" height="182.27" fill="rgba(0,0,0,0)" />
		</g>
		<g id="Layer_1-2" data-name="Layer 1">
			<circle cx="57.15" cy="93.51" r="29.44" fill="none" stroke="#2277d6" stroke-miterlimit="10" stroke-width="4" />
			<path d="M57.15,72.65A22.37,22.37,0,0,1,79.52,95H57.15Z" fill="#8dc5f2" opacity="0.47" />
			<path d="M24,24.42H34V25.8H29.78V38.26H28.26V25.8H24Z" />
			<path d="M36,24.42H37.5V38.26H36Z" />
			<path d="M40.88,24.42h2.78l3.92,11.7,3.92-11.7h2.78V38.26H52.74V26.06h-.28l-4,11.7H46.72l-4-11.7h-.28v12.2H40.88Z" />
			<path d="M57.68,24.42H66.1v1.36H59.22v4.78H64.9V31.9H59.22v5H66.1v1.36H57.68Z" />
			<path d="M74.68,33.6v4.66H73.14V24.42H78.2c3,0,4.42,1.46,4.42,4.46s-1.4,4.72-4.42,4.72Zm3.5-1.36c2,0,2.86-1.22,2.86-3.36s-.84-3.1-2.86-3.1h-3.5v6.46Z" />
			<path d="M85,24.42h8.42v1.36H86.54v4.78h5.68V31.9H86.54v5h6.88v1.36H85Z" />
			<path d="M97.6,33v5.3H96.06V24.42h5.12c2.9,0,4.42,1.28,4.42,4.2,0,2-.8,3.46-2.54,4l2.66,5.62H104l-2.5-5.3Zm3.58-7.18H97.6V31.6h3.6c2.08,0,2.82-1.24,2.82-3C104,26.72,103.12,25.78,101.18,25.78Z" />
			<path d="M108.38,24.42h1.54V38.26h-1.54Z" />
			<path d="M112.74,31.4c0-4.56,1.18-7.18,5.46-7.18s5.48,2.58,5.48,7.18c0,4.76-1.18,7.06-5.48,7.06S112.74,36,112.74,31.4Zm9.34,0c0-3.74-.72-5.82-3.88-5.82s-3.88,2.06-3.88,5.82.68,5.7,3.88,5.7S122.08,35.3,122.08,31.4Z" />
			<path d="M126.5,38.26V24.42h4.94c4,0,5.12,2.8,5.12,6.72s-1,7.12-5.12,7.12Zm4.94-12.48H128V36.9h3.4c2.88,0,3.54-2.76,3.54-5.76S134.32,25.78,131.44,25.78Z" />
			<path d="M372.8,31.4c0-4.56,1.18-7.18,5.46-7.18s5.48,2.58,5.48,7.18c0,4.76-1.18,7.06-5.48,7.06S372.8,36,372.8,31.4Zm9.34,0c0-3.74-.72-5.82-3.88-5.82s-3.88,2.06-3.88,5.82.68,5.7,3.88,5.7S382.14,35.3,382.14,31.4Z" />
			<path d="M396,24.42,392.4,38.26H389l-3.62-13.84h1.6l3.18,12.48h1.12l3.18-12.48Z" />
			<path d="M398.2,24.42h8.42v1.36h-6.88v4.78h5.68V31.9h-5.68v5h6.88v1.36H398.2Z" />
			<path d="M410.8,33v5.3h-1.54V24.42h5.12c2.9,0,4.42,1.28,4.42,4.2,0,2-.8,3.46-2.54,4l2.66,5.62h-1.7l-2.5-5.3Zm3.58-7.18H410.8V31.6h3.6c2.08,0,2.82-1.24,2.82-3C417.22,26.72,416.32,25.78,414.38,25.78Z" />
			<path d="M431,24.42l-3.62,13.84H424l-3.62-13.84H422l3.18,12.48h1.12l3.18-12.48Z" />
			<path d="M433.22,24.42h1.54V38.26h-1.54Z" />
			<path d="M438.14,24.42h8.42v1.36h-6.88v4.78h5.68V31.9h-5.68v5h6.88v1.36h-8.42Z" />
			<path d="M449.7,24.42l2.36,12.48h.58l2.82-12.36h1.8l2.82,12.36h.58L463,24.42h1.58l-2.8,13.84H459l-2.62-11.82-2.62,11.82h-2.82L448.1,24.42Z" />
			<path d="M42.64,85.75A19.76,19.76,0,0,1,48,84.91c4.62,0,6.21,1.49,6.21,4.61a4.32,4.32,0,0,1-2.43,3.87c1.67.73,2.79,1.4,2.79,3.9,0,3.56-1.78,5.36-6.13,5.36a28.88,28.88,0,0,1-6-.81l.19-2.23a40,40,0,0,0,5.4.51c2.26,0,3.35-.88,3.35-2.75s-1.34-2.55-3.15-2.58H44.53V92.38h3.71A2.86,2.86,0,0,0,51,89.7c0-1.56-.94-2.26-3.2-2.26a31.53,31.53,0,0,0-4.93.49Z" fill="#2277d6" />
			<path d="M58.24,102.36V84h3V90a10.79,10.79,0,0,1,3.82-1c3.87,0,4.81,2.06,4.81,6.32v7h-3V95.47c0-2.6-.34-3.87-2.48-3.87a10.72,10.72,0,0,0-3.12.57v10.19Z" fill="#2277d6" />
			<path d="M379.66,117.65v-1.16l3.46-3.64c1.47-1.52,2.38-2.49,2.38-3.89,0-1.57-.87-2.07-2.58-2.07a17.44,17.44,0,0,0-3.06.39l-.11-1.15a14.41,14.41,0,0,1,3.42-.48c2.49,0,3.75.95,3.75,3.17,0,1.77-.81,2.81-2.47,4.42l-3.16,3.21h5.93v1.2Z" fill="#3a3d3f" />
			<path d="M419.26,112.55h3.38v-3.5h1.26v3.5h3.42v1.21H423.9v3.53h-1.26v-3.53h-3.38Z" fill="#3a3d3f" />
			<path d="M434,105.83h1.29v11.82h-1.38V107.37l-3,2-.63-1Z" fill="#3a3d3f" />
			<path d="M447.66,111.92c0,4.53-1.6,5.91-4.3,5.91s-4.32-1.34-4.32-5.89c0-4.88,1.58-6.31,4.3-6.31S447.66,107.05,447.66,111.92Zm-7.19,0c0,3.71,1,4.67,2.89,4.67s2.88-1,2.88-4.69c0-4-.91-5-2.88-5S440.47,107.91,440.47,111.94Z" fill="#3a3d3f" />
			<path d="M457.69,111.92c0,4.53-1.59,5.91-4.3,5.91s-4.32-1.34-4.32-5.89c0-4.88,1.58-6.31,4.3-6.31S457.69,107.05,457.69,111.92Zm-7.18,0c0,3.71,1,4.67,2.88,4.67s2.89-1,2.89-4.69c0-4-.92-5-2.89-5S450.51,107.91,450.51,111.94Z" fill="#3a3d3f" />
			<path d="M486.43,106.13a13.94,13.94,0,0,1,3.48-.5c2.79,0,3.78,1,3.78,3.08a3,3,0,0,1-1.76,2.69,2.57,2.57,0,0,1,2,2.87c0,2.38-1.16,3.56-3.83,3.56a19.73,19.73,0,0,1-3.89-.48l.13-1.13a21.53,21.53,0,0,0,3.62.39c1.75,0,2.56-.77,2.56-2.29s-1.09-2.17-2.44-2.22h-2.38v-1.18h2.38a2.22,2.22,0,0,0,2.15-2.15c0-1.35-.66-1.9-2.42-1.9a17.86,17.86,0,0,0-3.29.36Z" fill="#3a3d3f" />
			<path d="M501.63,115.34h-5.74v-1.07l3.37-8.44h1.51l-3.42,8.29h4.28v-3.69H503v3.69h1.5v1.22H503v2.31h-1.38Z" fill="#3a3d3f" />
			<path d="M509.66,108.12c0,1.74-.78,2.53-2,2.53s-2-.79-2-2.53.76-2.47,2-2.47S509.66,106.4,509.66,108.12Zm-2,1.61c.67,0,.9-.55.9-1.61s-.23-1.56-.9-1.56-.87.5-.87,1.56S507,109.73,507.68,109.73Zm4-4.28.86.29L508.85,118l-.86-.25Zm3.08,9.85c0,1.72-.77,2.53-2,2.53s-1.95-.81-1.95-2.54.73-2.46,1.95-2.46S514.74,113.58,514.74,115.3Zm-2,1.62c.68,0,.9-.56.9-1.62s-.22-1.55-.9-1.55-.88.5-.88,1.54S512.13,116.92,512.77,116.92Z" fill="#3a3d3f" />
			<path d="M116.74,72.1H120V93.22h-3.55V76.13l-5,3.2-1.63-2.65Z" />
			<path d="M127.3,72.1h13.31v4.22l-7.78,17.25-3.32-1L137,76.26v-1H127.3Z" />
			<path d="M144.84,78.92h3.74v4.6h-3.74Zm0,9.69h3.74v4.61h-3.74Z" />
			<path d="M167.46,82.88c0,8-2.91,10.69-8,10.69s-8-2.62-8-10.69c0-8.28,2.91-11.13,8-11.13S167.46,74.56,167.46,82.88Zm-12.29,0c0,5.8,1.44,7.59,4.35,7.59s4.26-1.79,4.26-7.59c0-6.2-1.31-8-4.29-8S155.17,76.64,155.17,82.88Z" />
			<path d="M185.38,82.88c0,8-2.91,10.69-8,10.69s-8-2.62-8-10.69c0-8.28,2.91-11.13,8-11.13S185.38,74.56,185.38,82.88Zm-12.29,0c0,5.8,1.44,7.59,4.35,7.59s4.26-1.79,4.26-7.59c0-6.2-1.31-8-4.29-8S173.09,76.64,173.09,82.88Z" />
			<path d="M195.36,83h9.57v3.17h-9.57Z" />
			<path d="M216.07,93.22v-3l5.21-5.38c2.72-2.78,4.29-4.48,4.29-6.72,0-2.4-1.25-3.16-4-3.16a33.21,33.21,0,0,0-5.18.57l-.23-2.81a25,25,0,0,1,6.24-.93c4.68,0,6.82,1.92,6.82,5.89,0,3.2-1.34,5-4.61,8.09l-4.51,4.38h9.54v3.11Z" />
			<path d="M248.77,82.88c0,8-2.91,10.69-8,10.69s-8-2.62-8-10.69c0-8.28,2.91-11.13,8-11.13S248.77,74.56,248.77,82.88Zm-12.29,0c0,5.8,1.44,7.59,4.35,7.59s4.26-1.79,4.26-7.59c0-6.2-1.31-8-4.29-8S236.48,76.64,236.48,82.88Z" />
			<path d="M251.71,78.92h3.75v4.6h-3.75Zm0,9.69h3.75v4.61h-3.75Z" />
			<path d="M274.34,82.88c0,8-2.91,10.69-8,10.69s-8-2.62-8-10.69c0-8.28,2.91-11.13,8-11.13S274.34,74.56,274.34,82.88Zm-12.29,0c0,5.8,1.44,7.59,4.35,7.59s4.26-1.79,4.26-7.59c0-6.2-1.31-8-4.29-8S262.05,76.64,262.05,82.88Z" />
			<path d="M292.26,82.88c0,8-2.91,10.69-8,10.69s-8-2.62-8-10.69c0-8.28,2.91-11.13,8-11.13S292.26,74.56,292.26,82.88Zm-12.29,0c0,5.8,1.44,7.59,4.35,7.59s4.26-1.79,4.26-7.59c0-6.2-1.31-8-4.29-8S280,76.64,280,82.88Z" />
			<path d="M107.28,105.25h9v1.24h-3.78v11.16h-1.36V106.49h-3.81Z" fill="#3a3d3f" />
			<path d="M125,113.06c0,3.26-.8,4.77-3.83,4.77s-3.84-1.51-3.84-4.77c0-3.08,1-4.54,3.84-4.54S125,110,125,113.06Zm-1.38,0c0-2.49-.53-3.38-2.45-3.38s-2.46.89-2.46,3.38.34,3.61,2.46,3.61S123.65,115.61,123.65,113.06Z" fill="#3a3d3f" />
			<path d="M134.1,117.65h-1.33V117a6.35,6.35,0,0,1-2.72.79c-1.75,0-3.22-.72-3.22-4.59,0-3.15,1-4.72,3.74-4.72a14.08,14.08,0,0,1,2.2.23v-4h1.33ZM132.77,116v-6.08a15.71,15.71,0,0,0-2.13-.21c-1.88,0-2.43,1.24-2.43,3.56,0,2.91.95,3.39,2,3.39A6.47,6.47,0,0,0,132.77,116Z" fill="#3a3d3f" />
			<path d="M143,116c0,.52.47.72,1,.79l-.05,1.06a2.72,2.72,0,0,1-2.13-.72,9.11,9.11,0,0,1-3.23.72c-1.63,0-2.52-.93-2.52-2.74s.89-2.47,2.74-2.65l2.81-.27v-.77c0-1.25-.54-1.7-1.61-1.7-1.26,0-3.39.23-3.39.23l-.05-1a21.9,21.9,0,0,1,3.51-.39c2,0,2.88.93,2.88,2.88Zm-4-2.54c-1.09.11-1.52.63-1.52,1.61s.44,1.65,1.36,1.65a9.6,9.6,0,0,0,2.81-.55v-3Z" fill="#3a3d3f" />
			<path d="M146.18,108.69l2.24,7.8H149l2.26-7.8h1.34l-3.72,12.94h-1.35l1.17-4h-1.33l-2.54-9Z" fill="#3a3d3f" />
			<path d="M662.72,61.88h3l3.42,12.46H667.8l-.9-3.2h-5.33l-.9,3.2H659.3Zm-.84,8h4.71l-1.89-6.83h-.93Z" fill="#3a3d3f" />
			<path d="M676.87,66.65a30.35,30.35,0,0,0-3.15-.28c-1.12,0-2,.3-2,1.36,0,.85.43,1.08,2.34,1.41,2.25.38,3.09.83,3.09,2.57,0,2.11-1.33,2.81-3.49,2.81a25.65,25.65,0,0,1-3.17-.34L670.6,73a29.8,29.8,0,0,0,3,.31c1.47,0,2.26-.33,2.26-1.55,0-.94-.46-1.17-2.43-1.48s-3-.7-3-2.5c0-2,1.6-2.63,3.24-2.63a23.19,23.19,0,0,1,3.26.34Z" fill="#3a3d3f" />
			<path d="M687,67.21l3.16-5.33h1.5l-3.84,6.32,3.84,6.14h-1.57L687,69.17l-3.19,5.17h-1.49l3.85-6.1-3.85-6.36h1.56Z" fill="#3a3d3f" />
			<path d="M693.19,68.76h5.46V70h-5.46Z" fill="#3a3d3f" />
			<path d="M702.77,69.57v4.77h-1.39V61.88H706c2.61,0,4,1.16,4,3.78,0,1.84-.72,3.12-2.28,3.62l2.39,5.06h-1.53l-2.25-4.77ZM706,63.11h-3.22v5.24H706c1.87,0,2.54-1.12,2.54-2.69A2.24,2.24,0,0,0,706,63.11Z" fill="#3a3d3f" />
			<path d="M718.59,72.67c0,.52.47.72,1,.79l-.06,1.06a2.75,2.75,0,0,1-2.14-.72,9.2,9.2,0,0,1-3.24.72c-1.64,0-2.54-.93-2.54-2.75s.9-2.49,2.76-2.67l2.82-.27v-.77c0-1.26-.54-1.71-1.62-1.71-1.26,0-3.4.23-3.4.23l-.05-1a21.57,21.57,0,0,1,3.52-.4c2,0,2.9.94,2.9,2.9Zm-4-2.56c-1.1.11-1.53.63-1.53,1.62s.45,1.66,1.37,1.66a9.47,9.47,0,0,0,2.82-.56v-3Z" fill="#3a3d3f" />
			<path d="M721.76,65.34,724,73.17h.59l2.27-7.83h1.35l-3.74,13h-1.35l1.17-4H723l-2.56-9Z" fill="#3a3d3f" />
			<path d="M733.91,74.34v-9h1.33V66a6,6,0,0,1,2.63-.81,2.53,2.53,0,0,1,2.34.92,7.47,7.47,0,0,1,3.21-.92c2.44,0,3,1.17,3,4.43v4.75h-1.35V69.63c0-2.38-.27-3.26-1.89-3.26a6,6,0,0,0-2.54.66,10.4,10.4,0,0,1,.23,2.63v4.68h-1.35V69.7c0-2.49-.25-3.33-1.89-3.33a5.39,5.39,0,0,0-2.41.66v7.31Z" fill="#3a3d3f" />
			<path d="M755.31,72.67c0,.52.47.72,1.05.79l-.06,1.06a2.75,2.75,0,0,1-2.14-.72,9.2,9.2,0,0,1-3.24.72c-1.64,0-2.54-.93-2.54-2.75s.9-2.49,2.75-2.67l2.83-.27v-.77c0-1.26-.54-1.71-1.62-1.71-1.26,0-3.4.23-3.4.23l-.06-1a21.77,21.77,0,0,1,3.53-.4c2,0,2.9.94,2.9,2.9Zm-4-2.56c-1.1.11-1.53.63-1.53,1.62s.45,1.66,1.36,1.66a9.48,9.48,0,0,0,2.83-.56v-3Z" fill="#3a3d3f" />
			<path d="M763.79,65.43l0,1.1s-1.44-.16-2.13-.16c-2.07,0-2.63.9-2.63,3.31,0,2.66.42,3.64,2.65,3.64.68,0,2.12-.17,2.12-.17l.06,1.12a24.24,24.24,0,0,1-2.51.25c-2.86,0-3.7-1.31-3.7-4.84,0-3.26,1.06-4.52,3.74-4.52A20.89,20.89,0,0,1,763.79,65.43Z" fill="#3a3d3f" />
			<path d="M765.82,74.34V61.41h1.35v4.43a7.65,7.65,0,0,1,2.78-.68c2.46,0,3,1.22,3,4.43v4.75h-1.35V69.63c0-2.38-.27-3.26-1.93-3.26a7.41,7.41,0,0,0-2.54.54v7.43Z" fill="#3a3d3f" />
			<path d="M775.49,61.74h1.35v1.57h-1.35Zm0,3.6h1.35v9h-1.35Z" fill="#3a3d3f" />
			<path d="M779.43,74.34v-9h1.33V66a6.85,6.85,0,0,1,2.79-.81c2.49,0,3.05,1.22,3.05,4.43v4.75h-1.34V69.63c0-2.38-.27-3.26-1.94-3.26a6.19,6.19,0,0,0-2.54.66v7.31Z" fill="#3a3d3f" />
			<path d="M795.74,73.17l0,1.06a31.4,31.4,0,0,1-3.52.29c-2.68,0-3.56-1.56-3.56-4.62,0-3.43,1.48-4.74,3.76-4.74s3.62,1.26,3.62,4.21l-.07,1h-5.94c0,1.93.59,2.93,2.36,2.93C793.78,73.33,795.74,73.17,795.74,73.17Zm-1-3.85c0-2.23-.68-3-2.27-3s-2.39.85-2.41,3Z" fill="#3a3d3f" />
			<path d="M808.5,72.67c0,.52.47.72,1,.79l-.06,1.06a2.75,2.75,0,0,1-2.14-.72,9.2,9.2,0,0,1-3.24.72c-1.64,0-2.54-.93-2.54-2.75s.9-2.49,2.75-2.67l2.83-.27v-.77c0-1.26-.54-1.71-1.62-1.71-1.26,0-3.4.23-3.4.23l-.06-1a21.6,21.6,0,0,1,3.53-.4c2,0,2.9.94,2.9,2.9Zm-4-2.56c-1.1.11-1.53.63-1.53,1.62s.45,1.66,1.36,1.66a9.48,9.48,0,0,0,2.83-.56v-3Z" fill="#3a3d3f" />
			<path d="M811.27,61.41h1.35V74.34h-1.35Z" fill="#3a3d3f" />
			<path d="M822.63,69.73c0,3.28-.81,4.79-3.85,4.79s-3.85-1.51-3.85-4.79c0-3.09,1-4.57,3.85-4.57S822.63,66.64,822.63,69.73Zm-1.38,0c0-2.5-.54-3.4-2.47-3.4s-2.47.9-2.47,3.4.34,3.62,2.47,3.62S821.25,72.29,821.25,69.73Z" fill="#3a3d3f" />
			<path d="M824.83,74.34v-9h1.33V66a6.85,6.85,0,0,1,2.79-.81c2.48,0,3,1.22,3,4.43v4.75h-1.33V69.63c0-2.38-.27-3.26-1.94-3.26a6.19,6.19,0,0,0-2.54.66v7.31Z" fill="#3a3d3f" />
			<path d="M841.14,73.17l0,1.06a31.12,31.12,0,0,1-3.51.29c-2.68,0-3.56-1.56-3.56-4.62,0-3.43,1.47-4.74,3.76-4.74s3.62,1.26,3.62,4.21l-.07,1h-5.95c0,1.93.6,2.93,2.36,2.93C839.17,73.33,841.14,73.17,841.14,73.17Zm-1-3.85c0-2.23-.69-3-2.27-3s-2.4.85-2.41,3Z" fill="#3a3d3f" />
			<path d="M853.36,65.43l-.06,1.1s-1.44-.16-2.12-.16c-2.07,0-2.63.9-2.63,3.31,0,2.66.41,3.64,2.65,3.64.68,0,2.12-.17,2.12-.17l.06,1.12a24.24,24.24,0,0,1-2.51.25c-2.86,0-3.71-1.31-3.71-4.84,0-3.26,1.07-4.52,3.75-4.52A20.89,20.89,0,0,1,853.36,65.43Z" fill="#3a3d3f" />
			<path d="M861.75,72.67c0,.52.46.72,1,.79l0,1.06a2.76,2.76,0,0,1-2.15-.72,9.2,9.2,0,0,1-3.24.72c-1.64,0-2.54-.93-2.54-2.75s.9-2.49,2.76-2.67l2.82-.27v-.77c0-1.26-.54-1.71-1.62-1.71-1.26,0-3.4.23-3.4.23l0-1a21.6,21.6,0,0,1,3.53-.4c2,0,2.9.94,2.9,2.9Zm-4-2.56c-1.1.11-1.53.63-1.53,1.62s.45,1.66,1.37,1.66a9.47,9.47,0,0,0,2.82-.56v-3Z" fill="#3a3d3f" />
			<path d="M864.41,74.34v-9h1.33V66a6.85,6.85,0,0,1,2.79-.81c2.48,0,3,1.22,3,4.43v4.75h-1.33V69.63c0-2.38-.27-3.26-1.94-3.26a6.19,6.19,0,0,0-2.54.66v7.31Z" fill="#3a3d3f" />
			<path d="M874.07,74.34v-9h1.34V66a6.79,6.79,0,0,1,2.79-.81c2.48,0,3,1.22,3,4.43v4.75h-1.33V69.63c0-2.38-.27-3.26-1.95-3.26a6.25,6.25,0,0,0-2.54.66v7.31Z" fill="#3a3d3f" />
			<path d="M891.05,69.73c0,3.28-.81,4.79-3.85,4.79s-3.86-1.51-3.86-4.79c0-3.09,1-4.57,3.86-4.57S891.05,66.64,891.05,69.73Zm-1.39,0c0-2.5-.54-3.4-2.46-3.4s-2.47.9-2.47,3.4.34,3.62,2.47,3.62S889.66,72.29,889.66,69.73Z" fill="#3a3d3f" />
			<path d="M895,66.51v4.3c0,2,.13,2.52,1.3,2.52.5,0,1.6-.1,1.6-.1l.09,1.11a15.44,15.44,0,0,1-1.83.2c-1.86,0-2.49-.7-2.49-3.3V66.51h-1.28V65.34h1.28V62.58H895v2.76h2.87v1.17Z" fill="#3a3d3f" />
			<path d="M903.52,74.34V61.41h1.35v4.43a7.64,7.64,0,0,1,2.77-.68c2.47,0,3.05,1.22,3.05,4.43v4.75h-1.35V69.63c0-2.38-.27-3.26-1.93-3.26a7.41,7.41,0,0,0-2.54.54v7.43Z" fill="#3a3d3f" />
			<path d="M919.54,72.67c0,.52.47.72,1.05.79l-.06,1.06a2.75,2.75,0,0,1-2.14-.72,9.2,9.2,0,0,1-3.24.72c-1.64,0-2.54-.93-2.54-2.75s.9-2.49,2.76-2.67l2.82-.27v-.77c0-1.26-.54-1.71-1.62-1.71-1.26,0-3.4.23-3.4.23l0-1a21.57,21.57,0,0,1,3.52-.4c2,0,2.9.94,2.9,2.9Zm-4-2.56c-1.1.11-1.53.63-1.53,1.62s.45,1.66,1.37,1.66a9.47,9.47,0,0,0,2.82-.56v-3Z" fill="#3a3d3f" />
			<path d="M922.2,74.34v-9h1.34V66a6.85,6.85,0,0,1,2.79-.81c2.48,0,3,1.22,3,4.43v4.75H928V69.63c0-2.38-.27-3.26-1.95-3.26a6.25,6.25,0,0,0-2.54.66v7.31Z" fill="#3a3d3f" />
			<path d="M938.78,74.34h-1.33v-.61a6.42,6.42,0,0,1-2.73.79c-1.77,0-3.25-.72-3.25-4.61,0-3.17,1-4.75,3.77-4.75a15.79,15.79,0,0,1,2.21.23v-4h1.33Zm-1.33-1.69v-6.1a14.27,14.27,0,0,0-2.14-.22c-1.89,0-2.45,1.24-2.45,3.58,0,2.92,1,3.41,2,3.41A6.47,6.47,0,0,0,937.45,72.65Z" fill="#3a3d3f" />
			<path d="M941.5,61.41h1.35V74.34H941.5Z" fill="#3a3d3f" />
			<path d="M952.19,73.17l0,1.06a31.12,31.12,0,0,1-3.51.29c-2.68,0-3.57-1.56-3.57-4.62,0-3.43,1.48-4.74,3.77-4.74s3.62,1.26,3.62,4.21l-.08,1h-5.94c0,1.93.6,2.93,2.36,2.93C950.23,73.33,952.19,73.17,952.19,73.17Zm-1-3.85c0-2.23-.69-3-2.27-3s-2.4.85-2.41,3Z" fill="#3a3d3f" />
			<path d="M960.4,66.51v4.3c0,2,.13,2.52,1.3,2.52.5,0,1.6-.1,1.6-.1l.09,1.11a15.71,15.71,0,0,1-1.84.2c-1.85,0-2.48-.7-2.48-3.3V66.51h-1.28V65.34h1.28V62.58h1.33v2.76h2.86v1.17Z" fill="#3a3d3f" />
			<path d="M964.92,74.34V61.41h1.35v4.43a7.64,7.64,0,0,1,2.77-.68c2.47,0,3.05,1.22,3.05,4.43v4.75h-1.36V69.63c0-2.38-.27-3.26-1.92-3.26a7.41,7.41,0,0,0-2.54.54v7.43Z" fill="#3a3d3f" />
			<path d="M981.23,73.17l0,1.06a31.12,31.12,0,0,1-3.51.29c-2.68,0-3.56-1.56-3.56-4.62,0-3.43,1.48-4.74,3.76-4.74s3.62,1.26,3.62,4.21l-.07,1h-5.94c0,1.93.59,2.93,2.36,2.93C979.27,73.33,981.23,73.17,981.23,73.17Zm-1-3.85c0-2.23-.68-3-2.27-3s-2.39.85-2.41,3Z" fill="#3a3d3f" />
			<path d="M987.63,65.34H989v1.22a10.06,10.06,0,0,1,3.29-1.42v1.37A13.15,13.15,0,0,0,989,67.73v6.61h-1.35Z" fill="#3a3d3f" />
			<path d="M1000.51,73.17l0,1.06a31.12,31.12,0,0,1-3.51.29c-2.68,0-3.56-1.56-3.56-4.62,0-3.43,1.47-4.74,3.76-4.74s3.62,1.26,3.62,4.21l-.07,1h-5.95c0,1.93.6,2.93,2.36,2.93C998.54,73.33,1000.51,73.17,1000.51,73.17Zm-1-3.85c0-2.23-.69-3-2.27-3s-2.4.85-2.41,3Z" fill="#3a3d3f" />
			<path d="M1002.56,70c0-3.54,1.08-4.82,4.24-4.82.94,0,3,.18,3,.18v13h-1.33V73.93a6.89,6.89,0,0,1-2.54.59C1003.49,74.52,1002.56,73.17,1002.56,70Zm1.36,0c0,2.26.58,3.34,2.17,3.34a6.48,6.48,0,0,0,2.39-.53V66.44s-1.12-.11-1.66-.11C1004.46,66.33,1003.92,67.5,1003.92,70Z" fill="#3a3d3f" />
			<path d="M1019.39,65.34v9H1018v-.63a6.08,6.08,0,0,1-2.67.81c-2.52,0-3-1.17-3-4.48v-4.7h1.35V70c0,2.49.22,3.3,1.89,3.3a5.47,5.47,0,0,0,2.47-.67V65.34Z" fill="#3a3d3f" />
			<path d="M1022,61.74h1.35v1.57H1022Zm0,3.6h1.35v9H1022Z" fill="#3a3d3f" />
			<path d="M1025.92,65.34h1.33v1.22a10.17,10.17,0,0,1,3.3-1.42v1.37a13,13,0,0,0-3.28,1.22v6.61h-1.35Z" fill="#3a3d3f" />
			<path d="M1038.79,73.17l0,1.06a31.38,31.38,0,0,1-3.51.29c-2.69,0-3.57-1.56-3.57-4.62,0-3.43,1.48-4.74,3.76-4.74s3.62,1.26,3.62,4.21l-.07,1h-5.94c0,1.93.59,2.93,2.36,2.93C1036.83,73.33,1038.79,73.17,1038.79,73.17Zm-1-3.85c0-2.23-.68-3-2.27-3s-2.39.85-2.41,3Z" fill="#3a3d3f" />
			<path d="M1048.15,74.34h-1.33v-.61a6.49,6.49,0,0,1-2.74.79c-1.76,0-3.24-.72-3.24-4.61,0-3.17,1-4.75,3.76-4.75a15.79,15.79,0,0,1,2.22.23v-4h1.33Zm-1.33-1.69v-6.1a14.42,14.42,0,0,0-2.14-.22c-1.9,0-2.45,1.24-2.45,3.58,0,2.92,1,3.41,2,3.41A6.54,6.54,0,0,0,1046.82,72.65Z" fill="#3a3d3f" />
			<path d="M1061.07,72.67c0,.52.47.72,1,.79l-.06,1.06a2.75,2.75,0,0,1-2.14-.72,9.2,9.2,0,0,1-3.24.72c-1.64,0-2.54-.93-2.54-2.75s.9-2.49,2.76-2.67l2.82-.27v-.77c0-1.26-.54-1.71-1.62-1.71-1.26,0-3.4.23-3.4.23l0-1a21.6,21.6,0,0,1,3.53-.4c2,0,2.89.94,2.89,2.9Zm-4-2.56c-1.1.11-1.53.63-1.53,1.62s.45,1.66,1.37,1.66a9.47,9.47,0,0,0,2.82-.56v-3Z" fill="#3a3d3f" />
			<path d="M1063.74,74.34v-9h1.33V66a6,6,0,0,1,2.63-.81,2.54,2.54,0,0,1,2.34.92,7.46,7.46,0,0,1,3.2-.92c2.45,0,3,1.17,3,4.43v4.75h-1.35V69.63c0-2.38-.27-3.26-1.89-3.26a6,6,0,0,0-2.53.66,10.4,10.4,0,0,1,.23,2.63v4.68h-1.35V69.7c0-2.49-.25-3.33-1.89-3.33a5.39,5.39,0,0,0-2.41.66v7.31Z" fill="#3a3d3f" />
			<path d="M1086.09,69.73c0,3.28-.81,4.79-3.85,4.79s-3.85-1.51-3.85-4.79c0-3.09,1-4.57,3.85-4.57S1086.09,66.64,1086.09,69.73Zm-1.38,0c0-2.5-.54-3.4-2.47-3.4s-2.47.9-2.47,3.4.35,3.62,2.47,3.62S1084.71,72.29,1084.71,69.73Z" fill="#3a3d3f" />
			<path d="M1095.26,65.34v9h-1.36v-.63a6.07,6.07,0,0,1-2.66.81c-2.52,0-3-1.17-3-4.48v-4.7h1.35V70c0,2.49.21,3.3,1.89,3.3a5.4,5.4,0,0,0,2.46-.67V65.34Z" fill="#3a3d3f" />
			<path d="M1097.84,74.34v-9h1.34V66a6.79,6.79,0,0,1,2.79-.81c2.48,0,3,1.22,3,4.43v4.75h-1.33V69.63c0-2.38-.27-3.26-2-3.26a6.25,6.25,0,0,0-2.54.66v7.31Z" fill="#3a3d3f" />
			<path d="M1109.31,66.51v4.3c0,2,.13,2.52,1.3,2.52.5,0,1.6-.1,1.6-.1l.09,1.11a15.71,15.71,0,0,1-1.84.2c-1.85,0-2.48-.7-2.48-3.3V66.51h-1.28V65.34H1108V62.58h1.33v2.76h2.86v1.17Z" fill="#3a3d3f" />
			<path d="M666.52,100.67c0,.52.47.72,1,.79l0,1.06a2.75,2.75,0,0,1-2.14-.72,9.2,9.2,0,0,1-3.24.72c-1.64,0-2.54-.93-2.54-2.75s.9-2.49,2.75-2.67l2.83-.27v-.77c0-1.26-.54-1.71-1.62-1.71-1.26,0-3.4.23-3.4.23l-.06-1a21.6,21.6,0,0,1,3.53-.4c2,0,2.9.94,2.9,2.9Zm-4-2.56c-1.1.11-1.54.63-1.54,1.62s.46,1.66,1.37,1.66a9.48,9.48,0,0,0,2.83-.56v-3Z" fill="#3a3d3f" />
			<path d="M669.29,89.41h1.35v12.93h-1.35Z" fill="#3a3d3f" />
			<path d="M680.65,97.73c0,3.28-.81,4.79-3.85,4.79s-3.86-1.51-3.86-4.79c0-3.09,1-4.57,3.86-4.57S680.65,94.64,680.65,97.73Zm-1.39,0c0-2.5-.54-3.4-2.46-3.4s-2.47.9-2.47,3.4.34,3.62,2.47,3.62S679.26,100.29,679.26,97.73Z" fill="#3a3d3f" />
			<path d="M682.84,102.34v-9h1.34V94a6.79,6.79,0,0,1,2.79-.81c2.48,0,3,1.22,3,4.43v4.75h-1.33V97.63c0-2.38-.27-3.26-1.95-3.26a6.25,6.25,0,0,0-2.54.66v7.31Z" fill="#3a3d3f" />
			<path d="M699.15,101.17l0,1.06a31.12,31.12,0,0,1-3.51.29c-2.68,0-3.57-1.56-3.57-4.62,0-3.43,1.48-4.74,3.77-4.74s3.62,1.26,3.62,4.21l-.07,1h-5.95c0,1.93.6,2.93,2.36,2.93C697.19,101.33,699.15,101.17,699.15,101.17Zm-1-3.85c0-2.23-.69-3-2.27-3s-2.4.85-2.41,3Z" fill="#3a3d3f" />
			<path d="M701.74,100.42h1.5L702,104.56h-1.11Z" fill="#3a3d3f" />
			<path d="M709.52,102.34v-1.17L713,97.52c1.47-1.53,2.39-2.51,2.39-3.91,0-1.58-.88-2.09-2.59-2.09a17.06,17.06,0,0,0-3.08.4l-.11-1.16a14.58,14.58,0,0,1,3.44-.48c2.5,0,3.76,1,3.76,3.19,0,1.78-.81,2.82-2.48,4.44l-3.17,3.23h6v1.2Z" fill="#3a3d3f" />
			<path d="M729.43,93.43l0,1.1s-1.45-.16-2.13-.16c-2.07,0-2.63.9-2.63,3.31,0,2.66.42,3.64,2.65,3.64.68,0,2.12-.17,2.12-.17l.06,1.12a24.24,24.24,0,0,1-2.51.25c-2.86,0-3.7-1.31-3.7-4.84,0-3.26,1.06-4.52,3.74-4.52A20.89,20.89,0,0,1,729.43,93.43Z" fill="#3a3d3f" />
			<path d="M738.77,97.73c0,3.28-.81,4.79-3.85,4.79s-3.85-1.51-3.85-4.79c0-3.09,1-4.57,3.85-4.57S738.77,94.64,738.77,97.73Zm-1.39,0c0-2.5-.54-3.4-2.46-3.4s-2.47.9-2.47,3.4.34,3.62,2.47,3.62S737.38,100.29,737.38,97.73Z" fill="#3a3d3f" />
			<path d="M741.07,89.41h1.35v12.93h-1.35Z" fill="#3a3d3f" />
			<path d="M745.23,89.41h1.35v12.93h-1.35Z" fill="#3a3d3f" />
			<path d="M755.93,101.17l0,1.06a31.12,31.12,0,0,1-3.51.29c-2.68,0-3.56-1.56-3.56-4.62,0-3.43,1.47-4.74,3.76-4.74s3.62,1.26,3.62,4.21l-.07,1h-6c0,1.93.6,2.93,2.36,2.93C754,101.33,755.93,101.17,755.93,101.17Zm-1-3.85c0-2.23-.69-3-2.27-3s-2.4.85-2.41,3Z" fill="#3a3d3f" />
			<path d="M764.73,100.67c0,.52.47.72,1,.79l0,1.06a2.74,2.74,0,0,1-2.14-.72,9.22,9.22,0,0,1-3.25.72c-1.63,0-2.53-.93-2.53-2.75s.9-2.49,2.75-2.67l2.83-.27v-.77c0-1.26-.54-1.71-1.62-1.71-1.26,0-3.41.23-3.41.23l-.05-1a21.6,21.6,0,0,1,3.53-.4c2,0,2.9.94,2.9,2.9Zm-4-2.56c-1.1.11-1.53.63-1.53,1.62s.45,1.66,1.37,1.66a9.57,9.57,0,0,0,2.83-.56v-3Z" fill="#3a3d3f" />
			<path d="M767,103.85c0-1,.49-1.53,1.43-2.23a1.43,1.43,0,0,1-.51-1.24,5.82,5.82,0,0,1,.61-1.42c-.75-.34-1.42-1.06-1.42-2.72,0-2.22,1.37-3.08,3.37-3.08a9.43,9.43,0,0,1,1.87.23l2.67-.07v1.15l-1.71,0a2.34,2.34,0,0,1,.59,1.8c0,2.34-1.17,3-3.48,3-.18,0-.68,0-.88-.07a5.32,5.32,0,0,0-.32,1c0,.72.14.82,2.18.82,2.55,0,3.47.51,3.47,2.65s-1.46,2.86-4,2.86C768,106.57,767,105.94,767,103.85Zm2.34-1.69c-.75.56-1,.88-1,1.59,0,1.24.52,1.69,2.55,1.69,1.8,0,2.61-.49,2.61-1.68,0-1.36-.57-1.51-2.21-1.51C770.65,102.25,769.33,102.16,769.33,102.16Zm3.21-5.92c0-1.42-.56-2-2.07-2s-2,.56-2,2,.61,2,2,2S772.54,97.66,772.54,96.24Z" fill="#3a3d3f" />
			<path d="M783.61,93.34v9h-1.35v-.63a6.08,6.08,0,0,1-2.67.81c-2.52,0-3-1.17-3-4.48v-4.7h1.35V98c0,2.49.22,3.3,1.89,3.3a5.47,5.47,0,0,0,2.47-.67V93.34Z" fill="#3a3d3f" />
			<path d="M792.84,101.17l0,1.06a31.12,31.12,0,0,1-3.51.29c-2.69,0-3.57-1.56-3.57-4.62,0-3.43,1.48-4.74,3.77-4.74s3.61,1.26,3.61,4.21l-.07,1h-5.94c0,1.93.6,2.93,2.36,2.93C790.88,101.33,792.84,101.17,792.84,101.17Zm-1-3.85c0-2.23-.68-3-2.26-3s-2.4.85-2.42,3Z" fill="#3a3d3f" />
			<path d="M801.27,94.65a30.35,30.35,0,0,0-3.15-.28c-1.12,0-2,.3-2,1.36,0,.85.44,1.08,2.34,1.41,2.25.38,3.1.83,3.1,2.57,0,2.11-1.33,2.81-3.49,2.81a25.65,25.65,0,0,1-3.17-.34L795,101a29.5,29.5,0,0,0,3,.31c1.48,0,2.27-.33,2.27-1.55,0-.94-.47-1.17-2.43-1.48s-3-.7-3-2.5c0-2,1.61-2.63,3.24-2.63a23.19,23.19,0,0,1,3.26.34Z" fill="#3a3d3f" />
			<path d="M813.43,93.43l0,1.1s-1.44-.16-2.12-.16c-2.07,0-2.63.9-2.63,3.31,0,2.66.41,3.64,2.64,3.64.69,0,2.13-.17,2.13-.17l.05,1.12a24,24,0,0,1-2.5.25c-2.86,0-3.71-1.31-3.71-4.84,0-3.26,1.06-4.52,3.75-4.52A20.91,20.91,0,0,1,813.43,93.43Z" fill="#3a3d3f" />
			<path d="M821.82,100.67c0,.52.47.72,1,.79l-.06,1.06a2.75,2.75,0,0,1-2.14-.72,9.2,9.2,0,0,1-3.24.72c-1.64,0-2.54-.93-2.54-2.75s.9-2.49,2.75-2.67l2.83-.27v-.77c0-1.26-.54-1.71-1.62-1.71-1.26,0-3.4.23-3.4.23l-.06-1a21.77,21.77,0,0,1,3.53-.4c2,0,2.9.94,2.9,2.9Zm-4-2.56c-1.1.11-1.53.63-1.53,1.62s.45,1.66,1.36,1.66a9.48,9.48,0,0,0,2.83-.56v-3Z" fill="#3a3d3f" />
			<path d="M824.48,102.34v-9h1.34V94a6.79,6.79,0,0,1,2.79-.81c2.48,0,3,1.22,3,4.43v4.75h-1.33V97.63c0-2.38-.27-3.26-2-3.26a6.25,6.25,0,0,0-2.54.66v7.31Z" fill="#3a3d3f" />
			<path d="M838.72,93.34l1.82,7.83h.29L843,93.52h1.41l2.14,7.65h.3l1.81-7.83H850l-2.15,9h-2.25l-1.91-7-1.91,7h-2.25l-2.14-9Z" fill="#3a3d3f" />
			<path d="M859.14,97.73c0,3.28-.81,4.79-3.86,4.79s-3.85-1.51-3.85-4.79c0-3.09,1-4.57,3.85-4.57S859.14,94.64,859.14,97.73Zm-1.39,0c0-2.5-.54-3.4-2.47-3.4s-2.46.9-2.46,3.4.34,3.62,2.46,3.62S857.75,100.29,857.75,97.73Z" fill="#3a3d3f" />
			<path d="M861.33,93.34h1.33v1.22a10.17,10.17,0,0,1,3.3-1.42v1.37a13,13,0,0,0-3.28,1.22v6.61h-1.35Z" fill="#3a3d3f" />
			<path d="M867.56,102.34V89.41h1.35v7.64l1.4-.07,2.58-3.64h1.53l-2.94,4.14,3.06,4.86H873l-2.68-4.18-1.42.06v4.12Z" fill="#3a3d3f" />
			<path d="M881.94,94.51v4.3c0,2,.13,2.52,1.3,2.52.5,0,1.6-.1,1.6-.1l.09,1.11a15.71,15.71,0,0,1-1.84.2c-1.85,0-2.48-.7-2.48-3.3V94.51h-1.28V93.34h1.28V90.58h1.33v2.76h2.86v1.17Z" fill="#3a3d3f" />
			<path d="M893.77,97.73c0,3.28-.81,4.79-3.85,4.79s-3.86-1.51-3.86-4.79c0-3.09,1-4.57,3.86-4.57S893.77,94.64,893.77,97.73Zm-1.39,0c0-2.5-.54-3.4-2.46-3.4s-2.47.9-2.47,3.4.34,3.62,2.47,3.62S892.38,100.29,892.38,97.73Z" fill="#3a3d3f" />
			<path d="M895.57,103.85c0-1,.48-1.53,1.42-2.23a1.43,1.43,0,0,1-.51-1.24A5.78,5.78,0,0,1,897.1,99c-.76-.34-1.43-1.06-1.43-2.72,0-2.22,1.37-3.08,3.37-3.08a9.43,9.43,0,0,1,1.87.23l2.67-.07v1.15l-1.71,0a2.34,2.34,0,0,1,.59,1.8c0,2.34-1.17,3-3.47,3-.18,0-.69,0-.89-.07a5.32,5.32,0,0,0-.32,1c0,.72.14.82,2.18.82,2.56,0,3.47.51,3.47,2.65s-1.45,2.86-4,2.86C896.59,106.57,895.57,105.94,895.57,103.85Zm2.34-1.69c-.76.56-1,.88-1,1.59,0,1.24.52,1.69,2.55,1.69,1.81,0,2.62-.49,2.62-1.68,0-1.36-.58-1.51-2.22-1.51C899.22,102.25,897.91,102.16,897.91,102.16Zm3.2-5.92c0-1.42-.56-2-2.07-2s-2,.56-2,2,.62,2,2,2S901.11,97.66,901.11,96.24Z" fill="#3a3d3f" />
			<path d="M911.86,101.17l0,1.06a31.12,31.12,0,0,1-3.51.29c-2.68,0-3.56-1.56-3.56-4.62,0-3.43,1.47-4.74,3.76-4.74s3.62,1.26,3.62,4.21l-.07,1h-5.94c0,1.93.59,2.93,2.35,2.93C909.89,101.33,911.86,101.17,911.86,101.17Zm-1-3.85c0-2.23-.68-3-2.27-3s-2.39.85-2.41,3Z" fill="#3a3d3f" />
			<path d="M916.1,94.51v4.3c0,2,.13,2.52,1.3,2.52.5,0,1.6-.1,1.6-.1l.09,1.11a15.44,15.44,0,0,1-1.83.2c-1.86,0-2.49-.7-2.49-3.3V94.51h-1.28V93.34h1.28V90.58h1.33v2.76H919v1.17Z" fill="#3a3d3f" />
			<path d="M920.62,102.34V89.41H922v4.43a7.65,7.65,0,0,1,2.78-.68c2.46,0,3,1.22,3,4.43v4.75h-1.35V97.63c0-2.38-.27-3.26-1.93-3.26a7.41,7.41,0,0,0-2.54.54v7.43Z" fill="#3a3d3f" />
			<path d="M936.93,101.17l0,1.06a31.12,31.12,0,0,1-3.51.29c-2.69,0-3.57-1.56-3.57-4.62,0-3.43,1.48-4.74,3.76-4.74s3.62,1.26,3.62,4.21l-.07,1h-5.94c0,1.93.59,2.93,2.36,2.93C935,101.33,936.93,101.17,936.93,101.17Zm-1-3.85c0-2.23-.68-3-2.27-3s-2.39.85-2.41,3Z" fill="#3a3d3f" />
			<path d="M939.38,93.34h1.33v1.22a10.17,10.17,0,0,1,3.3-1.42v1.37a13,13,0,0,0-3.28,1.22v6.61h-1.35Z" fill="#3a3d3f" />
			<path d="M951.37,94.51v4.3c0,2,.12,2.52,1.29,2.52.51,0,1.6-.1,1.6-.1l.09,1.11a15.44,15.44,0,0,1-1.83.2c-1.86,0-2.49-.7-2.49-3.3V94.51h-1.27V93.34H950V90.58h1.34v2.76h2.86v1.17Z" fill="#3a3d3f" />
			<path d="M963.19,97.73c0,3.28-.81,4.79-3.85,4.79s-3.85-1.51-3.85-4.79c0-3.09,1-4.57,3.85-4.57S963.19,94.64,963.19,97.73Zm-1.38,0c0-2.5-.54-3.4-2.47-3.4s-2.47.9-2.47,3.4.35,3.62,2.47,3.62S961.81,100.29,961.81,97.73Z" fill="#3a3d3f" />
			<path d="M975.33,94.65a30.34,30.34,0,0,0-3.16-.28c-1.11,0-2,.3-2,1.36,0,.85.43,1.08,2.34,1.41,2.25.38,3.1.83,3.1,2.57,0,2.11-1.33,2.81-3.49,2.81a25.4,25.4,0,0,1-3.17-.34l.07-1.17a29.5,29.5,0,0,0,3,.31c1.48,0,2.27-.33,2.27-1.55,0-.94-.47-1.17-2.43-1.48s-3-.7-3-2.5c0-2,1.6-2.63,3.24-2.63a23.19,23.19,0,0,1,3.26.34Z" fill="#3a3d3f" />
			<path d="M983.53,93.43l0,1.1s-1.44-.16-2.13-.16c-2.07,0-2.62.9-2.62,3.31,0,2.66.41,3.64,2.64,3.64.69,0,2.13-.17,2.13-.17l0,1.12a24,24,0,0,1-2.5.25c-2.86,0-3.71-1.31-3.71-4.84,0-3.26,1.06-4.52,3.74-4.52A20.89,20.89,0,0,1,983.53,93.43Z" fill="#3a3d3f" />
			<path d="M991.92,100.67c0,.52.47.72,1.05.79l-.06,1.06a2.75,2.75,0,0,1-2.14-.72,9.2,9.2,0,0,1-3.24.72c-1.64,0-2.54-.93-2.54-2.75s.9-2.49,2.75-2.67l2.83-.27v-.77c0-1.26-.54-1.71-1.62-1.71-1.26,0-3.4.23-3.4.23l-.06-1a21.6,21.6,0,0,1,3.53-.4c2,0,2.9.94,2.9,2.9Zm-4-2.56c-1.1.11-1.53.63-1.53,1.62s.45,1.66,1.36,1.66a9.48,9.48,0,0,0,2.83-.56v-3Z" fill="#3a3d3f" />
			<path d="M994.58,102.34v-9h1.34V94a6.79,6.79,0,0,1,2.79-.81c2.48,0,3,1.22,3,4.43v4.75h-1.33V97.63c0-2.38-.27-3.26-1.95-3.26a6.25,6.25,0,0,0-2.54.66v7.31Z" fill="#3a3d3f" />
			<path d="M1010,94.51v4.3c0,2,.12,2.52,1.3,2.52.5,0,1.6-.1,1.6-.1l.09,1.11a15.71,15.71,0,0,1-1.84.2c-1.85,0-2.48-.7-2.48-3.3V94.51h-1.28V93.34h1.28V90.58H1010v2.76h2.86v1.17Z" fill="#3a3d3f" />
			<path d="M1014.53,102.34V89.41h1.35v4.43a7.64,7.64,0,0,1,2.77-.68c2.47,0,3,1.22,3,4.43v4.75h-1.35V97.63c0-2.38-.27-3.26-1.92-3.26a7.41,7.41,0,0,0-2.54.54v7.43Z" fill="#3a3d3f" />
			<path d="M1030.84,101.17l0,1.06a31.12,31.12,0,0,1-3.51.29c-2.68,0-3.56-1.56-3.56-4.62,0-3.43,1.47-4.74,3.76-4.74s3.62,1.26,3.62,4.21l-.07,1h-5.94c0,1.93.59,2.93,2.35,2.93C1028.87,101.33,1030.84,101.17,1030.84,101.17Zm-1-3.85c0-2.23-.69-3-2.27-3s-2.39.85-2.41,3Z" fill="#3a3d3f" />
			<path d="M1044.5,97.7c0,3.58-1,4.82-4.25,4.82-1.08,0-3-.2-3-.2V89.41h1.34v4.38a7.36,7.36,0,0,1,2.64-.63C1043.67,93.16,1044.5,94.46,1044.5,97.7Zm-1.37,0c0-2.33-.47-3.33-2.05-3.33a7.57,7.57,0,0,0-2.5.52v6.34s1.17.09,1.65.09C1042.7,101.32,1043.13,100.22,1043.13,97.7Z" fill="#3a3d3f" />
			<path d="M1053.07,100.67c0,.52.46.72,1,.79l0,1.06a2.76,2.76,0,0,1-2.15-.72,9.2,9.2,0,0,1-3.24.72c-1.64,0-2.54-.93-2.54-2.75s.9-2.49,2.76-2.67l2.83-.27v-.77c0-1.26-.54-1.71-1.62-1.71-1.26,0-3.41.23-3.41.23l0-1a21.6,21.6,0,0,1,3.53-.4c2,0,2.9.94,2.9,2.9Zm-4-2.56c-1.1.11-1.53.63-1.53,1.62s.45,1.66,1.37,1.66a9.57,9.57,0,0,0,2.83-.56v-3Z" fill="#3a3d3f" />
			<path d="M1055.33,103.85c0-1,.49-1.53,1.42-2.23a1.46,1.46,0,0,1-.5-1.24,5.82,5.82,0,0,1,.61-1.42c-.75-.34-1.42-1.06-1.42-2.72,0-2.22,1.37-3.08,3.37-3.08a9.43,9.43,0,0,1,1.87.23l2.66-.07v1.15l-1.71,0a2.3,2.3,0,0,1,.6,1.8c0,2.34-1.17,3-3.48,3-.18,0-.68,0-.88-.07a5.32,5.32,0,0,0-.32,1c0,.72.14.82,2.18.82,2.55,0,3.47.51,3.47,2.65s-1.46,2.86-4,2.86C1056.36,106.57,1055.33,105.94,1055.33,103.85Zm2.34-1.69c-.75.56-1,.88-1,1.59,0,1.24.53,1.69,2.56,1.69,1.8,0,2.61-.49,2.61-1.68,0-1.36-.57-1.51-2.21-1.51C1059,102.25,1057.67,102.16,1057.67,102.16Zm3.21-5.92c0-1.42-.56-2-2.07-2s-2,.56-2,2,.61,2,2,2S1060.88,97.66,1060.88,96.24Z" fill="#3a3d3f" />
			<path d="M1071,94.65a30.35,30.35,0,0,0-3.15-.28c-1.12,0-2,.3-2,1.36,0,.85.44,1.08,2.34,1.41,2.26.38,3.1.83,3.1,2.57,0,2.11-1.33,2.81-3.49,2.81a25.65,25.65,0,0,1-3.17-.34l.07-1.17a29.5,29.5,0,0,0,3,.31c1.48,0,2.27-.33,2.27-1.55,0-.94-.47-1.17-2.43-1.48s-3-.7-3-2.5c0-2,1.61-2.63,3.24-2.63a23,23,0,0,1,3.26.34Z" fill="#3a3d3f" />
			<path d="M1077.31,102.34v-9h1.33V94a6,6,0,0,1,2.63-.81,2.53,2.53,0,0,1,2.34.92,7.53,7.53,0,0,1,3.21-.92c2.45,0,3,1.17,3,4.43v4.75h-1.35V97.63c0-2.38-.27-3.26-1.89-3.26a6,6,0,0,0-2.54.66,10.4,10.4,0,0,1,.23,2.63v4.68H1083V97.7c0-2.49-.25-3.33-1.89-3.33a5.45,5.45,0,0,0-2.41.66v7.31Z" fill="#3a3d3f" />
			<path d="M1098.71,100.67c0,.52.47.72,1,.79l-.06,1.06a2.75,2.75,0,0,1-2.14-.72,9.2,9.2,0,0,1-3.24.72c-1.64,0-2.54-.93-2.54-2.75s.9-2.49,2.76-2.67l2.82-.27v-.77c0-1.26-.54-1.71-1.62-1.71-1.26,0-3.4.23-3.4.23l0-1a21.6,21.6,0,0,1,3.53-.4c2,0,2.89.94,2.89,2.9Zm-4-2.56c-1.1.11-1.53.63-1.53,1.62s.45,1.66,1.37,1.66a9.47,9.47,0,0,0,2.82-.56v-3Z" fill="#3a3d3f" />
			<path d="M1101.38,102.34v-9h1.33V94a6.85,6.85,0,0,1,2.79-.81c2.48,0,3,1.22,3,4.43v4.75h-1.33V97.63c0-2.38-.27-3.26-2-3.26a6.18,6.18,0,0,0-2.53.66v7.31Z" fill="#3a3d3f" />
			<path d="M1118,93.34v9h-1.35v-.63a6.08,6.08,0,0,1-2.67.81c-2.52,0-3-1.17-3-4.48v-4.7h1.35V98c0,2.49.22,3.3,1.89,3.3a5.47,5.47,0,0,0,2.47-.67V93.34Z" fill="#3a3d3f" />
			<path d="M1127,100.67c0,.52.46.72,1,.79l0,1.06a2.76,2.76,0,0,1-2.15-.72,9.2,9.2,0,0,1-3.24.72c-1.64,0-2.54-.93-2.54-2.75s.9-2.49,2.76-2.67l2.82-.27v-.77c0-1.26-.54-1.71-1.62-1.71-1.26,0-3.4.23-3.4.23l0-1a21.6,21.6,0,0,1,3.53-.4c2,0,2.9.94,2.9,2.9Zm-4-2.56c-1.1.11-1.53.63-1.53,1.62s.45,1.66,1.37,1.66a9.47,9.47,0,0,0,2.82-.56v-3Z" fill="#3a3d3f" />
			<path d="M1129.72,89.41h1.36v12.93h-1.36Z" fill="#3a3d3f" />
			<path d="M1133.88,89.41h1.35v12.93h-1.35Z" fill="#3a3d3f" />
			<path d="M1138.44,93.34l2.25,7.83h.59l2.27-7.83h1.35l-3.74,13h-1.35l1.17-4h-1.34l-2.55-9Z" fill="#3a3d3f" />
			<path d="M1146.54,100.29H1148v2h-1.47Z" fill="#3a3d3f" />
			<path d="M659.1,117.88h9v1.25h-3.79v11.21h-1.37V119.13H659.1Z" fill="#3a3d3f" />
			<path d="M669.63,130.34V117.41H671v4.43a7.65,7.65,0,0,1,2.78-.68c2.46,0,3,1.22,3,4.43v4.75h-1.35v-4.71c0-2.38-.27-3.26-1.93-3.26a7.41,7.41,0,0,0-2.54.54v7.43Z" fill="#3a3d3f" />
			<path d="M679.3,117.74h1.35v1.57H679.3Zm0,3.6h1.35v9H679.3Z" fill="#3a3d3f" />
			<path d="M689.22,122.65a30.35,30.35,0,0,0-3.15-.28c-1.12,0-2,.3-2,1.36,0,.85.44,1.08,2.35,1.41,2.25.38,3.09.83,3.09,2.57,0,2.11-1.33,2.81-3.49,2.81a25.65,25.65,0,0,1-3.17-.34L683,129a29.86,29.86,0,0,0,3,.31c1.48,0,2.27-.33,2.27-1.55,0-.94-.47-1.17-2.43-1.48s-3-.7-3-2.5c0-2,1.6-2.63,3.24-2.63a23.19,23.19,0,0,1,3.26.34Z" fill="#3a3d3f" />
			<path d="M696.18,121.34l1.82,7.83h.29l2.14-7.65h1.41l2.14,7.65h.31l1.8-7.83h1.35l-2.15,9H703l-1.91-7-1.9,7H697l-2.15-9Z" fill="#3a3d3f" />
			<path d="M716.6,125.73c0,3.28-.81,4.79-3.86,4.79s-3.85-1.51-3.85-4.79c0-3.09,1-4.57,3.85-4.57S716.6,122.64,716.6,125.73Zm-1.39,0c0-2.5-.54-3.4-2.47-3.4s-2.46.9-2.46,3.4.34,3.62,2.46,3.62S715.21,128.29,715.21,125.73Z" fill="#3a3d3f" />
			<path d="M725.76,121.34v9h-1.35v-.63a6.08,6.08,0,0,1-2.67.81c-2.52,0-3-1.17-3-4.48v-4.7h1.35V126c0,2.49.22,3.3,1.89,3.3a5.47,5.47,0,0,0,2.47-.67v-7.31Z" fill="#3a3d3f" />
			<path d="M728.46,117.41h1.35v12.93h-1.35Z" fill="#3a3d3f" />
			<path d="M739.42,130.34h-1.33v-.61a6.49,6.49,0,0,1-2.74.79c-1.76,0-3.24-.72-3.24-4.61,0-3.17,1-4.75,3.76-4.75a15.79,15.79,0,0,1,2.22.23v-4h1.33Zm-1.33-1.69v-6.1a14.42,14.42,0,0,0-2.14-.22c-1.9,0-2.45,1.24-2.45,3.58,0,2.92,1,3.41,2,3.41A6.54,6.54,0,0,0,738.09,128.65Z" fill="#3a3d3f" />
			<path d="M752,122.65a30.34,30.34,0,0,0-3.16-.28c-1.11,0-2,.3-2,1.36,0,.85.43,1.08,2.34,1.41,2.25.38,3.1.83,3.1,2.57,0,2.11-1.33,2.81-3.49,2.81a25.4,25.4,0,0,1-3.17-.34l.07-1.17a29.5,29.5,0,0,0,3,.31c1.48,0,2.27-.33,2.27-1.55,0-.94-.47-1.17-2.43-1.48s-3-.7-3-2.5c0-2,1.6-2.63,3.24-2.63a23.19,23.19,0,0,1,3.26.34Z" fill="#3a3d3f" />
			<path d="M760.71,128.67c0,.52.47.72,1,.79l-.06,1.06a2.75,2.75,0,0,1-2.14-.72,9.2,9.2,0,0,1-3.24.72c-1.64,0-2.54-.93-2.54-2.75s.9-2.49,2.76-2.67l2.82-.27v-.77c0-1.26-.54-1.71-1.62-1.71-1.26,0-3.4.23-3.4.23l-.05-1a21.6,21.6,0,0,1,3.53-.4c2,0,2.89.94,2.89,2.9Zm-4-2.56c-1.1.11-1.53.63-1.53,1.62s.45,1.66,1.37,1.66a9.47,9.47,0,0,0,2.82-.56v-3Z" fill="#3a3d3f" />
			<path d="M764,121.34l2.11,7.83h.66l2.18-7.83h1.39l-2.54,9h-2.7l-2.54-9Z" fill="#3a3d3f" />
			<path d="M778.68,129.17l0,1.06a31.12,31.12,0,0,1-3.51.29c-2.68,0-3.56-1.56-3.56-4.62,0-3.43,1.47-4.74,3.76-4.74s3.62,1.26,3.62,4.21l-.07,1H773c0,1.93.59,2.93,2.35,2.93C776.72,129.33,778.68,129.17,778.68,129.17Zm-1-3.85c0-2.23-.68-3-2.27-3s-2.39.85-2.41,3Z" fill="#3a3d3f" />
			<path d="M785.08,130.34v-9h1.34V122a6,6,0,0,1,2.63-.81,2.54,2.54,0,0,1,2.34.92,7.46,7.46,0,0,1,3.2-.92c2.45,0,3,1.17,3,4.43v4.75h-1.35v-4.71c0-2.38-.27-3.26-1.89-3.26a6,6,0,0,0-2.54.66,9.85,9.85,0,0,1,.24,2.63v4.68h-1.35V125.7c0-2.49-.25-3.33-1.89-3.33a5.46,5.46,0,0,0-2.42.66v7.31Z" fill="#3a3d3f" />
			<path d="M806.49,128.67c0,.52.47.72,1,.79l0,1.06a2.74,2.74,0,0,1-2.14-.72,9.22,9.22,0,0,1-3.25.72c-1.63,0-2.53-.93-2.53-2.75s.9-2.49,2.75-2.67l2.83-.27v-.77c0-1.26-.54-1.71-1.62-1.71-1.26,0-3.41.23-3.41.23l-.05-1a21.6,21.6,0,0,1,3.53-.4c2,0,2.9.94,2.9,2.9Zm-4-2.56c-1.1.11-1.53.63-1.53,1.62s.45,1.66,1.37,1.66a9.57,9.57,0,0,0,2.83-.56v-3Z" fill="#3a3d3f" />
			<path d="M815,121.43l-.06,1.1s-1.44-.16-2.12-.16c-2.07,0-2.63.9-2.63,3.31,0,2.66.41,3.64,2.64,3.64.69,0,2.13-.17,2.13-.17l.05,1.12a24,24,0,0,1-2.5.25c-2.86,0-3.71-1.31-3.71-4.84,0-3.26,1.06-4.52,3.75-4.52A21.18,21.18,0,0,1,815,121.43Z" fill="#3a3d3f" />
			<path d="M817,130.34V117.41h1.35v4.43a7.64,7.64,0,0,1,2.77-.68c2.47,0,3,1.22,3,4.43v4.75h-1.35v-4.71c0-2.38-.27-3.26-1.92-3.26a7.41,7.41,0,0,0-2.54.54v7.43Z" fill="#3a3d3f" />
			<path d="M826.66,117.74H828v1.57h-1.35Zm0,3.6H828v9h-1.35Z" fill="#3a3d3f" />
			<path d="M830.6,130.34v-9h1.34V122a6.79,6.79,0,0,1,2.79-.81c2.48,0,3,1.22,3,4.43v4.75h-1.33v-4.71c0-2.38-.27-3.26-2-3.26A6.25,6.25,0,0,0,832,123v7.31Z" fill="#3a3d3f" />
			<path d="M846.91,129.17l0,1.06a31.12,31.12,0,0,1-3.51.29c-2.68,0-3.57-1.56-3.57-4.62,0-3.43,1.48-4.74,3.77-4.74s3.62,1.26,3.62,4.21l-.08,1h-5.94c0,1.93.6,2.93,2.36,2.93C845,129.33,846.91,129.17,846.91,129.17Zm-1-3.85c0-2.23-.69-3-2.27-3s-2.4.85-2.42,3Z" fill="#3a3d3f" />
			<path d="M853.32,121.34h1.33V122a6.12,6.12,0,0,1,2.7-.83c2.27,0,3.26,1.39,3.26,4.57,0,3.53-1.15,4.79-3.92,4.79a11,11,0,0,1-2-.2v4h-1.35Zm1.35,1.75v6.06a12.8,12.8,0,0,0,2,.2c2,0,2.62-1,2.62-3.62s-.77-3.36-2.08-3.36A5.87,5.87,0,0,0,854.67,123.09Z" fill="#3a3d3f" />
			<path d="M869.45,129.17l0,1.06a31.38,31.38,0,0,1-3.51.29c-2.69,0-3.57-1.56-3.57-4.62,0-3.43,1.48-4.74,3.76-4.74s3.62,1.26,3.62,4.21l-.07,1h-5.94c0,1.93.59,2.93,2.36,2.93C867.49,129.33,869.45,129.17,869.45,129.17Zm-1-3.85c0-2.23-.68-3-2.27-3s-2.39.85-2.41,3Z" fill="#3a3d3f" />
			<path d="M871.9,121.34h1.33v1.22a10.18,10.18,0,0,1,3.29-1.42v1.37a13,13,0,0,0-3.27,1.22v6.61H871.9Z" fill="#3a3d3f" />
			<path d="M879.85,130.34H878.5v-7.83h-1.13v-1.17h1.13v-.81c0-2.59.67-3.3,2.43-3.3.62,0,1.82.13,1.82.13l0,1.12s-1,0-1.55,0c-1,0-1.33.43-1.33,2.11v.79h2.61v1.17h-2.61Z" fill="#3a3d3f" />
			<path d="M891.39,125.73c0,3.28-.81,4.79-3.85,4.79s-3.85-1.51-3.85-4.79c0-3.09,1-4.57,3.85-4.57S891.39,122.64,891.39,125.73Zm-1.38,0c0-2.5-.54-3.4-2.47-3.4s-2.47.9-2.47,3.4.34,3.62,2.47,3.62S890,128.29,890,125.73Z" fill="#3a3d3f" />
			<path d="M893.59,121.34h1.33v1.22a10.06,10.06,0,0,1,3.29-1.42v1.37a13,13,0,0,0-3.27,1.22v6.61h-1.35Z" fill="#3a3d3f" />
			<path d="M899.81,130.34v-9h1.34V122a6,6,0,0,1,2.62-.81,2.55,2.55,0,0,1,2.35.92,7.46,7.46,0,0,1,3.2-.92c2.45,0,3,1.17,3,4.43v4.75H911v-4.71c0-2.38-.27-3.26-1.89-3.26a6,6,0,0,0-2.54.66,9.85,9.85,0,0,1,.24,2.63v4.68h-1.35V125.7c0-2.49-.25-3.33-1.89-3.33a5.46,5.46,0,0,0-2.42.66v7.31Z" fill="#3a3d3f" />
			<path d="M921.22,128.67c0,.52.46.72,1,.79l0,1.06a2.76,2.76,0,0,1-2.15-.72,9.2,9.2,0,0,1-3.24.72c-1.64,0-2.54-.93-2.54-2.75s.9-2.49,2.76-2.67l2.83-.27v-.77c0-1.26-.54-1.71-1.62-1.71-1.26,0-3.41.23-3.41.23l-.05-1a21.6,21.6,0,0,1,3.53-.4c2,0,2.9.94,2.9,2.9Zm-4-2.56c-1.1.11-1.53.63-1.53,1.62s.45,1.66,1.37,1.66a9.57,9.57,0,0,0,2.83-.56v-3Z" fill="#3a3d3f" />
			<path d="M923.88,130.34v-9h1.33V122a6.85,6.85,0,0,1,2.79-.81c2.49,0,3,1.22,3,4.43v4.75h-1.34v-4.71c0-2.38-.27-3.26-1.94-3.26a6.19,6.19,0,0,0-2.54.66v7.31Z" fill="#3a3d3f" />
			<path d="M939.36,121.43l-.05,1.1s-1.44-.16-2.13-.16c-2.07,0-2.63.9-2.63,3.31,0,2.66.42,3.64,2.65,3.64.68,0,2.12-.17,2.12-.17l.06,1.12a24.28,24.28,0,0,1-2.5.25c-2.87,0-3.71-1.31-3.71-4.84,0-3.26,1.06-4.52,3.74-4.52A20.89,20.89,0,0,1,939.36,121.43Z" fill="#3a3d3f" />
			<path d="M948,129.17l0,1.06a31.12,31.12,0,0,1-3.51.29c-2.68,0-3.56-1.56-3.56-4.62,0-3.43,1.47-4.74,3.76-4.74s3.62,1.26,3.62,4.21l-.07,1h-5.95c0,1.93.6,2.93,2.36,2.93C946.07,129.33,948,129.17,948,129.17Zm-1-3.85c0-2.23-.69-3-2.27-3s-2.4.85-2.41,3Z" fill="#3a3d3f" />
			<path d="M954.44,117.74h1.35v1.57h-1.35Zm0,3.6h1.35v9h-1.35Z" fill="#3a3d3f" />
			<path d="M958.38,130.34v-9h1.34V122a6.79,6.79,0,0,1,2.79-.81c2.48,0,3,1.22,3,4.43v4.75h-1.33v-4.71c0-2.38-.27-3.26-2-3.26a6.25,6.25,0,0,0-2.54.66v7.31Z" fill="#3a3d3f" />
			<path d="M973.81,122.51v4.3c0,2,.13,2.52,1.3,2.52.5,0,1.6-.1,1.6-.1l.09,1.11a15.71,15.71,0,0,1-1.84.2c-1.85,0-2.48-.7-2.48-3.3v-4.73H971.2v-1.17h1.28v-2.76h1.33v2.76h2.86v1.17Z" fill="#3a3d3f" />
			<path d="M985,129.17l0,1.06a31.12,31.12,0,0,1-3.51.29c-2.69,0-3.57-1.56-3.57-4.62,0-3.43,1.48-4.74,3.76-4.74s3.62,1.26,3.62,4.21l-.07,1H979.3c0,1.93.59,2.93,2.36,2.93C983,129.33,985,129.17,985,129.17Zm-1-3.85c0-2.23-.68-3-2.27-3s-2.39.85-2.41,3Z" fill="#3a3d3f" />
			<path d="M987.42,121.34h1.33v1.22a10.17,10.17,0,0,1,3.3-1.42v1.37a13,13,0,0,0-3.28,1.22v6.61h-1.35Z" fill="#3a3d3f" />
			<path d="M993.65,130.34v-9H995V122a6,6,0,0,1,2.63-.81,2.54,2.54,0,0,1,2.34.92,7.46,7.46,0,0,1,3.2-.92c2.45,0,3,1.17,3,4.43v4.75h-1.35v-4.71c0-2.38-.27-3.26-1.89-3.26a6,6,0,0,0-2.53.66,10.4,10.4,0,0,1,.23,2.63v4.68H999.3V125.7c0-2.49-.25-3.33-1.89-3.33A5.39,5.39,0,0,0,995,123v7.31Z" fill="#3a3d3f" />
			<path d="M1014.67,122.65a30.35,30.35,0,0,0-3.15-.28c-1.12,0-2,.3-2,1.36,0,.85.43,1.08,2.34,1.41,2.25.38,3.1.83,3.1,2.57,0,2.11-1.34,2.81-3.5,2.81a25.65,25.65,0,0,1-3.17-.34l.08-1.17a29.5,29.5,0,0,0,3,.31c1.47,0,2.26-.33,2.26-1.55,0-.94-.46-1.17-2.43-1.48s-3-.7-3-2.5c0-2,1.6-2.63,3.24-2.63a23.19,23.19,0,0,1,3.26.34Z" fill="#3a3d3f" />
			<path d="M1028.33,125.73c0,3.28-.81,4.79-3.85,4.79s-3.85-1.51-3.85-4.79c0-3.09,1-4.57,3.85-4.57S1028.33,122.64,1028.33,125.73Zm-1.38,0c0-2.5-.54-3.4-2.47-3.4s-2.47.9-2.47,3.4.35,3.62,2.47,3.62S1027,128.29,1027,125.73Z" fill="#3a3d3f" />
			<path d="M1032.26,130.34h-1.35v-7.83h-1.14v-1.17h1.14v-.81c0-2.59.66-3.3,2.43-3.3.61,0,1.81.13,1.81.13v1.12s-1,0-1.55,0c-1,0-1.33.43-1.33,2.11v.79h2.61v1.17h-2.61Z" fill="#3a3d3f" />
			<path d="M1043,117.88h3l3.42,12.46h-1.37l-.9-3.2h-5.33l-.9,3.2h-1.37Zm-.84,8h4.71l-1.89-6.83h-.93Z" fill="#3a3d3f" />
			<path d="M1056.34,124h3.44v6.12a30.76,30.76,0,0,1-4,.43c-3.82,0-4.83-2.34-4.83-6.37s1-6.45,4.79-6.45a23.17,23.17,0,0,1,4.09.47l-.06,1.15a28.37,28.37,0,0,0-3.87-.38c-2.88,0-3.51,1.68-3.51,5.21s.62,5.15,3.5,5.15a16.71,16.71,0,0,0,2.57-.25v-3.84h-2.07Z" fill="#3a3d3f" />
			<path d="M1071,117.88l-3.26,12.46h-3.09l-3.26-12.46h1.44l2.86,11.24h1l2.86-11.24Z" fill="#3a3d3f" />
			<path d="M1078.71,122.65a30,30,0,0,0-3.15-.28c-1.11,0-2,.3-2,1.36,0,.85.43,1.08,2.34,1.41,2.25.38,3.1.83,3.1,2.57,0,2.11-1.33,2.81-3.49,2.81a25.4,25.4,0,0,1-3.17-.34l.07-1.17a29.5,29.5,0,0,0,3,.31c1.48,0,2.27-.33,2.27-1.55,0-.94-.47-1.17-2.43-1.48s-3-.7-3-2.5c0-2,1.6-2.63,3.24-2.63a23.19,23.19,0,0,1,3.26.34Z" fill="#3a3d3f" />
			<path d="M1081,128.29h1.47v2.05H1081Z" fill="#3a3d3f" />
			<rect x="506.86" y="65.94" width="7.17" height="27.28" transform="translate(1020.89 159.16) rotate(-180)" fill="#2277d6" />
			<rect x="496.86" y="75.02" width="7.17" height="18.2" transform="translate(1000.89 168.24) rotate(-180)" fill="#2277d6" />
			<rect x="486.27" y="84.12" width="7.17" height="9.1" transform="translate(979.71 177.34) rotate(-180)" fill="#2277d6" />
		</g>
		<g id="Layer_2-2" data-name="Layer 2">
			<path d="M454,71.73h-5.73V68.87A2.86,2.86,0,0,0,445.37,66h-5.72a2.86,2.86,0,0,0-2.87,2.86v2.86h-5.73a2.85,2.85,0,0,0-2.85,2.87V90.36a2.85,2.85,0,0,0,2.86,2.86h22.53A3.25,3.25,0,0,0,456.83,90V74.6A2.87,2.87,0,0,0,454,71.73Zm-8.6,0h-5.72V68.87h5.72Z" fill="#2277d6" />
			<path d="M663.44,24.42,665.8,36.9h.58l2.82-12.36H671l2.82,12.36h.58l2.36-12.48h1.58l-2.8,13.84h-2.82L670.1,26.44l-2.62,11.82h-2.82l-2.82-13.84Z" />
			<path d="M689.24,32h-7v6.26h-1.54V24.42h1.54v6.2h7v-6.2h1.52V38.26h-1.52Z" />
			<path d="M698.62,38.26h-1.54V32.44l-4.42-8h1.74l3.44,6.48,3.44-6.48H703l-4.4,8Z" />
			<path d="M709.31,24.42h1.54V38.26h-1.54Z" />
			<path d="M722,25.9s-2.78-.34-3.94-.34c-2,0-3,.7-3,2.26,0,1.8,1,2.1,3.39,2.64,2.76.62,4,1.3,4,3.72,0,3.06-1.68,4.26-4.43,4.26a36.65,36.65,0,0,1-4.38-.44l.16-1.28s2.72.36,4.14.36c2,0,3-.86,3-2.78,0-1.56-.82-2-3.09-2.44-2.86-.62-4.3-1.3-4.3-3.94s1.76-3.72,4.46-3.72a34.47,34.47,0,0,1,4.19.4Z" />
			<path d="M728,24.42h10V25.8h-4.22V38.26h-1.52V25.8H728Z" />
			<path d="M748.57,32h-7v6.26H740V24.42h1.54v6.2h7v-6.2h1.53V38.26h-1.53Z" />
			<path d="M753.49,24.42H755V38.26h-1.54Z" />
			<path d="M766.17,25.9s-2.78-.34-3.94-.34c-2,0-3,.7-3,2.26,0,1.8,1,2.1,3.38,2.64,2.76.62,4,1.3,4,3.72,0,3.06-1.68,4.26-4.42,4.26a36.39,36.39,0,0,1-4.38-.44l.16-1.28s2.72.36,4.14.36c2,0,3-.86,3-2.78,0-1.56-.82-2-3.08-2.44-2.86-.62-4.3-1.3-4.3-3.94s1.76-3.72,4.46-3.72a34.46,34.46,0,0,1,4.18.4Z" />
			<path d="M775.19,33v5.3h-1.54V24.42h5.12c2.9,0,4.42,1.28,4.42,4.2,0,2-.8,3.46-2.54,4l2.66,5.62h-1.7l-2.5-5.3Zm3.58-7.18h-3.58V31.6h3.6c2.08,0,2.82-1.24,2.82-3C781.61,26.72,780.71,25.78,778.77,25.78Z" />
			<path d="M786,24.42h8.42v1.36h-6.88v4.78h5.68V31.9h-5.68v5h6.88v1.36H786Z" />
			<path d="M805.39,38a20.83,20.83,0,0,1-3.82.42c-4.14,0-5.06-2.52-5.06-7.08s.9-7.16,5.06-7.16a20.32,20.32,0,0,1,3.82.44l-.06,1.3a24.64,24.64,0,0,0-3.6-.36c-3.08,0-3.62,1.84-3.62,5.78s.5,5.7,3.66,5.7a21.88,21.88,0,0,0,3.56-.36Z" />
			<path d="M807.35,31.4c0-4.56,1.18-7.18,5.46-7.18s5.48,2.58,5.48,7.18c0,4.76-1.18,7.06-5.48,7.06S807.35,36,807.35,31.4Zm9.34,0c0-3.74-.72-5.82-3.88-5.82s-3.88,2.06-3.88,5.82.68,5.7,3.88,5.7S816.69,35.3,816.69,31.4Z" />
			<path d="M821.11,24.42h2.78l3.92,11.7,3.92-11.7h2.78V38.26H833V26.06h-.28l-4,11.7H827l-4-11.7h-.28v12.2h-1.54Z" />
			<path d="M837.91,24.42h2.78l3.92,11.7,3.92-11.7h2.78V38.26h-1.54V26.06h-.28l-4,11.7h-1.72l-4-11.7h-.28v12.2h-1.54Z" />
			<path d="M854.71,24.42h8.42v1.36h-6.88v4.78h5.68V31.9h-5.68v5h6.88v1.36h-8.42Z" />
			<path d="M865.77,24.42h2.88L874,36.9h.42V24.42h1.52V38.26h-2.82l-5.38-12.48h-.38V38.26h-1.54Z" />
			<path d="M879.29,38.26V24.42h4.94c4,0,5.12,2.8,5.12,6.72s-1,7.12-5.12,7.12Zm4.94-12.48h-3.4V36.9h3.4c2.88,0,3.54-2.76,3.54-5.76S887.11,25.78,884.23,25.78Z" />
			<path d="M892.19,24.42h8.42v1.36h-6.88v4.78h5.68V31.9h-5.68v5h6.88v1.36h-8.42Z" />
			<path d="M903.25,38.26V24.42h4.94c4,0,5.12,2.8,5.12,6.72s-1,7.12-5.12,7.12Zm4.94-12.48h-3.4V36.9h3.4c2.88,0,3.54-2.76,3.54-5.76S911.07,25.78,908.19,25.78Z" />
			<path d="M920.71,31c-1.18,1-1.78,1.6-1.78,2.5v.7h-1.26a3.11,3.11,0,0,1-.26-1.22c0-1,.8-1.76,1.86-2.66,1.44-1.24,1.78-1.7,1.78-2.82,0-1.42-.86-2-2.66-2a18.55,18.55,0,0,0-3.1.46l-.1-1.22a15.14,15.14,0,0,1,3.34-.6c2.68,0,4,.88,4,3.2C922.57,29.14,922.27,29.74,920.71,31Zm-3.26,5h1.64v2.24h-1.64Z" />
			<path d="M384.25,79.58a6.9,6.9,0,1,0-6.9-6.9A6.9,6.9,0,0,0,384.25,79.58Zm0,3.45c-4.6,0-13.79,2.31-13.79,6.9v3.44H398V89.93C398,85.34,388.86,83,384.25,83Z" fill="#2277d6" />
		</g>
	</g>
</svg>
