<svg xmlns="http://www.w3.org/2000/svg" viewBox="0 0 566.31 517.94"><title>r_2_A_Screen</title><g id="Layer_2" data-name="Layer 2"><g id="MC_Bg_Screen">

<rect width="566.31" height="517.94" fill="rgba(0,0,0,0)"/></g>

<g id="Layer_1-2" data-name="Layer 1"><path d="M32.3,38.9,35.82,33h1.66l-4.26,7,4.26,6.82H35.74l-3.48-5.74-3.54,5.74H27.06L31.34,40,27.06,33H28.8Z"/><path d="M39.2,40.62h6.06V42H39.2Z"/><path d="M49.84,41.52v5.3H48.3V33h5.12c2.9,0,4.42,1.28,4.42,4.2,0,2-.8,3.46-2.54,4L58,46.82h-1.7l-2.5-5.3Zm3.58-7.18H49.84v5.82h3.6c2.08,0,2.82-1.24,2.82-3C56.26,35.28,55.36,34.34,53.42,34.34Z"/><path d="M63.2,33h3.36l3.8,13.84H68.84l-1-3.56H61.92l-1,3.56H59.4Zm-.94,8.9H67.5L65.4,34.3h-1Z"/><path d="M77,46.82H75.46V41L71,33h1.74l3.44,6.48L79.66,33H81.4L77,41Z"/><path d="M24.31,435.24h9v1.24h-3.8V447.7H28.14V436.48H24.31Z" fill="#3a3d3f"/><path d="M42.15,443.09c0,3.28-.81,4.79-3.86,4.79s-3.85-1.51-3.85-4.79c0-3.1,1-4.57,3.85-4.57S42.15,440,42.15,443.09Zm-1.39,0c0-2.5-.54-3.4-2.47-3.4s-2.46.9-2.46,3.4.34,3.62,2.46,3.62S40.76,445.65,40.76,443.09Z" fill="#3a3d3f"/><path d="M51.25,447.7H49.92v-.61a6.42,6.42,0,0,1-2.73.79c-1.77,0-3.25-.72-3.25-4.61,0-3.17,1-4.75,3.77-4.75a15.79,15.79,0,0,1,2.21.23v-4h1.33ZM49.92,446V439.9a16.07,16.07,0,0,0-2.14-.21c-1.89,0-2.45,1.24-2.45,3.58,0,2.92,1,3.4,2,3.4A6.54,6.54,0,0,0,49.92,446Z" fill="#3a3d3f"/><path d="M60.22,446c0,.53.47.73,1,.8l0,1.06a2.74,2.74,0,0,1-2.14-.72,9.22,9.22,0,0,1-3.25.72c-1.63,0-2.53-.94-2.53-2.76s.9-2.48,2.75-2.66l2.83-.27v-.77c0-1.27-.54-1.72-1.62-1.72-1.26,0-3.41.24-3.41.24l-.05-1a22.13,22.13,0,0,1,3.53-.39c2,0,2.9.93,2.9,2.9Zm-4-2.55c-1.1.11-1.53.63-1.53,1.62s.45,1.66,1.37,1.66a9.57,9.57,0,0,0,2.83-.56v-3Z" fill="#3a3d3f"/><path d="M63.38,438.7l2.25,7.83h.6l2.27-7.83h1.35l-3.75,13H64.75l1.17-4H64.59l-2.56-9Z" fill="#3a3d3f"/><path d="M79.3,440.57l3.16-5.33H84l-3.84,6.32L84,447.7H82.39l-3.13-5.17-3.19,5.17H74.58l3.85-6.11-3.85-6.35h1.56Z" fill="#3a3d3f"/><path d="M85.5,442.12H91v1.26H85.5Z" fill="#3a3d3f"/><path d="M95.08,442.93v4.77H93.69V435.24H98.3c2.62,0,4,1.15,4,3.78,0,1.84-.72,3.12-2.28,3.62l2.39,5.06h-1.53l-2.25-4.77Zm3.22-6.47H95.08v5.24h3.24c1.87,0,2.54-1.11,2.54-2.68A2.24,2.24,0,0,0,98.3,436.46Z" fill="#3a3d3f"/><path d="M110.9,446c0,.53.47.73,1,.8l-.06,1.06a2.75,2.75,0,0,1-2.14-.72,9.2,9.2,0,0,1-3.24.72c-1.64,0-2.54-.94-2.54-2.76s.9-2.48,2.76-2.66l2.82-.27v-.77c0-1.27-.54-1.72-1.62-1.72-1.26,0-3.4.24-3.4.24l0-1a22.13,22.13,0,0,1,3.53-.39c2,0,2.89.93,2.89,2.9Zm-4-2.55c-1.1.11-1.53.63-1.53,1.62s.45,1.66,1.37,1.66a9.47,9.47,0,0,0,2.82-.56v-3Z" fill="#3a3d3f"/><path d="M114.07,438.7l2.25,7.83h.6l2.26-7.83h1.35l-3.74,13h-1.35l1.17-4h-1.33l-2.56-9Z" fill="#3a3d3f"/><path d="M132,438.79l-.06,1.09s-1.44-.16-2.12-.16c-2.07,0-2.63.9-2.63,3.32,0,2.66.41,3.63,2.64,3.63.69,0,2.13-.16,2.13-.16l.05,1.12a24,24,0,0,1-2.5.25c-2.86,0-3.71-1.32-3.71-4.84,0-3.26,1.06-4.52,3.75-4.52A21.18,21.18,0,0,1,132,438.79Z" fill="#3a3d3f"/><path d="M140.42,446c0,.53.47.73,1.05.8l-.06,1.06a2.75,2.75,0,0,1-2.14-.72,9.2,9.2,0,0,1-3.24.72c-1.64,0-2.54-.94-2.54-2.76s.9-2.48,2.76-2.66l2.82-.27v-.77c0-1.27-.54-1.72-1.62-1.72-1.26,0-3.4.24-3.4.24l-.05-1a22.1,22.1,0,0,1,3.52-.39c2,0,2.9.93,2.9,2.9Zm-4-2.55c-1.1.11-1.53.63-1.53,1.62s.45,1.66,1.37,1.66a9.47,9.47,0,0,0,2.82-.56v-3Z" fill="#3a3d3f"/><path d="M143.08,447.7v-9h1.34v.63a6.85,6.85,0,0,1,2.79-.81c2.48,0,3,1.22,3,4.43v4.75h-1.33V443c0-2.38-.27-3.26-1.95-3.26a6.18,6.18,0,0,0-2.54.67v7.31Z" fill="#3a3d3f"/><path d="M162.69,440a29.33,29.33,0,0,0-3.15-.29c-1.12,0-2,.31-2,1.37,0,.85.44,1.08,2.35,1.41,2.25.37,3.09.82,3.09,2.57,0,2.11-1.33,2.81-3.49,2.81a25.65,25.65,0,0,1-3.17-.34l.07-1.17s2.05.3,3,.3c1.48,0,2.27-.32,2.27-1.55,0-.93-.47-1.17-2.43-1.47s-3-.7-3-2.5c0-2,1.61-2.63,3.24-2.63a23,23,0,0,1,3.26.34Z" fill="#3a3d3f"/><path d="M170.9,438.79l-.06,1.09s-1.44-.16-2.12-.16c-2.07,0-2.63.9-2.63,3.32,0,2.66.41,3.63,2.65,3.63.68,0,2.12-.16,2.12-.16l0,1.12a24,24,0,0,1-2.5.25c-2.86,0-3.71-1.32-3.71-4.84,0-3.26,1.06-4.52,3.75-4.52A20.89,20.89,0,0,1,170.9,438.79Z" fill="#3a3d3f"/><path d="M179.28,446c0,.53.47.73,1.05.8l-.06,1.06a2.75,2.75,0,0,1-2.14-.72,9.2,9.2,0,0,1-3.24.72c-1.64,0-2.54-.94-2.54-2.76s.9-2.48,2.76-2.66l2.82-.27v-.77c0-1.27-.54-1.72-1.62-1.72-1.26,0-3.4.24-3.4.24l0-1a22.1,22.1,0,0,1,3.52-.39c2,0,2.9.93,2.9,2.9Zm-4-2.55c-1.1.11-1.53.63-1.53,1.62s.45,1.66,1.37,1.66a9.47,9.47,0,0,0,2.82-.56v-3Z" fill="#3a3d3f"/><path d="M182,447.7v-9h1.33v.63a6.85,6.85,0,0,1,2.79-.81c2.48,0,3,1.22,3,4.43v4.75h-1.33V443c0-2.38-.27-3.26-1.95-3.26a6.11,6.11,0,0,0-2.53.67v7.31Z" fill="#3a3d3f"/><path d="M202.54,438.7v9h-1.35v-.63a6.08,6.08,0,0,1-2.67.81c-2.52,0-3-1.17-3-4.48v-4.7h1.35v4.68c0,2.48.22,3.29,1.89,3.29a5.53,5.53,0,0,0,2.47-.66V438.7Z" fill="#3a3d3f"/><path d="M205.13,438.7h1.33v.64a6.17,6.17,0,0,1,2.7-.82c2.27,0,3.26,1.38,3.26,4.57,0,3.53-1.15,4.79-3.92,4.79a11,11,0,0,1-2-.2v4h-1.35Zm1.35,1.74v6.07a12.78,12.78,0,0,0,1.94.2c2,0,2.63-1,2.63-3.62s-.77-3.37-2.09-3.37A5.86,5.86,0,0,0,206.48,440.44Z" fill="#3a3d3f"/><path d="M220.38,439.87v4.3c0,2,.12,2.52,1.29,2.52.51,0,1.61-.11,1.61-.11l.09,1.12a15.71,15.71,0,0,1-1.84.2c-1.86,0-2.49-.71-2.49-3.3v-4.73h-1.27V438.7H219v-2.76h1.34v2.76h2.86v1.17Z" fill="#3a3d3f"/><path d="M232.2,443.09c0,3.28-.81,4.79-3.85,4.79s-3.85-1.51-3.85-4.79c0-3.1,1-4.57,3.85-4.57S232.2,440,232.2,443.09Zm-1.38,0c0-2.5-.54-3.4-2.47-3.4s-2.47.9-2.47,3.4.35,3.62,2.47,3.62S230.82,445.65,230.82,443.09Z" fill="#3a3d3f"/><path d="M242.77,435.82h1.3V447.7h-1.39V437.36l-3.06,2-.63-1Z" fill="#3a3d3f"/><path d="M255.73,435.82v1.26H250l-.32,3.87a6.81,6.81,0,0,1,2.79-.74c2.32,0,3.78,1,3.78,3.51,0,2.74-1.5,4.14-4,4.14a19.6,19.6,0,0,1-3.94-.52l.16-1.1a23.46,23.46,0,0,0,3.65.4,2.52,2.52,0,0,0,2.69-2.81c0-1.8-1-2.38-2.53-2.38a6.81,6.81,0,0,0-2.82.72l-1-.18.33-6.17Z" fill="#3a3d3f"/><path d="M266.58,441.94c0,4.55-1.6,5.94-4.32,5.94s-4.34-1.35-4.34-5.92c0-4.9,1.59-6.34,4.33-6.34S266.58,437,266.58,441.94Zm-7.22,0c0,3.72,1,4.69,2.9,4.69s2.9-1,2.9-4.71c0-4-.92-5.08-2.9-5.08S259.36,437.9,259.36,442Z" fill="#3a3d3f"/><path d="M279.81,443.05c0,3.59-1,4.83-4.24,4.83-1.09,0-3-.2-3-.2V434.77h1.33v4.38a7.44,7.44,0,0,1,2.65-.63C279,438.52,279.81,439.81,279.81,443.05Zm-1.36,0c0-2.32-.47-3.33-2.06-3.33a7.45,7.45,0,0,0-2.5.53v6.33s1.17.09,1.66.09C278,446.67,278.45,445.57,278.45,443.05Z" fill="#3a3d3f"/><path d="M288.38,446c0,.53.47.73,1.05.8l-.06,1.06a2.75,2.75,0,0,1-2.14-.72,9.2,9.2,0,0,1-3.24.72c-1.64,0-2.54-.94-2.54-2.76s.9-2.48,2.75-2.66l2.83-.27v-.77c0-1.27-.54-1.72-1.62-1.72-1.26,0-3.4.24-3.4.24l-.06-1a22.13,22.13,0,0,1,3.53-.39c2,0,2.9.93,2.9,2.9Zm-4-2.55c-1.1.11-1.53.63-1.53,1.62s.45,1.66,1.36,1.66a9.48,9.48,0,0,0,2.83-.56v-3Z" fill="#3a3d3f"/><path d="M290.65,449.21c0-1,.48-1.53,1.42-2.23a1.48,1.48,0,0,1-.5-1.24,5.75,5.75,0,0,1,.61-1.43c-.76-.34-1.42-1.06-1.42-2.72,0-2.21,1.36-3.07,3.36-3.07a9.6,9.6,0,0,1,1.88.23l2.66-.07v1.15l-1.71,0a2.37,2.37,0,0,1,.59,1.8c0,2.35-1.17,3.05-3.47,3.05-.18,0-.69,0-.88-.07a5.3,5.3,0,0,0-.33,1c0,.72.15.83,2.18.83,2.56,0,3.48.5,3.48,2.65s-1.46,2.86-4,2.86C291.67,451.93,290.65,451.3,290.65,449.21Zm2.34-1.69c-.76.56-1,.88-1,1.58,0,1.25.52,1.7,2.56,1.7,1.8,0,2.61-.49,2.61-1.68,0-1.37-.58-1.51-2.22-1.51C294.3,447.61,293,447.52,293,447.52Zm3.2-5.93c0-1.42-.56-2-2.07-2s-2,.56-2,2,.61,2,2,2S296.19,443,296.19,441.59Z" fill="#3a3d3f"/><path d="M306.27,440a29.33,29.33,0,0,0-3.15-.29c-1.11,0-2,.31-2,1.37,0,.85.43,1.08,2.34,1.41,2.25.37,3.1.82,3.1,2.57,0,2.11-1.34,2.81-3.5,2.81a25.4,25.4,0,0,1-3.16-.34l.07-1.17s2.05.3,3,.3c1.48,0,2.27-.32,2.27-1.55,0-.93-.47-1.17-2.43-1.47s-3-.7-3-2.5c0-2,1.6-2.63,3.24-2.63a23.19,23.19,0,0,1,3.26.34Z" fill="#3a3d3f"/><path d="M308.58,445.65h1.47v2.05h-1.47Z" fill="#3a3d3f"/><path d="M315.45,435.24h9v1.24h-3.8V447.7h-1.36V436.48h-3.84Z" fill="#3a3d3f"/><path d="M326,447.7V434.77h1.35v4.43a7.64,7.64,0,0,1,2.77-.68c2.47,0,3,1.22,3,4.43v4.75H331.8V443c0-2.38-.27-3.26-1.93-3.26a7.41,7.41,0,0,0-2.54.54v7.44Z" fill="#3a3d3f"/><path d="M342.29,446.53l0,1.06a31.38,31.38,0,0,1-3.51.29c-2.69,0-3.57-1.57-3.57-4.63,0-3.42,1.48-4.73,3.76-4.73s3.62,1.26,3.62,4.21l-.07,1h-5.94c0,1.92.59,2.93,2.36,2.93C340.33,446.69,342.29,446.53,342.29,446.53Zm-1-3.86c0-2.23-.68-3-2.27-3s-2.39.85-2.41,3Z" fill="#3a3d3f"/><path d="M348.7,438.7H350v1.22a10.18,10.18,0,0,1,3.29-1.42v1.37a13,13,0,0,0-3.27,1.22v6.61H348.7Z" fill="#3a3d3f"/><path d="M354.92,435.09h1.35v1.57h-1.35Zm0,3.61h1.35v9h-1.35Z" fill="#3a3d3f"/><path d="M364.84,440a29,29,0,0,0-3.15-.29c-1.11,0-2,.31-2,1.37,0,.85.43,1.08,2.34,1.41,2.25.37,3.1.82,3.1,2.57,0,2.11-1.33,2.81-3.49,2.81a25.4,25.4,0,0,1-3.17-.34l.07-1.17s2.05.3,3,.3c1.48,0,2.27-.32,2.27-1.55,0-.93-.47-1.17-2.43-1.47s-3-.7-3-2.5c0-2,1.6-2.63,3.24-2.63a23.19,23.19,0,0,1,3.26.34Z" fill="#3a3d3f"/><path d="M367.24,447.7V434.77h1.35v7.64l1.4-.08,2.58-3.63h1.53l-2.94,4.14,3.06,4.86h-1.53L370,443.52l-1.42.06v4.12Z" fill="#3a3d3f"/><path d="M387.13,443.09c0,3.28-.81,4.79-3.85,4.79s-3.86-1.51-3.86-4.79c0-3.1,1-4.57,3.86-4.57S387.13,440,387.13,443.09Zm-1.39,0c0-2.5-.54-3.4-2.46-3.4s-2.47.9-2.47,3.4.34,3.62,2.47,3.62S385.74,445.65,385.74,443.09Z" fill="#3a3d3f"/><path d="M391.05,447.7H389.7v-7.83h-1.13V438.7h1.13v-.81c0-2.6.67-3.3,2.43-3.3.61,0,1.82.13,1.82.13l0,1.11s-1,0-1.55,0c-1,0-1.33.43-1.33,2.1v.8h2.61v1.17h-2.61Z" fill="#3a3d3f"/><path d="M405.6,446c0,.53.46.73,1,.8l-.05,1.06a2.76,2.76,0,0,1-2.15-.72,9.2,9.2,0,0,1-3.24.72c-1.64,0-2.54-.94-2.54-2.76s.9-2.48,2.76-2.66l2.83-.27v-.77c0-1.27-.54-1.72-1.62-1.72-1.26,0-3.41.24-3.41.24l-.05-1a22.13,22.13,0,0,1,3.53-.39c2,0,2.9.93,2.9,2.9Zm-4-2.55c-1.1.11-1.53.63-1.53,1.62s.45,1.66,1.37,1.66a9.57,9.57,0,0,0,2.83-.56v-3Z" fill="#3a3d3f"/><path d="M419.47,443.05c0,3.59-1,4.83-4.24,4.83-1.09,0-3-.2-3-.2V434.77h1.33v4.38a7.44,7.44,0,0,1,2.65-.63C418.65,438.52,419.47,439.81,419.47,443.05Zm-1.36,0c0-2.32-.47-3.33-2.06-3.33a7.45,7.45,0,0,0-2.5.53v6.33s1.17.09,1.66.09C417.67,446.67,418.11,445.57,418.11,443.05Z" fill="#3a3d3f"/><path d="M421.69,438.7H423v1.22a10.06,10.06,0,0,1,3.29-1.42v1.37a13,13,0,0,0-3.27,1.22v6.61h-1.35Z" fill="#3a3d3f"/><path d="M434.56,446.53l0,1.06a31.12,31.12,0,0,1-3.51.29c-2.68,0-3.56-1.57-3.56-4.63,0-3.42,1.47-4.73,3.76-4.73s3.62,1.26,3.62,4.21l-.07,1h-5.94c0,1.92.59,2.93,2.35,2.93C432.59,446.69,434.56,446.53,434.56,446.53Zm-1-3.86c0-2.23-.68-3-2.27-3s-2.39.85-2.41,3Z" fill="#3a3d3f"/><path d="M443.36,446c0,.53.47.73,1,.8l0,1.06a2.75,2.75,0,0,1-2.14-.72,9.2,9.2,0,0,1-3.24.72c-1.64,0-2.54-.94-2.54-2.76s.9-2.48,2.75-2.66l2.83-.27v-.77c0-1.27-.54-1.72-1.62-1.72-1.26,0-3.4.24-3.4.24l-.06-1a22.13,22.13,0,0,1,3.53-.39c2,0,2.9.93,2.9,2.9Zm-4-2.55c-1.09.11-1.53.63-1.53,1.62s.45,1.66,1.37,1.66a9.57,9.57,0,0,0,2.83-.56v-3Z" fill="#3a3d3f"/><path d="M446,447.7V434.77h1.35v7.64l1.41-.08,2.57-3.63h1.53L450,442.84,453,447.7h-1.53l-2.69-4.18-1.42.06v4.12Z" fill="#3a3d3f"/><path d="M461.56,447.7h-1.34v-.61a6.42,6.42,0,0,1-2.73.79c-1.77,0-3.24-.72-3.24-4.61,0-3.17,1-4.75,3.76-4.75a15.61,15.61,0,0,1,2.21.23v-4h1.34ZM460.22,446V439.9a15.89,15.89,0,0,0-2.14-.21c-1.89,0-2.45,1.24-2.45,3.58,0,2.92,1,3.4,2,3.4A6.54,6.54,0,0,0,460.22,446Z" fill="#3a3d3f"/><path d="M471.47,443.09c0,3.28-.81,4.79-3.85,4.79s-3.85-1.51-3.85-4.79c0-3.1,1-4.57,3.85-4.57S471.47,440,471.47,443.09Zm-1.38,0c0-2.5-.54-3.4-2.47-3.4s-2.46.9-2.46,3.4.34,3.62,2.46,3.62S470.09,445.65,470.09,443.09Z" fill="#3a3d3f"/><path d="M474.28,438.7l1.82,7.83h.29l2.14-7.65h1.4l2.15,7.65h.3l1.8-7.83h1.35l-2.14,9h-2.25l-1.91-7-1.91,7h-2.25l-2.14-9Z" fill="#3a3d3f"/><path d="M487.38,447.7v-9h1.34v.63a6.79,6.79,0,0,1,2.79-.81c2.48,0,3,1.22,3,4.43v4.75h-1.33V443c0-2.38-.27-3.26-2-3.26a6.18,6.18,0,0,0-2.54.67v7.31Z" fill="#3a3d3f"/><path d="M501,435.09h1.35v1.57H501Zm0,3.61h1.35v9H501Z" fill="#3a3d3f"/><path d="M510.93,440a29.33,29.33,0,0,0-3.15-.29c-1.12,0-2,.31-2,1.37,0,.85.43,1.08,2.34,1.41,2.25.37,3.09.82,3.09,2.57,0,2.11-1.33,2.81-3.49,2.81a25.65,25.65,0,0,1-3.17-.34l.07-1.17s2.06.3,3,.3c1.47,0,2.26-.32,2.26-1.55,0-.93-.46-1.17-2.43-1.47s-3-.7-3-2.5c0-2,1.6-2.63,3.24-2.63a23.19,23.19,0,0,1,3.26.34Z" fill="#3a3d3f"/><path d="M517.39,434.77h1.35V447.7h-1.35Z" fill="#3a3d3f"/><path d="M528.75,443.09c0,3.28-.81,4.79-3.85,4.79s-3.86-1.51-3.86-4.79c0-3.1,1-4.57,3.86-4.57S528.75,440,528.75,443.09Zm-1.39,0c0-2.5-.54-3.4-2.46-3.4s-2.47.9-2.47,3.4.34,3.62,2.47,3.62S527.36,445.65,527.36,443.09Z" fill="#3a3d3f"/><path d="M531.56,438.7l1.82,7.83h.28l2.15-7.65h1.4l2.14,7.65h.31l1.8-7.83h1.35l-2.14,9h-2.25l-1.91-7-1.91,7h-2.25l-2.14-9Z" fill="#3a3d3f"/><path d="M26,466.7l1.82,7.83h.29l2.14-7.65h1.4l2.15,7.65h.3l1.8-7.83h1.35l-2.14,9H32.84l-1.91-7-1.91,7H26.77l-2.14-9Z" fill="#3a3d3f"/><path d="M39.08,463.09h1.35v1.57H39.08Zm0,3.61h1.35v9H39.08Z" fill="#3a3d3f"/><path d="M44.83,467.87v4.3c0,2,.12,2.52,1.29,2.52.51,0,1.61-.11,1.61-.11l.09,1.12a15.71,15.71,0,0,1-1.84.2c-1.85,0-2.48-.71-2.48-3.3v-4.73H42.22V466.7H43.5v-2.76h1.33v2.76h2.86v1.17Z" fill="#3a3d3f"/><path d="M49.35,475.7V462.77H50.7v4.43a7.64,7.64,0,0,1,2.77-.68c2.47,0,3,1.22,3,4.43v4.75H55.16V471c0-2.38-.27-3.26-1.93-3.26a7.39,7.39,0,0,0-2.53.54v7.44Z" fill="#3a3d3f"/><path d="M59,463.09h1.35v1.57H59Zm0,3.61h1.35v9H59Z" fill="#3a3d3f"/><path d="M63,475.7v-9h1.34v.63a6.79,6.79,0,0,1,2.79-.81c2.48,0,3,1.22,3,4.43v4.75H68.79V471c0-2.38-.27-3.26-2-3.26a6.12,6.12,0,0,0-2.54.67v7.31Z" fill="#3a3d3f"/><path d="M78.38,467.87v4.3c0,2,.12,2.52,1.3,2.52.5,0,1.6-.11,1.6-.11l.09,1.12a15.71,15.71,0,0,1-1.84.2c-1.85,0-2.48-.71-2.48-3.3v-4.73H75.77V466.7h1.28v-2.76h1.33v2.76h2.86v1.17Z" fill="#3a3d3f"/><path d="M83.51,466.7l1.82,7.83h.29l2.14-7.65h1.4l2.15,7.65h.3l1.8-7.83h1.35l-2.14,9H90.37l-1.91-7-1.91,7H84.3l-2.14-9Z" fill="#3a3d3f"/><path d="M103.92,471.09c0,3.28-.81,4.79-3.85,4.79s-3.85-1.51-3.85-4.79c0-3.1,1-4.57,3.85-4.57S103.92,468,103.92,471.09Zm-1.38,0c0-2.5-.54-3.4-2.47-3.4s-2.47.9-2.47,3.4.35,3.62,2.47,3.62S102.54,473.65,102.54,471.09Z" fill="#3a3d3f"/><path d="M110.08,475.7v-9h1.33v.63a6,6,0,0,1,2.63-.81,2.56,2.56,0,0,1,2.34.91,7.52,7.52,0,0,1,3.2-.91c2.45,0,3,1.17,3,4.43v4.75h-1.35V471c0-2.38-.27-3.26-1.89-3.26a5.89,5.89,0,0,0-2.54.67,10.34,10.34,0,0,1,.23,2.63v4.68h-1.35v-4.65c0-2.48-.25-3.33-1.89-3.33a5.34,5.34,0,0,0-2.41.67v7.31Z" fill="#3a3d3f"/><path d="M132.43,471.09c0,3.28-.81,4.79-3.85,4.79s-3.85-1.51-3.85-4.79c0-3.1,1-4.57,3.85-4.57S132.43,468,132.43,471.09Zm-1.38,0c0-2.5-.54-3.4-2.47-3.4s-2.46.9-2.46,3.4.34,3.62,2.46,3.62S131.05,473.65,131.05,471.09Z" fill="#3a3d3f"/><path d="M134.63,475.7v-9H136v.63a6.85,6.85,0,0,1,2.79-.81c2.49,0,3,1.22,3,4.43v4.75h-1.33V471c0-2.38-.27-3.26-1.94-3.26a6.12,6.12,0,0,0-2.54.67v7.31Z" fill="#3a3d3f"/><path d="M146.09,467.87v4.3c0,2,.13,2.52,1.3,2.52.51,0,1.6-.11,1.6-.11l.09,1.12a15.44,15.44,0,0,1-1.83.2c-1.86,0-2.49-.71-2.49-3.3v-4.73h-1.28V466.7h1.28v-2.76h1.33v2.76H149v1.17Z" fill="#3a3d3f"/><path d="M150.61,475.7V462.77H152v4.43a7.65,7.65,0,0,1,2.78-.68c2.46,0,3,1.22,3,4.43v4.75h-1.35V471c0-2.38-.27-3.26-1.93-3.26a7.41,7.41,0,0,0-2.54.54v7.44Z" fill="#3a3d3f"/><path d="M166.26,468a29.33,29.33,0,0,0-3.15-.29c-1.12,0-2,.31-2,1.37,0,.85.44,1.08,2.34,1.41,2.25.37,3.1.82,3.1,2.57,0,2.11-1.33,2.81-3.49,2.81a25.65,25.65,0,0,1-3.17-.34l.07-1.17s2,.3,3,.3c1.48,0,2.27-.32,2.27-1.55,0-.93-.47-1.17-2.43-1.47s-3-.7-3-2.5c0-2,1.61-2.63,3.24-2.63a23.19,23.19,0,0,1,3.26.34Z" fill="#3a3d3f"/><path d="M168.56,473.65H170v2.05h-1.48Z" fill="#3a3d3f"/><line x1="26.65" y1="55.13" x2="526.24" y2="55.13" fill="none" stroke="#ddd" stroke-miterlimit="10"/><path d="M32.21,81.9c2.43,0,3.71,1,3.71,3.17a2.74,2.74,0,0,1-1.61,2.87,2.73,2.73,0,0,1,2,2.93c0,2.63-1.51,3.49-3.85,3.49H27.69V81.9Zm-3.14,1.23v4.3h3.21c1.57,0,2.21-.74,2.21-2.23s-.75-2.07-2.34-2.07Zm0,5.51v4.5h3.32c1.51,0,2.5-.49,2.5-2.32s-1.64-2.18-2.59-2.18Z" fill="#4c4c4c"/><path d="M44.9,92.69c0,.52.47.72,1,.79l0,1.06a2.74,2.74,0,0,1-2.14-.72,9.22,9.22,0,0,1-3.25.72c-1.63,0-2.53-.93-2.53-2.75s.9-2.49,2.75-2.67l2.83-.27v-.77c0-1.26-.54-1.71-1.62-1.71-1.26,0-3.41.23-3.41.23l-.05-1a21.6,21.6,0,0,1,3.53-.4c2,0,2.9.94,2.9,2.9Zm-4-2.56c-1.1.11-1.53.63-1.53,1.62s.45,1.66,1.37,1.66a9.57,9.57,0,0,0,2.83-.56v-3Z" fill="#4c4c4c"/><path d="M47.16,95.88c0-1,.49-1.53,1.43-2.24a1.43,1.43,0,0,1-.51-1.24A5.82,5.82,0,0,1,48.69,91c-.75-.34-1.42-1.06-1.42-2.72,0-2.21,1.37-3.08,3.37-3.08a9.07,9.07,0,0,1,1.87.24l2.67-.08V86.5l-1.71,0a2.35,2.35,0,0,1,.59,1.8c0,2.34-1.17,3-3.48,3a6.79,6.79,0,0,1-.88-.07,5.32,5.32,0,0,0-.32,1c0,.72.14.83,2.18.83,2.55,0,3.47.5,3.47,2.64s-1.46,2.87-4,2.87C48.19,98.6,47.16,98,47.16,95.88Zm2.34-1.7c-.75.56-1,.89-1,1.59,0,1.24.52,1.69,2.55,1.69,1.8,0,2.61-.48,2.61-1.67,0-1.37-.57-1.52-2.21-1.52C50.82,94.27,49.5,94.18,49.5,94.18Zm3.21-5.92c0-1.42-.56-2-2.07-2s-2,.56-2,2,.61,2,2,2S52.71,89.68,52.71,88.26Z" fill="#4c4c4c"/><path d="M62.79,86.68a29.33,29.33,0,0,0-3.15-.29c-1.12,0-2,.3-2,1.37,0,.84.43,1.08,2.34,1.4,2.25.38,3.09.83,3.09,2.58,0,2.1-1.33,2.8-3.49,2.8a25.65,25.65,0,0,1-3.17-.34L56.52,93a29.86,29.86,0,0,0,3,.31c1.48,0,2.27-.33,2.27-1.55,0-.94-.47-1.17-2.43-1.48s-3-.7-3-2.5c0-2,1.6-2.63,3.24-2.63a23.19,23.19,0,0,1,3.26.34Z" fill="#4c4c4c"/><path d="M28.18,289.28h2.5l3.53,10.53,3.53-10.53h2.5v12.46H38.85v-11H38.6L35,301.29H33.43l-3.62-10.54h-.25v11H28.18Z" fill="#4c4c4c"/><path d="M49.42,300.06c0,.53.47.72,1,.79l-.05,1.07a2.78,2.78,0,0,1-2.15-.72,9.2,9.2,0,0,1-3.24.72c-1.63,0-2.54-.94-2.54-2.76s.91-2.48,2.76-2.66l2.83-.27v-.78c0-1.26-.54-1.71-1.62-1.71-1.26,0-3.41.24-3.41.24l0-1a21.6,21.6,0,0,1,3.53-.4c2,0,2.9.94,2.9,2.9Zm-4-2.55c-1.1.1-1.53.63-1.53,1.62s.45,1.65,1.37,1.65a9.57,9.57,0,0,0,2.83-.56v-3Z" fill="#4c4c4c"/><path d="M52.08,289.13h1.35v1.57H52.08Zm0,3.6h1.35v9H52.08Z" fill="#4c4c4c"/><path d="M56,301.74v-9h1.33v.63a6.85,6.85,0,0,1,2.79-.81c2.49,0,3,1.23,3,4.43v4.76H61.85V297c0-2.38-.26-3.26-1.94-3.26a6.12,6.12,0,0,0-2.54.67v7.31Z" fill="#4c4c4c"/><path d="M67.49,293.9v4.31c0,2,.12,2.52,1.29,2.52.51,0,1.61-.11,1.61-.11l.09,1.12a16.5,16.5,0,0,1-1.84.19c-1.86,0-2.49-.7-2.49-3.29V293.9H64.88v-1.17h1.27V290h1.34v2.75h2.86v1.17Z" fill="#4c4c4c"/><path d="M78.65,300.57l0,1.06a31.12,31.12,0,0,1-3.51.29c-2.68,0-3.56-1.57-3.56-4.63,0-3.42,1.48-4.74,3.76-4.74S79,293.81,79,296.77l-.07,1H73c0,1.93.59,2.94,2.36,2.94C76.69,300.73,78.65,300.57,78.65,300.57Zm-1-3.86c0-2.23-.68-3-2.27-3s-2.39.84-2.41,3Z" fill="#4c4c4c"/><path d="M81.09,301.74v-9h1.34v.63a6.85,6.85,0,0,1,2.79-.81c2.48,0,3,1.23,3,4.43v4.76H86.93V297c0-2.38-.27-3.26-2-3.26a6.18,6.18,0,0,0-2.54.67v7.31Z" fill="#4c4c4c"/><path d="M97.12,300.06c0,.53.46.72,1,.79l0,1.07A2.76,2.76,0,0,1,96,301.2a9.2,9.2,0,0,1-3.24.72c-1.64,0-2.54-.94-2.54-2.76s.9-2.48,2.76-2.66l2.83-.27v-.78c0-1.26-.54-1.71-1.62-1.71-1.26,0-3.41.24-3.41.24l0-1a21.6,21.6,0,0,1,3.53-.4c2,0,2.9.94,2.9,2.9Zm-4-2.55c-1.1.1-1.53.63-1.53,1.62s.45,1.65,1.37,1.65a9.57,9.57,0,0,0,2.83-.56v-3Z" fill="#4c4c4c"/><path d="M99.78,301.74v-9h1.33v.63a6.85,6.85,0,0,1,2.79-.81c2.49,0,3,1.23,3,4.43v4.76h-1.33V297c0-2.38-.27-3.26-1.94-3.26a6.12,6.12,0,0,0-2.54.67v7.31Z" fill="#4c4c4c"/><path d="M115.26,292.82l-.05,1.1s-1.44-.16-2.13-.16c-2.07,0-2.63.9-2.63,3.31,0,2.67.42,3.64,2.65,3.64.68,0,2.12-.16,2.12-.16l.06,1.12a24.24,24.24,0,0,1-2.51.25c-2.86,0-3.7-1.32-3.7-4.85,0-3.26,1.06-4.52,3.74-4.52A20.89,20.89,0,0,1,115.26,292.82Z" fill="#4c4c4c"/><path d="M123.94,300.57l0,1.06a31.12,31.12,0,0,1-3.51.29c-2.68,0-3.56-1.57-3.56-4.63,0-3.42,1.47-4.74,3.76-4.74s3.62,1.26,3.62,4.22l-.07,1h-5.95c0,1.93.6,2.94,2.36,2.94C122,300.73,123.94,300.57,123.94,300.57Zm-1-3.86c0-2.23-.69-3-2.27-3s-2.4.84-2.41,3Z" fill="#4c4c4c"/></g><g id="WT_Screen_Assets"><path d="M26.91,386.58h1.63l2.3,6.87,2.3-6.87h1.63v8.12h-.9v-7.15h-.16l-2.36,6.86h-1L28,387.55h-.16v7.15h-.91Z" fill="#4c4c4c"/><path d="M40.76,393.61c0,.34.3.47.68.52l0,.69a1.82,1.82,0,0,1-1.4-.47,5.94,5.94,0,0,1-2.11.47c-1.06,0-1.65-.61-1.65-1.79s.59-1.62,1.79-1.74l1.85-.18v-.5c0-.82-.36-1.12-1.06-1.12s-2.22.16-2.22.16l0-.67a14.1,14.1,0,0,1,2.3-.26c1.32,0,1.89.61,1.89,1.89ZM38.14,392c-.72.07-1,.41-1,1.05s.3,1.08.89,1.08a6.34,6.34,0,0,0,1.85-.36v-1.94Z" fill="#4c4c4c"/><path d="M42.49,388.84h.87v.79a6.6,6.6,0,0,1,2.15-.92v.89a8.29,8.29,0,0,0-2.14.8v4.3h-.88Z" fill="#4c4c4c"/><path d="M77.47,386.58h2l2.23,8.12h-.89l-.59-2.08H76.72l-.59,2.08h-.89Zm-.55,5.23H80l-1.23-4.45h-.61Z" fill="#4c4c4c"/><path d="M82.79,388.84h.87v.42a4,4,0,0,1,1.76-.54c1.48,0,2.12.9,2.12,3,0,2.3-.75,3.12-2.55,3.12a7.29,7.29,0,0,1-1.32-.13v2.62h-.88Zm.88,1.14v3.95a9.59,9.59,0,0,0,1.27.13c1.29,0,1.71-.67,1.71-2.36s-.5-2.19-1.36-2.19A3.81,3.81,0,0,0,83.67,390Z" fill="#4c4c4c"/><path d="M89,388.84h.87v.79a6.6,6.6,0,0,1,2.15-.92v.89a8.32,8.32,0,0,0-2.13.8v4.3H89Z" fill="#4c4c4c"/><path d="M123.88,393.59c0,1.76-.68,2-2.23,2v-.81c1.07,0,1.33-.07,1.33-1.28v-6.88h.89Z" fill="#4c4c4c"/><path d="M130.21,388.84v5.86h-.88v-.41a3.89,3.89,0,0,1-1.73.53c-1.64,0-2-.76-2-2.92v-3.06h.87v3.05c0,1.62.15,2.15,1.24,2.15a3.46,3.46,0,0,0,1.6-.44v-4.76Z" fill="#4c4c4c"/><path d="M131.9,394.7v-5.86h.87v.41a4.44,4.44,0,0,1,1.82-.53c1.62,0,2,.8,2,2.89v3.09h-.86v-3.07c0-1.55-.18-2.12-1.27-2.12a4.05,4.05,0,0,0-1.66.43v4.76Z" fill="#4c4c4c"/><path d="M169.05,393.59c0,1.76-.68,2-2.23,2v-.81c1.07,0,1.32-.07,1.32-1.28v-6.88h.9Z" fill="#4c4c4c"/><path d="M175.38,388.84v5.86h-.88v-.41a3.94,3.94,0,0,1-1.73.53c-1.65,0-2-.76-2-2.92v-3.06h.88v3.05c0,1.62.14,2.15,1.24,2.15a3.52,3.52,0,0,0,1.6-.44v-4.76Z" fill="#4c4c4c"/><path d="M177.14,386.28H178v8.42h-.88Z" fill="#4c4c4c"/><path d="M210.7,386.58h2l2.23,8.12H214l-.59-2.08H210l-.59,2.08h-.89Zm-.56,5.23h3.08L212,387.36h-.61Z" fill="#4c4c4c"/><path d="M220.56,388.84v5.86h-.88v-.41a3.94,3.94,0,0,1-1.73.53c-1.65,0-2-.76-2-2.92v-3.06h.88v3.05c0,1.62.14,2.15,1.24,2.15a3.52,3.52,0,0,0,1.6-.44v-4.76Z" fill="#4c4c4c"/><path d="M222,395.69c0-.68.32-1,.93-1.46a1,1,0,0,1-.33-.81,3.75,3.75,0,0,1,.4-.92,1.7,1.7,0,0,1-.93-1.77c0-1.45.9-2,2.2-2a6.12,6.12,0,0,1,1.22.15l1.73,0v.75l-1.11,0a1.55,1.55,0,0,1,.39,1.18c0,1.52-.76,2-2.27,2a3.88,3.88,0,0,1-.57,0,3.59,3.59,0,0,0-.21.67c0,.47.09.54,1.42.54,1.66,0,2.26.33,2.26,1.73s-1,1.86-2.6,1.86C222.66,397.46,222,397.05,222,395.69Zm1.53-1.1c-.49.36-.66.57-.66,1,0,.81.34,1.1,1.67,1.1,1.17,0,1.7-.31,1.7-1.09s-.38-1-1.44-1C224.38,394.65,223.52,394.59,223.52,394.59Zm2.09-3.86c0-.93-.37-1.29-1.35-1.29s-1.32.36-1.32,1.29.4,1.28,1.32,1.28S225.61,391.65,225.61,390.73Z" fill="#4c4c4c"/><path d="M262.24,387.45s-1.63-.2-2.31-.2c-1.15,0-1.76.41-1.76,1.33s.56,1.23,2,1.55c1.62.36,2.33.76,2.33,2.18,0,1.8-1,2.5-2.59,2.5a21.27,21.27,0,0,1-2.57-.26l.09-.75s1.6.21,2.43.21c1.15,0,1.74-.5,1.74-1.63,0-.91-.48-1.17-1.81-1.43-1.68-.36-2.52-.76-2.52-2.31s1-2.18,2.62-2.18a20.61,20.61,0,0,1,2.45.23Z" fill="#4c4c4c"/><path d="M268.22,393.94l0,.69a20,20,0,0,1-2.28.19c-1.75,0-2.33-1-2.33-3,0-2.23,1-3.09,2.45-3.09s2.36.82,2.36,2.75l0,.66h-3.88c0,1.26.39,1.92,1.54,1.92C266.94,394.05,268.22,393.94,268.22,393.94Zm-.66-2.51c0-1.45-.44-2-1.48-2s-1.56.55-1.57,2Z" fill="#4c4c4c"/><path d="M269.81,388.84h.87v.42a4,4,0,0,1,1.76-.54c1.48,0,2.13.9,2.13,3,0,2.3-.75,3.12-2.56,3.12a7.29,7.29,0,0,1-1.32-.13v2.62h-.88Zm.88,1.14v3.95a9.59,9.59,0,0,0,1.27.13c1.29,0,1.71-.67,1.71-2.36s-.5-2.19-1.36-2.19A3.87,3.87,0,0,0,270.69,390Z" fill="#4c4c4c"/><path d="M305.07,390.68c0-2.68.69-4.21,3.2-4.21s3.22,1.51,3.22,4.21-.7,4.14-3.22,4.14S305.07,393.4,305.07,390.68Zm5.48,0c0-2.19-.42-3.42-2.28-3.42s-2.27,1.21-2.27,3.42.39,3.34,2.27,3.34S310.55,393,310.55,390.68Z" fill="#4c4c4c"/><path d="M316.78,388.9l0,.71s-.94-.1-1.38-.1c-1.35,0-1.72.58-1.72,2.16s.27,2.37,1.73,2.37c.45,0,1.38-.11,1.38-.11l0,.73a15.93,15.93,0,0,1-1.63.16c-1.87,0-2.42-.86-2.42-3.15,0-2.13.69-2.95,2.44-2.95A13.43,13.43,0,0,1,316.78,388.9Z" fill="#4c4c4c"/><path d="M319.28,389.6v2.8c0,1.28.08,1.65.84,1.65.33,0,1-.07,1-.07l.06.72a10,10,0,0,1-1.19.13c-1.21,0-1.62-.45-1.62-2.14V389.6h-.84v-.76h.84V387h.87v1.8h1.86v.76Z" fill="#4c4c4c"/><path d="M351.62,386.58h1.69l3.11,7.33h.25v-7.33h.89v8.12h-1.65l-3.16-7.32h-.22v7.32h-.91Z" fill="#4c4c4c"/><path d="M364.17,391.7c0,2.14-.53,3.12-2.52,3.12s-2.51-1-2.51-3.12.66-3,2.51-3S364.17,389.68,364.17,391.7Zm-.91,0c0-1.63-.35-2.22-1.61-2.22s-1.6.59-1.6,2.22.22,2.36,1.6,2.36S363.26,393.37,363.26,391.7Z" fill="#4c4c4c"/><path d="M365.88,388.84l1.37,5.1h.43l1.42-5.1H370l-1.66,5.86h-1.76l-1.65-5.86Z" fill="#4c4c4c"/><path d="M400.54,394.7v-8.12h2.89c2.36,0,3,1.65,3,3.95s-.61,4.17-3,4.17Zm2.89-7.32h-2v6.53h2c1.69,0,2.08-1.62,2.08-3.38S405.12,387.38,403.43,387.38Z" fill="#4c4c4c"/><path d="M412.28,393.94l0,.69a20.28,20.28,0,0,1-2.29.19c-1.74,0-2.32-1-2.32-3,0-2.23,1-3.09,2.45-3.09s2.36.82,2.36,2.75l0,.66h-3.88c0,1.26.39,1.92,1.54,1.92C411,394.05,412.28,393.94,412.28,393.94Zm-.66-2.51c0-1.45-.44-2-1.48-2s-1.56.55-1.57,2Z" fill="#4c4c4c"/><path d="M417.66,388.9l0,.71s-.94-.1-1.39-.1c-1.35,0-1.71.58-1.71,2.16s.27,2.37,1.73,2.37c.44,0,1.38-.11,1.38-.11l0,.73a15.93,15.93,0,0,1-1.63.16c-1.86,0-2.41-.86-2.41-3.15,0-2.13.69-2.95,2.44-2.95A13.17,13.17,0,0,1,417.66,388.9Z" fill="#4c4c4c"/><path d="M61.59,241.89H58v-.69l2.14-5.36H61l-2.17,5.27h2.72v-2.34h.88v2.34h1v.78h-1v1.47h-.88Z" fill="#4c4c4c"/><path d="M42.43,224.39c0,2.88-1,3.76-2.74,3.76S37,227.3,37,224.41c0-3.1,1-4,2.73-4S42.43,221.3,42.43,224.39Zm-4.57,0c0,2.35.65,3,1.83,3s1.84-.63,1.84-3c0-2.52-.58-3.21-1.84-3.21S37.86,221.84,37.86,224.41Z" fill="#4c4c4c"/><path d="M35.73,193.72v.8H32.08L31.87,197a4.41,4.41,0,0,1,1.77-.46c1.47,0,2.39.61,2.39,2.22a2.32,2.32,0,0,1-2.52,2.61A12.34,12.34,0,0,1,31,201l.1-.69a15,15,0,0,0,2.31.25,1.59,1.59,0,0,0,1.7-1.78c0-1.13-.64-1.5-1.6-1.5a4.25,4.25,0,0,0-1.78.46l-.61-.12.21-3.9Z" fill="#4c4c4c"/><path d="M42.59,197.59c0,2.88-1,3.76-2.73,3.76s-2.74-.86-2.74-3.75c0-3.1,1-4,2.73-4S42.59,194.49,42.59,197.59Zm-4.56,0c0,2.36.65,3,1.83,3s1.83-.62,1.83-3c0-2.53-.58-3.21-1.83-3.21S38,195,38,197.6Z" fill="#4c4c4c"/><path d="M29.77,166h.82v7.52h-.88v-6.54l-1.93,1.28-.4-.66Z" fill="#4c4c4c"/><path d="M38.45,169.83c0,2.88-1,3.76-2.73,3.76S33,172.74,33,169.84c0-3.09,1-4,2.74-4S38.45,166.74,38.45,169.83Zm-4.56,0c0,2.36.65,3,1.83,3s1.83-.63,1.83-3c0-2.52-.58-3.21-1.83-3.21S33.89,167.28,33.89,169.84Z" fill="#4c4c4c"/><path d="M44.82,169.83c0,2.88-1,3.76-2.73,3.76s-2.74-.85-2.74-3.75c0-3.09,1-4,2.73-4S44.82,166.74,44.82,169.83Zm-4.56,0c0,2.36.65,3,1.83,3s1.83-.63,1.83-3c0-2.52-.58-3.21-1.83-3.21S40.26,167.28,40.26,169.84Z" fill="#4c4c4c"/><path d="M29.77,138.21h.82v7.51h-.88v-6.54l-1.93,1.28-.4-.66Z" fill="#4c4c4c"/><path d="M38,138.21V139H34.31l-.21,2.45a4.34,4.34,0,0,1,1.77-.47c1.46,0,2.39.62,2.39,2.22a2.33,2.33,0,0,1-2.52,2.62,12.34,12.34,0,0,1-2.49-.33l.1-.69a15,15,0,0,0,2.31.25,1.59,1.59,0,0,0,1.7-1.78c0-1.14-.64-1.5-1.6-1.5a4.32,4.32,0,0,0-1.78.45l-.61-.11.21-3.9Z" fill="#4c4c4c"/><path d="M44.82,142.08c0,2.88-1,3.75-2.73,3.75s-2.74-.85-2.74-3.74c0-3.1,1-4,2.73-4S44.82,139,44.82,142.08Zm-4.56,0c0,2.35.65,3,1.83,3s1.83-.63,1.83-3c0-2.53-.58-3.21-1.83-3.21S40.26,139.53,40.26,142.09Z" fill="#4c4c4c"/><path d="M134.21,237.69a1.67,1.67,0,0,1-1.25,1.75,1.9,1.9,0,0,1,1.36,1.89c0,1.65-1.27,2.15-2.83,2.15s-2.8-.46-2.8-2a2,2,0,0,1,1.29-2,1.75,1.75,0,0,1-1.17-1.76c0-1.3,1-2,2.68-2S134.21,236.37,134.21,237.69Zm-.82,3.55c0-.88-.58-1.16-1.33-1.38h-1.2c-.78.22-1.24.61-1.24,1.45,0,1,.8,1.38,1.87,1.38S133.39,242.34,133.39,241.24Zm-3.64-3.46c0,.69.37,1.06,1.11,1.32h1.2c.77-.25,1.21-.61,1.21-1.31,0-.9-.67-1.26-1.77-1.26S129.75,236.88,129.75,237.78Z" fill="#4c4c4c"/><path d="M196.07,235.86h.82v7.51H196v-6.53l-1.94,1.27-.4-.66Z" fill="#4c4c4c"/><path d="M199.62,243.37v-.74l2.2-2.31c.93-1,1.51-1.58,1.51-2.47s-.55-1.32-1.63-1.32a11,11,0,0,0-1.95.25l-.07-.73a9,9,0,0,1,2.18-.31c1.58,0,2.37.61,2.37,2,0,1.12-.51,1.78-1.57,2.81l-2,2h3.77v.76Z" fill="#4c4c4c"/><path d="M275.54,235.86h.82v7.51h-.88v-6.53l-1.93,1.27-.4-.66Z" fill="#4c4c4c"/><path d="M283.79,236.65a18.39,18.39,0,0,0-2-.13c-1.31,0-2,.93-2,2.59a6.38,6.38,0,0,1,1.88-.44c1.66,0,2.53.75,2.53,2.33a2.32,2.32,0,0,1-2.63,2.48c-1.87,0-2.69-1.47-2.69-3.9,0-2.72,1.15-3.84,2.94-3.84a13.75,13.75,0,0,1,2.06.2Zm-4,3.24c0,1.6.49,2.82,1.79,2.82a1.54,1.54,0,0,0,1.72-1.71c0-1.05-.63-1.55-1.68-1.55A5.19,5.19,0,0,0,279.77,239.89Z" fill="#4c4c4c"/><path d="M344.51,243.37v-.74l2.2-2.31c.93-1,1.51-1.58,1.51-2.47s-.56-1.32-1.64-1.32a11,11,0,0,0-1.95.25l-.06-.73a9,9,0,0,1,2.17-.31c1.58,0,2.38.61,2.38,2,0,1.12-.51,1.78-1.57,2.81l-2,2h3.76v.76Z" fill="#4c4c4c"/><path d="M356,239.73c0,2.88-1,3.75-2.74,3.75s-2.74-.85-2.74-3.74c0-3.1,1-4,2.73-4S356,236.63,356,239.73Zm-4.57,0c0,2.35.65,3,1.83,3s1.84-.63,1.84-3c0-2.53-.58-3.21-1.84-3.21S351.45,237.18,351.45,239.74Z" fill="#4c4c4c"/><path d="M411.52,243.37v-.74l2.2-2.31c.93-1,1.51-1.58,1.51-2.47s-.55-1.32-1.63-1.32a10.87,10.87,0,0,0-2,.25l-.07-.73a9,9,0,0,1,2.17-.31c1.59,0,2.38.61,2.38,2,0,1.12-.51,1.78-1.57,2.81l-2,2h3.77v.76Z" fill="#4c4c4c"/><path d="M421.21,241.9h-3.64v-.68l2.14-5.36h1l-2.17,5.27h2.72v-2.35h.88v2.35h1v.77h-1v1.47h-.88Z" fill="#4c4c4c"/><line x1="54.93" y1="142.58" x2="54.93" y2="231.24" fill="none" stroke="#adadad" stroke-miterlimit="10"/><line x1="423.98" y1="223.58" x2="45.84" y2="223.58" fill="none" stroke="#adadad" stroke-miterlimit="10"/><line x1="438.55" y1="378.79" x2="25.81" y2="378.79" fill="none" stroke="#adadad" stroke-miterlimit="10"/><polyline points="30.07 373.99 45.01 373.99 64.2 370.79 77 364.39 91.93 354.79 109 348.39 123.93 340.93 132.46 334.53 152.72 324.93 171.92 320.67 196.45 324.93 212.45 331.33 232.71 339.86 247.65 354.79 260.44 360.13 283.91 364.39 308.44 368.66 324.44 369.73 359.63 370.79 395.89 373.99 423.62 370.79 434.29 364.39" fill="none" stroke="#f2a120" stroke-miterlimit="10" stroke-width="3"/><polyline points="59.56 220.47 73.57 212.41 92.19 197.92 111.85 197.92 118.06 189.65 131.5 178.27 143.92 190.68 163.57 189.65 177.02 181.37 189.44 173.09 201.85 181.37 220.47 178.27 232.89 181.37 253.58 193.79 272.2 193.79 291.85 173.09 307.89 154.99 325.48 145.68 338.92 136.37 350.3 136.37 364.79 142.58 377.2 145.68 386.51 150.85 396.86 163.27 405.13 186.03 410.82 208.27 420.13 219.65" fill="none" stroke="#f2a120" stroke-miterlimit="10" stroke-width="3"/></g></g></svg>