<svg xmlns="http://www.w3.org/2000/svg" xmlns:xlink="http://www.w3.org/1999/xlink" viewBox="0 0 566.31 517.94"><defs><clipPath id="clip-path"><rect x="95.71" y="157.33" width="14.3" height="64.2" transform="translate(-0.74 0.4) rotate(-0.22)" fill="none"/></clipPath><clipPath id="clip-path-2"><rect x="114.71" y="157.33" width="14.3" height="64.2" transform="translate(-0.74 0.48) rotate(-0.22)" fill="none"/></clipPath><clipPath id="clip-path-3"><rect x="133.71" y="163.03" width="14.3" height="58.6" transform="translate(-0.75 0.55) rotate(-0.22)" fill="none"/></clipPath><clipPath id="clip-path-4"><rect x="152.71" y="163.03" width="14.3" height="58.6" transform="translate(-0.75 0.63) rotate(-0.22)" fill="none"/></clipPath><clipPath id="clip-path-5"><rect x="171.71" y="166.73" width="14.2" height="54.8" transform="translate(-0.76 0.7) rotate(-0.22)" fill="none"/></clipPath><clipPath id="clip-path-6"><rect x="190.71" y="170.43" width="14.2" height="51.1" transform="translate(-0.76 0.77) rotate(-0.22)" fill="none"/></clipPath><clipPath id="clip-path-7"><rect x="209.71" y="170.43" width="14.2" height="51.1" transform="translate(-0.76 0.85) rotate(-0.22)" fill="none"/></clipPath><clipPath id="clip-path-8"><rect x="228.61" y="182.63" width="14.2" height="38.9" transform="translate(-0.79 0.92) rotate(-0.22)" fill="none"/></clipPath><clipPath id="clip-path-9"><rect x="247.51" y="188.23" width="14.2" height="33.3" transform="translate(-0.8 1) rotate(-0.22)" fill="none"/></clipPath><clipPath id="clip-path-10"><rect x="266.41" y="191.93" width="14.2" height="29.6" transform="translate(-0.81 1.07) rotate(-0.22)" fill="none"/></clipPath><clipPath id="clip-path-11"><rect x="285.31" y="166.73" width="14.2" height="54.8" transform="translate(-0.76 1.15) rotate(-0.22)" fill="none"/></clipPath><clipPath id="clip-path-12"><rect x="304.31" y="170.43" width="14.2" height="51.1" transform="translate(-0.76 1.22) rotate(-0.22)" fill="none"/></clipPath><clipPath id="clip-path-13"><rect x="323.31" y="170.43" width="14.2" height="51.1" transform="translate(-0.76 1.29) rotate(-0.22)" fill="none"/></clipPath><clipPath id="clip-path-14"><rect x="342.21" y="172.33" width="14.2" height="49.2" transform="translate(-0.77 1.37) rotate(-0.22)" fill="none"/></clipPath><clipPath id="clip-path-15"><rect x="361.21" y="172.33" width="14.2" height="49.2" transform="translate(-0.77 1.44) rotate(-0.22)" fill="none"/></clipPath><clipPath id="clip-path-16"><rect x="380.11" y="179.83" width="14.2" height="41.7" transform="matrix(1, 0, 0, 1, -0.78, 1.52)" fill="none"/></clipPath><clipPath id="clip-path-17"><rect x="399.11" y="179.83" width="14.2" height="41.7" transform="translate(-0.78 1.59) rotate(-0.22)" fill="none"/></clipPath><clipPath id="clip-path-18"><rect x="418.01" y="179.83" width="14.2" height="41.7" transform="translate(-0.78 1.66) rotate(-0.22)" fill="none"/></clipPath><clipPath id="clip-path-19"><rect x="436.91" y="179.83" width="14.2" height="41.7" transform="matrix(1, 0, 0, 1, -0.78, 1.74)" fill="none"/></clipPath><clipPath id="clip-path-20"><rect x="455.81" y="182.63" width="14.2" height="38.9" transform="translate(-0.79 1.81) rotate(-0.22)" fill="none"/></clipPath><clipPath id="clip-path-21"><rect x="474.71" y="183.53" width="14.2" height="38" transform="translate(-0.79 1.88) rotate(-0.22)" fill="none"/></clipPath><clipPath id="clip-path-22"><rect x="493.71" y="187.33" width="14.2" height="34.3" transform="translate(-0.8 1.96) rotate(-0.22)" fill="none"/></clipPath><clipPath id="clip-path-23"><rect x="512.51" y="191.93" width="14.2" height="29.6" transform="translate(-0.81 2.04) rotate(-0.22)" fill="none"/></clipPath><clipPath id="clip-path-24"><rect x="76.61" y="152.73" width="14.3" height="68.9" transform="translate(-0.73 0.33) rotate(-0.22)" fill="none"/></clipPath><clipPath id="clip-path-25"><rect x="57.61" y="148.03" width="14.3" height="73.6" transform="translate(-0.72 0.25) rotate(-0.22)" fill="none"/></clipPath></defs><title>r_4_D_Screen</title><g id="Layer_2" data-name="Layer 2">
<g id="PF_Bg_2_Section"><rect width="566.31" height="517.94" fill="rgba(0,0,0,0)"/></g>
<g id="CMs_Msk_Screen"><path d="M41.5,20.87h3.36l3.8,13.85H47.14l-1-3.56H40.22l-1,3.56H37.7Zm-.94,8.91H45.8l-2.1-7.59h-1Z"/><path d="M56.32,27.64h3.82v6.8a33.71,33.71,0,0,1-4.5.48c-4.24,0-5.36-2.6-5.36-7.08s1.16-7.17,5.32-7.17a25.77,25.77,0,0,1,4.54.52l-.06,1.28a31.73,31.73,0,0,0-4.3-.42c-3.2,0-3.9,1.86-3.9,5.79s.68,5.72,3.88,5.72a18.56,18.56,0,0,0,2.86-.28V29h-2.3Z"/><path d="M72.62,20.87,69,34.72H65.56L61.94,20.87h1.6l3.18,12.49h1.12L71,20.87Z"/><path d="M80.74,30.06v4.66H79.2V20.87h5.06c3,0,4.42,1.46,4.42,4.47s-1.4,4.72-4.42,4.72Zm3.5-1.36c2,0,2.86-1.22,2.86-3.36s-.84-3.11-2.86-3.11h-3.5V28.7Z"/><path d="M91.06,20.87h8.42v1.36H92.6V27h5.68v1.34H92.6v5h6.88v1.36H91.06Z"/><path d="M103.66,29.42v5.3h-1.54V20.87h5.12c2.9,0,4.42,1.28,4.42,4.21,0,2-.8,3.46-2.54,4l2.66,5.62h-1.7l-2.5-5.3Zm3.58-7.19h-3.58v5.83h3.6c2.08,0,2.82-1.24,2.82-3C110.08,23.17,109.18,22.23,107.24,22.23Z"/><path d="M114.44,20.87h8.28v1.36H116v5.41h5.7V29H116v5.72h-1.54Z"/><path d="M124.4,27.86c0-4.57,1.18-7.19,5.46-7.19s5.48,2.58,5.48,7.19-1.18,7.06-5.48,7.06S124.4,32.5,124.4,27.86Zm9.34,0c0-3.74-.72-5.83-3.88-5.83S126,24.1,126,27.86s.68,5.7,3.88,5.7S133.74,31.76,133.74,27.86Z"/><path d="M139.7,29.42v5.3h-1.54V20.87h5.12c2.9,0,4.42,1.28,4.42,4.21,0,2-.8,3.46-2.54,4l2.66,5.62h-1.7l-2.5-5.3Zm3.58-7.19H139.7v5.83h3.6c2.08,0,2.82-1.24,2.82-3C146.12,23.17,145.22,22.23,143.28,22.23Z"/><path d="M150.48,20.87h2.78l3.92,11.71,3.92-11.71h2.78V34.72h-1.54V22.51h-.28l-4,11.71h-1.72l-4-11.71H152V34.72h-1.54Z"/><path d="M169.86,20.87h3.36L177,34.72H175.5l-1-3.56h-5.92l-1,3.56h-1.52Zm-.94,8.91h5.24l-2.1-7.59h-1Z"/><path d="M179.2,20.87h2.88l5.3,12.49h.42V20.87h1.52V34.72H186.5l-5.38-12.49h-.38V34.72H179.2Z"/><path d="M201.08,34.5a20.83,20.83,0,0,1-3.82.42c-4.14,0-5.06-2.52-5.06-7.08s.9-7.17,5.06-7.17a20.32,20.32,0,0,1,3.82.44l-.06,1.3a24.64,24.64,0,0,0-3.6-.36c-3.08,0-3.62,1.84-3.62,5.79s.5,5.7,3.66,5.7a21.88,21.88,0,0,0,3.56-.36Z"/><path d="M203.6,20.87H212v1.36h-6.88V27h5.68v1.34h-5.68v5H212v1.36H203.6Z"/><path d="M222.42,22.35s-2.78-.34-3.94-.34c-2,0-3,.7-3,2.26,0,1.81,1,2.11,3.38,2.65,2.76.62,4,1.3,4,3.72,0,3.06-1.68,4.26-4.42,4.26a36.39,36.39,0,0,1-4.38-.44l.16-1.28s2.72.36,4.14.36c2,0,3-.86,3-2.78,0-1.56-.82-2-3.08-2.44-2.86-.62-4.3-1.3-4.3-3.95s1.76-3.72,4.46-3.72a34.46,34.46,0,0,1,4.18.4Z"/><line x1="36.47" y1="43.03" x2="536.06" y2="43.03" fill="none" stroke="#ddd" stroke-miterlimit="10"/></g><g id="PF_Cont_Screen"><path d="M38.17,279h1.5l2.2,6.4,2.2-6.4h1.5v7.6h-.8v-6.7h-.2l-2.2,6.4h-.9l-2.2-6.4h-.2v6.7h-.8V279Z" fill="#4c4c4c"/><path d="M51.17,285.52c0,.3.3.4.6.5v.6a1.7,1.7,0,0,1-1.3-.4,6.2,6.2,0,0,1-2,.4,1.5,1.5,0,0,1-1.6-1.7c0-1.1.5-1.5,1.7-1.6l1.7-.2v-.5c0-.8-.3-1-1-1s-2.1.1-2.1.1v-.6a15.93,15.93,0,0,1,2.2-.2,1.59,1.59,0,0,1,1.8,1.8v2.8Zm-2.5-1.5c-.7.1-.9.4-.9,1s.3,1,.8,1a6.44,6.44,0,0,0,1.7-.3v-1.8Z" fill="#4c4c4c"/><path d="M52.77,278.92h.8v1h-.8Zm0,2.2h.8v5.5h-.8Z" fill="#4c4c4c"/><path d="M55.17,286.62v-5.5H56v.4a4.14,4.14,0,0,1,1.7-.5c1.5,0,1.9.7,1.9,2.7v2.9h-.8v-2.9c0-1.5-.2-2-1.2-2a4.14,4.14,0,0,0-1.6.4v4.5Z" fill="#4c4c4c"/><path d="M62.17,281.82v2.6c0,1.2.1,1.5.8,1.5.29,0,1-.1,1-.1l.1.7a10.72,10.72,0,0,1-1.1.1c-1.11,0-1.5-.4-1.5-2v-2.9h-.8V281h.8v-1.6h.79v1.7H64v.7Z" fill="#4c4c4c"/><path d="M69.07,285.92v.6a18,18,0,0,1-2.1.2c-1.61,0-2.21-1-2.21-2.8,0-2.1.9-2.9,2.3-2.9s2.2.8,2.2,2.6v.6h-3.6c0,1.2.4,1.8,1.4,1.8C67.87,286,69.07,285.92,69.07,285.92Zm-.7-2.4c0-1.4-.4-1.8-1.4-1.8s-1.5.5-1.5,1.8Z" fill="#4c4c4c"/><path d="M70.47,286.62v-5.5h.79v.4A4.21,4.21,0,0,1,73,281c1.5,0,1.89.7,1.89,2.7v2.9h-.79v-2.9c0-1.5-.21-2-1.21-2a4.2,4.2,0,0,0-1.6.4v4.5Z" fill="#4c4c4c"/><path d="M80.27,285.52c0,.3.3.4.6.5v.6a1.7,1.7,0,0,1-1.3-.4,6.2,6.2,0,0,1-2,.4,1.5,1.5,0,0,1-1.6-1.7c0-1.1.5-1.5,1.7-1.6l1.7-.2v-.5c0-.8-.3-1-1-1s-2.1.1-2.1.1v-.6a15.93,15.93,0,0,1,2.2-.2,1.59,1.59,0,0,1,1.8,1.8v2.8Zm-2.4-1.5c-.7.1-.9.4-.9,1s.3,1,.8,1a6.34,6.34,0,0,0,1.7-.3v-1.8Z" fill="#4c4c4c"/><path d="M82,286.62v-5.5h.79v.4a4.21,4.21,0,0,1,1.71-.5c1.5,0,1.89.7,1.89,2.7v2.9h-.79v-2.9c0-1.5-.21-2-1.21-2a4.2,4.2,0,0,0-1.6.4v4.5Z" fill="#4c4c4c"/><path d="M91.37,281.12v.7s-.9-.1-1.3-.1c-1.3,0-1.6.5-1.6,2s.3,2.2,1.6,2.2c.4,0,1.3-.1,1.3-.1v.7a10.87,10.87,0,0,1-1.5.2c-1.7,0-2.3-.8-2.3-3,0-2,.6-2.8,2.3-2.8C90.37,281,91.37,281.12,91.37,281.12Z" fill="#4c4c4c"/><path d="M96.67,285.92v.6a18,18,0,0,1-2.1.2c-1.6,0-2.21-1-2.21-2.8,0-2.1.9-2.9,2.3-2.9s2.2.8,2.2,2.6v.6h-3.6c0,1.2.4,1.8,1.4,1.8C95.47,286,96.67,285.92,96.67,285.92Zm-.6-2.4c0-1.4-.4-1.8-1.4-1.8s-1.5.5-1.5,1.8Z" fill="#4c4c4c"/><path d="M40.07,123.22c1.5,0,2.29.6,2.29,1.9,0,1-.39,1.5-1,1.7a1.63,1.63,0,0,1,1.21,1.8c0,1.6-.9,2.1-2.4,2.1h-2.9v-7.6h2.8Zm-1.9.7v2.6h2a1.22,1.22,0,0,0,1.4-1.4c0-.9-.5-1.3-1.4-1.3h-2Zm0,3.4v2.8h2c.9,0,1.5-.3,1.5-1.4s-1-1.3-1.6-1.3h-1.9Z" fill="#4c4c4c"/><path d="M47.77,129.82c0,.3.3.4.6.5v.6a1.7,1.7,0,0,1-1.3-.4,6.2,6.2,0,0,1-2,.4,1.5,1.5,0,0,1-1.6-1.7c0-1.1.5-1.5,1.7-1.6l1.7-.2v-.5c0-.8-.3-1-1-1s-2.1.1-2.1.1v-.6a15.93,15.93,0,0,1,2.2-.2,1.59,1.59,0,0,1,1.8,1.8v2.8Zm-2.4-1.6c-.7.1-.9.4-.9,1s.3,1,.8,1a6.34,6.34,0,0,0,1.7-.3v-1.8Z" fill="#4c4c4c"/><path d="M50.57,126v2.6c0,1.2.1,1.5.79,1.5.3,0,1-.1,1-.1l.11.7a10.71,10.71,0,0,1-1.11.1c-1.1,0-1.5-.4-1.5-2v-2.9h-.79v-.7h.79v-1.7h.8v1.7h1.7v.7H50.57Z" fill="#4c4c4c"/><path d="M54.37,126v2.6c0,1.2.1,1.5.8,1.5.3,0,1-.1,1-.1l.1.7a10.42,10.42,0,0,1-1.1.1c-1.1,0-1.5-.4-1.5-2v-2.9h-.8v-.7h.8v-1.7h.8v1.7h1.7v.7h-1.8Z" fill="#4c4c4c"/><path d="M61.17,130.12v.6a18,18,0,0,1-2.1.2c-1.6,0-2.21-1-2.21-2.8,0-2.1.9-2.9,2.3-2.9s2.2.8,2.2,2.6v.6h-3.6c0,1.2.4,1.8,1.4,1.8C60,130.22,61.17,130.12,61.17,130.12Zm-.6-2.4c0-1.4-.4-1.8-1.4-1.8s-1.5.5-1.5,1.8Z" fill="#4c4c4c"/><path d="M62.67,125.32h.8v.7a6.27,6.27,0,0,1,2-.9v.8a9.25,9.25,0,0,0-2,.7v4h-.8Z" fill="#4c4c4c"/><path d="M66.87,125.32l1.4,4.8h.4l1.4-4.8h.79l-2.29,7.9h-.8l.7-2.4h-.8l-1.6-5.5Z" fill="#4c4c4c"/><path d="M41,357.62h1.5l2.2,6.4,2.2-6.4h1.5v7.6h-.8v-6.7h-.2l-2.2,6.4h-.9l-2.2-6.4h-.21v6.7h-.79v-7.6Z" fill="#4c4c4c"/><path d="M54,364.22c0,.3.29.4.6.5v.6a1.7,1.7,0,0,1-1.3-.4,6.2,6.2,0,0,1-2,.4,1.5,1.5,0,0,1-1.6-1.7c0-1.1.5-1.5,1.7-1.6l1.7-.2v-.5c0-.8-.3-1-1-1s-2.1.1-2.1.1v-.6a15.93,15.93,0,0,1,2.2-.2,1.59,1.59,0,0,1,1.8,1.8v2.8Zm-2.5-1.6c-.71.1-.9.4-.9,1s.29,1,.79,1a6.46,6.46,0,0,0,1.71-.3v-1.8Z" fill="#4c4c4c"/><path d="M55.57,359.72h.79v.7a6.27,6.27,0,0,1,2-.9v.8a9.25,9.25,0,0,0-2,.7v4h-.79Z" fill="#4c4c4c"/><path d="M102.57,357.62h1.79l2.11,7.6h-.8l-.6-2h-3.3l-.5,2h-.8Zm-.5,4.9H105l-1.21-4.2h-.6Z" fill="#4c4c4c"/><path d="M107.57,359.72h.79v.4a3.65,3.65,0,0,1,1.71-.5c1.4,0,2,.8,2,2.8,0,2.2-.71,2.9-2.4,2.9-.5,0-1.1-.1-1.2-.1v2.5h-.8v-8Zm.8,1.1v3.7c.1,0,.7.1,1.2.1,1.2,0,1.6-.6,1.6-2.2s-.5-2.1-1.3-2.1A5.9,5.9,0,0,0,108.37,360.82Z" fill="#4c4c4c"/><path d="M113.37,359.72h.8v.7a6.27,6.27,0,0,1,2-.9v.8a9.25,9.25,0,0,0-2,.7v4h-.8Z" fill="#4c4c4c"/><path d="M162.17,364.22c0,1.6-.6,1.8-2.1,1.8v-.8c1,0,1.2-.1,1.2-1.2v-6.4h.8Z" fill="#4c4c4c"/><path d="M168.07,359.72v5.5h-.8v-.4a3.52,3.52,0,0,1-1.6.5c-1.5,0-1.9-.7-1.9-2.7v-2.9h.8v2.9c0,1.5.1,2,1.2,2a3.4,3.4,0,0,0,1.5-.4v-4.5Z" fill="#4c4c4c"/><path d="M169.67,365.22v-5.5h.8v.4a4.14,4.14,0,0,1,1.7-.5c1.5,0,1.9.7,1.9,2.7v2.9h-.8v-2.9c0-1.5-.2-2-1.2-2a4.14,4.14,0,0,0-1.6.4v4.5Z" fill="#4c4c4c"/><path d="M222.77,364.22c0,1.6-.6,1.8-2.1,1.8v-.8c1,0,1.2-.1,1.2-1.2v-6.4h.8Z" fill="#4c4c4c"/><path d="M228.77,359.72v5.5H228v-.4a3.52,3.52,0,0,1-1.6.5c-1.5,0-1.9-.7-1.9-2.7v-2.9h.8v2.9c0,1.5.1,2,1.2,2a3.4,3.4,0,0,0,1.5-.4v-4.5Z" fill="#4c4c4c"/><path d="M230.37,357.32h.8v7.9h-.8Z" fill="#4c4c4c"/><path d="M278.57,357.62h1.79l2.11,7.6h-.8l-.6-2h-3.3l-.5,2h-.8Zm-.5,4.9H281l-1.21-4.2h-.6Z" fill="#4c4c4c"/><path d="M287.87,359.72v5.5h-.8v-.4a3.52,3.52,0,0,1-1.6.5c-1.5,0-1.9-.7-1.9-2.7v-2.9h.8v2.9c0,1.5.1,2,1.2,2a3.4,3.4,0,0,0,1.5-.4v-4.5Z" fill="#4c4c4c"/><path d="M289.17,366.22c0-.6.3-.9.9-1.4-.21-.1-.3-.4-.3-.8a3.92,3.92,0,0,1,.4-.9c-.5-.2-.9-.6-.9-1.7,0-1.4.8-1.9,2.1-1.9a8,8,0,0,1,1.1.1h1.6v.7h-1a1.42,1.42,0,0,1,.4,1.1c0,1.4-.7,1.9-2.1,1.9h-.5a4.17,4.17,0,0,0-.2.6c0,.4.1.5,1.3.5,1.6,0,2.1.3,2.1,1.6s-.9,1.7-2.4,1.7C289.87,367.82,289.17,367.42,289.17,366.22Zm1.5-1.1a1,1,0,0,0-.6,1c0,.8.29,1,1.6,1,1.1,0,1.6-.3,1.6-1s-.4-.9-1.4-.9C291.47,365.22,290.67,365.12,290.67,365.12Zm1.9-3.6c0-.9-.3-1.2-1.3-1.2s-1.2.3-1.2,1.2.4,1.2,1.2,1.2C292.27,362.72,292.57,362.42,292.57,361.52Z" fill="#4c4c4c"/><path d="M340.77,358.42s-1.5-.2-2.2-.2c-1.1,0-1.71.4-1.71,1.2,0,1,.5,1.2,1.9,1.5s2.21.7,2.21,2c0,1.7-.9,2.3-2.4,2.3a23.87,23.87,0,0,1-2.4-.2l.1-.7s1.5.2,2.3.2c1.1,0,1.6-.5,1.6-1.5s-.5-1.1-1.7-1.3c-1.61-.3-2.4-.7-2.4-2.2s1-2,2.5-2a20.59,20.59,0,0,1,2.29.2Z" fill="#4c4c4c"/><path d="M346.47,364.52v.6a18,18,0,0,1-2.11.2c-1.6,0-2.2-1-2.2-2.8,0-2.1.9-2.9,2.3-2.9s2.2.8,2.2,2.6v.6h-3.6c0,1.2.4,1.8,1.4,1.8C345.27,364.62,346.47,364.52,346.47,364.52Zm-.7-2.3c0-1.4-.4-1.8-1.4-1.8s-1.5.5-1.5,1.8Z" fill="#4c4c4c"/><path d="M347.87,359.72h.8v.4a3.63,3.63,0,0,1,1.7-.5c1.4,0,2,.8,2,2.8,0,2.2-.7,2.9-2.4,2.9-.5,0-1.1-.1-1.2-.1v2.5H348v-8Zm.9,1.1v3.7c.1,0,.7.1,1.2.1,1.2,0,1.6-.6,1.6-2.2s-.5-2.1-1.3-2.1A4.57,4.57,0,0,0,348.77,360.82Z" fill="#4c4c4c"/><path d="M396,361.52c0-2.5.6-3.9,3-3.9s3,1.4,3,3.9-.61,3.9-3,3.9S396,364,396,361.52Zm5.1,0c0-2.1-.4-3.2-2.1-3.2s-2.11,1.1-2.11,3.2.4,3.1,2.11,3.1S401.07,363.62,401.07,361.52Z" fill="#4c4c4c"/><path d="M406.87,359.82v.7s-.9-.1-1.3-.1c-1.3,0-1.6.5-1.6,2s.3,2.2,1.6,2.2c.4,0,1.3-.1,1.3-.1v.7a10.87,10.87,0,0,1-1.5.2c-1.7,0-2.3-.8-2.3-3,0-2,.6-2.8,2.3-2.8A10.87,10.87,0,0,1,406.87,359.82Z" fill="#4c4c4c"/><path d="M409.27,360.42V363c0,1.2.1,1.5.8,1.5.29,0,1-.1,1-.1l.1.7a10.42,10.42,0,0,1-1.1.1c-1.1,0-1.5-.4-1.5-2v-2.9h-.8v-.7h.8v-1.7h.79v1.7h1.71v.7h-1.8Z" fill="#4c4c4c"/><path d="M454,357.62h1.6l2.9,6.9h.2v-6.9h.8v7.6h-1.61l-3-6.9h-.2v6.9h-.8v-7.6Z" fill="#4c4c4c"/><path d="M465.77,362.42c0,2-.5,2.9-2.4,2.9s-2.4-.9-2.4-2.9.6-2.8,2.4-2.8S465.77,360.52,465.77,362.42Zm-.9,0c0-1.5-.3-2.1-1.5-2.1s-1.5.5-1.5,2.1.2,2.2,1.5,2.2S464.87,364,464.87,362.42Z" fill="#4c4c4c"/><path d="M467.37,359.72l1.3,4.8h.4l1.29-4.8h.8l-1.6,5.5h-1.7l-1.6-5.5Z" fill="#4c4c4c"/><path d="M513.47,365.22v-7.6h2.7c2.2,0,2.8,1.5,2.8,3.7s-.61,3.9-2.8,3.9Zm2.7-6.8h-1.9v6.1h1.9c1.6,0,1.9-1.5,1.9-3.2S517.77,358.42,516.17,358.42Z" fill="#4c4c4c"/><path d="M524.47,364.52v.6a18,18,0,0,1-2.11.2c-1.6,0-2.2-1-2.2-2.8,0-2.1.9-2.9,2.3-2.9s2.2.8,2.2,2.6v.6h-3.6c0,1.2.4,1.8,1.4,1.8C523.27,364.62,524.47,364.52,524.47,364.52Zm-.6-2.3c0-1.4-.4-1.8-1.4-1.8s-1.5.5-1.5,1.8Z" fill="#4c4c4c"/><path d="M529.47,359.82v.7s-.9-.1-1.3-.1c-1.3,0-1.6.5-1.6,2s.29,2.2,1.6,2.2c.4,0,1.3-.1,1.3-.1v.7a10.87,10.87,0,0,1-1.5.2c-1.71,0-2.3-.8-2.3-3,0-2,.6-2.8,2.3-2.8A10.87,10.87,0,0,1,529.47,359.82Z" fill="#4c4c4c"/><path d="M60.17,233.62h-3.5v-.7l2.1-5.2h.9l-2.1,5.1h2.6v-2.3H61v2.3h.89v.7H61v1.4h-.8Z" fill="#4c4c4c"/><path d="M42.67,226.32c0,3.1-1.1,4-2.9,4s-2.9-.9-2.9-4c0-3.3,1.1-4.3,2.9-4.3S42.67,223,42.67,226.32Zm-4.9,0c0,2.5.7,3.2,2,3.2s2-.7,2-3.2c0-2.7-.6-3.4-2-3.4S37.77,223.62,37.77,226.32Z" fill="#4c4c4c"/><path d="M37.17,206v-.8l2.3-2.5c1-1,1.6-1.7,1.6-2.6,0-1.1-.6-1.4-1.71-1.4a10.79,10.79,0,0,0-2.1.3l-.1-.8a11.07,11.07,0,0,1,2.3-.3c1.7,0,2.5.6,2.5,2.1,0,1.2-.5,1.9-1.7,3l-2.1,2.2h4v.8Z" fill="#4c4c4c"/><path d="M40.67,179.32h-3.9v-.7l2.3-5.7h1l-2.3,5.6h2.9V176h.9v2.5h1v.8h-1v1.6h-.9Z" fill="#4c4c4c"/><path d="M42.17,148.62s-1.1-.1-2.1-.1c-1.4,0-2.21,1-2.21,2.8a6,6,0,0,1,2-.5c1.8,0,2.71.8,2.71,2.5s-1,2.6-2.8,2.6c-2,0-2.9-1.6-2.9-4.2,0-2.9,1.2-4.1,3.1-4.1a15.93,15.93,0,0,1,2.2.2Zm-4.3,3.5c0,1.7.5,3,1.9,3a1.59,1.59,0,0,0,1.8-1.8c0-1.1-.71-1.6-1.8-1.6A4.43,4.43,0,0,0,37.87,152.12Z" fill="#4c4c4c"/><path d="M154.27,229.52a1.71,1.71,0,0,1-1.2,1.7,1.83,1.83,0,0,1,1.29,1.8c0,1.6-1.2,2.1-2.7,2.1s-2.7-.5-2.7-2a1.87,1.87,0,0,1,1.3-1.9,1.63,1.63,0,0,1-1.1-1.7c0-1.3,1-1.9,2.6-1.9C153.17,227.72,154.27,228.32,154.27,229.52Zm-.8,3.5c0-.8-.61-1.1-1.3-1.3H151c-.8.2-1.21.6-1.21,1.4,0,1,.8,1.3,1.8,1.3S153.47,234,153.47,233Zm-3.5-3.4c0,.7.39,1,1.1,1.3h1.2c.7-.2,1.2-.6,1.2-1.3,0-.9-.6-1.2-1.7-1.2S150,228.82,150,229.62Z" fill="#4c4c4c"/><path d="M241.27,227.82h.8v7.3h-.8v-6.3l-1.9,1.2-.4-.6Z" fill="#4c4c4c"/><path d="M244.67,235v-.7l2.1-2.2c.9-.9,1.5-1.5,1.5-2.4s-.5-1.3-1.6-1.3a13.13,13.13,0,0,0-1.9.2l-.1-.7a8.25,8.25,0,0,1,2.1-.3c1.5,0,2.3.6,2.3,1.9,0,1.1-.5,1.7-1.5,2.7l-1.9,2h3.6v.7h-4.6Z" fill="#4c4c4c"/><path d="M333.57,227.82h.79v7.3h-.79v-6.3l-1.9,1.2-.4-.6Z" fill="#4c4c4c"/><path d="M341.57,228.52s-1-.1-1.9-.1c-1.3,0-2,.9-2,2.5a5.91,5.91,0,0,1,1.8-.4c1.6,0,2.39.7,2.39,2.3a2.23,2.23,0,0,1-2.5,2.4c-1.79,0-2.6-1.4-2.6-3.8,0-2.6,1.1-3.7,2.8-3.7a13.38,13.38,0,0,1,2,.2Zm-3.9,3.2c0,1.6.5,2.7,1.7,2.7a1.5,1.5,0,0,0,1.7-1.6,1.4,1.4,0,0,0-1.6-1.5A5.11,5.11,0,0,0,337.67,231.72Z" fill="#4c4c4c"/><path d="M423.17,235v-.7l2.1-2.2c.9-.9,1.5-1.5,1.5-2.4s-.5-1.3-1.6-1.3a13.13,13.13,0,0,0-1.9.2l-.1-.7a8.25,8.25,0,0,1,2.1-.3c1.5,0,2.3.6,2.3,1.9,0,1.1-.5,1.7-1.5,2.7l-1.9,2h3.6v.7h-4.6Z" fill="#4c4c4c"/><path d="M434.27,231.52c0,2.8-1,3.6-2.6,3.6s-2.7-.8-2.7-3.6c0-3,1-3.9,2.6-3.9S434.27,228.52,434.27,231.52Zm-4.4,0c0,2.3.6,2.9,1.8,2.9s1.8-.6,1.8-2.9-.61-3.1-1.8-3.1S429.87,229.12,429.87,231.52Z" fill="#4c4c4c"/><path d="M515.47,235v-.7l2.1-2.2c.9-.9,1.5-1.5,1.5-2.4s-.5-1.3-1.6-1.3a13.13,13.13,0,0,0-1.9.2l-.1-.7a8.25,8.25,0,0,1,2.1-.3c1.5,0,2.29.6,2.29,1.9,0,1.1-.5,1.7-1.5,2.7l-1.89,2h3.6v.7h-4.6Z" fill="#4c4c4c"/><path d="M524.77,233.62h-3.5v-.7l2.1-5.2h.9l-2.1,5.1h2.6v-2.3h.8v2.3h.9v.7h-.9v1.4h-.8Z" fill="#4c4c4c"/><line x1="53.97" y1="138.72" x2="53.97" y2="229.12" fill="none" stroke="#adadad" stroke-miterlimit="10"/><line x1="531.17" y1="222.22" x2="45.77" y2="222.22" fill="none" stroke="#adadad" stroke-miterlimit="10"/><line x1="534.37" y1="350.62" x2="37.07" y2="350.62" fill="none" stroke="#adadad" stroke-miterlimit="10"/><polyline points="40.37 346.12 58.06 346.12 80.86 343.12 98.21 340.15 113.36 335.09 133.66 330 155.66 325.27 168.06 320.85 192.54 311.25 218.91 307.57 242.7 302.84 272.24 308.25 287.87 310.11 307.7 316.11 323.26 324.09 342.87 331.12 366.13 342.28 389.22 343.81 431.06 343.12 474.06 346.12 506.96 343.12 519.57 337.12" fill="none" stroke="#3899e8"/><polyline points="40.37 346.62 58.06 346.62 80.86 343.62 96.86 340.6 113.36 335.09 135.31 329.59 159.81 324.39 174.06 318.28 192.54 311.25 214.95 308.19 243.84 304.21 291.15 310.5 305.6 314.97 316.93 321.12 330.37 326.63 345.76 332.17 366.13 342.28 389.22 343.81 431.06 343.62 474.06 346.62 506.96 343.62 519.57 337.62" fill="none" stroke="#8dc5f2"/><path d="M40.57,90.82h3l3.4,12.5h-1.4l-.9-3.2h-5.3l-.9,3.2h-1.4Zm-.8,8h4.7L42.57,92h-.9Z" fill="#3a3d3f"/><path d="M54,96.92h3.39V103a27.73,27.73,0,0,1-4.1.4c-3.79,0-4.79-2.3-4.79-6.4s1-6.4,4.79-6.4a21.88,21.88,0,0,1,4.1.5l-.1,1.2a26.49,26.49,0,0,0-3.9-.4c-2.89,0-3.5,1.7-3.5,5.2s.61,5.1,3.5,5.1a15.7,15.7,0,0,0,2.61-.3v-3.8H53.86v-1.2Z" fill="#3a3d3f"/><path d="M68.57,90.82l-3.3,12.5h-3.1l-3.3-12.5h1.4l2.9,11.2h1l2.9-11.2Z" fill="#3a3d3f"/><path d="M74.27,91.72a14.09,14.09,0,0,1,3.5-.5c2.8,0,3.8,1,3.8,3.1a2.82,2.82,0,0,1-1.8,2.7,2.64,2.64,0,0,1,2.1,2.9c0,2.4-1.2,3.6-3.9,3.6a18.63,18.63,0,0,1-3.9-.5l.1-1.1a20.49,20.49,0,0,0,3.6.4c1.8,0,2.6-.8,2.6-2.3a2.1,2.1,0,0,0-2.4-2.2h-2.4v-1.2H78a2.28,2.28,0,0,0,2.2-2.2c0-1.4-.7-1.9-2.4-1.9a16.72,16.72,0,0,0-3.3.4Z" fill="#3a3d3f"/><g style="isolation:isolate"><rect id="SVGID" x="95.67" y="157.32" width="14.3" height="64.2" fill="#76ce89"/><g clip-path="url(#clip-path)"><rect x="95.81" y="157.43" width="14" height="64.1" transform="matrix(1, 0, 0, 1, -0.74, 0.4)" fill="#76ce89"/></g></g><g style="isolation:isolate"><rect id="SVGID-2" data-name="SVGID" x="114.67" y="157.32" width="14.3" height="64.2" fill="#76ce89"/><g clip-path="url(#clip-path-2)"><rect x="114.81" y="157.43" width="14" height="64.1" transform="translate(-0.74 0.48) rotate(-0.22)" fill="#76ce89"/></g></g><g style="isolation:isolate"><rect id="SVGID-3" data-name="SVGID" x="133.67" y="163.02" width="14.3" height="58.6" fill="#76ce89"/><g clip-path="url(#clip-path-3)"><rect x="133.81" y="163.03" width="14" height="58.5" transform="translate(-0.75 0.55) rotate(-0.22)" fill="#76ce89"/></g></g><g style="isolation:isolate"><rect id="SVGID-4" data-name="SVGID" x="152.67" y="163.02" width="14.3" height="58.6" fill="#76ce89"/><g clip-path="url(#clip-path-4)"><rect x="152.81" y="163.03" width="14" height="58.5" transform="translate(-0.75 0.63) rotate(-0.22)" fill="#76ce89"/></g></g><g style="isolation:isolate"><rect id="SVGID-5" data-name="SVGID" x="171.67" y="166.72" width="14.2" height="54.8" fill="#76ce89"/><g clip-path="url(#clip-path-5)"><rect x="171.81" y="166.73" width="14" height="54.8" transform="translate(-0.76 0.7) rotate(-0.22)" fill="#76ce89"/></g></g><g style="isolation:isolate"><rect id="SVGID-6" data-name="SVGID" x="190.67" y="170.42" width="14.2" height="51.1" fill="#76ce89"/><g clip-path="url(#clip-path-6)"><rect x="190.81" y="170.53" width="14" height="51.1" transform="translate(-0.76 0.77) rotate(-0.22)" fill="#76ce89"/></g></g><g style="isolation:isolate"><rect id="SVGID-7" data-name="SVGID" x="209.67" y="170.42" width="14.2" height="51.1" fill="#76ce89"/><g clip-path="url(#clip-path-7)"><rect x="209.81" y="170.53" width="14" height="51" transform="translate(-0.76 0.85) rotate(-0.22)" fill="#76ce89"/></g></g><g style="isolation:isolate"><rect id="SVGID-8" data-name="SVGID" x="228.57" y="182.62" width="14.2" height="38.9" fill="#76ce89"/><g clip-path="url(#clip-path-8)"><rect x="228.71" y="182.63" width="14" height="38.9" transform="translate(-0.79 0.92) rotate(-0.22)" fill="#76ce89"/></g></g><g style="isolation:isolate"><g clip-path="url(#clip-path-9)"><rect x="247.61" y="188.23" width="14" height="33.3" transform="translate(-0.8 1) rotate(-0.22)" fill="#ffda00"/></g></g><g style="isolation:isolate"><g clip-path="url(#clip-path-10)"><rect x="266.51" y="192.03" width="14" height="29.5" transform="translate(-0.81 1.07) rotate(-0.22)" fill="#ffda00"/></g></g><g style="isolation:isolate"><rect id="SVGID-9" data-name="SVGID" x="285.27" y="166.72" width="14.2" height="54.8" fill="#76ce89"/><g clip-path="url(#clip-path-11)"><rect x="285.41" y="166.73" width="14" height="54.8" transform="matrix(1, 0, 0, 1, -0.76, 1.15)" fill="#76ce89"/></g></g><g style="isolation:isolate"><rect id="SVGID-10" data-name="SVGID" x="304.27" y="170.42" width="14.2" height="51.1" fill="#76ce89"/><g clip-path="url(#clip-path-12)"><rect x="304.41" y="170.53" width="14" height="51" transform="translate(-0.76 1.22) rotate(-0.22)" fill="#76ce89"/></g></g><g style="isolation:isolate"><rect id="SVGID-11" data-name="SVGID" x="323.27" y="170.42" width="14.2" height="51.1" fill="#76ce89"/><g clip-path="url(#clip-path-13)"><rect x="323.41" y="170.53" width="14" height="51" transform="translate(-0.76 1.29) rotate(-0.22)" fill="#76ce89"/></g></g><g style="isolation:isolate"><rect id="SVGID-12" data-name="SVGID" x="342.17" y="172.32" width="14.2" height="49.2" fill="#76ce89"/><g clip-path="url(#clip-path-14)"><rect x="342.31" y="172.33" width="14" height="49.2" transform="translate(-0.77 1.37) rotate(-0.22)" fill="#76ce89"/></g></g><g style="isolation:isolate"><rect id="SVGID-13" data-name="SVGID" x="361.17" y="172.32" width="14.2" height="49.2" fill="#76ce89"/><g clip-path="url(#clip-path-15)"><rect x="361.31" y="172.33" width="14" height="49.2" transform="translate(-0.77 1.44) rotate(-0.22)" fill="#76ce89"/></g></g><g style="isolation:isolate"><rect id="SVGID-14" data-name="SVGID" x="380.07" y="179.82" width="14.2" height="41.7" fill="#76ce89"/><g clip-path="url(#clip-path-16)"><rect x="380.21" y="179.83" width="14" height="41.7" transform="translate(-0.78 1.52) rotate(-0.22)" fill="#76ce89"/></g></g><g style="isolation:isolate"><rect id="SVGID-15" data-name="SVGID" x="399.07" y="179.82" width="14.2" height="41.7" fill="#76ce89"/><g clip-path="url(#clip-path-17)"><rect x="399.11" y="179.83" width="14" height="41.7" transform="translate(-0.78 1.59) rotate(-0.22)" fill="#76ce89"/></g></g><g style="isolation:isolate"><rect id="SVGID-16" data-name="SVGID" x="417.97" y="179.82" width="14.2" height="41.7" fill="#76ce89"/><g clip-path="url(#clip-path-18)"><rect x="418.11" y="179.83" width="14" height="41.7" transform="translate(-0.78 1.66) rotate(-0.22)" fill="#76ce89"/></g></g><g style="isolation:isolate"><rect id="SVGID-17" data-name="SVGID" x="436.87" y="179.82" width="14.2" height="41.7" fill="#76ce89"/><g clip-path="url(#clip-path-19)"><rect x="437.01" y="179.83" width="14" height="41.7" transform="matrix(1, 0, 0, 1, -0.78, 1.74)" fill="#76ce89"/></g></g><g style="isolation:isolate"><rect id="SVGID-18" data-name="SVGID" x="455.77" y="182.62" width="14.2" height="38.9" fill="#76ce89"/><g clip-path="url(#clip-path-20)"><rect x="455.91" y="182.63" width="14" height="38.9" transform="matrix(1, 0, 0, 1, -0.79, 1.81)" fill="#76ce89"/></g></g><g style="isolation:isolate"><rect id="SVGID-19" data-name="SVGID" x="474.67" y="183.52" width="14.2" height="38" fill="#76ce89"/><g clip-path="url(#clip-path-21)"><rect x="474.81" y="183.53" width="14" height="38" transform="translate(-0.79 1.88) rotate(-0.22)" fill="#76ce89"/></g></g><g style="isolation:isolate"><rect id="SVGID-20" data-name="SVGID" x="493.67" y="187.32" width="14.2" height="34.3" fill="#76ce89"/><g clip-path="url(#clip-path-22)"><rect x="493.71" y="187.33" width="14" height="34.2" transform="translate(-0.8 1.96) rotate(-0.22)" fill="#76ce89"/></g></g><g style="isolation:isolate"><g clip-path="url(#clip-path-23)"><rect x="512.61" y="192.03" width="14" height="29.6" transform="translate(-0.81 2.04) rotate(-0.22)" fill="#ffda00"/></g></g><g style="isolation:isolate"><rect id="SVGID-21" data-name="SVGID" x="76.57" y="152.72" width="14.3" height="68.9" fill="#76ce89"/><g clip-path="url(#clip-path-24)"><rect x="76.81" y="152.73" width="14" height="68.9" transform="translate(-0.73 0.33) rotate(-0.22)" fill="#76ce89"/></g></g><g style="isolation:isolate"><rect id="SVGID-22" data-name="SVGID" x="57.57" y="148.02" width="14.3" height="73.6" fill="#76ce89"/><g clip-path="url(#clip-path-25)"><rect x="57.71" y="148.03" width="14" height="73.6" transform="translate(-0.72 0.25) rotate(-0.22)" fill="#76ce89"/></g></g><circle cx="208.9" cy="430.84" r="20.92" fill="#bddff4" stroke="#2277d6" stroke-miterlimit="10" stroke-width="2"/><path d="M203.43,423.07a18.62,18.62,0,0,1,4.66-.67c3.74,0,5.06,1.32,5.06,4.13a4,4,0,0,1-2.35,3.6c1.61.58,2.73,1.27,2.73,3.84,0,3.19-1.56,4.78-5.13,4.78a26,26,0,0,1-5.21-.65l.17-1.51a28.52,28.52,0,0,0,4.85.53c2.35,0,3.43-1,3.43-3.08s-1.47-2.9-3.27-3h-3.19v-1.59h3.19a3,3,0,0,0,2.88-2.88c0-1.8-.88-2.54-3.24-2.54a24.13,24.13,0,0,0-4.41.48Z"/><circle cx="261.81" cy="430.84" r="20.92" fill="#bddff4"/><path d="M266.33,422.67v1.68h-7.71l-.43,5.16a9.11,9.11,0,0,1,3.72-1c3.1,0,5,1.3,5,4.68,0,3.65-2,5.52-5.3,5.52a26.31,26.31,0,0,1-5.26-.69l.22-1.47a31.48,31.48,0,0,0,4.87.53c2.18,0,3.57-1.29,3.57-3.74s-1.34-3.17-3.36-3.17a9.15,9.15,0,0,0-3.77,1l-1.27-.24.43-8.23Z"/><circle cx="314.72" cy="430.84" r="20.92" fill="#bddff4"/><path d="M318.93,424.35a36.45,36.45,0,0,0-4.18-.29c-2.76,0-4.27,2-4.27,5.47a13.55,13.55,0,0,1,4-.94c3.5,0,5.33,1.59,5.33,4.93s-2,5.23-5.55,5.23c-3.93,0-5.66-3.1-5.66-8.23,0-5.74,2.42-8.09,6.19-8.09a30.33,30.33,0,0,1,4.35.4Zm-8.47,6.81c0,3.39,1,6,3.76,6,2.36,0,3.63-1.28,3.63-3.6s-1.32-3.27-3.53-3.27A11,11,0,0,0,310.46,431.16Z"/><circle cx="367.63" cy="430.84" r="20.92" fill="#bddff4"/><path d="M362.66,436.83a36.45,36.45,0,0,0,4.18.29c2.9,0,4.34-1.78,4.37-5.52a14.66,14.66,0,0,1-4.13.91c-3.31,0-5.19-1.49-5.19-4.83s2.16-5.25,5.5-5.25c4,0,5.74,3.16,5.74,8.21,0,6.14-2.38,8.11-6.29,8.11a28.29,28.29,0,0,1-4.35-.43Zm8.57-6.82c-.05-3.46-1.06-5.95-3.84-5.95a3.33,3.33,0,0,0-3.58,3.62c0,2.23,1.2,3.19,3.41,3.19A14.77,14.77,0,0,0,371.23,430Z"/></g></g></svg>