<svg xmlns="http://www.w3.org/2000/svg" viewBox="0 0 566.31 517.94"><title>r_4_C_Screen</title><g id="Layer_2" data-name="Layer 2">
<g id="PF_Bg_2_Section"><rect width="566.31" height="517.94" fill="rgba(0,0,0,0)"/></g>
<g id="Layer_5" data-name="Layer 5"><rect x="182.57" y="335.01" width="41.81" height="41.81" fill="#bddff4" stroke="#2277d6" stroke-miterlimit="10" stroke-width="3"/><rect x="245.21" y="335.01" width="41.81" height="41.81" fill="#48b1ff"/><rect x="306.86" y="335.01" width="41.81" height="41.81" fill="#48b1ff"/><rect x="367.2" y="335.01" width="41.81" height="41.81" fill="#bddff4"/><path d="M318.23,350.63h8.21v2L321.35,364l-1.46-.46,5-11V352h-6.65Z"/><path d="M338.3,357.43c0,5.06-1.78,6.6-4.8,6.6s-4.83-1.5-4.83-6.58c0-5.44,1.77-7,4.81-7S338.3,352,338.3,357.43Zm-8,0c0,4.14,1.14,5.22,3.23,5.22s3.22-1.1,3.22-5.24c0-4.44-1-5.64-3.22-5.64S330.27,353,330.27,357.45Z"/><path d="M256,362.83v-1.3l3.86-4.06c1.64-1.7,2.66-2.78,2.66-4.34,0-1.76-1-2.32-2.88-2.32a19.21,19.21,0,0,0-3.42.44l-.12-1.28a16,16,0,0,1,3.82-.54c2.78,0,4.18,1.06,4.18,3.54,0,2-.9,3.14-2.76,4.94l-3.52,3.58h6.62v1.34Z"/><path d="M275.33,349.63V351h-6.42l-.36,4.3a7.62,7.62,0,0,1,3.1-.82c2.58,0,4.2,1.08,4.2,3.9,0,3-1.66,4.6-4.42,4.6a21.77,21.77,0,0,1-4.38-.58l.18-1.22a26.33,26.33,0,0,0,4.06.44,2.79,2.79,0,0,0,3-3.12c0-2-1.12-2.64-2.8-2.64a7.57,7.57,0,0,0-3.14.8l-1.06-.2.36-6.86Z"/><path d="M202.7,356.43c0,5.06-1.78,6.6-4.8,6.6s-4.82-1.5-4.82-6.58c0-5.44,1.76-7,4.8-7S202.7,351,202.7,356.43Zm-8,0c0,4.14,1.14,5.22,3.22,5.22s3.22-1.1,3.22-5.24c0-4.44-1-5.64-3.22-5.64S194.68,352,194.68,356.45Z"/><path d="M213.84,352.85c0,1.7-.66,2.4-2.2,3.08,1.42.64,2.4,1.42,2.4,3.32,0,2.9-2.24,3.78-5,3.78s-4.92-.82-4.92-3.56a3.52,3.52,0,0,1,2.28-3.54,3.06,3.06,0,0,1-2.06-3.1c0-2.28,1.82-3.42,4.7-3.42S213.84,350.53,213.84,352.85Zm-1.44,6.24c0-1.54-1-2-2.34-2.42H208c-1.38.38-2.18,1.06-2.18,2.54,0,1.82,1.4,2.42,3.28,2.42S212.4,361,212.4,359.09ZM206,353c0,1.22.66,1.86,2,2.32h2.1c1.36-.44,2.14-1.08,2.14-2.3,0-1.58-1.18-2.22-3.12-2.22S206,351.43,206,353Z"/><path d="M387.63,353.85c0,1.7-.66,2.4-2.2,3.08,1.42.64,2.4,1.42,2.4,3.32,0,2.9-2.24,3.78-5,3.78s-4.92-.82-4.92-3.56a3.52,3.52,0,0,1,2.28-3.54,3.06,3.06,0,0,1-2.06-3.1c0-2.28,1.82-3.42,4.7-3.42S387.63,351.53,387.63,353.85Zm-1.44,6.24c0-1.54-1-2-2.34-2.42h-2.1c-1.38.38-2.18,1.06-2.18,2.54,0,1.82,1.4,2.42,3.28,2.42S386.19,362,386.19,360.09Zm-6.4-6.08c0,1.22.66,1.86,2,2.32h2.1c1.36-.44,2.14-1.08,2.14-2.3,0-1.58-1.18-2.22-3.12-2.22S379.79,352.43,379.79,354Z"/><path d="M389.87,363.83v-1.3l3.86-4.06c1.64-1.7,2.66-2.78,2.66-4.34,0-1.76-1-2.32-2.88-2.32a19.21,19.21,0,0,0-3.42.44L390,351a16,16,0,0,1,3.82-.54c2.78,0,4.18,1.06,4.18,3.54,0,2-.9,3.14-2.76,4.94l-3.52,3.58h6.62v1.34Z"/></g><g id="CMs_Msk_Screen"><polygon points="374.82 264.46 374.82 288.78 409.12 288.88 409.11 252.43 396.12 262.38 374.82 264.46" fill="#8dd69d"/><path d="M38.68,26.38H47v1.36H40.22v5.4h5.71V34.5H40.22v5.72H38.68Z"/><path d="M49.2,40.22V26.38h1.54V38.84h6.09v1.38Z"/><path d="M58.78,26.38h1.54V40.22H58.78Z"/><path d="M69.19,33.14H73v6.8a33.9,33.9,0,0,1-4.51.48c-4.24,0-5.36-2.6-5.36-7.08s1.16-7.16,5.32-7.16A26,26,0,0,1,73,26.7L73,28a31.75,31.75,0,0,0-4.31-.42c-3.2,0-3.9,1.86-3.9,5.78s.68,5.72,3.88,5.72a18.58,18.58,0,0,0,2.87-.28V34.52h-2.3Z"/><path d="M84.61,34h-7v6.26H76V26.38h1.54v6.2h7v-6.2h1.52V40.22H84.61Z"/><path d="M88.08,26.38h10v1.38H93.86V40.22H92.34V27.76H88.08Z"/><line x1="36.24" y1="48.53" x2="535.83" y2="48.53" fill="none" stroke="#ddd" stroke-miterlimit="10"/><path d="M37.22,442.59h9v1.24h-3.8v11.22H41.05V443.83H37.22Z" fill="#3a3d3f"/><path d="M47.75,455.05V442.12H49.1v4.43a7.64,7.64,0,0,1,2.77-.68c2.47,0,3,1.22,3,4.43v4.75H53.56v-4.72c0-2.37-.27-3.26-1.92-3.26a7.41,7.41,0,0,0-2.54.54v7.44Z" fill="#3a3d3f"/><path d="M64.06,453.88l0,1.06a31.12,31.12,0,0,1-3.51.29c-2.68,0-3.56-1.57-3.56-4.63,0-3.42,1.47-4.73,3.76-4.73s3.62,1.26,3.62,4.21l-.07,1H58.39c0,1.92.59,2.93,2.35,2.93C62.1,454,64.06,453.88,64.06,453.88Zm-1-3.85c0-2.24-.68-3-2.27-3s-2.39.85-2.41,3Z" fill="#3a3d3f"/><path d="M70.46,455.05v-9H71.8v.63a6,6,0,0,1,2.63-.81,2.54,2.54,0,0,1,2.34.92,7.46,7.46,0,0,1,3.2-.92c2.45,0,3,1.17,3,4.43v4.75H81.66v-4.72c0-2.37-.27-3.26-1.89-3.26a6,6,0,0,0-2.54.67,9.8,9.8,0,0,1,.24,2.63v4.68H76.12V450.4c0-2.48-.25-3.33-1.89-3.33a5.4,5.4,0,0,0-2.42.67v7.31Z" fill="#3a3d3f"/><path d="M92.82,450.44c0,3.28-.81,4.79-3.85,4.79s-3.85-1.51-3.85-4.79c0-3.1,1-4.57,3.85-4.57S92.82,447.34,92.82,450.44Zm-1.38,0c0-2.5-.55-3.4-2.47-3.4s-2.47.9-2.47,3.4.34,3.62,2.47,3.62S91.44,453,91.44,450.44Z" fill="#3a3d3f"/><path d="M101,447.36a29.33,29.33,0,0,0-3.15-.29c-1.11,0-2,.31-2,1.37,0,.85.43,1.08,2.34,1.41,2.25.38,3.1.83,3.1,2.57,0,2.11-1.34,2.81-3.5,2.81a25.4,25.4,0,0,1-3.16-.34l.07-1.17s2,.3,3,.3c1.48,0,2.27-.32,2.27-1.54,0-.94-.47-1.17-2.43-1.48s-3-.7-3-2.5c0-2,1.6-2.63,3.24-2.63a23.19,23.19,0,0,1,3.26.34Z" fill="#3a3d3f"/><path d="M105.19,447.22v4.3c0,2,.12,2.52,1.29,2.52.51,0,1.61-.11,1.61-.11l.09,1.12a15.71,15.71,0,0,1-1.84.2c-1.86,0-2.49-.7-2.49-3.3v-4.73h-1.27v-1.17h1.27v-2.76h1.34v2.76h2.86v1.17Z" fill="#3a3d3f"/><path d="M119.64,447.36a29.33,29.33,0,0,0-3.15-.29c-1.12,0-2,.31-2,1.37,0,.85.43,1.08,2.34,1.41,2.25.38,3.1.83,3.1,2.57,0,2.11-1.34,2.81-3.5,2.81a25.65,25.65,0,0,1-3.17-.34l.08-1.17s2.05.3,3,.3c1.47,0,2.27-.32,2.27-1.54,0-.94-.47-1.17-2.43-1.48s-3-.7-3-2.5c0-2,1.6-2.63,3.24-2.63a23.19,23.19,0,0,1,3.26.34Z" fill="#3a3d3f"/><path d="M129,446.05v9h-1.35v-.63a6.07,6.07,0,0,1-2.66.81c-2.52,0-3-1.17-3-4.48v-4.7h1.35v4.68c0,2.48.22,3.29,1.9,3.29a5.46,5.46,0,0,0,2.46-.66v-7.31Z" fill="#3a3d3f"/><path d="M131.59,442.45h1.35V444h-1.35Zm0,3.6h1.35v9h-1.35Z" fill="#3a3d3f"/><path d="M137.33,447.22v4.3c0,2,.13,2.52,1.3,2.52.51,0,1.6-.11,1.6-.11l.09,1.12a15.44,15.44,0,0,1-1.83.2c-1.86,0-2.49-.7-2.49-3.3v-4.73h-1.28v-1.17H136v-2.76h1.33v2.76h2.87v1.17Z" fill="#3a3d3f"/><path d="M148.21,453.38c0,.52.47.72,1,.79l-.05,1.06a2.74,2.74,0,0,1-2.14-.72,9.22,9.22,0,0,1-3.25.72c-1.63,0-2.53-.94-2.53-2.75s.9-2.49,2.75-2.67l2.83-.27v-.77c0-1.26-.54-1.71-1.62-1.71-1.26,0-3.41.23-3.41.23l-.05-1a22.13,22.13,0,0,1,3.53-.39c2,0,2.9.93,2.9,2.9Zm-4-2.56c-1.09.11-1.53.63-1.53,1.62s.45,1.66,1.37,1.66a9.57,9.57,0,0,0,2.83-.56v-3Z" fill="#3a3d3f"/><path d="M158.13,450.4c0,3.59-1,4.83-4.25,4.83-1.08,0-3-.2-3-.2V442.12h1.33v4.38a7.44,7.44,0,0,1,2.65-.63C157.3,445.87,158.13,447.16,158.13,450.4Zm-1.37,0c0-2.32-.47-3.33-2-3.33a7.47,7.47,0,0,0-2.51.53v6.33s1.17.09,1.66.09C156.33,454,156.76,452.93,156.76,450.4Z" fill="#3a3d3f"/><path d="M160.45,442.12h1.35v12.93h-1.35Z" fill="#3a3d3f"/><path d="M171.14,453.88l0,1.06a31.38,31.38,0,0,1-3.51.29c-2.69,0-3.57-1.57-3.57-4.63,0-3.42,1.48-4.73,3.76-4.73s3.62,1.26,3.62,4.21l-.07,1h-5.94c0,1.92.59,2.93,2.36,2.93C169.18,454,171.14,453.88,171.14,453.88Zm-1-3.85c0-2.24-.68-3-2.27-3s-2.39.85-2.41,3Z" fill="#3a3d3f"/><path d="M183.61,446.23l-.07,1.91s-1.42-.15-2.1-.15c-1.73,0-2.06.67-2.06,2.47,0,2,.34,2.65,2.07,2.65.69,0,2.09-.15,2.09-.15l.07,1.93a21,21,0,0,1-2.93.38c-2.68,0-3.75-1.43-3.75-4.81,0-3.19,1.12-4.63,3.8-4.63A18.14,18.14,0,0,1,183.61,446.23Z" fill="#3a3d3f"/><path d="M185.39,455.05v-12.6h2.42v4a5.94,5.94,0,0,1,2.23-.65c2.52,0,3.17,1.59,3.17,4.34v4.88H190.8v-4.82c0-1.36-.18-2.24-1.35-2.24a5.84,5.84,0,0,0-1.64.29v6.77Z" fill="#3a3d3f"/><path d="M202.48,453l0,1.78a18.83,18.83,0,0,1-3.74.51c-2.72,0-3.87-1.35-3.87-4.59s1.35-4.85,4-4.85,3.92,1.35,3.92,4.07l-.18,1.68h-5.29c0,1.08.52,1.56,1.82,1.56C200.62,453.14,202.48,453,202.48,453Zm-2-3.24c0-1.46-.42-1.93-1.55-1.93s-1.55.56-1.57,1.93Z" fill="#3a3d3f"/><path d="M210.78,446.23l-.08,1.91s-1.42-.15-2.1-.15c-1.73,0-2.06.67-2.06,2.47,0,2,.35,2.65,2.07,2.65.69,0,2.09-.15,2.09-.15l.08,1.93a21.2,21.2,0,0,1-2.94.38c-2.68,0-3.74-1.43-3.74-4.81,0-3.19,1.11-4.63,3.79-4.63A18.33,18.33,0,0,1,210.78,446.23Z" fill="#3a3d3f"/><path d="M212.56,455.05v-12.6H215v7.16l.92-.16,1.78-3.4h2.7L218,450.32l2.47,4.73h-2.72L216,451.54l-1,.16v3.35Z" fill="#3a3d3f"/><path d="M221.72,449.16h5.33v2.2h-5.33Z" fill="#3a3d3f"/><path d="M229.17,442.45h2.41v2.45h-2.41Zm0,3.6h2.41v9h-2.41Z" fill="#3a3d3f"/><path d="M233.81,455.05v-9h2.4v.5a5.42,5.42,0,0,1,2.25-.72c2.52,0,3.17,1.59,3.17,4.34v4.88h-2.42v-4.81c0-1.37-.18-2.25-1.35-2.25a4.81,4.81,0,0,0-1.63.33v6.73Z" fill="#3a3d3f"/><path d="M255.38,455.05H253v-.38a6.43,6.43,0,0,1-2.17.6c-2.72,0-3.51-1.59-3.51-4.76s1.27-4.68,3.72-4.68a14.17,14.17,0,0,1,1.95.25v-3.63h2.41ZM253,452.84V448.1a12,12,0,0,0-1.77-.18c-.9,0-1.46.77-1.46,2.59s.35,2.6,1.48,2.6A7.07,7.07,0,0,0,253,452.84Z" fill="#3a3d3f"/><path d="M264.74,453l0,1.78a18.83,18.83,0,0,1-3.74.51c-2.72,0-3.87-1.35-3.87-4.59s1.35-4.85,4-4.85,3.92,1.35,3.92,4.07l-.18,1.68h-5.29c0,1.08.52,1.56,1.82,1.56C262.88,453.14,264.74,453,264.74,453Zm-2.05-3.24c0-1.46-.42-1.93-1.55-1.93s-1.55.56-1.57,1.93Z" fill="#3a3d3f"/><path d="M273.25,448.3S271,448,270,448s-1.26.23-1.26.72.34.51,2,.81c2.09.38,2.83,1,2.83,2.81,0,2.11-1.37,2.92-3.62,2.92a22.26,22.26,0,0,1-3.46-.44l.08-2s2.23.29,3.15.29c1.15,0,1.46-.24,1.46-.71s-.2-.57-1.86-.84c-1.94-.33-3-.79-3-2.78s1.58-2.93,3.48-2.93a23.2,23.2,0,0,1,3.49.45Z" fill="#3a3d3f"/><path d="M275.28,455.05v-12.6h2.42v7.16l.92-.16,1.78-3.4h2.7l-2.34,4.27,2.47,4.73h-2.72l-1.82-3.51-1,.16v3.35Z" fill="#3a3d3f"/><path d="M291,448.3s-2.23-.29-3.28-.29-1.26.23-1.26.72.34.51,2,.81c2.09.38,2.83,1,2.83,2.81,0,2.11-1.37,2.92-3.62,2.92a22.07,22.07,0,0,1-3.46-.44l.07-2s2.23.29,3.15.29c1.16,0,1.46-.24,1.46-.71s-.2-.57-1.85-.84c-1.95-.33-3-.79-3-2.78s1.58-2.93,3.47-2.93a23,23,0,0,1,3.49.45Z" fill="#3a3d3f"/><path d="M298.92,455.05h-1.35v-7.83h-1.14v-1.17h1.14v-.81c0-2.59.66-3.3,2.43-3.3.61,0,1.82.13,1.82.13l0,1.12s-1,0-1.55,0c-1,0-1.33.43-1.33,2.11v.79h2.61v1.17h-2.61Z" fill="#3a3d3f"/><path d="M310.46,450.44c0,3.28-.81,4.79-3.86,4.79s-3.85-1.51-3.85-4.79c0-3.1,1-4.57,3.85-4.57S310.46,447.34,310.46,450.44Zm-1.39,0c0-2.5-.54-3.4-2.47-3.4s-2.46.9-2.46,3.4.34,3.62,2.46,3.62S309.07,453,309.07,450.44Z" fill="#3a3d3f"/><path d="M312.65,446.05H314v1.22a10.17,10.17,0,0,1,3.3-1.42v1.37a13.15,13.15,0,0,0-3.28,1.22v6.61h-1.35Z" fill="#3a3d3f"/><path d="M324.64,447.22v4.3c0,2,.13,2.52,1.3,2.52.5,0,1.6-.11,1.6-.11l.09,1.12a15.71,15.71,0,0,1-1.84.2c-1.85,0-2.48-.7-2.48-3.3v-4.73H322v-1.17h1.28v-2.76h1.33v2.76h2.86v1.17Z" fill="#3a3d3f"/><path d="M329.16,455.05V442.12h1.35v4.43a7.64,7.64,0,0,1,2.77-.68c2.47,0,3,1.22,3,4.43v4.75H335v-4.72c0-2.37-.27-3.26-1.92-3.26a7.41,7.41,0,0,0-2.54.54v7.44Z" fill="#3a3d3f"/><path d="M338.82,442.45h1.35V444h-1.35Zm0,3.6h1.35v9h-1.35Z" fill="#3a3d3f"/><path d="M348.74,447.36a29,29,0,0,0-3.15-.29c-1.11,0-2,.31-2,1.37,0,.85.43,1.08,2.34,1.41,2.25.38,3.1.83,3.1,2.57,0,2.11-1.33,2.81-3.49,2.81a25.4,25.4,0,0,1-3.17-.34l.07-1.17s2,.3,3,.3c1.48,0,2.27-.32,2.27-1.54,0-.94-.47-1.17-2.43-1.48s-3-.7-3-2.5c0-2,1.6-2.63,3.24-2.63a23.19,23.19,0,0,1,3.26.34Z" fill="#3a3d3f"/><path d="M356.83,455.05h-1.35v-7.83h-1.14v-1.17h1.14v-.81c0-2.59.66-3.3,2.43-3.3.61,0,1.81.13,1.81.13v1.12s-1,0-1.55,0c-1,0-1.33.43-1.33,2.11v.79h2.61v1.17h-2.61Z" fill="#3a3d3f"/><path d="M361.16,442.12h1.35v12.93h-1.35Z" fill="#3a3d3f"/><path d="M365.21,442.45h1.35V444h-1.35Zm0,3.6h1.35v9h-1.35Z" fill="#3a3d3f"/><path d="M368.76,456.56c0-1,.49-1.53,1.42-2.23a1.47,1.47,0,0,1-.5-1.24,5.82,5.82,0,0,1,.61-1.42c-.76-.35-1.42-1.07-1.42-2.72,0-2.22,1.37-3.08,3.36-3.08a9.6,9.6,0,0,1,1.88.23l2.66-.07v1.15l-1.71,0a2.34,2.34,0,0,1,.59,1.8c0,2.34-1.17,3-3.47,3-.18,0-.68,0-.88-.07a5.3,5.3,0,0,0-.33,1c0,.72.15.83,2.18.83,2.56,0,3.48.51,3.48,2.65s-1.46,2.86-4,2.86C369.79,459.28,368.76,458.65,368.76,456.56Zm2.34-1.69c-.76.56-1,.88-1,1.58,0,1.25.52,1.7,2.56,1.7,1.8,0,2.61-.49,2.61-1.68,0-1.36-.58-1.51-2.22-1.51C372.41,455,371.1,454.87,371.1,454.87Zm3.21-5.92c0-1.43-.56-2-2.08-2s-2,.55-2,2,.61,2,2,2S374.31,450.37,374.31,449Z" fill="#3a3d3f"/><path d="M378.41,455.05V442.12h1.35v4.43a7.64,7.64,0,0,1,2.77-.68c2.47,0,3,1.22,3,4.43v4.75h-1.35v-4.72c0-2.37-.27-3.26-1.92-3.26a7.41,7.41,0,0,0-2.54.54v7.44Z" fill="#3a3d3f"/><path d="M389.87,447.22v4.3c0,2,.13,2.52,1.3,2.52.5,0,1.6-.11,1.6-.11l.09,1.12a15.44,15.44,0,0,1-1.83.2c-1.86,0-2.49-.7-2.49-3.3v-4.73h-1.28v-1.17h1.28v-2.76h1.33v2.76h2.87v1.17Z" fill="#3a3d3f"/><path d="M404.71,453.38c0,.52.47.72,1,.79l-.05,1.06a2.74,2.74,0,0,1-2.14-.72,9.22,9.22,0,0,1-3.25.72c-1.63,0-2.54-.94-2.54-2.75s.91-2.49,2.76-2.67l2.83-.27v-.77c0-1.26-.54-1.71-1.62-1.71-1.26,0-3.41.23-3.41.23l-.05-1a22.13,22.13,0,0,1,3.53-.39c2,0,2.9.93,2.9,2.9Zm-4-2.56c-1.1.11-1.53.63-1.53,1.62s.45,1.66,1.37,1.66a9.57,9.57,0,0,0,2.83-.56v-3Z" fill="#3a3d3f"/><path d="M407.37,446.05h1.33v1.22a10.17,10.17,0,0,1,3.3-1.42v1.37a13,13,0,0,0-3.28,1.22v6.61h-1.35Z" fill="#3a3d3f"/><path d="M420.24,453.88l0,1.06a31.38,31.38,0,0,1-3.51.29c-2.69,0-3.57-1.57-3.57-4.63,0-3.42,1.48-4.73,3.76-4.73s3.62,1.26,3.62,4.21l-.07,1h-5.94c0,1.92.59,2.93,2.36,2.93C418.28,454,420.24,453.88,420.24,453.88Zm-1-3.85c0-2.24-.68-3-2.27-3s-2.39.85-2.41,3Z" fill="#3a3d3f"/><path d="M426.52,455.05v-2.11l2.54-2.57c1.55-1.59,2.41-2.5,2.41-3.66s-.56-1.56-1.94-1.56a20.22,20.22,0,0,0-2.81.27l-.13-1.93a14,14,0,0,1,3.57-.54c2.72,0,3.87,1.19,3.87,3.4,0,1.84-.7,2.89-2.67,4.67l-2.07,1.87h4.94v2.16Z" fill="#3a3d3f"/><path d="M444.25,443.17v2.16h-5.31l-.3,2.57a6.9,6.9,0,0,1,2.12-.43c2.43,0,3.85,1.08,3.85,3.58,0,2.69-1.47,4.22-4.07,4.22a18.75,18.75,0,0,1-4.21-.67l.27-1.84a29.09,29.09,0,0,0,3.64.35,1.64,1.64,0,0,0,1.82-1.79c0-1.2-.53-1.69-1.66-1.69a8.35,8.35,0,0,0-2.25.31l-1.48-.34.33-6.43Z" fill="#3a3d3f"/><path d="M457.12,453.38c0,.52.47.72,1.05.79l-.06,1.06a2.75,2.75,0,0,1-2.14-.72,9.2,9.2,0,0,1-3.24.72c-1.64,0-2.54-.94-2.54-2.75s.9-2.49,2.75-2.67l2.83-.27v-.77c0-1.26-.54-1.71-1.62-1.71-1.26,0-3.4.23-3.4.23l-.06-1a22.3,22.3,0,0,1,3.53-.39c2,0,2.9.93,2.9,2.9Zm-4-2.56c-1.1.11-1.53.63-1.53,1.62s.45,1.66,1.36,1.66a9.48,9.48,0,0,0,2.83-.56v-3Z" fill="#3a3d3f"/><path d="M459.78,455.05v-9h1.34v.63a6.79,6.79,0,0,1,2.79-.81c2.48,0,3,1.22,3,4.43v4.75h-1.33v-4.72c0-2.37-.27-3.26-1.95-3.26a6.18,6.18,0,0,0-2.54.67v7.31Z" fill="#3a3d3f"/><path d="M476.36,455.05H475v-.61a6.48,6.48,0,0,1-2.73.79c-1.77,0-3.25-.72-3.25-4.61,0-3.17,1-4.75,3.77-4.75a15.79,15.79,0,0,1,2.21.23v-4h1.33ZM475,453.36v-6.11a16.07,16.07,0,0,0-2.14-.21c-1.89,0-2.45,1.24-2.45,3.58,0,2.92.95,3.4,2,3.4A6.54,6.54,0,0,0,475,453.36Z" fill="#3a3d3f"/><path d="M482.88,443.17h7.6V446l-4.24,9.29-2.3-.65L488,446v-.58h-5.11Z" fill="#3a3d3f"/><path d="M501.37,449.18c0,4.5-1.66,6.09-4.61,6.09s-4.61-1.59-4.61-6.09,1.65-6.23,4.61-6.23S501.37,444.68,501.37,449.18Zm-6.67,0c0,2.92.63,3.93,2.07,3.93s2-1,2-3.93c0-3.1-.59-4.07-2-4.07S494.7,446.08,494.7,449.18Z" fill="#3a3d3f"/><path d="M502.8,452.06h2.6v3h-2.6Z" fill="#3a3d3f"/><path d="M38.51,97.49H71.12v3.4H38.51Zm33.5-16a2.56,2.56,0,0,0-3.2-1.8l-9.1,2.4-11.8-11-3.3.9,7.1,12.3-8.5,2.3L39.81,84l-2.5.7,3.11,5.4,1.3,2.3,2.7-.7,9.1-2.4,7.5-2,9.1-2.4A2.83,2.83,0,0,0,72,81.49Z" fill="#f2a120"/><path d="M40.9,187.07v4.19H39.51V178.8h4.56c2.72,0,4,1.32,4,4s-1.26,4.25-4,4.25Zm3.15-1.23c1.82,0,2.58-1.09,2.58-3S45.87,180,44.05,180H40.9v5.81Z" fill="#4c4c4c"/><path d="M56.31,189.59c0,.52.47.72,1,.79l-.05,1.06a2.75,2.75,0,0,1-2.14-.72,9.2,9.2,0,0,1-3.24.72c-1.64,0-2.54-.93-2.54-2.75s.9-2.49,2.75-2.67l2.83-.27V185c0-1.26-.54-1.71-1.62-1.71-1.26,0-3.4.23-3.4.23l-.06-1a21.6,21.6,0,0,1,3.53-.4c2,0,2.9.94,2.9,2.9Zm-4-2.56c-1.09.11-1.53.63-1.53,1.62s.45,1.66,1.37,1.66a9.48,9.48,0,0,0,2.83-.56v-3Z" fill="#4c4c4c"/><path d="M65,183.57a30.35,30.35,0,0,0-3.15-.28c-1.12,0-2,.3-2,1.37,0,.84.43,1.08,2.34,1.4,2.25.38,3.09.83,3.09,2.57,0,2.11-1.33,2.81-3.49,2.81a25.65,25.65,0,0,1-3.17-.34l.07-1.17a29.86,29.86,0,0,0,3,.31c1.48,0,2.27-.33,2.27-1.55,0-.94-.47-1.17-2.43-1.48s-3-.7-3-2.5c0-2,1.6-2.63,3.24-2.63a23.19,23.19,0,0,1,3.26.34Z" fill="#4c4c4c"/><path d="M73.32,183.57a30.35,30.35,0,0,0-3.15-.28c-1.12,0-2,.3-2,1.37,0,.84.43,1.08,2.34,1.4,2.25.38,3.09.83,3.09,2.57,0,2.11-1.33,2.81-3.49,2.81A25.65,25.65,0,0,1,67,191.1l.07-1.17a29.86,29.86,0,0,0,3,.31c1.48,0,2.27-.33,2.27-1.55,0-.94-.47-1.17-2.43-1.48s-3-.7-3-2.5c0-2,1.6-2.63,3.24-2.63a23.19,23.19,0,0,1,3.26.34Z" fill="#4c4c4c"/><path d="M82.36,190.09l0,1.07a32.2,32.2,0,0,1-3.51.28c-2.68,0-3.56-1.56-3.56-4.62,0-3.42,1.47-4.74,3.76-4.74s3.62,1.26,3.62,4.21l-.07,1H76.68c0,1.93.6,2.94,2.36,2.94C80.39,190.26,82.36,190.09,82.36,190.09Zm-1-3.85c0-2.23-.69-3-2.27-3s-2.4.84-2.41,3Z" fill="#4c4c4c"/><path d="M84.8,191.26v-9h1.33v.63a6.86,6.86,0,0,1,2.8-.81c2.48,0,3,1.23,3,4.43v4.75H90.64v-4.71c0-2.38-.27-3.26-2-3.26a6.19,6.19,0,0,0-2.54.66v7.31Z" fill="#4c4c4c"/><path d="M94.07,192.78c0-1.05.49-1.53,1.42-2.24a1.46,1.46,0,0,1-.5-1.24,5.82,5.82,0,0,1,.61-1.42c-.75-.34-1.42-1.06-1.42-2.72,0-2.22,1.37-3.08,3.37-3.08a9.07,9.07,0,0,1,1.87.24l2.66-.08v1.16l-1.71,0a2.31,2.31,0,0,1,.6,1.8c0,2.34-1.17,3-3.48,3a6.79,6.79,0,0,1-.88-.07,5.32,5.32,0,0,0-.32,1c0,.72.14.83,2.18.83,2.55,0,3.47.5,3.47,2.64s-1.46,2.86-4,2.86C95.1,195.49,94.07,194.86,94.07,192.78Zm2.34-1.7c-.75.56-1,.89-1,1.59,0,1.24.53,1.69,2.56,1.69,1.8,0,2.61-.49,2.61-1.67,0-1.37-.57-1.52-2.21-1.52C97.73,191.17,96.41,191.08,96.41,191.08Zm3.21-5.92c0-1.42-.56-2-2.07-2s-2,.56-2,2,.61,2,2,2S99.62,186.58,99.62,185.16Z" fill="#4c4c4c"/><path d="M110.36,190.09l0,1.07a32.2,32.2,0,0,1-3.51.28c-2.68,0-3.57-1.56-3.57-4.62,0-3.42,1.48-4.74,3.77-4.74s3.62,1.26,3.62,4.21l-.08,1h-5.94c0,1.93.6,2.94,2.36,2.94C108.4,190.26,110.36,190.09,110.36,190.09Zm-1-3.85c0-2.23-.68-3-2.26-3s-2.4.84-2.42,3Z" fill="#4c4c4c"/><path d="M112.81,182.26h1.33v1.23a10.08,10.08,0,0,1,3.3-1.43v1.37a12.78,12.78,0,0,0-3.28,1.23v6.6h-1.35Z" fill="#4c4c4c"/><path d="M125,183.57a30.34,30.34,0,0,0-3.16-.28c-1.11,0-2,.3-2,1.37,0,.84.43,1.08,2.34,1.4,2.25.38,3.1.83,3.1,2.57,0,2.11-1.33,2.81-3.49,2.81a25.4,25.4,0,0,1-3.17-.34l.07-1.17a29.5,29.5,0,0,0,3,.31c1.48,0,2.27-.33,2.27-1.55,0-.94-.47-1.17-2.43-1.48s-3-.7-3-2.5c0-2,1.6-2.63,3.24-2.63a23.19,23.19,0,0,1,3.26.34Z" fill="#4c4c4c"/><path d="M297.06,74.74h8v1.11h-3.38v10h-1.21v-10h-3.41Z" fill="#4c4c4c"/><path d="M306.42,74.61h1.2V76h-1.2Zm0,3.2h1.2v8h-1.2Z" fill="#4c4c4c"/><path d="M309.92,85.82v-8h1.18v.56a5.43,5.43,0,0,1,2.34-.72,2.24,2.24,0,0,1,2.08.82,6.67,6.67,0,0,1,2.85-.82c2.18,0,2.71,1,2.71,3.94v4.23h-1.2v-4.2c0-2.11-.24-2.89-1.68-2.89a5.3,5.3,0,0,0-2.26.59,9.29,9.29,0,0,1,.21,2.34v4.16H315V81.69c0-2.21-.23-3-1.68-3a4.82,4.82,0,0,0-2.15.59v6.5Z" fill="#4c4c4c"/><path d="M329.2,84.78l0,.94a27.37,27.37,0,0,1-3.12.26c-2.38,0-3.17-1.39-3.17-4.12,0-3,1.32-4.21,3.35-4.21s3.22,1.13,3.22,3.75l-.07.91h-5.28c0,1.72.53,2.61,2.1,2.61C327.46,84.92,329.2,84.78,329.2,84.78Zm-.89-3.43c0-2-.61-2.69-2-2.69s-2.13.76-2.15,2.69Z" fill="#4c4c4c"/><path d="M332.91,85.82h-1.2v-7h-1v-1h1v-.72c0-2.3.6-2.93,2.16-2.93.55,0,1.62.12,1.62.12l0,1s-.89,0-1.37,0c-.9,0-1.19.38-1.19,1.87v.7h2.32v1h-2.32Z" fill="#4c4c4c"/><path d="M336.67,77.81h1.19V78.9a9,9,0,0,1,2.93-1.26v1.22a11.6,11.6,0,0,0-2.92,1.08v5.88h-1.2Z" fill="#4c4c4c"/><path d="M347.86,84.33c0,.46.41.64.93.7l-.05,1a2.46,2.46,0,0,1-1.91-.64A8.18,8.18,0,0,1,344,86c-1.45,0-2.25-.83-2.25-2.45s.8-2.21,2.44-2.37l2.52-.24v-.69c0-1.12-.48-1.52-1.44-1.52-1.12,0-3,.21-3,.21l-.05-.91a19.15,19.15,0,0,1,3.14-.36c1.81,0,2.58.84,2.58,2.58Zm-3.57-2.27c-1,.09-1.36.56-1.36,1.44s.4,1.47,1.21,1.47a8.45,8.45,0,0,0,2.52-.5V81.83Z" fill="#4c4c4c"/><path d="M350.22,85.82v-8h1.19v.56a5.37,5.37,0,0,1,2.34-.72,2.26,2.26,0,0,1,2.08.82,6.61,6.61,0,0,1,2.85-.82c2.17,0,2.7,1,2.7,3.94v4.23h-1.2v-4.2c0-2.11-.24-2.89-1.68-2.89a5.3,5.3,0,0,0-2.26.59,8.84,8.84,0,0,1,.21,2.34v4.16h-1.2V81.69c0-2.21-.22-3-1.68-3a4.82,4.82,0,0,0-2.15.59v6.5Z" fill="#4c4c4c"/><path d="M369.51,84.78l0,.94a27.63,27.63,0,0,1-3.12.26c-2.39,0-3.17-1.39-3.17-4.12,0-3,1.31-4.21,3.34-4.21s3.22,1.13,3.22,3.75l-.06.91h-5.29c0,1.72.53,2.61,2.1,2.61C367.76,84.92,369.51,84.78,369.51,84.78Zm-.9-3.43c0-2-.61-2.69-2-2.69s-2.13.76-2.14,2.69Z" fill="#4c4c4c"/><path d="M271.92,95.53h2.45v15.84H271.7V98.55L268,101l-1.22-2Z" fill="#4c4c4c"/><path d="M290.54,99.49a3.59,3.59,0,0,1-2.11,3.67c1.47.94,2.35,1.8,2.35,3.91,0,3.41-2.71,4.56-6,4.56s-5.95-1-5.95-4.29a4.38,4.38,0,0,1,2.3-4.18,3.79,3.79,0,0,1-2-3.7c0-2.73,2.23-4.2,5.69-4.2S290.54,96.7,290.54,99.49Zm-2.61,7.22c0-1.25-.79-1.89-2-2.28h-2.3a2.35,2.35,0,0,0-1.95,2.33c0,1.78,1.2,2.47,3.1,2.47S287.93,108.54,287.93,106.71Zm-6-6.84a2.43,2.43,0,0,0,1.68,2.28h2.3c1.13-.53,1.78-1.2,1.78-2.28,0-1.49-1.06-2.21-2.91-2.21S281.93,98.36,281.93,99.87Z" fill="#4c4c4c"/><path d="M293,100.64h2.81v3.46H293Zm0,7.27h2.81v3.46H293Z" fill="#4c4c4c"/><path d="M305.35,108.54h-7.13v-2l4.18-11h3l-4.41,10.68h4.41v-4.66H308v4.66h1.73v2.33H308v2.83h-2.69Z" fill="#4c4c4c"/><path d="M322.32,95.53v2.35H315l-.41,4.18a8.93,8.93,0,0,1,3.21-.75c3.17,0,5.09,1.37,5.09,4.75,0,3.6-2,5.57-5.37,5.57a25.12,25.12,0,0,1-5.45-.81l.28-2a36.25,36.25,0,0,0,4.85.48,2.67,2.67,0,0,0,2.93-3c0-2-1-2.67-2.69-2.67a9.38,9.38,0,0,0-3.33.65l-1.68-.36.43-8.42Z" fill="#4c4c4c"/><path d="M330.89,103.71h7.17v2.38h-7.17Z" fill="#4c4c4c"/><path d="M352.08,95.53h2.44v15.84h-2.66V98.55l-3.72,2.4-1.22-2Z" fill="#4c4c4c"/><path d="M359.85,109a36.57,36.57,0,0,0,4.35.33c2.47,0,3.67-1.6,3.69-4.6a14,14,0,0,1-3.5.81c-3.39,0-5.33-1.58-5.33-5s2.18-5.28,5.66-5.28c4.11,0,5.93,3.12,5.93,8.16,0,6.22-2.47,8.21-6.45,8.21a25.68,25.68,0,0,1-4.59-.57Zm8.07-6.51c0-2.76-.84-4.87-3.2-4.87a2.7,2.7,0,0,0-2.9,3c0,1.8,1,2.62,2.78,2.62A11.44,11.44,0,0,0,367.92,102.46Z" fill="#4c4c4c"/><path d="M373.15,100.64H376v3.46h-2.81Zm0,7.27H376v3.46h-2.81Z" fill="#4c4c4c"/><path d="M385.51,108.54h-7.13v-2l4.18-11h2.95l-4.42,10.68h4.42v-4.66h2.69v4.66h1.72v2.33H388.2v2.83h-2.69Z" fill="#4c4c4c"/><path d="M402.48,95.53v2.35h-7.35l-.41,4.18a8.94,8.94,0,0,1,3.22-.75c3.17,0,5.09,1.37,5.09,4.75,0,3.6-2,5.57-5.38,5.57a25.12,25.12,0,0,1-5.45-.81l.29-2a36,36,0,0,0,4.85.48,2.67,2.67,0,0,0,2.93-3c0-2-1-2.67-2.69-2.67a9.47,9.47,0,0,0-3.34.65l-1.68-.36.43-8.42Z" fill="#4c4c4c"/><line x1="75.12" y1="203.58" x2="75.12" y2="289.28" fill="none" stroke="#adadad" stroke-miterlimit="10"/><line x1="529.92" y1="288.88" x2="75.12" y2="288.88" fill="none" stroke="#adadad" stroke-miterlimit="10"/><path d="M80.62,305h-3.5v-.7l2.1-5.2h.9l-2.1,5.1h2.6v-2.3h.8v2.3h.9v.7h-.9v1.4h-.8Z" fill="#4c4c4c"/><path d="M163.62,300.88a1.71,1.71,0,0,1-1.2,1.7c.8.4,1.3.8,1.3,1.8,0,1.6-1.2,2.1-2.7,2.1s-2.7-.5-2.7-2a1.87,1.87,0,0,1,1.3-1.9,1.63,1.63,0,0,1-1.1-1.7c0-1.3,1-1.9,2.6-1.9C162.52,299,163.62,299.58,163.62,300.88Zm-.8,3.4c0-.8-.6-1.1-1.3-1.3h-1.2a1.32,1.32,0,0,0-1.2,1.4c0,1,.8,1.3,1.8,1.3S162.82,305.38,162.82,304.28Zm-3.5-3.3c0,.7.4,1,1.1,1.3h1.2c.7-.2,1.2-.6,1.2-1.3,0-.9-.6-1.2-1.7-1.2S159.32,300.08,159.32,301Z" fill="#4c4c4c"/><path d="M242.62,299.08h.8v7.3h-.8v-6.3l-1.9,1.2-.4-.6Z" fill="#4c4c4c"/><path d="M246,306.38v-.7l2.1-2.2c.9-.9,1.5-1.5,1.5-2.4s-.5-1.3-1.6-1.3a13.13,13.13,0,0,0-1.9.2l-.1-.7a8.25,8.25,0,0,1,2.1-.3c1.5,0,2.3.6,2.3,1.9,0,1.1-.5,1.7-1.5,2.7l-1.9,2h3.6v.7H246Z" fill="#4c4c4c"/><path d="M330,299.08h.8v7.3H330v-6.3l-1.9,1.2-.4-.6Z" fill="#4c4c4c"/><path d="M337.92,299.88s-1-.1-1.9-.1c-1.3,0-2,.9-2,2.5a5.91,5.91,0,0,1,1.8-.4c1.6,0,2.4.7,2.4,2.3a2.24,2.24,0,0,1-2.5,2.4c-1.8,0-2.6-1.4-2.6-3.8,0-2.6,1.1-3.7,2.8-3.7a13.38,13.38,0,0,1,2,.2Zm-3.8,3.1c0,1.6.5,2.7,1.7,2.7a1.5,1.5,0,0,0,1.7-1.6,1.4,1.4,0,0,0-1.6-1.5A5.11,5.11,0,0,0,334.12,303Z" fill="#4c4c4c"/><path d="M414.62,306.38v-.7l2.1-2.2c.9-.9,1.5-1.5,1.5-2.4s-.5-1.3-1.6-1.3a13.13,13.13,0,0,0-1.9.2l-.1-.7a8.25,8.25,0,0,1,2.1-.3c1.5,0,2.3.6,2.3,1.9,0,1.1-.5,1.7-1.5,2.7l-1.9,2h3.6v.7h-4.6Z" fill="#4c4c4c"/><path d="M425.72,302.88c0,2.8-1,3.6-2.6,3.6s-2.7-.8-2.7-3.6c0-3,1-3.9,2.6-3.9C424.82,299,425.72,299.88,425.72,302.88Zm-4.4,0c0,2.3.6,2.9,1.8,2.9s1.8-.6,1.8-2.9-.6-3.1-1.8-3.1S421.32,300.38,421.32,302.88Z" fill="#4c4c4c"/><path d="M502,306.38v-.7l2.1-2.2c.9-.9,1.5-1.5,1.5-2.4s-.5-1.3-1.6-1.3a13.13,13.13,0,0,0-1.9.2l-.1-.7a8.25,8.25,0,0,1,2.1-.3c1.5,0,2.3.6,2.3,1.9,0,1.1-.5,1.7-1.5,2.7l-1.9,2h3.6v.7H502Z" fill="#4c4c4c"/><path d="M511.42,305h-3.5v-.7l2.1-5.2h.9l-2.1,5.1h2.6v-2.3h.8v2.3h.9v.7h-.9v1.4h-.8Z" fill="#4c4c4c"/><path d="M66.52,281.88c0,2.8-1,3.6-2.6,3.6s-2.7-.8-2.7-3.6c0-3,1-3.9,2.6-3.9C65.62,278.08,66.52,278.88,66.52,281.88Zm-4.4,0c0,2.3.6,2.9,1.8,2.9s1.8-.6,1.8-2.9-.6-3.1-1.8-3.1S62.12,279.38,62.12,281.88Z" fill="#4c4c4c"/><path d="M59.12,255v.8h-3.5l-.2,2.4a3.63,3.63,0,0,1,1.7-.5c1.4,0,2.3.6,2.3,2.1a2.19,2.19,0,0,1-2.4,2.5,12.69,12.69,0,0,1-2.4-.3l.1-.7a18.13,18.13,0,0,0,2.2.2,1.5,1.5,0,0,0,1.6-1.7,1.32,1.32,0,0,0-1.5-1.5,4.29,4.29,0,0,0-1.7.4l-.6-.1.2-3.8h4.2Z" fill="#4c4c4c"/><path d="M65.72,258.68c0,2.8-1,3.6-2.6,3.6s-2.7-.8-2.7-3.6c0-3,1-3.9,2.6-3.9C64.82,254.88,65.72,255.68,65.72,258.68Zm-4.4,0c0,2.3.6,2.9,1.8,2.9s1.8-.6,1.8-2.9-.6-3.1-1.8-3.1S61.32,256.18,61.32,258.68Z" fill="#4c4c4c"/><path d="M54.32,230.88h.8v7.3h-.8v-6.3l-1.9,1.2-.4-.6Z" fill="#4c4c4c"/><path d="M62.72,234.68c0,2.8-1,3.6-2.6,3.6s-2.7-.8-2.7-3.6c0-3,1-3.9,2.6-3.9C61.82,230.78,62.72,231.68,62.72,234.68Zm-4.4,0c0,2.3.6,2.9,1.8,2.9s1.8-.6,1.8-2.9-.6-3.1-1.8-3.1S58.32,232.18,58.32,234.68Z" fill="#4c4c4c"/><path d="M68.82,234.68c0,2.8-1,3.6-2.6,3.6s-2.7-.8-2.7-3.6c0-3,1-3.9,2.6-3.9C67.92,230.78,68.82,231.68,68.82,234.68Zm-4.4,0c0,2.3.6,2.9,1.8,2.9s1.8-.6,1.8-2.9-.6-3.1-1.8-3.1S64.42,232.18,64.42,234.68Z" fill="#4c4c4c"/><path d="M54.32,206.88h.8v7.3h-.8v-6.3l-1.9,1.2-.4-.6Z" fill="#4c4c4c"/><path d="M62.22,206.88v.8h-3.5l-.2,2.4a3.63,3.63,0,0,1,1.7-.5c1.4,0,2.3.6,2.3,2.1a2.19,2.19,0,0,1-2.4,2.5,12.69,12.69,0,0,1-2.4-.3l.1-.7a18.13,18.13,0,0,0,2.2.2,1.5,1.5,0,0,0,1.6-1.7,1.32,1.32,0,0,0-1.5-1.5,4.29,4.29,0,0,0-1.7.4l-.6-.1.2-3.8h4.2Z" fill="#4c4c4c"/><path d="M68.82,210.68c0,2.8-1,3.6-2.6,3.6s-2.7-.8-2.7-3.6c0-3,1-3.9,2.6-3.9C67.92,206.78,68.82,207.68,68.82,210.68Zm-4.4,0c0,2.3.6,2.9,1.8,2.9s1.8-.6,1.8-2.9-.6-3.1-1.8-3.1S64.42,208.18,64.42,210.68Z" fill="#4c4c4c"/><polyline points="76.72 284.28 92.62 284.28 113.22 281.28 126.92 275.28 136.82 275.38 149.32 277.38 168.82 272.38 187.02 271.38 214.12 278.58 234.72 274.58 267.32 238.68 296.62 248.68 307.02 262.38 334.42 269.38 368.62 266.38 396.12 262.38 423.52 241.38 441.72 243.38 460.02 257.38 476.02 257.38 488.62 271.38 509.12 279.38" fill="none" stroke="#2277d6" stroke-width="2"/><path d="M101.19,141.78v-3.51l4.23-4.29c2.58-2.64,4-4.17,4-6.09s-.93-2.61-3.24-2.61a33.82,33.82,0,0,0-4.68.45l-.21-3.21a23.21,23.21,0,0,1,5.94-.9c4.53,0,6.45,2,6.45,5.67,0,3.06-1.17,4.8-4.44,7.77l-3.45,3.12H114v3.6Z" fill="#3a3d3f"/><path d="M132.12,132c0,7.5-2.76,10.14-7.68,10.14s-7.68-2.64-7.68-10.14,2.76-10.38,7.68-10.38S132.12,124.5,132.12,132ZM121,132c0,4.86,1,6.54,3.45,6.54s3.39-1.68,3.39-6.54c0-5.16-1-6.78-3.39-6.78S121,126.84,121,132Z" fill="#3a3d3f"/><path d="M134.52,128.13h4.32v5h-4.32Zm0,8.67h4.32v5h-4.32Z" fill="#3a3d3f"/><path d="M142.38,122.7a17.9,17.9,0,0,1,5.76-1.08c5.22,0,6.93,1.77,6.93,5.46a4.89,4.89,0,0,1-2.31,4.44c1.65.9,2.67,1.62,2.67,4.29,0,4.17-1.92,6.33-6.75,6.33a27.62,27.62,0,0,1-6.45-1l.21-3.15a42.57,42.57,0,0,0,5.64.57c2,0,3.09-.81,3.09-2.64,0-1.47-1.17-2.43-2.88-2.43h-4v-3.42h4a2.74,2.74,0,0,0,2.52-2.7c0-1.41-.93-2.13-3-2.13a33.34,33.34,0,0,0-5.19.54Z" fill="#3a3d3f"/><path d="M173.4,132c0,7.5-2.76,10.14-7.68,10.14S158,139.5,158,132s2.76-10.38,7.68-10.38S173.4,124.5,173.4,132Zm-11.1,0c0,4.86,1,6.54,3.45,6.54s3.39-1.68,3.39-6.54c0-5.16-1-6.78-3.39-6.78S162.3,126.84,162.3,132Z" fill="#3a3d3f"/><path d="M109.28,98.24s-2.5-.31-3.55-.31c-1.76,0-2.7.64-2.7,2,0,1.62.87,1.89,3,2.38,2.48.55,3.58,1.17,3.58,3.34,0,2.76-1.51,3.84-4,3.84a32.29,32.29,0,0,1-3.94-.4l.14-1.15s2.45.33,3.73.33c1.76,0,2.66-.78,2.66-2.51,0-1.4-.74-1.8-2.77-2.19-2.58-.56-3.87-1.17-3.87-3.55s1.58-3.35,4-3.35a31.12,31.12,0,0,1,3.77.36Z" fill="#3a3d3f"/><path d="M113.62,101.54v4.3c0,2,.12,2.52,1.29,2.52.51,0,1.61-.11,1.61-.11l.09,1.12a15.71,15.71,0,0,1-1.84.2c-1.86,0-2.49-.71-2.49-3.3v-4.73H111v-1.18h1.27V97.61h1.34v2.75h2.86v1.18Z" fill="#3a3d3f"/><path d="M125.44,104.76c0,3.28-.81,4.79-3.85,4.79s-3.85-1.51-3.85-4.79c0-3.1,1-4.57,3.85-4.57S125.44,101.66,125.44,104.76Zm-1.38,0c0-2.5-.54-3.4-2.47-3.4s-2.46.9-2.46,3.4.34,3.62,2.46,3.62S124.06,107.32,124.06,104.76Z" fill="#3a3d3f"/><path d="M133.45,100.46l0,1.09s-1.44-.16-2.12-.16c-2.07,0-2.63.9-2.63,3.31,0,2.67.41,3.64,2.64,3.64.69,0,2.13-.16,2.13-.16l.05,1.12a24,24,0,0,1-2.5.25c-2.86,0-3.71-1.32-3.71-4.85,0-3.25,1.06-4.51,3.75-4.51A20.91,20.91,0,0,1,133.45,100.46Z" fill="#3a3d3f"/><path d="M135.49,109.37V96.44h1.35v7.63l1.4-.07,2.58-3.64h1.53l-2.94,4.15,3.06,4.86h-1.53l-2.68-4.18-1.42,0v4.13Z" fill="#3a3d3f"/><path d="M144.11,109.37V96.44h1.35v4.43a7.64,7.64,0,0,1,2.77-.68c2.47,0,3,1.22,3,4.42v4.76h-1.35v-4.72c0-2.38-.27-3.26-1.92-3.26a7.41,7.41,0,0,0-2.54.54v7.44Z" fill="#3a3d3f"/><path d="M161.08,104.76c0,3.28-.81,4.79-3.85,4.79s-3.85-1.51-3.85-4.79c0-3.1,1-4.57,3.85-4.57S161.08,101.66,161.08,104.76Zm-1.38,0c0-2.5-.54-3.4-2.47-3.4s-2.46.9-2.46,3.4.34,3.62,2.46,3.62S159.7,107.32,159.7,104.76Z" fill="#3a3d3f"/><path d="M163.39,96.44h1.35v12.93h-1.35Z" fill="#3a3d3f"/><path d="M167.44,109.37v-9h1.33V101a6,6,0,0,1,2.63-.81,2.56,2.56,0,0,1,2.34.91,7.52,7.52,0,0,1,3.2-.91c2.45,0,3.05,1.17,3.05,4.42v4.76h-1.35v-4.72c0-2.38-.27-3.26-1.89-3.26a5.89,5.89,0,0,0-2.54.67,10.34,10.34,0,0,1,.23,2.63v4.68h-1.35v-4.65c0-2.48-.25-3.33-1.89-3.33a5.34,5.34,0,0,0-2.41.67v7.31Z" fill="#3a3d3f"/><path d="M182.41,103.79h5.46v1.26h-5.46Z" fill="#3a3d3f"/><path d="M190.1,103.19c0-4.1,1.06-6.46,4.91-6.46s4.94,2.32,4.94,6.46c0,4.29-1.07,6.36-4.94,6.36S190.1,107.37,190.1,103.19Zm8.41,0c0-3.37-.65-5.24-3.5-5.24s-3.49,1.86-3.49,5.24.61,5.13,3.49,5.13S198.51,106.7,198.51,103.19Z" fill="#3a3d3f"/><path d="M208.23,101.68a29.33,29.33,0,0,0-3.16-.29c-1.11,0-2,.31-2,1.37,0,.85.43,1.08,2.34,1.4,2.25.38,3.1.83,3.1,2.58,0,2.11-1.33,2.81-3.49,2.81a25.4,25.4,0,0,1-3.17-.34L202,108s2,.3,3,.3c1.48,0,2.27-.32,2.27-1.55,0-.93-.47-1.17-2.43-1.47s-3-.71-3-2.51c0-2,1.6-2.62,3.24-2.62a23.19,23.19,0,0,1,3.26.34Z" fill="#3a3d3f"/><path d="M210.73,96.44h1.35v12.93h-1.35Z" fill="#3a3d3f"/><path d="M222.09,104.76c0,3.28-.81,4.79-3.86,4.79s-3.85-1.51-3.85-4.79c0-3.1,1-4.57,3.85-4.57S222.09,101.66,222.09,104.76Zm-1.39,0c0-2.5-.54-3.4-2.47-3.4s-2.46.9-2.46,3.4.34,3.62,2.46,3.62S220.7,107.32,220.7,104.76Z" fill="#3a3d3f"/><path d="M110.92,85.86a23.64,23.64,0,0,1-4.16.49c-4.41,0-5.46-2.4-5.46-7.39,0-5.42,1.22-7.39,5.46-7.39a20.34,20.34,0,0,1,4.18.56l-.09,2.31a30.62,30.62,0,0,0-3.67-.31c-2.2,0-2.9.77-2.9,4.83,0,3.84.51,4.82,3,4.82a30.88,30.88,0,0,0,3.59-.29Z"/><path d="M113.27,86.09V71.82h4.81c5,0,6.07,2.12,6.07,6.86s-1,7.41-6.07,7.41Zm4.81-11.75h-1.91v9.23h1.91c2.81,0,3.09-1.72,3.09-4.89S120.89,74.34,118.08,74.34Z"/><path d="M126.42,83.51a31.49,31.49,0,0,0,3.9.32c1.91,0,2.79-1.28,2.79-3.4a11.11,11.11,0,0,1-2.64.63c-3,0-4.77-1.43-4.77-4.43s2-4.64,5.08-4.64c3.66,0,5.32,2.7,5.32,7.09,0,5.5-2.23,7.27-5.78,7.27a20.91,20.91,0,0,1-4.16-.61Zm6.72-5.46c0-2-.59-3.55-2.36-3.55a1.92,1.92,0,0,0-2.1,2.13c0,1.28.76,1.91,2,1.91A8.09,8.09,0,0,0,133.14,78.05Z"/><path d="M148.13,79.25c0,5.25-1.93,7.1-5.38,7.1s-5.37-1.85-5.37-7.1S139.31,72,142.75,72,148.13,74,148.13,79.25Zm-7.77,0c0,3.4.74,4.58,2.41,4.58s2.38-1.18,2.38-4.58c0-3.61-.7-4.75-2.38-4.75S140.36,75.64,140.36,79.25Z"/><path d="M226.92,412.65a22.77,22.77,0,0,1-4.1.46c-4.39,0-5.39-2.5-5.39-7.41,0-5.19,1.09-7.44,5.39-7.44a20.23,20.23,0,0,1,4.12.53l-.09,1.89a26.09,26.09,0,0,0-3.71-.34c-2.65,0-3.3,1.28-3.3,5.36s.53,5.33,3.36,5.33a27.24,27.24,0,0,0,3.65-.32Z" fill="#4c4c4c"/><path d="M238,406.66h-6.21v6.22h-2.33V398.49h2.33v6.13H238v-6.13h2.35v14.39H238Z" fill="#4c4c4c"/><path d="M243.61,398.49h9.07v2h-6.74v4.07h5.48v2h-5.48v4.2h6.74v2.06h-9.07Z" fill="#4c4c4c"/><path d="M264.15,412.65a22.75,22.75,0,0,1-4.09.46c-4.39,0-5.4-2.5-5.4-7.41,0-5.19,1.09-7.44,5.4-7.44a20,20,0,0,1,4.11.53l-.08,1.89a26.37,26.37,0,0,0-3.72-.34c-2.64,0-3.3,1.28-3.3,5.36s.53,5.33,3.36,5.33a27.55,27.55,0,0,0,3.66-.32Z" fill="#4c4c4c"/><path d="M271.12,406.87,269,407v5.86h-2.33V398.49H269V405l2.14-.17,2.94-6.32h2.67l-3.55,7.23,3.7,7.16h-2.71Z" fill="#4c4c4c"/><path d="M278.52,406.18h6.27v2.08h-6.27Z" fill="#4c4c4c"/><path d="M287.73,398.49h2.33v14.39h-2.33Z" fill="#4c4c4c"/><path d="M293.38,398.49h4.08l4.36,12.33h.32V398.49h2.33v14.39h-4L296,400.53h-.3v12.35h-2.33Z" fill="#4c4c4c"/><path d="M312.41,412.88V398.49h5c4.64,0,5.75,2.48,5.75,6.95s-1,7.44-5.75,7.44Zm5-12.35h-2.65v10.29h2.65c2.89,0,3.34-2.23,3.34-5.38S320.28,400.53,317.39,400.53Z" fill="#4c4c4c"/><path d="M325.87,398.49h9.07v2H328.2v4.07h5.48v2H328.2v4.2h6.74v2.06h-9.07Z" fill="#4c4c4c"/><path d="M345.86,400.64s-2.94-.34-4.16-.34c-1.76,0-2.66.63-2.66,1.87s.75,1.66,3.21,2.33c3,.84,4.12,1.64,4.12,4.09,0,3.15-2,4.52-4.81,4.52a30.57,30.57,0,0,1-4.71-.57l.24-1.87s2.83.38,4.32.38c1.79,0,2.6-.8,2.6-2.31,0-1.22-.65-1.64-2.85-2.16-3.11-.8-4.45-1.75-4.45-4.24,0-2.9,1.91-4.1,4.78-4.1a31.5,31.5,0,0,1,4.56.51Z" fill="#4c4c4c"/><path d="M353.36,406.87l-2.14.15v5.86h-2.33V398.49h2.33V405l2.14-.17,2.94-6.32H359l-3.55,7.23,3.69,7.16H356.4Z" fill="#4c4c4c"/><path d="M369.51,400.64s-2.94-.34-4.16-.34c-1.76,0-2.67.63-2.67,1.87s.76,1.66,3.22,2.33c3,.84,4.11,1.64,4.11,4.09,0,3.15-2,4.52-4.81,4.52a30.56,30.56,0,0,1-4.7-.57l.23-1.87s2.84.38,4.33.38c1.78,0,2.6-.8,2.6-2.31,0-1.22-.65-1.64-2.85-2.16-3.11-.8-4.46-1.75-4.46-4.24,0-2.9,1.91-4.1,4.79-4.1a31.5,31.5,0,0,1,4.56.51Z" fill="#4c4c4c"/><path d="M470,82.06v3.73h-1.23V74.71h4.05c2.42,0,3.54,1.17,3.54,3.57s-1.12,3.78-3.54,3.78Zm2.8-1.09c1.62,0,2.29-1,2.29-2.69s-.67-2.48-2.29-2.48H470V81Z" fill="#3a3d3f"/><path d="M477.8,77.79H479v1.09a9.09,9.09,0,0,1,2.93-1.27v1.22A11.26,11.26,0,0,0,479,79.92v5.87h-1.2Z" fill="#3a3d3f"/><path d="M483.11,74.59h1.2V76h-1.2Zm0,3.2h1.2v8h-1.2Z" fill="#3a3d3f"/><path d="M492.89,81.69c0,2.92-.72,4.26-3.43,4.26S486,84.61,486,81.69c0-2.75.89-4.06,3.42-4.06S492.89,78.94,492.89,81.69Zm-1.24,0c0-2.22-.48-3-2.19-3s-2.19.8-2.19,3,.3,3.22,2.19,3.22S491.65,84,491.65,81.69Z" fill="#3a3d3f"/><path d="M494.61,77.79h1.19v1.09a9.09,9.09,0,0,1,2.93-1.27v1.22a11.42,11.42,0,0,0-2.92,1.09v5.87h-1.2Z" fill="#3a3d3f"/><path d="M499.92,74.59h1.2V76h-1.2Zm0,3.2h1.2v8h-1.2Z" fill="#3a3d3f"/><path d="M504.8,78.83v3.82c0,1.75.12,2.24,1.16,2.24.44,0,1.42-.09,1.42-.09l.08,1a13.65,13.65,0,0,1-1.63.18c-1.65,0-2.21-.63-2.21-2.93V78.83h-1.14v-1h1.14V75.34h1.18v2.45h2.55v1Z" fill="#3a3d3f"/><path d="M508.6,74.59h1.2V76h-1.2Zm0,3.2h1.2v8h-1.2Z" fill="#3a3d3f"/><path d="M511.39,77.79h5.94v1.07l-4.48,5.86h4.48v1.07h-5.94V84.72l4.49-5.86h-4.49Z" fill="#3a3d3f"/><path d="M524.84,84.75l0,.94a27.37,27.37,0,0,1-3.12.26c-2.39,0-3.17-1.39-3.17-4.11,0-3,1.31-4.21,3.34-4.21s3.22,1.12,3.22,3.74l-.06.91H519.8c0,1.72.52,2.61,2.09,2.61C523.09,84.89,524.84,84.75,524.84,84.75Zm-.9-3.43c0-2-.61-2.68-2-2.68s-2.12.75-2.14,2.68Z" fill="#3a3d3f"/><path d="M514.9,126.74H485.38a12,12,0,0,1,0-24H514.9a12,12,0,0,1,0,24" fill="#ddd"/><path d="M496,114.24a15,15,0,1,1-15-15,15,15,0,0,1,15,15" fill="#b3b3b3"/></g></g></svg>