<svg xmlns="http://www.w3.org/2000/svg" viewBox="0 0 1191.52 182.27">
	<title>
		r_4_0_Screen
	</title>
	<g id="Layer_2" data-name="Layer 2">
		<g id="CMs_Msk_Screen">
			<rect width="1191.52" height="182.27" fill="rgba(0,0,0,0)" />
			<circle cx="57.15" cy="93.51" r="29.44" fill="none" stroke="#2277d6" stroke-miterlimit="10" stroke-width="4" />
			<path d="M57.15,72.65A22.37,22.37,0,0,1,79.52,95H57.15Z" fill="#8dc5f2" opacity="0.47" />
			<path d="M24,24.42H34V25.8H29.78V38.26H28.26V25.8H24Z" />
			<path d="M36,24.42H37.5V38.26H36Z" />
			<path d="M40.88,24.42h2.78l3.92,11.7,3.92-11.7h2.78V38.26H52.74V26.06h-.28l-4,11.7H46.72l-4-11.7h-.28v12.2H40.88Z" />
			<path d="M57.68,24.42H66.1v1.36H59.22v4.78H64.9V31.9H59.22v5H66.1v1.36H57.68Z" />
			<path d="M74.68,33.6v4.66H73.14V24.42H78.2c3,0,4.42,1.46,4.42,4.46s-1.4,4.72-4.42,4.72Zm3.5-1.36c2,0,2.86-1.22,2.86-3.36s-.84-3.1-2.86-3.1h-3.5v6.46Z" />
			<path d="M85,24.42h8.42v1.36H86.54v4.78h5.68V31.9H86.54v5h6.88v1.36H85Z" />
			<path d="M97.6,33v5.3H96.06V24.42h5.12c2.9,0,4.42,1.28,4.42,4.2,0,2-.8,3.46-2.54,4l2.66,5.62H104l-2.5-5.3Zm3.58-7.18H97.6V31.6h3.6c2.08,0,2.82-1.24,2.82-3C104,26.72,103.12,25.78,101.18,25.78Z" />
			<path d="M108.38,24.42h1.54V38.26h-1.54Z" />
			<path d="M112.74,31.4c0-4.56,1.18-7.18,5.46-7.18s5.48,2.58,5.48,7.18c0,4.76-1.18,7.06-5.48,7.06S112.74,36,112.74,31.4Zm9.34,0c0-3.74-.72-5.82-3.88-5.82s-3.88,2.06-3.88,5.82.68,5.7,3.88,5.7S122.08,35.3,122.08,31.4Z" />
			<path d="M126.5,38.26V24.42h4.94c4,0,5.12,2.8,5.12,6.72s-1,7.12-5.12,7.12Zm4.94-12.48H128V36.9h3.4c2.88,0,3.54-2.76,3.54-5.76S134.32,25.78,131.44,25.78Z" />
			<path d="M372.8,31.4c0-4.56,1.18-7.18,5.46-7.18s5.48,2.58,5.48,7.18c0,4.76-1.18,7.06-5.48,7.06S372.8,36,372.8,31.4Zm9.34,0c0-3.74-.72-5.82-3.88-5.82s-3.88,2.06-3.88,5.82.68,5.7,3.88,5.7S382.14,35.3,382.14,31.4Z" />
			<path d="M396,24.42,392.4,38.26H389l-3.62-13.84h1.6l3.18,12.48h1.12l3.18-12.48Z" />
			<path d="M398.2,24.42h8.42v1.36h-6.88v4.78h5.68V31.9h-5.68v5h6.88v1.36H398.2Z" />
			<path d="M410.8,33v5.3h-1.54V24.42h5.12c2.9,0,4.42,1.28,4.42,4.2,0,2-.8,3.46-2.54,4l2.66,5.62h-1.7l-2.5-5.3Zm3.58-7.18H410.8V31.6h3.6c2.08,0,2.82-1.24,2.82-3C417.22,26.72,416.32,25.78,414.38,25.78Z" />
			<path d="M431,24.42l-3.62,13.84H424l-3.62-13.84H422l3.18,12.48h1.12l3.18-12.48Z" />
			<path d="M433.22,24.42h1.54V38.26h-1.54Z" />
			<path d="M438.14,24.42h8.42v1.36h-6.88v4.78h5.68V31.9h-5.68v5h6.88v1.36h-8.42Z" />
			<path d="M449.7,24.42l2.36,12.48h.58l2.82-12.36h1.8l2.82,12.36h.58L463,24.42h1.58l-2.8,13.84H459l-2.62-11.82-2.62,11.82h-2.82L448.1,24.42Z" />
			<path d="M49.24,85.2h2.84v17.16H49V88.48l-4.32,2.6-1.42-2.16Z" fill="#2277d6" />
			<path d="M58.24,102.36V84h3V90a10.79,10.79,0,0,1,3.82-1c3.87,0,4.81,2.06,4.81,6.32v7h-3V95.47c0-2.6-.34-3.87-2.48-3.87a10.72,10.72,0,0,0-3.12.57v10.19Z" fill="#2277d6" />
			<path d="M384.88,115.34h-5.74v-1.08l3.37-8.43H384l-3.42,8.29h4.28v-3.69h1.38v3.69h1.5v1.22h-1.5v2.31h-1.38Z" fill="#3a3d3f" />
			<path d="M419.26,112.54h3.38v-3.49h1.26v3.49h3.42v1.22H423.9v3.53h-1.26v-3.53h-3.38Z" fill="#3a3d3f" />
			<path d="M434,105.83h1.29v11.82h-1.38V107.37l-3,2-.63-1Z" fill="#3a3d3f" />
			<path d="M439.58,117.65v-1.16l3.45-3.64c1.47-1.52,2.39-2.49,2.39-3.89,0-1.57-.88-2.08-2.58-2.08a17,17,0,0,0-3.07.4l-.1-1.15a14.41,14.41,0,0,1,3.42-.48c2.49,0,3.74.95,3.74,3.17,0,1.77-.8,2.81-2.47,4.42l-3.15,3.21h5.93v1.2Z" fill="#3a3d3f" />
			<path d="M457.69,111.92c0,4.53-1.59,5.91-4.3,5.91s-4.32-1.34-4.32-5.89c0-4.88,1.58-6.31,4.3-6.31S457.69,107.05,457.69,111.92Zm-7.18,0c0,3.7,1,4.67,2.88,4.67s2.89-1,2.89-4.69c0-4-.92-5-2.89-5S450.51,107.91,450.51,111.94Z" fill="#3a3d3f" />
			<path d="M493.78,107.08a28.21,28.21,0,0,0-3.12-.21c-2.06,0-3.19,1.46-3.19,4.08a10.11,10.11,0,0,1,3-.7c2.61,0,4,1.18,4,3.67s-1.5,3.91-4.13,3.91c-2.94,0-4.23-2.31-4.23-6.15,0-4.28,1.81-6,4.62-6a22.53,22.53,0,0,1,3.24.3Zm-6.33,5.09c0,2.52.77,4.44,2.82,4.44a2.42,2.42,0,0,0,2.7-2.69c0-1.64-1-2.43-2.63-2.43A8.3,8.3,0,0,0,487.45,112.17Z" fill="#3a3d3f" />
			<path d="M504.49,111.92c0,4.53-1.59,5.91-4.3,5.91s-4.31-1.34-4.31-5.89c0-4.88,1.57-6.31,4.3-6.31S504.49,107.05,504.49,111.92Zm-7.18,0c0,3.7,1,4.67,2.88,4.67s2.89-1,2.89-4.69c0-4-.92-5-2.89-5S497.31,107.91,497.31,111.94Z" fill="#3a3d3f" />
			<path d="M509.66,108.12c0,1.74-.78,2.53-2,2.53s-2-.79-2-2.53.76-2.47,2-2.47S509.66,106.4,509.66,108.12Zm-2,1.61c.67,0,.9-.55.9-1.61s-.23-1.56-.9-1.56-.87.5-.87,1.56S507,109.73,507.68,109.73Zm4-4.28.86.29L508.85,118l-.86-.25Zm3.08,9.85c0,1.72-.77,2.53-2,2.53s-1.95-.81-1.95-2.54.73-2.46,1.95-2.46S514.74,113.58,514.74,115.3Zm-2,1.62c.68,0,.9-.56.9-1.62s-.22-1.55-.9-1.55-.88.5-.88,1.54S512.13,116.92,512.77,116.92Z" fill="#3a3d3f" />
			<path d="M116.74,72.1H120V93.22h-3.55V76.13l-5,3.2-1.63-2.65Z" />
			<path d="M127.3,72.1h13.31v4.22l-7.78,17.25-3.32-1L137,76.26v-1H127.3Z" />
			<path d="M144.84,78.92h3.74v4.6h-3.74Zm0,9.69h3.74v4.61h-3.74Z" />
			<path d="M167.46,82.88c0,8-2.91,10.69-8,10.69s-8-2.62-8-10.69c0-8.28,2.91-11.13,8-11.13S167.46,74.56,167.46,82.88Zm-12.29,0c0,5.8,1.44,7.59,4.35,7.59s4.26-1.79,4.26-7.59c0-6.2-1.31-8-4.29-8S155.17,76.64,155.17,82.88Z" />
			<path d="M185.38,82.88c0,8-2.91,10.69-8,10.69s-8-2.62-8-10.69c0-8.28,2.91-11.13,8-11.13S185.38,74.56,185.38,82.88Zm-12.29,0c0,5.8,1.44,7.59,4.35,7.59s4.26-1.79,4.26-7.59c0-6.2-1.31-8-4.29-8S173.09,76.64,173.09,82.88Z" />
			<path d="M195.36,83h9.57v3.17h-9.57Z" />
			<path d="M216.07,93.22v-3l5.21-5.38c2.72-2.78,4.29-4.48,4.29-6.72,0-2.4-1.25-3.16-4-3.16a33.21,33.21,0,0,0-5.18.57l-.23-2.81a25,25,0,0,1,6.24-.93c4.68,0,6.82,1.92,6.82,5.89,0,3.2-1.34,5-4.61,8.09l-4.51,4.39h9.54v3.1Z" />
			<path d="M248.77,82.88c0,8-2.91,10.69-8,10.69s-8-2.62-8-10.69c0-8.28,2.91-11.13,8-11.13S248.77,74.56,248.77,82.88Zm-12.29,0c0,5.8,1.44,7.59,4.35,7.59s4.26-1.79,4.26-7.59c0-6.2-1.31-8-4.29-8S236.48,76.64,236.48,82.88Z" />
			<path d="M251.71,78.92h3.75v4.6h-3.75Zm0,9.69h3.75v4.61h-3.75Z" />
			<path d="M274.34,82.88c0,8-2.91,10.69-8,10.69s-8-2.62-8-10.69c0-8.28,2.91-11.13,8-11.13S274.34,74.56,274.34,82.88Zm-12.29,0c0,5.8,1.44,7.59,4.35,7.59s4.26-1.79,4.26-7.59c0-6.2-1.31-8-4.29-8S262.05,76.64,262.05,82.88Z" />
			<path d="M292.26,82.88c0,8-2.91,10.69-8,10.69s-8-2.62-8-10.69c0-8.28,2.91-11.13,8-11.13S292.26,74.56,292.26,82.88Zm-12.29,0c0,5.8,1.44,7.59,4.35,7.59s4.26-1.79,4.26-7.59c0-6.2-1.31-8-4.29-8S280,76.64,280,82.88Z" />
			<path d="M107.28,105.25h9v1.24h-3.78v11.16h-1.36V106.49h-3.81Z" fill="#3a3d3f" />
			<path d="M125,113.06c0,3.27-.8,4.77-3.83,4.77s-3.84-1.5-3.84-4.77c0-3.08,1-4.55,3.84-4.55S125,110,125,113.06Zm-1.38,0c0-2.49-.53-3.38-2.45-3.38s-2.46.89-2.46,3.38.34,3.61,2.46,3.61S123.65,115.61,123.65,113.06Z" fill="#3a3d3f" />
			<path d="M134.1,117.65h-1.33V117a6.35,6.35,0,0,1-2.72.79c-1.75,0-3.22-.72-3.22-4.59,0-3.15,1-4.73,3.74-4.73a13.82,13.82,0,0,1,2.2.24v-4h1.33ZM132.77,116v-6.08a15.71,15.71,0,0,0-2.13-.21c-1.88,0-2.43,1.24-2.43,3.56,0,2.91.95,3.39,2,3.39A6.47,6.47,0,0,0,132.77,116Z" fill="#3a3d3f" />
			<path d="M143,116c0,.52.47.72,1,.79l-.05,1.06a2.72,2.72,0,0,1-2.13-.72,9.11,9.11,0,0,1-3.23.72c-1.63,0-2.52-.93-2.52-2.74s.89-2.47,2.74-2.65l2.81-.27v-.77c0-1.26-.54-1.7-1.61-1.7-1.26,0-3.39.23-3.39.23l-.05-1a21.38,21.38,0,0,1,3.51-.4c2,0,2.88.94,2.88,2.89Zm-4-2.54c-1.09.11-1.52.63-1.52,1.61s.44,1.65,1.36,1.65a9.6,9.6,0,0,0,2.81-.55v-3Z" fill="#3a3d3f" />
			<path d="M146.18,108.69l2.24,7.8H149l2.26-7.8h1.34l-3.72,12.94h-1.35l1.17-4h-1.33l-2.54-9Z" fill="#3a3d3f" />
			<path d="M659.1,61.88h9v1.25h-3.79V74.34h-1.37V63.13H659.1Z" fill="#3a3d3f" />
			<path d="M669.63,74.34V61.42H671v4.43a7.57,7.57,0,0,1,2.78-.69c2.46,0,3,1.23,3,4.43v4.75h-1.35V69.63c0-2.38-.27-3.26-1.93-3.26a7.41,7.41,0,0,0-2.54.54v7.43Z" fill="#3a3d3f" />
			<path d="M685.94,73.17l0,1.07a32.2,32.2,0,0,1-3.51.28c-2.69,0-3.57-1.56-3.57-4.62,0-3.42,1.48-4.74,3.77-4.74s3.61,1.26,3.61,4.21l-.07,1h-5.94c0,1.93.6,2.94,2.36,2.94C684,73.34,685.94,73.17,685.94,73.17Zm-1-3.85c0-2.23-.68-3-2.26-3s-2.4.84-2.42,3Z" fill="#3a3d3f" />
			<path d="M688.39,65.34h1.33v1.23a10.32,10.32,0,0,1,3.3-1.43v1.37a12.78,12.78,0,0,0-3.28,1.23v6.6h-1.35Z" fill="#3a3d3f" />
			<path d="M701.26,73.17l0,1.07a32.5,32.5,0,0,1-3.52.28c-2.68,0-3.56-1.56-3.56-4.62,0-3.42,1.48-4.74,3.76-4.74s3.62,1.26,3.62,4.21l-.07,1h-5.94c0,1.93.59,2.94,2.36,2.94C699.3,73.34,701.26,73.17,701.26,73.17Zm-1-3.85c0-2.23-.68-3-2.27-3s-2.39.84-2.41,3Z" fill="#3a3d3f" />
			<path d="M714,72.67c0,.52.47.72,1.05.79L715,74.52a2.75,2.75,0,0,1-2.14-.72,9.2,9.2,0,0,1-3.24.72c-1.64,0-2.54-.93-2.54-2.75s.9-2.49,2.75-2.67l2.83-.27v-.77c0-1.26-.54-1.71-1.62-1.71-1.26,0-3.4.23-3.4.23l-.06-1a21.6,21.6,0,0,1,3.53-.4c2,0,2.9.94,2.9,2.9Zm-4-2.56c-1.1.11-1.53.63-1.53,1.62s.45,1.66,1.36,1.66a9.48,9.48,0,0,0,2.83-.56v-3Z" fill="#3a3d3f" />
			<path d="M716.68,65.34H718v1.23a10.21,10.21,0,0,1,3.29-1.43v1.37A13,13,0,0,0,718,67.74v6.6h-1.35Z" fill="#3a3d3f" />
			<path d="M729.55,73.17l0,1.07a32.2,32.2,0,0,1-3.51.28c-2.68,0-3.57-1.56-3.57-4.62,0-3.42,1.48-4.74,3.77-4.74s3.62,1.26,3.62,4.21l-.07,1h-6c0,1.93.6,2.94,2.36,2.94C727.59,73.34,729.55,73.17,729.55,73.17Zm-1-3.85c0-2.23-.69-3-2.27-3s-2.4.84-2.41,3Z" fill="#3a3d3f" />
			<path d="M741.15,72h-5.77V70.94l3.39-8.48h1.51l-3.44,8.34h4.31V67.09h1.38V70.8h1.52V72h-1.52v2.32h-1.38Z" fill="#3a3d3f" />
			<path d="M752.56,61.88h3L759,74.34h-1.37l-.9-3.2h-5.32l-.9,3.2h-1.37Zm-.85,8h4.72l-1.89-6.83h-.94Z" fill="#3a3d3f" />
			<path d="M765.9,68h3.44v6.12a31,31,0,0,1-4.06.43c-3.81,0-4.82-2.34-4.82-6.37s1-6.45,4.79-6.45a23.17,23.17,0,0,1,4.09.47l-.06,1.16a28.37,28.37,0,0,0-3.87-.38c-2.88,0-3.51,1.67-3.51,5.2s.61,5.15,3.49,5.15a16.86,16.86,0,0,0,2.58-.25V69.21H765.9Z" fill="#3a3d3f" />
			<path d="M780.57,61.88l-3.26,12.46h-3.1L771,61.88h1.44l2.87,11.24h1l2.87-11.24Z" fill="#3a3d3f" />
			<path d="M788.27,66.66a29.33,29.33,0,0,0-3.15-.29c-1.12,0-2,.3-2,1.37,0,.84.43,1.08,2.34,1.4,2.25.38,3.09.83,3.09,2.58,0,2.1-1.33,2.8-3.49,2.8a25.65,25.65,0,0,1-3.17-.34L782,73a29.86,29.86,0,0,0,3,.31c1.48,0,2.27-.33,2.27-1.55,0-.94-.47-1.17-2.43-1.48s-3-.7-3-2.5c0-2,1.6-2.63,3.24-2.63a23.19,23.19,0,0,1,3.26.34Z" fill="#3a3d3f" />
			<path d="M801,72.67c0,.52.47.72,1,.79l0,1.06a2.74,2.74,0,0,1-2.14-.72,9.22,9.22,0,0,1-3.25.72c-1.63,0-2.53-.93-2.53-2.75s.9-2.49,2.75-2.67l2.83-.27v-.77c0-1.26-.54-1.71-1.62-1.71-1.26,0-3.41.23-3.41.23l-.05-1a21.6,21.6,0,0,1,3.53-.4c2,0,2.9.94,2.9,2.9Zm-4-2.56c-1.1.11-1.53.63-1.53,1.62s.45,1.66,1.37,1.66a9.57,9.57,0,0,0,2.83-.56v-3Z" fill="#3a3d3f" />
			<path d="M804.23,65.34l2.11,7.83H807l2.17-7.83h1.39l-2.54,9h-2.7l-2.54-9Z" fill="#3a3d3f" />
			<path d="M818.65,72.67c0,.52.47.72,1.05.79l-.06,1.06a2.75,2.75,0,0,1-2.14-.72,9.2,9.2,0,0,1-3.24.72c-1.64,0-2.54-.93-2.54-2.75s.9-2.49,2.76-2.67l2.82-.27v-.77c0-1.26-.54-1.71-1.62-1.71-1.26,0-3.4.23-3.4.23l0-1a21.6,21.6,0,0,1,3.53-.4c2,0,2.89.94,2.89,2.9Zm-4-2.56c-1.1.11-1.53.63-1.53,1.62s.45,1.66,1.37,1.66a9.47,9.47,0,0,0,2.82-.56v-3Z" fill="#3a3d3f" />
			<path d="M821.32,61.74h1.35v1.57h-1.35Zm0,3.6h1.35v9h-1.35Z" fill="#3a3d3f" />
			<path d="M825.36,61.42h1.36V74.34h-1.36Z" fill="#3a3d3f" />
			<path d="M835.77,72.67c0,.52.47.72,1,.79l0,1.06a2.75,2.75,0,0,1-2.14-.72,9.2,9.2,0,0,1-3.24.72c-1.64,0-2.54-.93-2.54-2.75s.9-2.49,2.75-2.67l2.83-.27v-.77c0-1.26-.54-1.71-1.62-1.71-1.26,0-3.4.23-3.4.23l-.06-1a21.6,21.6,0,0,1,3.53-.4c2,0,2.9.94,2.9,2.9Zm-4-2.56c-1.1.11-1.54.63-1.54,1.62s.46,1.66,1.37,1.66a9.48,9.48,0,0,0,2.83-.56v-3Z" fill="#3a3d3f" />
			<path d="M845.69,69.7c0,3.58-1,4.82-4.25,4.82-1.08,0-3-.19-3-.19V61.42h1.33v4.37a7.44,7.44,0,0,1,2.65-.63C844.86,65.16,845.69,66.46,845.69,69.7Zm-1.37,0c0-2.32-.47-3.33-2.05-3.33a7.59,7.59,0,0,0-2.51.52v6.34s1.17.09,1.66.09C843.89,73.32,844.32,72.22,844.32,69.7Z" fill="#3a3d3f" />
			<path d="M848,61.42h1.35V74.34H848Z" fill="#3a3d3f" />
			<path d="M858.7,73.17l0,1.07a32.2,32.2,0,0,1-3.51.28c-2.69,0-3.57-1.56-3.57-4.62,0-3.42,1.48-4.74,3.77-4.74S859,66.42,859,69.37l-.07,1H853c0,1.93.6,2.94,2.36,2.94C856.74,73.34,858.7,73.17,858.7,73.17Zm-1-3.85c0-2.23-.68-3-2.26-3s-2.4.84-2.42,3Z" fill="#3a3d3f" />
			<path d="M866.91,66.51v4.31c0,2,.12,2.52,1.3,2.52.5,0,1.6-.11,1.6-.11l.09,1.11a15.71,15.71,0,0,1-1.84.2c-1.85,0-2.48-.7-2.48-3.29V66.51H864.3V65.34h1.28V62.59h1.33v2.75h2.86v1.17Z" fill="#3a3d3f" />
			<path d="M878.74,69.74c0,3.27-.81,4.78-3.86,4.78S871,73,871,69.74c0-3.1,1-4.58,3.85-4.58S878.74,66.64,878.74,69.74Zm-1.39,0c0-2.51-.54-3.41-2.47-3.41s-2.46.9-2.46,3.41.34,3.61,2.46,3.61S877.35,72.29,877.35,69.74Z" fill="#3a3d3f" />
			<path d="M884.89,65.34h1.33v1.23a10.32,10.32,0,0,1,3.3-1.43v1.37a13,13,0,0,0-3.28,1.23v6.6h-1.35Z" fill="#3a3d3f" />
			<path d="M898.09,65.34v9h-1.35v-.63a6.14,6.14,0,0,1-2.67.81c-2.52,0-3-1.17-3-4.48v-4.7h1.35V70c0,2.49.21,3.3,1.89,3.3a5.47,5.47,0,0,0,2.47-.67V65.34Z" fill="#3a3d3f" />
			<path d="M900.68,74.34v-9H902V66a6.85,6.85,0,0,1,2.79-.81c2.48,0,3,1.23,3,4.43v4.75h-1.33V69.63c0-2.38-.27-3.26-2-3.26A6.18,6.18,0,0,0,902,67v7.31Z" fill="#3a3d3f" />
			<path d="M921.22,74.34h-1.34v-.61a6.42,6.42,0,0,1-2.73.79c-1.77,0-3.24-.72-3.24-4.6,0-3.17,1-4.76,3.76-4.76a14.12,14.12,0,0,1,2.21.24v-4h1.34Zm-1.34-1.69v-6.1a14.27,14.27,0,0,0-2.14-.22c-1.89,0-2.45,1.24-2.45,3.59,0,2.91,1,3.4,2,3.4A6.47,6.47,0,0,0,919.88,72.65Z" fill="#3a3d3f" />
			<path d="M930.79,65.34v9h-1.35v-.63a6.07,6.07,0,0,1-2.66.81c-2.52,0-3-1.17-3-4.48v-4.7h1.35V70c0,2.49.22,3.3,1.89,3.3a5.42,5.42,0,0,0,2.47-.67V65.34Z" fill="#3a3d3f" />
			<path d="M933.38,65.34h1.33v1.23a10.32,10.32,0,0,1,3.3-1.43v1.37a13,13,0,0,0-3.28,1.23v6.6h-1.35Z" fill="#3a3d3f" />
			<path d="M939.61,61.74H941v1.57h-1.35Zm0,3.6H941v9h-1.35Z" fill="#3a3d3f" />
			<path d="M943.55,74.34v-9h1.33V66a6.85,6.85,0,0,1,2.79-.81c2.49,0,3.05,1.23,3.05,4.43v4.75h-1.34V69.63c0-2.38-.27-3.26-1.94-3.26a6.19,6.19,0,0,0-2.54.66v7.31Z" fill="#3a3d3f" />
			<path d="M952.82,75.86c0-1,.49-1.53,1.42-2.24a1.46,1.46,0,0,1-.5-1.24,5.82,5.82,0,0,1,.61-1.42c-.76-.34-1.42-1.06-1.42-2.72,0-2.21,1.37-3.08,3.36-3.08a9.22,9.22,0,0,1,1.88.24l2.66-.08v1.16l-1.71,0a2.35,2.35,0,0,1,.6,1.8c0,2.34-1.17,3-3.48,3a6.79,6.79,0,0,1-.88-.07,5.21,5.21,0,0,0-.33,1c0,.72.15.83,2.18.83,2.56,0,3.48.5,3.48,2.64s-1.46,2.87-4,2.87C953.85,78.58,952.82,78,952.82,75.86Zm2.34-1.7c-.76.56-1,.89-1,1.59,0,1.24.52,1.69,2.56,1.69,1.8,0,2.61-.48,2.61-1.67,0-1.37-.58-1.52-2.22-1.52C956.47,74.25,955.16,74.16,955.16,74.16Zm3.21-5.92c0-1.42-.56-2-2.08-2s-2,.56-2,2,.61,2,2,2S958.37,69.66,958.37,68.24Z" fill="#3a3d3f" />
			<path d="M968.23,66.51v4.31c0,2,.12,2.52,1.29,2.52.51,0,1.61-.11,1.61-.11l.09,1.11a15.71,15.71,0,0,1-1.84.2c-1.85,0-2.48-.7-2.48-3.29V66.51h-1.28V65.34h1.28V62.59h1.33v2.75h2.86v1.17Z" fill="#3a3d3f" />
			<path d="M972.75,74.34V61.42h1.35v4.43a7.55,7.55,0,0,1,2.77-.69c2.47,0,3,1.23,3,4.43v4.75h-1.35V69.63c0-2.38-.27-3.26-1.93-3.26a7.39,7.39,0,0,0-2.53.54v7.43Z" fill="#3a3d3f" />
			<path d="M989.06,73.17l0,1.07a32.2,32.2,0,0,1-3.51.28C982.9,74.52,982,73,982,69.9c0-3.42,1.47-4.74,3.76-4.74s3.62,1.26,3.62,4.21l-.07,1h-6c0,1.93.6,2.94,2.36,2.94C987.09,73.34,989.06,73.17,989.06,73.17Zm-1-3.85c0-2.23-.69-3-2.27-3s-2.4.84-2.41,3Z" fill="#3a3d3f" />
			<path d="M995.46,65.34h1.33V66a6.13,6.13,0,0,1,2.71-.83c2.26,0,3.25,1.39,3.25,4.58,0,3.52-1.15,4.78-3.92,4.78a12.35,12.35,0,0,1-2-.19v4h-1.35Zm1.35,1.75v6.07a14.93,14.93,0,0,0,2,.19c2,0,2.62-1,2.62-3.61s-.77-3.37-2.08-3.37A5.87,5.87,0,0,0,996.81,67.09Z" fill="#3a3d3f" />
			<path d="M1005,65.34h1.33v1.23a10.32,10.32,0,0,1,3.3-1.43v1.37a12.78,12.78,0,0,0-3.28,1.23v6.6H1005Z" fill="#3a3d3f" />
			<path d="M1018.49,69.74c0,3.27-.81,4.78-3.86,4.78s-3.85-1.51-3.85-4.78c0-3.1,1-4.58,3.85-4.58S1018.49,66.64,1018.49,69.74Zm-1.39,0c0-2.51-.54-3.41-2.47-3.41s-2.46.9-2.46,3.41.34,3.61,2.46,3.61S1017.1,72.29,1017.1,69.74Z" fill="#3a3d3f" />
			<path d="M1027.94,69.7c0,3.58-1,4.82-4.25,4.82-1.08,0-3-.19-3-.19V61.42H1022v4.37a7.44,7.44,0,0,1,2.65-.63C1027.11,65.16,1027.94,66.46,1027.94,69.7Zm-1.37,0c0-2.32-.47-3.33-2.06-3.33a7.57,7.57,0,0,0-2.5.52v6.34s1.17.09,1.66.09C1026.13,73.32,1026.57,72.22,1026.57,69.7Z" fill="#3a3d3f" />
			<path d="M1030.26,61.42h1.35V74.34h-1.35Z" fill="#3a3d3f" />
			<path d="M1041,73.17l0,1.07a32.5,32.5,0,0,1-3.52.28c-2.68,0-3.56-1.56-3.56-4.62,0-3.42,1.48-4.74,3.76-4.74s3.62,1.26,3.62,4.21l-.07,1h-5.94c0,1.93.59,2.94,2.36,2.94C1039,73.34,1041,73.17,1041,73.17Zm-1-3.85c0-2.23-.68-3-2.27-3s-2.39.84-2.41,3Z" fill="#3a3d3f" />
			<path d="M1043.4,74.34v-9h1.33V66a6,6,0,0,1,2.63-.81,2.54,2.54,0,0,1,2.34.92,7.46,7.46,0,0,1,3.2-.92c2.45,0,3,1.17,3,4.43v4.75h-1.35V69.63c0-2.38-.27-3.26-1.89-3.26a6,6,0,0,0-2.53.66,10.4,10.4,0,0,1,.23,2.63v4.68h-1.35V69.7c0-2.49-.25-3.33-1.89-3.33a5.39,5.39,0,0,0-2.41.66v7.31Z" fill="#3a3d3f" />
			<path d="M1064.8,72.67c0,.52.47.72,1,.79l0,1.06a2.75,2.75,0,0,1-2.14-.72,9.2,9.2,0,0,1-3.24.72c-1.64,0-2.54-.93-2.54-2.75s.9-2.49,2.75-2.67l2.83-.27v-.77c0-1.26-.54-1.71-1.62-1.71-1.26,0-3.4.23-3.4.23l-.06-1a21.6,21.6,0,0,1,3.53-.4c2,0,2.9.94,2.9,2.9Zm-4-2.56c-1.09.11-1.53.63-1.53,1.62s.45,1.66,1.37,1.66a9.57,9.57,0,0,0,2.83-.56v-3Z" fill="#3a3d3f" />
			<path d="M1069.26,66.51v4.31c0,2,.13,2.52,1.3,2.52.5,0,1.6-.11,1.6-.11l.09,1.11a15.71,15.71,0,0,1-1.84.2c-1.85,0-2.48-.7-2.48-3.29V66.51h-1.28V65.34h1.28V62.59h1.33v2.75h2.86v1.17Z" fill="#3a3d3f" />
			<path d="M1073.78,61.74h1.35v1.57h-1.35Zm0,3.6h1.35v9h-1.35Z" fill="#3a3d3f" />
			<path d="M1083.54,65.43l-.06,1.1s-1.44-.16-2.12-.16c-2.07,0-2.63.9-2.63,3.31,0,2.67.41,3.64,2.65,3.64.68,0,2.12-.16,2.12-.16l0,1.11a24,24,0,0,1-2.5.25c-2.86,0-3.71-1.31-3.71-4.84,0-3.26,1.07-4.52,3.75-4.52A20.89,20.89,0,0,1,1083.54,65.43Z" fill="#3a3d3f" />
			<path d="M662,94.51v4.31c0,2,.12,2.52,1.29,2.52.51,0,1.6-.11,1.6-.11l.09,1.11a15.44,15.44,0,0,1-1.83.2c-1.86,0-2.49-.7-2.49-3.29V94.51h-1.28V93.34h1.28V90.59H662v2.75h2.86v1.17Z" fill="#3a3d3f" />
			<path d="M666.48,89.74h1.35v1.57h-1.35Zm0,3.6h1.35v9h-1.35Z" fill="#3a3d3f" />
			<path d="M670.43,102.34v-9h1.33V94a6,6,0,0,1,2.63-.81,2.54,2.54,0,0,1,2.34.92,7.46,7.46,0,0,1,3.2-.92c2.45,0,3,1.17,3,4.43v4.75h-1.35V97.63c0-2.38-.27-3.26-1.89-3.26a6,6,0,0,0-2.54.66,9.85,9.85,0,0,1,.24,2.63v4.68h-1.35V97.7c0-2.49-.25-3.33-1.89-3.33a5.46,5.46,0,0,0-2.42.66v7.31Z" fill="#3a3d3f" />
			<path d="M692.12,101.17l0,1.07a32.2,32.2,0,0,1-3.51.28c-2.68,0-3.56-1.56-3.56-4.62,0-3.42,1.47-4.74,3.76-4.74s3.62,1.26,3.62,4.21l-.07,1h-5.95c0,1.93.6,2.94,2.36,2.94C690.15,101.34,692.12,101.17,692.12,101.17Zm-1-3.85c0-2.23-.69-3-2.27-3s-2.4.84-2.41,3Z" fill="#3a3d3f" />
			<path d="M696.29,102.34h-1.35V94.51h-1.13V93.34h1.13v-.81c0-2.59.67-3.29,2.43-3.29.61,0,1.82.12,1.82.12l0,1.12s-1,0-1.55,0c-1,0-1.33.43-1.33,2.11v.79h2.61v1.17h-2.61Z" fill="#3a3d3f" />
			<path d="M700.52,93.34h1.33v1.23a10.32,10.32,0,0,1,3.3-1.43v1.37a13,13,0,0,0-3.28,1.23v6.6h-1.35Z" fill="#3a3d3f" />
			<path d="M713.1,100.67c0,.52.47.72,1,.79l-.06,1.06a2.75,2.75,0,0,1-2.14-.72,9.2,9.2,0,0,1-3.24.72c-1.64,0-2.54-.93-2.54-2.75s.9-2.49,2.76-2.67l2.82-.27v-.77c0-1.26-.54-1.71-1.62-1.71-1.26,0-3.4.23-3.4.23l-.05-1a21.57,21.57,0,0,1,3.52-.4c2,0,2.9.94,2.9,2.9Zm-4-2.56c-1.1.11-1.53.63-1.53,1.62s.45,1.66,1.37,1.66a9.47,9.47,0,0,0,2.82-.56v-3Z" fill="#3a3d3f" />
			<path d="M715.76,102.34v-9h1.34V94a6,6,0,0,1,2.63-.81,2.54,2.54,0,0,1,2.34.92,7.46,7.46,0,0,1,3.2-.92c2.45,0,3,1.17,3,4.43v4.75H727V97.63c0-2.38-.28-3.26-1.9-3.26a6,6,0,0,0-2.53.66,10.4,10.4,0,0,1,.23,2.63v4.68h-1.35V97.7c0-2.49-.25-3.33-1.89-3.33a5.39,5.39,0,0,0-2.41.66v7.31Z" fill="#3a3d3f" />
			<path d="M737.46,101.17l0,1.07a32.2,32.2,0,0,1-3.51.28c-2.68,0-3.56-1.56-3.56-4.62,0-3.42,1.47-4.74,3.76-4.74s3.62,1.26,3.62,4.21l-.07,1h-5.94c0,1.93.59,2.94,2.35,2.94C735.49,101.34,737.46,101.17,737.46,101.17Zm-1-3.85c0-2.23-.69-3-2.27-3s-2.39.84-2.41,3Z" fill="#3a3d3f" />
			<path d="M739.81,100.29h1.48v2h-1.48Z" fill="#3a3d3f" />
			<path d="M748,89.88h1.39v12.46H748Z" fill="#3a3d3f" />
			<path d="M753.91,102.34h-1.35V94.51h-1.14V93.34h1.14v-.81c0-2.59.66-3.29,2.43-3.29.61,0,1.82.12,1.82.12l0,1.12s-1,0-1.55,0c-1,0-1.33.43-1.33,2.11v.79h2.61v1.17h-2.61Z" fill="#3a3d3f" />
			<path d="M762.71,93.34l1.82,7.83h.29L767,93.52h1.4l2.15,7.65h.3l1.8-7.83H774l-2.14,9h-2.25l-1.91-7-1.91,7H763.5l-2.14-9Z" fill="#3a3d3f" />
			<path d="M782.46,101.17l0,1.07a32.2,32.2,0,0,1-3.51.28c-2.68,0-3.56-1.56-3.56-4.62,0-3.42,1.47-4.74,3.76-4.74s3.62,1.26,3.62,4.21l-.07,1h-6c0,1.93.6,2.94,2.36,2.94C780.49,101.34,782.46,101.17,782.46,101.17Zm-1-3.85c0-2.23-.69-3-2.27-3s-2.4.84-2.41,3Z" fill="#3a3d3f" />
			<path d="M788.86,93.34h1.33V94a6.13,6.13,0,0,1,2.71-.83c2.26,0,3.25,1.39,3.25,4.58,0,3.52-1.15,4.78-3.92,4.78a12.35,12.35,0,0,1-2-.19v4h-1.35Zm1.35,1.75v6.07a14.93,14.93,0,0,0,1.95.19c2,0,2.63-1,2.63-3.61s-.78-3.37-2.09-3.37A5.87,5.87,0,0,0,790.21,95.09Z" fill="#3a3d3f" />
			<path d="M798.35,93.34h1.33v1.23a10.32,10.32,0,0,1,3.3-1.43v1.37a12.78,12.78,0,0,0-3.28,1.23v6.6h-1.35Z" fill="#3a3d3f" />
			<path d="M804.58,89.74h1.35v1.57h-1.35Zm0,3.6h1.35v9h-1.35Z" fill="#3a3d3f" />
			<path d="M815.83,97.74c0,3.27-.81,4.78-3.85,4.78s-3.86-1.51-3.86-4.78c0-3.1,1-4.58,3.86-4.58S815.83,94.64,815.83,97.74Zm-1.39,0c0-2.51-.54-3.41-2.46-3.41s-2.47.9-2.47,3.41.34,3.61,2.47,3.61S814.44,100.29,814.44,97.74Z" fill="#3a3d3f" />
			<path d="M818,93.34h1.33v1.23a10.32,10.32,0,0,1,3.3-1.43v1.37a13,13,0,0,0-3.28,1.23v6.6H818Z" fill="#3a3d3f" />
			<path d="M824.25,89.74h1.35v1.57h-1.35Zm0,3.6h1.35v9h-1.35Z" fill="#3a3d3f" />
			<path d="M830,94.51v4.31c0,2,.13,2.52,1.3,2.52.5,0,1.6-.11,1.6-.11l.09,1.11a15.43,15.43,0,0,1-1.84.2c-1.85,0-2.48-.7-2.48-3.29V94.51h-1.28V93.34h1.28V90.59H830v2.75h2.87v1.17Z" fill="#3a3d3f" />
			<path d="M834.51,89.74h1.35v1.57h-1.35Zm0,3.6h1.35v9h-1.35Z" fill="#3a3d3f" />
			<path d="M837.91,93.34h6.68v1.21l-5,6.59h5v1.2h-6.68v-1.2l5-6.59h-5Z" fill="#3a3d3f" />
			<path d="M853.29,101.17l0,1.07a32.2,32.2,0,0,1-3.51.28c-2.68,0-3.56-1.56-3.56-4.62,0-3.42,1.47-4.74,3.76-4.74s3.62,1.26,3.62,4.21l-.07,1h-5.95c0,1.93.6,2.94,2.36,2.94C851.32,101.34,853.29,101.17,853.29,101.17Zm-1-3.85c0-2.23-.69-3-2.27-3s-2.4.84-2.41,3Z" fill="#3a3d3f" />
			<path d="M864.1,90.46h1.3v11.88H864V92L861,94l-.63-1Z" fill="#3a3d3f" />
			<path d="M869.7,96.76h5.45V98H869.7Z" fill="#3a3d3f" />
			<path d="M877.6,102.34v-1.17l3.48-3.65c1.47-1.53,2.39-2.5,2.39-3.91,0-1.58-.88-2.09-2.59-2.09a17.06,17.06,0,0,0-3.08.4l-.11-1.15a14.3,14.3,0,0,1,3.44-.49c2.5,0,3.76,1,3.76,3.19,0,1.78-.81,2.82-2.48,4.45l-3.17,3.22h6v1.2Z" fill="#3a3d3f" />
			<path d="M893.42,102.34h-1.35V94.51h-1.13V93.34h1.13v-.81c0-2.59.67-3.29,2.43-3.29.62,0,1.82.12,1.82.12l0,1.12s-1,0-1.54,0c-1,0-1.34.43-1.34,2.11v.79H896v1.17h-2.61Z" fill="#3a3d3f" />
			<path d="M897.76,89.42h1.35v12.92h-1.35Z" fill="#3a3d3f" />
			<path d="M901.81,89.74h1.35v1.57h-1.35Zm0,3.6h1.35v9h-1.35Z" fill="#3a3d3f" />
			<path d="M905.36,103.86c0-1,.48-1.53,1.42-2.24a1.46,1.46,0,0,1-.51-1.24,5.78,5.78,0,0,1,.62-1.42c-.76-.34-1.43-1.06-1.43-2.72,0-2.21,1.37-3.08,3.37-3.08a9.07,9.07,0,0,1,1.87.24l2.67-.08v1.16l-1.71,0a2.35,2.35,0,0,1,.59,1.8c0,2.34-1.17,3-3.47,3a6.65,6.65,0,0,1-.88-.07,5.21,5.21,0,0,0-.33,1c0,.72.15.83,2.18.83,2.56,0,3.47.5,3.47,2.64s-1.45,2.87-4,2.87C906.38,106.58,905.36,106,905.36,103.86Zm2.34-1.7c-.76.56-1,.89-1,1.59,0,1.24.52,1.69,2.56,1.69,1.8,0,2.61-.48,2.61-1.67,0-1.37-.58-1.52-2.22-1.52C909,102.25,907.7,102.16,907.7,102.16Zm3.2-5.92c0-1.42-.56-2-2.07-2s-2,.56-2,2,.62,2,2,2S910.9,97.66,910.9,96.24Z" fill="#3a3d3f" />
			<path d="M915,102.34V89.42h1.34v4.43a7.64,7.64,0,0,1,2.78-.69c2.46,0,3,1.23,3,4.43v4.75h-1.35V97.63c0-2.38-.27-3.26-1.93-3.26a7.48,7.48,0,0,0-2.54.54v7.43Z" fill="#3a3d3f" />
			<path d="M926.47,94.51v4.31c0,2,.13,2.52,1.3,2.52.5,0,1.6-.11,1.6-.11l.09,1.11a15.71,15.71,0,0,1-1.84.2c-1.85,0-2.48-.7-2.48-3.29V94.51h-1.28V93.34h1.28V90.59h1.33v2.75h2.86v1.17Z" fill="#3a3d3f" />
			<path d="M937,94.66a29.33,29.33,0,0,0-3.15-.29c-1.12,0-2,.3-2,1.37,0,.84.44,1.08,2.34,1.4,2.25.38,3.1.83,3.1,2.58,0,2.1-1.33,2.8-3.49,2.8a25.65,25.65,0,0,1-3.17-.34l.07-1.17a29.5,29.5,0,0,0,3,.31c1.48,0,2.27-.33,2.27-1.55,0-.94-.47-1.17-2.43-1.48s-3-.7-3-2.5c0-2,1.61-2.63,3.24-2.63a23.19,23.19,0,0,1,3.26.34Z" fill="#3a3d3f" />
			<path d="M949.68,100.67c0,.52.46.72,1,.79l-.05,1.06a2.76,2.76,0,0,1-2.15-.72,9.2,9.2,0,0,1-3.24.72c-1.64,0-2.54-.93-2.54-2.75s.9-2.49,2.76-2.67l2.82-.27v-.77c0-1.26-.54-1.71-1.62-1.71-1.26,0-3.4.23-3.4.23l0-1a21.6,21.6,0,0,1,3.53-.4c2,0,2.9.94,2.9,2.9Zm-4-2.56c-1.1.11-1.53.63-1.53,1.62s.45,1.66,1.37,1.66a9.47,9.47,0,0,0,2.82-.56v-3Z" fill="#3a3d3f" />
			<path d="M952.34,102.34v-9h1.33V94a6.85,6.85,0,0,1,2.79-.81c2.48,0,3,1.23,3,4.43v4.75h-1.33V97.63c0-2.38-.27-3.26-1.94-3.26a6.19,6.19,0,0,0-2.54.66v7.31Z" fill="#3a3d3f" />
			<path d="M968.92,102.34h-1.34v-.61a6.42,6.42,0,0,1-2.73.79c-1.77,0-3.24-.72-3.24-4.6,0-3.17,1-4.76,3.76-4.76a14.12,14.12,0,0,1,2.21.24v-4h1.34Zm-1.34-1.69v-6.1a14.12,14.12,0,0,0-2.14-.22c-1.89,0-2.45,1.24-2.45,3.59,0,2.91,1,3.4,2,3.4A6.47,6.47,0,0,0,967.58,100.65Z" fill="#3a3d3f" />
			<path d="M981.84,100.67c0,.52.47.72,1,.79l0,1.06a2.75,2.75,0,0,1-2.14-.72,9.2,9.2,0,0,1-3.24.72c-1.64,0-2.54-.93-2.54-2.75s.9-2.49,2.75-2.67l2.83-.27v-.77c0-1.26-.54-1.71-1.62-1.71-1.26,0-3.4.23-3.4.23l-.06-1a21.6,21.6,0,0,1,3.53-.4c2,0,2.9.94,2.9,2.9Zm-4-2.56c-1.09.11-1.53.63-1.53,1.62s.45,1.66,1.37,1.66a9.48,9.48,0,0,0,2.83-.56v-3Z" fill="#3a3d3f" />
			<path d="M990.48,94.66a29.33,29.33,0,0,0-3.15-.29c-1.12,0-2,.3-2,1.37,0,.84.43,1.08,2.34,1.4,2.25.38,3.09.83,3.09,2.58,0,2.1-1.33,2.8-3.49,2.8a25.65,25.65,0,0,1-3.17-.34l.07-1.17a29.86,29.86,0,0,0,3,.31c1.48,0,2.27-.33,2.27-1.55,0-.94-.47-1.17-2.43-1.48s-3-.7-3-2.5c0-2,1.6-2.63,3.24-2.63a23.19,23.19,0,0,1,3.26.34Z" fill="#3a3d3f" />
			<path d="M998.85,94.66a29.33,29.33,0,0,0-3.15-.29c-1.12,0-2,.3-2,1.37,0,.84.43,1.08,2.34,1.4,2.25.38,3.09.83,3.09,2.58,0,2.1-1.33,2.8-3.49,2.8a25.65,25.65,0,0,1-3.17-.34l.07-1.17a29.86,29.86,0,0,0,3,.31c1.48,0,2.27-.33,2.27-1.55,0-.94-.47-1.17-2.43-1.48s-3-.7-3-2.5c0-2,1.6-2.63,3.24-2.63a23.19,23.19,0,0,1,3.26.34Z" fill="#3a3d3f" />
			<path d="M1001.24,89.74h1.35v1.57h-1.35Zm0,3.6h1.35v9h-1.35Z" fill="#3a3d3f" />
			<path d="M1004.79,103.86c0-1,.48-1.53,1.42-2.24a1.46,1.46,0,0,1-.5-1.24,5.82,5.82,0,0,1,.61-1.42c-.76-.34-1.42-1.06-1.42-2.72,0-2.21,1.36-3.08,3.36-3.08a9.22,9.22,0,0,1,1.88.24l2.66-.08v1.16l-1.71,0a2.35,2.35,0,0,1,.59,1.8c0,2.34-1.17,3-3.47,3a6.65,6.65,0,0,1-.88-.07,5.21,5.21,0,0,0-.33,1c0,.72.15.83,2.18.83,2.56,0,3.48.5,3.48,2.64s-1.46,2.87-4,2.87C1005.81,106.58,1004.79,106,1004.79,103.86Zm2.34-1.7c-.76.56-1,.89-1,1.59,0,1.24.52,1.69,2.56,1.69,1.8,0,2.61-.48,2.61-1.67,0-1.37-.58-1.52-2.22-1.52C1008.44,102.25,1007.13,102.16,1007.13,102.16Zm3.2-5.92c0-1.42-.55-2-2.07-2s-2,.56-2,2,.61,2,2,2S1010.33,97.66,1010.33,96.24Z" fill="#3a3d3f" />
			<path d="M1014.44,102.34v-9h1.33V94a6.85,6.85,0,0,1,2.79-.81c2.48,0,3,1.23,3,4.43v4.75h-1.33V97.63c0-2.38-.27-3.26-1.94-3.26a6.19,6.19,0,0,0-2.54.66v7.31Z" fill="#3a3d3f" />
			<path d="M1028,102.34v-1.17l3.47-3.65c1.48-1.53,2.4-2.5,2.4-3.91,0-1.58-.88-2.09-2.59-2.09a17.06,17.06,0,0,0-3.08.4l-.11-1.15a14.3,14.3,0,0,1,3.44-.49c2.5,0,3.76,1,3.76,3.19,0,1.78-.81,2.82-2.48,4.45l-3.17,3.22h6v1.2Z" fill="#3a3d3f" />
			<path d="M1047.92,93.43l-.06,1.1s-1.44-.16-2.12-.16c-2.07,0-2.63.9-2.63,3.31,0,2.67.41,3.64,2.65,3.64.68,0,2.12-.16,2.12-.16l.06,1.11a24.24,24.24,0,0,1-2.51.25c-2.86,0-3.71-1.31-3.71-4.84,0-3.26,1.07-4.52,3.75-4.52A20.89,20.89,0,0,1,1047.92,93.43Z" fill="#3a3d3f" />
			<path d="M1050,102.34V89.42h1.35v4.43a7.55,7.55,0,0,1,2.77-.69c2.47,0,3,1.23,3,4.43v4.75h-1.35V97.63c0-2.38-.27-3.26-1.93-3.26a7.41,7.41,0,0,0-2.54.54v7.43Z" fill="#3a3d3f" />
			<path d="M1066.26,101.17l0,1.07a32.5,32.5,0,0,1-3.52.28c-2.68,0-3.56-1.56-3.56-4.62,0-3.42,1.48-4.74,3.76-4.74s3.62,1.26,3.62,4.21l-.07,1h-5.94c0,1.93.59,2.94,2.36,2.94C1064.3,101.34,1066.26,101.17,1066.26,101.17Zm-1-3.85c0-2.23-.68-3-2.27-3s-2.39.84-2.41,3Z" fill="#3a3d3f" />
			<path d="M1074.52,93.43l0,1.1s-1.44-.16-2.13-.16c-2.07,0-2.63.9-2.63,3.31,0,2.67.42,3.64,2.65,3.64.69,0,2.13-.16,2.13-.16l0,1.11a24,24,0,0,1-2.5.25c-2.87,0-3.71-1.31-3.71-4.84,0-3.26,1.06-4.52,3.74-4.52A20.89,20.89,0,0,1,1074.52,93.43Z" fill="#3a3d3f" />
			<path d="M1076.55,102.34V89.42h1.35v7.63l1.41-.07,2.57-3.64h1.53l-2.93,4.14,3.06,4.86H1082l-2.68-4.17-1.43,0v4.12Z" fill="#3a3d3f" />
			<path d="M1085.1,96.76h5.46V98h-5.46Z" fill="#3a3d3f" />
			<path d="M1093.06,89.74h1.35v1.57h-1.35Zm0,3.6h1.35v9h-1.35Z" fill="#3a3d3f" />
			<path d="M1097,102.34v-9h1.33V94a6.85,6.85,0,0,1,2.79-.81c2.49,0,3.05,1.23,3.05,4.43v4.75h-1.34V97.63c0-2.38-.27-3.26-1.94-3.26a6.19,6.19,0,0,0-2.54.66v7.31Z" fill="#3a3d3f" />
			<path d="M1117.54,102.34h-1.33v-.61a6.49,6.49,0,0,1-2.74.79c-1.76,0-3.24-.72-3.24-4.6,0-3.17,1-4.76,3.76-4.76a14.13,14.13,0,0,1,2.22.24v-4h1.33Zm-1.33-1.69v-6.1a14.42,14.42,0,0,0-2.14-.22c-1.89,0-2.45,1.24-2.45,3.59,0,2.91,1,3.4,2,3.4A6.54,6.54,0,0,0,1116.21,100.65Z" fill="#3a3d3f" />
			<path d="M1126.79,101.17l0,1.07a32.2,32.2,0,0,1-3.51.28c-2.69,0-3.57-1.56-3.57-4.62,0-3.42,1.48-4.74,3.76-4.74s3.62,1.26,3.62,4.21l-.07,1h-5.94c0,1.93.6,2.94,2.36,2.94C1124.83,101.34,1126.79,101.17,1126.79,101.17Zm-1-3.85c0-2.23-.68-3-2.27-3s-2.39.84-2.41,3Z" fill="#3a3d3f" />
			<path d="M1135.22,94.66a29.33,29.33,0,0,0-3.16-.29c-1.11,0-2,.3-2,1.37,0,.84.43,1.08,2.34,1.4,2.25.38,3.1.83,3.1,2.58,0,2.1-1.33,2.8-3.49,2.8a25.4,25.4,0,0,1-3.17-.34L1129,101a29.5,29.5,0,0,0,3,.31c1.48,0,2.27-.33,2.27-1.55,0-.94-.47-1.17-2.43-1.48s-3-.7-3-2.5c0-2,1.6-2.63,3.24-2.63a23.19,23.19,0,0,1,3.26.34Z" fill="#3a3d3f" />
			<path d="M1137.61,102.34V89.42H1139v7.63l1.4-.07,2.58-3.64h1.53l-2.94,4.14,3.06,4.86h-1.53l-2.68-4.17-1.42,0v4.12Z" fill="#3a3d3f" />
			<path d="M1152.21,94.66a29.33,29.33,0,0,0-3.15-.29c-1.12,0-2,.3-2,1.37,0,.84.44,1.08,2.34,1.4,2.26.38,3.1.83,3.1,2.58,0,2.1-1.33,2.8-3.49,2.8a25.65,25.65,0,0,1-3.17-.34l.07-1.17a29.5,29.5,0,0,0,3,.31c1.48,0,2.27-.33,2.27-1.55,0-.94-.47-1.17-2.43-1.48s-3-.7-3-2.5c0-2,1.61-2.63,3.24-2.63a23,23,0,0,1,3.26.34Z" fill="#3a3d3f" />
			<path d="M1154.74,100.42h1.5l-1.21,4.14h-1.11Z" fill="#3a3d3f" />
			<path d="M662,122.51v4.31c0,2,.12,2.52,1.29,2.52.51,0,1.6-.11,1.6-.11l.09,1.11a15.44,15.44,0,0,1-1.83.2c-1.86,0-2.49-.7-2.49-3.29v-4.74h-1.28v-1.17h1.28v-2.75H662v2.75h2.86v1.17Z" fill="#3a3d3f" />
			<path d="M666.48,130.34V117.42h1.35v4.43a7.57,7.57,0,0,1,2.78-.69c2.46,0,3,1.23,3,4.43v4.75H672.3v-4.71c0-2.38-.27-3.26-1.93-3.26a7.41,7.41,0,0,0-2.54.54v7.43Z" fill="#3a3d3f" />
			<path d="M682.79,129.17l0,1.07a32.2,32.2,0,0,1-3.51.28c-2.69,0-3.57-1.56-3.57-4.62,0-3.42,1.48-4.74,3.77-4.74s3.61,1.26,3.61,4.21l-.07,1h-5.94c0,1.93.6,2.94,2.36,2.94C680.83,129.34,682.79,129.17,682.79,129.17Zm-1-3.85c0-2.23-.68-3-2.26-3s-2.4.84-2.42,3Z" fill="#3a3d3f" />
			<path d="M696.46,125.7c0,3.58-1,4.82-4.25,4.82-1.08,0-3-.19-3-.19V117.42h1.33v4.37a7.44,7.44,0,0,1,2.65-.63C695.63,121.16,696.46,122.46,696.46,125.7Zm-1.37,0c0-2.32-.47-3.33-2.06-3.33a7.57,7.57,0,0,0-2.5.52v6.34s1.17.09,1.66.09C694.65,129.32,695.09,128.22,695.09,125.7Z" fill="#3a3d3f" />
			<path d="M705,128.67c0,.52.47.72,1.05.79l-.06,1.06a2.75,2.75,0,0,1-2.14-.72,9.2,9.2,0,0,1-3.24.72c-1.64,0-2.54-.93-2.54-2.75s.9-2.49,2.75-2.67l2.83-.27v-.77c0-1.26-.54-1.71-1.62-1.71-1.26,0-3.4.23-3.4.23l-.06-1a21.77,21.77,0,0,1,3.53-.4c2,0,2.9.94,2.9,2.9Zm-4-2.56c-1.1.11-1.53.63-1.53,1.62s.45,1.66,1.36,1.66a9.48,9.48,0,0,0,2.83-.56v-3Z" fill="#3a3d3f" />
			<path d="M707.29,131.86c0-1.05.48-1.53,1.42-2.24a1.46,1.46,0,0,1-.5-1.24,5.82,5.82,0,0,1,.61-1.42c-.76-.34-1.42-1.06-1.42-2.72,0-2.21,1.36-3.08,3.36-3.08a9.22,9.22,0,0,1,1.88.24l2.66-.08v1.16l-1.71,0a2.35,2.35,0,0,1,.59,1.8c0,2.34-1.17,3-3.47,3a6.65,6.65,0,0,1-.88-.07,5.21,5.21,0,0,0-.33,1c0,.72.15.83,2.18.83,2.56,0,3.48.5,3.48,2.64s-1.46,2.87-4,2.87C708.31,134.58,707.29,134,707.29,131.86Zm2.34-1.7c-.76.56-1,.89-1,1.59,0,1.24.52,1.69,2.56,1.69,1.8,0,2.61-.48,2.61-1.67,0-1.37-.58-1.52-2.22-1.52C710.94,130.25,709.63,130.16,709.63,130.16Zm3.2-5.92c0-1.42-.55-2-2.07-2s-2,.56-2,2,.61,2,2,2S712.83,125.66,712.83,124.24Z" fill="#3a3d3f" />
			<path d="M722.91,122.66a29,29,0,0,0-3.15-.29c-1.11,0-2,.3-2,1.37,0,.84.43,1.08,2.34,1.4,2.25.38,3.1.83,3.1,2.58,0,2.1-1.33,2.8-3.49,2.8a25.4,25.4,0,0,1-3.17-.34l.07-1.17a29.5,29.5,0,0,0,3,.31c1.48,0,2.27-.33,2.27-1.55,0-.94-.47-1.17-2.43-1.48s-3-.7-3-2.5c0-2,1.6-2.63,3.24-2.63a23.19,23.19,0,0,1,3.26.34Z" fill="#3a3d3f" />
			<path d="M735.08,121.43l-.05,1.1s-1.44-.16-2.13-.16c-2.07,0-2.63.9-2.63,3.31,0,2.67.42,3.64,2.65,3.64.69,0,2.13-.16,2.13-.16l.05,1.11a24,24,0,0,1-2.5.25c-2.87,0-3.71-1.31-3.71-4.84,0-3.26,1.06-4.52,3.74-4.52A20.89,20.89,0,0,1,735.08,121.43Z" fill="#3a3d3f" />
			<path d="M743.47,128.67c0,.52.47.72,1,.79l0,1.06a2.75,2.75,0,0,1-2.14-.72,9.2,9.2,0,0,1-3.24.72c-1.64,0-2.54-.93-2.54-2.75s.9-2.49,2.75-2.67l2.83-.27v-.77c0-1.26-.54-1.71-1.62-1.71-1.26,0-3.4.23-3.4.23l-.06-1a21.6,21.6,0,0,1,3.53-.4c2,0,2.9.94,2.9,2.9Zm-4-2.56c-1.09.11-1.53.63-1.53,1.62s.45,1.66,1.37,1.66a9.48,9.48,0,0,0,2.83-.56v-3Z" fill="#3a3d3f" />
			<path d="M746.13,130.34v-9h1.33V122a6.86,6.86,0,0,1,2.8-.81c2.48,0,3,1.23,3,4.43v4.75H752v-4.71c0-2.38-.27-3.26-2-3.26a6.19,6.19,0,0,0-2.54.66v7.31Z" fill="#3a3d3f" />
			<path d="M767,125.7c0,3.58-1,4.82-4.25,4.82-1.08,0-3-.19-3-.19V117.42h1.33v4.37a7.44,7.44,0,0,1,2.65-.63C766.19,121.16,767,122.46,767,125.7Zm-1.36,0c0-2.32-.47-3.33-2.06-3.33a7.57,7.57,0,0,0-2.5.52v6.34s1.17.09,1.66.09C765.21,129.32,765.65,128.22,765.65,125.7Z" fill="#3a3d3f" />
			<path d="M775.87,129.17l0,1.07a32.5,32.5,0,0,1-3.52.28c-2.68,0-3.56-1.56-3.56-4.62,0-3.42,1.48-4.74,3.76-4.74s3.62,1.26,3.62,4.21l-.07,1H770.2c0,1.93.59,2.94,2.36,2.94C773.91,129.34,775.87,129.17,775.87,129.17Zm-1-3.85c0-2.23-.68-3-2.27-3s-2.39.84-2.41,3Z" fill="#3a3d3f" />
			<path d="M789.19,130.34h-1.33v-.61a6.49,6.49,0,0,1-2.74.79c-1.76,0-3.24-.72-3.24-4.6,0-3.17,1-4.76,3.76-4.76a14.13,14.13,0,0,1,2.22.24v-4h1.33Zm-1.33-1.69v-6.1a14.43,14.43,0,0,0-2.15-.22c-1.89,0-2.44,1.24-2.44,3.59,0,2.91,1,3.4,2,3.4A6.54,6.54,0,0,0,787.86,128.65Z" fill="#3a3d3f" />
			<path d="M798.44,129.17l0,1.07a32.47,32.47,0,0,1-3.51.28c-2.69,0-3.57-1.56-3.57-4.62,0-3.42,1.48-4.74,3.76-4.74s3.62,1.26,3.62,4.21l-.07,1h-5.94c0,1.93.59,2.94,2.36,2.94C796.48,129.34,798.44,129.17,798.44,129.17Zm-1-3.85c0-2.23-.68-3-2.27-3s-2.39.84-2.41,3Z" fill="#3a3d3f" />
			<path d="M801,117.42h1.35v12.92H801Z" fill="#3a3d3f" />
			<path d="M805,117.74h1.35v1.57H805Zm0,3.6h1.35v9H805Z" fill="#3a3d3f" />
			<path d="M809.58,121.34l2.11,7.83h.66l2.18-7.83h1.39l-2.54,9h-2.7l-2.54-9Z" fill="#3a3d3f" />
			<path d="M824.29,129.17l0,1.07a32.5,32.5,0,0,1-3.52.28c-2.68,0-3.56-1.56-3.56-4.62,0-3.42,1.48-4.74,3.76-4.74s3.62,1.26,3.62,4.21l-.07,1h-5.94c0,1.93.59,2.94,2.36,2.94C822.33,129.34,824.29,129.17,824.29,129.17Zm-1-3.85c0-2.23-.68-3-2.27-3s-2.39.84-2.41,3Z" fill="#3a3d3f" />
			<path d="M826.74,121.34h1.33v1.23a10.21,10.21,0,0,1,3.29-1.43v1.37a12.81,12.81,0,0,0-3.27,1.23v6.6h-1.35Z" fill="#3a3d3f" />
			<path d="M839.61,129.17l0,1.07a32.2,32.2,0,0,1-3.51.28c-2.68,0-3.56-1.56-3.56-4.62,0-3.42,1.47-4.74,3.76-4.74s3.62,1.26,3.62,4.21l-.07,1h-6c0,1.93.6,2.94,2.36,2.94C837.64,129.34,839.61,129.17,839.61,129.17Zm-1-3.85c0-2.23-.69-3-2.27-3s-2.4.84-2.41,3Z" fill="#3a3d3f" />
			<path d="M849,130.34h-1.34v-.61a6.42,6.42,0,0,1-2.73.79c-1.77,0-3.24-.72-3.24-4.6,0-3.17,1-4.76,3.76-4.76a14.12,14.12,0,0,1,2.21.24v-4H849Zm-1.34-1.69v-6.1a14.12,14.12,0,0,0-2.14-.22c-1.89,0-2.45,1.24-2.45,3.59,0,2.91,1,3.4,2,3.4A6.47,6.47,0,0,0,847.63,128.65Z" fill="#3a3d3f" />
			<path d="M862.84,125.74c0,3.27-.81,4.78-3.85,4.78s-3.85-1.51-3.85-4.78c0-3.1,1-4.58,3.85-4.58S862.84,122.64,862.84,125.74Zm-1.38,0c0-2.51-.54-3.41-2.47-3.41s-2.47.9-2.47,3.41.35,3.61,2.47,3.61S861.46,128.29,861.46,125.74Z" fill="#3a3d3f" />
			<path d="M865,130.34v-9h1.33V122a6.85,6.85,0,0,1,2.79-.81c2.49,0,3,1.23,3,4.43v4.75h-1.33v-4.71c0-2.38-.27-3.26-1.94-3.26a6.19,6.19,0,0,0-2.54.66v7.31Z" fill="#3a3d3f" />
			<path d="M880.46,122.51v4.31c0,2,.13,2.52,1.3,2.52.5,0,1.6-.11,1.6-.11l.09,1.11a15.44,15.44,0,0,1-1.83.2c-1.86,0-2.49-.7-2.49-3.29v-4.74h-1.28v-1.17h1.28v-2.75h1.33v2.75h2.87v1.17Z" fill="#3a3d3f" />
			<path d="M885,117.74h1.35v1.57H885Zm0,3.6h1.35v9H885Z" fill="#3a3d3f" />
			<path d="M888.93,130.34v-9h1.33V122a6,6,0,0,1,2.63-.81,2.54,2.54,0,0,1,2.34.92,7.46,7.46,0,0,1,3.2-.92c2.45,0,3,1.17,3,4.43v4.75h-1.35v-4.71c0-2.38-.27-3.26-1.89-3.26a6,6,0,0,0-2.54.66,9.85,9.85,0,0,1,.24,2.63v4.68h-1.35V125.7c0-2.49-.25-3.33-1.89-3.33a5.46,5.46,0,0,0-2.42.66v7.31Z" fill="#3a3d3f" />
			<path d="M910.62,129.17l0,1.07a32.2,32.2,0,0,1-3.51.28c-2.68,0-3.56-1.56-3.56-4.62,0-3.42,1.47-4.74,3.76-4.74s3.62,1.26,3.62,4.21l-.07,1h-5.95c0,1.93.6,2.94,2.36,2.94C908.65,129.34,910.62,129.17,910.62,129.17Zm-1-3.85c0-2.23-.69-3-2.27-3s-2.4.84-2.41,3Z" fill="#3a3d3f" />
			<path d="M913,128.29h1.48v2.05H913Z" fill="#3a3d3f" />
			<rect x="506.86" y="65.94" width="7.17" height="27.28" transform="translate(1020.89 159.16) rotate(-180)" fill="#2277d6" />
			<rect x="496.86" y="75.02" width="7.17" height="18.2" transform="translate(1000.89 168.24) rotate(-180)" fill="#2277d6" />
			<rect x="486.27" y="84.12" width="7.17" height="9.1" transform="translate(979.71 177.34) rotate(-180)" fill="#2277d6" />
			<path d="M454,71.73h-5.73V68.87A2.86,2.86,0,0,0,445.37,66h-5.72a2.86,2.86,0,0,0-2.87,2.86v2.86h-5.73a2.85,2.85,0,0,0-2.85,2.87V90.36a2.85,2.85,0,0,0,2.86,2.86h22.53A3.25,3.25,0,0,0,456.83,90V74.6A2.87,2.87,0,0,0,454,71.73Zm-8.6,0h-5.72V68.87h5.72Z" fill="#2277d6" />
			<path d="M663.44,24.42,665.8,36.9h.58l2.82-12.36H671l2.82,12.36h.58l2.36-12.48h1.58l-2.8,13.84h-2.82L670.1,26.44l-2.62,11.82h-2.82l-2.82-13.84Z" />
			<path d="M689.24,32h-7v6.26h-1.54V24.42h1.54v6.2h7v-6.2h1.52V38.26h-1.52Z" />
			<path d="M698.62,38.26h-1.54V32.44l-4.42-8h1.74l3.44,6.48,3.44-6.48H703l-4.4,8Z" />
			<path d="M709.31,24.42h1.54V38.26h-1.54Z" />
			<path d="M722,25.9s-2.78-.34-3.94-.34c-2,0-3,.7-3,2.26,0,1.8,1,2.1,3.39,2.64,2.76.62,4,1.3,4,3.72,0,3.06-1.68,4.26-4.43,4.26a36.65,36.65,0,0,1-4.38-.44l.16-1.28s2.72.36,4.14.36c2,0,3-.86,3-2.78,0-1.56-.82-2-3.09-2.44-2.86-.62-4.3-1.3-4.3-3.94s1.76-3.72,4.46-3.72a34.47,34.47,0,0,1,4.19.4Z" />
			<path d="M728,24.42h10V25.8h-4.22V38.26h-1.52V25.8H728Z" />
			<path d="M748.57,32h-7v6.26H740V24.42h1.54v6.2h7v-6.2h1.53V38.26h-1.53Z" />
			<path d="M753.49,24.42H755V38.26h-1.54Z" />
			<path d="M766.17,25.9s-2.78-.34-3.94-.34c-2,0-3,.7-3,2.26,0,1.8,1,2.1,3.38,2.64,2.76.62,4,1.3,4,3.72,0,3.06-1.68,4.26-4.42,4.26a36.39,36.39,0,0,1-4.38-.44l.16-1.28s2.72.36,4.14.36c2,0,3-.86,3-2.78,0-1.56-.82-2-3.08-2.44-2.86-.62-4.3-1.3-4.3-3.94s1.76-3.72,4.46-3.72a34.46,34.46,0,0,1,4.18.4Z" />
			<path d="M775.19,33v5.3h-1.54V24.42h5.12c2.9,0,4.42,1.28,4.42,4.2,0,2-.8,3.46-2.54,4l2.66,5.62h-1.7l-2.5-5.3Zm3.58-7.18h-3.58V31.6h3.6c2.08,0,2.82-1.24,2.82-3C781.61,26.72,780.71,25.78,778.77,25.78Z" />
			<path d="M786,24.42h8.42v1.36h-6.88v4.78h5.68V31.9h-5.68v5h6.88v1.36H786Z" />
			<path d="M805.39,38a20.83,20.83,0,0,1-3.82.42c-4.14,0-5.06-2.52-5.06-7.08s.9-7.16,5.06-7.16a20.32,20.32,0,0,1,3.82.44l-.06,1.3a24.64,24.64,0,0,0-3.6-.36c-3.08,0-3.62,1.84-3.62,5.78s.5,5.7,3.66,5.7a21.88,21.88,0,0,0,3.56-.36Z" />
			<path d="M807.35,31.4c0-4.56,1.18-7.18,5.46-7.18s5.48,2.58,5.48,7.18c0,4.76-1.18,7.06-5.48,7.06S807.35,36,807.35,31.4Zm9.34,0c0-3.74-.72-5.82-3.88-5.82s-3.88,2.06-3.88,5.82.68,5.7,3.88,5.7S816.69,35.3,816.69,31.4Z" />
			<path d="M821.11,24.42h2.78l3.92,11.7,3.92-11.7h2.78V38.26H833V26.06h-.28l-4,11.7H827l-4-11.7h-.28v12.2h-1.54Z" />
			<path d="M837.91,24.42h2.78l3.92,11.7,3.92-11.7h2.78V38.26h-1.54V26.06h-.28l-4,11.7h-1.72l-4-11.7h-.28v12.2h-1.54Z" />
			<path d="M854.71,24.42h8.42v1.36h-6.88v4.78h5.68V31.9h-5.68v5h6.88v1.36h-8.42Z" />
			<path d="M865.77,24.42h2.88L874,36.9h.42V24.42h1.52V38.26h-2.82l-5.38-12.48h-.38V38.26h-1.54Z" />
			<path d="M879.29,38.26V24.42h4.94c4,0,5.12,2.8,5.12,6.72s-1,7.12-5.12,7.12Zm4.94-12.48h-3.4V36.9h3.4c2.88,0,3.54-2.76,3.54-5.76S887.11,25.78,884.23,25.78Z" />
			<path d="M892.19,24.42h8.42v1.36h-6.88v4.78h5.68V31.9h-5.68v5h6.88v1.36h-8.42Z" />
			<path d="M903.25,38.26V24.42h4.94c4,0,5.12,2.8,5.12,6.72s-1,7.12-5.12,7.12Zm4.94-12.48h-3.4V36.9h3.4c2.88,0,3.54-2.76,3.54-5.76S911.07,25.78,908.19,25.78Z" />
			<path d="M920.71,31c-1.18,1-1.78,1.6-1.78,2.5v.7h-1.26a3.11,3.11,0,0,1-.26-1.22c0-1,.8-1.76,1.86-2.66,1.44-1.24,1.78-1.7,1.78-2.82,0-1.42-.86-2-2.66-2a18.55,18.55,0,0,0-3.1.46l-.1-1.22a15.14,15.14,0,0,1,3.34-.6c2.68,0,4,.88,4,3.2C922.57,29.14,922.27,29.74,920.71,31Zm-3.26,5h1.64v2.24h-1.64Z" />
			<path d="M375.49,80.1l3.81,5.22a4.06,4.06,0,0,0,2.87,1.19H406l-3.88-5.25c-.61-.82-1.07-1.16-1.8-1.16Z" fill="#2277d6" />
			<path d="M406.69,88.16H381.12a4,4,0,0,1-2.94-1.26l-4.25-5.52a2.74,2.74,0,0,0-2-.73c-2.29,0-5.46,0-7.57.09a2.32,2.32,0,0,0-1.92,1.51l-1.78,5.52a1.1,1.1,0,0,0,0,.76l1,2.31a1.46,1.46,0,0,0,1.37,1h42.2a2.07,2.07,0,0,0,1.94-1.36l.78-2.24Z" fill="#2277d6" />
			<path d="M371.55,93.45a3.32,3.32,0,0,1-6.57,0" fill="#2277d6" />
			<path d="M403,93.45a3.32,3.32,0,0,1-6.58,0" fill="#2277d6" />
		</g>
	</g>
</svg>
