<svg xmlns="http://www.w3.org/2000/svg" viewBox="0 0 566.31 517.94"><title>r_4_A_Screen</title><g id="Layer_2" data-name="Layer 2">
<g id="PF_Bg_2_Section"><rect width="566.31" height="517.94" fill="rgb(0,0,0,0)"/></g>
<g id="Layer_5" data-name="Layer 5"><path d="M28.38,26.38h8.28v1.36H29.92v5.4h5.7V34.5h-5.7v5.72H28.38Z"/><path d="M38.9,40.22V26.38h1.54V38.84h6.08v1.38Z"/><path d="M48.48,26.38H50V40.22H48.48Z"/><path d="M58.88,33.14H62.7v6.8a33.71,33.71,0,0,1-4.5.48c-4.24,0-5.36-2.6-5.36-7.08s1.16-7.16,5.32-7.16a25.77,25.77,0,0,1,4.54.52L62.64,28a31.73,31.73,0,0,0-4.3-.42c-3.2,0-3.9,1.86-3.9,5.78s.68,5.72,3.88,5.72a18.56,18.56,0,0,0,2.86-.28V34.52h-2.3Z"/><path d="M74.3,34h-7v6.26H65.72V26.38h1.54v6.2h7v-6.2h1.52V40.22H74.3Z"/><path d="M77.78,26.38h10v1.38H83.56V40.22H82V27.76H77.78Z"/><path d="M27,452.71v4.2H25.6V444.45h4.56c2.72,0,4,1.31,4,4s-1.26,4.25-4,4.25Zm3.15-1.22c1.82,0,2.57-1.1,2.57-3s-.75-2.79-2.57-2.79H27v5.82Z" fill="#3a3d3f"/><path d="M36,447.9h1.34v1.23a10.06,10.06,0,0,1,3.29-1.42v1.37a13.15,13.15,0,0,0-3.28,1.22v6.61H36Z" fill="#3a3d3f"/><path d="M42.27,444.3h1.35v1.57H42.27Zm0,3.6h1.35v9H42.27Z" fill="#3a3d3f"/><path d="M53.52,452.3c0,3.28-.81,4.79-3.85,4.79s-3.85-1.51-3.85-4.79c0-3.1,1-4.58,3.85-4.58S53.52,449.2,53.52,452.3Zm-1.38,0c0-2.51-.54-3.4-2.47-3.4s-2.47.89-2.47,3.4.34,3.62,2.47,3.62S52.14,454.86,52.14,452.3Z" fill="#3a3d3f"/><path d="M55.72,447.9h1.33v1.23a10.18,10.18,0,0,1,3.29-1.42v1.37a13,13,0,0,0-3.27,1.22v6.61H55.72Z" fill="#3a3d3f"/><path d="M61.94,444.3h1.35v1.57H61.94Zm0,3.6h1.35v9H61.94Z" fill="#3a3d3f"/><path d="M67.69,449.08v4.3c0,2,.12,2.52,1.29,2.52.51,0,1.61-.11,1.61-.11l.09,1.12a15.71,15.71,0,0,1-1.84.2c-1.86,0-2.49-.71-2.49-3.3v-4.73H65.08V447.9h1.27v-2.75h1.34v2.75h2.86v1.18Z" fill="#3a3d3f"/><path d="M72.21,444.3h1.34v1.57H72.21Zm0,3.6h1.34v9H72.21Z" fill="#3a3d3f"/><path d="M75.61,447.9h6.68v1.21l-5.05,6.59h5.05v1.21H75.61V455.7l5-6.59h-5Z" fill="#3a3d3f"/><path d="M84.34,444.3h1.35v1.57H84.34Zm0,3.6h1.35v9H84.34Z" fill="#3a3d3f"/><path d="M88.28,456.91v-9h1.33v.64a6.79,6.79,0,0,1,2.79-.82c2.48,0,3,1.23,3,4.43v4.76H94.11v-4.72c0-2.38-.27-3.26-1.94-3.26a6.12,6.12,0,0,0-2.54.67v7.31Z" fill="#3a3d3f"/><path d="M97.55,458.42c0-1,.48-1.53,1.42-2.23a1.49,1.49,0,0,1-.51-1.24,5.7,5.7,0,0,1,.62-1.43c-.76-.34-1.43-1.06-1.43-2.72,0-2.21,1.37-3.08,3.37-3.08a9.07,9.07,0,0,1,1.87.24l2.67-.07V449l-1.71,0a2.37,2.37,0,0,1,.59,1.8c0,2.34-1.17,3.05-3.47,3.05-.18,0-.69,0-.88-.07a5.3,5.3,0,0,0-.33,1c0,.72.15.83,2.18.83,2.56,0,3.48.5,3.48,2.65s-1.46,2.86-4,2.86C98.57,461.14,97.55,460.51,97.55,458.42Zm2.34-1.69c-.76.56-1,.88-1,1.58,0,1.24.52,1.69,2.56,1.69,1.8,0,2.61-.48,2.61-1.67,0-1.37-.58-1.51-2.22-1.51C101.2,456.82,99.89,456.73,99.89,456.73Zm3.2-5.93c0-1.42-.56-2-2.07-2s-2,.56-2,2,.62,2,2,2S103.09,452.23,103.09,450.8Z" fill="#3a3d3f"/><path d="M113,449.08v4.3c0,2,.12,2.52,1.29,2.52.51,0,1.6-.11,1.6-.11l.09,1.12a15.44,15.44,0,0,1-1.83.2c-1.86,0-2.49-.71-2.49-3.3v-4.73h-1.28V447.9h1.28v-2.75H113v2.75h2.86v1.18Z" fill="#3a3d3f"/><path d="M117.47,456.91V444h1.35v4.43a7.57,7.57,0,0,1,2.78-.69c2.46,0,3,1.23,3,4.43v4.76h-1.35v-4.72c0-2.38-.27-3.26-1.93-3.26a7.41,7.41,0,0,0-2.54.54v7.44Z" fill="#3a3d3f"/><path d="M127.14,444.3h1.35v1.57h-1.35Zm0,3.6h1.35v9h-1.35Z" fill="#3a3d3f"/><path d="M137.06,449.22a29.33,29.33,0,0,0-3.15-.29c-1.12,0-2,.31-2,1.37,0,.85.43,1.08,2.34,1.4,2.25.38,3.09.83,3.09,2.58,0,2.11-1.33,2.81-3.49,2.81a25.65,25.65,0,0,1-3.17-.34l.07-1.17s2.06.3,3,.3c1.48,0,2.27-.32,2.27-1.55,0-.93-.47-1.17-2.43-1.47s-3-.71-3-2.51c0-2,1.6-2.63,3.24-2.63a22.55,22.55,0,0,1,3.26.35Z" fill="#3a3d3f"/><path d="M145.14,456.91h-1.35v-7.83h-1.13V447.9h1.13v-.81c0-2.59.67-3.29,2.43-3.29.61,0,1.82.13,1.82.13l0,1.11s-1,0-1.55,0c-1,0-1.33.43-1.33,2.1v.79h2.61v1.18h-2.61Z" fill="#3a3d3f"/><path d="M149.48,444h1.35v12.93h-1.35Z" fill="#3a3d3f"/><path d="M153.53,444.3h1.35v1.57h-1.35Zm0,3.6h1.35v9h-1.35Z" fill="#3a3d3f"/><path d="M157.07,458.42c0-1,.49-1.53,1.43-2.23A1.46,1.46,0,0,1,158,455a5.75,5.75,0,0,1,.61-1.43c-.75-.34-1.42-1.06-1.42-2.72,0-2.21,1.37-3.08,3.37-3.08a9.07,9.07,0,0,1,1.87.24l2.67-.07V449l-1.71,0a2.37,2.37,0,0,1,.59,1.8c0,2.34-1.17,3.05-3.47,3.05-.18,0-.69,0-.89-.07a5.42,5.42,0,0,0-.32,1c0,.72.14.83,2.18.83,2.55,0,3.47.5,3.47,2.65s-1.46,2.86-4,2.86C158.1,461.14,157.07,460.51,157.07,458.42Zm2.35-1.69c-.76.56-1,.88-1,1.58,0,1.24.52,1.69,2.55,1.69,1.8,0,2.61-.48,2.61-1.67,0-1.37-.57-1.51-2.21-1.51C160.73,456.82,159.42,456.73,159.42,456.73Zm3.2-5.93c0-1.42-.56-2-2.07-2s-2,.56-2,2,.61,2,2,2S162.62,452.23,162.62,450.8Z" fill="#3a3d3f"/><path d="M166.72,456.91V444h1.35v4.43a7.57,7.57,0,0,1,2.78-.69c2.46,0,3,1.23,3,4.43v4.76h-1.35v-4.72c0-2.38-.27-3.26-1.93-3.26a7.41,7.41,0,0,0-2.54.54v7.44Z" fill="#3a3d3f"/><path d="M178.19,449.08v4.3c0,2,.12,2.52,1.3,2.52.5,0,1.6-.11,1.6-.11l.09,1.12a15.71,15.71,0,0,1-1.84.2c-1.85,0-2.48-.71-2.48-3.3v-4.73h-1.28V447.9h1.28v-2.75h1.33v2.75h2.86v1.18Z" fill="#3a3d3f"/><path d="M186.67,444.3H188v1.57h-1.35Zm0,3.6H188v9h-1.35Z" fill="#3a3d3f"/><path d="M196.59,449.22a29.33,29.33,0,0,0-3.15-.29c-1.12,0-2,.31-2,1.37,0,.85.44,1.08,2.34,1.4,2.25.38,3.1.83,3.1,2.58,0,2.11-1.33,2.81-3.49,2.81a25.65,25.65,0,0,1-3.17-.34l.07-1.17s2.05.3,3,.3c1.48,0,2.27-.32,2.27-1.55,0-.93-.47-1.17-2.43-1.47s-3-.71-3-2.51c0-2,1.61-2.63,3.24-2.63a22.55,22.55,0,0,1,3.26.35Z" fill="#3a3d3f"/><path d="M208.92,449.22a29.33,29.33,0,0,0-3.15-.29c-1.12,0-2,.31-2,1.37,0,.85.44,1.08,2.34,1.4,2.25.38,3.1.83,3.1,2.58,0,2.11-1.33,2.81-3.49,2.81a25.65,25.65,0,0,1-3.17-.34l.07-1.17s2,.3,3,.3c1.48,0,2.27-.32,2.27-1.55,0-.93-.47-1.17-2.43-1.47s-3-.71-3-2.51c0-2,1.61-2.63,3.24-2.63a22.55,22.55,0,0,1,3.26.35Z" fill="#3a3d3f"/><path d="M218.28,447.9v9h-1.35v-.63a6.08,6.08,0,0,1-2.67.81c-2.52,0-3-1.17-3-4.49v-4.7h1.35v4.69c0,2.48.22,3.29,1.89,3.29a5.47,5.47,0,0,0,2.47-.67V447.9Z" fill="#3a3d3f"/><path d="M220.47,458.42c0-1,.49-1.53,1.42-2.23a1.48,1.48,0,0,1-.5-1.24,5.75,5.75,0,0,1,.61-1.43c-.75-.34-1.42-1.06-1.42-2.72,0-2.21,1.37-3.08,3.37-3.08a9.07,9.07,0,0,1,1.87.24l2.66-.07V449l-1.71,0a2.37,2.37,0,0,1,.6,1.8c0,2.34-1.17,3.05-3.48,3.05-.18,0-.68,0-.88-.07a5.42,5.42,0,0,0-.32,1c0,.72.14.83,2.17.83,2.56,0,3.48.5,3.48,2.65s-1.46,2.86-4,2.86C221.5,461.14,220.47,460.51,220.47,458.42Zm2.34-1.69c-.76.56-1,.88-1,1.58,0,1.24.53,1.69,2.56,1.69,1.8,0,2.61-.48,2.61-1.67,0-1.37-.58-1.51-2.21-1.51C224.13,456.82,222.81,456.73,222.81,456.73ZM226,450.8c0-1.42-.56-2-2.07-2s-2,.56-2,2,.61,2,2,2S226,452.23,226,450.8Z" fill="#3a3d3f"/><path d="M229.72,458.42c0-1,.49-1.53,1.42-2.23a1.48,1.48,0,0,1-.5-1.24,5.75,5.75,0,0,1,.61-1.43c-.75-.34-1.42-1.06-1.42-2.72,0-2.21,1.37-3.08,3.37-3.08a9.07,9.07,0,0,1,1.87.24l2.67-.07V449L236,449a2.33,2.33,0,0,1,.6,1.8c0,2.34-1.17,3.05-3.48,3.05-.18,0-.68,0-.88-.07a5.42,5.42,0,0,0-.32,1c0,.72.14.83,2.18.83,2.55,0,3.47.5,3.47,2.65s-1.46,2.86-4,2.86C230.75,461.14,229.72,460.51,229.72,458.42Zm2.34-1.69c-.75.56-1,.88-1,1.58,0,1.24.53,1.69,2.56,1.69,1.8,0,2.61-.48,2.61-1.67,0-1.37-.57-1.51-2.21-1.51C233.38,456.82,232.06,456.73,232.06,456.73Zm3.21-5.93c0-1.42-.56-2-2.07-2s-2,.56-2,2,.61,2,2,2S235.27,452.23,235.27,450.8Z" fill="#3a3d3f"/><path d="M246,455.74l0,1.06a31.12,31.12,0,0,1-3.51.29c-2.68,0-3.57-1.57-3.57-4.63,0-3.42,1.48-4.74,3.77-4.74s3.62,1.27,3.62,4.22l-.07,1h-5.95c0,1.93.6,2.94,2.36,2.94C244.05,455.9,246,455.74,246,455.74Zm-1-3.86c0-2.23-.69-3-2.27-3s-2.4.85-2.41,3Z" fill="#3a3d3f"/><path d="M254.44,449.22a29.33,29.33,0,0,0-3.15-.29c-1.12,0-2,.31-2,1.37,0,.85.44,1.08,2.35,1.4,2.25.38,3.09.83,3.09,2.58,0,2.11-1.33,2.81-3.49,2.81a25.65,25.65,0,0,1-3.17-.34l.07-1.17s2.05.3,3,.3c1.48,0,2.27-.32,2.27-1.55,0-.93-.47-1.17-2.43-1.47s-3-.71-3-2.51c0-2,1.61-2.63,3.24-2.63a22.35,22.35,0,0,1,3.26.35Z" fill="#3a3d3f"/><path d="M258.63,449.08v4.3c0,2,.13,2.52,1.3,2.52.5,0,1.6-.11,1.6-.11l.09,1.12a15.71,15.71,0,0,1-1.84.2c-1.85,0-2.48-.71-2.48-3.3v-4.73H256V447.9h1.28v-2.75h1.33v2.75h2.86v1.18Z" fill="#3a3d3f"/><path d="M269.79,455.74l0,1.06a31.12,31.12,0,0,1-3.51.29c-2.69,0-3.57-1.57-3.57-4.63,0-3.42,1.48-4.74,3.77-4.74s3.61,1.27,3.61,4.22l-.07,1h-5.94c0,1.93.6,2.94,2.36,2.94C267.83,455.9,269.79,455.74,269.79,455.74Zm-1-3.86c0-2.23-.68-3-2.26-3s-2.4.85-2.42,3Z" fill="#3a3d3f"/><path d="M279.15,456.91h-1.33v-.62a6.44,6.44,0,0,1-2.74.8c-1.76,0-3.24-.72-3.24-4.61,0-3.17,1-4.76,3.77-4.76a14.12,14.12,0,0,1,2.21.24v-4h1.33Zm-1.33-1.7v-6.1a16.07,16.07,0,0,0-2.14-.21c-1.89,0-2.45,1.24-2.45,3.58,0,2.91.95,3.4,2,3.4A6.53,6.53,0,0,0,277.82,455.21Z" fill="#3a3d3f"/><path d="M281.67,454.86h1.48v2.05h-1.48Z" fill="#3a3d3f"/><path d="M288.55,444.45h9v1.24h-3.8v11.22h-1.37V445.69h-3.83Z" fill="#3a3d3f"/><path d="M299.08,456.91V444h1.35v4.43a7.55,7.55,0,0,1,2.77-.69c2.47,0,3,1.23,3,4.43v4.76h-1.35v-4.72c0-2.38-.27-3.26-1.93-3.26a7.39,7.39,0,0,0-2.53.54v7.44Z" fill="#3a3d3f"/><path d="M315.39,455.74l0,1.06a31.12,31.12,0,0,1-3.51.29c-2.68,0-3.56-1.57-3.56-4.63,0-3.42,1.47-4.74,3.76-4.74s3.62,1.27,3.62,4.22l-.07,1h-6c0,1.93.6,2.94,2.36,2.94C313.42,455.9,315.39,455.74,315.39,455.74Zm-1-3.86c0-2.23-.69-3-2.27-3s-2.4.85-2.41,3Z" fill="#3a3d3f"/><path d="M321.79,456.91v-9h1.33v.64a6,6,0,0,1,2.63-.82,2.54,2.54,0,0,1,2.34.92,7.53,7.53,0,0,1,3.21-.92c2.45,0,3,1.18,3,4.43v4.76H333v-4.72c0-2.38-.27-3.26-1.89-3.26a6,6,0,0,0-2.54.67,10.24,10.24,0,0,1,.24,2.63v4.68h-1.35v-4.65c0-2.48-.26-3.33-1.9-3.33a5.39,5.39,0,0,0-2.41.67v7.31Z" fill="#3a3d3f"/><path d="M344.15,452.3c0,3.28-.81,4.79-3.85,4.79s-3.86-1.51-3.86-4.79c0-3.1,1-4.58,3.86-4.58S344.15,449.2,344.15,452.3Zm-1.39,0c0-2.51-.54-3.4-2.46-3.4s-2.47.89-2.47,3.4.34,3.62,2.47,3.62S342.76,454.86,342.76,452.3Z" fill="#3a3d3f"/><path d="M352.32,449.22a29.33,29.33,0,0,0-3.15-.29c-1.12,0-2,.31-2,1.37,0,.85.43,1.08,2.34,1.4,2.25.38,3.1.83,3.1,2.58,0,2.11-1.34,2.81-3.5,2.81a25.65,25.65,0,0,1-3.17-.34l.07-1.17s2.06.3,3,.3c1.47,0,2.26-.32,2.26-1.55,0-.93-.46-1.17-2.43-1.47s-3-.71-3-2.51c0-2,1.6-2.63,3.24-2.63a22.55,22.55,0,0,1,3.26.35Z" fill="#3a3d3f"/><path d="M356.51,449.08v4.3c0,2,.13,2.52,1.3,2.52.5,0,1.6-.11,1.6-.11l.09,1.12a15.44,15.44,0,0,1-1.83.2c-1.86,0-2.49-.71-2.49-3.3v-4.73H353.9V447.9h1.28v-2.75h1.33v2.75h2.87v1.18Z" fill="#3a3d3f"/><path d="M371,449.22a29.33,29.33,0,0,0-3.15-.29c-1.12,0-2,.31-2,1.37,0,.85.43,1.08,2.34,1.4,2.25.38,3.09.83,3.09,2.58,0,2.11-1.33,2.81-3.49,2.81a25.65,25.65,0,0,1-3.17-.34l.07-1.17s2.06.3,3,.3c1.48,0,2.27-.32,2.27-1.55,0-.93-.47-1.17-2.43-1.47s-3-.71-3-2.51c0-2,1.6-2.63,3.24-2.63a22.55,22.55,0,0,1,3.26.35Z" fill="#3a3d3f"/><path d="M380.33,447.9v9H379v-.63a6.08,6.08,0,0,1-2.67.81c-2.52,0-3-1.17-3-4.49v-4.7h1.35v4.69c0,2.48.22,3.29,1.89,3.29a5.47,5.47,0,0,0,2.47-.67V447.9Z" fill="#3a3d3f"/><path d="M382.92,444.3h1.35v1.57h-1.35Zm0,3.6h1.35v9h-1.35Z" fill="#3a3d3f"/><path d="M388.66,449.08v4.3c0,2,.13,2.52,1.3,2.52.5,0,1.6-.11,1.6-.11l.09,1.12a15.71,15.71,0,0,1-1.84.2c-1.85,0-2.48-.71-2.48-3.3v-4.73h-1.28V447.9h1.28v-2.75h1.33v2.75h2.86v1.18Z" fill="#3a3d3f"/><path d="M399.54,455.23c0,.53.46.72,1,.8l-.05,1.06a2.76,2.76,0,0,1-2.15-.72,9.2,9.2,0,0,1-3.24.72c-1.64,0-2.54-.94-2.54-2.76s.9-2.48,2.76-2.66l2.82-.27v-.78c0-1.26-.54-1.71-1.62-1.71-1.26,0-3.4.24-3.4.24l-.05-1a21.6,21.6,0,0,1,3.53-.4c2,0,2.9.94,2.9,2.9Zm-4-2.55c-1.1.11-1.53.63-1.53,1.62s.45,1.65,1.37,1.65a9.47,9.47,0,0,0,2.82-.56v-3Z" fill="#3a3d3f"/><path d="M409.45,452.26c0,3.59-1,4.83-4.25,4.83-1.08,0-3-.2-3-.2V444h1.33v4.38a7.35,7.35,0,0,1,2.65-.64C408.63,447.72,409.45,449,409.45,452.26Zm-1.37,0c0-2.32-.46-3.33-2.05-3.33a7.57,7.57,0,0,0-2.5.52v6.34s1.17.09,1.66.09C407.65,455.88,408.08,454.78,408.08,452.26Z" fill="#3a3d3f"/><path d="M411.77,444h1.35v12.93h-1.35Z" fill="#3a3d3f"/><path d="M422.47,455.74l0,1.06a31.12,31.12,0,0,1-3.51.29c-2.68,0-3.56-1.57-3.56-4.63,0-3.42,1.47-4.74,3.76-4.74s3.62,1.27,3.62,4.22l-.07,1h-5.95c0,1.93.6,2.94,2.36,2.94C420.5,455.9,422.47,455.74,422.47,455.74Zm-1-3.86c0-2.23-.69-3-2.27-3s-2.4.85-2.41,3Z" fill="#3a3d3f"/><path d="M434.94,448.08l-.07,1.91s-1.42-.14-2.11-.14c-1.73,0-2.05.67-2.05,2.47,0,2,.34,2.64,2.07,2.64.68,0,2.09-.14,2.09-.14l.07,1.93a21.76,21.76,0,0,1-2.93.37c-2.69,0-3.75-1.42-3.75-4.8,0-3.19,1.12-4.63,3.8-4.63A18.78,18.78,0,0,1,434.94,448.08Z" fill="#3a3d3f"/><path d="M436.72,456.91V444.3h2.41v4a6,6,0,0,1,2.24-.65c2.52,0,3.17,1.58,3.17,4.34v4.88h-2.42v-4.83c0-1.35-.18-2.23-1.35-2.23a5.93,5.93,0,0,0-1.64.29v6.77Z" fill="#3a3d3f"/><path d="M453.8,454.84l0,1.78a19.18,19.18,0,0,1-3.74.5c-2.72,0-3.88-1.35-3.88-4.59s1.36-4.84,4-4.84,3.93,1.35,3.93,4.07l-.18,1.67h-5.29c0,1.08.52,1.57,1.81,1.57C452,455,453.8,454.84,453.8,454.84Zm-2.05-3.24c0-1.46-.41-1.93-1.55-1.93s-1.54.56-1.56,1.93Z" fill="#3a3d3f"/><path d="M462.1,448.08,462,450s-1.42-.14-2.11-.14c-1.72,0-2.05.67-2.05,2.47,0,2,.34,2.64,2.07,2.64.69,0,2.09-.14,2.09-.14l.07,1.93a21.51,21.51,0,0,1-2.93.37c-2.69,0-3.75-1.42-3.75-4.8,0-3.19,1.12-4.63,3.8-4.63A18.57,18.57,0,0,1,462.1,448.08Z" fill="#3a3d3f"/><path d="M463.88,456.91V444.3h2.42v7.17l.91-.16L469,447.9h2.7l-2.34,4.27,2.46,4.74H469.1l-1.81-3.51-1,.16v3.35Z" fill="#3a3d3f"/><path d="M473,451h5.33v2.2H473Z" fill="#3a3d3f"/><path d="M480.5,444.3h2.41v2.45H480.5Zm0,3.6h2.41v9H480.5Z" fill="#3a3d3f"/><path d="M485.14,456.91v-9h2.39v.51a5.49,5.49,0,0,1,2.26-.72c2.52,0,3.16,1.58,3.16,4.34v4.88h-2.41V452.1c0-1.37-.18-2.25-1.35-2.25a5,5,0,0,0-1.64.32v6.74Z" fill="#3a3d3f"/><path d="M506.71,456.91h-2.4v-.38a6.51,6.51,0,0,1-2.18.59c-2.72,0-3.51-1.58-3.51-4.75s1.28-4.68,3.73-4.68a14.18,14.18,0,0,1,1.94.25V444.3h2.42Zm-2.42-2.22V450a11.93,11.93,0,0,0-1.76-.18c-.9,0-1.46.77-1.46,2.59s.34,2.59,1.48,2.59A7.05,7.05,0,0,0,504.29,454.69Z" fill="#3a3d3f"/><path d="M516.07,454.84l0,1.78a19.18,19.18,0,0,1-3.74.5c-2.72,0-3.87-1.35-3.87-4.59s1.35-4.84,4-4.84,3.93,1.35,3.93,4.07l-.18,1.67h-5.29c0,1.08.52,1.57,1.81,1.57C514.21,455,516.07,454.84,516.07,454.84ZM514,451.6c0-1.46-.41-1.93-1.55-1.93s-1.54.56-1.56,1.93Z" fill="#3a3d3f"/><path d="M524.58,450.16s-2.23-.29-3.28-.29-1.26.23-1.26.72.34.5,2,.81c2.09.38,2.83,1,2.83,2.81,0,2.1-1.37,2.91-3.62,2.91a22.75,22.75,0,0,1-3.46-.43l.07-2s2.24.28,3.15.28c1.16,0,1.46-.23,1.46-.7s-.2-.58-1.85-.85c-2-.32-3-.79-3-2.77s1.58-2.93,3.47-2.93a23.19,23.19,0,0,1,3.5.45Z" fill="#3a3d3f"/><path d="M526.61,456.91V444.3H529v7.17l.92-.16,1.78-3.41h2.71l-2.35,4.27,2.47,4.74h-2.72L530,453.4l-1,.16v3.35Z" fill="#3a3d3f"/><path d="M542.34,450.16s-2.23-.29-3.27-.29-1.26.23-1.26.72.34.5,2,.81c2.08.38,2.82,1,2.82,2.81,0,2.1-1.37,2.91-3.62,2.91a22.54,22.54,0,0,1-3.45-.43l.07-2s2.23.28,3.15.28c1.15,0,1.46-.23,1.46-.7s-.2-.58-1.86-.85c-1.94-.32-3-.79-3-2.77s1.59-2.93,3.48-2.93a23.2,23.2,0,0,1,3.49.45Z" fill="#3a3d3f"/><path d="M31.72,483.23c0,.53.47.72,1.05.8l-.06,1.06a2.75,2.75,0,0,1-2.14-.72,9.2,9.2,0,0,1-3.24.72c-1.64,0-2.54-.94-2.54-2.76s.9-2.48,2.76-2.66l2.82-.27v-.78c0-1.26-.54-1.71-1.62-1.71-1.26,0-3.4.24-3.4.24l-.05-1a21.6,21.6,0,0,1,3.53-.4c2,0,2.89.94,2.89,2.9Zm-4-2.55c-1.1.11-1.53.63-1.53,1.62s.45,1.65,1.37,1.65a9.47,9.47,0,0,0,2.82-.56v-3Z" fill="#3a3d3f"/><path d="M34.39,475.9h1.33v1.23A10.18,10.18,0,0,1,39,475.71v1.37a13,13,0,0,0-3.27,1.22v6.61H34.39Z" fill="#3a3d3f"/><path d="M47.26,483.74l0,1.06a31.12,31.12,0,0,1-3.51.29c-2.68,0-3.56-1.57-3.56-4.63,0-3.42,1.47-4.74,3.76-4.74s3.62,1.27,3.62,4.22l-.07,1H41.59c0,1.93.59,2.94,2.35,2.94C45.29,483.9,47.26,483.74,47.26,483.74Zm-1-3.86c0-2.23-.68-3-2.27-3s-2.39.85-2.41,3Z" fill="#3a3d3f"/><path d="M53.48,473.46a10.75,10.75,0,0,1,3.46-.65c3.13,0,4.16,1.06,4.16,3.27a2.93,2.93,0,0,1-1.39,2.67,2.44,2.44,0,0,1,1.61,2.57c0,2.51-1.16,3.8-4.06,3.8a16.67,16.67,0,0,1-3.87-.61l.13-1.89a25.77,25.77,0,0,0,3.38.34c1.23,0,1.86-.48,1.86-1.58,0-.88-.7-1.46-1.73-1.46H54.64v-2.05H57a1.64,1.64,0,0,0,1.51-1.62c0-.85-.56-1.28-1.78-1.28a20.23,20.23,0,0,0-3.11.32Z" fill="#3a3d3f"/><path d="M68.21,483h-5v-1.9l2.93-8h2.74l-3.19,7.77h2.56v-3.34h2.48v3.34h1.14V483H70.69v2H68.21Z" fill="#3a3d3f"/><path d="M84.14,483.23c0,.53.47.72,1,.8l-.05,1.06a2.75,2.75,0,0,1-2.14-.72,9.2,9.2,0,0,1-3.24.72c-1.64,0-2.54-.94-2.54-2.76s.9-2.48,2.75-2.66l2.83-.27v-.78c0-1.26-.54-1.71-1.62-1.71-1.26,0-3.4.24-3.4.24l-.06-1a21.6,21.6,0,0,1,3.53-.4c2,0,2.9.94,2.9,2.9Zm-4-2.55c-1.09.11-1.53.63-1.53,1.62S79,484,80,484a9.57,9.57,0,0,0,2.83-.56v-3Z" fill="#3a3d3f"/><path d="M86.8,484.91v-9h1.33v.64a6.79,6.79,0,0,1,2.79-.82c2.49,0,3,1.23,3,4.43v4.76H92.63v-4.72c0-2.38-.26-3.26-1.94-3.26a6.12,6.12,0,0,0-2.54.67v7.31Z" fill="#3a3d3f"/><path d="M103.38,484.91h-1.33v-.62a6.44,6.44,0,0,1-2.74.8c-1.76,0-3.24-.72-3.24-4.61,0-3.17,1-4.76,3.76-4.76a14.13,14.13,0,0,1,2.22.24v-4h1.33Zm-1.33-1.7v-6.1a16.26,16.26,0,0,0-2.14-.21c-1.89,0-2.45,1.24-2.45,3.58,0,2.91,1,3.4,2,3.4A6.54,6.54,0,0,0,102.05,483.21Z" fill="#3a3d3f"/><path d="M109.77,473.46a10.67,10.67,0,0,1,3.46-.65c3.13,0,4.15,1.06,4.15,3.27a3,3,0,0,1-1.38,2.67,2.43,2.43,0,0,1,1.6,2.57c0,2.51-1.15,3.8-4,3.8a16.67,16.67,0,0,1-3.87-.61l.12-1.89a25.78,25.78,0,0,0,3.39.34c1.22,0,1.85-.48,1.85-1.58a1.52,1.52,0,0,0-1.72-1.46h-2.4v-2.05h2.4a1.64,1.64,0,0,0,1.51-1.62c0-.85-.56-1.28-1.78-1.28a20.26,20.26,0,0,0-3.12.32Z" fill="#3a3d3f"/><path d="M127.55,473v2.17h-5.31l-.3,2.57a6.9,6.9,0,0,1,2.12-.43c2.43,0,3.86,1.08,3.86,3.58,0,2.68-1.48,4.21-4.07,4.21a19,19,0,0,1-4.22-.66l.27-1.84a29.92,29.92,0,0,0,3.64.34,1.63,1.63,0,0,0,1.82-1.78c0-1.21-.52-1.69-1.66-1.69a8.6,8.6,0,0,0-2.25.3l-1.48-.34.33-6.43Z" fill="#3a3d3f"/><path d="M130,482.86h1.48v2.05H130Z" fill="#3a3d3f"/><line x1="26.65" y1="48.53" x2="526.24" y2="48.53" fill="none" stroke="#ddd" stroke-miterlimit="10"/><line x1="58.7" y1="203.67" x2="58.7" y2="289.37" fill="none" stroke="#adadad" stroke-miterlimit="10"/><line x1="513.6" y1="288.97" x2="58.7" y2="288.97" fill="none" stroke="#adadad" stroke-miterlimit="10"/><path d="M29.6,97.49H62.2v3.4H29.6Zm33.5-16a2.57,2.57,0,0,0-3.2-1.8l-9.1,2.4L39,71.09l-3.3.9,7.1,12.3-8.5,2.3L30.9,84l-2.5.7,3.1,5.4,1.3,2.3,2.7-.7,9.1-2.4,7.5-2,9.1-2.4A2.85,2.85,0,0,0,63.1,81.49Z" fill="#f2a120"/><path d="M64.2,305.07H60.7v-.7l2.1-5.2h.9l-2.1,5.1h2.6V302H65v2.3h.9v.7H65v1.4h-.8Z" fill="#4c4c4c"/><path d="M147.2,301a1.71,1.71,0,0,1-1.2,1.7c.8.4,1.3.8,1.3,1.8,0,1.6-1.2,2.1-2.7,2.1s-2.7-.5-2.7-2a1.87,1.87,0,0,1,1.3-1.9,1.63,1.63,0,0,1-1.1-1.7c0-1.3,1-1.9,2.6-1.9C146.1,299.07,147.2,299.67,147.2,301Zm-.8,3.4c0-.8-.6-1.1-1.3-1.3h-1.2a1.32,1.32,0,0,0-1.2,1.4c0,1,.8,1.3,1.8,1.3S146.4,305.47,146.4,304.37Zm-3.5-3.3c0,.7.4,1,1.1,1.3h1.2c.7-.2,1.2-.6,1.2-1.3,0-.9-.6-1.2-1.7-1.2S142.9,300.17,142.9,301.07Z" fill="#4c4c4c"/><path d="M226.2,299.17h.8v7.3h-.8v-6.3l-1.9,1.2-.4-.6Z" fill="#4c4c4c"/><path d="M229.6,306.47v-.7l2.1-2.2c.9-.9,1.5-1.5,1.5-2.4s-.5-1.3-1.6-1.3a13.13,13.13,0,0,0-1.9.2l-.1-.7a8.25,8.25,0,0,1,2.1-.3c1.5,0,2.3.6,2.3,1.9,0,1.1-.5,1.7-1.5,2.7l-1.9,2h3.6v.7h-4.6Z" fill="#4c4c4c"/><path d="M313.6,299.17h.8v7.3h-.8v-6.3l-1.9,1.2-.4-.6Z" fill="#4c4c4c"/><path d="M321.6,300s-1-.1-1.9-.1c-1.3,0-2,.9-2,2.5a5.91,5.91,0,0,1,1.8-.4c1.6,0,2.4.7,2.4,2.3a2.24,2.24,0,0,1-2.5,2.4c-1.8,0-2.6-1.4-2.6-3.8,0-2.6,1.1-3.7,2.8-3.7a13.38,13.38,0,0,1,2,.2Zm-3.9,3.1c0,1.6.5,2.7,1.7,2.7a1.5,1.5,0,0,0,1.7-1.6,1.4,1.4,0,0,0-1.6-1.5A5.11,5.11,0,0,0,317.7,303.07Z" fill="#4c4c4c"/><path d="M398.2,306.47v-.7l2.1-2.2c.9-.9,1.5-1.5,1.5-2.4s-.5-1.3-1.6-1.3a13.13,13.13,0,0,0-1.9.2l-.1-.7a8.25,8.25,0,0,1,2.1-.3c1.5,0,2.3.6,2.3,1.9,0,1.1-.5,1.7-1.5,2.7l-1.9,2h3.6v.7h-4.6Z" fill="#4c4c4c"/><path d="M409.4,303c0,2.8-1,3.6-2.6,3.6s-2.7-.8-2.7-3.6c0-3,1-3.9,2.6-3.9S409.4,300,409.4,303Zm-4.4,0c0,2.3.6,2.9,1.8,2.9s1.8-.6,1.8-2.9-.6-3.1-1.8-3.1S405,300.47,405,303Z" fill="#4c4c4c"/><path d="M485.6,306.47v-.7l2.1-2.2c.9-.9,1.5-1.5,1.5-2.4s-.5-1.3-1.6-1.3a13.13,13.13,0,0,0-1.9.2l-.1-.7a8.25,8.25,0,0,1,2.1-.3c1.5,0,2.3.6,2.3,1.9,0,1.1-.5,1.7-1.5,2.7l-1.9,2h3.6v.7h-4.6Z" fill="#4c4c4c"/><path d="M495,305.07h-3.5v-.7l2.1-5.2h.9l-2.1,5.1H495V302h.8v2.3h.9v.7h-.9v1.4H495Z" fill="#4c4c4c"/><path d="M50.2,282.32c0,2.8-1,3.6-2.6,3.6s-2.7-.8-2.7-3.6c0-3,1-3.9,2.6-3.9S50.2,279.32,50.2,282.32Zm-4.5,0c0,2.3.6,2.9,1.8,2.9s1.8-.6,1.8-2.9-.6-3.1-1.8-3.1S45.7,279.82,45.7,282.32Z" fill="#4c4c4c"/><path d="M42.7,255.42v.8H39.2l-.2,2.4a3.63,3.63,0,0,1,1.7-.5c1.4,0,2.3.6,2.3,2.1a2.19,2.19,0,0,1-2.4,2.5,12.69,12.69,0,0,1-2.4-.3l.1-.7a18.13,18.13,0,0,0,2.2.2,1.5,1.5,0,0,0,1.6-1.7,1.32,1.32,0,0,0-1.5-1.5,4.29,4.29,0,0,0-1.7.4l-.6-.1.2-3.8h4.2Z" fill="#4c4c4c"/><path d="M49.3,259.12c0,2.8-1,3.6-2.6,3.6s-2.7-.8-2.7-3.6c0-3,1-3.9,2.6-3.9C48.4,255.32,49.3,256.12,49.3,259.12Zm-4.4,0c0,2.3.6,2.9,1.8,2.9s1.8-.6,1.8-2.9-.6-3.1-1.8-3.1S44.9,256.62,44.9,259.12Z" fill="#4c4c4c"/><path d="M37.9,231.32h.8v7.3h-.8v-6.3l-1.9,1.2-.4-.6Z" fill="#4c4c4c"/><path d="M46.3,235.12c0,2.8-1,3.6-2.6,3.6s-2.7-.8-2.7-3.6c0-3,1-3.9,2.6-3.9C45.4,231.22,46.3,232.12,46.3,235.12Zm-4.4,0c0,2.3.6,2.9,1.8,2.9s1.8-.6,1.8-2.9-.6-3.1-1.8-3.1S41.9,232.62,41.9,235.12Z" fill="#4c4c4c"/><path d="M52.5,235.12c0,2.8-1,3.6-2.6,3.6s-2.7-.8-2.7-3.6c0-3,1-3.9,2.6-3.9S52.5,232.12,52.5,235.12Zm-4.4,0c0,2.3.6,2.9,1.8,2.9s1.8-.6,1.8-2.9-.6-3.1-1.8-3.1S48.1,232.62,48.1,235.12Z" fill="#4c4c4c"/><path d="M37.9,207.32h.8v7.3h-.8v-6.3l-1.9,1.2-.4-.6Z" fill="#4c4c4c"/><path d="M45.8,207.32v.8H42.3l-.2,2.4a3.63,3.63,0,0,1,1.7-.5c1.4,0,2.3.6,2.3,2.1a2.19,2.19,0,0,1-2.4,2.5,12.69,12.69,0,0,1-2.4-.3l.1-.7a18.13,18.13,0,0,0,2.2.2,1.5,1.5,0,0,0,1.6-1.7,1.32,1.32,0,0,0-1.5-1.5,4.29,4.29,0,0,0-1.7.4l-.6-.1.2-3.8h4.2Z" fill="#4c4c4c"/><path d="M52.5,211.12c0,2.8-1,3.6-2.6,3.6s-2.7-.8-2.7-3.6c0-3,1-3.9,2.6-3.9S52.5,208.12,52.5,211.12Zm-4.4,0c0,2.3.6,2.9,1.8,2.9s1.8-.6,1.8-2.9-.6-3.1-1.8-3.1S48.1,208.62,48.1,211.12Z" fill="#4c4c4c"/><polygon points="301.3 263.29 301.3 288.17 344.4 288.17 344.12 254.87 319 267.97 301.3 263.29" fill="#8dd69d"/><polyline points="63.8 282.97 79.6 282.97 100 279.97 113.5 273.97 129.4 264.97 147.5 258.97 163.3 251.97 172.4 245.97 193.8 236.97 214.2 232.97 252.6 237.27 281.6 247.37 291.8 260.97 319 267.97 355.2 247.97 392.5 219.97 412.9 219.97 429.8 232.97 443.4 255.97 459.2 255.97 471.7 269.97 492 277.97" fill="none" stroke="#2277d6" stroke-width="2"/><path d="M29.52,187.11v4.19H28.13V178.84h4.56c2.72,0,4,1.31,4,4s-1.26,4.25-4,4.25Zm3.15-1.23c1.82,0,2.58-1.1,2.58-3s-.76-2.8-2.58-2.8H29.52v5.82Z" fill="#4c4c4c"/><path d="M44.93,189.63c0,.52.47.72,1,.79l0,1.06a2.75,2.75,0,0,1-2.14-.72,9.2,9.2,0,0,1-3.24.72c-1.64,0-2.54-.94-2.54-2.75s.9-2.49,2.75-2.67l2.83-.27V185c0-1.26-.54-1.71-1.62-1.71-1.26,0-3.4.23-3.4.23l-.06-1a22.13,22.13,0,0,1,3.53-.39c2,0,2.9.93,2.9,2.9Zm-4-2.56c-1.09.11-1.53.63-1.53,1.62s.45,1.66,1.37,1.66a9.57,9.57,0,0,0,2.83-.56v-3Z" fill="#4c4c4c"/><path d="M53.57,183.61a29.33,29.33,0,0,0-3.15-.29c-1.12,0-2,.31-2,1.37,0,.85.43,1.08,2.34,1.41,2.25.37,3.09.82,3.09,2.57,0,2.11-1.33,2.81-3.49,2.81a25.65,25.65,0,0,1-3.17-.34L47.3,190s2.06.3,3,.3c1.48,0,2.27-.32,2.27-1.54,0-.94-.47-1.18-2.43-1.48s-3-.7-3-2.5c0-2,1.6-2.63,3.24-2.63a23.19,23.19,0,0,1,3.26.34Z" fill="#4c4c4c"/><path d="M61.94,183.61a29.33,29.33,0,0,0-3.15-.29c-1.12,0-2,.31-2,1.37,0,.85.43,1.08,2.34,1.41,2.25.37,3.09.82,3.09,2.57,0,2.11-1.33,2.81-3.49,2.81a25.65,25.65,0,0,1-3.17-.34l.07-1.17s2.06.3,3,.3c1.48,0,2.27-.32,2.27-1.54,0-.94-.47-1.18-2.43-1.48s-3-.7-3-2.5c0-2,1.6-2.63,3.24-2.63a23.19,23.19,0,0,1,3.26.34Z" fill="#4c4c4c"/><path d="M71,190.13l0,1.06a31.12,31.12,0,0,1-3.51.29c-2.68,0-3.56-1.57-3.56-4.63,0-3.42,1.47-4.73,3.76-4.73s3.62,1.26,3.62,4.21l-.07,1h-6c0,1.92.6,2.93,2.36,2.93C69,190.29,71,190.13,71,190.13Zm-1-3.85c0-2.24-.69-3-2.27-3s-2.4.85-2.41,3Z" fill="#4c4c4c"/><path d="M73.42,191.3v-9h1.33v.63a6.85,6.85,0,0,1,2.79-.81c2.49,0,3,1.22,3,4.43v4.75H79.25v-4.72c0-2.37-.26-3.26-1.94-3.26a6.12,6.12,0,0,0-2.54.67v7.31Z" fill="#4c4c4c"/><path d="M82.69,192.81c0-1,.49-1.53,1.42-2.23a1.47,1.47,0,0,1-.5-1.24,5.82,5.82,0,0,1,.61-1.42,2.64,2.64,0,0,1-1.42-2.72c0-2.22,1.37-3.08,3.37-3.08a9.43,9.43,0,0,1,1.87.23l2.66-.07v1.15l-1.71,0a2.33,2.33,0,0,1,.6,1.8c0,2.34-1.17,3-3.48,3-.18,0-.68,0-.88-.07a5.42,5.42,0,0,0-.32,1c0,.72.14.83,2.17.83,2.56,0,3.48.51,3.48,2.65s-1.46,2.86-4,2.86C83.72,195.53,82.69,194.9,82.69,192.81ZM85,191.12c-.75.56-1,.88-1,1.59,0,1.24.53,1.69,2.56,1.69,1.8,0,2.61-.49,2.61-1.68,0-1.37-.57-1.51-2.21-1.51C86.35,191.21,85,191.12,85,191.12Zm3.21-5.92c0-1.43-.56-2-2.07-2s-2,.55-2,2,.61,2,2,2S88.24,186.62,88.24,185.2Z" fill="#4c4c4c"/><path d="M99,190.13l0,1.06a31.12,31.12,0,0,1-3.51.29c-2.68,0-3.57-1.57-3.57-4.63,0-3.42,1.48-4.73,3.77-4.73s3.62,1.26,3.62,4.21l-.08,1H93.31c0,1.92.6,2.93,2.36,2.93C97,190.29,99,190.13,99,190.13Zm-1-3.85c0-2.24-.68-3-2.26-3s-2.4.85-2.42,3Z" fill="#4c4c4c"/><path d="M101.43,182.3h1.33v1.22a10.17,10.17,0,0,1,3.3-1.42v1.37a13,13,0,0,0-3.28,1.22v6.61h-1.35Z" fill="#4c4c4c"/><path d="M113.63,183.61a29,29,0,0,0-3.15-.29c-1.11,0-2,.31-2,1.37,0,.85.43,1.08,2.34,1.41,2.25.37,3.1.82,3.1,2.57,0,2.11-1.33,2.81-3.49,2.81a25.4,25.4,0,0,1-3.17-.34l.07-1.17s2,.3,3,.3c1.48,0,2.27-.32,2.27-1.54,0-.94-.47-1.18-2.43-1.48s-3-.7-3-2.5c0-2,1.6-2.63,3.24-2.63a23.19,23.19,0,0,1,3.26.34Z" fill="#4c4c4c"/><path d="M209,412.65a22.75,22.75,0,0,1-4.09.46c-4.39,0-5.4-2.5-5.4-7.41,0-5.19,1.09-7.44,5.4-7.44a20,20,0,0,1,4.11.53l-.08,1.89a26.37,26.37,0,0,0-3.72-.34c-2.64,0-3.29,1.28-3.29,5.36s.52,5.33,3.35,5.33a27.25,27.25,0,0,0,3.66-.32Z" fill="#4c4c4c"/><path d="M220.08,406.66h-6.22v6.22h-2.33V398.49h2.33v6.13h6.22v-6.13h2.35v14.39h-2.35Z" fill="#4c4c4c"/><path d="M225.73,398.49h9.07v2h-6.74v4.07h5.48v2h-5.48v4.2h6.74v2.06h-9.07Z" fill="#4c4c4c"/><path d="M246.26,412.65a22.65,22.65,0,0,1-4.09.46c-4.39,0-5.4-2.5-5.4-7.41,0-5.19,1.1-7.44,5.4-7.44a20.23,20.23,0,0,1,4.12.53l-.09,1.89a26.23,26.23,0,0,0-3.71-.34c-2.65,0-3.3,1.28-3.3,5.36s.52,5.33,3.36,5.33a27.24,27.24,0,0,0,3.65-.32Z" fill="#4c4c4c"/><path d="M253.24,406.87l-2.14.15v5.86h-2.33V398.49h2.33V405l2.14-.17,2.94-6.32h2.66l-3.55,7.23,3.7,7.16h-2.71Z" fill="#4c4c4c"/><path d="M260.63,406.18h6.28v2.08h-6.28Z" fill="#4c4c4c"/><path d="M269.85,398.49h2.33v14.39h-2.33Z" fill="#4c4c4c"/><path d="M275.5,398.49h4.07l4.37,12.33h.31V398.49h2.33v14.39h-4l-4.48-12.35h-.29v12.35H275.5Z" fill="#4c4c4c"/><path d="M294.53,412.88V398.49h5c4.64,0,5.75,2.48,5.75,6.95s-1,7.44-5.75,7.44Zm5-12.35h-2.64v10.29h2.64c2.9,0,3.34-2.23,3.34-5.38S302.4,400.53,299.5,400.53Z" fill="#4c4c4c"/><path d="M308,398.49h9.07v2h-6.74v4.07h5.48v2h-5.48v4.2h6.74v2.06H308Z" fill="#4c4c4c"/><path d="M328,400.64s-2.94-.34-4.16-.34c-1.76,0-2.67.63-2.67,1.87s.76,1.66,3.22,2.33c3,.84,4.11,1.64,4.11,4.09,0,3.15-2,4.52-4.81,4.52a30.37,30.37,0,0,1-4.7-.57l.23-1.87s2.84.38,4.33.38c1.78,0,2.6-.8,2.6-2.31,0-1.22-.65-1.64-2.86-2.16-3.1-.8-4.45-1.75-4.45-4.24,0-2.9,1.91-4.1,4.79-4.1a31.5,31.5,0,0,1,4.56.51Z" fill="#4c4c4c"/><path d="M335.47,406.87l-2.14.15v5.86H331V398.49h2.33V405l2.14-.17,2.94-6.32h2.67l-3.55,7.23,3.7,7.16h-2.71Z" fill="#4c4c4c"/><path d="M351.62,400.64s-2.94-.34-4.15-.34c-1.77,0-2.67.63-2.67,1.87s.75,1.66,3.21,2.33c3,.84,4.12,1.64,4.12,4.09,0,3.15-2,4.52-4.81,4.52a30.37,30.37,0,0,1-4.7-.57l.23-1.87s2.83.38,4.32.38c1.79,0,2.61-.8,2.61-2.31,0-1.22-.65-1.64-2.86-2.16-3.11-.8-4.45-1.75-4.45-4.24,0-2.9,1.91-4.1,4.79-4.1a31.49,31.49,0,0,1,4.55.51Z" fill="#4c4c4c"/><path d="M304,74.74h8v1.11h-3.37v10h-1.22v-10H304Z" fill="#4c4c4c"/><path d="M313.37,74.61h1.2V76h-1.2Zm0,3.2h1.2v8h-1.2Z" fill="#4c4c4c"/><path d="M316.88,85.82v-8h1.18v.56a5.37,5.37,0,0,1,2.34-.72,2.26,2.26,0,0,1,2.08.82,6.61,6.61,0,0,1,2.85-.82c2.17,0,2.7,1,2.7,3.94v4.23h-1.2v-4.2c0-2.11-.24-2.89-1.68-2.89a5.35,5.35,0,0,0-2.26.59,8.84,8.84,0,0,1,.21,2.34v4.16h-1.2V81.69c0-2.21-.22-3-1.68-3a4.75,4.75,0,0,0-2.14.59v6.5Z" fill="#4c4c4c"/><path d="M336.16,84.78l0,.94a27.37,27.37,0,0,1-3.12.26c-2.39,0-3.17-1.39-3.17-4.12,0-3,1.31-4.21,3.35-4.21s3.21,1.13,3.21,3.75l-.06.91h-5.28c0,1.72.52,2.61,2.09,2.61C334.41,84.92,336.16,84.78,336.16,84.78Zm-.9-3.43c0-2-.61-2.69-2-2.69s-2.13.76-2.15,2.69Z" fill="#4c4c4c"/><path d="M339.87,85.82h-1.2v-7h-1v-1h1v-.72c0-2.3.59-2.92,2.16-2.92.54,0,1.62.11,1.62.11l0,1s-.9,0-1.38,0c-.89,0-1.18.38-1.18,1.87v.7h2.32v1h-2.32Z" fill="#4c4c4c"/><path d="M343.63,77.81h1.18V78.9a9.07,9.07,0,0,1,2.93-1.26v1.22a11.63,11.63,0,0,0-2.91,1.08v5.88h-1.2Z" fill="#4c4c4c"/><path d="M354.81,84.33c0,.46.42.64.93.7l-.05,1a2.45,2.45,0,0,1-1.9-.64,8.18,8.18,0,0,1-2.88.64c-1.46,0-2.26-.83-2.26-2.45s.8-2.21,2.45-2.37l2.51-.24v-.69c0-1.12-.48-1.52-1.44-1.52-1.12,0-3,.21-3,.21l0-.91a19,19,0,0,1,3.14-.36c1.81,0,2.57.84,2.57,2.58Zm-3.56-2.27c-1,.09-1.37.56-1.37,1.44s.4,1.47,1.22,1.47a8.35,8.35,0,0,0,2.51-.5V81.83Z" fill="#4c4c4c"/><path d="M357.18,85.82v-8h1.18v.56a5.37,5.37,0,0,1,2.34-.72,2.24,2.24,0,0,1,2.08.82,6.67,6.67,0,0,1,2.85-.82c2.18,0,2.71,1,2.71,3.94v4.23h-1.2v-4.2c0-2.11-.24-2.89-1.68-2.89a5.3,5.3,0,0,0-2.26.59,9.29,9.29,0,0,1,.21,2.34v4.16h-1.2V81.69c0-2.21-.23-3-1.68-3a4.82,4.82,0,0,0-2.15.59v6.5Z" fill="#4c4c4c"/><path d="M376.46,84.78l0,.94a27.37,27.37,0,0,1-3.12.26c-2.38,0-3.17-1.39-3.17-4.12,0-3,1.32-4.21,3.35-4.21s3.22,1.13,3.22,3.75l-.07.91h-5.28c0,1.72.53,2.61,2.1,2.61C374.72,84.92,376.46,84.78,376.46,84.78Zm-.89-3.43c0-2-.61-2.69-2-2.69s-2.13.76-2.15,2.69Z" fill="#4c4c4c"/><path d="M277.88,95.53h2.44v15.84h-2.66V98.55l-3.72,2.4-1.22-2Z" fill="#4c4c4c"/><path d="M295.66,95.53v2.35h-7.34l-.41,4.17a9,9,0,0,1,3.21-.74c3.17,0,5.09,1.37,5.09,4.75,0,3.6-2,5.57-5.37,5.57a25.12,25.12,0,0,1-5.45-.81l.28-2a36.25,36.25,0,0,0,4.85.48,2.67,2.67,0,0,0,2.93-3c0-2-1-2.67-2.69-2.67a9.38,9.38,0,0,0-3.33.65l-1.68-.36.43-8.42Z" fill="#4c4c4c"/><path d="M299,100.64h2.8v3.46H299Zm0,7.27h2.8v3.46H299Z" fill="#4c4c4c"/><path d="M311.31,108.54h-7.13v-2l4.18-11h2.95l-4.42,10.68h4.42v-4.66H314v4.66h1.72v2.33H314v2.83h-2.69Z" fill="#4c4c4c"/><path d="M328.28,95.53v2.35h-7.35l-.41,4.17a9,9,0,0,1,3.22-.74c3.17,0,5.09,1.37,5.09,4.75,0,3.6-2,5.57-5.38,5.57a25.12,25.12,0,0,1-5.45-.81l.29-2a36,36,0,0,0,4.85.48,2.67,2.67,0,0,0,2.93-3c0-2-1-2.67-2.69-2.67a9.4,9.4,0,0,0-3.34.65l-1.68-.36.43-8.42Z" fill="#4c4c4c"/><path d="M336.84,103.71H344v2.38h-7.18Z" fill="#4c4c4c"/><path d="M358,95.53h2.45v15.84h-2.66V98.55L354.1,101l-1.23-2Z" fill="#4c4c4c"/><path d="M376,97.93a35.48,35.48,0,0,0-4.34-.34c-2.43,0-3.65,1.7-3.68,4.46a14.29,14.29,0,0,1,3.46-.74c3.53,0,5.38,1.59,5.38,5s-2.14,5.28-5.69,5.28c-4.11,0-5.91-3.09-5.91-8.18,0-5.91,2.5-8.19,6.44-8.19a25.24,25.24,0,0,1,4.58.58Zm-8,6.43c0,2.78.84,4.94,3.17,4.94a2.65,2.65,0,0,0,2.93-3c0-1.8-1.06-2.69-2.86-2.69A10.28,10.28,0,0,0,367.92,104.36Z" fill="#4c4c4c"/><path d="M379.1,100.64h2.81v3.46H379.1Zm0,7.27h2.81v3.46H379.1Z" fill="#4c4c4c"/><path d="M391.46,108.54h-7.13v-2l4.18-11h2.95l-4.41,10.68h4.41v-4.66h2.69v4.66h1.73v2.33h-1.73v2.83h-2.69Z" fill="#4c4c4c"/><path d="M408.43,95.53v2.35h-7.34l-.41,4.17a9,9,0,0,1,3.22-.74c3.16,0,5.08,1.37,5.08,4.75,0,3.6-2,5.57-5.37,5.57a25.12,25.12,0,0,1-5.45-.81l.29-2a36,36,0,0,0,4.84.48,2.67,2.67,0,0,0,2.93-3c0-2-1-2.67-2.68-2.67a9.4,9.4,0,0,0-3.34.65l-1.68-.36.43-8.42Z" fill="#4c4c4c"/><path d="M94.27,98.24s-2.5-.31-3.54-.31c-1.77,0-2.71.63-2.71,2,0,1.62.87,1.89,3,2.38,2.48.55,3.58,1.17,3.58,3.35,0,2.75-1.51,3.83-4,3.83a32.54,32.54,0,0,1-3.94-.4l.14-1.15s2.45.33,3.73.33c1.76,0,2.66-.78,2.66-2.51,0-1.4-.73-1.8-2.77-2.19-2.57-.56-3.87-1.17-3.87-3.55s1.59-3.35,4-3.35a31.11,31.11,0,0,1,3.76.36Z" fill="#3a3d3f"/><path d="M98.61,101.54v4.3c0,2,.12,2.52,1.3,2.52.5,0,1.6-.11,1.6-.11l.09,1.12a15.71,15.71,0,0,1-1.84.2c-1.85,0-2.48-.71-2.48-3.3v-4.73H96v-1.17h1.28V97.61h1.33v2.76h2.86v1.17Z" fill="#3a3d3f"/><path d="M110.44,104.76c0,3.28-.81,4.79-3.86,4.79s-3.85-1.51-3.85-4.79c0-3.1,1-4.57,3.85-4.57S110.44,101.66,110.44,104.76Zm-1.39,0c0-2.5-.54-3.4-2.47-3.4s-2.46.9-2.46,3.4.34,3.62,2.46,3.62S109.05,107.32,109.05,104.76Z" fill="#3a3d3f"/><path d="M118.45,100.46l-.06,1.09s-1.44-.16-2.12-.16c-2.07,0-2.63.9-2.63,3.32,0,2.66.41,3.63,2.65,3.63.68,0,2.12-.16,2.12-.16l0,1.12a24,24,0,0,1-2.5.25c-2.86,0-3.71-1.32-3.71-4.84,0-3.26,1.06-4.52,3.75-4.52A20.89,20.89,0,0,1,118.45,100.46Z" fill="#3a3d3f"/><path d="M120.48,109.37V96.44h1.35v7.63l1.4-.07,2.58-3.63h1.53l-2.94,4.14,3.06,4.86h-1.53l-2.68-4.18-1.42.06v4.12Z" fill="#3a3d3f"/><path d="M129.1,109.37V96.44h1.35v4.43a7.64,7.64,0,0,1,2.77-.68c2.47,0,3.05,1.22,3.05,4.43v4.75h-1.35v-4.72c0-2.38-.27-3.26-1.93-3.26a7.41,7.41,0,0,0-2.54.54v7.44Z" fill="#3a3d3f"/><path d="M146.08,104.76c0,3.28-.81,4.79-3.86,4.79s-3.85-1.51-3.85-4.79c0-3.1,1-4.57,3.85-4.57S146.08,101.66,146.08,104.76Zm-1.39,0c0-2.5-.54-3.4-2.47-3.4s-2.46.9-2.46,3.4.34,3.62,2.46,3.62S144.69,107.32,144.69,104.76Z" fill="#3a3d3f"/><path d="M148.38,96.44h1.35v12.93h-1.35Z" fill="#3a3d3f"/><path d="M152.43,109.37v-9h1.33V101a6,6,0,0,1,2.63-.81,2.55,2.55,0,0,1,2.34.91,7.53,7.53,0,0,1,3.21-.91c2.44,0,3,1.17,3,4.43v4.75h-1.35v-4.72c0-2.38-.27-3.26-1.89-3.26a5.89,5.89,0,0,0-2.54.67,10.34,10.34,0,0,1,.23,2.63v4.68h-1.35v-4.65c0-2.48-.25-3.33-1.89-3.33a5.34,5.34,0,0,0-2.41.67v7.31Z" fill="#3a3d3f"/><path d="M167.4,103.79h5.46v1.26H167.4Z" fill="#3a3d3f"/><path d="M175.59,96.91H177v12.46h-1.39Z" fill="#3a3d3f"/><path d="M185.77,101.68a29.33,29.33,0,0,0-3.16-.29c-1.11,0-2,.31-2,1.37,0,.85.43,1.08,2.34,1.4,2.25.38,3.1.83,3.1,2.58,0,2.11-1.33,2.81-3.49,2.81a25.4,25.4,0,0,1-3.17-.34l.07-1.17s2.05.3,3,.3c1.48,0,2.27-.32,2.27-1.55,0-.93-.47-1.17-2.43-1.47s-3-.7-3-2.51c0-2,1.6-2.62,3.24-2.62a23.19,23.19,0,0,1,3.26.34Z" fill="#3a3d3f"/><path d="M190,101.54v4.3c0,2,.12,2.52,1.29,2.52.51,0,1.61-.11,1.61-.11l.09,1.12a15.71,15.71,0,0,1-1.84.2c-1.85,0-2.48-.71-2.48-3.3v-4.73h-1.28v-1.17h1.28V97.61H190v2.76h2.86v1.17Z" fill="#3a3d3f"/><path d="M200.83,107.69c0,.53.47.72,1,.8l-.06,1.06a2.75,2.75,0,0,1-2.14-.72,9.2,9.2,0,0,1-3.24.72c-1.64,0-2.54-.94-2.54-2.76s.9-2.48,2.75-2.66l2.83-.27v-.78c0-1.26-.54-1.71-1.62-1.71-1.26,0-3.4.24-3.4.24l-.06-1a22.13,22.13,0,0,1,3.53-.39c2,0,2.9.93,2.9,2.89Zm-4-2.55c-1.1.11-1.53.63-1.53,1.62s.45,1.65,1.36,1.65a9.63,9.63,0,0,0,2.83-.55v-3Z" fill="#3a3d3f"/><path d="M203.49,109.37v-9h1.34V101a6.79,6.79,0,0,1,2.79-.81c2.48,0,3,1.22,3,4.43v4.75h-1.33v-4.72c0-2.38-.27-3.26-2-3.26a6.18,6.18,0,0,0-2.54.67v7.31Z" fill="#3a3d3f"/><path d="M220.42,104.72c0,3.59-1,4.83-4.25,4.83-1.08,0-3-.2-3-.2V96.44h1.33v4.38a7.44,7.44,0,0,1,2.65-.63C219.59,100.19,220.42,101.48,220.42,104.72Zm-1.37,0c0-2.32-.47-3.33-2.05-3.33a7.59,7.59,0,0,0-2.51.52v6.34s1.17.09,1.66.09C218.62,108.34,219.05,107.24,219.05,104.72Z" fill="#3a3d3f"/><path d="M229.6,100.37v9h-1.35v-.63a6.14,6.14,0,0,1-2.67.81c-2.52,0-3-1.17-3-4.49v-4.69h1.35v4.68c0,2.48.21,3.29,1.89,3.29a5.53,5.53,0,0,0,2.47-.66v-7.31Z" fill="#3a3d3f"/><path d="M232.29,96.44h1.35v12.93h-1.35Z" fill="#3a3d3f"/><path d="M86.86,71.82H96.1v2.52H89.76v3.34h5.08v2.47H89.76v3.43H96.1v2.51H86.86Z"/><path d="M104.25,86.09h-2.9V80.32l-4.41-8.5h3.21l2.63,5.69,2.62-5.69h3.21l-4.36,8.5Z"/><path d="M115.36,83.81h-5.88V81.6l3.42-9.36h3.19l-3.72,9.05h3V77.4h2.89v3.89h1.33v2.52h-1.33v2.28h-2.89Z"/><path d="M127.12,83.81h-5.88V81.6l3.42-9.36h3.19l-3.72,9.05h3V77.4H130v3.89h1.32v2.52H130v2.28h-2.89Z"/><path d="M91.47,122h3.78v19.8H91.11V126.66l-4.29,2.76-1.89-3.09Z" fill="#3a3d3f"/><path d="M101.58,122h12.66v4.68l-7,15.48-3.84-1.08,6.75-14.43v-1h-8.52Z" fill="#3a3d3f"/><path d="M118,128.13h4.32v5H118Zm0,8.67h4.32v5H118Z" fill="#3a3d3f"/><path d="M125.85,122.7a17.9,17.9,0,0,1,5.76-1.08c5.22,0,6.93,1.77,6.93,5.46a4.89,4.89,0,0,1-2.31,4.44c1.65.9,2.67,1.62,2.67,4.29,0,4.17-1.92,6.33-6.75,6.33a27.62,27.62,0,0,1-6.45-1l.21-3.15a42.57,42.57,0,0,0,5.64.57c2,0,3.09-.81,3.09-2.64,0-1.47-1.17-2.43-2.88-2.43h-4v-3.42h4a2.74,2.74,0,0,0,2.52-2.7c0-1.41-.93-2.13-3-2.13a33.34,33.34,0,0,0-5.19.54Z" fill="#3a3d3f"/><path d="M156.87,132c0,7.5-2.76,10.14-7.68,10.14s-7.68-2.64-7.68-10.14,2.76-10.38,7.68-10.38S156.87,124.5,156.87,132Zm-11.1,0c0,4.86,1,6.54,3.45,6.54s3.39-1.68,3.39-6.54c0-5.16-1-6.78-3.39-6.78S145.77,126.84,145.77,132Z" fill="#3a3d3f"/><rect x="164.68" y="335.01" width="41.81" height="41.81" fill="#bddff4" stroke="#2277d6" stroke-miterlimit="10" stroke-width="3"/><rect x="227.32" y="335.01" width="41.81" height="41.81" fill="#48b1ff"/><rect x="288.97" y="335.01" width="41.81" height="41.81" fill="#48b1ff"/><rect x="349.31" y="335.01" width="41.81" height="41.81" fill="#bddff4"/><path d="M300.25,351a15.43,15.43,0,0,1,3.88-.56c3.12,0,4.22,1.1,4.22,3.44a3.3,3.3,0,0,1-2,3,2.87,2.87,0,0,1,2.28,3.2c0,2.66-1.3,4-4.28,4a21.78,21.78,0,0,1-4.34-.54l.14-1.26a23.88,23.88,0,0,0,4,.44c2,0,2.86-.86,2.86-2.56s-1.22-2.42-2.72-2.48h-2.66v-1.32h2.66a2.48,2.48,0,0,0,2.4-2.4c0-1.5-.74-2.12-2.7-2.12a20.15,20.15,0,0,0-3.68.4Z"/><path d="M319.55,350.63V352h-6.42l-.36,4.3a7.62,7.62,0,0,1,3.1-.82c2.58,0,4.2,1.08,4.2,3.9,0,3-1.66,4.6-4.42,4.6a21.77,21.77,0,0,1-4.38-.58l.18-1.22a26.33,26.33,0,0,0,4.06.44,2.79,2.79,0,0,0,3-3.12c0-2-1.12-2.64-2.8-2.64a7.57,7.57,0,0,0-3.14.8l-1.06-.2.36-6.86Z"/><path d="M238.14,350a15.46,15.46,0,0,1,3.89-.56c3.12,0,4.22,1.1,4.22,3.44a3.3,3.3,0,0,1-2,3,2.87,2.87,0,0,1,2.28,3.2c0,2.66-1.3,4-4.28,4a21.94,21.94,0,0,1-4.35-.54l.14-1.26a24.07,24.07,0,0,0,4,.44c2,0,2.86-.86,2.86-2.56s-1.22-2.42-2.72-2.48H239.6v-1.32h2.67a2.48,2.48,0,0,0,2.4-2.4c0-1.5-.74-2.12-2.71-2.12a20.15,20.15,0,0,0-3.68.4Z"/><path d="M255.11,360.25H248.7v-1.2l3.76-9.42h1.69l-3.82,9.26h4.78v-4.12h1.54v4.12h1.68v1.36h-1.68v2.58h-1.54Z"/><path d="M175.8,362.83v-1.3l3.86-4.06c1.64-1.7,2.66-2.78,2.66-4.34,0-1.76-1-2.32-2.88-2.32a19.21,19.21,0,0,0-3.42.44L175.9,350a16,16,0,0,1,3.82-.54c2.78,0,4.18,1.06,4.18,3.54,0,2-.9,3.14-2.76,4.94l-3.52,3.58h6.62v1.34Z"/><path d="M187,362.83v-1.3l3.86-4.06c1.64-1.7,2.66-2.78,2.66-4.34,0-1.76-1-2.32-2.88-2.32a19.21,19.21,0,0,0-3.42.44L187.1,350a16,16,0,0,1,3.82-.54c2.78,0,4.18,1.06,4.18,3.54,0,2-.9,3.14-2.76,4.94l-3.52,3.58h6.62v1.34Z"/><path d="M365.61,361.25H359.2v-1.2l3.76-9.42h1.69l-3.82,9.26h4.78v-4.12h1.54v4.12h1.68v1.36h-1.68v2.58h-1.54Z"/><path d="M379.15,350.63V352h-6.42l-.36,4.3a7.62,7.62,0,0,1,3.1-.82c2.58,0,4.2,1.08,4.2,3.9,0,3-1.66,4.6-4.42,4.6a21.77,21.77,0,0,1-4.38-.58l.17-1.22a26.54,26.54,0,0,0,4.07.44,2.79,2.79,0,0,0,3-3.12c0-2-1.12-2.64-2.8-2.64a7.57,7.57,0,0,0-3.14.8l-1.07-.2.37-6.86Z"/><path d="M463.93,82.06v3.73H462.7V74.71h4.05c2.42,0,3.54,1.17,3.54,3.57s-1.12,3.78-3.54,3.78Zm2.8-1.09c1.62,0,2.29-1,2.29-2.69s-.67-2.48-2.29-2.48h-2.8V81Z" fill="#3a3d3f"/><path d="M471.75,77.79h1.19v1.09a9.09,9.09,0,0,1,2.93-1.27v1.22A11.26,11.26,0,0,0,473,79.92v5.87h-1.21Z" fill="#3a3d3f"/><path d="M477.07,74.59h1.2V76h-1.2Zm0,3.2h1.2v8h-1.2Z" fill="#3a3d3f"/><path d="M486.85,81.69c0,2.92-.72,4.26-3.43,4.26S480,84.61,480,81.69c0-2.75.89-4.06,3.42-4.06S486.85,78.94,486.85,81.69Zm-1.24,0c0-2.22-.48-3-2.19-3s-2.19.8-2.19,3,.3,3.22,2.19,3.22S485.61,84,485.61,81.69Z" fill="#3a3d3f"/><path d="M488.57,77.79h1.18v1.09a9.22,9.22,0,0,1,2.93-1.27v1.22a11.44,11.44,0,0,0-2.91,1.09v5.87h-1.2Z" fill="#3a3d3f"/><path d="M493.88,74.59h1.2V76h-1.2Zm0,3.2h1.2v8h-1.2Z" fill="#3a3d3f"/><path d="M498.76,78.83v3.82c0,1.75.12,2.24,1.16,2.24.44,0,1.42-.09,1.42-.09l.08,1a13.65,13.65,0,0,1-1.63.18c-1.65,0-2.21-.63-2.21-2.93V78.83h-1.14v-1h1.14V75.34h1.18v2.45h2.55v1Z" fill="#3a3d3f"/><path d="M502.55,74.59h1.2V76h-1.2Zm0,3.2h1.2v8h-1.2Z" fill="#3a3d3f"/><path d="M505.35,77.79h5.94v1.07l-4.48,5.86h4.48v1.07h-5.94V84.72l4.49-5.86h-4.49Z" fill="#3a3d3f"/><path d="M518.8,84.75l0,1a28.71,28.71,0,0,1-3.12.25c-2.39,0-3.17-1.39-3.17-4.11,0-3,1.31-4.21,3.34-4.21s3.22,1.12,3.22,3.74l-.06.92h-5.29c0,1.71.53,2.6,2.1,2.6C517.05,84.89,518.8,84.75,518.8,84.75Zm-.9-3.42c0-2-.61-2.69-2-2.69s-2.13.75-2.14,2.69Z" fill="#3a3d3f"/><path d="M502.86,126.74H473.34a12,12,0,1,1,0-24h29.52a12,12,0,0,1,0,24" fill="#ddd"/><path d="M518.61,114.24a15,15,0,1,1-15-15,15,15,0,0,1,15,15" fill="#40bd73"/><polygon points="51.01 123.87 61.74 125.91 53.59 133.19 54.96 144.03 45.52 138.53 35.63 143.18 37.95 132.5 30.47 124.54 41.34 123.44 46.6 113.86 51.01 123.87" fill="#f9e100"/></g></g></svg>