<svg xmlns="http://www.w3.org/2000/svg" viewBox="0 0 566.31 517.94">
    <title>r_4_B_Screen</title>
    <g id="Layer_2" data-name="Layer 2">
        <g id="PF_Bg_2_Section">
            <rect width="566.31" height="517.94" fill="rgba(0,0,0,0)"/>
        </g>
        <g id="Layer_5" data-name="Layer 5">
            <rect x="183.37" y="335.01" width="41.81" height="41.81" fill="#bddff4" stroke="#2277d6" stroke-miterlimit="10" stroke-width="3"/>
            <rect x="246.01" y="335.01" width="41.81" height="41.81" fill="#48b1ff"/>
            <rect x="307.66" y="335.01" width="41.81" height="41.81" fill="#48b1ff"/>
            <rect x="368" y="335.01" width="41.81" height="41.81" fill="#bddff4"/>
            <path d="M324.7,361.25h-6.4v-1.2l3.76-9.42h1.68l-3.82,9.26h4.78v-4.12h1.54v4.12h1.68v1.36h-1.68v2.58H324.7Z"/>
            <path d="M339,353.85c0,1.7-.66,2.4-2.2,3.08,1.42.64,2.4,1.42,2.4,3.32,0,2.9-2.24,3.78-5,3.78s-4.92-.82-4.92-3.56a3.52,3.52,0,0,1,2.28-3.54,3.06,3.06,0,0,1-2.06-3.1c0-2.28,1.82-3.42,4.7-3.42S339,351.53,339,353.85Zm-1.44,6.24c0-1.54-1-2-2.34-2.42h-2.1c-1.38.38-2.18,1.06-2.18,2.54,0,1.82,1.4,2.42,3.28,2.42S337.6,362,337.6,360.09ZM331.2,354c0,1.22.66,1.86,2,2.32h2.1c1.36-.44,2.14-1.08,2.14-2.3,0-1.58-1.18-2.22-3.12-2.22S331.2,352.43,331.2,354Z"/>
            <path d="M265,351a30.61,30.61,0,0,0-3.49-.24c-2.3,0-3.56,1.64-3.56,4.56a11.18,11.18,0,0,1,3.3-.78c2.93,0,4.45,1.32,4.45,4.1s-1.68,4.36-4.62,4.36c-3.29,0-4.73-2.58-4.73-6.86,0-4.78,2-6.74,5.16-6.74a24.78,24.78,0,0,1,3.63.34ZM258,356.71c0,2.82.86,5,3.15,5a2.71,2.71,0,0,0,3-3c0-1.84-1.1-2.72-2.95-2.72A9.21,9.21,0,0,0,258,356.71Z"/>
            <path d="M276.24,351a30.61,30.61,0,0,0-3.49-.24c-2.3,0-3.56,1.64-3.56,4.56a11.18,11.18,0,0,1,3.31-.78c2.92,0,4.44,1.32,4.44,4.1s-1.68,4.36-4.62,4.36c-3.29,0-4.73-2.58-4.73-6.86,0-4.78,2-6.74,5.16-6.74a24.78,24.78,0,0,1,3.63.34Zm-7.07,5.68c0,2.82.86,5,3.15,5a2.71,2.71,0,0,0,3-3c0-1.84-1.1-2.72-2.95-2.72A9.21,9.21,0,0,0,269.17,356.71Z"/>
            <path d="M198.45,349.63h1.44v13.2h-1.54V351.35l-3.4,2.24-.7-1.16Z"/>
            <path d="M204.69,362.83v-1.3l3.86-4.06c1.64-1.7,2.66-2.78,2.66-4.34,0-1.76-1-2.32-2.88-2.32a19.21,19.21,0,0,0-3.42.44l-.12-1.28a16,16,0,0,1,3.82-.54c2.78,0,4.18,1.06,4.18,3.54,0,2-.9,3.14-2.76,4.94l-3.52,3.58h6.62v1.34Z"/>
            <path d="M388.43,353.85c0,1.7-.66,2.4-2.2,3.08,1.43.64,2.4,1.42,2.4,3.32,0,2.9-2.24,3.78-5,3.78s-4.92-.82-4.92-3.56a3.52,3.52,0,0,1,2.28-3.54,3.06,3.06,0,0,1-2.06-3.1c0-2.28,1.82-3.42,4.7-3.42S388.43,351.53,388.43,353.85ZM387,360.09c0-1.54-1-2-2.35-2.42h-2.1c-1.38.38-2.18,1.06-2.18,2.54,0,1.82,1.4,2.42,3.28,2.42S387,362,387,360.09ZM380.59,354c0,1.22.66,1.86,2,2.32h2.1c1.36-.44,2.14-1.08,2.14-2.3,0-1.58-1.18-2.22-3.12-2.22S380.59,352.43,380.59,354Z"/>
            <path d="M390.83,350.63H399v2L394,364l-1.46-.46,5-11V352h-6.64Z"/>
        </g>
        <g id="CMs_Msk_Screen">
            <polygon points="339.69 268.87 339.69 289.27 374 289.37 374.01 264.97 359.5 266.97 339.69 268.87" fill="#8dd69d"/>
            <path d="M37.63,26.38h8.29v1.36H39.17v5.4h5.71V34.5H39.17v5.72H37.63Z"/>
            <path d="M48.15,40.22V26.38h1.54V38.84h6.09v1.38Z"/>
            <path d="M57.73,26.38h1.54V40.22H57.73Z"/>
            <path d="M68.13,33.14H72v6.8a33.9,33.9,0,0,1-4.51.48c-4.24,0-5.36-2.6-5.36-7.08s1.16-7.16,5.32-7.16A26,26,0,0,1,72,26.7L71.9,28a32,32,0,0,0-4.31-.42c-3.2,0-3.9,1.86-3.9,5.78s.68,5.72,3.88,5.72a18.71,18.71,0,0,0,2.87-.28V34.52H68.13Z"/>
            <path d="M83.56,34h-7v6.26H75V26.38h1.54v6.2h7v-6.2h1.52V40.22H83.56Z"/>
            <path d="M87,26.38H97v1.38H92.81V40.22H91.29V27.76H87Z"/>
            <path d="M37.88,442.91h9v1.25H43.09v11.22H41.72V444.16H37.88Z" fill="#3a3d3f"/>
            <path d="M48.41,455.38V442.45h1.35v4.43a7.57,7.57,0,0,1,2.78-.69c2.46,0,3,1.23,3,4.43v4.76H54.23v-4.72c0-2.38-.27-3.26-1.93-3.26a7.41,7.41,0,0,0-2.54.54v7.44Z" fill="#3a3d3f"/>
            <path d="M64.72,454.2l0,1.07a32.2,32.2,0,0,1-3.51.28c-2.69,0-3.57-1.56-3.57-4.62,0-3.42,1.48-4.74,3.77-4.74s3.61,1.26,3.61,4.21l-.07,1H59.05c0,1.93.6,2.94,2.36,2.94C62.76,454.37,64.72,454.2,64.72,454.2Zm-1-3.85c0-2.23-.68-3-2.26-3s-2.4.84-2.42,3Z" fill="#3a3d3f"/>
            <path d="M71.13,455.38v-9h1.33V447a6,6,0,0,1,2.63-.81,2.53,2.53,0,0,1,2.34.92,7.46,7.46,0,0,1,3.2-.92c2.45,0,3.05,1.17,3.05,4.43v4.76H82.33v-4.72c0-2.38-.27-3.26-1.89-3.26a6,6,0,0,0-2.54.66,10.4,10.4,0,0,1,.23,2.63v4.69H76.78v-4.65c0-2.49-.25-3.33-1.89-3.33a5.39,5.39,0,0,0-2.41.66v7.32Z" fill="#3a3d3f"/>
            <path d="M93.49,450.77c0,3.27-.81,4.78-3.86,4.78s-3.85-1.51-3.85-4.78c0-3.1,1-4.58,3.85-4.58S93.49,447.67,93.49,450.77Zm-1.39,0c0-2.51-.54-3.41-2.47-3.41s-2.46.9-2.46,3.41.34,3.61,2.46,3.61S92.1,453.32,92.1,450.77Z" fill="#3a3d3f"/>
            <path d="M101.66,447.69a29.33,29.33,0,0,0-3.15-.29c-1.12,0-2,.3-2,1.37,0,.84.44,1.08,2.34,1.4,2.26.38,3.1.83,3.1,2.58,0,2.1-1.33,2.8-3.49,2.8a25.65,25.65,0,0,1-3.17-.34l.07-1.17a29.5,29.5,0,0,0,3,.31c1.48,0,2.27-.33,2.27-1.55,0-.94-.47-1.17-2.43-1.48s-3-.7-3-2.5c0-2,1.61-2.63,3.24-2.63a23,23,0,0,1,3.26.34Z" fill="#3a3d3f"/>
            <path d="M105.85,447.54v4.31c0,2,.13,2.52,1.3,2.52.5,0,1.6-.11,1.6-.11l.09,1.12a16.5,16.5,0,0,1-1.84.19c-1.85,0-2.48-.7-2.48-3.29v-4.74h-1.28v-1.17h1.28v-2.75h1.33v2.75h2.86v1.17Z" fill="#3a3d3f"/>
            <path d="M120.31,447.69a29.33,29.33,0,0,0-3.15-.29c-1.12,0-2,.3-2,1.37,0,.84.43,1.08,2.34,1.4,2.25.38,3.1.83,3.1,2.58,0,2.1-1.33,2.8-3.49,2.8a25.65,25.65,0,0,1-3.17-.34L114,454a29.5,29.5,0,0,0,3,.31c1.48,0,2.27-.33,2.27-1.55,0-.94-.47-1.17-2.43-1.48s-3-.7-3-2.5c0-2,1.61-2.63,3.24-2.63a23.19,23.19,0,0,1,3.26.34Z" fill="#3a3d3f"/>
            <path d="M129.67,446.37v9h-1.35v-.64a6.08,6.08,0,0,1-2.67.81c-2.52,0-3-1.17-3-4.48v-4.7H124v4.68c0,2.49.21,3.3,1.89,3.3a5.47,5.47,0,0,0,2.47-.67v-7.31Z" fill="#3a3d3f"/>
            <path d="M132.26,442.77h1.35v1.57h-1.35Zm0,3.6h1.35v9h-1.35Z" fill="#3a3d3f"/>
            <path d="M138,447.54v4.31c0,2,.12,2.52,1.3,2.52.5,0,1.6-.11,1.6-.11l.09,1.12a16.5,16.5,0,0,1-1.84.19c-1.85,0-2.48-.7-2.48-3.29v-4.74h-1.28v-1.17h1.28v-2.75H138v2.75h2.86v1.17Z" fill="#3a3d3f"/>
            <path d="M148.87,453.7c0,.52.47.72,1,.79l-.06,1.06a2.72,2.72,0,0,1-2.14-.72,9.2,9.2,0,0,1-3.24.72c-1.64,0-2.54-.93-2.54-2.75s.9-2.49,2.76-2.67l2.82-.26v-.78c0-1.26-.54-1.71-1.62-1.71-1.26,0-3.4.23-3.4.23l-.05-1a21.57,21.57,0,0,1,3.52-.4c2,0,2.9.94,2.9,2.9Zm-4-2.56c-1.1.11-1.53.63-1.53,1.62s.45,1.66,1.37,1.66a9.47,9.47,0,0,0,2.82-.56v-3Z" fill="#3a3d3f"/>
            <path d="M158.79,450.73c0,3.58-1,4.82-4.25,4.82-1.08,0-3-.19-3-.19V442.45h1.33v4.37a7.43,7.43,0,0,1,2.64-.63C158,446.19,158.79,447.49,158.79,450.73Zm-1.37,0c0-2.32-.47-3.33-2-3.33a7.57,7.57,0,0,0-2.5.52v6.34s1.17.09,1.65.09C157,454.35,157.42,453.25,157.42,450.73Z" fill="#3a3d3f"/>
            <path d="M161.11,442.45h1.35v12.93h-1.35Z" fill="#3a3d3f"/>
            <path d="M171.8,454.2l0,1.07a32.2,32.2,0,0,1-3.51.28c-2.68,0-3.57-1.56-3.57-4.62,0-3.42,1.48-4.74,3.77-4.74s3.62,1.26,3.62,4.21l-.08,1h-5.94c0,1.93.6,2.94,2.36,2.94C169.84,454.37,171.8,454.2,171.8,454.2Zm-1-3.85c0-2.23-.69-3-2.27-3s-2.4.84-2.41,3Z" fill="#3a3d3f"/>
            <path d="M184.28,446.55l-.07,1.91s-1.43-.14-2.11-.14c-1.73,0-2,.66-2,2.46,0,2,.34,2.65,2.07,2.65.68,0,2.09-.14,2.09-.14l.07,1.92a21.2,21.2,0,0,1-2.94.38c-2.68,0-3.74-1.42-3.74-4.81,0-3.18,1.11-4.62,3.8-4.62A18.78,18.78,0,0,1,184.28,446.55Z" fill="#3a3d3f"/>
            <path d="M186.06,455.38V442.77h2.41v4a6,6,0,0,1,2.23-.64c2.52,0,3.17,1.58,3.17,4.34v4.88h-2.41v-4.83c0-1.35-.18-2.23-1.35-2.23a6.12,6.12,0,0,0-1.64.28v6.78Z" fill="#3a3d3f"/>
            <path d="M203.14,453.3l0,1.79a19.2,19.2,0,0,1-3.75.5c-2.72,0-3.87-1.35-3.87-4.59s1.35-4.84,4-4.84,3.93,1.35,3.93,4.06l-.18,1.68H198c0,1.08.53,1.57,1.82,1.57C201.29,453.47,203.14,453.3,203.14,453.3Zm-2-3.24c0-1.46-.41-1.92-1.55-1.92s-1.55.55-1.56,1.92Z" fill="#3a3d3f"/>
            <path d="M211.44,446.55l-.07,1.91s-1.42-.14-2.11-.14c-1.73,0-2,.66-2,2.46,0,2,.34,2.65,2.07,2.65.68,0,2.09-.14,2.09-.14l.07,1.92a21.22,21.22,0,0,1-2.93.38c-2.69,0-3.75-1.42-3.75-4.81,0-3.18,1.12-4.62,3.8-4.62A18.78,18.78,0,0,1,211.44,446.55Z" fill="#3a3d3f"/>
            <path d="M213.22,455.38V442.77h2.41v7.17l.92-.16,1.78-3.41H221l-2.35,4.27,2.47,4.74h-2.72l-1.82-3.52-1,.17v3.35Z" fill="#3a3d3f"/>
            <path d="M222.38,449.49h5.33v2.19h-5.33Z" fill="#3a3d3f"/>
            <path d="M229.83,442.77h2.42v2.45h-2.42Zm0,3.6h2.42v9h-2.42Z" fill="#3a3d3f"/>
            <path d="M234.48,455.38v-9h2.39v.51a5.49,5.49,0,0,1,2.25-.72c2.52,0,3.17,1.58,3.17,4.34v4.88h-2.41v-4.81c0-1.37-.18-2.25-1.35-2.25a5,5,0,0,0-1.64.32v6.74Z" fill="#3a3d3f"/>
            <path d="M256,455.38h-2.39V455a6.51,6.51,0,0,1-2.18.59c-2.72,0-3.51-1.58-3.51-4.75s1.28-4.68,3.73-4.68a14.18,14.18,0,0,1,1.94.25v-3.64H256Zm-2.41-2.22v-4.74a11.93,11.93,0,0,0-1.76-.18c-.9,0-1.46.78-1.46,2.6s.34,2.59,1.47,2.59A7.07,7.07,0,0,0,253.63,453.16Z" fill="#3a3d3f"/>
            <path d="M265.4,453.3l0,1.79a19.2,19.2,0,0,1-3.75.5c-2.71,0-3.87-1.35-3.87-4.59s1.35-4.84,4-4.84,3.93,1.35,3.93,4.06l-.18,1.68h-5.3c0,1.08.53,1.57,1.82,1.57C263.55,453.47,265.4,453.3,265.4,453.3Zm-2-3.24c0-1.46-.41-1.92-1.55-1.92s-1.55.55-1.56,1.92Z" fill="#3a3d3f"/>
            <path d="M273.92,448.62s-2.24-.29-3.28-.29-1.26.24-1.26.72.34.51,2,.82c2.09.37,2.83,1,2.83,2.8,0,2.11-1.37,2.92-3.62,2.92a22.55,22.55,0,0,1-3.46-.43l.07-2s2.23.29,3.15.29c1.15,0,1.46-.23,1.46-.7s-.2-.58-1.85-.85c-1.95-.32-3-.79-3-2.77s1.58-2.94,3.47-2.94a23,23,0,0,1,3.49.45Z" fill="#3a3d3f"/>
            <path d="M276,455.38V442.77h2.41v7.17l.92-.16,1.78-3.41h2.7l-2.34,4.27,2.47,4.74h-2.72l-1.82-3.52-1,.17v3.35Z" fill="#3a3d3f"/>
            <path d="M291.68,448.62s-2.23-.29-3.27-.29-1.26.24-1.26.72.34.51,2,.82c2.09.37,2.83,1,2.83,2.8,0,2.11-1.37,2.92-3.62,2.92a22.75,22.75,0,0,1-3.46-.43l.08-2s2.23.29,3.15.29c1.15,0,1.46-.23,1.46-.7s-.2-.58-1.86-.85c-1.94-.32-3-.79-3-2.77s1.58-2.94,3.48-2.94a23.2,23.2,0,0,1,3.49.45Z" fill="#3a3d3f"/>
            <path d="M299.58,455.38h-1.35v-7.84H297.1v-1.17h1.13v-.81c0-2.59.67-3.29,2.43-3.29.62,0,1.82.12,1.82.12l0,1.12s-1,0-1.54,0c-1,0-1.34.44-1.34,2.11v.79h2.61v1.17h-2.61Z" fill="#3a3d3f"/>
            <path d="M311.12,450.77c0,3.27-.81,4.78-3.85,4.78s-3.85-1.51-3.85-4.78c0-3.1,1-4.58,3.85-4.58S311.12,447.67,311.12,450.77Zm-1.38,0c0-2.51-.54-3.41-2.47-3.41s-2.47.9-2.47,3.41.35,3.61,2.47,3.61S309.74,453.32,309.74,450.77Z" fill="#3a3d3f"/>
            <path d="M313.32,446.37h1.33v1.23a10.34,10.34,0,0,1,3.29-1.43v1.37a12.81,12.81,0,0,0-3.27,1.23v6.61h-1.35Z" fill="#3a3d3f"/>
            <path d="M325.3,447.54v4.31c0,2,.13,2.52,1.3,2.52.51,0,1.6-.11,1.6-.11l.09,1.12a16.23,16.23,0,0,1-1.83.19c-1.86,0-2.49-.7-2.49-3.29v-4.74h-1.28v-1.17H324v-2.75h1.33v2.75h2.87v1.17Z" fill="#3a3d3f"/>
            <path d="M329.82,455.38V442.45h1.35v4.43a7.57,7.57,0,0,1,2.78-.69c2.46,0,3,1.23,3,4.43v4.76h-1.35v-4.72c0-2.38-.27-3.26-1.93-3.26a7.41,7.41,0,0,0-2.54.54v7.44Z" fill="#3a3d3f"/>
            <path d="M339.49,442.77h1.35v1.57h-1.35Zm0,3.6h1.35v9h-1.35Z" fill="#3a3d3f"/>
            <path d="M349.41,447.69a29.33,29.33,0,0,0-3.15-.29c-1.12,0-2,.3-2,1.37,0,.84.44,1.08,2.35,1.4,2.25.38,3.09.83,3.09,2.58,0,2.1-1.33,2.8-3.49,2.8a25.65,25.65,0,0,1-3.17-.34l.07-1.17a29.86,29.86,0,0,0,3,.31c1.48,0,2.27-.33,2.27-1.55,0-.94-.47-1.17-2.43-1.48s-3-.7-3-2.5c0-2,1.6-2.63,3.24-2.63a23.19,23.19,0,0,1,3.26.34Z" fill="#3a3d3f"/>
            <path d="M357.49,455.38h-1.35v-7.84H355v-1.17h1.14v-.81c0-2.59.67-3.29,2.43-3.29.61,0,1.82.12,1.82.12l0,1.12s-1,0-1.55,0c-1,0-1.33.44-1.33,2.11v.79h2.61v1.17h-2.61Z" fill="#3a3d3f"/>
            <path d="M361.83,442.45h1.35v12.93h-1.35Z" fill="#3a3d3f"/>
            <path d="M365.88,442.77h1.35v1.57h-1.35Zm0,3.6h1.35v9h-1.35Z" fill="#3a3d3f"/>
            <path d="M369.42,456.89c0-1.05.49-1.53,1.43-2.24a1.43,1.43,0,0,1-.51-1.24A5.82,5.82,0,0,1,371,452c-.75-.34-1.42-1.06-1.42-2.72,0-2.21,1.37-3.08,3.37-3.08a9.07,9.07,0,0,1,1.87.24l2.67-.08v1.16l-1.71,0a2.35,2.35,0,0,1,.59,1.8c0,2.34-1.17,3-3.48,3a6.79,6.79,0,0,1-.88-.07,5.32,5.32,0,0,0-.32,1c0,.72.14.83,2.18.83,2.55,0,3.47.5,3.47,2.64s-1.46,2.87-4,2.87C370.45,459.61,369.42,459,369.42,456.89Zm2.34-1.7c-.75.56-1,.89-1,1.59,0,1.24.52,1.69,2.55,1.69,1.8,0,2.61-.48,2.61-1.67,0-1.37-.57-1.51-2.21-1.51C373.08,455.29,371.76,455.19,371.76,455.19Zm3.21-5.92c0-1.42-.56-2-2.07-2s-2,.56-2,2,.61,2,2,2S375,450.69,375,449.27Z" fill="#3a3d3f"/>
            <path d="M379.07,455.38V442.45h1.35v4.43a7.57,7.57,0,0,1,2.78-.69c2.46,0,3,1.23,3,4.43v4.76h-1.35v-4.72c0-2.38-.27-3.26-1.93-3.26a7.41,7.41,0,0,0-2.54.54v7.44Z" fill="#3a3d3f"/>
            <path d="M390.54,447.54v4.31c0,2,.12,2.52,1.29,2.52.51,0,1.61-.11,1.61-.11l.09,1.12a16.5,16.5,0,0,1-1.84.19c-1.85,0-2.48-.7-2.48-3.29v-4.74h-1.28v-1.17h1.28v-2.75h1.33v2.75h2.86v1.17Z" fill="#3a3d3f"/>
            <path d="M405.37,453.7c0,.52.47.72,1.05.79l-.06,1.06a2.72,2.72,0,0,1-2.14-.72,9.2,9.2,0,0,1-3.24.72c-1.64,0-2.54-.93-2.54-2.75s.9-2.49,2.75-2.67l2.83-.26v-.78c0-1.26-.54-1.71-1.62-1.71-1.26,0-3.4.23-3.4.23l-.06-1a21.6,21.6,0,0,1,3.53-.4c2,0,2.9.94,2.9,2.9Zm-4-2.56c-1.1.11-1.53.63-1.53,1.62s.45,1.66,1.36,1.66a9.48,9.48,0,0,0,2.83-.56v-3Z" fill="#3a3d3f"/>
            <path d="M408,446.37h1.34v1.23a10.21,10.21,0,0,1,3.29-1.43v1.37a13,13,0,0,0-3.28,1.23v6.61H408Z" fill="#3a3d3f"/>
            <path d="M420.91,454.2l0,1.07a32.2,32.2,0,0,1-3.51.28c-2.68,0-3.56-1.56-3.56-4.62,0-3.42,1.47-4.74,3.76-4.74s3.62,1.26,3.62,4.21l-.07,1h-5.95c0,1.93.6,2.94,2.36,2.94C418.94,454.37,420.91,454.2,420.91,454.2Zm-1-3.85c0-2.23-.69-3-2.27-3s-2.4.84-2.41,3Z" fill="#3a3d3f"/>
            <path d="M435,445.71a27.56,27.56,0,0,0-3.35-.27c-1.64,0-2.4,1.13-2.4,2.77a11.21,11.21,0,0,1,2.27-.45c2.68,0,4.09,1.17,4.09,3.85s-1.68,4-4.36,4c-3.17,0-4.56-2.32-4.56-6.1,0-4.54,1.91-6.21,5-6.21a17.9,17.9,0,0,1,3.56.52Zm-5.77,4.6c0,1.73.51,3.12,2,3.12a1.65,1.65,0,0,0,1.8-1.82,1.55,1.55,0,0,0-1.75-1.69A7.33,7.33,0,0,0,429.18,450.31Z" fill="#3a3d3f"/>
            <path d="M445,445.71a27.56,27.56,0,0,0-3.35-.27c-1.64,0-2.4,1.13-2.4,2.77a11.21,11.21,0,0,1,2.27-.45c2.68,0,4.09,1.17,4.09,3.85s-1.68,4-4.36,4c-3.17,0-4.56-2.32-4.56-6.1,0-4.54,1.91-6.21,5-6.21a17.9,17.9,0,0,1,3.56.52Zm-5.77,4.6c0,1.73.51,3.12,2,3.12a1.65,1.65,0,0,0,1.8-1.82,1.55,1.55,0,0,0-1.75-1.69A7.33,7.33,0,0,0,439.26,450.31Z" fill="#3a3d3f"/>
            <path d="M457.79,453.7c0,.52.46.72,1,.79l-.05,1.06a2.73,2.73,0,0,1-2.15-.72,9.2,9.2,0,0,1-3.24.72c-1.64,0-2.53-.93-2.53-2.75s.89-2.49,2.75-2.67l2.83-.26v-.78c0-1.26-.54-1.71-1.62-1.71-1.26,0-3.41.23-3.41.23l-.05-1a21.6,21.6,0,0,1,3.53-.4c2,0,2.9.94,2.9,2.9Zm-4-2.56c-1.1.11-1.53.63-1.53,1.62s.45,1.66,1.37,1.66a9.57,9.57,0,0,0,2.83-.56v-3Z" fill="#3a3d3f"/>
            <path d="M460.45,455.38v-9h1.33V447a6.85,6.85,0,0,1,2.79-.81c2.49,0,3.05,1.23,3.05,4.43v4.76h-1.34v-4.72c0-2.38-.27-3.26-1.94-3.26a6.19,6.19,0,0,0-2.54.66v7.32Z" fill="#3a3d3f"/>
            <path d="M477,455.38H475.7v-.62a6.49,6.49,0,0,1-2.74.79c-1.76,0-3.24-.72-3.24-4.6,0-3.17,1-4.76,3.76-4.76a14.13,14.13,0,0,1,2.22.24v-4H477Zm-1.33-1.7v-6.1a14.43,14.43,0,0,0-2.15-.22c-1.89,0-2.44,1.24-2.44,3.59,0,2.91.95,3.4,2,3.4A6.54,6.54,0,0,0,475.7,453.68Z" fill="#3a3d3f"/>
            <path d="M488.06,453.41h-5v-1.89l2.94-8h2.73l-3.19,7.76h2.56v-3.33h2.49v3.33h1.13v2.16h-1.13v2h-2.49Z" fill="#3a3d3f"/>
            <path d="M501.76,446.53a2.77,2.77,0,0,1-1.3,2.72,3.23,3.23,0,0,1,1.48,2.9c0,2.5-2.05,3.44-4.55,3.44s-4.51-.74-4.51-3.24a3.42,3.42,0,0,1,1.5-3.1,2.94,2.94,0,0,1-1.3-2.73c0-2.06,1.71-3.24,4.31-3.24S501.76,444.45,501.76,446.53Zm-2.48,5.24a1.46,1.46,0,0,0-1.07-1.35h-1.58a1.45,1.45,0,0,0-1.08,1.35c0,1.1.61,1.59,1.84,1.59S499.28,452.87,499.28,451.77Zm-3.53-4.86a1.67,1.67,0,0,0,.88,1.41h1.58a1.68,1.68,0,0,0,.89-1.41c0-.9-.58-1.4-1.68-1.4S495.75,446,495.75,446.91Z" fill="#3a3d3f"/>
            <path d="M503.47,452.39h2.59v3h-2.59Z" fill="#3a3d3f"/>
            <line x1="34.4" y1="48.53" x2="533.99" y2="48.53" fill="none" stroke="#ddd" stroke-miterlimit="10"/>
            <line x1="71.63" y1="204.07" x2="71.63" y2="289.77" fill="none" stroke="#adadad" stroke-miterlimit="10"/>
            <line x1="526.43" y1="289.37" x2="71.63" y2="289.37" fill="none" stroke="#adadad" stroke-miterlimit="10"/>
            <path d="M36.83,96.79h32.6v3.4H36.83Zm33.6-16a2.57,2.57,0,0,0-3.2-1.8l-9.1,2.4-11.8-11-3.3.9,7.1,12.3-8.5,2.3-3.4-2.6-2.5.7,3.1,5.4,1.3,2.3,2.7-.7,9.1-2.4,7.5-2,9.1-2.4A3,3,0,0,0,70.43,80.79Z" fill="#f2a120"/>
            <path d="M77.13,305.47h-3.5v-.7l2.1-5.2h.9l-2.1,5.1h2.6v-2.3h.8v2.3h.9v.7h-.9v1.4h-.8Z" fill="#4c4c4c"/>
            <path d="M160.13,301.37a1.71,1.71,0,0,1-1.2,1.7c.8.4,1.3.8,1.3,1.8,0,1.6-1.2,2.1-2.7,2.1s-2.7-.5-2.7-2a1.87,1.87,0,0,1,1.3-1.9,1.63,1.63,0,0,1-1.1-1.7c0-1.3,1-1.9,2.6-1.9C159,299.47,160.13,300.07,160.13,301.37Zm-.8,3.4c0-.8-.6-1.1-1.3-1.3h-1.2a1.32,1.32,0,0,0-1.2,1.4c0,1,.8,1.3,1.8,1.3S159.33,305.87,159.33,304.77Zm-3.5-3.3c0,.7.4,1,1.1,1.3h1.2c.7-.2,1.2-.6,1.2-1.3,0-.9-.6-1.2-1.7-1.2S155.83,300.57,155.83,301.47Z" fill="#4c4c4c"/>
            <path d="M239.13,299.57h.8v7.3h-.8v-6.3l-1.9,1.2-.4-.6Z" fill="#4c4c4c"/>
            <path d="M242.53,306.87v-.7l2.1-2.2c.9-.9,1.5-1.5,1.5-2.4s-.5-1.3-1.6-1.3a13.13,13.13,0,0,0-1.9.2l-.1-.7a8.25,8.25,0,0,1,2.1-.3c1.5,0,2.3.6,2.3,1.9,0,1.1-.5,1.7-1.5,2.7l-1.9,2h3.6v.7h-4.6Z" fill="#4c4c4c"/>
            <path d="M326.53,299.57h.8v7.3h-.8v-6.3l-1.9,1.2-.4-.6Z" fill="#4c4c4c"/>
            <path d="M334.43,300.37s-1-.1-1.9-.1c-1.3,0-2,.9-2,2.5a5.91,5.91,0,0,1,1.8-.4c1.6,0,2.4.7,2.4,2.3a2.24,2.24,0,0,1-2.5,2.4c-1.8,0-2.6-1.4-2.6-3.8,0-2.6,1.1-3.7,2.8-3.7a13.38,13.38,0,0,1,2,.2Zm-3.8,3.1c0,1.6.5,2.7,1.7,2.7a1.5,1.5,0,0,0,1.7-1.6,1.4,1.4,0,0,0-1.6-1.5A5.11,5.11,0,0,0,330.63,303.47Z" fill="#4c4c4c"/>
            <path d="M411.13,306.87v-.7l2.1-2.2c.9-.9,1.5-1.5,1.5-2.4s-.5-1.3-1.6-1.3a13.13,13.13,0,0,0-1.9.2l-.1-.7a8.25,8.25,0,0,1,2.1-.3c1.5,0,2.3.6,2.3,1.9,0,1.1-.5,1.7-1.5,2.7l-1.9,2h3.6v.7h-4.6Z" fill="#4c4c4c"/>
            <path d="M422.23,303.37c0,2.8-1,3.6-2.6,3.6s-2.7-.8-2.7-3.6c0-3,1-3.9,2.6-3.9C421.33,299.47,422.23,300.37,422.23,303.37Zm-4.4,0c0,2.3.6,2.9,1.8,2.9s1.8-.6,1.8-2.9-.6-3.1-1.8-3.1S417.83,300.87,417.83,303.37Z" fill="#4c4c4c"/>
            <path d="M498.53,306.87v-.7l2.1-2.2c.9-.9,1.5-1.5,1.5-2.4s-.5-1.3-1.6-1.3a13.13,13.13,0,0,0-1.9.2l-.1-.7a8.25,8.25,0,0,1,2.1-.3c1.5,0,2.3.6,2.3,1.9,0,1.1-.5,1.7-1.5,2.7l-1.9,2h3.6v.7h-4.6Z" fill="#4c4c4c"/>
            <path d="M507.93,305.47h-3.5v-.7l2.1-5.2h.9l-2.1,5.1h2.6v-2.3h.8v2.3h.9v.7h-.9v1.4h-.8Z" fill="#4c4c4c"/>
            <path d="M63,282.72c0,2.8-1,3.6-2.6,3.6s-2.7-.8-2.7-3.6c0-3,1-3.9,2.6-3.9C62.13,278.92,63,279.72,63,282.72Zm-4.4,0c0,2.3.6,2.9,1.8,2.9s1.8-.6,1.8-2.9-.6-3.1-1.8-3.1S58.63,280.22,58.63,282.72Z" fill="#4c4c4c"/>
            <path d="M55.63,255.82v.8h-3.5l-.2,2.4a3.63,3.63,0,0,1,1.7-.5c1.4,0,2.3.6,2.3,2.1a2.19,2.19,0,0,1-2.4,2.5,12.69,12.69,0,0,1-2.4-.3l.1-.7a18.13,18.13,0,0,0,2.2.2,1.5,1.5,0,0,0,1.6-1.7,1.32,1.32,0,0,0-1.5-1.5,4.29,4.29,0,0,0-1.7.4l-.6-.1.2-3.8h4.2Z" fill="#4c4c4c"/>
            <path d="M62.23,259.52c0,2.8-1,3.6-2.6,3.6s-2.7-.8-2.7-3.6c0-3,1-3.9,2.6-3.9C61.33,255.72,62.23,256.52,62.23,259.52Zm-4.4,0c0,2.3.6,2.9,1.8,2.9s1.8-.6,1.8-2.9-.6-3.1-1.8-3.1S57.83,257,57.83,259.52Z" fill="#4c4c4c"/>
            <path d="M50.83,231.72h.8V239h-.8v-6.3l-1.9,1.2-.4-.6Z" fill="#4c4c4c"/>
            <path d="M59.23,235.52c0,2.8-1,3.6-2.6,3.6s-2.7-.8-2.7-3.6c0-3,1-3.9,2.6-3.9C58.33,231.62,59.23,232.52,59.23,235.52Zm-4.4,0c0,2.3.6,2.9,1.8,2.9s1.8-.6,1.8-2.9-.6-3.1-1.8-3.1S54.83,233,54.83,235.52Z" fill="#4c4c4c"/>
            <path d="M65.33,235.52c0,2.8-1,3.6-2.6,3.6s-2.7-.8-2.7-3.6c0-3,1-3.9,2.6-3.9C64.43,231.62,65.33,232.52,65.33,235.52Zm-4.4,0c0,2.3.6,2.9,1.8,2.9s1.8-.6,1.8-2.9-.6-3.1-1.8-3.1S60.93,233,60.93,235.52Z" fill="#4c4c4c"/>
            <path d="M50.83,207.72h.8V215h-.8v-6.3l-1.9,1.2-.4-.6Z" fill="#4c4c4c"/>
            <path d="M58.73,207.72v.8h-3.5l-.2,2.4a3.63,3.63,0,0,1,1.7-.5c1.4,0,2.3.6,2.3,2.1a2.19,2.19,0,0,1-2.4,2.5,12.69,12.69,0,0,1-2.4-.3l.1-.7a18.13,18.13,0,0,0,2.2.2,1.5,1.5,0,0,0,1.6-1.7,1.32,1.32,0,0,0-1.5-1.5,4.29,4.29,0,0,0-1.7.4l-.6-.1.2-3.8h4.2Z" fill="#4c4c4c"/>
            <path d="M65.33,211.52c0,2.8-1,3.6-2.6,3.6s-2.7-.8-2.7-3.6c0-3,1-3.9,2.6-3.9C64.43,207.62,65.33,208.52,65.33,211.52Zm-4.4,0c0,2.3.6,2.9,1.8,2.9s1.8-.6,1.8-2.9-.6-3.1-1.8-3.1S60.93,209,60.93,211.52Z" fill="#4c4c4c"/>
            <polyline points="73.23 284.77 89.13 284.77 109.73 281.77 123.43 275.77 133.33 275.87 145.83 277.87 165.33 272.87 183.53 271.87 210.63 279.07 231.23 275.07 263.83 239.17 293.13 249.17 303.53 262.87 330.93 269.87 365.13 266.87 392.63 262.87 420.03 241.87 438.23 243.87 456.53 257.87 472.53 257.87 485.13 271.87 505.63 279.87" fill="none" stroke="#2277d6" stroke-width="2"/>
            <path d="M37.75,187.56v4.19H36.36V179.29h4.55c2.72,0,4,1.32,4,4s-1.26,4.25-4,4.25Zm3.15-1.23c1.81,0,2.57-1.09,2.57-3s-.76-2.79-2.57-2.79H37.75v5.81Z" fill="#4c4c4c"/>
            <path d="M53.15,190.08c0,.52.47.72,1.05.79l-.06,1.06a2.75,2.75,0,0,1-2.14-.72,9.2,9.2,0,0,1-3.24.72c-1.64,0-2.54-.93-2.54-2.75s.9-2.48,2.76-2.67l2.82-.27v-.77c0-1.26-.54-1.71-1.62-1.71-1.26,0-3.4.23-3.4.23l-.05-1a21.6,21.6,0,0,1,3.53-.4c2,0,2.89.94,2.89,2.9Zm-4-2.56c-1.1.11-1.53.63-1.53,1.62s.45,1.66,1.37,1.66a9.47,9.47,0,0,0,2.82-.56v-3Z" fill="#4c4c4c"/>
            <path d="M61.79,184.07a29.33,29.33,0,0,0-3.15-.29c-1.11,0-2,.3-2,1.37,0,.84.43,1.08,2.34,1.4,2.25.38,3.1.83,3.1,2.58,0,2.1-1.33,2.8-3.5,2.8a25.4,25.4,0,0,1-3.16-.34l.07-1.17a29.5,29.5,0,0,0,3,.31c1.48,0,2.27-.33,2.27-1.55,0-.94-.47-1.17-2.43-1.48s-3-.7-3-2.5c0-2,1.6-2.63,3.24-2.63a23.19,23.19,0,0,1,3.26.34Z" fill="#4c4c4c"/>
            <path d="M70.16,184.07a29.33,29.33,0,0,0-3.15-.29c-1.11,0-2,.3-2,1.37,0,.84.43,1.08,2.34,1.4,2.25.38,3.1.83,3.1,2.58,0,2.1-1.33,2.8-3.49,2.8a25.4,25.4,0,0,1-3.17-.34l.07-1.17a29.5,29.5,0,0,0,3,.31c1.48,0,2.27-.33,2.27-1.55,0-.94-.47-1.17-2.43-1.48s-3-.7-3-2.5c0-2,1.6-2.63,3.24-2.63a23.19,23.19,0,0,1,3.26.34Z" fill="#4c4c4c"/>
            <path d="M79.2,190.58l0,1.07a32.5,32.5,0,0,1-3.52.28c-2.68,0-3.56-1.56-3.56-4.62,0-3.42,1.48-4.74,3.76-4.74s3.62,1.26,3.62,4.22l-.07,1H73.53c0,1.93.59,2.94,2.36,2.94C77.24,190.75,79.2,190.58,79.2,190.58Zm-1-3.85c0-2.23-.68-3-2.27-3s-2.39.84-2.41,3Z" fill="#4c4c4c"/>
            <path d="M81.65,191.75v-9H83v.63a6.85,6.85,0,0,1,2.79-.81c2.48,0,3,1.23,3,4.43v4.75H87.48V187c0-2.38-.27-3.26-1.94-3.26a6.19,6.19,0,0,0-2.54.66v7.31Z" fill="#4c4c4c"/>
            <path d="M90.92,193.27c0-1.05.48-1.53,1.42-2.24a1.43,1.43,0,0,1-.51-1.24,5.78,5.78,0,0,1,.62-1.42c-.76-.34-1.43-1.06-1.43-2.72,0-2.21,1.37-3.08,3.37-3.08a9.07,9.07,0,0,1,1.87.24l2.67-.08v1.16l-1.71,0a2.35,2.35,0,0,1,.59,1.8c0,2.34-1.17,3-3.47,3a6.65,6.65,0,0,1-.88-.07,5.21,5.21,0,0,0-.33,1c0,.72.14.83,2.18.83,2.56,0,3.47.5,3.47,2.64s-1.45,2.87-4,2.87C91.94,196,90.92,195.36,90.92,193.27Zm2.34-1.7c-.76.56-1,.89-1,1.59,0,1.24.52,1.69,2.55,1.69,1.81,0,2.62-.48,2.62-1.67,0-1.37-.58-1.52-2.22-1.52C94.57,191.66,93.26,191.57,93.26,191.57Zm3.2-5.92c0-1.42-.56-2-2.07-2s-2,.56-2,2,.62,2,2,2S96.46,187.07,96.46,185.65Z" fill="#4c4c4c"/>
            <path d="M107.21,190.58l0,1.07a32.2,32.2,0,0,1-3.51.28c-2.68,0-3.56-1.56-3.56-4.62,0-3.42,1.47-4.74,3.76-4.74s3.62,1.26,3.62,4.22l-.07,1h-5.94c0,1.93.59,2.94,2.35,2.94C105.25,190.75,107.21,190.58,107.21,190.58Zm-1-3.85c0-2.23-.68-3-2.27-3s-2.39.84-2.41,3Z" fill="#4c4c4c"/>
            <path d="M109.65,182.75H111V184a10.21,10.21,0,0,1,3.29-1.43v1.37a13,13,0,0,0-3.28,1.23v6.6h-1.35Z" fill="#4c4c4c"/>
            <path d="M121.86,184.07a29.33,29.33,0,0,0-3.15-.29c-1.12,0-2,.3-2,1.37,0,.84.43,1.08,2.34,1.4,2.25.38,3.09.83,3.09,2.58,0,2.1-1.33,2.8-3.49,2.8a25.65,25.65,0,0,1-3.17-.34l.07-1.17a29.86,29.86,0,0,0,3,.31c1.48,0,2.27-.33,2.27-1.55,0-.94-.47-1.17-2.43-1.48s-3-.7-3-2.5c0-2,1.6-2.63,3.24-2.63a23.19,23.19,0,0,1,3.26.34Z" fill="#4c4c4c"/>
            <path d="M307,74.74h8v1.11h-3.38v10h-1.22v-10H307Z" fill="#4c4c4c"/>
            <path d="M316.31,74.61h1.2V76h-1.2Zm0,3.2h1.2v8h-1.2Z" fill="#4c4c4c"/>
            <path d="M319.82,85.82v-8H321v.57a5.32,5.32,0,0,1,2.34-.73,2.26,2.26,0,0,1,2.08.82,6.67,6.67,0,0,1,2.85-.82c2.18,0,2.7,1,2.7,3.94v4.23h-1.2v-4.2c0-2.11-.24-2.89-1.68-2.89a5.28,5.28,0,0,0-2.25.59,9.4,9.4,0,0,1,.2,2.34v4.16h-1.2V81.69c0-2.21-.22-3-1.68-3a4.8,4.8,0,0,0-2.14.59v6.5Z" fill="#4c4c4c"/>
            <path d="M339.1,84.78l0,.94A27.37,27.37,0,0,1,336,86c-2.38,0-3.17-1.39-3.17-4.12,0-3,1.32-4.21,3.35-4.21s3.22,1.13,3.22,3.75l-.07.91h-5.28c0,1.72.53,2.61,2.1,2.61C337.36,84.92,339.1,84.78,339.1,84.78Zm-.9-3.43c0-2-.6-2.69-2-2.69s-2.13.76-2.15,2.69Z" fill="#4c4c4c"/>
            <path d="M342.81,85.82h-1.2v-7h-1v-1h1v-.72c0-2.3.59-2.92,2.16-2.92.55,0,1.62.11,1.62.11l0,1s-.89,0-1.37,0c-.9,0-1.19.38-1.19,1.87v.7h2.32v1h-2.32Z" fill="#4c4c4c"/>
            <path d="M346.57,77.81h1.18V78.9a9.07,9.07,0,0,1,2.93-1.26v1.22a11.63,11.63,0,0,0-2.91,1.08v5.88h-1.2Z" fill="#4c4c4c"/>
            <path d="M357.76,84.33c0,.46.41.64.93.7l-.05,1a2.46,2.46,0,0,1-1.91-.64,8.18,8.18,0,0,1-2.88.64c-1.46,0-2.26-.83-2.26-2.45s.8-2.21,2.45-2.37l2.52-.24v-.69c0-1.12-.48-1.52-1.44-1.52-1.12,0-3,.21-3,.21l0-.91a19,19,0,0,1,3.14-.36c1.81,0,2.58.84,2.58,2.58Zm-3.57-2.27c-1,.09-1.36.56-1.36,1.44S353.23,85,354,85a8.45,8.45,0,0,0,2.52-.5V81.83Z" fill="#4c4c4c"/>
            <path d="M360.12,85.82v-8h1.19v.57a5.32,5.32,0,0,1,2.33-.73,2.23,2.23,0,0,1,2.08.82,6.67,6.67,0,0,1,2.85-.82c2.18,0,2.71,1,2.71,3.94v4.23h-1.2v-4.2c0-2.11-.24-2.89-1.68-2.89a5.3,5.3,0,0,0-2.26.59,8.84,8.84,0,0,1,.21,2.34v4.16h-1.2V81.69c0-2.21-.23-3-1.68-3a4.82,4.82,0,0,0-2.15.59v6.5Z" fill="#4c4c4c"/>
            <path d="M379.4,84.78l0,.94a27.63,27.63,0,0,1-3.12.26c-2.39,0-3.17-1.39-3.17-4.12,0-3,1.31-4.21,3.34-4.21s3.22,1.13,3.22,3.75l-.07.91h-5.28c0,1.72.53,2.61,2.1,2.61C377.66,84.92,379.4,84.78,379.4,84.78Zm-.89-3.43c0-2-.61-2.69-2-2.69s-2.13.76-2.14,2.69Z" fill="#4c4c4c"/>
            <path d="M281.82,95.53h2.45v15.84H281.6V98.55l-3.72,2.4-1.22-2Z" fill="#4c4c4c"/>
            <path d="M299.75,97.93a35.52,35.52,0,0,0-4.35-.34c-2.42,0-3.65,1.7-3.67,4.46a14.29,14.29,0,0,1,3.46-.74c3.52,0,5.37,1.59,5.37,5s-2.13,5.28-5.69,5.28c-4.1,0-5.9-3.09-5.9-8.18,0-5.91,2.5-8.19,6.43-8.19a25.26,25.26,0,0,1,4.59.58Zm-8,6.43c0,2.78.84,4.94,3.16,4.94a2.65,2.65,0,0,0,2.93-3c0-1.8-1.05-2.69-2.85-2.69A10.2,10.2,0,0,0,291.71,104.36Z" fill="#4c4c4c"/>
            <path d="M302.89,100.64h2.81v3.46h-2.81Zm0,7.27h2.81v3.46h-2.81Z" fill="#4c4c4c"/>
            <path d="M315.25,108.54h-7.13v-2l4.18-11h2.95l-4.42,10.68h4.42v-4.66h2.69v4.66h1.73v2.33h-1.73v2.83h-2.69Z" fill="#4c4c4c"/>
            <path d="M332.22,95.53v2.35h-7.35l-.4,4.17a9,9,0,0,1,3.21-.74c3.17,0,5.09,1.37,5.09,4.75,0,3.6-2,5.57-5.38,5.57a25.1,25.1,0,0,1-5.44-.81l.28-2a36.25,36.25,0,0,0,4.85.48,2.67,2.67,0,0,0,2.93-3c0-2-1-2.67-2.69-2.67a9.38,9.38,0,0,0-3.33.65l-1.68-.36.43-8.42Z" fill="#4c4c4c"/>
            <path d="M340.78,103.71H348v2.38h-7.18Z" fill="#4c4c4c"/>
            <path d="M362,95.53h2.44v15.84h-2.66V98.55L358,101l-1.22-2Z" fill="#4c4c4c"/>
            <path d="M369.89,95.53h10V98.7l-5.83,12.93-2.5-.72,5.64-12.26v-.72h-7.3Z" fill="#4c4c4c"/>
            <path d="M383.05,100.64h2.8v3.46h-2.8Zm0,7.27h2.8v3.46h-2.8Z" fill="#4c4c4c"/>
            <path d="M395.41,108.54h-7.13v-2l4.18-11h3L391,106.21h4.42v-4.66h2.69v4.66h1.72v2.33H398.1v2.83h-2.69Z" fill="#4c4c4c"/>
            <path d="M412.37,95.53v2.35H405l-.41,4.17a9,9,0,0,1,3.22-.74c3.17,0,5.09,1.37,5.09,4.75,0,3.6-2,5.57-5.38,5.57a25.12,25.12,0,0,1-5.45-.81l.29-2a36,36,0,0,0,4.85.48,2.67,2.67,0,0,0,2.93-3c0-2-1-2.67-2.69-2.67a9.4,9.4,0,0,0-3.34.65l-1.68-.36.43-8.42Z" fill="#4c4c4c"/>
            <path d="M107.59,98.24s-2.5-.31-3.55-.31c-1.76,0-2.7.63-2.7,2,0,1.62.87,1.89,3,2.38,2.49.55,3.59,1.17,3.59,3.35,0,2.75-1.52,3.83-4,3.83a32.54,32.54,0,0,1-3.95-.4l.15-1.15s2.45.33,3.73.33c1.76,0,2.66-.78,2.66-2.51,0-1.4-.74-1.8-2.77-2.19-2.58-.56-3.87-1.17-3.87-3.55s1.58-3.35,4-3.35a30.86,30.86,0,0,1,3.76.36Z" fill="#3a3d3f"/>
            <path d="M111.92,101.54v4.3c0,2,.13,2.52,1.3,2.52.51,0,1.6-.11,1.6-.11l.09,1.12a15.44,15.44,0,0,1-1.83.2c-1.86,0-2.49-.71-2.49-3.3v-4.73h-1.28v-1.17h1.28V97.61h1.33v2.76h2.87v1.17Z" fill="#3a3d3f"/>
            <path d="M123.75,104.76c0,3.28-.81,4.79-3.85,4.79s-3.85-1.51-3.85-4.79c0-3.1,1-4.57,3.85-4.57S123.75,101.66,123.75,104.76Zm-1.38,0c0-2.5-.54-3.4-2.47-3.4s-2.47.9-2.47,3.4.35,3.62,2.47,3.62S122.37,107.32,122.37,104.76Z" fill="#3a3d3f"/>
            <path d="M131.76,100.46l0,1.09s-1.44-.16-2.13-.16c-2.07,0-2.62.9-2.62,3.32,0,2.66.41,3.63,2.64,3.63.69,0,2.13-.16,2.13-.16l.05,1.12a24,24,0,0,1-2.5.25c-2.87,0-3.71-1.32-3.71-4.84,0-3.26,1.06-4.52,3.74-4.52A20.89,20.89,0,0,1,131.76,100.46Z" fill="#3a3d3f"/>
            <path d="M133.79,109.37V96.44h1.35v7.63l1.41-.07,2.57-3.63h1.53l-2.93,4.14,3.06,4.86h-1.53l-2.68-4.18-1.43.06v4.12Z" fill="#3a3d3f"/>
            <path d="M142.42,109.37V96.44h1.35v4.43a7.64,7.64,0,0,1,2.77-.68c2.47,0,3,1.22,3,4.43v4.75h-1.35v-4.72c0-2.38-.27-3.26-1.92-3.26a7.41,7.41,0,0,0-2.54.54v7.44Z" fill="#3a3d3f"/>
            <path d="M159.39,104.76c0,3.28-.81,4.79-3.85,4.79s-3.85-1.51-3.85-4.79c0-3.1,1-4.57,3.85-4.57S159.39,101.66,159.39,104.76Zm-1.38,0c0-2.5-.54-3.4-2.47-3.4s-2.47.9-2.47,3.4.34,3.62,2.47,3.62S158,107.32,158,104.76Z" fill="#3a3d3f"/>
            <path d="M161.69,96.44H163v12.93h-1.35Z" fill="#3a3d3f"/>
            <path d="M165.74,109.37v-9h1.34V101a6,6,0,0,1,2.63-.81,2.56,2.56,0,0,1,2.34.91,7.52,7.52,0,0,1,3.2-.91c2.45,0,3,1.17,3,4.43v4.75h-1.35v-4.72c0-2.38-.27-3.26-1.89-3.26a6,6,0,0,0-2.54.67,9.8,9.8,0,0,1,.24,2.63v4.68H171.4v-4.65c0-2.48-.25-3.33-1.89-3.33a5.4,5.4,0,0,0-2.42.67v7.31Z" fill="#3a3d3f"/>
            <path d="M180.72,103.79h5.46v1.26h-5.46Z" fill="#3a3d3f"/>
            <path d="M188.91,109.37V96.91h1.39v11.22h5.47v1.24Z" fill="#3a3d3f"/>
            <path d="M197.3,96.76h1.35v1.57H197.3Zm0,3.61h1.35v9H197.3Z" fill="#3a3d3f"/>
            <path d="M207.22,101.68a29.33,29.33,0,0,0-3.15-.29c-1.12,0-2,.31-2,1.37,0,.85.44,1.08,2.34,1.4,2.26.38,3.1.83,3.1,2.58,0,2.11-1.33,2.81-3.49,2.81a25.65,25.65,0,0,1-3.17-.34L201,108s2.05.3,3,.3c1.48,0,2.27-.32,2.27-1.55,0-.93-.47-1.17-2.43-1.47s-3-.7-3-2.51c0-2,1.61-2.62,3.24-2.62a23.19,23.19,0,0,1,3.26.34Z" fill="#3a3d3f"/>
            <path d="M216.87,104.72c0,3.59-1,4.83-4.25,4.83-1.08,0-3-.2-3-.2V96.44h1.33v4.38a7.44,7.44,0,0,1,2.65-.63C216,100.19,216.87,101.48,216.87,104.72Zm-1.37,0c0-2.32-.47-3.33-2.05-3.33a7.59,7.59,0,0,0-2.51.52v6.34s1.17.09,1.66.09C215.07,108.34,215.5,107.24,215.5,104.72Z" fill="#3a3d3f"/>
            <path d="M226.39,104.76c0,3.28-.81,4.79-3.85,4.79s-3.86-1.51-3.86-4.79c0-3.1,1-4.57,3.86-4.57S226.39,101.66,226.39,104.76Zm-1.39,0c0-2.5-.54-3.4-2.46-3.4s-2.47.9-2.47,3.4.34,3.62,2.47,3.62S225,107.32,225,104.76Z" fill="#3a3d3f"/>
            <path d="M228.58,109.37v-9h1.33V101a6.86,6.86,0,0,1,2.8-.81c2.48,0,3,1.22,3,4.43v4.75h-1.34v-4.72c0-2.38-.26-3.26-1.94-3.26a6.12,6.12,0,0,0-2.54.67v7.31Z" fill="#3a3d3f"/>
            <path d="M104.5,122h3.77v19.8h-4.14V126.66l-4.29,2.76L98,126.33Z" fill="#3a3d3f"/>
            <path d="M128.16,127.05c0,2.37-.45,3.15-2.16,4.53,1.59,1.32,2.46,2.34,2.46,4.83,0,4.17-3.42,5.73-7.59,5.73s-7.5-1.23-7.5-5.4a5.71,5.71,0,0,1,2.5-5.16,4.93,4.93,0,0,1-2.16-4.56c0-3.42,2.84-5.4,7.16-5.4S128.16,123.57,128.16,127.05ZM124,135.78a2.43,2.43,0,0,0-1.77-2.25h-2.63a2.4,2.4,0,0,0-1.8,2.25c0,1.83,1,2.64,3.05,2.64S124,137.61,124,135.78Zm-5.88-8.1a2.8,2.8,0,0,0,1.48,2.34h2.63a2.79,2.79,0,0,0,1.47-2.34c0-1.5-1-2.34-2.79-2.34S118.14,126.18,118.14,127.68Z" fill="#3a3d3f"/>
            <path d="M131,128.13h4.32v5H131Zm0,8.67h4.32v5H131Z" fill="#3a3d3f"/>
            <path d="M138.87,122.7a17.9,17.9,0,0,1,5.76-1.08c5.22,0,6.93,1.77,6.93,5.46a4.89,4.89,0,0,1-2.31,4.44c1.65.9,2.67,1.62,2.67,4.29,0,4.17-1.92,6.33-6.75,6.33a27.62,27.62,0,0,1-6.45-1l.21-3.15a42.57,42.57,0,0,0,5.64.57c2,0,3.09-.81,3.09-2.64,0-1.47-1.17-2.43-2.88-2.43h-4v-3.42h4a2.74,2.74,0,0,0,2.52-2.7c0-1.41-.93-2.13-3-2.13a33.34,33.34,0,0,0-5.19.54Z" fill="#3a3d3f"/>
            <path d="M169.89,132c0,7.5-2.76,10.14-7.68,10.14s-7.68-2.64-7.68-10.14,2.76-10.38,7.68-10.38S169.89,124.5,169.89,132Zm-11.1,0c0,4.86,1.05,6.54,3.45,6.54s3.39-1.68,3.39-6.54c0-5.16-1-6.78-3.39-6.78S158.79,126.84,158.79,132Z" fill="#3a3d3f"/>
            <path d="M102.19,71.82h5.5l3.22,14.27H108l-.57-2.58h-5l-.56,2.58H99ZM103,81h3.9l-1.44-6.78h-1Z"/>
            <path d="M118.42,71.82c2.88,0,4.45,1.05,4.45,3.78a3.19,3.19,0,0,1-1.57,3.15c1.22.52,1.85,1.4,1.85,3.25,0,2.86-1.79,4.09-4.64,4.09h-5.69V71.82Zm-2.71,2.47V77.7h2.59c1.13,0,1.63-.59,1.63-1.73s-.56-1.68-1.65-1.68Zm0,5.84v3.49h2.65c1.2,0,1.85-.36,1.85-1.77,0-1.17-.7-1.72-1.85-1.72Z"/>
            <path d="M134.34,72.24v2.52h-6.19l-.36,3a8.13,8.13,0,0,1,2.48-.5c2.83,0,4.49,1.26,4.49,4.17,0,3.13-1.72,4.92-4.74,4.92a21.89,21.89,0,0,1-4.92-.78l.32-2.14a34.54,34.54,0,0,0,4.24.4,1.91,1.91,0,0,0,2.12-2.08c0-1.41-.61-2-1.93-2a10.1,10.1,0,0,0-2.63.35l-1.72-.4.38-7.49Z"/>
            <path d="M137.11,83.51a31.75,31.75,0,0,0,3.91.32c1.91,0,2.79-1.28,2.79-3.4a11.26,11.26,0,0,1-2.64.63c-3,0-4.77-1.43-4.77-4.43S138.35,72,141.48,72c3.65,0,5.31,2.7,5.31,7.09,0,5.5-2.22,7.27-5.77,7.27a20.91,20.91,0,0,1-4.16-.61Zm6.72-5.46c0-2-.58-3.55-2.35-3.55a1.92,1.92,0,0,0-2.1,2.13c0,1.28.76,1.91,2,1.91A8,8,0,0,0,143.83,78.05Z"/>
            <path d="M227.72,412.65a22.75,22.75,0,0,1-4.09.46c-4.39,0-5.4-2.5-5.4-7.41,0-5.19,1.09-7.44,5.4-7.44a20,20,0,0,1,4.11.53l-.08,1.89a26.37,26.37,0,0,0-3.72-.34c-2.64,0-3.3,1.28-3.3,5.36S221.17,411,224,411a27.4,27.4,0,0,0,3.66-.32Z" fill="#4c4c4c"/>
            <path d="M238.77,406.66h-6.22v6.22h-2.33V398.49h2.33v6.14h6.22v-6.14h2.35v14.39h-2.35Z" fill="#4c4c4c"/>
            <path d="M244.42,398.49h9.07v2h-6.74v4.07h5.48v2h-5.48v4.2h6.74v2.06h-9.07Z" fill="#4c4c4c"/>
            <path d="M265,412.65a22.65,22.65,0,0,1-4.09.46c-4.39,0-5.4-2.5-5.4-7.41,0-5.19,1.1-7.44,5.4-7.44a20,20,0,0,1,4.11.53l-.08,1.89a26.23,26.23,0,0,0-3.72-.34c-2.64,0-3.29,1.28-3.29,5.36s.52,5.33,3.36,5.33a27.24,27.24,0,0,0,3.65-.32Z" fill="#4c4c4c"/>
            <path d="M271.93,406.87l-2.14.15v5.86h-2.33V398.49h2.33V405l2.14-.17,2.94-6.32h2.66L274,405.72l3.7,7.16H275Z" fill="#4c4c4c"/>
            <path d="M279.32,406.18h6.28v2.08h-6.28Z" fill="#4c4c4c"/>
            <path d="M288.54,398.49h2.33v14.39h-2.33Z" fill="#4c4c4c"/>
            <path d="M294.19,398.49h4.07l4.37,12.33h.31V398.49h2.33v14.39h-4l-4.48-12.35h-.29v12.35h-2.33Z" fill="#4c4c4c"/>
            <path d="M313.21,412.88V398.49h5c4.64,0,5.75,2.48,5.75,6.95s-1,7.44-5.75,7.44Zm5-12.35h-2.65v10.29h2.65c2.9,0,3.34-2.23,3.34-5.38S321.09,400.53,318.19,400.53Z" fill="#4c4c4c"/>
            <path d="M326.68,398.49h9.07v2H329v4.07h5.48v2H329v4.2h6.74v2.06h-9.07Z" fill="#4c4c4c"/>
            <path d="M346.67,400.64s-2.94-.34-4.16-.34c-1.76,0-2.67.63-2.67,1.87s.76,1.66,3.21,2.33c3,.84,4.12,1.64,4.12,4.09,0,3.15-2,4.52-4.81,4.52a30.37,30.37,0,0,1-4.7-.57l.23-1.87s2.83.38,4.32.38c1.79,0,2.61-.8,2.61-2.31,0-1.22-.65-1.64-2.86-2.16-3.1-.8-4.45-1.75-4.45-4.24,0-2.9,1.91-4.1,4.79-4.1a31.7,31.7,0,0,1,4.56.51Z" fill="#4c4c4c"/>
            <path d="M354.16,406.87,352,407v5.86h-2.33V398.49H352V405l2.14-.17,2.94-6.32h2.67l-3.55,7.23,3.7,7.16h-2.71Z" fill="#4c4c4c"/>
            <path d="M370.31,400.64s-2.94-.34-4.15-.34c-1.77,0-2.67.63-2.67,1.87s.75,1.66,3.21,2.33c3,.84,4.12,1.64,4.12,4.09,0,3.15-2,4.52-4.81,4.52a30.57,30.57,0,0,1-4.71-.57l.24-1.87s2.83.38,4.32.38c1.79,0,2.6-.8,2.6-2.31,0-1.22-.65-1.64-2.85-2.16-3.11-.8-4.45-1.75-4.45-4.24,0-2.9,1.91-4.1,4.79-4.1a31.49,31.49,0,0,1,4.55.51Z" fill="#4c4c4c"/>
            <path d="M470.53,82.06v3.73H469.3V74.71h4.05c2.41,0,3.53,1.17,3.53,3.57s-1.12,3.78-3.53,3.78Zm2.8-1.09c1.62,0,2.29-1,2.29-2.69s-.67-2.48-2.29-2.48h-2.8V81Z" fill="#3a3d3f"/>
            <path d="M478.35,77.79h1.19v1.09a9.09,9.09,0,0,1,2.93-1.27v1.22a11.42,11.42,0,0,0-2.92,1.09v5.87h-1.2Z" fill="#3a3d3f"/>
            <path d="M483.66,74.59h1.21V76h-1.21Zm0,3.2h1.21v8h-1.21Z" fill="#3a3d3f"/>
            <path d="M493.44,81.69c0,2.92-.72,4.26-3.42,4.26s-3.43-1.34-3.43-4.26c0-2.75.9-4.06,3.43-4.06S493.44,78.94,493.44,81.69Zm-1.23,0c0-2.22-.48-3-2.19-3s-2.19.8-2.19,3,.3,3.22,2.19,3.22S492.21,84,492.21,81.69Z" fill="#3a3d3f"/>
            <path d="M495.17,77.79h1.18v1.09a9.22,9.22,0,0,1,2.93-1.27v1.22a11.44,11.44,0,0,0-2.91,1.09v5.87h-1.2Z" fill="#3a3d3f"/>
            <path d="M500.48,74.59h1.2V76h-1.2Zm0,3.2h1.2v8h-1.2Z" fill="#3a3d3f"/>
            <path d="M505.36,78.83v3.82c0,1.75.11,2.24,1.15,2.24.45,0,1.43-.09,1.43-.09l.08,1a13.65,13.65,0,0,1-1.63.18c-1.65,0-2.21-.63-2.21-2.93V78.83H503v-1h1.14V75.34h1.18v2.45h2.55v1Z" fill="#3a3d3f"/>
            <path d="M509.15,74.59h1.2V76h-1.2Zm0,3.2h1.2v8h-1.2Z" fill="#3a3d3f"/>
            <path d="M512,77.79h5.94v1.07l-4.48,5.86h4.48v1.07H512V84.72l4.49-5.86H512Z" fill="#3a3d3f"/>
            <path d="M525.4,84.75l0,1a28.71,28.71,0,0,1-3.12.25c-2.39,0-3.17-1.39-3.17-4.11,0-3,1.31-4.21,3.34-4.21s3.22,1.12,3.22,3.74l-.06.92h-5.29c0,1.71.53,2.6,2.1,2.6C523.65,84.89,525.4,84.75,525.4,84.75Zm-.9-3.42c0-2-.61-2.69-2-2.69s-2.13.75-2.14,2.69Z" fill="#3a3d3f"/>
            <path id="card_1_switch" d="M513.71,126.74H484.19a12,12,0,1,1,0-24h29.52a12,12,0,0,1,0,24" fill="#ddd"/>
            <path id="card_switch_circle_1" d="M495.94,114.24a15,15,0,1,1-15-15,15,15,0,0,1,15,15" fill="#b3b3b3"/>
        </g>
    </g>
</svg>