<svg xmlns="http://www.w3.org/2000/svg" 
    xmlns:xlink="http://www.w3.org/1999/xlink" viewBox="0 15 1132 266">
    <title>r_3_right_Screen</title>
    <g style="isolation:isolate">
        <g id="Layer_2" data-name="Layer 2">
            <g id="Layer_5" data-name="Layer 5">
                <rect x="3.22" y="1" width="1125.31" height="255" fill="rgb(0,0,0,0)"/>
            </g>
			<line x1="5" y1="22.27" x2="5" y2="270.61" fill="none" stroke="#ddd" stroke-miterlimit="10" />
            <g id="Layer_1-2" data-name="Layer 1">
                <path d="M464.82,51.88a20.83,20.83,0,0,1-3.82.42c-4.14,0-5.06-2.52-5.06-7.08s.9-7.16,5.06-7.16a20.32,20.32,0,0,1,3.82.44l-.06,1.3a24.64,24.64,0,0,0-3.6-.36c-3.08,0-3.62,1.84-3.62,5.78s.5,5.7,3.66,5.7a21.88,21.88,0,0,0,3.56-.36Z"/>
                <path d="M475.92,45.84h-7V52.1h-1.54V38.26h1.54v6.2h7v-6.2h1.52V52.1h-1.52Z"/>
                <path d="M480.84,38.26h8.42v1.36h-6.88V44.4h5.68v1.34h-5.68v5h6.88V52.1h-8.42Z"/>
                <path d="M500.26,51.88a20.83,20.83,0,0,1-3.82.42c-4.14,0-5.06-2.52-5.06-7.08s.9-7.16,5.06-7.16a20.32,20.32,0,0,1,3.82.44l-.06,1.3a24.64,24.64,0,0,0-3.6-.36c-3.08,0-3.62,1.84-3.62,5.78s.5,5.7,3.66,5.7a21.88,21.88,0,0,0,3.56-.36Z"/>
                <path d="M506.62,46l-2.3.08v6h-1.54V38.26h1.54V44.7l2.28-.08,3.54-6.36h1.76l-4,7,4.18,6.88H510.3Z"/>
                <path d="M513.82,45.9h6.06v1.4h-6.06Z"/>
                <path d="M522.92,38.26h1.54V52.1h-1.54Z"/>
                <path d="M527.84,38.26h2.88L536,50.74h.42V38.26H538V52.1h-2.82l-5.38-12.48h-.38V52.1h-1.54Z"/>
                <path d="M545.76,52.1V38.26h4.94c4,0,5.12,2.8,5.12,6.72s-1,7.12-5.12,7.12Zm4.94-12.48h-3.4V50.74h3.4c2.88,0,3.54-2.76,3.54-5.76S553.58,39.62,550.7,39.62Z"/>
                <path d="M558.66,38.26h8.42v1.36H560.2V44.4h5.68v1.34H560.2v5h6.88V52.1h-8.42Z"/>
                <path d="M577.48,39.74s-2.78-.34-3.94-.34c-2,0-3,.7-3,2.26,0,1.8,1,2.1,3.38,2.64,2.76.62,4,1.3,4,3.72,0,3.06-1.68,4.26-4.42,4.26a36.39,36.39,0,0,1-4.38-.44l.16-1.28s2.72.36,4.14.36c2,0,3-.86,3-2.78,0-1.56-.82-2-3.08-2.44-2.86-.62-4.3-1.3-4.3-3.94S570.74,38,573.44,38a34.46,34.46,0,0,1,4.18.4Z"/>
                <path d="M584.4,46l-2.3.08v6h-1.54V38.26h1.54V44.7l2.28-.08,3.54-6.36h1.76l-4,7,4.18,6.88h-1.82Z"/>
                <path d="M599.32,39.74s-2.78-.34-3.94-.34c-2,0-3,.7-3,2.26,0,1.8,1,2.1,3.38,2.64,2.76.62,4,1.3,4,3.72,0,3.06-1.68,4.26-4.42,4.26a36.39,36.39,0,0,1-4.38-.44l.16-1.28s2.72.36,4.14.36c2,0,3-.86,3-2.78,0-1.56-.82-2-3.08-2.44-2.86-.62-4.3-1.3-4.3-3.94S592.58,38,595.28,38a34.46,34.46,0,0,1,4.18.4Z"/>
                <path d="M843.07,38.26h3.36l3.81,13.84h-1.53l-1-3.56h-5.92l-1,3.56h-1.52Zm-.94,8.9h5.25l-2.11-7.58h-1Z"/>
                <path d="M857.61,45h3.82v6.8a33.71,33.71,0,0,1-4.5.48c-4.24,0-5.36-2.6-5.36-7.08s1.16-7.16,5.32-7.16a25.77,25.77,0,0,1,4.54.52l0,1.28a32,32,0,0,0-4.31-.42c-3.2,0-3.9,1.86-3.9,5.78s.68,5.72,3.88,5.72a18.85,18.85,0,0,0,2.87-.28V46.4h-2.31Z"/>
                <path d="M873.74,38.26,870.12,52.1h-3.45l-3.62-13.84h1.6l3.18,12.48H869l3.18-12.48Z"/>
                <path d="M881.81,43.56a32.74,32.74,0,0,0-3.5-.32c-1.24,0-2.18.34-2.18,1.52,0,.94.48,1.2,2.6,1.56,2.5.42,3.44.92,3.44,2.86,0,2.34-1.48,3.12-3.88,3.12a28.23,28.23,0,0,1-3.52-.38l.08-1.3s2.28.34,3.3.34c1.64,0,2.52-.36,2.52-1.72,0-1-.52-1.3-2.7-1.64s-3.34-.78-3.34-2.78c0-2.2,1.78-2.92,3.6-2.92a25.57,25.57,0,0,1,3.62.38Z"/>
                <path d="M59.91,38.26h8.28v1.36H61.45V45h5.7v1.36h-5.7V52.1H59.91Z"/>
                <path d="M70.43,52.1V38.26H72V50.72h6.08V52.1Z"/>
                <path d="M80,38.26h1.54V52.1H80Z"/>
                <path d="M90.41,45h3.82v6.8a33.71,33.71,0,0,1-4.5.48c-4.24,0-5.36-2.6-5.36-7.08s1.16-7.16,5.32-7.16a25.77,25.77,0,0,1,4.54.52l-.06,1.28a31.73,31.73,0,0,0-4.3-.42c-3.2,0-3.9,1.86-3.9,5.78s.68,5.72,3.88,5.72a18.56,18.56,0,0,0,2.86-.28V46.4h-2.3Z"/>
                <path d="M105.83,45.84h-7V52.1H97.25V38.26h1.54v6.2h7v-6.2h1.52V52.1h-1.52Z"/>
                <path d="M109.31,38.26h10v1.38h-4.22V52.1h-1.52V39.64h-4.26Z"/>
                <path d="M129,39.74s-2.78-.34-3.94-.34c-2,0-3,.7-3,2.26,0,1.8,1,2.1,3.38,2.64,2.76.62,4,1.3,4,3.72,0,3.06-1.68,4.26-4.42,4.26a36.39,36.39,0,0,1-4.38-.44l.16-1.28s2.72.36,4.14.36c2,0,3-.86,3-2.78,0-1.56-.82-2-3.08-2.44-2.86-.62-4.3-1.3-4.3-3.94S122.29,38,125,38a34.46,34.46,0,0,1,4.18.4Z"/>
                <rect x="455.99" y="86.31" width="42.82" height="42.82" fill="#bddff4"/>
                <rect x="455.99" y="163.06" width="42.82" height="42.82" fill="#bddff4"/>
                <rect x="520.04" y="86.31" width="42.82" height="42.82" fill="#48b1ff"/>
                <rect x="520.04" y="163.06" width="42.82" height="42.82" fill="#48b1ff"/>
                <rect x="583.23" y="86.31" width="42.82" height="42.82" fill="#48b1ff"/>
                <rect x="583.23" y="163.06" width="42.82" height="42.82" fill="#48b1ff"/>
                <rect x="645.01" y="86.31" width="42.82" height="42.82" fill="#bddff4"/>
                <rect x="645.01" y="163.06" width="42.82" height="42.82" fill="#bddff4"/>
                <path d="M467,114.44v-1.27l3.77-4c1.61-1.66,2.6-2.71,2.6-4.24,0-1.72-.95-2.27-2.81-2.27a18.68,18.68,0,0,0-3.34.43l-.12-1.25a15.88,15.88,0,0,1,3.73-.52c2.72,0,4.09,1,4.09,3.45,0,1.94-.88,3.07-2.7,4.83l-3.44,3.5h6.47v1.31Z" fill="#1a2433"/>
                <path d="M478,114.44v-1.27l3.77-4c1.61-1.66,2.6-2.71,2.6-4.24,0-1.72-1-2.27-2.81-2.27a18.68,18.68,0,0,0-3.34.43l-.12-1.25a15.88,15.88,0,0,1,3.73-.52c2.72,0,4.09,1,4.09,3.45,0,1.94-.88,3.07-2.7,4.83l-3.44,3.5h6.47v1.31Z" fill="#1a2433"/>
                <path d="M471.55,178.33H473v12.9h-1.5V180l-3.32,2.19-.69-1.13Z" fill="#1a273a"/>
                <path d="M477.65,191.23V190l3.77-4c1.6-1.66,2.6-2.71,2.6-4.24,0-1.72-1-2.27-2.81-2.27a18.86,18.86,0,0,0-3.35.43l-.11-1.25a15.77,15.77,0,0,1,3.73-.52c2.72,0,4.08,1,4.08,3.46,0,1.93-.87,3.06-2.69,4.82l-3.44,3.5h6.47v1.31Z" fill="#1a273a"/>
                <path d="M539.32,179.7a29.22,29.22,0,0,0-3.4-.24c-2.25,0-3.48,1.61-3.48,4.46a11,11,0,0,1,3.23-.76c2.85,0,4.33,1.29,4.33,4s-1.64,4.26-4.51,4.26c-3.21,0-4.61-2.52-4.61-6.71,0-4.67,2-6.58,5-6.58a24.43,24.43,0,0,1,3.54.33Zm-6.9,5.55c0,2.76.84,4.85,3.07,4.85a2.64,2.64,0,0,0,3-2.93c0-1.8-1.07-2.66-2.87-2.66A9,9,0,0,0,532.42,185.25Z"/>
                <path d="M550.27,179.7a29.22,29.22,0,0,0-3.4-.24c-2.25,0-3.48,1.61-3.48,4.46a11,11,0,0,1,3.23-.76c2.85,0,4.34,1.29,4.34,4s-1.65,4.26-4.52,4.26c-3.21,0-4.61-2.52-4.61-6.71,0-4.67,2-6.58,5-6.58a24.43,24.43,0,0,1,3.54.33Zm-6.9,5.55c0,2.76.84,4.85,3.07,4.85a2.64,2.64,0,0,0,2.95-2.93c0-1.8-1.07-2.66-2.87-2.66A9,9,0,0,0,543.37,185.25Z"/>
                <path d="M600.58,188.71h-6.26v-1.17l3.68-9.21h1.64l-3.74,9h4.68v-4h1.5v4h1.64v1.33h-1.64v2.52h-1.5Z"/>
                <path d="M614.59,181.48c0,1.66-.64,2.34-2.15,3,1.39.62,2.35,1.39,2.35,3.24,0,2.84-2.19,3.7-4.87,3.7s-4.81-.8-4.81-3.48a3.44,3.44,0,0,1,2.23-3.46,3,3,0,0,1-2-3c0-2.23,1.78-3.34,4.59-3.34S614.59,179.21,614.59,181.48Zm-1.4,6.1c0-1.51-1-2-2.29-2.37h-2c-1.35.37-2.13,1-2.13,2.48,0,1.78,1.36,2.37,3.2,2.37S613.19,189.47,613.19,187.58Zm-6.26-6c0,1.2.65,1.82,1.92,2.27h2c1.33-.43,2.09-1.05,2.09-2.25,0-1.54-1.15-2.17-3-2.17S606.93,180.09,606.93,181.63Z"/>
                <path d="M666.37,181.48c0,1.66-.64,2.34-2.15,3,1.39.62,2.35,1.39,2.35,3.24,0,2.84-2.19,3.7-4.87,3.7s-4.81-.8-4.81-3.48a3.44,3.44,0,0,1,2.23-3.46,3,3,0,0,1-2-3c0-2.23,1.77-3.34,4.59-3.34S666.37,179.21,666.37,181.48Zm-1.41,6.1c0-1.51-1-2-2.28-2.37h-2.06c-1.35.37-2.13,1-2.13,2.48,0,1.78,1.37,2.37,3.21,2.37S665,189.47,665,187.58Zm-6.25-6c0,1.2.64,1.82,1.91,2.27h2.06c1.32-.43,2.09-1.05,2.09-2.25,0-1.54-1.16-2.17-3-2.17S658.71,180.09,658.71,181.63Z" fill="#1a273a"/>
                <path d="M668.72,178.33h8v2l-5,11.12-1.43-.45,4.87-10.77v-.51h-6.49Z" fill="#1a273a"/>
                <path d="M531.42,101.87a15.29,15.29,0,0,1,3.79-.54c3,0,4.12,1.07,4.12,3.36a3.23,3.23,0,0,1-1.91,2.93,2.81,2.81,0,0,1,2.23,3.13c0,2.6-1.27,3.89-4.19,3.89a21.21,21.21,0,0,1-4.24-.53l.14-1.23a23.32,23.32,0,0,0,3.95.43c1.91,0,2.79-.84,2.79-2.5s-1.19-2.37-2.66-2.43h-2.6v-1.29h2.6a2.42,2.42,0,0,0,2.35-2.34c0-1.47-.72-2.08-2.64-2.08a19.31,19.31,0,0,0-3.6.4Z" fill="#1a273a"/>
                <path d="M548,111.92h-6.26v-1.17l3.68-9.21h1.64l-3.73,9H548v-4h1.5v4h1.64v1.33H549.5v2.52H548Z" fill="#1a273a"/>
                <path d="M594.21,101.87a15.29,15.29,0,0,1,3.79-.54c3,0,4.13,1.07,4.13,3.36a3.23,3.23,0,0,1-1.92,2.93,2.81,2.81,0,0,1,2.23,3.13c0,2.6-1.27,3.89-4.18,3.89a21.21,21.21,0,0,1-4.24-.53l.13-1.23a23.32,23.32,0,0,0,4,.43c1.92,0,2.8-.84,2.8-2.5s-1.19-2.37-2.66-2.43h-2.6v-1.29h2.6a2.41,2.41,0,0,0,2.34-2.34c0-1.47-.72-2.08-2.63-2.08a19.31,19.31,0,0,0-3.6.4Z" fill="#1a2433"/>
                <path d="M613.08,101.54v1.37H606.8l-.35,4.2a7.49,7.49,0,0,1,3-.8c2.52,0,4.11,1.06,4.11,3.81,0,3-1.63,4.5-4.32,4.5a21.07,21.07,0,0,1-4.28-.57l.17-1.19a25.78,25.78,0,0,0,4,.43,2.72,2.72,0,0,0,2.91-3.05c0-2-1.09-2.58-2.73-2.58a7.38,7.38,0,0,0-3.07.78l-1-.19.35-6.71Z" fill="#1a2433"/>
                <path d="M662.61,111.92h-6.25v-1.17l3.67-9.21h1.65l-3.74,9h4.67v-4h1.51v4h1.64v1.33h-1.64v2.52h-1.51Z" fill="#1a273a"/>
                <path d="M675.85,101.54v1.37h-6.27l-.36,4.2a7.49,7.49,0,0,1,3-.8c2.53,0,4.11,1.06,4.11,3.81,0,3-1.62,4.5-4.32,4.5a21.21,21.21,0,0,1-4.28-.57l.17-1.19a25.78,25.78,0,0,0,4,.43,2.73,2.73,0,0,0,2.92-3.05c0-2-1.1-2.58-2.74-2.58a7.44,7.44,0,0,0-3.07.78l-1-.19.36-6.71Z" fill="#1a273a"/>
                <circle cx="853.86" cy="102.39" r="20.9" fill="#bddff4"/>
                <circle cx="913.13" cy="102.39" r="20.9" fill="#bddff4"/>
                <circle cx="971.61" cy="102.39" r="20.9" fill="#bddff4"/>
                <circle cx="1028.51" cy="102.39" r="20.9" fill="#bddff4"/>
                <path d="M136.28,77.9h9.07v2h-6.74V84h5.48v2h-5.48v4.2h6.74v2.06h-9.07Z"/>
                <path d="M153.18,92.28h-2.35V86.36l-4.51-8.46h2.62l3,6.17,3.07-6.17h2.6l-4.47,8.46Z"/>
                <path d="M164,89.8h-6.24V88l3.65-9.6H164l-3.87,9.35H164V83.69h2.35v4.08h1.51v2h-1.51v2.48H164Z"/>
                <path d="M175.78,89.8h-6.24V88l3.65-9.6h2.59l-3.87,9.35h3.87V83.69h2.35v4.08h1.51v2h-1.51v2.48h-2.35Z"/>
                <path d="M143.13,104.16s-2.5-.31-3.54-.31c-1.77,0-2.7.63-2.7,2,0,1.62.86,1.89,3,2.37,2.48.56,3.58,1.17,3.58,3.35,0,2.76-1.51,3.84-4,3.84a32.54,32.54,0,0,1-3.94-.4l.14-1.15s2.45.32,3.73.32c1.77,0,2.67-.77,2.67-2.5,0-1.4-.74-1.8-2.78-2.2-2.57-.56-3.87-1.17-3.87-3.54s1.59-3.35,4-3.35a31.11,31.11,0,0,1,3.76.36Z" fill="#3a3d3f"/>
                <path d="M147.47,107.45v4.31c0,2,.13,2.52,1.3,2.52.5,0,1.6-.11,1.6-.11l.09,1.12a16.5,16.5,0,0,1-1.84.19c-1.85,0-2.48-.7-2.48-3.29v-4.74h-1.28v-1.17h1.28v-2.75h1.33v2.75h2.86v1.17Z" fill="#3a3d3f"/>
                <path d="M159.3,110.68c0,3.27-.81,4.78-3.85,4.78s-3.86-1.51-3.86-4.78c0-3.1,1-4.58,3.86-4.58S159.3,107.58,159.3,110.68Zm-1.39,0c0-2.51-.54-3.41-2.46-3.41s-2.47.9-2.47,3.41.34,3.61,2.47,3.61S157.91,113.23,157.91,110.68Z" fill="#3a3d3f"/>
                <path d="M167.31,106.37l-.06,1.1s-1.44-.16-2.12-.16c-2.07,0-2.63.9-2.63,3.31,0,2.67.42,3.64,2.65,3.64.68,0,2.12-.16,2.12-.16l.06,1.11a24.24,24.24,0,0,1-2.51.25c-2.86,0-3.71-1.31-3.71-4.84,0-3.26,1.07-4.52,3.75-4.52A20.89,20.89,0,0,1,167.31,106.37Z" fill="#3a3d3f"/>
                <path d="M169.34,115.29V102.36h1.35V110l1.4-.07,2.58-3.64h1.53l-2.93,4.14,3.06,4.87H174.8l-2.69-4.18-1.42,0v4.13Z" fill="#3a3d3f"/>
                <path d="M178,115.29V102.36h1.35v4.43a7.57,7.57,0,0,1,2.78-.69c2.46,0,3,1.23,3,4.43v4.76h-1.35v-4.72c0-2.38-.27-3.26-1.93-3.26a7.41,7.41,0,0,0-2.54.54v7.44Z" fill="#3a3d3f"/>
                <path d="M194.94,110.68c0,3.27-.81,4.78-3.86,4.78s-3.85-1.51-3.85-4.78c0-3.1,1-4.58,3.85-4.58S194.94,107.58,194.94,110.68Zm-1.39,0c0-2.51-.54-3.41-2.47-3.41s-2.46.9-2.46,3.41.34,3.61,2.46,3.61S193.55,113.23,193.55,110.68Z" fill="#3a3d3f"/>
                <path d="M197.24,102.36h1.35v12.93h-1.35Z" fill="#3a3d3f"/>
                <path d="M201.29,115.29v-9h1.33v.63a6,6,0,0,1,2.63-.81,2.53,2.53,0,0,1,2.34.92,7.53,7.53,0,0,1,3.21-.92c2.45,0,3,1.17,3,4.43v4.76h-1.35v-4.72c0-2.38-.27-3.26-1.89-3.26a6,6,0,0,0-2.54.66,10.4,10.4,0,0,1,.23,2.63v4.69h-1.35v-4.65c0-2.48-.25-3.33-1.89-3.33a5.45,5.45,0,0,0-2.41.66v7.32Z" fill="#3a3d3f"/>
                <path d="M220.23,109.7h5.45V111h-5.45Z" fill="#3a3d3f"/>
                <path d="M232.38,102.83h1.38v12.46h-1.38Z" fill="#3a3d3f"/>
                <path d="M242.55,107.6a29.33,29.33,0,0,0-3.15-.29c-1.12,0-2,.31-2,1.37,0,.84.44,1.08,2.34,1.4,2.26.38,3.1.83,3.1,2.58,0,2.1-1.33,2.8-3.49,2.8a25.65,25.65,0,0,1-3.17-.34l.07-1.17a29.5,29.5,0,0,0,3,.31c1.48,0,2.27-.33,2.27-1.55,0-.94-.47-1.17-2.43-1.48s-3-.7-3-2.5c0-2,1.61-2.63,3.24-2.63a23.19,23.19,0,0,1,3.26.34Z" fill="#3a3d3f"/>
                <path d="M246.74,107.45v4.31c0,2,.13,2.52,1.3,2.52.5,0,1.6-.11,1.6-.11l.09,1.12a16.5,16.5,0,0,1-1.84.19c-1.85,0-2.48-.7-2.48-3.29v-4.74h-1.28v-1.17h1.28v-2.75h1.33v2.75h2.86v1.17Z" fill="#3a3d3f"/>
                <path d="M257.61,113.61c0,.52.47.72,1.05.79l-.06,1.06a2.75,2.75,0,0,1-2.14-.71,9.31,9.31,0,0,1-3.24.71c-1.64,0-2.54-.93-2.54-2.75s.9-2.48,2.76-2.67l2.82-.26V109c0-1.26-.54-1.71-1.62-1.71-1.26,0-3.4.24-3.4.24l-.05-1a21.6,21.6,0,0,1,3.53-.4c2,0,2.89.94,2.89,2.9Zm-4-2.56c-1.1.11-1.53.63-1.53,1.62s.45,1.66,1.37,1.66a9.47,9.47,0,0,0,2.82-.56v-3Z" fill="#3a3d3f"/>
                <path d="M260.28,115.29v-9h1.33v.63a6.85,6.85,0,0,1,2.79-.81c2.48,0,3,1.23,3,4.43v4.76h-1.33v-4.72c0-2.38-.27-3.26-1.94-3.26a6.19,6.19,0,0,0-2.54.66v7.32Z" fill="#3a3d3f"/>
                <path d="M277.2,110.64c0,3.58-1,4.82-4.25,4.82-1.08,0-3-.19-3-.19V102.36h1.33v4.37a7.44,7.44,0,0,1,2.65-.63C276.37,106.1,277.2,107.4,277.2,110.64Zm-1.37,0c0-2.32-.47-3.33-2.05-3.33a7.59,7.59,0,0,0-2.51.52v6.34s1.17.09,1.66.09C275.4,114.26,275.83,113.16,275.83,110.64Z" fill="#3a3d3f"/>
                <path d="M286.38,106.28v9H285v-.64a6.08,6.08,0,0,1-2.67.81c-2.52,0-3-1.17-3-4.48v-4.7h1.35V111c0,2.49.22,3.3,1.89,3.3a5.47,5.47,0,0,0,2.47-.67v-7.31Z" fill="#3a3d3f"/>
                <path d="M289.08,102.36h1.35v12.93h-1.35Z" fill="#3a3d3f"/>
                <path d="M138.59,170.08h4.64l3.57,14.39h-2.36l-.77-3.09h-5.52l-.78,3.09H135Zm0,9.24h4.6L141.44,172h-1.05Z"/>
                <path d="M154.32,170.08c2.85,0,4.38,1.08,4.38,3.74,0,1.74-.54,2.61-1.7,3.23a3.12,3.12,0,0,1,2.06,3.34c0,2.94-1.78,4.08-4.58,4.08h-5.62V170.08Zm-3.13,2v4.11h3.08c1.43,0,2.06-.71,2.06-2.12s-.71-2-2.14-2Zm0,6.09v4.26h3.17c1.45,0,2.31-.46,2.31-2.18s-1.22-2.08-2.35-2.08Z"/>
                <path d="M170.21,170.61v2.06h-6.42l-.36,3.65a7.9,7.9,0,0,1,2.81-.65c2.77,0,4.45,1.2,4.45,4.16,0,3.15-1.72,4.87-4.7,4.87a21.73,21.73,0,0,1-4.77-.72l.26-1.76a31.39,31.39,0,0,0,4.24.42,2.34,2.34,0,0,0,2.56-2.58c0-1.72-.86-2.33-2.35-2.33a8.32,8.32,0,0,0-2.92.56l-1.47-.31.38-7.37Z"/>
                <path d="M173.22,182.37a31.64,31.64,0,0,0,3.8.29c2.16,0,3.21-1.41,3.23-4a12,12,0,0,1-3.07.71c-3,0-4.66-1.38-4.66-4.34s1.91-4.62,5-4.62c3.59,0,5.18,2.73,5.18,7.14,0,5.44-2.16,7.18-5.64,7.18a22,22,0,0,1-4-.51Zm7.05-5.69c0-2.42-.73-4.26-2.79-4.26a2.36,2.36,0,0,0-2.54,2.58c0,1.57.88,2.29,2.43,2.29A10.05,10.05,0,0,0,180.27,176.68Z"/>
                <path d="M143.13,195.76s-2.5-.31-3.54-.31c-1.77,0-2.7.63-2.7,2,0,1.62.86,1.89,3,2.38,2.48.55,3.58,1.17,3.58,3.34,0,2.76-1.51,3.84-4,3.84a32.54,32.54,0,0,1-3.94-.4l.14-1.15s2.45.32,3.73.32c1.77,0,2.67-.77,2.67-2.5,0-1.4-.74-1.8-2.78-2.19-2.57-.56-3.87-1.17-3.87-3.55s1.59-3.35,4-3.35a31.11,31.11,0,0,1,3.76.36Z" fill="#3a3d3f"/>
                <path d="M147.47,199.05v4.31c0,2,.13,2.52,1.3,2.52.5,0,1.6-.11,1.6-.11l.09,1.12a16.5,16.5,0,0,1-1.84.19c-1.85,0-2.48-.7-2.48-3.29v-4.74h-1.28v-1.17h1.28v-2.75h1.33v2.75h2.86v1.17Z" fill="#3a3d3f"/>
                <path d="M159.3,202.28c0,3.27-.81,4.79-3.85,4.79s-3.86-1.52-3.86-4.79c0-3.1,1-4.58,3.86-4.58S159.3,199.18,159.3,202.28Zm-1.39,0c0-2.51-.54-3.4-2.46-3.4s-2.47.89-2.47,3.4.34,3.62,2.47,3.62S157.91,204.83,157.91,202.28Z" fill="#3a3d3f"/>
                <path d="M167.31,198l-.06,1.1s-1.44-.16-2.12-.16c-2.07,0-2.63.9-2.63,3.31,0,2.67.42,3.64,2.65,3.64.68,0,2.12-.16,2.12-.16l.06,1.11a23.34,23.34,0,0,1-2.51.26c-2.86,0-3.71-1.32-3.71-4.85,0-3.26,1.07-4.52,3.75-4.52A20.89,20.89,0,0,1,167.31,198Z" fill="#3a3d3f"/>
                <path d="M169.34,206.89V194h1.35v7.63l1.4-.07,2.58-3.64h1.53L173.27,202l3.06,4.86H174.8l-2.69-4.18-1.42,0v4.13Z" fill="#3a3d3f"/>
                <path d="M178,206.89V194h1.35v4.43a7.57,7.57,0,0,1,2.78-.69c2.46,0,3,1.23,3,4.43v4.76h-1.35v-4.72c0-2.38-.27-3.26-1.93-3.26a7.41,7.41,0,0,0-2.54.54v7.44Z" fill="#3a3d3f"/>
                <path d="M194.94,202.28c0,3.27-.81,4.79-3.86,4.79s-3.85-1.52-3.85-4.79c0-3.1,1-4.58,3.85-4.58S194.94,199.18,194.94,202.28Zm-1.39,0c0-2.51-.54-3.4-2.47-3.4s-2.46.89-2.46,3.4.34,3.62,2.46,3.62S193.55,204.83,193.55,202.28Z" fill="#3a3d3f"/>
                <path d="M197.24,194h1.35v12.93h-1.35Z" fill="#3a3d3f"/>
                <path d="M201.29,206.89v-9h1.33v.63a6,6,0,0,1,2.63-.81,2.53,2.53,0,0,1,2.34.92,7.53,7.53,0,0,1,3.21-.92c2.45,0,3,1.18,3,4.43v4.76h-1.35v-4.72c0-2.38-.27-3.26-1.89-3.26a6,6,0,0,0-2.54.67,10.34,10.34,0,0,1,.23,2.63v4.68h-1.35v-4.65c0-2.48-.25-3.33-1.89-3.33a5.39,5.39,0,0,0-2.41.67v7.31Z" fill="#3a3d3f"/>
                <path d="M220.23,201.3h5.45v1.27h-5.45Z" fill="#3a3d3f"/>
                <path d="M232.38,206.89V194.43h1.38v11.21h5.48v1.25Z" fill="#3a3d3f"/>
                <path d="M240.76,194.28h1.35v1.57h-1.35Zm0,3.6h1.35v9h-1.35Z" fill="#3a3d3f"/>
                <path d="M250.68,199.2a29.33,29.33,0,0,0-3.15-.29c-1.11,0-2,.31-2,1.37,0,.85.43,1.08,2.34,1.4,2.25.38,3.1.83,3.1,2.58,0,2.11-1.34,2.81-3.5,2.81a24.71,24.71,0,0,1-3.16-.35l.07-1.17a29.5,29.5,0,0,0,3,.31c1.48,0,2.27-.32,2.27-1.55,0-.93-.47-1.17-2.43-1.47s-3-.71-3-2.51c0-2,1.6-2.63,3.24-2.63a22.55,22.55,0,0,1,3.26.35Z" fill="#3a3d3f"/>
                <path d="M260.33,202.24c0,3.58-1,4.83-4.25,4.83-1.08,0-3-.2-3-.2V194h1.33v4.37a7.43,7.43,0,0,1,2.64-.63C259.5,197.7,260.33,199,260.33,202.24Zm-1.37,0c0-2.32-.46-3.33-2-3.33a7.57,7.57,0,0,0-2.5.52v6.34s1.17.09,1.65.09C258.53,205.86,259,204.76,259,202.24Z" fill="#3a3d3f"/>
                <path d="M269.85,202.28c0,3.27-.81,4.79-3.85,4.79s-3.85-1.52-3.85-4.79c0-3.1,1-4.58,3.85-4.58S269.85,199.18,269.85,202.28Zm-1.38,0c0-2.51-.54-3.4-2.47-3.4s-2.47.89-2.47,3.4.35,3.62,2.47,3.62S268.47,204.83,268.47,202.28Z" fill="#3a3d3f"/>
                <path d="M272.05,206.89v-9h1.33v.63a6.85,6.85,0,0,1,2.79-.81c2.49,0,3,1.23,3,4.43v4.76h-1.33v-4.72c0-2.38-.27-3.26-1.94-3.26a6.12,6.12,0,0,0-2.54.67v7.31Z" fill="#3a3d3f"/>
                <path d="M140.33,126.25h1.29v11.88h-1.38V127.8l-3.07,2-.63-1Z" fill="#3a3d3f"/>
                <path d="M146.08,126.25h7.39v1.82l-4.58,10.24-1.31-.41,4.48-9.92v-.47h-6Z" fill="#3a3d3f"/>
                <path d="M156,130.28h1.48v2.05H156Zm0,5.8h1.48v2H156Z" fill="#3a3d3f"/>
                <path d="M160,126.55a14,14,0,0,1,3.49-.5c2.81,0,3.8,1,3.8,3.1a3,3,0,0,1-1.76,2.7,2.58,2.58,0,0,1,2.05,2.88c0,2.39-1.17,3.58-3.85,3.58a19.92,19.92,0,0,1-3.91-.48l.13-1.14a21.2,21.2,0,0,0,3.63.4c1.77,0,2.58-.78,2.58-2.31s-1.1-2.18-2.45-2.23h-2.4v-1.19h2.4a2.23,2.23,0,0,0,2.16-2.16c0-1.35-.67-1.91-2.43-1.91a18.07,18.07,0,0,0-3.31.36Z" fill="#3a3d3f"/>
                <path d="M178.13,132.37c0,4.56-1.6,5.94-4.32,5.94s-4.34-1.35-4.34-5.92c0-4.9,1.58-6.34,4.32-6.34S178.13,127.47,178.13,132.37Zm-7.22,0c0,3.73,1,4.7,2.9,4.7s2.9-1,2.9-4.72c0-4-.92-5.08-2.9-5.08S170.91,128.34,170.91,132.39Z" fill="#3a3d3f"/>
                <path d="M140.33,217h1.29v11.89h-1.38V218.55l-3.07,2-.63-1Z" fill="#3a3d3f"/>
                <path d="M154,219.9c0,1.53-.6,2.16-2,2.77a3,3,0,0,1,2.16,3c0,2.61-2,3.41-4.49,3.41s-4.43-.74-4.43-3.21a3.18,3.18,0,0,1,2.06-3.19,2.75,2.75,0,0,1-1.86-2.79c0-2,1.64-3.08,4.23-3.08S154,217.81,154,219.9Zm-1.3,5.62c0-1.39-.92-1.84-2.11-2.18h-1.89c-1.24.34-2,.95-2,2.29,0,1.64,1.26,2.18,2.95,2.18S152.71,227.27,152.71,225.52ZM147,220.05c0,1.09.59,1.67,1.76,2.08h1.89c1.23-.39,1.93-1,1.93-2.07,0-1.42-1.06-2-2.81-2S147,218.62,147,220.05Z" fill="#3a3d3f"/>
                <path d="M156,221h1.48v2.05H156Zm0,5.79h1.48v2.06H156Z" fill="#3a3d3f"/>
                <path d="M160,217.31a13.71,13.71,0,0,1,3.49-.51c2.81,0,3.8,1,3.8,3.1a3,3,0,0,1-1.76,2.7,2.59,2.59,0,0,1,2.05,2.88c0,2.4-1.17,3.59-3.85,3.59a19.41,19.41,0,0,1-3.91-.49l.13-1.13a21.72,21.72,0,0,0,3.63.39c1.77,0,2.58-.77,2.58-2.3s-1.1-2.18-2.45-2.24h-2.4v-1.18h2.4a2.24,2.24,0,0,0,2.16-2.16c0-1.35-.67-1.91-2.43-1.91a18.07,18.07,0,0,0-3.31.36Z" fill="#3a3d3f"/>
                <path d="M178.13,223.13c0,4.55-1.61,5.94-4.32,5.94s-4.34-1.35-4.34-5.93c0-4.89,1.58-6.34,4.32-6.34S178.13,218.23,178.13,223.13Zm-7.22,0c0,3.73,1,4.7,2.9,4.7s2.89-1,2.89-4.71c0-4-.91-5.08-2.89-5.08S170.91,219.09,170.91,223.14Z" fill="#3a3d3f"/>
                <path d="M849.53,95.61a18.62,18.62,0,0,1,4.66-.67c3.74,0,5.06,1.32,5.06,4.13a4,4,0,0,1-2.35,3.6c1.61.58,2.74,1.27,2.74,3.84,0,3.19-1.56,4.78-5.14,4.78a26,26,0,0,1-5.21-.65l.17-1.51a29,29,0,0,0,4.85.52c2.35,0,3.43-1,3.43-3.07s-1.46-2.9-3.26-3h-3.2V102h3.2a3,3,0,0,0,2.88-2.88c0-1.8-.89-2.54-3.24-2.54a24.17,24.17,0,0,0-4.42.48Z"/>
                <path d="M917.88,95.21v1.67h-7.7l-.44,5.16a9.18,9.18,0,0,1,3.72-1c3.1,0,5,1.3,5,4.68,0,3.65-2,5.52-5.3,5.52a26.45,26.45,0,0,1-5.26-.69l.22-1.47a31.48,31.48,0,0,0,4.87.53c2.19,0,3.58-1.3,3.58-3.74s-1.35-3.17-3.36-3.17a9.09,9.09,0,0,0-3.77,1l-1.27-.24.43-8.23Z"/>
                <path d="M975.84,96.88a37.72,37.72,0,0,0-4.18-.28c-2.76,0-4.27,2-4.27,5.47a13.21,13.21,0,0,1,4-.94c3.5,0,5.33,1.59,5.33,4.92s-2,5.24-5.55,5.24c-3.93,0-5.66-3.1-5.66-8.24,0-5.73,2.42-8.09,6.19-8.09a29.4,29.4,0,0,1,4.34.41Zm-8.48,6.82c0,3.39,1,6,3.77,6,2.35,0,3.63-1.27,3.63-3.6s-1.32-3.26-3.53-3.26A11.11,11.11,0,0,0,967.36,103.7Z"/>
                <path d="M1024.28,109.37a37.72,37.72,0,0,0,4.18.28c2.9,0,4.34-1.77,4.37-5.52a14.63,14.63,0,0,1-4.13.92c-3.32,0-5.19-1.49-5.19-4.83S1025.67,95,1029,95c4,0,5.74,3.17,5.74,8.21,0,6.15-2.38,8.12-6.29,8.12a27.67,27.67,0,0,1-4.35-.44Zm8.57-6.82c0-3.46-1.06-6-3.84-6a3.33,3.33,0,0,0-3.58,3.62c0,2.23,1.2,3.19,3.41,3.19A14.77,14.77,0,0,0,1032.85,102.55Z"/>
            </g>
            <g id="Layer_2-2" data-name="Layer 2">
                <path d="M64.19,192.74H96.74v3.43H64.19Zm33.52-16a2.55,2.55,0,0,0-3.15-1.81l-9.09,2.43-11.83-11-3.3.87,7.09,12.28-8.51,2.28-3.38-2.64-2.48.67,3.12,5.41,1.31,2.28,2.75-.73,9.09-2.44,7.45-2,9.1-2.44A2.6,2.6,0,0,0,97.71,176.7Z" fill="#f22020"/>
                <path d="M64.19,103.71H96.74v3.43H64.19Zm33.52-16a2.55,2.55,0,0,0-3.15-1.81l-9.09,2.43-11.83-11-3.3.88,7.09,12.28-8.51,2.28-3.38-2.64-2.48.67,3.12,5.41,1.31,2.28,2.75-.73,9.09-2.44,7.45-2,9.1-2.44A2.6,2.6,0,0,0,97.71,87.67Z" fill="#f22020"/>
            </g>
        </g>
    </g>
</svg>