<svg xmlns="http://www.w3.org/2000/svg" viewBox="0 0 633.46 605.15"><title>CentralFrame_noGraph_3</title><g id="Layer_2" data-name="Layer 2"><g id="White_Bg_Tablet"><rect x="1.46" y="0.5" width="631.5" height="604.65" fill="#fff"/></g><g id="Layer_1-2" data-name="Layer 1"><line x1="127.92" y1="1.22" x2="127.92" y2="542.22" fill="none" stroke="#e2e2e2" stroke-miterlimit="10"/><line x1="254.34" y1="1.22" x2="254.34" y2="542.22" fill="none" stroke="#e2e2e2" stroke-miterlimit="10"/><line x1="380.6" y1="1.22" x2="380.6" y2="542.22" fill="none" stroke="#e2e2e2" stroke-miterlimit="10"/><line x1="507.46" y1="0.5" x2="507.46" y2="543" fill="none" stroke="#e2e2e2" stroke-miterlimit="10"/><rect x="0.5" y="0.5" width="632.46" height="542" fill="none" stroke="#e2e2e2" stroke-miterlimit="10"/><path d="M234.22,558.09H235V572h-.75v-13l-3.93,2.64-.35-.6Z" fill="#333"/><path d="M249.8,561.34c0,1.87-1,2.75-2.86,3.3,1.75.5,3.07,1.39,3.07,3.55,0,3.13-2.33,3.95-5.19,3.95-2.71,0-5.12-.88-5.12-3.72,0-2.33,1.2-3.11,2.83-3.78-1.61-.57-2.6-1.43-2.6-3.32,0-2.39,1.87-3.44,4.89-3.44S249.8,558.91,249.8,561.34Zm-.59,6.87c0-2.25-1.51-2.75-3.27-3.19h-2.46c-1.83.44-3,1.26-3,3.38,0,2.33,2,3,4.3,3C247.3,571.42,249.21,570.75,249.21,568.21Zm-8.48-6.87c0,1.71.92,2.48,2.75,3h2.46c1.93-.47,3-1.26,3-3,0-2.06-1.59-2.78-4.16-2.78S240.73,559.27,240.73,561.34Z" fill="#333"/><path d="M252.32,563.05h.84v1.67h-.84Zm0,7.22h.84V572h-.84Z" fill="#333"/><path d="M265.47,565.31c0,5.36-1.85,6.83-4.83,6.83s-4.85-1.41-4.85-6.81c0-6,1.8-7.45,4.83-7.45S265.47,559.31,265.47,565.31Zm-8.89,0c0,5,1.54,6.07,4.06,6.07s4-1.13,4-6.11c0-5.37-1.32-6.72-4.05-6.72S256.58,559.87,256.58,565.35Z" fill="#333"/><path d="M277.23,565.31c0,5.36-1.85,6.83-4.83,6.83s-4.85-1.41-4.85-6.81c0-6,1.8-7.45,4.83-7.45S277.23,559.31,277.23,565.31Zm-8.89,0c0,5,1.54,6.07,4.06,6.07s4-1.13,4-6.11c0-5.37-1.32-6.72-4.05-6.72S268.34,559.87,268.34,565.35Z" fill="#333"/><path d="M107,558.09h.76V572H107v-13l-3.92,2.64-.36-.6Z" fill="#333"/><path d="M113.55,558.09H122v1.36l-5.63,12.69-.74-.3,5.57-12.55v-.49h-7.65Z" fill="#333"/><path d="M125.15,563.05H126v1.67h-.84Zm0,7.22H126V572h-.84Z" fill="#333"/><path d="M138.29,565.31c0,5.36-1.85,6.83-4.83,6.83s-4.85-1.41-4.85-6.81c0-6,1.81-7.45,4.83-7.45S138.29,559.31,138.29,565.31Zm-8.88,0c0,5,1.53,6.07,4.05,6.07s4-1.13,4-6.11c0-5.37-1.32-6.72-4.05-6.72S129.41,559.87,129.41,565.35Z" fill="#333"/><path d="M150.05,565.31c0,5.36-1.85,6.83-4.83,6.83s-4.85-1.41-4.85-6.81c0-6,1.81-7.45,4.83-7.45S150.05,559.31,150.05,565.31Zm-8.88,0c0,5,1.53,6.07,4.05,6.07s4-1.13,4-6.11c0-5.37-1.32-6.72-4.05-6.72S141.17,559.87,141.17,565.35Z" fill="#333"/><path d="M360.07,558.09h.76V572h-.76v-13l-3.92,2.64-.36-.6Z" fill="#333"/><path d="M366.54,571.21a33.1,33.1,0,0,0,3.49.21c2.94,0,4.45-1.72,4.49-5.77a14.52,14.52,0,0,1-4.24.92c-2.85,0-4.39-1.24-4.39-4.09a4.32,4.32,0,0,1,4.62-4.58c3.38,0,4.81,2.84,4.81,7.24,0,5.3-1.95,7-5.29,7a32.62,32.62,0,0,1-3.57-.23Zm8-6.3c-.08-3.73-1.15-6.3-4-6.3a3.59,3.59,0,0,0-3.82,3.87c0,2.39,1.24,3.38,3.63,3.38A15.84,15.84,0,0,0,374.54,564.91Z" fill="#333"/><path d="M378.18,563.05H379v1.67h-.84Zm0,7.22H379V572h-.84Z" fill="#333"/><path d="M391.32,565.31c0,5.36-1.85,6.83-4.83,6.83s-4.85-1.41-4.85-6.81c0-6,1.81-7.45,4.83-7.45S391.32,559.31,391.32,565.31Zm-8.88,0c0,5,1.53,6.07,4.05,6.07s4-1.13,4-6.11c0-5.37-1.32-6.72-4-6.72S382.44,559.87,382.44,565.35Z" fill="#333"/><path d="M403.08,565.31c0,5.36-1.85,6.83-4.83,6.83s-4.85-1.41-4.85-6.81c0-6,1.81-7.45,4.83-7.45S403.08,559.31,403.08,565.31Zm-8.88,0c0,5,1.53,6.07,4.05,6.07s4-1.13,4-6.11c0-5.37-1.32-6.72-4-6.72S394.2,559.87,394.2,565.35Z" fill="#333"/><path d="M483.14,572v-.65l4.77-5.08c1.68-1.77,2.77-2.94,2.77-4.77,0-2.12-1.26-2.84-3.53-2.84a19.27,19.27,0,0,0-3.78.55l-.1-.71a16.49,16.49,0,0,1,3.9-.55c2.76,0,4.31.93,4.31,3.55,0,2-1.05,3.25-2.75,5l-4.56,4.81h7.75V572Z" fill="#333"/><path d="M504.1,565.31c0,5.36-1.85,6.83-4.83,6.83s-4.85-1.41-4.85-6.81c0-6,1.81-7.45,4.83-7.45S504.1,559.31,504.1,565.31Zm-8.88,0c0,5,1.53,6.07,4,6.07s4-1.13,4-6.11c0-5.37-1.32-6.72-4.05-6.72S495.22,559.87,495.22,565.35Z" fill="#333"/><path d="M506.73,563.05h.84v1.67h-.84Zm0,7.22h.84V572h-.84Z" fill="#333"/><path d="M519.87,565.31c0,5.36-1.85,6.83-4.83,6.83s-4.85-1.41-4.85-6.81c0-6,1.81-7.45,4.83-7.45S519.87,559.31,519.87,565.31Zm-8.88,0c0,5,1.53,6.07,4,6.07s4-1.13,4-6.11c0-5.37-1.32-6.72-4.05-6.72S511,559.87,511,565.35Z" fill="#333"/><path d="M531.63,565.31c0,5.36-1.85,6.83-4.83,6.83s-4.85-1.41-4.85-6.81c0-6,1.81-7.45,4.83-7.45S531.63,559.31,531.63,565.31Zm-8.88,0c0,5,1.53,6.07,4,6.07s4-1.13,4-6.11c0-5.37-1.32-6.72-4.05-6.72S522.75,559.87,522.75,565.35Z" fill="#333"/></g></g></svg>