<svg xmlns="http://www.w3.org/2000/svg" viewBox="0 0 631.5 655.47"><title>CentralFrame_noGraph_Preview_2</title><g id="Layer_2" data-name="Layer 2"><g id="Layer_5" data-name="Layer 5"><rect y="1.83" width="630.5" height="49" fill="#ffeb00"/></g><g id="Layer_6" data-name="Layer 6"><path d="M158.64,29.69V35H157.1V21.15h5.12c2.9,0,4.42,1.28,4.42,4.2,0,2-.8,3.46-2.54,4L166.76,35h-1.7l-2.5-5.3Zm3.58-7.18h-3.58v5.82h3.6c2.08,0,2.82-1.24,2.82-3C165.06,23.45,164.16,22.51,162.22,22.51Z"/><path d="M169.42,21.15h8.42v1.36H171v4.78h5.68v1.34H171v5h6.88V35h-8.42Z"/><path d="M188.24,22.63s-2.78-.34-3.94-.34c-2,0-3,.7-3,2.26,0,1.8,1,2.1,3.38,2.64,2.76.62,4,1.3,4,3.72,0,3.06-1.68,4.26-4.42,4.26a36.39,36.39,0,0,1-4.38-.44l.16-1.28s2.72.36,4.14.36c2,0,3-.86,3-2.78,0-1.56-.82-2-3.08-2.44-2.86-.62-4.3-1.3-4.3-3.94s1.76-3.72,4.46-3.72a34.46,34.46,0,0,1,4.18.4Z"/><path d="M199.68,34.77a20.83,20.83,0,0,1-3.82.42c-4.14,0-5.06-2.52-5.06-7.08s.9-7.16,5.06-7.16a20.32,20.32,0,0,1,3.82.44l-.06,1.3a24.64,24.64,0,0,0-3.6-.36c-3.08,0-3.62,1.84-3.62,5.78s.5,5.7,3.66,5.7a21.88,21.88,0,0,0,3.56-.36Z"/><path d="M210.78,28.73h-7V35H202.2V21.15h1.54v6.2h7v-6.2h1.52V35h-1.52Z"/><path d="M215.7,21.15h8.42v1.36h-6.88v4.78h5.68v1.34h-5.68v5h6.88V35H215.7Z"/><path d="M226.76,35V21.15h4.94c4,0,5.12,2.8,5.12,6.72s-1,7.12-5.12,7.12Zm4.94-12.48h-3.4V33.63h3.4c2.88,0,3.54-2.76,3.54-5.76S234.58,22.51,231.7,22.51Z"/><path d="M244.34,33.83c2.16,0,3.38-.84,3.38-3V21.15h1.52v9.64c0,3.16-1.74,4.4-4.9,4.4s-4.78-1.22-4.78-4.4V21.15h1.54v9.68C241.1,33,242.3,33.83,244.34,33.83Z"/><path d="M252.54,35V21.15h1.54V33.61h6.08V35Z"/><path d="M262.12,21.15h1.54V35h-1.54Z"/><path d="M267,21.15h2.88l5.3,12.48h.42V21.15h1.52V35h-2.82L269,22.51h-.38V35H267Z"/><path d="M286,27.91h3.82v6.8a33.71,33.71,0,0,1-4.5.48c-4.24,0-5.36-2.6-5.36-7.08S281.16,21,285.32,21a25.77,25.77,0,0,1,4.54.52l-.06,1.28a31.73,31.73,0,0,0-4.3-.42c-3.2,0-3.9,1.86-3.9,5.78s.68,5.72,3.88,5.72a18.56,18.56,0,0,0,2.86-.28V29.29H286Z"/><path d="M305.64,34.77a20.83,20.83,0,0,1-3.82.42c-4.14,0-5.06-2.52-5.06-7.08s.9-7.16,5.06-7.16a20.32,20.32,0,0,1,3.82.44l-.06,1.3a24.64,24.64,0,0,0-3.6-.36c-3.08,0-3.62,1.84-3.62,5.78s.5,5.7,3.66,5.7a21.88,21.88,0,0,0,3.56-.36Z"/><path d="M316.74,28.73h-7V35h-1.55V21.15h1.55v6.2h7v-6.2h1.52V35h-1.52Z"/><path d="M324.24,21.15h3.36L331.4,35h-1.52l-1-3.56H323L322,35h-1.52Zm-.94,8.9h5.24l-2.1-7.58h-1Z"/><path d="M335.12,29.69V35h-1.55V21.15h5.13c2.9,0,4.42,1.28,4.42,4.2,0,2-.8,3.46-2.54,4L343.24,35h-1.7l-2.5-5.3Zm3.58-7.18h-3.58v5.82h3.6c2.08,0,2.82-1.24,2.82-3C341.54,23.45,340.64,22.51,338.7,22.51Z"/><path d="M351.38,27.91h3.82v6.8a33.71,33.71,0,0,1-4.5.48c-4.24,0-5.37-2.6-5.37-7.08S346.49,21,350.66,21a25.77,25.77,0,0,1,4.54.52l-.06,1.28a31.73,31.73,0,0,0-4.3-.42c-3.2,0-3.9,1.86-3.9,5.78s.68,5.72,3.88,5.72a18.56,18.56,0,0,0,2.86-.28V29.29h-2.3Z"/><path d="M358.22,21.15h1.54V35h-1.54Z"/><path d="M363.14,21.15H366l5.3,12.48h.42V21.15h1.52V35h-2.82l-5.38-12.48h-.38V35h-1.54Z"/><path d="M382.14,27.91H386v6.8a33.71,33.71,0,0,1-4.5.48c-4.24,0-5.37-2.6-5.37-7.08S377.25,21,381.42,21a25.77,25.77,0,0,1,4.54.52l-.06,1.28a31.73,31.73,0,0,0-4.3-.42c-3.2,0-3.9,1.86-3.9,5.78s.68,5.72,3.88,5.72a18.56,18.56,0,0,0,2.86-.28V29.29h-2.3Z"/><path d="M394.91,30.33V35h-1.54V21.15h5.07c3,0,4.42,1.46,4.42,4.46s-1.4,4.72-4.42,4.72ZM398.42,29c2,0,2.86-1.22,2.86-3.36s-.84-3.1-2.86-3.1h-3.51V29Z"/><path d="M406.78,29.69V35h-1.54V21.15h5.12c2.9,0,4.42,1.28,4.42,4.2,0,2-.8,3.46-2.54,4L414.9,35h-1.7l-2.5-5.3Zm3.58-7.18h-3.58v5.82h3.6c2.08,0,2.82-1.24,2.82-3C413.2,23.45,412.3,22.51,410.36,22.51Z"/><path d="M417.55,21.15H426v1.36h-6.89v4.78h5.69v1.34h-5.69v5H426V35h-8.43Z"/><path d="M438.08,21.15,434.46,35H431l-3.63-13.84H429l3.19,12.48h1.12l3.18-12.48Z"/><path d="M440.25,21.15h1.54V35h-1.54Z"/><path d="M445.17,21.15h8.43v1.36h-6.89v4.78h5.69v1.34h-5.69v5h6.89V35h-8.43Z"/><path d="M456.74,21.15l2.35,12.48h.58l2.83-12.36h1.8l2.82,12.36h.58l2.36-12.48h1.58L468.84,35H466L463.4,23.17,460.78,35H458l-2.82-13.84Z"/></g><g id="White_Bg_Tablet"><rect y="50.83" width="631.5" height="604.65" fill="#fff"/><line x1="126.46" y1="51.55" x2="126.46" y2="592.55" fill="none" stroke="#e2e2e2" stroke-miterlimit="10"/><line x1="252.88" y1="51.55" x2="252.88" y2="592.55" fill="none" stroke="#e2e2e2" stroke-miterlimit="10"/><line x1="379.14" y1="51.55" x2="379.14" y2="592.55" fill="none" stroke="#e2e2e2" stroke-miterlimit="10"/><line x1="506" y1="50.83" x2="506" y2="593.33" fill="none" stroke="#e2e2e2" stroke-miterlimit="10"/><path d="M232.76,608.42h.75v13.86h-.75v-13l-3.93,2.64-.35-.61Z" fill="#333"/><path d="M248.34,611.67c0,1.87-1,2.75-2.85,3.3,1.74.5,3.06,1.39,3.06,3.55,0,3.13-2.33,4-5.19,4s-5.12-.89-5.12-3.72c0-2.33,1.2-3.11,2.83-3.78-1.61-.57-2.6-1.43-2.6-3.32,0-2.39,1.87-3.44,4.89-3.44S248.34,609.24,248.34,611.67Zm-.59,6.87c0-2.25-1.51-2.75-3.27-3.19H242c-1.83.44-3,1.26-3,3.38,0,2.33,2,3,4.3,3S247.75,621.08,247.75,618.54Zm-8.48-6.87c0,1.7.92,2.48,2.75,3h2.46c1.93-.46,3-1.25,3-3,0-2.05-1.59-2.77-4.16-2.77S239.27,609.6,239.27,611.67Z" fill="#333"/><path d="M250.86,613.37h.84v1.68h-.84Zm0,7.23h.84v1.68h-.84Z" fill="#333"/><path d="M264,615.64c0,5.36-1.85,6.83-4.83,6.83s-4.85-1.41-4.85-6.81c0-6,1.8-7.45,4.83-7.45S264,609.64,264,615.64Zm-8.89,0c0,5,1.54,6.07,4.06,6.07s4-1.13,4-6.11c0-5.37-1.32-6.72-4-6.72S255.12,610.2,255.12,615.68Z" fill="#333"/><path d="M275.77,615.64c0,5.36-1.85,6.83-4.83,6.83s-4.85-1.41-4.85-6.81c0-6,1.8-7.45,4.83-7.45S275.77,609.64,275.77,615.64Zm-8.89,0c0,5,1.54,6.07,4.06,6.07s4-1.13,4-6.11c0-5.37-1.32-6.72-4.05-6.72S266.88,610.2,266.88,615.68Z" fill="#333"/><path d="M105.58,608.42h.76v13.86h-.76v-13l-3.92,2.64-.36-.61Z" fill="#333"/><path d="M112.09,608.42h8.45v1.36l-5.63,12.69-.74-.3,5.57-12.55v-.49h-7.65Z" fill="#333"/><path d="M123.69,613.37h.84v1.68h-.84Zm0,7.23h.84v1.68h-.84Z" fill="#333"/><path d="M136.83,615.64c0,5.36-1.85,6.83-4.83,6.83s-4.85-1.41-4.85-6.81c0-6,1.81-7.45,4.83-7.45S136.83,609.64,136.83,615.64Zm-8.88,0c0,5,1.53,6.07,4,6.07s4-1.13,4-6.11c0-5.37-1.32-6.72-4.05-6.72S128,610.2,128,615.68Z" fill="#333"/><path d="M148.59,615.64c0,5.36-1.85,6.83-4.83,6.83s-4.85-1.41-4.85-6.81c0-6,1.81-7.45,4.83-7.45S148.59,609.64,148.59,615.64Zm-8.88,0c0,5,1.53,6.07,4,6.07s4-1.13,4-6.11c0-5.37-1.32-6.72-4-6.72S139.71,610.2,139.71,615.68Z" fill="#333"/><path d="M358.61,608.42h.76v13.86h-.76v-13l-3.92,2.64-.36-.61Z" fill="#333"/><path d="M365.08,621.54a33.1,33.1,0,0,0,3.49.21c2.94,0,4.45-1.72,4.49-5.77a14.52,14.52,0,0,1-4.24.92c-2.85,0-4.39-1.24-4.39-4.09a4.32,4.32,0,0,1,4.62-4.58c3.38,0,4.81,2.83,4.81,7.24,0,5.3-1.95,7-5.29,7a31.28,31.28,0,0,1-3.57-.24Zm8-6.3c-.08-3.73-1.15-6.3-4-6.3a3.59,3.59,0,0,0-3.82,3.87c0,2.39,1.24,3.38,3.63,3.38A15.84,15.84,0,0,0,373.08,615.24Z" fill="#333"/><path d="M376.72,613.37h.84v1.68h-.84Zm0,7.23h.84v1.68h-.84Z" fill="#333"/><path d="M389.86,615.64c0,5.36-1.85,6.83-4.83,6.83s-4.85-1.41-4.85-6.81c0-6,1.81-7.45,4.83-7.45S389.86,609.64,389.86,615.64Zm-8.88,0c0,5,1.53,6.07,4,6.07s4-1.13,4-6.11c0-5.37-1.32-6.72-4.05-6.72S381,610.2,381,615.68Z" fill="#333"/><path d="M401.62,615.64c0,5.36-1.85,6.83-4.83,6.83s-4.85-1.41-4.85-6.81c0-6,1.81-7.45,4.83-7.45S401.62,609.64,401.62,615.64Zm-8.88,0c0,5,1.53,6.07,4.05,6.07s4-1.13,4-6.11c0-5.37-1.32-6.72-4.05-6.72S392.74,610.2,392.74,615.68Z" fill="#333"/><path d="M481.68,622.28v-.65l4.77-5.08c1.68-1.77,2.77-2.94,2.77-4.77,0-2.12-1.26-2.84-3.53-2.84a19.27,19.27,0,0,0-3.78.55l-.1-.71a16.49,16.49,0,0,1,3.9-.55c2.76,0,4.31.92,4.31,3.55,0,2-1,3.25-2.75,5l-4.56,4.8h7.75v.68Z" fill="#333"/><path d="M502.64,615.64c0,5.36-1.85,6.83-4.83,6.83s-4.85-1.41-4.85-6.81c0-6,1.81-7.45,4.83-7.45S502.64,609.64,502.64,615.64Zm-8.88,0c0,5,1.53,6.07,4.05,6.07s4-1.13,4-6.11c0-5.37-1.32-6.72-4-6.72S493.76,610.2,493.76,615.68Z" fill="#333"/><path d="M505.27,613.37h.84v1.68h-.84Zm0,7.23h.84v1.68h-.84Z" fill="#333"/><path d="M518.41,615.64c0,5.36-1.85,6.83-4.83,6.83s-4.85-1.41-4.85-6.81c0-6,1.81-7.45,4.83-7.45S518.41,609.64,518.41,615.64Zm-8.88,0c0,5,1.53,6.07,4.05,6.07s4-1.13,4-6.11c0-5.37-1.32-6.72-4.05-6.72S509.53,610.2,509.53,615.68Z" fill="#333"/><path d="M530.17,615.64c0,5.36-1.85,6.83-4.83,6.83s-4.85-1.41-4.85-6.81c0-6,1.81-7.45,4.83-7.45S530.17,609.64,530.17,615.64Zm-8.88,0c0,5,1.53,6.07,4.05,6.07s4-1.13,4-6.11c0-5.37-1.32-6.72-4-6.72S521.29,610.2,521.29,615.68Z" fill="#333"/></g><g id="Layer_1-2" data-name="Layer 1"><rect x="0.18" width="631.32" height="3.66" fill="#2277d6"/></g></g></svg>