<svg xmlns="http://www.w3.org/2000/svg" 
    xmlns:xlink="http://www.w3.org/1999/xlink" viewBox="0 0 1919.89 805.65">
    <defs>
        <clipPath id="clip-path">
            <rect x="203.31" y="243.71" width="1716.58" height="562.17" fill="none"/>
        </clipPath>
        <clipPath id="clip-path-2">
            <polygon points="203.31 800.48 1920.11 802.75 1920.11 262.84 203.31 260.56 203.31 800.48" fill="none"/>
        </clipPath>
        <clipPath id="clip-path-3">
            <rect x="203.31" width="1716.58" height="801.82" fill="none"/>
        </clipPath>
        <clipPath id="clip-path-4">
            <rect x="2.59" y="0.23" width="481.12" height="805.06" fill="none"/>
        </clipPath>
    </defs>
    <title>ExpandedView_for_Tablet_Updated</title>
    <g id="ExpandedView_for_Tablet">
        <path d="M-.15,654.49s324.19,7.36,376-8,61.16-95.16,62.35-110c1.22-15.24,10.73-79.26,46.2-94.24" fill="none" stroke="#3899e8" stroke-miterlimit="10" stroke-width="5" opacity="0.5"/>
        <path d="M-.15,663.67s332.77-.16,385.32-7.42,65.64-84.92,68-98.06,4-28.87,31.25-51.74" fill="none" stroke="#f2a120" stroke-miterlimit="10" stroke-width="5" opacity="0.5"/>
        <g opacity="0.24" style="isolation:isolate">
            <g clip-path="url(#clip-path)">
                <path d="M1731.69,409.85c-4.93-22.45-13.57-27.05-13.57-27.05-41.43-4-102-28.33-114.56-20.67s-12.5,31.59-26.79,32.55-28.58-10.53-42.87-11.49-50-3.83-66.1-3.83-25,37.34-46.45,33.51-76.81-19.14-85.74-31.59-28.58-3.83-32.15,1.91-14.29,22-42.87,8.62-80.39-42.13-87.53-35.43-30.37,32.55-62.53,23.94-75-54.57-75-54.57-60.74-30.64-94.68-39.26-71.45-8.61-84,3.83-41.09,60.32-53.59,67-50,4.79-66.1,1.91-44.29,3-58.59,5.88-37.51,6.7-44.65,17.23S592.5,481.2,578.21,490.78,551.36,505,530,514.53c-22.62,10.11-47.19,36.28-47.19,36.28V469.27s25.51-17.41,40.9-25.15l24.16-10.65c8.93-5.74,17.86-14.36,28.58-29.68s33.52-48,56.74-55.64,36.15-32.93,57.59-33.89,53.59,4.78,69.66,0,30.37-25.85,33.94-33.51,37.37-24.67,64.31-25.85c76.81-3.35,141.13,14.52,153.62,14.84,37.52,1,53.37-8.11,71.46-10.53,21.43-2.87,35.72-8.62,50-8.62s53.59,19.14,78.6,21.06,54.3,17.24,60.74,17.24c16.07,0,32.15-2.87,51.8.95s23.22,8.14,39.29,8.14,32.16-1,46.45,5.75,25,.95,33.94-4.79,21.44-31.6,55.38-32.55,73.24-13.4,84-19.14,39.29-3.83,51.8.95,9.56,20.34,19.65,22.5c17.86,3.83,53.81,14.85,63.4,20.13,0,0,23.13,7.1,26.75,106.78l2.28,28.74,3.11,26.93,3.66,33.56,4.24,33.28,4.63,31.35,3.68,21.65,4.4,22.2,4.28,17.91,3.42,11.67s5.82,20.21,14,22.83h0a111.85,111.85,0,0,0,37,6.68c20.76.17,4.6,2.26,89.65,1.59h0v7.67s-71.51,1.4-91.06-.94h0s-31-1.77-40.88-4.65h0s-13.51-.35-19-24.63h0s-6.61-23.7-7.55-28h0s-11.3-54-11.16-63.52h0l-5.86-46.5-3.92-38.51-3.07-19.65-3.76-18.65-2-8.77" fill="#f2a120"/>
            </g>
        </g>
        <g opacity="0.33" style="isolation:isolate">
            <g clip-path="url(#clip-path-2)">
                <path d="M1640.19,276.92c-14.29-2.87-28.58-8.62-37.52,1.91s-28.58,13.41-44.65,13.41-46.45,8.61-51.81,4.78-30.36-18.19-41.08-8.61-28.58,39.25-51.81,40.21-71.45-2.88-78.6-12.45-33-17.71-34.83-12.92-6.25,18.67-31.26,3.35-51.8-8.62-55.38-15.32-17.86-18.19-42.87-20.11-58.05-.47-68.77-6.22-21.44,9.57-46.45,10.53-46.45,0-55.38-1-49.12-13.89-72.34-13.89-75-.95-82.17,3.83S807.75,275,802.39,288.41s-16.07,36.38-75,31.59-110.75,61.26-135.76,90-13.17,26.76-30.17,36.69c-6,3.48-32.12,19.08-49.43,24.58l-29.22,17.21v34.88s42-28.78,56.12-37c17-9.93,32.62-15.95,42-24.42,15.66-14.17,51.26-109.95,85.2-112.82s54.13-1.3,66.63-1.3S791.68,358.3,797,343s41.09-56.49,55.38-65.1,35.72-12.45,48.23-10.54,55.38,5.75,60.73,5.75,35.73,10.53,51.81,12.45,26.79,14.36,55.37,27.76,62.52,39.25,71.46,36.38,21.43-17.23,39.29-15.32,41.09,24.89,53.59,23.94,41.09,20.1,48.23,18.19,25-22,37.51-21.07S1359.73,388,1379.38,388s32.15,7.66,48.23,0,16.08-29.68,30.37-29.68,30.36,6.7,44.66,7.66,28.58-3.83,37.51-3.83,25,9.57,39.29.95,14.29-18.19,42.87-16.27c0,0,70.4,3.24,96,13.4,0,0,19.29,61.83,23.16,106,4,45.27,19.39,179.54,40.65,189.86s137.73,7.57,137.73,7.57V656s-106.73,3.38-128.85-9.39-39.21-184.5-39.21-184.5S1737,309.79,1718.62,299.58,1654.48,279.79,1640.19,276.92Z" fill="#f2a120"/>
            </g>
        </g>
        <g opacity="0.33">
            <g clip-path="url(#clip-path-3)">
                <path d="M1738.6,304a48.14,48.14,0,0,1-6.91-13.23c-3-9.3-3.36-21.4-3.36-21.4s-5.73-54.44-16.81-62.37c-16-11.4-32.5-9.82-39.75-12.84-5.2-2.16-38.58,2.77-52.28,1.61s-31.64,5.5-38.52,7.56c-14.89,4.47-34.36,13.4-44,16.51-11.43,3.68-20.12,13.29-41.58,15-13,1-23.74,15.05-33.93,16.5-15.09,2.16-28.32,17.19-40,22.63-8.46,3.91-13.35,8.93-21.86,11-10.4,2.53-15.83-2.64-29.81-5.81s-29.89-52.4-37.07-49c-17.91,8.53-30.28,12.38-48.84,8-21-4.95-70.32,8.25-93.56,12.53-7.32,1.35-21.64,2-30-.24-5.86-1.57-13.18-3.74-20.92-6-28.88-8.54-92.19,17.9-111,21.5-18.58,3.55-57.3-5.69-87.53-9.58-11.87-1.52-26.37-1.38-33.43-1.93-24.28-1.85-64.58-4.9-91.38,1.8-13.69,3.42-23.16,12.05-33.19,21.19-8.77,8-17.85,16.26-30.57,21.71-19.57,8.39-29.5,8-44.55,7.32-6.37-.28-13.59-.59-23.07-.31-33.1,1-65,41-83.75,54.43-9.79,7-22.92,20-29.3,29.35S532,425.35,532,425.35c-8.28,4-47,25-48.46,23.39l.12-12c5,5.6,65.92-41,78.66-52.7,11.94-11,24.3-22.36,34.27-29.48,25.27-18.06,58.07-50.44,87.74-51.32,9.85-.3,17.26,0,23.8.3,14.74.64,22.86,1,40.77-6.69,12-5.13,20.77-13.16,29.3-20.93,10.46-9.53,20.34-18.53,35.55-22.33,27.62-6.91,69.22-27.89,94.4-26,7.3.56,17.66,1.89,29.66,3.43,28,3.6,66.31,8.52,83.38,5.25,21.07-4,101.71-10.42,133.21-1.11,7.7,2.27,15,4.42,20.73,6,8.26,2.21,35.41-12.81,42.6-11,21.42,5,34.52-10.62,56-6.67,39.34,7.26,37.07-11.8,66-13.75,10.72-.73,16,9.94,31.49,13.45,12.92,2.93,35-16.49,43.26-18.5,7.8-1.9,31.33-6.57,41.12-8.1,12.65-2,6.35-8.38,22.62-10.7,10.49-1.5,25.33,3.49,38.52,2.44,20.94-1.65,45.08-12.27,55.59-15.65,11.9-3.82,13-14.23,28.34-11.1,11.33,2.51,24.34,7.59,36,8.72,15.06,1.27,50.7,4,56.21,6.33,6.83,2.85,15.59,4.67,27.21,12.93,0,0,8.86-.92,12.84,38.82,0,0-.47,13.53,2.75,36.08,1.53,10.7,6.57,35.19,6.57,35.19l6.42,14.59,7,15.85,4,12.85,7.4,31.35,5.19,26.35,6.68,38.3,3.2,20.22,2.74,23,4.34,30.6,5.28,34.29,4.15,25,5.25,28.61,5,22.1s-.24,10.49,10.56,10.87h0a171.48,171.48,0,0,0,37.13,4.56h0s56.55,3,63.49,2.39h0v8.63s-49.92-.24-63.69-1.27h0s-32.22-2-41.83-4.87h0s-11-1.11-15.17-8.18h0a202.37,202.37,0,0,1-8.59-33.86h0l-12.36-87.38L1768.61,430s-5-33.91-7.23-45c-2.71-13.61-5.62-26.71-5.62-26.71s-4-16.58-7.7-28.55-6.71-19.15-7.65-21.49Z" fill="#3899e8"/>
            </g>
        </g>
        <path d="M1737.45,301.38c1.45,3.16,2.94,6.68,4.47,10.6,10.28,26.5,21.91,71.49,30.32,147.61,17.88,161.88,25.35,174.09,29.35,178.39,8,8.63,72.76,12.16,118.52,11.16v-8.63s-97.43-.92-108-9.86c-7.37-6.26-29.21-157.3-30-171.52,0,0-12.38-104.08-27.77-132.45-23.69-43.69-27.31-116.32-28.5-117-8.54-20.21-16.82-19.56-16.82-19.56-14.22-4.79-15.44-12.2-25.37-15.34-5.68-1.8-32-3.26-47-4.53-11.63-1.13-24.64-6.21-36-8.72-15.37-3.13-36.25,19.56-48.15,23.39-10.52,3.38-26.76,5.61-47.7,7.27-13.19,1-32.62,6.82-43.11,8.32-16.27,2.33-25.06,3.79-36.69,9.18-8.15,3.77-17.71,6.35-25.52,8.25-8.25,2-16.59,11.19-29.51,8.25-15.46-3.51-22.48-11.76-35.16-12.53-18.18-1.11-23.31,27-60.23,14.37-20.6-7.08-36.66,12.68-58.08,7.64-7.2-1.77-18.66,2.94-26,7.34-6.12,3.67-32-.76-39.71-3-31.49-9.31-110.35-1-131.41,3-17.08,3.27-55.4-1.66-83.39-5.25-12-1.54-22.35-2.87-29.66-3.43-25.17-1.93-65,12.36-92.61,19.27-15.21,3.81-25.09,12.8-35.55,22.33-8.53,7.77-17.34,15.8-29.3,20.93-17.91,7.68-26,7.33-40.77,6.7-6.54-.29-13.95-.6-23.8-.31-29.67.88-63.38,27.75-88.65,45.81-10,7.12-23.59,20.77-35.54,31.76-12.73,11.72-26.54,20.18-30.27,24.34-4.43,4.94-11.8,9.39-12.53,9.78-9.48,5.05-25,9.94-33.94,13.68v24.08c1.42,1.6,36.25-15.43,51.52-21.55.74-.3,8.64-7.07,12.38-9.33,3.38-2,9.47-7,10.24-8.25,3.52-5.81,7.62-14.16,24.07-29.29,11.87-10.93,30.2-30.52,40-37.52C640.4,333.35,655,312,688.11,311c9.49-.28,13.24-4.85,19.61-4.57,15,.64,25,1.07,44.54-7.32,12.73-5.45,21.8-13.72,30.58-21.72,10-9.13,19.49-17.76,33.19-21.18,26.8-6.7,70.66-9.4,95-7.54,7.06.54,17.3,1.86,29.17,3.38,30.23,3.89,67.85,14.55,86.42,11,18.78-3.6,92.81-29.08,121.68-20.54,7.75,2.29,14.9,5.39,20.93,6,26.26,2.75,28.89-9.37,44-7.95,21.69,2,25.25-8.67,69.71-5.5,28.28,2,33.92-1.25,51.82-9.78,7.18-3.42,14.66,12.73,28.59,15.9s39.43,21.9,49.83,19.37c8.5-2.08,6.22-25.85,14.68-29.77,11.73-5.43,10.14-6.79,25.22-8.94,10.19-1.46,40.61-7.23,53.66-8.26,21.45-1.69,28.62-14.28,40-18,9.67-3.11,28.67-9.83,43.9-6.72,10.23,2.08,29.81-3.61,43.54-2.45s59.92,7.92,65.12,10.09c7.25,3,10.33-1.82,22.62,21.4,8.26,15.59,6.16,46.11,9.48,48,1.45.83-3.52,14.6,6.06,35.42" fill="#3899e8" opacity="0.5"/>
    </g>
</svg>