<svg xmlns="http://www.w3.org/2000/svg" xmlns:xlink="http://www.w3.org/1999/xlink" viewBox="0 0 638 371.7">
	<defs>
		<clipPath id="clip-path">
			<rect x="2.85" width="633.92" height="4.5" fill="#f22020" />
		</clipPath>
	</defs>
	<title>
		m_2_Tablet
	</title>
	<g style="isolation:isolate">
		<g id="Layer_2" data-name="Layer 2">
			<g id="Layer_5" data-name="Layer 5">
				<rect x="3.47" y="4.5" width="631.5" height="361.44" fill="#fff" />
			</g>
			<g id="Layer_1-2" data-name="Layer 1">
				<path d="M221.75,40.49l2.48,13.1h.61l3-13h1.89l3,13h.61l2.48-13.1h1.66L234.46,55h-3l-2.75-12.41L226,55h-3l-3-14.53Z" />
				<path d="M248.84,48.45h-7.39V55h-1.61V40.49h1.61V47h7.39V40.49h1.6V55h-1.6Z" />
				<path d="M256.72,40.49h3.53l4,14.53h-1.6l-1.05-3.73h-6.21l-1,3.73h-1.6Zm-1,9.35h5.5l-2.2-8h-1.09Z" />
				<path d="M265,40.49h10.5v1.45h-4.43V55h-1.59V41.94H265Z" />
				<path d="M282.19,40.49h1.62V55h-1.62Z" />
				<path d="M295.5,42.05s-2.92-.36-4.13-.36c-2.06,0-3.15.73-3.15,2.37,0,1.89,1,2.21,3.55,2.77,2.89.65,4.17,1.37,4.17,3.91,0,3.21-1.76,4.47-4.64,4.47a38.19,38.19,0,0,1-4.59-.46l.16-1.35s2.86.38,4.35.38c2.06,0,3.11-.9,3.11-2.91,0-1.64-.86-2.1-3.24-2.57-3-.65-4.51-1.36-4.51-4.13s1.85-3.91,4.68-3.91a36.26,36.26,0,0,1,4.39.42Z" />
				<path d="M312.37,48.45H305V55h-1.61V40.49H305V47h7.4V40.49H314V55h-1.59Z" />
				<path d="M320.24,40.49h3.53l4,14.53h-1.6l-1.05-3.73H318.9l-1,3.73h-1.6Zm-1,9.35h5.51l-2.21-8h-1.09Z" />
				<path d="M331.67,50.13V55h-1.62V40.49h5.31c3.17,0,4.64,1.54,4.64,4.68s-1.47,5-4.64,5Zm3.67-1.43c2.12,0,3-1.28,3-3.53s-.88-3.25-3-3.25h-3.67V48.7Z" />
				<path d="M344.12,50.13V55H342.5V40.49h5.31c3.17,0,4.65,1.54,4.65,4.68s-1.48,5-4.65,5Zm3.67-1.43c2.12,0,3-1.28,3-3.53s-.89-3.25-3-3.25h-3.67V48.7Z" />
				<path d="M355,40.49h8.83v1.43h-7.22v5h6v1.41h-6v5.24h7.22V55H355Z" />
				<path d="M366.57,40.49h3l5.57,13.1h.44V40.49h1.59V55h-3l-5.65-13.1h-.39V55h-1.62Z" />
				<path d="M380.77,40.49h1.61V55h-1.61Z" />
				<path d="M385.93,40.49h3l5.56,13.1H395V40.49h1.59V55h-3L388,41.92h-.4V55h-1.62Z" />
				<path d="M405.88,47.59h4v7.14a36.25,36.25,0,0,1-4.72.5c-4.46,0-5.63-2.73-5.63-7.43s1.22-7.52,5.59-7.52a26.82,26.82,0,0,1,4.76.55l-.06,1.34a33.53,33.53,0,0,0-4.52-.44c-3.36,0-4.09,2-4.09,6.07s.71,6,4.07,6a18.66,18.66,0,0,0,3-.3V49h-2.41Z" />
				<path d="M417.85,47.44c-1.24,1-1.87,1.68-1.87,2.63v.73h-1.32a3.31,3.31,0,0,1-.27-1.28c0-1,.84-1.85,1.95-2.79,1.51-1.3,1.87-1.79,1.87-3,0-1.49-.91-2.06-2.8-2.06a19.61,19.61,0,0,0-3.25.48l-.11-1.28a16,16,0,0,1,3.51-.63c2.82,0,4.24.93,4.24,3.36C419.8,45.45,419.49,46.08,417.85,47.44Zm-3.42,5.21h1.72V55h-1.72Z" />
				<path d="M165.31,209.69a21.83,21.83,0,0,1-4,.44c-4.35,0-5.31-2.65-5.31-7.43s.94-7.52,5.31-7.52a21.23,21.23,0,0,1,4,.46l-.06,1.37a25.71,25.71,0,0,0-3.78-.38c-3.24,0-3.8,1.93-3.8,6.07s.52,6,3.84,6a22.86,22.86,0,0,0,3.74-.38Z" />
				<path d="M172.87,208.7c2.27,0,3.55-.88,3.55-3.15V195.39H178v10.12c0,3.32-1.83,4.62-5.15,4.62s-5-1.28-5-4.62V195.39h1.62v10.16C169.47,207.82,170.73,208.7,172.87,208.7Z" />
				<path d="M189.63,196.94s-2.92-.35-4.14-.35c-2.06,0-3.15.73-3.15,2.37,0,1.89,1,2.21,3.55,2.77,2.9.65,4.18,1.37,4.18,3.91,0,3.21-1.76,4.47-4.64,4.47a38.45,38.45,0,0,1-4.6-.46l.17-1.35s2.85.38,4.35.38c2.05,0,3.1-.9,3.1-2.92,0-1.63-.86-2.1-3.23-2.56-3-.65-4.51-1.36-4.51-4.13s1.84-3.91,4.68-3.91a36.26,36.26,0,0,1,4.39.42Z" />
				<path d="M191.35,195.39h10.5v1.45h-4.43v13.08h-1.6V196.84h-4.47Z" />
				<path d="M203.32,202.72c0-4.79,1.24-7.54,5.73-7.54s5.76,2.71,5.76,7.54c0,5-1.24,7.41-5.76,7.41S203.32,207.59,203.32,202.72Zm9.81,0c0-3.93-.76-6.11-4.08-6.11s-4.07,2.16-4.07,6.11.71,6,4.07,6S213.13,206.81,213.13,202.72Z" />
				<path d="M217.77,195.39h2.92l4.11,12.28,4.12-12.28h2.92v14.53h-1.62V197.11h-.29l-4.22,12.29H223.9l-4.22-12.29h-.29v12.81h-1.62Z" />
				<path d="M235.41,195.39h8.84v1.43H237v5h6v1.4h-6v5.25h7.22v1.43h-8.84Z" />
				<path d="M248.64,204.36v5.56H247V195.39h5.38c3,0,4.64,1.34,4.64,4.41,0,2.14-.84,3.63-2.67,4.22l2.79,5.9h-1.78l-2.63-5.56Zm3.76-7.54h-3.76v6.11h3.78c2.18,0,3-1.3,3-3.13C255.38,197.81,254.43,196.82,252.4,196.82Z" />
				<path d="M273.35,209.69a21.73,21.73,0,0,1-4,.44c-4.34,0-5.31-2.65-5.31-7.43s1-7.52,5.31-7.52a21.23,21.23,0,0,1,4,.46l-.06,1.37a25.44,25.44,0,0,0-3.78-.38c-3.23,0-3.8,1.93-3.8,6.07s.53,6,3.84,6a22.86,22.86,0,0,0,3.74-.38Z" />
				<path d="M275.42,202.72c0-4.79,1.23-7.54,5.73-7.54s5.75,2.71,5.75,7.54c0,5-1.24,7.41-5.75,7.41S275.42,207.59,275.42,202.72Zm9.8,0c0-3.93-.76-6.11-4.07-6.11s-4.08,2.16-4.08,6.11.72,6,4.08,6S285.22,206.81,285.22,202.72Z" />
				<path d="M289.86,195.39h2.92l4.12,12.28L301,195.39h2.92v14.53h-1.62V197.11H302L297.8,209.4H296l-4.22-12.29h-.29v12.81h-1.62Z" />
				<path d="M307.5,195.39h8.69v1.43h-7.07v5.67h6v1.43h-6v6H307.5Z" />
				<path d="M318,202.72c0-4.79,1.24-7.54,5.73-7.54s5.75,2.71,5.75,7.54c0,5-1.23,7.41-5.75,7.41S318,207.59,318,202.72Zm9.8,0c0-3.93-.75-6.11-4.07-6.11s-4.07,2.16-4.07,6.11.71,6,4.07,6S327.76,206.81,327.76,202.72Z" />
				<path d="M334,204.36v5.56h-1.61V195.39h5.37c3.05,0,4.64,1.34,4.64,4.41,0,2.14-.84,3.63-2.67,4.22l2.8,5.9h-1.79l-2.62-5.56Zm3.76-7.54H334v6.11h3.78c2.19,0,3-1.3,3-3.13C340.76,197.81,339.82,196.82,337.78,196.82Z" />
				<path d="M343.83,195.39h10.5v1.45H349.9v13.08h-1.6V196.84h-4.47Z" />
				<path d="M362.63,205v4.89H361V195.39h5.31c3.17,0,4.64,1.53,4.64,4.68s-1.47,5-4.64,5Zm3.67-1.43c2.12,0,3-1.28,3-3.53s-.88-3.25-3-3.25h-3.67v6.78Z" />
				<path d="M375.08,204.36v5.56h-1.62V195.39h5.38c3,0,4.64,1.34,4.64,4.41,0,2.14-.84,3.63-2.67,4.22l2.79,5.9h-1.78l-2.63-5.56Zm3.76-7.54h-3.76v6.11h3.78c2.18,0,3-1.3,3-3.13C381.82,197.81,380.87,196.82,378.84,196.82Z" />
				<path d="M385.81,202.72c0-4.79,1.24-7.54,5.73-7.54s5.75,2.71,5.75,7.54c0,5-1.23,7.41-5.75,7.41S385.81,207.59,385.81,202.72Zm9.8,0c0-3.93-.75-6.11-4.07-6.11s-4.07,2.16-4.07,6.11.71,6,4.07,6S395.61,206.81,395.61,202.72Z" />
				<path d="M409,209.69a21.83,21.83,0,0,1-4,.44c-4.34,0-5.31-2.65-5.31-7.43s1-7.52,5.31-7.52a21.23,21.23,0,0,1,4,.46L409,197a25.71,25.71,0,0,0-3.78-.38c-3.23,0-3.8,1.93-3.8,6.07s.53,6,3.84,6a22.86,22.86,0,0,0,3.74-.38Z" />
				<path d="M411.68,195.39h8.84v1.43H413.3v5h6v1.4h-6v5.25h7.22v1.43h-8.84Z" />
				<path d="M423.29,209.92V195.39h5.19c4.22,0,5.37,2.94,5.37,7.06s-1.09,7.47-5.37,7.47Zm5.19-13.1h-3.57v11.67h3.57c3,0,3.72-2.89,3.72-6S431.5,196.82,428.48,196.82Z" />
				<path d="M441.75,208.7c2.27,0,3.55-.88,3.55-3.15V195.39h1.6v10.12c0,3.32-1.83,4.62-5.15,4.62s-5-1.28-5-4.62V195.39h1.62v10.16C438.35,207.82,439.61,208.7,441.75,208.7Z" />
				<path d="M452,204.36v5.56h-1.62V195.39h5.38c3,0,4.64,1.34,4.64,4.41,0,2.14-.84,3.63-2.67,4.22l2.79,5.9h-1.78l-2.63-5.56Zm3.76-7.54H452v6.11h3.78c2.18,0,3-1.3,3-3.13C458.72,197.81,457.77,196.82,455.74,196.82Z" />
				<path d="M463.3,195.39h8.84v1.43h-7.22v5h6v1.4h-6v5.25h7.22v1.43H463.3Z" />
				<path d="M482.51,194.17s-2,5.38-2,9.43a29,29,0,0,0,2,8.94H481a23.11,23.11,0,0,1-2.18-8.94,27.27,27.27,0,0,1,2.18-9.43Z" />
				<path d="M493.85,209.69a21.83,21.83,0,0,1-4,.44c-4.34,0-5.31-2.65-5.31-7.43s.94-7.52,5.31-7.52a21.23,21.23,0,0,1,4,.46l-.06,1.37a25.71,25.71,0,0,0-3.78-.38c-3.23,0-3.8,1.93-3.8,6.07s.52,6,3.84,6a22.86,22.86,0,0,0,3.74-.38Z" />
				<path d="M505.28,209.69a21.94,21.94,0,0,1-4,.44c-4.35,0-5.32-2.65-5.32-7.43s.95-7.52,5.32-7.52a21.34,21.34,0,0,1,4,.46l-.07,1.37a25.44,25.44,0,0,0-3.78-.38c-3.23,0-3.8,1.93-3.8,6.07s.53,6,3.85,6a22.74,22.74,0,0,0,3.73-.38Z" />
				<path d="M509.54,205v4.89h-1.62V195.39h5.32c3.17,0,4.64,1.53,4.64,4.68s-1.47,5-4.64,5Zm3.67-1.43c2.12,0,3-1.28,3-3.53s-.89-3.25-3-3.25h-3.67v6.78Z" />
				<path d="M520.88,194.17a27.27,27.27,0,0,1,2.18,9.43,23.11,23.11,0,0,1-2.18,8.94h-1.51a29,29,0,0,0,2-8.94c0-4-2-9.43-2-9.43Z" />
				<path d="M82,78.13h9v1.24H87.22V90.59H85.85V79.37H82Z" fill="#3a3d3f" />
				<path d="M92.54,90.59V77.66h1.35v4.43a7.57,7.57,0,0,1,2.78-.69c2.46,0,3,1.23,3,4.43v4.76H98.36V85.87c0-2.38-.27-3.26-1.93-3.26a7.41,7.41,0,0,0-2.54.54v7.44Z" fill="#3a3d3f" />
				<path d="M108.85,89.42l0,1.06a31.12,31.12,0,0,1-3.51.29c-2.69,0-3.57-1.57-3.57-4.63,0-3.42,1.48-4.74,3.77-4.74s3.61,1.26,3.61,4.22l-.07,1h-5.94c0,1.93.6,2.94,2.36,2.94C106.89,89.58,108.85,89.42,108.85,89.42Zm-1-3.86c0-2.23-.68-3-2.26-3s-2.4.85-2.42,3Z" fill="#3a3d3f" />
				<path d="M111.3,81.58h1.33v1.23a10.17,10.17,0,0,1,3.3-1.42v1.36A13.21,13.21,0,0,0,112.65,84v6.61H111.3Z" fill="#3a3d3f" />
				<path d="M124.17,89.42l0,1.06a31.4,31.4,0,0,1-3.52.29c-2.68,0-3.56-1.57-3.56-4.63,0-3.42,1.48-4.74,3.76-4.74s3.62,1.26,3.62,4.22l-.07,1H118.5c0,1.93.59,2.94,2.36,2.94C122.21,89.58,124.17,89.42,124.17,89.42Zm-1-3.86c0-2.23-.68-3-2.27-3s-2.39.85-2.41,3Z" fill="#3a3d3f" />
				<path d="M130.58,78h1.35v1.57h-1.35Zm0,3.6h1.35v9h-1.35Z" fill="#3a3d3f" />
				<path d="M140.5,82.9a29.33,29.33,0,0,0-3.16-.29c-1.11,0-2,.31-2,1.37,0,.85.43,1.08,2.34,1.4,2.25.38,3.1.83,3.1,2.58,0,2.1-1.33,2.81-3.49,2.81a25.4,25.4,0,0,1-3.17-.34l.07-1.18a29.5,29.5,0,0,0,3,.31c1.48,0,2.27-.32,2.27-1.55,0-.93-.47-1.17-2.43-1.47s-3-.71-3-2.51c0-2,1.6-2.63,3.24-2.63a22.55,22.55,0,0,1,3.26.35Z" fill="#3a3d3f" />
				<path d="M153.2,88.91c0,.53.47.72,1.05.8l-.06,1.06a2.75,2.75,0,0,1-2.14-.72,9.2,9.2,0,0,1-3.24.72c-1.64,0-2.54-.94-2.54-2.76s.9-2.48,2.76-2.66l2.82-.27V84.3c0-1.26-.54-1.71-1.62-1.71-1.26,0-3.4.24-3.4.24l-.05-1a21.6,21.6,0,0,1,3.53-.4c2,0,2.89.94,2.89,2.9Zm-4-2.55c-1.1.1-1.53.63-1.53,1.62s.45,1.65,1.37,1.65a9.47,9.47,0,0,0,2.82-.56v-3Z" fill="#3a3d3f" />
				<path d="M159.83,90.59V77.66h1.35v4.43A7.55,7.55,0,0,1,164,81.4c2.47,0,3,1.23,3,4.43v4.76h-1.35V85.87c0-2.38-.27-3.26-1.93-3.26a7.39,7.39,0,0,0-2.53.54v7.44Z" fill="#3a3d3f" />
				<path d="M176.14,89.42l0,1.06a31.12,31.12,0,0,1-3.51.29c-2.68,0-3.56-1.57-3.56-4.63,0-3.42,1.47-4.74,3.76-4.74s3.62,1.26,3.62,4.22l-.07,1h-5.95c0,1.93.6,2.94,2.36,2.94C174.17,89.58,176.14,89.42,176.14,89.42Zm-1-3.86c0-2.23-.69-3-2.27-3s-2.4.85-2.41,3Z" fill="#3a3d3f" />
				<path d="M184.94,88.91c0,.53.47.72,1,.8l0,1.06a2.74,2.74,0,0,1-2.14-.72,9.22,9.22,0,0,1-3.25.72c-1.63,0-2.54-.94-2.54-2.76s.91-2.48,2.76-2.66l2.83-.27V84.3c0-1.26-.54-1.71-1.62-1.71-1.26,0-3.41.24-3.41.24l-.05-1a21.6,21.6,0,0,1,3.53-.4c2,0,2.9.94,2.9,2.9Zm-4-2.55c-1.1.1-1.53.63-1.53,1.62s.45,1.65,1.37,1.65a9.57,9.57,0,0,0,2.83-.56v-3Z" fill="#3a3d3f" />
				<path d="M188.19,81.58l2.11,7.84H191l2.17-7.84h1.39l-2.54,9h-2.7l-2.54-9Z" fill="#3a3d3f" />
				<path d="M196.76,81.58,199,89.42h.6l2.27-7.84h1.35l-3.75,13h-1.35l1.17-4H198l-2.56-9Z" fill="#3a3d3f" />
				<path d="M214.73,81.67l-.06,1.1s-1.44-.16-2.12-.16c-2.07,0-2.63.9-2.63,3.31,0,2.67.41,3.64,2.65,3.64.68,0,2.12-.16,2.12-.16l.05,1.12a24,24,0,0,1-2.5.25c-2.86,0-3.71-1.32-3.71-4.85,0-3.26,1.06-4.52,3.75-4.52A20.89,20.89,0,0,1,214.73,81.67Z" fill="#3a3d3f" />
				<path d="M224.07,86c0,3.27-.81,4.79-3.85,4.79s-3.86-1.52-3.86-4.79c0-3.1,1-4.58,3.86-4.58S224.07,82.88,224.07,86Zm-1.39,0c0-2.5-.54-3.41-2.46-3.41s-2.47.91-2.47,3.41.34,3.62,2.47,3.62S222.68,88.53,222.68,86Z" fill="#3a3d3f" />
				<path d="M226.26,90.59v-9h1.33v.64a6.8,6.8,0,0,1,2.8-.82c2.48,0,3,1.23,3,4.43v4.76H232.1V85.87c0-2.38-.27-3.26-1.95-3.26a6.12,6.12,0,0,0-2.54.67v7.31Z" fill="#3a3d3f" />
				<path d="M235.53,92.1c0-1,.49-1.53,1.42-2.23a1.48,1.48,0,0,1-.5-1.24,5.75,5.75,0,0,1,.61-1.43c-.75-.34-1.42-1.06-1.42-2.72,0-2.21,1.37-3.08,3.37-3.08a9.07,9.07,0,0,1,1.87.24l2.66-.07v1.15l-1.71,0a2.33,2.33,0,0,1,.6,1.8c0,2.34-1.17,3-3.48,3a6.85,6.85,0,0,1-.88-.08,5.56,5.56,0,0,0-.32,1c0,.72.14.83,2.18.83,2.55,0,3.47.5,3.47,2.65s-1.46,2.86-4,2.86C236.56,94.82,235.53,94.19,235.53,92.1Zm2.34-1.69c-.75.56-1,.88-1,1.58,0,1.24.53,1.69,2.56,1.69,1.8,0,2.61-.48,2.61-1.67,0-1.37-.57-1.51-2.21-1.51C239.19,90.5,237.87,90.41,237.87,90.41Zm3.21-5.93c0-1.42-.56-2-2.07-2s-2,.56-2,2,.61,2,2,2S241.08,85.91,241.08,84.48Z" fill="#3a3d3f" />
				<path d="M251.82,89.42l0,1.06a31.12,31.12,0,0,1-3.51.29c-2.68,0-3.57-1.57-3.57-4.63,0-3.42,1.48-4.74,3.77-4.74s3.62,1.26,3.62,4.22l-.08,1h-5.94c0,1.93.6,2.94,2.36,2.94C249.86,89.58,251.82,89.42,251.82,89.42Zm-1-3.86c0-2.23-.69-3-2.27-3s-2.4.85-2.42,3Z" fill="#3a3d3f" />
				<path d="M260.25,82.9a29.33,29.33,0,0,0-3.15-.29c-1.12,0-2,.31-2,1.37,0,.85.44,1.08,2.34,1.4,2.26.38,3.1.83,3.1,2.58,0,2.1-1.33,2.81-3.49,2.81a25.65,25.65,0,0,1-3.17-.34l.07-1.18a29.5,29.5,0,0,0,3,.31c1.48,0,2.27-.32,2.27-1.55,0-.93-.47-1.17-2.43-1.47s-3-.71-3-2.51c0-2,1.61-2.63,3.24-2.63a22.35,22.35,0,0,1,3.26.35Z" fill="#3a3d3f" />
				<path d="M264.44,82.75v4.31c0,2,.13,2.52,1.3,2.52.5,0,1.6-.11,1.6-.11l.09,1.12a15.71,15.71,0,0,1-1.84.2c-1.85,0-2.48-.71-2.48-3.3V82.75h-1.28V81.58h1.28V78.83h1.33v2.75h2.86v1.17Z" fill="#3a3d3f" />
				<path d="M269,78h1.35v1.57H269Zm0,3.6h1.35v9H269Z" fill="#3a3d3f" />
				<path d="M280.21,86c0,3.27-.81,4.79-3.85,4.79S272.5,89.25,272.5,86c0-3.1,1-4.58,3.86-4.58S280.21,82.88,280.21,86Zm-1.39,0c0-2.5-.54-3.41-2.46-3.41s-2.47.91-2.47,3.41.34,3.62,2.47,3.62S278.82,88.53,278.82,86Z" fill="#3a3d3f" />
				<path d="M282.41,90.59v-9h1.33v.64a6.79,6.79,0,0,1,2.79-.82c2.48,0,3,1.23,3,4.43v4.76h-1.33V85.87c0-2.38-.27-3.26-1.95-3.26a6.18,6.18,0,0,0-2.54.67v7.31Z" fill="#3a3d3f" />
				<path d="M303.34,86c0,3.27-.81,4.79-3.85,4.79s-3.86-1.52-3.86-4.79c0-3.1,1-4.58,3.86-4.58S303.34,82.88,303.34,86ZM302,86c0-2.5-.54-3.41-2.46-3.41S297,83.48,297,86s.34,3.62,2.47,3.62S302,88.53,302,86Z" fill="#3a3d3f" />
				<path d="M305.53,90.59v-9h1.34v.64a6.79,6.79,0,0,1,2.79-.82c2.48,0,3,1.23,3,4.43v4.76h-1.33V85.87c0-2.38-.27-3.26-1.95-3.26a6.18,6.18,0,0,0-2.54.67v7.31Z" fill="#3a3d3f" />
				<path d="M319.39,78.13H327v1.22h-6.19v4.3h5.11v1.21h-5.11v4.5H327v1.23h-7.58Z" fill="#3a3d3f" />
				<path d="M334.3,88.26h-5.76V87.18l3.38-8.48h1.52L330,87h4.3V83.33h1.39V87h1.51v1.22h-1.51v2.33H334.3Z" fill="#3a3d3f" />
				<path d="M346.49,78.7V80h-5.78l-.33,3.88a6.87,6.87,0,0,1,2.79-.74c2.33,0,3.79,1,3.79,3.51,0,2.74-1.5,4.14-4,4.14a19.76,19.76,0,0,1-4-.52l.16-1.1a24.25,24.25,0,0,0,3.66.39,2.5,2.5,0,0,0,2.68-2.8c0-1.8-1-2.38-2.52-2.38a6.81,6.81,0,0,0-2.82.72l-1-.18.32-6.18Z" fill="#3a3d3f" />
				<path d="M353.24,90.59V77.66h1.34v4.43a7.64,7.64,0,0,1,2.78-.69c2.47,0,3,1.23,3,4.43v4.76h-1.35V85.87c0-2.38-.27-3.26-1.93-3.26a7.48,7.48,0,0,0-2.54.54v7.44Z" fill="#3a3d3f" />
				<path d="M362.9,78h1.35v1.57H362.9Zm0,3.6h1.35v9H362.9Z" fill="#3a3d3f" />
				<path d="M366.45,92.1c0-1,.48-1.53,1.42-2.23a1.46,1.46,0,0,1-.51-1.24A5.7,5.7,0,0,1,368,87.2c-.76-.34-1.43-1.06-1.43-2.72,0-2.21,1.37-3.08,3.37-3.08a9.07,9.07,0,0,1,1.87.24l2.67-.07v1.15l-1.71,0a2.37,2.37,0,0,1,.59,1.8c0,2.34-1.17,3-3.47,3a6.69,6.69,0,0,1-.88-.08,5.44,5.44,0,0,0-.33,1c0,.72.14.83,2.18.83,2.56,0,3.47.5,3.47,2.65s-1.45,2.86-4,2.86C367.47,94.82,366.45,94.19,366.45,92.1Zm2.34-1.69c-.76.56-1,.88-1,1.58,0,1.24.52,1.69,2.55,1.69,1.81,0,2.62-.48,2.62-1.67,0-1.37-.58-1.51-2.22-1.51C370.1,90.5,368.79,90.41,368.79,90.41Zm3.2-5.93c0-1.42-.56-2-2.07-2s-2,.56-2,2,.62,2,2,2S372,85.91,372,84.48Z" fill="#3a3d3f" />
				<path d="M376.09,90.59V77.66h1.35v4.43a7.57,7.57,0,0,1,2.78-.69c2.46,0,3,1.23,3,4.43v4.76h-1.35V85.87c0-2.38-.27-3.26-1.93-3.26a7.48,7.48,0,0,0-2.54.54v7.44Z" fill="#3a3d3f" />
				<path d="M386.37,81.58l1.82,7.84h.29l2.14-7.66H392l2.14,7.66h.3l1.81-7.84h1.35l-2.15,9h-2.25l-1.91-7-1.9,7h-2.25l-2.15-9Z" fill="#3a3d3f" />
				<path d="M405.83,88.91c0,.53.47.72,1.05.8l-.06,1.06a2.75,2.75,0,0,1-2.14-.72,9.2,9.2,0,0,1-3.24.72c-1.64,0-2.54-.94-2.54-2.76s.9-2.48,2.75-2.66l2.83-.27V84.3c0-1.26-.54-1.71-1.62-1.71-1.26,0-3.4.24-3.4.24l-.06-1a21.6,21.6,0,0,1,3.53-.4c2,0,2.9.94,2.9,2.9Zm-4-2.55c-1.1.1-1.53.63-1.53,1.62s.45,1.65,1.36,1.65a9.48,9.48,0,0,0,2.83-.56v-3Z" fill="#3a3d3f" />
				<path d="M409,81.58l2.25,7.84h.59l2.27-7.84h1.35l-3.74,13h-1.35l1.17-4H410.2l-2.55-9Z" fill="#3a3d3f" />
				<path d="M428.4,85.94c0,3.58-1,4.83-4.25,4.83-1.08,0-3-.2-3-.2V77.66h1.33V82a7.44,7.44,0,0,1,2.65-.63C427.58,81.4,428.4,82.7,428.4,85.94Zm-1.36,0c0-2.32-.47-3.33-2.06-3.33a7.57,7.57,0,0,0-2.5.52v6.34s1.17.09,1.66.09C426.6,89.56,427,88.46,427,85.94Z" fill="#3a3d3f" />
				<path d="M437.26,89.42l0,1.06a31.12,31.12,0,0,1-3.51.29c-2.68,0-3.56-1.57-3.56-4.63,0-3.42,1.48-4.74,3.76-4.74s3.62,1.26,3.62,4.22l-.07,1h-5.94c0,1.93.59,2.94,2.36,2.94C435.3,89.58,437.26,89.42,437.26,89.42Zm-1-3.86c0-2.23-.68-3-2.27-3s-2.39.85-2.41,3Z" fill="#3a3d3f" />
				<path d="M445.52,81.67l0,1.1s-1.44-.16-2.13-.16c-2.07,0-2.63.9-2.63,3.31,0,2.67.42,3.64,2.65,3.64.68,0,2.12-.16,2.12-.16l.06,1.12a24.28,24.28,0,0,1-2.5.25c-2.87,0-3.71-1.32-3.71-4.85,0-3.26,1.06-4.52,3.74-4.52A20.89,20.89,0,0,1,445.52,81.67Z" fill="#3a3d3f" />
				<path d="M453.91,88.91c0,.53.47.72,1,.8l-.05,1.06a2.74,2.74,0,0,1-2.14-.72,9.22,9.22,0,0,1-3.25.72c-1.63,0-2.53-.94-2.53-2.76s.9-2.48,2.75-2.66l2.83-.27V84.3c0-1.26-.54-1.71-1.62-1.71-1.26,0-3.41.24-3.41.24l0-1a21.6,21.6,0,0,1,3.53-.4c2,0,2.9.94,2.9,2.9Zm-4-2.55c-1.1.1-1.53.63-1.53,1.62s.45,1.65,1.37,1.65a9.57,9.57,0,0,0,2.83-.56v-3Z" fill="#3a3d3f" />
				<path d="M463.54,81.58v9h-1.35V90a6.08,6.08,0,0,1-2.67.81c-2.52,0-3-1.17-3-4.49v-4.7h1.35v4.69c0,2.48.22,3.29,1.89,3.29a5.47,5.47,0,0,0,2.47-.67V81.58Z" fill="#3a3d3f" />
				<path d="M472.11,82.9a29.33,29.33,0,0,0-3.16-.29c-1.11,0-2,.31-2,1.37,0,.85.43,1.08,2.34,1.4,2.25.38,3.1.83,3.1,2.58,0,2.1-1.33,2.81-3.49,2.81a25.4,25.4,0,0,1-3.17-.34l.07-1.18a29.5,29.5,0,0,0,3,.31c1.48,0,2.27-.32,2.27-1.55,0-.93-.47-1.17-2.43-1.47s-3-.71-3-2.51c0-2,1.6-2.63,3.24-2.63a22.55,22.55,0,0,1,3.26.35Z" fill="#3a3d3f" />
				<path d="M481.14,89.42l0,1.06a31.12,31.12,0,0,1-3.51.29c-2.69,0-3.57-1.57-3.57-4.63,0-3.42,1.48-4.74,3.76-4.74s3.62,1.26,3.62,4.22l-.07,1h-5.94c0,1.93.59,2.94,2.36,2.94C479.18,89.58,481.14,89.42,481.14,89.42Zm-1-3.86c0-2.23-.68-3-2.27-3s-2.39.85-2.41,3Z" fill="#3a3d3f" />
				<path d="M494.86,86c0,3.27-.81,4.79-3.86,4.79s-3.85-1.52-3.85-4.79c0-3.1,1-4.58,3.85-4.58S494.86,82.88,494.86,86Zm-1.39,0c0-2.5-.54-3.41-2.47-3.41s-2.46.91-2.46,3.41.34,3.62,2.46,3.62S493.47,88.53,493.47,86Z" fill="#3a3d3f" />
				<path d="M498.78,90.59h-1.35V82.75h-1.14V81.58h1.14v-.81c0-2.59.67-3.29,2.43-3.29.61,0,1.82.13,1.82.13l0,1.11s-1,0-1.55,0c-1,0-1.33.43-1.33,2.1v.79h2.61v1.17h-2.61Z" fill="#3a3d3f" />
				<path d="M513.33,88.91c0,.53.46.72,1,.8l0,1.06a2.76,2.76,0,0,1-2.15-.72,9.2,9.2,0,0,1-3.24.72c-1.64,0-2.54-.94-2.54-2.76s.9-2.48,2.76-2.66l2.82-.27V84.3c0-1.26-.54-1.71-1.62-1.71-1.26,0-3.4.24-3.4.24l-.05-1a21.6,21.6,0,0,1,3.53-.4c2,0,2.9.94,2.9,2.9Zm-4-2.55c-1.1.1-1.53.63-1.53,1.62s.45,1.65,1.37,1.65a9.47,9.47,0,0,0,2.82-.56v-3Z" fill="#3a3d3f" />
				<path d="M520,90.59v-9h1.33v.64a6,6,0,0,1,2.63-.82,2.54,2.54,0,0,1,2.34.92,7.46,7.46,0,0,1,3.2-.92c2.45,0,3,1.17,3,4.43v4.76h-1.35V85.87c0-2.38-.27-3.26-1.89-3.26a5.89,5.89,0,0,0-2.54.67,10.34,10.34,0,0,1,.23,2.63v4.68H525.6V85.94c0-2.48-.25-3.33-1.89-3.33a5.34,5.34,0,0,0-2.41.67v7.31Z" fill="#3a3d3f" />
				<path d="M541.35,88.91c0,.53.47.72,1,.8l0,1.06a2.75,2.75,0,0,1-2.14-.72,9.2,9.2,0,0,1-3.24.72c-1.64,0-2.54-.94-2.54-2.76s.9-2.48,2.75-2.66l2.83-.27V84.3c0-1.26-.54-1.71-1.62-1.71-1.26,0-3.4.24-3.4.24l-.06-1a21.6,21.6,0,0,1,3.53-.4c2,0,2.9.94,2.9,2.9Zm-4-2.55A1.44,1.44,0,0,0,535.8,88c0,1,.45,1.65,1.37,1.65a9.48,9.48,0,0,0,2.83-.56v-3Z" fill="#3a3d3f" />
				<path d="M544,81.58h1.33v8.79c0,2.22-.59,3-3,4.23l-.54-1c1.82-1.06,2.2-1.48,2.2-3.21Zm0-3.6h1.33v1.57H544Z" fill="#3a3d3f" />
				<path d="M555.26,86c0,3.27-.81,4.79-3.85,4.79s-3.85-1.52-3.85-4.79c0-3.1,1-4.58,3.85-4.58S555.26,82.88,555.26,86Zm-1.38,0c0-2.5-.54-3.41-2.47-3.41s-2.47.91-2.47,3.41.35,3.62,2.47,3.62S553.88,88.53,553.88,86Z" fill="#3a3d3f" />
				<path d="M557.46,81.58h1.33v1.23a10.18,10.18,0,0,1,3.29-1.42v1.36A13.24,13.24,0,0,0,558.81,84v6.61h-1.35Z" fill="#3a3d3f" />
				<path d="M72.23,108.58h1.33v1.23a10.17,10.17,0,0,1,3.3-1.42v1.36A13.41,13.41,0,0,0,73.58,111v6.61H72.23Z" fill="#3a3d3f" />
				<path d="M85.77,113c0,3.27-.81,4.79-3.85,4.79s-3.86-1.52-3.86-4.79c0-3.1,1-4.58,3.86-4.58S85.77,109.88,85.77,113Zm-1.39,0c0-2.5-.54-3.41-2.46-3.41s-2.47.91-2.47,3.41.34,3.62,2.47,3.62S84.38,115.53,84.38,113Z" fill="#3a3d3f" />
				<path d="M94.32,115.91c0,.53.47.72,1,.8l0,1.06a2.74,2.74,0,0,1-2.14-.72,9.29,9.29,0,0,1-3.25.72c-1.63,0-2.53-.94-2.53-2.76s.9-2.48,2.75-2.66l2.83-.27v-.78c0-1.26-.54-1.71-1.62-1.71-1.26,0-3.41.24-3.41.24l0-1a21.6,21.6,0,0,1,3.53-.4c2,0,2.9.94,2.9,2.9Zm-4-2.55c-1.1.1-1.53.63-1.53,1.62s.45,1.65,1.37,1.65a9.57,9.57,0,0,0,2.83-.56v-3Z" fill="#3a3d3f" />
				<path d="M103.89,117.59h-1.33V117a6.49,6.49,0,0,1-2.74.79c-1.76,0-3.24-.72-3.24-4.61,0-3.17,1-4.76,3.77-4.76a14.12,14.12,0,0,1,2.21.24v-4h1.33Zm-1.33-1.7v-6.1a15.75,15.75,0,0,0-2.14-.22c-1.89,0-2.45,1.25-2.45,3.59,0,2.91,1,3.4,2,3.4A6.53,6.53,0,0,0,102.56,115.89Z" fill="#3a3d3f" />
				<path d="M116.82,115.91c0,.53.46.72,1,.8l0,1.06a2.76,2.76,0,0,1-2.15-.72,9.2,9.2,0,0,1-3.24.72c-1.64,0-2.54-.94-2.54-2.76s.9-2.48,2.76-2.66l2.83-.27v-.78c0-1.26-.54-1.71-1.62-1.71-1.27,0-3.41.24-3.41.24l0-1a21.6,21.6,0,0,1,3.53-.4c2,0,2.9.94,2.9,2.9Zm-4-2.55c-1.1.1-1.53.63-1.53,1.62s.45,1.65,1.37,1.65a9.57,9.57,0,0,0,2.83-.56v-3Z" fill="#3a3d3f" />
				<path d="M125.29,108.67l-.05,1.1s-1.44-.16-2.12-.16c-2.08,0-2.63.9-2.63,3.31,0,2.67.41,3.64,2.64,3.64.69,0,2.13-.16,2.13-.16l0,1.12a24,24,0,0,1-2.5.25c-2.86,0-3.71-1.32-3.71-4.85,0-3.26,1.06-4.52,3.74-4.52A20.89,20.89,0,0,1,125.29,108.67Z" fill="#3a3d3f" />
				<path d="M133.14,108.67l0,1.1s-1.44-.16-2.13-.16c-2.07,0-2.63.9-2.63,3.31,0,2.67.42,3.64,2.65,3.64.69,0,2.13-.16,2.13-.16l0,1.12a24,24,0,0,1-2.5.25c-2.87,0-3.71-1.32-3.71-4.85,0-3.26,1.06-4.52,3.74-4.52A20.89,20.89,0,0,1,133.14,108.67Z" fill="#3a3d3f" />
				<path d="M135.17,105h1.35v1.57h-1.35Zm0,3.6h1.35v9h-1.35Z" fill="#3a3d3f" />
				<path d="M146,117.59H144.7V117a6.49,6.49,0,0,1-2.74.79c-1.76,0-3.24-.72-3.24-4.61,0-3.17,1-4.76,3.76-4.76a14.13,14.13,0,0,1,2.22.24v-4H146Zm-1.33-1.7v-6.1a15.93,15.93,0,0,0-2.15-.22c-1.89,0-2.44,1.25-2.44,3.59,0,2.91.95,3.4,2,3.4A6.54,6.54,0,0,0,144.7,115.89Z" fill="#3a3d3f" />
				<path d="M155.28,116.42l0,1.06a31.38,31.38,0,0,1-3.51.29c-2.69,0-3.57-1.57-3.57-4.63,0-3.42,1.48-4.74,3.76-4.74s3.62,1.26,3.62,4.22l-.07,1h-5.94c0,1.93.59,2.94,2.36,2.94C153.32,116.58,155.28,116.42,155.28,116.42Zm-1-3.86c0-2.23-.68-3-2.27-3s-2.39.85-2.41,3Z" fill="#3a3d3f" />
				<path d="M157.73,117.59v-9h1.33v.64a6.79,6.79,0,0,1,2.79-.82c2.48,0,3,1.23,3,4.43v4.76h-1.33v-4.72c0-2.38-.27-3.26-1.94-3.26a6.12,6.12,0,0,0-2.54.67v7.31Z" fill="#3a3d3f" />
				<path d="M169.19,109.75v4.31c0,2,.13,2.52,1.3,2.52.5,0,1.6-.11,1.6-.11l.09,1.12a15.44,15.44,0,0,1-1.83.2c-1.86,0-2.49-.71-2.49-3.3v-4.74h-1.28v-1.17h1.28v-2.75h1.33v2.75h2.87v1.17Z" fill="#3a3d3f" />
				<path d="M173.62,115.53h1.48v2.06h-1.48Z" fill="#3a3d3f" />
				<path d="M180.5,105.13h9v1.24h-3.8v11.22h-1.37V106.37H180.5Z" fill="#3a3d3f" />
				<path d="M191,117.59V104.66h1.35v4.43a7.55,7.55,0,0,1,2.77-.69c2.47,0,3,1.23,3,4.43v4.76h-1.35v-4.72c0-2.38-.27-3.26-1.92-3.26a7.41,7.41,0,0,0-2.54.54v7.44Z" fill="#3a3d3f" />
				<path d="M200.69,105H202v1.57h-1.35Zm0,3.6H202v9h-1.35Z" fill="#3a3d3f" />
				<path d="M210.61,109.9a29.33,29.33,0,0,0-3.15-.29c-1.11,0-2,.31-2,1.37,0,.85.43,1.08,2.34,1.4,2.25.38,3.1.83,3.1,2.58,0,2.1-1.34,2.81-3.5,2.81a25.4,25.4,0,0,1-3.16-.34l.07-1.18a29.5,29.5,0,0,0,3,.31c1.47,0,2.27-.32,2.27-1.55,0-.93-.47-1.17-2.43-1.47s-3-.71-3-2.51c0-2,1.6-2.63,3.24-2.63a22.55,22.55,0,0,1,3.26.35Z" fill="#3a3d3f" />
				<path d="M217,117.59v-9h1.33v.64a6,6,0,0,1,2.63-.82,2.54,2.54,0,0,1,2.34.92,7.46,7.46,0,0,1,3.2-.92c2.45,0,3,1.17,3,4.43v4.76h-1.34v-4.72c0-2.38-.28-3.26-1.9-3.26a5.88,5.88,0,0,0-2.53.67,10.34,10.34,0,0,1,.23,2.63v4.68h-1.35v-4.65c0-2.48-.25-3.33-1.89-3.33a5.34,5.34,0,0,0-2.41.67v7.31Z" fill="#3a3d3f" />
				<path d="M238.37,115.91c0,.53.47.72,1,.8l0,1.06a2.75,2.75,0,0,1-2.14-.72,9.2,9.2,0,0,1-3.24.72c-1.64,0-2.54-.94-2.54-2.76s.9-2.48,2.75-2.66l2.83-.27v-.78c0-1.26-.54-1.71-1.62-1.71-1.26,0-3.4.24-3.4.24l-.06-1a21.6,21.6,0,0,1,3.53-.4c2,0,2.9.94,2.9,2.9Zm-4-2.55a1.44,1.44,0,0,0-1.53,1.62c0,1,.45,1.65,1.37,1.65a9.57,9.57,0,0,0,2.83-.56v-3Z" fill="#3a3d3f" />
				<path d="M241.54,108.58l2.25,7.84h.59l2.27-7.84H248l-3.75,13H242.9l1.17-4h-1.33l-2.56-9Z" fill="#3a3d3f" />
				<path d="M259.5,108.67l-.05,1.1s-1.45-.16-2.13-.16c-2.07,0-2.63.9-2.63,3.31,0,2.67.42,3.64,2.65,3.64.68,0,2.12-.16,2.12-.16l.06,1.12a24.24,24.24,0,0,1-2.51.25c-2.86,0-3.7-1.32-3.7-4.85,0-3.26,1.06-4.52,3.74-4.52A20.89,20.89,0,0,1,259.5,108.67Z" fill="#3a3d3f" />
				<path d="M267.89,115.91c0,.53.47.72,1,.8l-.05,1.06a2.74,2.74,0,0,1-2.14-.72,9.22,9.22,0,0,1-3.25.72c-1.63,0-2.53-.94-2.53-2.76s.9-2.48,2.75-2.66l2.83-.27v-.78c0-1.26-.54-1.71-1.62-1.71-1.26,0-3.41.24-3.41.24l-.05-1a21.6,21.6,0,0,1,3.53-.4c2,0,2.9.94,2.9,2.9Zm-4-2.55c-1.1.1-1.53.63-1.53,1.62s.45,1.65,1.37,1.65a9.57,9.57,0,0,0,2.83-.56v-3Z" fill="#3a3d3f" />
				<path d="M277.52,108.58v9h-1.35V117a6.08,6.08,0,0,1-2.67.81c-2.52,0-3-1.17-3-4.49v-4.7h1.35v4.69c0,2.48.22,3.29,1.89,3.29a5.47,5.47,0,0,0,2.47-.67v-7.31Z" fill="#3a3d3f" />
				<path d="M286.08,109.9a29,29,0,0,0-3.15-.29c-1.11,0-2,.31-2,1.37,0,.85.43,1.08,2.34,1.4,2.25.38,3.1.83,3.1,2.58,0,2.1-1.33,2.81-3.49,2.81a25.4,25.4,0,0,1-3.17-.34l.07-1.18a29.5,29.5,0,0,0,3,.31c1.48,0,2.27-.32,2.27-1.55,0-.93-.47-1.17-2.43-1.47s-3-.71-3-2.51c0-2,1.6-2.63,3.24-2.63a22.55,22.55,0,0,1,3.26.35Z" fill="#3a3d3f" />
				<path d="M295.12,116.42l0,1.06a31.38,31.38,0,0,1-3.51.29c-2.69,0-3.57-1.57-3.57-4.63,0-3.42,1.48-4.74,3.76-4.74s3.62,1.26,3.62,4.22l-.07,1h-5.94c0,1.93.59,2.94,2.36,2.94C293.16,116.58,295.12,116.42,295.12,116.42Zm-1-3.86c0-2.23-.68-3-2.27-3s-2.39.85-2.41,3Z" fill="#3a3d3f" />
				<path d="M307.88,115.91c0,.53.47.72,1.05.8l-.06,1.06a2.75,2.75,0,0,1-2.14-.72,9.2,9.2,0,0,1-3.24.72c-1.64,0-2.54-.94-2.54-2.76s.9-2.48,2.76-2.66l2.82-.27v-.78c0-1.26-.54-1.71-1.62-1.71-1.26,0-3.4.24-3.4.24l-.05-1a21.57,21.57,0,0,1,3.52-.4c2,0,2.9.94,2.9,2.9Zm-4-2.55c-1.1.1-1.53.63-1.53,1.62s.45,1.65,1.37,1.65a9.47,9.47,0,0,0,2.82-.56v-3Z" fill="#3a3d3f" />
				<path d="M314.11,119.1c0-1,.48-1.53,1.42-2.23a1.48,1.48,0,0,1-.5-1.24,5.75,5.75,0,0,1,.61-1.43c-.76-.34-1.42-1.06-1.42-2.72,0-2.21,1.36-3.08,3.36-3.08a9.22,9.22,0,0,1,1.88.24l2.66-.07v1.15l-1.71,0a2.37,2.37,0,0,1,.59,1.8c0,2.34-1.17,3-3.47,3a6.69,6.69,0,0,1-.88-.08,5.44,5.44,0,0,0-.33,1c0,.72.15.83,2.18.83,2.56,0,3.48.5,3.48,2.65s-1.46,2.86-4,2.86C315.13,121.82,314.11,121.19,314.11,119.1Zm2.34-1.69c-.76.56-1,.88-1,1.58,0,1.24.52,1.69,2.56,1.69,1.8,0,2.61-.48,2.61-1.67,0-1.37-.58-1.51-2.22-1.51C317.76,117.5,316.45,117.41,316.45,117.41Zm3.2-5.93c0-1.42-.55-2-2.07-2s-2,.56-2,2,.61,2,2,2S319.65,112.91,319.65,111.48Z" fill="#3a3d3f" />
				<path d="M323.76,108.58h1.33v1.23a10.18,10.18,0,0,1,3.29-1.42v1.36a13.24,13.24,0,0,0-3.27,1.23v6.61h-1.35Z" fill="#3a3d3f" />
				<path d="M337.29,113c0,3.27-.81,4.79-3.85,4.79s-3.85-1.52-3.85-4.79c0-3.1,1-4.58,3.85-4.58S337.29,109.88,337.29,113Zm-1.38,0c0-2.5-.54-3.41-2.47-3.41S331,110.48,331,113s.35,3.62,2.47,3.62S335.91,115.53,335.91,113Z" fill="#3a3d3f" />
				<path d="M346.46,108.58v9h-1.35V117a6.14,6.14,0,0,1-2.67.81c-2.52,0-3-1.17-3-4.49v-4.7h1.35v4.69c0,2.48.21,3.29,1.89,3.29a5.47,5.47,0,0,0,2.47-.67v-7.31Z" fill="#3a3d3f" />
				<path d="M349.05,108.58h1.33v.65a6.12,6.12,0,0,1,2.7-.83c2.27,0,3.26,1.39,3.26,4.58,0,3.53-1.15,4.79-3.93,4.79a12,12,0,0,1-2-.2v4h-1.35Zm1.35,1.75v6.07a12.78,12.78,0,0,0,1.94.2c2,0,2.63-1,2.63-3.62s-.77-3.37-2.09-3.37A5.86,5.86,0,0,0,350.4,110.33Z" fill="#3a3d3f" />
				<path d="M369.8,113c0,3.27-.81,4.79-3.85,4.79s-3.85-1.52-3.85-4.79c0-3.1,1-4.58,3.85-4.58S369.8,109.88,369.8,113Zm-1.38,0c0-2.5-.54-3.41-2.47-3.41s-2.47.91-2.47,3.41.34,3.62,2.47,3.62S368.42,115.53,368.42,113Z" fill="#3a3d3f" />
				<path d="M373.72,117.59h-1.35v-7.84h-1.13v-1.17h1.13v-.81c0-2.59.67-3.29,2.43-3.29.62,0,1.82.13,1.82.13l0,1.11s-1,0-1.54,0c-1,0-1.34.43-1.34,2.1v.79h2.61v1.17h-2.61Z" fill="#3a3d3f" />
				<path d="M381.91,108.58h1.34v.65a6.07,6.07,0,0,1,2.7-.83c2.27,0,3.26,1.39,3.26,4.58,0,3.53-1.16,4.79-3.93,4.79a12.16,12.16,0,0,1-2-.2v4h-1.35Zm1.35,1.75v6.07a13,13,0,0,0,1.95.2c2,0,2.63-1,2.63-3.62s-.78-3.37-2.09-3.37A5.87,5.87,0,0,0,383.26,110.33Z" fill="#3a3d3f" />
				<path d="M397.76,115.91c0,.53.46.72,1,.8l-.05,1.06a2.76,2.76,0,0,1-2.15-.72,9.2,9.2,0,0,1-3.24.72c-1.64,0-2.54-.94-2.54-2.76s.9-2.48,2.76-2.66l2.83-.27v-.78c0-1.26-.54-1.71-1.62-1.71-1.27,0-3.41.24-3.41.24l-.05-1a21.6,21.6,0,0,1,3.53-.4c2,0,2.9.94,2.9,2.9Zm-4-2.55c-1.1.1-1.53.63-1.53,1.62s.45,1.65,1.37,1.65a9.57,9.57,0,0,0,2.83-.56v-3Z" fill="#3a3d3f" />
				<path d="M406.4,109.9a29.33,29.33,0,0,0-3.16-.29c-1.11,0-2,.31-2,1.37,0,.85.43,1.08,2.34,1.4,2.25.38,3.1.83,3.1,2.58,0,2.1-1.33,2.81-3.49,2.81a25.4,25.4,0,0,1-3.17-.34l.07-1.18a29.5,29.5,0,0,0,3,.31c1.48,0,2.27-.32,2.27-1.55,0-.93-.47-1.17-2.43-1.47s-3-.71-3-2.51c0-2,1.6-2.63,3.24-2.63a22.55,22.55,0,0,1,3.26.35Z" fill="#3a3d3f" />
				<path d="M414.77,109.9a29.33,29.33,0,0,0-3.16-.29c-1.11,0-2,.31-2,1.37,0,.85.43,1.08,2.34,1.4,2.25.38,3.1.83,3.1,2.58,0,2.1-1.33,2.81-3.49,2.81a25.4,25.4,0,0,1-3.17-.34l.07-1.18a29.5,29.5,0,0,0,3,.31c1.48,0,2.27-.32,2.27-1.55,0-.93-.47-1.17-2.43-1.47s-3-.71-3-2.51c0-2,1.6-2.63,3.24-2.63a22.55,22.55,0,0,1,3.26.35Z" fill="#3a3d3f" />
				<path d="M423.8,116.42l0,1.06a31.12,31.12,0,0,1-3.51.29c-2.69,0-3.57-1.57-3.57-4.63,0-3.42,1.48-4.74,3.76-4.74s3.62,1.26,3.62,4.22l-.07,1h-5.94c0,1.93.59,2.94,2.36,2.94C421.84,116.58,423.8,116.42,423.8,116.42Zm-1-3.86c0-2.23-.68-3-2.27-3s-2.39.85-2.41,3Z" fill="#3a3d3f" />
				<path d="M426.25,117.59v-9h1.33v.64a6.79,6.79,0,0,1,2.79-.82c2.49,0,3,1.23,3,4.43v4.76h-1.33v-4.72c0-2.38-.27-3.26-1.94-3.26a6.12,6.12,0,0,0-2.54.67v7.31Z" fill="#3a3d3f" />
				<path d="M435.52,119.1c0-1,.48-1.53,1.42-2.23a1.48,1.48,0,0,1-.5-1.24,5.75,5.75,0,0,1,.61-1.43c-.76-.34-1.42-1.06-1.42-2.72,0-2.21,1.36-3.08,3.36-3.08a9.22,9.22,0,0,1,1.88.24l2.66-.07v1.15l-1.71,0a2.37,2.37,0,0,1,.59,1.8c0,2.34-1.17,3-3.47,3a6.69,6.69,0,0,1-.88-.08,5.44,5.44,0,0,0-.33,1c0,.72.15.83,2.18.83,2.56,0,3.48.5,3.48,2.65s-1.46,2.86-4,2.86C436.54,121.82,435.52,121.19,435.52,119.1Zm2.34-1.69c-.76.56-1,.88-1,1.58,0,1.24.52,1.69,2.56,1.69,1.8,0,2.61-.48,2.61-1.67,0-1.37-.58-1.51-2.22-1.51C439.17,117.5,437.86,117.41,437.86,117.41Zm3.2-5.93c0-1.42-.56-2-2.07-2s-2,.56-2,2,.61,2,2,2S441.06,112.91,441.06,111.48Z" fill="#3a3d3f" />
				<path d="M451.81,116.42l0,1.06a31.4,31.4,0,0,1-3.52.29c-2.68,0-3.56-1.57-3.56-4.63,0-3.42,1.48-4.74,3.76-4.74s3.62,1.26,3.62,4.22l-.07,1h-5.94c0,1.93.59,2.94,2.36,2.94C449.85,116.58,451.81,116.42,451.81,116.42Zm-1-3.86c0-2.23-.68-3-2.27-3s-2.39.85-2.41,3Z" fill="#3a3d3f" />
				<path d="M454.25,108.58h1.34v1.23a10.06,10.06,0,0,1,3.29-1.42v1.36a13.24,13.24,0,0,0-3.27,1.23v6.61h-1.36Z" fill="#3a3d3f" />
				<path d="M466.46,109.9a29.33,29.33,0,0,0-3.15-.29c-1.12,0-2,.31-2,1.37,0,.85.43,1.08,2.34,1.4,2.25.38,3.1.83,3.1,2.58,0,2.1-1.34,2.81-3.5,2.81a25.65,25.65,0,0,1-3.17-.34l.07-1.18a29.8,29.8,0,0,0,3,.31c1.47,0,2.26-.32,2.26-1.55,0-.93-.46-1.17-2.43-1.47s-3-.71-3-2.51c0-2,1.6-2.63,3.24-2.63a22.55,22.55,0,0,1,3.26.35Z" fill="#3a3d3f" />
				<path d="M474.61,109.75v4.31c0,2,.13,2.52,1.3,2.52.5,0,1.6-.11,1.6-.11l.09,1.12a15.44,15.44,0,0,1-1.83.2c-1.86,0-2.49-.71-2.49-3.3v-4.74H472v-1.17h1.28v-2.75h1.33v2.75h2.87v1.17Z" fill="#3a3d3f" />
				<path d="M486.44,113c0,3.27-.81,4.79-3.85,4.79s-3.85-1.52-3.85-4.79c0-3.1,1-4.58,3.85-4.58S486.44,109.88,486.44,113Zm-1.39,0c0-2.5-.54-3.41-2.46-3.41s-2.47.91-2.47,3.41.34,3.62,2.47,3.62S485.05,115.53,485.05,113Z" fill="#3a3d3f" />
				<path d="M499,115.91c0,.53.47.72,1.05.8l-.06,1.06a2.75,2.75,0,0,1-2.14-.72,9.2,9.2,0,0,1-3.24.72c-1.64,0-2.54-.94-2.54-2.76s.9-2.48,2.75-2.66l2.83-.27v-.78c0-1.26-.54-1.71-1.62-1.71-1.26,0-3.4.24-3.4.24l-.06-1a21.6,21.6,0,0,1,3.53-.4c2,0,2.9.94,2.9,2.9Zm-4-2.55c-1.1.1-1.53.63-1.53,1.62s.45,1.65,1.36,1.65a9.48,9.48,0,0,0,2.83-.56v-3Z" fill="#3a3d3f" />
				<path d="M501.61,108.58H503v1.23a10.06,10.06,0,0,1,3.29-1.42v1.36A13.41,13.41,0,0,0,503,111v6.61h-1.35Z" fill="#3a3d3f" />
				<path d="M507.84,108.58h1.33v1.23a10.17,10.17,0,0,1,3.3-1.42v1.36a13.41,13.41,0,0,0-3.28,1.23v6.61h-1.35Z" fill="#3a3d3f" />
				<path d="M514.07,105h1.35v1.57h-1.35Zm0,3.6h1.35v9h-1.35Z" fill="#3a3d3f" />
				<path d="M518.6,108.58l2.11,7.84h.67l2.18-7.84h1.38l-2.54,9h-2.7l-2.54-9Z" fill="#3a3d3f" />
				<path d="M533.31,116.42l0,1.06a31.12,31.12,0,0,1-3.51.29c-2.69,0-3.57-1.57-3.57-4.63,0-3.42,1.48-4.74,3.77-4.74s3.61,1.26,3.61,4.22l-.07,1h-5.94c0,1.93.6,2.94,2.36,2.94C531.35,116.58,533.31,116.42,533.31,116.42Zm-1-3.86c0-2.23-.68-3-2.26-3s-2.4.85-2.42,3Z" fill="#3a3d3f" />
				<path d="M539.83,104.66h1.35v12.93h-1.35Z" fill="#3a3d3f" />
				<path d="M550.23,115.91c0,.53.47.72,1,.8l-.06,1.06a2.75,2.75,0,0,1-2.14-.72,9.2,9.2,0,0,1-3.24.72c-1.64,0-2.54-.94-2.54-2.76s.9-2.48,2.75-2.66l2.83-.27v-.78c0-1.26-.54-1.71-1.62-1.71-1.26,0-3.4.24-3.4.24l-.06-1a21.77,21.77,0,0,1,3.53-.4c2,0,2.9.94,2.9,2.9Zm-4-2.55c-1.1.1-1.53.63-1.53,1.62s.45,1.65,1.36,1.65a9.48,9.48,0,0,0,2.83-.56v-3Z" fill="#3a3d3f" />
				<path d="M554.69,109.75v4.31c0,2,.13,2.52,1.3,2.52.51,0,1.6-.11,1.6-.11l.09,1.12a15.44,15.44,0,0,1-1.83.2c-1.86,0-2.49-.71-2.49-3.3v-4.74h-1.28v-1.17h1.28v-2.75h1.33v2.75h2.87v1.17Z" fill="#3a3d3f" />
				<path d="M565.86,116.42l0,1.06a31.12,31.12,0,0,1-3.51.29c-2.68,0-3.56-1.57-3.56-4.63,0-3.42,1.47-4.74,3.76-4.74s3.62,1.26,3.62,4.22l-.07,1h-6c0,1.93.6,2.94,2.36,2.94C563.89,116.58,565.86,116.42,565.86,116.42Zm-1-3.86c0-2.23-.69-3-2.27-3s-2.4.85-2.41,3Z" fill="#3a3d3f" />
				<path d="M568.3,108.58h1.33v1.23a10.17,10.17,0,0,1,3.3-1.42v1.36a13.41,13.41,0,0,0-3.28,1.23v6.61H568.3Z" fill="#3a3d3f" />
				<path d="M184.19,136.75v4.31c0,2,.12,2.52,1.29,2.52.51,0,1.61-.11,1.61-.11l.09,1.12a15.71,15.71,0,0,1-1.84.2c-1.85,0-2.48-.71-2.48-3.3v-4.74h-1.28v-1.17h1.28v-2.75h1.33v2.75h2.86v1.17Z" fill="#3a3d3f" />
				<path d="M188.71,144.59V131.66h1.35v4.43a7.55,7.55,0,0,1,2.77-.69c2.47,0,3,1.23,3,4.43v4.76h-1.35v-4.72c0-2.38-.27-3.26-1.93-3.26a7.39,7.39,0,0,0-2.53.54v7.44Z" fill="#3a3d3f" />
				<path d="M204.73,142.91c0,.53.47.72,1,.8l-.05,1.06a2.74,2.74,0,0,1-2.14-.72,9.22,9.22,0,0,1-3.25.72c-1.63,0-2.53-.94-2.53-2.76s.9-2.48,2.75-2.66l2.83-.27v-.78c0-1.26-.54-1.71-1.62-1.71-1.26,0-3.41.24-3.41.24l0-1a21.6,21.6,0,0,1,3.53-.4c2,0,2.9.94,2.9,2.9Zm-4-2.55c-1.1.1-1.53.63-1.53,1.62s.45,1.65,1.37,1.65a9.57,9.57,0,0,0,2.83-.56v-3Z" fill="#3a3d3f" />
				<path d="M207.39,144.59v-9h1.33v.64a6.79,6.79,0,0,1,2.79-.82c2.49,0,3.05,1.23,3.05,4.43v4.76h-1.34v-4.72c0-2.38-.27-3.26-1.94-3.26a6.12,6.12,0,0,0-2.54.67v7.31Z" fill="#3a3d3f" />
				<path d="M227.66,143.42l0,1.06a31.4,31.4,0,0,1-3.52.29c-2.68,0-3.56-1.57-3.56-4.63,0-3.42,1.48-4.74,3.76-4.74s3.62,1.26,3.62,4.22l-.07,1H222c0,1.93.59,2.94,2.36,2.94C225.7,143.58,227.66,143.42,227.66,143.42Zm-1-3.86c0-2.23-.68-3-2.27-3s-2.39.85-2.41,3Z" fill="#3a3d3f" />
				<path d="M230.68,135.58l2.2,3.53,2.19-3.53h1.48l-2.86,4.47,2.84,4.54h-1.47l-2.18-3.51-2.2,3.51h-1.47l2.82-4.5-2.82-4.51Z" fill="#3a3d3f" />
				<path d="M238.24,135.58h1.33v.65a6.12,6.12,0,0,1,2.7-.83c2.27,0,3.26,1.39,3.26,4.58,0,3.53-1.15,4.79-3.92,4.79a12,12,0,0,1-2-.2v4h-1.35Zm1.35,1.75v6.07a13,13,0,0,0,1.95.2c2,0,2.62-1,2.62-3.62s-.77-3.37-2.08-3.37A5.87,5.87,0,0,0,239.59,137.33Z" fill="#3a3d3f" />
				<path d="M254.37,143.42l0,1.06a31.38,31.38,0,0,1-3.51.29c-2.69,0-3.57-1.57-3.57-4.63,0-3.42,1.48-4.74,3.76-4.74s3.62,1.26,3.62,4.22l-.07,1H248.7c0,1.93.59,2.94,2.36,2.94C252.41,143.58,254.37,143.42,254.37,143.42Zm-1-3.86c0-2.23-.68-3-2.27-3s-2.39.85-2.41,3Z" fill="#3a3d3f" />
				<path d="M262.63,135.67l-.05,1.1s-1.44-.16-2.13-.16c-2.07,0-2.62.9-2.62,3.31,0,2.67.41,3.64,2.64,3.64.69,0,2.13-.16,2.13-.16l0,1.12a24,24,0,0,1-2.5.25c-2.86,0-3.71-1.32-3.71-4.85,0-3.26,1.06-4.52,3.74-4.52A20.89,20.89,0,0,1,262.63,135.67Z" fill="#3a3d3f" />
				<path d="M266.46,136.75v4.31c0,2,.13,2.52,1.3,2.52.51,0,1.6-.11,1.6-.11l.09,1.12a15.44,15.44,0,0,1-1.83.2c-1.86,0-2.49-.71-2.49-3.3v-4.74h-1.28v-1.17h1.28v-2.75h1.33v2.75h2.87v1.17Z" fill="#3a3d3f" />
				<path d="M277.63,143.42l0,1.06a31.12,31.12,0,0,1-3.51.29c-2.68,0-3.56-1.57-3.56-4.63,0-3.42,1.47-4.74,3.76-4.74s3.62,1.26,3.62,4.22l-.07,1H272c0,1.93.59,2.94,2.35,2.94C275.66,143.58,277.63,143.42,277.63,143.42Zm-1-3.86c0-2.23-.69-3-2.27-3s-2.39.85-2.41,3Z" fill="#3a3d3f" />
				<path d="M287,144.59h-1.34V144a6.42,6.42,0,0,1-2.73.79c-1.77,0-3.24-.72-3.24-4.61,0-3.17,1-4.76,3.76-4.76a14.12,14.12,0,0,1,2.21.24v-4H287Zm-1.34-1.7v-6.1a15.56,15.56,0,0,0-2.14-.22c-1.89,0-2.45,1.25-2.45,3.59,0,2.91,1,3.4,2,3.4A6.47,6.47,0,0,0,285.65,142.89Z" fill="#3a3d3f" />
				<path d="M295.28,144.59h-1.35v-7.84H292.8v-1.17h1.13v-.81c0-2.59.67-3.29,2.43-3.29.62,0,1.82.13,1.82.13l0,1.11s-1,0-1.54,0c-1,0-1.34.43-1.34,2.1v.79h2.61v1.17h-2.61Z" fill="#3a3d3f" />
				<path d="M306.82,140c0,3.27-.81,4.79-3.85,4.79s-3.85-1.52-3.85-4.79c0-3.1,1-4.58,3.85-4.58S306.82,136.88,306.82,140Zm-1.38,0c0-2.5-.54-3.41-2.47-3.41s-2.47.91-2.47,3.41.34,3.62,2.47,3.62S305.44,142.53,305.44,140Z" fill="#3a3d3f" />
				<path d="M309,135.58h1.33v1.23a10.18,10.18,0,0,1,3.29-1.42v1.36a13.24,13.24,0,0,0-3.27,1.23v6.61H309Z" fill="#3a3d3f" />
				<path d="M325,135.67l0,1.1s-1.45-.16-2.13-.16c-2.07,0-2.63.9-2.63,3.31,0,2.67.42,3.64,2.65,3.64.68,0,2.12-.16,2.12-.16l.06,1.12a24.24,24.24,0,0,1-2.51.25c-2.86,0-3.7-1.32-3.7-4.85,0-3.26,1.06-4.52,3.74-4.52A20.89,20.89,0,0,1,325,135.67Z" fill="#3a3d3f" />
				<path d="M327.05,144.59V131.66h1.35v4.43a7.55,7.55,0,0,1,2.77-.69c2.47,0,3.05,1.23,3.05,4.43v4.76h-1.35v-4.72c0-2.38-.27-3.26-1.93-3.26a7.41,7.41,0,0,0-2.54.54v7.44Z" fill="#3a3d3f" />
				<path d="M343.36,143.42l0,1.06a31.38,31.38,0,0,1-3.51.29c-2.69,0-3.57-1.57-3.57-4.63,0-3.42,1.48-4.74,3.76-4.74s3.62,1.26,3.62,4.22l-.07,1h-5.94c0,1.93.59,2.94,2.36,2.94C341.4,143.58,343.36,143.42,343.36,143.42Zm-1-3.86c0-2.23-.68-3-2.27-3s-2.39.85-2.41,3Z" fill="#3a3d3f" />
				<path d="M351.62,135.67l-.05,1.1s-1.44-.16-2.13-.16c-2.07,0-2.62.9-2.62,3.31,0,2.67.41,3.64,2.64,3.64.69,0,2.13-.16,2.13-.16l.05,1.12a24,24,0,0,1-2.5.25c-2.86,0-3.71-1.32-3.71-4.85,0-3.26,1.06-4.52,3.74-4.52A20.89,20.89,0,0,1,351.62,135.67Z" fill="#3a3d3f" />
				<path d="M353.66,144.59V131.66H355v7.63l1.41-.07,2.57-3.64h1.53l-2.93,4.15,3.06,4.86h-1.53l-2.68-4.18-1.43.05v4.13Z" fill="#3a3d3f" />
				<path d="M362.21,139h5.45v1.26h-5.45Z" fill="#3a3d3f" />
				<path d="M370.16,132h1.35v1.57h-1.35Zm0,3.6h1.35v9h-1.35Z" fill="#3a3d3f" />
				<path d="M374.1,144.59v-9h1.33v.64a6.8,6.8,0,0,1,2.8-.82c2.48,0,3,1.23,3,4.43v4.76h-1.33v-4.72c0-2.38-.27-3.26-1.95-3.26a6.12,6.12,0,0,0-2.54.67v7.31Z" fill="#3a3d3f" />
				<path d="M395,140c0,3.27-.81,4.79-3.86,4.79s-3.85-1.52-3.85-4.79c0-3.1,1-4.58,3.85-4.58S395,136.88,395,140Zm-1.39,0c0-2.5-.54-3.41-2.47-3.41s-2.46.91-2.46,3.41.34,3.62,2.46,3.62S393.65,142.53,393.65,140Z" fill="#3a3d3f" />
				<path d="M397.23,135.58h1.33v.65a6.12,6.12,0,0,1,2.7-.83c2.27,0,3.26,1.39,3.26,4.58,0,3.53-1.15,4.79-3.92,4.79a12,12,0,0,1-2-.2v4h-1.35Zm1.35,1.75v6.07a13,13,0,0,0,1.95.2c2,0,2.63-1,2.63-3.62s-.78-3.37-2.09-3.37A5.87,5.87,0,0,0,398.58,137.33Z" fill="#3a3d3f" />
				<path d="M413.36,143.42l0,1.06a31.12,31.12,0,0,1-3.51.29c-2.69,0-3.57-1.57-3.57-4.63,0-3.42,1.48-4.74,3.76-4.74s3.62,1.26,3.62,4.22l-.07,1h-5.94c0,1.93.6,2.94,2.36,2.94C411.4,143.58,413.36,143.42,413.36,143.42Zm-1-3.86c0-2.23-.68-3-2.27-3s-2.39.85-2.41,3Z" fill="#3a3d3f" />
				<path d="M415.81,135.58h1.33v1.23a10.17,10.17,0,0,1,3.3-1.42v1.36a13.21,13.21,0,0,0-3.28,1.23v6.61h-1.35Z" fill="#3a3d3f" />
				<path d="M428.39,142.91c0,.53.47.72,1.05.8l-.06,1.06a2.75,2.75,0,0,1-2.14-.72,9.2,9.2,0,0,1-3.24.72c-1.64,0-2.54-.94-2.54-2.76s.9-2.48,2.75-2.66l2.83-.27v-.78c0-1.26-.54-1.71-1.62-1.71-1.26,0-3.4.24-3.4.24l-.06-1a21.6,21.6,0,0,1,3.53-.4c2,0,2.9.94,2.9,2.9Zm-4-2.55c-1.1.1-1.53.63-1.53,1.62s.45,1.65,1.36,1.65a9.48,9.48,0,0,0,2.83-.56v-3Z" fill="#3a3d3f" />
				<path d="M432.85,136.75v4.31c0,2,.13,2.52,1.3,2.52.5,0,1.6-.11,1.6-.11l.09,1.12a15.44,15.44,0,0,1-1.83.2c-1.86,0-2.49-.71-2.49-3.3v-4.74h-1.28v-1.17h1.28v-2.75h1.33v2.75h2.87v1.17Z" fill="#3a3d3f" />
				<path d="M437.37,132h1.35v1.57h-1.35Zm0,3.6h1.35v9h-1.35Z" fill="#3a3d3f" />
				<path d="M448.62,140c0,3.27-.81,4.79-3.85,4.79s-3.85-1.52-3.85-4.79c0-3.1,1-4.58,3.85-4.58S448.62,136.88,448.62,140Zm-1.38,0c0-2.5-.54-3.41-2.47-3.41s-2.47.91-2.47,3.41.35,3.62,2.47,3.62S447.24,142.53,447.24,140Z" fill="#3a3d3f" />
				<path d="M450.82,144.59v-9h1.33v.64a6.79,6.79,0,0,1,2.79-.82c2.48,0,3,1.23,3,4.43v4.76h-1.33v-4.72c0-2.38-.27-3.26-1.94-3.26a6.12,6.12,0,0,0-2.54.67v7.31Z" fill="#3a3d3f" />
				<path d="M460.39,142.53h1.48v2.06h-1.48Z" fill="#3a3d3f" />
				<path d="M99.17,247.71a18.72,18.72,0,0,1-3.44.38c-3.73,0-4.55-2.27-4.55-6.37s.81-6.45,4.55-6.45a18.5,18.5,0,0,1,3.44.39l0,1.18a21.38,21.38,0,0,0-3.24-.33c-2.78,0-3.26,1.66-3.26,5.21s.45,5.13,3.29,5.13a20,20,0,0,0,3.21-.33Z" fill="#3a3d3f" />
				<path d="M109,247.71a18.72,18.72,0,0,1-3.44.38c-3.72,0-4.55-2.27-4.55-6.37s.81-6.45,4.55-6.45a18.5,18.5,0,0,1,3.44.39l0,1.18a21.38,21.38,0,0,0-3.24-.33c-2.77,0-3.26,1.66-3.26,5.21s.45,5.13,3.29,5.13a20,20,0,0,0,3.21-.33Z" fill="#3a3d3f" />
				<path d="M112.62,243.71v4.2h-1.39V235.45h4.55c2.72,0,4,1.31,4,4s-1.26,4.25-4,4.25Zm3.15-1.22c1.81,0,2.57-1.1,2.57-3s-.76-2.79-2.57-2.79h-3.15v5.82Z" fill="#3a3d3f" />
				<path d="M125.63,235.31H127v1.56h-1.35Zm0,3.6H127v9h-1.35Z" fill="#3a3d3f" />
				<path d="M135.55,240.22a29.33,29.33,0,0,0-3.15-.29c-1.12,0-2,.31-2,1.37,0,.85.44,1.08,2.35,1.41,2.25.37,3.09.82,3.09,2.57,0,2.11-1.33,2.81-3.49,2.81a25.65,25.65,0,0,1-3.17-.34l.07-1.17s2.05.3,3,.3c1.48,0,2.27-.32,2.27-1.55,0-.93-.47-1.17-2.43-1.47s-3-.71-3-2.51c0-2,1.61-2.62,3.25-2.62a23,23,0,0,1,3.25.34Z" fill="#3a3d3f" />
				<path d="M141.9,247.91v-9h1.33v.63a6.85,6.85,0,0,1,2.79-.81c2.49,0,3,1.22,3,4.42v4.76h-1.34v-4.72c0-2.38-.27-3.26-1.94-3.26a6.12,6.12,0,0,0-2.54.67v7.31Z" fill="#3a3d3f" />
				<path d="M158.88,243.3c0,3.28-.81,4.79-3.86,4.79s-3.85-1.51-3.85-4.79c0-3.1,1-4.57,3.85-4.57S158.88,240.2,158.88,243.3Zm-1.39,0c0-2.5-.54-3.4-2.47-3.4s-2.46.9-2.46,3.4.34,3.62,2.46,3.62S157.49,245.86,157.49,243.3Z" fill="#3a3d3f" />
				<path d="M161.68,238.91l1.82,7.83h.29l2.14-7.65h1.41l2.14,7.65h.31l1.8-7.83h1.35l-2.15,9h-2.25l-1.91-7-1.9,7h-2.25l-2.15-9Z" fill="#3a3d3f" />
				<path d="M185.1,246.23c0,.53.47.72,1.05.8l-.06,1.06a2.75,2.75,0,0,1-2.14-.72,9.2,9.2,0,0,1-3.24.72c-1.64,0-2.54-.94-2.54-2.76s.9-2.48,2.75-2.66l2.83-.27v-.77c0-1.27-.54-1.72-1.62-1.72-1.26,0-3.4.24-3.4.24l-.06-1a22.3,22.3,0,0,1,3.53-.39c2,0,2.9.93,2.9,2.9Zm-4-2.55c-1.1.11-1.53.63-1.53,1.62S180,247,180.92,247a9.63,9.63,0,0,0,2.83-.55v-3Z" fill="#3a3d3f" />
				<path d="M193.58,239l-.05,1.09s-1.45-.16-2.13-.16c-2.07,0-2.63.9-2.63,3.31,0,2.67.42,3.64,2.65,3.64.68,0,2.12-.16,2.12-.16l.06,1.12a24.24,24.24,0,0,1-2.51.25c-2.86,0-3.7-1.32-3.7-4.85,0-3.25,1.06-4.51,3.74-4.51A20.89,20.89,0,0,1,193.58,239Z" fill="#3a3d3f" />
				<path d="M197.41,240.08v4.3c0,2,.13,2.52,1.3,2.52.5,0,1.6-.11,1.6-.11l.09,1.12a15.43,15.43,0,0,1-1.84.2c-1.85,0-2.48-.71-2.48-3.3v-4.73H194.8v-1.17h1.28v-2.76h1.33v2.76h2.87v1.17Z" fill="#3a3d3f" />
				<path d="M201.93,235.31h1.35v1.56h-1.35Zm0,3.6h1.35v9h-1.35Z" fill="#3a3d3f" />
				<path d="M206.47,238.91l2.1,7.83h.67l2.18-7.83h1.38l-2.54,9h-2.7l-2.53-9Z" fill="#3a3d3f" />
				<path d="M220.89,246.23c0,.53.46.72,1,.8l-.05,1.06a2.76,2.76,0,0,1-2.15-.72,9.2,9.2,0,0,1-3.24.72c-1.64,0-2.54-.94-2.54-2.76s.9-2.48,2.76-2.66l2.83-.27v-.77c0-1.27-.54-1.72-1.62-1.72-1.27,0-3.41.24-3.41.24l0-1a22.13,22.13,0,0,1,3.53-.39c2,0,2.9.93,2.9,2.9Zm-4-2.55c-1.1.11-1.53.63-1.53,1.62s.45,1.65,1.37,1.65a9.72,9.72,0,0,0,2.83-.55v-3Z" fill="#3a3d3f" />
				<path d="M225.35,240.08v4.3c0,2,.12,2.52,1.29,2.52.51,0,1.61-.11,1.61-.11l.09,1.12a15.71,15.71,0,0,1-1.84.2c-1.85,0-2.48-.71-2.48-3.3v-4.73h-1.28v-1.17H224v-2.76h1.33v2.76h2.86v1.17Z" fill="#3a3d3f" />
				<path d="M236.51,246.74l0,1.06a31.4,31.4,0,0,1-3.52.29c-2.68,0-3.56-1.57-3.56-4.63,0-3.42,1.48-4.73,3.76-4.73s3.62,1.26,3.62,4.21l-.07,1h-5.94c0,1.92.59,2.93,2.36,2.93C234.55,246.9,236.51,246.74,236.51,246.74Zm-1-3.85c0-2.24-.68-3-2.27-3s-2.39.85-2.41,3Z" fill="#3a3d3f" />
				<path d="M245.87,247.91h-1.33v-.61a6.49,6.49,0,0,1-2.74.79c-1.76,0-3.24-.72-3.24-4.61,0-3.17,1-4.75,3.76-4.75a15.79,15.79,0,0,1,2.22.23v-4h1.33Zm-1.33-1.69v-6.11a16.26,16.26,0,0,0-2.15-.21c-1.89,0-2.44,1.24-2.44,3.58,0,2.92,1,3.4,2,3.4A6.62,6.62,0,0,0,244.54,246.22Z" fill="#3a3d3f" />
				<path d="M248.39,245.86h1.47v2h-1.47Z" fill="#3a3d3f" />
				<path d="M255.26,235.45h9v1.24h-3.79v11.22H259.1V236.69h-3.84Z" fill="#3a3d3f" />
				<path d="M265.79,247.91V235h1.35v4.43a7.65,7.65,0,0,1,2.78-.68c2.46,0,3,1.22,3,4.42v4.76h-1.35v-4.72c0-2.38-.27-3.26-1.93-3.26a7.41,7.41,0,0,0-2.54.54v7.44Z" fill="#3a3d3f" />
				<path d="M282.1,246.74l0,1.06a31.12,31.12,0,0,1-3.51.29c-2.69,0-3.57-1.57-3.57-4.63,0-3.42,1.48-4.73,3.77-4.73s3.61,1.26,3.61,4.21l-.07,1h-5.94c0,1.92.6,2.93,2.36,2.93C280.14,246.9,282.1,246.74,282.1,246.74Zm-1-3.85c0-2.24-.68-3-2.26-3s-2.4.85-2.42,3Z" fill="#3a3d3f" />
				<path d="M294.49,240.22a29.33,29.33,0,0,0-3.16-.29c-1.11,0-2,.31-2,1.37,0,.85.43,1.08,2.34,1.41,2.25.37,3.1.82,3.1,2.57,0,2.11-1.33,2.81-3.49,2.81a25.65,25.65,0,0,1-3.17-.34l.07-1.17s2,.3,3,.3c1.48,0,2.27-.32,2.27-1.55,0-.93-.47-1.17-2.43-1.47s-3-.71-3-2.51c0-2,1.61-2.62,3.24-2.62a23.19,23.19,0,0,1,3.26.34Z" fill="#3a3d3f" />
				<path d="M297.38,238.91l2.25,7.83h.6l2.27-7.83h1.35l-3.75,13h-1.35l1.17-4h-1.33l-2.56-9Z" fill="#3a3d3f" />
				<path d="M311.55,240.22a29.33,29.33,0,0,0-3.15-.29c-1.12,0-2,.31-2,1.37,0,.85.43,1.08,2.34,1.41,2.25.37,3.09.82,3.09,2.57,0,2.11-1.33,2.81-3.49,2.81a25.65,25.65,0,0,1-3.17-.34l.07-1.17s2.06.3,3,.3c1.48,0,2.27-.32,2.27-1.55,0-.93-.47-1.17-2.43-1.47s-3-.71-3-2.51c0-2,1.6-2.62,3.24-2.62a23.19,23.19,0,0,1,3.26.34Z" fill="#3a3d3f" />
				<path d="M315.74,240.08v4.3c0,2,.13,2.52,1.3,2.52.5,0,1.6-.11,1.6-.11l.09,1.12a15.43,15.43,0,0,1-1.84.2c-1.85,0-2.48-.71-2.48-3.3v-4.73h-1.28v-1.17h1.28v-2.76h1.33v2.76h2.87v1.17Z" fill="#3a3d3f" />
				<path d="M326.9,246.74l0,1.06a31.12,31.12,0,0,1-3.51.29c-2.68,0-3.57-1.57-3.57-4.63,0-3.42,1.48-4.73,3.77-4.73s3.62,1.26,3.62,4.21l-.08,1h-5.94c0,1.92.6,2.93,2.36,2.93C324.94,246.9,326.9,246.74,326.9,246.74Zm-1-3.85c0-2.24-.69-3-2.27-3s-2.4.85-2.42,3Z" fill="#3a3d3f" />
				<path d="M329.35,247.91v-9h1.33v.63a6,6,0,0,1,2.63-.81,2.55,2.55,0,0,1,2.34.91,7.53,7.53,0,0,1,3.21-.91c2.45,0,3,1.17,3,4.42v4.76h-1.35v-4.72c0-2.38-.27-3.26-1.89-3.26a6,6,0,0,0-2.54.67,10.34,10.34,0,0,1,.23,2.63v4.68H335v-4.65c0-2.48-.25-3.33-1.89-3.33a5.34,5.34,0,0,0-2.41.67v7.31Z" fill="#3a3d3f" />
				<path d="M354.34,240.22a29.33,29.33,0,0,0-3.16-.29c-1.11,0-2,.31-2,1.37,0,.85.43,1.08,2.34,1.41,2.25.37,3.1.82,3.1,2.57,0,2.11-1.33,2.81-3.49,2.81a25.4,25.4,0,0,1-3.17-.34l.07-1.17s2.05.3,3,.3c1.48,0,2.27-.32,2.27-1.55,0-.93-.47-1.17-2.43-1.47s-3-.71-3-2.51c0-2,1.6-2.62,3.24-2.62a23.19,23.19,0,0,1,3.26.34Z" fill="#3a3d3f" />
				<path d="M363.37,246.74l0,1.06a31.12,31.12,0,0,1-3.51.29c-2.69,0-3.57-1.57-3.57-4.63,0-3.42,1.48-4.73,3.76-4.73s3.62,1.26,3.62,4.21l-.07,1H357.7c0,1.92.59,2.93,2.36,2.93C361.41,246.9,363.37,246.74,363.37,246.74Zm-1-3.85c0-2.24-.68-3-2.27-3s-2.39.85-2.41,3Z" fill="#3a3d3f" />
				<path d="M365.82,247.91v-9h1.33v.63a6.85,6.85,0,0,1,2.79-.81c2.49,0,3,1.22,3,4.42v4.76h-1.33v-4.72c0-2.38-.27-3.26-1.94-3.26a6.12,6.12,0,0,0-2.54.67v7.31Z" fill="#3a3d3f" />
				<path d="M382.4,247.91h-1.33v-.61a6.49,6.49,0,0,1-2.74.79c-1.77,0-3.24-.72-3.24-4.61,0-3.17,1-4.75,3.76-4.75a15.79,15.79,0,0,1,2.22.23v-4h1.33Zm-1.33-1.69v-6.11a16.26,16.26,0,0,0-2.15-.21c-1.89,0-2.45,1.24-2.45,3.58,0,2.92,1,3.4,2,3.4A6.62,6.62,0,0,0,381.07,246.22Z" fill="#3a3d3f" />
				<path d="M391,240.22a29.33,29.33,0,0,0-3.15-.29c-1.11,0-2,.31-2,1.37,0,.85.43,1.08,2.34,1.41,2.25.37,3.1.82,3.1,2.57,0,2.11-1.34,2.81-3.5,2.81a25.4,25.4,0,0,1-3.16-.34l.07-1.17s2,.3,3,.3c1.48,0,2.27-.32,2.27-1.55,0-.93-.47-1.17-2.43-1.47s-3-.71-3-2.51c0-2,1.6-2.62,3.24-2.62a23.19,23.19,0,0,1,3.26.34Z" fill="#3a3d3f" />
				<path d="M404.56,236.78s-2.51-.3-3.55-.3c-1.77,0-2.7.63-2.7,2,0,1.62.86,1.89,3,2.38,2.48.55,3.58,1.17,3.58,3.35,0,2.75-1.51,3.83-4,3.83a32.54,32.54,0,0,1-3.94-.4l.15-1.15s2.44.33,3.72.33c1.77,0,2.67-.78,2.67-2.51,0-1.4-.74-1.8-2.78-2.19-2.57-.56-3.87-1.17-3.87-3.55s1.59-3.35,4-3.35a31.11,31.11,0,0,1,3.76.36Z" fill="#3a3d3f" />
				<path d="M407.33,235.45h2.5L413.36,246l3.53-10.53h2.5v12.46H418v-11h-.25l-3.62,10.53h-1.55L409,236.93h-.25v11h-1.38Z" fill="#3a3d3f" />
				<path d="M429.43,236.78s-2.5-.3-3.55-.3c-1.76,0-2.7.63-2.7,2,0,1.62.87,1.89,3.05,2.38,2.48.55,3.58,1.17,3.58,3.35,0,2.75-1.51,3.83-4,3.83a32.29,32.29,0,0,1-3.94-.4l.14-1.15s2.45.33,3.73.33c1.76,0,2.66-.78,2.66-2.51,0-1.4-.74-1.8-2.77-2.19-2.57-.56-3.87-1.17-3.87-3.55s1.58-3.35,4-3.35a31.12,31.12,0,0,1,3.77.36Z" fill="#3a3d3f" />
				<path d="M435.93,247.91v-9h1.33v.63a6,6,0,0,1,2.63-.81,2.56,2.56,0,0,1,2.34.91,7.52,7.52,0,0,1,3.2-.91c2.45,0,3.05,1.17,3.05,4.42v4.76h-1.35v-4.72c0-2.38-.27-3.26-1.89-3.26a5.89,5.89,0,0,0-2.54.67,10.34,10.34,0,0,1,.23,2.63v4.68h-1.35v-4.65c0-2.48-.25-3.33-1.89-3.33a5.34,5.34,0,0,0-2.41.67v7.31Z" fill="#3a3d3f" />
				<path d="M457.62,246.74l0,1.06a31.4,31.4,0,0,1-3.52.29c-2.68,0-3.56-1.57-3.56-4.63,0-3.42,1.48-4.73,3.76-4.73S458,240,458,242.94l-.07,1H452c0,1.92.59,2.93,2.36,2.93C455.66,246.9,457.62,246.74,457.62,246.74Zm-1-3.85c0-2.24-.68-3-2.27-3s-2.39.85-2.41,3Z" fill="#3a3d3f" />
				<path d="M466,240.22a29.33,29.33,0,0,0-3.15-.29c-1.11,0-2,.31-2,1.37,0,.85.43,1.08,2.34,1.41,2.25.37,3.1.82,3.1,2.57,0,2.11-1.34,2.81-3.5,2.81a25.4,25.4,0,0,1-3.16-.34l.07-1.17s2.05.3,3,.3c1.47,0,2.27-.32,2.27-1.55,0-.93-.47-1.17-2.43-1.47s-3-.71-3-2.51c0-2,1.6-2.62,3.24-2.62a23.19,23.19,0,0,1,3.26.34Z" fill="#3a3d3f" />
				<path d="M474.41,240.22a29.33,29.33,0,0,0-3.15-.29c-1.11,0-2,.31-2,1.37,0,.85.43,1.08,2.34,1.41,2.25.37,3.1.82,3.1,2.57,0,2.11-1.34,2.81-3.5,2.81a25.4,25.4,0,0,1-3.16-.34l.07-1.17s2.05.3,3,.3c1.47,0,2.27-.32,2.27-1.55,0-.93-.47-1.17-2.43-1.47s-3-.71-3-2.51c0-2,1.6-2.62,3.24-2.62a23.19,23.19,0,0,1,3.26.34Z" fill="#3a3d3f" />
				<path d="M483.16,246.23c0,.53.47.72,1,.8l-.06,1.06a2.75,2.75,0,0,1-2.14-.72,9.2,9.2,0,0,1-3.24.72c-1.64,0-2.54-.94-2.54-2.76s.9-2.48,2.75-2.66l2.83-.27v-.77c0-1.27-.54-1.72-1.62-1.72-1.26,0-3.4.24-3.4.24l-.06-1a22.13,22.13,0,0,1,3.53-.39c2,0,2.9.93,2.9,2.9Zm-4-2.55c-1.1.11-1.53.63-1.53,1.62S478.07,247,479,247a9.63,9.63,0,0,0,2.83-.55v-3Z" fill="#3a3d3f" />
				<path d="M485.43,249.42c0-1,.48-1.53,1.42-2.23a1.49,1.49,0,0,1-.51-1.24,5.7,5.7,0,0,1,.62-1.43c-.76-.34-1.43-1.06-1.43-2.71,0-2.22,1.37-3.08,3.37-3.08a9.43,9.43,0,0,1,1.87.23l2.67-.07V240l-1.71,0a2.38,2.38,0,0,1,.59,1.81c0,2.33-1.17,3-3.47,3-.18,0-.69,0-.88-.07a5.3,5.3,0,0,0-.33,1c0,.72.15.83,2.18.83,2.56,0,3.47.5,3.47,2.65s-1.45,2.86-4,2.86C486.45,252.14,485.43,251.51,485.43,249.42Zm2.34-1.69c-.76.56-1,.88-1,1.58,0,1.25.52,1.7,2.56,1.7,1.8,0,2.61-.49,2.61-1.68,0-1.37-.58-1.51-2.22-1.51C489.08,247.82,487.77,247.73,487.77,247.73Zm3.2-5.92c0-1.43-.56-2-2.07-2s-2,.56-2,2,.62,2,2,2S491,243.23,491,241.81Z" fill="#3a3d3f" />
				<path d="M501.72,246.74l0,1.06a31.12,31.12,0,0,1-3.51.29c-2.68,0-3.56-1.57-3.56-4.63,0-3.42,1.48-4.73,3.76-4.73s3.62,1.26,3.62,4.21l-.07,1h-5.94c0,1.92.59,2.93,2.36,2.93C499.76,246.9,501.72,246.74,501.72,246.74Zm-1-3.85c0-2.24-.68-3-2.27-3s-2.39.85-2.41,3Z" fill="#3a3d3f" />
				<path d="M510.14,240.22a29.33,29.33,0,0,0-3.15-.29c-1.11,0-2,.31-2,1.37,0,.85.43,1.08,2.34,1.41,2.25.37,3.1.82,3.1,2.57,0,2.11-1.34,2.81-3.5,2.81a25.65,25.65,0,0,1-3.17-.34l.08-1.17s2.05.3,3,.3c1.47,0,2.27-.32,2.27-1.55,0-.93-.47-1.17-2.43-1.47s-3-.71-3-2.51c0-2,1.6-2.62,3.24-2.62a23.19,23.19,0,0,1,3.26.34Z" fill="#3a3d3f" />
				<path d="M518.29,240.08v4.3c0,2,.13,2.52,1.3,2.52.51,0,1.6-.11,1.6-.11l.09,1.12a15.44,15.44,0,0,1-1.83.2c-1.86,0-2.49-.71-2.49-3.3v-4.73h-1.28v-1.17H517v-2.76h1.33v2.76h2.87v1.17Z" fill="#3a3d3f" />
				<path d="M530.12,243.3c0,3.28-.81,4.79-3.85,4.79s-3.85-1.51-3.85-4.79c0-3.1,1-4.57,3.85-4.57S530.12,240.2,530.12,243.3Zm-1.38,0c0-2.5-.54-3.4-2.47-3.4s-2.47.9-2.47,3.4.35,3.62,2.47,3.62S528.74,245.86,528.74,243.3Z" fill="#3a3d3f" />
				<path d="M538.08,240.08v4.3c0,2,.12,2.52,1.29,2.52.51,0,1.61-.11,1.61-.11l.09,1.12a15.71,15.71,0,0,1-1.84.2c-1.85,0-2.48-.71-2.48-3.3v-4.73h-1.28v-1.17h1.28v-2.76h1.33v2.76h2.86v1.17Z" fill="#3a3d3f" />
				<path d="M542.59,247.91V235H544v4.43a7.64,7.64,0,0,1,2.77-.68c2.47,0,3,1.22,3,4.42v4.76h-1.35v-4.72c0-2.38-.27-3.26-1.93-3.26a7.39,7.39,0,0,0-2.53.54v7.44Z" fill="#3a3d3f" />
				<path d="M558.91,246.74l0,1.06a31.12,31.12,0,0,1-3.51.29c-2.68,0-3.56-1.57-3.56-4.63,0-3.42,1.47-4.73,3.76-4.73s3.62,1.26,3.62,4.21l-.08,1h-5.94c0,1.92.6,2.93,2.36,2.93C556.94,246.9,558.91,246.74,558.91,246.74Zm-1-3.85c0-2.24-.69-3-2.27-3s-2.4.85-2.41,3Z" fill="#3a3d3f" />
				<path d="M89.4,265.91h1.34v.64a6.12,6.12,0,0,1,2.7-.82c2.27,0,3.26,1.38,3.26,4.57,0,3.53-1.16,4.79-3.93,4.79a12.16,12.16,0,0,1-2-.2v4H89.4Zm1.35,1.74v6.07a13,13,0,0,0,2,.2c2,0,2.63-1,2.63-3.62s-.78-3.37-2.09-3.37A5.87,5.87,0,0,0,90.75,267.65Z" fill="#3a3d3f" />
				<path d="M105.25,273.23c0,.53.46.72,1,.8l-.05,1.06a2.76,2.76,0,0,1-2.15-.72,9.2,9.2,0,0,1-3.24.72c-1.64,0-2.54-.94-2.54-2.76s.9-2.48,2.76-2.66l2.83-.27v-.77c0-1.27-.54-1.72-1.62-1.72-1.27,0-3.41.24-3.41.24l-.05-1a22.13,22.13,0,0,1,3.53-.39c2,0,2.9.93,2.9,2.9Zm-4-2.55c-1.1.11-1.53.63-1.53,1.62s.45,1.65,1.37,1.65a9.72,9.72,0,0,0,2.83-.55v-3Z" fill="#3a3d3f" />
				<path d="M113.89,267.22a29.33,29.33,0,0,0-3.16-.29c-1.11,0-2,.31-2,1.37,0,.85.43,1.08,2.34,1.41,2.25.37,3.1.82,3.1,2.57,0,2.11-1.33,2.81-3.49,2.81a25.4,25.4,0,0,1-3.17-.34l.07-1.17s2,.3,3,.3c1.48,0,2.27-.32,2.27-1.55,0-.93-.47-1.17-2.43-1.47s-3-.71-3-2.51c0-2,1.6-2.62,3.24-2.62a23.19,23.19,0,0,1,3.26.34Z" fill="#3a3d3f" />
				<path d="M122.26,267.22a29.33,29.33,0,0,0-3.16-.29c-1.11,0-2,.31-2,1.37,0,.85.43,1.08,2.34,1.41,2.25.37,3.1.82,3.1,2.57,0,2.11-1.33,2.81-3.49,2.81a25.4,25.4,0,0,1-3.17-.34l.07-1.17s2.05.3,3,.3c1.48,0,2.27-.32,2.27-1.55,0-.93-.47-1.17-2.43-1.47s-3-.71-3-2.51c0-2,1.6-2.62,3.24-2.62a23.19,23.19,0,0,1,3.26.34Z" fill="#3a3d3f" />
				<path d="M131.29,273.74l0,1.06a31.12,31.12,0,0,1-3.51.29c-2.69,0-3.57-1.57-3.57-4.63,0-3.42,1.48-4.73,3.76-4.73s3.62,1.26,3.62,4.21l-.07,1h-5.94c0,1.92.59,2.93,2.36,2.93C129.33,273.9,131.29,273.74,131.29,273.74Zm-1-3.85c0-2.24-.68-3-2.27-3s-2.39.85-2.41,3Z" fill="#3a3d3f" />
				<path d="M133.74,274.91v-9h1.33v.63a6.85,6.85,0,0,1,2.79-.81c2.49,0,3,1.22,3,4.42v4.76h-1.33v-4.72c0-2.38-.27-3.26-1.94-3.26a6.12,6.12,0,0,0-2.54.67v7.31Z" fill="#3a3d3f" />
				<path d="M143,276.42c0-1,.48-1.53,1.42-2.23a1.48,1.48,0,0,1-.5-1.24,5.75,5.75,0,0,1,.61-1.43c-.76-.34-1.42-1.06-1.42-2.71,0-2.22,1.36-3.08,3.36-3.08a9.6,9.6,0,0,1,1.88.23l2.66-.07V267l-1.71,0a2.38,2.38,0,0,1,.59,1.81c0,2.33-1.17,3-3.47,3-.18,0-.69,0-.88-.07a5.3,5.3,0,0,0-.33,1c0,.72.15.83,2.18.83,2.56,0,3.48.5,3.48,2.65s-1.46,2.86-4,2.86C144,279.14,143,278.51,143,276.42Zm2.34-1.69c-.76.56-1,.88-1,1.58,0,1.25.52,1.7,2.56,1.7,1.8,0,2.61-.49,2.61-1.68,0-1.37-.58-1.51-2.22-1.51C146.66,274.82,145.35,274.73,145.35,274.73Zm3.2-5.92c0-1.43-.55-2-2.07-2s-2,.56-2,2,.61,2,2,2S148.55,270.23,148.55,268.81Z" fill="#3a3d3f" />
				<path d="M159.3,273.74l0,1.06a31.38,31.38,0,0,1-3.51.29c-2.69,0-3.57-1.57-3.57-4.63,0-3.42,1.48-4.73,3.76-4.73s3.62,1.26,3.62,4.21l-.07,1h-5.94c0,1.92.59,2.93,2.36,2.93C157.34,273.9,159.3,273.74,159.3,273.74Zm-1-3.85c0-2.24-.68-3-2.27-3s-2.39.85-2.41,3Z" fill="#3a3d3f" />
				<path d="M161.75,265.91h1.33v1.22a10.06,10.06,0,0,1,3.29-1.42v1.37a13,13,0,0,0-3.27,1.22v6.61h-1.35Z" fill="#3a3d3f" />
				<path d="M174,267.22a29.33,29.33,0,0,0-3.15-.29c-1.12,0-2,.31-2,1.37,0,.85.43,1.08,2.34,1.41,2.25.37,3.1.82,3.1,2.57,0,2.11-1.34,2.81-3.5,2.81a25.65,25.65,0,0,1-3.17-.34l.07-1.17s2.06.3,3,.3c1.47,0,2.26-.32,2.26-1.55,0-.93-.46-1.17-2.43-1.47s-3-.71-3-2.51c0-2,1.6-2.62,3.24-2.62a23.19,23.19,0,0,1,3.26.34Z" fill="#3a3d3f" />
				<path d="M180.3,262.31h1.35v1.56H180.3Zm0,3.6h1.35v9H180.3Z" fill="#3a3d3f" />
				<path d="M184.25,274.91v-9h1.33v.63a6.85,6.85,0,0,1,2.79-.81c2.48,0,3,1.22,3,4.42v4.76h-1.33v-4.72c0-2.38-.27-3.26-2-3.26a6.18,6.18,0,0,0-2.54.67v7.31Z" fill="#3a3d3f" />
				<path d="M205.18,270.3c0,3.28-.81,4.79-3.85,4.79s-3.86-1.51-3.86-4.79c0-3.1,1-4.57,3.86-4.57S205.18,267.2,205.18,270.3Zm-1.39,0c0-2.5-.54-3.4-2.46-3.4s-2.47.9-2.47,3.4.34,3.62,2.47,3.62S203.79,272.86,203.79,270.3Z" fill="#3a3d3f" />
				<path d="M207.37,265.91h1.34v1.22a10.06,10.06,0,0,1,3.29-1.42v1.37a13.15,13.15,0,0,0-3.28,1.22v6.61h-1.35Z" fill="#3a3d3f" />
				<path d="M220.52,274.91h-1.34v-.61a6.42,6.42,0,0,1-2.73.79c-1.77,0-3.24-.72-3.24-4.61,0-3.17,1-4.75,3.76-4.75a15.79,15.79,0,0,1,2.21.23v-4h1.34Zm-1.34-1.69v-6.11a15.89,15.89,0,0,0-2.14-.21c-1.89,0-2.45,1.24-2.45,3.58,0,2.92,1,3.4,2,3.4A6.54,6.54,0,0,0,219.18,273.22Z" fill="#3a3d3f" />
				<path d="M229.77,273.74l0,1.06a31.12,31.12,0,0,1-3.51.29c-2.68,0-3.56-1.57-3.56-4.63,0-3.42,1.47-4.73,3.76-4.73s3.62,1.26,3.62,4.21l-.07,1H224.1c0,1.92.59,2.93,2.35,2.93C227.8,273.9,229.77,273.74,229.77,273.74Zm-1-3.85c0-2.24-.68-3-2.27-3s-2.39.85-2.41,3Z" fill="#3a3d3f" />
				<path d="M232.21,265.91h1.34v1.22a10.06,10.06,0,0,1,3.29-1.42v1.37a13.15,13.15,0,0,0-3.28,1.22v6.61h-1.35Z" fill="#3a3d3f" />
				<path d="M244.2,267.08v4.3c0,2,.13,2.52,1.3,2.52.5,0,1.6-.11,1.6-.11l.09,1.12a15.71,15.71,0,0,1-1.84.2c-1.85,0-2.48-.71-2.48-3.3v-4.73h-1.28v-1.17h1.28v-2.76h1.33v2.76h2.86v1.17Z" fill="#3a3d3f" />
				<path d="M256,270.3c0,3.28-.81,4.79-3.85,4.79s-3.86-1.51-3.86-4.79c0-3.1,1-4.57,3.86-4.57S256,267.2,256,270.3Zm-1.39,0c0-2.5-.54-3.4-2.46-3.4s-2.47.9-2.47,3.4.34,3.62,2.47,3.62S254.64,272.86,254.64,270.3Z" fill="#3a3d3f" />
				<path d="M261.79,276.42c0-1,.48-1.53,1.42-2.23a1.48,1.48,0,0,1-.5-1.24,5.75,5.75,0,0,1,.61-1.43c-.76-.34-1.42-1.06-1.42-2.71,0-2.22,1.36-3.08,3.36-3.08a9.43,9.43,0,0,1,1.87.23l2.67-.07V267l-1.71,0a2.38,2.38,0,0,1,.59,1.81c0,2.33-1.17,3-3.47,3-.18,0-.69,0-.88-.07a5.3,5.3,0,0,0-.33,1c0,.72.15.83,2.18.83,2.56,0,3.48.5,3.48,2.65s-1.46,2.86-4,2.86C262.81,279.14,261.79,278.51,261.79,276.42Zm2.34-1.69c-.76.56-1,.88-1,1.58,0,1.25.52,1.7,2.56,1.7,1.8,0,2.61-.49,2.61-1.68,0-1.37-.58-1.51-2.22-1.51C265.44,274.82,264.13,274.73,264.13,274.73Zm3.2-5.92c0-1.43-.56-2-2.07-2s-2,.56-2,2,.61,2,2,2S267.33,270.23,267.33,268.81Z" fill="#3a3d3f" />
				<path d="M278.4,265.91v9h-1.35v-.63a6.07,6.07,0,0,1-2.66.81c-2.52,0-3.05-1.17-3.05-4.48v-4.7h1.36v4.68c0,2.48.21,3.29,1.89,3.29a5.46,5.46,0,0,0,2.46-.66v-7.31Z" fill="#3a3d3f" />
				<path d="M281,262.31h1.35v1.56H281Zm0,3.6h1.35v9H281Z" fill="#3a3d3f" />
				<path d="M291.85,274.91h-1.33v-.61a6.49,6.49,0,0,1-2.74.79c-1.77,0-3.24-.72-3.24-4.61,0-3.17,1-4.75,3.76-4.75a15.79,15.79,0,0,1,2.22.23v-4h1.33Zm-1.33-1.69v-6.11a16.26,16.26,0,0,0-2.15-.21c-1.89,0-2.45,1.24-2.45,3.58,0,2.92,1,3.4,2,3.4A6.62,6.62,0,0,0,290.52,273.22Z" fill="#3a3d3f" />
				<path d="M301.1,273.74l0,1.06a31.4,31.4,0,0,1-3.52.29c-2.68,0-3.56-1.57-3.56-4.63,0-3.42,1.48-4.73,3.76-4.73s3.62,1.26,3.62,4.21l-.07,1h-5.94c0,1.92.59,2.93,2.36,2.93C299.14,273.9,301.1,273.74,301.1,273.74Zm-1-3.85c0-2.24-.68-3-2.27-3s-2.39.85-2.41,3Z" fill="#3a3d3f" />
				<path d="M309.31,267.08v4.3c0,2,.12,2.52,1.29,2.52.51,0,1.61-.11,1.61-.11l.08,1.12a15.44,15.44,0,0,1-1.83.2c-1.86,0-2.49-.71-2.49-3.3v-4.73H306.7v-1.17H308v-2.76h1.34v2.76h2.86v1.17Z" fill="#3a3d3f" />
				<path d="M313.82,274.91V262h1.35v4.43a7.65,7.65,0,0,1,2.78-.68c2.46,0,3,1.22,3,4.42v4.76h-1.35v-4.72c0-2.38-.27-3.26-1.93-3.26a7.41,7.41,0,0,0-2.54.54v7.44Z" fill="#3a3d3f" />
				<path d="M330.13,273.74l0,1.06a31.12,31.12,0,0,1-3.51.29c-2.68,0-3.57-1.57-3.57-4.63,0-3.42,1.48-4.73,3.77-4.73s3.62,1.26,3.62,4.21l-.08,1h-5.94c0,1.92.6,2.93,2.36,2.93C328.17,273.9,330.13,273.74,330.13,273.74Zm-1-3.85c0-2.24-.69-3-2.27-3s-2.4.85-2.42,3Z" fill="#3a3d3f" />
				<path d="M332.58,274.91v-9h1.33v.63a6,6,0,0,1,2.63-.81,2.55,2.55,0,0,1,2.34.91,7.53,7.53,0,0,1,3.21-.91c2.45,0,3,1.17,3,4.42v4.76h-1.35v-4.72c0-2.38-.27-3.26-1.89-3.26a6,6,0,0,0-2.54.67,10.34,10.34,0,0,1,.23,2.63v4.68h-1.35v-4.65c0-2.48-.25-3.33-1.89-3.33a5.34,5.34,0,0,0-2.41.67v7.31Z" fill="#3a3d3f" />
				<path d="M353.39,267.08v4.3c0,2,.12,2.52,1.29,2.52.51,0,1.61-.11,1.61-.11l.09,1.12a15.71,15.71,0,0,1-1.84.2c-1.85,0-2.48-.71-2.48-3.3v-4.73h-1.28v-1.17h1.28v-2.76h1.33v2.76h2.86v1.17Z" fill="#3a3d3f" />
				<path d="M365.22,270.3c0,3.28-.81,4.79-3.86,4.79s-3.85-1.51-3.85-4.79c0-3.1,1-4.57,3.85-4.57S365.22,267.2,365.22,270.3Zm-1.39,0c0-2.5-.54-3.4-2.47-3.4s-2.46.9-2.46,3.4.34,3.62,2.46,3.62S363.83,272.86,363.83,270.3Z" fill="#3a3d3f" />
				<path d="M377.19,266l-.06,1.09s-1.44-.16-2.12-.16c-2.07,0-2.63.9-2.63,3.31,0,2.67.41,3.64,2.64,3.64.69,0,2.13-.16,2.13-.16l.05,1.12a24,24,0,0,1-2.5.25c-2.86,0-3.71-1.32-3.71-4.85,0-3.25,1.06-4.51,3.75-4.51A21.18,21.18,0,0,1,377.19,266Z" fill="#3a3d3f" />
				<path d="M379.22,274.91V262h1.35v4.43a7.64,7.64,0,0,1,2.77-.68c2.47,0,3,1.22,3,4.42v4.76H385v-4.72c0-2.38-.27-3.26-1.92-3.26a7.41,7.41,0,0,0-2.54.54v7.44Z" fill="#3a3d3f" />
				<path d="M395.53,273.74l0,1.06a31.12,31.12,0,0,1-3.51.29c-2.68,0-3.56-1.57-3.56-4.63,0-3.42,1.47-4.73,3.76-4.73s3.62,1.26,3.62,4.21l-.07,1h-5.94c0,1.92.59,2.93,2.35,2.93C393.56,273.9,395.53,273.74,395.53,273.74Zm-1-3.85c0-2.24-.69-3-2.27-3s-2.39.85-2.41,3Z" fill="#3a3d3f" />
				<path d="M403.79,266l-.05,1.09s-1.45-.16-2.13-.16c-2.07,0-2.63.9-2.63,3.31,0,2.67.42,3.64,2.65,3.64.68,0,2.12-.16,2.12-.16l.06,1.12a24.24,24.24,0,0,1-2.51.25c-2.86,0-3.71-1.32-3.71-4.85,0-3.25,1.07-4.51,3.75-4.51A20.89,20.89,0,0,1,403.79,266Z" fill="#3a3d3f" />
				<path d="M405.82,274.91V262h1.35v7.64l1.41-.08,2.57-3.63h1.53l-2.93,4.14,3.06,4.86h-1.53l-2.69-4.18-1.42.06v4.12Z" fill="#3a3d3f" />
				<path d="M414.37,269.33h5.46v1.26h-5.46Z" fill="#3a3d3f" />
				<path d="M422.33,262.31h1.35v1.56h-1.35Zm0,3.6h1.35v9h-1.35Z" fill="#3a3d3f" />
				<path d="M426.27,274.91v-9h1.33v.63a6.85,6.85,0,0,1,2.79-.81c2.49,0,3,1.22,3,4.42v4.76H432.1v-4.72c0-2.38-.27-3.26-1.94-3.26a6.12,6.12,0,0,0-2.54.67v7.31Z" fill="#3a3d3f" />
				<path d="M446.81,274.91h-1.33v-.61a6.49,6.49,0,0,1-2.74.79c-1.77,0-3.24-.72-3.24-4.61,0-3.17,1-4.75,3.76-4.75a15.79,15.79,0,0,1,2.22.23v-4h1.33Zm-1.33-1.69v-6.11a16.26,16.26,0,0,0-2.15-.21c-1.89,0-2.45,1.24-2.45,3.58,0,2.92,1,3.4,2,3.4A6.62,6.62,0,0,0,445.48,273.22Z" fill="#3a3d3f" />
				<path d="M456.06,273.74l0,1.06a31.4,31.4,0,0,1-3.52.29c-2.68,0-3.56-1.57-3.56-4.63,0-3.42,1.48-4.73,3.76-4.73s3.62,1.26,3.62,4.21l-.07,1h-5.94c0,1.92.59,2.93,2.36,2.93C454.1,273.9,456.06,273.74,456.06,273.74Zm-1-3.85c0-2.24-.68-3-2.27-3s-2.39.85-2.41,3Z" fill="#3a3d3f" />
				<path d="M464.48,267.22a29.33,29.33,0,0,0-3.15-.29c-1.11,0-2,.31-2,1.37,0,.85.43,1.08,2.34,1.41,2.25.37,3.1.82,3.1,2.57,0,2.11-1.34,2.81-3.5,2.81a25.4,25.4,0,0,1-3.16-.34l.07-1.17s2,.3,3,.3c1.48,0,2.27-.32,2.27-1.55,0-.93-.47-1.17-2.43-1.47s-3-.71-3-2.51c0-2,1.6-2.62,3.24-2.62a23.19,23.19,0,0,1,3.26.34Z" fill="#3a3d3f" />
				<path d="M466.88,274.91V262h1.35v7.64l1.4-.08,2.58-3.63h1.53l-2.94,4.14,3.06,4.86h-1.53l-2.68-4.18-1.42.06v4.12Z" fill="#3a3d3f" />
				<path d="M481.48,267.22a29.33,29.33,0,0,0-3.16-.29c-1.11,0-2,.31-2,1.37,0,.85.43,1.08,2.34,1.41,2.25.37,3.1.82,3.1,2.57,0,2.11-1.33,2.81-3.49,2.81a25.4,25.4,0,0,1-3.17-.34l.07-1.17s2.05.3,3,.3c1.48,0,2.27-.32,2.27-1.55,0-.93-.47-1.17-2.43-1.47s-3-.71-3-2.51c0-2,1.6-2.62,3.24-2.62a23.19,23.19,0,0,1,3.26.34Z" fill="#3a3d3f" />
				<path d="M487.83,262.31h1.35v1.56h-1.35Zm0,3.6h1.35v9h-1.35Z" fill="#3a3d3f" />
				<path d="M491.77,274.91v-9h1.33v.63a6.85,6.85,0,0,1,2.79-.81c2.49,0,3.05,1.22,3.05,4.42v4.76H497.6v-4.72c0-2.38-.27-3.26-1.94-3.26a6.12,6.12,0,0,0-2.54.67v7.31Z" fill="#3a3d3f" />
				<path d="M511.75,273.23c0,.53.47.72,1,.8l-.06,1.06a2.75,2.75,0,0,1-2.14-.72,9.2,9.2,0,0,1-3.24.72c-1.64,0-2.54-.94-2.54-2.76s.9-2.48,2.75-2.66l2.83-.27v-.77c0-1.27-.54-1.72-1.62-1.72-1.26,0-3.4.24-3.4.24l-.06-1a22.13,22.13,0,0,1,3.53-.39c2,0,2.9.93,2.9,2.9Zm-4-2.55c-1.1.11-1.53.63-1.53,1.62s.45,1.65,1.36,1.65a9.63,9.63,0,0,0,2.83-.55v-3Z" fill="#3a3d3f" />
				<path d="M520.1,274.91h-1.35v-7.83h-1.13v-1.17h1.13v-.81c0-2.6.67-3.3,2.43-3.3.61,0,1.82.13,1.82.13l0,1.11s-1,0-1.55,0c-1,0-1.33.43-1.33,2.1v.8h2.61v1.17H520.1Z" fill="#3a3d3f" />
				<path d="M530.69,273.23c0,.53.47.72,1,.8l-.05,1.06a2.74,2.74,0,0,1-2.14-.72,9.22,9.22,0,0,1-3.25.72c-1.63,0-2.54-.94-2.54-2.76s.91-2.48,2.76-2.66l2.83-.27v-.77c0-1.27-.54-1.72-1.62-1.72-1.26,0-3.41.24-3.41.24l0-1a22.13,22.13,0,0,1,3.53-.39c2,0,2.9.93,2.9,2.9Zm-4-2.55c-1.1.11-1.53.63-1.53,1.62s.45,1.65,1.37,1.65a9.72,9.72,0,0,0,2.83-.55v-3Z" fill="#3a3d3f" />
				<path d="M539.33,267.22a29.33,29.33,0,0,0-3.15-.29c-1.12,0-2,.31-2,1.37,0,.85.44,1.08,2.34,1.41,2.25.37,3.1.82,3.1,2.57,0,2.11-1.33,2.81-3.49,2.81a25.65,25.65,0,0,1-3.17-.34l.07-1.17s2.05.3,3,.3c1.48,0,2.27-.32,2.27-1.55,0-.93-.47-1.17-2.43-1.47s-3-.71-3-2.51c0-2,1.61-2.62,3.24-2.62a23.19,23.19,0,0,1,3.26.34Z" fill="#3a3d3f" />
				<path d="M543.52,267.08v4.3c0,2,.13,2.52,1.3,2.52.5,0,1.6-.11,1.6-.11l.09,1.12a15.71,15.71,0,0,1-1.84.2c-1.85,0-2.48-.71-2.48-3.3v-4.73h-1.28v-1.17h1.28v-2.76h1.33v2.76h2.86v1.17Z" fill="#3a3d3f" />
				<path d="M554.68,273.74l0,1.06a31.12,31.12,0,0,1-3.51.29c-2.69,0-3.57-1.57-3.57-4.63,0-3.42,1.48-4.73,3.76-4.73S555,267,555,269.94l-.07,1H549c0,1.92.59,2.93,2.36,2.93C552.72,273.9,554.68,273.74,554.68,273.74Zm-1-3.85c0-2.24-.68-3-2.27-3s-2.39.85-2.41,3Z" fill="#3a3d3f" />
				<path d="M557.13,265.91h1.33v1.22a10.18,10.18,0,0,1,3.29-1.42v1.37a13,13,0,0,0-3.27,1.22v6.61h-1.35Z" fill="#3a3d3f" />
				<path d="M233.88,300.23c0,.53.47.72,1,.8l0,1.06a2.75,2.75,0,0,1-2.14-.72,9.2,9.2,0,0,1-3.24.72c-1.64,0-2.54-.94-2.54-2.76s.9-2.48,2.75-2.66l2.83-.27v-.77c0-1.27-.54-1.72-1.62-1.72-1.26,0-3.4.24-3.4.24l-.06-1a22.13,22.13,0,0,1,3.53-.39c2,0,2.9.93,2.9,2.9Zm-4-2.55c-1.1.11-1.54.63-1.54,1.62s.46,1.65,1.37,1.65a9.63,9.63,0,0,0,2.83-.55v-3Z" fill="#3a3d3f" />
				<path d="M236.54,301.91v-9h1.34v.63a6.79,6.79,0,0,1,2.79-.81c2.48,0,3,1.22,3,4.42v4.76h-1.33v-4.72c0-2.38-.27-3.26-1.95-3.26a6.18,6.18,0,0,0-2.54.67v7.31Z" fill="#3a3d3f" />
				<path d="M253.12,301.91h-1.33v-.61a6.49,6.49,0,0,1-2.74.79c-1.76,0-3.24-.72-3.24-4.61,0-3.17,1-4.75,3.77-4.75a15.79,15.79,0,0,1,2.21.23v-4h1.33Zm-1.33-1.69v-6.11a16.07,16.07,0,0,0-2.14-.21c-1.89,0-2.45,1.24-2.45,3.58,0,2.92,1,3.4,2,3.4A6.61,6.61,0,0,0,251.79,300.22Z" fill="#3a3d3f" />
				<path d="M259.69,301.91v-9H261v.63a6,6,0,0,1,2.63-.81,2.55,2.55,0,0,1,2.34.91,7.53,7.53,0,0,1,3.21-.91c2.45,0,3,1.17,3,4.42v4.76h-1.35v-4.72c0-2.38-.27-3.26-1.89-3.26a6,6,0,0,0-2.54.67,10.34,10.34,0,0,1,.23,2.63v4.68h-1.35v-4.65c0-2.48-.25-3.33-1.89-3.33a5.34,5.34,0,0,0-2.41.67v7.31Z" fill="#3a3d3f" />
				<path d="M282.05,297.3c0,3.28-.81,4.79-3.86,4.79s-3.85-1.51-3.85-4.79c0-3.1,1-4.57,3.85-4.57S282.05,294.2,282.05,297.3Zm-1.39,0c0-2.5-.54-3.4-2.47-3.4s-2.46.9-2.46,3.4.34,3.62,2.46,3.62S280.66,299.86,280.66,297.3Z" fill="#3a3d3f" />
				<path d="M284.24,292.91h1.33v1.22a10.17,10.17,0,0,1,3.3-1.42v1.37a13.15,13.15,0,0,0-3.28,1.22v6.61h-1.35Z" fill="#3a3d3f" />
				<path d="M297.11,300.74l0,1.06a31.12,31.12,0,0,1-3.51.29c-2.68,0-3.57-1.57-3.57-4.63,0-3.42,1.48-4.73,3.77-4.73s3.62,1.26,3.62,4.21l-.08,1h-5.94c0,1.92.6,2.93,2.36,2.93C295.15,300.9,297.11,300.74,297.11,300.74Zm-1-3.85c0-2.24-.68-3-2.26-3s-2.4.85-2.42,3Z" fill="#3a3d3f" />
				<path d="M303.52,292.91h1.33v1.22a10.17,10.17,0,0,1,3.3-1.42v1.37a13,13,0,0,0-3.28,1.22v6.61h-1.35Z" fill="#3a3d3f" />
				<path d="M316.39,300.74l0,1.06a31.38,31.38,0,0,1-3.51.29c-2.69,0-3.57-1.57-3.57-4.63,0-3.42,1.48-4.73,3.76-4.73s3.62,1.26,3.62,4.21l-.07,1h-5.94c0,1.92.59,2.93,2.36,2.93C314.43,300.9,316.39,300.74,316.39,300.74Zm-1-3.85c0-2.24-.68-3-2.27-3s-2.39.85-2.41,3Z" fill="#3a3d3f" />
				<path d="M318.94,289h1.35v12.93h-1.35Z" fill="#3a3d3f" />
				<path d="M323,289.31h1.34v1.56H323Zm0,3.6h1.34v9H323Z" fill="#3a3d3f" />
				<path d="M333.29,300.23c0,.53.47.72,1,.8l-.06,1.06a2.75,2.75,0,0,1-2.14-.72,9.2,9.2,0,0,1-3.24.72c-1.64,0-2.54-.94-2.54-2.76s.9-2.48,2.75-2.66l2.83-.27v-.77c0-1.27-.54-1.72-1.62-1.72-1.26,0-3.4.24-3.4.24l-.06-1a22.13,22.13,0,0,1,3.53-.39c2,0,2.9.93,2.9,2.9Zm-4-2.55c-1.1.11-1.53.63-1.53,1.62s.45,1.65,1.36,1.65a9.63,9.63,0,0,0,2.83-.55v-3Z" fill="#3a3d3f" />
				<path d="M343.21,297.26c0,3.59-1,4.83-4.25,4.83-1.08,0-3-.2-3-.2V289h1.34v4.38a7.36,7.36,0,0,1,2.64-.63C342.38,292.73,343.21,294,343.21,297.26Zm-1.37,0c0-2.32-.47-3.33-2-3.33a7.57,7.57,0,0,0-2.5.52v6.34s1.17.09,1.65.09C341.41,300.88,341.84,299.78,341.84,297.26Z" fill="#3a3d3f" />
				<path d="M345.53,289h1.35v12.93h-1.35Z" fill="#3a3d3f" />
				<path d="M356.22,300.74l0,1.06a31.12,31.12,0,0,1-3.51.29c-2.68,0-3.57-1.57-3.57-4.63,0-3.42,1.48-4.73,3.77-4.73s3.62,1.26,3.62,4.21l-.08,1h-5.94c0,1.92.6,2.93,2.36,2.93C354.26,300.9,356.22,300.74,356.22,300.74Zm-1-3.85c0-2.24-.68-3-2.26-3s-2.4.85-2.42,3Z" fill="#3a3d3f" />
				<path d="M362.63,301.91v-9H364v.63a6,6,0,0,1,2.63-.81,2.55,2.55,0,0,1,2.34.91,7.53,7.53,0,0,1,3.21-.91c2.44,0,3,1.17,3,4.42v4.76h-1.35v-4.72c0-2.38-.27-3.26-1.89-3.26a6,6,0,0,0-2.54.67,10.34,10.34,0,0,1,.23,2.63v4.68h-1.35v-4.65c0-2.48-.25-3.33-1.89-3.33a5.34,5.34,0,0,0-2.41.67v7.31Z" fill="#3a3d3f" />
				<path d="M384,300.23c0,.53.47.72,1.05.8l-.06,1.06a2.75,2.75,0,0,1-2.14-.72,9.2,9.2,0,0,1-3.24.72c-1.64,0-2.54-.94-2.54-2.76s.9-2.48,2.76-2.66l2.82-.27v-.77c0-1.27-.54-1.72-1.62-1.72-1.26,0-3.4.24-3.4.24l-.05-1a22.1,22.1,0,0,1,3.52-.39c2,0,2.9.93,2.9,2.9Zm-4-2.55c-1.1.11-1.53.63-1.53,1.62s.45,1.65,1.37,1.65a9.61,9.61,0,0,0,2.82-.55v-3Z" fill="#3a3d3f" />
				<path d="M386.69,301.91v-9H388v.63a6.85,6.85,0,0,1,2.79-.81c2.48,0,3,1.22,3,4.42v4.76h-1.33v-4.72c0-2.38-.27-3.26-1.95-3.26a6.18,6.18,0,0,0-2.54.67v7.31Z" fill="#3a3d3f" />
				<path d="M396.36,301.91v-9h1.33v.63a6.85,6.85,0,0,1,2.79-.81c2.49,0,3,1.22,3,4.42v4.76h-1.34v-4.72c0-2.38-.27-3.26-1.94-3.26a6.12,6.12,0,0,0-2.54.67v7.31Z" fill="#3a3d3f" />
				<path d="M412.67,300.74l0,1.06a31.38,31.38,0,0,1-3.51.29c-2.69,0-3.57-1.57-3.57-4.63,0-3.42,1.48-4.73,3.76-4.73S413,294,413,296.94l-.07,1H407c0,1.92.59,2.93,2.36,2.93C410.71,300.9,412.67,300.74,412.67,300.74Zm-1-3.85c0-2.24-.68-3-2.27-3s-2.39.85-2.41,3Z" fill="#3a3d3f" />
				<path d="M415.12,292.91h1.33v1.22a10.18,10.18,0,0,1,3.29-1.42v1.37a13,13,0,0,0-3.27,1.22v6.61h-1.35Z" fill="#3a3d3f" />
				<path d="M421.25,299.86h1.48v2.05h-1.48Z" fill="#3a3d3f" />
				<circle cx="134.3" cy="201.3" r="11" fill="#3899e8" />
				<rect x="133.3" y="195.04" width="2" height="2.93" fill="#fff" />
				<rect x="133.3" y="200.38" width="2" height="7.18" fill="#fff" />
			</g>
		</g>
	</g>
</svg>
