<svg xmlns="http://www.w3.org/2000/svg" xmlns:xlink="http://www.w3.org/1999/xlink" viewBox="0 0 639 371.7">
	<defs>
		<clipPath id="clip-path">
			<rect x="2.29" width="633.92" height="4.5" fill="#f22020" />
		</clipPath>
	</defs>
	<title>
		m_1_Tablet
	</title>
	<g style="isolation:isolate">
		<g id="Layer_2" data-name="Layer 2">
			<g id="Layer_5" data-name="Layer 5">
				<rect x="3.61" y="4.5" width="631.5" height="361.44" fill="#fff" />
			</g>
			<g id="Layer_1-2" data-name="Layer 1">
				<path d="M221.19,40.49l2.48,13.1h.61l3-13h1.89l3,13h.61l2.48-13.1h1.66L233.9,55h-3l-2.75-12.41L225.44,55h-3l-3-14.53Z" />
				<path d="M248.28,48.45h-7.39V55h-1.62V40.49h1.62V47h7.39V40.49h1.6V55h-1.6Z" />
				<path d="M256.16,40.49h3.53l4,14.53h-1.59L261,51.29h-6.22L253.76,55h-1.59Zm-1,9.35h5.5l-2.2-8h-1.09Z" />
				<path d="M264.45,40.49H275v1.45h-4.43V55h-1.59V41.94h-4.48Z" />
				<path d="M281.63,40.49h1.62V55h-1.62Z" />
				<path d="M294.94,42.05s-2.92-.36-4.13-.36c-2.06,0-3.15.73-3.15,2.37,0,1.89,1,2.21,3.55,2.77,2.89.65,4.17,1.37,4.17,3.91,0,3.21-1.76,4.47-4.64,4.47a38.19,38.19,0,0,1-4.59-.46l.16-1.35s2.86.38,4.35.38c2.06,0,3.11-.9,3.11-2.91,0-1.64-.86-2.1-3.24-2.57-3-.65-4.51-1.36-4.51-4.13s1.85-3.91,4.68-3.91a36.26,36.26,0,0,1,4.39.42Z" />
				<path d="M311.81,48.45h-7.4V55H302.8V40.49h1.61V47h7.4V40.49h1.59V55h-1.59Z" />
				<path d="M319.68,40.49h3.53l4,14.53h-1.6l-1.05-3.73h-6.21l-1,3.73h-1.6Zm-1,9.35h5.51l-2.21-8H320.9Z" />
				<path d="M331.11,50.13V55h-1.62V40.49h5.31c3.17,0,4.64,1.54,4.64,4.68s-1.47,5-4.64,5Zm3.67-1.43c2.12,0,3-1.28,3-3.53s-.88-3.25-3-3.25h-3.67V48.7Z" />
				<path d="M343.56,50.13V55h-1.62V40.49h5.31c3.17,0,4.64,1.54,4.64,4.68s-1.47,5-4.64,5Zm3.67-1.43c2.12,0,3-1.28,3-3.53s-.89-3.25-3-3.25h-3.67V48.7Z" />
				<path d="M354.39,40.49h8.84v1.43H356v5h6v1.41h-6v5.24h7.22V55h-8.84Z" />
				<path d="M366,40.49h3l5.57,13.1H375V40.49h1.59V55h-3L368,41.92h-.39V55H366Z" />
				<path d="M380.21,40.49h1.61V55h-1.61Z" />
				<path d="M385.37,40.49h3L394,53.59h.44V40.49H396V55h-3l-5.64-13.1H387V55h-1.62Z" />
				<path d="M405.32,47.59h4v7.14a36.25,36.25,0,0,1-4.72.5c-4.46,0-5.63-2.73-5.63-7.43s1.22-7.52,5.58-7.52a26.85,26.85,0,0,1,4.77.55l-.06,1.34a33.53,33.53,0,0,0-4.52-.44c-3.36,0-4.09,2-4.09,6.07s.71,6,4.07,6a18.66,18.66,0,0,0,3-.3V49h-2.41Z" />
				<path d="M417.29,47.44c-1.24,1-1.87,1.68-1.87,2.63v.73H414.1a3.31,3.31,0,0,1-.27-1.28c0-1,.84-1.85,1.95-2.79,1.51-1.3,1.87-1.79,1.87-3,0-1.49-.91-2.06-2.8-2.06a19.61,19.61,0,0,0-3.25.48l-.11-1.28a16,16,0,0,1,3.51-.63c2.81,0,4.24.93,4.24,3.36C419.24,45.45,418.93,46.08,417.29,47.44Zm-3.42,5.21h1.72V55h-1.72Z" />
				<path d="M219.28,212.36v5.56h-1.61V203.39H223c3.05,0,4.64,1.34,4.64,4.41,0,2.14-.84,3.63-2.67,4.22l2.8,5.9H226l-2.62-5.56Zm3.76-7.54h-3.76v6.11h3.78c2.19,0,3-1.3,3-3.13C226,205.81,225.08,204.82,223,204.82Z" />
				<path d="M230.6,203.39h8.84v1.43h-7.22v5h6v1.4h-6v5.25h7.22v1.43H230.6Z" />
				<path d="M242.21,217.92V203.39h1.62v13.08h6.38v1.45Z" />
				<path d="M255,203.39h3.53l4,14.53h-1.6l-1-3.74h-6.21l-1,3.74H251Zm-1,9.34h5.5l-2.21-7.95H256.2Z" />
				<path d="M263.28,203.39h10.5v1.45h-4.43v13.08h-1.6V204.84h-4.47Z" />
				<path d="M275.83,203.39h8.84v1.43h-7.22v5h6v1.4h-6v5.25h7.22v1.43h-8.84Z" />
				<path d="M287.45,217.92V203.39h5.18c4.22,0,5.38,2.94,5.38,7.06s-1.09,7.47-5.38,7.47Zm5.18-13.1h-3.57v11.67h3.57c3,0,3.72-2.89,3.72-6S295.66,204.82,292.63,204.82Z" />
				<path d="M314.39,217.69a21.94,21.94,0,0,1-4,.44c-4.35,0-5.31-2.65-5.31-7.43s.94-7.52,5.31-7.52a21.34,21.34,0,0,1,4,.46l-.06,1.37a25.71,25.71,0,0,0-3.78-.38c-3.24,0-3.8,1.93-3.8,6.07s.52,6,3.84,6a23,23,0,0,0,3.74-.38Z" />
				<path d="M326,211.35h-7.39v6.57H317V203.39h1.61v6.51H326v-6.51h1.6v14.53H326Z" />
				<path d="M333.92,203.39h3.53l4,14.53h-1.6l-1-3.74h-6.21l-1.05,3.74h-1.6Zm-1,9.34h5.5l-2.2-7.95h-1.09Z" />
				<path d="M343.73,217.92V203.39h1.61v13.08h6.39v1.45Z" />
				<path d="M353.79,217.92V203.39h1.61v13.08h6.38v1.45Z" />
				<path d="M363.84,203.39h8.84v1.43h-7.22v5h6v1.4h-6v5.25h7.22v1.43h-8.84Z" />
				<path d="M375.46,203.39h3l5.56,13.1h.44v-13.1h1.6v14.53h-3l-5.65-13.1h-.4v13.1h-1.61Z" />
				<path d="M395.41,210.49h4v7.14a36.46,36.46,0,0,1-4.73.5c-4.45,0-5.63-2.73-5.63-7.43s1.22-7.52,5.59-7.52a27,27,0,0,1,4.77.55l-.07,1.34a33.29,33.29,0,0,0-4.51-.44c-3.36,0-4.1,2-4.1,6.07s.72,6,4.08,6a20.23,20.23,0,0,0,3-.29v-4.47h-2.41Z" />
				<path d="M402.59,203.39h8.84v1.43h-7.22v5h6v1.4h-6v5.25h7.22v1.43h-8.84Z" />
				<path d="M81.45,78.13h9v1.24H86.66V90.59H85.29V79.37H81.45Z" fill="#3a3d3f" />
				<path d="M92,90.59V77.66h1.35v4.43a7.57,7.57,0,0,1,2.78-.69c2.46,0,3,1.23,3,4.43v4.76H97.8V85.87c0-2.38-.27-3.26-1.93-3.26a7.41,7.41,0,0,0-2.54.54v7.44Z" fill="#3a3d3f" />
				<path d="M108.29,89.42l0,1.06a31.12,31.12,0,0,1-3.51.29c-2.69,0-3.57-1.57-3.57-4.63,0-3.42,1.48-4.74,3.76-4.74s3.62,1.26,3.62,4.22l-.07,1h-5.94c0,1.93.59,2.94,2.36,2.94C106.33,89.58,108.29,89.42,108.29,89.42Zm-1-3.86c0-2.23-.68-3-2.27-3s-2.39.85-2.41,3Z" fill="#3a3d3f" />
				<path d="M110.74,81.58h1.33v1.23a10.17,10.17,0,0,1,3.3-1.42v1.36A13.21,13.21,0,0,0,112.09,84v6.61h-1.35Z" fill="#3a3d3f" />
				<path d="M123.61,89.42l0,1.06a31.4,31.4,0,0,1-3.52.29c-2.68,0-3.56-1.57-3.56-4.63,0-3.42,1.48-4.74,3.76-4.74S124,82.66,124,85.62l-.07,1h-5.94c0,1.93.59,2.94,2.36,2.94C121.65,89.58,123.61,89.42,123.61,89.42Zm-1-3.86c0-2.23-.68-3-2.27-3s-2.39.85-2.41,3Z" fill="#3a3d3f" />
				<path d="M130,78h1.36v1.57H130Zm0,3.6h1.36v9H130Z" fill="#3a3d3f" />
				<path d="M139.94,82.9a29.33,29.33,0,0,0-3.16-.29c-1.11,0-2,.31-2,1.37,0,.85.43,1.08,2.34,1.4,2.25.38,3.1.83,3.1,2.58,0,2.1-1.33,2.81-3.49,2.81a25.4,25.4,0,0,1-3.17-.34l.07-1.18a29.5,29.5,0,0,0,3,.31c1.48,0,2.27-.32,2.27-1.55,0-.93-.47-1.17-2.43-1.47s-3-.71-3-2.51c0-2,1.6-2.63,3.24-2.63a22.55,22.55,0,0,1,3.26.35Z" fill="#3a3d3f" />
				<path d="M152.64,88.91c0,.53.47.72,1.05.8l-.06,1.06a2.75,2.75,0,0,1-2.14-.72,9.2,9.2,0,0,1-3.24.72c-1.64,0-2.54-.94-2.54-2.76s.9-2.48,2.76-2.66l2.82-.27V84.3c0-1.26-.54-1.71-1.62-1.71-1.26,0-3.4.24-3.4.24l-.05-1a21.6,21.6,0,0,1,3.53-.4c2,0,2.89.94,2.89,2.9Zm-4-2.55c-1.1.1-1.53.63-1.53,1.62s.45,1.65,1.37,1.65a9.47,9.47,0,0,0,2.82-.56v-3Z" fill="#3a3d3f" />
				<path d="M159.26,90.59V77.66h1.36v4.43a7.55,7.55,0,0,1,2.77-.69c2.47,0,3,1.23,3,4.43v4.76h-1.35V85.87c0-2.38-.27-3.26-1.93-3.26a7.39,7.39,0,0,0-2.53.54v7.44Z" fill="#3a3d3f" />
				<path d="M175.58,89.42l0,1.06a31.12,31.12,0,0,1-3.51.29c-2.68,0-3.56-1.57-3.56-4.63,0-3.42,1.47-4.74,3.76-4.74s3.62,1.26,3.62,4.22l-.08,1H169.9c0,1.93.6,2.94,2.36,2.94C173.61,89.58,175.58,89.42,175.58,89.42Zm-1-3.86c0-2.23-.69-3-2.27-3s-2.4.85-2.41,3Z" fill="#3a3d3f" />
				<path d="M184.38,88.91c0,.53.46.72,1,.8l0,1.06a2.76,2.76,0,0,1-2.15-.72,9.2,9.2,0,0,1-3.24.72c-1.64,0-2.54-.94-2.54-2.76s.9-2.48,2.76-2.66l2.83-.27V84.3c0-1.26-.54-1.71-1.62-1.71-1.26,0-3.41.24-3.41.24l-.05-1a21.6,21.6,0,0,1,3.53-.4c2,0,2.9.94,2.9,2.9Zm-4-2.55c-1.1.1-1.53.63-1.53,1.62s.45,1.65,1.37,1.65a9.57,9.57,0,0,0,2.83-.56v-3Z" fill="#3a3d3f" />
				<path d="M187.63,81.58l2.11,7.84h.67l2.17-7.84H194l-2.54,9h-2.7l-2.54-9Z" fill="#3a3d3f" />
				<path d="M196.2,81.58l2.25,7.84h.6l2.26-7.84h1.36l-3.75,13h-1.35l1.17-4h-1.33l-2.56-9Z" fill="#3a3d3f" />
				<path d="M214.17,81.67l-.06,1.1s-1.44-.16-2.12-.16c-2.07,0-2.63.9-2.63,3.31,0,2.67.41,3.64,2.64,3.64.69,0,2.13-.16,2.13-.16l.05,1.12a24,24,0,0,1-2.5.25c-2.86,0-3.71-1.32-3.71-4.85,0-3.26,1.06-4.52,3.75-4.52A21.18,21.18,0,0,1,214.17,81.67Z" fill="#3a3d3f" />
				<path d="M223.51,86c0,3.27-.81,4.79-3.85,4.79S215.8,89.25,215.8,86c0-3.1,1-4.58,3.86-4.58S223.51,82.88,223.51,86Zm-1.39,0c0-2.5-.54-3.41-2.46-3.41s-2.47.91-2.47,3.41.34,3.62,2.47,3.62S222.12,88.53,222.12,86Z" fill="#3a3d3f" />
				<path d="M225.7,90.59v-9H227v.64a6.8,6.8,0,0,1,2.8-.82c2.48,0,3,1.23,3,4.43v4.76h-1.33V85.87c0-2.38-.27-3.26-1.95-3.26a6.12,6.12,0,0,0-2.54.67v7.31Z" fill="#3a3d3f" />
				<path d="M235,92.1c0-1,.49-1.53,1.42-2.23a1.48,1.48,0,0,1-.5-1.24,5.75,5.75,0,0,1,.61-1.43c-.75-.34-1.42-1.06-1.42-2.72,0-2.21,1.37-3.08,3.37-3.08a9.07,9.07,0,0,1,1.87.24l2.66-.07v1.15l-1.71,0a2.33,2.33,0,0,1,.6,1.8c0,2.34-1.17,3-3.48,3a6.85,6.85,0,0,1-.88-.08,5.56,5.56,0,0,0-.32,1c0,.72.14.83,2.18.83,2.55,0,3.47.5,3.47,2.65s-1.46,2.86-4,2.86C236,94.82,235,94.19,235,92.1Zm2.34-1.69c-.75.56-1,.88-1,1.58,0,1.24.53,1.69,2.56,1.69,1.8,0,2.61-.48,2.61-1.67,0-1.37-.57-1.51-2.21-1.51C238.63,90.5,237.31,90.41,237.31,90.41Zm3.21-5.93c0-1.42-.56-2-2.07-2s-2,.56-2,2,.61,2,2,2S240.52,85.91,240.52,84.48Z" fill="#3a3d3f" />
				<path d="M251.26,89.42l0,1.06a31.12,31.12,0,0,1-3.51.29c-2.68,0-3.57-1.57-3.57-4.63,0-3.42,1.48-4.74,3.77-4.74s3.62,1.26,3.62,4.22l-.08,1h-5.94c0,1.93.6,2.94,2.36,2.94C249.3,89.58,251.26,89.42,251.26,89.42Zm-1-3.86c0-2.23-.68-3-2.26-3s-2.4.85-2.42,3Z" fill="#3a3d3f" />
				<path d="M259.69,82.9a29.33,29.33,0,0,0-3.15-.29c-1.12,0-2,.31-2,1.37,0,.85.44,1.08,2.34,1.4,2.26.38,3.1.83,3.1,2.58,0,2.1-1.33,2.81-3.49,2.81a25.65,25.65,0,0,1-3.17-.34l.07-1.18a29.5,29.5,0,0,0,3,.31c1.48,0,2.27-.32,2.27-1.55,0-.93-.47-1.17-2.43-1.47s-3-.71-3-2.51c0-2,1.61-2.63,3.24-2.63a22.55,22.55,0,0,1,3.26.35Z" fill="#3a3d3f" />
				<path d="M263.88,82.75v4.31c0,2,.13,2.52,1.3,2.52.5,0,1.6-.11,1.6-.11l.09,1.12a15.71,15.71,0,0,1-1.84.2c-1.85,0-2.48-.71-2.48-3.3V82.75h-1.28V81.58h1.28V78.83h1.33v2.75h2.86v1.17Z" fill="#3a3d3f" />
				<path d="M268.4,78h1.35v1.57H268.4Zm0,3.6h1.35v9H268.4Z" fill="#3a3d3f" />
				<path d="M279.65,86c0,3.27-.81,4.79-3.85,4.79s-3.86-1.52-3.86-4.79c0-3.1,1-4.58,3.86-4.58S279.65,82.88,279.65,86Zm-1.39,0c0-2.5-.54-3.41-2.46-3.41s-2.47.91-2.47,3.41.34,3.62,2.47,3.62S278.26,88.53,278.26,86Z" fill="#3a3d3f" />
				<path d="M281.84,90.59v-9h1.34v.64A6.73,6.73,0,0,1,286,81.4c2.48,0,3,1.23,3,4.43v4.76h-1.33V85.87c0-2.38-.27-3.26-1.95-3.26a6.18,6.18,0,0,0-2.54.67v7.31Z" fill="#3a3d3f" />
				<path d="M302.78,86c0,3.27-.81,4.79-3.85,4.79s-3.86-1.52-3.86-4.79c0-3.1,1-4.58,3.86-4.58S302.78,82.88,302.78,86Zm-1.39,0c0-2.5-.54-3.41-2.46-3.41s-2.47.91-2.47,3.41.34,3.62,2.47,3.62S301.39,88.53,301.39,86Z" fill="#3a3d3f" />
				<path d="M305,90.59v-9h1.34v.64a6.73,6.73,0,0,1,2.79-.82c2.48,0,3,1.23,3,4.43v4.76h-1.33V85.87c0-2.38-.27-3.26-1.95-3.26a6.18,6.18,0,0,0-2.54.67v7.31Z" fill="#3a3d3f" />
				<path d="M318.83,78.13h7.58v1.22h-6.19v4.3h5.11v1.21h-5.11v4.5h6.19v1.23h-7.58Z" fill="#3a3d3f" />
				<path d="M333.74,88.26H328V87.18l3.38-8.48h1.52L329.44,87h4.3V83.33h1.39V87h1.51v1.22h-1.51v2.33h-1.39Z" fill="#3a3d3f" />
				<path d="M345.93,78.7V80h-5.78l-.33,3.88a6.87,6.87,0,0,1,2.79-.74c2.33,0,3.78,1,3.78,3.51,0,2.74-1.49,4.14-4,4.14a19.76,19.76,0,0,1-3.95-.52l.16-1.1a24.25,24.25,0,0,0,3.66.39,2.5,2.5,0,0,0,2.68-2.8c0-1.8-1-2.38-2.52-2.38a6.75,6.75,0,0,0-2.82.72l-1-.18L339,78.7Z" fill="#3a3d3f" />
				<path d="M352.67,90.59V77.66H354v4.43a7.57,7.57,0,0,1,2.78-.69c2.46,0,3,1.23,3,4.43v4.76h-1.35V85.87c0-2.38-.27-3.26-1.93-3.26a7.48,7.48,0,0,0-2.54.54v7.44Z" fill="#3a3d3f" />
				<path d="M362.34,78h1.35v1.57h-1.35Zm0,3.6h1.35v9h-1.35Z" fill="#3a3d3f" />
				<path d="M365.89,92.1c0-1,.48-1.53,1.42-2.23a1.46,1.46,0,0,1-.51-1.24,5.7,5.7,0,0,1,.62-1.43c-.76-.34-1.43-1.06-1.43-2.72,0-2.21,1.37-3.08,3.37-3.08a9.07,9.07,0,0,1,1.87.24l2.67-.07v1.15l-1.71,0a2.37,2.37,0,0,1,.59,1.8c0,2.34-1.17,3-3.47,3a7,7,0,0,1-.89-.08,5.56,5.56,0,0,0-.32,1c0,.72.14.83,2.18.83,2.56,0,3.47.5,3.47,2.65s-1.45,2.86-4,2.86C366.91,94.82,365.89,94.19,365.89,92.1Zm2.34-1.69c-.76.56-1,.88-1,1.58,0,1.24.52,1.69,2.55,1.69,1.81,0,2.62-.48,2.62-1.67,0-1.37-.58-1.51-2.22-1.51C369.54,90.5,368.23,90.41,368.23,90.41Zm3.2-5.93c0-1.42-.56-2-2.07-2s-2,.56-2,2,.62,2,2,2S371.43,85.91,371.43,84.48Z" fill="#3a3d3f" />
				<path d="M375.53,90.59V77.66h1.35v4.43a7.57,7.57,0,0,1,2.78-.69c2.46,0,3,1.23,3,4.43v4.76h-1.35V85.87c0-2.38-.27-3.26-1.93-3.26a7.41,7.41,0,0,0-2.54.54v7.44Z" fill="#3a3d3f" />
				<path d="M385.81,81.58l1.82,7.84h.29l2.14-7.66h1.41l2.14,7.66h.3l1.8-7.84h1.36l-2.15,9h-2.25l-1.91-7-1.91,7H386.6l-2.14-9Z" fill="#3a3d3f" />
				<path d="M405.27,88.91c0,.53.47.72,1.05.8l-.06,1.06a2.75,2.75,0,0,1-2.14-.72,9.2,9.2,0,0,1-3.24.72c-1.64,0-2.54-.94-2.54-2.76s.9-2.48,2.75-2.66l2.83-.27V84.3c0-1.26-.54-1.71-1.62-1.71-1.26,0-3.4.24-3.4.24l-.06-1a21.6,21.6,0,0,1,3.53-.4c2,0,2.9.94,2.9,2.9Zm-4-2.55c-1.1.1-1.53.63-1.53,1.62s.45,1.65,1.36,1.65a9.48,9.48,0,0,0,2.83-.56v-3Z" fill="#3a3d3f" />
				<path d="M408.44,81.58l2.25,7.84h.59l2.27-7.84h1.35l-3.74,13h-1.35l1.17-4h-1.34l-2.55-9Z" fill="#3a3d3f" />
				<path d="M427.84,85.94c0,3.58-1,4.83-4.25,4.83-1.08,0-3-.2-3-.2V77.66h1.33V82a7.44,7.44,0,0,1,2.65-.63C427,81.4,427.84,82.7,427.84,85.94Zm-1.37,0c0-2.32-.46-3.33-2.05-3.33a7.57,7.57,0,0,0-2.5.52v6.34s1.17.09,1.66.09C426,89.56,426.47,88.46,426.47,85.94Z" fill="#3a3d3f" />
				<path d="M436.7,89.42l0,1.06a31.12,31.12,0,0,1-3.51.29c-2.68,0-3.56-1.57-3.56-4.63,0-3.42,1.47-4.74,3.76-4.74S437,82.66,437,85.62l-.07,1H431c0,1.93.59,2.94,2.35,2.94C434.74,89.58,436.7,89.42,436.7,89.42Zm-1-3.86c0-2.23-.68-3-2.27-3s-2.39.85-2.41,3Z" fill="#3a3d3f" />
				<path d="M445,81.67l0,1.1s-1.44-.16-2.13-.16c-2.07,0-2.63.9-2.63,3.31,0,2.67.42,3.64,2.65,3.64.68,0,2.12-.16,2.12-.16l.06,1.12a24.24,24.24,0,0,1-2.51.25c-2.86,0-3.7-1.32-3.7-4.85,0-3.26,1.06-4.52,3.74-4.52A20.89,20.89,0,0,1,445,81.67Z" fill="#3a3d3f" />
				<path d="M453.35,88.91c0,.53.47.72,1,.8l-.05,1.06a2.74,2.74,0,0,1-2.14-.72,9.22,9.22,0,0,1-3.25.72c-1.63,0-2.53-.94-2.53-2.76s.9-2.48,2.75-2.66l2.83-.27V84.3c0-1.26-.54-1.71-1.62-1.71-1.26,0-3.41.24-3.41.24l-.05-1a21.6,21.6,0,0,1,3.53-.4c2,0,2.9.94,2.9,2.9Zm-4-2.55c-1.1.1-1.53.63-1.53,1.62s.45,1.65,1.37,1.65a9.57,9.57,0,0,0,2.83-.56v-3Z" fill="#3a3d3f" />
				<path d="M463,81.58v9h-1.35V90a6.08,6.08,0,0,1-2.67.81c-2.52,0-3-1.17-3-4.49v-4.7h1.35v4.69c0,2.48.22,3.29,1.89,3.29a5.47,5.47,0,0,0,2.47-.67V81.58Z" fill="#3a3d3f" />
				<path d="M471.54,82.9a29,29,0,0,0-3.15-.29c-1.11,0-2,.31-2,1.37,0,.85.43,1.08,2.34,1.4,2.25.38,3.1.83,3.1,2.58,0,2.1-1.33,2.81-3.49,2.81a25.4,25.4,0,0,1-3.17-.34l.07-1.18a29.5,29.5,0,0,0,3,.31c1.48,0,2.27-.32,2.27-1.55,0-.93-.47-1.17-2.43-1.47s-3-.71-3-2.51c0-2,1.6-2.63,3.24-2.63a22.55,22.55,0,0,1,3.26.35Z" fill="#3a3d3f" />
				<path d="M480.58,89.42l0,1.06a31.38,31.38,0,0,1-3.51.29c-2.69,0-3.57-1.57-3.57-4.63,0-3.42,1.48-4.74,3.76-4.74s3.62,1.26,3.62,4.22l-.07,1h-5.94c0,1.93.59,2.94,2.36,2.94C478.62,89.58,480.58,89.42,480.58,89.42Zm-1-3.86c0-2.23-.68-3-2.27-3s-2.39.85-2.41,3Z" fill="#3a3d3f" />
				<path d="M494.3,86c0,3.27-.81,4.79-3.86,4.79s-3.85-1.52-3.85-4.79c0-3.1,1-4.58,3.85-4.58S494.3,82.88,494.3,86Zm-1.39,0c0-2.5-.54-3.41-2.47-3.41S488,83.48,488,86s.34,3.62,2.46,3.62S492.91,88.53,492.91,86Z" fill="#3a3d3f" />
				<path d="M498.22,90.59h-1.35V82.75h-1.14V81.58h1.14v-.81c0-2.59.67-3.29,2.43-3.29.61,0,1.82.13,1.82.13l0,1.11s-1,0-1.55,0c-1,0-1.33.43-1.33,2.1v.79h2.61v1.17h-2.61Z" fill="#3a3d3f" />
				<path d="M512.76,88.91c0,.53.47.72,1,.8l-.06,1.06a2.75,2.75,0,0,1-2.14-.72,9.2,9.2,0,0,1-3.24.72c-1.64,0-2.54-.94-2.54-2.76s.9-2.48,2.76-2.66l2.82-.27V84.3c0-1.26-.54-1.71-1.62-1.71-1.26,0-3.4.24-3.4.24l-.05-1a21.6,21.6,0,0,1,3.53-.4c2,0,2.89.94,2.89,2.9Zm-4-2.55c-1.1.1-1.53.63-1.53,1.62s.45,1.65,1.37,1.65a9.47,9.47,0,0,0,2.82-.56v-3Z" fill="#3a3d3f" />
				<path d="M519.39,90.59v-9h1.33v.64a6,6,0,0,1,2.63-.82,2.54,2.54,0,0,1,2.34.92,7.46,7.46,0,0,1,3.2-.92c2.45,0,3.05,1.17,3.05,4.43v4.76h-1.35V85.87c0-2.38-.27-3.26-1.89-3.26a5.89,5.89,0,0,0-2.54.67,10.34,10.34,0,0,1,.23,2.63v4.68H525V85.94c0-2.48-.25-3.33-1.89-3.33a5.34,5.34,0,0,0-2.41.67v7.31Z" fill="#3a3d3f" />
				<path d="M540.79,88.91c0,.53.47.72,1,.8l-.05,1.06a2.75,2.75,0,0,1-2.14-.72,9.2,9.2,0,0,1-3.24.72c-1.64,0-2.54-.94-2.54-2.76s.9-2.48,2.75-2.66l2.83-.27V84.3c0-1.26-.54-1.71-1.62-1.71-1.26,0-3.4.24-3.4.24l-.06-1a21.6,21.6,0,0,1,3.53-.4c2,0,2.9.94,2.9,2.9Zm-4-2.55A1.44,1.44,0,0,0,535.24,88c0,1,.45,1.65,1.37,1.65a9.48,9.48,0,0,0,2.83-.56v-3Z" fill="#3a3d3f" />
				<path d="M543.47,81.58h1.33v8.79c0,2.22-.59,3-3,4.23l-.54-1c1.82-1.06,2.2-1.48,2.2-3.21Zm0-3.6h1.33v1.57h-1.33Z" fill="#3a3d3f" />
				<path d="M554.7,86c0,3.27-.81,4.79-3.85,4.79S547,89.25,547,86c0-3.1,1-4.58,3.85-4.58S554.7,82.88,554.7,86Zm-1.38,0c0-2.5-.54-3.41-2.47-3.41s-2.47.91-2.47,3.41.35,3.62,2.47,3.62S553.32,88.53,553.32,86Z" fill="#3a3d3f" />
				<path d="M556.9,81.58h1.33v1.23a10.18,10.18,0,0,1,3.29-1.42v1.36A13.24,13.24,0,0,0,558.25,84v6.61H556.9Z" fill="#3a3d3f" />
				<path d="M71.67,108.58H73v1.23a10.17,10.17,0,0,1,3.3-1.42v1.36A13.21,13.21,0,0,0,73,111v6.61H71.67Z" fill="#3a3d3f" />
				<path d="M85.21,113c0,3.27-.81,4.79-3.86,4.79S77.5,116.25,77.5,113c0-3.1,1-4.58,3.85-4.58S85.21,109.88,85.21,113Zm-1.39,0c0-2.5-.54-3.41-2.47-3.41s-2.46.91-2.46,3.41.34,3.62,2.46,3.62S83.82,115.53,83.82,113Z" fill="#3a3d3f" />
				<path d="M93.76,115.91c0,.53.46.72,1,.8l0,1.06a2.76,2.76,0,0,1-2.15-.72,9.2,9.2,0,0,1-3.24.72c-1.64,0-2.53-.94-2.53-2.76s.89-2.48,2.75-2.66l2.83-.27v-.78c0-1.26-.54-1.71-1.62-1.71-1.26,0-3.41.24-3.41.24l0-1a21.6,21.6,0,0,1,3.53-.4c2,0,2.9.94,2.9,2.9Zm-4-2.55c-1.1.1-1.53.63-1.53,1.62s.45,1.65,1.37,1.65a9.57,9.57,0,0,0,2.83-.56v-3Z" fill="#3a3d3f" />
				<path d="M103.33,117.59H102V117a6.49,6.49,0,0,1-2.74.79c-1.76,0-3.24-.72-3.24-4.61,0-3.17,1-4.76,3.77-4.76a14.12,14.12,0,0,1,2.21.24v-4h1.33Zm-1.33-1.7v-6.1a15.75,15.75,0,0,0-2.14-.22c-1.89,0-2.45,1.25-2.45,3.59,0,2.91,1,3.4,2,3.4A6.53,6.53,0,0,0,102,115.89Z" fill="#3a3d3f" />
				<path d="M116.26,115.91c0,.53.46.72,1,.8l0,1.06a2.76,2.76,0,0,1-2.15-.72,9.2,9.2,0,0,1-3.24.72c-1.64,0-2.54-.94-2.54-2.76s.9-2.48,2.76-2.66l2.83-.27v-.78c0-1.26-.54-1.71-1.62-1.71-1.27,0-3.41.24-3.41.24l0-1a21.6,21.6,0,0,1,3.53-.4c2,0,2.9.94,2.9,2.9Zm-4-2.55c-1.1.1-1.53.63-1.53,1.62s.45,1.65,1.37,1.65a9.57,9.57,0,0,0,2.83-.56v-3Z" fill="#3a3d3f" />
				<path d="M124.73,108.67l0,1.1s-1.44-.16-2.13-.16c-2.07,0-2.62.9-2.62,3.31,0,2.67.41,3.64,2.64,3.64.69,0,2.13-.16,2.13-.16l0,1.12a24,24,0,0,1-2.5.25c-2.86,0-3.71-1.32-3.71-4.85,0-3.26,1.06-4.52,3.74-4.52A20.89,20.89,0,0,1,124.73,108.67Z" fill="#3a3d3f" />
				<path d="M132.58,108.67l-.05,1.1s-1.44-.16-2.13-.16c-2.07,0-2.63.9-2.63,3.31,0,2.67.42,3.64,2.65,3.64.68,0,2.12-.16,2.12-.16l.06,1.12a24.28,24.28,0,0,1-2.5.25c-2.87,0-3.71-1.32-3.71-4.85,0-3.26,1.06-4.52,3.74-4.52A20.89,20.89,0,0,1,132.58,108.67Z" fill="#3a3d3f" />
				<path d="M134.61,105H136v1.57h-1.35Zm0,3.6H136v9h-1.35Z" fill="#3a3d3f" />
				<path d="M145.47,117.59h-1.33V117a6.49,6.49,0,0,1-2.74.79c-1.76,0-3.24-.72-3.24-4.61,0-3.17,1-4.76,3.76-4.76a14.13,14.13,0,0,1,2.22.24v-4h1.33Zm-1.33-1.7v-6.1a15.93,15.93,0,0,0-2.15-.22c-1.89,0-2.44,1.25-2.44,3.59,0,2.91.95,3.4,2,3.4A6.54,6.54,0,0,0,144.14,115.89Z" fill="#3a3d3f" />
				<path d="M154.72,116.42l0,1.06a31.38,31.38,0,0,1-3.51.29c-2.69,0-3.57-1.57-3.57-4.63,0-3.42,1.48-4.74,3.76-4.74s3.62,1.26,3.62,4.22l-.07,1h-5.94c0,1.93.59,2.94,2.36,2.94C152.76,116.58,154.72,116.42,154.72,116.42Zm-1-3.86c0-2.23-.68-3-2.27-3s-2.39.85-2.41,3Z" fill="#3a3d3f" />
				<path d="M157.17,117.59v-9h1.33v.64a6.79,6.79,0,0,1,2.79-.82c2.48,0,3,1.23,3,4.43v4.76H163v-4.72c0-2.38-.27-3.26-1.94-3.26a6.12,6.12,0,0,0-2.54.67v7.31Z" fill="#3a3d3f" />
				<path d="M168.63,109.75v4.31c0,2,.13,2.52,1.3,2.52.5,0,1.6-.11,1.6-.11l.09,1.12a15.44,15.44,0,0,1-1.83.2c-1.86,0-2.49-.71-2.49-3.3v-4.74H166v-1.17h1.28v-2.75h1.33v2.75h2.87v1.17Z" fill="#3a3d3f" />
				<path d="M173.06,115.53h1.48v2.06h-1.48Z" fill="#3a3d3f" />
				<path d="M179.94,105.13h9v1.24h-3.8v11.22h-1.37V106.37h-3.83Z" fill="#3a3d3f" />
				<path d="M190.47,117.59V104.66h1.35v4.43a7.55,7.55,0,0,1,2.77-.69c2.47,0,3,1.23,3,4.43v4.76h-1.35v-4.72c0-2.38-.27-3.26-1.92-3.26a7.41,7.41,0,0,0-2.54.54v7.44Z" fill="#3a3d3f" />
				<path d="M200.13,105h1.35v1.57h-1.35Zm0,3.6h1.35v9h-1.35Z" fill="#3a3d3f" />
				<path d="M210.05,109.9a29.33,29.33,0,0,0-3.15-.29c-1.11,0-2,.31-2,1.37,0,.85.43,1.08,2.34,1.4,2.25.38,3.1.83,3.1,2.58,0,2.1-1.34,2.81-3.5,2.81a25.65,25.65,0,0,1-3.17-.34l.08-1.18a29.5,29.5,0,0,0,3,.31c1.47,0,2.27-.32,2.27-1.55,0-.93-.47-1.17-2.43-1.47s-3-.71-3-2.51c0-2,1.6-2.63,3.24-2.63a22.55,22.55,0,0,1,3.26.35Z" fill="#3a3d3f" />
				<path d="M216.41,117.59v-9h1.33v.64a6,6,0,0,1,2.63-.82,2.54,2.54,0,0,1,2.34.92,7.46,7.46,0,0,1,3.2-.92c2.45,0,3,1.17,3,4.43v4.76H227.6v-4.72c0-2.38-.27-3.26-1.89-3.26a6,6,0,0,0-2.54.67,9.8,9.8,0,0,1,.24,2.63v4.68h-1.35v-4.65c0-2.48-.25-3.33-1.89-3.33a5.4,5.4,0,0,0-2.42.67v7.31Z" fill="#3a3d3f" />
				<path d="M237.81,115.91c0,.53.47.72,1,.8l0,1.06a2.74,2.74,0,0,1-2.14-.72,9.2,9.2,0,0,1-3.24.72c-1.64,0-2.54-.94-2.54-2.76s.9-2.48,2.75-2.66l2.83-.27v-.78c0-1.26-.54-1.71-1.62-1.71-1.26,0-3.41.24-3.41.24l-.05-1a21.6,21.6,0,0,1,3.53-.4c2,0,2.9.94,2.9,2.9Zm-4-2.55a1.44,1.44,0,0,0-1.53,1.62c0,1,.45,1.65,1.37,1.65a9.57,9.57,0,0,0,2.83-.56v-3Z" fill="#3a3d3f" />
				<path d="M241,108.58l2.25,7.84h.6l2.27-7.84h1.35l-3.75,13h-1.35l1.17-4h-1.33l-2.56-9Z" fill="#3a3d3f" />
				<path d="M258.94,108.67l-.05,1.1s-1.45-.16-2.13-.16c-2.07,0-2.63.9-2.63,3.31,0,2.67.42,3.64,2.65,3.64.68,0,2.12-.16,2.12-.16l.06,1.12a24.24,24.24,0,0,1-2.51.25c-2.86,0-3.7-1.32-3.7-4.85,0-3.26,1.06-4.52,3.74-4.52A20.89,20.89,0,0,1,258.94,108.67Z" fill="#3a3d3f" />
				<path d="M267.33,115.91c0,.53.46.72,1,.8l-.05,1.06a2.76,2.76,0,0,1-2.15-.72,9.2,9.2,0,0,1-3.24.72c-1.64,0-2.53-.94-2.53-2.76s.89-2.48,2.75-2.66l2.83-.27v-.78c0-1.26-.54-1.71-1.62-1.71-1.26,0-3.41.24-3.41.24l-.05-1a21.6,21.6,0,0,1,3.53-.4c2,0,2.9.94,2.9,2.9Zm-4-2.55c-1.1.1-1.53.63-1.53,1.62s.45,1.65,1.37,1.65a9.57,9.57,0,0,0,2.83-.56v-3Z" fill="#3a3d3f" />
				<path d="M277,108.58v9h-1.35V117a6.08,6.08,0,0,1-2.67.81c-2.52,0-3-1.17-3-4.49v-4.7h1.35v4.69c0,2.48.21,3.29,1.89,3.29a5.47,5.47,0,0,0,2.47-.67v-7.31Z" fill="#3a3d3f" />
				<path d="M285.52,109.9a29,29,0,0,0-3.15-.29c-1.11,0-2,.31-2,1.37,0,.85.43,1.08,2.34,1.4,2.25.38,3.1.83,3.1,2.58,0,2.1-1.33,2.81-3.49,2.81a25.4,25.4,0,0,1-3.17-.34l.07-1.18a29.5,29.5,0,0,0,3,.31c1.48,0,2.27-.32,2.27-1.55,0-.93-.47-1.17-2.43-1.47s-3-.71-3-2.51c0-2,1.6-2.63,3.24-2.63a22.55,22.55,0,0,1,3.26.35Z" fill="#3a3d3f" />
				<path d="M294.56,116.42l0,1.06a31.4,31.4,0,0,1-3.52.29c-2.68,0-3.56-1.57-3.56-4.63,0-3.42,1.48-4.74,3.76-4.74s3.62,1.26,3.62,4.22l-.07,1h-5.94c0,1.93.59,2.94,2.36,2.94C292.6,116.58,294.56,116.42,294.56,116.42Zm-1-3.86c0-2.23-.68-3-2.27-3s-2.39.85-2.41,3Z" fill="#3a3d3f" />
				<path d="M307.32,115.91c0,.53.47.72,1.05.8l-.06,1.06a2.75,2.75,0,0,1-2.14-.72,9.2,9.2,0,0,1-3.24.72c-1.64,0-2.54-.94-2.54-2.76s.9-2.48,2.75-2.66l2.83-.27v-.78c0-1.26-.54-1.71-1.62-1.71-1.26,0-3.4.24-3.4.24l-.06-1a21.77,21.77,0,0,1,3.53-.4c2,0,2.9.94,2.9,2.9Zm-4-2.55c-1.1.1-1.53.63-1.53,1.62s.45,1.65,1.36,1.65a9.48,9.48,0,0,0,2.83-.56v-3Z" fill="#3a3d3f" />
				<path d="M313.55,119.1c0-1,.48-1.53,1.42-2.23a1.48,1.48,0,0,1-.5-1.24,5.75,5.75,0,0,1,.61-1.43c-.76-.34-1.42-1.06-1.42-2.72,0-2.21,1.36-3.08,3.36-3.08a9.22,9.22,0,0,1,1.88.24l2.66-.07v1.15l-1.71,0a2.37,2.37,0,0,1,.59,1.8c0,2.34-1.17,3-3.47,3a6.69,6.69,0,0,1-.88-.08,5.44,5.44,0,0,0-.33,1c0,.72.15.83,2.18.83,2.56,0,3.48.5,3.48,2.65s-1.46,2.86-4,2.86C314.57,121.82,313.55,121.19,313.55,119.1Zm2.34-1.69c-.76.56-1,.88-1,1.58,0,1.24.52,1.69,2.56,1.69,1.8,0,2.61-.48,2.61-1.67,0-1.37-.58-1.51-2.22-1.51C317.2,117.5,315.89,117.41,315.89,117.41Zm3.2-5.93c0-1.42-.55-2-2.07-2s-2,.56-2,2,.61,2,2,2S319.09,112.91,319.09,111.48Z" fill="#3a3d3f" />
				<path d="M323.2,108.58h1.33v1.23a10.06,10.06,0,0,1,3.29-1.42v1.36a13.24,13.24,0,0,0-3.27,1.23v6.61H323.2Z" fill="#3a3d3f" />
				<path d="M336.73,113c0,3.27-.81,4.79-3.85,4.79S329,116.25,329,113c0-3.1,1-4.58,3.85-4.58S336.73,109.88,336.73,113Zm-1.38,0c0-2.5-.54-3.41-2.47-3.41s-2.47.91-2.47,3.41.35,3.62,2.47,3.62S335.35,115.53,335.35,113Z" fill="#3a3d3f" />
				<path d="M345.9,108.58v9h-1.36V117a6.07,6.07,0,0,1-2.66.81c-2.52,0-3-1.17-3-4.49v-4.7h1.35v4.69c0,2.48.21,3.29,1.89,3.29a5.4,5.4,0,0,0,2.46-.67v-7.31Z" fill="#3a3d3f" />
				<path d="M348.49,108.58h1.33v.65a6.12,6.12,0,0,1,2.7-.83c2.27,0,3.26,1.39,3.26,4.58,0,3.53-1.15,4.79-3.93,4.79a12.3,12.3,0,0,1-2-.2v4h-1.34Zm1.34,1.75v6.07a13.12,13.12,0,0,0,1.95.2c2,0,2.63-1,2.63-3.62s-.78-3.37-2.09-3.37A5.93,5.93,0,0,0,349.83,110.33Z" fill="#3a3d3f" />
				<path d="M369.24,113c0,3.27-.81,4.79-3.85,4.79s-3.85-1.52-3.85-4.79c0-3.1,1-4.58,3.85-4.58S369.24,109.88,369.24,113Zm-1.39,0c0-2.5-.54-3.41-2.46-3.41s-2.47.91-2.47,3.41.34,3.62,2.47,3.62S367.85,115.53,367.85,113Z" fill="#3a3d3f" />
				<path d="M373.16,117.59h-1.35v-7.84h-1.13v-1.17h1.13v-.81c0-2.59.67-3.29,2.43-3.29.62,0,1.82.13,1.82.13l0,1.11s-1,0-1.54,0c-1,0-1.34.43-1.34,2.1v.79h2.61v1.17h-2.61Z" fill="#3a3d3f" />
				<path d="M381.35,108.58h1.34v.65a6.07,6.07,0,0,1,2.7-.83c2.27,0,3.26,1.39,3.26,4.58,0,3.53-1.16,4.79-3.93,4.79a12.16,12.16,0,0,1-2-.2v4h-1.35Zm1.35,1.75v6.07a13,13,0,0,0,1.95.2c2,0,2.63-1,2.63-3.62s-.78-3.37-2.09-3.37A5.87,5.87,0,0,0,382.7,110.33Z" fill="#3a3d3f" />
				<path d="M397.2,115.91c0,.53.46.72,1,.8l-.05,1.06a2.76,2.76,0,0,1-2.15-.72,9.2,9.2,0,0,1-3.24.72c-1.64,0-2.54-.94-2.54-2.76s.9-2.48,2.76-2.66l2.82-.27v-.78c0-1.26-.54-1.71-1.62-1.71-1.26,0-3.4.24-3.4.24l-.05-1a21.6,21.6,0,0,1,3.53-.4c2,0,2.9.94,2.9,2.9Zm-4-2.55c-1.1.1-1.53.63-1.53,1.62s.45,1.65,1.37,1.65a9.47,9.47,0,0,0,2.82-.56v-3Z" fill="#3a3d3f" />
				<path d="M405.83,109.9a29,29,0,0,0-3.15-.29c-1.11,0-2,.31-2,1.37,0,.85.43,1.08,2.34,1.4,2.25.38,3.1.83,3.1,2.58,0,2.1-1.33,2.81-3.49,2.81a25.4,25.4,0,0,1-3.17-.34l.07-1.18a29.5,29.5,0,0,0,3,.31c1.48,0,2.27-.32,2.27-1.55,0-.93-.47-1.17-2.43-1.47s-3-.71-3-2.51c0-2,1.6-2.63,3.24-2.63a22.55,22.55,0,0,1,3.26.35Z" fill="#3a3d3f" />
				<path d="M414.21,109.9a29.33,29.33,0,0,0-3.16-.29c-1.11,0-2,.31-2,1.37,0,.85.43,1.08,2.34,1.4,2.25.38,3.1.83,3.1,2.58,0,2.1-1.33,2.81-3.49,2.81a25.4,25.4,0,0,1-3.17-.34l.07-1.18a29.5,29.5,0,0,0,3,.31c1.48,0,2.27-.32,2.27-1.55,0-.93-.47-1.17-2.43-1.47s-3-.71-3-2.51c0-2,1.6-2.63,3.24-2.63a22.55,22.55,0,0,1,3.26.35Z" fill="#3a3d3f" />
				<path d="M423.24,116.42l0,1.06a31.38,31.38,0,0,1-3.51.29c-2.69,0-3.57-1.57-3.57-4.63,0-3.42,1.48-4.74,3.76-4.74s3.62,1.26,3.62,4.22l-.07,1h-5.94c0,1.93.59,2.94,2.36,2.94C421.28,116.58,423.24,116.42,423.24,116.42Zm-1-3.86c0-2.23-.68-3-2.27-3s-2.39.85-2.41,3Z" fill="#3a3d3f" />
				<path d="M425.69,117.59v-9H427v.64a6.79,6.79,0,0,1,2.79-.82c2.48,0,3,1.23,3,4.43v4.76h-1.33v-4.72c0-2.38-.27-3.26-1.94-3.26a6.12,6.12,0,0,0-2.54.67v7.31Z" fill="#3a3d3f" />
				<path d="M435,119.1c0-1,.48-1.53,1.42-2.23a1.48,1.48,0,0,1-.5-1.24,5.75,5.75,0,0,1,.61-1.43c-.76-.34-1.42-1.06-1.42-2.72,0-2.21,1.36-3.08,3.36-3.08a9.07,9.07,0,0,1,1.87.24l2.67-.07v1.15l-1.71,0a2.37,2.37,0,0,1,.59,1.8c0,2.34-1.17,3-3.47,3a6.69,6.69,0,0,1-.88-.08,5.44,5.44,0,0,0-.33,1c0,.72.15.83,2.18.83,2.56,0,3.48.5,3.48,2.65s-1.46,2.86-4,2.86C436,121.82,435,121.19,435,119.1Zm2.34-1.69c-.76.56-1,.88-1,1.58,0,1.24.52,1.69,2.56,1.69,1.8,0,2.61-.48,2.61-1.67,0-1.37-.58-1.51-2.22-1.51C438.61,117.5,437.3,117.41,437.3,117.41Zm3.2-5.93c0-1.42-.56-2-2.07-2s-2,.56-2,2,.61,2,2,2S440.5,112.91,440.5,111.48Z" fill="#3a3d3f" />
				<path d="M451.25,116.42l0,1.06a31.4,31.4,0,0,1-3.52.29c-2.68,0-3.56-1.57-3.56-4.63,0-3.42,1.48-4.74,3.76-4.74s3.62,1.26,3.62,4.22l-.07,1h-5.94c0,1.93.59,2.94,2.36,2.94C449.29,116.58,451.25,116.42,451.25,116.42Zm-1-3.86c0-2.23-.68-3-2.27-3s-2.39.85-2.41,3Z" fill="#3a3d3f" />
				<path d="M453.69,108.58H455v1.23a10.06,10.06,0,0,1,3.29-1.42v1.36A13.41,13.41,0,0,0,455,111v6.61h-1.35Z" fill="#3a3d3f" />
				<path d="M465.9,109.9a29.33,29.33,0,0,0-3.15-.29c-1.12,0-2,.31-2,1.37,0,.85.43,1.08,2.34,1.4,2.25.38,3.09.83,3.09,2.58,0,2.1-1.33,2.81-3.49,2.81a25.65,25.65,0,0,1-3.17-.34l.07-1.18a29.8,29.8,0,0,0,3,.31c1.47,0,2.26-.32,2.26-1.55,0-.93-.46-1.17-2.43-1.47s-3-.71-3-2.51c0-2,1.6-2.63,3.24-2.63a22.55,22.55,0,0,1,3.26.35Z" fill="#3a3d3f" />
				<path d="M474.05,109.75v4.31c0,2,.13,2.52,1.3,2.52.5,0,1.6-.11,1.6-.11l.09,1.12a15.44,15.44,0,0,1-1.83.2c-1.86,0-2.49-.71-2.49-3.3v-4.74h-1.28v-1.17h1.28v-2.75h1.33v2.75h2.87v1.17Z" fill="#3a3d3f" />
				<path d="M485.88,113c0,3.27-.81,4.79-3.85,4.79s-3.86-1.52-3.86-4.79c0-3.1,1-4.58,3.86-4.58S485.88,109.88,485.88,113Zm-1.39,0c0-2.5-.54-3.41-2.46-3.41s-2.47.91-2.47,3.41.34,3.62,2.47,3.62S484.49,115.53,484.49,113Z" fill="#3a3d3f" />
				<path d="M498.39,115.91c0,.53.47.72,1,.8l-.05,1.06a2.75,2.75,0,0,1-2.14-.72,9.2,9.2,0,0,1-3.24.72c-1.64,0-2.54-.94-2.54-2.76s.9-2.48,2.75-2.66l2.83-.27v-.78c0-1.26-.54-1.71-1.62-1.71-1.26,0-3.4.24-3.4.24l-.06-1a21.6,21.6,0,0,1,3.53-.4c2,0,2.9.94,2.9,2.9Zm-4-2.55c-1.1.1-1.54.63-1.54,1.62s.45,1.65,1.37,1.65a9.48,9.48,0,0,0,2.83-.56v-3Z" fill="#3a3d3f" />
				<path d="M501.05,108.58h1.33v1.23a10.17,10.17,0,0,1,3.3-1.42v1.36A13.41,13.41,0,0,0,502.4,111v6.61h-1.35Z" fill="#3a3d3f" />
				<path d="M507.28,108.58h1.33v1.23a10.17,10.17,0,0,1,3.3-1.42v1.36a13.21,13.21,0,0,0-3.28,1.23v6.61h-1.35Z" fill="#3a3d3f" />
				<path d="M513.51,105h1.35v1.57h-1.35Zm0,3.6h1.35v9h-1.35Z" fill="#3a3d3f" />
				<path d="M518,108.58l2.11,7.84h.67l2.18-7.84h1.38l-2.54,9h-2.7l-2.54-9Z" fill="#3a3d3f" />
				<path d="M532.75,116.42l0,1.06a31.12,31.12,0,0,1-3.51.29c-2.69,0-3.57-1.57-3.57-4.63,0-3.42,1.48-4.74,3.76-4.74s3.62,1.26,3.62,4.22l-.07,1h-5.94c0,1.93.59,2.94,2.36,2.94C530.79,116.58,532.75,116.42,532.75,116.42Zm-1-3.86c0-2.23-.68-3-2.27-3s-2.39.85-2.41,3Z" fill="#3a3d3f" />
				<path d="M539.27,104.66h1.35v12.93h-1.35Z" fill="#3a3d3f" />
				<path d="M549.67,115.91c0,.53.47.72,1.05.8l-.06,1.06a2.75,2.75,0,0,1-2.14-.72,9.2,9.2,0,0,1-3.24.72c-1.64,0-2.54-.94-2.54-2.76s.9-2.48,2.75-2.66l2.83-.27v-.78c0-1.26-.54-1.71-1.62-1.71-1.26,0-3.4.24-3.4.24l-.06-1a21.6,21.6,0,0,1,3.53-.4c2,0,2.9.94,2.9,2.9Zm-4-2.55c-1.1.1-1.53.63-1.53,1.62s.45,1.65,1.36,1.65a9.48,9.48,0,0,0,2.83-.56v-3Z" fill="#3a3d3f" />
				<path d="M554.13,109.75v4.31c0,2,.13,2.52,1.3,2.52.5,0,1.6-.11,1.6-.11l.09,1.12a15.44,15.44,0,0,1-1.83.2c-1.86,0-2.49-.71-2.49-3.3v-4.74h-1.28v-1.17h1.28v-2.75h1.33v2.75H557v1.17Z" fill="#3a3d3f" />
				<path d="M565.3,116.42l0,1.06a31.12,31.12,0,0,1-3.51.29c-2.68,0-3.56-1.57-3.56-4.63,0-3.42,1.47-4.74,3.76-4.74s3.62,1.26,3.62,4.22l-.07,1h-6c0,1.93.6,2.94,2.36,2.94C563.33,116.58,565.3,116.42,565.3,116.42Zm-1-3.86c0-2.23-.69-3-2.27-3s-2.4.85-2.41,3Z" fill="#3a3d3f" />
				<path d="M567.74,108.58h1.33v1.23a10.17,10.17,0,0,1,3.3-1.42v1.36a13.41,13.41,0,0,0-3.28,1.23v6.61h-1.35Z" fill="#3a3d3f" />
				<path d="M183.63,136.75v4.31c0,2,.12,2.52,1.29,2.52.51,0,1.61-.11,1.61-.11l.09,1.12a15.71,15.71,0,0,1-1.84.2c-1.86,0-2.49-.71-2.49-3.3v-4.74H181v-1.17h1.27v-2.75h1.34v2.75h2.86v1.17Z" fill="#3a3d3f" />
				<path d="M188.15,144.59V131.66h1.35v4.43a7.55,7.55,0,0,1,2.77-.69c2.47,0,3,1.23,3,4.43v4.76H194v-4.72c0-2.38-.27-3.26-1.93-3.26a7.39,7.39,0,0,0-2.53.54v7.44Z" fill="#3a3d3f" />
				<path d="M204.17,142.91c0,.53.46.72,1,.8l-.05,1.06a2.76,2.76,0,0,1-2.15-.72,9.2,9.2,0,0,1-3.24.72c-1.64,0-2.53-.94-2.53-2.76s.89-2.48,2.75-2.66l2.83-.27v-.78c0-1.26-.54-1.71-1.62-1.71-1.26,0-3.41.24-3.41.24l0-1a21.6,21.6,0,0,1,3.53-.4c2,0,2.9.94,2.9,2.9Zm-4-2.55c-1.1.1-1.53.63-1.53,1.62s.45,1.65,1.37,1.65a9.57,9.57,0,0,0,2.83-.56v-3Z" fill="#3a3d3f" />
				<path d="M206.83,144.59v-9h1.33v.64a6.79,6.79,0,0,1,2.79-.82c2.49,0,3.05,1.23,3.05,4.43v4.76h-1.34v-4.72c0-2.38-.27-3.26-1.94-3.26a6.12,6.12,0,0,0-2.54.67v7.31Z" fill="#3a3d3f" />
				<path d="M227.1,143.42l0,1.06a31.12,31.12,0,0,1-3.51.29c-2.68,0-3.56-1.57-3.56-4.63,0-3.42,1.48-4.74,3.76-4.74s3.62,1.26,3.62,4.22l-.07,1h-5.94c0,1.93.59,2.94,2.36,2.94C225.14,143.58,227.1,143.42,227.1,143.42Zm-1-3.86c0-2.23-.68-3-2.27-3s-2.39.85-2.41,3Z" fill="#3a3d3f" />
				<path d="M230.12,135.58l2.2,3.53,2.19-3.53H236l-2.86,4.47,2.84,4.54H234.5l-2.18-3.51-2.2,3.51h-1.48l2.83-4.5-2.83-4.51Z" fill="#3a3d3f" />
				<path d="M237.68,135.58H239v.65a6.12,6.12,0,0,1,2.7-.83c2.27,0,3.26,1.39,3.26,4.58,0,3.53-1.15,4.79-3.92,4.79a12,12,0,0,1-2-.2v4h-1.35Zm1.35,1.75v6.07a12.8,12.8,0,0,0,1.95.2c2,0,2.62-1,2.62-3.62s-.77-3.37-2.08-3.37A5.87,5.87,0,0,0,239,137.33Z" fill="#3a3d3f" />
				<path d="M253.81,143.42l0,1.06a31.4,31.4,0,0,1-3.52.29c-2.68,0-3.56-1.57-3.56-4.63,0-3.42,1.48-4.74,3.76-4.74s3.62,1.26,3.62,4.22l-.07,1h-5.94c0,1.93.59,2.94,2.36,2.94C251.85,143.58,253.81,143.42,253.81,143.42Zm-1-3.86c0-2.23-.68-3-2.27-3s-2.39.85-2.41,3Z" fill="#3a3d3f" />
				<path d="M262.07,135.67l-.05,1.1s-1.44-.16-2.13-.16c-2.07,0-2.63.9-2.63,3.31,0,2.67.42,3.64,2.65,3.64.69,0,2.13-.16,2.13-.16l0,1.12a24,24,0,0,1-2.5.25c-2.87,0-3.71-1.32-3.71-4.85,0-3.26,1.06-4.52,3.74-4.52A20.89,20.89,0,0,1,262.07,135.67Z" fill="#3a3d3f" />
				<path d="M265.9,136.75v4.31c0,2,.13,2.52,1.3,2.52.51,0,1.6-.11,1.6-.11l.09,1.12a15.44,15.44,0,0,1-1.83.2c-1.86,0-2.49-.71-2.49-3.3v-4.74h-1.28v-1.17h1.28v-2.75h1.33v2.75h2.87v1.17Z" fill="#3a3d3f" />
				<path d="M277.07,143.42l0,1.06a31.12,31.12,0,0,1-3.51.29c-2.68,0-3.56-1.57-3.56-4.63,0-3.42,1.47-4.74,3.76-4.74s3.62,1.26,3.62,4.22l-.07,1h-5.95c0,1.93.6,2.94,2.36,2.94C275.1,143.58,277.07,143.42,277.07,143.42Zm-1-3.86c0-2.23-.69-3-2.27-3s-2.4.85-2.41,3Z" fill="#3a3d3f" />
				<path d="M286.43,144.59h-1.34V144a6.42,6.42,0,0,1-2.73.79c-1.77,0-3.24-.72-3.24-4.61,0-3.17,1-4.76,3.76-4.76a14.12,14.12,0,0,1,2.21.24v-4h1.34Zm-1.34-1.7v-6.1a15.56,15.56,0,0,0-2.14-.22c-1.89,0-2.45,1.25-2.45,3.59,0,2.91,1,3.4,2,3.4A6.47,6.47,0,0,0,285.09,142.89Z" fill="#3a3d3f" />
				<path d="M294.72,144.59h-1.35v-7.84h-1.13v-1.17h1.13v-.81c0-2.59.67-3.29,2.43-3.29.62,0,1.82.13,1.82.13l0,1.11s-1,0-1.55,0c-1,0-1.33.43-1.33,2.1v.79h2.61v1.17h-2.61Z" fill="#3a3d3f" />
				<path d="M306.26,140c0,3.27-.81,4.79-3.85,4.79s-3.85-1.52-3.85-4.79c0-3.1,1-4.58,3.85-4.58S306.26,136.88,306.26,140Zm-1.38,0c0-2.5-.55-3.41-2.47-3.41s-2.47.91-2.47,3.41.34,3.62,2.47,3.62S304.88,142.53,304.88,140Z" fill="#3a3d3f" />
				<path d="M308.46,135.58h1.33v1.23a10.06,10.06,0,0,1,3.29-1.42v1.36a13.24,13.24,0,0,0-3.27,1.23v6.61h-1.35Z" fill="#3a3d3f" />
				<path d="M324.46,135.67l0,1.1s-1.45-.16-2.13-.16c-2.07,0-2.63.9-2.63,3.31,0,2.67.42,3.64,2.65,3.64.68,0,2.12-.16,2.12-.16l.06,1.12a24.24,24.24,0,0,1-2.51.25c-2.86,0-3.71-1.32-3.71-4.85,0-3.26,1.07-4.52,3.75-4.52A20.89,20.89,0,0,1,324.46,135.67Z" fill="#3a3d3f" />
				<path d="M326.49,144.59V131.66h1.35v4.43a7.55,7.55,0,0,1,2.77-.69c2.47,0,3.05,1.23,3.05,4.43v4.76h-1.35v-4.72c0-2.38-.27-3.26-1.93-3.26a7.41,7.41,0,0,0-2.54.54v7.44Z" fill="#3a3d3f" />
				<path d="M342.8,143.42l0,1.06a31.38,31.38,0,0,1-3.51.29c-2.69,0-3.57-1.57-3.57-4.63,0-3.42,1.48-4.74,3.76-4.74s3.62,1.26,3.62,4.22l-.07,1h-5.94c0,1.93.59,2.94,2.36,2.94C340.84,143.58,342.8,143.42,342.8,143.42Zm-1-3.86c0-2.23-.68-3-2.27-3s-2.39.85-2.41,3Z" fill="#3a3d3f" />
				<path d="M351.06,135.67l-.05,1.1s-1.44-.16-2.13-.16c-2.07,0-2.63.9-2.63,3.31,0,2.67.42,3.64,2.65,3.64.69,0,2.13-.16,2.13-.16l.05,1.12a24,24,0,0,1-2.5.25c-2.87,0-3.71-1.32-3.71-4.85,0-3.26,1.06-4.52,3.74-4.52A20.89,20.89,0,0,1,351.06,135.67Z" fill="#3a3d3f" />
				<path d="M353.09,144.59V131.66h1.35v7.63l1.41-.07,2.57-3.64H360L357,139.73l3.06,4.86h-1.53l-2.68-4.18-1.43.05v4.13Z" fill="#3a3d3f" />
				<path d="M361.64,139h5.46v1.26h-5.46Z" fill="#3a3d3f" />
				<path d="M369.6,132H371v1.57H369.6Zm0,3.6H371v9H369.6Z" fill="#3a3d3f" />
				<path d="M373.54,144.59v-9h1.33v.64a6.8,6.8,0,0,1,2.8-.82c2.48,0,3,1.23,3,4.43v4.76h-1.33v-4.72c0-2.38-.27-3.26-1.95-3.26a6.12,6.12,0,0,0-2.54.67v7.31Z" fill="#3a3d3f" />
				<path d="M394.48,140c0,3.27-.81,4.79-3.86,4.79s-3.85-1.52-3.85-4.79c0-3.1,1-4.58,3.85-4.58S394.48,136.88,394.48,140Zm-1.39,0c0-2.5-.54-3.41-2.47-3.41s-2.46.91-2.46,3.41.34,3.62,2.46,3.62S393.09,142.53,393.09,140Z" fill="#3a3d3f" />
				<path d="M396.67,135.58H398v.65a6.12,6.12,0,0,1,2.7-.83c2.27,0,3.26,1.39,3.26,4.58,0,3.53-1.15,4.79-3.92,4.79a12,12,0,0,1-2-.2v4h-1.35Zm1.35,1.75v6.07a13,13,0,0,0,2,.2c2,0,2.62-1,2.62-3.62s-.77-3.37-2.08-3.37A5.87,5.87,0,0,0,398,137.33Z" fill="#3a3d3f" />
				<path d="M412.8,143.42l0,1.06a31.12,31.12,0,0,1-3.51.29c-2.69,0-3.57-1.57-3.57-4.63,0-3.42,1.48-4.74,3.76-4.74s3.62,1.26,3.62,4.22l-.07,1h-5.94c0,1.93.59,2.94,2.36,2.94C410.84,143.58,412.8,143.42,412.8,143.42Zm-1-3.86c0-2.23-.68-3-2.27-3s-2.39.85-2.41,3Z" fill="#3a3d3f" />
				<path d="M415.25,135.58h1.33v1.23a10.17,10.17,0,0,1,3.3-1.42v1.36A13.21,13.21,0,0,0,416.6,138v6.61h-1.35Z" fill="#3a3d3f" />
				<path d="M427.83,142.91c0,.53.47.72,1.05.8l-.06,1.06a2.75,2.75,0,0,1-2.14-.72,9.2,9.2,0,0,1-3.24.72c-1.64,0-2.54-.94-2.54-2.76s.9-2.48,2.75-2.66l2.83-.27v-.78c0-1.26-.54-1.71-1.62-1.71-1.26,0-3.4.24-3.4.24l-.06-1a21.6,21.6,0,0,1,3.53-.4c2,0,2.9.94,2.9,2.9Zm-4-2.55c-1.1.1-1.53.63-1.53,1.62s.45,1.65,1.36,1.65a9.48,9.48,0,0,0,2.83-.56v-3Z" fill="#3a3d3f" />
				<path d="M432.29,136.75v4.31c0,2,.13,2.52,1.3,2.52.5,0,1.6-.11,1.6-.11l.09,1.12a15.44,15.44,0,0,1-1.83.2c-1.86,0-2.49-.71-2.49-3.3v-4.74h-1.28v-1.17H431v-2.75h1.33v2.75h2.87v1.17Z" fill="#3a3d3f" />
				<path d="M436.81,132h1.35v1.57h-1.35Zm0,3.6h1.35v9h-1.35Z" fill="#3a3d3f" />
				<path d="M448.06,140c0,3.27-.81,4.79-3.85,4.79s-3.85-1.52-3.85-4.79c0-3.1,1-4.58,3.85-4.58S448.06,136.88,448.06,140Zm-1.38,0c0-2.5-.54-3.41-2.47-3.41s-2.47.91-2.47,3.41.34,3.62,2.47,3.62S446.68,142.53,446.68,140Z" fill="#3a3d3f" />
				<path d="M450.26,144.59v-9h1.33v.64a6.79,6.79,0,0,1,2.79-.82c2.48,0,3,1.23,3,4.43v4.76h-1.33v-4.72c0-2.38-.27-3.26-1.94-3.26a6.12,6.12,0,0,0-2.54.67v7.31Z" fill="#3a3d3f" />
				<path d="M459.83,142.53h1.48v2.06h-1.48Z" fill="#3a3d3f" />
				<path d="M99.43,243.45h1.38v12.46H99.43Z" fill="#3a3d3f" />
				<path d="M105.35,255.91H104v-7.83h-1.13v-1.17H104v-.81c0-2.6.67-3.3,2.43-3.3.61,0,1.82.13,1.82.13l0,1.11s-1,0-1.55,0c-1,0-1.33.43-1.33,2.1v.8H108v1.17h-2.61Z" fill="#3a3d3f" />
				<path d="M115.34,248.08v4.3c0,2,.13,2.52,1.3,2.52.5,0,1.6-.11,1.6-.11l.09,1.12a15.71,15.71,0,0,1-1.84.2c-1.85,0-2.48-.71-2.48-3.3v-4.73h-1.28v-1.17H114v-2.76h1.33v2.76h2.86v1.17Z" fill="#3a3d3f" />
				<path d="M119.86,255.91V243h1.35v4.43a7.64,7.64,0,0,1,2.77-.68c2.47,0,3,1.22,3,4.42v4.76h-1.35v-4.72c0-2.38-.27-3.26-1.92-3.26a7.41,7.41,0,0,0-2.54.54v7.44Z" fill="#3a3d3f" />
				<path d="M136.17,254.74l0,1.06a31.12,31.12,0,0,1-3.51.29c-2.68,0-3.56-1.57-3.56-4.63,0-3.42,1.47-4.73,3.76-4.73s3.62,1.26,3.62,4.21l-.07,1H130.5c0,1.92.59,2.93,2.35,2.93C134.21,254.9,136.17,254.74,136.17,254.74Zm-1-3.85c0-2.24-.68-3-2.27-3s-2.39.85-2.41,3Z" fill="#3a3d3f" />
				<path d="M144.59,248.22a29.33,29.33,0,0,0-3.15-.29c-1.12,0-2,.31-2,1.37,0,.85.43,1.08,2.34,1.41,2.25.37,3.1.82,3.1,2.57,0,2.11-1.34,2.81-3.5,2.81a25.65,25.65,0,0,1-3.17-.34l.08-1.17s2,.3,3,.3c1.47,0,2.27-.32,2.27-1.55,0-.93-.47-1.17-2.44-1.47s-3-.71-3-2.51c0-2,1.6-2.62,3.24-2.62a23.19,23.19,0,0,1,3.26.34Z" fill="#3a3d3f" />
				<path d="M153.63,254.74l0,1.06a31.12,31.12,0,0,1-3.51.29c-2.68,0-3.56-1.57-3.56-4.63,0-3.42,1.47-4.73,3.76-4.73S154,248,154,250.94l-.07,1H148c0,1.92.59,2.93,2.35,2.93C151.67,254.9,153.63,254.74,153.63,254.74Zm-1-3.85c0-2.24-.68-3-2.27-3s-2.39.85-2.41,3Z" fill="#3a3d3f" />
				<path d="M160,246.91h1.34v.64a6.12,6.12,0,0,1,2.7-.82c2.27,0,3.26,1.38,3.26,4.57,0,3.53-1.16,4.79-3.93,4.79a12.16,12.16,0,0,1-2-.2v4H160Zm1.35,1.74v6.07a13,13,0,0,0,2,.2c2,0,2.63-1,2.63-3.62s-.78-3.37-2.09-3.37A5.87,5.87,0,0,0,161.38,248.65Z" fill="#3a3d3f" />
				<path d="M175.88,254.23c0,.53.46.72,1,.8l0,1.06a2.76,2.76,0,0,1-2.15-.72,9.2,9.2,0,0,1-3.24.72c-1.64,0-2.54-.94-2.54-2.76s.9-2.48,2.76-2.66l2.83-.27v-.77c0-1.27-.54-1.72-1.62-1.72-1.27,0-3.41.24-3.41.24l-.05-1a22.13,22.13,0,0,1,3.53-.39c2,0,2.9.93,2.9,2.9Zm-4-2.55c-1.1.11-1.53.63-1.53,1.62s.45,1.65,1.37,1.65a9.72,9.72,0,0,0,2.83-.55v-3Z" fill="#3a3d3f" />
				<path d="M184.52,248.22a29.33,29.33,0,0,0-3.16-.29c-1.11,0-2,.31-2,1.37,0,.85.43,1.08,2.34,1.41,2.25.37,3.1.82,3.1,2.57,0,2.11-1.33,2.81-3.49,2.81a25.4,25.4,0,0,1-3.17-.34l.07-1.17s2.05.3,3,.3c1.48,0,2.27-.32,2.27-1.55,0-.93-.47-1.17-2.43-1.47s-3-.71-3-2.51c0-2,1.6-2.62,3.24-2.62a23.19,23.19,0,0,1,3.26.34Z" fill="#3a3d3f" />
				<path d="M192.89,248.22a29.33,29.33,0,0,0-3.16-.29c-1.11,0-2,.31-2,1.37,0,.85.43,1.08,2.34,1.41,2.25.37,3.1.82,3.1,2.57,0,2.11-1.33,2.81-3.49,2.81a25.4,25.4,0,0,1-3.17-.34l.07-1.17s2,.3,3,.3c1.48,0,2.27-.32,2.27-1.55,0-.93-.47-1.17-2.43-1.47s-3-.71-3-2.51c0-2,1.6-2.62,3.24-2.62a23.19,23.19,0,0,1,3.26.34Z" fill="#3a3d3f" />
				<path d="M201.92,254.74l0,1.06a31.12,31.12,0,0,1-3.51.29c-2.69,0-3.57-1.57-3.57-4.63,0-3.42,1.48-4.73,3.76-4.73s3.62,1.26,3.62,4.21l-.07,1h-5.94c0,1.92.59,2.93,2.36,2.93C200,254.9,201.92,254.74,201.92,254.74Zm-1-3.85c0-2.24-.68-3-2.27-3s-2.39.85-2.41,3Z" fill="#3a3d3f" />
				<path d="M204.37,255.91v-9h1.33v.63a6.85,6.85,0,0,1,2.79-.81c2.49,0,3,1.22,3,4.42v4.76H210.2v-4.72c0-2.38-.27-3.26-1.94-3.26a6.12,6.12,0,0,0-2.54.67v7.31Z" fill="#3a3d3f" />
				<path d="M213.64,257.42c0-1,.48-1.53,1.42-2.23a1.48,1.48,0,0,1-.5-1.24,5.75,5.75,0,0,1,.61-1.43c-.76-.34-1.42-1.06-1.42-2.71,0-2.22,1.36-3.08,3.36-3.08A9.6,9.6,0,0,1,219,247l2.66-.07V248l-1.71,0a2.38,2.38,0,0,1,.59,1.81c0,2.33-1.17,3-3.47,3-.18,0-.69,0-.88-.07a5.3,5.3,0,0,0-.33,1c0,.72.15.83,2.18.83,2.56,0,3.48.5,3.48,2.65s-1.46,2.86-4,2.86C214.66,260.14,213.64,259.51,213.64,257.42Zm2.34-1.69c-.76.56-1,.88-1,1.58,0,1.25.52,1.7,2.56,1.7,1.8,0,2.61-.49,2.61-1.68,0-1.37-.58-1.51-2.22-1.51C217.29,255.82,216,255.73,216,255.73Zm3.2-5.92c0-1.43-.55-2-2.07-2s-2,.56-2,2,.61,2,2,2S219.18,251.23,219.18,249.81Z" fill="#3a3d3f" />
				<path d="M229.93,254.74l0,1.06a31.4,31.4,0,0,1-3.52.29c-2.68,0-3.56-1.57-3.56-4.63,0-3.42,1.48-4.73,3.76-4.73s3.62,1.26,3.62,4.21l-.07,1h-5.94c0,1.92.59,2.93,2.36,2.93C228,254.9,229.93,254.74,229.93,254.74Zm-1-3.85c0-2.24-.68-3-2.27-3s-2.39.85-2.41,3Z" fill="#3a3d3f" />
				<path d="M232.38,246.91h1.33v1.22a10.06,10.06,0,0,1,3.29-1.42v1.37a13,13,0,0,0-3.27,1.22v6.61h-1.35Z" fill="#3a3d3f" />
				<path d="M244.58,248.22a29.33,29.33,0,0,0-3.15-.29c-1.12,0-2,.31-2,1.37,0,.85.43,1.08,2.34,1.41,2.25.37,3.1.82,3.1,2.57,0,2.11-1.34,2.81-3.5,2.81a25.65,25.65,0,0,1-3.17-.34l.08-1.17s2.05.3,3,.3c1.47,0,2.26-.32,2.26-1.55,0-.93-.46-1.17-2.43-1.47s-3-.71-3-2.51c0-2,1.6-2.62,3.24-2.62a23.19,23.19,0,0,1,3.26.34Z" fill="#3a3d3f" />
				<path d="M257.29,254.23c0,.53.47.72,1,.8l-.05,1.06a2.75,2.75,0,0,1-2.14-.72,9.2,9.2,0,0,1-3.24.72c-1.64,0-2.54-.94-2.54-2.76s.9-2.48,2.75-2.66l2.83-.27v-.77c0-1.27-.54-1.72-1.62-1.72-1.26,0-3.4.24-3.4.24l-.06-1a22.13,22.13,0,0,1,3.53-.39c2,0,2.9.93,2.9,2.9Zm-4-2.55c-1.09.11-1.53.63-1.53,1.62s.45,1.65,1.37,1.65a9.72,9.72,0,0,0,2.83-.55v-3Z" fill="#3a3d3f" />
				<path d="M260,246.91h1.33v1.22a10.17,10.17,0,0,1,3.3-1.42v1.37a13.15,13.15,0,0,0-3.28,1.22v6.61H260Z" fill="#3a3d3f" />
				<path d="M266.18,246.91h1.33v1.22a10.17,10.17,0,0,1,3.3-1.42v1.37a13,13,0,0,0-3.28,1.22v6.61h-1.35Z" fill="#3a3d3f" />
				<path d="M272.41,243.31h1.35v1.56h-1.35Zm0,3.6h1.35v9h-1.35Z" fill="#3a3d3f" />
				<path d="M276.94,246.91l2.11,7.83h.66l2.18-7.83h1.39l-2.54,9H278l-2.54-9Z" fill="#3a3d3f" />
				<path d="M291.65,254.74l0,1.06a31.4,31.4,0,0,1-3.52.29c-2.68,0-3.56-1.57-3.56-4.63,0-3.42,1.48-4.73,3.76-4.73S292,248,292,250.94l-.07,1H286c0,1.92.59,2.93,2.36,2.93C289.69,254.9,291.65,254.74,291.65,254.74Zm-1-3.85c0-2.24-.68-3-2.27-3s-2.39.85-2.41,3Z" fill="#3a3d3f" />
				<path d="M298.16,243h1.35v12.93h-1.35Z" fill="#3a3d3f" />
				<path d="M308.57,254.23c0,.53.47.72,1,.8l-.05,1.06a2.75,2.75,0,0,1-2.14-.72,9.2,9.2,0,0,1-3.24.72c-1.64,0-2.54-.94-2.54-2.76s.9-2.48,2.75-2.66l2.83-.27v-.77c0-1.27-.54-1.72-1.62-1.72-1.26,0-3.4.24-3.4.24l-.06-1a22.13,22.13,0,0,1,3.53-.39c2,0,2.9.93,2.9,2.9Zm-4-2.55c-1.09.11-1.53.63-1.53,1.62s.45,1.65,1.37,1.65a9.63,9.63,0,0,0,2.83-.55v-3Z" fill="#3a3d3f" />
				<path d="M313,248.08v4.3c0,2,.13,2.52,1.3,2.52.5,0,1.6-.11,1.6-.11l.09,1.12a15.43,15.43,0,0,1-1.84.2c-1.85,0-2.48-.71-2.48-3.3v-4.73h-1.28v-1.17h1.28v-2.76H313v2.76h2.87v1.17Z" fill="#3a3d3f" />
				<path d="M324.19,254.74l0,1.06a31.12,31.12,0,0,1-3.51.29c-2.68,0-3.57-1.57-3.57-4.63,0-3.42,1.48-4.73,3.77-4.73s3.62,1.26,3.62,4.21l-.08,1h-5.94c0,1.92.6,2.93,2.36,2.93C322.23,254.9,324.19,254.74,324.19,254.74Zm-1-3.85c0-2.24-.69-3-2.27-3s-2.4.85-2.42,3Z" fill="#3a3d3f" />
				<path d="M326.78,254h1.5l-1.21,4.14H326Z" fill="#3a3d3f" />
				<path d="M336.41,248.08v4.3c0,2,.13,2.52,1.3,2.52.5,0,1.6-.11,1.6-.11l.09,1.12a15.44,15.44,0,0,1-1.83.2c-1.86,0-2.49-.71-2.49-3.3v-4.73H333.8v-1.17h1.28v-2.76h1.33v2.76h2.87v1.17Z" fill="#3a3d3f" />
				<path d="M340.93,255.91V243h1.35v4.43a7.65,7.65,0,0,1,2.78-.68c2.46,0,3,1.22,3,4.42v4.76h-1.35v-4.72c0-2.38-.27-3.26-1.93-3.26a7.41,7.41,0,0,0-2.54.54v7.44Z" fill="#3a3d3f" />
				<path d="M357.24,254.74l0,1.06a31.12,31.12,0,0,1-3.51.29c-2.69,0-3.57-1.57-3.57-4.63,0-3.42,1.48-4.73,3.76-4.73s3.62,1.26,3.62,4.21l-.07,1h-5.94c0,1.92.6,2.93,2.36,2.93C355.28,254.9,357.24,254.74,357.24,254.74Zm-1-3.85c0-2.24-.68-3-2.27-3s-2.39.85-2.41,3Z" fill="#3a3d3f" />
				<path d="M365.38,255.91H364v-7.83h-1.14v-1.17H364v-.81c0-2.6.66-3.3,2.43-3.3.61,0,1.82.13,1.82.13l0,1.11s-1,0-1.55,0c-1,0-1.33.43-1.33,2.1v.8H368v1.17h-2.61Z" fill="#3a3d3f" />
				<path d="M376.92,251.3c0,3.28-.81,4.79-3.86,4.79s-3.85-1.51-3.85-4.79c0-3.1,1-4.57,3.85-4.57S376.92,248.2,376.92,251.3Zm-1.39,0c0-2.5-.54-3.4-2.47-3.4s-2.46.9-2.46,3.4.34,3.62,2.46,3.62S375.53,253.86,375.53,251.3Z" fill="#3a3d3f" />
				<path d="M379.22,243h1.35v12.93h-1.35Z" fill="#3a3d3f" />
				<path d="M383.38,243h1.35v12.93h-1.35Z" fill="#3a3d3f" />
				<path d="M394.74,251.3c0,3.28-.81,4.79-3.86,4.79S387,254.58,387,251.3c0-3.1,1-4.57,3.85-4.57S394.74,248.2,394.74,251.3Zm-1.39,0c0-2.5-.54-3.4-2.47-3.4s-2.46.9-2.46,3.4.34,3.62,2.46,3.62S393.35,253.86,393.35,251.3Z" fill="#3a3d3f" />
				<path d="M397.54,246.91l1.82,7.83h.29l2.14-7.65h1.41l2.14,7.65h.3l1.81-7.83h1.35l-2.15,9H404.4l-1.91-7-1.91,7h-2.25l-2.14-9Z" fill="#3a3d3f" />
				<path d="M410.65,243.31H412v1.56h-1.35Zm0,3.6H412v9h-1.35Z" fill="#3a3d3f" />
				<path d="M414.59,255.91v-9h1.33v.63a6.85,6.85,0,0,1,2.79-.81c2.49,0,3,1.22,3,4.42v4.76h-1.33v-4.72c0-2.38-.27-3.26-1.94-3.26a6.12,6.12,0,0,0-2.54.67v7.31Z" fill="#3a3d3f" />
				<path d="M423.86,257.42c0-1,.48-1.53,1.42-2.23a1.48,1.48,0,0,1-.5-1.24,5.75,5.75,0,0,1,.61-1.43c-.76-.34-1.42-1.06-1.42-2.71,0-2.22,1.36-3.08,3.36-3.08a9.6,9.6,0,0,1,1.88.23l2.66-.07V248l-1.71,0a2.38,2.38,0,0,1,.59,1.81c0,2.33-1.17,3-3.47,3-.18,0-.69,0-.88-.07a5.3,5.3,0,0,0-.33,1c0,.72.15.83,2.18.83,2.56,0,3.48.5,3.48,2.65s-1.46,2.86-4,2.86C424.88,260.14,423.86,259.51,423.86,257.42Zm2.34-1.69c-.76.56-1,.88-1,1.58,0,1.25.52,1.7,2.56,1.7,1.8,0,2.61-.49,2.61-1.68,0-1.37-.58-1.51-2.22-1.51C427.51,255.82,426.2,255.73,426.2,255.73Zm3.2-5.92c0-1.43-.55-2-2.07-2s-2,.56-2,2,.61,2,2,2S429.4,251.23,429.4,249.81Z" fill="#3a3d3f" />
				<path d="M437.47,244.33a14,14,0,0,1,3.49-.5c2.81,0,3.8,1,3.8,3.09a3,3,0,0,1-1.77,2.71,2.58,2.58,0,0,1,2.06,2.88c0,2.39-1.17,3.58-3.86,3.58a19.38,19.38,0,0,1-3.9-.49l.12-1.13a21.91,21.91,0,0,0,3.64.39c1.76,0,2.57-.77,2.57-2.3s-1.09-2.18-2.44-2.23h-2.4v-1.19h2.4a2.23,2.23,0,0,0,2.16-2.16c0-1.35-.67-1.91-2.43-1.91a18.25,18.25,0,0,0-3.32.36Z" fill="#3a3d3f" />
				<path d="M451.61,243H453v12.93h-1.35Z" fill="#3a3d3f" />
				<path d="M455.67,243.31H457v1.56h-1.34Zm0,3.6H457v9h-1.34Z" fill="#3a3d3f" />
				<path d="M459.21,257.42c0-1,.49-1.53,1.42-2.23a1.48,1.48,0,0,1-.5-1.24,5.75,5.75,0,0,1,.61-1.43c-.76-.34-1.42-1.06-1.42-2.71,0-2.22,1.37-3.08,3.36-3.08a9.6,9.6,0,0,1,1.88.23l2.66-.07V248l-1.71,0a2.38,2.38,0,0,1,.6,1.81c0,2.33-1.17,3-3.48,3-.18,0-.68,0-.88-.07a5.3,5.3,0,0,0-.33,1c0,.72.15.83,2.18.83,2.56,0,3.48.5,3.48,2.65s-1.46,2.86-4,2.86C460.24,260.14,459.21,259.51,459.21,257.42Zm2.34-1.69c-.76.56-1,.88-1,1.58,0,1.25.52,1.7,2.56,1.7,1.8,0,2.61-.49,2.61-1.68,0-1.37-.58-1.51-2.21-1.51C462.87,255.82,461.55,255.73,461.55,255.73Zm3.21-5.92c0-1.43-.56-2-2.08-2s-2,.56-2,2,.61,2,2,2S464.76,251.23,464.76,249.81Z" fill="#3a3d3f" />
				<path d="M468.86,255.91V243h1.35v4.43a7.64,7.64,0,0,1,2.77-.68c2.47,0,3,1.22,3,4.42v4.76h-1.35v-4.72c0-2.38-.27-3.26-1.92-3.26a7.41,7.41,0,0,0-2.54.54v7.44Z" fill="#3a3d3f" />
				<path d="M480.32,248.08v4.3c0,2,.13,2.52,1.3,2.52.51,0,1.6-.11,1.6-.11l.09,1.12a15.44,15.44,0,0,1-1.83.2c-1.86,0-2.49-.71-2.49-3.3v-4.73h-1.28v-1.17H479v-2.76h1.33v2.76h2.87v1.17Z" fill="#3a3d3f" />
				<path d="M490.82,248.22a29.33,29.33,0,0,0-3.15-.29c-1.12,0-2,.31-2,1.37,0,.85.43,1.08,2.34,1.41,2.25.37,3.09.82,3.09,2.57,0,2.11-1.33,2.81-3.49,2.81a25.65,25.65,0,0,1-3.17-.34l.07-1.17s2.06.3,3,.3c1.47,0,2.26-.32,2.26-1.55,0-.93-.46-1.17-2.43-1.47s-3-.71-3-2.51c0-2,1.6-2.62,3.24-2.62a23.19,23.19,0,0,1,3.26.34Z" fill="#3a3d3f" />
				<path d="M497.17,255.91v-9h1.33v.63a6.1,6.1,0,0,1,2.63-.81,2.54,2.54,0,0,1,2.34.91,7.59,7.59,0,0,1,3.21-.91c2.45,0,3,1.17,3,4.42v4.76h-1.35v-4.72c0-2.38-.27-3.26-1.89-3.26a6,6,0,0,0-2.54.67,10.24,10.24,0,0,1,.24,2.63v4.68h-1.35v-4.65c0-2.48-.26-3.33-1.89-3.33a5.4,5.4,0,0,0-2.42.67v7.31Z" fill="#3a3d3f" />
				<path d="M518.58,254.23c0,.53.46.72,1,.8l0,1.06a2.76,2.76,0,0,1-2.15-.72,9.2,9.2,0,0,1-3.24.72c-1.64,0-2.54-.94-2.54-2.76s.9-2.48,2.76-2.66l2.83-.27v-.77c0-1.27-.54-1.72-1.62-1.72-1.27,0-3.41.24-3.41.24l-.05-1a22.13,22.13,0,0,1,3.53-.39c2,0,2.9.93,2.9,2.9Zm-4-2.55c-1.1.11-1.53.63-1.53,1.62s.45,1.65,1.37,1.65a9.72,9.72,0,0,0,2.83-.55v-3Z" fill="#3a3d3f" />
				<path d="M521.74,246.91l2.25,7.83h.6l2.27-7.83h1.35l-3.75,13h-1.35l1.17-4H523l-2.56-9Z" fill="#3a3d3f" />
				<path d="M541.15,251.26c0,3.59-1,4.83-4.25,4.83-1.08,0-3-.2-3-.2V243h1.33v4.38a7.44,7.44,0,0,1,2.65-.63C540.32,246.73,541.15,248,541.15,251.26Zm-1.37,0c0-2.32-.47-3.33-2-3.33a7.59,7.59,0,0,0-2.51.52v6.34s1.17.09,1.66.09C539.35,254.88,539.78,253.78,539.78,251.26Z" fill="#3a3d3f" />
				<path d="M550,254.74l0,1.06a31.12,31.12,0,0,1-3.51.29c-2.69,0-3.57-1.57-3.57-4.63,0-3.42,1.48-4.73,3.77-4.73s3.61,1.26,3.61,4.21l-.07,1h-5.94c0,1.92.6,2.93,2.36,2.93C548,254.9,550,254.74,550,254.74Zm-1-3.85c0-2.24-.68-3-2.26-3s-2.4.85-2.42,3Z" fill="#3a3d3f" />
				<path d="M211.32,282.91H210v-.61a6.49,6.49,0,0,1-2.74.79c-1.76,0-3.24-.72-3.24-4.61,0-3.17,1-4.75,3.77-4.75A15.79,15.79,0,0,1,210,274v-4h1.33ZM210,281.22v-6.11a16.07,16.07,0,0,0-2.14-.21c-1.89,0-2.45,1.24-2.45,3.58,0,2.92.95,3.4,2,3.4A6.54,6.54,0,0,0,210,281.22Z" fill="#3a3d3f" />
				<path d="M220.58,281.74l0,1.06a31.12,31.12,0,0,1-3.51.29c-2.68,0-3.56-1.57-3.56-4.63,0-3.42,1.47-4.73,3.76-4.73s3.62,1.26,3.62,4.21l-.08,1H214.9c0,1.92.6,2.93,2.36,2.93C218.61,281.9,220.58,281.74,220.58,281.74Zm-1-3.85c0-2.24-.69-3-2.27-3s-2.4.85-2.41,3Z" fill="#3a3d3f" />
				<path d="M223.13,270h1.35v12.93h-1.35Z" fill="#3a3d3f" />
				<path d="M233.54,281.23c0,.53.46.72,1,.8l-.05,1.06a2.76,2.76,0,0,1-2.15-.72,9.2,9.2,0,0,1-3.24.72c-1.64,0-2.54-.94-2.54-2.76s.9-2.48,2.76-2.66l2.82-.27v-.77c0-1.27-.54-1.72-1.62-1.72-1.26,0-3.4.24-3.4.24l0-1a22.13,22.13,0,0,1,3.53-.39c2,0,2.9.93,2.9,2.9Zm-4-2.55c-1.1.11-1.53.63-1.53,1.62s.45,1.65,1.37,1.65a9.61,9.61,0,0,0,2.82-.55v-3Z" fill="#3a3d3f" />
				<path d="M236.7,273.91l2.25,7.83h.6l2.26-7.83h1.36l-3.75,13h-1.35l1.17-4h-1.33l-2.56-9Z" fill="#3a3d3f" />
				<path d="M251.53,281.74l0,1.06a31.12,31.12,0,0,1-3.51.29c-2.68,0-3.57-1.57-3.57-4.63,0-3.42,1.48-4.73,3.77-4.73s3.62,1.26,3.62,4.21l-.08,1h-5.94c0,1.92.6,2.93,2.36,2.93C249.57,281.9,251.53,281.74,251.53,281.74Zm-1-3.85c0-2.24-.69-3-2.27-3s-2.4.85-2.42,3Z" fill="#3a3d3f" />
				<path d="M260.89,282.91h-1.33v-.61a6.48,6.48,0,0,1-2.73.79c-1.77,0-3.25-.72-3.25-4.61,0-3.17,1-4.75,3.77-4.75a15.79,15.79,0,0,1,2.21.23v-4h1.33Zm-1.33-1.69v-6.11a16.07,16.07,0,0,0-2.14-.21c-1.89,0-2.45,1.24-2.45,3.58,0,2.92.95,3.4,2,3.4A6.54,6.54,0,0,0,259.56,281.22Z" fill="#3a3d3f" />
				<path d="M263.41,275.06h1.48v2.05h-1.48Zm0,5.8h1.48v2.05h-1.48Z" fill="#3a3d3f" />
				<path d="M271.49,270.57h7.78v1.75h-5.78v3.49h4.7v1.73h-4.7v3.6h5.78v1.77h-7.78Z" fill="#3a3d3f" />
				<path d="M286,282.91h-2v-5.08l-3.87-7.26h2.25l2.61,5.3,2.63-5.3h2.23L286,277.83Z" fill="#3a3d3f" />
				<path d="M296,280.78h-5.34v-1.53l3.13-8.23H296l-3.31,8H296v-3.5h2V279h1.3v1.74H298v2.13h-2Z" fill="#3a3d3f" />
				<path d="M306.05,280.78h-5.34v-1.53l3.13-8.23h2.21l-3.31,8h3.31v-3.5h2V279h1.3v1.74h-1.3v2.13h-2Z" fill="#3a3d3f" />
				<path d="M311.51,281H313l-1.2,4.14h-1.12Z" fill="#3a3d3f" />
				<path d="M321.44,270.57h4l3.06,12.34h-2l-.67-2.65h-4.73l-.67,2.65h-2Zm0,7.93h4l-1.52-6.25H323Z" fill="#3a3d3f" />
				<path d="M334.93,270.57c2.45,0,3.76.92,3.76,3.21a2.71,2.71,0,0,1-1.46,2.77,2.68,2.68,0,0,1,1.77,2.87c0,2.52-1.53,3.49-3.93,3.49h-4.82V270.57Zm-2.69,1.73v3.53h2.65c1.23,0,1.77-.61,1.77-1.82s-.62-1.71-1.84-1.71Zm0,5.22v3.66H335c1.25,0,2-.4,2-1.87s-1-1.79-2-1.79Z" fill="#3a3d3f" />
				<path d="M348.55,271v1.77H343l-.3,3.13a6.71,6.71,0,0,1,2.41-.56c2.38,0,3.82,1,3.82,3.57,0,2.7-1.48,4.18-4,4.18a18.48,18.48,0,0,1-4.08-.62l.21-1.51a27.19,27.19,0,0,0,3.64.36,2,2,0,0,0,2.2-2.21c0-1.48-.74-2-2-2a7,7,0,0,0-2.5.49l-1.26-.27.32-6.33Z" fill="#3a3d3f" />
				<path d="M351.13,281.11a26.94,26.94,0,0,0,3.25.25c1.86,0,2.76-1.21,2.78-3.46a9.84,9.84,0,0,1-2.63.62c-2.54,0-4-1.19-4-3.73s1.64-4,4.25-4c3.08,0,4.45,2.34,4.45,6.12,0,4.66-1.86,6.16-4.85,6.16a18.6,18.6,0,0,1-3.43-.44Zm6-4.88c0-2.07-.63-3.66-2.39-3.66a2,2,0,0,0-2.18,2.22c0,1.35.76,2,2.09,2A8.57,8.57,0,0,0,357.17,276.23Z" fill="#3a3d3f" />
				<path d="M361.44,281h1.49l-1.2,4.14h-1.12Z" fill="#3a3d3f" />
				<path d="M375.63,281.23c0,.53.46.72,1,.8l-.05,1.06a2.76,2.76,0,0,1-2.15-.72,9.2,9.2,0,0,1-3.24.72c-1.64,0-2.54-.94-2.54-2.76s.9-2.48,2.76-2.66l2.82-.27v-.77c0-1.27-.54-1.72-1.62-1.72-1.26,0-3.4.24-3.4.24l-.05-1a22.13,22.13,0,0,1,3.53-.39c2,0,2.9.93,2.9,2.9Zm-4-2.55c-1.1.11-1.53.63-1.53,1.62s.45,1.65,1.37,1.65a9.61,9.61,0,0,0,2.82-.55v-3Z" fill="#3a3d3f" />
				<path d="M378.29,282.91v-9h1.33v.63a6.85,6.85,0,0,1,2.79-.81c2.48,0,3,1.22,3,4.42v4.76h-1.33v-4.72c0-2.38-.27-3.26-1.94-3.26a6.12,6.12,0,0,0-2.54.67v7.31Z" fill="#3a3d3f" />
				<path d="M394.87,282.91h-1.34v-.61a6.42,6.42,0,0,1-2.73.79c-1.77,0-3.24-.72-3.24-4.61,0-3.17,1-4.75,3.76-4.75a15.79,15.79,0,0,1,2.21.23v-4h1.34Zm-1.34-1.69v-6.11a15.89,15.89,0,0,0-2.14-.21c-1.89,0-2.45,1.24-2.45,3.58,0,2.92,1,3.4,2,3.4A6.54,6.54,0,0,0,393.53,281.22Z" fill="#3a3d3f" />
				<path d="M409.21,282.71a19.41,19.41,0,0,1-3.51.4c-3.76,0-4.63-2.15-4.63-6.36,0-4.45.94-6.37,4.63-6.37a17.23,17.23,0,0,1,3.53.45l-.07,1.62a22,22,0,0,0-3.19-.29c-2.27,0-2.83,1.1-2.83,4.59s.45,4.57,2.89,4.57a23.39,23.39,0,0,0,3.13-.27Z" fill="#3a3d3f" />
				<path d="M411.35,282.91V270.57h4.27c4,0,4.93,2.13,4.93,6s-.86,6.38-4.93,6.38Zm4.27-10.59h-2.27v8.82h2.27c2.48,0,2.86-1.9,2.86-4.61S418.1,272.32,415.62,272.32Z" fill="#3a3d3f" />
				<path d="M422.67,281.11a27.21,27.21,0,0,0,3.26.25c1.86,0,2.76-1.21,2.78-3.46a9.84,9.84,0,0,1-2.63.62c-2.54,0-4-1.19-4-3.73s1.64-4,4.25-4c3.08,0,4.45,2.34,4.45,6.12,0,4.66-1.86,6.16-4.85,6.16a18.78,18.78,0,0,1-3.44-.44Zm6.05-4.88c0-2.07-.63-3.66-2.39-3.66a2,2,0,0,0-2.18,2.22c0,1.35.76,2,2.09,2A8.57,8.57,0,0,0,428.72,276.23Z" fill="#3a3d3f" />
				<path d="M441.07,277.09c0,4.52-1.64,6-4.48,6s-4.5-1.48-4.5-6,1.64-6.26,4.5-6.26S441.07,272.41,441.07,277.09Zm-6.91,0c0,3.26.81,4.27,2.45,4.27s2.39-1,2.39-4.27c0-3.49-.74-4.52-2.41-4.52S434.16,273.58,434.16,277.09Z" fill="#3a3d3f" />
				<path d="M442.73,280.32h2.1v2.59h-2.1Z" fill="#3a3d3f" />
				<path d="M182.33,218.8h22l-11-19Zm12-3h-2v-2h2Zm0-4h-2v-4h2Z" fill="#f22020" />
			</g>
		</g>
	</g>
</svg>