<svg xmlns="http://www.w3.org/2000/svg" xmlns:xlink="http://www.w3.org/1999/xlink" viewBox="0 0 579.59 494.77"><defs><clipPath id="clip-path"><rect x="92.09" y="139.76" width="12.91" height="75.95" fill="#76ce89"/></clipPath><clipPath id="clip-path-2"><rect x="109.28" y="139.76" width="12.91" height="75.95" fill="#76ce89"/></clipPath><clipPath id="clip-path-3"><rect x="126.47" y="146.4" width="12.89" height="69.31" fill="#76ce89"/></clipPath><clipPath id="clip-path-4"><rect x="143.64" y="146.41" width="12.89" height="69.3" fill="#76ce89"/></clipPath><clipPath id="clip-path-5"><rect x="160.81" y="160.23" width="12.88" height="55.48" fill="#76ce89"/></clipPath><clipPath id="clip-path-6"><rect x="177.97" y="172.26" width="12.87" height="43.45" fill="#ffda00"/></clipPath><clipPath id="clip-path-7"><rect x="195.11" y="180.69" width="12.87" height="35.02" fill="#ffda00"/></clipPath><clipPath id="clip-path-8"><rect x="212.26" y="150.82" width="12.82" height="64.89" fill="#76ce89"/></clipPath><clipPath id="clip-path-9"><rect x="229.36" y="155.26" width="12.8" height="60.45" fill="#76ce89"/></clipPath><clipPath id="clip-path-10"><rect x="246.44" y="155.66" width="12.79" height="60.05" fill="#76ce89"/></clipPath><clipPath id="clip-path-11"><rect x="263.52" y="157.46" width="12.88" height="58.25" fill="#76ce89"/></clipPath><clipPath id="clip-path-12"><rect x="280.67" y="157.46" width="12.87" height="58.25" fill="#76ce89"/></clipPath><clipPath id="clip-path-13"><rect x="297.82" y="162.87" width="12.86" height="52.83" fill="#76ce89"/></clipPath><clipPath id="clip-path-14"><rect x="314.95" y="165.35" width="12.86" height="50.35" fill="#76ce89"/></clipPath><clipPath id="clip-path-15"><rect x="332.09" y="166.32" width="12.86" height="49.39" fill="#76ce89"/></clipPath><clipPath id="clip-path-16"><rect x="349.23" y="168.4" width="12.83" height="47.3" fill="#76ce89"/></clipPath><clipPath id="clip-path-17"><rect x="366.34" y="168.4" width="12.83" height="47.3" fill="#76ce89"/></clipPath><clipPath id="clip-path-18"><rect x="383.45" y="168.4" width="12.83" height="47.3" fill="#76ce89"/></clipPath><clipPath id="clip-path-19"><rect x="400.56" y="170.74" width="12.83" height="44.97" fill="#76ce89"/></clipPath><clipPath id="clip-path-20"><rect x="417.67" y="170.74" width="12.82" height="44.97" fill="#76ce89"/></clipPath><clipPath id="clip-path-21"><rect x="434.77" y="170.74" width="12.81" height="44.97" fill="#76ce89"/></clipPath><clipPath id="clip-path-22"><rect x="451.86" y="175.17" width="12.8" height="40.54" fill="#76ce89"/></clipPath><clipPath id="clip-path-23"><rect x="468.94" y="180.69" width="12.79" height="35.02" fill="none"/></clipPath><clipPath id="clip-path-24"><rect x="74.88" y="134.23" width="12.93" height="81.53" fill="#76ce89"/></clipPath><clipPath id="clip-path-25"><rect x="57.65" y="128.7" width="12.95" height="87.12" fill="#76ce89"/></clipPath></defs><title>r_0_A_Tablet</title><g id="Layer_2" data-name="Layer 2"><g id="Selection_Feedback"><rect y="0.5" width="579.59" height="494.27" fill="#f7f7f7"/></g><g id="Layer_1-2" data-name="Layer 1"><line x1="0.23" y1="0.5" x2="579.59" y2="0.5" fill="none" stroke="#ddd" stroke-miterlimit="10"/><path d="M33.67,260.24h1.95l2.74,8.2,2.75-8.2h1.94v9.7H42v-8.55h-.2L39,269.59h-1.2l-2.82-8.2h-.19v8.55H33.67Z" fill="#4c4c4c"/><path d="M50.19,268.63c0,.41.37.57.81.62l0,.83a2.15,2.15,0,0,1-1.67-.56,7.16,7.16,0,0,1-2.52.56c-1.27,0-2-.73-2-2.15s.7-1.93,2.14-2.07l2.2-.21v-.6c0-1-.42-1.33-1.26-1.33s-2.65.18-2.65.18l0-.8a16.87,16.87,0,0,1,2.75-.31c1.58,0,2.25.73,2.25,2.26Zm-3.12-2c-.86.08-1.19.49-1.19,1.26s.35,1.29,1.06,1.29a7.32,7.32,0,0,0,2.2-.44v-2.31Z" fill="#4c4c4c"/><path d="M52.26,260.13h1.05v1.22H52.26Zm0,2.8h1.05v7H52.26Z" fill="#4c4c4c"/><path d="M55.33,269.94v-7h1v.49a5.35,5.35,0,0,1,2.17-.63c1.94,0,2.37,1,2.37,3.45v3.7h-1v-3.67c0-1.85-.21-2.54-1.52-2.54a4.74,4.74,0,0,0-2,.52v5.69Z" fill="#4c4c4c"/><path d="M64.25,263.84v3.35c0,1.53.09,2,1,2,.4,0,1.25-.08,1.25-.08l.07.87a12.62,12.62,0,0,1-1.43.15c-1.44,0-1.93-.54-1.93-2.56v-3.69h-1v-.91h1v-2.14h1v2.14h2.22v.91Z" fill="#4c4c4c"/><path d="M72.93,269l0,.82a23.64,23.64,0,0,1-2.73.23c-2.08,0-2.77-1.22-2.77-3.6,0-2.66,1.15-3.69,2.93-3.69s2.81,1,2.81,3.28l0,.8H68.51c0,1.5.47,2.28,1.84,2.28C71.4,269.15,72.93,269,72.93,269Zm-.79-3c0-1.74-.53-2.35-1.76-2.35s-1.87.65-1.88,2.35Z" fill="#4c4c4c"/><path d="M74.83,269.94v-7h1v.49a5.29,5.29,0,0,1,2.17-.63c1.93,0,2.36,1,2.36,3.45v3.7h-1v-3.67c0-1.85-.21-2.54-1.52-2.54a4.8,4.8,0,0,0-2,.52v5.69Z" fill="#4c4c4c"/><path d="M87.29,268.63c0,.41.37.57.81.62l0,.83a2.15,2.15,0,0,1-1.67-.56,7.16,7.16,0,0,1-2.52.56c-1.27,0-2-.73-2-2.15s.7-1.93,2.14-2.07l2.2-.21v-.6c0-1-.42-1.33-1.26-1.33s-2.65.18-2.65.18l0-.8a16.87,16.87,0,0,1,2.75-.31c1.58,0,2.25.73,2.25,2.26Zm-3.12-2c-.86.08-1.19.49-1.19,1.26s.35,1.29,1.06,1.29a7.32,7.32,0,0,0,2.2-.44v-2.31Z" fill="#4c4c4c"/><path d="M89.36,269.94v-7h1v.49a5.29,5.29,0,0,1,2.17-.63c1.93,0,2.37,1,2.37,3.45v3.7h-1v-3.67c0-1.85-.21-2.54-1.51-2.54a4.81,4.81,0,0,0-2,.52v5.69Z" fill="#4c4c4c"/><path d="M101.4,263l0,.86s-1.12-.13-1.65-.13c-1.61,0-2,.7-2,2.58,0,2.07.32,2.83,2.06,2.83.53,0,1.65-.13,1.65-.13l0,.87a18.46,18.46,0,0,1-2,.2c-2.23,0-2.89-1-2.89-3.77,0-2.54.83-3.52,2.92-3.52A16.26,16.26,0,0,1,101.4,263Z" fill="#4c4c4c"/><path d="M108.15,269l0,.82a23.89,23.89,0,0,1-2.73.23c-2.09,0-2.78-1.22-2.78-3.6,0-2.66,1.15-3.69,2.93-3.69s2.82,1,2.82,3.28l-.06.8h-4.62c0,1.5.46,2.28,1.83,2.28C106.62,269.15,108.15,269,108.15,269Zm-.78-3c0-1.74-.54-2.35-1.77-2.35s-1.86.65-1.88,2.35Z" fill="#4c4c4c"/><path d="M37.19,85.09c1.89,0,2.88.74,2.88,2.46a2.12,2.12,0,0,1-1.25,2.23,2.13,2.13,0,0,1,1.55,2.28c0,2-1.18,2.72-3,2.72h-3.7V85.09Zm-2.44,1v3.35h2.49c1.22,0,1.72-.58,1.72-1.74S38.38,86,37.14,86Zm0,4.29v3.5h2.58c1.17,0,1.94-.38,1.94-1.81s-1.27-1.69-2-1.69Z" fill="#4c4c4c"/><path d="M47.06,93.48c0,.4.36.56.81.61l0,.83a2.14,2.14,0,0,1-1.67-.56,7.16,7.16,0,0,1-2.52.56c-1.28,0-2-.73-2-2.14s.7-1.94,2.15-2.08L46,90.49v-.6c0-1-.42-1.33-1.26-1.33s-2.64.18-2.64.18l-.05-.8a17.58,17.58,0,0,1,2.75-.3c1.58,0,2.26.72,2.26,2.25Zm-3.13-2c-.85.08-1.19.49-1.19,1.26S43.09,94,43.81,94A7.3,7.3,0,0,0,46,93.6V91.29Z" fill="#4c4c4c"/><path d="M50.53,88.69V92c0,1.53.09,2,1,2,.4,0,1.25-.09,1.25-.09l.07.87a12.62,12.62,0,0,1-1.43.15c-1.44,0-1.93-.54-1.93-2.56V88.69h-1v-.91h1V85.63h1v2.15h2.22v.91Z" fill="#4c4c4c"/><path d="M55.44,88.69V92c0,1.53.1,2,1,2,.39,0,1.24-.09,1.24-.09l.07.87a12.35,12.35,0,0,1-1.42.15c-1.45,0-1.94-.54-1.94-2.56V88.69h-1v-.91h1V85.63h1v2.15h2.23v.91Z" fill="#4c4c4c"/><path d="M64.12,93.87l0,.83a25,25,0,0,1-2.73.22c-2.09,0-2.78-1.22-2.78-3.6,0-2.66,1.15-3.68,2.93-3.68s2.82,1,2.82,3.27l-.06.8H59.71c0,1.5.46,2.29,1.83,2.29C62.59,94,64.12,93.87,64.12,93.87Zm-.78-3c0-1.74-.54-2.35-1.77-2.35s-1.86.66-1.87,2.35Z" fill="#4c4c4c"/><path d="M66,87.78h1v1a8,8,0,0,1,2.56-1.11v1.07a10.08,10.08,0,0,0-2.55,1v5.14H66Z" fill="#4c4c4c"/><path d="M71.26,87.78,73,93.87h.46l1.77-6.09h1.05L73.37,97.89H72.32l.91-3.11h-1l-2-7Z" fill="#4c4c4c"/><path d="M80.89,94.78V85.09H82v8.72h4.26v1Z" fill="#4c4c4c"/><path d="M92.58,93.87l0,.83a25,25,0,0,1-2.73.22c-2.09,0-2.77-1.22-2.77-3.6,0-2.66,1.14-3.68,2.92-3.68s2.82,1,2.82,3.27l-.06.8H88.17c0,1.5.46,2.29,1.84,2.29C91.06,94,92.58,93.87,92.58,93.87Zm-.78-3c0-1.74-.53-2.35-1.77-2.35s-1.86.66-1.87,2.35Z" fill="#4c4c4c"/><path d="M95,87.78l1.64,6.09h.51l1.7-6.09h1.08l-2,7H95.8l-2-7Z" fill="#4c4c4c"/><path d="M106.39,93.87l0,.83a24.68,24.68,0,0,1-2.73.22c-2.08,0-2.77-1.22-2.77-3.6,0-2.66,1.15-3.68,2.93-3.68s2.81,1,2.81,3.27l-.05.8H102c0,1.5.47,2.29,1.84,2.29C104.86,94,106.39,93.87,106.39,93.87Zm-.79-3c0-1.74-.53-2.35-1.76-2.35s-1.87.66-1.88,2.35Z" fill="#4c4c4c"/><path d="M108.37,84.72h1V94.78h-1Z" fill="#4c4c4c"/><path d="M34.29,355.9h1.52L38,362.34l2.16-6.44h1.53v7.62h-.85v-6.71h-.16l-2.21,6.43H37.5l-2.21-6.43h-.16v6.71h-.84Z" fill="#4c4c4c"/><path d="M47.27,362.5c0,.31.28.44.63.48l0,.65a1.69,1.69,0,0,1-1.31-.44,5.62,5.62,0,0,1-2,.44c-1,0-1.55-.57-1.55-1.68s.55-1.52,1.68-1.63l1.73-.17v-.47c0-.77-.33-1.05-1-1.05s-2.08.15-2.08.15l0-.63a13.41,13.41,0,0,1,2.15-.24c1.25,0,1.78.57,1.78,1.77Zm-2.46-1.57c-.67.07-.93.39-.93,1s.27,1,.83,1a5.68,5.68,0,0,0,1.73-.35v-1.81Z" fill="#4c4c4c"/><path d="M48.89,358h.82v.75a6.14,6.14,0,0,1,2-.87v.83a8,8,0,0,0-2,.75v4h-.83Z" fill="#4c4c4c"/><path d="M92,355.9h1.85l2.09,7.62h-.84l-.55-2H91.28l-.55,2h-.84Zm-.52,4.9h2.89l-1.16-4.17h-.57Z" fill="#4c4c4c"/><path d="M97,358h.81v.39a3.79,3.79,0,0,1,1.65-.5c1.39,0,2,.84,2,2.79,0,2.16-.7,2.93-2.4,2.93a7.5,7.5,0,0,1-1.23-.12V366H97Zm.82,1.06v3.71a8.63,8.63,0,0,0,1.19.12c1.21,0,1.61-.62,1.61-2.21s-.48-2.06-1.28-2.06A3.59,3.59,0,0,0,97.8,359.08Z" fill="#4c4c4c"/><path d="M102.77,358h.82v.75a6.14,6.14,0,0,1,2-.87v.83a8,8,0,0,0-2,.75v4h-.83Z" fill="#4c4c4c"/><path d="M145.8,362.47c0,1.65-.64,1.84-2.09,1.84v-.76c1,0,1.24-.07,1.24-1.2V355.9h.84Z" fill="#4c4c4c"/><path d="M151.74,358v5.5h-.83v-.39a3.65,3.65,0,0,1-1.62.5c-1.55,0-1.86-.72-1.86-2.74V358h.82v2.86c0,1.52.13,2,1.16,2a3.29,3.29,0,0,0,1.5-.41V358Z" fill="#4c4c4c"/><path d="M153.32,363.52V358h.82v.38a4.2,4.2,0,0,1,1.7-.49c1.52,0,1.86.75,1.86,2.7v2.91h-.81v-2.88c0-1.46-.17-2-1.19-2a3.75,3.75,0,0,0-1.55.41v4.47Z" fill="#4c4c4c"/><path d="M198.45,362.47c0,1.65-.64,1.84-2.09,1.84v-.76c1,0,1.24-.07,1.24-1.2V355.9h.84Z" fill="#4c4c4c"/><path d="M204.39,358v5.5h-.83v-.39a3.66,3.66,0,0,1-1.63.5c-1.54,0-1.85-.72-1.85-2.74V358h.82v2.86c0,1.52.13,2,1.16,2a3.29,3.29,0,0,0,1.5-.41V358Z" fill="#4c4c4c"/><path d="M206,355.62h.82v7.9H206Z" fill="#4c4c4c"/><path d="M247.8,355.9h1.85l2.09,7.62h-.84l-.55-2h-3.26l-.55,2h-.83Zm-.52,4.9h2.88L249,356.63h-.57Z" fill="#4c4c4c"/><path d="M257.05,358v5.5h-.83v-.39a3.65,3.65,0,0,1-1.62.5c-1.55,0-1.86-.72-1.86-2.74V358h.82v2.86c0,1.52.13,2,1.16,2a3.29,3.29,0,0,0,1.5-.41V358Z" fill="#4c4c4c"/><path d="M258.39,364.44c0-.64.3-.93.87-1.36a.89.89,0,0,1-.31-.76,3.51,3.51,0,0,1,.38-.87,1.59,1.59,0,0,1-.87-1.66c0-1.35.83-1.88,2.05-1.88a5.91,5.91,0,0,1,1.15.14l1.63,0v.7l-1.05,0a1.43,1.43,0,0,1,.36,1.1c0,1.43-.71,1.86-2.12,1.86a3.39,3.39,0,0,1-.54,0,3.37,3.37,0,0,0-.2.63c0,.44.09.51,1.33.51,1.57,0,2.13.3,2.13,1.61s-.89,1.75-2.45,1.75C259,366.1,258.39,365.72,258.39,364.44Zm1.43-1c-.46.34-.62.54-.62,1,0,.75.32,1,1.57,1s1.59-.3,1.59-1-.35-.93-1.35-.93C260.62,363.46,259.82,363.41,259.82,363.41Zm2-3.62c0-.87-.34-1.21-1.27-1.21s-1.23.34-1.23,1.21.38,1.2,1.23,1.2S261.78,360.66,261.78,359.79Z" fill="#4c4c4c"/><path d="M306.42,356.72s-1.53-.19-2.17-.19c-1.08,0-1.65.39-1.65,1.25s.53,1.15,1.86,1.45c1.52.34,2.19.71,2.19,2,0,1.69-.92,2.35-2.43,2.35a19.47,19.47,0,0,1-2.41-.25l.09-.7s1.49.2,2.27.2c1.08,0,1.63-.47,1.63-1.53,0-.86-.45-1.1-1.69-1.34-1.57-.34-2.37-.72-2.37-2.17s1-2.05,2.46-2.05a19,19,0,0,1,2.3.22Z" fill="#4c4c4c"/><path d="M312,362.8l0,.65a18.65,18.65,0,0,1-2.14.18c-1.64,0-2.18-1-2.18-2.83,0-2.09.9-2.89,2.3-2.89s2.21.77,2.21,2.57l-.05.63h-3.63c0,1.18.37,1.79,1.44,1.79C310.83,362.9,312,362.8,312,362.8Zm-.62-2.35c0-1.37-.41-1.85-1.38-1.85s-1.47.52-1.48,1.85Z" fill="#4c4c4c"/><path d="M313.52,358h.82v.39a3.74,3.74,0,0,1,1.65-.5c1.38,0,2,.84,2,2.79,0,2.16-.7,2.93-2.4,2.93a7.37,7.37,0,0,1-1.23-.12V366h-.83Zm.83,1.06v3.71a8.45,8.45,0,0,0,1.19.12c1.21,0,1.6-.62,1.6-2.21s-.47-2.06-1.27-2.06A3.59,3.59,0,0,0,314.35,359.08Z" fill="#4c4c4c"/><path d="M356.88,359.74c0-2.5.65-3.95,3-3.95s3,1.42,3,3.95-.65,3.89-3,3.89S356.88,362.3,356.88,359.74Zm5.14,0c0-2.05-.4-3.2-2.14-3.2s-2.13,1.14-2.13,3.2.37,3.14,2.13,3.14S362,361.89,362,359.74Z" fill="#4c4c4c"/><path d="M367.86,358.07l0,.67s-.87-.1-1.29-.1c-1.27,0-1.61.55-1.61,2s.25,2.22,1.62,2.22c.41,0,1.3-.1,1.3-.1l0,.68a14,14,0,0,1-1.53.16c-1.75,0-2.27-.8-2.27-3,0-2,.65-2.76,2.29-2.76A13.14,13.14,0,0,1,367.86,358.07Z" fill="#4c4c4c"/><path d="M370.2,358.73v2.63c0,1.2.08,1.54.79,1.54.31,0,1-.06,1-.06l.06.68a9.78,9.78,0,0,1-1.13.12c-1.13,0-1.51-.43-1.51-2v-2.9h-.78V358h.78v-1.69h.81V358H372v.71Z" fill="#4c4c4c"/><path d="M410.83,355.9h1.58l2.92,6.87h.23V355.9h.83v7.62h-1.55l-3-6.87h-.21v6.87h-.84Z" fill="#4c4c4c"/><path d="M422.59,360.7c0,2-.5,2.93-2.36,2.93s-2.35-.93-2.35-2.93.61-2.79,2.35-2.79S422.59,358.81,422.59,360.7Zm-.85,0c0-1.53-.33-2.08-1.51-2.08s-1.51.55-1.51,2.08.21,2.21,1.51,2.21S421.74,362.26,421.74,360.7Z" fill="#4c4c4c"/><path d="M424.19,358l1.29,4.78h.41l1.33-4.78h.84l-1.55,5.5h-1.65l-1.55-5.5Z" fill="#4c4c4c"/><path d="M467,363.52V355.9h2.71c2.21,0,2.82,1.55,2.82,3.7s-.57,3.92-2.82,3.92Zm2.71-6.87h-1.87v6.12h1.87c1.59,0,1.95-1.52,1.95-3.17S471.29,356.65,469.7,356.65Z" fill="#4c4c4c"/><path d="M478,362.8l0,.65a18.93,18.93,0,0,1-2.15.18c-1.64,0-2.17-1-2.17-2.83,0-2.09.9-2.89,2.29-2.89s2.21.77,2.21,2.57l0,.63h-3.63c0,1.18.36,1.79,1.44,1.79C476.8,362.9,478,362.8,478,362.8Zm-.62-2.35c0-1.37-.42-1.85-1.39-1.85s-1.46.52-1.47,1.85Z" fill="#4c4c4c"/><path d="M483,358.07l0,.67s-.88-.1-1.3-.1c-1.26,0-1.6.55-1.6,2s.25,2.22,1.61,2.22c.42,0,1.3-.1,1.3-.1l0,.68a14.29,14.29,0,0,1-1.53.16c-1.75,0-2.27-.8-2.27-3,0-2,.65-2.76,2.29-2.76A13.17,13.17,0,0,1,483,358.07Z" fill="#4c4c4c"/><line x1="482.26" y1="348.86" x2="30.43" y2="348.86" fill="none" stroke="#adadad" stroke-miterlimit="10"/><polyline points="33.68 344.36 50.25 344.36 71.55 341.36 85.75 335.36 102.32 326.36 121.26 320.36 137.83 313.36 147.3 307.36 169.79 298.36 191.09 294.36 218.32 298.36 236.07 304.36 258.56 312.36 275.13 326.36 289.33 331.36 315.37 335.36 342.6 339.36 360.35 340.36 399.41 341.36 439.65 344.36 470.42 341.36 482.26 335.36" fill="none" stroke="#3899e8"/><polyline points="33.68 344.86 50.25 344.86 71.55 341.86 85.75 335.86 102.32 326.86 121.26 320.86 137.83 313.86 147.3 307.86 169.79 298.86 191.09 296.86 218.32 300.86 236.07 304.86 258.56 312.86 275.13 326.86 289.33 331.86 315.37 335.86 342.6 339.86 360.35 340.86 399.41 341.86 439.65 344.86 470.42 341.86 482.26 335.86" fill="none" stroke="#8dc5f2"/><path d="M37.28,33.4h3.36l3.8,13.84H42.92l-1-3.56H36l-1,3.56H33.48Zm-.94,8.9h5.24l-2.1-7.58h-1Z"/><path d="M52.1,40.16h3.82V47a33.71,33.71,0,0,1-4.5.48c-4.24,0-5.36-2.6-5.36-7.08s1.16-7.16,5.32-7.16a25.77,25.77,0,0,1,4.54.52L55.86,35a31.73,31.73,0,0,0-4.3-.42c-3.2,0-3.9,1.86-3.9,5.78s.68,5.72,3.88,5.72a18.56,18.56,0,0,0,2.86-.28V41.54H52.1Z"/><path d="M68.4,33.4,64.78,47.24H61.34L57.72,33.4h1.6L62.5,45.88h1.12L66.8,33.4Z"/><path d="M74.72,34.38a15.43,15.43,0,0,1,3.88-.56c3.12,0,4.22,1.1,4.22,3.44a3.3,3.3,0,0,1-2,3,2.87,2.87,0,0,1,2.28,3.2c0,2.66-1.3,4-4.28,4a21.78,21.78,0,0,1-4.34-.54l.14-1.26a23.88,23.88,0,0,0,4,.44c2,0,2.86-.86,2.86-2.56S80.34,41.1,78.84,41H76.18V39.72h2.66a2.48,2.48,0,0,0,2.4-2.4c0-1.5-.74-2.12-2.7-2.12a20.15,20.15,0,0,0-3.68.4Z"/><path d="M30.63,421.43h9v1.25h-3.8v11.21H34.46V422.68H30.63Z" fill="#3a3d3f"/><path d="M48.47,429.28c0,3.28-.81,4.79-3.86,4.79s-3.85-1.51-3.85-4.79c0-3.09,1-4.57,3.85-4.57S48.47,426.19,48.47,429.28Zm-1.39,0c0-2.5-.54-3.4-2.47-3.4s-2.46.9-2.46,3.4.34,3.62,2.46,3.62S47.08,431.84,47.08,429.28Z" fill="#3a3d3f"/><path d="M57.57,433.89H56.24v-.61a6.42,6.42,0,0,1-2.73.79c-1.77,0-3.25-.72-3.25-4.61,0-3.17,1-4.75,3.77-4.75a15.79,15.79,0,0,1,2.21.23v-4h1.33Zm-1.33-1.69v-6.1a14.27,14.27,0,0,0-2.14-.22c-1.89,0-2.45,1.24-2.45,3.58,0,2.92,1,3.41,2,3.41A6.47,6.47,0,0,0,56.24,432.2Z" fill="#3a3d3f"/><path d="M66.54,432.22c0,.52.47.72,1,.79l0,1.06a2.74,2.74,0,0,1-2.14-.72,9.22,9.22,0,0,1-3.25.72c-1.63,0-2.53-.93-2.53-2.75s.9-2.49,2.75-2.67l2.83-.27v-.77c0-1.26-.54-1.71-1.62-1.71-1.26,0-3.41.23-3.41.23l0-1a21.6,21.6,0,0,1,3.53-.4c2,0,2.9.94,2.9,2.9Zm-4-2.56c-1.1.11-1.53.63-1.53,1.62s.45,1.66,1.37,1.66a9.57,9.57,0,0,0,2.83-.56v-3Z" fill="#3a3d3f"/><path d="M69.7,424.89,72,432.72h.6l2.27-7.83h1.35l-3.75,13H71.07l1.17-4H70.91l-2.56-9Z" fill="#3a3d3f"/><path d="M81.85,421.29H83.2v1.57H81.85Zm0,3.6H83.2v9H81.85Z" fill="#3a3d3f"/><path d="M87.59,426.06v4.3c0,2,.13,2.52,1.3,2.52.51,0,1.6-.1,1.6-.1l.09,1.11a15.44,15.44,0,0,1-1.83.2c-1.86,0-2.49-.7-2.49-3.29v-4.74H85v-1.17h1.28v-2.75h1.33v2.75h2.87v1.17Z" fill="#3a3d3f"/><path d="M96.07,421.29h1.35v1.57H96.07Zm0,3.6h1.35v9H96.07Z" fill="#3a3d3f"/><path d="M106,426.2a30.35,30.35,0,0,0-3.15-.28c-1.11,0-2,.3-2,1.37,0,.84.43,1.08,2.34,1.4,2.25.38,3.1.83,3.1,2.57,0,2.11-1.34,2.81-3.5,2.81a25.4,25.4,0,0,1-3.16-.34l.07-1.17a29.5,29.5,0,0,0,3,.31c1.47,0,2.27-.33,2.27-1.55,0-.94-.47-1.17-2.43-1.48s-3-.7-3-2.5c0-2,1.6-2.63,3.24-2.63a23.19,23.19,0,0,1,3.26.34Z" fill="#3a3d3f"/><path d="M112.35,424.89h1.33v.65a6.12,6.12,0,0,1,2.7-.83c2.27,0,3.26,1.39,3.26,4.57,0,3.53-1.15,4.79-3.93,4.79a11,11,0,0,1-2-.2v4h-1.35Zm1.35,1.75v6.06a12.78,12.78,0,0,0,1.94.2c2,0,2.63-1,2.63-3.62s-.77-3.36-2.09-3.36A5.86,5.86,0,0,0,113.7,426.64Z" fill="#3a3d3f"/><path d="M129.14,429.28c0,3.28-.81,4.79-3.85,4.79s-3.85-1.51-3.85-4.79c0-3.09,1-4.57,3.85-4.57S129.14,426.19,129.14,429.28Zm-1.39,0c0-2.5-.54-3.4-2.46-3.4s-2.47.9-2.47,3.4.34,3.62,2.47,3.62S127.75,431.84,127.75,429.28Z" fill="#3a3d3f"/><path d="M137.31,426.2a30.35,30.35,0,0,0-3.15-.28c-1.11,0-2,.3-2,1.37,0,.84.43,1.08,2.34,1.4,2.25.38,3.1.83,3.1,2.57,0,2.11-1.34,2.81-3.5,2.81a25.4,25.4,0,0,1-3.16-.34l.07-1.17a29.5,29.5,0,0,0,3,.31c1.48,0,2.27-.33,2.27-1.55,0-.94-.47-1.17-2.43-1.48s-3-.7-3-2.5c0-2,1.6-2.63,3.24-2.63a23.19,23.19,0,0,1,3.26.34Z" fill="#3a3d3f"/><path d="M145.68,426.2a30.35,30.35,0,0,0-3.15-.28c-1.11,0-2,.3-2,1.37,0,.84.43,1.08,2.34,1.4,2.25.38,3.1.83,3.1,2.57,0,2.11-1.34,2.81-3.5,2.81a25.4,25.4,0,0,1-3.16-.34l.07-1.17a29.5,29.5,0,0,0,3,.31c1.48,0,2.27-.33,2.27-1.55,0-.94-.47-1.17-2.43-1.48s-3-.7-3-2.5c0-2,1.6-2.63,3.24-2.63a23.19,23.19,0,0,1,3.26.34Z" fill="#3a3d3f"/><path d="M148.08,421.29h1.35v1.57h-1.35Zm0,3.6h1.35v9h-1.35Z" fill="#3a3d3f"/><path d="M159.27,429.25c0,3.58-1,4.82-4.25,4.82-1.08,0-3-.2-3-.2V421h1.33v4.38a7.44,7.44,0,0,1,2.65-.63C158.45,424.71,159.27,426,159.27,429.25Zm-1.36,0c0-2.33-.47-3.33-2.06-3.33a7.57,7.57,0,0,0-2.5.52v6.34s1.17.09,1.66.09C157.47,432.87,157.91,431.77,157.91,429.25Z" fill="#3a3d3f"/><path d="M161.59,421h1.35v12.93h-1.35Z" fill="#3a3d3f"/><path d="M172.29,432.72l0,1.07a32.2,32.2,0,0,1-3.51.28c-2.68,0-3.56-1.56-3.56-4.62,0-3.43,1.47-4.74,3.76-4.74s3.62,1.26,3.62,4.21l-.07,1h-5.94c0,1.93.59,2.93,2.35,2.93C170.32,432.88,172.29,432.72,172.29,432.72Zm-1-3.85c0-2.23-.69-3-2.27-3s-2.39.85-2.41,3Z" fill="#3a3d3f"/><path d="M180.49,426.06v4.3c0,2,.13,2.52,1.3,2.52.5,0,1.6-.1,1.6-.1l.09,1.11a15.44,15.44,0,0,1-1.83.2c-1.86,0-2.49-.7-2.49-3.29v-4.74h-1.28v-1.17h1.28v-2.75h1.33v2.75h2.87v1.17Z" fill="#3a3d3f"/><path d="M192.32,429.28c0,3.28-.81,4.79-3.85,4.79s-3.85-1.51-3.85-4.79c0-3.09,1-4.57,3.85-4.57S192.32,426.19,192.32,429.28Zm-1.39,0c0-2.5-.54-3.4-2.46-3.4s-2.47.9-2.47,3.4.34,3.62,2.47,3.62S190.93,431.84,190.93,429.28Z" fill="#3a3d3f"/><path d="M204.29,425l0,1.1s-1.44-.16-2.13-.16c-2.07,0-2.63.9-2.63,3.31,0,2.66.42,3.64,2.65,3.64.68,0,2.12-.17,2.12-.17l.06,1.12a24.28,24.28,0,0,1-2.5.25c-2.87,0-3.71-1.31-3.71-4.84,0-3.26,1.06-4.52,3.74-4.52A20.89,20.89,0,0,1,204.29,425Z" fill="#3a3d3f"/><path d="M206.32,433.89V421h1.35v4.43a7.65,7.65,0,0,1,2.78-.68c2.46,0,3,1.22,3,4.43v4.75h-1.35v-4.71c0-2.38-.27-3.26-1.93-3.26a7.41,7.41,0,0,0-2.54.54v7.43Z" fill="#3a3d3f"/><path d="M222.34,432.22c0,.52.47.72,1,.79l-.06,1.06a2.75,2.75,0,0,1-2.14-.72,9.2,9.2,0,0,1-3.24.72c-1.64,0-2.54-.93-2.54-2.75s.9-2.49,2.76-2.67l2.82-.27v-.77c0-1.26-.54-1.71-1.62-1.71-1.26,0-3.4.23-3.4.23l-.05-1a21.6,21.6,0,0,1,3.53-.4c2,0,2.89.94,2.89,2.9Zm-4-2.56c-1.1.11-1.53.63-1.53,1.62s.45,1.66,1.37,1.66a9.47,9.47,0,0,0,2.82-.56v-3Z" fill="#3a3d3f"/><path d="M225,424.89h1.33v1.22a10.18,10.18,0,0,1,3.29-1.42v1.37a12.81,12.81,0,0,0-3.27,1.23v6.6H225Z" fill="#3a3d3f"/><path d="M230.84,435.41c0-1.05.48-1.54,1.42-2.24a1.46,1.46,0,0,1-.5-1.24,5.82,5.82,0,0,1,.61-1.42c-.76-.34-1.42-1.06-1.42-2.72,0-2.22,1.36-3.08,3.36-3.08a9.6,9.6,0,0,1,1.88.23l2.66-.07V426l-1.71,0a2.34,2.34,0,0,1,.59,1.8c0,2.34-1.17,3-3.47,3a6.65,6.65,0,0,1-.88-.07,5.21,5.21,0,0,0-.33,1c0,.72.15.82,2.18.82,2.56,0,3.48.51,3.48,2.65s-1.46,2.86-4,2.86C231.86,438.12,230.84,437.49,230.84,435.41Zm2.34-1.7c-.76.56-1,.88-1,1.59,0,1.24.52,1.69,2.56,1.69,1.8,0,2.61-.49,2.61-1.67,0-1.37-.58-1.52-2.22-1.52C234.49,433.8,233.18,433.71,233.18,433.71Zm3.2-5.92c0-1.42-.55-2-2.07-2s-2,.56-2,2,.61,2,2,2S236.38,429.21,236.38,427.79Z" fill="#3a3d3f"/><path d="M247.13,432.72l0,1.07a32.5,32.5,0,0,1-3.52.28c-2.68,0-3.56-1.56-3.56-4.62,0-3.43,1.48-4.74,3.76-4.74s3.62,1.26,3.62,4.21l-.07,1h-5.94c0,1.93.59,2.93,2.36,2.93C245.17,432.88,247.13,432.72,247.13,432.72Zm-1-3.85c0-2.23-.68-3-2.27-3s-2.39.85-2.41,3Z" fill="#3a3d3f"/><path d="M256.09,421.43h3l3.42,12.46h-1.37l-.9-3.2h-5.33l-.9,3.2h-1.37Zm-.84,8H260l-1.89-6.83h-.93Z" fill="#3a3d3f"/><path d="M269.43,427.52h3.44v6.12a30.76,30.76,0,0,1-4.05.43c-3.82,0-4.83-2.34-4.83-6.37s1.05-6.45,4.79-6.45a23.17,23.17,0,0,1,4.09.47l-.05,1.15a29.35,29.35,0,0,0-3.88-.37c-2.88,0-3.51,1.67-3.51,5.2s.62,5.15,3.5,5.15a16.71,16.71,0,0,0,2.57-.25v-3.84h-2.07Z" fill="#3a3d3f"/><path d="M284.1,421.43l-3.26,12.46h-3.09l-3.26-12.46h1.44l2.86,11.24h1l2.86-11.24Z" fill="#3a3d3f"/><path d="M285.83,422.32a13.71,13.71,0,0,1,3.49-.51c2.81,0,3.8,1,3.8,3.1a3,3,0,0,1-1.77,2.7,2.58,2.58,0,0,1,2.06,2.88c0,2.39-1.17,3.58-3.86,3.58a19.76,19.76,0,0,1-3.9-.48l.12-1.14a21.39,21.39,0,0,0,3.64.4c1.76,0,2.57-.78,2.57-2.31s-1.09-2.17-2.44-2.23h-2.4v-1.19h2.4A2.23,2.23,0,0,0,291.7,425c0-1.35-.67-1.91-2.43-1.91a18.25,18.25,0,0,0-3.32.36Z" fill="#3a3d3f"/><path d="M299.87,421.29h1.35v1.57h-1.35Zm0,3.6h1.35v9h-1.35Z" fill="#3a3d3f"/><path d="M303.81,433.89v-9h1.33v.63a6.85,6.85,0,0,1,2.79-.81c2.49,0,3,1.22,3,4.43v4.75h-1.33v-4.71c0-2.38-.27-3.26-1.94-3.26a6.19,6.19,0,0,0-2.54.66v7.31Z" fill="#3a3d3f"/><path d="M323.79,432.22c0,.52.47.72,1,.79l-.05,1.06a2.75,2.75,0,0,1-2.14-.72,9.2,9.2,0,0,1-3.24.72c-1.64,0-2.54-.93-2.54-2.75s.9-2.49,2.75-2.67l2.83-.27v-.77c0-1.26-.54-1.71-1.62-1.71-1.26,0-3.4.23-3.4.23l-.06-1a21.6,21.6,0,0,1,3.53-.4c2,0,2.9.94,2.9,2.9Zm-4-2.56c-1.09.11-1.53.63-1.53,1.62s.45,1.66,1.37,1.66a9.48,9.48,0,0,0,2.83-.56v-3Z" fill="#3a3d3f"/><path d="M330.52,421h1.35v12.93h-1.35Z" fill="#3a3d3f"/><path d="M341.21,432.72l0,1.07a32.2,32.2,0,0,1-3.51.28c-2.68,0-3.57-1.56-3.57-4.62,0-3.43,1.48-4.74,3.77-4.74s3.62,1.26,3.62,4.21l-.08,1h-5.94c0,1.93.6,2.93,2.36,2.93C339.25,432.88,341.21,432.72,341.21,432.72Zm-1-3.85c0-2.23-.68-3-2.26-3s-2.4.85-2.42,3Z" fill="#3a3d3f"/><path d="M349.64,426.2a30.35,30.35,0,0,0-3.15-.28c-1.12,0-2,.3-2,1.37,0,.84.44,1.08,2.34,1.4,2.26.38,3.1.83,3.1,2.57,0,2.11-1.33,2.81-3.49,2.81a25.65,25.65,0,0,1-3.17-.34l.07-1.17a29.5,29.5,0,0,0,3,.31c1.48,0,2.27-.33,2.27-1.55,0-.94-.47-1.17-2.43-1.48s-3-.7-3-2.5c0-2,1.61-2.63,3.24-2.63a23.19,23.19,0,0,1,3.26.34Z" fill="#3a3d3f"/><path d="M358,426.2a30.35,30.35,0,0,0-3.15-.28c-1.12,0-2,.3-2,1.37,0,.84.44,1.08,2.34,1.4,2.26.38,3.1.83,3.1,2.57,0,2.11-1.33,2.81-3.49,2.81a25.65,25.65,0,0,1-3.17-.34l.07-1.17a29.5,29.5,0,0,0,3,.31c1.48,0,2.27-.33,2.27-1.55,0-.94-.47-1.17-2.43-1.48s-3-.7-3-2.5c0-2,1.61-2.63,3.24-2.63a23.19,23.19,0,0,1,3.26.34Z" fill="#3a3d3f"/><path d="M364.36,421.29h1.35v1.57h-1.35Zm0,3.6h1.35v9h-1.35Z" fill="#3a3d3f"/><path d="M368.3,433.89v-9h1.33v.63a6.86,6.86,0,0,1,2.8-.81c2.48,0,3,1.22,3,4.43v4.75h-1.33v-4.71c0-2.38-.27-3.26-1.95-3.26a6.19,6.19,0,0,0-2.54.66v7.31Z" fill="#3a3d3f"/><path d="M379.77,426.06v4.3c0,2,.12,2.52,1.3,2.52.5,0,1.6-.1,1.6-.1l.09,1.11a15.71,15.71,0,0,1-1.84.2c-1.85,0-2.48-.7-2.48-3.29v-4.74h-1.28v-1.17h1.28v-2.75h1.33v2.75h2.86v1.17Z" fill="#3a3d3f"/><path d="M390.93,432.72l0,1.07a32.5,32.5,0,0,1-3.52.28c-2.68,0-3.56-1.56-3.56-4.62,0-3.43,1.48-4.74,3.76-4.74s3.62,1.26,3.62,4.21l-.07,1h-5.94c0,1.93.59,2.93,2.36,2.93C389,432.88,390.93,432.72,390.93,432.72Zm-1-3.85c0-2.23-.68-3-2.27-3s-2.39.85-2.41,3Z" fill="#3a3d3f"/><path d="M393.38,433.89v-9h1.33v.63a6.85,6.85,0,0,1,2.79-.81c2.48,0,3,1.22,3,4.43v4.75h-1.33v-4.71c0-2.38-.27-3.26-1.94-3.26a6.19,6.19,0,0,0-2.54.66v7.31Z" fill="#3a3d3f"/><path d="M409,426.2a30.35,30.35,0,0,0-3.15-.28c-1.12,0-2,.3-2,1.37,0,.84.43,1.08,2.34,1.4,2.25.38,3.09.83,3.09,2.57,0,2.11-1.33,2.81-3.49,2.81a25.65,25.65,0,0,1-3.17-.34l.07-1.17a29.8,29.8,0,0,0,3,.31c1.47,0,2.26-.33,2.26-1.55,0-.94-.46-1.17-2.43-1.48s-3-.7-3-2.5c0-2,1.6-2.63,3.24-2.63a23.19,23.19,0,0,1,3.26.34Z" fill="#3a3d3f"/><path d="M411.41,421.29h1.35v1.57h-1.35Zm0,3.6h1.35v9h-1.35Z" fill="#3a3d3f"/><path d="M416,424.89l2.11,7.83h.66l2.18-7.83h1.39l-2.54,9h-2.7l-2.54-9Z" fill="#3a3d3f"/><path d="M430.66,432.72l0,1.07a32.2,32.2,0,0,1-3.51.28c-2.68,0-3.56-1.56-3.56-4.62,0-3.43,1.47-4.74,3.76-4.74S431,426,431,428.92l-.07,1H425c0,1.93.59,2.93,2.35,2.93C428.69,432.88,430.66,432.72,430.66,432.72Zm-1-3.85c0-2.23-.69-3-2.27-3s-2.39.85-2.41,3Z" fill="#3a3d3f"/><path d="M437.06,424.89h1.34v.65a6.07,6.07,0,0,1,2.7-.83c2.27,0,3.26,1.39,3.26,4.57,0,3.53-1.16,4.79-3.93,4.79a11,11,0,0,1-2-.2v4h-1.35Zm1.35,1.75v6.06a13,13,0,0,0,1.95.2c2,0,2.63-1,2.63-3.62s-.78-3.36-2.09-3.36A5.87,5.87,0,0,0,438.41,426.64Z" fill="#3a3d3f"/><path d="M453.19,432.72l0,1.07a32.2,32.2,0,0,1-3.51.28c-2.68,0-3.57-1.56-3.57-4.62,0-3.43,1.48-4.74,3.77-4.74s3.62,1.26,3.62,4.21l-.08,1h-5.94c0,1.93.6,2.93,2.36,2.93C451.23,432.88,453.19,432.72,453.19,432.72Zm-1-3.85c0-2.23-.68-3-2.26-3s-2.4.85-2.42,3Z" fill="#3a3d3f"/><path d="M455.64,424.89H457v1.22a10.17,10.17,0,0,1,3.3-1.42v1.37a12.78,12.78,0,0,0-3.28,1.23v6.6h-1.35Z" fill="#3a3d3f"/><path d="M461.87,421.29h1.35v1.57h-1.35Zm0,3.6h1.35v9h-1.35Z" fill="#3a3d3f"/><path d="M473.12,429.28c0,3.28-.81,4.79-3.85,4.79s-3.86-1.51-3.86-4.79c0-3.09,1-4.57,3.86-4.57S473.12,426.19,473.12,429.28Zm-1.39,0c0-2.5-.54-3.4-2.46-3.4s-2.47.9-2.47,3.4.34,3.62,2.47,3.62S471.73,431.84,471.73,429.28Z" fill="#3a3d3f"/><path d="M482.23,433.89h-1.34v-.61a6.42,6.42,0,0,1-2.73.79c-1.77,0-3.24-.72-3.24-4.61,0-3.17,1-4.75,3.76-4.75a15.79,15.79,0,0,1,2.21.23v-4h1.34Zm-1.34-1.69v-6.1a14.12,14.12,0,0,0-2.14-.22c-1.89,0-2.45,1.24-2.45,3.58,0,2.92,1,3.41,2,3.41A6.47,6.47,0,0,0,480.89,432.2Z" fill="#3a3d3f"/><path d="M484.74,431.84h1.48v2.05h-1.48Z" fill="#3a3d3f"/><path d="M39.45,461.69a18.72,18.72,0,0,1-3.44.38c-3.73,0-4.56-2.27-4.56-6.37s.82-6.45,4.56-6.45a18.4,18.4,0,0,1,3.44.4l-.05,1.17a22.94,22.94,0,0,0-3.25-.32c-2.77,0-3.25,1.65-3.25,5.2s.45,5.13,3.29,5.13a20.06,20.06,0,0,0,3.21-.32Z" fill="#3a3d3f"/><path d="M41.48,461.89V449h1.35v4.43a7.64,7.64,0,0,1,2.77-.68c2.47,0,3,1.22,3,4.43v4.75H47.3v-4.71c0-2.38-.27-3.26-1.93-3.26a7.41,7.41,0,0,0-2.54.54v7.43Z" fill="#3a3d3f"/><path d="M57.5,460.22c0,.52.47.72,1,.79l-.06,1.06a2.75,2.75,0,0,1-2.14-.72,9.2,9.2,0,0,1-3.24.72c-1.64,0-2.54-.93-2.54-2.75s.9-2.49,2.76-2.67l2.82-.27v-.77c0-1.26-.54-1.71-1.62-1.71-1.26,0-3.4.23-3.4.23l-.05-1a21.57,21.57,0,0,1,3.52-.4c2,0,2.9.94,2.9,2.9Zm-4-2.56c-1.1.11-1.53.63-1.53,1.62s.45,1.66,1.37,1.66a9.47,9.47,0,0,0,2.82-.56v-3Z" fill="#3a3d3f"/><path d="M60.16,452.89H61.5v1.22a10.06,10.06,0,0,1,3.29-1.42v1.37a13,13,0,0,0-3.28,1.23v6.6H60.16Z" fill="#3a3d3f"/><path d="M66,463.41c0-1.05.48-1.54,1.42-2.24a1.43,1.43,0,0,1-.51-1.24,5.78,5.78,0,0,1,.62-1.42c-.76-.34-1.43-1.06-1.43-2.72,0-2.22,1.37-3.08,3.37-3.08a9.43,9.43,0,0,1,1.87.23l2.67-.07V454l-1.71,0a2.34,2.34,0,0,1,.59,1.8c0,2.34-1.17,3-3.47,3a6.65,6.65,0,0,1-.88-.07,5.21,5.21,0,0,0-.33,1c0,.72.14.82,2.18.82,2.56,0,3.47.51,3.47,2.65s-1.45,2.86-4,2.86C67,466.12,66,465.49,66,463.41Zm2.34-1.7c-.76.56-1,.88-1,1.59,0,1.24.52,1.69,2.55,1.69,1.81,0,2.62-.49,2.62-1.67,0-1.37-.58-1.52-2.22-1.52C69.65,461.8,68.34,461.71,68.34,461.71Zm3.2-5.92c0-1.42-.56-2-2.07-2s-2,.56-2,2,.62,2,2,2S71.54,457.21,71.54,455.79Z" fill="#3a3d3f"/><path d="M75.64,449.29H77v1.57H75.64Zm0,3.6H77v9H75.64Z" fill="#3a3d3f"/><path d="M79.59,461.89v-9h1.33v.63a6.85,6.85,0,0,1,2.79-.81c2.48,0,3,1.22,3,4.43v4.75H85.42v-4.71c0-2.38-.27-3.26-2-3.26a6.18,6.18,0,0,0-2.53.66v7.31Z" fill="#3a3d3f"/><path d="M88.86,463.41c0-1.05.48-1.54,1.42-2.24a1.43,1.43,0,0,1-.51-1.24,5.78,5.78,0,0,1,.62-1.42c-.76-.34-1.43-1.06-1.43-2.72,0-2.22,1.37-3.08,3.37-3.08a9.43,9.43,0,0,1,1.87.23l2.67-.07V454l-1.71,0a2.34,2.34,0,0,1,.59,1.8c0,2.34-1.17,3-3.47,3a6.94,6.94,0,0,1-.89-.07,5.32,5.32,0,0,0-.32,1c0,.72.14.82,2.18.82,2.56,0,3.47.51,3.47,2.65s-1.45,2.86-4,2.86C89.88,466.12,88.86,465.49,88.86,463.41Zm2.34-1.7c-.76.56-1,.88-1,1.59,0,1.24.52,1.69,2.55,1.69,1.8,0,2.62-.49,2.62-1.67,0-1.37-.58-1.52-2.22-1.52C92.51,461.8,91.2,461.71,91.2,461.71Zm3.2-5.92c0-1.42-.56-2-2.07-2s-2,.56-2,2,.62,2,2,2S94.4,457.21,94.4,455.79Z" fill="#3a3d3f"/><path d="M104.26,454.06v4.3c0,2,.13,2.52,1.3,2.52.5,0,1.6-.1,1.6-.1l.09,1.11a15.44,15.44,0,0,1-1.83.2c-1.86,0-2.49-.7-2.49-3.29v-4.74h-1.28v-1.17h1.28v-2.75h1.33v2.75h2.87v1.17Z" fill="#3a3d3f"/><path d="M108.78,461.89V449h1.35v4.43a7.65,7.65,0,0,1,2.78-.68c2.46,0,3,1.22,3,4.43v4.75H114.6v-4.71c0-2.38-.27-3.26-1.93-3.26a7.41,7.41,0,0,0-2.54.54v7.43Z" fill="#3a3d3f"/><path d="M118.45,449.29h1.35v1.57h-1.35Zm0,3.6h1.35v9h-1.35Z" fill="#3a3d3f"/><path d="M128.37,454.2a30.35,30.35,0,0,0-3.15-.28c-1.12,0-2,.3-2,1.37,0,.84.44,1.08,2.34,1.4,2.26.38,3.1.83,3.1,2.57,0,2.11-1.33,2.81-3.49,2.81a25.65,25.65,0,0,1-3.17-.34l.07-1.17a29.5,29.5,0,0,0,3,.31c1.48,0,2.27-.33,2.27-1.55,0-.94-.47-1.17-2.43-1.48s-3-.7-3-2.5c0-2,1.61-2.63,3.24-2.63a23,23,0,0,1,3.26.34Z" fill="#3a3d3f"/><path d="M135.31,452.89l2.11,7.83h.67l2.18-7.83h1.38l-2.54,9h-2.7l-2.54-9Z" fill="#3a3d3f"/><path d="M150,460.72l0,1.07a32.2,32.2,0,0,1-3.51.28c-2.69,0-3.57-1.56-3.57-4.62,0-3.43,1.48-4.74,3.77-4.74s3.61,1.26,3.61,4.21l-.07,1h-5.94c0,1.93.6,2.93,2.36,2.93C148.06,460.88,150,460.72,150,460.72Zm-1-3.85c0-2.23-.68-3-2.26-3s-2.4.85-2.42,3Z" fill="#3a3d3f"/><path d="M152.47,461.89V449h1.35v4.43a7.64,7.64,0,0,1,2.77-.68c2.47,0,3,1.22,3,4.43v4.75h-1.35v-4.71c0-2.38-.27-3.26-1.92-3.26a7.41,7.41,0,0,0-2.54.54v7.43Z" fill="#3a3d3f"/><path d="M162.13,449.29h1.35v1.57h-1.35Zm0,3.6h1.35v9h-1.35Z" fill="#3a3d3f"/><path d="M171.89,453l0,1.1s-1.44-.16-2.13-.16c-2.07,0-2.63.9-2.63,3.31,0,2.66.42,3.64,2.65,3.64.68,0,2.13-.17,2.13-.17l0,1.12a24,24,0,0,1-2.5.25c-2.87,0-3.71-1.31-3.71-4.84,0-3.26,1.06-4.52,3.74-4.52A20.89,20.89,0,0,1,171.89,453Z" fill="#3a3d3f"/><path d="M174,449h1.35v12.93H174Z" fill="#3a3d3f"/><path d="M184.73,460.72l0,1.07a32.2,32.2,0,0,1-3.51.28c-2.68,0-3.56-1.56-3.56-4.62,0-3.43,1.47-4.74,3.76-4.74s3.62,1.26,3.62,4.21l-.07,1h-5.95c0,1.93.6,2.93,2.36,2.93C182.76,460.88,184.73,460.72,184.73,460.72Zm-1-3.85c0-2.23-.69-3-2.27-3s-2.4.85-2.41,3Z" fill="#3a3d3f"/><path d="M198,461.89h-1.33v-.61a6.42,6.42,0,0,1-2.73.79c-1.77,0-3.24-.72-3.24-4.61,0-3.17,1-4.75,3.76-4.75a15.79,15.79,0,0,1,2.21.23v-4H198Zm-1.33-1.69v-6.1a14.27,14.27,0,0,0-2.14-.22c-1.89,0-2.45,1.24-2.45,3.58,0,2.92,1,3.41,2,3.41A6.47,6.47,0,0,0,196.71,460.2Z" fill="#3a3d3f"/><path d="M208,457.28c0,3.28-.81,4.79-3.85,4.79s-3.85-1.51-3.85-4.79c0-3.09,1-4.57,3.85-4.57S208,454.19,208,457.28Zm-1.38,0c0-2.5-.54-3.4-2.47-3.4s-2.47.9-2.47,3.4.35,3.62,2.47,3.62S206.58,459.84,206.58,457.28Z" fill="#3a3d3f"/><path d="M216.8,460.72l0,1.07a32.47,32.47,0,0,1-3.51.28c-2.69,0-3.57-1.56-3.57-4.62,0-3.43,1.48-4.74,3.76-4.74s3.62,1.26,3.62,4.21l-.07,1h-5.94c0,1.93.59,2.93,2.36,2.93C214.84,460.88,216.8,460.72,216.8,460.72Zm-1-3.85c0-2.23-.68-3-2.27-3s-2.39.85-2.41,3Z" fill="#3a3d3f"/><path d="M225.22,454.2a30,30,0,0,0-3.15-.28c-1.11,0-2,.3-2,1.37,0,.84.43,1.08,2.34,1.4,2.25.38,3.1.83,3.1,2.57,0,2.11-1.33,2.81-3.49,2.81a25.4,25.4,0,0,1-3.17-.34l.07-1.17a29.5,29.5,0,0,0,3,.31c1.48,0,2.27-.33,2.27-1.55,0-.94-.47-1.17-2.43-1.48s-3-.7-3-2.5c0-2,1.6-2.63,3.24-2.63a23.19,23.19,0,0,1,3.26.34Z" fill="#3a3d3f"/><path d="M231.58,461.89v-9h1.33v.63a6.85,6.85,0,0,1,2.79-.81c2.48,0,3,1.22,3,4.43v4.75h-1.33v-4.71c0-2.38-.27-3.26-1.94-3.26a6.19,6.19,0,0,0-2.54.66v7.31Z" fill="#3a3d3f"/><path d="M248.55,457.28c0,3.28-.81,4.79-3.85,4.79s-3.85-1.51-3.85-4.79c0-3.09,1-4.57,3.85-4.57S248.55,454.19,248.55,457.28Zm-1.38,0c0-2.5-.54-3.4-2.47-3.4s-2.47.9-2.47,3.4.35,3.62,2.47,3.62S247.17,459.84,247.17,457.28Z" fill="#3a3d3f"/><path d="M252.55,454.06v4.3c0,2,.12,2.52,1.29,2.52.51,0,1.61-.1,1.61-.1l.09,1.11a15.71,15.71,0,0,1-1.84.2c-1.86,0-2.49-.7-2.49-3.29v-4.74h-1.27v-1.17h1.27v-2.75h1.34v2.75h2.86v1.17Z" fill="#3a3d3f"/><path d="M266.84,453l0,1.1s-1.44-.16-2.13-.16c-2.07,0-2.63.9-2.63,3.31,0,2.66.42,3.64,2.65,3.64.68,0,2.12-.17,2.12-.17l.06,1.12a24.28,24.28,0,0,1-2.5.25c-2.87,0-3.71-1.31-3.71-4.84,0-3.26,1.06-4.52,3.74-4.52A20.89,20.89,0,0,1,266.84,453Z" fill="#3a3d3f"/><path d="M276.18,457.28c0,3.28-.81,4.79-3.85,4.79s-3.85-1.51-3.85-4.79c0-3.09,1-4.57,3.85-4.57S276.18,454.19,276.18,457.28Zm-1.38,0c0-2.5-.54-3.4-2.47-3.4s-2.47.9-2.47,3.4.34,3.62,2.47,3.62S274.8,459.84,274.8,457.28Z" fill="#3a3d3f"/><path d="M278.38,461.89v-9h1.33v.63a6,6,0,0,1,2.63-.81,2.54,2.54,0,0,1,2.34.92,7.46,7.46,0,0,1,3.2-.92c2.45,0,3.05,1.17,3.05,4.43v4.75h-1.35v-4.71c0-2.38-.27-3.26-1.89-3.26a6,6,0,0,0-2.54.66,10.4,10.4,0,0,1,.23,2.63v4.68H284v-4.64c0-2.49-.25-3.33-1.89-3.33a5.39,5.39,0,0,0-2.41.66v7.31Z" fill="#3a3d3f"/><path d="M293.42,452.89h1.34v.65a6.07,6.07,0,0,1,2.7-.83c2.27,0,3.26,1.39,3.26,4.57,0,3.53-1.16,4.79-3.93,4.79a11.25,11.25,0,0,1-2-.2v4h-1.35Zm1.35,1.75v6.06a13.12,13.12,0,0,0,2,.2c2,0,2.63-1,2.63-3.62s-.78-3.36-2.09-3.36A5.93,5.93,0,0,0,294.77,454.64Z" fill="#3a3d3f"/><path d="M302.91,452.89h1.33v1.22a10.17,10.17,0,0,1,3.3-1.42v1.37a13,13,0,0,0-3.28,1.23v6.6h-1.35Z" fill="#3a3d3f"/><path d="M316.45,457.28c0,3.28-.81,4.79-3.85,4.79s-3.86-1.51-3.86-4.79c0-3.09,1-4.57,3.86-4.57S316.45,454.19,316.45,457.28Zm-1.39,0c0-2.5-.54-3.4-2.46-3.4s-2.47.9-2.47,3.4.34,3.62,2.47,3.62S315.06,459.84,315.06,457.28Z" fill="#3a3d3f"/><path d="M318.64,461.89v-9H320v.63a6.1,6.1,0,0,1,2.63-.81,2.52,2.52,0,0,1,2.34.92,7.53,7.53,0,0,1,3.21-.92c2.45,0,3,1.17,3,4.43v4.75h-1.35v-4.71c0-2.38-.27-3.26-1.89-3.26a6,6,0,0,0-2.54.66,10.29,10.29,0,0,1,.24,2.63v4.68H324.3v-4.64c0-2.49-.26-3.33-1.89-3.33a5.46,5.46,0,0,0-2.42.66v7.31Z" fill="#3a3d3f"/><path d="M333.69,449.29H335v1.57h-1.35Zm0,3.6H335v9h-1.35Z" fill="#3a3d3f"/><path d="M343.61,454.2a30.35,30.35,0,0,0-3.15-.28c-1.12,0-2,.3-2,1.37,0,.84.43,1.08,2.34,1.4,2.25.38,3.09.83,3.09,2.57,0,2.11-1.33,2.81-3.49,2.81a25.65,25.65,0,0,1-3.17-.34l.07-1.17a29.8,29.8,0,0,0,3,.31c1.47,0,2.26-.33,2.26-1.55,0-.94-.46-1.17-2.43-1.48s-3-.7-3-2.5c0-2,1.6-2.63,3.24-2.63a23.19,23.19,0,0,1,3.26.34Z" fill="#3a3d3f"/><path d="M352.65,460.72l0,1.07a32.2,32.2,0,0,1-3.51.28c-2.68,0-3.56-1.56-3.56-4.62,0-3.43,1.47-4.74,3.76-4.74S353,454,353,456.92l-.07,1H347c0,1.93.6,2.93,2.36,2.93C350.68,460.88,352.65,460.72,352.65,460.72Zm-1-3.85c0-2.23-.69-3-2.27-3s-2.4.85-2.41,3Z" fill="#3a3d3f"/><path d="M359.05,449.29h1.35v1.57h-1.35Zm0,3.6h1.35v9h-1.35Z" fill="#3a3d3f"/><path d="M364.79,454.06v4.3c0,2,.13,2.52,1.3,2.52.5,0,1.6-.1,1.6-.1l.09,1.11a15.44,15.44,0,0,1-1.83.2c-1.86,0-2.49-.7-2.49-3.29v-4.74h-1.28v-1.17h1.28v-2.75h1.33v2.75h2.87v1.17Z" fill="#3a3d3f"/><path d="M375.29,454.2a30.35,30.35,0,0,0-3.15-.28c-1.12,0-2,.3-2,1.37,0,.84.43,1.08,2.34,1.4,2.25.38,3.09.83,3.09,2.57,0,2.11-1.33,2.81-3.49,2.81a25.65,25.65,0,0,1-3.17-.34l.07-1.17a29.8,29.8,0,0,0,3,.31c1.47,0,2.26-.33,2.26-1.55,0-.94-.47-1.17-2.43-1.48s-3-.7-3-2.5c0-2,1.6-2.63,3.24-2.63a23.19,23.19,0,0,1,3.26.34Z" fill="#3a3d3f"/><path d="M381.64,452.89H383v1.22a10.17,10.17,0,0,1,3.3-1.42v1.37a13,13,0,0,0-3.28,1.23v6.6h-1.35Z" fill="#3a3d3f"/><path d="M394.51,460.72l0,1.07a32.2,32.2,0,0,1-3.51.28c-2.68,0-3.57-1.56-3.57-4.62,0-3.43,1.48-4.74,3.77-4.74s3.62,1.26,3.62,4.21l-.08,1h-5.94c0,1.93.6,2.93,2.36,2.93C392.55,460.88,394.51,460.72,394.51,460.72Zm-1-3.85c0-2.23-.68-3-2.26-3s-2.4.85-2.42,3Z" fill="#3a3d3f"/><path d="M396.56,463.41c0-1.05.49-1.54,1.43-2.24a1.43,1.43,0,0,1-.51-1.24,5.82,5.82,0,0,1,.61-1.42c-.75-.34-1.42-1.06-1.42-2.72,0-2.22,1.37-3.08,3.37-3.08a9.43,9.43,0,0,1,1.87.23l2.67-.07V454l-1.71,0a2.34,2.34,0,0,1,.59,1.8c0,2.34-1.17,3-3.48,3a6.79,6.79,0,0,1-.88-.07,5.32,5.32,0,0,0-.32,1c0,.72.14.82,2.18.82,2.55,0,3.47.51,3.47,2.65s-1.46,2.86-4,2.86C397.59,466.12,396.56,465.49,396.56,463.41Zm2.34-1.7c-.75.56-1,.88-1,1.59,0,1.24.52,1.69,2.55,1.69,1.8,0,2.61-.49,2.61-1.67,0-1.37-.57-1.52-2.21-1.52C400.22,461.8,398.9,461.71,398.9,461.71Zm3.21-5.92c0-1.42-.56-2-2.07-2s-2,.56-2,2,.61,2,2,2S402.11,457.21,402.11,455.79Z" fill="#3a3d3f"/><path d="M413.18,452.89v9h-1.35v-.63a6.08,6.08,0,0,1-2.67.81c-2.52,0-3-1.17-3-4.48v-4.7h1.35v4.68c0,2.49.22,3.3,1.89,3.3a5.47,5.47,0,0,0,2.47-.67v-7.31Z" fill="#3a3d3f"/><path d="M415.88,449h1.35v12.93h-1.35Z" fill="#3a3d3f"/><path d="M426.28,460.22c0,.52.47.72,1.05.79l-.06,1.06a2.75,2.75,0,0,1-2.14-.72,9.2,9.2,0,0,1-3.24.72c-1.64,0-2.54-.93-2.54-2.75s.9-2.49,2.76-2.67l2.82-.27v-.77c0-1.26-.54-1.71-1.62-1.71-1.26,0-3.4.23-3.4.23l-.05-1a21.57,21.57,0,0,1,3.52-.4c2,0,2.9.94,2.9,2.9Zm-4-2.56c-1.1.11-1.53.63-1.53,1.62s.45,1.66,1.37,1.66a9.47,9.47,0,0,0,2.82-.56v-3Z" fill="#3a3d3f"/><path d="M429,452.89h1.33v1.22a10.06,10.06,0,0,1,3.29-1.42v1.37a13,13,0,0,0-3.28,1.23v6.6H429Z" fill="#3a3d3f"/><path d="M439.13,461.89v-9h1.33v.63a6.1,6.1,0,0,1,2.63-.81,2.52,2.52,0,0,1,2.34.92,7.53,7.53,0,0,1,3.21-.92c2.45,0,3,1.17,3,4.43v4.75h-1.35v-4.71c0-2.38-.27-3.26-1.89-3.26a6,6,0,0,0-2.54.66,10.29,10.29,0,0,1,.24,2.63v4.68h-1.35v-4.64c0-2.49-.26-3.33-1.89-3.33a5.46,5.46,0,0,0-2.42.66v7.31Z" fill="#3a3d3f"/><path d="M460.54,460.22c0,.52.46.72,1,.79l-.05,1.06a2.76,2.76,0,0,1-2.15-.72,9.2,9.2,0,0,1-3.24.72c-1.64,0-2.54-.93-2.54-2.75s.9-2.49,2.76-2.67l2.83-.27v-.77c0-1.26-.54-1.71-1.62-1.71-1.27,0-3.41.23-3.41.23l-.05-1a21.6,21.6,0,0,1,3.53-.4c2,0,2.9.94,2.9,2.9Zm-4-2.56c-1.1.11-1.53.63-1.53,1.62s.45,1.66,1.37,1.66a9.57,9.57,0,0,0,2.83-.56v-3Z" fill="#3a3d3f"/><path d="M463.2,449.29h1.35v1.57H463.2Zm0,3.6h1.35v9H463.2Z" fill="#3a3d3f"/><path d="M467.14,461.89v-9h1.33v.63a6.85,6.85,0,0,1,2.79-.81c2.49,0,3.05,1.22,3.05,4.43v4.75H473v-4.71c0-2.38-.27-3.26-1.94-3.26a6.19,6.19,0,0,0-2.54.66v7.31Z" fill="#3a3d3f"/><path d="M478.61,454.06v4.3c0,2,.12,2.52,1.29,2.52.51,0,1.61-.1,1.61-.1l.09,1.11a15.71,15.71,0,0,1-1.84.2c-1.86,0-2.49-.7-2.49-3.29v-4.74H476v-1.17h1.27v-2.75h1.34v2.75h2.86v1.17Z" fill="#3a3d3f"/><path d="M489.77,460.72l0,1.07a32.2,32.2,0,0,1-3.51.28c-2.68,0-3.56-1.56-3.56-4.62,0-3.43,1.47-4.74,3.76-4.74s3.62,1.26,3.62,4.21l-.07,1H484.1c0,1.93.59,2.93,2.35,2.93C487.81,460.88,489.77,460.72,489.77,460.72Zm-1-3.85c0-2.23-.68-3-2.27-3s-2.39.85-2.41,3Z" fill="#3a3d3f"/><path d="M492.21,461.89v-9h1.34v.63a6.79,6.79,0,0,1,2.79-.81c2.48,0,3,1.22,3,4.43v4.75h-1.33v-4.71c0-2.38-.27-3.26-1.95-3.26a6.25,6.25,0,0,0-2.54.66v7.31Z" fill="#3a3d3f"/><path d="M508.24,460.22c0,.52.46.72,1,.79l0,1.06a2.76,2.76,0,0,1-2.15-.72,9.2,9.2,0,0,1-3.24.72c-1.64,0-2.54-.93-2.54-2.75s.9-2.49,2.76-2.67l2.83-.27v-.77c0-1.26-.54-1.71-1.62-1.71-1.27,0-3.41.23-3.41.23l-.05-1a21.6,21.6,0,0,1,3.53-.4c2,0,2.9.94,2.9,2.9Zm-4-2.56c-1.1.11-1.53.63-1.53,1.62s.45,1.66,1.37,1.66a9.57,9.57,0,0,0,2.83-.56v-3Z" fill="#3a3d3f"/><path d="M510.9,461.89v-9h1.33v.63a6.85,6.85,0,0,1,2.79-.81c2.49,0,3,1.22,3,4.43v4.75h-1.33v-4.71c0-2.38-.27-3.26-1.94-3.26a6.19,6.19,0,0,0-2.54.66v7.31Z" fill="#3a3d3f"/><path d="M526.38,453l0,1.1s-1.45-.16-2.13-.16c-2.07,0-2.63.9-2.63,3.31,0,2.66.42,3.64,2.65,3.64.68,0,2.12-.17,2.12-.17l.06,1.12a24.24,24.24,0,0,1-2.51.25c-2.86,0-3.7-1.31-3.7-4.84,0-3.26,1.06-4.52,3.74-4.52A20.89,20.89,0,0,1,526.38,453Z" fill="#3a3d3f"/><path d="M535.06,460.72l0,1.07a32.2,32.2,0,0,1-3.51.28c-2.68,0-3.56-1.56-3.56-4.62,0-3.43,1.47-4.74,3.76-4.74s3.62,1.26,3.62,4.21l-.07,1h-6c0,1.93.6,2.93,2.36,2.93C533.09,460.88,535.06,460.72,535.06,460.72Zm-1-3.85c0-2.23-.69-3-2.27-3s-2.4.85-2.41,3Z" fill="#3a3d3f"/><path d="M537.41,459.84h1.48v2.05h-1.48Z" fill="#3a3d3f"/><line x1="29" y1="55.55" x2="550.56" y2="55.55" fill="none" stroke="#ddd" stroke-miterlimit="10"/><path d="M60.79,230H56.62v-.78l2.45-6.14h1.1l-2.49,6h3.11v-2.68h1v2.68h1.1V230h-1.1v1.68h-1Z" fill="#4c4c4c"/><path d="M40,216.63c0,3.62-1.27,4.73-3.44,4.73s-3.45-1.08-3.45-4.72c0-3.9,1.26-5,3.44-5S40,212.73,40,216.63Zm-5.74,0c0,3,.81,3.74,2.3,3.74s2.31-.79,2.31-3.75c0-3.18-.73-4-2.31-4S34.27,213.42,34.27,216.64Z" fill="#4c4c4c"/><path d="M33.55,192.55v-.93l2.76-2.91c1.18-1.22,1.91-2,1.91-3.11s-.7-1.66-2.06-1.66a13.91,13.91,0,0,0-2.45.31l-.09-.91a11.38,11.38,0,0,1,2.74-.39c2,0,3,.76,3,2.54,0,1.42-.64,2.25-2,3.54l-2.52,2.56H39.6v1Z" fill="#4c4c4c"/><path d="M37.72,161H33.13v-.85l2.7-6.75H37l-2.74,6.63h3.43v-3h1.1v3H40v1H38.82v1.85h-1.1Z" fill="#4c4c4c"/><path d="M39.47,124.74a22.19,22.19,0,0,0-2.5-.17c-1.64,0-2.55,1.17-2.55,3.27a7.92,7.92,0,0,1,2.37-.56c2.09,0,3.18.94,3.18,2.93s-1.2,3.13-3.31,3.13c-2.35,0-3.38-1.85-3.38-4.92,0-3.42,1.44-4.83,3.69-4.83a17.32,17.32,0,0,1,2.6.25Zm-5.06,4.07c0,2,.62,3.55,2.25,3.55a1.94,1.94,0,0,0,2.16-2.15c0-1.31-.79-1.94-2.1-1.94A6.62,6.62,0,0,0,34.41,128.81Z" fill="#4c4c4c"/><path d="M133.56,225.2a1.91,1.91,0,0,1-1.43,2,2.15,2.15,0,0,1,1.56,2.16c0,1.89-1.45,2.46-3.24,2.46s-3.2-.53-3.2-2.32a2.28,2.28,0,0,1,1.49-2.3,2,2,0,0,1-1.35-2c0-1.48,1.19-2.22,3.06-2.22S133.56,223.69,133.56,225.2Zm-.93,4.06c0-1-.67-1.33-1.53-1.58h-1.36c-.9.25-1.42.69-1.42,1.65,0,1.19.91,1.58,2.13,1.58S132.63,230.52,132.63,229.26Zm-4.17-4c0,.79.43,1.21,1.28,1.51h1.36c.89-.29,1.4-.7,1.4-1.5,0-1-.77-1.44-2-1.44S128.46,224.27,128.46,225.3Z" fill="#4c4c4c"/><path d="M201.69,223.1h.94v8.59h-1v-7.47l-2.22,1.46-.45-.76Z" fill="#4c4c4c"/><path d="M205.75,231.69v-.85l2.51-2.64c1.07-1.1,1.74-1.81,1.74-2.82s-.64-1.51-1.88-1.51a12.85,12.85,0,0,0-2.23.28l-.07-.83a10.37,10.37,0,0,1,2.48-.35c1.81,0,2.72.69,2.72,2.3,0,1.29-.58,2-1.79,3.22l-2.29,2.33h4.3v.87Z" fill="#4c4c4c"/><path d="M280.45,223.1h.93v8.59h-1v-7.47l-2.21,1.46-.46-.76Z" fill="#4c4c4c"/><path d="M289.88,224a19.37,19.37,0,0,0-2.26-.16c-1.5,0-2.32,1.07-2.32,3a7.48,7.48,0,0,1,2.15-.51c1.9,0,2.89.86,2.89,2.67s-1.1,2.84-3,2.84c-2.13,0-3.07-1.68-3.07-4.46,0-3.11,1.31-4.39,3.36-4.39a16.13,16.13,0,0,1,2.35.22Zm-4.59,3.7c0,1.83.56,3.23,2,3.23a1.77,1.77,0,0,0,2-2c0-1.19-.72-1.77-1.92-1.77A5.91,5.91,0,0,0,285.29,227.71Z" fill="#4c4c4c"/><path d="M356,231.69v-.85l2.51-2.64c1.07-1.1,1.73-1.81,1.73-2.82s-.63-1.51-1.87-1.51a12.67,12.67,0,0,0-2.22.28l-.08-.83a10.37,10.37,0,0,1,2.48-.35c1.81,0,2.72.69,2.72,2.3,0,1.29-.58,2-1.79,3.22l-2.29,2.33h4.3v.87Z" fill="#4c4c4c"/><path d="M369.13,227.53c0,3.29-1.16,4.29-3.12,4.29s-3.14-1-3.14-4.28C362.87,224,364,223,366,223S369.13,224,369.13,227.53Zm-5.22,0c0,2.69.74,3.4,2.1,3.4s2.09-.72,2.09-3.41c0-2.89-.66-3.68-2.09-3.68S363.91,224.61,363.91,227.54Z" fill="#4c4c4c"/><path d="M468.21,231.69v-.85l2.52-2.64c1.06-1.1,1.73-1.81,1.73-2.82s-.64-1.51-1.88-1.51a12.67,12.67,0,0,0-2.22.28l-.08-.83a10.5,10.5,0,0,1,2.49-.35c1.8,0,2.72.69,2.72,2.3,0,1.29-.59,2-1.8,3.22l-2.29,2.33h4.31v.87Z" fill="#4c4c4c"/><path d="M479.29,230h-4.17v-.78l2.45-6.13h1.1l-2.49,6h3.11v-2.68h1v2.68h1.1V230h-1.1v1.68h-1Z" fill="#4c4c4c"/><line x1="53.37" y1="117.67" x2="53.37" y2="224.63" fill="none" stroke="#adadad" stroke-miterlimit="10"/><line x1="483.37" y1="216.45" x2="43.64" y2="216.45" fill="none" stroke="#adadad" stroke-miterlimit="10"/><g style="isolation:isolate"><rect x="92.09" y="139.76" width="12.91" height="75.95" fill="#76ce89"/><g clip-path="url(#clip-path)"><polygon points="92.31 215.71 92.09 139.81 104.77 139.76 105 215.65 92.31 215.71" fill="#76ce89"/></g></g><g style="isolation:isolate"><rect x="109.28" y="139.76" width="12.91" height="75.95" fill="#76ce89"/><g clip-path="url(#clip-path-2)"><polygon points="109.5 215.71 109.28 139.81 121.96 139.76 122.19 215.65 109.5 215.71" fill="#76ce89"/></g></g><g style="isolation:isolate"><rect x="126.47" y="146.4" width="12.89" height="69.31" fill="#76ce89"/><g clip-path="url(#clip-path-3)"><polygon points="126.67 215.71 126.47 146.45 139.15 146.39 139.36 215.65 126.67 215.71" fill="#76ce89"/></g></g><g style="isolation:isolate"><rect x="143.64" y="146.41" width="12.89" height="69.3" fill="#76ce89"/><g clip-path="url(#clip-path-4)"><polygon points="143.85 215.71 143.64 146.46 156.32 146.4 156.53 215.65 143.85 215.71" fill="#76ce89"/></g></g><g style="isolation:isolate"><rect x="160.81" y="160.23" width="12.88" height="55.48" fill="#76ce89"/><g clip-path="url(#clip-path-5)"><rect x="160.91" y="160.25" width="12.69" height="55.43" transform="translate(-0.65 0.58) rotate(-0.2)" fill="#76ce89"/></g></g><rect x="177.97" y="172.26" width="12.87" height="43.45" fill="#ffda00"/><g clip-path="url(#clip-path-6)"><rect x="178.06" y="172.28" width="12.68" height="43.41" transform="translate(-0.8 0.77) rotate(-0.24)" fill="#ffda00"/></g><rect x="195.11" y="180.69" width="12.87" height="35.02" fill="#ffda00"/><g clip-path="url(#clip-path-7)"><polygon points="195.3 215.71 195.12 180.72 207.8 180.68 207.98 215.68 195.3 215.71" fill="#ffda00"/></g><rect x="212.26" y="150.82" width="12.82" height="64.89" fill="#76ce89"/><g clip-path="url(#clip-path-8)"><polygon points="212.4 215.71 212.26 150.89 224.94 150.81 225.08 215.63 212.4 215.71" fill="#76ce89"/></g><rect x="229.36" y="155.26" width="12.8" height="60.45" fill="#76ce89"/><g clip-path="url(#clip-path-9)"><polygon points="229.48 215.71 229.36 155.33 242.04 155.25 242.16 215.62 229.48 215.71" fill="#76ce89"/></g><rect x="246.44" y="155.66" width="12.79" height="60.05" fill="#76ce89"/><g clip-path="url(#clip-path-10)"><polygon points="246.55 215.71 246.44 155.76 259.13 155.66 259.23 215.61 246.55 215.71" fill="#76ce89"/></g><g style="isolation:isolate"><rect x="263.52" y="157.46" width="12.88" height="58.25" fill="#76ce89"/><g clip-path="url(#clip-path-11)"><rect x="263.61" y="157.48" width="12.69" height="58.21" transform="translate(-0.62 0.9) rotate(-0.19)" fill="#76ce89"/></g></g><g style="isolation:isolate"><rect x="280.67" y="157.46" width="12.87" height="58.25" fill="#76ce89"/><g clip-path="url(#clip-path-12)"><polygon points="280.85 215.71 280.67 157.51 293.35 157.45 293.53 215.65 280.85 215.71" fill="#76ce89"/></g></g><g style="isolation:isolate"><rect x="297.82" y="162.87" width="12.86" height="52.83" fill="#76ce89"/><g clip-path="url(#clip-path-13)"><rect x="297.9" y="162.89" width="12.69" height="52.79" transform="translate(-0.64 1.04) rotate(-0.2)" fill="#76ce89"/></g></g><g style="isolation:isolate"><rect x="314.95" y="165.35" width="12.86" height="50.35" fill="#76ce89"/><g clip-path="url(#clip-path-14)"><rect x="315.04" y="165.38" width="12.69" height="50.3" transform="translate(-0.66 1.11) rotate(-0.2)" fill="#76ce89"/></g></g><g style="isolation:isolate"><rect x="332.09" y="166.32" width="12.86" height="49.39" fill="#76ce89"/><g clip-path="url(#clip-path-15)"><rect x="332.17" y="166.34" width="12.69" height="49.34" transform="translate(-0.67 1.2) rotate(-0.2)" fill="#76ce89"/></g></g><g style="isolation:isolate"><rect x="349.23" y="168.4" width="12.83" height="47.3" fill="#76ce89"/><g clip-path="url(#clip-path-16)"><polygon points="349.37 215.71 349.23 168.45 361.91 168.4 362.06 215.65 349.37 215.71" fill="#76ce89"/></g></g><g style="isolation:isolate"><rect x="366.34" y="168.4" width="12.83" height="47.3" fill="#76ce89"/><g clip-path="url(#clip-path-17)"><polygon points="366.48 215.71 366.33 168.45 379.02 168.4 379.17 215.65 366.48 215.71" fill="#76ce89"/></g></g><g style="isolation:isolate"><rect x="383.45" y="168.4" width="12.83" height="47.3" fill="#76ce89"/><g clip-path="url(#clip-path-18)"><polygon points="383.59 215.71 383.44 168.45 396.13 168.4 396.27 215.65 383.59 215.71" fill="#76ce89"/></g></g><g style="isolation:isolate"><rect x="400.56" y="170.74" width="12.83" height="44.97" fill="#76ce89"/><g clip-path="url(#clip-path-19)"><rect x="400.63" y="170.76" width="12.69" height="44.92" transform="translate(-0.63 1.34) rotate(-0.19)" fill="#76ce89"/></g></g><g style="isolation:isolate"><rect x="417.67" y="170.74" width="12.82" height="44.97" fill="#76ce89"/><g clip-path="url(#clip-path-20)"><polygon points="417.8 215.71 417.67 170.8 430.35 170.74 430.49 215.65 417.8 215.71" fill="#76ce89"/></g></g><g style="isolation:isolate"><rect x="434.77" y="170.74" width="12.81" height="44.97" fill="#76ce89"/><g clip-path="url(#clip-path-21)"><polygon points="434.9 215.71 434.76 170.79 447.45 170.74 447.58 215.65 434.9 215.71" fill="#76ce89"/></g></g><g style="isolation:isolate"><rect x="451.86" y="175.17" width="12.8" height="40.54" fill="#76ce89"/><g clip-path="url(#clip-path-22)"><polygon points="451.98 215.71 451.85 175.22 464.54 175.16 464.66 215.65 451.98 215.71" fill="#76ce89"/></g></g><g style="isolation:isolate"><g clip-path="url(#clip-path-23)"><polygon points="469.05 215.71 468.94 180.74 481.63 180.68 481.73 215.65 469.05 215.71" fill="#ffda00"/></g></g><g style="isolation:isolate"><rect x="74.88" y="134.23" width="12.93" height="81.53" fill="#76ce89"/><g clip-path="url(#clip-path-24)"><polygon points="75.12 215.76 74.88 134.29 87.56 134.23 87.81 215.71 75.12 215.76" fill="#76ce89"/></g></g><g style="isolation:isolate"><rect x="57.65" y="128.7" width="12.95" height="87.12" fill="#76ce89"/><g clip-path="url(#clip-path-25)"><polygon points="57.91 215.82 57.65 128.75 70.33 128.7 70.59 215.76 57.91 215.82" fill="#76ce89"/></g></g></g></g></svg>