<svg xmlns="http://www.w3.org/2000/svg" viewBox="0 0 579.59 494.27"><title>r_0_0_Tablet</title><g id="Layer_2" data-name="Layer 2"><g id="Layer_2-2" data-name="Layer 2"><rect width="579.59" height="494.27" fill="#f7f7f7"/><path d="M26.58,48.91c0-4.56,1.18-7.19,5.46-7.19s5.48,2.59,5.48,7.19C37.52,53.67,36.34,56,32,56S26.58,53.55,26.58,48.91Zm9.34,0c0-3.74-.72-5.82-3.88-5.82s-3.88,2.06-3.88,5.82.68,5.7,3.88,5.7S35.92,52.81,35.92,48.91Z"/><path d="M49.8,41.92,46.18,55.77H42.74L39.12,41.92h1.6L43.9,54.41H45L48.2,41.92Z"/><path d="M52,41.92H60.4v1.36H53.52v4.79H59.2v1.34H53.52v5H60.4v1.36H52Z"/><path d="M64.57,50.47v5.3H63V41.92h5.13c2.9,0,4.42,1.29,4.42,4.21,0,2-.8,3.46-2.54,4l2.66,5.62H71l-2.5-5.3Zm3.59-7.19H64.57v5.83h3.61c2.08,0,2.82-1.24,2.82-3C71,44.23,70.1,43.28,68.16,43.28Z"/><path d="M84.82,41.92,81.2,55.77H77.76L74.14,41.92h1.6l3.18,12.49H80l3.18-12.49Z"/><path d="M87,41.92h1.54V55.77H87Z"/><path d="M91.91,41.92h8.43v1.36H93.45v4.79h5.69v1.34H93.45v5h6.89v1.36H91.91Z"/><path d="M103.47,41.92l2.36,12.49h.58L109.24,42H111l2.82,12.37h.58l2.36-12.49h1.58l-2.8,13.85h-2.82l-2.62-11.83-2.62,11.83H104.7l-2.83-13.85Z"/><path d="M27.64,348,30,360.44h.58l2.82-12.36h1.8L38,360.44h.58L41,348h1.58l-2.8,13.84H36.92L34.3,350,31.68,361.8H28.86L26,348Z"/><path d="M53.44,355.54h-7v6.26H44.86V348H46.4v6.2h7V348H55V361.8H53.44Z"/><path d="M62.82,361.8H61.28V356l-4.43-8h1.74L62,354.44,65.48,348h1.74l-4.4,8Z"/><path d="M73.51,348h1.54V361.8H73.51Z"/><path d="M86.2,349.44s-2.78-.34-3.94-.34c-2,0-3,.7-3,2.26,0,1.8,1,2.1,3.39,2.64,2.76.62,4,1.3,4,3.72,0,3.06-1.68,4.26-4.43,4.26a36.39,36.39,0,0,1-4.38-.44l.16-1.28s2.72.36,4.14.36c2,0,3-.86,3-2.78,0-1.56-.82-2-3.09-2.44-2.86-.62-4.3-1.3-4.3-3.94s1.76-3.72,4.46-3.72a34.47,34.47,0,0,1,4.19.4Z"/><path d="M92.23,348h10v1.38H98V361.8H96.49V349.34H92.23Z"/><path d="M112.77,355.54h-7v6.26h-1.54V348h1.54v6.2h7V348h1.53V361.8h-1.53Z"/><path d="M117.69,348h1.54V361.8h-1.54Z"/><path d="M130.37,349.44s-2.78-.34-3.94-.34c-2,0-3,.7-3,2.26,0,1.8,1,2.1,3.38,2.64,2.76.62,4,1.3,4,3.72,0,3.06-1.68,4.26-4.42,4.26a36.39,36.39,0,0,1-4.38-.44l.16-1.28s2.72.36,4.14.36c2,0,3-.86,3-2.78,0-1.56-.82-2-3.08-2.44-2.86-.62-4.3-1.3-4.3-3.94s1.76-3.72,4.46-3.72a34.46,34.46,0,0,1,4.18.4Z"/><path d="M139.39,356.5v5.3h-1.54V348H143c2.9,0,4.42,1.28,4.42,4.2,0,2-.8,3.46-2.54,4l2.66,5.62h-1.7l-2.5-5.3Zm3.58-7.18h-3.58v5.82H143c2.08,0,2.82-1.24,2.82-3C145.81,350.26,144.91,349.32,143,349.32Z"/><path d="M150.17,348h8.42v1.36h-6.88v4.78h5.68v1.34h-5.68v5h6.88v1.36h-8.42Z"/><path d="M169.59,361.58a20.83,20.83,0,0,1-3.82.42c-4.14,0-5.06-2.52-5.06-7.08s.9-7.16,5.06-7.16a20.32,20.32,0,0,1,3.82.44l-.06,1.3a24.64,24.64,0,0,0-3.6-.36c-3.08,0-3.62,1.84-3.62,5.78s.5,5.7,3.66,5.7a21.88,21.88,0,0,0,3.56-.36Z"/><path d="M171.55,354.94c0-4.56,1.18-7.18,5.46-7.18s5.48,2.58,5.48,7.18c0,4.76-1.18,7.06-5.48,7.06S171.55,359.58,171.55,354.94Zm9.34,0c0-3.74-.72-5.82-3.88-5.82s-3.88,2.06-3.88,5.82.68,5.7,3.88,5.7S180.89,358.84,180.89,354.94Z"/><path d="M185.31,348h2.78l3.92,11.7,3.92-11.7h2.78V361.8h-1.54V349.6h-.28l-4,11.7h-1.72l-4-11.7h-.28v12.2h-1.54Z"/><path d="M202.11,348h2.78l3.92,11.7,3.92-11.7h2.78V361.8H214V349.6h-.28l-4,11.7H208l-4-11.7h-.28v12.2h-1.54Z"/><path d="M218.91,348h8.42v1.36h-6.88v4.78h5.68v1.34h-5.68v5h6.88v1.36h-8.42Z"/><path d="M230,348h2.88l5.3,12.48h.42V348h1.52V361.8h-2.82l-5.38-12.48h-.38V361.8H230Z"/><path d="M243.49,361.8V348h4.94c4,0,5.12,2.8,5.12,6.72s-1,7.12-5.12,7.12Zm4.94-12.48H245v11.12h3.4c2.88,0,3.54-2.76,3.54-5.76S251.31,349.32,248.43,349.32Z"/><path d="M256.39,348h8.42v1.36h-6.88v4.78h5.68v1.34h-5.68v5h6.88v1.36h-8.42Z"/><path d="M267.45,361.8V348h4.94c4,0,5.12,2.8,5.12,6.72s-1,7.12-5.12,7.12Zm4.94-12.48H269v11.12h3.4c2.88,0,3.54-2.76,3.54-5.76S275.27,349.32,272.39,349.32Z"/><path d="M284.91,354.58c-1.18,1-1.78,1.6-1.78,2.5v.7h-1.26a3.11,3.11,0,0,1-.26-1.22c0-1,.8-1.76,1.86-2.66,1.44-1.24,1.78-1.7,1.78-2.82,0-1.42-.86-2-2.66-2a18.55,18.55,0,0,0-3.1.46l-.1-1.22a15.14,15.14,0,0,1,3.34-.6c2.68,0,4,.88,4,3.2C286.77,352.68,286.47,353.28,284.91,354.58Zm-3.26,5h1.64v2.24h-1.64Z"/><path d="M36.89,153.91v-1.76l5.24-5.51c2.22-2.3,3.6-3.77,3.6-5.88,0-2.39-1.32-3.15-3.9-3.15a26,26,0,0,0-4.64.6L37,136.47a21.81,21.81,0,0,1,5.18-.73c3.77,0,5.67,1.44,5.67,4.8,0,2.68-1.22,4.26-3.75,6.7l-4.77,4.85h9v1.82Z" fill="#3a3d3f"/><path d="M111.93,146.18h5.12v-5.29H119v5.29h5.18V148H119v5.35h-1.9V148h-5.12Z" fill="#3a3d3f"/><path d="M134.22,136h1.95v17.9h-2.09V138.34l-4.61,3-.95-1.57Z" fill="#3a3d3f"/><path d="M150.57,150.41h-8.68v-1.63L147,136h2.27l-5.18,12.56h6.49V143h2.08v5.59h2.28v1.84h-2.28v3.5h-2.08Z" fill="#3a3d3f"/><path d="M170,140.38c0,2.3-.9,3.25-3,4.17,1.93.87,3.26,1.93,3.26,4.5,0,3.94-3,5.13-6.75,5.13s-6.67-1.11-6.67-4.83c0-2.79,1.24-3.79,3.09-4.8-1.87-.92-2.8-2-2.8-4.2,0-3.09,2.47-4.64,6.38-4.64S170,137.23,170,140.38Zm-2,8.46c0-2.09-1.38-2.77-3.17-3.28H162c-1.87.51-2.95,1.43-2.95,3.44,0,2.47,1.9,3.28,4.45,3.28S168.05,151.47,168.05,148.84Zm-8.67-8.25c0,1.66.89,2.53,2.65,3.15h2.85c1.84-.6,2.9-1.46,2.9-3.12,0-2.14-1.6-3-4.23-3S159.38,138.45,159.38,140.59Z" fill="#3a3d3f"/><path d="M241.58,136v1.9h-8.7l-.49,5.83a10.35,10.35,0,0,1,4.2-1.11c3.5,0,5.7,1.46,5.7,5.29,0,4.12-2.25,6.23-6,6.23a29.58,29.58,0,0,1-5.93-.78l.24-1.66a35.52,35.52,0,0,0,5.5.6c2.47,0,4-1.47,4-4.23s-1.51-3.58-3.79-3.58a10.28,10.28,0,0,0-4.26,1.08l-1.44-.27.49-9.3Z" fill="#3a3d3f"/><path d="M256.76,136v1.9h-8.7l-.49,5.83a10.36,10.36,0,0,1,4.21-1.11c3.49,0,5.69,1.46,5.69,5.29,0,4.12-2.25,6.23-6,6.23a29.74,29.74,0,0,1-5.94-.78l.24-1.66a35.55,35.55,0,0,0,5.51.6c2.46,0,4-1.47,4-4.23s-1.52-3.58-3.8-3.58a10.34,10.34,0,0,0-4.26,1.08l-1.43-.27.49-9.3Z" fill="#3a3d3f"/><path d="M265.74,139.48c0,2.63-1.17,3.83-3,3.83s-3-1.2-3-3.83,1.14-3.74,3-3.74S265.74,136.88,265.74,139.48Zm-3,2.44c1,0,1.35-.84,1.35-2.44s-.35-2.36-1.35-2.36-1.33.76-1.33,2.36S261.78,141.92,262.76,141.92Zm6-6.48,1.3.44-5.56,18.52-1.3-.38Zm4.66,14.92c0,2.6-1.17,3.82-3,3.82s-3-1.22-3-3.85,1.11-3.72,3-3.72S273.44,147.75,273.44,150.36Zm-3,2.44c1,0,1.35-.84,1.35-2.44s-.32-2.36-1.35-2.36-1.33.76-1.33,2.33S269.48,152.8,270.46,152.8Z" fill="#3a3d3f"/><path d="M25.67,385.42h9v1.25h-3.8v11.21H29.51V386.67H25.67Z" fill="#3a3d3f"/><path d="M43.51,393.28c0,3.27-.81,4.79-3.85,4.79s-3.86-1.52-3.86-4.79c0-3.1,1-4.58,3.86-4.58S43.51,390.18,43.51,393.28Zm-1.39,0c0-2.51-.54-3.41-2.46-3.41s-2.47.9-2.47,3.41.34,3.61,2.47,3.61S42.12,395.83,42.12,393.28Z" fill="#3a3d3f"/><path d="M52.62,397.88H51.29v-.61a6.44,6.44,0,0,1-2.74.8c-1.76,0-3.24-.73-3.24-4.61,0-3.17,1-4.76,3.76-4.76a14.13,14.13,0,0,1,2.22.24v-4h1.33Zm-1.33-1.69v-6.1a14.43,14.43,0,0,0-2.15-.22c-1.89,0-2.44,1.24-2.44,3.59,0,2.91.95,3.4,2,3.4A6.54,6.54,0,0,0,51.29,396.19Z" fill="#3a3d3f"/><path d="M61.58,396.21c0,.52.47.72,1.05.79l-.06,1.07a2.76,2.76,0,0,1-2.14-.73,9.1,9.1,0,0,1-3.24.73c-1.64,0-2.54-.94-2.54-2.76s.9-2.48,2.75-2.66l2.83-.27v-.78c0-1.26-.54-1.71-1.62-1.71-1.26,0-3.4.23-3.4.23l-.06-1a21.77,21.77,0,0,1,3.53-.4c2,0,2.9.94,2.9,2.9Zm-4-2.56c-1.1.11-1.53.63-1.53,1.62s.45,1.66,1.36,1.66a9.48,9.48,0,0,0,2.83-.56v-3Z" fill="#3a3d3f"/><path d="M64.75,388.88,67,396.71h.59l2.27-7.83h1.35l-3.74,13H66.12l1.17-4H66l-2.55-9Z" fill="#3a3d3f"/><path d="M78.7,390.05v4.31c0,2,.12,2.52,1.29,2.52.51,0,1.61-.11,1.61-.11l.09,1.11a15.71,15.71,0,0,1-1.84.2c-1.85,0-2.48-.7-2.48-3.29v-4.74H76.09v-1.17h1.28v-2.75H78.7v2.75h2.86v1.17Z" fill="#3a3d3f"/><path d="M83.22,397.88V385h1.35v4.43a7.55,7.55,0,0,1,2.77-.69c2.47,0,3,1.23,3,4.43v4.75H89v-4.71c0-2.38-.27-3.26-1.93-3.26a7.39,7.39,0,0,0-2.53.54v7.43Z" fill="#3a3d3f"/><path d="M99.53,396.71l0,1.07a31.12,31.12,0,0,1-3.51.29c-2.68,0-3.56-1.57-3.56-4.63,0-3.42,1.47-4.74,3.76-4.74s3.62,1.26,3.62,4.22l-.07,1h-6c0,1.93.6,2.94,2.36,2.94C97.56,396.88,99.53,396.71,99.53,396.71Zm-1-3.85c0-2.23-.69-3-2.27-3s-2.4.84-2.41,3Z" fill="#3a3d3f"/><path d="M102,388.88h1.33v1.23a10.32,10.32,0,0,1,3.3-1.43v1.37a13,13,0,0,0-3.28,1.23v6.6H102Z" fill="#3a3d3f"/><path d="M114.84,396.71l0,1.07a31.12,31.12,0,0,1-3.51.29c-2.69,0-3.57-1.57-3.57-4.63,0-3.42,1.48-4.74,3.77-4.74s3.61,1.26,3.61,4.22l-.07,1h-5.94c0,1.93.6,2.94,2.36,2.94C112.88,396.88,114.84,396.71,114.84,396.71Zm-1-3.85c0-2.23-.68-3-2.26-3s-2.4.84-2.42,3Z" fill="#3a3d3f"/><path d="M127.6,396.21c0,.52.47.72,1.05.79l-.06,1.07a2.76,2.76,0,0,1-2.14-.73,9.1,9.1,0,0,1-3.24.73c-1.64,0-2.54-.94-2.54-2.76s.9-2.48,2.76-2.66l2.82-.27v-.78c0-1.26-.54-1.71-1.62-1.71-1.26,0-3.4.23-3.4.23l0-1a21.6,21.6,0,0,1,3.53-.4c2,0,2.89.94,2.89,2.9Zm-4-2.56c-1.1.11-1.53.63-1.53,1.62s.45,1.66,1.37,1.66a9.47,9.47,0,0,0,2.82-.56v-3Z" fill="#3a3d3f"/><path d="M130.27,388.88h1.33v1.23a10.34,10.34,0,0,1,3.29-1.43v1.37a12.81,12.81,0,0,0-3.27,1.23v6.6h-1.35Z" fill="#3a3d3f"/><path d="M143.14,396.71l0,1.07a31.12,31.12,0,0,1-3.51.29c-2.68,0-3.56-1.57-3.56-4.63,0-3.42,1.47-4.74,3.76-4.74s3.62,1.26,3.62,4.22l-.07,1h-5.94c0,1.93.59,2.94,2.35,2.94C141.18,396.88,143.14,396.71,143.14,396.71Zm-1-3.85c0-2.23-.68-3-2.27-3s-2.39.84-2.41,3Z" fill="#3a3d3f"/><path d="M151.34,390.05v4.31c0,2,.13,2.52,1.3,2.52.5,0,1.6-.11,1.6-.11l.09,1.11a15.44,15.44,0,0,1-1.83.2c-1.86,0-2.49-.7-2.49-3.29v-4.74h-1.28v-1.17H150v-2.75h1.33v2.75h2.87v1.17Z" fill="#3a3d3f"/><path d="M155.86,385.28h1.35v1.57h-1.35Zm0,3.6h1.35v9h-1.35Z" fill="#3a3d3f"/><path d="M159.8,397.88v-9h1.34v.63a6,6,0,0,1,2.62-.81,2.55,2.55,0,0,1,2.35.92,7.46,7.46,0,0,1,3.2-.92c2.45,0,3,1.17,3,4.43v4.75H171v-4.71c0-2.38-.27-3.26-1.89-3.26a6,6,0,0,0-2.54.66,9.85,9.85,0,0,1,.24,2.63v4.68h-1.35v-4.64c0-2.48-.25-3.33-1.89-3.33a5.46,5.46,0,0,0-2.42.66v7.31Z" fill="#3a3d3f"/><path d="M181.5,396.71l0,1.07a31.12,31.12,0,0,1-3.51.29c-2.68,0-3.56-1.57-3.56-4.63,0-3.42,1.47-4.74,3.76-4.74s3.62,1.26,3.62,4.22l-.08,1h-5.94c0,1.93.6,2.94,2.36,2.94C179.53,396.88,181.5,396.71,181.5,396.71Zm-1-3.85c0-2.23-.69-3-2.27-3s-2.4.84-2.41,3Z" fill="#3a3d3f"/><path d="M193.88,390.2a29.33,29.33,0,0,0-3.15-.29c-1.12,0-2,.3-2,1.37,0,.84.44,1.08,2.35,1.4,2.25.38,3.09.83,3.09,2.58,0,2.1-1.33,2.81-3.49,2.81a25,25,0,0,1-3.17-.35l.07-1.17a29.86,29.86,0,0,0,3,.31c1.48,0,2.27-.33,2.27-1.55,0-.94-.47-1.17-2.43-1.48s-3-.7-3-2.5c0-2,1.6-2.63,3.24-2.63a23.19,23.19,0,0,1,3.26.34Z" fill="#3a3d3f"/><path d="M196.38,385h1.35v12.92h-1.35Z" fill="#3a3d3f"/><path d="M207.74,393.28c0,3.27-.81,4.79-3.85,4.79s-3.86-1.52-3.86-4.79c0-3.1,1-4.58,3.86-4.58S207.74,390.18,207.74,393.28Zm-1.39,0c0-2.51-.54-3.41-2.46-3.41s-2.47.9-2.47,3.41.34,3.61,2.47,3.61S206.35,395.83,206.35,393.28Z" fill="#3a3d3f"/><path d="M211.73,390.05v4.31c0,2,.13,2.52,1.3,2.52.5,0,1.6-.11,1.6-.11l.09,1.11a15.44,15.44,0,0,1-1.83.2c-1.86,0-2.49-.7-2.49-3.29v-4.74h-1.28v-1.17h1.28v-2.75h1.33v2.75h2.87v1.17Z" fill="#3a3d3f"/><path d="M222.23,390.2a29.33,29.33,0,0,0-3.15-.29c-1.12,0-2,.3-2,1.37,0,.84.43,1.08,2.34,1.4,2.25.38,3.09.83,3.09,2.58,0,2.1-1.33,2.81-3.49,2.81a25,25,0,0,1-3.17-.35l.07-1.17a29.86,29.86,0,0,0,3,.31c1.48,0,2.27-.33,2.27-1.55,0-.94-.47-1.17-2.43-1.48s-3-.7-3-2.5c0-2,1.6-2.63,3.24-2.63a23.19,23.19,0,0,1,3.26.34Z" fill="#3a3d3f"/><path d="M230.38,390.05v4.31c0,2,.13,2.52,1.3,2.52.5,0,1.6-.11,1.6-.11l.09,1.11a15.43,15.43,0,0,1-1.84.2c-1.85,0-2.48-.7-2.48-3.29v-4.74h-1.28v-1.17h1.28v-2.75h1.33v2.75h2.87v1.17Z" fill="#3a3d3f"/><path d="M234.9,397.88V385h1.35v4.43a7.55,7.55,0,0,1,2.77-.69c2.47,0,3,1.23,3,4.43v4.75h-1.35v-4.71c0-2.38-.27-3.26-1.93-3.26a7.41,7.41,0,0,0-2.54.54v7.43Z" fill="#3a3d3f"/><path d="M250.92,396.21c0,.52.47.72,1.05.79l-.06,1.07a2.76,2.76,0,0,1-2.14-.73,9.1,9.1,0,0,1-3.24.73c-1.64,0-2.54-.94-2.54-2.76s.9-2.48,2.75-2.66l2.83-.27v-.78c0-1.26-.54-1.71-1.62-1.71-1.26,0-3.4.23-3.4.23l-.06-1a21.6,21.6,0,0,1,3.53-.4c2,0,2.9.94,2.9,2.9Zm-4-2.56c-1.1.11-1.53.63-1.53,1.62s.45,1.66,1.36,1.66a9.48,9.48,0,0,0,2.83-.56v-3Z" fill="#3a3d3f"/><path d="M255.38,390.05v4.31c0,2,.13,2.52,1.3,2.52.5,0,1.6-.11,1.6-.11l.09,1.11a15.44,15.44,0,0,1-1.83.2c-1.86,0-2.49-.7-2.49-3.29v-4.74h-1.28v-1.17h1.28v-2.75h1.33v2.75h2.87v1.17Z" fill="#3a3d3f"/><path d="M270.22,396.21c0,.52.47.72,1,.79l-.05,1.07a2.74,2.74,0,0,1-2.14-.73,9.11,9.11,0,0,1-3.25.73c-1.63,0-2.53-.94-2.53-2.76s.9-2.48,2.75-2.66l2.83-.27v-.78c0-1.26-.54-1.71-1.62-1.71-1.26,0-3.41.23-3.41.23l0-1a21.6,21.6,0,0,1,3.53-.4c2,0,2.9.94,2.9,2.9Zm-4-2.56c-1.1.11-1.53.63-1.53,1.62s.45,1.66,1.37,1.66a9.57,9.57,0,0,0,2.83-.56v-3Z" fill="#3a3d3f"/><path d="M272.88,388.88h1.33v1.23a10.32,10.32,0,0,1,3.3-1.43v1.37a12.78,12.78,0,0,0-3.28,1.23v6.6h-1.35Z" fill="#3a3d3f"/><path d="M285.75,396.71l0,1.07a31.38,31.38,0,0,1-3.51.29c-2.69,0-3.57-1.57-3.57-4.63,0-3.42,1.48-4.74,3.76-4.74s3.62,1.26,3.62,4.22l-.07,1h-5.94c0,1.93.59,2.94,2.36,2.94C283.79,396.88,285.75,396.71,285.75,396.71Zm-1-3.85c0-2.23-.68-3-2.27-3s-2.39.84-2.41,3Z" fill="#3a3d3f"/><path d="M292.16,397.88v-9h1.33v.63a6.85,6.85,0,0,1,2.79-.81c2.48,0,3,1.23,3,4.43v4.75H298v-4.71c0-2.38-.27-3.26-1.94-3.26a6.19,6.19,0,0,0-2.54.66v7.31Z" fill="#3a3d3f"/><path d="M309.13,393.28c0,3.27-.81,4.79-3.85,4.79s-3.85-1.52-3.85-4.79c0-3.1,1-4.58,3.85-4.58S309.13,390.18,309.13,393.28Zm-1.38,0c0-2.51-.54-3.41-2.47-3.41s-2.47.9-2.47,3.41.35,3.61,2.47,3.61S307.75,395.83,307.75,393.28Z" fill="#3a3d3f"/><path d="M313.13,390.05v4.31c0,2,.12,2.52,1.29,2.52.51,0,1.61-.11,1.61-.11l.09,1.11a15.71,15.71,0,0,1-1.84.2c-1.85,0-2.48-.7-2.48-3.29v-4.74h-1.28v-1.17h1.28v-2.75h1.33v2.75H316v1.17Z" fill="#3a3d3f"/><path d="M321.6,397.88V385H323v4.43a7.55,7.55,0,0,1,2.77-.69c2.47,0,3,1.23,3,4.43v4.75h-1.35v-4.71c0-2.38-.27-3.26-1.93-3.26a7.39,7.39,0,0,0-2.53.54v7.43Z" fill="#3a3d3f"/><path d="M331.27,385.28h1.35v1.57h-1.35Zm0,3.6h1.35v9h-1.35Z" fill="#3a3d3f"/><path d="M334.82,399.4c0-1,.48-1.53,1.42-2.24a1.46,1.46,0,0,1-.5-1.24,5.82,5.82,0,0,1,.61-1.42c-.76-.34-1.42-1.06-1.42-2.72,0-2.21,1.36-3.08,3.36-3.08a9.22,9.22,0,0,1,1.88.24l2.66-.08V390l-1.71,0a2.35,2.35,0,0,1,.59,1.8c0,2.34-1.17,3-3.47,3a6.65,6.65,0,0,1-.88-.07,5.21,5.21,0,0,0-.33,1c0,.72.15.83,2.18.83,2.56,0,3.48.5,3.48,2.64s-1.46,2.87-4,2.87C335.84,402.12,334.82,401.49,334.82,399.4Zm2.34-1.7c-.76.56-1,.89-1,1.59,0,1.24.52,1.69,2.56,1.69,1.8,0,2.61-.48,2.61-1.67,0-1.37-.58-1.51-2.22-1.51C338.47,397.8,337.16,397.7,337.16,397.7Zm3.2-5.92c0-1.42-.56-2-2.07-2s-2,.56-2,2,.61,2,2,2S340.36,393.2,340.36,391.78Z" fill="#3a3d3f"/><path d="M344.47,397.88V385h1.35v4.43a7.55,7.55,0,0,1,2.77-.69c2.47,0,3,1.23,3,4.43v4.75h-1.35v-4.71c0-2.38-.27-3.26-1.93-3.26a7.39,7.39,0,0,0-2.53.54v7.43Z" fill="#3a3d3f"/><path d="M354.24,385h1.35v12.92h-1.35Z" fill="#3a3d3f"/><path d="M358.79,388.88l2.25,7.83h.6l2.27-7.83h1.35l-3.75,13h-1.35l1.17-4H360l-2.56-9Z" fill="#3a3d3f"/><path d="M378.2,393.24c0,3.58-1,4.83-4.25,4.83-1.08,0-3-.2-3-.2V385h1.34v4.37a7.36,7.36,0,0,1,2.64-.63C377.37,388.7,378.2,390,378.2,393.24Zm-1.37,0c0-2.32-.47-3.33-2.05-3.33a7.57,7.57,0,0,0-2.5.52v6.34s1.17.09,1.65.09C376.4,396.86,376.83,395.76,376.83,393.24Z" fill="#3a3d3f"/><path d="M387.38,388.88v9H386v-.63a6,6,0,0,1-2.67.82c-2.52,0-3-1.18-3-4.49v-4.7h1.35v4.68c0,2.49.22,3.3,1.89,3.3a5.47,5.47,0,0,0,2.47-.67v-7.31Z" fill="#3a3d3f"/><path d="M396,390.2a29.33,29.33,0,0,0-3.15-.29c-1.12,0-2,.3-2,1.37,0,.84.43,1.08,2.34,1.4,2.25.38,3.1.83,3.1,2.58,0,2.1-1.33,2.81-3.49,2.81a25,25,0,0,1-3.17-.35l.07-1.17a29.5,29.5,0,0,0,3,.31c1.48,0,2.27-.33,2.27-1.55,0-.94-.47-1.17-2.43-1.48s-3-.7-3-2.5c0-2,1.61-2.63,3.24-2.63A23.19,23.19,0,0,1,396,389Z" fill="#3a3d3f"/><path d="M398.84,388.88l2.25,7.83h.6l2.27-7.83h1.35l-3.75,13h-1.35l1.17-4h-1.33l-2.56-9Z" fill="#3a3d3f"/><path d="M406.94,395.83h1.48v2.05h-1.48Z" fill="#3a3d3f"/><path d="M413.82,385.42h9v1.25H419v11.21h-1.37V386.67h-3.83Z" fill="#3a3d3f"/><path d="M424.35,397.88V385h1.35v4.43a7.55,7.55,0,0,1,2.77-.69c2.47,0,3,1.23,3,4.43v4.75h-1.35v-4.71c0-2.38-.27-3.26-1.92-3.26a7.41,7.41,0,0,0-2.54.54v7.43Z" fill="#3a3d3f"/><path d="M434,385.28h1.35v1.57H434Zm0,3.6h1.35v9H434Z" fill="#3a3d3f"/><path d="M443.93,390.2a29.33,29.33,0,0,0-3.15-.29c-1.11,0-2,.3-2,1.37,0,.84.43,1.08,2.34,1.4,2.25.38,3.1.83,3.1,2.58,0,2.1-1.33,2.81-3.5,2.81a24.71,24.71,0,0,1-3.16-.35l.07-1.17a29.5,29.5,0,0,0,3,.31c1.48,0,2.27-.33,2.27-1.55,0-.94-.47-1.17-2.43-1.48s-3-.7-3-2.5c0-2,1.6-2.63,3.24-2.63A23.19,23.19,0,0,1,444,389Z" fill="#3a3d3f"/><path d="M456.93,396.71l0,1.07a31.4,31.4,0,0,1-3.52.29c-2.68,0-3.56-1.57-3.56-4.63,0-3.42,1.48-4.74,3.76-4.74s3.62,1.26,3.62,4.22l-.07,1h-5.94c0,1.93.59,2.94,2.36,2.94C455,396.88,456.93,396.71,456.93,396.71Zm-1-3.85c0-2.23-.68-3-2.27-3s-2.39.84-2.41,3Z" fill="#3a3d3f"/><path d="M459.38,397.88v-9h1.33v.63a6.85,6.85,0,0,1,2.79-.81c2.48,0,3,1.23,3,4.43v4.75h-1.33v-4.71c0-2.38-.27-3.26-1.95-3.26a6.18,6.18,0,0,0-2.53.66v7.31Z" fill="#3a3d3f"/><path d="M475.4,396.21c0,.52.47.72,1,.79l-.05,1.07a2.74,2.74,0,0,1-2.14-.73,9.11,9.11,0,0,1-3.25.73c-1.63,0-2.53-.94-2.53-2.76s.9-2.48,2.75-2.66l2.83-.27v-.78c0-1.26-.54-1.71-1.62-1.71-1.26,0-3.41.23-3.41.23l0-1a21.6,21.6,0,0,1,3.53-.4c2,0,2.9.94,2.9,2.9Zm-4-2.56c-1.1.11-1.53.63-1.53,1.62s.45,1.66,1.37,1.66a9.57,9.57,0,0,0,2.83-.56v-3Z" fill="#3a3d3f"/><path d="M485.32,393.24c0,3.58-1,4.83-4.25,4.83-1.08,0-3-.2-3-.2V385h1.33v4.37a7.44,7.44,0,0,1,2.65-.63C484.49,388.7,485.32,390,485.32,393.24Zm-1.37,0c0-2.32-.47-3.33-2.06-3.33a7.57,7.57,0,0,0-2.5.52v6.34s1.17.09,1.66.09C483.51,396.86,484,395.76,484,393.24Z" fill="#3a3d3f"/><path d="M487.64,385H489v12.92h-1.35Z" fill="#3a3d3f"/><path d="M498.33,396.71l0,1.07a31.4,31.4,0,0,1-3.52.29c-2.68,0-3.56-1.57-3.56-4.63,0-3.42,1.48-4.74,3.76-4.74s3.62,1.26,3.62,4.22l-.07,1h-5.94c0,1.93.59,2.94,2.36,2.94C496.37,396.88,498.33,396.71,498.33,396.71Zm-1-3.85c0-2.23-.68-3-2.27-3s-2.39.84-2.41,3Z" fill="#3a3d3f"/><path d="M506.75,390.2a29.33,29.33,0,0,0-3.15-.29c-1.11,0-2,.3-2,1.37,0,.84.43,1.08,2.34,1.4,2.25.38,3.1.83,3.1,2.58,0,2.1-1.34,2.81-3.5,2.81a24.71,24.71,0,0,1-3.16-.35l.07-1.17a29.5,29.5,0,0,0,3,.31c1.47,0,2.27-.33,2.27-1.55,0-.94-.47-1.17-2.43-1.48s-3-.7-3-2.5c0-2,1.6-2.63,3.24-2.63a23.19,23.19,0,0,1,3.26.34Z" fill="#3a3d3f"/><path d="M520.07,388.88v9h-1.35v-.63a6,6,0,0,1-2.66.82c-2.52,0-3-1.18-3-4.49v-4.7h1.36v4.68c0,2.49.21,3.3,1.89,3.3a5.4,5.4,0,0,0,2.46-.67v-7.31Z" fill="#3a3d3f"/><path d="M528.64,390.2a29.33,29.33,0,0,0-3.15-.29c-1.12,0-2,.3-2,1.37,0,.84.43,1.08,2.34,1.4,2.25.38,3.1.83,3.1,2.58,0,2.1-1.34,2.81-3.5,2.81a25,25,0,0,1-3.17-.35l.07-1.17a29.8,29.8,0,0,0,3,.31c1.47,0,2.26-.33,2.26-1.55,0-.94-.46-1.17-2.43-1.48s-3-.7-3-2.5c0-2,1.6-2.63,3.24-2.63a23.19,23.19,0,0,1,3.26.34Z" fill="#3a3d3f"/><path d="M536.79,390.05v4.31c0,2,.13,2.52,1.3,2.52.5,0,1.6-.11,1.6-.11l.09,1.11a15.44,15.44,0,0,1-1.83.2c-1.86,0-2.49-.7-2.49-3.29v-4.74h-1.28v-1.17h1.28v-2.75h1.33v2.75h2.87v1.17Z" fill="#3a3d3f"/><path d="M548.62,393.28c0,3.27-.81,4.79-3.85,4.79s-3.85-1.52-3.85-4.79c0-3.1,1-4.58,3.85-4.58S548.62,390.18,548.62,393.28Zm-1.39,0c0-2.51-.54-3.41-2.46-3.41s-2.47.9-2.47,3.41.34,3.61,2.47,3.61S547.23,395.83,547.23,393.28Z" fill="#3a3d3f"/><path d="M32.55,417l0,1.1s-1.45-.16-2.13-.16c-2.07,0-2.63.9-2.63,3.31,0,2.67.42,3.64,2.65,3.64.68,0,2.12-.16,2.12-.16l.06,1.11a23.34,23.34,0,0,1-2.51.26c-2.86,0-3.71-1.32-3.71-4.85,0-3.26,1.07-4.52,3.75-4.52A20.89,20.89,0,0,1,32.55,417Z" fill="#3a3d3f"/><path d="M34.58,425.88V413h1.35v4.43a7.55,7.55,0,0,1,2.77-.69c2.47,0,3,1.23,3,4.43v4.75H40.4v-4.71c0-2.38-.27-3.26-1.93-3.26a7.41,7.41,0,0,0-2.54.54v7.43Z" fill="#3a3d3f"/><path d="M50.6,424.21c0,.52.47.72,1,.79l-.06,1.07a2.76,2.76,0,0,1-2.14-.73,9.1,9.1,0,0,1-3.24.73c-1.64,0-2.54-.94-2.54-2.76s.9-2.48,2.76-2.66l2.82-.27v-.78c0-1.26-.54-1.71-1.62-1.71-1.26,0-3.4.23-3.4.23l0-1a21.57,21.57,0,0,1,3.52-.4c2,0,2.9.94,2.9,2.9Zm-4-2.56c-1.1.11-1.53.63-1.53,1.62s.45,1.66,1.37,1.66a9.47,9.47,0,0,0,2.82-.56v-3Z" fill="#3a3d3f"/><path d="M53.26,416.88H54.6v1.23a10.21,10.21,0,0,1,3.29-1.43v1.37a13,13,0,0,0-3.28,1.23v6.6H53.26Z" fill="#3a3d3f"/><path d="M59.1,427.4c0-1,.48-1.53,1.42-2.24a1.43,1.43,0,0,1-.51-1.24,5.78,5.78,0,0,1,.62-1.42c-.76-.34-1.43-1.06-1.43-2.72,0-2.21,1.37-3.08,3.37-3.08a9.07,9.07,0,0,1,1.87.24l2.67-.08V418l-1.71,0a2.35,2.35,0,0,1,.59,1.8c0,2.34-1.17,3-3.47,3a6.65,6.65,0,0,1-.88-.07,5.21,5.21,0,0,0-.33,1c0,.72.14.83,2.18.83,2.56,0,3.47.5,3.47,2.64s-1.45,2.87-4,2.87C60.12,430.12,59.1,429.49,59.1,427.4Zm2.34-1.7c-.76.56-1,.89-1,1.59,0,1.24.52,1.69,2.55,1.69,1.81,0,2.62-.48,2.62-1.67,0-1.37-.58-1.51-2.22-1.51C62.75,425.8,61.44,425.7,61.44,425.7Zm3.2-5.92c0-1.42-.56-2-2.07-2s-2,.56-2,2,.62,2,2,2S64.64,421.2,64.64,419.78Z" fill="#3a3d3f"/><path d="M75.39,424.71l0,1.07a31.12,31.12,0,0,1-3.51.29c-2.68,0-3.56-1.57-3.56-4.63,0-3.42,1.47-4.74,3.76-4.74s3.62,1.26,3.62,4.22l-.07,1H69.72c0,1.93.59,2.94,2.35,2.94C73.43,424.88,75.39,424.71,75.39,424.71Zm-1-3.85c0-2.23-.68-3-2.27-3s-2.39.84-2.41,3Z" fill="#3a3d3f"/><path d="M87.61,417l0,1.1s-1.45-.16-2.13-.16c-2.07,0-2.63.9-2.63,3.31,0,2.67.42,3.64,2.65,3.64.68,0,2.12-.16,2.12-.16l.06,1.11a23.34,23.34,0,0,1-2.51.26c-2.86,0-3.7-1.32-3.7-4.85,0-3.26,1.06-4.52,3.74-4.52A20.89,20.89,0,0,1,87.61,417Z" fill="#3a3d3f"/><path d="M96.29,424.71l0,1.07a31.12,31.12,0,0,1-3.51.29c-2.68,0-3.56-1.57-3.56-4.63,0-3.42,1.47-4.74,3.76-4.74s3.62,1.26,3.62,4.22l-.07,1h-6c0,1.93.6,2.94,2.36,2.94C94.32,424.88,96.29,424.71,96.29,424.71Zm-1-3.85c0-2.23-.69-3-2.27-3s-2.4.84-2.41,3Z" fill="#3a3d3f"/><path d="M98.73,416.88h1.33v1.23a10.32,10.32,0,0,1,3.3-1.43v1.37a13,13,0,0,0-3.28,1.23v6.6H98.73Z" fill="#3a3d3f"/><path d="M106.76,418.05v4.31c0,2,.13,2.52,1.3,2.52.5,0,1.6-.11,1.6-.11l.09,1.11a15.71,15.71,0,0,1-1.84.2c-1.85,0-2.48-.7-2.48-3.29v-4.74h-1.28v-1.17h1.28v-2.75h1.33v2.75h2.86v1.17Z" fill="#3a3d3f"/><path d="M117.63,424.21c0,.52.47.72,1.05.79l-.06,1.07a2.76,2.76,0,0,1-2.14-.73,9.1,9.1,0,0,1-3.24.73c-1.64,0-2.54-.94-2.54-2.76s.9-2.48,2.76-2.66l2.82-.27v-.78c0-1.26-.54-1.71-1.62-1.71-1.26,0-3.4.23-3.4.23l-.05-1a21.57,21.57,0,0,1,3.52-.4c2,0,2.9.94,2.9,2.9Zm-4-2.56c-1.1.11-1.53.63-1.53,1.62s.45,1.66,1.37,1.66a9.47,9.47,0,0,0,2.82-.56v-3Z" fill="#3a3d3f"/><path d="M120.29,413.28h1.35v1.57h-1.35Zm0,3.6h1.35v9h-1.35Z" fill="#3a3d3f"/><path d="M124.24,425.88v-9h1.33v.63a6.85,6.85,0,0,1,2.79-.81c2.48,0,3,1.23,3,4.43v4.75h-1.33v-4.71c0-2.38-.27-3.26-1.94-3.26a6.19,6.19,0,0,0-2.54.66v7.31Z" fill="#3a3d3f"/><path d="M140.42,413.42h3l3.43,12.46H145.5l-.9-3.2h-5.33l-.9,3.2H137Zm-.85,8h4.72l-1.89-6.83h-.94Z" fill="#3a3d3f"/><path d="M153.76,419.51h3.44v6.12a30.57,30.57,0,0,1-4,.44c-3.82,0-4.83-2.35-4.83-6.38s1-6.44,4.79-6.44a23.65,23.65,0,0,1,4.09.46l-.06,1.16a28.37,28.37,0,0,0-3.87-.38c-2.88,0-3.51,1.67-3.51,5.2s.61,5.15,3.49,5.15a16.86,16.86,0,0,0,2.58-.25v-3.84h-2.07Z" fill="#3a3d3f"/><path d="M168.43,413.42l-3.26,12.46h-3.1l-3.26-12.46h1.45l2.86,11.24h1L167,413.42Z" fill="#3a3d3f"/><path d="M176.13,418.2a29.33,29.33,0,0,0-3.15-.29c-1.12,0-2,.3-2,1.37,0,.84.43,1.08,2.34,1.4,2.25.38,3.1.83,3.1,2.58,0,2.1-1.34,2.81-3.5,2.81a25,25,0,0,1-3.17-.35l.08-1.17a29.5,29.5,0,0,0,3,.31c1.47,0,2.27-.33,2.27-1.55,0-.94-.47-1.17-2.43-1.48s-3-.7-3-2.5c0-2,1.6-2.63,3.24-2.63a23.19,23.19,0,0,1,3.26.34Z" fill="#3a3d3f"/><path d="M183.1,416.88l1.82,7.83h.28l2.15-7.65h1.4l2.14,7.65h.31l1.8-7.83h1.35l-2.14,9H190l-1.91-7-1.91,7h-2.25l-2.14-9Z" fill="#3a3d3f"/><path d="M196.2,425.88V413h1.35v4.43a7.55,7.55,0,0,1,2.77-.69c2.47,0,3.05,1.23,3.05,4.43v4.75H202v-4.71c0-2.38-.27-3.26-1.93-3.26a7.41,7.41,0,0,0-2.54.54v7.43Z" fill="#3a3d3f"/><path d="M205.87,413.28h1.35v1.57h-1.35Zm0,3.6h1.35v9h-1.35Z" fill="#3a3d3f"/><path d="M209.92,413h1.35v12.92h-1.35Z" fill="#3a3d3f"/><path d="M220.61,424.71l0,1.07a31.4,31.4,0,0,1-3.52.29c-2.68,0-3.56-1.57-3.56-4.63,0-3.42,1.48-4.74,3.76-4.74S221,418,221,420.92l-.07,1h-5.94c0,1.93.59,2.94,2.36,2.94C218.65,424.88,220.61,424.71,220.61,424.71Zm-1-3.85c0-2.23-.68-3-2.27-3s-2.39.84-2.41,3Z" fill="#3a3d3f"/><path d="M228.82,418.05v4.31c0,2,.12,2.52,1.29,2.52.51,0,1.61-.11,1.61-.11l.08,1.11a15.44,15.44,0,0,1-1.83.2c-1.86,0-2.49-.7-2.49-3.29v-4.74h-1.27v-1.17h1.27v-2.75h1.34v2.75h2.86v1.17Z" fill="#3a3d3f"/><path d="M233.33,425.88V413h1.35v4.43a7.57,7.57,0,0,1,2.78-.69c2.46,0,3,1.23,3,4.43v4.75h-1.35v-4.71c0-2.38-.27-3.26-1.93-3.26a7.41,7.41,0,0,0-2.54.54v7.43Z" fill="#3a3d3f"/><path d="M249.64,424.71l0,1.07a31.12,31.12,0,0,1-3.51.29c-2.68,0-3.57-1.57-3.57-4.63,0-3.42,1.48-4.74,3.77-4.74S250,418,250,420.92l-.08,1H244c0,1.93.6,2.94,2.36,2.94C247.68,424.88,249.64,424.71,249.64,424.71Zm-1-3.85c0-2.23-.69-3-2.27-3s-2.4.84-2.42,3Z" fill="#3a3d3f"/><path d="M252.09,416.88h1.33v1.23a10.32,10.32,0,0,1,3.3-1.43v1.37a12.78,12.78,0,0,0-3.28,1.23v6.6h-1.35Z" fill="#3a3d3f"/><path d="M265,424.71l0,1.07a31.38,31.38,0,0,1-3.51.29c-2.69,0-3.57-1.57-3.57-4.63,0-3.42,1.48-4.74,3.76-4.74s3.62,1.26,3.62,4.22l-.07,1h-5.94c0,1.93.59,2.94,2.36,2.94C263,424.88,265,424.71,265,424.71Zm-1-3.85c0-2.23-.68-3-2.27-3s-2.39.84-2.41,3Z" fill="#3a3d3f"/><path d="M271.37,413.28h1.35v1.57h-1.35Zm0,3.6h1.35v9h-1.35Z" fill="#3a3d3f"/><path d="M281.29,418.2a29.33,29.33,0,0,0-3.15-.29c-1.12,0-2,.3-2,1.37,0,.84.44,1.08,2.34,1.4,2.25.38,3.1.83,3.1,2.58,0,2.1-1.33,2.81-3.49,2.81a25,25,0,0,1-3.17-.35l.07-1.17a29.5,29.5,0,0,0,3,.31c1.48,0,2.27-.33,2.27-1.55,0-.94-.47-1.17-2.43-1.48s-3-.7-3-2.5c0-2,1.61-2.63,3.24-2.63a23.19,23.19,0,0,1,3.26.34Z" fill="#3a3d3f"/><path d="M293.62,418.2a29.33,29.33,0,0,0-3.15-.29c-1.12,0-2,.3-2,1.37,0,.84.44,1.08,2.34,1.4,2.25.38,3.1.83,3.1,2.58,0,2.1-1.33,2.81-3.49,2.81a25,25,0,0,1-3.17-.35l.07-1.17a29.5,29.5,0,0,0,3,.31c1.48,0,2.27-.33,2.27-1.55,0-.94-.47-1.17-2.43-1.48s-3-.7-3-2.5c0-2,1.61-2.63,3.24-2.63a23.19,23.19,0,0,1,3.26.34Z" fill="#3a3d3f"/><path d="M297.81,418.05v4.31c0,2,.13,2.52,1.3,2.52.5,0,1.6-.11,1.6-.11l.09,1.11a15.71,15.71,0,0,1-1.84.2c-1.85,0-2.48-.7-2.48-3.29v-4.74H295.2v-1.17h1.28v-2.75h1.33v2.75h2.86v1.17Z" fill="#3a3d3f"/><path d="M302.33,413.28h1.35v1.57h-1.35Zm0,3.6h1.35v9h-1.35Z" fill="#3a3d3f"/><path d="M306.38,413h1.35v12.92h-1.35Z" fill="#3a3d3f"/><path d="M310.54,413h1.35v12.92h-1.35Z" fill="#3a3d3f"/><path d="M324.9,424.21c0,.52.47.72,1.05.79l-.06,1.07a2.76,2.76,0,0,1-2.14-.73,9.1,9.1,0,0,1-3.24.73c-1.64,0-2.54-.94-2.54-2.76s.9-2.48,2.75-2.66l2.83-.27v-.78c0-1.26-.54-1.71-1.62-1.71-1.26,0-3.4.23-3.4.23l-.06-1a21.77,21.77,0,0,1,3.53-.4c2,0,2.9.94,2.9,2.9Zm-4-2.56c-1.1.11-1.53.63-1.53,1.62s.45,1.66,1.36,1.66a9.48,9.48,0,0,0,2.83-.56v-3Z" fill="#3a3d3f"/><path d="M327.56,413.28h1.35v1.57h-1.35Zm0,3.6h1.35v9h-1.35Z" fill="#3a3d3f"/><path d="M331.51,416.88h1.33v1.23a10.34,10.34,0,0,1,3.29-1.43v1.37a12.81,12.81,0,0,0-3.27,1.23v6.6h-1.35Z" fill="#3a3d3f"/><path d="M348.05,424.21c0,.52.47.72,1,.79l0,1.07a2.76,2.76,0,0,1-2.14-.73,9.1,9.1,0,0,1-3.24.73c-1.64,0-2.54-.94-2.54-2.76s.9-2.48,2.75-2.66l2.83-.27v-.78c0-1.26-.54-1.71-1.62-1.71-1.26,0-3.4.23-3.4.23l-.06-1a21.6,21.6,0,0,1,3.53-.4c2,0,2.9.94,2.9,2.9Zm-4-2.56c-1.09.11-1.53.63-1.53,1.62s.45,1.66,1.37,1.66a9.48,9.48,0,0,0,2.83-.56v-3Z" fill="#3a3d3f"/><path d="M350.71,425.88v-9H352v.63a6.86,6.86,0,0,1,2.8-.81c2.48,0,3,1.23,3,4.43v4.75h-1.33v-4.71c0-2.38-.27-3.26-1.95-3.26a6.19,6.19,0,0,0-2.54.66v7.31Z" fill="#3a3d3f"/><path d="M367.29,425.88H366v-.61a6.44,6.44,0,0,1-2.74.8c-1.76,0-3.24-.73-3.24-4.61,0-3.17,1-4.76,3.76-4.76a14.13,14.13,0,0,1,2.22.24v-4h1.33ZM366,424.19v-6.1a14.42,14.42,0,0,0-2.14-.22c-1.89,0-2.45,1.24-2.45,3.59,0,2.91.95,3.4,2,3.4A6.53,6.53,0,0,0,366,424.19Z" fill="#3a3d3f"/><path d="M373.86,416.88h1.33v.65a6.12,6.12,0,0,1,2.7-.83c2.27,0,3.26,1.39,3.26,4.58,0,3.52-1.15,4.79-3.92,4.79a12,12,0,0,1-2-.2v4h-1.35Zm1.35,1.75v6.07a14.72,14.72,0,0,0,1.94.19c2,0,2.63-1,2.63-3.61s-.77-3.37-2.09-3.37A5.86,5.86,0,0,0,375.21,418.63Z" fill="#3a3d3f"/><path d="M389.7,424.21c0,.52.47.72,1.05.79l-.06,1.07a2.76,2.76,0,0,1-2.14-.73,9.1,9.1,0,0,1-3.24.73c-1.64,0-2.54-.94-2.54-2.76s.9-2.48,2.75-2.66l2.83-.27v-.78c0-1.26-.54-1.71-1.62-1.71-1.26,0-3.4.23-3.4.23l-.06-1a21.6,21.6,0,0,1,3.53-.4c2,0,2.9.94,2.9,2.9Zm-4-2.56c-1.1.11-1.53.63-1.53,1.62s.45,1.66,1.36,1.66a9.48,9.48,0,0,0,2.83-.56v-3Z" fill="#3a3d3f"/><path d="M398.34,418.2a29.33,29.33,0,0,0-3.15-.29c-1.12,0-2,.3-2,1.37,0,.84.43,1.08,2.34,1.4,2.25.38,3.1.83,3.1,2.58,0,2.1-1.34,2.81-3.5,2.81a25,25,0,0,1-3.17-.35l.08-1.17a29.5,29.5,0,0,0,3,.31c1.47,0,2.26-.33,2.26-1.55,0-.94-.46-1.17-2.43-1.48s-3-.7-3-2.5c0-2,1.6-2.63,3.24-2.63a23.19,23.19,0,0,1,3.26.34Z" fill="#3a3d3f"/><path d="M406.71,418.2a29.33,29.33,0,0,0-3.15-.29c-1.12,0-2,.3-2,1.37,0,.84.43,1.08,2.34,1.4,2.25.38,3.1.83,3.1,2.58,0,2.1-1.34,2.81-3.5,2.81a25,25,0,0,1-3.17-.35l.07-1.17a29.8,29.8,0,0,0,3,.31c1.47,0,2.26-.33,2.26-1.55,0-.94-.46-1.17-2.43-1.48s-3-.7-3-2.5c0-2,1.6-2.63,3.24-2.63a23.19,23.19,0,0,1,3.26.34Z" fill="#3a3d3f"/><path d="M415.75,424.71l0,1.07a31.12,31.12,0,0,1-3.51.29c-2.68,0-3.56-1.57-3.56-4.63,0-3.42,1.47-4.74,3.76-4.74s3.62,1.26,3.62,4.22l-.07,1h-5.94c0,1.93.59,2.94,2.35,2.94C413.78,424.88,415.75,424.71,415.75,424.71Zm-1-3.85c0-2.23-.69-3-2.27-3s-2.39.84-2.41,3Z" fill="#3a3d3f"/><path d="M418.19,425.88v-9h1.34v.63a6.79,6.79,0,0,1,2.79-.81c2.48,0,3,1.23,3,4.43v4.75H424v-4.71c0-2.38-.27-3.26-1.95-3.26a6.25,6.25,0,0,0-2.54.66v7.31Z" fill="#3a3d3f"/><path d="M427.46,427.4c0-1,.49-1.53,1.43-2.24a1.43,1.43,0,0,1-.51-1.24,5.82,5.82,0,0,1,.61-1.42c-.75-.34-1.42-1.06-1.42-2.72,0-2.21,1.37-3.08,3.37-3.08a9.07,9.07,0,0,1,1.87.24l2.67-.08V418l-1.72,0a2.31,2.31,0,0,1,.6,1.8c0,2.34-1.17,3-3.48,3a6.79,6.79,0,0,1-.88-.07,5.32,5.32,0,0,0-.32,1c0,.72.14.83,2.18.83,2.55,0,3.47.5,3.47,2.64s-1.46,2.87-4,2.87C428.49,430.12,427.46,429.49,427.46,427.4Zm2.34-1.7c-.75.56-1,.89-1,1.59,0,1.24.52,1.69,2.55,1.69,1.8,0,2.61-.48,2.61-1.67,0-1.37-.57-1.51-2.21-1.51C431.12,425.8,429.8,425.7,429.8,425.7Zm3.21-5.92c0-1.42-.56-2-2.07-2s-2,.56-2,2,.61,2,2,2S433,421.2,433,419.78Z" fill="#3a3d3f"/><path d="M443.76,424.71l0,1.07a31.12,31.12,0,0,1-3.51.29c-2.68,0-3.56-1.57-3.56-4.63,0-3.42,1.47-4.74,3.76-4.74s3.62,1.26,3.62,4.22l-.08,1h-5.94c0,1.93.6,2.94,2.36,2.94C441.79,424.88,443.76,424.71,443.76,424.71Zm-1-3.85c0-2.23-.69-3-2.27-3s-2.4.84-2.41,3Z" fill="#3a3d3f"/><path d="M446.2,416.88h1.33v1.23a10.32,10.32,0,0,1,3.3-1.43v1.37a13,13,0,0,0-3.28,1.23v6.6H446.2Z" fill="#3a3d3f"/><path d="M458.19,418.05v4.31c0,2,.12,2.52,1.3,2.52.5,0,1.6-.11,1.6-.11l.09,1.11a15.71,15.71,0,0,1-1.84.2c-1.85,0-2.48-.7-2.48-3.29v-4.74h-1.28v-1.17h1.28v-2.75h1.33v2.75h2.86v1.17Z" fill="#3a3d3f"/><path d="M462.71,416.88H464v1.23a10.34,10.34,0,0,1,3.29-1.43v1.37a12.81,12.81,0,0,0-3.27,1.23v6.6h-1.35Z" fill="#3a3d3f"/><path d="M475.29,424.21c0,.52.47.72,1,.79l-.05,1.07a2.76,2.76,0,0,1-2.14-.73,9.1,9.1,0,0,1-3.24.73c-1.64,0-2.54-.94-2.54-2.76s.9-2.48,2.75-2.66l2.83-.27v-.78c0-1.26-.54-1.71-1.62-1.71-1.26,0-3.4.23-3.4.23l-.06-1a21.6,21.6,0,0,1,3.53-.4c2,0,2.9.94,2.9,2.9Zm-4-2.56c-1.09.11-1.53.63-1.53,1.62s.45,1.66,1.37,1.66a9.48,9.48,0,0,0,2.83-.56v-3Z" fill="#3a3d3f"/><path d="M479.68,425.88h-1.35v-7.83H477.2v-1.17h1.13v-.81c0-2.59.67-3.29,2.43-3.29.61,0,1.82.12,1.82.12l0,1.12s-1,0-1.55,0c-1,0-1.33.44-1.33,2.11v.79h2.61v1.17h-2.61Z" fill="#3a3d3f"/><path d="M485.64,425.88h-1.35v-7.83h-1.14v-1.17h1.14v-.81c0-2.59.66-3.29,2.43-3.29.61,0,1.82.12,1.82.12l0,1.12s-1,0-1.55,0c-1,0-1.33.44-1.33,2.11v.79h2.61v1.17h-2.61Z" fill="#3a3d3f"/><path d="M489.87,413.28h1.35v1.57h-1.35Zm0,3.6h1.35v9h-1.35Z" fill="#3a3d3f"/><path d="M499.63,417l-.06,1.1s-1.44-.16-2.12-.16c-2.07,0-2.63.9-2.63,3.31,0,2.67.41,3.64,2.64,3.64.69,0,2.13-.16,2.13-.16l.05,1.11a23.06,23.06,0,0,1-2.5.26c-2.86,0-3.71-1.32-3.71-4.85,0-3.26,1.06-4.52,3.75-4.52A21.18,21.18,0,0,1,499.63,417Z" fill="#3a3d3f"/><path d="M501.57,423.83H503v2.05h-1.47Z" fill="#3a3d3f"/><rect x="261.51" y="78.67" width="10.84" height="41.27" transform="translate(533.86 198.61) rotate(-180)" fill="#2277d6"/><rect x="246.38" y="92.41" width="10.84" height="27.53" transform="translate(503.6 212.35) rotate(-180)" fill="#2277d6"/><rect x="230.36" y="106.18" width="10.84" height="13.77" transform="translate(471.56 226.12) rotate(-180)" fill="#2277d6"/><path d="M51.08,110.24a6.67,6.67,0,0,1-13.33.15l0-7.51,6.51-6.47v-9a.81.81,0,0,0-.81-.81H41.25V80a1.36,1.36,0,0,0-1.36-1.36h-.25A1.36,1.36,0,0,0,38.27,80v6.59H32.38V80a1.36,1.36,0,0,0-2.72,0v6.59H27.55a.81.81,0,0,0-.81.81l0,9L33.26,103l0,7.43a11.14,11.14,0,0,0,22.27-.15Z" fill="#2277d6"/><path d="M164.45,87.44h-8.67V83.1a4.33,4.33,0,0,0-4.34-4.33h-8.66a4.33,4.33,0,0,0-4.34,4.33v4.34h-8.67a4.3,4.3,0,0,0-4.31,4.33l0,23.84a4.32,4.32,0,0,0,4.33,4.33h34.09a4.92,4.92,0,0,0,4.92-4.92V91.77A4.33,4.33,0,0,0,164.45,87.44Zm-13,0h-8.66V83.1h8.66Z" fill="#2277d6"/><path d="M31.45,209.43h3.36l3.8,13.84H37.09l-1-3.56H30.17l-1,3.56H27.65Zm-.94,8.9h5.24l-2.1-7.58h-1Z"/><path d="M46,216.19h3.82V223a33.71,33.71,0,0,1-4.5.48c-4.24,0-5.36-2.6-5.36-7.08s1.16-7.16,5.32-7.16a25.77,25.77,0,0,1,4.54.52L49.75,211a31.73,31.73,0,0,0-4.3-.42c-3.2,0-3.91,1.86-3.91,5.78s.69,5.72,3.89,5.72a18.56,18.56,0,0,0,2.86-.28v-4.26H46Z"/><path d="M62.11,209.43l-3.62,13.84H55.05l-3.62-13.84H53l3.18,12.48h1.12l3.18-12.48Z"/><path d="M70.19,214.73a32.74,32.74,0,0,0-3.5-.32c-1.24,0-2.19.34-2.19,1.52,0,.94.49,1.2,2.61,1.56,2.5.42,3.44.92,3.44,2.86,0,2.34-1.48,3.12-3.88,3.12a28.23,28.23,0,0,1-3.53-.38l.08-1.3a33.22,33.22,0,0,0,3.31.34c1.64,0,2.52-.36,2.52-1.72,0-1-.52-1.3-2.7-1.64S63,218,63,216c0-2.2,1.79-2.92,3.61-2.92a25.57,25.57,0,0,1,3.62.38Z"/><circle cx="42.23" cy="273.28" r="20.9" fill="#bddff4"/><circle cx="94.46" cy="273.28" r="20.9" fill="#bddff4"/><path d="M37.9,265.51a18.62,18.62,0,0,1,4.66-.67c3.74,0,5.07,1.32,5.07,4.13a4,4,0,0,1-2.36,3.6c1.61.57,2.74,1.27,2.74,3.84,0,3.19-1.56,4.78-5.14,4.78a26.17,26.17,0,0,1-5.21-.65l.17-1.52a28.52,28.52,0,0,0,4.85.53c2.35,0,3.43-1,3.43-3.07s-1.46-2.9-3.26-3H39.66v-1.58h3.19A3,3,0,0,0,45.73,269c0-1.8-.89-2.54-3.24-2.54a24.17,24.17,0,0,0-4.42.48Z"/><path d="M99.21,265.1v1.68h-7.7l-.43,5.16a9.12,9.12,0,0,1,3.72-1c3.09,0,5,1.3,5,4.68,0,3.65-2,5.52-5.31,5.52a26.29,26.29,0,0,1-5.25-.69l.21-1.47a31.48,31.48,0,0,0,4.87.53c2.19,0,3.58-1.3,3.58-3.75s-1.34-3.16-3.36-3.16a9.09,9.09,0,0,0-3.77,1l-1.27-.24L90,265.1Z"/></g></g></svg>