<svg xmlns="http://www.w3.org/2000/svg" xmlns:xlink="http://www.w3.org/1999/xlink" viewBox="0 0 579.59 494.77"><defs><clipPath id="clip-path"><rect x="20.54" y="217.53" width="520.26" height="73.31" fill="none"/></clipPath><clipPath id="clip-path-2"><rect x="25.24" y="218.01" width="517.18" height="62.04" fill="none"/></clipPath><clipPath id="clip-path-3"><rect x="280.67" y="176.46" width="54.85" height="141.23" fill="#edf4f9"/></clipPath></defs><title>r_0_C_Tablet</title><g style="isolation:isolate"><g id="Layer_2" data-name="Layer 2"><g id="Selection_Feedback"><rect y="0.5" width="579.59" height="494.27" fill="#f7f7f7"/></g><g id="Layer_1-2" data-name="Layer 1"><line x1="0.23" y1="0.5" x2="579.59" y2="0.5" fill="none" stroke="#ddd" stroke-miterlimit="10"/><path d="M38,87.13h1.3V99H37.93V88.68l-3.06,2-.63-1Z" fill="#3a3d3f"/><path d="M43.64,99V97.84l3.47-3.65c1.48-1.53,2.4-2.5,2.4-3.91,0-1.58-.89-2.09-2.59-2.09a17.06,17.06,0,0,0-3.08.4l-.11-1.15A14.3,14.3,0,0,1,47.17,87c2.5,0,3.76,1,3.76,3.19,0,1.78-.81,2.82-2.48,4.45l-3.17,3.22h6V99Z" fill="#3a3d3f"/><path d="M65,87.89s-2.5-.31-3.54-.31c-1.77,0-2.71.63-2.71,2,0,1.62.87,1.89,3,2.37,2.48.56,3.58,1.17,3.58,3.35,0,2.76-1.51,3.84-4,3.84a32.29,32.29,0,0,1-3.94-.4l.14-1.15S60,98,61.28,98c1.76,0,2.66-.77,2.66-2.5,0-1.41-.73-1.8-2.77-2.2-2.57-.56-3.87-1.17-3.87-3.54s1.58-3.35,4-3.35a31.11,31.11,0,0,1,3.76.36Z" fill="#3a3d3f"/><path d="M74.13,97.84l0,1.07a32.2,32.2,0,0,1-3.51.28c-2.69,0-3.57-1.56-3.57-4.62,0-3.42,1.48-4.74,3.77-4.74s3.61,1.26,3.61,4.21l-.07,1H68.46c0,1.93.59,2.94,2.36,2.94C72.17,98,74.13,97.84,74.13,97.84Zm-1-3.85c0-2.23-.68-3-2.26-3s-2.4.84-2.42,3Z" fill="#3a3d3f"/><path d="M76.58,90h1.33v.65a6.12,6.12,0,0,1,2.7-.83c2.27,0,3.26,1.39,3.26,4.58,0,3.52-1.15,4.78-3.92,4.78a12.35,12.35,0,0,1-2-.19v4H76.58Zm1.35,1.75v6.07a14.72,14.72,0,0,0,1.94.19c2,0,2.63-1,2.63-3.61S81.73,91,80.41,91A5.86,5.86,0,0,0,77.93,91.76Z" fill="#3a3d3f"/><path d="M90,99V97.84l3.48-3.65c1.47-1.53,2.39-2.5,2.39-3.91,0-1.58-.88-2.09-2.59-2.09a17.06,17.06,0,0,0-3.08.4l-.11-1.15A14.3,14.3,0,0,1,93.5,87c2.5,0,3.76,1,3.76,3.19,0,1.78-.81,2.82-2.48,4.45l-3.17,3.22h6V99Z" fill="#3a3d3f"/><path d="M108.17,93.25c0,4.56-1.6,5.94-4.32,5.94s-4.34-1.35-4.34-5.92c0-4.9,1.59-6.34,4.32-6.34S108.17,88.36,108.17,93.25Zm-7.22,0c0,3.73,1,4.7,2.9,4.7s2.9-1,2.9-4.72c0-4-.92-5.07-2.9-5.07S101,89.22,101,93.27Z" fill="#3a3d3f"/><path d="M114.6,87.13h1.29V99h-1.38V88.68l-3.06,2-.64-1Z" fill="#3a3d3f"/><path d="M120.36,87.13h7.38V89l-4.58,10.24-1.31-.41,4.48-9.92v-.47h-6Z" fill="#3a3d3f"/><path d="M130.49,97.09H132l-1.2,4.14h-1.12Z" fill="#3a3d3f"/><path d="M142.73,87.13H144V99h-1.39V88.68l-3.06,2-.63-1Z" fill="#3a3d3f"/><path d="M148.4,87.44a13.71,13.71,0,0,1,3.49-.51c2.81,0,3.8,1,3.8,3.1a3,3,0,0,1-1.76,2.7,2.58,2.58,0,0,1,2,2.88c0,2.4-1.17,3.58-3.86,3.58a19.76,19.76,0,0,1-3.9-.48l.12-1.14A21.39,21.39,0,0,0,152,98c1.77,0,2.58-.77,2.58-2.3s-1.1-2.18-2.45-2.24h-2.4V92.24h2.4a2.23,2.23,0,0,0,2.16-2.16c0-1.35-.67-1.9-2.43-1.9a18.07,18.07,0,0,0-3.31.36Z" fill="#3a3d3f"/><path d="M158.39,91.16h1.48v2.06h-1.48Zm0,5.8h1.48V99h-1.48Z" fill="#3a3d3f"/><path d="M170.45,93.25c0,4.56-1.6,5.94-4.32,5.94s-4.34-1.35-4.34-5.92c0-4.9,1.58-6.34,4.32-6.34S170.45,88.36,170.45,93.25Zm-7.22,0c0,3.73,1,4.7,2.9,4.7s2.9-1,2.9-4.72c0-4-.92-5.07-2.9-5.07S163.23,89.22,163.23,93.27Z" fill="#3a3d3f"/><path d="M180.53,93.25c0,4.56-1.6,5.94-4.32,5.94s-4.34-1.35-4.34-5.92c0-4.9,1.58-6.34,4.32-6.34S180.53,88.36,180.53,93.25Zm-7.22,0c0,3.73,1,4.7,2.9,4.7s2.9-1,2.9-4.72c0-4-.92-5.07-2.9-5.07S173.31,89.22,173.31,93.27Z" fill="#3a3d3f"/><path d="M186.43,93.43h5.46v1.26h-5.46Z" fill="#3a3d3f"/><path d="M202.76,87.13h1.3V99h-1.39V88.68l-3.06,2-.63-1Z" fill="#3a3d3f"/><path d="M215.72,87.13v1.26h-5.78l-.32,3.87a6.81,6.81,0,0,1,2.79-.74c2.32,0,3.78,1,3.78,3.52,0,2.73-1.49,4.14-4,4.14a19.26,19.26,0,0,1-3.94-.53l.16-1.09a24,24,0,0,0,3.65.39,2.51,2.51,0,0,0,2.69-2.81c0-1.8-1-2.37-2.52-2.37a6.82,6.82,0,0,0-2.83.72l-1-.18.33-6.18Z" fill="#3a3d3f"/><path d="M218.42,91.16h1.47v2.06h-1.47Zm0,5.8h1.47V99h-1.47Z" fill="#3a3d3f"/><path d="M222.42,87.44a13.71,13.71,0,0,1,3.49-.51c2.81,0,3.8,1,3.8,3.1a3,3,0,0,1-1.77,2.7A2.58,2.58,0,0,1,230,95.61c0,2.4-1.18,3.58-3.86,3.58a19.92,19.92,0,0,1-3.91-.48l.13-1.14A21.23,21.23,0,0,0,226,98c1.76,0,2.57-.77,2.57-2.3s-1.1-2.18-2.45-2.24h-2.39V92.24h2.39a2.23,2.23,0,0,0,2.17-2.16c0-1.35-.67-1.9-2.44-1.9a18.07,18.07,0,0,0-3.31.36Z" fill="#3a3d3f"/><path d="M240.56,93.25c0,4.56-1.6,5.94-4.32,5.94s-4.34-1.35-4.34-5.92c0-4.9,1.59-6.34,4.32-6.34S240.56,88.36,240.56,93.25Zm-7.22,0c0,3.73,1,4.7,2.9,4.7s2.9-1,2.9-4.72c0-4-.92-5.07-2.9-5.07S233.34,89.22,233.34,93.27Z" fill="#3a3d3f"/><path d="M31.48,421.43h1.39v12.46H31.48Z" fill="#3a3d3f"/><path d="M35.67,433.89v-9H37v.63a6.86,6.86,0,0,1,2.8-.81c2.48,0,3,1.22,3,4.43v4.75H41.51v-4.72c0-2.37-.27-3.25-1.95-3.25a6.19,6.19,0,0,0-2.54.66v7.31Z" fill="#3a3d3f"/><path d="M51.1,426.06v4.3c0,2,.12,2.52,1.3,2.52.5,0,1.6-.1,1.6-.1l.09,1.11a15.71,15.71,0,0,1-1.84.2c-1.85,0-2.48-.7-2.48-3.29v-4.74H48.49v-1.17h1.28v-2.76H51.1v2.76H54v1.17Z" fill="#3a3d3f"/><path d="M55.62,433.89V421H57v4.43a7.64,7.64,0,0,1,2.77-.68c2.47,0,3,1.22,3,4.43v4.75H61.43v-4.72c0-2.37-.27-3.25-1.92-3.25a7.41,7.41,0,0,0-2.54.54v7.43Z" fill="#3a3d3f"/><path d="M65.28,421.29h1.35v1.57H65.28Zm0,3.6h1.35v9H65.28Z" fill="#3a3d3f"/><path d="M75.2,426.2a30.35,30.35,0,0,0-3.15-.28c-1.11,0-2,.3-2,1.36,0,.85.43,1.08,2.34,1.41,2.25.38,3.1.83,3.1,2.57,0,2.11-1.34,2.81-3.5,2.81a25.4,25.4,0,0,1-3.16-.34l.07-1.17a29.5,29.5,0,0,0,3,.31c1.47,0,2.27-.33,2.27-1.55,0-.94-.47-1.17-2.43-1.48s-3-.7-3-2.5c0-2,1.6-2.63,3.24-2.63a23.19,23.19,0,0,1,3.26.34Z" fill="#3a3d3f"/><path d="M87.37,425l-.05,1.1s-1.44-.16-2.13-.16c-2.07,0-2.63.9-2.63,3.31,0,2.66.42,3.64,2.65,3.64.68,0,2.12-.17,2.12-.17l.06,1.12a24.28,24.28,0,0,1-2.5.25c-2.87,0-3.71-1.31-3.71-4.84,0-3.26,1.06-4.52,3.74-4.52A20.89,20.89,0,0,1,87.37,425Z" fill="#3a3d3f"/><path d="M95.76,432.22c0,.52.47.72,1,.79l0,1.06a2.74,2.74,0,0,1-2.14-.72,9.2,9.2,0,0,1-3.24.72c-1.64,0-2.54-.93-2.54-2.75s.9-2.49,2.75-2.67l2.83-.27v-.77c0-1.26-.54-1.71-1.62-1.71-1.26,0-3.41.23-3.41.23l0-1a21.6,21.6,0,0,1,3.53-.4c2,0,2.9.94,2.9,2.9Zm-4-2.56c-1.09.11-1.53.63-1.53,1.62s.45,1.66,1.37,1.66a9.57,9.57,0,0,0,2.83-.56v-3Z" fill="#3a3d3f"/><path d="M104.4,426.2a30.35,30.35,0,0,0-3.15-.28c-1.12,0-2,.3-2,1.36,0,.85.44,1.08,2.34,1.41,2.26.38,3.1.83,3.1,2.57,0,2.11-1.33,2.81-3.49,2.81a25.65,25.65,0,0,1-3.17-.34l.07-1.17a29.5,29.5,0,0,0,3,.31c1.48,0,2.27-.33,2.27-1.55,0-.94-.47-1.17-2.43-1.48s-3-.7-3-2.5c0-2,1.61-2.63,3.24-2.63a23,23,0,0,1,3.26.34Z" fill="#3a3d3f"/><path d="M113.43,432.72l0,1.06a31.12,31.12,0,0,1-3.51.29c-2.68,0-3.57-1.56-3.57-4.62,0-3.43,1.48-4.74,3.77-4.74s3.62,1.26,3.62,4.21l-.08,1h-5.94c0,1.93.6,2.93,2.36,2.93C111.47,432.88,113.43,432.72,113.43,432.72Zm-1-3.85c0-2.23-.69-3-2.27-3s-2.4.85-2.41,3Z" fill="#3a3d3f"/><path d="M116,432h1.5l-1.21,4.14H115.2Z" fill="#3a3d3f"/><path d="M123.8,433.89v-1.17l3.48-3.65c1.47-1.53,2.39-2.51,2.39-3.91,0-1.59-.88-2.09-2.59-2.09a17.06,17.06,0,0,0-3.08.4l-.11-1.16a14.58,14.58,0,0,1,3.44-.48c2.5,0,3.76.95,3.76,3.19,0,1.78-.81,2.82-2.48,4.44l-3.17,3.23h6v1.2Z" fill="#3a3d3f"/><path d="M138.49,424.89l2.1,7.83h.67l2.18-7.83h1.39l-2.54,9h-2.7l-2.54-9Z" fill="#3a3d3f"/><path d="M153.2,432.72l0,1.06a31.12,31.12,0,0,1-3.51.29c-2.68,0-3.56-1.56-3.56-4.62,0-3.43,1.47-4.74,3.76-4.74s3.62,1.26,3.62,4.21l-.07,1h-5.95c0,1.93.6,2.93,2.36,2.93C151.23,432.88,153.2,432.72,153.2,432.72Zm-1-3.85c0-2.23-.69-3-2.27-3s-2.4.85-2.41,3Z" fill="#3a3d3f"/><path d="M155.64,433.89V421H157v4.43a7.65,7.65,0,0,1,2.78-.68c2.46,0,3,1.22,3,4.43v4.75h-1.35v-4.72c0-2.37-.27-3.25-1.93-3.25a7.41,7.41,0,0,0-2.54.54v7.43Z" fill="#3a3d3f"/><path d="M165.31,421.29h1.35v1.57h-1.35Zm0,3.6h1.35v9h-1.35Z" fill="#3a3d3f"/><path d="M175.07,425l-.06,1.1s-1.44-.16-2.12-.16c-2.07,0-2.63.9-2.63,3.31,0,2.66.41,3.64,2.65,3.64.68,0,2.12-.17,2.12-.17l.05,1.12a24,24,0,0,1-2.5.25c-2.86,0-3.71-1.31-3.71-4.84,0-3.26,1.06-4.52,3.75-4.52A20.89,20.89,0,0,1,175.07,425Z" fill="#3a3d3f"/><path d="M177.21,421h1.35v12.93h-1.35Z" fill="#3a3d3f"/><path d="M187.9,432.72l0,1.06a31.4,31.4,0,0,1-3.52.29c-2.68,0-3.56-1.56-3.56-4.62,0-3.43,1.48-4.74,3.76-4.74s3.62,1.26,3.62,4.21l-.07,1h-5.94c0,1.93.59,2.93,2.36,2.93C185.94,432.88,187.9,432.72,187.9,432.72Zm-1-3.85c0-2.23-.68-3-2.27-3s-2.39.85-2.41,3Z" fill="#3a3d3f"/><path d="M196.32,426.2a30,30,0,0,0-3.15-.28c-1.11,0-2,.3-2,1.36,0,.85.43,1.08,2.34,1.41,2.25.38,3.1.83,3.1,2.57,0,2.11-1.33,2.81-3.49,2.81a25.4,25.4,0,0,1-3.17-.34l.07-1.17a29.5,29.5,0,0,0,3,.31c1.48,0,2.27-.33,2.27-1.55,0-.94-.47-1.17-2.43-1.48s-3-.7-3-2.5c0-2,1.6-2.63,3.24-2.63a23.19,23.19,0,0,1,3.26.34Z" fill="#3a3d3f"/><path d="M202.68,424.89H204v1.22a10.18,10.18,0,0,1,3.29-1.42v1.37a13,13,0,0,0-3.27,1.22v6.61h-1.35Z" fill="#3a3d3f"/><path d="M215.55,432.72l0,1.06a31.12,31.12,0,0,1-3.51.29c-2.68,0-3.56-1.56-3.56-4.62,0-3.43,1.47-4.74,3.76-4.74s3.62,1.26,3.62,4.21l-.07,1h-5.94c0,1.93.59,2.93,2.35,2.93C213.58,432.88,215.55,432.72,215.55,432.72Zm-1-3.85c0-2.23-.68-3-2.27-3s-2.39.85-2.41,3Z" fill="#3a3d3f"/><path d="M223.81,425l-.06,1.1s-1.43-.16-2.12-.16c-2.07,0-2.63.9-2.63,3.31,0,2.66.42,3.64,2.65,3.64.68,0,2.12-.17,2.12-.17l.06,1.12a24.24,24.24,0,0,1-2.51.25c-2.86,0-3.7-1.31-3.7-4.84,0-3.26,1.06-4.52,3.74-4.52A20.89,20.89,0,0,1,223.81,425Z" fill="#3a3d3f"/><path d="M225.84,433.89V421h1.35v4.43a7.64,7.64,0,0,1,2.77-.68c2.47,0,3,1.22,3,4.43v4.75h-1.35v-4.72c0-2.37-.27-3.25-1.93-3.25a7.41,7.41,0,0,0-2.54.54v7.43Z" fill="#3a3d3f"/><path d="M241.86,432.22c0,.52.47.72,1,.79l-.06,1.06a2.75,2.75,0,0,1-2.14-.72,9.2,9.2,0,0,1-3.24.72c-1.64,0-2.54-.93-2.54-2.75s.9-2.49,2.76-2.67l2.82-.27v-.77c0-1.26-.54-1.71-1.62-1.71-1.26,0-3.4.23-3.4.23l-.05-1a21.57,21.57,0,0,1,3.52-.4c2,0,2.9.94,2.9,2.9Zm-4-2.56c-1.1.11-1.53.63-1.53,1.62s.45,1.66,1.37,1.66a9.47,9.47,0,0,0,2.82-.56v-3Z" fill="#3a3d3f"/><path d="M244.52,424.89h1.34v1.22a10.06,10.06,0,0,1,3.29-1.42v1.37a13.15,13.15,0,0,0-3.28,1.22v6.61h-1.35Z" fill="#3a3d3f"/><path d="M250.36,435.41c0-1.05.48-1.54,1.42-2.24a1.43,1.43,0,0,1-.51-1.24,5.78,5.78,0,0,1,.62-1.42c-.76-.35-1.43-1.06-1.43-2.72,0-2.22,1.37-3.08,3.37-3.08a9.43,9.43,0,0,1,1.87.23l2.67-.07V426l-1.71,0a2.34,2.34,0,0,1,.59,1.8c0,2.34-1.17,3-3.47,3a6.65,6.65,0,0,1-.88-.07,5.21,5.21,0,0,0-.33,1c0,.72.14.82,2.18.82,2.56,0,3.47.51,3.47,2.65s-1.45,2.86-4,2.86C251.38,438.12,250.36,437.49,250.36,435.41Zm2.34-1.7c-.76.56-1,.88-1,1.59,0,1.24.52,1.69,2.56,1.69,1.8,0,2.61-.49,2.61-1.68,0-1.36-.58-1.51-2.22-1.51C254,433.8,252.7,433.71,252.7,433.71Zm3.2-5.92c0-1.42-.56-2-2.07-2s-2,.56-2,2,.62,2,2,2S255.9,429.21,255.9,427.79Z" fill="#3a3d3f"/><path d="M266.65,432.72l0,1.06a31.12,31.12,0,0,1-3.51.29c-2.68,0-3.56-1.56-3.56-4.62,0-3.43,1.47-4.74,3.76-4.74S267,426,267,428.92l-.07,1H261c0,1.93.59,2.93,2.35,2.93C264.69,432.88,266.65,432.72,266.65,432.72Zm-1-3.85c0-2.23-.68-3-2.27-3s-2.39.85-2.41,3Z" fill="#3a3d3f"/><path d="M276,433.89h-1.33v-.61a6.49,6.49,0,0,1-2.74.79c-1.77,0-3.24-.72-3.24-4.61,0-3.17,1-4.75,3.76-4.75a15.79,15.79,0,0,1,2.22.23v-4H276Zm-1.33-1.69v-6.1a14.43,14.43,0,0,0-2.15-.22c-1.89,0-2.45,1.24-2.45,3.58,0,2.92,1,3.41,2,3.41A6.54,6.54,0,0,0,274.68,432.2Z" fill="#3a3d3f"/><path d="M284.3,433.89H283v-7.83h-1.13v-1.17H283v-.81c0-2.59.67-3.3,2.43-3.3.62,0,1.82.13,1.82.13l0,1.12s-1,0-1.54,0c-1,0-1.34.43-1.34,2.11v.79h2.61v1.17H284.3Z" fill="#3a3d3f"/><path d="M295.84,429.28c0,3.28-.81,4.79-3.85,4.79s-3.85-1.51-3.85-4.79c0-3.09,1-4.57,3.85-4.57S295.84,426.19,295.84,429.28Zm-1.38,0c0-2.5-.54-3.4-2.47-3.4s-2.47.9-2.47,3.4.35,3.62,2.47,3.62S294.46,431.84,294.46,429.28Z" fill="#3a3d3f"/><path d="M298,424.89h1.33v1.22a10.18,10.18,0,0,1,3.29-1.42v1.37a13,13,0,0,0-3.27,1.22v6.61H298Z" fill="#3a3d3f"/><path d="M312.64,422h1.29v11.88h-1.38V423.56l-3.06,2-.63-1Z" fill="#3a3d3f"/><path d="M322.26,433.89V421h1.36v4.43a7.64,7.64,0,0,1,2.77-.68c2.47,0,3,1.22,3,4.43v4.75h-1.35v-4.72c0-2.37-.27-3.25-1.93-3.25a7.39,7.39,0,0,0-2.53.54v7.43Z" fill="#3a3d3f"/><path d="M339.24,429.28c0,3.28-.81,4.79-3.85,4.79s-3.85-1.51-3.85-4.79c0-3.09,1-4.57,3.85-4.57S339.24,426.19,339.24,429.28Zm-1.39,0c0-2.5-.54-3.4-2.46-3.4s-2.47.9-2.47,3.4.34,3.62,2.47,3.62S337.85,431.84,337.85,429.28Z" fill="#3a3d3f"/><path d="M348.4,424.89v9h-1.35v-.63a6.07,6.07,0,0,1-2.66.81c-2.52,0-3.05-1.17-3.05-4.48v-4.7h1.36v4.68c0,2.49.21,3.3,1.89,3.3a5.4,5.4,0,0,0,2.46-.67v-7.31Z" fill="#3a3d3f"/><path d="M351,424.89h1.34v1.22a10.06,10.06,0,0,1,3.29-1.42v1.37a13.15,13.15,0,0,0-3.28,1.22v6.61H351Z" fill="#3a3d3f"/><path d="M361.18,424.89h1.33v.65a6.12,6.12,0,0,1,2.7-.83c2.27,0,3.26,1.39,3.26,4.57,0,3.53-1.15,4.79-3.92,4.79a11,11,0,0,1-2-.2v4h-1.35Zm1.35,1.75v6.06a12.8,12.8,0,0,0,2,.2c2,0,2.62-1,2.62-3.62s-.77-3.36-2.08-3.36A5.87,5.87,0,0,0,362.53,426.64Z" fill="#3a3d3f"/><path d="M370.67,424.89H372v1.22a10.18,10.18,0,0,1,3.29-1.42v1.37a13,13,0,0,0-3.27,1.22v6.61h-1.35Z" fill="#3a3d3f"/><path d="M384.2,429.28c0,3.28-.81,4.79-3.85,4.79s-3.85-1.51-3.85-4.79c0-3.09,1-4.57,3.85-4.57S384.2,426.19,384.2,429.28Zm-1.38,0c0-2.5-.54-3.4-2.47-3.4s-2.47.9-2.47,3.4.35,3.62,2.47,3.62S382.82,431.84,382.82,429.28Z" fill="#3a3d3f"/><path d="M387,424.89l2.11,7.83h.66l2.18-7.83h1.39l-2.54,9h-2.7l-2.54-9Z" fill="#3a3d3f"/><path d="M395.06,421.29h1.35v1.57h-1.35Zm0,3.6h1.35v9h-1.35Z" fill="#3a3d3f"/><path d="M405.91,433.89h-1.33v-.61a6.49,6.49,0,0,1-2.74.79c-1.76,0-3.24-.72-3.24-4.61,0-3.17,1-4.75,3.77-4.75a15.79,15.79,0,0,1,2.21.23v-4h1.33Zm-1.33-1.69v-6.1a14.27,14.27,0,0,0-2.14-.22c-1.89,0-2.45,1.24-2.45,3.58,0,2.92.95,3.41,2,3.41A6.53,6.53,0,0,0,404.58,432.2Z" fill="#3a3d3f"/><path d="M415.16,432.72l0,1.06a31.12,31.12,0,0,1-3.51.29c-2.68,0-3.57-1.56-3.57-4.62,0-3.43,1.48-4.74,3.77-4.74s3.62,1.26,3.62,4.21l-.08,1h-5.94c0,1.93.6,2.93,2.36,2.93C413.2,432.88,415.16,432.72,415.16,432.72Zm-1-3.85c0-2.23-.69-3-2.27-3s-2.4.85-2.42,3Z" fill="#3a3d3f"/><path d="M424.52,433.89h-1.33v-.61a6.49,6.49,0,0,1-2.74.79c-1.76,0-3.24-.72-3.24-4.61,0-3.17,1-4.75,3.77-4.75a15.79,15.79,0,0,1,2.21.23v-4h1.33Zm-1.33-1.69v-6.1a14.27,14.27,0,0,0-2.14-.22c-1.89,0-2.45,1.24-2.45,3.58,0,2.92.95,3.41,2,3.41A6.47,6.47,0,0,0,423.19,432.2Z" fill="#3a3d3f"/><path d="M438.38,422v1.26H432.6l-.32,3.87a6.87,6.87,0,0,1,2.79-.74c2.32,0,3.78,1,3.78,3.51,0,2.74-1.49,4.14-4,4.14a19.6,19.6,0,0,1-3.94-.52l.16-1.1a23.49,23.49,0,0,0,3.66.4,2.51,2.51,0,0,0,2.68-2.81c0-1.8-1-2.38-2.52-2.38a6.82,6.82,0,0,0-2.83.72l-.95-.18.32-6.17Z" fill="#3a3d3f"/><path d="M449.24,428.13c0,4.56-1.6,5.94-4.32,5.94s-4.34-1.35-4.34-5.92c0-4.9,1.58-6.34,4.32-6.34S449.24,423.23,449.24,428.13Zm-7.22,0c0,3.73,1,4.7,2.9,4.7s2.9-1,2.9-4.72c0-4-.92-5.08-2.9-5.08S442,424.1,442,428.15Z" fill="#3a3d3f"/><path d="M454.42,424.31c0,1.75-.77,2.54-2,2.54s-2-.79-2-2.54.76-2.48,2-2.48S454.42,422.58,454.42,424.31Zm-2,1.62c.67,0,.9-.55.9-1.62s-.23-1.56-.9-1.56-.88.5-.88,1.56S451.79,425.93,452.44,425.93Zm4-4.3.86.29-3.69,12.3-.86-.26Zm3.09,9.9c0,1.73-.77,2.54-2,2.54s-2-.81-2-2.55.74-2.47,2-2.47S459.53,429.8,459.53,431.53Zm-2,1.62c.69,0,.9-.55.9-1.62s-.21-1.56-.9-1.56-.88.5-.88,1.55S456.91,433.15,457.55,433.15Z" fill="#3a3d3f"/><path d="M465.29,433.89v-9h1.33v.63a6,6,0,0,1,2.63-.81,2.53,2.53,0,0,1,2.34.92,7.53,7.53,0,0,1,3.21-.92c2.45,0,3,1.17,3,4.43v4.75h-1.35v-4.72c0-2.37-.27-3.25-1.89-3.25a6,6,0,0,0-2.54.66,10.29,10.29,0,0,1,.24,2.63v4.68H471v-4.64c0-2.49-.26-3.33-1.9-3.33a5.45,5.45,0,0,0-2.41.66v7.31Z" fill="#3a3d3f"/><path d="M487.65,429.28c0,3.28-.81,4.79-3.85,4.79s-3.86-1.51-3.86-4.79c0-3.09,1-4.57,3.86-4.57S487.65,426.19,487.65,429.28Zm-1.39,0c0-2.5-.54-3.4-2.46-3.4s-2.47.9-2.47,3.4.34,3.62,2.47,3.62S486.26,431.84,486.26,429.28Z" fill="#3a3d3f"/><path d="M489.84,424.89h1.34v1.22a10.06,10.06,0,0,1,3.29-1.42v1.37a13.15,13.15,0,0,0-3.28,1.22v6.61h-1.35Z" fill="#3a3d3f"/><path d="M502.71,432.72l0,1.06a31.12,31.12,0,0,1-3.51.29c-2.68,0-3.57-1.56-3.57-4.62,0-3.43,1.48-4.74,3.77-4.74s3.62,1.26,3.62,4.21l-.07,1H497c0,1.93.6,2.93,2.36,2.93C500.75,432.88,502.71,432.72,502.71,432.72Zm-1-3.85c0-2.23-.69-3-2.27-3s-2.4.85-2.41,3Z" fill="#3a3d3f"/><path d="M37.06,453l-.05,1.1s-1.44-.16-2.13-.16c-2.07,0-2.63.9-2.63,3.31,0,2.66.42,3.64,2.65,3.64.68,0,2.12-.17,2.12-.17l.06,1.12a24.28,24.28,0,0,1-2.5.25c-2.87,0-3.71-1.31-3.71-4.84,0-3.26,1.06-4.52,3.74-4.52A20.89,20.89,0,0,1,37.06,453Z" fill="#3a3d3f"/><path d="M45.45,460.22c0,.52.47.72,1,.79l-.05,1.06a2.74,2.74,0,0,1-2.14-.72,9.22,9.22,0,0,1-3.25.72c-1.63,0-2.53-.93-2.53-2.75s.9-2.49,2.75-2.67l2.83-.27v-.77c0-1.26-.54-1.71-1.62-1.71-1.26,0-3.41.23-3.41.23l0-1a21.6,21.6,0,0,1,3.53-.4c2,0,2.9.94,2.9,2.9Zm-4-2.56c-1.1.11-1.53.63-1.53,1.62s.45,1.66,1.37,1.66a9.57,9.57,0,0,0,2.83-.56v-3Z" fill="#3a3d3f"/><path d="M48.11,452.89h1.33v.65a6.12,6.12,0,0,1,2.7-.83c2.27,0,3.26,1.39,3.26,4.57,0,3.53-1.15,4.79-3.92,4.79a11,11,0,0,1-2-.2v4H48.11Zm1.35,1.75v6.06a12.8,12.8,0,0,0,1.95.2c2,0,2.62-1,2.62-3.62s-.77-3.36-2.08-3.36A5.87,5.87,0,0,0,49.46,454.64Z" fill="#3a3d3f"/><path d="M64,460.22c0,.52.47.72,1,.79l-.06,1.06a2.75,2.75,0,0,1-2.14-.72,9.2,9.2,0,0,1-3.24.72c-1.64,0-2.54-.93-2.54-2.75s.9-2.49,2.75-2.67l2.83-.27v-.77c0-1.26-.54-1.71-1.62-1.71-1.26,0-3.4.23-3.4.23l-.06-1a21.6,21.6,0,0,1,3.53-.4c2,0,2.9.94,2.9,2.9Zm-4-2.56c-1.1.11-1.53.63-1.53,1.62s.45,1.66,1.36,1.66a9.48,9.48,0,0,0,2.83-.56v-3Z" fill="#3a3d3f"/><path d="M72.43,453l-.05,1.1s-1.45-.16-2.13-.16c-2.07,0-2.63.9-2.63,3.31,0,2.66.42,3.64,2.65,3.64.68,0,2.12-.17,2.12-.17l.06,1.12a24.24,24.24,0,0,1-2.51.25c-2.86,0-3.7-1.31-3.7-4.84,0-3.26,1.06-4.52,3.74-4.52A20.89,20.89,0,0,1,72.43,453Z" fill="#3a3d3f"/><path d="M74.46,449.29h1.35v1.57H74.46Zm0,3.6h1.35v9H74.46Z" fill="#3a3d3f"/><path d="M80.2,454.06v4.3c0,2,.13,2.52,1.3,2.52.5,0,1.6-.1,1.6-.1l.09,1.11a15.44,15.44,0,0,1-1.83.2c-1.86,0-2.49-.7-2.49-3.29v-4.74H77.59v-1.17h1.28v-2.76H80.2v2.76h2.87v1.17Z" fill="#3a3d3f"/><path d="M85.23,452.89l2.25,7.83h.59l2.27-7.83h1.35l-3.75,13H86.59l1.17-4H86.43l-2.56-9Z" fill="#3a3d3f"/><path d="M104.29,461.89H103v-.61a6.49,6.49,0,0,1-2.74.79c-1.77,0-3.24-.72-3.24-4.61,0-3.17,1-4.75,3.76-4.75a15.79,15.79,0,0,1,2.22.23v-4h1.33ZM103,460.2v-6.1a14.43,14.43,0,0,0-2.15-.22c-1.89,0-2.44,1.24-2.44,3.58,0,2.92.95,3.41,2,3.41A6.54,6.54,0,0,0,103,460.2Z" fill="#3a3d3f"/><path d="M113.86,452.89v9h-1.35v-.63a6.07,6.07,0,0,1-2.66.81c-2.52,0-3-1.17-3-4.48v-4.7h1.35v4.68c0,2.49.21,3.3,1.89,3.3a5.4,5.4,0,0,0,2.46-.67v-7.31Z" fill="#3a3d3f"/><path d="M116.45,452.89h1.34v1.22a10.06,10.06,0,0,1,3.29-1.42v1.37a13.15,13.15,0,0,0-3.28,1.22v6.61h-1.35Z" fill="#3a3d3f"/><path d="M122.68,449.29H124v1.57h-1.35Zm0,3.6H124v9h-1.35Z" fill="#3a3d3f"/><path d="M126.62,461.89v-9H128v.63a6.79,6.79,0,0,1,2.79-.81c2.48,0,3,1.22,3,4.43v4.75h-1.33v-4.72c0-2.37-.27-3.25-2-3.25a6.25,6.25,0,0,0-2.54.66v7.31Z" fill="#3a3d3f"/><path d="M135.89,463.41c0-1.05.49-1.54,1.43-2.24a1.43,1.43,0,0,1-.51-1.24,5.82,5.82,0,0,1,.61-1.42c-.75-.35-1.42-1.06-1.42-2.72,0-2.22,1.37-3.08,3.37-3.08a9.43,9.43,0,0,1,1.87.23l2.67-.07V454l-1.71,0a2.34,2.34,0,0,1,.59,1.8c0,2.34-1.17,3-3.48,3a6.79,6.79,0,0,1-.88-.07,5.32,5.32,0,0,0-.32,1c0,.72.14.82,2.18.82,2.55,0,3.47.51,3.47,2.65s-1.46,2.86-4,2.86C136.92,466.12,135.89,465.49,135.89,463.41Zm2.34-1.7c-.75.56-1,.88-1,1.59,0,1.24.52,1.69,2.55,1.69,1.8,0,2.61-.49,2.61-1.68,0-1.36-.57-1.51-2.21-1.51C139.55,461.8,138.23,461.71,138.23,461.71Zm3.21-5.92c0-1.42-.56-2-2.07-2s-2,.56-2,2,.61,2,2,2S141.44,457.21,141.44,455.79Z" fill="#3a3d3f"/><path d="M151.3,454.06v4.3c0,2,.13,2.52,1.3,2.52.5,0,1.6-.1,1.6-.1l.09,1.11a15.71,15.71,0,0,1-1.84.2c-1.85,0-2.48-.7-2.48-3.29v-4.74h-1.28v-1.17H150v-2.76h1.33v2.76h2.86v1.17Z" fill="#3a3d3f"/><path d="M155.82,461.89V449h1.35v4.43a7.64,7.64,0,0,1,2.77-.68c2.47,0,3.05,1.22,3.05,4.43v4.75h-1.35v-4.72c0-2.37-.27-3.25-1.93-3.25a7.41,7.41,0,0,0-2.54.54v7.43Z" fill="#3a3d3f"/><path d="M172.13,460.72l0,1.06a31.38,31.38,0,0,1-3.51.29c-2.69,0-3.57-1.56-3.57-4.62,0-3.43,1.48-4.74,3.76-4.74s3.62,1.26,3.62,4.21l-.07,1h-5.94c0,1.93.59,2.93,2.36,2.93C170.17,460.88,172.13,460.72,172.13,460.72Zm-1-3.85c0-2.23-.68-3-2.27-3s-2.39.85-2.41,3Z" fill="#3a3d3f"/><path d="M178.54,452.89h1.33v.65a6.12,6.12,0,0,1,2.7-.83c2.27,0,3.26,1.39,3.26,4.57,0,3.53-1.15,4.79-3.93,4.79a11,11,0,0,1-2-.2v4h-1.35Zm1.35,1.75v6.06a12.78,12.78,0,0,0,1.94.2c2,0,2.63-1,2.63-3.62s-.77-3.36-2.09-3.36A5.86,5.86,0,0,0,179.89,454.64Z" fill="#3a3d3f"/><path d="M188,452.89h1.33v1.22a10.17,10.17,0,0,1,3.3-1.42v1.37a13.15,13.15,0,0,0-3.28,1.22v6.61H188Z" fill="#3a3d3f"/><path d="M201.56,457.28c0,3.28-.81,4.79-3.85,4.79s-3.86-1.51-3.86-4.79c0-3.09,1-4.57,3.86-4.57S201.56,454.19,201.56,457.28Zm-1.39,0c0-2.5-.54-3.4-2.46-3.4s-2.47.9-2.47,3.4.34,3.62,2.47,3.62S200.17,459.84,200.17,457.28Z" fill="#3a3d3f"/><path d="M211,457.25c0,3.58-1,4.82-4.25,4.82-1.08,0-3-.2-3-.2V449h1.34v4.38a7.36,7.36,0,0,1,2.64-.63C210.18,452.71,211,454,211,457.25Zm-1.37,0c0-2.33-.47-3.33-2-3.33a7.57,7.57,0,0,0-2.5.52v6.34s1.17.09,1.65.09C209.21,460.87,209.64,459.77,209.64,457.25Z" fill="#3a3d3f"/><path d="M213.33,449h1.35v12.93h-1.35Z" fill="#3a3d3f"/><path d="M224,460.72l0,1.06a31.12,31.12,0,0,1-3.51.29c-2.68,0-3.57-1.56-3.57-4.62,0-3.43,1.48-4.74,3.77-4.74s3.62,1.26,3.62,4.21l-.08,1h-5.94c0,1.93.6,2.93,2.36,2.93C222.06,460.88,224,460.72,224,460.72Zm-1-3.85c0-2.23-.68-3-2.26-3s-2.4.85-2.42,3Z" fill="#3a3d3f"/><path d="M226.47,461.89v-9h1.33v.63a6,6,0,0,1,2.63-.81,2.53,2.53,0,0,1,2.34.92,7.47,7.47,0,0,1,3.21-.92c2.44,0,3,1.17,3,4.43v4.75h-1.35v-4.72c0-2.37-.27-3.25-1.89-3.25a6,6,0,0,0-2.54.66,10.4,10.4,0,0,1,.23,2.63v4.68h-1.35v-4.64c0-2.49-.25-3.33-1.89-3.33a5.39,5.39,0,0,0-2.41.66v7.31Z" fill="#3a3d3f"/><path d="M247.87,460.22c0,.52.47.72,1,.79l-.06,1.06a2.75,2.75,0,0,1-2.14-.72,9.2,9.2,0,0,1-3.24.72c-1.64,0-2.54-.93-2.54-2.75s.9-2.49,2.76-2.67l2.82-.27v-.77c0-1.26-.54-1.71-1.62-1.71-1.26,0-3.4.23-3.4.23l-.05-1a21.57,21.57,0,0,1,3.52-.4c2,0,2.9.94,2.9,2.9Zm-4-2.56c-1.1.11-1.53.63-1.53,1.62s.45,1.66,1.37,1.66a9.47,9.47,0,0,0,2.82-.56v-3Z" fill="#3a3d3f"/><path d="M252.33,454.06v4.3c0,2,.13,2.52,1.3,2.52.51,0,1.6-.1,1.6-.1l.09,1.11a15.44,15.44,0,0,1-1.83.2c-1.86,0-2.49-.7-2.49-3.29v-4.74h-1.28v-1.17H251v-2.76h1.33v2.76h2.87v1.17Z" fill="#3a3d3f"/><path d="M256.85,449.29h1.35v1.57h-1.35Zm0,3.6h1.35v9h-1.35Z" fill="#3a3d3f"/><path d="M266.61,453l-.05,1.1s-1.44-.16-2.13-.16c-2.07,0-2.63.9-2.63,3.31,0,2.66.42,3.64,2.65,3.64.68,0,2.13-.17,2.13-.17l.05,1.12a24.28,24.28,0,0,1-2.5.25c-2.87,0-3.71-1.31-3.71-4.84,0-3.26,1.06-4.52,3.74-4.52A20.89,20.89,0,0,1,266.61,453Z" fill="#3a3d3f"/><path d="M274.4,454.06v4.3c0,2,.13,2.52,1.3,2.52.5,0,1.6-.1,1.6-.1l.09,1.11a15.44,15.44,0,0,1-1.83.2c-1.86,0-2.49-.7-2.49-3.29v-4.74h-1.28v-1.17h1.28v-2.76h1.33v2.76h2.87v1.17Z" fill="#3a3d3f"/><path d="M278.92,449.29h1.35v1.57h-1.35Zm0,3.6h1.35v9h-1.35Z" fill="#3a3d3f"/><path d="M282.86,461.89v-9h1.34v.63a6,6,0,0,1,2.63-.81,2.54,2.54,0,0,1,2.34.92,7.46,7.46,0,0,1,3.2-.92c2.45,0,3,1.17,3,4.43v4.75h-1.35v-4.72c0-2.37-.27-3.25-1.89-3.25a6,6,0,0,0-2.54.66,9.85,9.85,0,0,1,.24,2.63v4.68h-1.35v-4.64c0-2.49-.25-3.33-1.89-3.33a5.46,5.46,0,0,0-2.42.66v7.31Z" fill="#3a3d3f"/><path d="M304.56,460.72l0,1.06a31.12,31.12,0,0,1-3.51.29c-2.68,0-3.56-1.56-3.56-4.62,0-3.43,1.47-4.74,3.76-4.74s3.62,1.26,3.62,4.21l-.07,1h-5.95c0,1.93.6,2.93,2.36,2.93C302.59,460.88,304.56,460.72,304.56,460.72Zm-1-3.85c0-2.23-.69-3-2.27-3s-2.4.85-2.41,3Z" fill="#3a3d3f"/><path d="M312.69,461.89h-1.35v-7.83H310.2v-1.17h1.14v-.81c0-2.59.67-3.3,2.43-3.3.61,0,1.82.13,1.82.13l0,1.12s-1,0-1.55,0c-1,0-1.33.43-1.33,2.11v.79h2.61v1.17h-2.61Z" fill="#3a3d3f"/><path d="M316.92,452.89h1.33v1.22a10.17,10.17,0,0,1,3.3-1.42v1.37a13,13,0,0,0-3.28,1.22v6.61h-1.35Z" fill="#3a3d3f"/><path d="M329.5,460.22c0,.52.47.72,1.05.79l-.06,1.06a2.75,2.75,0,0,1-2.14-.72,9.2,9.2,0,0,1-3.24.72c-1.64,0-2.54-.93-2.54-2.75s.9-2.49,2.76-2.67l2.82-.27v-.77c0-1.26-.54-1.71-1.62-1.71-1.26,0-3.4.23-3.4.23l-.05-1a21.57,21.57,0,0,1,3.52-.4c2,0,2.9.94,2.9,2.9Zm-4-2.56c-1.1.11-1.53.63-1.53,1.62s.45,1.66,1.37,1.66a9.47,9.47,0,0,0,2.82-.56v-3Z" fill="#3a3d3f"/><path d="M332.16,461.89v-9h1.34v.63a6,6,0,0,1,2.63-.81,2.54,2.54,0,0,1,2.34.92,7.46,7.46,0,0,1,3.2-.92c2.45,0,3,1.17,3,4.43v4.75h-1.35v-4.72c0-2.37-.27-3.25-1.89-3.25a6,6,0,0,0-2.54.66,9.85,9.85,0,0,1,.24,2.63v4.68h-1.35v-4.64c0-2.49-.25-3.33-1.89-3.33a5.46,5.46,0,0,0-2.42.66v7.31Z" fill="#3a3d3f"/><path d="M353.86,460.72l0,1.06a31.12,31.12,0,0,1-3.51.29c-2.68,0-3.56-1.56-3.56-4.62,0-3.43,1.47-4.74,3.76-4.74s3.62,1.26,3.62,4.21l-.07,1h-5.95c0,1.93.6,2.93,2.36,2.93C351.89,460.88,353.86,460.72,353.86,460.72Zm-1-3.85c0-2.23-.69-3-2.27-3s-2.4.85-2.41,3Z" fill="#3a3d3f"/><path d="M356.21,459.84h1.48v2.05h-1.48Z" fill="#3a3d3f"/><path d="M33.68,43.7v4.66H32.14V34.52H37.2c3,0,4.43,1.46,4.43,4.46s-1.4,4.72-4.43,4.72Zm3.51-1.36c2,0,2.85-1.22,2.85-3.36s-.84-3.1-2.85-3.1H33.68v6.46Z"/><path d="M45.54,43.06v5.3H44V34.52h5.12c2.91,0,4.42,1.28,4.42,4.2,0,2-.79,3.46-2.53,4l2.66,5.62H52l-2.5-5.3Zm3.58-7.18H45.54V41.7h3.6c2.08,0,2.82-1.24,2.82-3C52,36.82,51.06,35.88,49.12,35.88Z"/><path d="M56.32,34.52h8.43v1.36H57.86v4.78h5.68V42H57.86v5h6.89v1.36H56.32Z"/><path d="M76.85,34.52,73.22,48.36H69.78L66.16,34.52h1.6L70.94,47h1.12l3.19-12.48Z"/><path d="M79,34.52h1.54V48.36H79Z"/><path d="M83.38,41.5c0-4.56,1.18-7.18,5.46-7.18s5.49,2.58,5.49,7.18c0,4.76-1.19,7.06-5.49,7.06S83.38,46.14,83.38,41.5Zm9.34,0c0-3.74-.72-5.82-3.88-5.82S85,37.74,85,41.5s.68,5.7,3.88,5.7S92.72,45.4,92.72,41.5Z"/><path d="M101.82,47.2c2.16,0,3.38-.84,3.38-3V34.52h1.52v9.64c0,3.16-1.74,4.4-4.9,4.4S97,47.34,97,44.16V34.52h1.54V44.2C98.58,46.36,99.78,47.2,101.82,47.2Z"/><path d="M117.79,36s-2.79-.34-4-.34c-2,0-3,.7-3,2.26,0,1.8,1,2.1,3.38,2.64,2.76.62,4,1.3,4,3.72,0,3.06-1.67,4.26-4.42,4.26a36.39,36.39,0,0,1-4.38-.44l.16-1.28s2.72.36,4.14.36c2,0,3-.86,3-2.78,0-1.56-.82-2-3.08-2.44-2.86-.62-4.3-1.3-4.3-3.94s1.76-3.72,4.46-3.72a34.46,34.46,0,0,1,4.18.4Z"/><path d="M129.94,47.2c2.16,0,3.38-.84,3.38-3V34.52h1.52v9.64c0,3.16-1.74,4.4-4.9,4.4s-4.78-1.22-4.78-4.4V34.52h1.54V44.2C126.7,46.36,127.9,47.2,129.94,47.2Z"/><path d="M145.9,36s-2.78-.34-3.94-.34c-2,0-3,.7-3,2.26,0,1.8,1,2.1,3.38,2.64,2.76.62,4,1.3,4,3.72,0,3.06-1.68,4.26-4.42,4.26a36.39,36.39,0,0,1-4.38-.44l.16-1.28s2.72.36,4.14.36c2,0,3-.86,3-2.78,0-1.56-.82-2-3.08-2.44-2.86-.62-4.3-1.3-4.3-3.94s1.76-3.72,4.46-3.72a34.46,34.46,0,0,1,4.18.4Z"/><path d="M151.56,34.52h3.36l3.8,13.84H157.2l-1-3.56h-5.92l-1,3.56h-1.52Zm-.94,8.9h5.24l-2.1-7.58h-1Z"/><path d="M166.38,41.28h3.82v6.8a33.71,33.71,0,0,1-4.5.48c-4.24,0-5.36-2.6-5.36-7.08s1.16-7.16,5.32-7.16a25.77,25.77,0,0,1,4.54.52l-.06,1.28a31.73,31.73,0,0,0-4.3-.42c-3.2,0-3.9,1.86-3.9,5.78s.68,5.72,3.88,5.72a18.56,18.56,0,0,0,2.86-.28V42.66h-2.3Z"/><path d="M173.22,34.52h8.42v1.36h-6.88v4.78h5.68V42h-5.68v5h6.88v1.36h-8.42Z"/><line x1="32.32" y1="56.67" x2="531.91" y2="56.67" fill="none" stroke="#a2a7aa" stroke-miterlimit="10"/><g opacity="0.24" style="isolation:isolate"><g clip-path="url(#clip-path)"><path d="M532.75,230.9c-4.56-1.26-8-2.79-11.38-.56s-6.69,5.58-10.71,11.53-12.72,13.39-21.43,16.36-13.39,4.83-21.42,5.21-20.09-1.86-26.12,0-11.38,10-12.72,13-14,9.58-24.11,10c-28.79,1.3-52.9-5.64-57.58-5.76-14.06-.38-20,3.14-26.78,4.09-8,1.11-13.39,3.34-18.75,3.34s-20.09-7.43-29.46-8.18-20.35-6.69-22.76-6.69c-6,0-12.06,1.12-19.42-.37s-8.7-3.16-14.73-3.16-12,.37-17.41-2.23-9.37-.37-12.72,1.86-8,12.26-20.76,12.64S137,287.23,133,289.46s-14.73,1.5-19.42-.37-3.59-7.89-7.37-8.73c-6.69-1.5-26.78-2.61-30.8-1.12S62.72,267,59.37,262.88c-3.1-3.79-8.7-18.59-18.75-16.73-6.47,1.2-8.08.65-12,2.23a42.46,42.46,0,0,1-6.7,2.23l-1.33-3.72s10.71-29.37,30.12-22.68,16.74,17.1,23.44,13.38,6-.55,21.43,2,25.44,8.18,30.13,5.2,4.68-12.26,10-12.64,10.71,4.09,16.07,4.46,18.75,1.5,24.77,1.5,9.38-14.5,17.41-13,28.79,7.44,32.15,12.27,10.71,1.5,12.05-.74,5.36-8.55,16.07-3.35,30.13,16.36,32.81,13.76,11.38-12.65,23.43-9.3S338.59,259,338.59,259s22.76,11.9,35.48,15.24,26.79,3.35,31.47-1.49,15.4-23.42,20.09-26,18.75-1.86,24.78-.75,21.42,6.69,26.78,5.58,14.06-2.6,16.74-6.69S504.64,229.22,510,225.5s9.37-10.41,18.08-7.06,12.72,8,12.72,8v7.81s-2-1.66-8-3.34" fill="#f2a120"/></g></g><g opacity="0.31" style="isolation:isolate"><g clip-path="url(#clip-path-2)"><path d="M542.42,225.17s-10-8.18-16.07-7.06-12.4,2-15.74,9.48-16.75,20.82-29.48,21.94-22.78-3.35-27.47-3.35-22.11-4.09-24.11,1.86S414.14,270,408.78,273.33s-13.4,4.83-18.09,4.09-20.77-2.23-22.78-2.23-13.4-4.09-19.43-4.84-10-5.57-20.76-10.78-23.45-15.24-26.8-14.13-8,6.69-14.74,5.95-15.4-9.67-20.09-9.3S250.68,234.28,248,235s-9.38,8.55-14.07,8.17-15.41-12.64-22.78-12.64-12.05-3-18.09,0-6,11.53-11.38,11.53-11.39-2.6-16.75-3-10.72,1.5-14.07,1.5-9.38-3.72-14.74-.37-5.36,7.06-16.08,6.32S89.23,238,85.21,241.35s-7-2.42-15.08-4.28S51.38,228.15,46,227.41s-16.75,7.06-18.09,8.92a34.5,34.5,0,0,0-2.68,4.83v3s1.58-2.29,6.7-4.1c7.37-2.6,8.81-3.13,18.09.38C64.77,246,66.11,269.05,71.47,268.3s7.37,5.21,14.07,4.09,22.44.19,27.8,1.3,10.72,3.35,14.07-.74,10.72-5.2,16.75-5.2,17.42-3.35,19.43-1.86S175,273,179,269.23s10.72-15.24,19.43-15.61,26.8,1.12,29.48,4.83,12.4,6.88,13.06,5,2.35-7.25,11.72-1.3,19.43,3.35,20.77,5.95,6.7,7.06,16.08,7.81,21.77.18,25.79,2.41,8-3.71,17.42-4.09a161.79,161.79,0,0,1,20.77.38c3.35.37,18.42,5.39,27.13,5.39s28.13.37,30.81-1.49,14.07-4.09,16.08-9.3,6-14.13,28.14-12.27,41.53-4.83,50.91-16,12.73-17.85,19.43-17.1a63.35,63.35,0,0,1,11.72,2.41l4.69,2.6Z" fill="#f2a120"/></g></g><path d="M534.1,192.72a6.82,6.82,0,0,1,.9.07c4.27.66,11.18,5.82,11.71,6.44v2.23c-1.86-2.17-9.69-7.2-12.25-7.59a1.76,1.76,0,0,0-.91.06c-2,.73-6.91,5.44-11.68,10A156.64,156.64,0,0,1,509,215.37a60.68,60.68,0,0,1-32.87,11.75c-3.69.12-6.47,0-8.92-.11-5.52-.25-8.56-.38-15.27,2.6-4.48,2-7.78,5.11-11,8.13-3.92,3.7-7.62,7.19-13.31,8.67-10.35,2.68-25.94,10.83-35.37,10.08-2.74-.21-6.62-.73-11.11-1.33-10.49-1.39-24.85-3.31-31.24-2-7.9,1.57-38.11,4.05-49.91.43-2.88-.88-5.61-1.72-7.77-2.31-3.09-.86-5.87-1.58-8.57-2.26a240.39,240.39,0,0,1-23.64-7.07c-13.83-4.89-24.75-.49-30.92,2.55-3.63,1.8,4.12-12.25-1.67-13.62-4.84-1.13-8.2,1.4-11.3,2.19a48.9,48.9,0,0,0-8.86,3.58c-4.35,2.1-14.64,10-20.74,10.95-3.93.58-9,1-14,1.4-7.84.65-16,1.31-19.89,2.63-4.46,1.48-10.78,4.89-16.54,3.68a102.48,102.48,0,0,0-12.91-2.12,26.73,26.73,0,0,1-9.84-2.31c-2.56-1.11-3-4-13.43-4-9.56,0-14.29-5.58-18.41-4.09-3.8,1.38-4.53-3.87-8.87-5.28l-.62-.2c-7.65-2.49-14.72-23.42-29.33-21.66-14.8,1.79-11.86,7.3-13.38,1.86v-1.12c.11-.09.66-.37,2.68-1.49,3.73-2.07.58-3.24,10.7-4.46,15.38-1.86,21.86,22.82,29.45,25.28l2,.74c3.27,1.06,3.76,6.14,7.36,4.84,4.12-1.49,7.25-1.86,17.4-1.86,11.14,0,15,2,17.67,3.12a23.81,23.81,0,0,0,8.93,2.09A148.52,148.52,0,0,1,141,246.83c5.7,1.2,6.37-4.29,10-5.5,4.29-1.43,2.86-6.12,10.9-6.77,4.88-.41,7.55-9.48,11.37-10,5.65-.84,17-11.65,21.42-13.76,3.16-1.52,14.88.8,18.07,0,3.89-1,9.23,13,14.47,14.21s6.26,11.65,9,10.33c6.7-3.32,14.94-2.14,29.65,3.06a237.37,237.37,0,0,0,23.4,7c2.71.69,5.51,1.41,8.63,2.28,2.19.61,4.94,1.45,7.84,2.34,10.82,3.31,34.54-6.95,41.57-8.35s21.47,2.21,32.79,3.72c4.45.59,9.88.54,12.53.75,9.1.72,24.19,1.9,34.23-.7,5.13-1.33,8.68-4.68,12.44-8.23,3.28-3.1,6.68-6.31,11.45-8.43,7.33-3.26,11-3.09,16.69-2.84,2.39.1,5.09.23,8.65.11,12.4-.38,24.34-6.08,31.37-11.3a157.27,157.27,0,0,0,12.71-11.34c6.17-5.88,10.06-9.53,12.3-10.36a5,5,0,0,1,1.66-.28" fill="#3899e8" opacity="0.51"/><rect x="29.38" y="192.72" width="517.33" height="63.83" fill="none"/><path d="M27.33,215.24c.18,5.33.17,1.91,14.88.13s17.41,17.85,29.34,19.43l.63.2c4.34,1.41,6.68,5.53,10.48,4.16,4.12-1.49,8.92.38,18.48.38,10.46,0,9.88,7.36,12.43,8.47a26.62,26.62,0,0,0,9.85,2.3,104.5,104.5,0,0,1,12.92,2.13c5.77,1.21,12.08-2.2,16.55-3.68,3.94-1.32,4.69-2.73,12.53-3.37,5-.41,10.06-.83,14-1.41,6.1-.9,16.4-8.85,20.75-10.94a48.74,48.74,0,0,1,8.87-3.59c3.1-.78,14.8-4.07,19.64-2.93,5.8,1.37-1.6,15,2,13.25,6.17-3,17.1-7.44,30.94-2.55a240.39,240.39,0,0,0,23.64,7.07c2.7.69,5.49,1.4,8.58,2.26,2.16.6,4.89,1.43,7.77,2.32,11.81,3.61,41.37.38,49.27-1.18,6.4-1.27,20.76.64,31.26,2,4.49.6,8.38,1.11,11.11,1.33,9.44.75,24.37-4.8,34.72-7.48,5.7-1.48,9.4-5,13.32-8.67,3.2-3,6.5-6.14,11-8.13,6.71-3,9.75-2.85,15.28-2.6,2.45.11,5.23.23,8.92.11a60.74,60.74,0,0,0,32.89-11.75,156.77,156.77,0,0,0,12.85-11.45c4.77-4.55,9.71-9.25,11.68-10a1.7,1.7,0,0,1,.92-.07c2.56.39,10.39,5.42,12.25,7.6v-2.23c-.53-.63-7.44-5.79-11.72-6.44a5.46,5.46,0,0,0-.9-.07,4.67,4.67,0,0,0-1.66.28c-2.25.83-6.14,4.47-12.31,10.35a153.55,153.55,0,0,1-12.71,11.34c-7.05,5.22-19,10.92-31.4,11.31-3.56.11-6.26,0-8.65-.12-5.64-.25-9.36-.42-16.7,2.84-4.77,2.12-8.17,5.33-11.46,8.44-3.75,3.55-7.3,6.89-12.44,8.23-10,2.6-26.49,3.65-35.59,2.92-2.64-.21-6.48-.72-10.93-1.31-11.33-1.51-25.43-5.65-32.4-4.27s-34.78,11.29-45.61,8c-2.91-.89-5.65-1.73-7.84-2.34-3.13-.87-5.93-1.59-8.64-2.28a235.86,235.86,0,0,1-23.42-7c-14.72-5.2-20.28-5.62-27-2.32-2.69,1.33-3.06-10.58-8.28-11.81s-11.93-3.3-15.83-2.32c-3.18.81-12.23-3.75-15.4-2.23-4.39,2.11-11.08,15.16-16.74,16-3.82.57-8.5,3.32-13.39,3.72-8,.66-9.11,2.66-13.39,4.09-3.63,1.21-7,6-12.72,4.83-3.84-.81-11.11.09-16.25-.36a24.2,24.2,0,0,1-8.93-2.09c-2.72-1.17-3.18-5.73-14.33-5.73-10.16,0-14.79-1.31-18.9.17-3.61,1.3-3.77-5-7-6l-.63-.2c-4.9-3.59-14.28-29.25-31-26.28,0,0-15.71,5-15.55,9.54" fill="#3899e8" opacity="0.5"/><rect x="27.33" y="189.89" width="519.77" height="62.8" fill="none"/><g style="mix-blend-mode:multiply"><rect x="280.67" y="176.46" width="54.85" height="141.23" fill="#edf4f9"/><g clip-path="url(#clip-path-3)"><rect x="280.67" y="176.45" width="54.85" height="141.23" fill="#edf4f9"/></g></g></g></g></g></svg>