<svg xmlns="http://www.w3.org/2000/svg" xmlns:xlink="http://www.w3.org/1999/xlink" viewBox="0 0 579.59 494.77"><defs><clipPath id="clip-path"><rect x="87.65" y="135.93" width="12.28" height="79.78" fill="#76ce89"/></clipPath><clipPath id="clip-path-2"><rect x="105.58" y="148.7" width="12.25" height="67.01" fill="#76ce89"/></clipPath><clipPath id="clip-path-3"><rect x="123.47" y="148.73" width="12.25" height="66.99" fill="#76ce89"/></clipPath><clipPath id="clip-path-4"><rect x="141.36" y="148.73" width="12.25" height="66.99" fill="#76ce89"/></clipPath><clipPath id="clip-path-5"><rect x="159.25" y="156.86" width="12.22" height="58.85" fill="#76ce89"/></clipPath><clipPath id="clip-path-6"><rect x="177.11" y="163.83" width="12.23" height="51.88" fill="#76ce89"/></clipPath><clipPath id="clip-path-7"><rect x="194.99" y="175.82" width="12.21" height="39.89" fill="#ffda00"/></clipPath><clipPath id="clip-path-8"><rect x="212.84" y="179.82" width="12.19" height="35.9" fill="#ffda00"/></clipPath><clipPath id="clip-path-9"><rect x="230.68" y="148.7" width="12.18" height="67.01" fill="#76ce89"/></clipPath><clipPath id="clip-path-10"><rect x="248.5" y="152.21" width="12.17" height="63.5" fill="#76ce89"/></clipPath><clipPath id="clip-path-11"><rect x="266.32" y="152.21" width="12.25" height="63.5" fill="#76ce89"/></clipPath><clipPath id="clip-path-12"><rect x="284.21" y="152.21" width="12.24" height="63.5" fill="#76ce89"/></clipPath><clipPath id="clip-path-13"><rect x="302.09" y="152.21" width="12.23" height="63.5" fill="#76ce89"/></clipPath><clipPath id="clip-path-14"><rect x="319.97" y="160.22" width="12.23" height="55.5" fill="#76ce89"/></clipPath><clipPath id="clip-path-15"><rect x="337.84" y="162.99" width="12.22" height="52.72" fill="#76ce89"/></clipPath><clipPath id="clip-path-16"><rect x="355.7" y="165.6" width="12.2" height="50.12" fill="#76ce89"/></clipPath><clipPath id="clip-path-17"><rect x="373.55" y="165.6" width="12.2" height="50.12" fill="#76ce89"/></clipPath><clipPath id="clip-path-18"><rect x="391.4" y="165.6" width="12.2" height="50.12" fill="#76ce89"/></clipPath><clipPath id="clip-path-19"><rect x="409.25" y="170.07" width="12.2" height="45.64" fill="#76ce89"/></clipPath><clipPath id="clip-path-20"><rect x="427.09" y="170.07" width="12.19" height="45.64" fill="#76ce89"/></clipPath><clipPath id="clip-path-21"><rect x="444.93" y="170.07" width="12.19" height="45.64" fill="#76ce89"/></clipPath><clipPath id="clip-path-22"><rect x="462.76" y="173.13" width="12.18" height="42.59" fill="#76ce89"/></clipPath><clipPath id="clip-path-23"><rect x="480.59" y="183.57" width="12.15" height="32.14" fill="none"/></clipPath><clipPath id="clip-path-24"><rect x="69.71" y="130.12" width="12.3" height="85.65" fill="#76ce89"/></clipPath><clipPath id="clip-path-25"><rect x="51.75" y="124.31" width="12.32" height="91.52" fill="#76ce89"/></clipPath></defs><title>r_0_B_Tablet</title><g id="Layer_2" data-name="Layer 2"><g id="Selection_Feedback"><rect y="0.5" width="579.59" height="494.27" fill="#f7f7f7"/></g><g id="Layer_1-2" data-name="Layer 1"><line x1="0.23" y1="0.5" x2="579.59" y2="0.5" fill="none" stroke="#ddd" stroke-miterlimit="10"/><path d="M37.28,33.4h3.36l3.8,13.84H42.92l-1-3.56H36l-1,3.56H33.48Zm-.94,8.9h5.24l-2.1-7.58h-1Z"/><path d="M52.1,40.16h3.82V47a33.71,33.71,0,0,1-4.5.48c-4.24,0-5.36-2.6-5.36-7.08s1.16-7.16,5.32-7.16a25.77,25.77,0,0,1,4.54.52L55.86,35a31.73,31.73,0,0,0-4.3-.42c-3.2,0-3.9,1.86-3.9,5.78s.68,5.72,3.88,5.72a18.56,18.56,0,0,0,2.86-.28V41.54H52.1Z"/><path d="M68.4,33.4,64.78,47.24H61.34L57.72,33.4h1.6L62.5,45.88h1.12L66.8,33.4Z"/><path d="M82.82,34v1.4H76.4L76,39.74a7.62,7.62,0,0,1,3.1-.82c2.58,0,4.2,1.08,4.2,3.9,0,3-1.66,4.6-4.42,4.6a21.77,21.77,0,0,1-4.38-.58l.18-1.22a26.33,26.33,0,0,0,4.06.44,2.79,2.79,0,0,0,3-3.12c0-2-1.12-2.64-2.8-2.64a7.57,7.57,0,0,0-3.14.8l-1.06-.2L75.12,34Z"/><path d="M30.63,421.43h9v1.25h-3.8v11.21H34.46V422.68H30.63Z" fill="#3a3d3f"/><path d="M48.47,429.28c0,3.28-.81,4.79-3.86,4.79s-3.85-1.51-3.85-4.79c0-3.09,1-4.57,3.85-4.57S48.47,426.19,48.47,429.28Zm-1.39,0c0-2.5-.54-3.4-2.47-3.4s-2.46.9-2.46,3.4.34,3.62,2.46,3.62S47.08,431.84,47.08,429.28Z" fill="#3a3d3f"/><path d="M57.57,433.89H56.24v-.61a6.42,6.42,0,0,1-2.73.79c-1.77,0-3.25-.72-3.25-4.61,0-3.17,1-4.75,3.77-4.75a15.79,15.79,0,0,1,2.21.23v-4h1.33Zm-1.33-1.69v-6.1a14.27,14.27,0,0,0-2.14-.22c-1.89,0-2.45,1.24-2.45,3.58,0,2.92,1,3.41,2,3.41A6.47,6.47,0,0,0,56.24,432.2Z" fill="#3a3d3f"/><path d="M66.54,432.22c0,.52.47.72,1,.79l0,1.06a2.74,2.74,0,0,1-2.14-.72,9.22,9.22,0,0,1-3.25.72c-1.63,0-2.53-.93-2.53-2.75s.9-2.49,2.75-2.67l2.83-.27v-.77c0-1.26-.54-1.71-1.62-1.71-1.26,0-3.41.23-3.41.23l0-1a21.6,21.6,0,0,1,3.53-.4c2,0,2.9.94,2.9,2.9Zm-4-2.56c-1.09.11-1.53.63-1.53,1.62s.45,1.66,1.37,1.66a9.57,9.57,0,0,0,2.83-.56v-3Z" fill="#3a3d3f"/><path d="M69.7,424.89,72,432.72h.6l2.27-7.83h1.35l-3.75,13H71.07l1.17-4H70.91l-2.56-9Z" fill="#3a3d3f"/><path d="M81.85,421.29H83.2v1.57H81.85Zm0,3.6H83.2v9H81.85Z" fill="#3a3d3f"/><path d="M87.59,426.06v4.3c0,2,.13,2.52,1.3,2.52.51,0,1.6-.1,1.6-.1l.09,1.11a15.44,15.44,0,0,1-1.83.2c-1.86,0-2.49-.7-2.49-3.29v-4.74H85v-1.17h1.28v-2.75h1.33v2.75h2.87v1.17Z" fill="#3a3d3f"/><path d="M96.07,421.29h1.35v1.57H96.07Zm0,3.6h1.35v9H96.07Z" fill="#3a3d3f"/><path d="M106,426.2a30.35,30.35,0,0,0-3.15-.28c-1.11,0-2,.3-2,1.36,0,.85.43,1.09,2.34,1.41,2.25.38,3.1.83,3.1,2.57,0,2.11-1.34,2.81-3.5,2.81a25.4,25.4,0,0,1-3.16-.34l.07-1.17a29.5,29.5,0,0,0,3,.31c1.48,0,2.27-.33,2.27-1.55,0-.94-.47-1.17-2.43-1.48s-3-.7-3-2.5c0-2,1.6-2.63,3.24-2.63a23.19,23.19,0,0,1,3.26.34Z" fill="#3a3d3f"/><path d="M112.35,424.89h1.33v.65a6.12,6.12,0,0,1,2.7-.83c2.27,0,3.26,1.39,3.26,4.57,0,3.53-1.15,4.79-3.93,4.79a11,11,0,0,1-2-.2v4h-1.35Zm1.35,1.75v6.06a12.78,12.78,0,0,0,1.94.2c2,0,2.63-1,2.63-3.62s-.77-3.36-2.09-3.36A5.86,5.86,0,0,0,113.7,426.64Z" fill="#3a3d3f"/><path d="M129.14,429.28c0,3.28-.81,4.79-3.85,4.79s-3.85-1.51-3.85-4.79c0-3.09,1-4.57,3.85-4.57S129.14,426.19,129.14,429.28Zm-1.38,0c0-2.5-.54-3.4-2.47-3.4s-2.47.9-2.47,3.4.34,3.62,2.47,3.62S127.76,431.84,127.76,429.28Z" fill="#3a3d3f"/><path d="M137.31,426.2a30.35,30.35,0,0,0-3.15-.28c-1.11,0-2,.3-2,1.36,0,.85.43,1.09,2.34,1.41,2.25.38,3.1.83,3.1,2.57,0,2.11-1.34,2.81-3.5,2.81a25.4,25.4,0,0,1-3.16-.34l.07-1.17a29.5,29.5,0,0,0,3,.31c1.48,0,2.27-.33,2.27-1.55,0-.94-.47-1.17-2.43-1.48s-3-.7-3-2.5c0-2,1.6-2.63,3.24-2.63a23.19,23.19,0,0,1,3.26.34Z" fill="#3a3d3f"/><path d="M145.68,426.2a30.35,30.35,0,0,0-3.15-.28c-1.11,0-2,.3-2,1.36,0,.85.43,1.09,2.34,1.41,2.25.38,3.1.83,3.1,2.57,0,2.11-1.33,2.81-3.5,2.81a25.4,25.4,0,0,1-3.16-.34l.07-1.17a29.5,29.5,0,0,0,3,.31c1.48,0,2.27-.33,2.27-1.55,0-.94-.47-1.17-2.43-1.48s-3-.7-3-2.5c0-2,1.6-2.63,3.24-2.63a23.19,23.19,0,0,1,3.26.34Z" fill="#3a3d3f"/><path d="M148.08,421.29h1.35v1.57h-1.35Zm0,3.6h1.35v9h-1.35Z" fill="#3a3d3f"/><path d="M159.27,429.25c0,3.58-1,4.82-4.25,4.82-1.08,0-3-.2-3-.2V421h1.33v4.37a7.44,7.44,0,0,1,2.65-.63C158.45,424.71,159.27,426,159.27,429.25Zm-1.36,0c0-2.33-.47-3.33-2.06-3.33a7.57,7.57,0,0,0-2.5.52v6.34s1.17.09,1.66.09C157.47,432.87,157.91,431.77,157.91,429.25Z" fill="#3a3d3f"/><path d="M161.59,421h1.35v12.92h-1.35Z" fill="#3a3d3f"/><path d="M172.29,432.72l0,1.06a31.12,31.12,0,0,1-3.51.29c-2.68,0-3.56-1.56-3.56-4.62,0-3.43,1.47-4.74,3.76-4.74s3.62,1.26,3.62,4.21l-.07,1h-5.94c0,1.93.59,2.93,2.35,2.93C170.32,432.88,172.29,432.72,172.29,432.72Zm-1-3.85c0-2.23-.69-3-2.27-3s-2.39.85-2.41,3Z" fill="#3a3d3f"/><path d="M180.49,426.06v4.3c0,2,.13,2.52,1.3,2.52.5,0,1.6-.1,1.6-.1l.09,1.11a15.44,15.44,0,0,1-1.83.2c-1.86,0-2.49-.7-2.49-3.29v-4.74h-1.28v-1.17h1.28v-2.75h1.33v2.75h2.87v1.17Z" fill="#3a3d3f"/><path d="M192.32,429.28c0,3.28-.81,4.79-3.85,4.79s-3.85-1.51-3.85-4.79c0-3.09,1-4.57,3.85-4.57S192.32,426.19,192.32,429.28Zm-1.39,0c0-2.5-.54-3.4-2.46-3.4s-2.47.9-2.47,3.4.34,3.62,2.47,3.62S190.93,431.84,190.93,429.28Z" fill="#3a3d3f"/><path d="M204.29,425l0,1.1s-1.44-.16-2.13-.16c-2.07,0-2.63.9-2.63,3.31,0,2.66.42,3.64,2.65,3.64.68,0,2.13-.17,2.13-.17l.05,1.12a24,24,0,0,1-2.5.25c-2.87,0-3.71-1.31-3.71-4.84,0-3.26,1.06-4.52,3.74-4.52A20.89,20.89,0,0,1,204.29,425Z" fill="#3a3d3f"/><path d="M206.32,433.89V421h1.35v4.42a7.65,7.65,0,0,1,2.78-.68c2.46,0,3,1.22,3,4.43v4.75h-1.35v-4.71c0-2.38-.27-3.26-1.93-3.26a7.41,7.41,0,0,0-2.54.54v7.43Z" fill="#3a3d3f"/><path d="M222.34,432.22c0,.52.47.72,1,.79l0,1.06a2.76,2.76,0,0,1-2.15-.72,9.2,9.2,0,0,1-3.24.72c-1.64,0-2.54-.93-2.54-2.75s.9-2.49,2.76-2.67l2.82-.27v-.77c0-1.26-.54-1.71-1.62-1.71-1.26,0-3.4.23-3.4.23l-.05-1a21.6,21.6,0,0,1,3.53-.4c2,0,2.89.94,2.89,2.9Zm-4-2.56c-1.1.11-1.53.63-1.53,1.62s.45,1.66,1.37,1.66a9.47,9.47,0,0,0,2.82-.56v-3Z" fill="#3a3d3f"/><path d="M225,424.89h1.33v1.22a10.18,10.18,0,0,1,3.29-1.42v1.37a13,13,0,0,0-3.27,1.22v6.61H225Z" fill="#3a3d3f"/><path d="M230.84,435.41c0-1.05.48-1.54,1.42-2.24a1.46,1.46,0,0,1-.5-1.24,5.82,5.82,0,0,1,.61-1.42c-.76-.34-1.42-1.06-1.42-2.72,0-2.22,1.36-3.08,3.36-3.08a9.6,9.6,0,0,1,1.88.23l2.66-.07V426l-1.71,0a2.34,2.34,0,0,1,.59,1.8c0,2.34-1.17,3-3.47,3a6.65,6.65,0,0,1-.88-.07,5.21,5.21,0,0,0-.33,1c0,.72.15.82,2.18.82,2.56,0,3.48.51,3.48,2.65s-1.46,2.86-4,2.86C231.86,438.12,230.84,437.49,230.84,435.41Zm2.34-1.7c-.76.56-1,.88-1,1.59,0,1.24.52,1.69,2.56,1.69,1.8,0,2.61-.49,2.61-1.67,0-1.37-.58-1.52-2.22-1.52C234.49,433.8,233.18,433.71,233.18,433.71Zm3.2-5.92c0-1.42-.55-2-2.07-2s-2,.56-2,2,.61,2,2,2S236.38,429.21,236.38,427.79Z" fill="#3a3d3f"/><path d="M247.13,432.72l0,1.06a31.4,31.4,0,0,1-3.52.29c-2.68,0-3.56-1.56-3.56-4.62,0-3.43,1.48-4.74,3.76-4.74s3.62,1.26,3.62,4.21l-.07,1h-5.94c0,1.93.59,2.93,2.36,2.93C245.17,432.88,247.13,432.72,247.13,432.72Zm-1-3.85c0-2.23-.68-3-2.27-3s-2.39.85-2.41,3Z" fill="#3a3d3f"/><path d="M256.09,421.43h3l3.42,12.46h-1.37l-.9-3.2h-5.33l-.9,3.2h-1.37Zm-.84,8H260l-1.89-6.83h-.93Z" fill="#3a3d3f"/><path d="M269.43,427.52h3.44v6.12a30.76,30.76,0,0,1-4.05.43c-3.82,0-4.83-2.34-4.83-6.37s1.05-6.45,4.79-6.45a23.17,23.17,0,0,1,4.09.47l-.05,1.15a29.35,29.35,0,0,0-3.88-.37c-2.88,0-3.51,1.67-3.51,5.2s.62,5.15,3.5,5.15a16.71,16.71,0,0,0,2.57-.25v-3.84h-2.07Z" fill="#3a3d3f"/><path d="M284.1,421.43l-3.26,12.46h-3.09l-3.26-12.46h1.44l2.86,11.24h1l2.86-11.24Z" fill="#3a3d3f"/><path d="M293.12,422v1.26h-5.78l-.33,3.87a6.88,6.88,0,0,1,2.8-.74c2.32,0,3.78,1,3.78,3.51,0,2.74-1.5,4.14-4,4.14a19.6,19.6,0,0,1-3.94-.52l.16-1.1a23.46,23.46,0,0,0,3.65.4,2.5,2.5,0,0,0,2.68-2.81c0-1.8-1-2.38-2.52-2.38a6.74,6.74,0,0,0-2.82.73l-1-.18.33-6.18Z" fill="#3a3d3f"/><path d="M299.87,421.29h1.35v1.57h-1.35Zm0,3.6h1.35v9h-1.35Z" fill="#3a3d3f"/><path d="M303.81,433.89v-9h1.33v.63a6.85,6.85,0,0,1,2.79-.81c2.49,0,3,1.22,3,4.43v4.75h-1.33v-4.71c0-2.38-.27-3.26-1.94-3.26a6.19,6.19,0,0,0-2.54.66v7.31Z" fill="#3a3d3f"/><path d="M323.79,432.22c0,.52.47.72,1,.79l-.05,1.06a2.75,2.75,0,0,1-2.14-.72,9.2,9.2,0,0,1-3.24.72c-1.64,0-2.54-.93-2.54-2.75s.9-2.49,2.75-2.67l2.83-.27v-.77c0-1.26-.54-1.71-1.62-1.71-1.26,0-3.4.23-3.4.23l-.06-1a21.6,21.6,0,0,1,3.53-.4c2,0,2.9.94,2.9,2.9Zm-4-2.56c-1.09.11-1.53.63-1.53,1.62s.45,1.66,1.37,1.66a9.48,9.48,0,0,0,2.83-.56v-3Z" fill="#3a3d3f"/><path d="M330.52,421h1.35v12.92h-1.35Z" fill="#3a3d3f"/><path d="M341.21,432.72l0,1.06a31.12,31.12,0,0,1-3.51.29c-2.68,0-3.57-1.56-3.57-4.62,0-3.43,1.48-4.74,3.77-4.74s3.62,1.26,3.62,4.21l-.08,1h-5.94c0,1.93.6,2.93,2.36,2.93C339.25,432.88,341.21,432.72,341.21,432.72Zm-1-3.85c0-2.23-.69-3-2.27-3s-2.4.85-2.42,3Z" fill="#3a3d3f"/><path d="M349.64,426.2a30.35,30.35,0,0,0-3.15-.28c-1.12,0-2,.3-2,1.36,0,.85.44,1.09,2.34,1.41,2.26.38,3.1.83,3.1,2.57,0,2.11-1.33,2.81-3.49,2.81a25.65,25.65,0,0,1-3.17-.34l.07-1.17a29.5,29.5,0,0,0,3,.31c1.48,0,2.27-.33,2.27-1.55,0-.94-.47-1.17-2.43-1.48s-3-.7-3-2.5c0-2,1.61-2.63,3.24-2.63a23.19,23.19,0,0,1,3.26.34Z" fill="#3a3d3f"/><path d="M358,426.2a30.35,30.35,0,0,0-3.15-.28c-1.12,0-2,.3-2,1.36,0,.85.44,1.09,2.34,1.41,2.26.38,3.1.83,3.1,2.57,0,2.11-1.33,2.81-3.49,2.81a25.65,25.65,0,0,1-3.17-.34l.07-1.17a29.5,29.5,0,0,0,3,.31c1.48,0,2.27-.33,2.27-1.55,0-.94-.47-1.17-2.43-1.48s-3-.7-3-2.5c0-2,1.61-2.63,3.24-2.63a23,23,0,0,1,3.26.34Z" fill="#3a3d3f"/><path d="M364.36,421.29h1.35v1.57h-1.35Zm0,3.6h1.35v9h-1.35Z" fill="#3a3d3f"/><path d="M368.3,433.89v-9h1.34v.63a6.79,6.79,0,0,1,2.79-.81c2.48,0,3,1.22,3,4.43v4.75h-1.33v-4.71c0-2.38-.27-3.26-1.95-3.26a6.19,6.19,0,0,0-2.54.66v7.31Z" fill="#3a3d3f"/><path d="M379.77,426.06v4.3c0,2,.12,2.52,1.3,2.52.5,0,1.6-.1,1.6-.1l.09,1.11a15.71,15.71,0,0,1-1.84.2c-1.85,0-2.48-.7-2.48-3.29v-4.74h-1.28v-1.17h1.28v-2.75h1.33v2.75h2.86v1.17Z" fill="#3a3d3f"/><path d="M390.93,432.72l0,1.06a31.38,31.38,0,0,1-3.51.29c-2.69,0-3.57-1.56-3.57-4.62,0-3.43,1.48-4.74,3.76-4.74s3.62,1.26,3.62,4.21l-.07,1h-5.94c0,1.93.59,2.93,2.36,2.93C389,432.88,390.93,432.72,390.93,432.72Zm-1-3.85c0-2.23-.68-3-2.27-3s-2.39.85-2.41,3Z" fill="#3a3d3f"/><path d="M393.38,433.89v-9h1.33v.63a6.85,6.85,0,0,1,2.79-.81c2.48,0,3,1.22,3,4.43v4.75h-1.33v-4.71c0-2.38-.27-3.26-1.94-3.26a6.19,6.19,0,0,0-2.54.66v7.31Z" fill="#3a3d3f"/><path d="M409,426.2a30.35,30.35,0,0,0-3.15-.28c-1.12,0-2,.3-2,1.36,0,.85.43,1.09,2.34,1.41,2.25.38,3.09.83,3.09,2.57,0,2.11-1.33,2.81-3.49,2.81a25.65,25.65,0,0,1-3.17-.34l.07-1.17a29.8,29.8,0,0,0,3,.31c1.47,0,2.26-.33,2.26-1.55,0-.94-.46-1.17-2.43-1.48s-3-.7-3-2.5c0-2,1.6-2.63,3.24-2.63a23.19,23.19,0,0,1,3.26.34Z" fill="#3a3d3f"/><path d="M411.41,421.29h1.35v1.57h-1.35Zm0,3.6h1.35v9h-1.35Z" fill="#3a3d3f"/><path d="M416,424.89l2.11,7.83h.66l2.18-7.83h1.39l-2.54,9h-2.7l-2.54-9Z" fill="#3a3d3f"/><path d="M430.66,432.72l0,1.06a31.12,31.12,0,0,1-3.51.29c-2.68,0-3.56-1.56-3.56-4.62,0-3.43,1.47-4.74,3.76-4.74S431,426,431,428.92l-.07,1H425c0,1.93.59,2.93,2.35,2.93C428.69,432.88,430.66,432.72,430.66,432.72Zm-1-3.85c0-2.23-.68-3-2.27-3s-2.39.85-2.41,3Z" fill="#3a3d3f"/><path d="M437.06,424.89h1.34v.65a6.07,6.07,0,0,1,2.7-.83c2.27,0,3.26,1.39,3.26,4.57,0,3.53-1.16,4.79-3.93,4.79a11.14,11.14,0,0,1-2-.2v4h-1.35Zm1.35,1.75v6.06a13,13,0,0,0,1.95.2c2,0,2.63-1,2.63-3.62s-.78-3.36-2.09-3.36A5.87,5.87,0,0,0,438.41,426.64Z" fill="#3a3d3f"/><path d="M453.19,432.72l0,1.06a31.12,31.12,0,0,1-3.51.29c-2.68,0-3.57-1.56-3.57-4.62,0-3.43,1.48-4.74,3.77-4.74s3.62,1.26,3.62,4.21l-.08,1h-5.94c0,1.93.6,2.93,2.36,2.93C451.23,432.88,453.19,432.72,453.19,432.72Zm-1-3.85c0-2.23-.68-3-2.26-3s-2.4.85-2.42,3Z" fill="#3a3d3f"/><path d="M455.64,424.89H457v1.22a10.17,10.17,0,0,1,3.3-1.42v1.37a13,13,0,0,0-3.28,1.22v6.61h-1.35Z" fill="#3a3d3f"/><path d="M461.87,421.29h1.35v1.57h-1.35Zm0,3.6h1.35v9h-1.35Z" fill="#3a3d3f"/><path d="M473.12,429.28c0,3.28-.81,4.79-3.85,4.79s-3.86-1.51-3.86-4.79c0-3.09,1-4.57,3.86-4.57S473.12,426.19,473.12,429.28Zm-1.39,0c0-2.5-.54-3.4-2.46-3.4s-2.47.9-2.47,3.4.34,3.62,2.47,3.62S471.73,431.84,471.73,429.28Z" fill="#3a3d3f"/><path d="M482.23,433.89h-1.34v-.61a6.42,6.42,0,0,1-2.73.79c-1.77,0-3.24-.72-3.24-4.61,0-3.17,1-4.75,3.76-4.75a15.79,15.79,0,0,1,2.21.23v-4h1.34Zm-1.34-1.69v-6.1a14.12,14.12,0,0,0-2.14-.22c-1.89,0-2.45,1.24-2.45,3.58,0,2.92,1,3.41,2,3.41A6.47,6.47,0,0,0,480.89,432.2Z" fill="#3a3d3f"/><path d="M484.74,431.84h1.48v2.05h-1.48Z" fill="#3a3d3f"/><path d="M39.45,461.69a18.72,18.72,0,0,1-3.44.38c-3.73,0-4.55-2.27-4.55-6.37s.81-6.45,4.55-6.45a18.4,18.4,0,0,1,3.44.4l-.05,1.17a22.79,22.79,0,0,0-3.25-.32c-2.77,0-3.25,1.65-3.25,5.2s.45,5.13,3.29,5.13a20.06,20.06,0,0,0,3.21-.32Z" fill="#3a3d3f"/><path d="M41.48,461.89V449h1.35v4.42a7.64,7.64,0,0,1,2.77-.68c2.47,0,3,1.22,3,4.43v4.75H47.3v-4.71c0-2.38-.27-3.26-1.93-3.26a7.41,7.41,0,0,0-2.54.54v7.43Z" fill="#3a3d3f"/><path d="M57.5,460.22c0,.52.47.72,1,.79l-.06,1.06a2.75,2.75,0,0,1-2.14-.72,9.2,9.2,0,0,1-3.24.72c-1.64,0-2.54-.93-2.54-2.75s.9-2.49,2.76-2.67l2.82-.27v-.77c0-1.26-.54-1.71-1.62-1.71-1.26,0-3.4.23-3.4.23l-.05-1a21.57,21.57,0,0,1,3.52-.4c2,0,2.9.94,2.9,2.9Zm-4-2.56c-1.1.11-1.53.63-1.53,1.62s.45,1.66,1.37,1.66a9.47,9.47,0,0,0,2.82-.56v-3Z" fill="#3a3d3f"/><path d="M60.16,452.89H61.5v1.22a10.06,10.06,0,0,1,3.29-1.42v1.37a13.15,13.15,0,0,0-3.28,1.22v6.61H60.16Z" fill="#3a3d3f"/><path d="M66,463.41c0-1.05.48-1.54,1.42-2.24a1.43,1.43,0,0,1-.51-1.24,5.78,5.78,0,0,1,.62-1.42c-.76-.34-1.43-1.06-1.43-2.72,0-2.22,1.37-3.08,3.37-3.08a9.43,9.43,0,0,1,1.87.23l2.67-.07V454l-1.71,0a2.34,2.34,0,0,1,.59,1.8c0,2.34-1.17,3-3.47,3a6.65,6.65,0,0,1-.88-.07,5.21,5.21,0,0,0-.33,1c0,.72.14.82,2.18.82,2.56,0,3.47.51,3.47,2.65s-1.45,2.86-4,2.86C67,466.12,66,465.49,66,463.41Zm2.34-1.7c-.76.56-1,.88-1,1.59,0,1.24.52,1.69,2.56,1.69,1.8,0,2.61-.49,2.61-1.67,0-1.37-.58-1.52-2.22-1.52C69.65,461.8,68.34,461.71,68.34,461.71Zm3.2-5.92c0-1.42-.56-2-2.07-2s-2,.56-2,2,.62,2,2,2S71.54,457.21,71.54,455.79Z" fill="#3a3d3f"/><path d="M75.64,449.29H77v1.57H75.64Zm0,3.6H77v9H75.64Z" fill="#3a3d3f"/><path d="M79.59,461.89v-9h1.33v.63a6.85,6.85,0,0,1,2.79-.81c2.48,0,3,1.22,3,4.43v4.75H85.42v-4.71c0-2.38-.27-3.26-2-3.26a6.18,6.18,0,0,0-2.53.66v7.31Z" fill="#3a3d3f"/><path d="M88.86,463.41c0-1.05.48-1.54,1.42-2.24a1.43,1.43,0,0,1-.51-1.24,5.78,5.78,0,0,1,.62-1.42c-.76-.34-1.43-1.06-1.43-2.72,0-2.22,1.37-3.08,3.37-3.08a9.43,9.43,0,0,1,1.87.23l2.67-.07V454l-1.71,0a2.34,2.34,0,0,1,.59,1.8c0,2.34-1.17,3-3.47,3a6.94,6.94,0,0,1-.89-.07,5.32,5.32,0,0,0-.32,1c0,.72.14.82,2.18.82,2.56,0,3.47.51,3.47,2.65s-1.45,2.86-4,2.86C89.88,466.12,88.86,465.49,88.86,463.41Zm2.34-1.7c-.76.56-1,.88-1,1.59,0,1.24.52,1.69,2.55,1.69,1.81,0,2.62-.49,2.62-1.67,0-1.37-.58-1.52-2.22-1.52C92.51,461.8,91.2,461.71,91.2,461.71Zm3.2-5.92c0-1.42-.56-2-2.07-2s-2,.56-2,2,.62,2,2,2S94.4,457.21,94.4,455.79Z" fill="#3a3d3f"/><path d="M104.26,454.06v4.3c0,2,.13,2.52,1.3,2.52.5,0,1.6-.1,1.6-.1l.09,1.11a15.44,15.44,0,0,1-1.83.2c-1.86,0-2.49-.7-2.49-3.29v-4.74h-1.28v-1.17h1.28v-2.75h1.33v2.75h2.87v1.17Z" fill="#3a3d3f"/><path d="M108.78,461.89V449h1.35v4.42a7.65,7.65,0,0,1,2.78-.68c2.46,0,3,1.22,3,4.43v4.75H114.6v-4.71c0-2.38-.27-3.26-1.93-3.26a7.41,7.41,0,0,0-2.54.54v7.43Z" fill="#3a3d3f"/><path d="M118.45,449.29h1.35v1.57h-1.35Zm0,3.6h1.35v9h-1.35Z" fill="#3a3d3f"/><path d="M128.37,454.2a30.35,30.35,0,0,0-3.15-.28c-1.12,0-2,.3-2,1.36,0,.85.44,1.09,2.34,1.41,2.26.38,3.1.83,3.1,2.57,0,2.11-1.33,2.81-3.49,2.81a25.65,25.65,0,0,1-3.17-.34l.07-1.17a29.5,29.5,0,0,0,3,.31c1.48,0,2.27-.33,2.27-1.55,0-.94-.47-1.17-2.43-1.48s-3-.7-3-2.5c0-2,1.61-2.63,3.24-2.63a23,23,0,0,1,3.26.34Z" fill="#3a3d3f"/><path d="M135.31,452.89l2.11,7.83h.67l2.18-7.83h1.38l-2.54,9h-2.7l-2.54-9Z" fill="#3a3d3f"/><path d="M150,460.72l0,1.06a31.12,31.12,0,0,1-3.51.29c-2.69,0-3.57-1.56-3.57-4.62,0-3.43,1.48-4.74,3.77-4.74s3.61,1.26,3.61,4.21l-.07,1h-5.94c0,1.93.6,2.93,2.36,2.93C148.06,460.88,150,460.72,150,460.72Zm-1-3.85c0-2.23-.68-3-2.26-3s-2.4.85-2.42,3Z" fill="#3a3d3f"/><path d="M152.47,461.89V449h1.35v4.42a7.64,7.64,0,0,1,2.77-.68c2.47,0,3,1.22,3,4.43v4.75h-1.36v-4.71c0-2.38-.27-3.26-1.92-3.26a7.41,7.41,0,0,0-2.54.54v7.43Z" fill="#3a3d3f"/><path d="M162.14,449.29h1.34v1.57h-1.34Zm0,3.6h1.34v9h-1.34Z" fill="#3a3d3f"/><path d="M171.89,453l0,1.1s-1.44-.16-2.13-.16c-2.07,0-2.63.9-2.63,3.31,0,2.66.42,3.64,2.65,3.64.69,0,2.13-.17,2.13-.17l0,1.12a24,24,0,0,1-2.5.25c-2.87,0-3.71-1.31-3.71-4.84,0-3.26,1.06-4.52,3.74-4.52A20.89,20.89,0,0,1,171.89,453Z" fill="#3a3d3f"/><path d="M174,449h1.35v12.92H174Z" fill="#3a3d3f"/><path d="M184.73,460.72l0,1.06a31.12,31.12,0,0,1-3.51.29c-2.68,0-3.56-1.56-3.56-4.62,0-3.43,1.47-4.74,3.76-4.74s3.62,1.26,3.62,4.21l-.07,1h-5.95c0,1.93.6,2.93,2.36,2.93C182.76,460.88,184.73,460.72,184.73,460.72Zm-1-3.85c0-2.23-.69-3-2.27-3s-2.4.85-2.41,3Z" fill="#3a3d3f"/><path d="M198.05,461.89h-1.34v-.61a6.42,6.42,0,0,1-2.73.79c-1.77,0-3.24-.72-3.24-4.61,0-3.17,1-4.75,3.76-4.75a15.79,15.79,0,0,1,2.21.23v-4h1.34Zm-1.34-1.69v-6.1a14.12,14.12,0,0,0-2.14-.22c-1.89,0-2.45,1.24-2.45,3.58,0,2.92,1,3.41,2,3.41A6.47,6.47,0,0,0,196.71,460.2Z" fill="#3a3d3f"/><path d="M208,457.28c0,3.28-.81,4.79-3.85,4.79s-3.85-1.51-3.85-4.79c0-3.09,1-4.57,3.85-4.57S208,454.19,208,457.28Zm-1.38,0c0-2.5-.54-3.4-2.47-3.4s-2.47.9-2.47,3.4.35,3.62,2.47,3.62S206.58,459.84,206.58,457.28Z" fill="#3a3d3f"/><path d="M216.8,460.72l0,1.06a31.38,31.38,0,0,1-3.51.29c-2.69,0-3.57-1.56-3.57-4.62,0-3.43,1.48-4.74,3.76-4.74s3.62,1.26,3.62,4.21l-.07,1h-5.94c0,1.93.59,2.93,2.36,2.93C214.84,460.88,216.8,460.72,216.8,460.72Zm-1-3.85c0-2.23-.68-3-2.27-3s-2.39.85-2.41,3Z" fill="#3a3d3f"/><path d="M225.22,454.2a30,30,0,0,0-3.15-.28c-1.11,0-2,.3-2,1.36,0,.85.43,1.09,2.34,1.41,2.25.38,3.1.83,3.1,2.57,0,2.11-1.33,2.81-3.49,2.81a25.4,25.4,0,0,1-3.17-.34l.07-1.17a29.5,29.5,0,0,0,3,.31c1.48,0,2.27-.33,2.27-1.55,0-.94-.47-1.17-2.43-1.48s-3-.7-3-2.5c0-2,1.6-2.63,3.24-2.63a23.19,23.19,0,0,1,3.26.34Z" fill="#3a3d3f"/><path d="M231.58,461.89v-9h1.33v.63a6.85,6.85,0,0,1,2.79-.81c2.48,0,3,1.22,3,4.43v4.75h-1.33v-4.71c0-2.38-.27-3.26-1.94-3.26a6.19,6.19,0,0,0-2.54.66v7.31Z" fill="#3a3d3f"/><path d="M248.55,457.28c0,3.28-.81,4.79-3.85,4.79s-3.85-1.51-3.85-4.79c0-3.09,1-4.57,3.85-4.57S248.55,454.19,248.55,457.28Zm-1.38,0c0-2.5-.54-3.4-2.47-3.4s-2.47.9-2.47,3.4.35,3.62,2.47,3.62S247.17,459.84,247.17,457.28Z" fill="#3a3d3f"/><path d="M252.55,454.06v4.3c0,2,.12,2.52,1.29,2.52.51,0,1.61-.1,1.61-.1l.09,1.11a15.71,15.71,0,0,1-1.84.2c-1.86,0-2.48-.7-2.48-3.29v-4.74h-1.28v-1.17h1.28v-2.75h1.33v2.75h2.86v1.17Z" fill="#3a3d3f"/><path d="M266.84,453l0,1.1s-1.44-.16-2.13-.16c-2.07,0-2.63.9-2.63,3.31,0,2.66.42,3.64,2.65,3.64.68,0,2.12-.17,2.12-.17l.06,1.12a24.28,24.28,0,0,1-2.5.25c-2.87,0-3.71-1.31-3.71-4.84,0-3.26,1.06-4.52,3.74-4.52A20.89,20.89,0,0,1,266.84,453Z" fill="#3a3d3f"/><path d="M276.18,457.28c0,3.28-.81,4.79-3.85,4.79s-3.85-1.51-3.85-4.79c0-3.09,1-4.57,3.85-4.57S276.18,454.19,276.18,457.28Zm-1.38,0c0-2.5-.54-3.4-2.47-3.4s-2.47.9-2.47,3.4.35,3.62,2.47,3.62S274.8,459.84,274.8,457.28Z" fill="#3a3d3f"/><path d="M278.38,461.89v-9h1.33v.63a6,6,0,0,1,2.63-.81,2.54,2.54,0,0,1,2.34.92,7.46,7.46,0,0,1,3.2-.92c2.45,0,3.05,1.17,3.05,4.43v4.75h-1.35v-4.71c0-2.38-.27-3.26-1.89-3.26a6,6,0,0,0-2.54.66,10.4,10.4,0,0,1,.23,2.63v4.68H284v-4.64c0-2.49-.25-3.33-1.89-3.33a5.39,5.39,0,0,0-2.41.66v7.31Z" fill="#3a3d3f"/><path d="M293.42,452.89h1.34v.65a6.12,6.12,0,0,1,2.7-.83c2.27,0,3.26,1.39,3.26,4.57,0,3.53-1.16,4.79-3.93,4.79a11.25,11.25,0,0,1-2-.2v4h-1.35Zm1.35,1.75v6.06a13.12,13.12,0,0,0,2,.2c2,0,2.63-1,2.63-3.62s-.78-3.36-2.09-3.36A5.93,5.93,0,0,0,294.77,454.64Z" fill="#3a3d3f"/><path d="M302.91,452.89h1.33v1.22a10.17,10.17,0,0,1,3.3-1.42v1.37a13.15,13.15,0,0,0-3.28,1.22v6.61h-1.35Z" fill="#3a3d3f"/><path d="M316.45,457.28c0,3.28-.81,4.79-3.85,4.79s-3.86-1.51-3.86-4.79c0-3.09,1-4.57,3.86-4.57S316.45,454.19,316.45,457.28Zm-1.39,0c0-2.5-.54-3.4-2.46-3.4s-2.47.9-2.47,3.4.34,3.62,2.47,3.62S315.06,459.84,315.06,457.28Z" fill="#3a3d3f"/><path d="M318.64,461.89v-9H320v.63a6.1,6.1,0,0,1,2.63-.81,2.52,2.52,0,0,1,2.34.92,7.53,7.53,0,0,1,3.21-.92c2.45,0,3,1.17,3,4.43v4.75h-1.35v-4.71c0-2.38-.27-3.26-1.89-3.26a6,6,0,0,0-2.54.66,10.29,10.29,0,0,1,.24,2.63v4.68H324.3v-4.64c0-2.49-.26-3.33-1.89-3.33a5.46,5.46,0,0,0-2.42.66v7.31Z" fill="#3a3d3f"/><path d="M333.69,449.29H335v1.57h-1.35Zm0,3.6H335v9h-1.35Z" fill="#3a3d3f"/><path d="M343.61,454.2a30.35,30.35,0,0,0-3.15-.28c-1.12,0-2,.3-2,1.36,0,.85.43,1.09,2.34,1.41,2.25.38,3.09.83,3.09,2.57,0,2.11-1.33,2.81-3.49,2.81a25.65,25.65,0,0,1-3.17-.34l.07-1.17a29.8,29.8,0,0,0,3,.31c1.47,0,2.26-.33,2.26-1.55,0-.94-.46-1.17-2.43-1.48s-3-.7-3-2.5c0-2,1.6-2.63,3.24-2.63a23.19,23.19,0,0,1,3.26.34Z" fill="#3a3d3f"/><path d="M352.65,460.72l0,1.06a31.12,31.12,0,0,1-3.51.29c-2.68,0-3.56-1.56-3.56-4.62,0-3.43,1.47-4.74,3.76-4.74S353,454,353,456.92l-.07,1H347c0,1.93.6,2.93,2.36,2.93C350.68,460.88,352.65,460.72,352.65,460.72Zm-1-3.85c0-2.23-.69-3-2.27-3s-2.4.85-2.41,3Z" fill="#3a3d3f"/><path d="M359.05,449.29h1.35v1.57h-1.35Zm0,3.6h1.35v9h-1.35Z" fill="#3a3d3f"/><path d="M364.79,454.06v4.3c0,2,.13,2.52,1.3,2.52.5,0,1.6-.1,1.6-.1l.09,1.11a15.44,15.44,0,0,1-1.83.2c-1.86,0-2.49-.7-2.49-3.29v-4.74h-1.28v-1.17h1.28v-2.75h1.33v2.75h2.87v1.17Z" fill="#3a3d3f"/><path d="M375.29,454.2a30.35,30.35,0,0,0-3.15-.28c-1.12,0-2,.3-2,1.36,0,.85.43,1.09,2.34,1.41,2.25.38,3.09.83,3.09,2.57,0,2.11-1.33,2.81-3.49,2.81a25.65,25.65,0,0,1-3.17-.34l.07-1.17a29.8,29.8,0,0,0,3,.31c1.47,0,2.26-.33,2.26-1.55,0-.94-.46-1.17-2.43-1.48s-3-.7-3-2.5c0-2,1.6-2.63,3.24-2.63a23.19,23.19,0,0,1,3.26.34Z" fill="#3a3d3f"/><path d="M381.64,452.89H383v1.22a10.17,10.17,0,0,1,3.3-1.42v1.37a13.15,13.15,0,0,0-3.28,1.22v6.61h-1.35Z" fill="#3a3d3f"/><path d="M394.51,460.72l0,1.06a31.12,31.12,0,0,1-3.51.29c-2.68,0-3.57-1.56-3.57-4.62,0-3.43,1.48-4.74,3.77-4.74s3.62,1.26,3.62,4.21l-.08,1h-5.94c0,1.93.6,2.93,2.36,2.93C392.55,460.88,394.51,460.72,394.51,460.72Zm-1-3.85c0-2.23-.69-3-2.27-3s-2.4.85-2.42,3Z" fill="#3a3d3f"/><path d="M396.56,463.41c0-1.05.49-1.54,1.43-2.24a1.43,1.43,0,0,1-.51-1.24,5.82,5.82,0,0,1,.61-1.42c-.75-.34-1.42-1.06-1.42-2.72,0-2.22,1.37-3.08,3.37-3.08a9.43,9.43,0,0,1,1.87.23l2.67-.07V454l-1.71,0a2.34,2.34,0,0,1,.59,1.8c0,2.34-1.17,3-3.48,3a6.79,6.79,0,0,1-.88-.07,5.32,5.32,0,0,0-.32,1c0,.72.14.82,2.18.82,2.55,0,3.47.51,3.47,2.65s-1.46,2.86-4,2.86C397.59,466.12,396.56,465.49,396.56,463.41Zm2.34-1.7c-.75.56-1,.88-1,1.59,0,1.24.52,1.69,2.55,1.69,1.8,0,2.61-.49,2.61-1.67,0-1.37-.57-1.52-2.21-1.52C400.22,461.8,398.9,461.71,398.9,461.71Zm3.21-5.92c0-1.42-.56-2-2.07-2s-2,.56-2,2,.61,2,2,2S402.11,457.21,402.11,455.79Z" fill="#3a3d3f"/><path d="M413.18,452.89v9h-1.35v-.63a6.08,6.08,0,0,1-2.67.81c-2.52,0-3-1.17-3-4.48v-4.7h1.35v4.68c0,2.49.22,3.3,1.89,3.3a5.47,5.47,0,0,0,2.47-.67v-7.31Z" fill="#3a3d3f"/><path d="M415.88,449h1.35v12.92h-1.35Z" fill="#3a3d3f"/><path d="M426.28,460.22c0,.52.47.72,1.05.79l-.06,1.06a2.75,2.75,0,0,1-2.14-.72,9.2,9.2,0,0,1-3.24.72c-1.64,0-2.54-.93-2.54-2.75s.9-2.49,2.76-2.67l2.82-.27v-.77c0-1.26-.54-1.71-1.62-1.71-1.26,0-3.4.23-3.4.23l-.05-1a21.6,21.6,0,0,1,3.53-.4c2,0,2.89.94,2.89,2.9Zm-4-2.56c-1.1.11-1.53.63-1.53,1.62s.45,1.66,1.37,1.66a9.47,9.47,0,0,0,2.82-.56v-3Z" fill="#3a3d3f"/><path d="M429,452.89h1.33v1.22a10.06,10.06,0,0,1,3.29-1.42v1.37a13,13,0,0,0-3.27,1.22v6.61H429Z" fill="#3a3d3f"/><path d="M439.13,461.89v-9h1.34v.63a6,6,0,0,1,2.62-.81,2.52,2.52,0,0,1,2.34.92,7.53,7.53,0,0,1,3.21-.92c2.45,0,3,1.17,3,4.43v4.75h-1.35v-4.71c0-2.38-.27-3.26-1.89-3.26a6,6,0,0,0-2.54.66,10.29,10.29,0,0,1,.24,2.63v4.68h-1.35v-4.64c0-2.49-.26-3.33-1.89-3.33a5.46,5.46,0,0,0-2.42.66v7.31Z" fill="#3a3d3f"/><path d="M460.54,460.22c0,.52.46.72,1,.79l-.05,1.06a2.76,2.76,0,0,1-2.15-.72,9.2,9.2,0,0,1-3.24.72c-1.64,0-2.54-.93-2.54-2.75s.9-2.49,2.76-2.67l2.83-.27v-.77c0-1.26-.54-1.71-1.62-1.71-1.27,0-3.41.23-3.41.23l-.05-1a21.6,21.6,0,0,1,3.53-.4c2,0,2.9.94,2.9,2.9Zm-4-2.56c-1.1.11-1.53.63-1.53,1.62s.45,1.66,1.37,1.66a9.57,9.57,0,0,0,2.83-.56v-3Z" fill="#3a3d3f"/><path d="M463.2,449.29h1.35v1.57H463.2Zm0,3.6h1.35v9H463.2Z" fill="#3a3d3f"/><path d="M467.14,461.89v-9h1.33v.63a6.85,6.85,0,0,1,2.79-.81c2.49,0,3.05,1.22,3.05,4.43v4.75H473v-4.71c0-2.38-.27-3.26-1.94-3.26a6.19,6.19,0,0,0-2.54.66v7.31Z" fill="#3a3d3f"/><path d="M478.61,454.06v4.3c0,2,.12,2.52,1.29,2.52.51,0,1.61-.1,1.61-.1l.09,1.11a15.71,15.71,0,0,1-1.84.2c-1.86,0-2.49-.7-2.49-3.29v-4.74H476v-1.17h1.27v-2.75h1.34v2.75h2.86v1.17Z" fill="#3a3d3f"/><path d="M489.77,460.72l0,1.06a31.12,31.12,0,0,1-3.51.29c-2.68,0-3.56-1.56-3.56-4.62,0-3.43,1.48-4.74,3.76-4.74s3.62,1.26,3.62,4.21l-.07,1H484.1c0,1.93.59,2.93,2.36,2.93C487.81,460.88,489.77,460.72,489.77,460.72Zm-1-3.85c0-2.23-.68-3-2.27-3s-2.39.85-2.41,3Z" fill="#3a3d3f"/><path d="M492.22,461.89v-9h1.33v.63a6.85,6.85,0,0,1,2.79-.81c2.48,0,3,1.22,3,4.43v4.75h-1.33v-4.71c0-2.38-.27-3.26-1.95-3.26a6.25,6.25,0,0,0-2.54.66v7.31Z" fill="#3a3d3f"/><path d="M508.24,460.22c0,.52.46.72,1,.79l0,1.06a2.76,2.76,0,0,1-2.15-.72,9.2,9.2,0,0,1-3.24.72c-1.64,0-2.54-.93-2.54-2.75s.9-2.49,2.76-2.67l2.83-.27v-.77c0-1.26-.54-1.71-1.62-1.71-1.26,0-3.41.23-3.41.23l-.05-1a21.6,21.6,0,0,1,3.53-.4c2,0,2.9.94,2.9,2.9Zm-4-2.56c-1.1.11-1.53.63-1.53,1.62s.45,1.66,1.37,1.66a9.57,9.57,0,0,0,2.83-.56v-3Z" fill="#3a3d3f"/><path d="M510.9,461.89v-9h1.33v.63a6.85,6.85,0,0,1,2.79-.81c2.49,0,3,1.22,3,4.43v4.75h-1.33v-4.71c0-2.38-.27-3.26-1.94-3.26a6.19,6.19,0,0,0-2.54.66v7.31Z" fill="#3a3d3f"/><path d="M526.38,453l0,1.1s-1.44-.16-2.13-.16c-2.07,0-2.63.9-2.63,3.31,0,2.66.42,3.64,2.65,3.64.68,0,2.12-.17,2.12-.17l.06,1.12a24.24,24.24,0,0,1-2.51.25c-2.86,0-3.7-1.31-3.7-4.84,0-3.26,1.06-4.52,3.74-4.52A20.89,20.89,0,0,1,526.38,453Z" fill="#3a3d3f"/><path d="M535.06,460.72l0,1.06a31.12,31.12,0,0,1-3.51.29c-2.68,0-3.56-1.56-3.56-4.62,0-3.43,1.47-4.74,3.76-4.74s3.62,1.26,3.62,4.21l-.07,1h-6c0,1.93.6,2.93,2.36,2.93C533.09,460.88,535.06,460.72,535.06,460.72Zm-1-3.85c0-2.23-.69-3-2.27-3s-2.4.85-2.41,3Z" fill="#3a3d3f"/><path d="M537.41,459.84h1.48v2.05h-1.48Z" fill="#3a3d3f"/><line x1="29" y1="55.55" x2="550.56" y2="55.55" fill="none" stroke="#ddd" stroke-miterlimit="10"/><path d="M35.35,77.32c1.89,0,2.88.75,2.88,2.47A2.14,2.14,0,0,1,37,82a2.13,2.13,0,0,1,1.54,2.28c0,2-1.18,2.72-3,2.72h-3.7v-9.7Zm-2.44,1v3.34H35.4c1.22,0,1.73-.57,1.73-1.73s-.59-1.61-1.83-1.61Zm0,4.28v3.51h2.58c1.17,0,1.94-.38,1.94-1.81s-1.27-1.7-2-1.7Z" fill="#4c4c4c"/><path d="M45.22,85.72c0,.4.36.56.81.61l0,.83a2.15,2.15,0,0,1-1.67-.56,7.16,7.16,0,0,1-2.52.56c-1.27,0-2-.73-2-2.14s.7-1.94,2.14-2.08l2.2-.21v-.6c0-1-.42-1.33-1.26-1.33s-2.65.18-2.65.18l0-.8A16.84,16.84,0,0,1,43,79.87c1.59,0,2.26.73,2.26,2.26Zm-3.13-2c-.85.08-1.19.49-1.19,1.26s.35,1.29,1.07,1.29a7.32,7.32,0,0,0,2.2-.44V83.53Z" fill="#4c4c4c"/><path d="M48.69,80.92v3.35c0,1.53.1,2,1,2,.39,0,1.24-.08,1.24-.08L51,87a12.62,12.62,0,0,1-1.43.15c-1.44,0-1.93-.54-1.93-2.56V80.92h-1V80h1V77.87h1V80h2.23v.91Z" fill="#4c4c4c"/><path d="M53.6,80.92v3.35c0,1.53.1,2,1,2,.39,0,1.25-.08,1.25-.08l.07.87a12.62,12.62,0,0,1-1.43.15c-1.44,0-1.93-.54-1.93-2.56V80.92h-1V80h1V77.87h1V80h2.23v.91Z" fill="#4c4c4c"/><path d="M62.28,86.11l0,.82a23.64,23.64,0,0,1-2.73.23c-2.09,0-2.77-1.22-2.77-3.6,0-2.66,1.15-3.69,2.92-3.69s2.82,1,2.82,3.28l-.06.8H57.87c0,1.5.46,2.28,1.84,2.28C60.76,86.23,62.28,86.11,62.28,86.11Zm-.78-3c0-1.74-.53-2.35-1.77-2.35s-1.86.65-1.87,2.35Z" fill="#4c4c4c"/><path d="M64.19,80h1v1a8,8,0,0,1,2.57-1.11v1.06a10.14,10.14,0,0,0-2.55,1V87h-1Z" fill="#4c4c4c"/><path d="M69.42,80l1.75,6.1h.47L73.4,80h1L71.54,90.13H70.49L71.4,87h-1l-2-7Z" fill="#4c4c4c"/><path d="M79.05,87v-9.7h1.08v8.73h4.26v1Z" fill="#4c4c4c"/><path d="M90.75,86.11l0,.82a23.64,23.64,0,0,1-2.73.23c-2.08,0-2.77-1.22-2.77-3.6,0-2.66,1.15-3.69,2.93-3.69s2.81,1,2.81,3.28L91,84H86.33c0,1.5.47,2.28,1.84,2.28C89.22,86.23,90.75,86.11,90.75,86.11Zm-.79-3c0-1.74-.53-2.35-1.76-2.35s-1.87.65-1.88,2.35Z" fill="#4c4c4c"/><path d="M93.11,80l1.64,6.1h.52L97,80H98l-2,7H94l-2-7Z" fill="#4c4c4c"/><path d="M104.55,86.11l0,.82a23.89,23.89,0,0,1-2.73.23c-2.09,0-2.78-1.22-2.78-3.6,0-2.66,1.15-3.69,2.93-3.69s2.82,1,2.82,3.28l-.06.8h-4.62c0,1.5.46,2.28,1.83,2.28C103,86.23,104.55,86.11,104.55,86.11Zm-.79-3c0-1.74-.53-2.35-1.76-2.35s-1.86.65-1.88,2.35Z" fill="#4c4c4c"/><path d="M106.54,77h1V87h-1Z" fill="#4c4c4c"/><path d="M32.34,259.08h1.94L37,267.27l2.74-8.19h1.95v9.69H40.64v-8.55h-.19l-2.82,8.2h-1.2l-2.82-8.2h-.2v8.55H32.34Z" fill="#4c4c4c"/><path d="M48.86,267.47c0,.4.36.56.81.61l0,.83a2.15,2.15,0,0,1-1.67-.56,7.16,7.16,0,0,1-2.52.56c-1.27,0-2-.73-2-2.14s.7-1.94,2.14-2.08l2.2-.21v-.6c0-1-.42-1.33-1.26-1.33s-2.65.18-2.65.18l0-.8a17.38,17.38,0,0,1,2.74-.3c1.59,0,2.26.72,2.26,2.25Zm-3.13-2c-.85.08-1.19.49-1.19,1.26s.35,1.29,1.07,1.29a7.41,7.41,0,0,0,2.2-.44v-2.31Z" fill="#4c4c4c"/><path d="M50.93,259h1v1.22h-1Zm0,2.81h1v7h-1Z" fill="#4c4c4c"/><path d="M54,268.77v-7h1v.49a5.29,5.29,0,0,1,2.17-.63c1.93,0,2.37.95,2.37,3.44v3.7h-1V265.1c0-1.85-.21-2.54-1.51-2.54a4.81,4.81,0,0,0-2,.52v5.69Z" fill="#4c4c4c"/><path d="M62.91,262.68V266c0,1.53.1,2,1,2,.39,0,1.25-.09,1.25-.09l.07.87a12.62,12.62,0,0,1-1.43.15c-1.44,0-1.93-.54-1.93-2.56v-3.68h-1v-.91h1v-2.15h1v2.15h2.23v.91Z" fill="#4c4c4c"/><path d="M71.59,267.86l0,.83a25,25,0,0,1-2.73.22c-2.09,0-2.77-1.22-2.77-3.6,0-2.66,1.14-3.68,2.92-3.68s2.82,1,2.82,3.27l-.06.8H67.18c0,1.5.46,2.29,1.84,2.29C70.07,268,71.59,267.86,71.59,267.86Zm-.78-3c0-1.74-.53-2.35-1.77-2.35s-1.86.66-1.87,2.35Z" fill="#4c4c4c"/><path d="M73.5,268.77v-7h1v.49a5.35,5.35,0,0,1,2.17-.63c1.94,0,2.37.95,2.37,3.44v3.7H78V265.1c0-1.85-.21-2.54-1.51-2.54a4.74,4.74,0,0,0-2,.52v5.69Z" fill="#4c4c4c"/><path d="M86,267.47c0,.4.36.56.81.61l0,.83a2.15,2.15,0,0,1-1.67-.56,7.16,7.16,0,0,1-2.52.56c-1.28,0-2-.73-2-2.14s.7-1.94,2.15-2.08l2.2-.21v-.6c0-1-.42-1.33-1.26-1.33s-2.65.18-2.65.18l0-.8a17.38,17.38,0,0,1,2.74-.3c1.59,0,2.26.72,2.26,2.25Zm-3.13-2c-.85.08-1.19.49-1.19,1.26S82,268,82.71,268a7.41,7.41,0,0,0,2.2-.44v-2.31Z" fill="#4c4c4c"/><path d="M88,268.77v-7h1v.49a5.35,5.35,0,0,1,2.17-.63c1.94,0,2.37.95,2.37,3.44v3.7h-1V265.1c0-1.85-.21-2.54-1.51-2.54a4.74,4.74,0,0,0-2,.52v5.69Z" fill="#4c4c4c"/><path d="M100.07,261.84l0,.85s-1.12-.13-1.66-.13c-1.61,0-2,.7-2,2.58,0,2.07.32,2.83,2.06,2.83.53,0,1.65-.13,1.65-.13l0,.87a18.17,18.17,0,0,1-1.94.2c-2.23,0-2.89-1-2.89-3.77,0-2.53.83-3.51,2.91-3.51A16.24,16.24,0,0,1,100.07,261.84Z" fill="#4c4c4c"/><path d="M106.82,267.86l0,.83a24.68,24.68,0,0,1-2.73.22c-2.08,0-2.77-1.22-2.77-3.6,0-2.66,1.15-3.68,2.93-3.68s2.81,1,2.81,3.27l0,.8H102.4c0,1.5.47,2.29,1.84,2.29C105.29,268,106.82,267.86,106.82,267.86Zm-.79-3c0-1.74-.53-2.35-1.76-2.35s-1.87.66-1.88,2.35Z" fill="#4c4c4c"/><path d="M34.9,352.75h1.53l2.15,6.44,2.16-6.44h1.53v7.61h-.85v-6.71h-.16l-2.21,6.44h-.94l-2.21-6.44h-.16v6.71H34.9Z" fill="#4c4c4c"/><path d="M47.88,359.34c0,.32.28.44.63.48l0,.65a1.69,1.69,0,0,1-1.31-.44,5.62,5.62,0,0,1-2,.44c-1,0-1.55-.57-1.55-1.68s.55-1.52,1.68-1.63l1.73-.16v-.48c0-.77-.33-1-1-1s-2.08.14-2.08.14l0-.63a13.41,13.41,0,0,1,2.15-.24c1.25,0,1.78.57,1.78,1.77Zm-2.46-1.56a.87.87,0,0,0-.93,1c0,.64.27,1,.83,1a5.82,5.82,0,0,0,1.73-.34v-1.82Z" fill="#4c4c4c"/><path d="M49.5,354.86h.82v.75a6.14,6.14,0,0,1,2-.87v.84a8.22,8.22,0,0,0-2,.74v4H49.5Z" fill="#4c4c4c"/><path d="M93.51,352.75h1.85l2.09,7.61h-.83l-.55-2H92.81l-.55,2h-.84Zm-.51,4.9h2.88l-1.16-4.17h-.57Z" fill="#4c4c4c"/><path d="M98.51,354.86h.81v.4a3.74,3.74,0,0,1,1.65-.51c1.39,0,2,.85,2,2.8,0,2.15-.7,2.92-2.4,2.92a7.64,7.64,0,0,1-1.23-.12v2.45h-.82Zm.82,1.07v3.71a8.82,8.82,0,0,0,1.19.12c1.21,0,1.61-.63,1.61-2.21s-.48-2.06-1.28-2.06A3.59,3.59,0,0,0,99.33,355.93Z" fill="#4c4c4c"/><path d="M104.3,354.86h.82v.75a6.27,6.27,0,0,1,2-.87v.84a8.22,8.22,0,0,0-2,.74v4h-.83Z" fill="#4c4c4c"/><path d="M148.25,359.32c0,1.65-.64,1.83-2.09,1.83v-.75c1,0,1.24-.07,1.24-1.2v-6.45h.84Z" fill="#4c4c4c"/><path d="M154.19,354.86v5.5h-.83V360a3.7,3.7,0,0,1-1.62.49c-1.55,0-1.86-.71-1.86-2.74v-2.87h.82v2.86c0,1.52.13,2,1.16,2a3.29,3.29,0,0,0,1.5-.41v-4.47Z" fill="#4c4c4c"/><path d="M155.77,360.36v-5.5h.82v.39a4.14,4.14,0,0,1,1.7-.5c1.52,0,1.86.75,1.86,2.71v2.9h-.81v-2.88c0-1.45-.17-2-1.19-2a3.75,3.75,0,0,0-1.55.41v4.46Z" fill="#4c4c4c"/><path d="M201.82,359.32c0,1.65-.64,1.83-2.09,1.83v-.75c1,0,1.24-.07,1.24-1.2v-6.45h.84Z" fill="#4c4c4c"/><path d="M207.76,354.86v5.5h-.83V360a3.71,3.71,0,0,1-1.63.49c-1.54,0-1.86-.71-1.86-2.74v-2.87h.83v2.86c0,1.52.13,2,1.16,2a3.29,3.29,0,0,0,1.5-.41v-4.47Z" fill="#4c4c4c"/><path d="M209.41,352.46h.82v7.9h-.82Z" fill="#4c4c4c"/><path d="M252.09,352.75h1.84l2.09,7.61h-.83l-.55-2h-3.26l-.55,2H250Zm-.52,4.9h2.88l-1.15-4.17h-.58Z" fill="#4c4c4c"/><path d="M261.34,354.86v5.5h-.83V360a3.71,3.71,0,0,1-1.63.49c-1.54,0-1.86-.71-1.86-2.74v-2.87h.83v2.86c0,1.52.13,2,1.15,2a3.31,3.31,0,0,0,1.51-.41v-4.47Z" fill="#4c4c4c"/><path d="M262.68,361.29c0-.64.29-.94.87-1.37a.89.89,0,0,1-.31-.76,3.56,3.56,0,0,1,.37-.87c-.46-.2-.87-.64-.87-1.66,0-1.35.84-1.88,2.06-1.88a5.74,5.74,0,0,1,1.14.14l1.63,0v.7l-1,0a1.43,1.43,0,0,1,.36,1.1c0,1.43-.71,1.86-2.12,1.86a5.09,5.09,0,0,1-.54,0,3.13,3.13,0,0,0-.2.63c0,.44.09.5,1.33.5,1.56,0,2.12.31,2.12,1.62S266.59,363,265,363C263.3,363,262.68,362.56,262.68,361.29Zm1.43-1c-.46.34-.62.54-.62,1,0,.76.32,1,1.56,1s1.6-.29,1.6-1-.35-.92-1.35-.92C264.91,360.31,264.11,360.25,264.11,360.25Zm2-3.62c0-.87-.35-1.21-1.27-1.21s-1.23.34-1.23,1.21.37,1.2,1.23,1.2S266.07,357.5,266.07,356.63Z" fill="#4c4c4c"/><path d="M311.63,353.56s-1.53-.18-2.17-.18c-1.08,0-1.65.38-1.65,1.24s.53,1.15,1.86,1.45c1.52.34,2.19.72,2.19,2.05,0,1.68-.93,2.34-2.43,2.34a20.26,20.26,0,0,1-2.41-.24l.09-.7s1.49.19,2.27.19c1.08,0,1.63-.47,1.63-1.53,0-.85-.45-1.1-1.69-1.34-1.58-.34-2.37-.71-2.37-2.17s1-2,2.46-2a19,19,0,0,1,2.3.22Z" fill="#4c4c4c"/><path d="M317.24,359.65l0,.65a19.74,19.74,0,0,1-2.15.17c-1.64,0-2.17-1-2.17-2.82,0-2.1.9-2.9,2.3-2.9s2.21.77,2.21,2.58l-.05.62h-3.63c0,1.18.37,1.8,1.44,1.8C316,359.75,317.24,359.65,317.24,359.65Zm-.62-2.36c0-1.36-.42-1.84-1.38-1.84s-1.47.51-1.48,1.84Z" fill="#4c4c4c"/><path d="M318.73,354.86h.82v.4a3.69,3.69,0,0,1,1.65-.51c1.38,0,2,.85,2,2.8,0,2.15-.71,2.92-2.4,2.92a7.37,7.37,0,0,1-1.23-.12v2.45h-.83Zm.83,1.07v3.71a8.45,8.45,0,0,0,1.19.12c1.21,0,1.6-.63,1.6-2.21s-.47-2.06-1.27-2.06A3.59,3.59,0,0,0,319.56,355.93Z" fill="#4c4c4c"/><path d="M363,356.59c0-2.51.65-3.95,3-3.95s3,1.42,3,3.95-.64,3.88-3,3.88S363,359.14,363,356.59Zm5.13,0c0-2.06-.39-3.2-2.13-3.2s-2.13,1.13-2.13,3.2.37,3.13,2.13,3.13S368.14,358.73,368.14,356.59Z" fill="#4c4c4c"/><path d="M374,354.92l0,.67s-.88-.1-1.3-.1c-1.26,0-1.6.55-1.6,2,0,1.63.25,2.23,1.62,2.23.41,0,1.29-.1,1.29-.1l0,.68a15.21,15.21,0,0,1-1.53.15c-1.75,0-2.27-.8-2.27-3,0-2,.65-2.76,2.29-2.76A12.4,12.4,0,0,1,374,354.92Z" fill="#4c4c4c"/><path d="M376.33,355.58v2.63c0,1.2.08,1.54.79,1.54.31,0,1-.07,1-.07l0,.68a9.51,9.51,0,0,1-1.12.12c-1.13,0-1.52-.43-1.52-2v-2.89h-.78v-.72h.78v-1.68h.82v1.68h1.75v.72Z" fill="#4c4c4c"/><path d="M417.87,352.75h1.59l2.91,6.86h.23v-6.86h.84v7.61h-1.55l-3-6.86h-.21v6.86h-.85Z" fill="#4c4c4c"/><path d="M429.63,357.55c0,2-.49,2.92-2.35,2.92s-2.36-.92-2.36-2.92.62-2.8,2.36-2.8S429.63,355.65,429.63,357.55Zm-.84,0c0-1.53-.33-2.08-1.51-2.08s-1.51.55-1.51,2.08.21,2.21,1.51,2.21S428.79,359.11,428.79,357.55Z" fill="#4c4c4c"/><path d="M431.24,354.86l1.29,4.79h.4l1.33-4.79h.85l-1.55,5.5h-1.65l-1.55-5.5Z" fill="#4c4c4c"/><path d="M475,360.36v-7.61h2.72c2.21,0,2.82,1.54,2.82,3.7s-.58,3.91-2.82,3.91Zm2.72-6.86H475.8v6.11h1.87c1.58,0,1.95-1.51,1.95-3.16S479.25,353.5,477.67,353.5Z" fill="#4c4c4c"/><path d="M486,359.65l0,.65a20,20,0,0,1-2.15.17c-1.64,0-2.18-1-2.18-2.82,0-2.1.9-2.9,2.3-2.9s2.21.77,2.21,2.58l0,.62H482.5c0,1.18.36,1.8,1.44,1.8C484.76,359.75,486,359.65,486,359.65Zm-.61-2.36c0-1.36-.42-1.84-1.39-1.84s-1.46.51-1.47,1.84Z" fill="#4c4c4c"/><path d="M491,354.92l0,.67s-.88-.1-1.3-.1c-1.26,0-1.61.55-1.61,2,0,1.63.26,2.23,1.62,2.23.42,0,1.3-.1,1.3-.1l0,.68a14.87,14.87,0,0,1-1.53.15c-1.75,0-2.26-.8-2.26-3,0-2,.65-2.76,2.29-2.76A12.42,12.42,0,0,1,491,354.92Z" fill="#4c4c4c"/><line x1="490.15" y1="346.91" x2="31.2" y2="346.91" fill="none" stroke="#adadad" stroke-miterlimit="10"/><polyline points="35.4 342.42 77.68 340.22 111.03 335.83 132.47 333.19 149.15 327.92 169.4 323.53 187.57 321.96 204.45 315.37 215.85 306.85 226.57 303.33 242.06 298.94 262.31 296.31 278.98 291.92 290.89 291.92 305.19 296.31 319.48 298.06 332.58 303.33 345.68 307.72 357.6 309.48 379.04 313.87 390.95 320.9 404.05 327.92 413.58 332.31 429.06 336.71 438.59 339.34 460.03 341.98 474.92 339.78 486.83 334.51" fill="none" stroke="#3899e8"/><polyline points="34.21 342.42 76.49 340.22 109.84 335.83 131.28 333.19 147.96 327.92 168.21 323.53 186.38 321.96 203.26 315.37 214.66 306.85 225.38 303.33 240.87 299.82 261.12 298.06 277.79 293.67 289.7 291.92 304 296.31 318.29 298.06 331.39 303.33 344.49 307.72 356.4 309.48 377.84 313.87 389.75 320.9 402.86 327.92 412.39 332.31 427.87 336.71 437.4 339.34 458.84 341.98 473.73 339.78 485.64 334.51" fill="none" stroke="#8dc5f2"/><rect x="34.16" y="284.4" width="451.79" height="58.52" fill="none"/><path d="M57.07,230.73H52.7v-.82l2.57-6.44h1.15L53.8,229.8h3.27V227h1v2.82h1.15v.93H58.12v1.76h-1Z" fill="#4c4c4c"/><path d="M39,216.68c0,3.81-1.34,5-3.62,5s-3.63-1.13-3.63-5c0-4.09,1.33-5.3,3.62-5.3S39,212.58,39,216.68Zm-6,0c0,3.12.86,3.94,2.42,3.94s2.43-.83,2.43-3.95c0-3.34-.77-4.25-2.43-4.25S32.94,213.31,32.94,216.69Z" fill="#4c4c4c"/><path d="M32.18,191.39v-1l2.91-3c1.24-1.29,2-2.1,2-3.27,0-1.33-.73-1.75-2.16-1.75a14.59,14.59,0,0,0-2.58.33l-.09-1a12,12,0,0,1,2.88-.41c2.09,0,3.14.8,3.14,2.67,0,1.49-.67,2.36-2.07,3.72l-2.66,2.69h5v1Z" fill="#4c4c4c"/><path d="M36.57,158.27H31.75v-.9l2.83-7.09h1.26l-2.87,7h3.6v-3.1h1.16v3.1H39v1H37.73v1.95H36.57Z" fill="#4c4c4c"/><path d="M38.4,120.15a23,23,0,0,0-2.62-.18c-1.73,0-2.68,1.24-2.68,3.44a8.21,8.21,0,0,1,2.49-.59c2.2,0,3.34,1,3.34,3.09s-1.26,3.28-3.48,3.28c-2.47,0-3.55-1.94-3.55-5.16,0-3.6,1.52-5.08,3.88-5.08a18.36,18.36,0,0,1,2.73.26Zm-5.31,4.28c0,2.12.65,3.74,2.36,3.74a2,2,0,0,0,2.28-2.26c0-1.39-.83-2-2.22-2A6.91,6.91,0,0,0,33.09,124.43Z" fill="#4c4c4c"/><path d="M140.23,225.68a2,2,0,0,1-1.5,2.11,2.27,2.27,0,0,1,1.64,2.27c0,2-1.53,2.58-3.4,2.58s-3.37-.56-3.37-2.43a2.4,2.4,0,0,1,1.56-2.42,2.11,2.11,0,0,1-1.41-2.12c0-1.56,1.25-2.34,3.22-2.34S140.23,224.1,140.23,225.68Zm-1,4.27c0-1-.7-1.4-1.6-1.66h-1.44c-.94.26-1.49.73-1.49,1.74,0,1.24,1,1.65,2.25,1.65S139.25,231.27,139.25,230Zm-4.38-4.16c0,.84.45,1.27,1.34,1.59h1.44c.93-.3,1.46-.74,1.46-1.57,0-1.08-.8-1.52-2.13-1.52S134.87,224.71,134.87,225.79Z" fill="#4c4c4c"/><path d="M218.51,223.48h1v9h-1.05v-7.84l-2.33,1.53-.48-.79Z" fill="#4c4c4c"/><path d="M222.78,232.5v-.88l2.64-2.78c1.12-1.16,1.82-1.9,1.82-3s-.67-1.58-2-1.58a13.17,13.17,0,0,0-2.34.3l-.08-.88a10.93,10.93,0,0,1,2.61-.37c1.9,0,2.86.73,2.86,2.42,0,1.36-.62,2.15-1.89,3.38L224,231.59h4.53v.91Z" fill="#4c4c4c"/><path d="M307.19,223.48h1v9h-1.05v-7.84l-2.32,1.53-.48-.79Z" fill="#4c4c4c"/><path d="M317.1,224.44a20.17,20.17,0,0,0-2.38-.17c-1.57,0-2.43,1.13-2.43,3.12a7.89,7.89,0,0,1,2.25-.53c2,0,3,.9,3,2.8s-1.15,3-3.16,3c-2.24,0-3.23-1.76-3.23-4.69,0-3.27,1.38-4.61,3.53-4.61a16.49,16.49,0,0,1,2.48.24Zm-4.83,3.88c0,1.93.59,3.39,2.15,3.39a1.85,1.85,0,0,0,2.07-2.05c0-1.26-.76-1.86-2-1.86A6.31,6.31,0,0,0,312.27,228.32Z" fill="#4c4c4c"/><path d="M392.47,232.5v-.88l2.64-2.78c1.12-1.16,1.82-1.9,1.82-3s-.67-1.58-2-1.58a13.17,13.17,0,0,0-2.34.3l-.08-.88a10.93,10.93,0,0,1,2.61-.37c1.9,0,2.86.73,2.86,2.42,0,1.36-.62,2.15-1.89,3.38l-2.41,2.45h4.53v.91Z" fill="#4c4c4c"/><path d="M406.29,228.13c0,3.46-1.22,4.51-3.28,4.51s-3.3-1-3.3-4.5c0-3.72,1.21-4.81,3.29-4.81S406.29,224.41,406.29,228.13Zm-5.48,0c0,2.83.78,3.57,2.2,3.57s2.2-.75,2.2-3.58c0-3-.7-3.86-2.2-3.86S400.81,225.07,400.81,228.14Z" fill="#4c4c4c"/><path d="M481.14,232.5v-.88l2.64-2.78c1.12-1.16,1.82-1.9,1.82-3s-.67-1.58-2-1.58a13.17,13.17,0,0,0-2.34.3l-.08-.88a10.93,10.93,0,0,1,2.61-.37c1.9,0,2.86.73,2.86,2.42,0,1.36-.62,2.15-1.89,3.38l-2.41,2.45h4.53v.91Z" fill="#4c4c4c"/><path d="M492.78,230.74H488.4v-.82l2.57-6.44h1.15l-2.61,6.33h3.27V227h1.05v2.82H495v.93h-1.15v1.76h-1.05Z" fill="#4c4c4c"/><line x1="49.46" y1="112.73" x2="49.46" y2="225.09" fill="none" stroke="#adadad" stroke-miterlimit="10"/><line x1="497" y1="216.49" x2="39.24" y2="216.49" fill="none" stroke="#adadad" stroke-miterlimit="10"/><g style="isolation:isolate"><rect x="87.65" y="135.93" width="12.28" height="79.78" fill="#76ce89"/><g clip-path="url(#clip-path)"><polygon points="87.87 215.72 87.65 135.99 99.72 135.93 99.93 215.66 87.87 215.72" fill="#76ce89"/></g></g><g style="isolation:isolate"><rect x="105.58" y="148.7" width="12.25" height="67.01" fill="#76ce89"/><g clip-path="url(#clip-path-2)"><polygon points="105.76 215.72 105.58 148.76 117.64 148.71 117.83 215.66 105.76 215.72" fill="#76ce89"/></g></g><g style="isolation:isolate"><rect x="123.47" y="148.73" width="12.25" height="66.99" fill="#76ce89"/><g clip-path="url(#clip-path-3)"><polygon points="123.65 215.72 123.47 148.78 135.54 148.72 135.72 215.66 123.65 215.72" fill="#76ce89"/></g></g><g style="isolation:isolate"><rect x="141.36" y="148.73" width="12.25" height="66.99" fill="#76ce89"/><g clip-path="url(#clip-path-4)"><polygon points="141.54 215.72 141.36 148.78 153.43 148.72 153.61 215.66 141.54 215.72" fill="#76ce89"/></g></g><g style="isolation:isolate"><rect x="159.25" y="156.86" width="12.22" height="58.85" fill="#76ce89"/><g clip-path="url(#clip-path-5)"><polygon points="159.4 215.72 159.25 156.91 171.31 156.86 171.47 215.66 159.4 215.72" fill="#76ce89"/></g></g><g style="isolation:isolate"><rect x="177.11" y="163.83" width="12.23" height="51.88" fill="#76ce89"/><g clip-path="url(#clip-path-6)"><polygon points="177.28 215.72 177.12 163.88 189.18 163.83 189.34 215.66 177.28 215.72" fill="#76ce89"/></g></g><rect x="194.99" y="175.82" width="12.21" height="39.89" fill="#ffda00"/><g clip-path="url(#clip-path-7)"><rect x="195.06" y="175.84" width="12.06" height="39.85" transform="translate(-0.72 0.74) rotate(-0.21)" fill="#ffda00"/></g><rect x="212.84" y="179.82" width="12.19" height="35.9" fill="#ffda00"/><g clip-path="url(#clip-path-8)"><rect x="212.91" y="179.84" width="12.06" height="35.86" transform="translate(-0.72 0.8) rotate(-0.21)" fill="#ffda00"/></g><rect x="230.68" y="148.7" width="12.18" height="67.01" fill="#76ce89"/><g clip-path="url(#clip-path-9)"><polygon points="230.79 215.72 230.68 148.79 242.75 148.7 242.86 215.62 230.79 215.72" fill="#76ce89"/></g><rect x="248.5" y="152.21" width="12.17" height="63.5" fill="#76ce89"/><g clip-path="url(#clip-path-10)"><polygon points="248.6 215.72 248.5 152.32 260.57 152.22 260.67 215.62 248.6 215.72" fill="#76ce89"/></g><g style="isolation:isolate"><rect x="266.32" y="152.21" width="12.25" height="63.5" fill="#76ce89"/><g clip-path="url(#clip-path-11)"><polygon points="266.5 215.72 266.32 152.26 278.38 152.21 278.56 215.66 266.5 215.72" fill="#76ce89"/></g></g><g style="isolation:isolate"><rect x="284.21" y="152.21" width="12.24" height="63.5" fill="#76ce89"/><g clip-path="url(#clip-path-12)"><polygon points="284.38 215.72 284.21 152.27 296.27 152.21 296.44 215.66 284.38 215.72" fill="#76ce89"/></g></g><g style="isolation:isolate"><rect x="302.09" y="152.21" width="12.23" height="63.5" fill="#76ce89"/><g clip-path="url(#clip-path-13)"><polygon points="302.26 215.72 302.09 152.27 314.15 152.21 314.32 215.66 302.26 215.72" fill="#76ce89"/></g></g><g style="isolation:isolate"><rect x="319.97" y="160.22" width="12.23" height="55.5" fill="#76ce89"/><g clip-path="url(#clip-path-14)"><polygon points="320.13 215.72 319.96 160.27 332.03 160.22 332.19 215.66 320.13 215.72" fill="#76ce89"/></g></g><g style="isolation:isolate"><rect x="337.84" y="162.99" width="12.22" height="52.72" fill="#76ce89"/><g clip-path="url(#clip-path-15)"><polygon points="338 215.72 337.84 163.04 349.9 162.99 350.06 215.66 338 215.72" fill="#76ce89"/></g></g><g style="isolation:isolate"><rect x="355.7" y="165.6" width="12.2" height="50.12" fill="#76ce89"/><g clip-path="url(#clip-path-16)"><polygon points="355.84 215.72 355.7 165.65 367.77 165.59 367.91 215.66 355.84 215.72" fill="#76ce89"/></g></g><g style="isolation:isolate"><rect x="373.55" y="165.6" width="12.2" height="50.12" fill="#76ce89"/><g clip-path="url(#clip-path-17)"><polygon points="373.69 215.72 373.55 165.65 385.61 165.59 385.75 215.66 373.69 215.72" fill="#76ce89"/></g></g><g style="isolation:isolate"><rect x="391.4" y="165.6" width="12.2" height="50.12" fill="#76ce89"/><g clip-path="url(#clip-path-18)"><polygon points="391.54 215.72 391.4 165.65 403.46 165.59 403.6 215.66 391.54 215.72" fill="#76ce89"/></g></g><g style="isolation:isolate"><rect x="409.25" y="170.07" width="12.2" height="45.64" fill="#76ce89"/><g clip-path="url(#clip-path-19)"><polygon points="409.38 215.72 409.24 170.12 421.31 170.07 421.45 215.66 409.38 215.72" fill="#76ce89"/></g></g><g style="isolation:isolate"><rect x="427.09" y="170.07" width="12.19" height="45.64" fill="#76ce89"/><g clip-path="url(#clip-path-20)"><polygon points="427.23 215.72 427.1 170.13 439.16 170.07 439.29 215.66 427.23 215.72" fill="#76ce89"/></g></g><g style="isolation:isolate"><rect x="444.93" y="170.07" width="12.19" height="45.64" fill="#76ce89"/><g clip-path="url(#clip-path-21)"><polygon points="445.06 215.72 444.93 170.13 457 170.07 457.12 215.66 445.06 215.72" fill="#76ce89"/></g></g><g style="isolation:isolate"><rect x="462.76" y="173.13" width="12.18" height="42.59" fill="#76ce89"/><g clip-path="url(#clip-path-22)"><polygon points="462.88 215.72 462.76 173.18 474.83 173.12 474.94 215.66 462.88 215.72" fill="#76ce89"/></g></g><g style="isolation:isolate"><g clip-path="url(#clip-path-23)"><polygon points="480.67 215.72 480.58 183.64 492.65 183.58 492.74 215.66 480.67 215.72" fill="#ffda00"/></g></g><g style="isolation:isolate"><rect x="69.71" y="130.12" width="12.3" height="85.65" fill="#76ce89"/><g clip-path="url(#clip-path-24)"><polygon points="69.94 215.78 69.71 130.19 81.78 130.13 82.01 215.72 69.94 215.78" fill="#76ce89"/></g></g><g style="isolation:isolate"><rect x="51.75" y="124.31" width="12.32" height="91.52" fill="#76ce89"/><g clip-path="url(#clip-path-25)"><polygon points="52 215.83 51.75 124.38 63.81 124.32 64.06 215.77 52 215.83" fill="#76ce89"/></g></g></g></g></svg>