<svg xmlns="http://www.w3.org/2000/svg" viewBox="0 0 579.59 494.77"><title>r_1_0_Tablet</title><g id="Layer_2" data-name="Layer 2"><g id="Layer_2-2" data-name="Layer 2"><rect y="0.5" width="579.59" height="494.27" fill="#f7f7f7"/><line x1="0.23" y1="0.5" x2="579.59" y2="0.5" fill="none" stroke="#ddd" stroke-miterlimit="10"/><path d="M26.58,53.15C26.58,48.59,27.76,46,32,46s5.48,2.58,5.48,7.18c0,4.76-1.18,7.06-5.48,7.06S26.58,57.79,26.58,53.15Zm9.34,0c0-3.74-.72-5.82-3.88-5.82s-3.88,2.06-3.88,5.82.68,5.7,3.88,5.7S35.92,57.05,35.92,53.15Z"/><path d="M49.8,46.17,46.18,60H42.74L39.12,46.17h1.6L43.9,58.65H45L48.2,46.17Z"/><path d="M52,46.17H60.4v1.36H53.51v4.78H59.2v1.34H53.51v5H60.4V60H52Z"/><path d="M64.57,54.71V60H63V46.17h5.12c2.91,0,4.43,1.28,4.43,4.2,0,2-.8,3.46-2.54,4L72.7,60H71l-2.51-5.3Zm3.58-7.18H64.57v5.82h3.61c2.08,0,2.82-1.24,2.82-3C71,48.47,70.1,47.53,68.15,47.53Z"/><path d="M84.82,46.17,81.2,60H77.75L74.13,46.17h1.6l3.18,12.48H80l3.18-12.48Z"/><path d="M87,46.17h1.54V60H87Z"/><path d="M91.91,46.17h8.43v1.36H93.45v4.78h5.69v1.34H93.45v5h6.89V60H91.91Z"/><path d="M103.47,46.17l2.36,12.48h.58l2.82-12.36H111l2.83,12.36h.58l2.36-12.48h1.58L115.58,60h-2.82l-2.62-11.82L107.51,60h-2.82l-2.82-13.84Z"/><path d="M27.63,329,30,341.46h.59L33.4,329.1h1.8L38,341.46h.58L41,329h1.58l-2.8,13.84H36.92L34.3,331l-2.62,11.82H28.86L26,329Z"/><path d="M53.44,336.56h-7v6.26H44.85V329h1.54v6.2h7V329H55v13.84H53.44Z"/><path d="M62.81,342.82H61.27V337l-4.42-8h1.74L62,335.46,65.48,329h1.74l-4.41,8Z"/><path d="M73.51,329h1.54v13.84H73.51Z"/><path d="M86.19,330.46s-2.78-.34-3.94-.34c-2,0-3,.7-3,2.26,0,1.8,1,2.1,3.38,2.64,2.76.62,4,1.3,4,3.72,0,3.06-1.68,4.26-4.42,4.26a36.39,36.39,0,0,1-4.38-.44l.16-1.28s2.72.36,4.14.36c2,0,3-.86,3-2.78,0-1.56-.82-2-3.08-2.44-2.86-.62-4.3-1.3-4.3-3.94s1.76-3.72,4.46-3.72a34.46,34.46,0,0,1,4.18.4Z"/><path d="M92.23,329h10v1.38H98v12.46H96.49V330.36H92.23Z"/><path d="M112.77,336.56h-7v6.26h-1.54V329h1.54v6.2h7V329h1.52v13.84h-1.52Z"/><path d="M117.69,329h1.54v13.84h-1.54Z"/><path d="M130.37,330.46s-2.78-.34-3.94-.34c-2,0-3,.7-3,2.26,0,1.8,1,2.1,3.38,2.64,2.76.62,4,1.3,4,3.72,0,3.06-1.68,4.26-4.42,4.26a36.39,36.39,0,0,1-4.38-.44l.16-1.28s2.72.36,4.14.36c2,0,3-.86,3-2.78,0-1.56-.82-2-3.08-2.44-2.86-.62-4.3-1.3-4.3-3.94s1.76-3.72,4.46-3.72a34.46,34.46,0,0,1,4.18.4Z"/><path d="M139.39,337.52v5.3h-1.54V329H143c2.9,0,4.42,1.28,4.42,4.2,0,2-.8,3.46-2.54,4l2.66,5.62h-1.7l-2.5-5.3Zm3.58-7.18h-3.58v5.82H143c2.08,0,2.82-1.24,2.82-3C145.81,331.28,144.91,330.34,143,330.34Z"/><path d="M150.17,329h8.42v1.36h-6.88v4.78h5.68v1.34h-5.68v5h6.88v1.36h-8.42Z"/><path d="M169.59,342.6a20.83,20.83,0,0,1-3.82.42c-4.14,0-5.06-2.52-5.06-7.08s.9-7.16,5.06-7.16a20.32,20.32,0,0,1,3.82.44l-.06,1.3a24.64,24.64,0,0,0-3.6-.36c-3.08,0-3.62,1.84-3.62,5.78s.5,5.7,3.66,5.7a21.88,21.88,0,0,0,3.56-.36Z"/><path d="M171.55,336c0-4.56,1.18-7.18,5.46-7.18s5.48,2.58,5.48,7.18c0,4.76-1.18,7.06-5.48,7.06S171.55,340.6,171.55,336Zm9.34,0c0-3.74-.72-5.82-3.88-5.82s-3.88,2.06-3.88,5.82.68,5.7,3.88,5.7S180.89,339.86,180.89,336Z"/><path d="M185.31,329h2.78l3.92,11.7,3.92-11.7h2.78v13.84h-1.54v-12.2h-.28l-4,11.7h-1.72l-4-11.7h-.28v12.2h-1.54Z"/><path d="M202.11,329h2.78l3.92,11.7,3.92-11.7h2.78v13.84H214v-12.2h-.28l-4,11.7H208l-4-11.7h-.28v12.2h-1.54Z"/><path d="M218.91,329h8.42v1.36h-6.88v4.78h5.68v1.34h-5.68v5h6.88v1.36h-8.42Z"/><path d="M230,329h2.88l5.3,12.48h.42V329h1.52v13.84h-2.82l-5.38-12.48h-.38v12.48H230Z"/><path d="M243.49,342.82V329h4.94c4,0,5.12,2.8,5.12,6.72s-1,7.12-5.12,7.12Zm4.94-12.48H245v11.12h3.4c2.88,0,3.54-2.76,3.54-5.76S251.31,330.34,248.43,330.34Z"/><path d="M256.39,329h8.42v1.36h-6.88v4.78h5.68v1.34h-5.68v5h6.88v1.36h-8.42Z"/><path d="M267.45,342.82V329h4.94c4,0,5.12,2.8,5.12,6.72s-1,7.12-5.12,7.12Zm4.94-12.48H269v11.12h3.4c2.88,0,3.54-2.76,3.54-5.76S275.27,330.34,272.39,330.34Z"/><path d="M284.91,335.6c-1.18,1-1.78,1.6-1.78,2.5v.7h-1.26a3.11,3.11,0,0,1-.26-1.22c0-1,.8-1.76,1.86-2.66,1.44-1.24,1.78-1.7,1.78-2.82,0-1.42-.86-2-2.66-2a18.55,18.55,0,0,0-3.1.46l-.1-1.22a15.14,15.14,0,0,1,3.34-.6c2.68,0,4,.88,4,3.2C286.77,333.7,286.47,334.3,284.91,335.6Zm-3.26,5h1.64v2.24h-1.64Z"/><path d="M59.06,158.15v-1.76l5.24-5.51c2.22-2.3,3.6-3.76,3.6-5.88,0-2.39-1.33-3.15-3.9-3.15a26,26,0,0,0-4.64.6l-.16-1.73a21.43,21.43,0,0,1,5.18-.74c3.77,0,5.66,1.44,5.66,4.8,0,2.69-1.22,4.26-3.74,6.7l-4.77,4.85h9v1.82Z" fill="#3a3d3f"/><path d="M132.47,150.42h5.12v-5.28h1.9v5.28h5.18v1.85h-5.18v5.34h-1.9v-5.34h-5.12Z" fill="#3a3d3f"/><path d="M148,158.15v-1.76l5.23-5.51c2.23-2.3,3.61-3.76,3.61-5.88,0-2.39-1.33-3.15-3.91-3.15a25.93,25.93,0,0,0-4.63.6l-.16-1.73a21.4,21.4,0,0,1,5.17-.74c3.77,0,5.67,1.44,5.67,4.8,0,2.69-1.22,4.26-3.74,6.7l-4.77,4.85h9v1.82Z" fill="#3a3d3f"/><path d="M174.28,140.25v1.9h-8.71l-.49,5.83a10.36,10.36,0,0,1,4.21-1.11c3.5,0,5.69,1.46,5.69,5.29,0,4.12-2.25,6.24-6,6.24a29.39,29.39,0,0,1-5.94-.79l.25-1.66a35.34,35.34,0,0,0,5.5.6c2.47,0,4-1.46,4-4.23s-1.52-3.58-3.8-3.58a10.2,10.2,0,0,0-4.25,1.09l-1.44-.27.49-9.31Z" fill="#3a3d3f"/><path d="M190.63,149.47c0,6.86-2.42,8.95-6.51,8.95s-6.54-2-6.54-8.92c0-7.37,2.39-9.54,6.51-9.54S190.63,142.1,190.63,149.47Zm-10.88,0c0,5.61,1.55,7.08,4.37,7.08s4.36-1.49,4.36-7.11c0-6-1.38-7.64-4.36-7.64S179.75,143.4,179.75,149.5Z" fill="#3a3d3f"/><path d="M248.68,144.62c0,2.3-.9,3.25-3,4.18,1.92.86,3.25,1.92,3.25,4.5,0,3.93-3,5.12-6.75,5.12s-6.67-1.11-6.67-4.82c0-2.8,1.25-3.8,3.09-4.8-1.87-.93-2.79-2-2.79-4.21,0-3.09,2.46-4.63,6.37-4.63S248.68,141.48,248.68,144.62Zm-2,8.46c0-2.09-1.39-2.77-3.18-3.28h-2.84c-1.87.51-3,1.44-3,3.44,0,2.47,1.9,3.28,4.45,3.28S246.73,155.71,246.73,153.08Zm-8.68-8.24c0,1.65.89,2.52,2.66,3.14h2.84c1.85-.59,2.91-1.46,2.91-3.12,0-2.14-1.6-3-4.23-3S238.05,142.7,238.05,144.84Z" fill="#3a3d3f"/><path d="M258.44,140.25h1.95v17.9H258.3V142.59l-4.61,3-.94-1.57Z" fill="#3a3d3f"/><path d="M271.75,143.73c0,2.63-1.16,3.82-3,3.82s-3-1.19-3-3.82,1.14-3.75,3-3.75S271.75,141.12,271.75,143.73Zm-3,2.44c1,0,1.36-.85,1.36-2.44s-.36-2.36-1.36-2.36-1.33.76-1.33,2.36S267.79,146.17,268.77,146.17Zm6-6.48,1.3.43-5.56,18.52-1.3-.38Zm4.66,14.91c0,2.6-1.16,3.82-3,3.82s-3-1.22-3-3.85,1.12-3.71,3-3.71S279.45,152,279.45,154.6Zm-3,2.44c1,0,1.36-.84,1.36-2.44s-.33-2.36-1.36-2.36-1.33.76-1.33,2.33S275.49,157,276.47,157Z" fill="#3a3d3f"/><path d="M25.67,366.44h9v1.25h-3.8V378.9H29.5V367.69H25.67Z" fill="#3a3d3f"/><path d="M36.2,378.9V366h1.35v4.43a7.55,7.55,0,0,1,2.77-.69c2.47,0,3,1.23,3,4.43v4.75H42v-4.71c0-2.38-.28-3.26-1.93-3.26a7.41,7.41,0,0,0-2.54.54v7.43Z" fill="#3a3d3f"/><path d="M45.87,366.3h1.35v1.57H45.87Zm0,3.6h1.35v9H45.87Z" fill="#3a3d3f"/><path d="M55.79,371.22a29.33,29.33,0,0,0-3.16-.29c-1.11,0-2,.3-2,1.37,0,.84.43,1.08,2.34,1.4,2.25.38,3.1.83,3.1,2.57,0,2.11-1.33,2.81-3.49,2.81a25.4,25.4,0,0,1-3.17-.34l.07-1.17a29.5,29.5,0,0,0,3,.31c1.48,0,2.27-.33,2.27-1.55,0-.94-.47-1.17-2.43-1.48s-3-.7-3-2.5c0-2,1.6-2.63,3.24-2.63a23.19,23.19,0,0,1,3.26.34Z" fill="#3a3d3f"/><path d="M62.75,369.9l1.82,7.83h.29L67,370.08h1.4l2.15,7.65h.3l1.8-7.83H74l-2.14,9H69.61l-1.91-7-1.91,7H63.54l-2.14-9Z" fill="#3a3d3f"/><path d="M83.16,374.29c0,3.28-.81,4.79-3.85,4.79s-3.85-1.51-3.85-4.79c0-3.09,1-4.57,3.85-4.57S83.16,371.2,83.16,374.29Zm-1.38,0c0-2.5-.54-3.4-2.47-3.4s-2.47.9-2.47,3.4.35,3.62,2.47,3.62S81.78,376.85,81.78,374.29Z" fill="#3a3d3f"/><path d="M92.33,369.9v9H91v-.63a6.14,6.14,0,0,1-2.67.81c-2.52,0-3-1.17-3-4.48v-4.7h1.35v4.68c0,2.49.21,3.3,1.89,3.3a5.47,5.47,0,0,0,2.47-.67V369.9Z" fill="#3a3d3f"/><path d="M95,366h1.35V378.9H95Z" fill="#3a3d3f"/><path d="M106,378.9h-1.33v-.61a6.49,6.49,0,0,1-2.74.79c-1.77,0-3.24-.72-3.24-4.61,0-3.16,1-4.75,3.76-4.75a16,16,0,0,1,2.22.23v-4H106Zm-1.33-1.69v-6.1a14.43,14.43,0,0,0-2.15-.22c-1.89,0-2.45,1.24-2.45,3.58,0,2.92,1,3.41,2,3.41A6.54,6.54,0,0,0,104.66,377.21Z" fill="#3a3d3f"/><path d="M112.55,366.3h1.36v1.57h-1.36Zm0,3.6h1.36v9h-1.36Z" fill="#3a3d3f"/><path d="M116.5,378.9v-9h1.33v.63a6.85,6.85,0,0,1,2.79-.81c2.49,0,3,1.23,3,4.43v4.75h-1.33v-4.71c0-2.38-.27-3.26-1.94-3.26a6.19,6.19,0,0,0-2.54.66v7.31Z" fill="#3a3d3f"/><path d="M132,370l0,1.1s-1.45-.16-2.13-.16c-2.07,0-2.63.9-2.63,3.31,0,2.67.42,3.64,2.65,3.64.68,0,2.12-.16,2.12-.16l.06,1.11a24.24,24.24,0,0,1-2.51.25c-2.86,0-3.71-1.31-3.71-4.84,0-3.26,1.07-4.52,3.75-4.52A20.89,20.89,0,0,1,132,370Z" fill="#3a3d3f"/><path d="M134,369.9h1.33v1.23a10.08,10.08,0,0,1,3.3-1.43v1.37a13,13,0,0,0-3.28,1.23v6.6H134Z" fill="#3a3d3f"/><path d="M146.88,377.73l0,1.07a32.2,32.2,0,0,1-3.51.28c-2.69,0-3.57-1.56-3.57-4.62,0-3.42,1.48-4.74,3.77-4.74s3.61,1.26,3.61,4.21l-.07,1h-5.94c0,1.93.6,2.94,2.36,2.94C144.92,377.9,146.88,377.73,146.88,377.73Zm-1-3.85c0-2.23-.68-3-2.26-3s-2.4.84-2.42,3Z" fill="#3a3d3f"/><path d="M155.68,377.23c0,.52.47.72,1,.79l-.06,1.06a2.75,2.75,0,0,1-2.14-.72,9.2,9.2,0,0,1-3.24.72c-1.64,0-2.54-.93-2.54-2.75s.9-2.49,2.76-2.67l2.82-.27v-.77c0-1.26-.54-1.71-1.62-1.71-1.26,0-3.4.23-3.4.23l-.05-1a21.57,21.57,0,0,1,3.52-.4c2,0,2.9.94,2.9,2.9Zm-4-2.56c-1.1.11-1.53.63-1.53,1.62s.45,1.66,1.37,1.66a9.47,9.47,0,0,0,2.82-.56v-3Z" fill="#3a3d3f"/><path d="M164.32,371.22a29,29,0,0,0-3.15-.29c-1.11,0-2,.3-2,1.37,0,.84.43,1.08,2.34,1.4,2.25.38,3.1.83,3.1,2.57,0,2.11-1.33,2.81-3.49,2.81a25.4,25.4,0,0,1-3.17-.34l.07-1.17a29.5,29.5,0,0,0,3,.31c1.48,0,2.27-.33,2.27-1.55,0-.94-.47-1.17-2.43-1.48s-3-.7-3-2.5c0-2,1.6-2.63,3.24-2.63a23.19,23.19,0,0,1,3.26.34Z" fill="#3a3d3f"/><path d="M173.36,377.73l0,1.07a32.5,32.5,0,0,1-3.52.28c-2.68,0-3.56-1.56-3.56-4.62,0-3.42,1.48-4.74,3.76-4.74s3.62,1.26,3.62,4.21l-.07,1h-5.94c0,1.93.59,2.94,2.36,2.94C171.4,377.9,173.36,377.73,173.36,377.73Zm-1-3.85c0-2.23-.68-3-2.27-3s-2.39.84-2.41,3Z" fill="#3a3d3f"/><path d="M186.68,378.9h-1.33v-.61a6.49,6.49,0,0,1-2.74.79c-1.76,0-3.24-.72-3.24-4.61,0-3.16,1-4.75,3.76-4.75a15.79,15.79,0,0,1,2.22.23v-4h1.33Zm-1.33-1.69v-6.1a14.43,14.43,0,0,0-2.15-.22c-1.89,0-2.44,1.24-2.44,3.58,0,2.92,1,3.41,2,3.41A6.54,6.54,0,0,0,185.35,377.21Z" fill="#3a3d3f"/><path d="M189.29,369.9h1.33v1.23a10.09,10.09,0,0,1,3.29-1.43v1.37a12.81,12.81,0,0,0-3.27,1.23v6.6h-1.35Z" fill="#3a3d3f"/><path d="M201.87,377.23c0,.52.47.72,1,.79l0,1.06a2.75,2.75,0,0,1-2.14-.72,9.2,9.2,0,0,1-3.24.72c-1.64,0-2.54-.93-2.54-2.75s.9-2.49,2.75-2.67l2.83-.27v-.77c0-1.26-.54-1.71-1.62-1.71-1.26,0-3.4.23-3.4.23l-.06-1a21.6,21.6,0,0,1,3.53-.4c2,0,2.9.94,2.9,2.9Zm-4-2.56c-1.1.11-1.53.63-1.53,1.62s.45,1.66,1.36,1.66a9.48,9.48,0,0,0,2.83-.56v-3Z" fill="#3a3d3f"/><path d="M204.53,378.9v-9h1.34v.63a6,6,0,0,1,2.62-.81,2.52,2.52,0,0,1,2.34.92,7.53,7.53,0,0,1,3.21-.92c2.45,0,3,1.17,3,4.43v4.75h-1.35v-4.71c0-2.38-.27-3.26-1.89-3.26a6,6,0,0,0-2.54.66,10.29,10.29,0,0,1,.24,2.63v4.68h-1.35v-4.64c0-2.49-.26-3.33-1.89-3.33a5.46,5.46,0,0,0-2.42.66v7.31Z" fill="#3a3d3f"/><path d="M225.94,377.23c0,.52.46.72,1,.79l0,1.06a2.76,2.76,0,0,1-2.15-.72,9.2,9.2,0,0,1-3.24.72c-1.64,0-2.54-.93-2.54-2.75s.9-2.49,2.76-2.67l2.83-.27v-.77c0-1.26-.54-1.71-1.62-1.71-1.27,0-3.41.23-3.41.23l-.05-1a21.6,21.6,0,0,1,3.53-.4c2,0,2.9.94,2.9,2.9Zm-4-2.56c-1.1.11-1.53.63-1.53,1.62s.45,1.66,1.37,1.66a9.57,9.57,0,0,0,2.83-.56v-3Z" fill="#3a3d3f"/><path d="M230.4,371.07v4.3c0,2,.12,2.53,1.3,2.53.5,0,1.6-.11,1.6-.11l.09,1.11a15.71,15.71,0,0,1-1.84.2c-1.85,0-2.48-.7-2.48-3.29v-4.74h-1.28V369.9h1.28v-2.75h1.33v2.75h2.86v1.17Z" fill="#3a3d3f"/><path d="M234.92,366.3h1.35v1.57h-1.35Zm0,3.6h1.35v9h-1.35Z" fill="#3a3d3f"/><path d="M244.67,370l0,1.1s-1.44-.16-2.12-.16c-2.07,0-2.63.9-2.63,3.31,0,2.67.41,3.64,2.64,3.64.69,0,2.13-.16,2.13-.16l.05,1.11a24,24,0,0,1-2.5.25c-2.86,0-3.71-1.31-3.71-4.84,0-3.26,1.06-4.52,3.75-4.52A20.91,20.91,0,0,1,244.67,370Z" fill="#3a3d3f"/><path d="M253.06,377.23c0,.52.47.72,1.05.79l-.06,1.06a2.75,2.75,0,0,1-2.14-.72,9.2,9.2,0,0,1-3.24.72c-1.64,0-2.54-.93-2.54-2.75s.9-2.49,2.75-2.67l2.83-.27v-.77c0-1.26-.54-1.71-1.62-1.71-1.26,0-3.4.23-3.4.23l-.06-1a21.77,21.77,0,0,1,3.53-.4c2,0,2.9.94,2.9,2.9Zm-4-2.56c-1.1.11-1.53.63-1.53,1.62S248,378,248.88,378a9.48,9.48,0,0,0,2.83-.56v-3Z" fill="#3a3d3f"/><path d="M255.83,366h1.35V378.9h-1.35Z" fill="#3a3d3f"/><path d="M260,366h1.35V378.9H260Z" fill="#3a3d3f"/><path d="M264.54,369.9l2.25,7.83h.6l2.27-7.83H271l-3.75,13h-1.35l1.17-4h-1.33l-2.56-9Z" fill="#3a3d3f"/><path d="M278.49,371.07v4.3c0,2,.13,2.53,1.3,2.53.5,0,1.6-.11,1.6-.11l.09,1.11a15.44,15.44,0,0,1-1.83.2c-1.86,0-2.49-.7-2.49-3.29v-4.74h-1.28V369.9h1.28v-2.75h1.33v2.75h2.87v1.17Z" fill="#3a3d3f"/><path d="M283,378.9V366h1.35v4.43a7.57,7.57,0,0,1,2.78-.69c2.46,0,3,1.23,3,4.43v4.75h-1.35v-4.71c0-2.38-.27-3.26-1.93-3.26a7.41,7.41,0,0,0-2.54.54v7.43Z" fill="#3a3d3f"/><path d="M299.32,377.73l0,1.07a32.2,32.2,0,0,1-3.51.28c-2.69,0-3.57-1.56-3.57-4.62,0-3.42,1.48-4.74,3.76-4.74s3.62,1.26,3.62,4.21l-.07,1h-5.94c0,1.93.59,2.94,2.36,2.94C297.36,377.9,299.32,377.73,299.32,377.73Zm-1-3.85c0-2.23-.68-3-2.27-3s-2.39.84-2.41,3Z" fill="#3a3d3f"/><path d="M311.71,371.22a29.33,29.33,0,0,0-3.16-.29c-1.11,0-2,.3-2,1.37,0,.84.43,1.08,2.34,1.4,2.25.38,3.1.83,3.1,2.57,0,2.11-1.33,2.81-3.49,2.81a25.4,25.4,0,0,1-3.17-.34l.07-1.17a29.5,29.5,0,0,0,3,.31c1.48,0,2.27-.33,2.27-1.55,0-.94-.47-1.17-2.43-1.48s-3-.7-3-2.5c0-2,1.6-2.63,3.24-2.63a23.19,23.19,0,0,1,3.26.34Z" fill="#3a3d3f"/><path d="M314.6,369.9l2.25,7.83h.6l2.27-7.83h1.35l-3.75,13H316l1.17-4h-1.33l-2.56-9Z" fill="#3a3d3f"/><path d="M328.77,371.22a29.33,29.33,0,0,0-3.15-.29c-1.12,0-2,.3-2,1.37,0,.84.43,1.08,2.34,1.4,2.25.38,3.09.83,3.09,2.57,0,2.11-1.33,2.81-3.49,2.81a25.65,25.65,0,0,1-3.17-.34l.07-1.17a29.86,29.86,0,0,0,3,.31c1.48,0,2.27-.33,2.27-1.55,0-.94-.47-1.17-2.43-1.48s-3-.7-3-2.5c0-2,1.6-2.63,3.24-2.63a23.19,23.19,0,0,1,3.26.34Z" fill="#3a3d3f"/><path d="M333,371.07v4.3c0,2,.13,2.53,1.3,2.53.5,0,1.6-.11,1.6-.11l.09,1.11a15.71,15.71,0,0,1-1.84.2c-1.85,0-2.48-.7-2.48-3.29v-4.74h-1.28V369.9h1.28v-2.75H333v2.75h2.87v1.17Z" fill="#3a3d3f"/><path d="M344.12,377.73l0,1.07a32.2,32.2,0,0,1-3.51.28c-2.68,0-3.57-1.56-3.57-4.62,0-3.42,1.48-4.74,3.77-4.74s3.62,1.26,3.62,4.21l-.08,1h-5.94c0,1.93.6,2.94,2.36,2.94C342.16,377.9,344.12,377.73,344.12,377.73Zm-1-3.85c0-2.23-.69-3-2.27-3s-2.4.84-2.42,3Z" fill="#3a3d3f"/><path d="M346.57,378.9v-9h1.33v.63a6,6,0,0,1,2.63-.81,2.53,2.53,0,0,1,2.34.92,7.47,7.47,0,0,1,3.21-.92c2.45,0,3,1.17,3,4.43v4.75h-1.35v-4.71c0-2.38-.27-3.26-1.89-3.26a6,6,0,0,0-2.54.66,10.4,10.4,0,0,1,.23,2.63v4.68h-1.35v-4.64c0-2.49-.25-3.33-1.89-3.33a5.39,5.39,0,0,0-2.41.66v7.31Z" fill="#3a3d3f"/><path d="M365.58,369.9h1.33v.65a6.12,6.12,0,0,1,2.7-.83c2.27,0,3.26,1.39,3.26,4.57,0,3.53-1.15,4.79-3.93,4.79a12.32,12.32,0,0,1-2-.19v4h-1.35Zm1.35,1.75v6.07a14.72,14.72,0,0,0,1.94.19c2,0,2.63-1,2.63-3.62s-.77-3.36-2.09-3.36A5.86,5.86,0,0,0,366.93,371.65Z" fill="#3a3d3f"/><path d="M381.71,377.73l0,1.07a32.2,32.2,0,0,1-3.51.28c-2.68,0-3.56-1.56-3.56-4.62,0-3.42,1.47-4.74,3.76-4.74s3.62,1.26,3.62,4.21l-.07,1H376c0,1.93.59,2.94,2.35,2.94C379.74,377.9,381.71,377.73,381.71,377.73Zm-1-3.85c0-2.23-.68-3-2.27-3s-2.39.84-2.41,3Z" fill="#3a3d3f"/><path d="M384.15,369.9h1.34v1.23a10,10,0,0,1,3.29-1.43v1.37a13,13,0,0,0-3.28,1.23v6.6h-1.35Z" fill="#3a3d3f"/><path d="M392.11,378.9h-1.35v-7.83h-1.14V369.9h1.14v-.81c0-2.59.67-3.29,2.43-3.29.61,0,1.82.12,1.82.12l0,1.12s-1,0-1.55,0c-1,0-1.33.43-1.33,2.11v.79h2.61v1.17h-2.61Z" fill="#3a3d3f"/><path d="M403.65,374.29c0,3.28-.81,4.79-3.85,4.79s-3.86-1.51-3.86-4.79c0-3.09,1-4.57,3.86-4.57S403.65,371.2,403.65,374.29Zm-1.39,0c0-2.5-.54-3.4-2.46-3.4s-2.47.9-2.47,3.4.34,3.62,2.47,3.62S402.26,376.85,402.26,374.29Z" fill="#3a3d3f"/><path d="M405.84,369.9h1.34v1.23a10,10,0,0,1,3.29-1.43v1.37a13,13,0,0,0-3.28,1.23v6.6h-1.35Z" fill="#3a3d3f"/><path d="M412.07,378.9v-9h1.33v.63a6,6,0,0,1,2.63-.81,2.53,2.53,0,0,1,2.34.92,7.53,7.53,0,0,1,3.21-.92c2.45,0,3,1.17,3,4.43v4.75h-1.35v-4.71c0-2.38-.27-3.26-1.89-3.26a6,6,0,0,0-2.54.66,10.29,10.29,0,0,1,.24,2.63v4.68h-1.36v-4.64c0-2.49-.25-3.33-1.89-3.33a5.45,5.45,0,0,0-2.41.66v7.31Z" fill="#3a3d3f"/><path d="M433.47,377.23c0,.52.47.72,1,.79l-.06,1.06a2.75,2.75,0,0,1-2.14-.72,9.2,9.2,0,0,1-3.24.72c-1.64,0-2.54-.93-2.54-2.75s.9-2.49,2.76-2.67l2.82-.27v-.77c0-1.26-.54-1.71-1.62-1.71-1.26,0-3.4.23-3.4.23l-.05-1a21.6,21.6,0,0,1,3.53-.4c2,0,2.89.94,2.89,2.9Zm-4-2.56c-1.1.11-1.53.63-1.53,1.62s.45,1.66,1.37,1.66a9.47,9.47,0,0,0,2.82-.56v-3Z" fill="#3a3d3f"/><path d="M436.14,378.9v-9h1.33v.63a6.85,6.85,0,0,1,2.79-.81c2.48,0,3,1.23,3,4.43v4.75H442v-4.71c0-2.38-.27-3.26-1.94-3.26a6.19,6.19,0,0,0-2.54.66v7.31Z" fill="#3a3d3f"/><path d="M451.62,370l-.06,1.1s-1.44-.16-2.12-.16c-2.07,0-2.63.9-2.63,3.31,0,2.67.41,3.64,2.65,3.64.68,0,2.12-.16,2.12-.16l.06,1.11a24.24,24.24,0,0,1-2.51.25c-2.86,0-3.71-1.31-3.71-4.84,0-3.26,1.07-4.52,3.75-4.52A20.89,20.89,0,0,1,451.62,370Z" fill="#3a3d3f"/><path d="M460.29,377.73l0,1.07a32.2,32.2,0,0,1-3.51.28c-2.68,0-3.57-1.56-3.57-4.62,0-3.42,1.48-4.74,3.77-4.74s3.62,1.26,3.62,4.21l-.08,1h-5.94c0,1.93.6,2.94,2.36,2.94C458.33,377.9,460.29,377.73,460.29,377.73Zm-1-3.85c0-2.23-.68-3-2.26-3s-2.4.84-2.42,3Z" fill="#3a3d3f"/><path d="M468.5,371.07v4.3c0,2,.13,2.53,1.3,2.53.5,0,1.6-.11,1.6-.11l.09,1.11a15.71,15.71,0,0,1-1.84.2c-1.85,0-2.48-.7-2.48-3.29v-4.74h-1.28V369.9h1.28v-2.75h1.33v2.75h2.86v1.17Z" fill="#3a3d3f"/><path d="M480.33,374.29c0,3.28-.81,4.79-3.86,4.79s-3.85-1.51-3.85-4.79c0-3.09,1-4.57,3.85-4.57S480.33,371.2,480.33,374.29Zm-1.39,0c0-2.5-.54-3.4-2.47-3.4s-2.46.9-2.46,3.4.34,3.62,2.46,3.62S478.94,376.85,478.94,374.29Z" fill="#3a3d3f"/><path d="M486.48,378.9V366h1.35v4.43a7.57,7.57,0,0,1,2.78-.69c2.46,0,3,1.23,3,4.43v4.75H492.3v-4.71c0-2.38-.27-3.26-1.93-3.26a7.41,7.41,0,0,0-2.54.54v7.43Z" fill="#3a3d3f"/><path d="M502.79,377.73l0,1.07a32.2,32.2,0,0,1-3.51.28c-2.69,0-3.57-1.56-3.57-4.62,0-3.42,1.48-4.74,3.76-4.74s3.62,1.26,3.62,4.21l-.07,1h-5.94c0,1.93.59,2.94,2.36,2.94C500.83,377.9,502.79,377.73,502.79,377.73Zm-1-3.85c0-2.23-.68-3-2.27-3s-2.39.84-2.41,3Z" fill="#3a3d3f"/><path d="M505.35,366h1.35V378.9h-1.35Z" fill="#3a3d3f"/><path d="M509.4,369.9h1.33v.65a6.12,6.12,0,0,1,2.7-.83c2.27,0,3.26,1.39,3.26,4.57,0,3.53-1.15,4.79-3.93,4.79a12.32,12.32,0,0,1-2-.19v4H509.4Zm1.35,1.75v6.07a14.72,14.72,0,0,0,1.94.19c2,0,2.63-1,2.63-3.62s-.77-3.36-2.09-3.36A5.86,5.86,0,0,0,510.75,371.65Z" fill="#3a3d3f"/><path d="M529.81,369.9v9h-1.35v-.63a6.08,6.08,0,0,1-2.67.81c-2.52,0-3-1.17-3-4.48v-4.7h1.35v4.68c0,2.49.22,3.3,1.89,3.3a5.42,5.42,0,0,0,2.47-.67V369.9Z" fill="#3a3d3f"/><path d="M538.38,371.22a29.33,29.33,0,0,0-3.15-.29c-1.12,0-2,.3-2,1.37,0,.84.44,1.08,2.34,1.4,2.26.38,3.1.83,3.1,2.57,0,2.11-1.33,2.81-3.49,2.81a25.65,25.65,0,0,1-3.17-.34l.07-1.17a29.5,29.5,0,0,0,3,.31c1.48,0,2.27-.33,2.27-1.55,0-.94-.47-1.17-2.43-1.48s-3-.7-3-2.5c0-2,1.61-2.63,3.24-2.63a23.19,23.19,0,0,1,3.26.34Z" fill="#3a3d3f"/><path d="M32.55,398l-.06,1.1s-1.44-.16-2.12-.16c-2.07,0-2.63.9-2.63,3.31,0,2.67.41,3.64,2.65,3.64.68,0,2.12-.16,2.12-.16l.06,1.11a24.24,24.24,0,0,1-2.51.25c-2.86,0-3.71-1.31-3.71-4.84,0-3.26,1.07-4.52,3.75-4.52A20.89,20.89,0,0,1,32.55,398Z" fill="#3a3d3f"/><path d="M41.89,402.29c0,3.28-.81,4.79-3.85,4.79s-3.86-1.51-3.86-4.79c0-3.09,1-4.57,3.86-4.57S41.89,399.2,41.89,402.29Zm-1.39,0c0-2.5-.54-3.4-2.46-3.4s-2.47.9-2.47,3.4.34,3.62,2.47,3.62S40.5,404.85,40.5,402.29Z" fill="#3a3d3f"/><path d="M44.08,406.9v-9h1.34v.63a6.79,6.79,0,0,1,2.79-.81c2.48,0,3,1.23,3,4.43v4.75H49.92v-4.71c0-2.38-.27-3.26-2-3.26a6.25,6.25,0,0,0-2.54.66v7.31Z" fill="#3a3d3f"/><path d="M55.48,406.9H54.13v-7.83H53V397.9h1.14v-.81c0-2.59.66-3.29,2.43-3.29.61,0,1.82.12,1.82.12l0,1.12s-1,0-1.55,0c-1,0-1.33.43-1.33,2.11v.79h2.61v1.17H55.48Z" fill="#3a3d3f"/><path d="M59.71,397.9H61v1.23a10.09,10.09,0,0,1,3.29-1.43v1.37a12.81,12.81,0,0,0-3.27,1.23v6.6H59.71Z" fill="#3a3d3f"/><path d="M73.24,402.29c0,3.28-.81,4.79-3.85,4.79s-3.85-1.51-3.85-4.79c0-3.09,1-4.57,3.85-4.57S73.24,399.2,73.24,402.29Zm-1.38,0c0-2.5-.54-3.4-2.47-3.4s-2.46.9-2.46,3.4.34,3.62,2.46,3.62S71.86,404.85,71.86,402.29Z" fill="#3a3d3f"/><path d="M75.44,406.9v-9h1.33v.63a6.85,6.85,0,0,1,2.79-.81c2.49,0,3,1.23,3,4.43v4.75H81.27v-4.71c0-2.38-.27-3.26-1.94-3.26a6.19,6.19,0,0,0-2.54.66v7.31Z" fill="#3a3d3f"/><path d="M86.91,399.07v4.3c0,2,.12,2.53,1.29,2.53.51,0,1.6-.11,1.6-.11l.09,1.11a15.44,15.44,0,0,1-1.83.2c-1.86,0-2.49-.7-2.49-3.29v-4.74H84.29V397.9h1.28v-2.75h1.34v2.75h2.86v1.17Z" fill="#3a3d3f"/><path d="M97.18,399.07v4.3c0,2,.13,2.53,1.3,2.53.5,0,1.6-.11,1.6-.11l.09,1.11a15.44,15.44,0,0,1-1.83.2c-1.86,0-2.49-.7-2.49-3.29v-4.74H94.57V397.9h1.28v-2.75h1.33v2.75h2.87v1.17Z" fill="#3a3d3f"/><path d="M101.7,406.9V394h1.35v4.43a7.57,7.57,0,0,1,2.78-.69c2.46,0,3,1.23,3,4.43v4.75h-1.35v-4.71c0-2.38-.27-3.26-1.93-3.26a7.41,7.41,0,0,0-2.54.54v7.43Z" fill="#3a3d3f"/><path d="M118,405.73l0,1.07a32.47,32.47,0,0,1-3.51.28c-2.69,0-3.57-1.56-3.57-4.62,0-3.42,1.48-4.74,3.76-4.74s3.62,1.26,3.62,4.21l-.07,1h-5.94c0,1.93.59,2.94,2.36,2.94C116.05,405.9,118,405.73,118,405.73Zm-1-3.85c0-2.23-.68-3-2.27-3s-2.39.84-2.41,3Z" fill="#3a3d3f"/><path d="M124.42,397.9h1.33v.65a6.12,6.12,0,0,1,2.7-.83c2.27,0,3.26,1.39,3.26,4.57,0,3.53-1.15,4.79-3.93,4.79a12.32,12.32,0,0,1-2-.19v4h-1.35Zm1.35,1.75v6.07a14.72,14.72,0,0,0,1.94.19c2,0,2.63-1,2.63-3.62s-.77-3.36-2.09-3.36A5.86,5.86,0,0,0,125.77,399.65Z" fill="#3a3d3f"/><path d="M141.21,402.29c0,3.28-.81,4.79-3.85,4.79s-3.85-1.51-3.85-4.79c0-3.09,1-4.57,3.85-4.57S141.21,399.2,141.21,402.29Zm-1.38,0c0-2.5-.54-3.4-2.47-3.4s-2.47.9-2.47,3.4.35,3.62,2.47,3.62S139.83,404.85,139.83,402.29Z" fill="#3a3d3f"/><path d="M145.21,399.07v4.3c0,2,.12,2.53,1.29,2.53.51,0,1.61-.11,1.61-.11l.09,1.11a15.71,15.71,0,0,1-1.84.2c-1.85,0-2.48-.7-2.48-3.29v-4.74H142.6V397.9h1.28v-2.75h1.33v2.75h2.86v1.17Z" fill="#3a3d3f"/><path d="M156.37,405.73l0,1.07a32.5,32.5,0,0,1-3.52.28c-2.68,0-3.56-1.56-3.56-4.62,0-3.42,1.48-4.74,3.76-4.74s3.62,1.26,3.62,4.21l-.07,1H150.7c0,1.93.59,2.94,2.36,2.94C154.41,405.9,156.37,405.73,156.37,405.73Zm-1-3.85c0-2.23-.68-3-2.27-3s-2.39.84-2.41,3Z" fill="#3a3d3f"/><path d="M158.82,406.9v-9h1.33v.63a6.85,6.85,0,0,1,2.79-.81c2.48,0,3,1.23,3,4.43v4.75h-1.33v-4.71c0-2.38-.27-3.26-2-3.26a6.18,6.18,0,0,0-2.53.66v7.31Z" fill="#3a3d3f"/><path d="M170.28,399.07v4.3c0,2,.13,2.53,1.3,2.53.5,0,1.6-.11,1.6-.11l.09,1.11a15.43,15.43,0,0,1-1.84.2c-1.85,0-2.48-.7-2.48-3.29v-4.74h-1.28V397.9H169v-2.75h1.33v2.75h2.87v1.17Z" fill="#3a3d3f"/><path d="M174.8,394.3h1.35v1.57H174.8Zm0,3.6h1.35v9H174.8Z" fill="#3a3d3f"/><path d="M185.1,405.23c0,.52.47.72,1,.79l0,1.06a2.74,2.74,0,0,1-2.14-.72,9.22,9.22,0,0,1-3.25.72c-1.63,0-2.53-.93-2.53-2.75s.9-2.49,2.75-2.67l2.83-.27v-.77c0-1.26-.54-1.71-1.62-1.71-1.26,0-3.41.23-3.41.23l-.05-1a21.6,21.6,0,0,1,3.53-.4c2,0,2.9.94,2.9,2.9Zm-4-2.56c-1.1.11-1.53.63-1.53,1.62S180,406,180.92,406a9.57,9.57,0,0,0,2.83-.56v-3Z" fill="#3a3d3f"/><path d="M187.87,394h1.35V406.9h-1.35Z" fill="#3a3d3f"/><path d="M202.79,406.9h-1.33v-.61a6.49,6.49,0,0,1-2.74.79c-1.76,0-3.24-.72-3.24-4.61,0-3.16,1-4.75,3.76-4.75a15.79,15.79,0,0,1,2.22.23v-4h1.33Zm-1.33-1.69v-6.1a14.42,14.42,0,0,0-2.14-.22c-1.89,0-2.45,1.24-2.45,3.58,0,2.92.95,3.41,2,3.41A6.54,6.54,0,0,0,201.46,405.21Z" fill="#3a3d3f"/><path d="M212,405.73l0,1.07a32.2,32.2,0,0,1-3.51.28c-2.69,0-3.57-1.56-3.57-4.62,0-3.42,1.48-4.74,3.77-4.74s3.61,1.26,3.61,4.21l-.07,1h-5.94c0,1.93.6,2.94,2.36,2.94C210.08,405.9,212,405.73,212,405.73Zm-1-3.85c0-2.23-.68-3-2.26-3s-2.4.84-2.42,3Z" fill="#3a3d3f"/><path d="M214.6,394H216V406.9H214.6Z" fill="#3a3d3f"/><path d="M225,405.23c0,.52.47.72,1.05.79l-.06,1.06a2.75,2.75,0,0,1-2.14-.72,9.2,9.2,0,0,1-3.24.72c-1.64,0-2.54-.93-2.54-2.75s.9-2.49,2.76-2.67l2.82-.27v-.77c0-1.26-.54-1.71-1.62-1.71-1.26,0-3.4.23-3.4.23l0-1a21.57,21.57,0,0,1,3.52-.4c2,0,2.9.94,2.9,2.9Zm-4-2.56c-1.1.11-1.53.63-1.53,1.62s.45,1.66,1.37,1.66a9.47,9.47,0,0,0,2.82-.56v-3Z" fill="#3a3d3f"/><path d="M228.17,397.9l2.25,7.83H231l2.27-7.83h1.35l-3.74,13h-1.35l1.17-4h-1.34l-2.55-9Z" fill="#3a3d3f"/><path d="M242.34,399.22a29.33,29.33,0,0,0-3.16-.29c-1.11,0-2,.3-2,1.37,0,.84.43,1.08,2.34,1.4,2.25.38,3.1.83,3.1,2.57,0,2.11-1.33,2.81-3.49,2.81a25.4,25.4,0,0,1-3.17-.34l.07-1.17a29.5,29.5,0,0,0,3,.31c1.48,0,2.27-.33,2.27-1.55,0-.94-.47-1.17-2.43-1.48s-3-.7-3-2.5c0-2,1.6-2.63,3.24-2.63a23.19,23.19,0,0,1,3.26.34Z" fill="#3a3d3f"/><path d="M244.64,404.85h1.47v2h-1.47Z" fill="#3a3d3f"/><path d="M255.13,394.44h3l3.42,12.46h-1.37l-.9-3.2H254l-.9,3.2h-1.37Zm-.84,8H259l-1.89-6.83h-.93Z" fill="#3a3d3f"/><path d="M263.41,394h1.35V406.9h-1.35Z" fill="#3a3d3f"/><path d="M269.26,399.07v4.3c0,2,.13,2.53,1.3,2.53.5,0,1.6-.11,1.6-.11l.09,1.11a15.71,15.71,0,0,1-1.84.2c-1.85,0-2.48-.7-2.48-3.29v-4.74h-1.28V397.9h1.28v-2.75h1.33v2.75h2.86v1.17Z" fill="#3a3d3f"/><path d="M273.78,406.9V394h1.35v4.43a7.55,7.55,0,0,1,2.77-.69c2.47,0,3.05,1.23,3.05,4.43v4.75H279.6v-4.71c0-2.38-.27-3.26-1.93-3.26a7.41,7.41,0,0,0-2.54.54v7.43Z" fill="#3a3d3f"/><path d="M290.76,402.29c0,3.28-.81,4.79-3.86,4.79s-3.85-1.51-3.85-4.79c0-3.09,1-4.57,3.85-4.57S290.76,399.2,290.76,402.29Zm-1.39,0c0-2.5-.54-3.4-2.47-3.4s-2.46.9-2.46,3.4.34,3.62,2.46,3.62S289.37,404.85,289.37,402.29Z" fill="#3a3d3f"/><path d="M299.92,397.9v9h-1.35v-.63a6.08,6.08,0,0,1-2.67.81c-2.52,0-3-1.17-3-4.48v-4.7h1.35v4.68c0,2.49.22,3.3,1.89,3.3a5.47,5.47,0,0,0,2.47-.67V397.9Z" fill="#3a3d3f"/><path d="M302.11,408.42c0-1.05.49-1.53,1.42-2.24a1.46,1.46,0,0,1-.5-1.24,5.82,5.82,0,0,1,.61-1.42c-.75-.34-1.42-1.06-1.42-2.72,0-2.22,1.37-3.08,3.37-3.08a9.43,9.43,0,0,1,1.87.23l2.66-.07V399l-1.71,0a2.35,2.35,0,0,1,.6,1.8c0,2.34-1.17,3-3.48,3a6.79,6.79,0,0,1-.88-.07,5.32,5.32,0,0,0-.32,1c0,.72.14.83,2.17.83,2.56,0,3.48.5,3.48,2.64s-1.46,2.87-4,2.87C303.14,411.14,302.11,410.5,302.11,408.42Zm2.34-1.7c-.75.56-1,.89-1,1.59,0,1.24.53,1.69,2.56,1.69,1.8,0,2.61-.49,2.61-1.67,0-1.37-.58-1.52-2.21-1.52C305.77,406.81,304.45,406.72,304.45,406.72Zm3.21-5.92c0-1.42-.56-2-2.07-2s-2,.56-2,2,.61,2,2,2S307.66,402.22,307.66,400.8Z" fill="#3a3d3f"/><path d="M311.76,406.9V394h1.35v4.43a7.55,7.55,0,0,1,2.77-.69c2.47,0,3.05,1.23,3.05,4.43v4.75h-1.35v-4.71c0-2.38-.28-3.26-1.93-3.26a7.41,7.41,0,0,0-2.54.54v7.43Z" fill="#3a3d3f"/><path d="M325.38,394.3h1.36v1.57h-1.36Zm0,3.6h1.36v9h-1.36Z" fill="#3a3d3f"/><path d="M331.13,399.07v4.3c0,2,.12,2.53,1.29,2.53.51,0,1.61-.11,1.61-.11l.09,1.11a15.71,15.71,0,0,1-1.84.2c-1.85,0-2.48-.7-2.48-3.29v-4.74h-1.28V397.9h1.28v-2.75h1.33v2.75H334v1.17Z" fill="#3a3d3f"/><path d="M339.61,394.3H341v1.57h-1.35Zm0,3.6H341v9h-1.35Z" fill="#3a3d3f"/><path d="M349.53,399.22a29.33,29.33,0,0,0-3.16-.29c-1.11,0-2,.3-2,1.37,0,.84.43,1.08,2.34,1.4,2.25.38,3.1.83,3.1,2.57,0,2.11-1.33,2.81-3.49,2.81a25.4,25.4,0,0,1-3.17-.34l.07-1.17a29.5,29.5,0,0,0,3,.31c1.48,0,2.27-.33,2.27-1.55,0-.94-.47-1.17-2.43-1.48s-3-.7-3-2.5c0-2,1.6-2.63,3.24-2.63a23.19,23.19,0,0,1,3.26.34Z" fill="#3a3d3f"/><path d="M355.88,397.9h1.33v.65a6.12,6.12,0,0,1,2.7-.83c2.27,0,3.26,1.39,3.26,4.57,0,3.53-1.15,4.79-3.93,4.79a12.32,12.32,0,0,1-2-.19v4h-1.35Zm1.35,1.75v6.07a14.72,14.72,0,0,0,1.94.19c2,0,2.63-1,2.63-3.62s-.77-3.36-2.09-3.36A5.86,5.86,0,0,0,357.23,399.65Z" fill="#3a3d3f"/><path d="M365.37,397.9h1.33v1.23A10,10,0,0,1,370,397.7v1.37a13,13,0,0,0-3.28,1.23v6.6h-1.34Z" fill="#3a3d3f"/><path d="M378.24,405.73l0,1.07a32.2,32.2,0,0,1-3.51.28c-2.68,0-3.56-1.56-3.56-4.62,0-3.42,1.47-4.74,3.76-4.74s3.62,1.26,3.62,4.21l-.07,1h-5.95c0,1.93.6,2.94,2.36,2.94C376.27,405.9,378.24,405.73,378.24,405.73Zm-1-3.85c0-2.23-.69-3-2.27-3s-2.4.84-2.41,3Z" fill="#3a3d3f"/><path d="M387.6,406.9h-1.34v-.61a6.42,6.42,0,0,1-2.73.79c-1.77,0-3.24-.72-3.24-4.61,0-3.16,1-4.75,3.76-4.75a15.79,15.79,0,0,1,2.21.23v-4h1.34Zm-1.34-1.69v-6.1a14.12,14.12,0,0,0-2.14-.22c-1.89,0-2.45,1.24-2.45,3.58,0,2.92,1,3.41,2,3.41A6.47,6.47,0,0,0,386.26,405.21Z" fill="#3a3d3f"/><path d="M390.2,394.3h1.35v1.57H390.2Zm0,3.6h1.35v9H390.2Z" fill="#3a3d3f"/><path d="M400,398l0,1.1s-1.44-.16-2.13-.16c-2.07,0-2.63.9-2.63,3.31,0,2.67.42,3.64,2.65,3.64.69,0,2.13-.16,2.13-.16l.05,1.11a24,24,0,0,1-2.5.25c-2.87,0-3.71-1.31-3.71-4.84,0-3.26,1.06-4.52,3.74-4.52A20.89,20.89,0,0,1,400,398Z" fill="#3a3d3f"/><path d="M403.79,399.07v4.3c0,2,.13,2.53,1.3,2.53.5,0,1.6-.11,1.6-.11l.09,1.11a15.44,15.44,0,0,1-1.83.2c-1.86,0-2.49-.7-2.49-3.29v-4.74h-1.28V397.9h1.28v-2.75h1.33v2.75h2.87v1.17Z" fill="#3a3d3f"/><path d="M415,405.73l0,1.07a32.2,32.2,0,0,1-3.51.28c-2.68,0-3.56-1.56-3.56-4.62,0-3.42,1.47-4.74,3.76-4.74s3.62,1.26,3.62,4.21l-.07,1h-6c0,1.93.6,2.94,2.36,2.94C413,405.9,415,405.73,415,405.73Zm-1-3.85c0-2.23-.69-3-2.27-3s-2.4.84-2.41,3Z" fill="#3a3d3f"/><path d="M424.32,406.9H423v-.61a6.42,6.42,0,0,1-2.73.79c-1.77,0-3.24-.72-3.24-4.61,0-3.16,1-4.75,3.76-4.75A15.79,15.79,0,0,1,423,398v-4h1.34ZM423,405.21v-6.1a14.12,14.12,0,0,0-2.14-.22c-1.89,0-2.45,1.24-2.45,3.58,0,2.92,1,3.41,2,3.41A6.47,6.47,0,0,0,423,405.21Z" fill="#3a3d3f"/><path d="M432.68,399.07v4.3c0,2,.13,2.53,1.3,2.53.5,0,1.6-.11,1.6-.11l.09,1.11a15.44,15.44,0,0,1-1.83.2c-1.86,0-2.49-.7-2.49-3.29v-4.74h-1.28V397.9h1.28v-2.75h1.33v2.75h2.87v1.17Z" fill="#3a3d3f"/><path d="M444.51,402.29c0,3.28-.81,4.79-3.85,4.79s-3.85-1.51-3.85-4.79c0-3.09,1-4.57,3.85-4.57S444.51,399.2,444.51,402.29Zm-1.39,0c0-2.5-.54-3.4-2.46-3.4s-2.47.9-2.47,3.4.34,3.62,2.47,3.62S443.12,404.85,443.12,402.29Z" fill="#3a3d3f"/><path d="M457.92,402.26c0,3.58-1,4.82-4.25,4.82-1.08,0-3-.19-3-.19V394H452v4.37a7.43,7.43,0,0,1,2.64-.63C457.09,397.72,457.92,399,457.92,402.26Zm-1.37,0c0-2.32-.47-3.33-2.05-3.33a7.57,7.57,0,0,0-2.5.52v6.34s1.17.09,1.65.09C456.12,405.88,456.55,404.78,456.55,402.26Z" fill="#3a3d3f"/><path d="M466.78,405.73l0,1.07a32.2,32.2,0,0,1-3.51.28c-2.68,0-3.56-1.56-3.56-4.62,0-3.42,1.47-4.74,3.76-4.74s3.62,1.26,3.62,4.21l-.07,1h-5.94c0,1.93.59,2.94,2.35,2.94C464.81,405.9,466.78,405.73,466.78,405.73Zm-1-3.85c0-2.23-.69-3-2.27-3s-2.39.84-2.41,3Z" fill="#3a3d3f"/><path d="M473.18,406.9V394h1.35v4.43a7.57,7.57,0,0,1,2.78-.69c2.46,0,3,1.23,3,4.43v4.75H479v-4.71c0-2.38-.27-3.26-1.93-3.26a7.41,7.41,0,0,0-2.54.54v7.43Z" fill="#3a3d3f"/><path d="M482.85,394.3h1.35v1.57h-1.35Zm0,3.6h1.35v9h-1.35Z" fill="#3a3d3f"/><path d="M486.39,408.42c0-1.05.49-1.53,1.43-2.24a1.43,1.43,0,0,1-.51-1.24,5.82,5.82,0,0,1,.61-1.42c-.75-.34-1.42-1.06-1.42-2.72,0-2.22,1.37-3.08,3.37-3.08a9.43,9.43,0,0,1,1.87.23l2.67-.07V399l-1.71,0a2.35,2.35,0,0,1,.59,1.8c0,2.34-1.17,3-3.47,3a6.94,6.94,0,0,1-.89-.07,5.32,5.32,0,0,0-.32,1c0,.72.14.83,2.18.83,2.55,0,3.47.5,3.47,2.64s-1.46,2.87-4,2.87C487.42,411.14,486.39,410.5,486.39,408.42Zm2.35-1.7c-.76.56-1,.89-1,1.59,0,1.24.52,1.69,2.55,1.69,1.8,0,2.61-.49,2.61-1.67,0-1.37-.57-1.52-2.21-1.52C490.05,406.81,488.74,406.72,488.74,406.72Zm3.2-5.92c0-1.42-.56-2-2.07-2s-2,.56-2,2,.61,2,2,2S491.94,402.22,491.94,400.8Z" fill="#3a3d3f"/><path d="M496,406.9V394h1.35v4.43a7.57,7.57,0,0,1,2.78-.69c2.46,0,3,1.23,3,4.43v4.75h-1.35v-4.71c0-2.38-.27-3.26-1.93-3.26a7.41,7.41,0,0,0-2.54.54v7.43Z" fill="#3a3d3f"/><path d="M505.82,394h1.35V406.9h-1.35Z" fill="#3a3d3f"/><path d="M510.37,397.9l2.25,7.83h.6l2.26-7.83h1.35l-3.74,13h-1.35l1.17-4h-1.33l-2.56-9Z" fill="#3a3d3f"/><path d="M33.7,425.9v9H32.35v-.63a6.08,6.08,0,0,1-2.67.81c-2.52,0-3-1.17-3-4.48v-4.7H28v4.68c0,2.49.22,3.3,1.89,3.3a5.47,5.47,0,0,0,2.47-.67V425.9Z" fill="#3a3d3f"/><path d="M42.27,427.22a29.33,29.33,0,0,0-3.15-.29c-1.12,0-2,.3-2,1.37,0,.84.44,1.08,2.34,1.4,2.25.38,3.1.83,3.1,2.57,0,2.11-1.33,2.81-3.49,2.81a25.65,25.65,0,0,1-3.17-.34l.07-1.17a29.5,29.5,0,0,0,3,.31c1.48,0,2.27-.33,2.27-1.55,0-.94-.47-1.17-2.43-1.48s-3-.7-3-2.5c0-2,1.61-2.63,3.24-2.63a23.19,23.19,0,0,1,3.26.34Z" fill="#3a3d3f"/><path d="M51.3,433.73l0,1.07a32.2,32.2,0,0,1-3.51.28c-2.68,0-3.57-1.56-3.57-4.62,0-3.42,1.48-4.74,3.77-4.74s3.62,1.26,3.62,4.21l-.08,1H45.63c0,1.93.6,2.94,2.36,2.94C49.34,433.9,51.3,433.73,51.3,433.73Zm-1-3.85c0-2.23-.68-3-2.26-3s-2.4.84-2.42,3Z" fill="#3a3d3f"/><path d="M55.48,434.9H54.13v-7.83H53V425.9h1.14v-.81c0-2.59.66-3.29,2.43-3.29.61,0,1.82.12,1.82.12l0,1.12s-1,0-1.55,0c-1,0-1.33.43-1.33,2.11v.79h2.61v1.17H55.48Z" fill="#3a3d3f"/><path d="M66.68,425.9v9H65.33v-.63a6.14,6.14,0,0,1-2.67.81c-2.52,0-3-1.17-3-4.48v-4.7H61v4.68c0,2.49.21,3.3,1.89,3.3a5.47,5.47,0,0,0,2.47-.67V425.9Z" fill="#3a3d3f"/><path d="M69.37,422h1.35V434.9H69.37Z" fill="#3a3d3f"/><path d="M73.57,433h1.49l-1.2,4.14H72.74Z" fill="#3a3d3f"/><path d="M83.2,427.07v4.3c0,2,.12,2.53,1.29,2.53.51,0,1.61-.11,1.61-.11l.09,1.11a15.71,15.71,0,0,1-1.84.2c-1.86,0-2.48-.7-2.48-3.29v-4.74H80.59V425.9h1.28v-2.75H83.2v2.75h2.86v1.17Z" fill="#3a3d3f"/><path d="M87.71,434.9V422h1.36v4.43a7.55,7.55,0,0,1,2.77-.69c2.47,0,3,1.23,3,4.43v4.75H93.53v-4.71c0-2.38-.27-3.26-1.93-3.26a7.39,7.39,0,0,0-2.53.54v7.43Z" fill="#3a3d3f"/><path d="M104,433.73l0,1.07a32.2,32.2,0,0,1-3.51.28c-2.68,0-3.56-1.56-3.56-4.62,0-3.42,1.47-4.74,3.76-4.74s3.62,1.26,3.62,4.21l-.08,1H98.35c0,1.93.6,2.94,2.36,2.94C102.06,433.9,104,433.73,104,433.73Zm-1-3.85c0-2.23-.69-3-2.27-3s-2.4.84-2.41,3Z" fill="#3a3d3f"/><path d="M106.47,425.9h1.33v1.23a10.08,10.08,0,0,1,3.3-1.43v1.37a13,13,0,0,0-3.28,1.23v6.6h-1.35Z" fill="#3a3d3f"/><path d="M119.34,433.73l0,1.07a32.2,32.2,0,0,1-3.51.28c-2.69,0-3.57-1.56-3.57-4.62,0-3.42,1.48-4.74,3.77-4.74s3.61,1.26,3.61,4.21l-.07,1h-5.94c0,1.93.6,2.94,2.36,2.94C117.38,433.9,119.34,433.73,119.34,433.73Zm-1-3.85c0-2.23-.68-3-2.26-3s-2.4.84-2.42,3Z" fill="#3a3d3f"/><path d="M125.75,422.3h1.35v1.57h-1.35Zm0,3.6h1.35v9h-1.35Z" fill="#3a3d3f"/><path d="M135.67,427.22a29.33,29.33,0,0,0-3.15-.29c-1.12,0-2,.3-2,1.37,0,.84.44,1.08,2.35,1.4,2.25.38,3.09.83,3.09,2.57,0,2.11-1.33,2.81-3.49,2.81a25.65,25.65,0,0,1-3.17-.34l.07-1.17a29.5,29.5,0,0,0,3,.31c1.48,0,2.27-.33,2.27-1.55,0-.94-.47-1.17-2.43-1.48s-3-.7-3-2.5c0-2,1.61-2.63,3.25-2.63a23,23,0,0,1,3.25.34Z" fill="#3a3d3f"/><path d="M148,427.22a29.33,29.33,0,0,0-3.15-.29c-1.12,0-2,.3-2,1.37,0,.84.44,1.08,2.35,1.4,2.25.38,3.09.83,3.09,2.57,0,2.11-1.33,2.81-3.49,2.81a25.65,25.65,0,0,1-3.17-.34l.07-1.17a29.5,29.5,0,0,0,3,.31c1.48,0,2.27-.33,2.27-1.55,0-.94-.47-1.17-2.43-1.48s-3-.7-3-2.5c0-2,1.61-2.63,3.25-2.63a23,23,0,0,1,3.25.34Z" fill="#3a3d3f"/><path d="M152.19,427.07v4.3c0,2,.13,2.53,1.3,2.53.5,0,1.6-.11,1.6-.11l.09,1.11a15.71,15.71,0,0,1-1.84.2c-1.85,0-2.48-.7-2.48-3.29v-4.74h-1.28V425.9h1.28v-2.75h1.33v2.75h2.86v1.17Z" fill="#3a3d3f"/><path d="M156.71,422.3h1.35v1.57h-1.35Zm0,3.6h1.35v9h-1.35Z" fill="#3a3d3f"/><path d="M160.76,422h1.35V434.9h-1.35Z" fill="#3a3d3f"/><path d="M164.92,422h1.35V434.9h-1.35Z" fill="#3a3d3f"/><path d="M174.73,427.07v4.3c0,2,.12,2.53,1.3,2.53.5,0,1.6-.11,1.6-.11l.09,1.11a15.71,15.71,0,0,1-1.84.2c-1.85,0-2.48-.7-2.48-3.29v-4.74h-1.28V425.9h1.28v-2.75h1.33v2.75h2.86v1.17Z" fill="#3a3d3f"/><path d="M179.25,422.3h1.35v1.57h-1.35Zm0,3.6h1.35v9h-1.35Z" fill="#3a3d3f"/><path d="M183.19,434.9v-9h1.33v.63a6,6,0,0,1,2.63-.81,2.53,2.53,0,0,1,2.34.92,7.47,7.47,0,0,1,3.21-.92c2.44,0,3,1.17,3,4.43v4.75h-1.35v-4.71c0-2.38-.27-3.26-1.89-3.26a6,6,0,0,0-2.54.66,10.4,10.4,0,0,1,.23,2.63v4.68h-1.35v-4.64c0-2.49-.25-3.33-1.89-3.33a5.39,5.39,0,0,0-2.41.66v7.31Z" fill="#3a3d3f"/><path d="M204.88,433.73l0,1.07a32.47,32.47,0,0,1-3.51.28c-2.69,0-3.57-1.56-3.57-4.62,0-3.42,1.48-4.74,3.76-4.74s3.62,1.26,3.62,4.21l-.07,1h-5.94c0,1.93.59,2.94,2.36,2.94C202.92,433.9,204.88,433.73,204.88,433.73Zm-1-3.85c0-2.23-.68-3-2.27-3s-2.39.84-2.41,3Z" fill="#3a3d3f"/><path d="M213.09,427.07v4.3c0,2,.12,2.53,1.29,2.53.51,0,1.61-.11,1.61-.11l.09,1.11a15.71,15.71,0,0,1-1.84.2c-1.86,0-2.49-.7-2.49-3.29v-4.74h-1.27V425.9h1.27v-2.75h1.34v2.75H216v1.17Z" fill="#3a3d3f"/><path d="M224.91,430.29c0,3.28-.81,4.79-3.85,4.79s-3.85-1.51-3.85-4.79c0-3.09,1-4.57,3.85-4.57S224.91,427.2,224.91,430.29Zm-1.38,0c0-2.5-.54-3.4-2.47-3.4s-2.46.9-2.46,3.4.34,3.62,2.46,3.62S223.53,432.85,223.53,430.29Z" fill="#3a3d3f"/><path d="M238,425.9v9h-1.35v-.63a6.08,6.08,0,0,1-2.67.81c-2.52,0-3-1.17-3-4.48v-4.7h1.35v4.68c0,2.49.21,3.3,1.89,3.3a5.47,5.47,0,0,0,2.47-.67V425.9Z" fill="#3a3d3f"/><path d="M240.63,434.9v-9H242v.63a6.85,6.85,0,0,1,2.79-.81c2.48,0,3,1.23,3,4.43v4.75h-1.33v-4.71c0-2.38-.27-3.26-1.94-3.26a6.19,6.19,0,0,0-2.54.66v7.31Z" fill="#3a3d3f"/><path d="M257.21,434.9h-1.34v-.61a6.42,6.42,0,0,1-2.73.79c-1.77,0-3.24-.72-3.24-4.61,0-3.16,1-4.75,3.76-4.75a15.79,15.79,0,0,1,2.21.23v-4h1.34Zm-1.34-1.69v-6.1a14.12,14.12,0,0,0-2.14-.22c-1.89,0-2.45,1.24-2.45,3.58,0,2.92,1,3.41,2,3.41A6.47,6.47,0,0,0,255.87,433.21Z" fill="#3a3d3f"/><path d="M266.46,433.73l0,1.07a32.2,32.2,0,0,1-3.51.28c-2.68,0-3.56-1.56-3.56-4.62,0-3.42,1.47-4.74,3.76-4.74s3.62,1.26,3.62,4.21l-.07,1h-5.94c0,1.93.59,2.94,2.35,2.94C264.49,433.9,266.46,433.73,266.46,433.73Zm-1-3.85c0-2.23-.68-3-2.27-3s-2.39.84-2.41,3Z" fill="#3a3d3f"/><path d="M268.9,425.9h1.34v1.23a10,10,0,0,1,3.29-1.43v1.37a13,13,0,0,0-3.28,1.23v6.6H268.9Z" fill="#3a3d3f"/><path d="M281.11,427.22a29.33,29.33,0,0,0-3.15-.29c-1.12,0-2,.3-2,1.37,0,.84.43,1.08,2.34,1.4,2.25.38,3.09.83,3.09,2.57,0,2.11-1.33,2.81-3.49,2.81a25.65,25.65,0,0,1-3.17-.34l.07-1.17a29.86,29.86,0,0,0,3,.31c1.48,0,2.27-.33,2.27-1.55,0-.94-.47-1.17-2.43-1.48s-3-.7-3-2.5c0-2,1.6-2.63,3.24-2.63a23.19,23.19,0,0,1,3.26.34Z" fill="#3a3d3f"/><path d="M285.3,427.07v4.3c0,2,.13,2.53,1.3,2.53.5,0,1.6-.11,1.6-.11l.09,1.11a15.71,15.71,0,0,1-1.84.2c-1.85,0-2.48-.7-2.48-3.29v-4.74h-1.28V425.9H284v-2.75h1.33v2.75h2.86v1.17Z" fill="#3a3d3f"/><path d="M296.18,433.23c0,.52.46.72,1,.79l-.05,1.06a2.76,2.76,0,0,1-2.15-.72,9.2,9.2,0,0,1-3.24.72c-1.64,0-2.54-.93-2.54-2.75s.9-2.49,2.76-2.67l2.83-.27v-.77c0-1.26-.55-1.71-1.63-1.71-1.26,0-3.4.23-3.4.23l-.05-1a21.6,21.6,0,0,1,3.53-.4c2,0,2.9.94,2.9,2.9Zm-4-2.56c-1.1.11-1.53.63-1.53,1.62S291.08,434,292,434a9.57,9.57,0,0,0,2.83-.56v-3Z" fill="#3a3d3f"/><path d="M298.84,434.9v-9h1.33v.63a6.85,6.85,0,0,1,2.79-.81c2.49,0,3,1.23,3,4.43v4.75h-1.33v-4.71c0-2.38-.27-3.26-1.94-3.26a6.19,6.19,0,0,0-2.54.66v7.31Z" fill="#3a3d3f"/><path d="M315.42,434.9h-1.34v-.61a6.42,6.42,0,0,1-2.73.79c-1.77,0-3.24-.72-3.24-4.61,0-3.16,1-4.75,3.76-4.75a15.61,15.61,0,0,1,2.21.23v-4h1.34Zm-1.34-1.69v-6.1a14.12,14.12,0,0,0-2.14-.22c-1.89,0-2.45,1.24-2.45,3.58,0,2.92,1,3.41,2,3.41A6.47,6.47,0,0,0,314.08,433.21Z" fill="#3a3d3f"/><path d="M322.6,425.9l1.82,7.83h.28l2.15-7.65h1.4l2.14,7.65h.31l1.8-7.83h1.35l-2.14,9h-2.25l-1.91-7-1.91,7h-2.25l-2.14-9Z" fill="#3a3d3f"/><path d="M335.7,434.9V422h1.35v4.43a7.55,7.55,0,0,1,2.77-.69c2.47,0,3.05,1.23,3.05,4.43v4.75h-1.35v-4.71c0-2.38-.27-3.26-1.93-3.26a7.41,7.41,0,0,0-2.54.54v7.43Z" fill="#3a3d3f"/><path d="M352,433.73l0,1.07a32.5,32.5,0,0,1-3.52.28c-2.68,0-3.56-1.56-3.56-4.62,0-3.42,1.48-4.74,3.76-4.74s3.62,1.26,3.62,4.21l-.07,1h-5.94c0,1.93.59,2.94,2.36,2.94C350.05,433.9,352,433.73,352,433.73Zm-1-3.85c0-2.23-.68-3-2.27-3s-2.39.84-2.41,3Z" fill="#3a3d3f"/><path d="M356.26,427.07v4.3c0,2,.12,2.53,1.29,2.53.51,0,1.61-.11,1.61-.11l.09,1.11a15.71,15.71,0,0,1-1.84.2c-1.86,0-2.49-.7-2.49-3.29v-4.74h-1.27V425.9h1.27v-2.75h1.34v2.75h2.86v1.17Z" fill="#3a3d3f"/><path d="M360.78,434.9V422h1.34v4.43a7.64,7.64,0,0,1,2.78-.69c2.47,0,3,1.23,3,4.43v4.75h-1.35v-4.71c0-2.38-.27-3.26-1.93-3.26a7.48,7.48,0,0,0-2.54.54v7.43Z" fill="#3a3d3f"/><path d="M377.08,433.73l0,1.07a32.2,32.2,0,0,1-3.51.28c-2.68,0-3.57-1.56-3.57-4.62,0-3.42,1.48-4.74,3.77-4.74s3.62,1.26,3.62,4.21l-.07,1h-5.95c0,1.93.6,2.94,2.36,2.94C375.12,433.9,377.08,433.73,377.08,433.73Zm-1-3.85c0-2.23-.69-3-2.27-3s-2.4.84-2.41,3Z" fill="#3a3d3f"/><path d="M379.53,425.9h1.33v1.23a10.08,10.08,0,0,1,3.3-1.43v1.37a13,13,0,0,0-3.28,1.23v6.6h-1.35Z" fill="#3a3d3f"/><path d="M390.33,425.9l1.82,7.83h.29l2.14-7.65H396l2.15,7.65h.3l1.8-7.83h1.35l-2.14,9h-2.25l-1.91-7-1.91,7h-2.25l-2.14-9Z" fill="#3a3d3f"/><path d="M410.08,433.73l0,1.07a32.2,32.2,0,0,1-3.51.28c-2.68,0-3.56-1.56-3.56-4.62,0-3.42,1.47-4.74,3.76-4.74s3.62,1.26,3.62,4.21l-.07,1h-5.94c0,1.93.59,2.94,2.35,2.94C408.12,433.9,410.08,433.73,410.08,433.73Zm-1-3.85c0-2.23-.68-3-2.27-3s-2.39.84-2.41,3Z" fill="#3a3d3f"/><path d="M416.48,434.9V422h1.35v4.43a7.57,7.57,0,0,1,2.78-.69c2.46,0,3,1.23,3,4.43v4.75H422.3v-4.71c0-2.38-.27-3.26-1.93-3.26a7.41,7.41,0,0,0-2.54.54v7.43Z" fill="#3a3d3f"/><path d="M432.51,433.23c0,.52.46.72,1,.79l-.05,1.06a2.76,2.76,0,0,1-2.15-.72,9.2,9.2,0,0,1-3.24.72c-1.64,0-2.54-.93-2.54-2.75s.9-2.49,2.76-2.67l2.83-.27v-.77c0-1.26-.54-1.71-1.63-1.71-1.26,0-3.4.23-3.4.23l-.05-1a21.6,21.6,0,0,1,3.53-.4c2,0,2.9.94,2.9,2.9Zm-4-2.56c-1.1.11-1.53.63-1.53,1.62s.45,1.66,1.37,1.66a9.57,9.57,0,0,0,2.83-.56v-3Z" fill="#3a3d3f"/><path d="M435.76,425.9l2.11,7.83h.66l2.18-7.83h1.39l-2.54,9h-2.7l-2.54-9Z" fill="#3a3d3f"/><path d="M450.47,433.73l0,1.07a32.5,32.5,0,0,1-3.52.28c-2.68,0-3.56-1.56-3.56-4.62,0-3.42,1.48-4.74,3.76-4.74s3.62,1.26,3.62,4.21l-.07,1H444.8c0,1.93.59,2.94,2.36,2.94C448.51,433.9,450.47,433.73,450.47,433.73Zm-1-3.85c0-2.23-.68-3-2.27-3s-2.39.84-2.41,3Z" fill="#3a3d3f"/><path d="M458.68,427.07v4.3c0,2,.12,2.53,1.29,2.53.51,0,1.61-.11,1.61-.11l.08,1.11a15.44,15.44,0,0,1-1.83.2c-1.86,0-2.49-.7-2.49-3.29v-4.74h-1.27V425.9h1.27v-2.75h1.34v2.75h2.86v1.17Z" fill="#3a3d3f"/><path d="M470.5,430.29c0,3.28-.81,4.79-3.85,4.79s-3.85-1.51-3.85-4.79c0-3.09,1-4.57,3.85-4.57S470.5,427.2,470.5,430.29Zm-1.38,0c0-2.5-.54-3.4-2.47-3.4s-2.47.9-2.47,3.4.35,3.62,2.47,3.62S469.12,432.85,469.12,430.29Z" fill="#3a3d3f"/><path d="M482.64,427.22a29.33,29.33,0,0,0-3.16-.29c-1.11,0-2,.3-2,1.37,0,.84.43,1.08,2.34,1.4,2.25.38,3.1.83,3.1,2.57,0,2.11-1.33,2.81-3.49,2.81a25.4,25.4,0,0,1-3.17-.34l.07-1.17a29.5,29.5,0,0,0,3,.31c1.48,0,2.27-.33,2.27-1.55,0-.94-.47-1.17-2.43-1.48s-3-.7-3-2.5c0-2,1.6-2.63,3.24-2.63a23.19,23.19,0,0,1,3.26.34Z" fill="#3a3d3f"/><path d="M491.67,433.73l0,1.07a32.2,32.2,0,0,1-3.51.28c-2.69,0-3.57-1.56-3.57-4.62,0-3.42,1.48-4.74,3.76-4.74S492,427,492,429.93l-.07,1H486c0,1.93.59,2.94,2.36,2.94C489.71,433.9,491.67,433.73,491.67,433.73Zm-1-3.85c0-2.23-.68-3-2.27-3s-2.39.84-2.41,3Z" fill="#3a3d3f"/><path d="M494.23,422h1.35V434.9h-1.35Z" fill="#3a3d3f"/><path d="M504.92,433.73l0,1.07a32.47,32.47,0,0,1-3.51.28c-2.69,0-3.57-1.56-3.57-4.62,0-3.42,1.48-4.74,3.76-4.74s3.62,1.26,3.62,4.21l-.07,1h-5.94c0,1.93.59,2.94,2.36,2.94C503,433.9,504.92,433.73,504.92,433.73Zm-1-3.85c0-2.23-.68-3-2.27-3s-2.39.84-2.41,3Z" fill="#3a3d3f"/><path d="M513.18,426l0,1.1s-1.44-.16-2.13-.16c-2.07,0-2.63.9-2.63,3.31,0,2.67.42,3.64,2.65,3.64.68,0,2.13-.16,2.13-.16l.05,1.11a24,24,0,0,1-2.5.25c-2.87,0-3.71-1.31-3.71-4.84,0-3.26,1.06-4.52,3.74-4.52A20.89,20.89,0,0,1,513.18,426Z" fill="#3a3d3f"/><path d="M517,427.07v4.3c0,2,.13,2.53,1.3,2.53.5,0,1.6-.11,1.6-.11l.09,1.11a15.44,15.44,0,0,1-1.83.2c-1.86,0-2.49-.7-2.49-3.29v-4.74H514.4V425.9h1.28v-2.75H517v2.75h2.87v1.17Z" fill="#3a3d3f"/><path d="M527.29,427.07v4.3c0,2,.13,2.53,1.3,2.53.5,0,1.6-.11,1.6-.11l.09,1.11a15.43,15.43,0,0,1-1.84.2c-1.85,0-2.48-.7-2.48-3.29v-4.74h-1.28V425.9H526v-2.75h1.33v2.75h2.87v1.17Z" fill="#3a3d3f"/><path d="M531.81,434.9V422h1.35v4.43a7.55,7.55,0,0,1,2.77-.69c2.47,0,3.05,1.23,3.05,4.43v4.75h-1.35v-4.71c0-2.38-.27-3.26-1.93-3.26a7.41,7.41,0,0,0-2.54.54v7.43Z" fill="#3a3d3f"/><path d="M541.48,422.3h1.35v1.57h-1.35Zm0,3.6h1.35v9h-1.35Z" fill="#3a3d3f"/><path d="M551.4,427.22a29.33,29.33,0,0,0-3.16-.29c-1.11,0-2,.3-2,1.37,0,.84.43,1.08,2.34,1.4,2.25.38,3.1.83,3.1,2.57,0,2.11-1.33,2.81-3.49,2.81a25.4,25.4,0,0,1-3.17-.34l.07-1.17a29.5,29.5,0,0,0,3,.31c1.48,0,2.27-.33,2.27-1.55,0-.94-.47-1.17-2.43-1.48s-3-.7-3-2.5c0-2,1.6-2.63,3.24-2.63a23.19,23.19,0,0,1,3.26.34Z" fill="#3a3d3f"/><path d="M34,458.29c0,3.28-.81,4.79-3.85,4.79s-3.85-1.51-3.85-4.79c0-3.09,1-4.57,3.85-4.57S34,455.2,34,458.29Zm-1.38,0c0-2.5-.54-3.4-2.47-3.4s-2.47.9-2.47,3.4.34,3.62,2.47,3.62S32.66,460.85,32.66,458.29Z" fill="#3a3d3f"/><path d="M36.24,453.9h1.33v.65a6.12,6.12,0,0,1,2.7-.83c2.27,0,3.26,1.39,3.26,4.57,0,3.53-1.15,4.79-3.93,4.79a12.32,12.32,0,0,1-2-.19v4H36.24Zm1.35,1.75v6.07a14.72,14.72,0,0,0,1.94.19c2,0,2.63-1,2.63-3.62s-.77-3.36-2.09-3.36A5.86,5.86,0,0,0,37.59,455.65Z" fill="#3a3d3f"/><path d="M47.52,455.07v4.3c0,2,.13,2.53,1.3,2.53.5,0,1.6-.11,1.6-.11l.09,1.11a15.43,15.43,0,0,1-1.84.2c-1.85,0-2.48-.7-2.48-3.29v-4.74H44.91V453.9h1.28v-2.75h1.33v2.75h2.87v1.17Z" fill="#3a3d3f"/><path d="M52,450.3h1.35v1.57H52Zm0,3.6h1.35v9H52Z" fill="#3a3d3f"/><path d="M63.29,458.29c0,3.28-.81,4.79-3.85,4.79s-3.85-1.51-3.85-4.79c0-3.09,1-4.57,3.85-4.57S63.29,455.2,63.29,458.29Zm-1.38,0c0-2.5-.54-3.4-2.47-3.4s-2.47.9-2.47,3.4.34,3.62,2.47,3.62S61.91,460.85,61.91,458.29Z" fill="#3a3d3f"/><path d="M65.49,462.9v-9h1.33v.63a6.85,6.85,0,0,1,2.79-.81c2.48,0,3,1.23,3,4.43v4.75H71.32v-4.71c0-2.38-.27-3.26-1.95-3.26a6.18,6.18,0,0,0-2.53.66v7.31Z" fill="#3a3d3f"/><path d="M75.06,460.85h1.48v2H75.06Z" fill="#3a3d3f"/><rect x="267.52" y="82.91" width="10.84" height="41.27" transform="translate(545.89 207.1) rotate(-180)" fill="#2277d6"/><rect x="252.39" y="96.65" width="10.84" height="27.53" transform="translate(515.63 220.84) rotate(-180)" fill="#2277d6"/><rect x="236.37" y="110.42" width="10.84" height="13.77" transform="translate(483.59 234.6) rotate(-180)" fill="#2277d6"/><path d="M185,91.68h-8.67V87.34A4.33,4.33,0,0,0,172,83h-8.66A4.34,4.34,0,0,0,159,87.35v4.33h-8.67A4.3,4.3,0,0,0,146,96l0,23.84a4.31,4.31,0,0,0,4.33,4.33H184.4a4.91,4.91,0,0,0,4.92-4.91V96A4.33,4.33,0,0,0,185,91.68Zm-13,0h-8.66V87.34H172Z" fill="#2277d6"/><path d="M51.44,97.83,57.37,106a6.29,6.29,0,0,0,4.45,1.84h37.1l-6-8.17c-.95-1.26-1.65-1.79-2.79-1.79Z" fill="#2277d6"/><path d="M99.93,110.36H60.19a6.31,6.31,0,0,1-4.57-2L49,99.82a4.29,4.29,0,0,0-3.16-1.13c-3.55,0-8.48-.08-11.76.13a3.63,3.63,0,0,0-3,2.35l-2.77,8.57a1.8,1.8,0,0,0,0,1.19l1.57,3.59A2.27,2.27,0,0,0,32.06,116H97.64a3.23,3.23,0,0,0,3-2.11l1.2-3.48Z" fill="#2277d6"/><path d="M45.32,118.58C45.32,121,43,123,40.21,123s-5.1-2-5.1-4.43" fill="#2277d6"/><path d="M94.17,118.58c0,2.44-2.28,4.43-5.1,4.43S84,121,84,118.58" fill="#2277d6"/><path d="M33.6,200.2H37L40.76,214H39.24l-1-3.56H32.32l-1,3.56H29.8Zm-.94,8.9H37.9l-2.1-7.58h-1Z"/><path d="M48.14,207H52v6.8a33.71,33.71,0,0,1-4.5.48c-4.24,0-5.36-2.6-5.36-7.08S43.26,200,47.42,200a25.77,25.77,0,0,1,4.54.52l-.06,1.28a31.73,31.73,0,0,0-4.3-.42c-3.2,0-3.9,1.86-3.9,5.78s.68,5.72,3.88,5.72a18.56,18.56,0,0,0,2.86-.28v-4.26h-2.3Z"/><path d="M64.26,200.2,60.64,214H57.2L53.58,200.2h1.6l3.18,12.48h1.12l3.18-12.48Z"/><path d="M72.34,205.5a32.74,32.74,0,0,0-3.5-.32c-1.24,0-2.18.34-2.18,1.52,0,.94.48,1.2,2.6,1.56,2.5.42,3.44.92,3.44,2.86,0,2.34-1.48,3.12-3.88,3.12a28.23,28.23,0,0,1-3.52-.38l.08-1.3s2.28.34,3.3.34c1.64,0,2.52-.36,2.52-1.72,0-1-.52-1.3-2.7-1.64s-3.34-.78-3.34-2.78c0-2.2,1.78-2.92,3.6-2.92a25.57,25.57,0,0,1,3.62.38Z"/><circle cx="44.39" cy="264.05" r="20.9" fill="#bddff4"/><circle cx="96.62" cy="264.05" r="20.9" fill="#bddff4"/><path d="M40.06,256.28a18.62,18.62,0,0,1,4.66-.67c3.74,0,5.06,1.32,5.06,4.13a4,4,0,0,1-2.35,3.6c1.61.57,2.74,1.27,2.74,3.84,0,3.19-1.56,4.77-5.14,4.77a26.42,26.42,0,0,1-5.21-.64l.17-1.52a28.52,28.52,0,0,0,4.85.53c2.35,0,3.43-1,3.43-3.07s-1.46-2.9-3.26-3h-3.2v-1.58H45a3,3,0,0,0,2.88-2.88c0-1.8-.89-2.55-3.24-2.55a24.17,24.17,0,0,0-4.42.48Z"/><path d="M101.37,255.87v1.68h-7.7l-.44,5.16a9.18,9.18,0,0,1,3.72-1c3.1,0,5,1.29,5,4.68,0,3.65-2,5.52-5.3,5.52a26.1,26.1,0,0,1-5.26-.7l.22-1.46a31.48,31.48,0,0,0,4.87.53c2.19,0,3.58-1.3,3.58-3.75s-1.35-3.16-3.36-3.16a9.09,9.09,0,0,0-3.77,1l-1.27-.25.43-8.23Z"/></g></g></svg>