<svg xmlns="http://www.w3.org/2000/svg" xmlns:xlink="http://www.w3.org/1999/xlink" viewBox="0 0 579.59 494.27"><defs><clipPath id="clip-path"><rect x="89.5" y="139.29" width="12.42" height="72.92" fill="#76ce89"/></clipPath><clipPath id="clip-path-2"><rect x="106.89" y="141.32" width="12.42" height="70.88" fill="#76ce89"/></clipPath><clipPath id="clip-path-3"><rect x="124.29" y="144.37" width="12.41" height="67.84" fill="#76ce89"/></clipPath><clipPath id="clip-path-4"><rect x="141.67" y="144.71" width="12.41" height="67.5" fill="#76ce89"/></clipPath><clipPath id="clip-path-5"><rect x="159.06" y="144.72" width="12.4" height="67.48" fill="#76ce89"/></clipPath><clipPath id="clip-path-6"><rect x="176.43" y="144.71" width="12.4" height="67.5" fill="#76ce89"/></clipPath><clipPath id="clip-path-7"><rect x="193.81" y="148.13" width="12.4" height="64.07" fill="#76ce89"/></clipPath><clipPath id="clip-path-8"><rect x="211.18" y="150.4" width="12.38" height="61.8" fill="#76ce89"/></clipPath><clipPath id="clip-path-9"><rect x="228.54" y="150.4" width="12.38" height="61.8" fill="#76ce89"/></clipPath><clipPath id="clip-path-10"><rect x="245.9" y="152.67" width="12.38" height="59.54" fill="#76ce89"/></clipPath><clipPath id="clip-path-11"><rect x="263.25" y="153.81" width="12.38" height="58.39" fill="#76ce89"/></clipPath><clipPath id="clip-path-12"><rect x="280.61" y="156.08" width="12.37" height="56.13" fill="#76ce89"/></clipPath><clipPath id="clip-path-13"><rect x="297.95" y="158.36" width="12.36" height="53.85" fill="#76ce89"/></clipPath><clipPath id="clip-path-14"><rect x="315.29" y="178.81" width="12.35" height="33.4" fill="#ffda00"/></clipPath><clipPath id="clip-path-15"><rect x="332.62" y="185.62" width="12.34" height="26.58" fill="#ffda00"/></clipPath><clipPath id="clip-path-16"><rect x="349.93" y="192.44" width="12.33" height="19.76" fill="#ff4200"/></clipPath><clipPath id="clip-path-17"><rect x="367.24" y="158.36" width="12.33" height="53.85" fill="#76ce89"/></clipPath><clipPath id="clip-path-18"><rect x="384.54" y="162.24" width="12.32" height="49.97" fill="#76ce89"/></clipPath><clipPath id="clip-path-19"><rect x="401.83" y="164.72" width="12.32" height="47.49" fill="#76ce89"/></clipPath><clipPath id="clip-path-20"><rect x="419.11" y="164.72" width="12.3" height="47.49" fill="#76ce89"/></clipPath><clipPath id="clip-path-21"><rect x="470.87" y="164.72" width="11.86" height="47.49" fill="#76ce89"/></clipPath><clipPath id="clip-path-22"><rect x="436.38" y="164.72" width="12.29" height="47.49" fill="#76ce89"/></clipPath><clipPath id="clip-path-23"><rect x="453.64" y="164.72" width="12.26" height="47.49" fill="#76ce89"/></clipPath><clipPath id="clip-path-24"><rect x="72.09" y="135.16" width="12.43" height="77.04" fill="#76ce89"/></clipPath><clipPath id="clip-path-25"><rect x="54.68" y="132.06" width="12.44" height="80.14" fill="#76ce89"/></clipPath></defs><title>r_1_D_Tablet</title><g id="Layer_2" data-name="Layer 2"><g id="Layer_2-2" data-name="Layer 2"><rect width="579.59" height="494.27" fill="#f7f7f7"/></g><g id="WT_Tablet_Content"><path d="M41.08,75.05c1.89,0,2.89.74,2.89,2.46a2.13,2.13,0,0,1-1.25,2.23A2.12,2.12,0,0,1,44.26,82c0,2-1.17,2.72-3,2.72h-3.7V75.05Zm-2.43,1v3.35h2.49c1.22,0,1.72-.58,1.72-1.74S42.27,76,41,76Zm0,4.28v3.51h2.57c1.18,0,2-.38,2-1.81s-1.27-1.7-2-1.7Z" fill="#4c4c4c"/><path d="M51,83.44c0,.4.37.56.82.61l-.05.83a2.13,2.13,0,0,1-1.66-.56,7.16,7.16,0,0,1-2.52.56c-1.28,0-2-.73-2-2.14s.7-1.94,2.14-2.08l2.2-.21v-.6c0-1-.42-1.33-1.26-1.33S46,78.7,46,78.7l0-.8a17.4,17.4,0,0,1,2.75-.3c1.58,0,2.25.72,2.25,2.25Zm-3.12-2c-.85.08-1.19.49-1.19,1.26S47,84,47.7,84a7.32,7.32,0,0,0,2.2-.44V81.25Z" fill="#4c4c4c"/><path d="M54.42,78.65V82c0,1.53.1,2,1,2,.39,0,1.25-.08,1.25-.08l.07.87a12.62,12.62,0,0,1-1.43.15c-1.44,0-1.93-.54-1.93-2.56V78.65h-1v-.92h1V75.59h1v2.14h2.23v.92Z" fill="#4c4c4c"/><path d="M59.34,78.65V82c0,1.53.1,2,1,2,.39,0,1.24-.08,1.24-.08l.07.87a12.62,12.62,0,0,1-1.43.15c-1.44,0-1.93-.54-1.93-2.56V78.65h-1v-.92h1V75.59h1v2.14h2.23v.92Z" fill="#4c4c4c"/><path d="M68,83.83l0,.82a23.89,23.89,0,0,1-2.73.23c-2.09,0-2.78-1.22-2.78-3.6,0-2.66,1.15-3.68,2.93-3.68s2.82,1,2.82,3.27l-.06.8H63.61c0,1.5.46,2.28,1.83,2.28C66.49,84,68,83.83,68,83.83Zm-.78-3c0-1.74-.54-2.35-1.77-2.35s-1.86.66-1.88,2.35Z" fill="#4c4c4c"/><path d="M69.92,77.73h1v1a8,8,0,0,1,2.56-1.11v1.07A10.08,10.08,0,0,0,71,79.6v5.14h-1Z" fill="#4c4c4c"/><path d="M75.16,77.73l1.75,6.1h.46l1.77-6.1h1L77.27,87.85h-1l.91-3.11h-1l-2-7Z" fill="#4c4c4c"/><path d="M84.79,84.74V75.05h1.08v8.72h4.26v1Z" fill="#4c4c4c"/><path d="M96.48,83.83l0,.82a23.89,23.89,0,0,1-2.73.23c-2.09,0-2.77-1.22-2.77-3.6,0-2.66,1.14-3.68,2.92-3.68s2.82,1,2.82,3.27l-.06.8H92.07c0,1.5.46,2.28,1.83,2.28C95,84,96.48,83.83,96.48,83.83Zm-.78-3c0-1.74-.53-2.35-1.77-2.35s-1.86.66-1.87,2.35Z" fill="#4c4c4c"/><path d="M98.85,77.73l1.63,6.1H101l1.7-6.1h1.08l-2,7H99.7l-2-7Z" fill="#4c4c4c"/><path d="M110.29,83.83l0,.82a23.64,23.64,0,0,1-2.73.23c-2.08,0-2.77-1.22-2.77-3.6,0-2.66,1.15-3.68,2.93-3.68s2.81,1,2.81,3.27l0,.8h-4.63c0,1.5.47,2.28,1.84,2.28C108.76,84,110.29,83.83,110.29,83.83Zm-.79-3c0-1.74-.53-2.35-1.76-2.35s-1.87.66-1.88,2.35Z" fill="#4c4c4c"/><path d="M112.27,74.68h1V84.74h-1Z" fill="#4c4c4c"/><path d="M39.57,264.8h1.94L44.26,273,47,264.8H49v9.69H47.87V266h-.19l-2.82,8.19h-1.2L40.84,266h-.19v8.54H39.57Z" fill="#4c4c4c"/><path d="M56.09,273.19c0,.4.36.56.81.61l0,.83a2.15,2.15,0,0,1-1.67-.56,7.16,7.16,0,0,1-2.52.56c-1.27,0-2-.73-2-2.14s.7-1.94,2.14-2.08l2.2-.21v-.6c0-1-.42-1.33-1.26-1.33s-2.65.18-2.65.18l0-.8a17.38,17.38,0,0,1,2.74-.3c1.59,0,2.26.72,2.26,2.25Zm-3.12-2c-.86.08-1.19.49-1.19,1.26s.35,1.29,1.06,1.29a7.32,7.32,0,0,0,2.2-.44V271Z" fill="#4c4c4c"/><path d="M58.16,264.68h1.05v1.22H58.16Zm0,2.81h1.05v7H58.16Z" fill="#4c4c4c"/><path d="M61.23,274.49v-7h1V268a5.35,5.35,0,0,1,2.17-.63c1.94,0,2.37.95,2.37,3.44v3.7h-1v-3.67c0-1.85-.21-2.54-1.51-2.54a4.74,4.74,0,0,0-2,.52v5.69Z" fill="#4c4c4c"/><path d="M70.14,268.4v3.34c0,1.53.1,2,1,2,.39,0,1.25-.09,1.25-.09l.07.87a12.62,12.62,0,0,1-1.43.15c-1.44,0-1.93-.54-1.93-2.56V268.4h-1v-.91h1v-2.15h1v2.15h2.23v.91Z" fill="#4c4c4c"/><path d="M78.83,273.58l0,.83a24.68,24.68,0,0,1-2.73.22c-2.09,0-2.77-1.22-2.77-3.6,0-2.66,1.15-3.68,2.93-3.68s2.81,1,2.81,3.27l0,.8H74.41c0,1.5.47,2.29,1.84,2.29C77.3,273.71,78.83,273.58,78.83,273.58Zm-.79-3c0-1.73-.53-2.35-1.76-2.35s-1.87.66-1.88,2.35Z" fill="#4c4c4c"/><path d="M80.73,274.49v-7h1V268a5.35,5.35,0,0,1,2.17-.63c1.94,0,2.37.95,2.37,3.44v3.7h-1v-3.67c0-1.85-.21-2.54-1.52-2.54a4.74,4.74,0,0,0-2,.52v5.69Z" fill="#4c4c4c"/><path d="M93.19,273.19c0,.4.36.56.81.61l0,.83a2.15,2.15,0,0,1-1.67-.56,7.16,7.16,0,0,1-2.52.56c-1.27,0-2-.73-2-2.14s.7-1.94,2.14-2.08l2.2-.21v-.6c0-1-.42-1.33-1.26-1.33s-2.65.18-2.65.18l0-.8a17.38,17.38,0,0,1,2.74-.3c1.59,0,2.26.72,2.26,2.25Zm-3.12-2c-.86.08-1.2.49-1.2,1.26s.36,1.29,1.07,1.29a7.32,7.32,0,0,0,2.2-.44V271Z" fill="#4c4c4c"/><path d="M95.26,274.49v-7h1V268a5.36,5.36,0,0,1,2.18-.63c1.93,0,2.36.95,2.36,3.44v3.7h-1v-3.67c0-1.85-.21-2.54-1.52-2.54a4.8,4.8,0,0,0-2,.52v5.69Z" fill="#4c4c4c"/><path d="M107.3,267.56l0,.85s-1.12-.13-1.65-.13c-1.62,0-2,.71-2,2.58,0,2.08.32,2.83,2.06,2.83.53,0,1.65-.12,1.65-.12l0,.86a18.17,18.17,0,0,1-1.94.2c-2.23,0-2.89-1-2.89-3.77,0-2.53.83-3.51,2.92-3.51A16.26,16.26,0,0,1,107.3,267.56Z" fill="#4c4c4c"/><path d="M114.05,273.58l0,.83a25,25,0,0,1-2.74.22c-2.08,0-2.77-1.22-2.77-3.6,0-2.66,1.15-3.68,2.93-3.68s2.81,1,2.81,3.27l0,.8h-4.62c0,1.5.46,2.29,1.83,2.29C112.52,273.71,114.05,273.58,114.05,273.58Zm-.79-3c0-1.73-.53-2.35-1.76-2.35s-1.86.66-1.88,2.35Z" fill="#4c4c4c"/><path d="M39.76,358.47h1.53l2.15,6.44,2.16-6.44h1.53v7.61h-.85v-6.71h-.15l-2.21,6.44H43l-2.21-6.44H40.6v6.71h-.84Z" fill="#4c4c4c"/><path d="M52.74,365.06c0,.32.28.44.64.48l0,.65a1.69,1.69,0,0,1-1.31-.44,5.62,5.62,0,0,1-2,.44c-1,0-1.55-.57-1.55-1.68s.55-1.52,1.68-1.63l1.73-.16v-.48c0-.77-.33-1-1-1s-2.08.14-2.08.14l0-.62a12.93,12.93,0,0,1,2.16-.25,1.54,1.54,0,0,1,1.77,1.77Zm-2.46-1.56a.87.87,0,0,0-.93,1c0,.64.27,1,.83,1a5.82,5.82,0,0,0,1.73-.34v-1.82Z" fill="#4c4c4c"/><path d="M54.36,360.58h.82v.75a6.27,6.27,0,0,1,2-.87v.84a8,8,0,0,0-2,.75v4h-.83Z" fill="#4c4c4c"/><path d="M98.37,358.47h1.85l2.09,7.61h-.83l-.55-1.95H97.67l-.55,1.95h-.84Zm-.51,4.9h2.88l-1.16-4.17H99Z" fill="#4c4c4c"/><path d="M103.37,360.58h.81v.4a3.74,3.74,0,0,1,1.65-.51c1.39,0,2,.85,2,2.8,0,2.15-.7,2.92-2.39,2.92a6.64,6.64,0,0,1-1.24-.12v2.46h-.82Zm.82,1.07v3.71a8.82,8.82,0,0,0,1.19.12c1.21,0,1.61-.63,1.61-2.21s-.48-2.06-1.28-2.06A3.59,3.59,0,0,0,104.19,361.65Z" fill="#4c4c4c"/><path d="M109.16,360.58H110v.75a6.27,6.27,0,0,1,2-.87v.84a8,8,0,0,0-2,.75v4h-.83Z" fill="#4c4c4c"/><path d="M153.11,365c0,1.65-.64,1.84-2.09,1.84v-.76c1,0,1.24-.07,1.24-1.2v-6.45h.84Z" fill="#4c4c4c"/><path d="M159.05,360.58v5.5h-.83v-.38a3.7,3.7,0,0,1-1.62.49c-1.54,0-1.86-.71-1.86-2.74v-2.87h.82v2.86c0,1.52.13,2,1.16,2a3.29,3.29,0,0,0,1.5-.41v-4.47Z" fill="#4c4c4c"/><path d="M160.63,366.08v-5.5h.82V361a4.14,4.14,0,0,1,1.7-.5c1.52,0,1.86.75,1.86,2.71v2.9h-.81V363.2c0-1.45-.17-2-1.19-2a3.75,3.75,0,0,0-1.55.41v4.46Z" fill="#4c4c4c"/><path d="M206.68,365c0,1.65-.64,1.84-2.09,1.84v-.76c1,0,1.24-.07,1.24-1.2v-6.45h.84Z" fill="#4c4c4c"/><path d="M212.62,360.58v5.5h-.83v-.38a3.71,3.71,0,0,1-1.63.49c-1.54,0-1.85-.71-1.85-2.74v-2.87h.82v2.86c0,1.52.13,2,1.16,2a3.29,3.29,0,0,0,1.5-.41v-4.47Z" fill="#4c4c4c"/><path d="M214.27,358.18h.82v7.9h-.82Z" fill="#4c4c4c"/><path d="M257,358.47h1.84l2.09,7.61h-.83l-.55-1.95h-3.26l-.55,1.95h-.83Zm-.52,4.9h2.88l-1.15-4.17h-.58Z" fill="#4c4c4c"/><path d="M266.2,360.58v5.5h-.83v-.38a3.71,3.71,0,0,1-1.63.49c-1.54,0-1.86-.71-1.86-2.74v-2.87h.83v2.86c0,1.52.13,2,1.16,2a3.29,3.29,0,0,0,1.5-.41v-4.47Z" fill="#4c4c4c"/><path d="M267.54,367c0-.64.29-.94.87-1.37a.88.88,0,0,1-.31-.76,3.63,3.63,0,0,1,.37-.86,1.61,1.61,0,0,1-.87-1.67c0-1.35.84-1.88,2.06-1.88a5.54,5.54,0,0,1,1.15.15l1.62-.05v.71l-1,0a1.43,1.43,0,0,1,.36,1.1c0,1.43-.71,1.86-2.12,1.86a5.09,5.09,0,0,1-.54,0,3.13,3.13,0,0,0-.2.63c0,.44.09.5,1.33.5,1.56,0,2.13.31,2.13,1.62s-.9,1.75-2.45,1.75C268.16,368.67,267.54,368.28,267.54,367Zm1.43-1c-.46.34-.62.54-.62,1,0,.76.32,1,1.56,1s1.6-.3,1.6-1-.35-.92-1.35-.92C269.77,366,269,366,269,366Zm2-3.62c0-.86-.34-1.21-1.27-1.21s-1.23.35-1.23,1.21.37,1.2,1.23,1.2S270.93,363.22,270.93,362.35Z" fill="#4c4c4c"/><path d="M316.49,359.28s-1.53-.18-2.17-.18c-1.08,0-1.65.38-1.65,1.24s.53,1.16,1.86,1.45c1.52.34,2.19.72,2.19,2,0,1.68-.92,2.34-2.43,2.34a20.26,20.26,0,0,1-2.41-.24l.09-.7s1.49.19,2.27.19c1.08,0,1.63-.47,1.63-1.52,0-.86-.45-1.1-1.69-1.35-1.57-.34-2.37-.71-2.37-2.16s1-2,2.46-2a19,19,0,0,1,2.3.22Z" fill="#4c4c4c"/><path d="M322.1,365.37l0,.65a19.72,19.72,0,0,1-2.14.17c-1.64,0-2.18-.95-2.18-2.82,0-2.09.9-2.9,2.3-2.9s2.21.77,2.21,2.58l-.05.62h-3.63c0,1.18.37,1.8,1.44,1.8C320.9,365.47,322.1,365.37,322.1,365.37Zm-.62-2.36c0-1.36-.42-1.84-1.38-1.84s-1.47.51-1.48,1.84Z" fill="#4c4c4c"/><path d="M323.59,360.58h.82v.4a3.69,3.69,0,0,1,1.65-.51c1.38,0,2,.85,2,2.8,0,2.15-.7,2.92-2.4,2.92a6.41,6.41,0,0,1-1.23-.12v2.46h-.83Zm.83,1.07v3.71a8.45,8.45,0,0,0,1.19.12c1.21,0,1.6-.63,1.6-2.21s-.47-2.06-1.27-2.06A3.59,3.59,0,0,0,324.42,361.65Z" fill="#4c4c4c"/><path d="M367.87,362.31c0-2.51.65-3.95,3-3.95s3,1.42,3,3.95-.65,3.88-3,3.88S367.87,364.86,367.87,362.31Zm5.14,0c0-2.06-.4-3.2-2.14-3.2s-2.13,1.13-2.13,3.2.37,3.14,2.13,3.14S373,364.46,373,362.31Z" fill="#4c4c4c"/><path d="M378.85,360.64l0,.67s-.88-.1-1.29-.1c-1.27,0-1.61.55-1.61,2,0,1.63.25,2.23,1.62,2.23.41,0,1.29-.1,1.29-.1l0,.68a15.21,15.21,0,0,1-1.53.15c-1.75,0-2.27-.8-2.27-3,0-2,.65-2.76,2.29-2.76A12.4,12.4,0,0,1,378.85,360.64Z" fill="#4c4c4c"/><path d="M381.19,361.3v2.63c0,1.2.08,1.54.79,1.54.31,0,1-.07,1-.07l.06.68a9.78,9.78,0,0,1-1.13.12c-1.13,0-1.52-.42-1.52-2V361.3h-.78v-.72h.78V358.9h.82v1.68h1.75v.72Z" fill="#4c4c4c"/><path d="M422.74,358.47h1.58l2.91,6.87h.24v-6.87h.83v7.61h-1.55l-3-6.86h-.21v6.86h-.84Z" fill="#4c4c4c"/><path d="M434.49,363.27c0,2-.49,2.92-2.35,2.92s-2.36-.92-2.36-2.92.62-2.8,2.36-2.8S434.49,361.38,434.49,363.27Zm-.84,0c0-1.53-.33-2.08-1.51-2.08s-1.51.55-1.51,2.08.21,2.21,1.51,2.21S433.65,364.83,433.65,363.27Z" fill="#4c4c4c"/><path d="M436.1,360.58l1.29,4.79h.4l1.33-4.79H440l-1.55,5.5h-1.65l-1.55-5.5Z" fill="#4c4c4c"/><path d="M479.81,366.08v-7.61h2.72c2.21,0,2.82,1.54,2.82,3.7s-.58,3.91-2.82,3.91Zm2.72-6.86h-1.87v6.12h1.87c1.58,0,2-1.52,2-3.17S484.11,359.22,482.53,359.22Z" fill="#4c4c4c"/><path d="M490.82,365.37l0,.65a20,20,0,0,1-2.15.17c-1.64,0-2.18-.95-2.18-2.82,0-2.09.9-2.9,2.3-2.9s2.21.77,2.21,2.58l0,.62h-3.63c0,1.18.36,1.8,1.44,1.8C489.62,365.47,490.82,365.37,490.82,365.37Zm-.61-2.36c0-1.36-.42-1.84-1.39-1.84s-1.46.51-1.47,1.84Z" fill="#4c4c4c"/><path d="M495.87,360.64l0,.67s-.88-.1-1.3-.1c-1.26,0-1.6.55-1.6,2,0,1.63.25,2.23,1.61,2.23.42,0,1.3-.1,1.3-.1l0,.68a14.87,14.87,0,0,1-1.53.15c-1.74,0-2.26-.8-2.26-3,0-2,.65-2.76,2.29-2.76A12.42,12.42,0,0,1,495.87,360.64Z" fill="#4c4c4c"/><line x1="495.01" y1="352.64" x2="36.06" y2="352.64" fill="none" stroke="#adadad" stroke-miterlimit="10"/><polyline points="40.26 348.14 82.55 345.94 115.9 341.55 135.68 334.21 153.46 330.19 174.26 329.25 192.44 327.68 210.21 322.28 221.9 315.06 231.44 309.05 246.92 304.66 264.79 299.47 282.09 293.85 299.63 291.79 308.81 295.8 324.34 303.78 340.52 306.98 351.68 310.34 364.21 312.94 383.67 320.65 395.81 326.62 408.91 333.64 418.44 338.04 433.92 342.43 443.45 345.06 464.89 347.7 479.78 345.5 491.69 340.23" fill="none" stroke="#3899e8"/><polyline points="39.07 348.14 81.36 345.94 114.71 341.55 136.39 334.05 153.46 330.19 173.07 329.25 191.25 327.68 210.21 322.28 221.9 315.06 230.24 309.05 245.73 305.54 264.79 299.47 282.09 293.85 298.94 293.16 307.2 296.26 323.15 303.78 340.52 306.98 351.68 310.34 366.08 313.19 383.67 320.65 395.81 326.62 407.72 333.64 417.25 338.04 432.73 342.43 442.26 345.06 463.7 347.7 478.59 345.5 490.5 340.23" fill="none" stroke="#8dc5f2"/><rect x="39.02" y="290.12" width="451.79" height="58.52" fill="none"/><path d="M36.24,425.61h9v1.25h-3.8v11.21H40.08V426.86H36.24Z" fill="#3a3d3f"/><path d="M54.08,433.47c0,3.27-.81,4.78-3.85,4.78s-3.85-1.51-3.85-4.78c0-3.1,1-4.58,3.85-4.58S54.08,430.37,54.08,433.47Zm-1.38,0c0-2.51-.54-3.41-2.47-3.41s-2.47.9-2.47,3.41.35,3.61,2.47,3.61S52.7,436,52.7,433.47Z" fill="#3a3d3f"/><path d="M63.19,438.07H61.86v-.61a6.49,6.49,0,0,1-2.74.79c-1.76,0-3.24-.72-3.24-4.6,0-3.17,1-4.76,3.76-4.76a14.13,14.13,0,0,1,2.22.24v-4h1.33Zm-1.33-1.69v-6.1a14.42,14.42,0,0,0-2.14-.22c-1.89,0-2.45,1.24-2.45,3.59,0,2.91.95,3.4,2,3.4A6.54,6.54,0,0,0,61.86,436.38Z" fill="#3a3d3f"/><path d="M72.15,436.4c0,.52.47.72,1,.79l-.06,1.06a2.75,2.75,0,0,1-2.14-.72,9.2,9.2,0,0,1-3.24.72c-1.64,0-2.54-.93-2.54-2.75s.9-2.49,2.76-2.67l2.82-.27v-.77c0-1.26-.54-1.71-1.62-1.71-1.26,0-3.4.23-3.4.23l0-1a21.6,21.6,0,0,1,3.53-.4c2,0,2.89.94,2.89,2.9Zm-4-2.56c-1.1.11-1.53.63-1.53,1.62s.45,1.66,1.37,1.66a9.47,9.47,0,0,0,2.82-.56v-3Z" fill="#3a3d3f"/><path d="M75.32,429.07l2.25,7.83h.6l2.26-7.83h1.35l-3.74,13H76.69l1.17-4H76.53l-2.56-9Z" fill="#3a3d3f"/><path d="M87.47,425.47h1.35V427H87.47Zm0,3.6h1.35v9H87.47Z" fill="#3a3d3f"/><path d="M93.21,430.24v4.31c0,2,.13,2.52,1.3,2.52.5,0,1.6-.11,1.6-.11l.09,1.11a15.43,15.43,0,0,1-1.84.2c-1.85,0-2.48-.7-2.48-3.29v-4.74H90.6v-1.17h1.28v-2.75h1.33v2.75h2.87v1.17Z" fill="#3a3d3f"/><path d="M101.69,425.47H103V427h-1.35Zm0,3.6H103v9h-1.35Z" fill="#3a3d3f"/><path d="M111.61,430.39a29.33,29.33,0,0,0-3.15-.29c-1.12,0-2,.3-2,1.37,0,.84.43,1.08,2.34,1.4,2.25.38,3.09.83,3.09,2.58,0,2.1-1.33,2.8-3.49,2.8a25.65,25.65,0,0,1-3.17-.34l.07-1.17a29.8,29.8,0,0,0,3,.31c1.47,0,2.26-.33,2.26-1.55,0-.94-.46-1.17-2.43-1.48s-3-.7-3-2.5c0-2,1.6-2.63,3.24-2.63a23.19,23.19,0,0,1,3.26.34Z" fill="#3a3d3f"/><path d="M118,429.07h1.34v.65a6.07,6.07,0,0,1,2.7-.83c2.26,0,3.26,1.39,3.26,4.58,0,3.52-1.16,4.78-3.93,4.78a12.35,12.35,0,0,1-2-.19v4H118Zm1.35,1.75v6.07a14.93,14.93,0,0,0,2,.19c2,0,2.63-1,2.63-3.61s-.78-3.37-2.09-3.37A5.87,5.87,0,0,0,119.31,430.82Z" fill="#3a3d3f"/><path d="M134.76,433.47c0,3.27-.81,4.78-3.85,4.78s-3.86-1.51-3.86-4.78c0-3.1,1-4.58,3.86-4.58S134.76,430.37,134.76,433.47Zm-1.39,0c0-2.51-.54-3.41-2.46-3.41s-2.47.9-2.47,3.41.34,3.61,2.47,3.61S133.37,436,133.37,433.47Z" fill="#3a3d3f"/><path d="M142.93,430.39a29.33,29.33,0,0,0-3.15-.29c-1.12,0-2,.3-2,1.37,0,.84.43,1.08,2.34,1.4,2.25.38,3.1.83,3.1,2.58,0,2.1-1.34,2.8-3.5,2.8a25.65,25.65,0,0,1-3.17-.34l.07-1.17a29.8,29.8,0,0,0,3,.31c1.47,0,2.26-.33,2.26-1.55,0-.94-.46-1.17-2.43-1.48s-3-.7-3-2.5c0-2,1.6-2.63,3.24-2.63a23.19,23.19,0,0,1,3.26.34Z" fill="#3a3d3f"/><path d="M151.3,430.39a29.33,29.33,0,0,0-3.15-.29c-1.12,0-2,.3-2,1.37,0,.84.43,1.08,2.34,1.4,2.25.38,3.1.83,3.1,2.58,0,2.1-1.34,2.8-3.5,2.8a25.65,25.65,0,0,1-3.17-.34l.08-1.17a29.5,29.5,0,0,0,3,.31c1.47,0,2.26-.33,2.26-1.55,0-.94-.46-1.17-2.43-1.48s-3-.7-3-2.5c0-2,1.6-2.63,3.24-2.63a23.19,23.19,0,0,1,3.26.34Z" fill="#3a3d3f"/><path d="M153.69,425.47H155V427h-1.35Zm0,3.6H155v9h-1.35Z" fill="#3a3d3f"/><path d="M164.89,433.43c0,3.58-1,4.82-4.25,4.82-1.08,0-3-.19-3-.19V425.15H159v4.37a7.43,7.43,0,0,1,2.64-.63C164.06,428.89,164.89,430.19,164.89,433.43Zm-1.37,0c0-2.32-.47-3.33-2.05-3.33a7.57,7.57,0,0,0-2.5.52V437s1.17.09,1.65.09C163.09,437.05,163.52,436,163.52,433.43Z" fill="#3a3d3f"/><path d="M167.21,425.15h1.35v12.92h-1.35Z" fill="#3a3d3f"/><path d="M177.9,436.9l0,1.07a32.2,32.2,0,0,1-3.51.28c-2.68,0-3.57-1.56-3.57-4.62,0-3.42,1.48-4.74,3.77-4.74s3.62,1.26,3.62,4.21l-.08,1h-5.94c0,1.93.6,2.94,2.36,2.94C175.94,437.07,177.9,436.9,177.9,436.9Zm-1-3.85c0-2.23-.69-3-2.27-3s-2.4.84-2.41,3Z" fill="#3a3d3f"/><path d="M186.11,430.24v4.31c0,2,.13,2.52,1.3,2.52.5,0,1.6-.11,1.6-.11l.09,1.11a15.71,15.71,0,0,1-1.84.2c-1.85,0-2.48-.7-2.48-3.29v-4.74H183.5v-1.17h1.28v-2.75h1.33v2.75H189v1.17Z" fill="#3a3d3f"/><path d="M197.94,433.47c0,3.27-.81,4.78-3.85,4.78s-3.86-1.51-3.86-4.78c0-3.1,1-4.58,3.86-4.58S197.94,430.37,197.94,433.47Zm-1.39,0c0-2.51-.54-3.41-2.46-3.41s-2.47.9-2.47,3.41.34,3.61,2.47,3.61S196.55,436,196.55,433.47Z" fill="#3a3d3f"/><path d="M211.06,429.07v9h-1.35v-.63a6.07,6.07,0,0,1-2.66.81c-2.53,0-3.05-1.17-3.05-4.48v-4.7h1.35v4.68c0,2.49.22,3.3,1.89,3.3a5.42,5.42,0,0,0,2.47-.67v-7.31Z" fill="#3a3d3f"/><path d="M219.63,430.39a29.33,29.33,0,0,0-3.15-.29c-1.12,0-2,.3-2,1.37,0,.84.44,1.08,2.34,1.4,2.26.38,3.1.83,3.1,2.58,0,2.1-1.33,2.8-3.49,2.8a25.65,25.65,0,0,1-3.17-.34l.07-1.17a29.5,29.5,0,0,0,3,.31c1.48,0,2.27-.33,2.27-1.55,0-.94-.47-1.17-2.43-1.48s-3-.7-3-2.5c0-2,1.61-2.63,3.24-2.63a23,23,0,0,1,3.26.34Z" fill="#3a3d3f"/><path d="M228.66,436.9l0,1.07a32.2,32.2,0,0,1-3.51.28c-2.68,0-3.57-1.56-3.57-4.62,0-3.42,1.48-4.74,3.77-4.74s3.62,1.26,3.62,4.21l-.08,1H223c0,1.93.6,2.94,2.36,2.94C226.7,437.07,228.66,436.9,228.66,436.9Zm-1-3.85c0-2.23-.69-3-2.27-3s-2.4.84-2.42,3Z" fill="#3a3d3f"/><path d="M237.63,425.61h3l3.42,12.46H242.7l-.9-3.2h-5.33l-.9,3.2h-1.36Zm-.85,8h4.72l-1.89-6.83h-.94Z" fill="#3a3d3f"/><path d="M251,431.7h3.43v6.12a30.55,30.55,0,0,1-4.05.43c-3.81,0-4.82-2.34-4.82-6.37s1-6.45,4.79-6.45a23,23,0,0,1,4.08.47l-.05,1.15a29.11,29.11,0,0,0-3.87-.37c-2.88,0-3.51,1.67-3.51,5.2s.61,5.15,3.49,5.15a16.86,16.86,0,0,0,2.58-.25v-3.84H251Z" fill="#3a3d3f"/><path d="M265.64,425.61l-3.26,12.46h-3.1L256,425.61h1.44l2.86,11.24h1l2.87-11.24Z" fill="#3a3d3f"/><path d="M271.34,436.81a27,27,0,0,0,3.13.22c2.18,0,3.26-1.33,3.28-4.14a11,11,0,0,1-3.1.68c-2.48,0-3.89-1.11-3.89-3.62s1.62-3.94,4.13-3.94c3,0,4.3,2.38,4.3,6.16,0,4.61-1.78,6.08-4.72,6.08a21.41,21.41,0,0,1-3.26-.32Zm6.43-5.11c0-2.59-.8-4.46-2.88-4.46A2.5,2.5,0,0,0,272.2,430c0,1.68.9,2.4,2.56,2.4A11.08,11.08,0,0,0,277.77,431.7Z" fill="#3a3d3f"/><path d="M291.72,436.4c0,.52.46.72,1,.79l-.05,1.06a2.76,2.76,0,0,1-2.15-.72,9.2,9.2,0,0,1-3.24.72c-1.64,0-2.53-.93-2.53-2.75s.89-2.49,2.75-2.67l2.83-.27v-.77c0-1.26-.54-1.71-1.62-1.71-1.26,0-3.41.23-3.41.23l0-1a21.6,21.6,0,0,1,3.53-.4c2,0,2.9.94,2.9,2.9Zm-4-2.56c-1.1.11-1.53.63-1.53,1.62s.45,1.66,1.37,1.66a9.57,9.57,0,0,0,2.83-.56v-3Z" fill="#3a3d3f"/><path d="M296.18,430.24v4.31c0,2,.13,2.52,1.3,2.52.5,0,1.6-.11,1.6-.11l.09,1.11a15.71,15.71,0,0,1-1.84.2c-1.85,0-2.48-.7-2.48-3.29v-4.74h-1.28v-1.17h1.28v-2.75h1.33v2.75H299v1.17Z" fill="#3a3d3f"/><path d="M304.66,425.47H306V427h-1.35Zm0,3.6H306v9h-1.35Z" fill="#3a3d3f"/><path d="M310.4,430.24v4.31c0,2,.13,2.52,1.3,2.52.5,0,1.6-.11,1.6-.11l.09,1.11a15.71,15.71,0,0,1-1.84.2c-1.85,0-2.48-.7-2.48-3.29v-4.74h-1.28v-1.17h1.28v-2.75h1.33v2.75h2.86v1.17Z" fill="#3a3d3f"/><path d="M320.9,430.39a29.33,29.33,0,0,0-3.16-.29c-1.11,0-2,.3-2,1.37,0,.84.43,1.08,2.34,1.4,2.25.38,3.1.83,3.1,2.58,0,2.1-1.33,2.8-3.49,2.8a25.4,25.4,0,0,1-3.17-.34l.07-1.17a29.5,29.5,0,0,0,3,.31c1.48,0,2.27-.33,2.27-1.55,0-.94-.47-1.17-2.43-1.48s-3-.7-3-2.5c0-2,1.6-2.63,3.24-2.63a23.19,23.19,0,0,1,3.26.34Z" fill="#3a3d3f"/><path d="M329,438.07h-1.35v-7.83h-1.14v-1.17h1.14v-.81c0-2.59.66-3.29,2.43-3.29.61,0,1.82.12,1.82.12l0,1.12s-1,0-1.55,0c-1,0-1.33.44-1.33,2.11v.79h2.61v1.17H329Z" fill="#3a3d3f"/><path d="M340.17,429.07v9h-1.35v-.63a6.07,6.07,0,0,1-2.66.81c-2.52,0-3-1.17-3-4.48v-4.7h1.35v4.68c0,2.49.21,3.3,1.89,3.3a5.4,5.4,0,0,0,2.46-.67v-7.31Z" fill="#3a3d3f"/><path d="M342.87,425.15h1.35v12.92h-1.35Z" fill="#3a3d3f"/><path d="M347,425.15h1.35v12.92H347Z" fill="#3a3d3f"/><path d="M355,429.07h1.33v.65a6.12,6.12,0,0,1,2.7-.83c2.27,0,3.26,1.39,3.26,4.58,0,3.52-1.15,4.78-3.92,4.78a12.35,12.35,0,0,1-2-.19v4H355Zm1.35,1.75v6.07a14.73,14.73,0,0,0,1.95.19c2,0,2.62-1,2.62-3.61s-.77-3.37-2.08-3.37A5.87,5.87,0,0,0,356.39,430.82Z" fill="#3a3d3f"/><path d="M371.17,436.9l0,1.07a32.47,32.47,0,0,1-3.51.28c-2.69,0-3.57-1.56-3.57-4.62,0-3.42,1.48-4.74,3.76-4.74s3.62,1.26,3.62,4.21l-.07,1H365.5c0,1.93.59,2.94,2.36,2.94C369.21,437.07,371.17,436.9,371.17,436.9Zm-1-3.85c0-2.23-.68-3-2.27-3s-2.39.84-2.41,3Z" fill="#3a3d3f"/><path d="M373.62,429.07H375v1.23a10.21,10.21,0,0,1,3.29-1.43v1.37a12.81,12.81,0,0,0-3.27,1.23v6.6h-1.35Z" fill="#3a3d3f"/><path d="M381.57,438.07h-1.35v-7.83h-1.13v-1.17h1.13v-.81c0-2.59.67-3.29,2.43-3.29.61,0,1.82.12,1.82.12l0,1.12s-1,0-1.55,0c-1,0-1.33.44-1.33,2.11v.79h2.61v1.17h-2.61Z" fill="#3a3d3f"/><path d="M393.11,433.47c0,3.27-.81,4.78-3.85,4.78s-3.85-1.51-3.85-4.78c0-3.1,1-4.58,3.85-4.58S393.11,430.37,393.11,433.47Zm-1.39,0c0-2.51-.54-3.41-2.46-3.41s-2.47.9-2.47,3.41.34,3.61,2.47,3.61S391.72,436,391.72,433.47Z" fill="#3a3d3f"/><path d="M395.31,429.07h1.33v1.23a10.21,10.21,0,0,1,3.29-1.43v1.37a12.81,12.81,0,0,0-3.27,1.23v6.6h-1.35Z" fill="#3a3d3f"/><path d="M401.53,438.07v-9h1.34v.63a6,6,0,0,1,2.62-.81,2.55,2.55,0,0,1,2.35.92,7.46,7.46,0,0,1,3.2-.92c2.45,0,3,1.17,3,4.43v4.75h-1.35v-4.71c0-2.38-.27-3.26-1.89-3.26a6,6,0,0,0-2.54.66,9.85,9.85,0,0,1,.24,2.63v4.68h-1.35v-4.64c0-2.49-.26-3.33-1.89-3.33a5.46,5.46,0,0,0-2.42.66v7.31Z" fill="#3a3d3f"/><path d="M422.94,436.4c0,.52.46.72,1,.79l-.05,1.06a2.76,2.76,0,0,1-2.15-.72,9.2,9.2,0,0,1-3.24.72c-1.64,0-2.54-.93-2.54-2.75s.9-2.49,2.76-2.67l2.83-.27v-.77c0-1.26-.54-1.71-1.62-1.71-1.26,0-3.41.23-3.41.23l-.05-1a21.6,21.6,0,0,1,3.53-.4c2,0,2.9.94,2.9,2.9Zm-4-2.56c-1.1.11-1.53.63-1.53,1.62s.45,1.66,1.37,1.66a9.57,9.57,0,0,0,2.83-.56v-3Z" fill="#3a3d3f"/><path d="M425.6,438.07v-9h1.33v.63a6.85,6.85,0,0,1,2.79-.81c2.49,0,3,1.23,3,4.43v4.75h-1.33v-4.71c0-2.38-.27-3.26-1.94-3.26a6.19,6.19,0,0,0-2.54.66v7.31Z" fill="#3a3d3f"/><path d="M441.08,429.16l-.05,1.1s-1.44-.16-2.13-.16c-2.07,0-2.63.9-2.63,3.31,0,2.67.42,3.64,2.65,3.64.68,0,2.12-.16,2.12-.16l.06,1.11a24.28,24.28,0,0,1-2.5.25c-2.87,0-3.71-1.31-3.71-4.84,0-3.26,1.06-4.52,3.74-4.52A20.89,20.89,0,0,1,441.08,429.16Z" fill="#3a3d3f"/><path d="M449.76,436.9l0,1.07a32.2,32.2,0,0,1-3.51.28c-2.68,0-3.56-1.56-3.56-4.62,0-3.42,1.47-4.74,3.76-4.74s3.62,1.26,3.62,4.21l-.07,1h-5.95c0,1.93.6,2.94,2.36,2.94C447.79,437.07,449.76,436.9,449.76,436.9Zm-1-3.85c0-2.23-.69-3-2.27-3s-2.4.84-2.41,3Z" fill="#3a3d3f"/><path d="M452.11,436h1.48v2.05h-1.48Z" fill="#3a3d3f"/><path d="M460.28,425.61h1.39v12.46h-1.39Z" fill="#3a3d3f"/><path d="M466.28,430.24v4.31c0,2,.12,2.52,1.29,2.52.51,0,1.61-.11,1.61-.11l.09,1.11a15.71,15.71,0,0,1-1.84.2c-1.85,0-2.48-.7-2.48-3.29v-4.74h-1.28v-1.17H465v-2.75h1.33v2.75h2.86v1.17Z" fill="#3a3d3f"/><path d="M475.37,429.07l1.82,7.83h.28l2.15-7.65H481l2.14,7.65h.31l1.8-7.83h1.35l-2.14,9h-2.25l-1.91-7-1.91,7h-2.25l-2.14-9Z" fill="#3a3d3f"/><path d="M495.78,433.47c0,3.27-.81,4.78-3.85,4.78s-3.85-1.51-3.85-4.78c0-3.1,1-4.58,3.85-4.58S495.78,430.37,495.78,433.47Zm-1.39,0c0-2.51-.54-3.41-2.46-3.41s-2.47.9-2.47,3.41.34,3.61,2.47,3.61S494.39,436,494.39,433.47Z" fill="#3a3d3f"/><path d="M504.94,429.07v9h-1.35v-.63a6.07,6.07,0,0,1-2.66.81c-2.52,0-3-1.17-3-4.48v-4.7h1.35v4.68c0,2.49.21,3.3,1.89,3.3a5.4,5.4,0,0,0,2.46-.67v-7.31Z" fill="#3a3d3f"/><path d="M507.64,425.15H509v12.92h-1.35Z" fill="#3a3d3f"/><path d="M518.61,438.07h-1.34v-.61a6.42,6.42,0,0,1-2.73.79c-1.77,0-3.24-.72-3.24-4.6,0-3.17,1-4.76,3.76-4.76a14.12,14.12,0,0,1,2.21.24v-4h1.34Zm-1.34-1.69v-6.1a14.27,14.27,0,0,0-2.14-.22c-1.89,0-2.45,1.24-2.45,3.59,0,2.91,1,3.4,2,3.4A6.47,6.47,0,0,0,517.27,436.38Z" fill="#3a3d3f"/><path d="M37.31,466.07v-9h1.33v.63a6.85,6.85,0,0,1,2.79-.81c2.48,0,3,1.23,3,4.43v4.75H43.14v-4.71c0-2.38-.27-3.26-2-3.26a6.18,6.18,0,0,0-2.53.66v7.31Z" fill="#3a3d3f"/><path d="M53.62,464.9l0,1.07a32.2,32.2,0,0,1-3.51.28c-2.68,0-3.56-1.56-3.56-4.62,0-3.42,1.47-4.74,3.76-4.74S54,458.15,54,461.1l-.07,1h-6c0,1.93.6,2.94,2.36,2.94C51.65,465.07,53.62,464.9,53.62,464.9Zm-1-3.85c0-2.23-.69-3-2.27-3s-2.4.84-2.41,3Z" fill="#3a3d3f"/><path d="M62.71,464.9l0,1.07a32.2,32.2,0,0,1-3.51.28c-2.68,0-3.56-1.56-3.56-4.62,0-3.42,1.47-4.74,3.76-4.74s3.62,1.26,3.62,4.21l-.08,1H57c0,1.93.6,2.94,2.36,2.94C60.74,465.07,62.71,464.9,62.71,464.9Zm-1-3.85c0-2.23-.69-3-2.27-3s-2.4.84-2.41,3Z" fill="#3a3d3f"/><path d="M72.06,466.07H70.73v-.61a6.42,6.42,0,0,1-2.73.79c-1.77,0-3.24-.72-3.24-4.6,0-3.17,1-4.76,3.76-4.76a14.12,14.12,0,0,1,2.21.24v-4h1.33Zm-1.33-1.69v-6.1a14.27,14.27,0,0,0-2.14-.22c-1.89,0-2.45,1.24-2.45,3.59,0,2.91,1,3.4,2,3.4A6.47,6.47,0,0,0,70.73,464.38Z" fill="#3a3d3f"/><path d="M84.45,457.16l-.06,1.1s-1.44-.16-2.12-.16c-2.07,0-2.63.9-2.63,3.31,0,2.67.42,3.64,2.65,3.64.68,0,2.12-.16,2.12-.16l.06,1.11a24.24,24.24,0,0,1-2.51.25c-2.86,0-3.71-1.31-3.71-4.84,0-3.26,1.07-4.52,3.75-4.52A20.89,20.89,0,0,1,84.45,457.16Z" fill="#3a3d3f"/><path d="M86.48,466.07V453.15h1.35v4.43a7.55,7.55,0,0,1,2.77-.69c2.47,0,3.05,1.23,3.05,4.43v4.75H92.3v-4.71c0-2.38-.27-3.26-1.93-3.26a7.41,7.41,0,0,0-2.54.54v7.43Z" fill="#3a3d3f"/><path d="M102.5,464.4c0,.52.47.72,1,.79l-.06,1.06a2.75,2.75,0,0,1-2.14-.72,9.2,9.2,0,0,1-3.24.72c-1.64,0-2.54-.93-2.54-2.75s.9-2.49,2.75-2.67l2.83-.27v-.77c0-1.26-.54-1.71-1.62-1.71-1.26,0-3.4.23-3.4.23l-.06-1a21.77,21.77,0,0,1,3.53-.4c2,0,2.9.94,2.9,2.9Zm-4-2.56c-1.1.11-1.53.63-1.53,1.62s.45,1.66,1.36,1.66a9.48,9.48,0,0,0,2.83-.56v-3Z" fill="#3a3d3f"/><path d="M105.16,457.07h1.34v1.23a10.21,10.21,0,0,1,3.29-1.43v1.37a13,13,0,0,0-3.28,1.23v6.6h-1.35Z" fill="#3a3d3f"/><path d="M111,467.59c0-1,.48-1.53,1.42-2.24a1.43,1.43,0,0,1-.51-1.24,5.78,5.78,0,0,1,.62-1.42c-.76-.34-1.43-1.06-1.43-2.72,0-2.21,1.37-3.08,3.37-3.08a9.07,9.07,0,0,1,1.87.24l2.67-.08v1.16l-1.71,0a2.35,2.35,0,0,1,.59,1.8c0,2.34-1.17,3-3.47,3a6.94,6.94,0,0,1-.89-.07,5.32,5.32,0,0,0-.32,1c0,.72.14.83,2.18.83,2.56,0,3.47.5,3.47,2.64s-1.45,2.87-4,2.87C112,470.31,111,469.68,111,467.59Zm2.34-1.7c-.76.56-1,.89-1,1.59,0,1.24.52,1.69,2.55,1.69,1.8,0,2.62-.48,2.62-1.67,0-1.37-.58-1.52-2.22-1.52C114.65,466,113.34,465.89,113.34,465.89Zm3.2-5.92c0-1.42-.56-2-2.07-2s-2,.56-2,2,.62,2,2,2S116.54,461.39,116.54,460Z" fill="#3a3d3f"/><path d="M127.29,464.9l0,1.07a32.2,32.2,0,0,1-3.51.28c-2.68,0-3.56-1.56-3.56-4.62,0-3.42,1.47-4.74,3.76-4.74s3.62,1.26,3.62,4.21l-.07,1h-5.94c0,1.93.59,2.94,2.35,2.94C125.32,465.07,127.29,464.9,127.29,464.9Zm-1-3.85c0-2.23-.68-3-2.27-3s-2.39.84-2.41,3Z" fill="#3a3d3f"/><path d="M140.05,464.4c0,.52.47.72,1,.79l-.05,1.06a2.75,2.75,0,0,1-2.14-.72,9.2,9.2,0,0,1-3.24.72c-1.64,0-2.54-.93-2.54-2.75s.9-2.49,2.75-2.67l2.83-.27v-.77c0-1.26-.54-1.71-1.62-1.71-1.26,0-3.4.23-3.4.23l-.06-1a21.6,21.6,0,0,1,3.53-.4c2,0,2.9.94,2.9,2.9Zm-4-2.56c-1.09.11-1.53.63-1.53,1.62s.45,1.66,1.37,1.66a9.57,9.57,0,0,0,2.83-.56v-3Z" fill="#3a3d3f"/><path d="M142.71,457.07H144v1.23a10.32,10.32,0,0,1,3.3-1.43v1.37a13,13,0,0,0-3.28,1.23v6.6h-1.35Z" fill="#3a3d3f"/><path d="M156.25,461.47c0,3.27-.81,4.78-3.86,4.78s-3.85-1.51-3.85-4.78c0-3.1,1-4.58,3.85-4.58S156.25,458.37,156.25,461.47Zm-1.39,0c0-2.51-.54-3.41-2.47-3.41s-2.46.9-2.46,3.41.34,3.61,2.46,3.61S154.86,464,154.86,461.47Z" fill="#3a3d3f"/><path d="M165.41,457.07v9h-1.35v-.63a6.08,6.08,0,0,1-2.67.81c-2.52,0-3-1.17-3-4.48v-4.7h1.35v4.68c0,2.49.22,3.3,1.89,3.3a5.42,5.42,0,0,0,2.47-.67v-7.31Z" fill="#3a3d3f"/><path d="M168,466.07v-9h1.33v.63a6.85,6.85,0,0,1,2.79-.81c2.49,0,3,1.23,3,4.43v4.75h-1.34v-4.71c0-2.38-.27-3.26-1.94-3.26a6.19,6.19,0,0,0-2.54.66v7.31Z" fill="#3a3d3f"/><path d="M184.58,466.07h-1.33v-.61a6.49,6.49,0,0,1-2.74.79c-1.76,0-3.24-.72-3.24-4.6,0-3.17,1-4.76,3.76-4.76a14.13,14.13,0,0,1,2.22.24v-4h1.33Zm-1.33-1.69v-6.1a14.43,14.43,0,0,0-2.15-.22c-1.89,0-2.44,1.24-2.44,3.59,0,2.91,1,3.4,2,3.4A6.54,6.54,0,0,0,183.25,464.38Z" fill="#3a3d3f"/><path d="M195.56,454.19h1.29v11.88h-1.38V455.74l-3.06,2-.63-1.05Z" fill="#3a3d3f"/><path d="M209.24,457.09c0,1.53-.59,2.16-2,2.77a3,3,0,0,1,2.16,3c0,2.61-2,3.4-4.48,3.4s-4.43-.73-4.43-3.2a3.18,3.18,0,0,1,2.05-3.19,2.75,2.75,0,0,1-1.85-2.79c0-2.05,1.63-3.08,4.23-3.08S209.24,455,209.24,457.09Zm-1.3,5.62c0-1.39-.92-1.84-2.1-2.18H204c-1.25.34-2,1-2,2.29,0,1.63,1.26,2.17,3,2.17S207.94,464.45,207.94,462.71Zm-5.76-5.48c0,1.1.6,1.68,1.77,2.09h1.89c1.22-.39,1.92-1,1.92-2.07,0-1.42-1.06-2-2.81-2S202.18,455.81,202.18,457.23Z" fill="#3a3d3f"/><path d="M211.22,458.22h1.47v2.06h-1.47Zm0,5.8h1.47v2.05h-1.47Z" fill="#3a3d3f"/><path d="M223.28,460.31c0,4.56-1.6,5.94-4.32,5.94s-4.34-1.35-4.34-5.92c0-4.9,1.58-6.34,4.32-6.34S223.28,455.42,223.28,460.31Zm-7.22,0c0,3.73,1,4.7,2.9,4.7s2.9-1,2.9-4.72c0-4-.92-5.07-2.9-5.07S216.06,456.28,216.06,460.33Z" fill="#3a3d3f"/><path d="M233.36,460.31c0,4.56-1.6,5.94-4.32,5.94s-4.34-1.35-4.34-5.92c0-4.9,1.58-6.34,4.32-6.34S233.36,455.42,233.36,460.31Zm-7.22,0c0,3.73,1,4.7,2.9,4.7s2.9-1,2.9-4.72c0-4-.92-5.07-2.9-5.07S226.14,456.28,226.14,460.33Z" fill="#3a3d3f"/><path d="M235.28,464h1.48v2.05h-1.48Z" fill="#3a3d3f"/><path d="M40.79,23.35h3.36L48,37.2H46.43l-1-3.56H39.51l-1,3.56H37Zm-.94,8.91h5.24L43,24.68H42Z"/><path d="M55.61,30.12h3.82v6.8a33.71,33.71,0,0,1-4.5.48c-4.24,0-5.36-2.6-5.36-7.08s1.16-7.17,5.32-7.17a25.77,25.77,0,0,1,4.54.52L59.37,25a31.73,31.73,0,0,0-4.3-.42c-3.2,0-3.91,1.87-3.91,5.79S51.85,36,55.05,36a18.56,18.56,0,0,0,2.86-.28V31.5h-2.3Z"/><path d="M71.91,23.35,68.29,37.2H64.85L61.23,23.35h1.6L66,35.84h1.12l3.18-12.49Z"/><path d="M78.24,35.8a30.61,30.61,0,0,0,3.49.24c2.42,0,3.62-1.48,3.64-4.6a12.2,12.2,0,0,1-3.45.76c-2.76,0-4.32-1.24-4.32-4s1.8-4.39,4.59-4.39c3.32,0,4.78,2.65,4.78,6.85,0,5.12-2,6.76-5.24,6.76A23.45,23.45,0,0,1,78.1,37Zm7.15-5.68c0-2.88-.88-5-3.2-5a2.78,2.78,0,0,0-3,3c0,1.86,1,2.66,2.84,2.66A12.28,12.28,0,0,0,85.39,30.12Z"/><line x1="38.38" y1="45.51" x2="537.97" y2="45.51" fill="none" stroke="#ddd" stroke-miterlimit="10"/><line x1="53.26" y1="127.47" x2="53.26" y2="221.39" fill="none" stroke="#adadad" stroke-miterlimit="10"/><line x1="485.03" y1="212.98" x2="43.27" y2="212.98" fill="none" stroke="#adadad" stroke-miterlimit="10"/><path d="M66.66,224.43H62.39v-.8l2.51-6.29H66l-2.55,6.18h3.19v-2.75h1v2.75h1.13v.91H67.69v1.73h-1Z" fill="#4c4c4c"/><path d="M41.7,214.11c0,3.38-1.19,4.41-3.21,4.41s-3.22-1-3.22-4.4c0-3.64,1.17-4.71,3.2-4.71S41.7,210.47,41.7,214.11Zm-5.36,0c0,2.77.76,3.49,2.15,3.49s2.15-.74,2.15-3.5c0-3-.68-3.77-2.15-3.77S36.34,211.11,36.34,214.12Z" fill="#4c4c4c"/><path d="M35.67,192v-.87l2.58-2.71c1.09-1.14,1.77-1.86,1.77-2.9S39.37,184,38.1,184a12.61,12.61,0,0,0-2.29.3l-.08-.86a10.74,10.74,0,0,1,2.56-.36c1.85,0,2.79.71,2.79,2.37,0,1.32-.6,2.1-1.84,3.3l-2.36,2.39h4.43v.9Z" fill="#4c4c4c"/><path d="M39.56,163H35.28v-.8l2.51-6.3h1.13l-2.56,6.19h3.2v-2.75h1v2.75h1.12V163H40.59v1.73h-1Z" fill="#4c4c4c"/><path d="M41.19,129.53a20.66,20.66,0,0,0-2.33-.16c-1.54,0-2.38,1.1-2.38,3a7.32,7.32,0,0,1,2.21-.53c2,0,3,.89,3,2.75s-1.13,2.91-3.09,2.91c-2.19,0-3.16-1.73-3.16-4.59,0-3.19,1.35-4.5,3.45-4.5a16.41,16.41,0,0,1,2.42.23Zm-4.72,3.8c0,1.88.57,3.31,2.1,3.31a1.81,1.81,0,0,0,2-2c0-1.23-.74-1.82-2-1.82A6.11,6.11,0,0,0,36.47,133.33Z" fill="#4c4c4c"/><path d="M146.07,219.5a2,2,0,0,1-1.47,2.06,2.22,2.22,0,0,1,1.61,2.22c0,1.94-1.5,2.52-3.33,2.52s-3.29-.54-3.29-2.37a2.35,2.35,0,0,1,1.52-2.37,2,2,0,0,1-1.37-2.07c0-1.53,1.21-2.29,3.14-2.29S146.07,218,146.07,219.5Zm-1,4.17c0-1-.68-1.36-1.56-1.62h-1.41c-.92.26-1.46.71-1.46,1.7,0,1.22.94,1.62,2.2,1.62S145.11,225,145.11,223.67Zm-4.28-4.06c0,.81.44,1.24,1.31,1.55h1.41c.9-.3,1.43-.72,1.43-1.54,0-1.05-.79-1.48-2.09-1.48S140.83,218.55,140.83,219.61Z" fill="#4c4c4c"/><path d="M220.71,217.35h1v8.82h-1V218.5l-2.27,1.5-.47-.78Z" fill="#4c4c4c"/><path d="M224.88,226.17v-.87l2.58-2.71c1.1-1.14,1.78-1.86,1.78-2.9s-.66-1.55-1.93-1.55a13,13,0,0,0-2.28.29l-.08-.85a10.72,10.72,0,0,1,2.55-.36c1.86,0,2.8.7,2.8,2.36,0,1.32-.61,2.1-1.85,3.3l-2.35,2.4h4.42v.89Z" fill="#4c4c4c"/><path d="M305.51,217.35h1v8.82h-1V218.5l-2.27,1.5-.47-.78Z" fill="#4c4c4c"/><path d="M315.2,218.29a19.2,19.2,0,0,0-2.32-.17c-1.54,0-2.38,1.1-2.38,3a7.68,7.68,0,0,1,2.2-.52c1.95,0,3,.88,3,2.74s-1.12,2.91-3.09,2.91c-2.19,0-3.15-1.72-3.15-4.58,0-3.19,1.35-4.5,3.45-4.5a17.13,17.13,0,0,1,2.42.22Zm-4.72,3.79c0,1.89.58,3.32,2.1,3.32a1.81,1.81,0,0,0,2-2c0-1.23-.73-1.82-2-1.82A6.2,6.2,0,0,0,310.48,222.08Z" fill="#4c4c4c"/><path d="M387,226.17v-.87l2.58-2.71c1.1-1.14,1.78-1.86,1.78-2.9s-.66-1.55-1.93-1.55a13,13,0,0,0-2.28.29l-.08-.85a10.72,10.72,0,0,1,2.55-.36c1.86,0,2.8.7,2.8,2.36,0,1.32-.61,2.1-1.85,3.3l-2.35,2.4h4.42v.89Z" fill="#4c4c4c"/><path d="M400.51,221.89c0,3.39-1.19,4.41-3.21,4.41s-3.22-1-3.22-4.39c0-3.64,1.18-4.71,3.21-4.71S400.51,218.26,400.51,221.89Zm-5.36,0c0,2.76.76,3.49,2.15,3.49s2.15-.74,2.15-3.51c0-3-.68-3.77-2.15-3.77S395.15,218.9,395.15,221.91Z" fill="#4c4c4c"/><path d="M471.79,226.17v-.87l2.58-2.71c1.1-1.14,1.78-1.86,1.78-2.9s-.66-1.55-1.93-1.55a13,13,0,0,0-2.28.29l-.08-.85a10.72,10.72,0,0,1,2.55-.36c1.86,0,2.79.7,2.79,2.36,0,1.32-.6,2.1-1.84,3.3l-2.35,2.4h4.42v.89Z" fill="#4c4c4c"/><path d="M483.17,224.45h-4.28v-.81l2.51-6.29h1.13L480,223.54h3.2v-2.76h1v2.76h1.12v.91H484.2v1.72h-1Z" fill="#4c4c4c"/><g style="isolation:isolate"><rect x="89.5" y="139.29" width="12.42" height="72.92" fill="#76ce89"/><g clip-path="url(#clip-path)"><polygon points="89.72 212.21 89.5 139.34 101.69 139.29 101.92 212.16 89.72 212.21" fill="#76ce89"/></g></g><g style="isolation:isolate"><rect x="106.89" y="141.32" width="12.42" height="70.88" fill="#76ce89"/><g clip-path="url(#clip-path-2)"><polygon points="107.11 212.21 106.89 141.38 119.09 141.33 119.31 212.15 107.11 212.21" fill="#76ce89"/></g></g><g style="isolation:isolate"><rect x="124.29" y="144.37" width="12.41" height="67.84" fill="#76ce89"/><g clip-path="url(#clip-path-3)"><polygon points="124.5 212.21 124.29 144.42 136.49 144.37 136.7 212.15 124.5 212.21" fill="#76ce89"/></g></g><g style="isolation:isolate"><rect x="141.67" y="144.71" width="12.41" height="67.5" fill="#76ce89"/><g clip-path="url(#clip-path-4)"><polygon points="141.89 212.21 141.68 144.76 153.87 144.71 154.08 212.15 141.89 212.21" fill="#76ce89"/></g></g><g style="isolation:isolate"><rect x="159.06" y="144.72" width="12.4" height="67.48" fill="#76ce89"/><g clip-path="url(#clip-path-5)"><polygon points="159.26 212.21 159.05 144.77 171.25 144.72 171.46 212.15 159.26 212.21" fill="#76ce89"/></g></g><g style="isolation:isolate"><rect x="176.43" y="144.71" width="12.4" height="67.5" fill="#76ce89"/><g clip-path="url(#clip-path-6)"><polygon points="176.64 212.21 176.43 144.76 188.63 144.71 188.84 212.15 176.64 212.21" fill="#76ce89"/></g></g><g style="isolation:isolate"><rect x="193.81" y="148.13" width="12.4" height="64.07" fill="#76ce89"/><g clip-path="url(#clip-path-7)"><polygon points="194.01 212.21 193.81 148.18 206.01 148.13 206.21 212.15 194.01 212.21" fill="#76ce89"/></g></g><g style="isolation:isolate"><rect x="211.18" y="150.4" width="12.38" height="61.8" fill="#76ce89"/><g clip-path="url(#clip-path-8)"><polygon points="211.37 212.21 211.18 150.45 223.38 150.4 223.57 212.15 211.37 212.21" fill="#76ce89"/></g></g><g style="isolation:isolate"><rect x="228.54" y="150.4" width="12.38" height="61.8" fill="#76ce89"/><g clip-path="url(#clip-path-9)"><polygon points="228.73 212.21 228.54 150.45 240.74 150.4 240.93 212.15 228.73 212.21" fill="#76ce89"/></g></g><g style="isolation:isolate"><rect x="245.9" y="152.67" width="12.38" height="59.54" fill="#76ce89"/><g clip-path="url(#clip-path-10)"><polygon points="246.08 212.21 245.89 152.72 258.09 152.67 258.28 212.15 246.08 212.21" fill="#76ce89"/></g></g><g style="isolation:isolate"><rect x="263.25" y="153.81" width="12.38" height="58.39" fill="#76ce89"/><g clip-path="url(#clip-path-11)"><polygon points="263.44 212.21 263.25 153.86 275.45 153.81 275.63 212.15 263.44 212.21" fill="#76ce89"/></g></g><g style="isolation:isolate"><rect x="280.61" y="156.08" width="12.37" height="56.13" fill="#76ce89"/><g clip-path="url(#clip-path-12)"><polygon points="280.78 212.21 280.61 156.13 292.81 156.08 292.98 212.15 280.78 212.21" fill="#76ce89"/></g></g><g style="isolation:isolate"><rect x="297.95" y="158.36" width="12.36" height="53.85" fill="#76ce89"/><g clip-path="url(#clip-path-13)"><polygon points="298.12 212.21 297.95 158.41 310.15 158.35 310.32 212.15 298.12 212.21" fill="#76ce89"/></g></g><rect x="315.29" y="178.81" width="12.35" height="33.4" fill="#ffda00"/><g clip-path="url(#clip-path-14)"><polygon points="315.44 212.21 315.29 178.84 327.49 178.81 327.64 212.17 315.44 212.21" fill="#ffda00"/></g><rect x="332.62" y="185.62" width="12.34" height="26.58" fill="#ffda00"/><g clip-path="url(#clip-path-15)"><polygon points="332.76 212.21 332.61 185.65 344.81 185.63 344.96 212.18 332.76 212.21" fill="#ffda00"/></g><rect x="349.93" y="192.44" width="12.33" height="19.76" fill="#ff4200"/><g clip-path="url(#clip-path-16)"><polygon points="350.07 212.21 349.94 192.47 362.13 192.44 362.27 212.18 350.07 212.21" fill="#ff4200"/></g><g style="isolation:isolate"><rect x="367.24" y="158.36" width="12.33" height="53.85" fill="#76ce89"/><g clip-path="url(#clip-path-17)"><polygon points="367.37 212.2 367.24 158.42 379.44 158.35 379.57 212.14 367.37 212.2" fill="#76ce89"/></g></g><g style="isolation:isolate"><rect x="384.54" y="162.24" width="12.32" height="49.97" fill="#76ce89"/><g clip-path="url(#clip-path-18)"><polygon points="384.66 212.2 384.54 162.3 396.74 162.23 396.86 212.14 384.66 212.2" fill="#76ce89"/></g></g><g style="isolation:isolate"><rect x="401.83" y="164.72" width="12.32" height="47.49" fill="#76ce89"/><g clip-path="url(#clip-path-19)"><polygon points="401.95 212.2 401.82 164.77 414.02 164.71 414.14 212.14 401.95 212.2" fill="#76ce89"/></g></g><rect x="419.11" y="164.72" width="12.3" height="47.49" fill="#76ce89"/><g clip-path="url(#clip-path-20)"><polygon points="419.21 212.2 419.11 164.79 431.31 164.72 431.41 212.13 419.21 212.2" fill="#76ce89"/></g><g style="isolation:isolate"><rect x="470.87" y="164.72" width="11.86" height="47.49" fill="#76ce89"/><g clip-path="url(#clip-path-21)"><polygon points="471.01 212.21 470.87 164.76 482.58 164.71 482.73 212.15 471.01 212.21" fill="#76ce89"/></g></g><rect x="436.38" y="164.72" width="12.29" height="47.49" fill="#76ce89"/><g clip-path="url(#clip-path-22)"><polygon points="436.47 212.2 436.38 164.82 448.58 164.73 448.67 212.11 436.47 212.2" fill="#76ce89"/></g><rect x="453.64" y="164.72" width="12.26" height="47.49" fill="#76ce89"/><g clip-path="url(#clip-path-23)"><polygon points="453.7 212.2 453.64 164.84 465.84 164.71 465.9 212.08 453.7 212.2" fill="#76ce89"/></g><g style="isolation:isolate"><rect x="72.09" y="135.16" width="12.43" height="77.04" fill="#76ce89"/><g clip-path="url(#clip-path-24)"><polygon points="72.33 212.21 72.09 135.22 84.29 135.16 84.53 212.16 72.33 212.21" fill="#76ce89"/></g></g><g style="isolation:isolate"><rect x="54.68" y="132.06" width="12.44" height="80.14" fill="#76ce89"/><g clip-path="url(#clip-path-25)"><polygon points="54.93 212.21 54.68 132.11 66.88 132.06 67.13 212.15 54.93 212.21" fill="#76ce89"/></g></g></g></g></svg>