<svg xmlns="http://www.w3.org/2000/svg" viewBox="0 0 579.59 494.77"><title>r_2_0_Tablet_1</title><g id="Layer_2" data-name="Layer 2"><g id="Layer_2-2" data-name="Layer 2"><rect y="0.5" width="579.59" height="494.27" fill="#f7f7f7"/><line x1="0.23" y1="0.5" x2="579.59" y2="0.5" fill="none" stroke="#ddd" stroke-miterlimit="10"/><path d="M26.58,53.15C26.58,48.59,27.75,46,32,46s5.48,2.58,5.48,7.18c0,4.76-1.18,7.06-5.48,7.06S26.58,57.79,26.58,53.15Zm9.34,0c0-3.74-.72-5.82-3.88-5.82s-3.88,2.06-3.88,5.82.67,5.7,3.88,5.7S35.92,57.05,35.92,53.15Z"/><path d="M49.8,46.17,46.18,60H42.74L39.12,46.17h1.59L43.9,58.65H45L48.2,46.17Z"/><path d="M52,46.17H60.4v1.36H53.51v4.78H59.2v1.34H53.51v5H60.4V60H52Z"/><path d="M64.57,54.71V60H63V46.17h5.12c2.9,0,4.43,1.28,4.43,4.2,0,2-.8,3.46-2.55,4L72.7,60H71l-2.5-5.3Zm3.58-7.18H64.57v5.82h3.6c2.08,0,2.82-1.24,2.82-3C71,48.47,70.09,47.53,68.15,47.53Z"/><path d="M84.82,46.17,81.2,60H77.75L74.13,46.17h1.6l3.18,12.48H80l3.19-12.48Z"/><path d="M87,46.17h1.54V60H87Z"/><path d="M91.91,46.17h8.42v1.36H93.45v4.78h5.68v1.34H93.45v5h6.88V60H91.91Z"/><path d="M103.47,46.17l2.36,12.48h.58l2.82-12.36H111l2.83,12.36h.58l2.36-12.48h1.58L115.58,60h-2.83l-2.62-11.82L107.51,60h-2.82l-2.82-13.84Z"/><path d="M27.63,340.56,30,353h.58l2.83-12.36h1.8L38,353h.58L41,340.56h1.58l-2.8,13.84H36.92L34.3,342.58,31.68,354.4H28.85L26,340.56Z"/><path d="M53.43,348.14h-7v6.26H44.85V340.56h1.54v6.2h7v-6.2H55V354.4H53.43Z"/><path d="M62.81,354.4H61.27v-5.82l-4.42-8h1.74L62,347l3.44-6.48h1.75l-4.41,8Z"/><path d="M73.51,340.56h1.54V354.4H73.51Z"/><path d="M86.19,342s-2.78-.34-3.94-.34c-2,0-3,.7-3,2.26,0,1.8,1,2.1,3.38,2.64,2.76.62,4,1.3,4,3.72,0,3.06-1.68,4.26-4.42,4.26a36.39,36.39,0,0,1-4.38-.44l.16-1.28s2.72.36,4.14.36c2,0,3-.86,3-2.78,0-1.56-.82-2-3.08-2.44-2.86-.62-4.3-1.3-4.3-3.94s1.76-3.72,4.46-3.72a34.46,34.46,0,0,1,4.18.4Z"/><path d="M92.23,340.56h10v1.38H98V354.4H96.49V341.94H92.23Z"/><path d="M112.77,348.14h-7v6.26h-1.54V340.56h1.54v6.2h7v-6.2h1.52V354.4h-1.52Z"/><path d="M117.69,340.56h1.54V354.4h-1.54Z"/><path d="M130.37,342s-2.78-.34-3.94-.34c-2,0-3,.7-3,2.26,0,1.8,1,2.1,3.38,2.64,2.76.62,4,1.3,4,3.72,0,3.06-1.68,4.26-4.42,4.26a36.39,36.39,0,0,1-4.38-.44l.16-1.28s2.72.36,4.14.36c2,0,3-.86,3-2.78,0-1.56-.82-2-3.08-2.44-2.86-.62-4.3-1.3-4.3-3.94s1.76-3.72,4.46-3.72a34.46,34.46,0,0,1,4.18.4Z"/><path d="M139.39,349.1v5.3h-1.54V340.56H143c2.9,0,4.42,1.28,4.42,4.2,0,2-.8,3.46-2.54,4l2.66,5.62h-1.7l-2.5-5.3Zm3.58-7.18h-3.58v5.82H143c2.08,0,2.82-1.24,2.82-3C145.81,342.86,144.91,341.92,143,341.92Z"/><path d="M150.17,340.56h8.42v1.36h-6.88v4.78h5.68V348h-5.68v5h6.88v1.36h-8.42Z"/><path d="M169.59,354.18a20.83,20.83,0,0,1-3.82.42c-4.14,0-5.06-2.52-5.06-7.08s.9-7.16,5.06-7.16a20.32,20.32,0,0,1,3.82.44l-.06,1.3a24.64,24.64,0,0,0-3.6-.36c-3.08,0-3.62,1.84-3.62,5.78s.5,5.7,3.66,5.7a21.88,21.88,0,0,0,3.56-.36Z"/><path d="M171.55,347.54c0-4.56,1.18-7.18,5.46-7.18s5.48,2.58,5.48,7.18c0,4.76-1.18,7.06-5.48,7.06S171.55,352.18,171.55,347.54Zm9.34,0c0-3.74-.72-5.82-3.88-5.82s-3.88,2.06-3.88,5.82.68,5.7,3.88,5.7S180.89,351.44,180.89,347.54Z"/><path d="M185.31,340.56h2.78l3.92,11.7,3.92-11.7h2.78V354.4h-1.54V342.2h-.28l-4,11.7h-1.72l-4-11.7h-.28v12.2h-1.54Z"/><path d="M202.11,340.56h2.78l3.92,11.7,3.92-11.7h2.78V354.4H214V342.2h-.28l-4,11.7H208l-4-11.7h-.28v12.2h-1.54Z"/><path d="M218.91,340.56h8.42v1.36h-6.88v4.78h5.68V348h-5.68v5h6.88v1.36h-8.42Z"/><path d="M230,340.56h2.88l5.3,12.48h.42V340.56h1.52V354.4h-2.82l-5.38-12.48h-.38V354.4H230Z"/><path d="M243.49,354.4V340.56h4.94c4,0,5.12,2.8,5.12,6.72s-1,7.12-5.12,7.12Zm4.94-12.48H245V353h3.4c2.88,0,3.54-2.76,3.54-5.76S251.31,341.92,248.43,341.92Z"/><path d="M256.39,340.56h8.42v1.36h-6.88v4.78h5.68V348h-5.68v5h6.88v1.36h-8.42Z"/><path d="M267.45,354.4V340.56h4.94c4,0,5.12,2.8,5.12,6.72s-1,7.12-5.12,7.12Zm4.94-12.48H269V353h3.4c2.88,0,3.54-2.76,3.54-5.76S275.27,341.92,272.39,341.92Z"/><path d="M284.91,347.18c-1.18,1-1.78,1.6-1.78,2.5v.7h-1.26a3.11,3.11,0,0,1-.26-1.22c0-1,.8-1.76,1.86-2.66,1.44-1.24,1.78-1.7,1.78-2.82,0-1.42-.86-2-2.66-2a18.73,18.73,0,0,0-3.11.46l-.09-1.22a15.14,15.14,0,0,1,3.34-.6c2.68,0,4,.88,4,3.2C286.77,345.28,286.47,345.88,284.91,347.18Zm-3.26,5h1.64v2.24h-1.64Z"/><path d="M59.06,158.15v-1.76l5.24-5.51c2.22-2.3,3.6-3.77,3.6-5.88,0-2.39-1.33-3.15-3.9-3.15a26,26,0,0,0-4.64.6l-.16-1.74a21.7,21.7,0,0,1,5.18-.73c3.77,0,5.66,1.44,5.66,4.8,0,2.69-1.22,4.26-3.74,6.7l-4.77,4.85h9v1.82Z" fill="#3a3d3f"/><path d="M127.47,150.42h5.12v-5.29h1.9v5.29h5.18v1.85h-5.18v5.34h-1.9v-5.34h-5.12Z" fill="#3a3d3f"/><path d="M149.75,140.25h2v17.9h-2.09V142.59l-4.61,3-.95-1.57Z" fill="#3a3d3f"/><path d="M170.44,149.47c0,6.86-2.41,8.95-6.5,8.95s-6.54-2-6.54-8.92c0-7.38,2.39-9.54,6.51-9.54S170.44,142.1,170.44,149.47Zm-10.87,0c0,5.61,1.54,7.08,4.37,7.08s4.36-1.49,4.36-7.11c0-6-1.38-7.64-4.36-7.64S159.57,143.4,159.57,149.5Z" fill="#3a3d3f"/><path d="M185.63,149.47c0,6.86-2.42,8.95-6.51,8.95s-6.54-2-6.54-8.92c0-7.38,2.39-9.54,6.51-9.54S185.63,142.1,185.63,149.47Zm-10.88,0c0,5.61,1.55,7.08,4.37,7.08s4.36-1.49,4.36-7.11c0-6-1.38-7.64-4.36-7.64S174.75,143.4,174.75,149.5Z" fill="#3a3d3f"/><path d="M236.61,140.71a21.17,21.17,0,0,1,5.26-.75c4.23,0,5.72,1.49,5.72,4.66a4.49,4.49,0,0,1-2.65,4.07c1.81.65,3.09,1.43,3.09,4.34,0,3.6-1.76,5.39-5.8,5.39a29.7,29.7,0,0,1-5.89-.73l.19-1.71a32.23,32.23,0,0,0,5.48.6c2.66,0,3.88-1.17,3.88-3.47,0-2.47-1.66-3.29-3.69-3.37h-3.61V148h3.61a3.36,3.36,0,0,0,3.25-3.25c0-2-1-2.87-3.66-2.87a27.41,27.41,0,0,0-5,.54Z" fill="#3a3d3f"/><path d="M259.61,154.65h-8.68V153l5.1-12.78h2.27l-5.17,12.56h6.48v-5.59h2.08v5.59H264v1.84h-2.28v3.5h-2.08Z" fill="#3a3d3f"/><path d="M271.75,143.72c0,2.63-1.16,3.83-3,3.83s-3-1.2-3-3.83,1.14-3.74,3-3.74S271.75,141.12,271.75,143.72Zm-3,2.44c1,0,1.36-.84,1.36-2.44s-.36-2.35-1.36-2.35-1.33.75-1.33,2.35S267.79,146.16,268.77,146.16Zm6-6.48,1.3.44-5.56,18.52-1.3-.38Zm4.66,14.92c0,2.6-1.16,3.82-3,3.82s-3-1.22-3-3.85,1.12-3.71,3-3.71S279.45,152,279.45,154.6Zm-3,2.44c1,0,1.36-.84,1.36-2.44s-.33-2.36-1.36-2.36-1.33.76-1.33,2.33S275.49,157,276.47,157Z" fill="#3a3d3f"/><path d="M29.29,378h3l3.42,12.46H34.37l-.9-3.2H28.14l-.9,3.2H25.87Zm-.85,8h4.72l-1.89-6.82h-.94Z" fill="#3a3d3f"/><path d="M43.44,382.79a29.33,29.33,0,0,0-3.15-.29c-1.12,0-2,.31-2,1.37,0,.85.44,1.08,2.34,1.41,2.25.38,3.1.83,3.1,2.57,0,2.11-1.33,2.81-3.49,2.81a25.65,25.65,0,0,1-3.17-.34l.07-1.17a29.5,29.5,0,0,0,3,.31c1.48,0,2.27-.33,2.27-1.55,0-.94-.47-1.17-2.43-1.48s-3-.7-3-2.5c0-2,1.61-2.63,3.24-2.63a23.19,23.19,0,0,1,3.26.34Z" fill="#3a3d3f"/><path d="M53.55,383.35,56.72,378h1.5l-3.84,6.32,3.84,6.14H56.65l-3.13-5.17-3.19,5.17h-1.5l3.86-6.1L48.83,378H50.4Z" fill="#3a3d3f"/><path d="M59.76,384.9h5.46v1.26H59.76Z" fill="#3a3d3f"/><path d="M69.34,385.71v4.77H68V378h4.61c2.61,0,4,1.15,4,3.78,0,1.84-.72,3.12-2.29,3.62l2.4,5.06H75.12l-2.25-4.77Zm3.22-6.46H69.34v5.24h3.24c1.87,0,2.54-1.12,2.54-2.69A2.24,2.24,0,0,0,72.56,379.25Z" fill="#3a3d3f"/><path d="M85.16,388.81c0,.52.47.72,1,.79l0,1.06a2.75,2.75,0,0,1-2.14-.72,9.2,9.2,0,0,1-3.24.72c-1.64,0-2.54-.93-2.54-2.75s.9-2.49,2.75-2.67l2.83-.27v-.77c0-1.26-.54-1.71-1.62-1.71-1.26,0-3.4.23-3.4.23l-.06-1a21.6,21.6,0,0,1,3.53-.4c2,0,2.9.94,2.9,2.9Zm-4-2.56c-1.09.11-1.53.63-1.53,1.62s.45,1.66,1.37,1.66a9.48,9.48,0,0,0,2.83-.56v-3Z" fill="#3a3d3f"/><path d="M88.33,381.48l2.25,7.83h.59l2.27-7.83h1.35l-3.74,13H89.69l1.17-4H89.53l-2.55-9Z" fill="#3a3d3f"/><path d="M100.48,390.48v-9h1.33v.63a6,6,0,0,1,2.63-.81,2.54,2.54,0,0,1,2.34.92,7.46,7.46,0,0,1,3.2-.92c2.45,0,3,1.17,3,4.43v4.75h-1.34v-4.72c0-2.37-.28-3.26-1.9-3.26a5.88,5.88,0,0,0-2.53.67,10.4,10.4,0,0,1,.23,2.63v4.68h-1.35v-4.64c0-2.49-.25-3.34-1.89-3.34a5.34,5.34,0,0,0-2.41.67v7.31Z" fill="#3a3d3f"/><path d="M121.88,388.81c0,.52.47.72,1,.79l0,1.06a2.75,2.75,0,0,1-2.14-.72,9.2,9.2,0,0,1-3.24.72c-1.64,0-2.54-.93-2.54-2.75s.9-2.49,2.75-2.67l2.83-.27v-.77c0-1.26-.54-1.71-1.62-1.71-1.26,0-3.4.23-3.4.23l-.06-1a21.6,21.6,0,0,1,3.53-.4c2,0,2.9.94,2.9,2.9Zm-4-2.56c-1.09.11-1.53.63-1.53,1.62s.45,1.66,1.37,1.66a9.57,9.57,0,0,0,2.83-.56v-3Z" fill="#3a3d3f"/><path d="M130.36,381.57l-.06,1.1s-1.44-.17-2.12-.17c-2.07,0-2.63.91-2.63,3.32,0,2.66.41,3.64,2.65,3.64.68,0,2.12-.17,2.12-.17l.05,1.12a24,24,0,0,1-2.5.25c-2.86,0-3.71-1.31-3.71-4.84,0-3.26,1.06-4.52,3.75-4.52A20.89,20.89,0,0,1,130.36,381.57Z" fill="#3a3d3f"/><path d="M132.39,390.48V377.55h1.35V382a7.64,7.64,0,0,1,2.77-.68c2.47,0,3.05,1.22,3.05,4.43v4.75H138.2v-4.72c0-2.37-.27-3.26-1.92-3.26a7.29,7.29,0,0,0-2.54.55v7.43Z" fill="#3a3d3f"/><path d="M142.05,377.88h1.35v1.56h-1.35Zm0,3.6h1.35v9h-1.35Z" fill="#3a3d3f"/><path d="M146,390.48v-9h1.33v.63a6.85,6.85,0,0,1,2.79-.81c2.48,0,3,1.22,3,4.43v4.75h-1.33v-4.72c0-2.37-.27-3.26-1.94-3.26a6.12,6.12,0,0,0-2.54.67v7.31Z" fill="#3a3d3f"/><path d="M162.31,389.31l0,1.06a31.12,31.12,0,0,1-3.51.29c-2.68,0-3.56-1.56-3.56-4.63,0-3.42,1.47-4.73,3.76-4.73s3.62,1.26,3.62,4.21l-.07,1h-5.94c0,1.93.59,2.93,2.35,2.93C160.34,389.47,162.31,389.31,162.31,389.31Zm-1-3.85c0-2.23-.69-3-2.27-3s-2.39.85-2.41,3Z" fill="#3a3d3f"/><path d="M175.07,388.81c0,.52.47.72,1,.79l-.05,1.06a2.74,2.74,0,0,1-2.14-.72,9.2,9.2,0,0,1-3.24.72c-1.64,0-2.54-.93-2.54-2.75s.9-2.49,2.75-2.67l2.83-.27v-.77c0-1.26-.54-1.71-1.62-1.71-1.26,0-3.41.23-3.41.23l-.05-1a21.6,21.6,0,0,1,3.53-.4c2,0,2.9.94,2.9,2.9Zm-4-2.56c-1.09.11-1.53.63-1.53,1.62s.45,1.66,1.37,1.66a9.57,9.57,0,0,0,2.83-.56v-3Z" fill="#3a3d3f"/><path d="M177.84,377.55h1.35v12.93h-1.35Z" fill="#3a3d3f"/><path d="M189.2,385.87c0,3.28-.81,4.79-3.85,4.79s-3.86-1.51-3.86-4.79c0-3.09,1-4.57,3.86-4.57S189.2,382.78,189.2,385.87Zm-1.39,0c0-2.5-.54-3.4-2.46-3.4s-2.47.9-2.47,3.4.34,3.62,2.47,3.62S187.81,388.43,187.81,385.87Z" fill="#3a3d3f"/><path d="M191.39,390.48v-9h1.33v.63a6.86,6.86,0,0,1,2.8-.81c2.48,0,3,1.22,3,4.43v4.75h-1.33v-4.72c0-2.37-.27-3.26-1.95-3.26a6.18,6.18,0,0,0-2.54.67v7.31Z" fill="#3a3d3f"/><path d="M207.7,389.31l0,1.06a31.12,31.12,0,0,1-3.51.29c-2.69,0-3.57-1.56-3.57-4.63,0-3.42,1.48-4.73,3.77-4.73s3.61,1.26,3.61,4.21l-.07,1H202c0,1.93.6,2.93,2.36,2.93C205.74,389.47,207.7,389.31,207.7,389.31Zm-1-3.85c0-2.23-.68-3-2.26-3s-2.4.85-2.42,3Z" fill="#3a3d3f"/><path d="M219.92,381.57l0,1.1s-1.44-.17-2.12-.17c-2.07,0-2.63.91-2.63,3.32,0,2.66.41,3.64,2.64,3.64.69,0,2.13-.17,2.13-.17l.05,1.12a24,24,0,0,1-2.5.25c-2.86,0-3.71-1.31-3.71-4.84,0-3.26,1.06-4.52,3.74-4.52A20.89,20.89,0,0,1,219.92,381.57Z" fill="#3a3d3f"/><path d="M228.31,388.81c0,.52.47.72,1.05.79l-.06,1.06a2.75,2.75,0,0,1-2.14-.72,9.2,9.2,0,0,1-3.24.72c-1.64,0-2.54-.93-2.54-2.75s.9-2.49,2.75-2.67L227,385v-.77c0-1.26-.54-1.71-1.62-1.71-1.26,0-3.4.23-3.4.23l-.06-1a21.6,21.6,0,0,1,3.53-.4c2,0,2.9.94,2.9,2.9Zm-4-2.56c-1.1.11-1.53.63-1.53,1.62s.45,1.66,1.36,1.66A9.48,9.48,0,0,0,227,389v-3Z" fill="#3a3d3f"/><path d="M231,390.48v-9h1.34v.63a6.79,6.79,0,0,1,2.79-.81c2.48,0,3,1.22,3,4.43v4.75h-1.33v-4.72c0-2.37-.27-3.26-1.95-3.26a6.18,6.18,0,0,0-2.54.67v7.31Z" fill="#3a3d3f"/><path d="M240.64,390.48v-9H242v.63a6.85,6.85,0,0,1,2.79-.81c2.49,0,3.05,1.22,3.05,4.43v4.75h-1.34v-4.72c0-2.37-.27-3.26-1.94-3.26a6.12,6.12,0,0,0-2.54.67v7.31Z" fill="#3a3d3f"/><path d="M257.62,385.87c0,3.28-.81,4.79-3.86,4.79s-3.85-1.51-3.85-4.79c0-3.09,1-4.57,3.85-4.57S257.62,382.78,257.62,385.87Zm-1.39,0c0-2.5-.54-3.4-2.47-3.4s-2.46.9-2.46,3.4.34,3.62,2.46,3.62S256.23,388.43,256.23,385.87Z" fill="#3a3d3f"/><path d="M261.61,382.65V387c0,2,.13,2.52,1.3,2.52.5,0,1.6-.1,1.6-.1l.09,1.11a15.71,15.71,0,0,1-1.84.2c-1.85,0-2.48-.7-2.48-3.3v-4.73H259v-1.17h1.28v-2.76h1.33v2.76h2.86v1.17Z" fill="#3a3d3f"/><path d="M270.09,390.48V377.55h1.35V382a7.64,7.64,0,0,1,2.77-.68c2.47,0,3,1.22,3,4.43v4.75H275.9v-4.72c0-2.37-.27-3.26-1.92-3.26a7.29,7.29,0,0,0-2.54.55v7.43Z" fill="#3a3d3f"/><path d="M286.11,388.81c0,.52.47.72,1,.79l0,1.06a2.75,2.75,0,0,1-2.14-.72,9.2,9.2,0,0,1-3.24.72c-1.64,0-2.54-.93-2.54-2.75s.9-2.49,2.75-2.67l2.83-.27v-.77c0-1.26-.54-1.71-1.62-1.71-1.26,0-3.4.23-3.4.23l-.06-1a21.6,21.6,0,0,1,3.53-.4c2,0,2.9.94,2.9,2.9Zm-4-2.56c-1.09.11-1.53.63-1.53,1.62s.45,1.66,1.37,1.66a9.57,9.57,0,0,0,2.83-.56v-3Z" fill="#3a3d3f"/><path d="M288.77,390.48v-9h1.33v.63a6.85,6.85,0,0,1,2.79-.81c2.49,0,3.05,1.22,3.05,4.43v4.75H294.6v-4.72c0-2.37-.26-3.26-1.94-3.26a6.12,6.12,0,0,0-2.54.67v7.31Z" fill="#3a3d3f"/><path d="M305.35,390.48H304v-.61a6.49,6.49,0,0,1-2.74.79c-1.76,0-3.24-.72-3.24-4.61,0-3.17,1-4.75,3.76-4.75a15.79,15.79,0,0,1,2.22.23v-4h1.33ZM304,388.79v-6.1a14.42,14.42,0,0,0-2.14-.22c-1.89,0-2.45,1.24-2.45,3.58,0,2.92.95,3.41,2,3.41A6.54,6.54,0,0,0,304,388.79Z" fill="#3a3d3f"/><path d="M308.07,377.55h1.35v12.93h-1.35Z" fill="#3a3d3f"/><path d="M318.76,389.31l0,1.06a31.38,31.38,0,0,1-3.51.29c-2.69,0-3.57-1.56-3.57-4.63,0-3.42,1.48-4.73,3.76-4.73s3.62,1.26,3.62,4.21l-.07,1h-5.94c0,1.93.59,2.93,2.36,2.93C316.8,389.47,318.76,389.31,318.76,389.31Zm-1-3.85c0-2.23-.68-3-2.27-3s-2.39.85-2.41,3Z" fill="#3a3d3f"/><path d="M327,382.65V387c0,2,.12,2.52,1.29,2.52.51,0,1.61-.1,1.61-.1l.09,1.11a15.71,15.71,0,0,1-1.84.2c-1.86,0-2.48-.7-2.48-3.3v-4.73h-1.28v-1.17h1.28v-2.76H327v2.76h2.86v1.17Z" fill="#3a3d3f"/><path d="M331.49,390.48V377.55h1.35V382a7.64,7.64,0,0,1,2.77-.68c2.47,0,3,1.22,3,4.43v4.75H337.3v-4.72c0-2.37-.27-3.26-1.93-3.26a7.28,7.28,0,0,0-2.53.55v7.43Z" fill="#3a3d3f"/><path d="M347.8,389.31l0,1.06a31.12,31.12,0,0,1-3.51.29c-2.68,0-3.56-1.56-3.56-4.63,0-3.42,1.47-4.73,3.76-4.73s3.62,1.26,3.62,4.21l-.07,1h-5.95c0,1.93.6,2.93,2.36,2.93C345.83,389.47,347.8,389.31,347.8,389.31Zm-1-3.85c0-2.23-.69-3-2.27-3s-2.4.85-2.41,3Z" fill="#3a3d3f"/><path d="M354.2,381.48h1.33v1.22a10.17,10.17,0,0,1,3.3-1.42v1.37a13.15,13.15,0,0,0-3.28,1.22v6.61H354.2Z" fill="#3a3d3f"/><path d="M367.07,389.31l0,1.06a31.12,31.12,0,0,1-3.51.29c-2.69,0-3.57-1.56-3.57-4.63,0-3.42,1.48-4.73,3.77-4.73s3.61,1.26,3.61,4.21l-.07,1H361.4c0,1.93.6,2.93,2.36,2.93C365.11,389.47,367.07,389.31,367.07,389.31Zm-1-3.85c0-2.23-.68-3-2.26-3s-2.4.85-2.42,3Z" fill="#3a3d3f"/><path d="M369.12,386.12c0-3.54,1.08-4.82,4.25-4.82.94,0,3,.18,3,.18v13h-1.33v-4.41a6.89,6.89,0,0,1-2.54.59C370.06,390.66,369.12,389.31,369.12,386.12Zm1.37,0c0,2.26.58,3.34,2.16,3.34a6.57,6.57,0,0,0,2.4-.53v-6.35s-1.12-.11-1.66-.11C371,382.47,370.49,383.64,370.49,386.12Z" fill="#3a3d3f"/><path d="M386,381.48v9H384.6v-.63a6.07,6.07,0,0,1-2.66.81c-2.52,0-3-1.17-3-4.48v-4.7h1.35v4.68c0,2.49.21,3.3,1.89,3.3a5.4,5.4,0,0,0,2.46-.67v-7.31Z" fill="#3a3d3f"/><path d="M388.54,377.88h1.35v1.56h-1.35Zm0,3.6h1.35v9h-1.35Z" fill="#3a3d3f"/><path d="M392.49,381.48h1.33v1.22a10.06,10.06,0,0,1,3.29-1.42v1.37a13,13,0,0,0-3.27,1.22v6.61h-1.35Z" fill="#3a3d3f"/><path d="M405.36,389.31l0,1.06a31.12,31.12,0,0,1-3.51.29c-2.68,0-3.56-1.56-3.56-4.63,0-3.42,1.47-4.73,3.76-4.73s3.62,1.26,3.62,4.21l-.07,1h-5.95c0,1.93.6,2.93,2.36,2.93C403.39,389.47,405.36,389.31,405.36,389.31Zm-1-3.85c0-2.23-.69-3-2.27-3s-2.4.85-2.41,3Z" fill="#3a3d3f"/><path d="M414.72,390.48h-1.34v-.61a6.42,6.42,0,0,1-2.73.79c-1.77,0-3.24-.72-3.24-4.61,0-3.17,1-4.75,3.76-4.75a15.79,15.79,0,0,1,2.21.23v-4h1.34Zm-1.34-1.69v-6.1a14.12,14.12,0,0,0-2.14-.22c-1.89,0-2.45,1.24-2.45,3.58,0,2.92,1,3.41,2,3.41A6.47,6.47,0,0,0,413.38,388.79Z" fill="#3a3d3f"/><path d="M427.64,388.81c0,.52.47.72,1,.79l-.05,1.06a2.75,2.75,0,0,1-2.14-.72,9.2,9.2,0,0,1-3.24.72c-1.64,0-2.54-.93-2.54-2.75s.9-2.49,2.75-2.67l2.83-.27v-.77c0-1.26-.54-1.71-1.62-1.71-1.26,0-3.4.23-3.4.23l-.06-1a21.6,21.6,0,0,1,3.53-.4c2,0,2.9.94,2.9,2.9Zm-4-2.56c-1.09.11-1.53.63-1.53,1.62s.45,1.66,1.37,1.66a9.48,9.48,0,0,0,2.83-.56v-3Z" fill="#3a3d3f"/><path d="M430.3,390.48v-9h1.33v.63a6,6,0,0,1,2.63-.81,2.52,2.52,0,0,1,2.34.92,7.53,7.53,0,0,1,3.21-.92c2.45,0,3,1.17,3,4.43v4.75H441.5v-4.72c0-2.37-.27-3.26-1.89-3.26a6,6,0,0,0-2.54.67,10.29,10.29,0,0,1,.24,2.63v4.68H436v-4.64c0-2.49-.26-3.34-1.9-3.34a5.39,5.39,0,0,0-2.41.67v7.31Z" fill="#3a3d3f"/><path d="M452.66,385.87c0,3.28-.81,4.79-3.85,4.79s-3.86-1.51-3.86-4.79c0-3.09,1-4.57,3.86-4.57S452.66,382.78,452.66,385.87Zm-1.39,0c0-2.5-.54-3.4-2.46-3.4s-2.47.9-2.47,3.4.34,3.62,2.47,3.62S451.27,388.43,451.27,385.87Z" fill="#3a3d3f"/><path d="M461.82,381.48v9h-1.35v-.63a6.07,6.07,0,0,1-2.66.81c-2.52,0-3.05-1.17-3.05-4.48v-4.7h1.35v4.68c0,2.49.22,3.3,1.89,3.3a5.42,5.42,0,0,0,2.47-.67v-7.31Z" fill="#3a3d3f"/><path d="M464.41,390.48v-9h1.33v.63a6.85,6.85,0,0,1,2.79-.81c2.49,0,3.05,1.22,3.05,4.43v4.75h-1.34v-4.72c0-2.37-.27-3.26-1.94-3.26a6.12,6.12,0,0,0-2.54.67v7.31Z" fill="#3a3d3f"/><path d="M475.88,382.65V387c0,2,.12,2.52,1.29,2.52.51,0,1.61-.1,1.61-.1l.09,1.11a15.71,15.71,0,0,1-1.84.2c-1.85,0-2.48-.7-2.48-3.3v-4.73h-1.28v-1.17h1.28v-2.76h1.33v2.76h2.86v1.17Z" fill="#3a3d3f"/><path d="M490.71,388.81c0,.52.47.72,1.05.79l-.06,1.06a2.75,2.75,0,0,1-2.14-.72,9.2,9.2,0,0,1-3.24.72c-1.64,0-2.54-.93-2.54-2.75s.9-2.49,2.75-2.67l2.83-.27v-.77c0-1.26-.54-1.71-1.62-1.71-1.26,0-3.4.23-3.4.23l-.06-1a21.6,21.6,0,0,1,3.53-.4c2,0,2.9.94,2.9,2.9Zm-4-2.56c-1.1.11-1.53.63-1.53,1.62s.45,1.66,1.36,1.66a9.48,9.48,0,0,0,2.83-.56v-3Z" fill="#3a3d3f"/><path d="M493.48,377.55h1.35v12.93h-1.35Z" fill="#3a3d3f"/><path d="M504.84,385.87c0,3.28-.81,4.79-3.85,4.79s-3.85-1.51-3.85-4.79c0-3.09,1-4.57,3.85-4.57S504.84,382.78,504.84,385.87Zm-1.39,0c0-2.5-.54-3.4-2.46-3.4s-2.47.9-2.47,3.4.34,3.62,2.47,3.62S503.45,388.43,503.45,385.87Z" fill="#3a3d3f"/><path d="M507,390.48v-9h1.34v.63a6.85,6.85,0,0,1,2.79-.81c2.48,0,3,1.22,3,4.43v4.75h-1.33v-4.72c0-2.37-.27-3.26-1.95-3.26a6.11,6.11,0,0,0-2.53.67v7.31Z" fill="#3a3d3f"/><path d="M523.35,389.31l0,1.06a31.12,31.12,0,0,1-3.51.29c-2.68,0-3.56-1.56-3.56-4.63,0-3.42,1.47-4.73,3.76-4.73s3.62,1.26,3.62,4.21l-.08,1h-5.94c0,1.93.6,2.93,2.36,2.93C521.38,389.47,523.35,389.31,523.35,389.31Zm-1-3.85c0-2.23-.69-3-2.27-3s-2.4.85-2.41,3Z" fill="#3a3d3f"/><path d="M525.93,388.56h1.5l-1.21,4.14h-1.11Z" fill="#3a3d3f"/><path d="M533.71,390.48v-1.17l3.48-3.65c1.47-1.53,2.39-2.51,2.39-3.91,0-1.59-.88-2.09-2.59-2.09a17.06,17.06,0,0,0-3.08.4l-.11-1.16a14.58,14.58,0,0,1,3.44-.48c2.5,0,3.76.95,3.76,3.19,0,1.78-.81,2.82-2.48,4.44l-3.17,3.23h6v1.2Z" fill="#3a3d3f"/><path d="M32.55,409.57l-.06,1.1s-1.44-.17-2.12-.17c-2.07,0-2.63.91-2.63,3.32,0,2.66.41,3.64,2.65,3.64.68,0,2.12-.17,2.12-.17l.05,1.12a24,24,0,0,1-2.5.25c-2.86,0-3.71-1.31-3.71-4.84,0-3.26,1.07-4.52,3.75-4.52A20.89,20.89,0,0,1,32.55,409.57Z" fill="#3a3d3f"/><path d="M41.89,413.87c0,3.28-.81,4.79-3.85,4.79s-3.86-1.51-3.86-4.79c0-3.09,1-4.57,3.86-4.57S41.89,410.78,41.89,413.87Zm-1.39,0c0-2.5-.54-3.4-2.46-3.4s-2.47.9-2.47,3.4.34,3.62,2.47,3.62S40.5,416.43,40.5,413.87Z" fill="#3a3d3f"/><path d="M44.19,405.55h1.35v12.93H44.19Z" fill="#3a3d3f"/><path d="M48.35,405.55H49.7v12.93H48.35Z" fill="#3a3d3f"/><path d="M59,417.31l0,1.06a31.12,31.12,0,0,1-3.51.29c-2.68,0-3.57-1.56-3.57-4.63,0-3.42,1.48-4.73,3.77-4.73s3.62,1.26,3.62,4.21l-.08,1H53.37c0,1.93.6,2.93,2.36,2.93C57.08,417.47,59,417.31,59,417.31Zm-1-3.85c0-2.23-.68-3-2.26-3s-2.4.85-2.42,3Z" fill="#3a3d3f"/><path d="M67.85,416.81c0,.52.46.72,1,.79l0,1.06a2.76,2.76,0,0,1-2.15-.72,9.2,9.2,0,0,1-3.24.72c-1.64,0-2.54-.93-2.54-2.75s.9-2.49,2.76-2.67l2.82-.27v-.77c0-1.26-.54-1.71-1.62-1.71-1.26,0-3.4.23-3.4.23l0-1a21.6,21.6,0,0,1,3.53-.4c2,0,2.9.94,2.9,2.9Zm-4-2.56c-1.1.11-1.53.63-1.53,1.62s.45,1.66,1.37,1.66a9.47,9.47,0,0,0,2.82-.56v-3Z" fill="#3a3d3f"/><path d="M70.11,420c0-1,.49-1.53,1.42-2.23a1.46,1.46,0,0,1-.5-1.24,5.82,5.82,0,0,1,.61-1.42,2.64,2.64,0,0,1-1.42-2.72c0-2.22,1.37-3.08,3.37-3.08a9.43,9.43,0,0,1,1.87.23l2.66-.07v1.15l-1.71,0a2.33,2.33,0,0,1,.6,1.8c0,2.34-1.17,3-3.48,3-.18,0-.68,0-.88-.07a5.32,5.32,0,0,0-.32,1c0,.72.14.82,2.17.82,2.56,0,3.48.51,3.48,2.65s-1.46,2.86-4,2.86C71.14,422.71,70.11,422.08,70.11,420Zm2.34-1.69c-.76.56-1,.88-1,1.59,0,1.24.53,1.69,2.56,1.69,1.8,0,2.61-.49,2.61-1.68,0-1.36-.58-1.51-2.21-1.51C73.77,418.39,72.45,418.3,72.45,418.3Zm3.21-5.92c0-1.42-.56-2-2.07-2s-2,.56-2,2,.61,2,2,2S75.66,413.8,75.66,412.38Z" fill="#3a3d3f"/><path d="M86.73,409.48v9H85.38v-.63a6.08,6.08,0,0,1-2.67.81c-2.52,0-3-1.17-3-4.48v-4.7H81v4.68c0,2.49.21,3.3,1.89,3.3a5.47,5.47,0,0,0,2.47-.67v-7.31Z" fill="#3a3d3f"/><path d="M96,417.31l0,1.06a31.38,31.38,0,0,1-3.51.29c-2.69,0-3.57-1.56-3.57-4.63,0-3.42,1.48-4.73,3.76-4.73s3.62,1.26,3.62,4.21l-.07,1H90.29c0,1.93.59,2.93,2.36,2.93C94,417.47,96,417.31,96,417.31Zm-1-3.85c0-2.23-.68-3-2.27-3s-2.39.85-2.41,3Z" fill="#3a3d3f"/><path d="M104.38,410.79a29,29,0,0,0-3.15-.29c-1.11,0-2,.31-2,1.37,0,.85.43,1.08,2.34,1.41,2.25.38,3.1.83,3.1,2.57,0,2.11-1.33,2.81-3.49,2.81a25.4,25.4,0,0,1-3.17-.34l.07-1.17a29.5,29.5,0,0,0,3,.31c1.48,0,2.27-.33,2.27-1.55,0-.94-.47-1.17-2.43-1.48s-3-.7-3-2.5c0-2,1.6-2.63,3.24-2.63a23.19,23.19,0,0,1,3.26.34Z" fill="#3a3d3f"/><path d="M116.55,409.57l0,1.1s-1.44-.17-2.13-.17c-2.07,0-2.63.91-2.63,3.32,0,2.66.42,3.64,2.65,3.64.69,0,2.13-.17,2.13-.17l0,1.12a24,24,0,0,1-2.5.25c-2.87,0-3.71-1.31-3.71-4.84,0-3.26,1.06-4.52,3.74-4.52A20.89,20.89,0,0,1,116.55,409.57Z" fill="#3a3d3f"/><path d="M124.94,416.81c0,.52.47.72,1,.79l0,1.06a2.75,2.75,0,0,1-2.14-.72,9.2,9.2,0,0,1-3.24.72c-1.64,0-2.54-.93-2.54-2.75s.9-2.49,2.75-2.67l2.83-.27v-.77c0-1.26-.54-1.71-1.62-1.71-1.26,0-3.4.23-3.4.23l-.06-1a21.6,21.6,0,0,1,3.53-.4c2,0,2.9.94,2.9,2.9Zm-4-2.56c-1.09.11-1.53.63-1.53,1.62s.45,1.66,1.37,1.66a9.48,9.48,0,0,0,2.83-.56v-3Z" fill="#3a3d3f"/><path d="M127.6,418.48v-9h1.33v.63a6.85,6.85,0,0,1,2.79-.81c2.49,0,3.05,1.22,3.05,4.43v4.75h-1.34v-4.72c0-2.37-.26-3.26-1.94-3.26a6.12,6.12,0,0,0-2.54.67v7.31Z" fill="#3a3d3f"/><path d="M141.84,409.48l1.82,7.83H144l2.14-7.65h1.4l2.15,7.65h.3l1.8-7.83h1.35l-2.14,9H148.7l-1.91-7-1.91,7h-2.25l-2.14-9Z" fill="#3a3d3f"/><path d="M162.25,413.87c0,3.28-.81,4.79-3.85,4.79s-3.85-1.51-3.85-4.79c0-3.09,1-4.57,3.85-4.57S162.25,410.78,162.25,413.87Zm-1.38,0c0-2.5-.54-3.4-2.47-3.4s-2.47.9-2.47,3.4.35,3.62,2.47,3.62S160.87,416.43,160.87,413.87Z" fill="#3a3d3f"/><path d="M164.45,409.48h1.33v1.22a10.18,10.18,0,0,1,3.29-1.42v1.37a13,13,0,0,0-3.27,1.22v6.61h-1.35Z" fill="#3a3d3f"/><path d="M170.68,418.48V405.55H172v7.64l1.41-.07,2.57-3.64h1.53l-2.93,4.14,3.06,4.86h-1.53l-2.68-4.18-1.43.06v4.12Z" fill="#3a3d3f"/><path d="M185.06,410.65V415c0,2,.12,2.52,1.29,2.52.51,0,1.61-.1,1.61-.1l.09,1.11a15.71,15.71,0,0,1-1.84.2c-1.86,0-2.49-.7-2.49-3.3v-4.73h-1.27v-1.17h1.27v-2.76h1.34v2.76h2.86v1.17Z" fill="#3a3d3f"/><path d="M196.89,413.87c0,3.28-.82,4.79-3.86,4.79s-3.85-1.51-3.85-4.79c0-3.09,1-4.57,3.85-4.57S196.89,410.78,196.89,413.87Zm-1.39,0c0-2.5-.54-3.4-2.47-3.4s-2.46.9-2.46,3.4.34,3.62,2.46,3.62S195.5,416.43,195.5,413.87Z" fill="#3a3d3f"/><path d="M198.68,420c0-1,.49-1.53,1.42-2.23a1.46,1.46,0,0,1-.5-1.24,5.82,5.82,0,0,1,.61-1.42,2.64,2.64,0,0,1-1.42-2.72c0-2.22,1.37-3.08,3.37-3.08a9.43,9.43,0,0,1,1.87.23l2.67-.07v1.15l-1.72,0a2.3,2.3,0,0,1,.6,1.8c0,2.34-1.17,3-3.48,3-.18,0-.68,0-.88-.07a5.32,5.32,0,0,0-.32,1c0,.72.14.82,2.18.82,2.55,0,3.47.51,3.47,2.65s-1.46,2.86-4,2.86C199.71,422.71,198.68,422.08,198.68,420ZM201,418.3c-.75.56-1,.88-1,1.59,0,1.24.53,1.69,2.56,1.69,1.8,0,2.61-.49,2.61-1.68,0-1.36-.57-1.51-2.21-1.51C202.34,418.39,201,418.3,201,418.3Zm3.21-5.92c0-1.42-.56-2-2.07-2s-2,.56-2,2,.61,2,2,2S204.23,413.8,204.23,412.38Z" fill="#3a3d3f"/><path d="M215,417.31l0,1.06a31.12,31.12,0,0,1-3.51.29c-2.68,0-3.57-1.56-3.57-4.63,0-3.42,1.48-4.73,3.77-4.73s3.62,1.26,3.62,4.21l-.07,1H209.3c0,1.93.6,2.93,2.36,2.93C213,417.47,215,417.31,215,417.31Zm-1-3.85c0-2.23-.69-3-2.27-3s-2.4.85-2.41,3Z" fill="#3a3d3f"/><path d="M219.22,410.65V415c0,2,.13,2.52,1.3,2.52.5,0,1.6-.1,1.6-.1l.09,1.11a15.71,15.71,0,0,1-1.84.2c-1.85,0-2.48-.7-2.48-3.3v-4.73h-1.28v-1.17h1.28v-2.76h1.33v2.76h2.86v1.17Z" fill="#3a3d3f"/><path d="M223.74,418.48V405.55h1.35V410a7.64,7.64,0,0,1,2.77-.68c2.47,0,3,1.22,3,4.43v4.75h-1.35v-4.72c0-2.37-.28-3.26-1.93-3.26a7.29,7.29,0,0,0-2.54.55v7.43Z" fill="#3a3d3f"/><path d="M240.05,417.31l0,1.06a31.4,31.4,0,0,1-3.52.29c-2.68,0-3.56-1.56-3.56-4.63,0-3.42,1.48-4.73,3.76-4.73s3.62,1.26,3.62,4.21l-.07,1h-5.94c0,1.93.59,2.93,2.36,2.93C238.09,417.47,240.05,417.31,240.05,417.31Zm-1-3.85c0-2.23-.68-3-2.27-3s-2.39.85-2.41,3Z" fill="#3a3d3f"/><path d="M242.5,409.48h1.33v1.22a10.06,10.06,0,0,1,3.29-1.42v1.37a13,13,0,0,0-3.27,1.22v6.61H242.5Z" fill="#3a3d3f"/><path d="M254.48,410.65V415c0,2,.13,2.52,1.3,2.52.5,0,1.6-.1,1.6-.1l.09,1.11a15.44,15.44,0,0,1-1.83.2c-1.86,0-2.49-.7-2.49-3.3v-4.73h-1.28v-1.17h1.28v-2.76h1.33v2.76h2.87v1.17Z" fill="#3a3d3f"/><path d="M266.31,413.87c0,3.28-.81,4.79-3.85,4.79s-3.86-1.51-3.86-4.79c0-3.09,1-4.57,3.86-4.57S266.31,410.78,266.31,413.87Zm-1.39,0c0-2.5-.54-3.4-2.46-3.4s-2.47.9-2.47,3.4.34,3.62,2.47,3.62S264.92,416.43,264.92,413.87Z" fill="#3a3d3f"/><path d="M278.44,410.79a29.33,29.33,0,0,0-3.15-.29c-1.11,0-2,.31-2,1.37,0,.85.43,1.08,2.34,1.41,2.25.38,3.1.83,3.1,2.57,0,2.11-1.34,2.81-3.5,2.81a25.65,25.65,0,0,1-3.17-.34l.08-1.17a29.5,29.5,0,0,0,3,.31c1.47,0,2.27-.33,2.27-1.55,0-.94-.47-1.17-2.43-1.48s-3-.7-3-2.5c0-2,1.6-2.63,3.24-2.63a23.19,23.19,0,0,1,3.26.34Z" fill="#3a3d3f"/><path d="M286.65,409.57l0,1.1s-1.44-.17-2.13-.17c-2.07,0-2.63.91-2.63,3.32,0,2.66.42,3.64,2.65,3.64.68,0,2.12-.17,2.12-.17l.06,1.12a24.28,24.28,0,0,1-2.5.25c-2.87,0-3.71-1.31-3.71-4.84,0-3.26,1.06-4.52,3.74-4.52A20.89,20.89,0,0,1,286.65,409.57Z" fill="#3a3d3f"/><path d="M295,416.81c0,.52.47.72,1,.79l-.05,1.06a2.74,2.74,0,0,1-2.14-.72,9.22,9.22,0,0,1-3.25.72c-1.63,0-2.53-.93-2.53-2.75s.9-2.49,2.75-2.67l2.83-.27v-.77c0-1.26-.54-1.71-1.62-1.71-1.26,0-3.41.23-3.41.23l-.05-1a21.6,21.6,0,0,1,3.53-.4c2,0,2.9.94,2.9,2.9Zm-4-2.56c-1.09.11-1.53.63-1.53,1.62s.45,1.66,1.37,1.66a9.57,9.57,0,0,0,2.83-.56v-3Z" fill="#3a3d3f"/><path d="M297.7,418.48v-9H299v.63a6.85,6.85,0,0,1,2.79-.81c2.49,0,3.05,1.22,3.05,4.43v4.75h-1.34v-4.72c0-2.37-.27-3.26-1.94-3.26a6.12,6.12,0,0,0-2.54.67v7.31Z" fill="#3a3d3f"/><path d="M313.13,410.65V415c0,2,.12,2.52,1.29,2.52.51,0,1.61-.1,1.61-.1l.09,1.11a15.71,15.71,0,0,1-1.84.2c-1.86,0-2.49-.7-2.49-3.3v-4.73h-1.27v-1.17h1.27v-2.76h1.34v2.76H316v1.17Z" fill="#3a3d3f"/><path d="M317.64,418.48V405.55H319V410a7.65,7.65,0,0,1,2.78-.68c2.46,0,3,1.22,3,4.43v4.75h-1.35v-4.72c0-2.37-.27-3.26-1.93-3.26a7.37,7.37,0,0,0-2.54.55v7.43Z" fill="#3a3d3f"/><path d="M334,417.31l0,1.06a31.12,31.12,0,0,1-3.51.29c-2.68,0-3.57-1.56-3.57-4.63,0-3.42,1.48-4.73,3.77-4.73s3.62,1.26,3.62,4.21l-.08,1h-5.94c0,1.93.6,2.93,2.36,2.93C332,417.47,334,417.31,334,417.31Zm-1-3.85c0-2.23-.69-3-2.27-3s-2.4.85-2.42,3Z" fill="#3a3d3f"/><path d="M347.62,413.84c0,3.58-1,4.82-4.25,4.82-1.08,0-3-.2-3-.2V405.55h1.33v4.38a7.44,7.44,0,0,1,2.65-.63C346.79,409.3,347.62,410.6,347.62,413.84Zm-1.37,0c0-2.33-.47-3.34-2.05-3.34a7.47,7.47,0,0,0-2.51.53v6.34s1.17.09,1.66.09C345.82,417.46,346.25,416.36,346.25,413.84Z" fill="#3a3d3f"/><path d="M356.18,416.81c0,.52.47.72,1.05.79l-.06,1.06a2.75,2.75,0,0,1-2.14-.72,9.2,9.2,0,0,1-3.24.72c-1.64,0-2.54-.93-2.54-2.75s.9-2.49,2.76-2.67l2.82-.27v-.77c0-1.26-.54-1.71-1.62-1.71-1.26,0-3.4.23-3.4.23l-.05-1a21.57,21.57,0,0,1,3.52-.4c2,0,2.9.94,2.9,2.9Zm-4-2.56c-1.1.11-1.53.63-1.53,1.62s.45,1.66,1.37,1.66a9.47,9.47,0,0,0,2.82-.56v-3Z" fill="#3a3d3f"/><path d="M358.45,420c0-1,.49-1.53,1.42-2.23a1.46,1.46,0,0,1-.5-1.24,5.82,5.82,0,0,1,.61-1.42c-.76-.35-1.42-1.07-1.42-2.72,0-2.22,1.37-3.08,3.36-3.08a9.6,9.6,0,0,1,1.88.23l2.66-.07v1.15l-1.71,0a2.33,2.33,0,0,1,.6,1.8c0,2.34-1.17,3-3.48,3-.18,0-.68,0-.88-.07a5.21,5.21,0,0,0-.33,1c0,.72.15.82,2.18.82,2.56,0,3.48.51,3.48,2.65s-1.46,2.86-4,2.86C359.48,422.71,358.45,422.08,358.45,420Zm2.34-1.69c-.76.56-1,.88-1,1.59,0,1.24.52,1.69,2.56,1.69,1.8,0,2.61-.49,2.61-1.68,0-1.36-.58-1.51-2.22-1.51C362.1,418.39,360.79,418.3,360.79,418.3Zm3.21-5.92c0-1.42-.56-2-2.08-2s-2,.56-2,2,.61,2,2,2S364,413.8,364,412.38Z" fill="#3a3d3f"/><path d="M374.08,410.79a29.33,29.33,0,0,0-3.16-.29c-1.11,0-2,.31-2,1.37,0,.85.43,1.08,2.34,1.41,2.25.38,3.1.83,3.1,2.57,0,2.11-1.33,2.81-3.49,2.81a25.4,25.4,0,0,1-3.17-.34l.07-1.17a29.5,29.5,0,0,0,3,.31c1.48,0,2.27-.33,2.27-1.55,0-.94-.47-1.17-2.43-1.48s-3-.7-3-2.5c0-2,1.6-2.63,3.24-2.63a23.19,23.19,0,0,1,3.26.34Z" fill="#3a3d3f"/><path d="M380.43,418.48v-9h1.33v.63a6,6,0,0,1,2.63-.81,2.53,2.53,0,0,1,2.34.92,7.46,7.46,0,0,1,3.2-.92c2.45,0,3.05,1.17,3.05,4.43v4.75h-1.35v-4.72c0-2.37-.27-3.26-1.89-3.26a5.89,5.89,0,0,0-2.54.67,10.4,10.4,0,0,1,.23,2.63v4.68h-1.35v-4.64c0-2.49-.25-3.34-1.89-3.34a5.34,5.34,0,0,0-2.41.67v7.31Z" fill="#3a3d3f"/><path d="M401.83,416.81c0,.52.47.72,1.05.79l-.06,1.06a2.75,2.75,0,0,1-2.14-.72,9.2,9.2,0,0,1-3.24.72c-1.64,0-2.54-.93-2.54-2.75s.9-2.49,2.75-2.67l2.83-.27v-.77c0-1.26-.54-1.71-1.62-1.71-1.26,0-3.4.23-3.4.23l-.06-1a21.6,21.6,0,0,1,3.53-.4c2,0,2.9.94,2.9,2.9Zm-4-2.56c-1.1.11-1.53.63-1.53,1.62s.45,1.66,1.36,1.66a9.48,9.48,0,0,0,2.83-.56v-3Z" fill="#3a3d3f"/><path d="M404.49,418.48v-9h1.34v.63a6.79,6.79,0,0,1,2.79-.81c2.48,0,3,1.22,3,4.43v4.75h-1.33v-4.72c0-2.37-.27-3.26-1.95-3.26a6.18,6.18,0,0,0-2.54.67v7.31Z" fill="#3a3d3f"/><path d="M421.13,409.48v9h-1.35v-.63a6.08,6.08,0,0,1-2.67.81c-2.52,0-3-1.17-3-4.48v-4.7h1.35v4.68c0,2.49.22,3.3,1.89,3.3a5.47,5.47,0,0,0,2.47-.67v-7.31Z" fill="#3a3d3f"/><path d="M430.07,416.81c0,.52.47.72,1.05.79l-.06,1.06a2.75,2.75,0,0,1-2.14-.72,9.2,9.2,0,0,1-3.24.72c-1.64,0-2.54-.93-2.54-2.75s.9-2.49,2.75-2.67l2.83-.27v-.77c0-1.26-.54-1.71-1.62-1.71-1.26,0-3.4.23-3.4.23l-.06-1a21.77,21.77,0,0,1,3.53-.4c2,0,2.9.94,2.9,2.9Zm-4-2.56c-1.1.11-1.53.63-1.53,1.62s.45,1.66,1.36,1.66a9.48,9.48,0,0,0,2.83-.56v-3Z" fill="#3a3d3f"/><path d="M432.84,405.55h1.35v12.93h-1.35Z" fill="#3a3d3f"/><path d="M437,405.55h1.35v12.93H437Z" fill="#3a3d3f"/><path d="M441.56,409.48l2.25,7.83h.59l2.27-7.83H448l-3.75,13h-1.35l1.17-4h-1.33l-2.56-9Z" fill="#3a3d3f"/><path d="M449.65,416.43h1.48v2.05h-1.48Z" fill="#3a3d3f"/><path d="M456.53,406h9v1.24h-3.8v11.22h-1.37V407.26h-3.83Z" fill="#3a3d3f"/><path d="M467.06,418.48V405.55h1.35V410a7.64,7.64,0,0,1,2.77-.68c2.47,0,3.05,1.22,3.05,4.43v4.75h-1.35v-4.72c0-2.37-.28-3.26-1.93-3.26a7.29,7.29,0,0,0-2.54.55v7.43Z" fill="#3a3d3f"/><path d="M476.73,405.88h1.35v1.56h-1.35Zm0,3.6h1.35v9h-1.35Z" fill="#3a3d3f"/><path d="M486.64,410.79a29,29,0,0,0-3.15-.29c-1.11,0-2,.31-2,1.37,0,.85.43,1.08,2.34,1.41,2.25.38,3.1.83,3.1,2.57,0,2.11-1.33,2.81-3.49,2.81a25.4,25.4,0,0,1-3.17-.34l.07-1.17a29.5,29.5,0,0,0,3,.31c1.48,0,2.27-.33,2.27-1.55,0-.94-.47-1.17-2.43-1.48s-3-.7-3-2.5c0-2,1.6-2.63,3.24-2.63a23.19,23.19,0,0,1,3.26.34Z" fill="#3a3d3f"/><path d="M493.61,409.48l1.82,7.83h.29l2.14-7.65h1.4l2.15,7.65h.3l1.8-7.83h1.35l-2.14,9h-2.25l-1.91-7-1.91,7H494.4l-2.14-9Z" fill="#3a3d3f"/><path d="M514,413.87c0,3.28-.81,4.79-3.85,4.79s-3.85-1.51-3.85-4.79c0-3.09,1-4.57,3.85-4.57S514,410.78,514,413.87Zm-1.38,0c0-2.5-.54-3.4-2.47-3.4s-2.47.9-2.47,3.4.35,3.62,2.47,3.62S512.64,416.43,512.64,413.87Z" fill="#3a3d3f"/><path d="M523.18,409.48v9h-1.35v-.63a6.07,6.07,0,0,1-2.66.81c-2.52,0-3-1.17-3-4.48v-4.7h1.35v4.68c0,2.49.21,3.3,1.89,3.3a5.4,5.4,0,0,0,2.46-.67v-7.31Z" fill="#3a3d3f"/><path d="M525.88,405.55h1.35v12.93h-1.35Z" fill="#3a3d3f"/><path d="M536.85,418.48h-1.34v-.61a6.42,6.42,0,0,1-2.73.79c-1.77,0-3.24-.72-3.24-4.61,0-3.17,1-4.75,3.76-4.75a15.79,15.79,0,0,1,2.21.23v-4h1.34Zm-1.34-1.69v-6.1a14.12,14.12,0,0,0-2.14-.22c-1.89,0-2.45,1.24-2.45,3.58,0,2.92,1,3.41,2,3.41A6.47,6.47,0,0,0,535.51,416.79Z" fill="#3a3d3f"/><path d="M32.71,438.79a29.33,29.33,0,0,0-3.15-.29c-1.12,0-2,.31-2,1.37,0,.85.43,1.08,2.34,1.41,2.25.38,3.09.83,3.09,2.57,0,2.11-1.33,2.81-3.49,2.81a25.65,25.65,0,0,1-3.17-.34l.07-1.17a29.86,29.86,0,0,0,3,.31c1.48,0,2.27-.33,2.27-1.55,0-.94-.47-1.17-2.43-1.48s-3-.7-3-2.5c0-2,1.6-2.63,3.24-2.63a23.19,23.19,0,0,1,3.26.34Z" fill="#3a3d3f"/><path d="M41.46,444.81c0,.52.47.72,1,.79l0,1.06a2.74,2.74,0,0,1-2.14-.72,9.29,9.29,0,0,1-3.25.72c-1.63,0-2.54-.93-2.54-2.75s.91-2.49,2.76-2.67l2.83-.27v-.77c0-1.26-.54-1.71-1.62-1.71-1.26,0-3.41.23-3.41.23l0-1a21.6,21.6,0,0,1,3.53-.4c2,0,2.9.94,2.9,2.9Zm-4-2.56c-1.1.11-1.53.63-1.53,1.62s.45,1.66,1.37,1.66a9.57,9.57,0,0,0,2.83-.56v-3Z" fill="#3a3d3f"/><path d="M44.71,437.48l2.11,7.83h.67l2.17-7.83h1.39l-2.54,9h-2.7l-2.54-9Z" fill="#3a3d3f"/><path d="M59.42,445.31l0,1.06a31.38,31.38,0,0,1-3.51.29c-2.69,0-3.57-1.56-3.57-4.63,0-3.42,1.48-4.73,3.76-4.73s3.62,1.26,3.62,4.21l-.07,1H53.75c0,1.93.59,2.93,2.36,2.93C57.46,445.47,59.42,445.31,59.42,445.31Zm-1-3.85c0-2.23-.68-3-2.27-3s-2.39.85-2.41,3Z" fill="#3a3d3f"/><path d="M65.83,446.48v-9h1.33v.63a6,6,0,0,1,2.63-.81,2.54,2.54,0,0,1,2.34.92,7.46,7.46,0,0,1,3.2-.92c2.45,0,3,1.17,3,4.43v4.75H77v-4.72c0-2.37-.27-3.26-1.89-3.26a5.89,5.89,0,0,0-2.54.67,10.4,10.4,0,0,1,.23,2.63v4.68H71.48v-4.64c0-2.49-.25-3.34-1.89-3.34a5.34,5.34,0,0,0-2.41.67v7.31Z" fill="#3a3d3f"/><path d="M87.23,444.81c0,.52.47.72,1,.79l0,1.06a2.75,2.75,0,0,1-2.14-.72,9.2,9.2,0,0,1-3.24.72c-1.64,0-2.54-.93-2.54-2.75s.9-2.49,2.75-2.67l2.83-.27v-.77c0-1.26-.54-1.71-1.62-1.71-1.26,0-3.4.23-3.4.23l-.06-1a21.6,21.6,0,0,1,3.53-.4c2,0,2.9.94,2.9,2.9Zm-4-2.56c-1.1.11-1.54.63-1.54,1.62s.46,1.66,1.37,1.66a9.48,9.48,0,0,0,2.83-.56v-3Z" fill="#3a3d3f"/><path d="M95.71,437.57l-.06,1.1s-1.44-.17-2.12-.17c-2.07,0-2.63.91-2.63,3.32,0,2.66.41,3.64,2.65,3.64.68,0,2.12-.17,2.12-.17l.06,1.12a24.24,24.24,0,0,1-2.51.25c-2.86,0-3.71-1.31-3.71-4.84,0-3.26,1.07-4.52,3.75-4.52A20.89,20.89,0,0,1,95.71,437.57Z" fill="#3a3d3f"/><path d="M97.74,446.48V433.55h1.35V438a7.64,7.64,0,0,1,2.77-.68c2.47,0,3,1.22,3,4.43v4.75h-1.35v-4.72c0-2.37-.27-3.26-1.93-3.26a7.29,7.29,0,0,0-2.54.55v7.43Z" fill="#3a3d3f"/><path d="M107.41,433.88h1.35v1.56h-1.35Zm0,3.6h1.35v9h-1.35Z" fill="#3a3d3f"/><path d="M111.35,446.48v-9h1.33v.63a6.85,6.85,0,0,1,2.79-.81c2.49,0,3,1.22,3,4.43v4.75h-1.33v-4.72c0-2.37-.27-3.26-1.94-3.26a6.12,6.12,0,0,0-2.54.67v7.31Z" fill="#3a3d3f"/><path d="M127.66,445.31l0,1.06a31.12,31.12,0,0,1-3.51.29c-2.68,0-3.56-1.56-3.56-4.63,0-3.42,1.48-4.73,3.76-4.73s3.62,1.26,3.62,4.21l-.07,1H122c0,1.93.59,2.93,2.36,2.93C125.7,445.47,127.66,445.31,127.66,445.31Zm-1-3.85c0-2.23-.68-3-2.27-3s-2.39.85-2.41,3Z" fill="#3a3d3f"/><path d="M134.06,437.48h1.34v.65a6.07,6.07,0,0,1,2.7-.83c2.27,0,3.26,1.39,3.26,4.57,0,3.53-1.16,4.79-3.93,4.79a11.25,11.25,0,0,1-2-.2v4h-1.35Zm1.35,1.75v6.06a13.12,13.12,0,0,0,2,.2c2,0,2.63-1,2.63-3.62s-.78-3.37-2.09-3.37A5.87,5.87,0,0,0,135.41,439.23Z" fill="#3a3d3f"/><path d="M150.19,445.31l0,1.06a31.12,31.12,0,0,1-3.51.29c-2.68,0-3.57-1.56-3.57-4.63,0-3.42,1.48-4.73,3.77-4.73s3.62,1.26,3.62,4.21l-.08,1h-5.94c0,1.93.6,2.93,2.36,2.93C148.23,445.47,150.19,445.31,150.19,445.31Zm-1-3.85c0-2.23-.69-3-2.27-3s-2.4.85-2.41,3Z" fill="#3a3d3f"/><path d="M152.64,437.48H154v1.22a10.17,10.17,0,0,1,3.3-1.42v1.37a13.15,13.15,0,0,0-3.28,1.22v6.61h-1.35Z" fill="#3a3d3f"/><path d="M160.6,446.48h-1.35v-7.83h-1.14v-1.17h1.14v-.81c0-2.59.66-3.3,2.43-3.3.61,0,1.82.13,1.82.13l0,1.12s-1,0-1.55,0c-1,0-1.33.43-1.33,2.11v.79h2.61v1.17H160.6Z" fill="#3a3d3f"/><path d="M172.14,441.87c0,3.28-.81,4.79-3.86,4.79s-3.85-1.51-3.85-4.79c0-3.09,1-4.57,3.85-4.57S172.14,438.78,172.14,441.87Zm-1.39,0c0-2.5-.54-3.4-2.47-3.4s-2.46.9-2.46,3.4.34,3.62,2.46,3.62S170.75,444.43,170.75,441.87Z" fill="#3a3d3f"/><path d="M174.33,437.48h1.33v1.22a10.17,10.17,0,0,1,3.3-1.42v1.37a13,13,0,0,0-3.28,1.22v6.61h-1.35Z" fill="#3a3d3f"/><path d="M180.56,446.48v-9h1.33v.63a6,6,0,0,1,2.63-.81,2.54,2.54,0,0,1,2.34.92,7.46,7.46,0,0,1,3.2-.92c2.45,0,3.05,1.17,3.05,4.43v4.75h-1.35v-4.72c0-2.37-.27-3.26-1.89-3.26a5.89,5.89,0,0,0-2.54.67,10.4,10.4,0,0,1,.23,2.63v4.68h-1.35v-4.64c0-2.49-.25-3.34-1.89-3.34a5.34,5.34,0,0,0-2.41.67v7.31Z" fill="#3a3d3f"/><path d="M202,444.81c0,.52.47.72,1,.79l-.06,1.06a2.75,2.75,0,0,1-2.14-.72,9.2,9.2,0,0,1-3.24.72c-1.64,0-2.54-.93-2.54-2.75s.9-2.49,2.75-2.67l2.83-.27v-.77c0-1.26-.54-1.71-1.62-1.71-1.26,0-3.4.23-3.4.23l-.06-1a21.6,21.6,0,0,1,3.53-.4c2,0,2.9.94,2.9,2.9Zm-4-2.56c-1.1.11-1.53.63-1.53,1.62s.45,1.66,1.36,1.66a9.48,9.48,0,0,0,2.83-.56v-3Z" fill="#3a3d3f"/><path d="M204.62,446.48v-9H206v.63a6.79,6.79,0,0,1,2.79-.81c2.48,0,3,1.22,3,4.43v4.75h-1.33v-4.72c0-2.37-.27-3.26-2-3.26a6.18,6.18,0,0,0-2.54.67v7.31Z" fill="#3a3d3f"/><path d="M220.1,437.57l0,1.1s-1.44-.17-2.12-.17c-2.07,0-2.63.91-2.63,3.32,0,2.66.41,3.64,2.64,3.64.69,0,2.13-.17,2.13-.17l.05,1.12a24,24,0,0,1-2.5.25c-2.86,0-3.71-1.31-3.71-4.84,0-3.26,1.06-4.52,3.75-4.52A20.91,20.91,0,0,1,220.1,437.57Z" fill="#3a3d3f"/><path d="M228.78,445.31l0,1.06a31.38,31.38,0,0,1-3.51.29c-2.69,0-3.57-1.56-3.57-4.63,0-3.42,1.48-4.73,3.76-4.73s3.62,1.26,3.62,4.21l-.07,1h-5.94c0,1.93.59,2.93,2.36,2.93C226.82,445.47,228.78,445.31,228.78,445.31Zm-1-3.85c0-2.23-.68-3-2.27-3s-2.39.85-2.41,3Z" fill="#3a3d3f"/><path d="M235.19,433.88h1.35v1.56h-1.35Zm0,3.6h1.35v9h-1.35Z" fill="#3a3d3f"/><path d="M239.13,446.48v-9h1.33v.63a6.85,6.85,0,0,1,2.79-.81c2.49,0,3,1.22,3,4.43v4.75H245v-4.72c0-2.37-.27-3.26-1.94-3.26a6.12,6.12,0,0,0-2.54.67v7.31Z" fill="#3a3d3f"/><path d="M254.55,438.65V443c0,2,.13,2.52,1.3,2.52.5,0,1.6-.1,1.6-.1l.09,1.11a15.44,15.44,0,0,1-1.83.2c-1.86,0-2.49-.7-2.49-3.3v-4.73h-1.28v-1.17h1.28v-2.76h1.33v2.76h2.87v1.17Z" fill="#3a3d3f"/><path d="M265.72,445.31l0,1.06a31.12,31.12,0,0,1-3.51.29c-2.68,0-3.56-1.56-3.56-4.63,0-3.42,1.47-4.73,3.76-4.73s3.62,1.26,3.62,4.21l-.07,1H260c0,1.93.6,2.93,2.36,2.93C263.75,445.47,265.72,445.31,265.72,445.31Zm-1-3.85c0-2.23-.69-3-2.27-3s-2.4.85-2.41,3Z" fill="#3a3d3f"/><path d="M268.16,437.48h1.33v1.22a10.17,10.17,0,0,1,3.3-1.42v1.37a13.15,13.15,0,0,0-3.28,1.22v6.61h-1.35Z" fill="#3a3d3f"/><path d="M274.39,446.48v-9h1.33v.63a6,6,0,0,1,2.63-.81,2.53,2.53,0,0,1,2.34.92,7.47,7.47,0,0,1,3.21-.92c2.45,0,3,1.17,3,4.43v4.75h-1.35v-4.72c0-2.37-.27-3.26-1.89-3.26a6,6,0,0,0-2.54.67,10.4,10.4,0,0,1,.23,2.63v4.68H280v-4.64c0-2.49-.25-3.34-1.89-3.34a5.34,5.34,0,0,0-2.41.67v7.31Z" fill="#3a3d3f"/><path d="M295.42,438.79a29.33,29.33,0,0,0-3.16-.29c-1.11,0-2,.31-2,1.37,0,.85.43,1.08,2.34,1.41,2.25.38,3.1.83,3.1,2.57,0,2.11-1.33,2.81-3.49,2.81a25.4,25.4,0,0,1-3.17-.34l.07-1.17a29.5,29.5,0,0,0,3,.31c1.48,0,2.27-.33,2.27-1.55,0-.94-.47-1.17-2.43-1.48s-3-.7-3-2.5c0-2,1.6-2.63,3.24-2.63a23.19,23.19,0,0,1,3.26.34Z" fill="#3a3d3f"/><path d="M309.08,441.87c0,3.28-.81,4.79-3.86,4.79s-3.85-1.51-3.85-4.79c0-3.09,1-4.57,3.85-4.57S309.08,438.78,309.08,441.87Zm-1.39,0c0-2.5-.54-3.4-2.47-3.4s-2.46.9-2.46,3.4.34,3.62,2.46,3.62S307.69,444.43,307.69,441.87Z" fill="#3a3d3f"/><path d="M313,446.48h-1.35v-7.83h-1.14v-1.17h1.14v-.81c0-2.59.67-3.3,2.43-3.3.61,0,1.82.13,1.82.13l0,1.12s-1,0-1.55,0c-1,0-1.33.43-1.33,2.11v.79h2.61v1.17H313Z" fill="#3a3d3f"/><path d="M323.75,434h3l3.42,12.46h-1.37l-.9-3.2h-5.33l-.9,3.2h-1.36Zm-.85,8h4.72l-1.89-6.82h-.94Z" fill="#3a3d3f"/><path d="M337.08,440.11h3.44v6.12a30.76,30.76,0,0,1-4,.43c-3.82,0-4.82-2.34-4.82-6.37s1-6.45,4.79-6.45a23,23,0,0,1,4.08.47l0,1.15a28.37,28.37,0,0,0-3.87-.38c-2.88,0-3.51,1.68-3.51,5.21s.61,5.15,3.49,5.15a16.58,16.58,0,0,0,2.57-.25v-3.84h-2.07Z" fill="#3a3d3f"/><path d="M351.76,434l-3.26,12.46h-3.1L342.14,434h1.44l2.86,11.24h1L350.31,434Z" fill="#3a3d3f"/><path d="M359.46,438.79a29.33,29.33,0,0,0-3.15-.29c-1.12,0-2,.31-2,1.37,0,.85.43,1.08,2.33,1.41,2.26.38,3.1.83,3.1,2.57,0,2.11-1.33,2.81-3.49,2.81a25.65,25.65,0,0,1-3.17-.34l.07-1.17a29.5,29.5,0,0,0,3,.31c1.48,0,2.27-.33,2.27-1.55,0-.94-.47-1.17-2.43-1.48s-3-.7-3-2.5c0-2,1.61-2.63,3.24-2.63a23,23,0,0,1,3.26.34Z" fill="#3a3d3f"/><path d="M361.76,444.43h1.48v2.05h-1.48Z" fill="#3a3d3f"/><rect x="267.52" y="82.91" width="10.84" height="41.27" transform="translate(545.89 207.1) rotate(-180)" fill="#2277d6"/><rect x="252.39" y="96.65" width="10.84" height="27.53" transform="translate(515.63 220.84) rotate(-180)" fill="#2277d6"/><rect x="236.37" y="110.42" width="10.84" height="13.77" transform="translate(483.59 234.6) rotate(-180)" fill="#2277d6"/><path d="M180,91.68h-8.67V87.34A4.33,4.33,0,0,0,167,83h-8.66A4.34,4.34,0,0,0,154,87.35v4.33h-8.67A4.3,4.3,0,0,0,141,96l0,23.84a4.31,4.31,0,0,0,4.33,4.33H179.4a4.91,4.91,0,0,0,4.92-4.91V96A4.33,4.33,0,0,0,180,91.68Zm-13,0h-8.66V87.34H167Z" fill="#2277d6"/><path d="M63.17,106.44a9.9,9.9,0,1,0-9.9-9.9A9.9,9.9,0,0,0,63.17,106.44Zm0,5c-6.6,0-19.79,3.31-19.79,9.89v5H83v-5C83,114.7,69.78,111.39,63.17,111.39Z" fill="#2277d6"/><path d="M32.06,206.49h3.36l3.8,13.85H37.7l-1-3.56H30.78l-1,3.56H28.26Zm-.94,8.91h5.24l-2.1-7.59h-1Z"/><path d="M50.58,206.49,47,220.34H43.52L39.9,206.49h1.6L44.68,219H45.8L49,206.49Z"/><path d="M55.06,206.49h3.36l3.8,13.85H60.7l-1-3.56H53.78l-1,3.56H51.26Zm-.94,8.91h5.24l-2.1-7.59h-1Z"/><path d="M64.12,206.49h1.54v13.85H64.12Z"/><path d="M68.76,220.34V206.49H70.3V219h6.08v1.38Z"/><path d="M80.64,206.49H84l3.8,13.85H86.28l-1-3.56H79.36l-1,3.56H76.84Zm-.94,8.91h5.24l-2.1-7.59h-1Z"/><path d="M94.72,206.49c2.7,0,4.12,1.06,4.12,3.52,0,1.8-.66,2.66-1.78,3.18a3,3,0,0,1,2.2,3.26c0,2.93-1.68,3.89-4.28,3.89H89.7V206.49Zm-3.48,1.36v4.78H94.8c1.74,0,2.46-.82,2.46-2.48s-.84-2.3-2.6-2.3Zm0,6.12v5h3.68c1.68,0,2.78-.54,2.78-2.58S95.88,214,94.82,214Z"/><path d="M101.74,220.34V206.49h1.54V219h6.08v1.38Z"/><path d="M111,206.49h8.42v1.36h-6.88v4.78h5.68V214h-5.68v5h6.88v1.36H111Z"/><path d="M134.3,220.12a20.83,20.83,0,0,1-3.82.42c-4.14,0-5.06-2.52-5.06-7.09s.9-7.16,5.06-7.16a20.32,20.32,0,0,1,3.82.44l-.06,1.3a24.64,24.64,0,0,0-3.6-.36c-3.08,0-3.62,1.84-3.62,5.78s.5,5.71,3.66,5.71a21.88,21.88,0,0,0,3.56-.36Z"/><path d="M136,213.47c0-4.56,1.18-7.18,5.46-7.18s5.48,2.58,5.48,7.18c0,4.77-1.18,7.07-5.48,7.07S136,218.12,136,213.47Zm9.34,0c0-3.74-.72-5.82-3.88-5.82s-3.88,2.06-3.88,5.82.68,5.71,3.88,5.71S145.32,217.38,145.32,213.47Z"/><path d="M149.46,220.34V206.49H151V219h6.08v1.38Z"/><path d="M158.76,220.34V206.49h1.54V219h6.08v1.38Z"/><path d="M168.06,206.49h8.42v1.36H169.6v4.78h5.68V214H169.6v5h6.88v1.36h-8.42Z"/><path d="M181.42,206.49h3.36l3.8,13.85h-1.52l-1-3.56h-5.92l-1,3.56h-1.52Zm-.94,8.91h5.24l-2.1-7.59h-1Z"/><path d="M196,213.25h3.82v6.81a33.71,33.71,0,0,1-4.5.48c-4.24,0-5.36-2.6-5.36-7.09s1.16-7.16,5.32-7.16a25.77,25.77,0,0,1,4.54.52l-.06,1.28a31.73,31.73,0,0,0-4.3-.42c-3.2,0-3.9,1.86-3.9,5.78s.68,5.73,3.88,5.73a19.91,19.91,0,0,0,2.86-.28v-4.27H196Z"/><path d="M207.2,219.18c2.16,0,3.38-.85,3.38-3v-9.68h1.52v9.65c0,3.16-1.74,4.4-4.9,4.4s-4.78-1.22-4.78-4.4v-9.65H204v9.68C204,218.33,205.16,219.18,207.2,219.18Z"/><path d="M215.12,206.49h8.42v1.36h-6.88v4.78h5.68V214h-5.68v5h6.88v1.36h-8.42Z"/><path d="M233.66,208s-2.78-.34-3.94-.34c-2,0-3,.7-3,2.26,0,1.8,1,2.1,3.38,2.64,2.76.62,4,1.3,4,3.72,0,3.07-1.68,4.27-4.42,4.27a35.61,35.61,0,0,1-4.38-.45l.16-1.27s2.72.36,4.14.36c2,0,3-.86,3-2.79,0-1.55-.82-2-3.08-2.44-2.86-.62-4.3-1.3-4.3-3.94s1.76-3.72,4.46-3.72a34.46,34.46,0,0,1,4.18.4Z"/></g><g id="MC_Tab_Content"><circle cx="51.23" cy="267.74" r="26.31" fill="#ebefa5" stroke="#2277d6" stroke-miterlimit="10" stroke-width="5"/><path d="M36.49,259.76h9.19v1.48H38.17v5.22h6.2v1.47h-6.2v5.46h7.51v1.48H36.49Z" fill="#424127"/><path d="M49.66,259.76h3L57,272.53l4.28-12.77h3v15.11H62.61V261.55h-.3l-4.39,12.77H56l-4.39-12.77h-.31v13.32H49.66Z" fill="#424127"/><circle cx="117.78" cy="267.74" r="26.31" fill="#dbb8f4"/><path d="M115.25,268h-7.69v6.83h-1.68V259.76h1.68v6.77h7.69v-6.77h1.66v15.11h-1.66Z" fill="#574666"/><path d="M121.72,274.87V259.76h1.68v13.6H130v1.51Z" fill="#574666"/><circle cx="184.32" cy="267.74" r="26.31" fill="#a5ebef" stroke="#2277d6" stroke-miterlimit="10" stroke-width="5"/><path d="M168.11,259.76h3l4.28,12.77,4.28-12.77h3v15.11h-1.68V261.55h-.3l-4.39,12.77h-1.88l-4.39-12.77h-.31v13.32h-1.68Z" fill="#274444"/><path d="M187.55,259.76h3.15l5.78,13.63h.46V259.76h1.66v15.11h-3.08l-5.87-13.63h-.42v13.63h-1.68Z" fill="#274444"/><circle cx="250.86" cy="267.74" r="26.31" fill="#c2e3f2"/><path d="M241.44,259.76h10.91v1.51h-4.6v13.6h-1.66v-13.6h-4.65Z" fill="#2f4249"/><path d="M258.28,272.8c0,3.27-1.27,3.64-4.15,3.64v-1.5c2,0,2.46-.14,2.46-2.38v-12.8h1.66Z" fill="#2f4249"/><circle cx="317.41" cy="267.74" r="26.31" fill="#efd3a5"/><path d="M309,259.76h9.19v1.48h-7.51v5.22h6.2v1.47h-6.2v5.46h7.51v1.48H309Z" fill="#4c3d28"/><path d="M322.12,274.87V259.76h1.68v13.6h6.64v1.51Z" fill="#4c3d28"/></g></g></svg>