<svg xmlns="http://www.w3.org/2000/svg" xmlns:xlink="http://www.w3.org/1999/xlink" viewBox="0 0 579.59 494.77"><defs><clipPath id="clip-path"><rect x="431.51" y="176.58" width="23.04" height="37.93" fill="none"/></clipPath><clipPath id="clip-path-2"><rect x="64.78" y="162.32" width="229.58" height="53.33" fill="none"/></clipPath></defs><title>r_2_B_Tablet_1</title><g id="Layer_2" data-name="Layer 2"><g id="Layer_2-2" data-name="Layer 2"><rect y="0.5" width="579.59" height="494.27" fill="#f7f7f7"/><line x1="0.23" y1="0.5" x2="579.59" y2="0.5" fill="none" stroke="#ddd" stroke-miterlimit="10"/></g><g id="MC_Tab_Content"><path d="M34.48,77.32c1.89,0,2.88.75,2.88,2.47A2.13,2.13,0,0,1,36.11,82a2.12,2.12,0,0,1,1.54,2.28c0,2-1.17,2.72-3,2.72H31v-9.7Zm-2.44,1v3.34h2.49c1.22,0,1.72-.57,1.72-1.73s-.58-1.61-1.82-1.61Zm0,4.28v3.5h2.57c1.18,0,2-.37,2-1.8s-1.27-1.7-2-1.7Z" fill="#4c4c4c"/><path d="M44.35,85.71c0,.41.36.56.81.62l0,.83a2.14,2.14,0,0,1-1.67-.56,7.16,7.16,0,0,1-2.52.56c-1.28,0-2-.73-2-2.15s.7-1.93,2.15-2.07l2.19-.21v-.6c0-1-.42-1.33-1.26-1.33s-2.64.18-2.64.18l0-.8a17,17,0,0,1,2.75-.31c1.58,0,2.26.73,2.26,2.26Zm-3.13-2c-.85.09-1.19.49-1.19,1.27s.35,1.28,1.07,1.28a7.45,7.45,0,0,0,2.19-.43V83.53Z" fill="#4c4c4c"/><path d="M46.11,88.19c0-.81.37-1.19,1.1-1.73a1.16,1.16,0,0,1-.39-1,4.46,4.46,0,0,1,.48-1.11,2,2,0,0,1-1.11-2.11c0-1.73,1.06-2.4,2.62-2.4a7.39,7.39,0,0,1,1.46.18l2.07,0v.9l-1.33,0a1.82,1.82,0,0,1,.46,1.4c0,1.82-.91,2.36-2.7,2.36a5.47,5.47,0,0,1-.69,0,4.27,4.27,0,0,0-.25.8c0,.56.11.64,1.69.64,2,0,2.71.39,2.71,2.06s-1.14,2.23-3.11,2.23C46.9,90.31,46.11,89.82,46.11,88.19Zm1.82-1.31c-.59.43-.79.68-.79,1.23,0,1,.41,1.31,2,1.31,1.4,0,2-.37,2-1.3S50.71,87,49.44,87C49,87,47.93,86.88,47.93,86.88Zm2.49-4.61c0-1.11-.43-1.54-1.61-1.54s-1.57.43-1.57,1.54.48,1.52,1.57,1.52S50.42,83.37,50.42,82.27Z" fill="#4c4c4c"/><path d="M58.26,81a23.2,23.2,0,0,0-2.45-.22c-.87,0-1.53.24-1.53,1.07,0,.65.34.84,1.82,1.09,1.76.29,2.41.64,2.41,2,0,1.64-1,2.19-2.71,2.19a19.53,19.53,0,0,1-2.47-.27l.06-.91a22.89,22.89,0,0,0,2.31.24c1.15,0,1.76-.25,1.76-1.21,0-.73-.36-.91-1.89-1.15s-2.34-.54-2.34-1.94,1.25-2,2.52-2a17.78,17.78,0,0,1,2.54.27Z" fill="#4c4c4c"/><path d="M35.58,275.68h2.35l2.66,9.7H39.53l-.7-2.5H34.68l-.7,2.5H32.92Zm-.66,6.24h3.67l-1.47-5.31h-.73Z" fill="#4c4c4c"/><path d="M42.4,278.37l1.63,6.1h.52l1.7-6.1h1.08l-2,7h-2.1l-2-7Z" fill="#4c4c4c"/><path d="M53.61,284.07c0,.41.37.56.81.62l0,.83a2.15,2.15,0,0,1-1.67-.56,7.16,7.16,0,0,1-2.52.56c-1.27,0-2-.73-2-2.15s.7-1.93,2.14-2.07l2.2-.21v-.6c0-1-.42-1.33-1.26-1.33s-2.65.18-2.65.18l0-.8a16.87,16.87,0,0,1,2.75-.31c1.58,0,2.25.73,2.25,2.26Zm-3.12-2c-.86.09-1.19.5-1.19,1.27s.35,1.28,1.06,1.28a7.46,7.46,0,0,0,2.2-.43v-2.31Z" fill="#4c4c4c"/><path d="M55.68,275.57h1v1.22h-1Zm0,2.8h1v7h-1Z" fill="#4c4c4c"/><path d="M58.83,275.32h1.05v10.06H58.83Z" fill="#4c4c4c"/><path d="M66.92,284.07c0,.41.37.56.82.62l0,.83A2.13,2.13,0,0,1,66,285a7.16,7.16,0,0,1-2.52.56c-1.28,0-2-.73-2-2.15s.7-1.93,2.14-2.07l2.2-.21v-.6c0-1-.42-1.33-1.26-1.33s-2.65.18-2.65.18l0-.8a16.87,16.87,0,0,1,2.75-.31c1.58,0,2.25.73,2.25,2.26Zm-3.12-2c-.86.09-1.19.5-1.19,1.27s.35,1.28,1.06,1.28a7.46,7.46,0,0,0,2.2-.43v-2.31Z" fill="#4c4c4c"/><path d="M74.64,281.76c0,2.79-.76,3.76-3.31,3.76-.84,0-2.34-.16-2.34-.16v-10h1v3.4a5.75,5.75,0,0,1,2.06-.49C74,278.23,74.64,279.24,74.64,281.76Zm-1.07,0c0-1.8-.36-2.59-1.59-2.59a5.83,5.83,0,0,0-2,.41v4.93s.91.07,1.29.07C73.24,284.58,73.57,283.72,73.57,281.76Z" fill="#4c4c4c"/><path d="M76.44,275.32h1v10.06h-1Z" fill="#4c4c4c"/><path d="M84.76,284.47l0,.82a23.89,23.89,0,0,1-2.73.23c-2.09,0-2.78-1.22-2.78-3.6,0-2.66,1.15-3.69,2.93-3.69s2.81,1,2.81,3.28l0,.8H80.35c0,1.5.46,2.28,1.83,2.28C83.23,284.59,84.76,284.47,84.76,284.47Zm-.79-3c0-1.74-.53-2.35-1.76-2.35s-1.86.65-1.88,2.35Z" fill="#4c4c4c"/><path d="M95.78,285.22a14.59,14.59,0,0,1-2.68.3c-2.9,0-3.54-1.77-3.54-5s.63-5,3.54-5a14.78,14.78,0,0,1,2.68.31l0,.91a17.62,17.62,0,0,0-2.53-.25c-2.15,0-2.53,1.29-2.53,4.05s.35,4,2.56,4a16.15,16.15,0,0,0,2.5-.25Z" fill="#4c4c4c"/><path d="M103,281.79c0,2.55-.63,3.73-3,3.73s-3-1.18-3-3.73.78-3.56,3-3.56S103,279.38,103,281.79Zm-1.07,0c0-2-.42-2.65-1.92-2.65s-1.92.7-1.92,2.65.26,2.82,1.92,2.82S102,283.78,102,281.79Z" fill="#4c4c4c"/><path d="M104.83,275.32h1v10.06h-1Z" fill="#4c4c4c"/><path d="M108.07,275.32h1.05v10.06h-1.05Z" fill="#4c4c4c"/><path d="M116.38,284.47l0,.82a23.89,23.89,0,0,1-2.73.23c-2.09,0-2.77-1.22-2.77-3.6,0-2.66,1.15-3.69,2.92-3.69s2.82,1,2.82,3.28l-.06.8H112c0,1.5.46,2.28,1.84,2.28C114.86,284.59,116.38,284.47,116.38,284.47Zm-.78-3c0-1.74-.53-2.35-1.77-2.35s-1.86.65-1.87,2.35Z" fill="#4c4c4c"/><path d="M123.23,284.07c0,.41.36.56.81.62l0,.83a2.15,2.15,0,0,1-1.67-.56,7.16,7.16,0,0,1-2.52.56c-1.27,0-2-.73-2-2.15s.7-1.93,2.14-2.07l2.2-.21v-.6c0-1-.42-1.33-1.26-1.33s-2.65.18-2.65.18l0-.8a16.87,16.87,0,0,1,2.75-.31c1.58,0,2.25.73,2.25,2.26Zm-3.12-2c-.86.09-1.19.5-1.19,1.27s.35,1.28,1.06,1.28a7.46,7.46,0,0,0,2.2-.43v-2.31Z" fill="#4c4c4c"/><path d="M125,286.55c0-.81.38-1.19,1.11-1.73a1.16,1.16,0,0,1-.39-1,4.51,4.51,0,0,1,.47-1.11,2,2,0,0,1-1.11-2.11c0-1.72,1.07-2.4,2.62-2.4a7.25,7.25,0,0,1,1.46.18l2.07-.05v.9l-1.33,0a1.8,1.8,0,0,1,.47,1.4c0,1.82-.91,2.36-2.71,2.36a5.31,5.31,0,0,1-.68-.05,4.15,4.15,0,0,0-.26.8c0,.56.12.64,1.7.64,2,0,2.7.39,2.7,2.06s-1.13,2.23-3.11,2.23C125.79,288.67,125,288.18,125,286.55Zm1.82-1.31c-.59.43-.78.68-.78,1.23,0,1,.4,1.32,2,1.32,1.4,0,2-.38,2-1.31s-.45-1.17-1.73-1.17C127.83,285.31,126.81,285.24,126.81,285.24Zm2.5-4.61c0-1.11-.44-1.54-1.62-1.54s-1.56.43-1.56,1.54.47,1.53,1.56,1.53S129.31,281.74,129.31,280.63Z" fill="#4c4c4c"/><path d="M137.92,278.37v7h-1v-.49a4.79,4.79,0,0,1-2.08.63c-2,0-2.36-.91-2.36-3.49v-3.66h1V282c0,1.94.16,2.57,1.47,2.57a4.28,4.28,0,0,0,1.92-.52v-5.69Z" fill="#4c4c4c"/><path d="M145.1,284.47l0,.82a23.91,23.91,0,0,1-2.74.23c-2.08,0-2.77-1.22-2.77-3.6,0-2.66,1.15-3.69,2.93-3.69s2.81,1,2.81,3.28l-.05.8h-4.62c0,1.5.46,2.28,1.83,2.28C143.57,284.59,145.1,284.47,145.1,284.47Zm-.79-3c0-1.74-.53-2.35-1.76-2.35s-1.86.65-1.88,2.35Z" fill="#4c4c4c"/><path d="M151.65,279.4a22.22,22.22,0,0,0-2.45-.23c-.87,0-1.53.24-1.53,1.07,0,.65.34.84,1.82,1.09,1.75.29,2.41.64,2.41,2,0,1.64-1,2.19-2.72,2.19a19.53,19.53,0,0,1-2.46-.27l.05-.91a23.19,23.19,0,0,0,2.32.24c1.14,0,1.76-.25,1.76-1.21,0-.72-.36-.91-1.89-1.14s-2.34-.55-2.34-2,1.25-2,2.52-2a17.78,17.78,0,0,1,2.54.27Z" fill="#4c4c4c"/><path d="M30.78,25.63h2.78l3.92,11.7,3.92-11.7h2.78V39.48H42.64V27.27h-.28L38.34,39H36.62l-4-11.71h-.28V39.48H30.78Z"/><path d="M50.16,25.63h3.36l3.8,13.85H55.8l-1-3.57H48.88l-1,3.57H46.36Zm-.94,8.9h5.24L52.36,27h-1Z"/><path d="M59.5,25.63h2.88l5.3,12.48h.42V25.63h1.52V39.48H66.8L61.42,27H61V39.48H59.5Z"/><path d="M77.7,38.32c2.16,0,3.38-.85,3.38-3V25.63H82.6v9.64c0,3.16-1.74,4.4-4.9,4.4s-4.78-1.22-4.78-4.4V25.63h1.54v9.68C74.46,37.47,75.66,38.32,77.7,38.32Z"/><path d="M88.48,25.63h3.36l3.8,13.85H94.12l-1-3.57H87.2l-1,3.57H84.68Zm-.94,8.9h5.24L90.68,27h-1Z"/><path d="M97.82,39.48V25.63h1.54V38.09h6.08v1.39Z"/><path d="M120.16,39.25a20.83,20.83,0,0,1-3.82.42c-4.14,0-5.06-2.51-5.06-7.08s.9-7.16,5.06-7.16a20.32,20.32,0,0,1,3.82.44l-.06,1.3a24.64,24.64,0,0,0-3.6-.36c-3.08,0-3.62,1.84-3.62,5.78s.5,5.7,3.66,5.7a21.88,21.88,0,0,0,3.56-.36Z"/><path d="M131.26,33.21h-7v6.27h-1.54V25.63h1.54v6.2h7v-6.2h1.52V39.48h-1.52Z"/><path d="M136.18,25.63h8.42V27h-6.88v4.78h5.68v1.34h-5.68v5h6.88v1.37h-8.42Z"/><path d="M155.6,39.25a20.83,20.83,0,0,1-3.82.42c-4.14,0-5.06-2.51-5.06-7.08s.9-7.16,5.06-7.16a20.32,20.32,0,0,1,3.82.44l-.06,1.3a24.64,24.64,0,0,0-3.6-.36c-3.08,0-3.62,1.84-3.62,5.78s.5,5.7,3.66,5.7a21.88,21.88,0,0,0,3.56-.36Z"/><path d="M162,33.35l-2.3.08v6h-1.54V25.63h1.54v6.44l2.28-.08,3.54-6.36h1.76l-4,7,4.18,6.89h-1.82Z"/><path d="M35.23,399.44h9v1.25h-3.8V411.9H39.06V400.69H35.23Z" fill="#3a3d3f"/><path d="M53.07,407.29c0,3.28-.81,4.79-3.86,4.79s-3.85-1.51-3.85-4.79c0-3.09,1-4.57,3.85-4.57S53.07,404.2,53.07,407.29Zm-1.39,0c0-2.5-.54-3.4-2.47-3.4s-2.46.9-2.46,3.4.34,3.62,2.46,3.62S51.68,409.85,51.68,407.29Z" fill="#3a3d3f"/><path d="M62.17,411.9H60.84v-.61a6.42,6.42,0,0,1-2.73.79c-1.77,0-3.25-.72-3.25-4.61,0-3.17,1-4.75,3.77-4.75a15.79,15.79,0,0,1,2.21.23v-4h1.33Zm-1.33-1.69v-6.1a14.27,14.27,0,0,0-2.14-.22c-1.89,0-2.45,1.24-2.45,3.58,0,2.92,1,3.41,2,3.41A6.47,6.47,0,0,0,60.84,410.21Z" fill="#3a3d3f"/><path d="M71.14,410.23c0,.52.47.72,1,.79l-.05,1.06a2.74,2.74,0,0,1-2.14-.72,9.22,9.22,0,0,1-3.25.72c-1.63,0-2.53-.93-2.53-2.75s.9-2.49,2.75-2.67l2.83-.27v-.77c0-1.26-.54-1.71-1.62-1.71-1.26,0-3.41.23-3.41.23l-.05-1a21.6,21.6,0,0,1,3.53-.4c2,0,2.9.94,2.9,2.9Zm-4-2.56c-1.1.11-1.53.63-1.53,1.62S66,411,67,411a9.57,9.57,0,0,0,2.83-.56v-3Z" fill="#3a3d3f"/><path d="M74.3,402.9l2.25,7.83h.6l2.27-7.83h1.35L77,415.9H75.67l1.17-4H75.51l-2.56-9Z" fill="#3a3d3f"/><path d="M93.75,400v1.26H88l-.33,3.87a6.87,6.87,0,0,1,2.79-.74c2.33,0,3.78,1,3.78,3.51,0,2.74-1.49,4.15-4,4.15a19.39,19.39,0,0,1-3.94-.53l.16-1.1a23.49,23.49,0,0,0,3.66.4A2.5,2.5,0,0,0,92.79,408c0-1.8-1-2.37-2.52-2.37a6.89,6.89,0,0,0-2.83.71l-1-.17.32-6.18Z" fill="#3a3d3f"/><path d="M106.31,403l-.06,1.1s-1.44-.16-2.12-.16c-2.07,0-2.63.9-2.63,3.31,0,2.66.42,3.64,2.65,3.64.68,0,2.12-.17,2.12-.17l.06,1.12a24.24,24.24,0,0,1-2.51.25c-2.86,0-3.71-1.31-3.71-4.84,0-3.26,1.07-4.52,3.75-4.52A20.89,20.89,0,0,1,106.31,403Z" fill="#3a3d3f"/><path d="M115.65,407.29c0,3.28-.81,4.79-3.85,4.79s-3.86-1.51-3.86-4.79c0-3.09,1-4.57,3.86-4.57S115.65,404.2,115.65,407.29Zm-1.39,0c0-2.5-.54-3.4-2.46-3.4s-2.47.9-2.47,3.4.34,3.62,2.47,3.62S114.26,409.85,114.26,407.29Z" fill="#3a3d3f"/><path d="M118,399h1.35V411.9H118Z" fill="#3a3d3f"/><path d="M122.11,399h1.35V411.9h-1.35Z" fill="#3a3d3f"/><path d="M132.81,410.73l0,1.06a31.12,31.12,0,0,1-3.51.29c-2.68,0-3.56-1.56-3.56-4.62,0-3.43,1.47-4.74,3.76-4.74s3.62,1.26,3.62,4.21l-.08,1h-5.94c0,1.93.6,2.93,2.36,2.93C130.84,410.89,132.81,410.73,132.81,410.73Zm-1-3.85c0-2.23-.69-3-2.27-3s-2.4.85-2.41,3Z" fill="#3a3d3f"/><path d="M141.61,410.23c0,.52.46.72,1,.79l-.05,1.06a2.76,2.76,0,0,1-2.15-.72,9.2,9.2,0,0,1-3.24.72c-1.64,0-2.54-.93-2.54-2.75s.9-2.49,2.76-2.67l2.83-.27v-.77c0-1.26-.54-1.71-1.62-1.71-1.26,0-3.41.23-3.41.23l0-1a21.6,21.6,0,0,1,3.53-.4c2,0,2.9.94,2.9,2.9Zm-4-2.56c-1.1.11-1.53.63-1.53,1.62s.45,1.66,1.37,1.66a9.57,9.57,0,0,0,2.83-.56v-3Z" fill="#3a3d3f"/><path d="M143.87,413.41c0-1,.49-1.53,1.42-2.23a1.46,1.46,0,0,1-.5-1.24,5.82,5.82,0,0,1,.61-1.42c-.75-.34-1.42-1.06-1.42-2.72,0-2.22,1.37-3.08,3.37-3.08a9.43,9.43,0,0,1,1.87.23l2.67-.07V404l-1.72,0a2.3,2.3,0,0,1,.6,1.8c0,2.34-1.17,3-3.48,3a6.79,6.79,0,0,1-.88-.07,5.32,5.32,0,0,0-.32,1c0,.72.14.82,2.18.82,2.55,0,3.47.51,3.47,2.65s-1.46,2.86-4,2.86C144.9,416.13,143.87,415.5,143.87,413.41Zm2.34-1.69c-.75.56-1,.88-1,1.59,0,1.24.53,1.69,2.56,1.69,1.8,0,2.61-.49,2.61-1.67,0-1.37-.57-1.52-2.21-1.52C147.53,411.81,146.21,411.72,146.21,411.72Zm3.21-5.92c0-1.42-.56-2-2.07-2s-2,.56-2,2,.61,2,2,2S149.42,407.22,149.42,405.8Z" fill="#3a3d3f"/><path d="M160.49,402.9v9h-1.35v-.63a6.08,6.08,0,0,1-2.67.81c-2.52,0-3-1.17-3-4.48v-4.7h1.35v4.68c0,2.49.22,3.3,1.89,3.3a5.47,5.47,0,0,0,2.47-.67V402.9Z" fill="#3a3d3f"/><path d="M169.72,410.73l0,1.06a31.12,31.12,0,0,1-3.51.29c-2.69,0-3.57-1.56-3.57-4.62,0-3.43,1.48-4.74,3.76-4.74s3.62,1.26,3.62,4.21l-.07,1h-5.94c0,1.93.6,2.93,2.36,2.93C167.76,410.89,169.72,410.73,169.72,410.73Zm-1-3.85c0-2.23-.68-3-2.27-3s-2.39.85-2.41,3Z" fill="#3a3d3f"/><path d="M178.15,404.21a30.34,30.34,0,0,0-3.16-.28c-1.11,0-2,.3-2,1.36,0,.85.43,1.08,2.34,1.41,2.25.38,3.1.83,3.1,2.57,0,2.11-1.33,2.81-3.49,2.81a25.4,25.4,0,0,1-3.17-.34l.07-1.17a29.5,29.5,0,0,0,3,.31c1.48,0,2.27-.33,2.27-1.55,0-.94-.47-1.17-2.43-1.48s-3-.7-3-2.5c0-2,1.6-2.63,3.24-2.63a23.19,23.19,0,0,1,3.26.34Z" fill="#3a3d3f"/><path d="M190.85,410.23c0,.52.47.72,1.05.79l-.06,1.06a2.75,2.75,0,0,1-2.14-.72,9.2,9.2,0,0,1-3.24.72c-1.64,0-2.54-.93-2.54-2.75s.9-2.49,2.76-2.67l2.82-.27v-.77c0-1.26-.54-1.71-1.62-1.71-1.26,0-3.4.23-3.4.23l0-1a21.6,21.6,0,0,1,3.53-.4c2,0,2.89.94,2.89,2.9Zm-4-2.56c-1.1.11-1.53.63-1.53,1.62s.45,1.66,1.37,1.66a9.47,9.47,0,0,0,2.82-.56v-3Z" fill="#3a3d3f"/><path d="M193.52,402.9h1.33v1.22a10.06,10.06,0,0,1,3.29-1.42v1.37a13,13,0,0,0-3.27,1.22v6.61h-1.35Z" fill="#3a3d3f"/><path d="M206.39,410.73l0,1.06a31.12,31.12,0,0,1-3.51.29c-2.68,0-3.56-1.56-3.56-4.62,0-3.43,1.47-4.74,3.76-4.74s3.62,1.26,3.62,4.21l-.07,1h-5.94c0,1.93.59,2.93,2.35,2.93C204.42,410.89,206.39,410.73,206.39,410.73Zm-1-3.85c0-2.23-.69-3-2.27-3s-2.39.85-2.41,3Z" fill="#3a3d3f"/><path d="M219.15,410.23c0,.52.47.72,1,.79l-.05,1.06a2.75,2.75,0,0,1-2.14-.72,9.2,9.2,0,0,1-3.24.72c-1.64,0-2.54-.93-2.54-2.75s.9-2.49,2.75-2.67l2.83-.27v-.77c0-1.26-.54-1.71-1.62-1.71-1.26,0-3.41.23-3.41.23l-.05-1a21.6,21.6,0,0,1,3.53-.4c2,0,2.9.94,2.9,2.9Zm-4-2.56c-1.09.11-1.53.63-1.53,1.62S214.05,411,215,411a9.57,9.57,0,0,0,2.83-.56v-3Z" fill="#3a3d3f"/><path d="M222.4,402.9l2.11,7.83h.67l2.18-7.83h1.38l-2.54,9h-2.7l-2.54-9Z" fill="#3a3d3f"/><path d="M236.82,410.23c0,.52.47.72,1.05.79l-.06,1.06a2.75,2.75,0,0,1-2.14-.72,9.2,9.2,0,0,1-3.24.72c-1.64,0-2.54-.93-2.54-2.75s.9-2.49,2.76-2.67l2.82-.27v-.77c0-1.26-.54-1.71-1.62-1.71-1.26,0-3.4.23-3.4.23l0-1a21.6,21.6,0,0,1,3.53-.4c2,0,2.89.94,2.89,2.9Zm-4-2.56c-1.1.11-1.53.63-1.53,1.62s.45,1.66,1.37,1.66a9.47,9.47,0,0,0,2.82-.56v-3Z" fill="#3a3d3f"/><path d="M239.49,399.3h1.35v1.57h-1.35Zm0,3.6h1.35v9h-1.35Z" fill="#3a3d3f"/><path d="M243.54,399h1.35V411.9h-1.35Z" fill="#3a3d3f"/><path d="M253.94,410.23c0,.52.47.72,1.05.79l-.06,1.06a2.75,2.75,0,0,1-2.14-.72,9.2,9.2,0,0,1-3.24.72c-1.64,0-2.54-.93-2.54-2.75s.9-2.49,2.75-2.67l2.83-.27v-.77c0-1.26-.54-1.71-1.62-1.71-1.26,0-3.4.23-3.4.23l-.06-1a21.6,21.6,0,0,1,3.53-.4c2,0,2.9.94,2.9,2.9Zm-4-2.56c-1.1.11-1.53.63-1.53,1.62s.45,1.66,1.36,1.66a9.48,9.48,0,0,0,2.83-.56v-3Z" fill="#3a3d3f"/><path d="M263.86,407.26c0,3.58-1,4.82-4.25,4.82-1.08,0-3-.2-3-.2V399h1.34v4.37a7.36,7.36,0,0,1,2.64-.63C263,402.72,263.86,404,263.86,407.26Zm-1.37,0c0-2.33-.47-3.33-2.05-3.33a7.57,7.57,0,0,0-2.5.52v6.34s1.17.09,1.65.09C262.06,410.88,262.49,409.78,262.49,407.26Z" fill="#3a3d3f"/><path d="M266.18,399h1.35V411.9h-1.35Z" fill="#3a3d3f"/><path d="M276.87,410.73l0,1.06a31.12,31.12,0,0,1-3.51.29c-2.68,0-3.57-1.56-3.57-4.62,0-3.43,1.48-4.74,3.77-4.74s3.62,1.26,3.62,4.21l-.08,1H271.2c0,1.93.6,2.93,2.36,2.93C274.91,410.89,276.87,410.73,276.87,410.73Zm-1-3.85c0-2.23-.68-3-2.26-3s-2.4.85-2.42,3Z" fill="#3a3d3f"/><path d="M285,411.9h-1.35v-7.83h-1.14V402.9h1.14v-.81c0-2.59.66-3.3,2.43-3.3.61,0,1.82.13,1.82.13l0,1.12s-1,0-1.55,0c-1,0-1.33.43-1.33,2.11v.79h2.61v1.17H285Z" fill="#3a3d3f"/><path d="M296.55,407.29c0,3.28-.81,4.79-3.86,4.79s-3.85-1.51-3.85-4.79c0-3.09,1-4.57,3.85-4.57S296.55,404.2,296.55,407.29Zm-1.39,0c0-2.5-.54-3.4-2.47-3.4s-2.46.9-2.46,3.4.34,3.62,2.46,3.62S295.16,409.85,295.16,407.29Z" fill="#3a3d3f"/><path d="M298.74,402.9h1.33v1.22a10.17,10.17,0,0,1,3.3-1.42v1.37a13.15,13.15,0,0,0-3.28,1.22v6.61h-1.35Z" fill="#3a3d3f"/><path d="M308.93,411.9v-9h1.33v.63a6,6,0,0,1,2.63-.81,2.53,2.53,0,0,1,2.34.92,7.47,7.47,0,0,1,3.21-.92c2.44,0,3,1.17,3,4.43v4.75h-1.35v-4.71c0-2.38-.27-3.26-1.89-3.26a6,6,0,0,0-2.54.66,10.4,10.4,0,0,1,.23,2.63v4.68h-1.35v-4.64c0-2.49-.25-3.33-1.89-3.33a5.39,5.39,0,0,0-2.41.66v7.31Z" fill="#3a3d3f"/><path d="M330.33,410.23c0,.52.47.72,1.05.79l-.06,1.06a2.75,2.75,0,0,1-2.14-.72,9.2,9.2,0,0,1-3.24.72c-1.64,0-2.54-.93-2.54-2.75s.9-2.49,2.75-2.67l2.83-.27v-.77c0-1.26-.54-1.71-1.62-1.71-1.26,0-3.4.23-3.4.23l-.06-1a21.77,21.77,0,0,1,3.53-.4c2,0,2.9.94,2.9,2.9Zm-4-2.56c-1.1.11-1.53.63-1.53,1.62s.45,1.66,1.36,1.66a9.48,9.48,0,0,0,2.83-.56v-3Z" fill="#3a3d3f"/><path d="M333,411.9v-9h1.34v.63a6.79,6.79,0,0,1,2.79-.81c2.48,0,3,1.22,3,4.43v4.75h-1.33v-4.71c0-2.38-.27-3.26-1.95-3.26a6.25,6.25,0,0,0-2.54.66v7.31Z" fill="#3a3d3f"/><path d="M349.63,402.9v9h-1.35v-.63a6.08,6.08,0,0,1-2.67.81c-2.52,0-3-1.17-3-4.48v-4.7h1.35v4.68c0,2.49.22,3.3,1.89,3.3a5.47,5.47,0,0,0,2.47-.67V402.9Z" fill="#3a3d3f"/><path d="M358.57,410.23c0,.52.47.72,1.05.79l-.06,1.06a2.75,2.75,0,0,1-2.14-.72,9.2,9.2,0,0,1-3.24.72c-1.64,0-2.54-.93-2.54-2.75s.9-2.49,2.76-2.67l2.82-.27v-.77c0-1.26-.54-1.71-1.62-1.71-1.26,0-3.4.23-3.4.23l-.05-1a21.57,21.57,0,0,1,3.52-.4c2,0,2.9.94,2.9,2.9Zm-4-2.56c-1.1.11-1.53.63-1.53,1.62s.45,1.66,1.37,1.66a9.47,9.47,0,0,0,2.82-.56v-3Z" fill="#3a3d3f"/><path d="M361.34,399h1.35V411.9h-1.35Z" fill="#3a3d3f"/><path d="M375.17,403l-.05,1.1s-1.45-.16-2.13-.16c-2.07,0-2.63.9-2.63,3.31,0,2.66.42,3.64,2.65,3.64.68,0,2.12-.17,2.12-.17l.06,1.12a24.24,24.24,0,0,1-2.51.25c-2.86,0-3.7-1.31-3.7-4.84,0-3.26,1.06-4.52,3.74-4.52A20.89,20.89,0,0,1,375.17,403Z" fill="#3a3d3f"/><path d="M377.2,411.9V399h1.35v4.42a7.64,7.64,0,0,1,2.77-.68c2.47,0,3.05,1.22,3.05,4.43v4.75H383v-4.71c0-2.38-.27-3.26-1.93-3.26a7.41,7.41,0,0,0-2.54.54v7.43Z" fill="#3a3d3f"/><path d="M393.51,410.73l0,1.06a31.38,31.38,0,0,1-3.51.29c-2.69,0-3.57-1.56-3.57-4.62,0-3.43,1.48-4.74,3.76-4.74s3.62,1.26,3.62,4.21l-.07,1h-5.94c0,1.93.59,2.93,2.36,2.93C391.55,410.89,393.51,410.73,393.51,410.73Zm-1-3.85c0-2.23-.68-3-2.27-3s-2.39.85-2.41,3Z" fill="#3a3d3f"/><path d="M401.77,403l0,1.1s-1.44-.16-2.13-.16c-2.07,0-2.62.9-2.62,3.31,0,2.66.41,3.64,2.64,3.64.69,0,2.13-.17,2.13-.17l.05,1.12a24,24,0,0,1-2.5.25c-2.86,0-3.71-1.31-3.71-4.84,0-3.26,1.06-4.52,3.74-4.52A20.89,20.89,0,0,1,401.77,403Z" fill="#3a3d3f"/><path d="M403.81,411.9V399h1.34v7.63l1.41-.07,2.57-3.64h1.53L407.73,407l3.06,4.86h-1.53l-2.68-4.17-1.43,0v4.12Z" fill="#3a3d3f"/><path d="M418.19,404.07v4.3c0,2,.12,2.52,1.29,2.52.51,0,1.61-.1,1.61-.1l.09,1.11a15.71,15.71,0,0,1-1.84.2c-1.86,0-2.48-.7-2.48-3.29v-4.74h-1.28V402.9h1.28v-2.75h1.33v2.75h2.86v1.17Z" fill="#3a3d3f"/><path d="M429.06,410.23c0,.52.47.72,1.05.79l-.06,1.06a2.75,2.75,0,0,1-2.14-.72,9.2,9.2,0,0,1-3.24.72c-1.64,0-2.54-.93-2.54-2.75s.9-2.49,2.75-2.67l2.83-.27v-.77c0-1.26-.54-1.71-1.62-1.71-1.26,0-3.4.23-3.4.23l-.06-1a21.6,21.6,0,0,1,3.53-.4c2,0,2.9.94,2.9,2.9Zm-4-2.56c-1.1.11-1.53.63-1.53,1.62S424,411,424.88,411a9.48,9.48,0,0,0,2.83-.56v-3Z" fill="#3a3d3f"/><path d="M437.7,404.21a30.35,30.35,0,0,0-3.15-.28c-1.12,0-2,.3-2,1.36,0,.85.43,1.08,2.34,1.41,2.25.38,3.09.83,3.09,2.57,0,2.11-1.33,2.81-3.49,2.81a25.65,25.65,0,0,1-3.17-.34l.07-1.17a29.8,29.8,0,0,0,3,.31c1.47,0,2.26-.33,2.26-1.55,0-.94-.46-1.17-2.43-1.48s-3-.7-3-2.5c0-2,1.6-2.63,3.24-2.63a23.19,23.19,0,0,1,3.26.34Z" fill="#3a3d3f"/><path d="M440.09,411.9V399h1.35v7.63l1.41-.07,2.57-3.64H447L444,407l3.06,4.86h-1.53l-2.68-4.17-1.43,0v4.12Z" fill="#3a3d3f"/><path d="M448.62,409.85h1.48v2h-1.48Z" fill="#3a3d3f"/><path d="M455.5,399.44h9v1.25h-3.8V411.9h-1.36V400.69H455.5Z" fill="#3a3d3f"/><path d="M466,411.9V399h1.35v4.42a7.64,7.64,0,0,1,2.77-.68c2.47,0,3.05,1.22,3.05,4.43v4.75h-1.35v-4.71c0-2.38-.27-3.26-1.93-3.26a7.41,7.41,0,0,0-2.54.54v7.43Z" fill="#3a3d3f"/><path d="M475.7,399.3h1.35v1.57H475.7Zm0,3.6h1.35v9H475.7Z" fill="#3a3d3f"/><path d="M485.62,404.21a30.35,30.35,0,0,0-3.15-.28c-1.12,0-2,.3-2,1.36,0,.85.44,1.08,2.34,1.41,2.25.38,3.1.83,3.1,2.57,0,2.11-1.33,2.81-3.49,2.81a25.65,25.65,0,0,1-3.17-.34l.07-1.17a29.5,29.5,0,0,0,3,.31c1.48,0,2.27-.33,2.27-1.55,0-.94-.47-1.17-2.43-1.48s-3-.7-3-2.5c0-2,1.61-2.63,3.24-2.63a23.19,23.19,0,0,1,3.26.34Z" fill="#3a3d3f"/><path d="M43.6,435.29c0,3.28-.81,4.79-3.85,4.79s-3.86-1.51-3.86-4.79c0-3.09,1-4.57,3.86-4.57S43.6,432.2,43.6,435.29Zm-1.39,0c0-2.5-.54-3.4-2.46-3.4s-2.47.9-2.47,3.4.34,3.62,2.47,3.62S42.21,437.85,42.21,435.29Z" fill="#3a3d3f"/><path d="M45.79,430.9h1.34v.65a6.07,6.07,0,0,1,2.7-.83c2.27,0,3.26,1.39,3.26,4.57,0,3.53-1.16,4.79-3.93,4.79a11.14,11.14,0,0,1-2-.2v4H45.79Zm1.35,1.75v6.06a13,13,0,0,0,2,.2c2,0,2.63-1,2.63-3.62s-.78-3.36-2.09-3.36A5.87,5.87,0,0,0,47.14,432.65Z" fill="#3a3d3f"/><path d="M61.92,438.73l0,1.06a31.12,31.12,0,0,1-3.51.29c-2.68,0-3.57-1.56-3.57-4.62,0-3.43,1.48-4.74,3.77-4.74s3.62,1.26,3.62,4.21l-.08,1H56.25c0,1.93.6,2.93,2.36,2.93C60,438.89,61.92,438.73,61.92,438.73Zm-1-3.85c0-2.23-.68-3-2.26-3s-2.4.85-2.42,3Z" fill="#3a3d3f"/><path d="M64.37,430.9H65.7v1.22A10.17,10.17,0,0,1,69,430.7v1.37a13,13,0,0,0-3.28,1.22v6.61H64.37Z" fill="#3a3d3f"/><path d="M77,438.23c0,.52.47.72,1,.79l-.06,1.06a2.75,2.75,0,0,1-2.14-.72,9.2,9.2,0,0,1-3.24.72c-1.64,0-2.54-.93-2.54-2.75s.9-2.49,2.75-2.67l2.83-.27v-.77c0-1.26-.54-1.71-1.62-1.71-1.26,0-3.4.23-3.4.23l-.06-1a21.77,21.77,0,0,1,3.53-.4c2,0,2.9.94,2.9,2.9Zm-4-2.56c-1.1.11-1.53.63-1.53,1.62s.45,1.66,1.36,1.66a9.48,9.48,0,0,0,2.83-.56v-3Z" fill="#3a3d3f"/><path d="M81.41,432.07v4.3c0,2,.13,2.52,1.3,2.52.51,0,1.6-.1,1.6-.1l.09,1.11a15.44,15.44,0,0,1-1.83.2c-1.86,0-2.49-.7-2.49-3.29v-4.74H78.8V430.9h1.28v-2.75h1.33v2.75h2.87v1.17Z" fill="#3a3d3f"/><path d="M85.93,427.3h1.35v1.57H85.93Zm0,3.6h1.35v9H85.93Z" fill="#3a3d3f"/><path d="M97.19,435.29c0,3.28-.82,4.79-3.86,4.79s-3.85-1.51-3.85-4.79c0-3.09,1-4.57,3.85-4.57S97.19,432.2,97.19,435.29Zm-1.39,0c0-2.5-.54-3.4-2.47-3.4s-2.46.9-2.46,3.4.34,3.62,2.46,3.62S95.8,437.85,95.8,435.29Z" fill="#3a3d3f"/><path d="M99.38,439.9v-9h1.33v.63a6.85,6.85,0,0,1,2.79-.81c2.49,0,3,1.22,3,4.43v4.75h-1.34v-4.71c0-2.38-.27-3.26-1.94-3.26a6.19,6.19,0,0,0-2.54.66v7.31Z" fill="#3a3d3f"/><path d="M118.82,431l0,1.1s-1.44-.16-2.13-.16c-2.07,0-2.63.9-2.63,3.31,0,2.66.42,3.64,2.65,3.64.68,0,2.12-.17,2.12-.17l.06,1.12a24.28,24.28,0,0,1-2.5.25c-2.87,0-3.71-1.31-3.71-4.84,0-3.26,1.06-4.52,3.74-4.52A20.89,20.89,0,0,1,118.82,431Z" fill="#3a3d3f"/><path d="M127.21,438.23c0,.52.47.72,1,.79l-.05,1.06a2.74,2.74,0,0,1-2.14-.72,9.22,9.22,0,0,1-3.25.72c-1.63,0-2.53-.93-2.53-2.75s.9-2.49,2.75-2.67l2.83-.27v-.77c0-1.26-.54-1.71-1.62-1.71-1.26,0-3.41.23-3.41.23l0-1a21.6,21.6,0,0,1,3.53-.4c2,0,2.9.94,2.9,2.9Zm-4-2.56c-1.09.11-1.53.63-1.53,1.62S122.11,439,123,439a9.57,9.57,0,0,0,2.83-.56v-3Z" fill="#3a3d3f"/><path d="M129.87,439.9v-9h1.33v.63a6.85,6.85,0,0,1,2.79-.81c2.49,0,3,1.22,3,4.43v4.75H135.7v-4.71c0-2.38-.27-3.26-1.94-3.26a6.19,6.19,0,0,0-2.54.66v7.31Z" fill="#3a3d3f"/><path d="M149.47,432.21a30,30,0,0,0-3.15-.28c-1.11,0-2,.3-2,1.36,0,.85.43,1.08,2.34,1.41,2.25.38,3.1.83,3.1,2.57,0,2.11-1.33,2.81-3.49,2.81a25.4,25.4,0,0,1-3.17-.34l.07-1.17a29.5,29.5,0,0,0,3,.31c1.48,0,2.27-.33,2.27-1.55,0-.94-.47-1.17-2.43-1.48s-3-.7-3-2.5c0-2,1.6-2.63,3.24-2.63a23.19,23.19,0,0,1,3.26.34Z" fill="#3a3d3f"/><path d="M157.68,431l-.05,1.1s-1.44-.16-2.13-.16c-2.07,0-2.63.9-2.63,3.31,0,2.66.42,3.64,2.65,3.64.69,0,2.13-.17,2.13-.17l0,1.12a24,24,0,0,1-2.5.25c-2.87,0-3.71-1.31-3.71-4.84,0-3.26,1.06-4.52,3.74-4.52A20.89,20.89,0,0,1,157.68,431Z" fill="#3a3d3f"/><path d="M166.07,438.23c0,.52.47.72,1,.79l-.05,1.06a2.75,2.75,0,0,1-2.14-.72,9.2,9.2,0,0,1-3.24.72c-1.64,0-2.54-.93-2.54-2.75s.9-2.49,2.75-2.67l2.83-.27v-.77c0-1.26-.54-1.71-1.62-1.71-1.26,0-3.4.23-3.4.23l-.06-1a21.6,21.6,0,0,1,3.53-.4c2,0,2.9.94,2.9,2.9Zm-4-2.56c-1.09.11-1.53.63-1.53,1.62S161,439,161.89,439a9.48,9.48,0,0,0,2.83-.56v-3Z" fill="#3a3d3f"/><path d="M168.73,439.9v-9h1.33v.63a6.86,6.86,0,0,1,2.8-.81c2.48,0,3,1.22,3,4.43v4.75h-1.34v-4.71c0-2.38-.26-3.26-1.94-3.26a6.19,6.19,0,0,0-2.54.66v7.31Z" fill="#3a3d3f"/><path d="M189.33,430.9v9H188v-.63a6.14,6.14,0,0,1-2.67.81c-2.52,0-3-1.17-3-4.48v-4.7h1.35v4.68c0,2.49.21,3.3,1.89,3.3a5.47,5.47,0,0,0,2.47-.67V430.9Z" fill="#3a3d3f"/><path d="M191.91,430.9h1.34v.65a6.12,6.12,0,0,1,2.7-.83c2.27,0,3.26,1.39,3.26,4.57,0,3.53-1.15,4.79-3.93,4.79a11,11,0,0,1-2-.2v4h-1.36Zm1.36,1.75v6.06a12.78,12.78,0,0,0,1.94.2c2,0,2.63-1,2.63-3.62s-.78-3.36-2.09-3.36A5.86,5.86,0,0,0,193.27,432.65Z" fill="#3a3d3f"/><path d="M207.16,432.07v4.3c0,2,.13,2.52,1.3,2.52.5,0,1.6-.1,1.6-.1l.09,1.11a15.71,15.71,0,0,1-1.84.2c-1.85,0-2.48-.7-2.48-3.29v-4.74h-1.28V430.9h1.28v-2.75h1.33v2.75H210v1.17Z" fill="#3a3d3f"/><path d="M219,435.29c0,3.28-.81,4.79-3.85,4.79s-3.86-1.51-3.86-4.79c0-3.09,1-4.57,3.86-4.57S219,432.2,219,435.29Zm-1.39,0c0-2.5-.54-3.4-2.46-3.4s-2.47.9-2.47,3.4.34,3.62,2.47,3.62S217.6,437.85,217.6,435.29Z" fill="#3a3d3f"/><path d="M229.56,428h1.29V439.9h-1.38V429.57l-3.07,2-.63-1Z" fill="#3a3d3f"/><path d="M243.29,434.14c0,4.56-1.6,5.94-4.32,5.94s-4.34-1.35-4.34-5.92c0-4.9,1.58-6.34,4.32-6.34S243.29,429.24,243.29,434.14Zm-7.22,0c0,3.73,1,4.7,2.9,4.7s2.9-1,2.9-4.72c0-4-.92-5.08-2.9-5.08S236.07,430.11,236.07,434.16Z" fill="#3a3d3f"/><path d="M253.37,434.14c0,4.56-1.6,5.94-4.32,5.94s-4.34-1.35-4.34-5.92c0-4.9,1.58-6.34,4.32-6.34S253.37,429.24,253.37,434.14Zm-7.22,0c0,3.73,1,4.7,2.9,4.7s2.9-1,2.9-4.72c0-4-.92-5.08-2.9-5.08S246.15,430.11,246.15,434.16Z" fill="#3a3d3f"/><path d="M266.6,435.26c0,3.58-1,4.82-4.25,4.82-1.08,0-3-.2-3-.2V427h1.34v4.37a7.36,7.36,0,0,1,2.64-.63C265.77,430.72,266.6,432,266.6,435.26Zm-1.37,0c0-2.33-.47-3.33-2.05-3.33a7.57,7.57,0,0,0-2.5.52v6.34s1.17.09,1.65.09C264.8,438.88,265.23,437.78,265.23,435.26Z" fill="#3a3d3f"/><path d="M275.17,438.23c0,.52.47.72,1,.79l0,1.06a2.74,2.74,0,0,1-2.14-.72,9.22,9.22,0,0,1-3.25.72c-1.63,0-2.54-.93-2.54-2.75s.91-2.49,2.76-2.67l2.83-.27v-.77c0-1.26-.54-1.71-1.62-1.71-1.26,0-3.41.23-3.41.23l-.05-1a21.6,21.6,0,0,1,3.53-.4c2,0,2.9.94,2.9,2.9Zm-4-2.56c-1.1.11-1.53.63-1.53,1.62S270.07,439,271,439a9.57,9.57,0,0,0,2.83-.56v-3Z" fill="#3a3d3f"/><path d="M277.43,441.41c0-1,.49-1.53,1.43-2.23a1.43,1.43,0,0,1-.51-1.24,5.82,5.82,0,0,1,.61-1.42c-.75-.34-1.42-1.06-1.42-2.72,0-2.22,1.37-3.08,3.37-3.08a9.43,9.43,0,0,1,1.87.23l2.67-.07V432l-1.72,0a2.3,2.3,0,0,1,.6,1.8c0,2.34-1.17,3-3.48,3a6.79,6.79,0,0,1-.88-.07,5.32,5.32,0,0,0-.32,1c0,.72.14.82,2.18.82,2.55,0,3.47.51,3.47,2.65s-1.46,2.86-4,2.86C278.46,444.13,277.43,443.5,277.43,441.41Zm2.34-1.69c-.75.56-1,.88-1,1.59,0,1.24.52,1.69,2.55,1.69,1.8,0,2.61-.49,2.61-1.67,0-1.37-.57-1.52-2.21-1.52C281.09,439.81,279.77,439.72,279.77,439.72ZM283,433.8c0-1.42-.56-2-2.07-2s-2,.56-2,2,.61,2,2,2S283,435.22,283,433.8Z" fill="#3a3d3f"/><path d="M293.06,432.21a30.35,30.35,0,0,0-3.15-.28c-1.12,0-2,.3-2,1.36,0,.85.43,1.08,2.34,1.41,2.25.38,3.09.83,3.09,2.57,0,2.11-1.33,2.81-3.49,2.81a25.65,25.65,0,0,1-3.17-.34l.07-1.17a29.86,29.86,0,0,0,3,.31c1.48,0,2.27-.33,2.27-1.55,0-.94-.47-1.17-2.43-1.48s-3-.7-3-2.5c0-2,1.6-2.63,3.24-2.63a23.19,23.19,0,0,1,3.26.34Z" fill="#3a3d3f"/><path d="M295.36,437.85h1.48v2h-1.48Z" fill="#3a3d3f"/><path d="M303.33,427.66h7.93v2.16h-5.44v2.86h4.36v2.13h-4.36v2.93h5.44v2.16h-7.93Z" fill="#3a3d3f"/><path d="M313.09,439.9v-9h2.39v.5a5.58,5.58,0,0,1,2.13-.72,2.84,2.84,0,0,1,2.25.85,8.12,8.12,0,0,1,3-.85c2.44,0,3.16,1.44,3.16,4.34v4.88h-2.41v-4.81c0-1.36-.18-2.25-1.26-2.25a6,6,0,0,0-1.67.35s.07,1.35.07,2.05v4.66h-2.41v-4.62c0-1.62-.15-2.44-1.26-2.44a4.93,4.93,0,0,0-1.61.33v6.73Z" fill="#3a3d3f"/><path d="M328.19,427.3h2.42v2.45h-2.42Zm0,3.6h2.42v9h-2.42Z" fill="#3a3d3f"/><path d="M332.94,427.3h2.42v12.6h-2.42Z" fill="#3a3d3f"/><path d="M337.69,427.3h2.42v2.45h-2.42Zm0,3.6h2.42v9h-2.42Z" fill="#3a3d3f"/><path d="M349.23,437.45c0,.54.11.76.6.85l-.07,1.82a4,4,0,0,1-2.58-.63,6.88,6.88,0,0,1-2.64.63c-1.89,0-2.8-1-2.8-2.95s1.17-2.61,3.16-2.76l1.92-.14v-.56c0-.78-.34-1-1.06-1-1.19,0-3.39.14-3.39.14l-.07-1.67a16.23,16.23,0,0,1,3.66-.53c2.34,0,3.27.92,3.27,3Zm-4.05-1.37c-.63.06-1,.37-1,1s.23,1.07.88,1.07a7.64,7.64,0,0,0,1.76-.29v-1.93Z" fill="#3a3d3f"/><path d="M362,438.23c0,.52.47.72,1.05.79l-.06,1.06a2.75,2.75,0,0,1-2.14-.72,9.2,9.2,0,0,1-3.24.72c-1.64,0-2.54-.93-2.54-2.75s.9-2.49,2.76-2.67l2.82-.27v-.77c0-1.26-.54-1.71-1.62-1.71-1.26,0-3.4.23-3.4.23l-.05-1a21.57,21.57,0,0,1,3.52-.4c2,0,2.9.94,2.9,2.9Zm-4-2.56c-1.1.11-1.53.63-1.53,1.62s.45,1.66,1.37,1.66a9.47,9.47,0,0,0,2.82-.56v-3Z" fill="#3a3d3f"/><path d="M364.69,439.9v-9H366v.63a6.79,6.79,0,0,1,2.79-.81c2.48,0,3,1.22,3,4.43v4.75h-1.33v-4.71c0-2.38-.27-3.26-1.95-3.26a6.25,6.25,0,0,0-2.54.66v7.31Z" fill="#3a3d3f"/><path d="M381.27,439.9h-1.33v-.61a6.42,6.42,0,0,1-2.73.79c-1.77,0-3.25-.72-3.25-4.61,0-3.17,1-4.75,3.77-4.75a15.79,15.79,0,0,1,2.21.23v-4h1.33Zm-1.33-1.69v-6.1a14.27,14.27,0,0,0-2.14-.22c-1.89,0-2.45,1.24-2.45,3.58,0,2.92,1,3.41,2,3.41A6.47,6.47,0,0,0,379.94,438.21Z" fill="#3a3d3f"/><path d="M387.88,427.66h4.23l2.16,8.93,2.16-8.93h4.23V439.9h-2.48v-9.47h-.27l-2.4,8.93H393l-2.4-8.93h-.27v9.47h-2.48Z" fill="#3a3d3f"/><path d="M410,437.45c0,.54.11.76.6.85l-.08,1.82a4,4,0,0,1-2.57-.63,7,7,0,0,1-2.65.63c-1.89,0-2.79-1-2.79-2.95s1.17-2.61,3.15-2.76l1.93-.14v-.56c0-.78-.34-1-1.06-1-1.19,0-3.39.14-3.39.14l-.07-1.67a16.21,16.21,0,0,1,3.65-.53c2.34,0,3.28.92,3.28,3ZM406,436.08c-.63.06-1,.37-1,1s.24,1.07.88,1.07a7.65,7.65,0,0,0,1.77-.29v-1.93Z" fill="#3a3d3f"/><path d="M412.3,430.9h2.4v1a10.87,10.87,0,0,1,2.88-1.17v2.43a22.37,22.37,0,0,0-2.86.76v6H412.3Z" fill="#3a3d3f"/><path d="M421.77,433v3.69c0,.9,0,1.32.76,1.32.5,0,1.37,0,1.37,0l.1,1.93a11.63,11.63,0,0,1-1.83.27c-2.18,0-2.81-.83-2.81-3.42V433H418.3V430.9h1.06v-2.5h2.41v2.5H424V433Z" fill="#3a3d3f"/><path d="M425.55,427.3H428v2.45h-2.41Zm0,3.6H428v9h-2.41Z" fill="#3a3d3f"/><path d="M430.19,439.9v-9h2.4v.5a5.42,5.42,0,0,1,2.25-.72c2.52,0,3.17,1.59,3.17,4.34v4.88H435.6v-4.81c0-1.36-.18-2.25-1.35-2.25a4.83,4.83,0,0,0-1.64.33v6.73Z" fill="#3a3d3f"/><path d="M42.27,460.21a30.35,30.35,0,0,0-3.15-.28c-1.12,0-2,.3-2,1.36,0,.85.44,1.08,2.34,1.41,2.25.38,3.1.83,3.1,2.57,0,2.11-1.33,2.81-3.49,2.81a25.65,25.65,0,0,1-3.17-.34l.07-1.17a29.5,29.5,0,0,0,3,.31c1.48,0,2.27-.33,2.27-1.55,0-.94-.47-1.17-2.43-1.48s-3-.7-3-2.5c0-2,1.61-2.63,3.24-2.63a23.19,23.19,0,0,1,3.26.34Z" fill="#3a3d3f"/><path d="M51.3,466.73l0,1.06a31.12,31.12,0,0,1-3.51.29c-2.68,0-3.57-1.56-3.57-4.62,0-3.43,1.48-4.74,3.77-4.74s3.62,1.26,3.62,4.21l-.08,1H45.63c0,1.93.6,2.93,2.36,2.93C49.34,466.89,51.3,466.73,51.3,466.73Zm-1-3.85c0-2.23-.68-3-2.26-3s-2.4.85-2.42,3Z" fill="#3a3d3f"/><path d="M60.39,466.73l0,1.06a31.12,31.12,0,0,1-3.51.29c-2.69,0-3.57-1.56-3.57-4.62,0-3.43,1.48-4.74,3.77-4.74s3.61,1.26,3.61,4.21l-.07,1H54.72c0,1.93.6,2.93,2.36,2.93C58.43,466.89,60.39,466.73,60.39,466.73Zm-1-3.85c0-2.23-.68-3-2.26-3s-2.4.85-2.42,3Z" fill="#3a3d3f"/><path d="M62.84,467.9v-9h1.33v.63a6,6,0,0,1,2.63-.81,2.53,2.53,0,0,1,2.34.92,7.47,7.47,0,0,1,3.21-.92c2.44,0,3,1.17,3,4.43v4.75H74v-4.71c0-2.38-.27-3.26-1.89-3.26a6,6,0,0,0-2.54.66,10.4,10.4,0,0,1,.23,2.63v4.68H68.49v-4.64c0-2.49-.25-3.33-1.89-3.33a5.39,5.39,0,0,0-2.41.66v7.31Z" fill="#3a3d3f"/><path d="M83.65,460.07v4.3c0,2,.12,2.52,1.29,2.52.51,0,1.61-.1,1.61-.1l.09,1.11a15.71,15.71,0,0,1-1.84.2c-1.86,0-2.49-.7-2.49-3.29v-4.74H81V458.9h1.27v-2.75h1.34v2.75h2.86v1.17Z" fill="#3a3d3f"/><path d="M95.48,463.29c0,3.28-.82,4.79-3.86,4.79s-3.85-1.51-3.85-4.79c0-3.09,1-4.57,3.85-4.57S95.48,460.2,95.48,463.29Zm-1.39,0c0-2.5-.54-3.4-2.47-3.4s-2.46.9-2.46,3.4.34,3.62,2.46,3.62S94.09,465.85,94.09,463.29Z" fill="#3a3d3f"/><path d="M101.63,467.9V455H103v4.42a7.64,7.64,0,0,1,2.77-.68c2.47,0,3,1.22,3,4.43v4.75h-1.36v-4.71c0-2.38-.27-3.26-1.92-3.26a7.41,7.41,0,0,0-2.54.54v7.43Z" fill="#3a3d3f"/><path d="M117.65,466.23c0,.52.47.72,1,.79l0,1.06a2.75,2.75,0,0,1-2.14-.72,9.2,9.2,0,0,1-3.24.72c-1.64,0-2.54-.93-2.54-2.75s.9-2.49,2.75-2.67l2.83-.27v-.77c0-1.26-.54-1.71-1.62-1.71-1.26,0-3.4.23-3.4.23l-.06-1a21.6,21.6,0,0,1,3.53-.4c2,0,2.9.94,2.9,2.9Zm-4-2.56c-1.1.11-1.53.63-1.53,1.62s.45,1.66,1.36,1.66a9.48,9.48,0,0,0,2.83-.56v-3Z" fill="#3a3d3f"/><path d="M120.91,458.9l2.1,7.83h.67l2.18-7.83h1.38l-2.53,9H122l-2.54-9Z" fill="#3a3d3f"/><path d="M135.61,466.73l0,1.06a31.12,31.12,0,0,1-3.51.29c-2.68,0-3.57-1.56-3.57-4.62,0-3.43,1.48-4.74,3.77-4.74S136,460,136,462.93l-.07,1h-5.95c0,1.93.6,2.93,2.36,2.93C133.65,466.89,135.61,466.73,135.61,466.73Zm-1-3.85c0-2.23-.69-3-2.27-3s-2.4.85-2.41,3Z" fill="#3a3d3f"/><path d="M143.82,460.07v4.3c0,2,.13,2.52,1.3,2.52.5,0,1.6-.1,1.6-.1l.09,1.11a15.71,15.71,0,0,1-1.84.2c-1.85,0-2.48-.7-2.48-3.29v-4.74h-1.28V458.9h1.28v-2.75h1.33v2.75h2.86v1.17Z" fill="#3a3d3f"/><path d="M148.34,467.9V455h1.35v4.42a7.64,7.64,0,0,1,2.77-.68c2.47,0,3,1.22,3,4.43v4.75h-1.36v-4.71c0-2.38-.27-3.26-1.92-3.26a7.41,7.41,0,0,0-2.54.54v7.43Z" fill="#3a3d3f"/><path d="M164.65,466.73l0,1.06a31.4,31.4,0,0,1-3.52.29c-2.68,0-3.56-1.56-3.56-4.62,0-3.43,1.48-4.74,3.76-4.74S165,460,165,462.93l-.07,1H159c0,1.93.59,2.93,2.36,2.93C162.69,466.89,164.65,466.73,164.65,466.73Zm-1-3.85c0-2.23-.68-3-2.27-3s-2.39.85-2.41,3Z" fill="#3a3d3f"/><path d="M171.06,467.9v-9h1.33v.63a6,6,0,0,1,2.63-.81,2.54,2.54,0,0,1,2.34.92,7.46,7.46,0,0,1,3.2-.92c2.45,0,3,1.17,3,4.43v4.75h-1.35v-4.71c0-2.38-.27-3.26-1.89-3.26a6,6,0,0,0-2.54.66,9.85,9.85,0,0,1,.24,2.63v4.68h-1.35v-4.64c0-2.49-.25-3.33-1.89-3.33a5.46,5.46,0,0,0-2.42.66v7.31Z" fill="#3a3d3f"/><path d="M193.41,463.29c0,3.28-.81,4.79-3.85,4.79s-3.85-1.51-3.85-4.79c0-3.09,1-4.57,3.85-4.57S193.41,460.2,193.41,463.29Zm-1.38,0c0-2.5-.54-3.4-2.47-3.4s-2.47.9-2.47,3.4.35,3.62,2.47,3.62S192,465.85,192,463.29Z" fill="#3a3d3f"/><path d="M201.58,460.21a30,30,0,0,0-3.15-.28c-1.11,0-2,.3-2,1.36,0,.85.43,1.08,2.34,1.41,2.25.38,3.1.83,3.1,2.57,0,2.11-1.33,2.81-3.49,2.81a25.4,25.4,0,0,1-3.17-.34l.07-1.17a29.5,29.5,0,0,0,3,.31c1.48,0,2.27-.33,2.27-1.55,0-.94-.47-1.17-2.43-1.48s-3-.7-3-2.5c0-2,1.6-2.63,3.24-2.63a23.19,23.19,0,0,1,3.26.34Z" fill="#3a3d3f"/><path d="M205.78,460.07v4.3c0,2,.12,2.52,1.29,2.52.51,0,1.61-.1,1.61-.1l.09,1.11a15.71,15.71,0,0,1-1.84.2c-1.86,0-2.49-.7-2.49-3.29v-4.74h-1.27V458.9h1.27v-2.75h1.34v2.75h2.86v1.17Z" fill="#3a3d3f"/><path d="M220.23,460.21a30.35,30.35,0,0,0-3.15-.28c-1.11,0-2,.3-2,1.36,0,.85.43,1.08,2.34,1.41,2.25.38,3.1.83,3.1,2.57,0,2.11-1.34,2.81-3.5,2.81a25.4,25.4,0,0,1-3.16-.34l.07-1.17a29.5,29.5,0,0,0,3,.31c1.47,0,2.27-.33,2.27-1.55,0-.94-.47-1.17-2.43-1.48s-3-.7-3-2.5c0-2,1.6-2.63,3.24-2.63a23.19,23.19,0,0,1,3.26.34Z" fill="#3a3d3f"/><path d="M229.59,458.9v9h-1.35v-.63a6.07,6.07,0,0,1-2.66.81c-2.52,0-3.05-1.17-3.05-4.48v-4.7h1.36v4.68c0,2.49.21,3.3,1.89,3.3a5.4,5.4,0,0,0,2.46-.67V458.9Z" fill="#3a3d3f"/><path d="M232.18,455.3h1.35v1.57h-1.35Zm0,3.6h1.35v9h-1.35Z" fill="#3a3d3f"/><path d="M237.93,460.07v4.3c0,2,.12,2.52,1.29,2.52.51,0,1.6-.1,1.6-.1l.09,1.11a15.44,15.44,0,0,1-1.83.2c-1.86,0-2.49-.7-2.49-3.29v-4.74h-1.28V458.9h1.28v-2.75h1.34v2.75h2.86v1.17Z" fill="#3a3d3f"/><path d="M248.8,466.23c0,.52.47.72,1,.79l-.05,1.06a2.75,2.75,0,0,1-2.14-.72,9.2,9.2,0,0,1-3.24.72c-1.64,0-2.54-.93-2.54-2.75s.9-2.49,2.75-2.67l2.83-.27v-.77c0-1.26-.54-1.71-1.62-1.71-1.26,0-3.4.23-3.4.23l-.06-1a21.6,21.6,0,0,1,3.53-.4c2,0,2.9.94,2.9,2.9Zm-4-2.56c-1.09.11-1.53.63-1.53,1.62s.45,1.66,1.37,1.66a9.57,9.57,0,0,0,2.83-.56v-3Z" fill="#3a3d3f"/><path d="M258.72,463.26c0,3.58-1,4.82-4.25,4.82-1.08,0-3-.2-3-.2V455h1.33v4.37a7.44,7.44,0,0,1,2.65-.63C257.89,458.72,258.72,460,258.72,463.26Zm-1.37,0c0-2.33-.47-3.33-2.05-3.33a7.59,7.59,0,0,0-2.51.52v6.34s1.17.09,1.66.09C256.92,466.88,257.35,465.78,257.35,463.26Z" fill="#3a3d3f"/><path d="M261,455h1.35V467.9H261Z" fill="#3a3d3f"/><path d="M271.73,466.73l0,1.06a31.38,31.38,0,0,1-3.51.29c-2.69,0-3.57-1.56-3.57-4.62,0-3.43,1.48-4.74,3.76-4.74s3.62,1.26,3.62,4.21l-.07,1h-5.94c0,1.93.59,2.93,2.36,2.93C269.77,466.89,271.73,466.73,271.73,466.73Zm-1-3.85c0-2.23-.68-3-2.27-3s-2.39.85-2.41,3Z" fill="#3a3d3f"/><path d="M278.14,458.9h1.33v.65a6.12,6.12,0,0,1,2.7-.83c2.27,0,3.26,1.39,3.26,4.57,0,3.53-1.15,4.79-3.93,4.79a11,11,0,0,1-2-.2v4h-1.35Zm1.35,1.75v6.06a12.78,12.78,0,0,0,1.94.2c2,0,2.63-1,2.63-3.62s-.77-3.36-2.09-3.36A5.86,5.86,0,0,0,279.49,460.65Z" fill="#3a3d3f"/><path d="M287.62,458.9H289v1.22a10.06,10.06,0,0,1,3.29-1.42v1.37a13.15,13.15,0,0,0-3.28,1.22v6.61h-1.35Z" fill="#3a3d3f"/><path d="M301.16,463.29c0,3.28-.81,4.79-3.85,4.79s-3.86-1.51-3.86-4.79c0-3.09,1-4.57,3.86-4.57S301.16,460.2,301.16,463.29Zm-1.39,0c0-2.5-.54-3.4-2.46-3.4s-2.47.9-2.47,3.4.34,3.62,2.47,3.62S299.77,465.85,299.77,463.29Z" fill="#3a3d3f"/><path d="M305.08,467.9h-1.35v-7.83H302.6V458.9h1.13v-.81c0-2.59.67-3.3,2.43-3.3.62,0,1.82.13,1.82.13l0,1.12s-1,0-1.54,0c-1,0-1.34.43-1.34,2.11v.79h2.61v1.17h-2.61Z" fill="#3a3d3f"/><path d="M309.31,455.3h1.35v1.57h-1.35Zm0,3.6h1.35v9h-1.35Z" fill="#3a3d3f"/><path d="M313.36,455h1.35V467.9h-1.35Z" fill="#3a3d3f"/><path d="M324.06,466.73l0,1.06a31.12,31.12,0,0,1-3.51.29c-2.68,0-3.56-1.56-3.56-4.62,0-3.43,1.47-4.74,3.76-4.74s3.62,1.26,3.62,4.21l-.07,1h-5.95c0,1.93.6,2.93,2.36,2.93C322.09,466.89,324.06,466.73,324.06,466.73Zm-1-3.85c0-2.23-.69-3-2.27-3s-2.4.85-2.41,3Z" fill="#3a3d3f"/><path d="M336.82,466.23c0,.52.47.72,1,.79l-.05,1.06a2.74,2.74,0,0,1-2.14-.72,9.22,9.22,0,0,1-3.25.72c-1.63,0-2.53-.93-2.53-2.75s.9-2.49,2.75-2.67l2.83-.27v-.77c0-1.26-.54-1.71-1.62-1.71-1.26,0-3.41.23-3.41.23l-.05-1a21.6,21.6,0,0,1,3.53-.4c2,0,2.9.94,2.9,2.9Zm-4-2.56c-1.1.11-1.53.63-1.53,1.62s.45,1.66,1.37,1.66a9.57,9.57,0,0,0,2.83-.56v-3Z" fill="#3a3d3f"/><path d="M339.48,467.9v-9h1.33v.63a6.85,6.85,0,0,1,2.79-.81c2.49,0,3,1.22,3,4.43v4.75h-1.34v-4.71c0-2.38-.27-3.26-1.94-3.26a6.19,6.19,0,0,0-2.54.66v7.31Z" fill="#3a3d3f"/><path d="M356.06,467.9h-1.33v-.61a6.49,6.49,0,0,1-2.74.79c-1.76,0-3.24-.72-3.24-4.61,0-3.17,1-4.75,3.76-4.75a15.79,15.79,0,0,1,2.22.23v-4h1.33Zm-1.33-1.69v-6.1a14.43,14.43,0,0,0-2.15-.22c-1.89,0-2.44,1.24-2.44,3.58,0,2.92.95,3.41,2,3.41A6.54,6.54,0,0,0,354.73,466.21Z" fill="#3a3d3f"/><path d="M368.61,460.21a30.34,30.34,0,0,0-3.16-.28c-1.11,0-2,.3-2,1.36,0,.85.43,1.08,2.34,1.41,2.25.38,3.1.83,3.1,2.57,0,2.11-1.33,2.81-3.49,2.81a25.4,25.4,0,0,1-3.17-.34l.07-1.17a29.5,29.5,0,0,0,3,.31c1.48,0,2.27-.33,2.27-1.55,0-.94-.47-1.17-2.43-1.48s-3-.7-3-2.5c0-2,1.6-2.63,3.24-2.63a23.19,23.19,0,0,1,3.26.34Z" fill="#3a3d3f"/><path d="M376.81,459l-.05,1.1s-1.44-.16-2.13-.16c-2.07,0-2.62.9-2.62,3.31,0,2.66.41,3.64,2.64,3.64.69,0,2.13-.17,2.13-.17l.05,1.12a24,24,0,0,1-2.5.25c-2.86,0-3.71-1.31-3.71-4.84,0-3.26,1.06-4.52,3.74-4.52A20.89,20.89,0,0,1,376.81,459Z" fill="#3a3d3f"/><path d="M378.84,467.9V455h1.35v4.42a7.72,7.72,0,0,1,2.78-.68c2.47,0,3,1.22,3,4.43v4.75h-1.35v-4.71c0-2.38-.27-3.26-1.93-3.26a7.48,7.48,0,0,0-2.54.54v7.43Z" fill="#3a3d3f"/><path d="M395.15,466.73l0,1.06a31.12,31.12,0,0,1-3.51.29c-2.68,0-3.57-1.56-3.57-4.62,0-3.43,1.48-4.74,3.77-4.74s3.62,1.26,3.62,4.21l-.08,1h-5.94c0,1.93.6,2.93,2.36,2.93C393.19,466.89,395.15,466.73,395.15,466.73Zm-1-3.85c0-2.23-.69-3-2.27-3s-2.4.85-2.41,3Z" fill="#3a3d3f"/><path d="M404.51,467.9h-1.33v-.61a6.42,6.42,0,0,1-2.73.79c-1.77,0-3.25-.72-3.25-4.61,0-3.17,1-4.75,3.77-4.75a15.79,15.79,0,0,1,2.21.23v-4h1.33Zm-1.33-1.69v-6.1a14.27,14.27,0,0,0-2.14-.22c-1.89,0-2.45,1.24-2.45,3.58,0,2.92,1,3.41,2,3.41A6.47,6.47,0,0,0,403.18,466.21Z" fill="#3a3d3f"/><path d="M414.09,458.9v9h-1.35v-.63a6.08,6.08,0,0,1-2.67.81c-2.52,0-3-1.17-3-4.48v-4.7h1.35v4.68c0,2.49.22,3.3,1.89,3.3a5.42,5.42,0,0,0,2.47-.67V458.9Z" fill="#3a3d3f"/><path d="M416.79,455h1.35V467.9h-1.35Z" fill="#3a3d3f"/><path d="M427.48,466.73l0,1.06a31.12,31.12,0,0,1-3.51.29c-2.69,0-3.57-1.56-3.57-4.62,0-3.43,1.48-4.74,3.76-4.74s3.62,1.26,3.62,4.21l-.07,1h-5.94c0,1.93.59,2.93,2.36,2.93C425.52,466.89,427.48,466.73,427.48,466.73Zm-1-3.85c0-2.23-.68-3-2.27-3s-2.39.85-2.41,3Z" fill="#3a3d3f"/><path d="M429.84,465.85h1.47v2h-1.47Z" fill="#3a3d3f"/><line x1="31.74" y1="47.79" x2="531.34" y2="47.79" fill="none" stroke="#ddd" stroke-miterlimit="10"/><path d="M67.51,237.75H63.59V237l2.3-5.77h1l-2.34,5.67h2.93V234.4h.94v2.52h1v.83h-1v1.58h-.94Z" fill="#4c4c4c"/><path d="M49.1,218.91C49.1,222,48,223,46.16,223s-3-.92-3-4c0-3.34,1.08-4.32,2.94-4.32S49.1,215.58,49.1,218.91Zm-4.92,0c0,2.53.7,3.19,2,3.19s2-.67,2-3.21c0-2.72-.62-3.45-2-3.45S44.18,216.17,44.18,218.93Z" fill="#4c4c4c"/><path d="M41.89,185.88v.86H38l-.22,2.63a4.73,4.73,0,0,1,1.9-.5c1.58,0,2.58.66,2.58,2.39a2.5,2.5,0,0,1-2.71,2.82,13.24,13.24,0,0,1-2.69-.36l.12-.75a15.92,15.92,0,0,0,2.48.27,1.71,1.71,0,0,0,1.83-1.91c0-1.22-.69-1.62-1.72-1.62a4.64,4.64,0,0,0-1.92.49l-.65-.12.22-4.2Z" fill="#4c4c4c"/><path d="M49.28,190c0,3.1-1.09,4.05-2.94,4.05s-3-.92-3-4c0-3.34,1.08-4.32,2.94-4.32S49.28,186.71,49.28,190Zm-4.92,0c0,2.53.7,3.19,2,3.19s2-.67,2-3.21c0-2.72-.62-3.45-2-3.45S44.36,187.3,44.36,190.06Z" fill="#4c4c4c"/><path d="M35.47,156h.88v8.09h-1v-7l-2.08,1.37-.43-.71Z" fill="#4c4c4c"/><path d="M44.82,160.15c0,3.1-1.09,4-2.94,4s-3-.92-3-4c0-3.33,1.08-4.31,2.94-4.31S44.82,156.82,44.82,160.15Zm-4.92,0c0,2.54.7,3.2,2,3.2s2-.68,2-3.21c0-2.72-.63-3.46-2-3.46S39.9,157.4,39.9,160.16Z" fill="#4c4c4c"/><path d="M51.68,160.15c0,3.1-1.09,4-2.94,4s-3-.92-3-4c0-3.33,1.07-4.31,2.94-4.31S51.68,156.82,51.68,160.15Zm-4.91,0c0,2.54.7,3.2,2,3.2s2-.68,2-3.21c0-2.72-.62-3.46-2-3.46S46.77,157.4,46.77,160.16Z" fill="#4c4c4c"/><path d="M35.47,126.09h.88v8.08h-1v-7l-2.08,1.37-.43-.71Z" fill="#4c4c4c"/><path d="M44.29,126.09v.85H40.36l-.22,2.64a4.65,4.65,0,0,1,1.89-.5c1.59,0,2.58.66,2.58,2.39a2.49,2.49,0,0,1-2.71,2.81,13.44,13.44,0,0,1-2.68-.35l.11-.75a16.11,16.11,0,0,0,2.48.27,1.71,1.71,0,0,0,1.83-1.91c0-1.23-.69-1.62-1.71-1.62a4.66,4.66,0,0,0-1.93.49l-.65-.12.22-4.2Z" fill="#4c4c4c"/><path d="M51.68,130.25c0,3.1-1.09,4.05-2.94,4.05s-3-.92-3-4c0-3.34,1.07-4.32,2.94-4.32S51.68,126.92,51.68,130.25Zm-4.91,0c0,2.53.7,3.19,2,3.19s2-.67,2-3.21c0-2.72-.62-3.45-2-3.45S46.77,127.51,46.77,130.27Z" fill="#4c4c4c"/><path d="M145.72,233.24a1.78,1.78,0,0,1-1.34,1.88,2,2,0,0,1,1.47,2c0,1.77-1.37,2.31-3,2.31s-3-.5-3-2.18a2.17,2.17,0,0,1,1.4-2.17,1.86,1.86,0,0,1-1.26-1.9c0-1.39,1.11-2.09,2.88-2.09S145.72,231.81,145.72,233.24Zm-.88,3.82c0-.94-.62-1.25-1.43-1.48h-1.29c-.84.23-1.33.65-1.33,1.55,0,1.12.85,1.48,2,1.48S144.84,238.25,144.84,237.06Zm-3.92-3.73c0,.75.41,1.14,1.2,1.42h1.29c.83-.26,1.31-.66,1.31-1.4,0-1-.72-1.36-1.91-1.36S140.92,232.37,140.92,233.33Z" fill="#4c4c4c"/><path d="M212.36,231.26h.88v8.09h-.94v-7l-2.08,1.37-.43-.71Z" fill="#4c4c4c"/><path d="M216.19,239.35v-.8l2.36-2.48c1-1,1.63-1.71,1.63-2.66s-.6-1.42-1.76-1.42a12.17,12.17,0,0,0-2.1.26l-.07-.78a9.78,9.78,0,0,1,2.34-.33c1.7,0,2.56.65,2.56,2.17,0,1.21-.55,1.92-1.69,3l-2.16,2.2h4.06v.82Z" fill="#4c4c4c"/><path d="M298,231.26h.88v8.09h-.94v-7l-2.09,1.37-.42-.71Z" fill="#4c4c4c"/><path d="M306.83,232.12a18.29,18.29,0,0,0-2.13-.15c-1.41,0-2.18,1-2.18,2.8a6.75,6.75,0,0,1,2-.48c1.79,0,2.72.81,2.72,2.51s-1,2.67-2.83,2.67c-2,0-2.89-1.58-2.89-4.2,0-2.93,1.24-4.13,3.16-4.13a15.08,15.08,0,0,1,2.22.21Zm-4.32,3.48c0,1.73.53,3,1.92,3a1.66,1.66,0,0,0,1.85-1.84c0-1.13-.67-1.67-1.8-1.67A5.6,5.6,0,0,0,302.51,235.6Z" fill="#4c4c4c"/><path d="M372.24,239.35v-.8l2.37-2.48c1-1,1.62-1.71,1.62-2.66s-.6-1.42-1.76-1.42a12.34,12.34,0,0,0-2.1.26l-.07-.78a9.78,9.78,0,0,1,2.34-.33c1.7,0,2.56.65,2.56,2.17,0,1.21-.55,1.92-1.69,3l-2.15,2.2h4.05v.82Z" fill="#4c4c4c"/><path d="M384.63,235.43c0,3.1-1.09,4-2.94,4s-2.95-.92-2.95-4c0-3.33,1.07-4.31,2.94-4.31S384.63,232.1,384.63,235.43Zm-4.91,0c0,2.54.69,3.2,2,3.2s2-.68,2-3.21c0-2.72-.62-3.46-2-3.46S379.72,232.68,379.72,235.44Z" fill="#4c4c4c"/><path d="M444.42,239.35v-.8l2.36-2.48c1-1,1.63-1.71,1.63-2.66s-.6-1.42-1.76-1.42a12.17,12.17,0,0,0-2.1.26l-.07-.78a9.78,9.78,0,0,1,2.34-.33c1.7,0,2.56.65,2.56,2.17,0,1.21-.55,1.92-1.69,3l-2.16,2.2h4.06v.82Z" fill="#4c4c4c"/><path d="M454.85,237.77h-3.92V237l2.3-5.77h1l-2.34,5.68h2.93v-2.53h.94v2.53h1v.83h-1v1.58h-.94Z" fill="#4c4c4c"/><line x1="60.35" y1="128.08" x2="60.35" y2="226.28" fill="none" stroke="#adadad" stroke-miterlimit="10"/><line x1="457.83" y1="218.03" x2="50.55" y2="218.03" fill="none" stroke="#adadad" stroke-miterlimit="10"/><circle cx="56.08" cy="331.19" r="26.31" fill="#ebefa5" stroke="#2277d6" stroke-miterlimit="10" stroke-width="5"/><path d="M41.34,323.2h9.19v1.49H43v5.22h6.2v1.46H43v5.46h7.51v1.48H41.34Z" fill="#424127"/><path d="M54.51,323.2h3L61.82,336,66.1,323.2h3v15.11H67.46V325h-.31l-4.39,12.78H60.88L56.49,325h-.3v13.32H54.51Z" fill="#424127"/><circle cx="122.62" cy="331.19" r="26.31" fill="#dbb8f4"/><path d="M120.1,331.48h-7.69v6.83h-1.68V323.2h1.68V330h7.69V323.2h1.66v15.11H120.1Z" fill="#574666"/><path d="M126.56,338.31V323.2h1.69v13.61h6.63v1.5Z" fill="#574666"/><circle cx="189.17" cy="331.19" r="26.31" fill="#a5ebef" stroke="#2277d6" stroke-miterlimit="10" stroke-width="5"/><path d="M173,323.2h3L180.27,336l4.28-12.78h3v15.11h-1.68V325h-.31l-4.39,12.78h-1.88L174.94,325h-.3v13.32H173Z" fill="#274444"/><path d="M192.4,323.2h3.14l5.79,13.63h.46V323.2h1.66v15.11h-3.08l-5.88-13.62h-.41v13.62H192.4Z" fill="#274444"/><circle cx="255.71" cy="331.19" r="26.31" fill="#c2e3f2"/><path d="M246.28,323.2H257.2v1.51h-4.61v13.6h-1.66v-13.6h-4.65Z" fill="#2f4249"/><path d="M263.12,336.24c0,3.27-1.27,3.64-4.15,3.64v-1.5c2,0,2.47-.13,2.47-2.38V323.2h1.66Z" fill="#2f4249"/><circle cx="322.25" cy="331.19" r="26.31" fill="#efd3a5"/><path d="M313.8,323.2H323v1.49h-7.51v5.22h6.2v1.46h-6.2v5.46H323v1.48H313.8Z" fill="#4c3d28"/><path d="M327,338.31V323.2h1.68v13.61h6.64v1.5Z" fill="#4c3d28"/><g opacity="0.1"><g clip-path="url(#clip-path)"><polyline points="432.52 177.03 443.66 201.54 453.69 213.8" fill="none" stroke="#000" stroke-width="2"/></g></g><polyline points="294.36 185.94 317.2 169.79 333.91 164.22 351.74 157.53 367.34 164.22 384.05 159.76 397.42 169.79 408.56 169.79 423.05 172.02 432.52 177.03" fill="none" stroke="#f2a120" stroke-miterlimit="10" stroke-width="3"/><g opacity="0.1"><g clip-path="url(#clip-path-2)"><polyline points="65.33 214.69 80.42 206 100.48 190.4 121.65 190.4 128.33 181.49 142.82 169.23 156.19 182.6 177.36 181.49 191.84 172.57 205.22 163.66 218.59 172.57 238.64 169.23 252.01 172.57 274.3 185.94 294.36 185.94" fill="none" stroke="#000" stroke-width="2"/></g></g></g></g></svg>