<svg xmlns="http://www.w3.org/2000/svg" viewBox="0 0 579.59 494.77"><title>r_2_A_Tablet_1</title><g id="Layer_2" data-name="Layer 2"><g id="Layer_2-2" data-name="Layer 2"><rect y="0.5" width="579.59" height="494.27" fill="#f7f7f7"/><line x1="0.23" y1="0.5" x2="579.59" y2="0.5" fill="none" stroke="#ddd" stroke-miterlimit="10"/></g><g id="WT_Screen_Assets"><path d="M29.8,78.62c1.89,0,2.89.74,2.89,2.46a2.12,2.12,0,0,1-1.25,2.23A2.13,2.13,0,0,1,33,85.59c0,2-1.17,2.72-3,2.72h-3.7V78.62Zm-2.43.95v3.35h2.49c1.22,0,1.72-.58,1.72-1.74s-.59-1.61-1.82-1.61Zm0,4.29v3.5h2.57c1.18,0,1.95-.38,1.95-1.81s-1.27-1.69-2-1.69Z" fill="#4c4c4c"/><path d="M39.67,87c0,.41.37.56.82.62l-.05.82a2.13,2.13,0,0,1-1.66-.56,7.16,7.16,0,0,1-2.52.56c-1.28,0-2-.73-2-2.14s.7-1.93,2.14-2.07l2.2-.21v-.61c0-1-.42-1.33-1.26-1.33s-2.64.19-2.64.19l0-.8a16.87,16.87,0,0,1,2.75-.31c1.58,0,2.25.73,2.25,2.25Zm-3.12-2c-.85.08-1.19.49-1.19,1.26s.35,1.29,1.06,1.29a7.46,7.46,0,0,0,2.2-.43V84.82Z" fill="#4c4c4c"/><path d="M41.44,89.49c0-.81.37-1.19,1.1-1.74a1.14,1.14,0,0,1-.39-1,4.46,4.46,0,0,1,.48-1.11,2,2,0,0,1-1.11-2.12c0-1.72,1.06-2.39,2.62-2.39a7.39,7.39,0,0,1,1.46.18l2.07-.06v.9l-1.33,0a1.85,1.85,0,0,1,.46,1.4c0,1.82-.91,2.37-2.7,2.37a5.51,5.51,0,0,1-.69-.06,4.27,4.27,0,0,0-.25.8c0,.56.11.65,1.69.65,2,0,2.71.39,2.71,2.06s-1.14,2.22-3.11,2.22C42.23,91.6,41.44,91.11,41.44,89.49Zm1.82-1.32c-.59.44-.79.69-.79,1.24,0,1,.41,1.31,2,1.31,1.4,0,2-.38,2-1.3,0-1.07-.45-1.18-1.72-1.18C44.28,88.24,43.26,88.17,43.26,88.17Zm2.49-4.61c0-1.1-.44-1.54-1.61-1.54s-1.57.44-1.57,1.54.48,1.53,1.57,1.53S45.75,84.67,45.75,83.56Z" fill="#4c4c4c"/><path d="M53.59,82.33a23.2,23.2,0,0,0-2.45-.22c-.87,0-1.53.23-1.53,1.06,0,.66.34.84,1.82,1.09,1.75.3,2.41.65,2.41,2,0,1.64-1,2.18-2.72,2.18a20.26,20.26,0,0,1-2.46-.26l.06-.91s1.59.23,2.31.23c1.15,0,1.76-.25,1.76-1.2,0-.73-.36-.91-1.89-1.15s-2.34-.55-2.34-2,1.25-2,2.52-2a18.43,18.43,0,0,1,2.54.26Z" fill="#4c4c4c"/><path d="M26.77,286h1.95l2.75,8.2,2.74-8.2h1.95v9.7H35.08v-8.55h-.19l-2.82,8.19h-1.2l-2.82-8.19h-.2v8.55H26.77Z" fill="#4c4c4c"/><path d="M43.3,294.38c0,.41.36.56.81.62l0,.82a2.12,2.12,0,0,1-1.67-.56,7.16,7.16,0,0,1-2.52.56c-1.27,0-2-.72-2-2.14s.71-1.93,2.15-2.07l2.2-.21v-.6c0-1-.42-1.33-1.26-1.33s-2.65.18-2.65.18l0-.8a16.84,16.84,0,0,1,2.74-.31c1.59,0,2.26.73,2.26,2.26Zm-3.13-2c-.85.09-1.19.49-1.19,1.26s.35,1.29,1.07,1.29a7.55,7.55,0,0,0,2.2-.43V292.2Z" fill="#4c4c4c"/><path d="M45.37,285.88h1.05v1.22H45.37Zm0,2.8h1.05v7H45.37Z" fill="#4c4c4c"/><path d="M48.43,295.69v-7h1v.49a5.29,5.29,0,0,1,2.17-.63c1.93,0,2.37.95,2.37,3.45v3.7H53V292c0-1.85-.21-2.54-1.51-2.54a4.81,4.81,0,0,0-2,.52v5.69Z" fill="#4c4c4c"/><path d="M57.35,289.59v3.35c0,1.53.1,2,1,2,.39,0,1.25-.08,1.25-.08l.07.87a12.62,12.62,0,0,1-1.43.15c-1.44,0-1.94-.55-1.94-2.56v-3.69h-1v-.91h1v-2.14h1v2.14h2.23v.91Z" fill="#4c4c4c"/><path d="M66,294.77l0,.83a25,25,0,0,1-2.73.22c-2.09,0-2.77-1.21-2.77-3.59,0-2.67,1.14-3.69,2.92-3.69s2.82,1,2.82,3.28l-.06.8H61.62c0,1.5.46,2.28,1.84,2.28C64.51,294.9,66,294.77,66,294.77Zm-.78-3c0-1.74-.53-2.36-1.77-2.36s-1.86.66-1.87,2.36Z" fill="#4c4c4c"/><path d="M67.94,295.69v-7h1v.49a5.35,5.35,0,0,1,2.17-.63c1.94,0,2.37.95,2.37,3.45v3.7h-1V292c0-1.85-.21-2.54-1.51-2.54a4.74,4.74,0,0,0-2,.52v5.69Z" fill="#4c4c4c"/><path d="M80.4,294.38c0,.41.36.56.81.62l0,.82a2.12,2.12,0,0,1-1.67-.56,7.16,7.16,0,0,1-2.52.56c-1.28,0-2-.72-2-2.14s.7-1.93,2.15-2.07l2.2-.21v-.6c0-1-.42-1.33-1.26-1.33s-2.65.18-2.65.18l0-.8a16.84,16.84,0,0,1,2.74-.31c1.59,0,2.26.73,2.26,2.26Zm-3.13-2c-.85.09-1.19.49-1.19,1.26s.35,1.29,1.07,1.29a7.55,7.55,0,0,0,2.2-.43V292.2Z" fill="#4c4c4c"/><path d="M82.47,295.69v-7h1v.49a5.35,5.35,0,0,1,2.17-.63c1.94,0,2.37.95,2.37,3.45v3.7H87V292c0-1.85-.21-2.54-1.51-2.54a4.74,4.74,0,0,0-2,.52v5.69Z" fill="#4c4c4c"/><path d="M94.51,288.75l0,.86s-1.12-.13-1.66-.13c-1.61,0-2,.7-2,2.58,0,2.07.32,2.83,2.06,2.83.53,0,1.65-.13,1.65-.13l0,.87a19.07,19.07,0,0,1-2,.19c-2.22,0-2.88-1-2.88-3.76,0-2.54.83-3.52,2.91-3.52A16.24,16.24,0,0,1,94.51,288.75Z" fill="#4c4c4c"/><path d="M101.26,294.77l0,.83a24.68,24.68,0,0,1-2.73.22c-2.08,0-2.77-1.21-2.77-3.59,0-2.67,1.15-3.69,2.93-3.69s2.81,1,2.81,3.28l0,.8H96.84c0,1.5.47,2.28,1.84,2.28C99.73,294.9,101.26,294.77,101.26,294.77Zm-.79-3c0-1.74-.53-2.36-1.76-2.36s-1.87.66-1.88,2.36Z" fill="#4c4c4c"/><path d="M31.24,32.85l3.52-5.92h1.66l-4.26,7,4.26,6.82H34.68L31.2,35l-3.54,5.74H26L30.28,34,26,26.93h1.74Z"/><path d="M38.14,34.57H44.2V36H38.14Z"/><path d="M48.78,35.47v5.3H47.24V26.93h5.12c2.9,0,4.42,1.28,4.42,4.2,0,2-.8,3.46-2.54,4l2.66,5.62H55.2l-2.5-5.3Zm3.58-7.18H48.78v5.82h3.6c2.08,0,2.82-1.24,2.82-3C55.2,29.23,54.3,28.29,52.36,28.29Z"/><path d="M62.14,26.93H65.5l3.8,13.84H67.78l-1-3.56H60.86l-1,3.56H58.34Zm-.94,8.9h5.24l-2.1-7.58h-1Z"/><path d="M75.94,40.77H74.4V35l-4.42-8h1.74l3.44,6.48,3.44-6.48h1.74l-4.4,8Z"/><path d="M23.25,429.19h9v1.24h-3.8v11.22H27.08V430.43H23.25Z" fill="#3a3d3f"/><path d="M41.09,437c0,3.28-.81,4.79-3.86,4.79s-3.85-1.51-3.85-4.79c0-3.1,1-4.58,3.85-4.58S41.09,433.94,41.09,437Zm-1.39,0c0-2.51-.54-3.4-2.47-3.4s-2.46.89-2.46,3.4.34,3.62,2.46,3.62S39.7,439.59,39.7,437Z" fill="#3a3d3f"/><path d="M50.19,441.65H48.86V441a6.37,6.37,0,0,1-2.73.8c-1.77,0-3.25-.72-3.25-4.61,0-3.17,1-4.76,3.77-4.76a14.12,14.12,0,0,1,2.21.24v-4h1.33ZM48.86,440v-6.1a16.07,16.07,0,0,0-2.14-.21c-1.89,0-2.45,1.24-2.45,3.58,0,2.91,1,3.4,2,3.4A6.47,6.47,0,0,0,48.86,440Z" fill="#3a3d3f"/><path d="M59.16,440c0,.52.47.72,1,.79l-.05,1.07a2.74,2.74,0,0,1-2.14-.72,9.22,9.22,0,0,1-3.25.72c-1.63,0-2.53-.94-2.53-2.76s.9-2.48,2.75-2.66l2.83-.27v-.78c0-1.26-.54-1.71-1.62-1.71-1.26,0-3.41.24-3.41.24l-.05-1a21.6,21.6,0,0,1,3.53-.4c2,0,2.9.94,2.9,2.9Zm-4-2.55c-1.1.1-1.53.63-1.53,1.62s.45,1.65,1.37,1.65a9.57,9.57,0,0,0,2.83-.56v-3Z" fill="#3a3d3f"/><path d="M62.32,432.64l2.25,7.84h.6l2.27-7.84h1.35l-3.75,13H63.69l1.17-4H63.53l-2.56-9Z" fill="#3a3d3f"/><path d="M78.24,434.52l3.16-5.33h1.5l-3.84,6.32,3.84,6.14H81.33l-3.13-5.17L75,441.65H73.52l3.85-6.11-3.85-6.35h1.56Z" fill="#3a3d3f"/><path d="M84.44,436.07H89.9v1.26H84.44Z" fill="#3a3d3f"/><path d="M94,436.88v4.77H92.63V429.19h4.61c2.62,0,4,1.15,4,3.78,0,1.84-.72,3.11-2.28,3.62l2.39,5.06H99.8l-2.25-4.77Zm3.22-6.47H94v5.24h3.24c1.87,0,2.54-1.12,2.54-2.68A2.24,2.24,0,0,0,97.24,430.41Z" fill="#3a3d3f"/><path d="M109.84,440c0,.52.47.72,1,.79l-.06,1.07a2.75,2.75,0,0,1-2.14-.72,9.2,9.2,0,0,1-3.24.72c-1.64,0-2.54-.94-2.54-2.76s.9-2.48,2.76-2.66l2.82-.27v-.78c0-1.26-.54-1.71-1.62-1.71-1.26,0-3.4.24-3.4.24l0-1a21.6,21.6,0,0,1,3.53-.4c2,0,2.89.94,2.89,2.9Zm-4-2.55c-1.1.1-1.53.63-1.53,1.62s.45,1.65,1.37,1.65a9.47,9.47,0,0,0,2.82-.56v-3Z" fill="#3a3d3f"/><path d="M113,432.64l2.25,7.84h.6l2.26-7.84h1.35l-3.74,13h-1.35l1.17-4h-1.33l-2.56-9Z" fill="#3a3d3f"/><path d="M131,432.74l-.06,1.09s-1.44-.16-2.12-.16c-2.07,0-2.63.9-2.63,3.31,0,2.67.41,3.64,2.64,3.64.69,0,2.13-.16,2.13-.16l.05,1.11a23.06,23.06,0,0,1-2.5.26c-2.86,0-3.71-1.32-3.71-4.85,0-3.25,1.06-4.52,3.75-4.52A20.45,20.45,0,0,1,131,432.74Z" fill="#3a3d3f"/><path d="M139.36,440c0,.52.47.72,1,.79l-.06,1.07a2.75,2.75,0,0,1-2.14-.72,9.2,9.2,0,0,1-3.24.72c-1.64,0-2.54-.94-2.54-2.76s.9-2.48,2.76-2.66l2.82-.27v-.78c0-1.26-.54-1.71-1.62-1.71-1.26,0-3.4.24-3.4.24l-.05-1a21.57,21.57,0,0,1,3.52-.4c2,0,2.9.94,2.9,2.9Zm-4-2.55c-1.1.1-1.53.63-1.53,1.62s.45,1.65,1.37,1.65a9.47,9.47,0,0,0,2.82-.56v-3Z" fill="#3a3d3f"/><path d="M142,441.65v-9h1.34v.63a6.79,6.79,0,0,1,2.79-.81c2.48,0,3,1.23,3,4.43v4.76h-1.33v-4.72c0-2.38-.27-3.26-2-3.26a6.18,6.18,0,0,0-2.54.67v7.31Z" fill="#3a3d3f"/><path d="M161.63,434a29.33,29.33,0,0,0-3.15-.29c-1.12,0-2,.31-2,1.37,0,.85.44,1.08,2.35,1.4,2.25.38,3.09.83,3.09,2.58,0,2.11-1.33,2.81-3.49,2.81a25.65,25.65,0,0,1-3.17-.34l.07-1.17s2,.3,3,.3c1.48,0,2.27-.32,2.27-1.55,0-.93-.47-1.17-2.43-1.47s-3-.71-3-2.51c0-2,1.61-2.63,3.24-2.63a22.35,22.35,0,0,1,3.26.35Z" fill="#3a3d3f"/><path d="M169.84,432.74l-.06,1.09s-1.44-.16-2.12-.16c-2.07,0-2.63.9-2.63,3.31,0,2.67.41,3.64,2.65,3.64.68,0,2.12-.16,2.12-.16l0,1.11a23.06,23.06,0,0,1-2.5.26c-2.86,0-3.71-1.32-3.71-4.85,0-3.25,1.06-4.52,3.75-4.52A20.17,20.17,0,0,1,169.84,432.74Z" fill="#3a3d3f"/><path d="M178.22,440c0,.52.47.72,1.05.79l-.06,1.07a2.75,2.75,0,0,1-2.14-.72,9.2,9.2,0,0,1-3.24.72c-1.64,0-2.54-.94-2.54-2.76s.9-2.48,2.76-2.66l2.82-.27v-.78c0-1.26-.54-1.71-1.62-1.71-1.26,0-3.4.24-3.4.24l0-1a21.57,21.57,0,0,1,3.52-.4c2,0,2.9.94,2.9,2.9Zm-4-2.55c-1.1.1-1.53.63-1.53,1.62s.45,1.65,1.37,1.65a9.47,9.47,0,0,0,2.82-.56v-3Z" fill="#3a3d3f"/><path d="M180.89,441.65v-9h1.33v.63a6.85,6.85,0,0,1,2.79-.81c2.48,0,3,1.23,3,4.43v4.76h-1.33v-4.72c0-2.38-.27-3.26-1.95-3.26a6.11,6.11,0,0,0-2.53.67v7.31Z" fill="#3a3d3f"/><path d="M201.48,432.64v9h-1.35V441a6.08,6.08,0,0,1-2.67.81c-2.52,0-3-1.17-3-4.49v-4.7h1.35v4.69c0,2.48.22,3.29,1.89,3.29a5.47,5.47,0,0,0,2.47-.67v-7.31Z" fill="#3a3d3f"/><path d="M204.07,432.64h1.33v.65a6.12,6.12,0,0,1,2.7-.83c2.27,0,3.26,1.39,3.26,4.58,0,3.53-1.15,4.79-3.92,4.79a12,12,0,0,1-2-.2v4h-1.35Zm1.35,1.75v6.07a14.27,14.27,0,0,0,1.94.2c2,0,2.63-1,2.63-3.62s-.77-3.37-2.09-3.37A5.86,5.86,0,0,0,205.42,434.39Z" fill="#3a3d3f"/><path d="M219.32,433.82v4.3c0,2,.12,2.52,1.29,2.52.51,0,1.61-.11,1.61-.11l.09,1.12a15.71,15.71,0,0,1-1.84.2c-1.86,0-2.49-.71-2.49-3.3v-4.73h-1.27v-1.18H218v-2.75h1.34v2.75h2.86v1.18Z" fill="#3a3d3f"/><path d="M231.14,437c0,3.28-.81,4.79-3.85,4.79s-3.85-1.51-3.85-4.79c0-3.1,1-4.58,3.85-4.58S231.14,433.94,231.14,437Zm-1.38,0c0-2.51-.54-3.4-2.47-3.4s-2.47.89-2.47,3.4.35,3.62,2.47,3.62S229.76,439.59,229.76,437Z" fill="#3a3d3f"/><path d="M241.71,429.76H243v11.89h-1.39V431.31l-3.06,2-.63-1.05Z" fill="#3a3d3f"/><path d="M254.67,429.76V431h-5.78l-.32,3.88a6.81,6.81,0,0,1,2.79-.74c2.32,0,3.78,1,3.78,3.51,0,2.74-1.5,4.14-4,4.14a19.6,19.6,0,0,1-3.94-.52l.16-1.1a24,24,0,0,0,3.65.39,2.51,2.51,0,0,0,2.69-2.8c0-1.8-1-2.38-2.53-2.38a6.81,6.81,0,0,0-2.82.72l-1-.18.33-6.18Z" fill="#3a3d3f"/><path d="M265.52,435.89c0,4.55-1.6,5.94-4.32,5.94s-4.34-1.35-4.34-5.93c0-4.89,1.59-6.33,4.33-6.33S265.52,431,265.52,435.89Zm-7.22,0c0,3.73,1,4.7,2.9,4.7s2.9-1,2.9-4.71c0-4-.92-5.08-2.9-5.08S258.3,431.85,258.3,435.9Z" fill="#3a3d3f"/><path d="M278.75,437c0,3.58-1,4.83-4.24,4.83-1.09,0-3-.2-3-.2V428.72h1.33v4.37a7.44,7.44,0,0,1,2.65-.63C277.93,432.46,278.75,433.76,278.75,437Zm-1.36,0c0-2.32-.47-3.33-2.06-3.33a7.57,7.57,0,0,0-2.5.52v6.34s1.17.09,1.66.09C277,440.62,277.39,439.52,277.39,437Z" fill="#3a3d3f"/><path d="M287.32,440c0,.52.47.72,1.05.79l-.06,1.07a2.75,2.75,0,0,1-2.14-.72,9.2,9.2,0,0,1-3.24.72c-1.64,0-2.54-.94-2.54-2.76s.9-2.48,2.75-2.66l2.83-.27v-.78c0-1.26-.54-1.71-1.62-1.71-1.26,0-3.4.24-3.4.24l-.06-1a21.6,21.6,0,0,1,3.53-.4c2,0,2.9.94,2.9,2.9Zm-4-2.55c-1.1.1-1.53.63-1.53,1.62s.45,1.65,1.36,1.65a9.48,9.48,0,0,0,2.83-.56v-3Z" fill="#3a3d3f"/><path d="M289.59,443.16c0-1,.48-1.53,1.42-2.23a1.49,1.49,0,0,1-.5-1.25,5.82,5.82,0,0,1,.61-1.42c-.76-.34-1.42-1.06-1.42-2.72,0-2.21,1.36-3.08,3.36-3.08a9.22,9.22,0,0,1,1.88.24l2.66-.07v1.15l-1.71,0a2.35,2.35,0,0,1,.59,1.8c0,2.34-1.17,3-3.47,3a6.69,6.69,0,0,1-.88-.08,5.44,5.44,0,0,0-.33,1c0,.72.15.83,2.18.83,2.56,0,3.48.5,3.48,2.65s-1.46,2.86-4,2.86C290.61,445.88,289.59,445.25,289.59,443.16Zm2.34-1.69c-.76.56-1,.88-1,1.58,0,1.24.52,1.69,2.56,1.69,1.8,0,2.61-.48,2.61-1.67,0-1.37-.58-1.51-2.22-1.51C293.24,441.56,291.93,441.47,291.93,441.47Zm3.2-5.93c0-1.42-.56-2-2.07-2s-2,.56-2,2,.61,2,2,2S295.13,437,295.13,435.54Z" fill="#3a3d3f"/><path d="M305.21,434a29.33,29.33,0,0,0-3.15-.29c-1.11,0-2,.31-2,1.37,0,.85.43,1.08,2.34,1.4,2.25.38,3.1.83,3.1,2.58,0,2.11-1.34,2.81-3.5,2.81a25.4,25.4,0,0,1-3.16-.34l.07-1.17s2.05.3,3,.3c1.48,0,2.27-.32,2.27-1.55,0-.93-.47-1.17-2.43-1.47s-3-.71-3-2.51c0-2,1.6-2.63,3.24-2.63a22.55,22.55,0,0,1,3.26.35Z" fill="#3a3d3f"/><path d="M307.52,439.59H309v2.06h-1.47Z" fill="#3a3d3f"/><path d="M314.39,429.19h9v1.24h-3.8v11.22h-1.36V430.43h-3.84Z" fill="#3a3d3f"/><path d="M324.92,441.65V428.72h1.35v4.43a7.55,7.55,0,0,1,2.77-.69c2.47,0,3,1.23,3,4.43v4.76h-1.35v-4.72c0-2.38-.27-3.26-1.93-3.26a7.41,7.41,0,0,0-2.54.54v7.44Z" fill="#3a3d3f"/><path d="M341.23,440.48l0,1.06a31.38,31.38,0,0,1-3.51.29c-2.69,0-3.57-1.57-3.57-4.63,0-3.42,1.48-4.74,3.76-4.74s3.62,1.27,3.62,4.22l-.07,1h-5.94c0,1.93.59,2.94,2.36,2.94C339.27,440.64,341.23,440.48,341.23,440.48Zm-1-3.86c0-2.23-.68-3-2.27-3s-2.39.85-2.41,3Z" fill="#3a3d3f"/><path d="M347.64,432.64H349v1.23a10.18,10.18,0,0,1,3.29-1.42v1.37A13,13,0,0,0,349,435v6.61h-1.35Z" fill="#3a3d3f"/><path d="M353.86,429h1.35v1.57h-1.35Zm0,3.6h1.35v9h-1.35Z" fill="#3a3d3f"/><path d="M363.78,434a29,29,0,0,0-3.15-.29c-1.11,0-2,.31-2,1.37,0,.85.43,1.08,2.34,1.4,2.25.38,3.1.83,3.1,2.58,0,2.11-1.33,2.81-3.49,2.81a25.4,25.4,0,0,1-3.17-.34l.07-1.17s2.05.3,3,.3c1.48,0,2.27-.32,2.27-1.55,0-.93-.47-1.17-2.43-1.47s-3-.71-3-2.51c0-2,1.6-2.63,3.24-2.63a22.55,22.55,0,0,1,3.26.35Z" fill="#3a3d3f"/><path d="M366.18,441.65V428.72h1.35v7.63l1.4-.07,2.58-3.64H373l-2.94,4.15,3.06,4.86h-1.53L369,437.47l-1.42,0v4.13Z" fill="#3a3d3f"/><path d="M386.07,437c0,3.28-.81,4.79-3.85,4.79s-3.86-1.51-3.86-4.79c0-3.1,1-4.58,3.86-4.58S386.07,433.94,386.07,437Zm-1.39,0c0-2.51-.54-3.4-2.46-3.4s-2.47.89-2.47,3.4.34,3.62,2.47,3.62S384.68,439.59,384.68,437Z" fill="#3a3d3f"/><path d="M390,441.65h-1.35v-7.83h-1.13v-1.18h1.13v-.81c0-2.59.67-3.29,2.43-3.29.61,0,1.82.12,1.82.12l0,1.12s-1,0-1.55,0c-1,0-1.33.43-1.33,2.1v.79h2.61v1.18H390Z" fill="#3a3d3f"/><path d="M404.54,440c0,.52.46.72,1,.79l-.05,1.07a2.76,2.76,0,0,1-2.15-.72,9.2,9.2,0,0,1-3.24.72c-1.64,0-2.54-.94-2.54-2.76s.9-2.48,2.76-2.66l2.83-.27v-.78c0-1.26-.54-1.71-1.62-1.71-1.26,0-3.41.24-3.41.24l-.05-1a21.6,21.6,0,0,1,3.53-.4c2,0,2.9.94,2.9,2.9Zm-4-2.55c-1.1.1-1.53.63-1.53,1.62s.45,1.65,1.37,1.65a9.57,9.57,0,0,0,2.83-.56v-3Z" fill="#3a3d3f"/><path d="M418.41,437c0,3.58-1,4.83-4.24,4.83-1.09,0-3-.2-3-.2V428.72h1.33v4.37a7.44,7.44,0,0,1,2.65-.63C417.59,432.46,418.41,433.76,418.41,437Zm-1.36,0c0-2.32-.47-3.33-2.06-3.33a7.57,7.57,0,0,0-2.5.52v6.34s1.17.09,1.66.09C416.61,440.62,417.05,439.52,417.05,437Z" fill="#3a3d3f"/><path d="M420.63,432.64H422v1.23a10.06,10.06,0,0,1,3.29-1.42v1.37A13,13,0,0,0,422,435v6.61h-1.35Z" fill="#3a3d3f"/><path d="M433.5,440.48l0,1.06a31.12,31.12,0,0,1-3.51.29c-2.68,0-3.56-1.57-3.56-4.63,0-3.42,1.47-4.74,3.76-4.74s3.62,1.27,3.62,4.22l-.07,1h-5.94c0,1.93.59,2.94,2.35,2.94C431.53,440.64,433.5,440.48,433.5,440.48Zm-1-3.86c0-2.23-.68-3-2.27-3s-2.39.85-2.41,3Z" fill="#3a3d3f"/><path d="M442.3,440c0,.52.47.72,1,.79l0,1.07a2.75,2.75,0,0,1-2.14-.72,9.2,9.2,0,0,1-3.24.72c-1.64,0-2.54-.94-2.54-2.76s.9-2.48,2.75-2.66l2.83-.27v-.78c0-1.26-.54-1.71-1.62-1.71-1.26,0-3.4.24-3.4.24l-.06-1a21.6,21.6,0,0,1,3.53-.4c2,0,2.9.94,2.9,2.9Zm-4-2.55a1.44,1.44,0,0,0-1.53,1.62c0,1,.45,1.65,1.37,1.65a9.57,9.57,0,0,0,2.83-.56v-3Z" fill="#3a3d3f"/><path d="M445,441.65V428.72h1.35v7.63l1.41-.07,2.57-3.64h1.53l-2.93,4.15,3.06,4.86h-1.53l-2.69-4.18-1.42,0v4.13Z" fill="#3a3d3f"/><path d="M460.5,441.65h-1.34V441a6.37,6.37,0,0,1-2.73.8c-1.77,0-3.24-.72-3.24-4.61,0-3.17,1-4.76,3.76-4.76a14,14,0,0,1,2.21.24v-4h1.34Zm-1.34-1.7v-6.1a15.89,15.89,0,0,0-2.14-.21c-1.89,0-2.45,1.24-2.45,3.58,0,2.91,1,3.4,2,3.4A6.47,6.47,0,0,0,459.16,440Z" fill="#3a3d3f"/><path d="M470.41,437c0,3.28-.81,4.79-3.85,4.79s-3.85-1.51-3.85-4.79c0-3.1,1-4.58,3.85-4.58S470.41,433.94,470.41,437ZM469,437c0-2.51-.54-3.4-2.47-3.4s-2.46.89-2.46,3.4.34,3.62,2.46,3.62S469,439.59,469,437Z" fill="#3a3d3f"/><path d="M473.22,432.64l1.82,7.84h.29l2.14-7.66h1.4l2.15,7.66h.3l1.8-7.84h1.35l-2.14,9h-2.25l-1.91-7-1.91,7H474l-2.14-9Z" fill="#3a3d3f"/><path d="M486.32,441.65v-9h1.34v.63a6.79,6.79,0,0,1,2.79-.81c2.48,0,3,1.23,3,4.43v4.76h-1.33v-4.72c0-2.38-.27-3.26-2-3.26a6.18,6.18,0,0,0-2.54.67v7.31Z" fill="#3a3d3f"/><path d="M500,429h1.35v1.57H500Zm0,3.6h1.35v9H500Z" fill="#3a3d3f"/><path d="M509.87,434a29.33,29.33,0,0,0-3.15-.29c-1.12,0-2,.31-2,1.37,0,.85.43,1.08,2.34,1.4,2.25.38,3.09.83,3.09,2.58,0,2.11-1.33,2.81-3.49,2.81a25.65,25.65,0,0,1-3.17-.34l.07-1.17s2.06.3,3,.3c1.47,0,2.26-.32,2.26-1.55,0-.93-.46-1.17-2.43-1.47s-3-.71-3-2.51c0-2,1.6-2.63,3.24-2.63a22.55,22.55,0,0,1,3.26.35Z" fill="#3a3d3f"/><path d="M516.33,428.72h1.35v12.93h-1.35Z" fill="#3a3d3f"/><path d="M527.69,437c0,3.28-.81,4.79-3.85,4.79S520,440.32,520,437c0-3.1,1-4.58,3.86-4.58S527.69,433.94,527.69,437Zm-1.39,0c0-2.51-.54-3.4-2.46-3.4s-2.47.89-2.47,3.4.34,3.62,2.47,3.62S526.3,439.59,526.3,437Z" fill="#3a3d3f"/><path d="M530.5,432.64l1.82,7.84h.28l2.15-7.66h1.4l2.14,7.66h.31l1.8-7.84h1.35l-2.14,9h-2.25l-1.91-7-1.91,7h-2.25l-2.14-9Z" fill="#3a3d3f"/><path d="M24.92,460.64l1.82,7.84H27l2.14-7.66h1.4l2.15,7.66H33l1.8-7.84h1.35l-2.14,9H31.78l-1.91-7-1.91,7H25.71l-2.14-9Z" fill="#3a3d3f"/><path d="M38,457h1.35v1.57H38Zm0,3.6h1.35v9H38Z" fill="#3a3d3f"/><path d="M43.77,461.82v4.3c0,2,.12,2.52,1.29,2.52.51,0,1.61-.11,1.61-.11l.09,1.12a15.71,15.71,0,0,1-1.84.2c-1.86,0-2.48-.71-2.48-3.3v-4.73H41.16v-1.18h1.28v-2.75h1.33v2.75h2.86v1.18Z" fill="#3a3d3f"/><path d="M48.29,469.65V456.72h1.35v4.43a7.55,7.55,0,0,1,2.77-.69c2.47,0,3,1.23,3,4.43v4.76H54.1v-4.72c0-2.38-.27-3.26-1.93-3.26a7.39,7.39,0,0,0-2.53.54v7.44Z" fill="#3a3d3f"/><path d="M58,457H59.3v1.57H58Zm0,3.6H59.3v9H58Z" fill="#3a3d3f"/><path d="M61.89,469.65v-9h1.34v.63a6.79,6.79,0,0,1,2.79-.81c2.48,0,3,1.23,3,4.43v4.76H67.73v-4.72c0-2.38-.27-3.26-2-3.26a6.12,6.12,0,0,0-2.54.67v7.31Z" fill="#3a3d3f"/><path d="M77.32,461.82v4.3c0,2,.12,2.52,1.3,2.52.5,0,1.6-.11,1.6-.11l.09,1.12a15.71,15.71,0,0,1-1.84.2c-1.85,0-2.48-.71-2.48-3.3v-4.73H74.71v-1.18H76v-2.75h1.33v2.75h2.86v1.18Z" fill="#3a3d3f"/><path d="M82.45,460.64l1.82,7.84h.29l2.14-7.66h1.4l2.15,7.66h.3l1.8-7.84H93.7l-2.14,9H89.31l-1.91-7-1.91,7H83.24l-2.14-9Z" fill="#3a3d3f"/><path d="M102.86,465c0,3.28-.81,4.79-3.85,4.79s-3.85-1.51-3.85-4.79c0-3.1,1-4.58,3.85-4.58S102.86,461.94,102.86,465Zm-1.38,0c0-2.51-.54-3.4-2.47-3.4s-2.47.89-2.47,3.4.35,3.62,2.47,3.62S101.48,467.59,101.48,465Z" fill="#3a3d3f"/><path d="M109,469.65v-9h1.33v.63a6,6,0,0,1,2.63-.81,2.57,2.57,0,0,1,2.34.92,7.46,7.46,0,0,1,3.2-.92c2.45,0,3,1.18,3,4.43v4.76h-1.35v-4.72c0-2.38-.27-3.26-1.89-3.26a5.89,5.89,0,0,0-2.54.67A10.34,10.34,0,0,1,116,465v4.68h-1.35V465c0-2.48-.25-3.33-1.89-3.33a5.34,5.34,0,0,0-2.41.67v7.31Z" fill="#3a3d3f"/><path d="M131.37,465c0,3.28-.81,4.79-3.85,4.79s-3.85-1.51-3.85-4.79c0-3.1,1-4.58,3.85-4.58S131.37,461.94,131.37,465ZM130,465c0-2.51-.54-3.4-2.47-3.4s-2.46.89-2.46,3.4.34,3.62,2.46,3.62S130,467.59,130,465Z" fill="#3a3d3f"/><path d="M133.57,469.65v-9h1.33v.63a6.85,6.85,0,0,1,2.79-.81c2.49,0,3,1.23,3,4.43v4.76H139.4v-4.72c0-2.38-.27-3.26-1.94-3.26a6.12,6.12,0,0,0-2.54.67v7.31Z" fill="#3a3d3f"/><path d="M145,461.82v4.3c0,2,.13,2.52,1.3,2.52.51,0,1.6-.11,1.6-.11l.09,1.12a15.44,15.44,0,0,1-1.83.2c-1.86,0-2.49-.71-2.49-3.3v-4.73h-1.28v-1.18h1.28v-2.75H145v2.75h2.87v1.18Z" fill="#3a3d3f"/><path d="M149.55,469.65V456.72h1.35v4.43a7.57,7.57,0,0,1,2.78-.69c2.46,0,3,1.23,3,4.43v4.76h-1.35v-4.72c0-2.38-.27-3.26-1.93-3.26a7.41,7.41,0,0,0-2.54.54v7.44Z" fill="#3a3d3f"/><path d="M165.2,462a29.33,29.33,0,0,0-3.15-.29c-1.12,0-2,.31-2,1.37,0,.85.44,1.08,2.34,1.4,2.25.38,3.1.83,3.1,2.58,0,2.11-1.33,2.81-3.49,2.81a25.65,25.65,0,0,1-3.17-.34l.07-1.17s2,.3,3,.3c1.48,0,2.27-.32,2.27-1.55,0-.93-.47-1.17-2.43-1.47s-3-.71-3-2.51c0-2,1.61-2.63,3.24-2.63a22.55,22.55,0,0,1,3.26.35Z" fill="#3a3d3f"/><path d="M167.5,467.59H169v2.06H167.5Z" fill="#3a3d3f"/><line x1="25.58" y1="49.08" x2="525.18" y2="49.08" fill="none" stroke="#ddd" stroke-miterlimit="10"/><path d="M25.85,380.53h1.63l2.3,6.87,2.3-6.87h1.63v8.12h-.9v-7.16h-.16l-2.36,6.87h-1l-2.36-6.87h-.16v7.16h-.91Z" fill="#4c4c4c"/><path d="M39.7,387.56c0,.34.3.47.68.52l0,.69a1.82,1.82,0,0,1-1.4-.47,5.94,5.94,0,0,1-2.11.47c-1.06,0-1.65-.61-1.65-1.79s.59-1.62,1.79-1.74l1.85-.18v-.5c0-.82-.36-1.12-1.06-1.12s-2.22.16-2.22.16l0-.67a14.1,14.1,0,0,1,2.3-.26c1.32,0,1.89.61,1.89,1.89Zm-2.62-1.66c-.72.07-1,.41-1,1.05S36.37,388,37,388a6.34,6.34,0,0,0,1.85-.36v-1.94Z" fill="#4c4c4c"/><path d="M41.43,382.79h.87v.79a6.6,6.6,0,0,1,2.15-.92v.89a8.29,8.29,0,0,0-2.14.8v4.3h-.88Z" fill="#4c4c4c"/><path d="M76.41,380.53h2l2.23,8.12h-.89l-.59-2.09H75.66l-.59,2.09h-.89Zm-.55,5.22h3.07l-1.23-4.44h-.61Z" fill="#4c4c4c"/><path d="M81.73,382.79h.87v.42a4,4,0,0,1,1.76-.54c1.48,0,2.12.9,2.12,3,0,2.3-.75,3.12-2.55,3.12a7.29,7.29,0,0,1-1.32-.13v2.62h-.88Zm.88,1.13v4a9.59,9.59,0,0,0,1.27.13c1.29,0,1.71-.67,1.71-2.36s-.5-2.2-1.36-2.2A3.81,3.81,0,0,0,82.61,383.92Z" fill="#4c4c4c"/><path d="M87.92,382.79h.86v.79a6.6,6.6,0,0,1,2.15-.92v.89a8.32,8.32,0,0,0-2.13.8v4.3h-.88Z" fill="#4c4c4c"/><path d="M122.82,387.54c0,1.76-.68,2-2.23,2v-.81c1.07,0,1.33-.07,1.33-1.28v-6.88h.89Z" fill="#4c4c4c"/><path d="M129.15,382.79v5.86h-.88v-.41a3.94,3.94,0,0,1-1.73.53c-1.64,0-2-.76-2-2.92v-3.06h.89v3c0,1.62.14,2.14,1.23,2.14a3.58,3.58,0,0,0,1.6-.43v-4.76Z" fill="#4c4c4c"/><path d="M130.84,388.65v-5.86h.87v.41a4.44,4.44,0,0,1,1.82-.53c1.62,0,2,.8,2,2.89v3.09h-.87v-3.07c0-1.55-.17-2.13-1.26-2.13a4,4,0,0,0-1.66.44v4.76Z" fill="#4c4c4c"/><path d="M168,387.54c0,1.76-.68,2-2.23,2v-.81c1.07,0,1.32-.07,1.32-1.28v-6.88h.9Z" fill="#4c4c4c"/><path d="M174.32,382.79v5.86h-.88v-.41a3.94,3.94,0,0,1-1.73.53c-1.65,0-2-.76-2-2.92v-3.06h.88v3c0,1.62.14,2.14,1.24,2.14a3.58,3.58,0,0,0,1.6-.43v-4.76Z" fill="#4c4c4c"/><path d="M176.08,380.23H177v8.42h-.88Z" fill="#4c4c4c"/><path d="M209.64,380.53h2l2.23,8.12H213l-.59-2.09h-3.47l-.59,2.09h-.89Zm-.55,5.22h3.07l-1.23-4.44h-.61Z" fill="#4c4c4c"/><path d="M219.5,382.79v5.86h-.88v-.41a3.94,3.94,0,0,1-1.73.53c-1.65,0-2-.76-2-2.92v-3.06h.88v3c0,1.62.15,2.14,1.24,2.14a3.58,3.58,0,0,0,1.6-.43v-4.76Z" fill="#4c4c4c"/><path d="M220.93,389.64c0-.68.32-1,.93-1.46a1,1,0,0,1-.33-.81,3.75,3.75,0,0,1,.4-.92,1.72,1.72,0,0,1-.93-1.77c0-1.45.9-2,2.2-2a6.25,6.25,0,0,1,1.22.15l1.74-.05v.76l-1.12,0a1.54,1.54,0,0,1,.39,1.18c0,1.52-.76,2-2.27,2l-.57-.05a3.59,3.59,0,0,0-.21.67c0,.47.09.54,1.42.54,1.66,0,2.26.33,2.26,1.72s-.95,1.87-2.6,1.87C221.6,391.41,220.93,391,220.93,389.64Zm1.53-1.1c-.49.36-.66.57-.66,1,0,.81.34,1.1,1.67,1.1,1.17,0,1.7-.32,1.7-1.09s-.38-1-1.44-1C223.32,388.59,222.46,388.54,222.46,388.54Zm2.09-3.86c0-.93-.37-1.3-1.35-1.3s-1.32.37-1.32,1.3.4,1.27,1.32,1.27S224.55,385.6,224.55,384.68Z" fill="#4c4c4c"/><path d="M261.18,381.4s-1.63-.2-2.32-.2c-1.14,0-1.75.41-1.75,1.33s.56,1.23,2,1.55c1.62.36,2.33.76,2.33,2.18,0,1.79-1,2.5-2.59,2.5a21.27,21.27,0,0,1-2.57-.26l.09-.75s1.6.21,2.43.21c1.15,0,1.74-.5,1.74-1.63,0-.92-.48-1.17-1.81-1.43-1.68-.37-2.52-.76-2.52-2.31s1-2.19,2.62-2.19a19.78,19.78,0,0,1,2.45.24Z" fill="#4c4c4c"/><path d="M267.16,387.89l0,.69a20,20,0,0,1-2.28.19c-1.75,0-2.33-1-2.33-3,0-2.22,1-3.08,2.45-3.08s2.36.82,2.36,2.74l0,.67h-3.88c0,1.26.39,1.92,1.54,1.92C265.88,388,267.16,387.89,267.16,387.89Zm-.66-2.51c0-1.46-.44-2-1.48-2s-1.56.55-1.57,2Z" fill="#4c4c4c"/><path d="M268.75,382.79h.87v.42a4,4,0,0,1,1.76-.54c1.48,0,2.13.9,2.13,3,0,2.3-.75,3.12-2.56,3.12a7.29,7.29,0,0,1-1.32-.13v2.62h-.88Zm.88,1.13v4a9.59,9.59,0,0,0,1.27.13c1.29,0,1.71-.67,1.71-2.36s-.5-2.2-1.36-2.2A3.87,3.87,0,0,0,269.63,383.92Z" fill="#4c4c4c"/><path d="M304,384.63c0-2.68.69-4.21,3.2-4.21s3.22,1.51,3.22,4.21-.7,4.14-3.22,4.14S304,387.35,304,384.63Zm5.48,0c0-2.2-.42-3.42-2.28-3.42s-2.27,1.21-2.27,3.42.39,3.34,2.27,3.34S309.49,386.92,309.49,384.63Z" fill="#4c4c4c"/><path d="M315.72,382.84l0,.72s-.94-.11-1.38-.11c-1.35,0-1.72.59-1.72,2.16,0,1.74.28,2.37,1.73,2.37.45,0,1.38-.1,1.38-.1l0,.73a15.93,15.93,0,0,1-1.63.16c-1.87,0-2.42-.86-2.42-3.16,0-2.12.69-2.94,2.44-2.94A14.19,14.19,0,0,1,315.72,382.84Z" fill="#4c4c4c"/><path d="M318.22,383.55v2.8c0,1.28.08,1.65.84,1.65.33,0,1.05-.07,1.05-.07l.05.72a10,10,0,0,1-1.19.13c-1.21,0-1.62-.46-1.62-2.15v-3.08h-.84v-.76h.84V381h.87v1.8h1.86v.76Z" fill="#4c4c4c"/><path d="M350.56,380.53h1.69l3.11,7.33h.25v-7.33h.89v8.12h-1.65l-3.16-7.32h-.22v7.32h-.91Z" fill="#4c4c4c"/><path d="M363.11,385.65c0,2.13-.53,3.12-2.52,3.12s-2.51-1-2.51-3.12.66-3,2.51-3S363.11,383.63,363.11,385.65Zm-.91,0c0-1.63-.35-2.22-1.61-2.22s-1.6.59-1.6,2.22.22,2.36,1.6,2.36S362.2,387.32,362.2,385.65Z" fill="#4c4c4c"/><path d="M364.82,382.79l1.37,5.1h.43l1.42-5.1H369l-1.66,5.86h-1.76l-1.65-5.86Z" fill="#4c4c4c"/><path d="M399.47,388.65v-8.12h2.9c2.36,0,3,1.65,3,4s-.61,4.17-3,4.17Zm2.9-7.32h-2v6.53h2c1.69,0,2.08-1.62,2.08-3.38S404.06,381.33,402.37,381.33Z" fill="#4c4c4c"/><path d="M411.22,387.89l0,.69a20.28,20.28,0,0,1-2.29.19c-1.74,0-2.32-1-2.32-3,0-2.22,1-3.08,2.45-3.08s2.36.82,2.36,2.74l-.05.67h-3.87c0,1.26.39,1.92,1.54,1.92C409.94,388,411.22,387.89,411.22,387.89Zm-.66-2.51c0-1.46-.44-2-1.48-2s-1.56.55-1.57,2Z" fill="#4c4c4c"/><path d="M416.6,382.84l0,.72s-.94-.11-1.39-.11c-1.35,0-1.71.59-1.71,2.16,0,1.74.27,2.37,1.72,2.37.45,0,1.39-.1,1.39-.1l0,.73a15.93,15.93,0,0,1-1.63.16c-1.86,0-2.41-.86-2.41-3.16,0-2.12.69-2.94,2.44-2.94A13.92,13.92,0,0,1,416.6,382.84Z" fill="#4c4c4c"/><path d="M60.53,235.84H56.89v-.69L59,229.79H60l-2.17,5.27h2.72v-2.34h.88v2.34h1v.78h-1v1.46h-.88Z" fill="#4c4c4c"/><path d="M41.37,218.34c0,2.88-1,3.76-2.74,3.76s-2.74-.86-2.74-3.75c0-3.09,1-4,2.73-4S41.37,215.25,41.37,218.34Zm-4.57,0c0,2.36.65,3,1.83,3s1.84-.62,1.84-3c0-2.52-.58-3.21-1.84-3.21S36.8,215.79,36.8,218.35Z" fill="#4c4c4c"/><path d="M34.67,187.67v.79H31l-.21,2.45a4.41,4.41,0,0,1,1.77-.46c1.46,0,2.39.61,2.39,2.21a2.32,2.32,0,0,1-2.52,2.62A12.34,12.34,0,0,1,30,195l.1-.69a15,15,0,0,0,2.31.25,1.59,1.59,0,0,0,1.7-1.78c0-1.14-.64-1.5-1.6-1.5a4.25,4.25,0,0,0-1.78.46l-.61-.12.21-3.9Z" fill="#4c4c4c"/><path d="M41.53,191.54c0,2.88-1,3.75-2.73,3.75s-2.74-.85-2.74-3.74c0-3.1,1-4,2.73-4S41.53,188.44,41.53,191.54Zm-4.56,0c0,2.36.65,3,1.83,3s1.83-.63,1.83-3c0-2.53-.58-3.21-1.83-3.21S37,189,37,191.55Z" fill="#4c4c4c"/><path d="M28.71,159.91h.82v7.51h-.88v-6.53l-1.94,1.28-.39-.66Z" fill="#4c4c4c"/><path d="M37.39,163.78c0,2.88-1,3.76-2.73,3.76s-2.74-.86-2.74-3.75c0-3.09,1-4,2.73-4S37.39,160.69,37.39,163.78Zm-4.56,0c0,2.36.64,3,1.83,3s1.83-.62,1.83-3c0-2.53-.58-3.21-1.83-3.21S32.83,161.23,32.83,163.79Z" fill="#4c4c4c"/><path d="M43.76,163.78c0,2.88-1,3.76-2.73,3.76s-2.74-.86-2.74-3.75c0-3.09,1-4,2.73-4S43.76,160.69,43.76,163.78Zm-4.56,0c0,2.36.65,3,1.83,3s1.83-.62,1.83-3c0-2.53-.58-3.21-1.83-3.21S39.2,161.23,39.2,163.79Z" fill="#4c4c4c"/><path d="M28.71,132.16h.82v7.51h-.88v-6.54l-1.94,1.28-.39-.66Z" fill="#4c4c4c"/><path d="M36.9,132.16V133H33.25L33,135.4a4.34,4.34,0,0,1,1.77-.47c1.46,0,2.39.62,2.39,2.22a2.33,2.33,0,0,1-2.52,2.62,12.34,12.34,0,0,1-2.49-.33l.1-.69a15,15,0,0,0,2.31.25,1.59,1.59,0,0,0,1.7-1.78c0-1.14-.64-1.5-1.6-1.5a4.32,4.32,0,0,0-1.78.45l-.61-.11.21-3.9Z" fill="#4c4c4c"/><path d="M43.76,136c0,2.88-1,3.75-2.73,3.75s-2.74-.85-2.74-3.74c0-3.1,1-4,2.73-4S43.76,132.93,43.76,136Zm-4.56,0c0,2.35.65,3,1.83,3s1.83-.63,1.83-3c0-2.53-.58-3.21-1.83-3.21S39.2,133.48,39.2,136Z" fill="#4c4c4c"/><path d="M133.15,231.64a1.67,1.67,0,0,1-1.25,1.75,1.9,1.9,0,0,1,1.36,1.89c0,1.65-1.27,2.15-2.83,2.15s-2.8-.46-2.8-2a2,2,0,0,1,1.29-2,1.75,1.75,0,0,1-1.17-1.76c0-1.3,1-1.95,2.68-1.95S133.15,230.32,133.15,231.64Zm-.82,3.55c0-.88-.58-1.16-1.33-1.38h-1.2c-.78.22-1.24.61-1.24,1.45,0,1,.8,1.38,1.87,1.38S132.33,236.29,132.33,235.19Zm-3.64-3.46c0,.69.37,1.06,1.11,1.32H131c.77-.25,1.21-.62,1.21-1.31,0-.9-.67-1.26-1.77-1.26S128.69,230.83,128.69,231.73Z" fill="#4c4c4c"/><path d="M195,229.81h.82v7.51H195v-6.54L193,232.06l-.4-.66Z" fill="#4c4c4c"/><path d="M198.56,237.32v-.74l2.2-2.31c.93-1,1.51-1.58,1.51-2.47s-.55-1.32-1.63-1.32a10.87,10.87,0,0,0-1.95.25l-.07-.73a9,9,0,0,1,2.17-.31c1.59,0,2.38.6,2.38,2,0,1.12-.51,1.78-1.57,2.81l-2,2h3.77v.76Z" fill="#4c4c4c"/><path d="M274.48,229.81h.82v7.51h-.88v-6.54l-1.93,1.28-.4-.66Z" fill="#4c4c4c"/><path d="M282.73,230.6a18.39,18.39,0,0,0-2-.13c-1.31,0-2,.93-2,2.59a6.38,6.38,0,0,1,1.88-.44c1.66,0,2.53.75,2.53,2.33a2.32,2.32,0,0,1-2.63,2.48c-1.87,0-2.69-1.47-2.69-3.9,0-2.72,1.15-3.84,2.94-3.84a14.45,14.45,0,0,1,2.06.19Zm-4,3.23c0,1.61.49,2.83,1.79,2.83a1.55,1.55,0,0,0,1.72-1.71c0-1-.63-1.55-1.68-1.55A5.29,5.29,0,0,0,278.71,233.83Z" fill="#4c4c4c"/><path d="M343.45,237.32v-.74l2.2-2.31c.93-1,1.51-1.58,1.51-2.47s-.56-1.32-1.64-1.32a10.85,10.85,0,0,0-1.94.25l-.07-.73a9,9,0,0,1,2.17-.31c1.58,0,2.38.6,2.38,2,0,1.12-.51,1.78-1.57,2.81l-2,2h3.76v.76Z" fill="#4c4c4c"/><path d="M355,233.68c0,2.88-1,3.75-2.74,3.75s-2.74-.85-2.74-3.74c0-3.1,1-4,2.73-4S355,230.58,355,233.68Zm-4.57,0c0,2.35.65,3,1.83,3s1.84-.63,1.84-3c0-2.53-.58-3.21-1.84-3.21S350.39,231.13,350.39,233.69Z" fill="#4c4c4c"/><path d="M410.46,237.32v-.74l2.2-2.31c.93-1,1.51-1.58,1.51-2.47s-.55-1.32-1.64-1.32a10.85,10.85,0,0,0-1.94.25l-.07-.73a9,9,0,0,1,2.17-.31c1.59,0,2.38.6,2.38,2,0,1.12-.51,1.78-1.57,2.81l-2,2h3.77v.76Z" fill="#4c4c4c"/><path d="M420.15,235.85h-3.64v-.68l2.14-5.36h1l-2.17,5.27h2.72v-2.35H421v2.35h1v.77h-1v1.47h-.87Z" fill="#4c4c4c"/><line x1="53.87" y1="136.53" x2="53.87" y2="225.19" fill="none" stroke="#adadad" stroke-miterlimit="10"/><line x1="422.92" y1="217.53" x2="44.78" y2="217.53" fill="none" stroke="#adadad" stroke-miterlimit="10"/><line x1="437.49" y1="372.74" x2="24.75" y2="372.74" fill="none" stroke="#adadad" stroke-miterlimit="10"/><polyline points="29.01 367.94 43.95 367.94 63.14 364.74 75.94 358.34 90.87 348.74 107.94 342.34 122.87 334.88 131.4 328.48 151.66 318.88 170.86 314.61 195.39 318.88 211.39 325.28 231.65 333.81 246.59 348.74 259.38 354.08 282.85 358.34 307.38 362.61 323.37 363.67 358.57 364.74 394.83 367.94 422.56 364.74 433.23 358.34" fill="none" stroke="#f2a120" stroke-miterlimit="10" stroke-width="3"/><polyline points="58.5 214.42 72.51 206.36 91.13 191.87 110.79 191.87 117 183.6 130.44 172.22 142.86 184.63 162.51 183.6 175.96 175.32 188.38 167.04 200.79 175.32 219.41 172.22 231.83 175.32 252.52 187.73 271.14 187.73 290.79 167.04 306.83 148.94 324.41 139.63 337.86 130.32 349.24 130.32 363.73 136.53 376.14 139.63 385.45 144.8 395.8 157.22 404.07 179.98 409.76 202.22 419.07 213.6" fill="none" stroke="#f2a120" stroke-miterlimit="10" stroke-width="3"/></g></g></svg>