<svg xmlns="http://www.w3.org/2000/svg" viewBox="0 0 579.59 494.77"><title>r_2_C_Tablet_1</title><g id="Layer_2" data-name="Layer 2"><g id="Layer_2-2" data-name="Layer 2"><rect y="0.5" width="579.59" height="494.27" fill="#f7f7f7"/><line x1="0.23" y1="0.5" x2="579.59" y2="0.5" fill="none" stroke="#ddd" stroke-miterlimit="10"/></g><g id="MC_Tab_Content"><path d="M135.46,86.9h4.2l3,10.08h.18V86.9h2.49V99.14h-4.09l-3.06-10.08H138V99.14h-2.49Z" fill="#4c4c4c"/><path d="M154.62,96.69c0,.54.1.76.59.85l-.07,1.82a4,4,0,0,1-2.58-.63,6.88,6.88,0,0,1-2.64.63c-1.89,0-2.79-1-2.79-3s1.17-2.61,3.15-2.76l1.92-.14V93c0-.77-.34-1-1.06-1-1.19,0-3.38.14-3.38.14l-.08-1.67a16.23,16.23,0,0,1,3.66-.53c2.34,0,3.28.92,3.28,3Zm-4.06-1.36c-.62,0-1,.36-1,1s.23,1.07.88,1.07a7.64,7.64,0,0,0,1.76-.29V95.18Z" fill="#4c4c4c"/><path d="M156.92,99.14v-9h2.39v.5a5.58,5.58,0,0,1,2.13-.72,2.84,2.84,0,0,1,2.25.85,8.12,8.12,0,0,1,3-.85c2.45,0,3.17,1.44,3.17,4.34v4.88h-2.41v-4.8c0-1.37-.18-2.25-1.26-2.25a6.24,6.24,0,0,0-1.68.34s.08,1.35.08,2v4.66h-2.42V94.52c0-1.63-.14-2.43-1.26-2.43a5,5,0,0,0-1.6.32v6.73Z" fill="#4c4c4c"/><path d="M179.15,97.07l0,1.78a18.85,18.85,0,0,1-3.75.51c-2.72,0-3.87-1.35-3.87-4.59s1.35-4.85,4-4.85,3.92,1.35,3.92,4.07l-.18,1.68H174c0,1.08.52,1.56,1.82,1.56C177.3,97.23,179.15,97.07,179.15,97.07Zm-2.05-3.24c0-1.46-.42-1.93-1.55-1.93s-1.55.56-1.57,1.93Z" fill="#4c4c4c"/><path d="M181.09,91h2.6v3h-2.6Zm0,5.2h2.6v3h-2.6Z" fill="#4c4c4c"/><path d="M190.18,86.68h7.58v1.23h-6.19v4.3h5.11v1.21h-5.11v4.5h6.19v1.22h-7.58Z" fill="#4c4c4c"/><path d="M199.9,99.14v-9h1.33v.63a6.1,6.1,0,0,1,2.63-.81,2.52,2.52,0,0,1,2.34.92,7.53,7.53,0,0,1,3.21-.92c2.45,0,3,1.17,3,4.43v4.75H211.1V94.43c0-2.38-.27-3.26-1.89-3.26a6,6,0,0,0-2.54.66,10.29,10.29,0,0,1,.24,2.63v4.68h-1.35V94.5c0-2.49-.26-3.33-1.89-3.33a5.46,5.46,0,0,0-2.42.66v7.31Z" fill="#4c4c4c"/><path d="M215,86.54h1.35v1.57H215Zm0,3.6h1.35v9H215Z" fill="#4c4c4c"/><path d="M219,86.22h1.35V99.14H219Z" fill="#4c4c4c"/><path d="M223.05,86.54h1.35v1.57h-1.35Zm0,3.6h1.35v9h-1.35Z" fill="#4c4c4c"/><path d="M233.35,97.47c0,.52.46.72,1,.79l0,1.06a2.76,2.76,0,0,1-2.15-.72,9.2,9.2,0,0,1-3.24.72c-1.64,0-2.53-.93-2.53-2.75s.89-2.49,2.75-2.67l2.83-.27v-.77c0-1.26-.54-1.71-1.62-1.71-1.26,0-3.41.23-3.41.23l-.05-1a21.6,21.6,0,0,1,3.53-.4c2,0,2.9.94,2.9,2.9Zm-4-2.56c-1.1.11-1.53.63-1.53,1.62s.45,1.66,1.37,1.66a9.57,9.57,0,0,0,2.83-.56v-3Z" fill="#4c4c4c"/><path d="M92.94,257h2.27v11.89H92.73v-9.08l-2.58,1.66L89,259.61Z" fill="#4c4c4c"/><path d="M99,257h7.6v2.81l-4.24,9.29-2.3-.65,4.05-8.66v-.57H99Z" fill="#4c4c4c"/><path d="M108.85,260.69h2.6v3h-2.6Zm0,5.21h2.6v3h-2.6Z" fill="#4c4c4c"/><path d="M122.1,263c0,4.5-1.65,6.08-4.61,6.08s-4.6-1.58-4.6-6.08,1.65-6.23,4.6-6.23S122.1,258.52,122.1,263Zm-6.66,0c0,2.91.63,3.92,2.07,3.92s2-1,2-3.92c0-3.1-.6-4.07-2-4.07S115.44,259.92,115.44,263Z" fill="#4c4c4c"/><path d="M132.18,263c0,4.5-1.65,6.08-4.61,6.08S123,267.52,123,263s1.65-6.23,4.6-6.23S132.18,258.52,132.18,263Zm-6.66,0c0,2.91.63,3.92,2.07,3.92s2-1,2-3.92c0-3.1-.6-4.07-2-4.07S125.52,259.92,125.52,263Z" fill="#4c4c4c"/><path d="M174.7,257H177v11.89h-2.49v-9.08l-2.57,1.66-1.14-1.86Z" fill="#4c4c4c"/><path d="M188.9,260.05a2.78,2.78,0,0,1-1.3,2.72,3.21,3.21,0,0,1,1.48,2.89c0,2.51-2.05,3.44-4.55,3.44s-4.51-.74-4.51-3.24a3.4,3.4,0,0,1,1.5-3.09,3,3,0,0,1-1.3-2.74c0-2,1.71-3.24,4.31-3.24S188.9,258,188.9,260.05Zm-2.48,5.24a1.46,1.46,0,0,0-1.07-1.36h-1.58a1.45,1.45,0,0,0-1.08,1.36c0,1.09.61,1.58,1.84,1.58S186.42,266.38,186.42,265.29Zm-3.53-4.87a1.67,1.67,0,0,0,.88,1.41h1.58a1.68,1.68,0,0,0,.89-1.41c0-.9-.58-1.4-1.68-1.4S182.89,259.52,182.89,260.42Z" fill="#4c4c4c"/><path d="M190.61,260.69h2.59v3h-2.59Zm0,5.21h2.59v3h-2.59Z" fill="#4c4c4c"/><path d="M203.86,263c0,4.5-1.66,6.08-4.61,6.08s-4.61-1.58-4.61-6.08,1.66-6.23,4.61-6.23S203.86,258.52,203.86,263Zm-6.66,0c0,2.91.63,3.92,2.07,3.92s2-1,2-3.92c0-3.1-.59-4.07-2-4.07S197.2,259.92,197.2,263Z" fill="#4c4c4c"/><path d="M213.94,263c0,4.5-1.66,6.08-4.61,6.08s-4.61-1.58-4.61-6.08,1.66-6.23,4.61-6.23S213.94,258.52,213.94,263Zm-6.66,0c0,2.91.63,3.92,2.07,3.92s2-1,2-3.92c0-3.1-.59-4.07-2-4.07S207.28,259.92,207.28,263Z" fill="#4c4c4c"/><path d="M259.49,257h2.27v11.89h-2.49v-9.08l-2.57,1.66-1.14-1.86Z" fill="#4c4c4c"/><path d="M265.43,266.67a27.3,27.3,0,0,0,3.34.27c1.64,0,2.4-1.1,2.4-2.92a8.67,8.67,0,0,1-2.27.55c-2.57,0-4.09-1.23-4.09-3.8s1.68-4,4.36-4c3.13,0,4.56,2.32,4.56,6.08,0,4.72-1.91,6.23-5,6.23a17.9,17.9,0,0,1-3.56-.52Zm5.76-4.68c0-1.67-.51-3-2-3a1.64,1.64,0,0,0-1.8,1.82c0,1.09.65,1.63,1.75,1.63A7,7,0,0,0,271.19,262Z" fill="#4c4c4c"/><path d="M275.4,260.69H278v3H275.4Zm0,5.21H278v3H275.4Z" fill="#4c4c4c"/><path d="M288.65,263c0,4.5-1.66,6.08-4.61,6.08s-4.61-1.58-4.61-6.08,1.66-6.23,4.61-6.23S288.65,258.52,288.65,263ZM282,263c0,2.91.63,3.92,2.07,3.92s2-1,2-3.92c0-3.1-.59-4.07-2-4.07S282,259.92,282,263Z" fill="#4c4c4c"/><path d="M298.73,263c0,4.5-1.66,6.08-4.61,6.08s-4.61-1.58-4.61-6.08,1.66-6.23,4.61-6.23S298.73,258.52,298.73,263Zm-6.66,0c0,2.91.63,3.92,2.07,3.92s2-1,2-3.92c0-3.1-.59-4.07-2-4.07S292.07,259.92,292.07,263Z" fill="#4c4c4c"/><path d="M337.16,268.89v-2.11l2.53-2.58c1.55-1.58,2.42-2.5,2.42-3.65s-.56-1.57-1.95-1.57a20.42,20.42,0,0,0-2.81.27l-.12-1.92a13.88,13.88,0,0,1,3.56-.54c2.72,0,3.87,1.19,3.87,3.4,0,1.84-.7,2.88-2.66,4.66l-2.07,1.88h4.93v2.16Z" fill="#4c4c4c"/><path d="M355.72,263c0,4.5-1.66,6.08-4.61,6.08s-4.61-1.58-4.61-6.08,1.65-6.23,4.61-6.23S355.72,258.52,355.72,263Zm-6.66,0c0,2.91.63,3.92,2.07,3.92s2-1,2-3.92c0-3.1-.59-4.07-2-4.07S349.06,259.92,349.06,263Z" fill="#4c4c4c"/><path d="M357.15,260.69h2.6v3h-2.6Zm0,5.21h2.6v3h-2.6Z" fill="#4c4c4c"/><path d="M370.41,263c0,4.5-1.66,6.08-4.61,6.08s-4.61-1.58-4.61-6.08,1.65-6.23,4.61-6.23S370.41,258.52,370.41,263Zm-6.67,0c0,2.91.63,3.92,2.07,3.92s2-1,2-3.92c0-3.1-.6-4.07-2-4.07S363.74,259.92,363.74,263Z" fill="#4c4c4c"/><path d="M380.49,263c0,4.5-1.66,6.08-4.61,6.08s-4.61-1.58-4.61-6.08,1.65-6.23,4.61-6.23S380.49,258.52,380.49,263Zm-6.67,0c0,2.91.63,3.92,2.07,3.92s2-1,2-3.92c0-3.1-.6-4.07-2-4.07S373.82,259.92,373.82,263Z" fill="#4c4c4c"/><path d="M417.68,268.89v-2.11l2.54-2.58c1.55-1.58,2.41-2.5,2.41-3.65s-.56-1.57-1.94-1.57a20.22,20.22,0,0,0-2.81.27l-.13-1.92a14,14,0,0,1,3.57-.54c2.72,0,3.87,1.19,3.87,3.4,0,1.84-.7,2.88-2.67,4.66l-2.07,1.88h4.94v2.16Z" fill="#4c4c4c"/><path d="M431.85,257h2.27v11.89h-2.49v-9.08l-2.57,1.66-1.14-1.86Z" fill="#4c4c4c"/><path d="M437.68,260.69h2.59v3h-2.59Zm0,5.21h2.59v3h-2.59Z" fill="#4c4c4c"/><path d="M450.93,263c0,4.5-1.66,6.08-4.61,6.08s-4.61-1.58-4.61-6.08,1.66-6.23,4.61-6.23S450.93,258.52,450.93,263Zm-6.66,0c0,2.91.63,3.92,2.07,3.92s2-1,2-3.92c0-3.1-.59-4.07-2-4.07S444.27,259.92,444.27,263Z" fill="#4c4c4c"/><path d="M461,263c0,4.5-1.66,6.08-4.61,6.08s-4.61-1.58-4.61-6.08,1.66-6.23,4.61-6.23S461,258.52,461,263Zm-6.66,0c0,2.91.63,3.92,2.07,3.92s2-1,2-3.92c0-3.1-.59-4.07-2-4.07S454.35,259.92,454.35,263Z" fill="#4c4c4c"/><path d="M142.81,111.59s-2.54-.29-3.58-.29c-1.34,0-2,.49-2,1.3s.49,1,2.54,1.69c2.65.85,3.46,1.59,3.46,3.62,0,2.66-1.82,3.91-4.23,3.91a22.7,22.7,0,0,1-4.09-.56l.25-1.93s2.42.33,3.69.33,1.91-.63,1.91-1.59c0-.75-.43-1.1-2.19-1.6-2.76-.79-3.8-1.73-3.8-3.69,0-2.54,1.69-3.64,4.17-3.64a25.48,25.48,0,0,1,4,.49Z" fill="#4c4c4c"/><path d="M152.76,112.6v9h-2.39v-.5a6,6,0,0,1-2.25.72c-2.63,0-3.17-1.46-3.17-4.5V112.6h2.41v4.75c0,1.6.07,2.31,1.26,2.31a5.3,5.3,0,0,0,1.73-.33V112.6Z" fill="#4c4c4c"/><path d="M155,112.6h2.4v1a10.87,10.87,0,0,1,2.88-1.17v2.43a22.37,22.37,0,0,0-2.86.76v6H155Z" fill="#4c4c4c"/><path d="M161.69,121.6v-9h2.39v.5a5.49,5.49,0,0,1,2.25-.72c2.53,0,3.17,1.59,3.17,4.34v4.88h-2.41v-4.81c0-1.36-.18-2.25-1.35-2.25a4.83,4.83,0,0,0-1.64.33v6.73Z" fill="#4c4c4c"/><path d="M178.54,119.15c0,.54.11.76.59.85l-.07,1.82a4,4,0,0,1-2.57-.63,7,7,0,0,1-2.65.63c-1.89,0-2.79-1-2.79-3s1.17-2.61,3.15-2.75l1.93-.14v-.56c0-.78-.35-1-1.07-1-1.18,0-3.38.15-3.38.15l-.07-1.68a16.37,16.37,0,0,1,3.65-.52c2.34,0,3.28.92,3.28,3Zm-4-1.37c-.63.06-1,.36-1,1s.23,1.06.88,1.06a7.9,7.9,0,0,0,1.77-.28v-1.93Z" fill="#4c4c4c"/><path d="M180.84,121.6v-9h2.39v.5a5.58,5.58,0,0,1,2.13-.72,2.84,2.84,0,0,1,2.25.85,8.12,8.12,0,0,1,3-.85c2.44,0,3.16,1.44,3.16,4.34v4.88h-2.41v-4.81c0-1.36-.18-2.25-1.26-2.25a6,6,0,0,0-1.67.35s.07,1.35.07,2v4.66h-2.41V117c0-1.62-.15-2.43-1.26-2.43a4.93,4.93,0,0,0-1.61.33v6.73Z" fill="#4c4c4c"/><path d="M203.07,119.53l0,1.78a18.85,18.85,0,0,1-3.75.51c-2.72,0-3.87-1.35-3.87-4.59s1.35-4.85,4-4.85,3.93,1.35,3.93,4.07l-.18,1.68h-5.3c0,1.08.52,1.56,1.82,1.56C201.22,119.69,203.07,119.53,203.07,119.53Zm-2-3.24c0-1.46-.41-1.93-1.55-1.93s-1.55.56-1.57,1.93Z" fill="#4c4c4c"/><path d="M205,113.41h2.6v3H205Zm0,5.2h2.6v3H205Z" fill="#4c4c4c"/><path d="M214.1,109.14h2.51l3.53,10.53,3.52-10.53h2.51V121.6h-1.39v-11h-.25l-3.62,10.53h-1.55l-3.62-10.53h-.25v11H214.1Z" fill="#4c4c4c"/><path d="M236.3,117c0,3.28-.81,4.79-3.85,4.79s-3.86-1.51-3.86-4.79c0-3.1,1-4.57,3.86-4.57S236.3,113.89,236.3,117Zm-1.39,0c0-2.5-.54-3.4-2.46-3.4s-2.47.9-2.47,3.4.34,3.62,2.47,3.62S234.91,119.55,234.91,117Z" fill="#4c4c4c"/><path d="M238.6,108.67H240V121.6H238.6Z" fill="#4c4c4c"/><path d="M249.3,120.43l0,1.06a31.12,31.12,0,0,1-3.51.29c-2.68,0-3.56-1.57-3.56-4.63,0-3.42,1.47-4.73,3.76-4.73s3.62,1.26,3.62,4.21l-.07,1h-5.95c0,1.92.6,2.93,2.36,2.93C247.33,120.59,249.3,120.43,249.3,120.43Zm-1-3.85c0-2.23-.69-3-2.27-3s-2.4.85-2.41,3Z" fill="#4c4c4c"/><path d="M251.74,121.6v-9h1.33v.63a6.85,6.85,0,0,1,2.79-.81c2.49,0,3.05,1.22,3.05,4.43v4.75h-1.34v-4.72c0-2.37-.26-3.26-1.94-3.26a6.12,6.12,0,0,0-2.54.67v7.31Z" fill="#4c4c4c"/><path d="M138,140v4.11h-2.49V131.81h4.76c2.79,0,4.32,1.25,4.32,4a3.89,3.89,0,0,1-1.8,3.53l1.74,4.68h-2.71L140.34,140Zm2.27-6H138v3.89h2.3c1.24,0,1.75-.87,1.75-2A1.7,1.7,0,0,0,140.22,133.94Z" fill="#4c4c4c"/><path d="M154.22,139.54c0,2.77-1,4.73-4.14,4.73s-4.14-2-4.14-4.73,1-4.7,4.14-4.7S154.22,136.77,154.22,139.54Zm-2.45,0c0-1.75-.36-2.65-1.69-2.65s-1.69.9-1.69,2.65.36,2.68,1.69,2.68S151.77,141.29,151.77,139.54Z" fill="#4c4c4c"/><path d="M156.09,131.45h2.41v12.61h-2.41Z" fill="#4c4c4c"/><path d="M168,142l0,1.78a19.2,19.2,0,0,1-3.75.5c-2.72,0-3.87-1.35-3.87-4.59s1.35-4.84,4-4.84,3.93,1.35,3.93,4.07l-.18,1.67h-5.3c0,1.08.53,1.57,1.82,1.57C166.12,142.15,168,142,168,142Zm-2.05-3.24c0-1.46-.41-1.93-1.55-1.93s-1.55.56-1.56,1.93Z" fill="#4c4c4c"/><path d="M169.91,135.87h2.6v3h-2.6Zm0,5.2h2.6v3h-2.6Z" fill="#4c4c4c"/><path d="M183.94,137.68h3.44v6.13a31,31,0,0,1-4,.43c-3.82,0-4.83-2.34-4.83-6.38s1-6.44,4.79-6.44a23.17,23.17,0,0,1,4.09.47l-.06,1.15a28.37,28.37,0,0,0-3.87-.38c-2.88,0-3.51,1.68-3.51,5.2s.61,5.15,3.49,5.15a16.86,16.86,0,0,0,2.58-.25v-3.83h-2.07Z" fill="#4c4c4c"/><path d="M189.86,135.06h1.33v1.22a10.17,10.17,0,0,1,3.3-1.42v1.37a13,13,0,0,0-3.28,1.22v6.61h-1.35Z" fill="#4c4c4c"/><path d="M203.4,139.45c0,3.28-.81,4.79-3.86,4.79s-3.85-1.51-3.85-4.79c0-3.1,1-4.57,3.85-4.57S203.4,136.35,203.4,139.45Zm-1.39,0c0-2.5-.54-3.4-2.47-3.4s-2.46.9-2.46,3.4.34,3.62,2.46,3.62S202,142,202,139.45Z" fill="#4c4c4c"/><path d="M212.56,135.06v9h-1.35v-.63a6.08,6.08,0,0,1-2.67.81c-2.52,0-3-1.17-3-4.48v-4.7h1.35v4.68c0,2.48.22,3.29,1.89,3.29a5.53,5.53,0,0,0,2.47-.66v-7.31Z" fill="#4c4c4c"/><path d="M215.15,144.06v-9h1.33v.63a6.85,6.85,0,0,1,2.79-.81c2.49,0,3,1.22,3,4.43v4.75H221v-4.72c0-2.38-.27-3.26-1.94-3.26a6.12,6.12,0,0,0-2.54.67v7.31Z" fill="#4c4c4c"/><path d="M231.73,144.06H230.4v-.61a6.49,6.49,0,0,1-2.74.79c-1.77,0-3.24-.72-3.24-4.61,0-3.17,1-4.75,3.76-4.75a16,16,0,0,1,2.22.23v-4h1.33Zm-1.33-1.69v-6.11a16.26,16.26,0,0,0-2.15-.21c-1.89,0-2.45,1.24-2.45,3.58,0,2.92,1,3.4,2,3.4A6.62,6.62,0,0,0,230.4,142.37Z" fill="#4c4c4c"/><path d="M238,137.88c0-4.1,1.07-6.46,4.92-6.46s4.93,2.32,4.93,6.46c0,4.29-1.06,6.36-4.93,6.36S238,142.06,238,137.88Zm8.41,0c0-3.36-.65-5.24-3.49-5.24s-3.49,1.86-3.49,5.24.61,5.13,3.49,5.13S246.43,141.39,246.43,137.88Z" fill="#4c4c4c"/><path d="M250.18,135.06h1.33v.64a6.17,6.17,0,0,1,2.7-.82c2.27,0,3.26,1.38,3.26,4.57,0,3.53-1.16,4.79-3.93,4.79a11.25,11.25,0,0,1-2-.2v4h-1.34Zm1.34,1.74v6.07a13.12,13.12,0,0,0,1.95.2c2,0,2.63-1,2.63-3.62s-.78-3.37-2.09-3.37A5.93,5.93,0,0,0,251.52,136.8Z" fill="#4c4c4c"/><path d="M266.31,142.89l0,1.06a31.12,31.12,0,0,1-3.51.29c-2.68,0-3.56-1.57-3.56-4.63,0-3.42,1.47-4.73,3.76-4.73s3.62,1.26,3.62,4.21l-.07,1h-5.95c0,1.93.6,2.94,2.36,2.94C264.34,143.05,266.31,142.89,266.31,142.89Zm-1-3.86c0-2.23-.69-3-2.27-3s-2.4.85-2.41,3Z" fill="#4c4c4c"/><path d="M268.75,135.06h1.33v1.22a10.17,10.17,0,0,1,3.3-1.42v1.37a13.15,13.15,0,0,0-3.28,1.22v6.61h-1.35Z" fill="#4c4c4c"/><path d="M281.33,142.38c0,.53.47.72,1.05.8l-.06,1.06a2.75,2.75,0,0,1-2.14-.72,9.2,9.2,0,0,1-3.24.72c-1.64,0-2.54-.94-2.54-2.76s.9-2.48,2.76-2.66l2.82-.27v-.78c0-1.26-.54-1.71-1.62-1.71-1.26,0-3.4.24-3.4.24l0-1a22.13,22.13,0,0,1,3.53-.39c2,0,2.89.93,2.89,2.89Zm-4-2.55c-1.1.1-1.53.63-1.53,1.62s.45,1.65,1.37,1.65a9.61,9.61,0,0,0,2.82-.55v-3Z" fill="#4c4c4c"/><path d="M285.8,136.23v4.3c0,2,.12,2.52,1.29,2.52.51,0,1.61-.11,1.61-.11l.09,1.12a15.71,15.71,0,0,1-1.84.2c-1.86,0-2.49-.71-2.49-3.3v-4.73h-1.27v-1.17h1.27V132.3h1.34v2.76h2.86v1.17Z" fill="#4c4c4c"/><path d="M290.31,131.45h1.35V133h-1.35Zm0,3.61h1.35v9h-1.35Z" fill="#4c4c4c"/><path d="M301.57,139.45c0,3.28-.81,4.79-3.86,4.79s-3.85-1.51-3.85-4.79c0-3.1,1-4.57,3.85-4.57S301.57,136.35,301.57,139.45Zm-1.39,0c0-2.5-.54-3.4-2.47-3.4s-2.46.9-2.46,3.4.34,3.62,2.46,3.62S300.18,142,300.18,139.45Z" fill="#4c4c4c"/><path d="M303.76,144.06v-9h1.33v.63a6.85,6.85,0,0,1,2.79-.81c2.49,0,3.05,1.22,3.05,4.43v4.75h-1.34v-4.72c0-2.38-.27-3.26-1.94-3.26a6.12,6.12,0,0,0-2.54.67v7.31Z" fill="#4c4c4c"/><path d="M319.94,131.6h3l3.42,12.46H325l-.9-3.21h-5.33l-.9,3.21h-1.37Zm-.84,8h4.71l-1.89-6.82H321Z" fill="#4c4c4c"/><path d="M334.09,136.37a29.33,29.33,0,0,0-3.15-.29c-1.12,0-2,.31-2,1.37,0,.85.43,1.08,2.34,1.4,2.25.38,3.1.83,3.1,2.58,0,2.11-1.34,2.81-3.5,2.81a25.65,25.65,0,0,1-3.17-.34l.08-1.17s2.05.3,3,.3c1.47,0,2.27-.32,2.27-1.55,0-.93-.47-1.17-2.43-1.47s-3-.7-3-2.5c0-2,1.6-2.63,3.24-2.63a23.19,23.19,0,0,1,3.26.34Z" fill="#4c4c4c"/><path d="M342.46,136.37a29.33,29.33,0,0,0-3.15-.29c-1.12,0-2,.31-2,1.37,0,.85.43,1.08,2.34,1.4,2.25.38,3.1.83,3.1,2.58,0,2.11-1.34,2.81-3.5,2.81a25.65,25.65,0,0,1-3.17-.34l.08-1.17s2.05.3,3,.3c1.47,0,2.27-.32,2.27-1.55,0-.93-.47-1.17-2.43-1.47s-3-.7-3-2.5c0-2,1.6-2.63,3.24-2.63a23.19,23.19,0,0,1,3.26.34Z" fill="#4c4c4c"/><path d="M344.86,131.45h1.34V133h-1.34Zm0,3.61h1.34v9h-1.34Z" fill="#4c4c4c"/><path d="M354.77,136.37a29.33,29.33,0,0,0-3.15-.29c-1.11,0-2,.31-2,1.37,0,.85.43,1.08,2.34,1.4,2.25.38,3.1.83,3.1,2.58,0,2.11-1.33,2.81-3.49,2.81a25.4,25.4,0,0,1-3.17-.34l.07-1.17s2.05.3,3,.3c1.48,0,2.27-.32,2.27-1.55,0-.93-.47-1.17-2.43-1.47s-3-.7-3-2.5c0-2,1.6-2.63,3.24-2.63a23.19,23.19,0,0,1,3.26.34Z" fill="#4c4c4c"/><path d="M359,136.23v4.3c0,2,.12,2.52,1.29,2.52.51,0,1.61-.11,1.61-.11l.09,1.12a15.71,15.71,0,0,1-1.84.2c-1.86,0-2.49-.71-2.49-3.3v-4.73h-1.27v-1.17h1.27V132.3H359v2.76h2.86v1.17Z" fill="#4c4c4c"/><path d="M369.84,142.38c0,.53.47.72,1,.8l-.05,1.06a2.75,2.75,0,0,1-2.14-.72,9.2,9.2,0,0,1-3.24.72c-1.64,0-2.54-.94-2.54-2.76s.9-2.48,2.75-2.66l2.83-.27v-.78c0-1.26-.54-1.71-1.62-1.71-1.26,0-3.4.24-3.4.24l-.06-1a22.13,22.13,0,0,1,3.53-.39c2,0,2.9.93,2.9,2.89Zm-4-2.55a1.44,1.44,0,0,0-1.53,1.62c0,1,.45,1.65,1.37,1.65a9.63,9.63,0,0,0,2.83-.55v-3Z" fill="#4c4c4c"/><path d="M372.5,144.06v-9h1.33v.63a6.86,6.86,0,0,1,2.8-.81c2.48,0,3,1.22,3,4.43v4.75h-1.33v-4.72c0-2.38-.27-3.26-1.95-3.26a6.18,6.18,0,0,0-2.54.67v7.31Z" fill="#4c4c4c"/><path d="M384,136.23v4.3c0,2,.12,2.52,1.3,2.52.5,0,1.6-.11,1.6-.11l.09,1.12a15.71,15.71,0,0,1-1.84.2c-1.85,0-2.48-.71-2.48-3.3v-4.73h-1.28v-1.17h1.28V132.3H384v2.76h2.86v1.17Z" fill="#4c4c4c"/><path d="M26.48,429h9v1.24h-3.8V441.5H30.31V430.28H26.48Z" fill="#3a3d3f"/><path d="M43.36,439.83c0,.52.47.72,1,.79l-.06,1.06a2.75,2.75,0,0,1-2.14-.72,9.2,9.2,0,0,1-3.24.72c-1.64,0-2.54-.94-2.54-2.75s.9-2.49,2.76-2.67L42,436v-.77c0-1.26-.54-1.71-1.62-1.71-1.26,0-3.4.23-3.4.23l-.05-1a22.1,22.1,0,0,1,3.52-.39c2,0,2.9.93,2.9,2.9Zm-4-2.56c-1.1.11-1.53.63-1.53,1.62s.45,1.66,1.37,1.66A9.47,9.47,0,0,0,42,440v-3Z" fill="#3a3d3f"/><path d="M46,441.5V428.57h1.35v7.64l1.41-.08,2.57-3.63h1.53L50,436.64,53,441.5H51.48l-2.68-4.18-1.43.06v4.12Z" fill="#3a3d3f"/><path d="M61.29,440.33l0,1.06a31.38,31.38,0,0,1-3.51.29c-2.69,0-3.57-1.57-3.57-4.63,0-3.42,1.48-4.73,3.76-4.73s3.62,1.26,3.62,4.21l-.07,1H55.62c0,1.92.59,2.93,2.36,2.93C59.33,440.49,61.29,440.33,61.29,440.33Zm-1-3.85c0-2.24-.68-3-2.27-3s-2.39.85-2.41,3Z" fill="#3a3d3f"/><path d="M74.05,439.83c0,.52.47.72,1,.79L75,441.68A2.75,2.75,0,0,1,72.9,441a9.2,9.2,0,0,1-3.24.72c-1.64,0-2.54-.94-2.54-2.75s.9-2.49,2.75-2.67L72.7,436v-.77c0-1.26-.54-1.71-1.62-1.71-1.26,0-3.4.23-3.4.23l-.06-1a22.3,22.3,0,0,1,3.53-.39c2,0,2.9.93,2.9,2.9Zm-4-2.56c-1.1.11-1.53.63-1.53,1.62s.45,1.66,1.36,1.66A9.48,9.48,0,0,0,72.7,440v-3Z" fill="#3a3d3f"/><path d="M80.78,428.57h1.35V441.5H80.78Z" fill="#3a3d3f"/><path d="M92.14,436.89c0,3.28-.81,4.79-3.85,4.79s-3.85-1.51-3.85-4.79c0-3.1,1-4.57,3.85-4.57S92.14,433.79,92.14,436.89Zm-1.38,0c0-2.5-.54-3.4-2.47-3.4s-2.47.9-2.47,3.4.34,3.62,2.47,3.62S90.76,439.45,90.76,436.89Z" fill="#3a3d3f"/><path d="M101.65,436.89c0,3.28-.81,4.79-3.86,4.79s-3.85-1.51-3.85-4.79c0-3.1,1-4.57,3.85-4.57S101.65,433.79,101.65,436.89Zm-1.39,0c0-2.5-.54-3.4-2.47-3.4s-2.46.9-2.46,3.4.34,3.62,2.46,3.62S100.26,439.45,100.26,436.89Z" fill="#3a3d3f"/><path d="M103.84,441.5V428.57h1.35v7.64l1.4-.08,2.58-3.63h1.53l-2.93,4.14,3.06,4.86H109.3l-2.69-4.18-1.42.06v4.12Z" fill="#3a3d3f"/><path d="M122.78,439.83c0,.52.47.72,1,.79l0,1.06a2.74,2.74,0,0,1-2.14-.72,9.22,9.22,0,0,1-3.25.72c-1.63,0-2.53-.94-2.53-2.75s.9-2.49,2.75-2.67l2.83-.27v-.77c0-1.26-.54-1.71-1.62-1.71-1.26,0-3.41.23-3.41.23l-.05-1a22.13,22.13,0,0,1,3.53-.39c2,0,2.9.93,2.9,2.9Zm-4-2.56c-1.1.11-1.53.63-1.53,1.62s.45,1.66,1.37,1.66a9.57,9.57,0,0,0,2.83-.56v-3Z" fill="#3a3d3f"/><path d="M127.24,433.67V438c0,2,.13,2.52,1.3,2.52.5,0,1.6-.11,1.6-.11l.09,1.12a15.71,15.71,0,0,1-1.84.2c-1.85,0-2.48-.7-2.48-3.3v-4.73h-1.28V432.5h1.28v-2.76h1.33v2.76h2.86v1.17Z" fill="#3a3d3f"/><path d="M142.36,440.33l0,1.06a31.12,31.12,0,0,1-3.51.29c-2.69,0-3.57-1.57-3.57-4.63,0-3.42,1.48-4.73,3.76-4.73s3.62,1.26,3.62,4.21l-.07,1h-5.94c0,1.92.59,2.93,2.36,2.93C140.4,440.49,142.36,440.33,142.36,440.33Zm-1-3.85c0-2.24-.68-3-2.27-3s-2.39.85-2.41,3Z" fill="#3a3d3f"/><path d="M151.16,439.83c0,.52.47.72,1.05.79l-.06,1.06A2.75,2.75,0,0,1,150,441a9.2,9.2,0,0,1-3.24.72c-1.64,0-2.54-.94-2.54-2.75s.9-2.49,2.76-2.67l2.82-.27v-.77c0-1.26-.54-1.71-1.62-1.71-1.26,0-3.4.23-3.4.23l0-1a22.13,22.13,0,0,1,3.53-.39c2,0,2.89.93,2.89,2.9Zm-4-2.56c-1.1.11-1.53.63-1.53,1.62s.45,1.66,1.37,1.66a9.47,9.47,0,0,0,2.82-.56v-3Z" fill="#3a3d3f"/><path d="M159.64,432.59l0,1.09s-1.44-.16-2.13-.16c-2.07,0-2.63.9-2.63,3.32,0,2.66.42,3.63,2.65,3.63.68,0,2.13-.16,2.13-.16l0,1.12a24.28,24.28,0,0,1-2.5.25c-2.87,0-3.71-1.31-3.71-4.84,0-3.26,1.06-4.52,3.74-4.52A20.89,20.89,0,0,1,159.64,432.59Z" fill="#3a3d3f"/><path d="M161.67,441.5V428.57H163V433a7.65,7.65,0,0,1,2.78-.68c2.46,0,3,1.22,3,4.43v4.75h-1.35v-4.72c0-2.37-.27-3.26-1.93-3.26a7.41,7.41,0,0,0-2.54.54v7.44Z" fill="#3a3d3f"/><path d="M181.28,433.81a29.33,29.33,0,0,0-3.15-.29c-1.12,0-2,.31-2,1.37,0,.85.44,1.08,2.34,1.41,2.25.37,3.1.82,3.1,2.57,0,2.11-1.33,2.81-3.49,2.81a25.65,25.65,0,0,1-3.17-.34l.07-1.17s2.05.3,3,.3c1.48,0,2.27-.32,2.27-1.54,0-.94-.47-1.18-2.43-1.48s-3-.7-3-2.5c0-2,1.61-2.63,3.24-2.63a23.19,23.19,0,0,1,3.26.34Z" fill="#3a3d3f"/><path d="M189.48,432.59l0,1.09s-1.44-.16-2.12-.16c-2.07,0-2.63.9-2.63,3.32,0,2.66.41,3.63,2.64,3.63.69,0,2.13-.16,2.13-.16l.05,1.12a24,24,0,0,1-2.5.25c-2.86,0-3.71-1.31-3.71-4.84,0-3.26,1.06-4.52,3.75-4.52A20.91,20.91,0,0,1,189.48,432.59Z" fill="#3a3d3f"/><path d="M191.52,441.5V428.57h1.35V433a7.64,7.64,0,0,1,2.77-.68c2.47,0,3,1.22,3,4.43v4.75h-1.35v-4.72c0-2.37-.27-3.26-1.92-3.26a7.41,7.41,0,0,0-2.54.54v7.44Z" fill="#3a3d3f"/><path d="M207.83,440.33l0,1.06a31.12,31.12,0,0,1-3.51.29c-2.68,0-3.56-1.57-3.56-4.63,0-3.42,1.47-4.73,3.76-4.73s3.62,1.26,3.62,4.21l-.07,1h-5.95c0,1.92.6,2.93,2.36,2.93C205.86,440.49,207.83,440.33,207.83,440.33Zm-1-3.85c0-2.24-.69-3-2.27-3s-2.4.85-2.41,3Z" fill="#3a3d3f"/><path d="M217.19,441.5h-1.34v-.61a6.42,6.42,0,0,1-2.73.79c-1.77,0-3.24-.72-3.24-4.61,0-3.17,1-4.75,3.76-4.75a15.79,15.79,0,0,1,2.21.23v-4h1.34Zm-1.34-1.69V433.7a15.89,15.89,0,0,0-2.14-.21c-1.89,0-2.45,1.24-2.45,3.58,0,2.92,1,3.4,2,3.4A6.54,6.54,0,0,0,215.85,439.81Z" fill="#3a3d3f"/><path d="M226.76,432.5v9h-1.35v-.63a6.07,6.07,0,0,1-2.66.81c-2.52,0-3.05-1.17-3.05-4.48v-4.7h1.35v4.68c0,2.48.22,3.29,1.89,3.29a5.48,5.48,0,0,0,2.47-.66V432.5Z" fill="#3a3d3f"/><path d="M229.46,428.57h1.35V441.5h-1.35Z" fill="#3a3d3f"/><path d="M240.15,440.33l0,1.06a31.12,31.12,0,0,1-3.51.29c-2.68,0-3.57-1.57-3.57-4.63,0-3.42,1.48-4.73,3.77-4.73s3.62,1.26,3.62,4.21l-.08,1h-5.94c0,1.92.6,2.93,2.36,2.93C238.19,440.49,240.15,440.33,240.15,440.33Zm-1-3.85c0-2.24-.69-3-2.27-3s-2.4.85-2.42,3Z" fill="#3a3d3f"/><path d="M252.92,439.83c0,.52.46.72,1,.79l-.05,1.06a2.76,2.76,0,0,1-2.15-.72,9.2,9.2,0,0,1-3.24.72c-1.64,0-2.54-.94-2.54-2.75s.9-2.49,2.76-2.67l2.82-.27v-.77c0-1.26-.54-1.71-1.62-1.71-1.26,0-3.4.23-3.4.23l0-1a22.13,22.13,0,0,1,3.53-.39c2,0,2.9.93,2.9,2.9Zm-4-2.56c-1.1.11-1.53.63-1.53,1.62s.45,1.66,1.37,1.66a9.47,9.47,0,0,0,2.82-.56v-3Z" fill="#3a3d3f"/><path d="M255.58,441.5v-9h1.33v.63a6.85,6.85,0,0,1,2.79-.81c2.49,0,3,1.22,3,4.43v4.75h-1.33v-4.72c0-2.37-.27-3.26-1.94-3.26a6.12,6.12,0,0,0-2.54.67v7.31Z" fill="#3a3d3f"/><path d="M272.16,441.5h-1.34v-.61a6.42,6.42,0,0,1-2.73.79c-1.77,0-3.24-.72-3.24-4.61,0-3.17,1-4.75,3.76-4.75a15.61,15.61,0,0,1,2.21.23v-4h1.34Zm-1.34-1.69V433.7a15.89,15.89,0,0,0-2.14-.21c-1.89,0-2.45,1.24-2.45,3.58,0,2.92,1,3.4,2,3.4A6.54,6.54,0,0,0,270.82,439.81Z" fill="#3a3d3f"/><path d="M285.08,439.83c0,.52.47.72,1,.79l-.05,1.06a2.75,2.75,0,0,1-2.14-.72,9.2,9.2,0,0,1-3.24.72c-1.64,0-2.54-.94-2.54-2.75s.9-2.49,2.75-2.67l2.83-.27v-.77c0-1.26-.54-1.71-1.62-1.71-1.26,0-3.4.23-3.4.23l-.06-1a22.13,22.13,0,0,1,3.53-.39c2,0,2.9.93,2.9,2.9Zm-4-2.56c-1.09.11-1.53.63-1.53,1.62s.45,1.66,1.37,1.66a9.48,9.48,0,0,0,2.83-.56v-3Z" fill="#3a3d3f"/><path d="M293.72,433.81a29.33,29.33,0,0,0-3.15-.29c-1.12,0-2,.31-2,1.37,0,.85.43,1.08,2.34,1.41,2.25.37,3.09.82,3.09,2.57,0,2.11-1.33,2.81-3.49,2.81a25.65,25.65,0,0,1-3.17-.34l.07-1.17s2.06.3,3,.3c1.47,0,2.26-.32,2.26-1.54,0-.94-.46-1.18-2.43-1.48s-3-.7-3-2.5c0-2,1.6-2.63,3.24-2.63a23.19,23.19,0,0,1,3.26.34Z" fill="#3a3d3f"/><path d="M302.09,433.81a29.33,29.33,0,0,0-3.15-.29c-1.12,0-2,.31-2,1.37,0,.85.43,1.08,2.34,1.41,2.25.37,3.09.82,3.09,2.57,0,2.11-1.33,2.81-3.49,2.81a25.65,25.65,0,0,1-3.17-.34l.07-1.17s2.06.3,3,.3c1.47,0,2.26-.32,2.26-1.54,0-.94-.46-1.18-2.43-1.48s-3-.7-3-2.5c0-2,1.6-2.63,3.24-2.63a23.19,23.19,0,0,1,3.26.34Z" fill="#3a3d3f"/><path d="M304.48,428.9h1.35v1.56h-1.35Zm0,3.6h1.35v9h-1.35Z" fill="#3a3d3f"/><path d="M308,443c0-1,.49-1.53,1.42-2.23a1.47,1.47,0,0,1-.5-1.24,5.75,5.75,0,0,1,.61-1.43c-.76-.34-1.42-1.06-1.42-2.71,0-2.22,1.37-3.08,3.36-3.08a9.6,9.6,0,0,1,1.88.23l2.66-.07v1.15l-1.71,0a2.34,2.34,0,0,1,.59,1.8c0,2.34-1.17,3-3.47,3-.18,0-.68,0-.88-.07a5.3,5.3,0,0,0-.33,1c0,.72.15.83,2.18.83,2.56,0,3.48.51,3.48,2.65s-1.46,2.86-4,2.86C309.06,445.73,308,445.1,308,443Zm2.34-1.69c-.76.56-1,.88-1,1.58,0,1.25.52,1.7,2.56,1.7,1.8,0,2.61-.49,2.61-1.68,0-1.37-.58-1.51-2.22-1.51C311.68,441.41,310.37,441.32,310.37,441.32Zm3.2-5.92c0-1.43-.55-2-2.07-2s-2,.55-2,2,.61,2,2,2S313.57,436.82,313.57,435.4Z" fill="#3a3d3f"/><path d="M317.68,441.5v-9H319v.63a6.85,6.85,0,0,1,2.79-.81c2.48,0,3,1.22,3,4.43v4.75h-1.33v-4.72c0-2.37-.27-3.26-1.94-3.26a6.12,6.12,0,0,0-2.54.67v7.31Z" fill="#3a3d3f"/><path d="M331.25,441.5v-1.17l3.47-3.66c1.48-1.53,2.4-2.5,2.4-3.9,0-1.59-.88-2.09-2.59-2.09a17.47,17.47,0,0,0-3.08.39l-.11-1.15a14.58,14.58,0,0,1,3.44-.48c2.5,0,3.76.95,3.76,3.18,0,1.79-.81,2.83-2.48,4.45l-3.17,3.22h6v1.21Z" fill="#3a3d3f"/><path d="M351.16,432.59l-.05,1.09s-1.45-.16-2.13-.16c-2.07,0-2.63.9-2.63,3.32,0,2.66.42,3.63,2.65,3.63.68,0,2.12-.16,2.12-.16l.06,1.12a24.24,24.24,0,0,1-2.51.25c-2.86,0-3.71-1.31-3.71-4.84,0-3.26,1.07-4.52,3.75-4.52A20.89,20.89,0,0,1,351.16,432.59Z" fill="#3a3d3f"/><path d="M360.5,436.89c0,3.28-.81,4.79-3.85,4.79s-3.86-1.51-3.86-4.79c0-3.1,1-4.57,3.86-4.57S360.5,433.79,360.5,436.89Zm-1.39,0c0-2.5-.54-3.4-2.46-3.4s-2.47.9-2.47,3.4.34,3.62,2.47,3.62S359.11,439.45,359.11,436.89Z" fill="#3a3d3f"/><path d="M362.8,428.57h1.35V441.5H362.8Z" fill="#3a3d3f"/><path d="M367,428.57h1.35V441.5H367Z" fill="#3a3d3f"/><path d="M377.65,440.33l0,1.06a31.12,31.12,0,0,1-3.51.29c-2.68,0-3.57-1.57-3.57-4.63,0-3.42,1.48-4.73,3.77-4.73s3.62,1.26,3.62,4.21l-.07,1H372c0,1.92.6,2.93,2.36,2.93C375.69,440.49,377.65,440.33,377.65,440.33Zm-1-3.85c0-2.24-.69-3-2.27-3s-2.4.85-2.41,3Z" fill="#3a3d3f"/><path d="M386.46,439.83c0,.52.46.72,1,.79l-.05,1.06a2.76,2.76,0,0,1-2.15-.72,9.2,9.2,0,0,1-3.24.72c-1.64,0-2.54-.94-2.54-2.75s.9-2.49,2.76-2.67l2.83-.27v-.77c0-1.26-.54-1.71-1.62-1.71-1.26,0-3.41.23-3.41.23l-.05-1a22.13,22.13,0,0,1,3.53-.39c2,0,2.9.93,2.9,2.9Zm-4-2.56c-1.1.11-1.53.63-1.53,1.62s.45,1.66,1.37,1.66a9.57,9.57,0,0,0,2.83-.56v-3Z" fill="#3a3d3f"/><path d="M388.72,443c0-1,.49-1.53,1.42-2.23a1.47,1.47,0,0,1-.5-1.24,5.75,5.75,0,0,1,.61-1.43c-.75-.34-1.42-1.06-1.42-2.71,0-2.22,1.37-3.08,3.37-3.08a9.43,9.43,0,0,1,1.87.23l2.66-.07v1.15l-1.71,0a2.3,2.3,0,0,1,.6,1.8c0,2.34-1.17,3-3.48,3-.18,0-.68,0-.88-.07a5.42,5.42,0,0,0-.32,1c0,.72.14.83,2.18.83,2.55,0,3.47.51,3.47,2.65s-1.46,2.86-4,2.86C389.75,445.73,388.72,445.1,388.72,443Zm2.34-1.69c-.75.56-1,.88-1,1.58,0,1.25.53,1.7,2.56,1.7,1.8,0,2.61-.49,2.61-1.68,0-1.37-.57-1.51-2.21-1.51C392.38,441.41,391.06,441.32,391.06,441.32Zm3.21-5.92c0-1.43-.56-2-2.07-2s-2,.55-2,2,.61,2,2,2S394.27,436.82,394.27,435.4Z" fill="#3a3d3f"/><path d="M405.34,432.5v9H404v-.63a6.08,6.08,0,0,1-2.67.81c-2.52,0-3-1.17-3-4.48v-4.7h1.35v4.68c0,2.48.22,3.29,1.89,3.29a5.53,5.53,0,0,0,2.47-.66V432.5Z" fill="#3a3d3f"/><path d="M414.57,440.33l0,1.06a31.12,31.12,0,0,1-3.51.29c-2.69,0-3.57-1.57-3.57-4.63,0-3.42,1.48-4.73,3.76-4.73s3.62,1.26,3.62,4.21l-.07,1H408.9c0,1.92.59,2.93,2.36,2.93C412.61,440.49,414.57,440.33,414.57,440.33Zm-1-3.85c0-2.24-.68-3-2.27-3s-2.39.85-2.41,3Z" fill="#3a3d3f"/><path d="M423,433.81a29.33,29.33,0,0,0-3.16-.29c-1.11,0-2,.31-2,1.37,0,.85.43,1.08,2.34,1.41,2.25.37,3.1.82,3.1,2.57,0,2.11-1.33,2.81-3.49,2.81a25.4,25.4,0,0,1-3.17-.34l.07-1.17s2,.3,3,.3c1.48,0,2.27-.32,2.27-1.54,0-.94-.47-1.18-2.43-1.48s-3-.7-3-2.5c0-2,1.6-2.63,3.24-2.63a23.19,23.19,0,0,1,3.26.34Z" fill="#3a3d3f"/><path d="M431.08,441.5h-1.35v-7.83h-1.14V432.5h1.14v-.81c0-2.6.66-3.3,2.43-3.3.61,0,1.82.13,1.82.13l0,1.11s-1,0-1.55,0c-1,0-1.33.43-1.33,2.1v.8h2.61v1.17h-2.61Z" fill="#3a3d3f"/><path d="M442.62,436.89c0,3.28-.81,4.79-3.86,4.79s-3.85-1.51-3.85-4.79c0-3.1,1-4.57,3.85-4.57S442.62,433.79,442.62,436.89Zm-1.39,0c0-2.5-.54-3.4-2.47-3.4s-2.46.9-2.46,3.4.34,3.62,2.46,3.62S441.23,439.45,441.23,436.89Z" fill="#3a3d3f"/><path d="M444.81,432.5h1.33v1.22a10.17,10.17,0,0,1,3.3-1.42v1.37a13,13,0,0,0-3.28,1.22v6.61h-1.35Z" fill="#3a3d3f"/><path d="M456.8,433.67V438c0,2,.12,2.52,1.29,2.52.51,0,1.61-.11,1.61-.11l.09,1.12a15.71,15.71,0,0,1-1.84.2c-1.85,0-2.48-.7-2.48-3.3v-4.73h-1.28V432.5h1.28v-2.76h1.33v2.76h2.86v1.17Z" fill="#3a3d3f"/><path d="M461.32,441.5V428.57h1.35V433a7.64,7.64,0,0,1,2.77-.68c2.47,0,3,1.22,3,4.43v4.75h-1.35v-4.72c0-2.37-.27-3.26-1.93-3.26a7.39,7.39,0,0,0-2.53.54v7.44Z" fill="#3a3d3f"/><path d="M471,428.9h1.35v1.56H471Zm0,3.6h1.35v9H471Z" fill="#3a3d3f"/><path d="M480.9,433.81a29.33,29.33,0,0,0-3.15-.29c-1.12,0-2,.31-2,1.37,0,.85.43,1.08,2.34,1.41,2.25.37,3.1.82,3.1,2.57,0,2.11-1.34,2.81-3.5,2.81a25.65,25.65,0,0,1-3.17-.34l.07-1.17s2.06.3,3,.3c1.47,0,2.26-.32,2.26-1.54,0-.94-.46-1.18-2.43-1.48s-3-.7-3-2.5c0-2,1.6-2.63,3.24-2.63a23.19,23.19,0,0,1,3.26.34Z" fill="#3a3d3f"/><path d="M489.05,433.67V438c0,2,.13,2.52,1.3,2.52.5,0,1.6-.11,1.6-.11l.09,1.12a15.44,15.44,0,0,1-1.83.2c-1.86,0-2.49-.7-2.49-3.3v-4.73h-1.28V432.5h1.28v-2.76h1.33v2.76h2.87v1.17Z" fill="#3a3d3f"/><path d="M499.93,439.83c0,.52.47.72,1,.79l-.05,1.06a2.76,2.76,0,0,1-2.15-.72,9.2,9.2,0,0,1-3.24.72c-1.63,0-2.53-.94-2.53-2.75s.9-2.49,2.75-2.67l2.83-.27v-.77c0-1.26-.54-1.71-1.62-1.71-1.26,0-3.41.23-3.41.23l-.05-1a22.13,22.13,0,0,1,3.53-.39c2,0,2.9.93,2.9,2.9Zm-4-2.56c-1.1.11-1.53.63-1.53,1.62s.45,1.66,1.37,1.66a9.57,9.57,0,0,0,2.83-.56v-3Z" fill="#3a3d3f"/><path d="M508.57,433.81a29.33,29.33,0,0,0-3.15-.29c-1.12,0-2,.31-2,1.37,0,.85.44,1.08,2.34,1.41,2.25.37,3.1.82,3.1,2.57,0,2.11-1.33,2.81-3.49,2.81a25.65,25.65,0,0,1-3.17-.34l.07-1.17s2.05.3,3,.3c1.48,0,2.27-.32,2.27-1.54,0-.94-.47-1.18-2.43-1.48s-3-.7-3-2.5c0-2,1.61-2.63,3.24-2.63a23.19,23.19,0,0,1,3.26.34Z" fill="#3a3d3f"/><path d="M511,441.5V428.57h1.35v7.64l1.4-.08,2.58-3.63h1.53l-2.94,4.14,3.06,4.86h-1.53l-2.68-4.18-1.42.06v4.12Z" fill="#3a3d3f"/><path d="M519.49,439.45H521v2.05h-1.48Z" fill="#3a3d3f"/><path d="M36.2,28.29S33.42,28,32.26,28c-2,0-3,.7-3,2.26,0,1.8,1,2.1,3.38,2.64,2.76.62,4,1.3,4,3.72,0,3.06-1.68,4.26-4.42,4.26a36.39,36.39,0,0,1-4.38-.44L28,39.11s2.72.36,4.14.36c2,0,3-.86,3-2.78,0-1.56-.82-2-3.08-2.44-2.86-.62-4.3-1.3-4.3-3.94s1.76-3.72,4.46-3.72a34.46,34.46,0,0,1,4.18.4Z"/><path d="M39.28,26.81H47.7v1.36H40.82V33H46.5v1.34H40.82v5H47.7v1.36H39.28Z"/><path d="M50.34,40.65V26.81h1.54V39.27H58v1.38Z"/><path d="M59.92,26.81h8.42v1.36H61.46V33h5.68v1.34H61.46v5h6.88v1.36H59.92Z"/><path d="M79.34,40.43a20.83,20.83,0,0,1-3.82.42c-4.14,0-5.06-2.52-5.06-7.08s.9-7.16,5.06-7.16a20.32,20.32,0,0,1,3.82.44l-.06,1.3a24.64,24.64,0,0,0-3.6-.36c-3.08,0-3.62,1.84-3.62,5.78s.5,5.7,3.66,5.7a21.88,21.88,0,0,0,3.56-.36Z"/><path d="M80.42,26.81h10v1.38H86.2V40.65H84.68V28.19H80.42Z"/><path d="M105.14,40.43a20.83,20.83,0,0,1-3.82.42c-4.14,0-5.06-2.52-5.06-7.08s.9-7.16,5.06-7.16a20.32,20.32,0,0,1,3.82.44l-.06,1.3a24.64,24.64,0,0,0-3.6-.36c-3.08,0-3.62,1.84-3.62,5.78s.5,5.7,3.66,5.7a21.88,21.88,0,0,0,3.56-.36Z"/><path d="M107.1,33.79c0-4.56,1.18-7.18,5.46-7.18S118,29.19,118,33.79c0,4.76-1.18,7.06-5.48,7.06S107.1,38.43,107.1,33.79Zm9.34,0c0-3.74-.72-5.82-3.88-5.82s-3.88,2.06-3.88,5.82.68,5.7,3.88,5.7S116.44,37.69,116.44,33.79Z"/><path d="M120.86,40.65V26.81h1.54V39.27h6.08v1.38Z"/><path d="M130.44,40.65V26.81H132V39.27h6.08v1.38Z"/><path d="M140,26.81h8.42v1.36h-6.88V33h5.68v1.34h-5.68v5h6.88v1.36H140Z"/><path d="M153.66,26.81H157l3.8,13.84H159.3l-1-3.56h-5.92l-1,3.56h-1.52Zm-.94,8.9H158l-2.1-7.58h-1Z"/><path d="M168.48,33.57h3.82v6.8a33.71,33.71,0,0,1-4.5.48c-4.24,0-5.36-2.6-5.36-7.08s1.16-7.16,5.32-7.16a25.77,25.77,0,0,1,4.54.52l-.06,1.28a31.73,31.73,0,0,0-4.3-.42c-3.2,0-3.9,1.86-3.9,5.78s.68,5.72,3.88,5.72a18.56,18.56,0,0,0,2.86-.28V35h-2.3Z"/><path d="M180,39.49c2.16,0,3.38-.84,3.38-3V26.81h1.52v9.64c0,3.16-1.74,4.4-4.9,4.4s-4.78-1.22-4.78-4.4V26.81h1.54v9.68C176.76,38.65,178,39.49,180,39.49Z"/><path d="M188.2,26.81h8.42v1.36h-6.88V33h5.68v1.34h-5.68v5h6.88v1.36H188.2Z"/><path d="M207,28.29s-2.78-.34-3.94-.34c-2,0-3,.7-3,2.26,0,1.8,1,2.1,3.38,2.64,2.76.62,4,1.3,4,3.72,0,3.06-1.68,4.26-4.42,4.26a36.39,36.39,0,0,1-4.38-.44l.16-1.28s2.72.36,4.14.36c2,0,3-.86,3-2.78,0-1.56-.82-2-3.08-2.44-2.86-.62-4.3-1.3-4.3-3.94s1.76-3.72,4.46-3.72a34.46,34.46,0,0,1,4.18.4Z"/><line x1="28.61" y1="48.96" x2="528.2" y2="48.96" fill="none" stroke="#ddd" stroke-miterlimit="10"/><circle cx="66.54" cy="116.69" r="39.47" fill="#c2e3f2" stroke="#2277d6" stroke-miterlimit="10" stroke-width="3"/><path d="M46,104.71H59.74v2.22H48.47v7.83h9.3V117h-9.3v8.19H59.74v2.23H46Z" fill="#2f4249"/><path d="M65.7,104.71h4.56l6.42,19.16,6.42-19.16h4.55v22.67H85.13v-20h-.46l-6.58,19.17H75.27l-6.59-19.17h-.46v20H65.7Z" fill="#2f4249"/><circle cx="145.32" cy="357.38" r="26.31" fill="#ebefa5" stroke="#2277d6" stroke-miterlimit="10" stroke-width="5"/><path d="M130.58,349.39h9.19v1.49h-7.51v5.22h6.2v1.46h-6.2V363h7.51v1.48h-9.19Z" fill="#424127"/><path d="M143.75,349.39h3l4.28,12.78,4.28-12.78h3V364.5H156.7V351.18h-.31L152,364h-1.87l-4.39-12.78h-.31V364.5h-1.68Z" fill="#424127"/><circle cx="211.86" cy="357.38" r="26.31" fill="#dbb8f4"/><path d="M209.34,357.67h-7.69v6.83H200V349.39h1.68v6.77h7.69v-6.77H211V364.5h-1.66Z" fill="#574666"/><path d="M215.81,364.5V349.39h1.68V363h6.64v1.5Z" fill="#574666"/><circle cx="278.41" cy="357.38" r="26.31" fill="#a5ebef" stroke="#2277d6" stroke-miterlimit="10" stroke-width="5"/><path d="M262.2,349.39h3l4.28,12.78,4.28-12.78h3V364.5h-1.68V351.18h-.31L270.45,364h-1.87l-4.39-12.78h-.31V364.5H262.2Z" fill="#274444"/><path d="M281.64,349.39h3.14L290.57,363H291V349.39h1.66V364.5h-3.08l-5.87-13.62h-.42V364.5h-1.68Z" fill="#274444"/><circle cx="344.95" cy="357.38" r="26.31" fill="#c2e3f2"/><path d="M335.52,349.39h10.92v1.51h-4.61v13.6h-1.65V350.9h-4.66Z" fill="#2f4249"/><path d="M352.36,362.43c0,3.27-1.26,3.64-4.15,3.64v-1.5c2,0,2.47-.13,2.47-2.38v-12.8h1.66Z" fill="#2f4249"/><circle cx="411.49" cy="357.38" r="26.31" fill="#efd3a5"/><path d="M403,349.39h9.19v1.49h-7.51v5.22h6.2v1.46h-6.2V363h7.51v1.48H403Z" fill="#4c3d28"/><path d="M416.21,364.5V349.39h1.68V363h6.64v1.5Z" fill="#4c3d28"/><rect x="72.5" y="223.01" width="77.78" height="27.52" fill="#76ce89"/><rect x="26.49" y="223.01" width="41.24" height="27.52" fill="#76ce89" opacity="0.3"/><rect x="482.73" y="223.01" width="44.43" height="27.52" fill="#76ce89" opacity="0.3"/><rect x="154.53" y="223.01" width="77.78" height="27.52" fill="#76ce89"/><rect x="236.71" y="223.01" width="77.78" height="27.52" fill="#ed0000"/><rect x="318.68" y="223.01" width="77.78" height="27.52" fill="#76ce89"/><rect x="400.94" y="223.01" width="77.78" height="27.52" fill="#76ce89"/><line x1="123.72" y1="400.25" x2="166.92" y2="400.25" fill="#a5ebef" stroke="#2277d6" stroke-miterlimit="10" stroke-width="5"/></g></g></svg>