<svg xmlns="http://www.w3.org/2000/svg" viewBox="0 0 579.59 494.77"><title>r_4_A_Tablet</title><g id="Layer_2" data-name="Layer 2"><g id="WT_Screen_Assets"><line x1="0.23" y1="0.5" x2="579.59" y2="0.5" fill="none" stroke="#ddd" stroke-miterlimit="10"/><rect y="0.5" width="579.59" height="494.27" fill="#f7f7f7"/><line x1="0.23" y1="0.5" x2="579.59" y2="0.5" fill="none" stroke="#ddd" stroke-miterlimit="10"/></g><g id="PF_Sections_Tablet"><path d="M27.37,22.93h8.29v1.36H28.91v5.4h5.71v1.36H28.91v5.72H27.37Z"/><path d="M37.89,36.77V22.93h1.54V35.39h6.09v1.38Z"/><path d="M47.47,22.93H49V36.77H47.47Z"/><path d="M57.88,29.69H61.7v6.8a33.7,33.7,0,0,1-4.51.48c-4.24,0-5.36-2.6-5.36-7.08s1.16-7.16,5.32-7.16a25.8,25.8,0,0,1,4.55.52l-.06,1.28a31.73,31.73,0,0,0-4.3-.42c-3.21,0-3.91,1.86-3.91,5.78s.68,5.72,3.88,5.72a18.58,18.58,0,0,0,2.87-.28V31.07h-2.3Z"/><path d="M73.3,30.51h-7v6.26H64.71V22.93h1.54v6.2h7v-6.2h1.52V36.77H73.3Z"/><path d="M76.77,22.93h10v1.38H82.56V36.77H81V24.31H76.77Z"/><path d="M26,441.26v4.19H24.6V433h4.56c2.72,0,4,1.32,4,4s-1.26,4.25-4,4.25ZM29.14,440c1.82,0,2.57-1.09,2.57-3s-.75-2.79-2.57-2.79H26V440Z" fill="#3a3d3f"/><path d="M35,436.45h1.33v1.23a10.32,10.32,0,0,1,3.3-1.43v1.37a13,13,0,0,0-3.28,1.23v6.6H35Z" fill="#3a3d3f"/><path d="M41.27,432.85h1.35v1.57H41.27Zm0,3.6h1.35v9H41.27Z" fill="#3a3d3f"/><path d="M52.52,440.85c0,3.27-.81,4.78-3.85,4.78s-3.86-1.51-3.86-4.78c0-3.1,1-4.58,3.86-4.58S52.52,437.75,52.52,440.85Zm-1.39,0c0-2.51-.54-3.41-2.46-3.41s-2.47.9-2.47,3.41.34,3.61,2.47,3.61S51.13,443.4,51.13,440.85Z" fill="#3a3d3f"/><path d="M54.72,436.45h1.33v1.23a10.21,10.21,0,0,1,3.29-1.43v1.37a13,13,0,0,0-3.28,1.23v6.6H54.72Z" fill="#3a3d3f"/><path d="M60.94,432.85h1.35v1.57H60.94Zm0,3.6h1.35v9H60.94Z" fill="#3a3d3f"/><path d="M66.69,437.62v4.31c0,2,.12,2.52,1.29,2.52.51,0,1.6-.11,1.6-.11l.09,1.11a15.44,15.44,0,0,1-1.83.2c-1.86,0-2.49-.7-2.49-3.29v-4.74H64.07v-1.17h1.28V433.7h1.34v2.75h2.86v1.17Z" fill="#3a3d3f"/><path d="M71.2,432.85h1.35v1.57H71.2Zm0,3.6h1.35v9H71.2Z" fill="#3a3d3f"/><path d="M74.6,436.45h6.68v1.21l-5,6.59h5v1.2H74.6v-1.2l5.05-6.59H74.6Z" fill="#3a3d3f"/><path d="M83.33,432.85h1.35v1.57H83.33Zm0,3.6h1.35v9H83.33Z" fill="#3a3d3f"/><path d="M87.28,445.45v-9h1.33v.63a6.85,6.85,0,0,1,2.79-.81c2.48,0,3,1.23,3,4.43v4.75H93.11v-4.71c0-2.38-.27-3.26-2-3.26a6.18,6.18,0,0,0-2.53.66v7.31Z" fill="#3a3d3f"/><path d="M96.55,447c0-1.05.48-1.53,1.42-2.24a1.43,1.43,0,0,1-.51-1.24,5.78,5.78,0,0,1,.62-1.42c-.76-.34-1.43-1.06-1.43-2.72,0-2.21,1.37-3.08,3.37-3.08a9.07,9.07,0,0,1,1.87.24l2.67-.08v1.16l-1.71,0a2.35,2.35,0,0,1,.59,1.8c0,2.34-1.17,3-3.47,3a6.94,6.94,0,0,1-.89-.07,5.32,5.32,0,0,0-.32,1c0,.72.14.83,2.18.83,2.56,0,3.47.5,3.47,2.64s-1.45,2.87-4,2.87C97.57,449.69,96.55,449.06,96.55,447Zm2.34-1.69c-.76.55-1,.88-1,1.58,0,1.24.52,1.69,2.55,1.69,1.8,0,2.62-.48,2.62-1.67,0-1.37-.58-1.52-2.22-1.52C100.2,445.36,98.89,445.28,98.89,445.28Zm3.2-5.93c0-1.42-.56-2-2.07-2s-2,.56-2,2,.62,2,2,2S102.09,440.77,102.09,439.35Z" fill="#3a3d3f"/><path d="M112,437.62v4.31c0,2,.13,2.52,1.3,2.52.5,0,1.6-.11,1.6-.11l.09,1.11a15.44,15.44,0,0,1-1.83.2c-1.86,0-2.49-.7-2.49-3.29v-4.74h-1.28v-1.17h1.28V433.7H112v2.75h2.87v1.17Z" fill="#3a3d3f"/><path d="M116.47,445.45V432.53h1.35V437a7.57,7.57,0,0,1,2.78-.69c2.46,0,3,1.23,3,4.43v4.75h-1.35v-4.71c0-2.38-.27-3.26-1.93-3.26a7.41,7.41,0,0,0-2.54.54v7.43Z" fill="#3a3d3f"/><path d="M126.14,432.85h1.35v1.57h-1.35Zm0,3.6h1.35v9h-1.35Z" fill="#3a3d3f"/><path d="M136.06,437.77a29.33,29.33,0,0,0-3.15-.29c-1.12,0-2,.3-2,1.37,0,.84.44,1.08,2.34,1.4,2.26.38,3.1.83,3.1,2.58,0,2.1-1.33,2.8-3.49,2.8a25.65,25.65,0,0,1-3.17-.34l.07-1.17a29.5,29.5,0,0,0,3,.31c1.48,0,2.27-.33,2.27-1.55,0-.94-.47-1.17-2.43-1.48s-3-.7-3-2.5c0-2,1.61-2.63,3.24-2.63a23,23,0,0,1,3.26.34Z" fill="#3a3d3f"/><path d="M144.14,445.45h-1.35v-7.83h-1.14v-1.17h1.14v-.81c0-2.59.66-3.29,2.43-3.29.61,0,1.82.12,1.82.12l0,1.12s-1,0-1.55,0c-1,0-1.33.44-1.33,2.11v.79h2.61v1.17h-2.61Z" fill="#3a3d3f"/><path d="M148.48,432.53h1.35v12.92h-1.35Z" fill="#3a3d3f"/><path d="M152.53,432.85h1.35v1.57h-1.35Zm0,3.6h1.35v9h-1.35Z" fill="#3a3d3f"/><path d="M156.07,447c0-1.05.49-1.53,1.42-2.24a1.46,1.46,0,0,1-.5-1.24,5.82,5.82,0,0,1,.61-1.42c-.75-.34-1.42-1.06-1.42-2.72,0-2.21,1.37-3.08,3.37-3.08a9.07,9.07,0,0,1,1.87.24l2.67-.08v1.16l-1.72,0a2.31,2.31,0,0,1,.6,1.8c0,2.34-1.17,3-3.48,3a6.79,6.79,0,0,1-.88-.07,5.32,5.32,0,0,0-.32,1c0,.72.14.83,2.18.83,2.55,0,3.47.5,3.47,2.64s-1.46,2.87-4,2.87C157.1,449.69,156.07,449.06,156.07,447Zm2.34-1.69c-.75.55-1,.88-1,1.58,0,1.24.53,1.69,2.56,1.69,1.8,0,2.61-.48,2.61-1.67,0-1.37-.57-1.52-2.21-1.52C159.73,445.36,158.41,445.28,158.41,445.28Zm3.21-5.93c0-1.42-.56-2-2.07-2s-2,.56-2,2,.61,2,2,2S161.62,440.77,161.62,439.35Z" fill="#3a3d3f"/><path d="M165.72,445.45V432.53h1.35V437a7.55,7.55,0,0,1,2.77-.69c2.47,0,3,1.23,3,4.43v4.75h-1.35v-4.71c0-2.38-.27-3.26-1.93-3.26a7.41,7.41,0,0,0-2.54.54v7.43Z" fill="#3a3d3f"/><path d="M177.19,437.62v4.31c0,2,.12,2.52,1.29,2.52.51,0,1.61-.11,1.61-.11l.09,1.11a15.71,15.71,0,0,1-1.84.2c-1.86,0-2.48-.7-2.48-3.29v-4.74h-1.28v-1.17h1.28V433.7h1.33v2.75h2.86v1.17Z" fill="#3a3d3f"/><path d="M185.66,432.85H187v1.57h-1.36Zm0,3.6H187v9h-1.36Z" fill="#3a3d3f"/><path d="M195.59,437.77a29.33,29.33,0,0,0-3.16-.29c-1.11,0-2,.3-2,1.37,0,.84.43,1.08,2.34,1.4,2.25.38,3.1.83,3.1,2.58,0,2.1-1.33,2.8-3.49,2.8a25.4,25.4,0,0,1-3.17-.34l.07-1.17a29.5,29.5,0,0,0,3,.31c1.48,0,2.27-.33,2.27-1.55,0-.94-.47-1.17-2.43-1.48s-3-.7-3-2.5c0-2,1.6-2.63,3.24-2.63a23.19,23.19,0,0,1,3.26.34Z" fill="#3a3d3f"/><path d="M207.92,437.77a29.33,29.33,0,0,0-3.16-.29c-1.11,0-2,.3-2,1.37,0,.84.43,1.08,2.34,1.4,2.25.38,3.1.83,3.1,2.58,0,2.1-1.33,2.8-3.49,2.8a25.4,25.4,0,0,1-3.17-.34l.07-1.17a29.5,29.5,0,0,0,3,.31c1.48,0,2.27-.33,2.27-1.55,0-.94-.47-1.17-2.43-1.48s-3-.7-3-2.5c0-2,1.6-2.63,3.24-2.63a23.19,23.19,0,0,1,3.26.34Z" fill="#3a3d3f"/><path d="M217.28,436.45v9h-1.35v-.63a6.14,6.14,0,0,1-2.67.81c-2.52,0-3-1.17-3-4.48v-4.7h1.35v4.68c0,2.49.21,3.3,1.89,3.3a5.47,5.47,0,0,0,2.47-.67v-7.31Z" fill="#3a3d3f"/><path d="M219.47,447c0-1.05.49-1.53,1.42-2.24a1.46,1.46,0,0,1-.5-1.24,5.82,5.82,0,0,1,.61-1.42c-.76-.34-1.42-1.06-1.42-2.72,0-2.21,1.37-3.08,3.36-3.08a9.22,9.22,0,0,1,1.88.24l2.66-.08v1.16l-1.71,0a2.35,2.35,0,0,1,.59,1.8c0,2.34-1.17,3-3.47,3a6.79,6.79,0,0,1-.88-.07,5.21,5.21,0,0,0-.33,1c0,.72.15.83,2.18.83,2.56,0,3.48.5,3.48,2.64s-1.46,2.87-4,2.87C220.5,449.69,219.47,449.06,219.47,447Zm2.34-1.69c-.76.55-1,.88-1,1.58,0,1.24.52,1.69,2.56,1.69,1.8,0,2.61-.48,2.61-1.67,0-1.37-.58-1.52-2.22-1.52C223.12,445.36,221.81,445.28,221.81,445.28Zm3.21-5.93c0-1.42-.56-2-2.08-2s-2,.56-2,2,.61,2,2,2S225,440.77,225,439.35Z" fill="#3a3d3f"/><path d="M228.72,447c0-1.05.49-1.53,1.42-2.24a1.46,1.46,0,0,1-.5-1.24,5.82,5.82,0,0,1,.61-1.42c-.75-.34-1.42-1.06-1.42-2.72,0-2.21,1.37-3.08,3.37-3.08a9.07,9.07,0,0,1,1.87.24l2.66-.08v1.16l-1.71,0a2.35,2.35,0,0,1,.6,1.8c0,2.34-1.17,3-3.48,3a6.79,6.79,0,0,1-.88-.07,5.32,5.32,0,0,0-.32,1c0,.72.14.83,2.17.83,2.56,0,3.48.5,3.48,2.64s-1.46,2.87-4,2.87C229.75,449.69,228.72,449.06,228.72,447Zm2.34-1.69c-.75.55-1,.88-1,1.58,0,1.24.53,1.69,2.56,1.69,1.8,0,2.61-.48,2.61-1.67,0-1.37-.57-1.52-2.21-1.52C232.38,445.36,231.06,445.28,231.06,445.28Zm3.21-5.93c0-1.42-.56-2-2.07-2s-2,.56-2,2,.61,2,2,2S234.27,440.77,234.27,439.35Z" fill="#3a3d3f"/><path d="M245,444.28l0,1.07a32.2,32.2,0,0,1-3.51.28c-2.68,0-3.57-1.56-3.57-4.62,0-3.42,1.48-4.74,3.77-4.74s3.62,1.26,3.62,4.22l-.08,1h-5.94c0,1.93.6,2.94,2.36,2.94C243.05,444.45,245,444.28,245,444.28Zm-1-3.85c0-2.23-.68-3-2.26-3s-2.4.84-2.42,3Z" fill="#3a3d3f"/><path d="M253.44,437.77a29.33,29.33,0,0,0-3.15-.29c-1.12,0-2,.3-2,1.37,0,.84.44,1.08,2.34,1.4,2.25.38,3.1.83,3.1,2.58,0,2.1-1.33,2.8-3.49,2.8a25.65,25.65,0,0,1-3.17-.34l.07-1.17a29.5,29.5,0,0,0,3,.31c1.48,0,2.27-.33,2.27-1.55,0-.94-.47-1.17-2.43-1.48s-3-.7-3-2.5c0-2,1.61-2.63,3.24-2.63a23.19,23.19,0,0,1,3.26.34Z" fill="#3a3d3f"/><path d="M257.63,437.62v4.31c0,2,.13,2.52,1.3,2.52.5,0,1.6-.11,1.6-.11l.09,1.11a15.71,15.71,0,0,1-1.84.2c-1.85,0-2.48-.7-2.48-3.29v-4.74H255v-1.17h1.28V433.7h1.33v2.75h2.86v1.17Z" fill="#3a3d3f"/><path d="M268.79,444.28l0,1.07a32.47,32.47,0,0,1-3.51.28c-2.69,0-3.57-1.56-3.57-4.62,0-3.42,1.48-4.74,3.76-4.74s3.62,1.26,3.62,4.22l-.07,1h-5.94c0,1.93.59,2.94,2.36,2.94C266.83,444.45,268.79,444.28,268.79,444.28Zm-1-3.85c0-2.23-.68-3-2.27-3s-2.39.84-2.41,3Z" fill="#3a3d3f"/><path d="M278.15,445.45h-1.33v-.61a6.49,6.49,0,0,1-2.74.79c-1.76,0-3.24-.72-3.24-4.6,0-3.17,1-4.76,3.76-4.76a14.13,14.13,0,0,1,2.22.24v-4h1.33Zm-1.33-1.69v-6.1a14.42,14.42,0,0,0-2.14-.22c-1.89,0-2.45,1.25-2.45,3.59,0,2.91.95,3.4,2,3.4A6.54,6.54,0,0,0,276.82,443.76Z" fill="#3a3d3f"/><path d="M280.67,443.4h1.48v2.05h-1.48Z" fill="#3a3d3f"/><path d="M287.54,433h9v1.25h-3.8v11.21h-1.37V434.24h-3.84Z" fill="#3a3d3f"/><path d="M298.07,445.45V432.53h1.35V437a7.57,7.57,0,0,1,2.78-.69c2.46,0,3,1.23,3,4.43v4.75h-1.35v-4.71c0-2.38-.27-3.26-1.93-3.26a7.48,7.48,0,0,0-2.54.54v7.43Z" fill="#3a3d3f"/><path d="M314.38,444.28l0,1.07a32.2,32.2,0,0,1-3.51.28c-2.68,0-3.57-1.56-3.57-4.62,0-3.42,1.48-4.74,3.77-4.74s3.62,1.26,3.62,4.22l-.08,1h-5.94c0,1.93.6,2.94,2.36,2.94C312.42,444.45,314.38,444.28,314.38,444.28Zm-1-3.85c0-2.23-.69-3-2.27-3s-2.4.84-2.42,3Z" fill="#3a3d3f"/><path d="M320.79,445.45v-9h1.33v.63a6,6,0,0,1,2.63-.81,2.53,2.53,0,0,1,2.34.92,7.47,7.47,0,0,1,3.21-.92c2.45,0,3,1.17,3,4.43v4.75H332v-4.71c0-2.38-.27-3.26-1.89-3.26a6,6,0,0,0-2.54.66,10.4,10.4,0,0,1,.23,2.63v4.68h-1.35v-4.64c0-2.49-.25-3.33-1.89-3.33a5.39,5.39,0,0,0-2.41.66v7.31Z" fill="#3a3d3f"/><path d="M343.15,440.85c0,3.27-.81,4.78-3.85,4.78s-3.86-1.51-3.86-4.78c0-3.1,1-4.58,3.86-4.58S343.15,437.75,343.15,440.85Zm-1.39,0c0-2.51-.54-3.41-2.46-3.41s-2.47.9-2.47,3.41.34,3.61,2.47,3.61S341.76,443.4,341.76,440.85Z" fill="#3a3d3f"/><path d="M351.32,437.77a29.33,29.33,0,0,0-3.15-.29c-1.12,0-2,.3-2,1.37,0,.84.43,1.08,2.34,1.4,2.25.38,3.09.83,3.09,2.58,0,2.1-1.33,2.8-3.49,2.8a25.65,25.65,0,0,1-3.17-.34l.07-1.17a29.86,29.86,0,0,0,3,.31c1.48,0,2.27-.33,2.27-1.55,0-.94-.47-1.17-2.43-1.48s-3-.7-3-2.5c0-2,1.6-2.63,3.24-2.63a23.19,23.19,0,0,1,3.26.34Z" fill="#3a3d3f"/><path d="M355.51,437.62v4.31c0,2,.13,2.52,1.3,2.52.5,0,1.6-.11,1.6-.11l.09,1.11a15.43,15.43,0,0,1-1.84.2c-1.85,0-2.48-.7-2.48-3.29v-4.74H352.9v-1.17h1.28V433.7h1.33v2.75h2.87v1.17Z" fill="#3a3d3f"/><path d="M370,437.77a29.33,29.33,0,0,0-3.15-.29c-1.12,0-2,.3-2,1.37,0,.84.44,1.08,2.34,1.4,2.26.38,3.1.83,3.1,2.58,0,2.1-1.33,2.8-3.49,2.8a25.65,25.65,0,0,1-3.17-.34l.07-1.17a29.5,29.5,0,0,0,3,.31c1.48,0,2.27-.33,2.27-1.55,0-.94-.47-1.17-2.43-1.48s-3-.7-3-2.5c0-2,1.61-2.63,3.24-2.63a23,23,0,0,1,3.26.34Z" fill="#3a3d3f"/><path d="M379.33,436.45v9H378v-.63a6.08,6.08,0,0,1-2.67.81c-2.52,0-3-1.17-3-4.48v-4.7h1.35v4.68c0,2.49.22,3.3,1.89,3.3a5.47,5.47,0,0,0,2.47-.67v-7.31Z" fill="#3a3d3f"/><path d="M381.92,432.85h1.35v1.57h-1.35Zm0,3.6h1.35v9h-1.35Z" fill="#3a3d3f"/><path d="M387.66,437.62v4.31c0,2,.13,2.52,1.3,2.52.5,0,1.6-.11,1.6-.11l.09,1.11a15.71,15.71,0,0,1-1.84.2c-1.85,0-2.48-.7-2.48-3.29v-4.74h-1.28v-1.17h1.28V433.7h1.33v2.75h2.86v1.17Z" fill="#3a3d3f"/><path d="M398.53,443.78c0,.52.47.72,1.05.79l-.06,1.06a2.75,2.75,0,0,1-2.14-.72,9.2,9.2,0,0,1-3.24.72c-1.64,0-2.54-.93-2.54-2.75s.9-2.48,2.76-2.67l2.82-.26v-.78c0-1.26-.54-1.71-1.62-1.71-1.26,0-3.4.24-3.4.24l-.05-1a21.6,21.6,0,0,1,3.53-.4c2,0,2.89.94,2.89,2.9Zm-4-2.56c-1.1.11-1.53.63-1.53,1.62s.45,1.66,1.37,1.66a9.47,9.47,0,0,0,2.82-.56v-3Z" fill="#3a3d3f"/><path d="M408.45,440.81c0,3.58-1,4.82-4.25,4.82-1.08,0-3-.19-3-.19V432.53h1.33v4.37a7.43,7.43,0,0,1,2.64-.63C407.62,436.27,408.45,437.57,408.45,440.81Zm-1.37,0c0-2.32-.47-3.33-2.05-3.33a7.57,7.57,0,0,0-2.5.52v6.34s1.17.09,1.65.09C406.65,444.43,407.08,443.33,407.08,440.81Z" fill="#3a3d3f"/><path d="M410.77,432.53h1.35v12.92h-1.35Z" fill="#3a3d3f"/><path d="M421.47,444.28l0,1.07a32.2,32.2,0,0,1-3.51.28c-2.68,0-3.56-1.56-3.56-4.62,0-3.42,1.47-4.74,3.76-4.74s3.62,1.26,3.62,4.22l-.08,1h-5.94c0,1.93.6,2.94,2.36,2.94C419.5,444.45,421.47,444.28,421.47,444.28Zm-1-3.85c0-2.23-.69-3-2.27-3s-2.4.84-2.41,3Z" fill="#3a3d3f"/><path d="M433.94,436.63l-.07,1.91s-1.43-.14-2.11-.14c-1.73,0-2.05.66-2.05,2.46,0,2,.34,2.65,2.07,2.65.68,0,2.09-.14,2.09-.14l.07,1.92a21.2,21.2,0,0,1-2.94.38c-2.68,0-3.74-1.42-3.74-4.81,0-3.18,1.12-4.62,3.8-4.62A18.78,18.78,0,0,1,433.94,436.63Z" fill="#3a3d3f"/><path d="M435.72,445.45v-12.6h2.41v4a6,6,0,0,1,2.23-.64c2.53,0,3.17,1.58,3.17,4.34v4.87h-2.41v-4.82c0-1.35-.18-2.23-1.35-2.23a5.93,5.93,0,0,0-1.64.29v6.76Z" fill="#3a3d3f"/><path d="M452.8,443.38l0,1.79a19.2,19.2,0,0,1-3.75.5c-2.71,0-3.87-1.35-3.87-4.59s1.35-4.84,4-4.84,3.93,1.35,3.93,4.07L453,442h-5.3c0,1.08.53,1.57,1.82,1.57C451,443.55,452.8,443.38,452.8,443.38Zm-2.05-3.24c0-1.45-.41-1.92-1.55-1.92s-1.55.56-1.56,1.92Z" fill="#3a3d3f"/><path d="M461.1,436.63l-.07,1.91s-1.42-.14-2.11-.14c-1.73,0-2.05.66-2.05,2.46,0,2,.34,2.65,2.07,2.65.68,0,2.09-.14,2.09-.14l.07,1.92a21.22,21.22,0,0,1-2.93.38c-2.69,0-3.75-1.42-3.75-4.81,0-3.18,1.12-4.62,3.8-4.62A18.78,18.78,0,0,1,461.1,436.63Z" fill="#3a3d3f"/><path d="M462.88,445.45v-12.6h2.41V440l.92-.16,1.78-3.41h2.71l-2.34,4.27,2.46,4.73H468.1l-1.82-3.51-1,.17v3.34Z" fill="#3a3d3f"/><path d="M472,439.57h5.33v2.19H472Z" fill="#3a3d3f"/><path d="M479.49,432.85h2.42v2.45h-2.42Zm0,3.6h2.42v9h-2.42Z" fill="#3a3d3f"/><path d="M484.14,445.45v-9h2.39V437a5.49,5.49,0,0,1,2.25-.72c2.52,0,3.17,1.58,3.17,4.34v4.87h-2.41v-4.8c0-1.37-.18-2.25-1.35-2.25a5,5,0,0,0-1.64.32v6.73Z" fill="#3a3d3f"/><path d="M505.7,445.45h-2.39v-.37a6.51,6.51,0,0,1-2.18.59c-2.72,0-3.51-1.58-3.51-4.75s1.28-4.68,3.73-4.68a14.18,14.18,0,0,1,1.94.25v-3.64h2.41Zm-2.41-2.21V438.5a11.93,11.93,0,0,0-1.76-.18c-.9,0-1.46.78-1.46,2.6s.34,2.59,1.48,2.59A7.05,7.05,0,0,0,503.29,443.24Z" fill="#3a3d3f"/><path d="M515.06,443.38l0,1.79a19.18,19.18,0,0,1-3.74.5c-2.72,0-3.88-1.35-3.88-4.59s1.35-4.84,4-4.84,3.93,1.35,3.93,4.07l-.18,1.67h-5.3c0,1.08.53,1.57,1.82,1.57C513.21,443.55,515.06,443.38,515.06,443.38Zm-2-3.24c0-1.45-.41-1.92-1.55-1.92s-1.55.56-1.56,1.92Z" fill="#3a3d3f"/><path d="M523.58,438.7s-2.23-.29-3.28-.29-1.26.24-1.26.72.34.51,2,.82c2.09.37,2.83,1,2.83,2.8,0,2.11-1.37,2.92-3.62,2.92a22.55,22.55,0,0,1-3.46-.43l.07-2s2.23.29,3.15.29c1.16,0,1.46-.23,1.46-.7s-.2-.58-1.85-.85c-2-.32-3-.79-3-2.77s1.58-2.94,3.47-2.94a23,23,0,0,1,3.49.45Z" fill="#3a3d3f"/><path d="M525.61,445.45v-12.6H528V440l.92-.16,1.78-3.41h2.7l-2.34,4.27,2.47,4.73h-2.72L529,441.94l-1,.17v3.34Z" fill="#3a3d3f"/><path d="M541.34,438.7s-2.23-.29-3.27-.29-1.26.24-1.26.72.34.51,2,.82c2.08.37,2.82,1,2.82,2.8,0,2.11-1.37,2.92-3.62,2.92a22.54,22.54,0,0,1-3.45-.43l.07-2s2.23.29,3.15.29c1.15,0,1.46-.23,1.46-.7s-.2-.58-1.86-.85c-1.94-.32-3-.79-3-2.77s1.59-2.94,3.48-2.94a23.2,23.2,0,0,1,3.49.45Z" fill="#3a3d3f"/><path d="M30.72,471.78c0,.52.47.72,1.05.79l-.06,1.06a2.75,2.75,0,0,1-2.14-.72,9.2,9.2,0,0,1-3.24.72c-1.64,0-2.54-.93-2.54-2.75s.9-2.48,2.76-2.67l2.82-.26v-.78c0-1.26-.54-1.71-1.62-1.71-1.26,0-3.4.24-3.4.24l-.05-1a21.57,21.57,0,0,1,3.52-.4c2,0,2.9.94,2.9,2.9Zm-4-2.56c-1.1.11-1.53.63-1.53,1.62s.45,1.66,1.37,1.66a9.47,9.47,0,0,0,2.82-.56v-3Z" fill="#3a3d3f"/><path d="M33.39,464.45h1.33v1.23A10.21,10.21,0,0,1,38,464.25v1.37a13,13,0,0,0-3.28,1.23v6.6H33.39Z" fill="#3a3d3f"/><path d="M46.26,472.28l0,1.07a32.2,32.2,0,0,1-3.51.28c-2.68,0-3.56-1.56-3.56-4.62,0-3.42,1.47-4.74,3.76-4.74s3.62,1.26,3.62,4.22l-.07,1h-6c0,1.93.6,2.94,2.36,2.94C44.29,472.45,46.26,472.28,46.26,472.28Zm-1-3.85c0-2.23-.69-3-2.27-3s-2.4.84-2.41,3Z" fill="#3a3d3f"/><path d="M52.48,462a10.89,10.89,0,0,1,3.46-.64c3.13,0,4.16,1.06,4.16,3.27a2.93,2.93,0,0,1-1.39,2.67,2.43,2.43,0,0,1,1.6,2.57c0,2.5-1.15,3.8-4.05,3.8a16.67,16.67,0,0,1-3.87-.61l.13-1.89a25.54,25.54,0,0,0,3.38.34c1.23,0,1.86-.49,1.86-1.58,0-.89-.7-1.46-1.73-1.46h-2.4v-2.06H56a1.64,1.64,0,0,0,1.51-1.62c0-.84-.56-1.27-1.78-1.27a20.44,20.44,0,0,0-3.12.32Z" fill="#3a3d3f"/><path d="M67.21,471.49h-5V469.6l2.93-8h2.74l-3.19,7.76h2.56V466h2.48v3.33h1.14v2.16H69.69v2H67.21Z" fill="#3a3d3f"/><path d="M83.14,471.78c0,.52.47.72,1,.79l-.05,1.06a2.74,2.74,0,0,1-2.14-.72,9.22,9.22,0,0,1-3.25.72c-1.63,0-2.53-.93-2.53-2.75s.9-2.48,2.75-2.67l2.83-.26v-.78c0-1.26-.54-1.71-1.62-1.71-1.26,0-3.41.24-3.41.24l-.05-1a21.6,21.6,0,0,1,3.53-.4c2,0,2.9.94,2.9,2.9Zm-4-2.56c-1.1.11-1.53.63-1.53,1.62S78,472.5,79,472.5a9.57,9.57,0,0,0,2.83-.56v-3Z" fill="#3a3d3f"/><path d="M85.8,473.45v-9h1.33v.63a6.85,6.85,0,0,1,2.79-.81c2.49,0,3,1.23,3,4.43v4.75H91.63v-4.71c0-2.38-.27-3.26-1.94-3.26a6.19,6.19,0,0,0-2.54.66v7.31Z" fill="#3a3d3f"/><path d="M102.38,473.45h-1.33v-.61a6.49,6.49,0,0,1-2.74.79c-1.76,0-3.24-.72-3.24-4.6,0-3.17,1-4.76,3.76-4.76a14.13,14.13,0,0,1,2.22.24v-4h1.33Zm-1.33-1.69v-6.1a14.43,14.43,0,0,0-2.15-.22c-1.89,0-2.44,1.25-2.44,3.59,0,2.91,1,3.4,2,3.4A6.54,6.54,0,0,0,101.05,471.76Z" fill="#3a3d3f"/><path d="M108.77,462a10.79,10.79,0,0,1,3.45-.64c3.14,0,4.16,1.06,4.16,3.27A3,3,0,0,1,115,467.3a2.43,2.43,0,0,1,1.6,2.57c0,2.5-1.15,3.8-4,3.8a16.55,16.55,0,0,1-3.87-.61l.12-1.89a25.78,25.78,0,0,0,3.39.34c1.22,0,1.85-.49,1.85-1.58,0-.89-.7-1.46-1.73-1.46h-2.39v-2.06h2.39a1.65,1.65,0,0,0,1.52-1.62c0-.84-.56-1.27-1.79-1.27a20.23,20.23,0,0,0-3.11.32Z" fill="#3a3d3f"/><path d="M126.55,461.57v2.16h-5.31l-.3,2.58a6.77,6.77,0,0,1,2.12-.44c2.43,0,3.85,1.08,3.85,3.59,0,2.68-1.47,4.21-4.07,4.21a18.75,18.75,0,0,1-4.21-.67l.27-1.83a29.92,29.92,0,0,0,3.64.34,1.63,1.63,0,0,0,1.82-1.78c0-1.21-.53-1.7-1.66-1.7a8.35,8.35,0,0,0-2.25.31L119,468l.33-6.43Z" fill="#3a3d3f"/><path d="M129,471.4h1.47v2.05H129Z" fill="#3a3d3f"/><line x1="25.64" y1="45.08" x2="525.24" y2="45.08" fill="none" stroke="#ddd" stroke-miterlimit="10"/><line x1="57.7" y1="200.22" x2="57.7" y2="285.92" fill="none" stroke="#adadad" stroke-miterlimit="10"/><line x1="512.6" y1="285.52" x2="57.7" y2="285.52" fill="none" stroke="#adadad" stroke-miterlimit="10"/><path d="M28.6,94H61.2v3.4H28.6ZM62.1,78a2.57,2.57,0,0,0-3.2-1.8l-9.1,2.4L38,67.64l-3.3.9,7.1,12.3-8.5,2.3-3.4-2.6-2.5.7,3.1,5.4,1.3,2.3,2.7-.7,9.1-2.4,7.5-2,9.1-2.4A2.85,2.85,0,0,0,62.1,78Z" fill="#f2a120"/><path d="M63.2,301.62H59.7v-.7l2.1-5.2h.9l-2.1,5.1h2.6v-2.3H64v2.3h.9v.7H64v1.4h-.8Z" fill="#4c4c4c"/><path d="M146.2,297.52a1.71,1.71,0,0,1-1.2,1.7c.8.4,1.3.8,1.3,1.8,0,1.6-1.2,2.1-2.7,2.1s-2.7-.5-2.7-2a1.87,1.87,0,0,1,1.3-1.9,1.63,1.63,0,0,1-1.1-1.7c0-1.3,1-1.9,2.6-1.9C145.1,295.62,146.2,296.22,146.2,297.52Zm-.8,3.4c0-.8-.6-1.1-1.3-1.3h-1.2a1.32,1.32,0,0,0-1.2,1.4c0,1,.8,1.3,1.8,1.3S145.4,302,145.4,300.92Zm-3.5-3.3c0,.7.4,1,1.1,1.3h1.2c.7-.2,1.2-.6,1.2-1.3,0-.9-.6-1.2-1.7-1.2S141.9,296.72,141.9,297.62Z" fill="#4c4c4c"/><path d="M225.2,295.72h.8V303h-.8v-6.3l-1.9,1.2-.4-.6Z" fill="#4c4c4c"/><path d="M228.6,303v-.7l2.1-2.2c.9-.9,1.5-1.5,1.5-2.4s-.5-1.3-1.6-1.3a13.13,13.13,0,0,0-1.9.2l-.1-.7a8.25,8.25,0,0,1,2.1-.3c1.5,0,2.3.6,2.3,1.9,0,1.1-.5,1.7-1.5,2.7l-1.9,2h3.6v.7h-4.6Z" fill="#4c4c4c"/><path d="M312.6,295.72h.8V303h-.8v-6.3l-1.9,1.2-.4-.6Z" fill="#4c4c4c"/><path d="M320.6,296.52s-1-.1-1.9-.1c-1.3,0-2,.9-2,2.5a5.91,5.91,0,0,1,1.8-.4c1.6,0,2.4.7,2.4,2.3a2.24,2.24,0,0,1-2.5,2.4c-1.8,0-2.6-1.4-2.6-3.8,0-2.6,1.1-3.7,2.8-3.7a13.38,13.38,0,0,1,2,.2Zm-3.9,3.1c0,1.6.5,2.7,1.7,2.7a1.5,1.5,0,0,0,1.7-1.6,1.4,1.4,0,0,0-1.6-1.5A5.11,5.11,0,0,0,316.7,299.62Z" fill="#4c4c4c"/><path d="M397.2,303v-.7l2.1-2.2c.9-.9,1.5-1.5,1.5-2.4s-.5-1.3-1.6-1.3a13.13,13.13,0,0,0-1.9.2l-.1-.7a8.25,8.25,0,0,1,2.1-.3c1.5,0,2.3.6,2.3,1.9,0,1.1-.5,1.7-1.5,2.7l-1.9,2h3.6v.7h-4.6Z" fill="#4c4c4c"/><path d="M408.4,299.52c0,2.8-1,3.6-2.6,3.6s-2.7-.8-2.7-3.6c0-3,1-3.9,2.6-3.9S408.4,296.52,408.4,299.52Zm-4.4,0c0,2.3.6,2.9,1.8,2.9s1.8-.6,1.8-2.9-.6-3.1-1.8-3.1S404,297,404,299.52Z" fill="#4c4c4c"/><path d="M484.6,303v-.7l2.1-2.2c.9-.9,1.5-1.5,1.5-2.4s-.5-1.3-1.6-1.3a13.13,13.13,0,0,0-1.9.2l-.1-.7a8.25,8.25,0,0,1,2.1-.3c1.5,0,2.3.6,2.3,1.9,0,1.1-.5,1.7-1.5,2.7l-1.9,2h3.6v.7h-4.6Z" fill="#4c4c4c"/><path d="M494,301.62h-3.5v-.7l2.1-5.2h.9l-2.1,5.1H494v-2.3h.8v2.3h.9v.7h-.9v1.4H494Z" fill="#4c4c4c"/><path d="M49.2,278.87c0,2.8-1,3.6-2.6,3.6s-2.7-.8-2.7-3.6c0-3,1-3.9,2.6-3.9S49.2,275.87,49.2,278.87Zm-4.5,0c0,2.3.6,2.9,1.8,2.9s1.8-.6,1.8-2.9-.6-3.1-1.8-3.1S44.7,276.37,44.7,278.87Z" fill="#4c4c4c"/><path d="M41.7,252v.8H38.2l-.2,2.4a3.63,3.63,0,0,1,1.7-.5c1.4,0,2.3.6,2.3,2.1a2.19,2.19,0,0,1-2.4,2.5,12.69,12.69,0,0,1-2.4-.3l.1-.7a18.13,18.13,0,0,0,2.2.2,1.5,1.5,0,0,0,1.6-1.7,1.32,1.32,0,0,0-1.5-1.5,4.29,4.29,0,0,0-1.7.4l-.6-.1.2-3.8h4.2Z" fill="#4c4c4c"/><path d="M48.3,255.67c0,2.8-1,3.6-2.6,3.6s-2.7-.8-2.7-3.6c0-3,1-3.9,2.6-3.9C47.4,251.87,48.3,252.67,48.3,255.67Zm-4.4,0c0,2.3.6,2.9,1.8,2.9s1.8-.6,1.8-2.9-.6-3.1-1.8-3.1S43.9,253.17,43.9,255.67Z" fill="#4c4c4c"/><path d="M36.9,227.87h.8v7.3h-.8v-6.3l-1.9,1.2-.4-.6Z" fill="#4c4c4c"/><path d="M45.3,231.67c0,2.8-1,3.6-2.6,3.6s-2.7-.8-2.7-3.6c0-3,1-3.9,2.6-3.9C44.4,227.77,45.3,228.67,45.3,231.67Zm-4.4,0c0,2.3.6,2.9,1.8,2.9s1.8-.6,1.8-2.9-.6-3.1-1.8-3.1S40.9,229.17,40.9,231.67Z" fill="#4c4c4c"/><path d="M51.5,231.67c0,2.8-1,3.6-2.6,3.6s-2.7-.8-2.7-3.6c0-3,1-3.9,2.6-3.9S51.5,228.67,51.5,231.67Zm-4.4,0c0,2.3.6,2.9,1.8,2.9s1.8-.6,1.8-2.9-.6-3.1-1.8-3.1S47.1,229.17,47.1,231.67Z" fill="#4c4c4c"/><path d="M36.9,203.87h.8v7.3h-.8v-6.3l-1.9,1.2-.4-.6Z" fill="#4c4c4c"/><path d="M44.8,203.87v.8H41.3l-.2,2.4a3.63,3.63,0,0,1,1.7-.5c1.4,0,2.3.6,2.3,2.1a2.19,2.19,0,0,1-2.4,2.5,12.69,12.69,0,0,1-2.4-.3l.1-.7a18.13,18.13,0,0,0,2.2.2,1.5,1.5,0,0,0,1.6-1.7,1.32,1.32,0,0,0-1.5-1.5,4.29,4.29,0,0,0-1.7.4l-.6-.1.2-3.8h4.2Z" fill="#4c4c4c"/><path d="M51.5,207.67c0,2.8-1,3.6-2.6,3.6s-2.7-.8-2.7-3.6c0-3,1-3.9,2.6-3.9S51.5,204.67,51.5,207.67Zm-4.4,0c0,2.3.6,2.9,1.8,2.9s1.8-.6,1.8-2.9-.6-3.1-1.8-3.1S47.1,205.17,47.1,207.67Z" fill="#4c4c4c"/><polygon points="300.3 259.83 300.3 284.72 343.4 284.72 343.12 251.42 318 264.52 300.3 259.83" fill="#8dd69d"/><polyline points="62.8 279.52 78.6 279.52 99 276.52 112.5 270.52 128.4 261.52 146.5 255.52 162.3 248.52 171.4 242.52 192.8 233.52 213.2 229.52 251.6 233.82 280.6 243.92 290.8 257.52 318 264.52 354.2 244.52 391.5 216.52 411.9 216.52 428.8 229.52 442.4 252.52 458.2 252.52 470.7 266.52 491 274.52" fill="none" stroke="#2277d6" stroke-width="2"/><path d="M28.52,183.65v4.2H27.13V175.39h4.56c2.72,0,4,1.31,4,4s-1.26,4.25-4,4.25Zm3.15-1.22c1.82,0,2.57-1.1,2.57-3s-.75-2.79-2.57-2.79H28.52v5.82Z" fill="#4c4c4c"/><path d="M43.93,186.17c0,.53.47.72,1,.8l0,1.06a2.74,2.74,0,0,1-2.14-.72,9.22,9.22,0,0,1-3.25.72c-1.63,0-2.53-.94-2.53-2.76s.9-2.48,2.75-2.66l2.83-.27v-.78c0-1.26-.54-1.71-1.62-1.71-1.26,0-3.41.24-3.41.24l0-1a22.13,22.13,0,0,1,3.53-.39c2,0,2.9.93,2.9,2.89Zm-4-2.55c-1.1.11-1.53.63-1.53,1.62s.45,1.65,1.37,1.65a9.72,9.72,0,0,0,2.83-.55v-3Z" fill="#4c4c4c"/><path d="M52.57,180.16a29.33,29.33,0,0,0-3.15-.29c-1.12,0-2,.31-2,1.37,0,.85.44,1.08,2.34,1.4,2.26.38,3.1.83,3.1,2.58,0,2.11-1.33,2.81-3.49,2.81a25.65,25.65,0,0,1-3.17-.34l.07-1.17s2.05.3,3,.3c1.48,0,2.27-.32,2.27-1.55,0-.93-.47-1.17-2.43-1.47s-3-.7-3-2.51c0-2,1.61-2.62,3.24-2.62a23.19,23.19,0,0,1,3.26.34Z" fill="#4c4c4c"/><path d="M60.94,180.16a29.33,29.33,0,0,0-3.15-.29c-1.12,0-2,.31-2,1.37,0,.85.44,1.08,2.34,1.4,2.26.38,3.1.83,3.1,2.58,0,2.11-1.33,2.81-3.49,2.81a25.65,25.65,0,0,1-3.17-.34l.07-1.17s2,.3,3,.3c1.48,0,2.27-.32,2.27-1.55,0-.93-.47-1.17-2.43-1.47s-3-.7-3-2.51c0-2,1.61-2.62,3.24-2.62A23.19,23.19,0,0,1,61,179Z" fill="#4c4c4c"/><path d="M70,186.68l0,1.06a31.12,31.12,0,0,1-3.51.29c-2.68,0-3.57-1.57-3.57-4.63,0-3.42,1.48-4.73,3.77-4.73s3.62,1.26,3.62,4.21l-.08,1H64.3c0,1.92.6,2.93,2.36,2.93C68,186.84,70,186.68,70,186.68Zm-1-3.86c0-2.23-.69-3-2.27-3s-2.4.85-2.42,3Z" fill="#4c4c4c"/><path d="M72.42,187.85v-9h1.33v.63a6.85,6.85,0,0,1,2.79-.81c2.49,0,3,1.22,3,4.43v4.75H78.25v-4.72c0-2.38-.27-3.26-1.94-3.26a6.12,6.12,0,0,0-2.54.67v7.31Z" fill="#4c4c4c"/><path d="M81.69,189.36c0-1,.49-1.53,1.42-2.23a1.48,1.48,0,0,1-.5-1.24,5.75,5.75,0,0,1,.61-1.43c-.76-.34-1.42-1.06-1.42-2.72,0-2.21,1.37-3.07,3.36-3.07a9.6,9.6,0,0,1,1.88.23l2.66-.07V180l-1.71,0a2.37,2.37,0,0,1,.6,1.8c0,2.35-1.17,3-3.48,3-.18,0-.68,0-.88-.07a5.3,5.3,0,0,0-.33,1c0,.72.15.83,2.18.83,2.56,0,3.48.5,3.48,2.65s-1.46,2.86-4,2.86C82.72,192.08,81.69,191.45,81.69,189.36ZM84,187.67c-.76.56-1,.88-1,1.58,0,1.25.52,1.7,2.56,1.7,1.8,0,2.61-.49,2.61-1.68,0-1.37-.58-1.51-2.21-1.51C85.35,187.76,84,187.67,84,187.67Zm3.21-5.93c0-1.42-.56-2-2.08-2s-2,.56-2,2,.61,2,2,2S87.24,183.17,87.24,181.74Z" fill="#4c4c4c"/><path d="M98,186.68l0,1.06a31.12,31.12,0,0,1-3.51.29c-2.69,0-3.57-1.57-3.57-4.63,0-3.42,1.48-4.73,3.76-4.73s3.62,1.26,3.62,4.21l-.07,1H92.31c0,1.92.59,2.93,2.36,2.93C96,186.84,98,186.68,98,186.68Zm-1-3.86c0-2.23-.68-3-2.27-3s-2.39.85-2.41,3Z" fill="#4c4c4c"/><path d="M100.43,178.85h1.33v1.22a10.17,10.17,0,0,1,3.3-1.42V180a13,13,0,0,0-3.28,1.22v6.61h-1.35Z" fill="#4c4c4c"/><path d="M112.63,180.16a29.33,29.33,0,0,0-3.15-.29c-1.11,0-2,.31-2,1.37,0,.85.43,1.08,2.34,1.4,2.25.38,3.1.83,3.1,2.58,0,2.11-1.34,2.81-3.5,2.81a25.4,25.4,0,0,1-3.16-.34l.07-1.17s2,.3,3,.3c1.47,0,2.27-.32,2.27-1.55,0-.93-.47-1.17-2.43-1.47s-3-.7-3-2.51c0-2,1.6-2.62,3.24-2.62a23.19,23.19,0,0,1,3.26.34Z" fill="#4c4c4c"/><path d="M208,409.19a22.7,22.7,0,0,1-4.09.47c-4.39,0-5.4-2.5-5.4-7.42,0-5.18,1.09-7.43,5.4-7.43a20,20,0,0,1,4.11.53l-.08,1.89a26.37,26.37,0,0,0-3.72-.34c-2.64,0-3.3,1.28-3.3,5.35s.53,5.34,3.36,5.34a27.55,27.55,0,0,0,3.66-.32Z" fill="#4c4c4c"/><path d="M219.08,403.21h-6.22v6.21h-2.33V395h2.33v6.13h6.22V395h2.35v14.38h-2.35Z" fill="#4c4c4c"/><path d="M224.73,395h9.07v2h-6.74v4.07h5.48v2h-5.48v4.2h6.74v2.05h-9.07Z" fill="#4c4c4c"/><path d="M245.26,409.19a22.59,22.59,0,0,1-4.09.47c-4.39,0-5.4-2.5-5.4-7.42,0-5.18,1.09-7.43,5.4-7.43a20,20,0,0,1,4.11.53l-.08,1.89a26.23,26.23,0,0,0-3.72-.34c-2.64,0-3.29,1.28-3.29,5.35s.52,5.34,3.36,5.34a27.24,27.24,0,0,0,3.65-.32Z" fill="#4c4c4c"/><path d="M252.24,403.42l-2.15.15v5.85h-2.33V395h2.33v6.49l2.15-.17,2.94-6.32h2.66l-3.55,7.23,3.7,7.15h-2.71Z" fill="#4c4c4c"/><path d="M259.63,402.73h6.28v2.08h-6.28Z" fill="#4c4c4c"/><path d="M268.85,395h2.33v14.38h-2.33Z" fill="#4c4c4c"/><path d="M274.5,395h4.07l4.37,12.33h.31V395h2.33v14.38h-4l-4.47-12.34h-.29v12.34H274.5Z" fill="#4c4c4c"/><path d="M293.52,409.42V395h5c4.64,0,5.75,2.48,5.75,6.95s-1,7.43-5.75,7.43Zm5-12.34h-2.65v10.29h2.65c2.9,0,3.34-2.23,3.34-5.38S301.4,397.08,298.5,397.08Z" fill="#4c4c4c"/><path d="M307,395h9.08v2h-6.75v4.07h5.49v2h-5.49v4.2h6.75v2.05H307Z" fill="#4c4c4c"/><path d="M327,397.18s-2.94-.33-4.16-.33c-1.77,0-2.67.63-2.67,1.87s.76,1.65,3.21,2.33c3,.84,4.12,1.64,4.12,4.09,0,3.15-2,4.52-4.81,4.52a30.37,30.37,0,0,1-4.7-.57l.23-1.87s2.83.38,4.32.38c1.79,0,2.61-.8,2.61-2.31,0-1.22-.65-1.64-2.86-2.16-3.11-.8-4.45-1.75-4.45-4.25,0-2.89,1.91-4.09,4.79-4.09a32.09,32.09,0,0,1,4.55.5Z" fill="#4c4c4c"/><path d="M334.47,403.42l-2.14.15v5.85H330V395h2.33v6.49l2.14-.17,2.94-6.32h2.67l-3.55,7.23,3.7,7.15h-2.71Z" fill="#4c4c4c"/><path d="M350.62,397.18s-2.94-.33-4.16-.33c-1.76,0-2.66.63-2.66,1.87s.75,1.65,3.21,2.33c3,.84,4.12,1.64,4.12,4.09,0,3.15-2,4.52-4.81,4.52a30.57,30.57,0,0,1-4.71-.57l.24-1.87s2.83.38,4.32.38c1.79,0,2.6-.8,2.6-2.31,0-1.22-.65-1.64-2.85-2.16-3.11-.8-4.45-1.75-4.45-4.25,0-2.89,1.91-4.09,4.78-4.09a32.1,32.1,0,0,1,4.56.5Z" fill="#4c4c4c"/><path d="M303,71.29h8v1.1h-3.37v10h-1.22v-10H303Z" fill="#4c4c4c"/><path d="M312.37,71.16h1.2v1.39h-1.2Zm0,3.2h1.2v8h-1.2Z" fill="#4c4c4c"/><path d="M315.87,82.37v-8h1.19v.56a5.37,5.37,0,0,1,2.34-.72,2.26,2.26,0,0,1,2.08.82,6.6,6.6,0,0,1,2.84-.82c2.18,0,2.71,1,2.71,3.94v4.23h-1.2v-4.2c0-2.11-.24-2.89-1.68-2.89a5.3,5.3,0,0,0-2.26.59,8.75,8.75,0,0,1,.21,2.33v4.17h-1.2V78.24c0-2.21-.22-3-1.68-3a4.82,4.82,0,0,0-2.15.59v6.5Z" fill="#4c4c4c"/><path d="M335.16,81.33l0,.94a27.63,27.63,0,0,1-3.12.26c-2.39,0-3.17-1.4-3.17-4.12,0-3,1.31-4.21,3.34-4.21s3.22,1.12,3.22,3.75l-.06.91h-5.29c0,1.71.53,2.61,2.1,2.61C333.41,81.47,335.16,81.33,335.16,81.33Zm-.9-3.43c0-2-.61-2.69-2-2.69s-2.13.75-2.14,2.69Z" fill="#4c4c4c"/><path d="M338.87,82.37h-1.2v-7h-1v-1h1v-.72c0-2.3.59-2.93,2.16-2.93.54,0,1.61.12,1.61.12v1s-.9,0-1.38,0c-.9,0-1.18.38-1.18,1.87v.7h2.32v1h-2.32Z" fill="#4c4c4c"/><path d="M342.63,74.36h1.18v1.09a9,9,0,0,1,2.93-1.26V75.4a11.69,11.69,0,0,0-2.91,1.09v5.88h-1.2Z" fill="#4c4c4c"/><path d="M353.81,80.88c0,.46.42.64.93.7l-.05,1a2.43,2.43,0,0,1-1.9-.64,8.18,8.18,0,0,1-2.88.64c-1.46,0-2.26-.84-2.26-2.45s.8-2.21,2.45-2.37l2.51-.24v-.69c0-1.12-.48-1.52-1.44-1.52-1.12,0-3,.21-3,.21l0-.92a19.47,19.47,0,0,1,3.13-.35c1.81,0,2.58.83,2.58,2.58Zm-3.57-2.28c-1,.1-1.36.56-1.36,1.44s.4,1.48,1.22,1.48a8.44,8.44,0,0,0,2.51-.5V78.38Z" fill="#4c4c4c"/><path d="M356.18,82.37v-8h1.18v.56a5.37,5.37,0,0,1,2.34-.72,2.26,2.26,0,0,1,2.08.82,6.61,6.61,0,0,1,2.85-.82c2.18,0,2.7,1,2.7,3.94v4.23h-1.2v-4.2c0-2.11-.24-2.89-1.68-2.89a5.28,5.28,0,0,0-2.25.59,9.31,9.31,0,0,1,.2,2.33v4.17h-1.2V78.24c0-2.21-.22-3-1.68-3a4.8,4.8,0,0,0-2.14.59v6.5Z" fill="#4c4c4c"/><path d="M375.46,81.33l0,.94a27.37,27.37,0,0,1-3.12.26c-2.38,0-3.17-1.4-3.17-4.12,0-3,1.31-4.21,3.35-4.21s3.21,1.12,3.21,3.75l-.06.91h-5.28c0,1.71.53,2.61,2.09,2.61C373.72,81.47,375.46,81.33,375.46,81.33Zm-.9-3.43c0-2-.6-2.69-2-2.69s-2.13.75-2.15,2.69Z" fill="#4c4c4c"/><path d="M276.87,92.07h2.45v15.85h-2.66V95.1l-3.72,2.4-1.23-2Z" fill="#4c4c4c"/><path d="M294.66,92.07v2.36h-7.35l-.4,4.17a9,9,0,0,1,3.21-.74c3.17,0,5.09,1.37,5.09,4.75,0,3.6-2,5.57-5.38,5.57a24.82,24.82,0,0,1-5.44-.82l.28-2a36.25,36.25,0,0,0,4.85.48,2.68,2.68,0,0,0,2.93-3c0-2-1-2.66-2.69-2.66a9.38,9.38,0,0,0-3.33.65l-1.68-.36.43-8.43Z" fill="#4c4c4c"/><path d="M297.94,97.19h2.81v3.45h-2.81Zm0,7.27h2.81v3.46h-2.81Z" fill="#4c4c4c"/><path d="M310.31,105.08h-7.13v-2l4.17-11h3l-4.42,10.69h4.42V98.1H313v4.66h1.73v2.32H313v2.84h-2.68Z" fill="#4c4c4c"/><path d="M327.27,92.07v2.36h-7.34l-.41,4.17a9,9,0,0,1,3.22-.74c3.17,0,5.09,1.37,5.09,4.75,0,3.6-2,5.57-5.38,5.57a24.84,24.84,0,0,1-5.45-.82l.29-2a36,36,0,0,0,4.85.48,2.68,2.68,0,0,0,2.93-3c0-2-1-2.66-2.69-2.66a9.4,9.4,0,0,0-3.34.65l-1.68-.36.43-8.43Z" fill="#4c4c4c"/><path d="M335.84,100.26H343v2.38h-7.18Z" fill="#4c4c4c"/><path d="M357,92.07h2.45v15.85h-2.67V95.1l-3.72,2.4-1.22-2Z" fill="#4c4c4c"/><path d="M375,94.47a36.57,36.57,0,0,0-4.35-.33c-2.42,0-3.64,1.7-3.67,4.46a14.29,14.29,0,0,1,3.46-.74c3.53,0,5.37,1.58,5.37,5s-2.13,5.28-5.68,5.28c-4.11,0-5.91-3.1-5.91-8.19,0-5.9,2.5-8.18,6.43-8.18a25.26,25.26,0,0,1,4.59.58Zm-8,6.44c0,2.78.84,4.94,3.17,4.94A2.65,2.65,0,0,0,373,102.9c0-1.8-1.05-2.69-2.85-2.69A10.28,10.28,0,0,0,366.92,100.91Z" fill="#4c4c4c"/><path d="M378.1,97.19h2.81v3.45H378.1Zm0,7.27h2.81v3.46H378.1Z" fill="#4c4c4c"/><path d="M390.46,105.08h-7.13v-2l4.18-11h2.95l-4.41,10.69h4.41V98.1h2.69v4.66h1.73v2.32h-1.73v2.84h-2.69Z" fill="#4c4c4c"/><path d="M407.43,92.07v2.36h-7.34l-.41,4.17a9,9,0,0,1,3.21-.74c3.17,0,5.09,1.37,5.09,4.75,0,3.6-2,5.57-5.37,5.57a24.84,24.84,0,0,1-5.45-.82l.28-2a36.25,36.25,0,0,0,4.85.48,2.68,2.68,0,0,0,2.93-3c0-2-1-2.66-2.69-2.66a9.38,9.38,0,0,0-3.33.65l-1.68-.36.43-8.43Z" fill="#4c4c4c"/><path d="M93.27,94.79s-2.5-.31-3.55-.31c-1.76,0-2.7.63-2.7,2,0,1.62.87,1.89,3,2.37,2.49.56,3.59,1.17,3.59,3.35,0,2.76-1.51,3.84-4,3.84a32.29,32.29,0,0,1-3.94-.4l.14-1.15s2.45.32,3.73.32c1.76,0,2.66-.77,2.66-2.5,0-1.4-.74-1.8-2.77-2.2-2.58-.55-3.87-1.17-3.87-3.54s1.58-3.35,4-3.35a31.12,31.12,0,0,1,3.77.36Z" fill="#3a3d3f"/><path d="M97.61,98.08v4.31c0,2,.12,2.52,1.29,2.52.51,0,1.61-.11,1.61-.11l.09,1.12a16.5,16.5,0,0,1-1.84.19c-1.86,0-2.49-.7-2.49-3.29V98.08H95V96.91h1.27V94.16h1.34v2.75h2.86v1.17Z" fill="#3a3d3f"/><path d="M109.43,101.31c0,3.27-.81,4.79-3.85,4.79s-3.85-1.52-3.85-4.79c0-3.1,1-4.58,3.85-4.58S109.43,98.21,109.43,101.31Zm-1.38,0c0-2.51-.54-3.41-2.47-3.41s-2.47.9-2.47,3.41.35,3.62,2.47,3.62S108.05,103.86,108.05,101.31Z" fill="#3a3d3f"/><path d="M117.44,97l0,1.1s-1.44-.16-2.12-.16c-2.08,0-2.63.9-2.63,3.31,0,2.67.41,3.64,2.64,3.64.69,0,2.13-.16,2.13-.16l0,1.11a23.06,23.06,0,0,1-2.5.26c-2.86,0-3.71-1.32-3.71-4.85,0-3.26,1.06-4.52,3.74-4.52A20.89,20.89,0,0,1,117.44,97Z" fill="#3a3d3f"/><path d="M119.48,105.92V93h1.35v7.63l1.4-.07,2.58-3.64h1.53l-2.94,4.14,3.06,4.87h-1.53l-2.68-4.18-1.42.05v4.13Z" fill="#3a3d3f"/><path d="M128.1,105.92V93h1.35v4.43a7.55,7.55,0,0,1,2.77-.69c2.47,0,3,1.23,3,4.43v4.76h-1.35V101.2c0-2.38-.27-3.26-1.92-3.26a7.41,7.41,0,0,0-2.54.54v7.44Z" fill="#3a3d3f"/><path d="M145.07,101.31c0,3.27-.81,4.79-3.85,4.79s-3.85-1.52-3.85-4.79c0-3.1,1-4.58,3.85-4.58S145.07,98.21,145.07,101.31Zm-1.38,0c0-2.51-.54-3.41-2.47-3.41s-2.47.9-2.47,3.41.35,3.62,2.47,3.62S143.69,103.86,143.69,101.31Z" fill="#3a3d3f"/><path d="M147.38,93h1.35v12.93h-1.35Z" fill="#3a3d3f"/><path d="M151.43,105.92v-9h1.33v.63a6,6,0,0,1,2.63-.81,2.54,2.54,0,0,1,2.34.92,7.46,7.46,0,0,1,3.2-.92c2.45,0,3,1.17,3,4.43v4.76h-1.35V101.2c0-2.38-.27-3.26-1.9-3.26a5.88,5.88,0,0,0-2.53.67,10.25,10.25,0,0,1,.23,2.62v4.69h-1.35v-4.65c0-2.48-.25-3.33-1.89-3.33a5.34,5.34,0,0,0-2.41.67v7.31Z" fill="#3a3d3f"/><path d="M166.4,100.33h5.46v1.26H166.4Z" fill="#3a3d3f"/><path d="M174.59,93.46H176v12.46h-1.39Z" fill="#3a3d3f"/><path d="M184.76,98.23a29.33,29.33,0,0,0-3.15-.29c-1.11,0-2,.31-2,1.37,0,.84.43,1.08,2.34,1.4,2.25.38,3.1.83,3.1,2.58,0,2.1-1.34,2.81-3.5,2.81a24.71,24.71,0,0,1-3.16-.35l.07-1.17a29.5,29.5,0,0,0,3,.31c1.47,0,2.27-.32,2.27-1.55,0-.94-.47-1.17-2.43-1.48s-3-.7-3-2.5c0-2,1.6-2.63,3.24-2.63a23.19,23.19,0,0,1,3.26.34Z" fill="#3a3d3f"/><path d="M189,98.08v4.31c0,2,.12,2.52,1.29,2.52.51,0,1.61-.11,1.61-.11l.08,1.12a16.23,16.23,0,0,1-1.83.19c-1.86,0-2.49-.7-2.49-3.29V98.08h-1.27V96.91h1.27V94.16H189v2.75h2.86v1.17Z" fill="#3a3d3f"/><path d="M199.83,104.24c0,.52.47.72,1,.79l-.05,1.07a2.75,2.75,0,0,1-2.14-.72,9.2,9.2,0,0,1-3.24.72c-1.64,0-2.54-.94-2.54-2.76s.9-2.48,2.75-2.66l2.83-.27v-.78c0-1.26-.54-1.71-1.62-1.71-1.26,0-3.4.24-3.4.24l-.06-1a21.6,21.6,0,0,1,3.53-.4c2,0,2.9.94,2.9,2.9Zm-4-2.56c-1.09.11-1.53.63-1.53,1.62s.45,1.66,1.37,1.66a9.57,9.57,0,0,0,2.83-.56v-3Z" fill="#3a3d3f"/><path d="M202.49,105.92v-9h1.33v.63a6.85,6.85,0,0,1,2.79-.81c2.49,0,3,1.23,3,4.43v4.76h-1.34V101.2c0-2.38-.26-3.26-1.94-3.26a6.12,6.12,0,0,0-2.54.67v7.31Z" fill="#3a3d3f"/><path d="M219.41,101.27c0,3.58-1,4.83-4.25,4.83-1.08,0-3-.2-3-.2V93h1.33v4.37a7.44,7.44,0,0,1,2.65-.63C218.59,96.73,219.41,98,219.41,101.27Zm-1.36,0c0-2.32-.47-3.33-2.06-3.33a7.57,7.57,0,0,0-2.5.52v6.34s1.17.09,1.66.09C217.61,104.89,218.05,103.79,218.05,101.27Z" fill="#3a3d3f"/><path d="M228.59,96.91v9h-1.35v-.64a6,6,0,0,1-2.66.82c-2.52,0-3.05-1.17-3.05-4.49v-4.7h1.36v4.68c0,2.49.21,3.3,1.89,3.3a5.4,5.4,0,0,0,2.46-.67V96.91Z" fill="#3a3d3f"/><path d="M231.29,93h1.35v12.93h-1.35Z" fill="#3a3d3f"/><path d="M85.86,68.36H95.1v2.52H88.75v3.34h5.09V76.7H88.75v3.42H95.1v2.52H85.86Z"/><path d="M103.24,82.64h-2.89V76.87l-4.41-8.51h3.21l2.62,5.69,2.63-5.69h3.21l-4.37,8.51Z"/><path d="M114.35,80.35h-5.88v-2.2l3.43-9.37h3.19l-3.72,9h3V74h2.9v3.88h1.32v2.52h-1.32v2.29h-2.9Z"/><path d="M126.11,80.35h-5.88v-2.2l3.43-9.37h3.19l-3.72,9h3V74H129v3.88h1.32v2.52H129v2.29h-2.9Z"/><path d="M90.47,118.53h3.78v19.8H90.11V123.21L85.82,126l-1.89-3.09Z" fill="#3a3d3f"/><path d="M100.58,118.53h12.66v4.68l-7,15.48-3.84-1.08,6.75-14.43v-1h-8.52Z" fill="#3a3d3f"/><path d="M117,124.68h4.32v5H117Zm0,8.67h4.32v5H117Z" fill="#3a3d3f"/><path d="M124.85,119.25a17.9,17.9,0,0,1,5.76-1.08c5.22,0,6.93,1.77,6.93,5.46a4.89,4.89,0,0,1-2.31,4.44c1.65.9,2.67,1.62,2.67,4.29,0,4.17-1.92,6.33-6.75,6.33a27.62,27.62,0,0,1-6.45-1l.21-3.15a42.57,42.57,0,0,0,5.64.57c2,0,3.09-.81,3.09-2.64,0-1.47-1.17-2.43-2.88-2.43h-4V126.6h4a2.74,2.74,0,0,0,2.52-2.7c0-1.41-.93-2.13-3-2.13a33.34,33.34,0,0,0-5.19.54Z" fill="#3a3d3f"/><path d="M155.87,128.55c0,7.5-2.76,10.14-7.68,10.14s-7.68-2.64-7.68-10.14,2.76-10.38,7.68-10.38S155.87,121.05,155.87,128.55Zm-11.1,0c0,4.86,1,6.54,3.45,6.54s3.39-1.68,3.39-6.54c0-5.16-1-6.78-3.39-6.78S144.77,123.39,144.77,128.55Z" fill="#3a3d3f"/><rect x="163.68" y="331.56" width="41.81" height="41.81" fill="#bddff4" stroke="#2277d6" stroke-miterlimit="10" stroke-width="3"/><rect x="226.32" y="331.56" width="41.81" height="41.81" fill="#48b1ff"/><rect x="287.97" y="331.56" width="41.81" height="41.81" fill="#48b1ff"/><rect x="348.31" y="331.56" width="41.81" height="41.81" fill="#bddff4"/><path d="M299.25,347.52a15.18,15.18,0,0,1,3.88-.57c3.12,0,4.22,1.1,4.22,3.45a3.3,3.3,0,0,1-2,3,2.87,2.87,0,0,1,2.28,3.2c0,2.66-1.3,4-4.28,4a21.78,21.78,0,0,1-4.34-.54l.14-1.26a23.88,23.88,0,0,0,4,.44c2,0,2.86-.86,2.86-2.56s-1.22-2.42-2.72-2.48h-2.66v-1.32h2.66a2.48,2.48,0,0,0,2.4-2.4c0-1.51-.74-2.12-2.7-2.12a20.15,20.15,0,0,0-3.68.4Z"/><path d="M318.55,347.18v1.39h-6.42l-.36,4.31a7.62,7.62,0,0,1,3.1-.82c2.58,0,4.2,1.08,4.2,3.9,0,3-1.66,4.6-4.42,4.6a21.77,21.77,0,0,1-4.38-.58l.18-1.22a26.33,26.33,0,0,0,4.06.44,2.79,2.79,0,0,0,3-3.12c0-2-1.12-2.64-2.8-2.64a7.57,7.57,0,0,0-3.14.8l-1.06-.2.36-6.86Z"/><path d="M237.14,346.52A15.18,15.18,0,0,1,241,346c3.12,0,4.22,1.1,4.22,3.45a3.3,3.3,0,0,1-2,3,2.87,2.87,0,0,1,2.28,3.2c0,2.66-1.3,4-4.28,4a21.78,21.78,0,0,1-4.34-.54l.14-1.26a23.88,23.88,0,0,0,4,.44c2,0,2.86-.86,2.86-2.56s-1.22-2.42-2.72-2.48H238.6v-1.32h2.66a2.48,2.48,0,0,0,2.4-2.4c0-1.51-.74-2.12-2.7-2.12a20.15,20.15,0,0,0-3.68.4Z"/><path d="M254.1,356.8h-6.4v-1.2l3.76-9.42h1.68l-3.82,9.26h4.78v-4.12h1.55v4.12h1.67v1.36h-1.67v2.58H254.1Z"/><path d="M174.8,359.38v-1.3l3.86-4.06c1.64-1.7,2.66-2.78,2.66-4.34,0-1.76-1-2.32-2.88-2.32a19.63,19.63,0,0,0-3.42.43l-.12-1.27a15.74,15.74,0,0,1,3.82-.55c2.78,0,4.18,1.06,4.18,3.55,0,2-.9,3.14-2.76,4.94L176.62,358h6.62v1.34Z"/><path d="M186,359.38v-1.3l3.86-4.06c1.64-1.7,2.66-2.78,2.66-4.34,0-1.76-1-2.32-2.88-2.32a19.63,19.63,0,0,0-3.42.43l-.12-1.27a15.74,15.74,0,0,1,3.82-.55c2.78,0,4.18,1.06,4.18,3.55,0,2-.9,3.14-2.76,4.94L187.82,358h6.62v1.34Z"/><path d="M364.6,357.8h-6.4v-1.2l3.76-9.42h1.68l-3.82,9.26h4.78v-4.12h1.54v4.12h1.68v1.36h-1.68v2.58H364.6Z"/><path d="M378.14,347.18v1.39h-6.42l-.36,4.31a7.62,7.62,0,0,1,3.1-.82c2.58,0,4.2,1.08,4.2,3.9,0,3-1.66,4.6-4.42,4.6a21.77,21.77,0,0,1-4.38-.58l.18-1.22a26.33,26.33,0,0,0,4.06.44,2.79,2.79,0,0,0,3-3.12c0-2-1.12-2.64-2.8-2.64a7.57,7.57,0,0,0-3.14.8l-1.06-.2.36-6.86Z"/><path d="M462.93,78.61v3.73H461.7V71.26h4.05c2.41,0,3.53,1.17,3.53,3.57s-1.12,3.78-3.53,3.78Zm2.8-1.09c1.62,0,2.29-1,2.29-2.69s-.67-2.48-2.29-2.48h-2.8v5.17Z" fill="#3a3d3f"/><path d="M470.75,74.34h1.19v1.08a9,9,0,0,1,2.93-1.26v1.22A11.6,11.6,0,0,0,472,76.46v5.88h-1.2Z" fill="#3a3d3f"/><path d="M476.06,71.13h1.21v1.4h-1.21Zm0,3.21h1.21v8h-1.21Z" fill="#3a3d3f"/><path d="M485.84,78.24c0,2.91-.72,4.26-3.42,4.26S479,81.15,479,78.24c0-2.75.9-4.06,3.43-4.06S485.84,75.49,485.84,78.24Zm-1.23,0c0-2.22-.48-3-2.19-3s-2.19.8-2.19,3,.3,3.22,2.19,3.22S484.61,80.51,484.61,78.24Z" fill="#3a3d3f"/><path d="M487.57,74.34h1.18v1.08a9.07,9.07,0,0,1,2.93-1.26v1.22a11.63,11.63,0,0,0-2.91,1.08v5.88h-1.2Z" fill="#3a3d3f"/><path d="M492.88,71.13h1.2v1.4h-1.2Zm0,3.21h1.2v8h-1.2Z" fill="#3a3d3f"/><path d="M497.76,75.38V79.2c0,1.75.11,2.24,1.15,2.24.45,0,1.43-.09,1.43-.09l.08,1a14.42,14.42,0,0,1-1.63.17c-1.65,0-2.21-.62-2.21-2.92V75.38h-1.14v-1h1.14V71.89h1.18v2.45h2.55v1Z" fill="#3a3d3f"/><path d="M501.55,71.13h1.2v1.4h-1.2Zm0,3.21h1.2v8h-1.2Z" fill="#3a3d3f"/><path d="M504.35,74.34h5.94v1.07l-4.48,5.86h4.48v1.07h-5.94V81.27l4.49-5.86h-4.49Z" fill="#3a3d3f"/><path d="M517.79,81.3l0,.94a27.63,27.63,0,0,1-3.12.26c-2.39,0-3.17-1.39-3.17-4.11,0-3,1.31-4.21,3.34-4.21s3.22,1.12,3.22,3.74l-.07.91h-5.28c0,1.72.53,2.61,2.1,2.61C516.05,81.44,517.79,81.3,517.79,81.3Zm-.89-3.43c0-2-.61-2.69-2-2.69s-2.13.76-2.14,2.69Z" fill="#3a3d3f"/><path d="M501.86,123.29H472.34a12,12,0,0,1,0-24h29.52a12,12,0,0,1,0,24" fill="#ddd"/><path d="M517.61,110.79a15,15,0,1,1-15-15,15,15,0,0,1,15,15" fill="#40bd73"/><polygon points="50 120.41 60.74 122.46 52.59 129.74 53.96 140.58 44.52 135.07 34.63 139.73 36.95 129.05 29.46 121.08 40.34 119.99 45.6 110.41 50 120.41" fill="#f9e100"/></g></g></svg>