<svg xmlns="http://www.w3.org/2000/svg" xmlns:xlink="http://www.w3.org/1999/xlink" viewBox="0 0 579.59 494.77"><defs><clipPath id="clip-path"><rect x="89.6" y="124.71" width="14.3" height="64.2" transform="translate(-0.61 0.38) rotate(-0.22)" fill="none"/></clipPath><clipPath id="clip-path-2"><rect x="108.6" y="124.71" width="14.3" height="64.2" transform="translate(-0.61 0.45) rotate(-0.22)" fill="none"/></clipPath><clipPath id="clip-path-3"><rect x="127.6" y="130.41" width="14.3" height="58.6" transform="translate(-0.62 0.53) rotate(-0.22)" fill="none"/></clipPath><clipPath id="clip-path-4"><rect x="146.6" y="130.41" width="14.3" height="58.6" transform="translate(-0.62 0.6) rotate(-0.22)" fill="none"/></clipPath><clipPath id="clip-path-5"><rect x="165.6" y="134.11" width="14.2" height="54.8" transform="translate(-0.63 0.67) rotate(-0.22)" fill="none"/></clipPath><clipPath id="clip-path-6"><rect x="184.6" y="137.81" width="14.2" height="51.1" transform="translate(-0.64 0.75) rotate(-0.22)" fill="none"/></clipPath><clipPath id="clip-path-7"><rect x="203.6" y="137.81" width="14.2" height="51.1" transform="translate(-0.64 0.82) rotate(-0.22)" fill="none"/></clipPath><clipPath id="clip-path-8"><rect x="222.5" y="150.01" width="14.2" height="38.9" transform="translate(-0.66 0.9) rotate(-0.22)" fill="none"/></clipPath><clipPath id="clip-path-9"><rect x="241.4" y="155.61" width="14.2" height="33.3" transform="translate(-0.67 0.97) rotate(-0.22)" fill="none"/></clipPath><clipPath id="clip-path-10"><rect x="260.3" y="159.31" width="14.2" height="29.6" transform="translate(-0.68 1.05) rotate(-0.22)" fill="none"/></clipPath><clipPath id="clip-path-11"><rect x="279.2" y="134.11" width="14.2" height="54.8" transform="translate(-0.63 1.12) rotate(-0.22)" fill="none"/></clipPath><clipPath id="clip-path-12"><rect x="298.2" y="137.81" width="14.2" height="51.1" transform="translate(-0.64 1.19) rotate(-0.22)" fill="none"/></clipPath><clipPath id="clip-path-13"><rect x="317.2" y="137.81" width="14.2" height="51.1" transform="translate(-0.64 1.27) rotate(-0.22)" fill="none"/></clipPath><clipPath id="clip-path-14"><rect x="336.1" y="139.71" width="14.2" height="49.2" transform="translate(-0.64 1.34) rotate(-0.22)" fill="none"/></clipPath><clipPath id="clip-path-15"><rect x="355.1" y="139.71" width="14.2" height="49.2" transform="translate(-0.64 1.42) rotate(-0.22)" fill="none"/></clipPath><clipPath id="clip-path-16"><rect x="374" y="147.21" width="14.2" height="41.7" transform="matrix(1, 0, 0, 1, -0.65, 1.49)" fill="none"/></clipPath><clipPath id="clip-path-17"><rect x="393" y="147.21" width="14.2" height="41.7" transform="matrix(1, 0, 0, 1, -0.65, 1.57)" fill="none"/></clipPath><clipPath id="clip-path-18"><rect x="411.9" y="147.21" width="14.2" height="41.7" transform="translate(-0.65 1.64) rotate(-0.22)" fill="none"/></clipPath><clipPath id="clip-path-19"><rect x="430.8" y="147.21" width="14.2" height="41.7" transform="matrix(1, 0, 0, 1, -0.65, 1.71)" fill="none"/></clipPath><clipPath id="clip-path-20"><rect x="449.7" y="150.01" width="14.2" height="38.9" transform="translate(-0.66 1.79) rotate(-0.22)" fill="none"/></clipPath><clipPath id="clip-path-21"><rect x="468.6" y="150.91" width="14.2" height="38" transform="translate(-0.66 1.86) rotate(-0.22)" fill="none"/></clipPath><clipPath id="clip-path-22"><rect x="487.6" y="154.71" width="14.2" height="34.3" transform="translate(-0.67 1.94) rotate(-0.22)" fill="none"/></clipPath><clipPath id="clip-path-23"><rect x="506.4" y="159.31" width="14.2" height="29.6" transform="translate(-0.68 2.02) rotate(-0.22)" fill="none"/></clipPath><clipPath id="clip-path-24"><rect x="70.5" y="120.11" width="14.3" height="68.9" transform="translate(-0.6 0.31) rotate(-0.22)" fill="none"/></clipPath><clipPath id="clip-path-25"><rect x="51.5" y="115.41" width="14.3" height="73.6" transform="translate(-0.59 0.23) rotate(-0.22)" fill="none"/></clipPath></defs><title>r_4_D_Tablet</title><g id="Layer_2" data-name="Layer 2"><g id="MC_Tab_Content"><line x1="0.23" y1="0.5" x2="579.59" y2="0.5" fill="none" stroke="#ddd" stroke-miterlimit="10"/><rect y="0.5" width="579.59" height="494.27" fill="#f7f7f7"/><line x1="0.23" y1="0.5" x2="579.59" y2="0.5" fill="none" stroke="#ddd" stroke-miterlimit="10"/></g><g id="PF_Cont_Screen"><path d="M32.05,246.41h1.5l2.21,6.4,2.2-6.4h1.5V254h-.8v-6.7h-.2l-2.2,6.4h-.9l-2.2-6.4H33V254h-.79v-7.6Z" fill="#4c4c4c"/><path d="M45.05,252.91c0,.3.3.4.61.5v.6a1.68,1.68,0,0,1-1.3-.4,6.2,6.2,0,0,1-2,.4,1.5,1.5,0,0,1-1.6-1.7c0-1.1.5-1.5,1.7-1.6l1.7-.2V250c0-.8-.3-1-1-1s-2.1.1-2.1.1v-.6a15.93,15.93,0,0,1,2.2-.2,1.59,1.59,0,0,1,1.8,1.8v2.8Zm-2.5-1.5c-.7.1-.89.4-.89,1s.29,1,.79,1a6.46,6.46,0,0,0,1.71-.3v-1.8Z" fill="#4c4c4c"/><path d="M46.66,246.31h.79v1h-.79Zm0,2.2h.79V254h-.79Z" fill="#4c4c4c"/><path d="M49.05,254v-5.5h.8v.4a4.2,4.2,0,0,1,1.7-.5c1.5,0,1.9.7,1.9,2.7V254h-.79v-2.9c0-1.5-.21-2-1.21-2a4.2,4.2,0,0,0-1.6.4V254Z" fill="#4c4c4c"/><path d="M56.05,249.21v2.6c0,1.2.11,1.5.8,1.5.3,0,1-.1,1-.1l.1.7a10.42,10.42,0,0,1-1.1.1c-1.1,0-1.5-.4-1.5-2v-2.9h-.8v-.7h.8v-1.6h.8v1.7h1.7v.7Z" fill="#4c4c4c"/><path d="M63,253.31v.6a17.74,17.74,0,0,1-2.1.2c-1.6,0-2.2-1-2.2-2.8,0-2.1.9-2.9,2.3-2.9s2.2.8,2.2,2.6v.6h-3.6c0,1.2.4,1.8,1.4,1.8C61.76,253.41,63,253.31,63,253.31Zm-.69-2.4c0-1.4-.4-1.8-1.4-1.8s-1.5.5-1.5,1.8Z" fill="#4c4c4c"/><path d="M64.35,254v-5.5h.8v.4a4.2,4.2,0,0,1,1.7-.5c1.5,0,1.9.7,1.9,2.7V254H68v-2.9c0-1.5-.2-2-1.2-2a4.14,4.14,0,0,0-1.6.4V254Z" fill="#4c4c4c"/><path d="M74.16,252.91c0,.3.29.4.6.5v.6a1.7,1.7,0,0,1-1.3-.4,6.2,6.2,0,0,1-2,.4,1.5,1.5,0,0,1-1.6-1.7c0-1.1.5-1.5,1.7-1.6l1.7-.2V250c0-.8-.3-1-1-1s-2.1.1-2.1.1v-.6a15.93,15.93,0,0,1,2.2-.2,1.59,1.59,0,0,1,1.8,1.8v2.8Zm-2.4-1.5c-.71.1-.9.4-.9,1s.3,1,.8,1a6.44,6.44,0,0,0,1.7-.3v-1.8Z" fill="#4c4c4c"/><path d="M75.85,254v-5.5h.8v.4a4.2,4.2,0,0,1,1.7-.5c1.5,0,1.9.7,1.9,2.7V254h-.8v-2.9c0-1.5-.2-2-1.2-2a4.14,4.14,0,0,0-1.6.4V254Z" fill="#4c4c4c"/><path d="M85.26,248.51v.7s-.9-.1-1.3-.1c-1.3,0-1.6.5-1.6,2s.3,2.2,1.6,2.2c.4,0,1.3-.1,1.3-.1v.7a10.87,10.87,0,0,1-1.5.2c-1.71,0-2.3-.8-2.3-3,0-2,.6-2.8,2.3-2.8C84.26,248.41,85.26,248.51,85.26,248.51Z" fill="#4c4c4c"/><path d="M90.55,253.31v.6a17.74,17.74,0,0,1-2.1.2c-1.6,0-2.2-1-2.2-2.8,0-2.1.9-2.9,2.3-2.9s2.2.8,2.2,2.6v.6h-3.6c0,1.2.4,1.8,1.4,1.8C89.35,253.41,90.55,253.31,90.55,253.31Zm-.6-2.4c0-1.4-.4-1.8-1.4-1.8s-1.5.5-1.5,1.8Z" fill="#4c4c4c"/><path d="M34,90.61c1.5,0,2.3.6,2.3,1.9,0,1-.4,1.5-1,1.7a1.63,1.63,0,0,1,1.2,1.8c0,1.6-.9,2.1-2.4,2.1H31.16v-7.6H34Zm-1.9.7v2.6h2a1.22,1.22,0,0,0,1.4-1.4c0-.9-.5-1.3-1.4-1.3h-2Zm0,3.4v2.8h2c.9,0,1.5-.3,1.5-1.4s-1-1.3-1.6-1.3h-1.9Z" fill="#4c4c4c"/><path d="M41.66,97.21c0,.3.29.4.6.5v.6a1.7,1.7,0,0,1-1.3-.4,6.2,6.2,0,0,1-2,.4,1.5,1.5,0,0,1-1.6-1.7c0-1.1.5-1.5,1.7-1.6l1.7-.2v-.5c0-.8-.3-1-1-1s-2.1.1-2.1.1v-.6a15.93,15.93,0,0,1,2.2-.2,1.59,1.59,0,0,1,1.8,1.8v2.8Zm-2.4-1.6c-.71.1-.9.4-.9,1s.3,1,.8,1a6.44,6.44,0,0,0,1.7-.3v-1.8Z" fill="#4c4c4c"/><path d="M44.45,93.41V96c0,1.2.1,1.5.8,1.5.3,0,1-.1,1-.1l.1.7a10.42,10.42,0,0,1-1.1.1c-1.1,0-1.5-.4-1.5-2v-2.9H43v-.7h.8v-1.7h.8v1.7h1.7v.7h-1.8Z" fill="#4c4c4c"/><path d="M48.26,93.41V96c0,1.2.1,1.5.79,1.5.3,0,1-.1,1-.1l.11.7a10.71,10.71,0,0,1-1.11.1c-1.1,0-1.5-.4-1.5-2v-2.9h-.79v-.7h.79v-1.7h.8v1.7h1.7v.7H48.26Z" fill="#4c4c4c"/><path d="M55.05,97.51v.6a17.74,17.74,0,0,1-2.1.2c-1.6,0-2.2-1-2.2-2.8,0-2.1.9-2.9,2.3-2.9s2.2.8,2.2,2.6v.6h-3.6c0,1.2.4,1.8,1.4,1.8C53.85,97.61,55.05,97.51,55.05,97.51Zm-.6-2.4c0-1.4-.4-1.8-1.4-1.8s-1.5.5-1.5,1.8Z" fill="#4c4c4c"/><path d="M56.55,92.71h.8v.7a6.27,6.27,0,0,1,2-.9v.8a9.25,9.25,0,0,0-2,.7v4h-.8Z" fill="#4c4c4c"/><path d="M60.76,92.71l1.4,4.8h.39l1.4-4.8h.8l-2.3,7.9h-.79l.7-2.4h-.8L60,92.71Z" fill="#4c4c4c"/><path d="M34.85,325h1.5l2.2,6.4,2.21-6.4h1.5v7.6h-.8v-6.7h-.2l-2.21,6.4h-.89L36,325.91h-.2v6.7H35V325Z" fill="#4c4c4c"/><path d="M47.85,331.61c0,.3.3.4.6.5v.6a1.66,1.66,0,0,1-1.29-.4,6.2,6.2,0,0,1-2,.4,1.51,1.51,0,0,1-1.61-1.7c0-1.1.5-1.5,1.71-1.6l1.7-.2v-.5c0-.8-.3-1-1-1s-2.1.1-2.1.1v-.6a15.93,15.93,0,0,1,2.2-.2,1.59,1.59,0,0,1,1.8,1.8v2.8Zm-2.5-1.6c-.7.1-.9.4-.9,1s.3,1,.8,1a6.34,6.34,0,0,0,1.7-.3v-1.8Z" fill="#4c4c4c"/><path d="M49.45,327.11h.8v.7a6.27,6.27,0,0,1,2-.9v.8a9.25,9.25,0,0,0-2,.7v4h-.8Z" fill="#4c4c4c"/><path d="M96.45,325h1.8l2.1,7.6h-.8l-.6-2H95.66l-.5,2h-.8Zm-.5,4.9h2.9l-1.2-4.2h-.6Z" fill="#4c4c4c"/><path d="M101.45,327.11h.8v.4a3.63,3.63,0,0,1,1.7-.5c1.4,0,2,.8,2,2.8,0,2.2-.7,2.9-2.4,2.9-.5,0-1.1-.1-1.2-.1v2.5h-.8v-8Zm.81,1.1v3.7c.1,0,.7.1,1.2.1,1.2,0,1.6-.6,1.6-2.2s-.5-2.1-1.3-2.1A5.74,5.74,0,0,0,102.26,328.21Z" fill="#4c4c4c"/><path d="M107.26,327.11h.79v.7a6.27,6.27,0,0,1,2-.9v.8a9.25,9.25,0,0,0-2,.7v4h-.79Z" fill="#4c4c4c"/><path d="M156.05,331.61c0,1.6-.6,1.8-2.1,1.8v-.8c1,0,1.21-.1,1.21-1.2V325H156Z" fill="#4c4c4c"/><path d="M162,327.11v5.5h-.79v-.4a3.53,3.53,0,0,1-1.61.5c-1.5,0-1.89-.7-1.89-2.7v-2.9h.79V330c0,1.5.1,2,1.21,2a3.46,3.46,0,0,0,1.5-.4v-4.5Z" fill="#4c4c4c"/><path d="M163.55,332.61v-5.5h.8v.4a4.2,4.2,0,0,1,1.7-.5c1.5,0,1.9.7,1.9,2.7v2.9h-.79v-2.9c0-1.5-.21-2-1.21-2a4.2,4.2,0,0,0-1.6.4v4.5Z" fill="#4c4c4c"/><path d="M216.66,331.61c0,1.6-.61,1.8-2.11,1.8v-.8c1,0,1.21-.1,1.21-1.2V325h.79Z" fill="#4c4c4c"/><path d="M222.66,327.11v5.5h-.8v-.4a3.52,3.52,0,0,1-1.6.5c-1.5,0-1.9-.7-1.9-2.7v-2.9h.8V330c0,1.5.1,2,1.2,2a3.4,3.4,0,0,0,1.5-.4v-4.5Z" fill="#4c4c4c"/><path d="M224.26,324.71h.79v7.9h-.79Z" fill="#4c4c4c"/><path d="M272.45,325h1.8l2.1,7.6h-.8l-.6-2h-3.29l-.5,2h-.8Zm-.5,4.9h2.9l-1.2-4.2h-.6Z" fill="#4c4c4c"/><path d="M281.76,327.11v5.5H281v-.4a3.52,3.52,0,0,1-1.6.5c-1.5,0-1.9-.7-1.9-2.7v-2.9h.8V330c0,1.5.1,2,1.2,2a3.4,3.4,0,0,0,1.5-.4v-4.5Z" fill="#4c4c4c"/><path d="M283.05,333.61c0-.6.3-.9.9-1.4-.2-.1-.29-.4-.29-.8a4,4,0,0,1,.39-.9c-.5-.2-.89-.6-.89-1.7,0-1.4.79-1.9,2.1-1.9a8,8,0,0,1,1.1.1H288v.7h-1a1.42,1.42,0,0,1,.4,1.1c0,1.4-.7,1.9-2.1,1.9h-.5a4,4,0,0,0-.21.6c0,.4.11.5,1.3.5,1.6,0,2.1.3,2.1,1.6s-.9,1.7-2.4,1.7C283.76,335.21,283.05,334.81,283.05,333.61Zm1.5-1.1a1,1,0,0,0-.6,1c0,.8.3,1,1.6,1,1.11,0,1.61-.3,1.61-1s-.4-.9-1.4-.9C285.35,332.61,284.55,332.51,284.55,332.51Zm1.9-3.6c0-.9-.29-1.2-1.29-1.2s-1.21.3-1.21,1.2.4,1.2,1.21,1.2C286.16,330.11,286.45,329.81,286.45,328.91Z" fill="#4c4c4c"/><path d="M334.66,325.81s-1.5-.2-2.21-.2c-1.1,0-1.7.4-1.7,1.2,0,1,.5,1.2,1.9,1.5s2.2.7,2.2,2c0,1.7-.9,2.3-2.4,2.3a23.87,23.87,0,0,1-2.4-.2l.11-.7s1.5.2,2.29.2c1.1,0,1.6-.5,1.6-1.5s-.5-1.1-1.7-1.3c-1.6-.3-2.4-.7-2.4-2.2s1-2,2.5-2a20.87,20.87,0,0,1,2.3.2Z" fill="#4c4c4c"/><path d="M340.35,331.91v.6a18,18,0,0,1-2.1.2c-1.6,0-2.2-1-2.2-2.8,0-2.1.9-2.9,2.3-2.9s2.2.8,2.2,2.6v.6H337c0,1.2.4,1.8,1.4,1.8C339.16,332,340.35,331.91,340.35,331.91Zm-.69-2.3c0-1.4-.4-1.8-1.4-1.8s-1.5.5-1.5,1.8Z" fill="#4c4c4c"/><path d="M341.76,327.11h.79v.4a3.65,3.65,0,0,1,1.71-.5c1.4,0,2,.8,2,2.8,0,2.2-.71,2.9-2.4,2.9-.5,0-1.1-.1-1.2-.1v2.5h-.8v-8Zm.9,1.1v3.7c.1,0,.7.1,1.2.1,1.2,0,1.6-.6,1.6-2.2s-.5-2.1-1.3-2.1A4.46,4.46,0,0,0,342.66,328.21Z" fill="#4c4c4c"/><path d="M389.85,328.91c0-2.5.6-3.9,3-3.9s3,1.4,3,3.9-.6,3.9-3,3.9S389.85,331.41,389.85,328.91Zm5.1,0c0-2.1-.4-3.2-2.1-3.2s-2.1,1.1-2.1,3.2.4,3.1,2.1,3.1S395,331,395,328.91Z" fill="#4c4c4c"/><path d="M400.76,327.21v.7s-.9-.1-1.3-.1c-1.3,0-1.6.5-1.6,2s.3,2.2,1.6,2.2c.4,0,1.3-.1,1.3-.1v.7a10.87,10.87,0,0,1-1.5.2c-1.71,0-2.3-.8-2.3-3,0-2,.6-2.8,2.3-2.8A10.87,10.87,0,0,1,400.76,327.21Z" fill="#4c4c4c"/><path d="M403.16,327.81v2.6c0,1.2.1,1.5.79,1.5.3,0,1-.1,1-.1l.1.7a10.42,10.42,0,0,1-1.1.1c-1.1,0-1.5-.4-1.5-2v-2.9h-.79V327h.79v-1.7h.8V327H405v.7h-1.79Z" fill="#4c4c4c"/><path d="M447.85,325h1.6l2.9,6.9h.2V325h.8v7.6h-1.6l-3-6.9h-.2v6.9h-.8V325Z" fill="#4c4c4c"/><path d="M459.66,329.81c0,2-.5,2.9-2.4,2.9s-2.4-.9-2.4-2.9.6-2.8,2.4-2.8S459.66,327.91,459.66,329.81Zm-.9,0c0-1.5-.3-2.1-1.5-2.1s-1.5.5-1.5,2.1.2,2.2,1.5,2.2S458.76,331.41,458.76,329.81Z" fill="#4c4c4c"/><path d="M461.26,327.11l1.29,4.8h.4l1.3-4.8h.8l-1.6,5.5h-1.7l-1.6-5.5Z" fill="#4c4c4c"/><path d="M507.35,332.61V325h2.7c2.21,0,2.8,1.5,2.8,3.7s-.6,3.9-2.8,3.9Zm2.7-6.8h-1.89v6.1h1.89c1.61,0,1.9-1.5,1.9-3.2S511.66,325.81,510.05,325.81Z" fill="#4c4c4c"/><path d="M518.35,331.91v.6a18,18,0,0,1-2.1.2c-1.6,0-2.2-1-2.2-2.8,0-2.1.9-2.9,2.3-2.9s2.2.8,2.2,2.6v.6H515c0,1.2.4,1.8,1.4,1.8C517.16,332,518.35,331.91,518.35,331.91Zm-.59-2.3c0-1.4-.4-1.8-1.4-1.8s-1.5.5-1.5,1.8Z" fill="#4c4c4c"/><path d="M523.35,327.21v.7s-.9-.1-1.3-.1c-1.29,0-1.6.5-1.6,2s.3,2.2,1.6,2.2c.4,0,1.3-.1,1.3-.1v.7a10.87,10.87,0,0,1-1.5.2c-1.7,0-2.3-.8-2.3-3,0-2,.61-2.8,2.3-2.8A10.87,10.87,0,0,1,523.35,327.21Z" fill="#4c4c4c"/><path d="M54.05,201h-3.5v-.7l2.11-5.2h.89l-2.1,5.1h2.6v-2.3h.8v2.3h.9v.7h-.9v1.4h-.8Z" fill="#4c4c4c"/><path d="M36.55,193.71c0,3.1-1.1,4-2.89,4s-2.9-.9-2.9-4c0-3.3,1.1-4.3,2.9-4.3S36.55,190.41,36.55,193.71Zm-4.89,0c0,2.5.7,3.2,2,3.2s2-.7,2-3.2c0-2.7-.61-3.4-2-3.4S31.66,191,31.66,193.71Z" fill="#4c4c4c"/><path d="M31.05,173.41v-.8l2.3-2.5c1-1,1.6-1.7,1.6-2.6,0-1.1-.6-1.4-1.7-1.4a10.64,10.64,0,0,0-2.1.3l-.1-.8a11.07,11.07,0,0,1,2.3-.3c1.7,0,2.5.6,2.5,2.1,0,1.2-.5,1.9-1.7,3l-2.1,2.2h4v.8Z" fill="#4c4c4c"/><path d="M34.55,146.71H30.66V146l2.29-5.7h1l-2.29,5.6h2.89v-2.5h.9v2.5h1v.8h-1v1.6h-.9Z" fill="#4c4c4c"/><path d="M36.05,116s-1.1-.1-2.1-.1c-1.4,0-2.2,1-2.2,2.8a5.89,5.89,0,0,1,2-.5c1.8,0,2.7.8,2.7,2.5s-1,2.6-2.79,2.6c-2,0-2.9-1.6-2.9-4.2,0-2.9,1.2-4.1,3.1-4.1a15.93,15.93,0,0,1,2.2.2Zm-4.29,3.5c0,1.7.5,3,1.9,3a1.58,1.58,0,0,0,1.79-1.8c0-1.1-.7-1.6-1.79-1.6A4.38,4.38,0,0,0,31.76,119.51Z" fill="#4c4c4c"/><path d="M148.16,196.91a1.71,1.71,0,0,1-1.21,1.7c.8.4,1.3.8,1.3,1.8,0,1.6-1.2,2.1-2.7,2.1s-2.7-.5-2.7-2a1.87,1.87,0,0,1,1.3-1.9,1.63,1.63,0,0,1-1.1-1.7c0-1.3,1-1.9,2.6-1.9C147.05,195.11,148.16,195.71,148.16,196.91Zm-.81,3.5c0-.8-.6-1.1-1.3-1.3h-1.2a1.32,1.32,0,0,0-1.2,1.4c0,1,.8,1.3,1.8,1.3S147.35,201.41,147.35,200.41Zm-3.5-3.4c0,.7.4,1,1.1,1.3h1.21c.7-.2,1.2-.6,1.2-1.3,0-.9-.6-1.2-1.7-1.2S143.85,196.21,143.85,197Z" fill="#4c4c4c"/><path d="M235.16,195.21H236v7.3h-.79v-6.3l-1.9,1.2-.4-.6Z" fill="#4c4c4c"/><path d="M238.55,202.41v-.7l2.11-2.2c.89-.9,1.5-1.5,1.5-2.4s-.5-1.3-1.61-1.3a13.11,13.11,0,0,0-1.89.2l-.11-.7a8.28,8.28,0,0,1,2.11-.3c1.5,0,2.29.6,2.29,1.9,0,1.1-.5,1.7-1.5,2.7l-1.9,2h3.61v.7h-4.61Z" fill="#4c4c4c"/><path d="M327.45,195.21h.8v7.3h-.8v-6.3l-1.9,1.2-.39-.6Z" fill="#4c4c4c"/><path d="M335.45,195.91s-1-.1-1.9-.1c-1.29,0-2,.9-2,2.5a5.91,5.91,0,0,1,1.8-.4c1.6,0,2.4.7,2.4,2.3a2.24,2.24,0,0,1-2.5,2.4c-1.8,0-2.6-1.4-2.6-3.8,0-2.6,1.1-3.7,2.8-3.7a13.38,13.38,0,0,1,2,.2Zm-3.9,3.2c0,1.6.5,2.7,1.71,2.7a1.5,1.5,0,0,0,1.7-1.6,1.4,1.4,0,0,0-1.6-1.5A5.13,5.13,0,0,0,331.55,199.11Z" fill="#4c4c4c"/><path d="M417.05,202.41v-.7l2.11-2.2c.89-.9,1.5-1.5,1.5-2.4s-.5-1.3-1.61-1.3a13.11,13.11,0,0,0-1.89.2l-.11-.7a8.28,8.28,0,0,1,2.11-.3c1.5,0,2.29.6,2.29,1.9,0,1.1-.5,1.7-1.5,2.7l-1.9,2h3.61v.7h-4.61Z" fill="#4c4c4c"/><path d="M428.16,198.91c0,2.8-1,3.6-2.61,3.6s-2.7-.8-2.7-3.6c0-3,1-3.9,2.6-3.9S428.16,195.91,428.16,198.91Zm-4.4,0c0,2.3.6,2.9,1.79,2.9s1.8-.6,1.8-2.9-.6-3.1-1.8-3.1S423.76,196.51,423.76,198.91Z" fill="#4c4c4c"/><path d="M509.35,202.41v-.7l2.1-2.2c.9-.9,1.5-1.5,1.5-2.4s-.5-1.3-1.6-1.3a13.13,13.13,0,0,0-1.9.2l-.1-.7a8.25,8.25,0,0,1,2.1-.3c1.5,0,2.3.6,2.3,1.9,0,1.1-.5,1.7-1.5,2.7l-1.9,2H514v.7h-4.6Z" fill="#4c4c4c"/><path d="M518.66,201h-3.5v-.7l2.1-5.2h.9l-2.11,5.1h2.61v-2.3h.79v2.3h.9v.7h-.9v1.4h-.79Z" fill="#4c4c4c"/><line x1="47.85" y1="106.11" x2="47.85" y2="196.51" fill="none" stroke="#adadad" stroke-miterlimit="10"/><line x1="525.05" y1="189.61" x2="39.66" y2="189.61" fill="none" stroke="#adadad" stroke-miterlimit="10"/><line x1="528.26" y1="318.01" x2="30.95" y2="318.01" fill="none" stroke="#adadad" stroke-miterlimit="10"/><polyline points="34.26 313.51 51.95 313.51 74.75 310.51 92.1 307.53 107.25 302.48 127.56 297.38 149.56 292.66 161.96 288.24 186.43 278.63 212.8 274.95 236.59 270.22 266.13 275.63 281.75 277.49 301.59 283.49 317.15 291.47 336.75 298.5 360.02 309.66 383.11 311.19 424.95 310.51 467.95 313.51 500.86 310.51 513.46 304.51" fill="none" stroke="#3899e8"/><polyline points="34.26 314.01 51.95 314.01 74.75 311.01 90.75 307.98 107.25 302.48 129.2 296.97 153.71 291.78 167.96 285.66 186.43 278.63 208.84 275.57 237.73 271.6 285.04 277.88 299.49 282.35 310.82 288.51 324.25 294.02 339.65 299.56 360.02 309.66 383.11 311.19 424.95 311.01 467.95 314.01 500.86 311.01 513.46 305.01" fill="none" stroke="#8dc5f2"/><path d="M34.45,58.21h3l3.4,12.5h-1.4l-.9-3.2H33.26l-.9,3.2H31Zm-.79,8h4.7l-1.9-6.8h-.9Z" fill="#3a3d3f"/><path d="M47.85,64.31h3.4v6.1a27.88,27.88,0,0,1-4.1.4c-3.8,0-4.8-2.3-4.8-6.4s1-6.4,4.8-6.4a21.88,21.88,0,0,1,4.1.5l-.1,1.2a26.49,26.49,0,0,0-3.9-.4c-2.9,0-3.5,1.7-3.5,5.2s.6,5.1,3.5,5.1a15.56,15.56,0,0,0,2.6-.3v-3.8h-2.1v-1.2Z" fill="#3a3d3f"/><path d="M62.45,58.21l-3.29,12.5H56.05l-3.29-12.5h1.4l2.89,11.2h1L61,58.21Z" fill="#3a3d3f"/><path d="M68.16,59.11a14.09,14.09,0,0,1,3.5-.5c2.79,0,3.79,1,3.79,3.1a2.83,2.83,0,0,1-1.79,2.7,2.64,2.64,0,0,1,2.1,2.9c0,2.4-1.21,3.6-3.9,3.6a18.63,18.63,0,0,1-3.9-.5l.1-1.1a20.49,20.49,0,0,0,3.6.4c1.8,0,2.6-.8,2.6-2.3a2.1,2.1,0,0,0-2.4-2.2h-2.4V64h2.4a2.28,2.28,0,0,0,2.2-2.2c0-1.4-.7-1.9-2.4-1.9a16.72,16.72,0,0,0-3.3.4Z" fill="#3a3d3f"/><g style="isolation:isolate"><rect id="SVGID" x="89.55" y="124.71" width="14.3" height="64.2" fill="#76ce89"/><g clip-path="url(#clip-path)"><rect x="89.7" y="124.81" width="14" height="64.1" transform="translate(-0.61 0.38) rotate(-0.22)" fill="#76ce89"/></g></g><g style="isolation:isolate"><rect id="SVGID-2" data-name="SVGID" x="108.55" y="124.71" width="14.3" height="64.2" fill="#76ce89"/><g clip-path="url(#clip-path-2)"><rect x="108.7" y="124.81" width="14" height="64.1" transform="translate(-0.61 0.45) rotate(-0.22)" fill="#76ce89"/></g></g><g style="isolation:isolate"><rect id="SVGID-3" data-name="SVGID" x="127.55" y="130.41" width="14.3" height="58.6" fill="#76ce89"/><g clip-path="url(#clip-path-3)"><rect x="127.7" y="130.41" width="14" height="58.5" transform="translate(-0.62 0.53) rotate(-0.22)" fill="#76ce89"/></g></g><g style="isolation:isolate"><rect id="SVGID-4" data-name="SVGID" x="146.55" y="130.41" width="14.3" height="58.6" fill="#76ce89"/><g clip-path="url(#clip-path-4)"><rect x="146.7" y="130.41" width="14" height="58.5" transform="translate(-0.62 0.6) rotate(-0.22)" fill="#76ce89"/></g></g><g style="isolation:isolate"><rect id="SVGID-5" data-name="SVGID" x="165.55" y="134.11" width="14.2" height="54.8" fill="#76ce89"/><g clip-path="url(#clip-path-5)"><rect x="165.7" y="134.11" width="14" height="54.8" transform="translate(-0.63 0.67) rotate(-0.22)" fill="#76ce89"/></g></g><g style="isolation:isolate"><rect id="SVGID-6" data-name="SVGID" x="184.55" y="137.81" width="14.2" height="51.1" fill="#76ce89"/><g clip-path="url(#clip-path-6)"><rect x="184.7" y="137.91" width="14" height="51.1" transform="translate(-0.64 0.75) rotate(-0.22)" fill="#76ce89"/></g></g><g style="isolation:isolate"><rect id="SVGID-7" data-name="SVGID" x="203.55" y="137.81" width="14.2" height="51.1" fill="#76ce89"/><g clip-path="url(#clip-path-7)"><rect x="203.7" y="137.91" width="14" height="51" transform="translate(-0.64 0.82) rotate(-0.22)" fill="#76ce89"/></g></g><g style="isolation:isolate"><rect id="SVGID-8" data-name="SVGID" x="222.45" y="150.01" width="14.2" height="38.9" fill="#76ce89"/><g clip-path="url(#clip-path-8)"><rect x="222.6" y="150.01" width="14" height="38.9" transform="translate(-0.66 0.9) rotate(-0.22)" fill="#76ce89"/></g></g><g style="isolation:isolate"><g clip-path="url(#clip-path-9)"><rect x="241.5" y="155.61" width="14" height="33.3" transform="translate(-0.67 0.97) rotate(-0.22)" fill="#ffda00"/></g></g><g style="isolation:isolate"><g clip-path="url(#clip-path-10)"><rect x="260.4" y="159.41" width="14" height="29.5" transform="translate(-0.68 1.05) rotate(-0.22)" fill="#ffda00"/></g></g><g style="isolation:isolate"><rect id="SVGID-9" data-name="SVGID" x="279.16" y="134.11" width="14.2" height="54.8" fill="#76ce89"/><g clip-path="url(#clip-path-11)"><rect x="279.3" y="134.11" width="14" height="54.8" transform="matrix(1, 0, 0, 1, -0.63, 1.12)" fill="#76ce89"/></g></g><g style="isolation:isolate"><rect id="SVGID-10" data-name="SVGID" x="298.16" y="137.81" width="14.2" height="51.1" fill="#76ce89"/><g clip-path="url(#clip-path-12)"><rect x="298.3" y="137.91" width="14" height="51" transform="translate(-0.64 1.19) rotate(-0.22)" fill="#76ce89"/></g></g><g style="isolation:isolate"><rect id="SVGID-11" data-name="SVGID" x="317.16" y="137.81" width="14.2" height="51.1" fill="#76ce89"/><g clip-path="url(#clip-path-13)"><rect x="317.3" y="137.91" width="14" height="51" transform="translate(-0.64 1.27) rotate(-0.22)" fill="#76ce89"/></g></g><g style="isolation:isolate"><rect id="SVGID-12" data-name="SVGID" x="336.05" y="139.71" width="14.2" height="49.2" fill="#76ce89"/><g clip-path="url(#clip-path-14)"><rect x="336.2" y="139.71" width="14" height="49.2" transform="translate(-0.64 1.34) rotate(-0.22)" fill="#76ce89"/></g></g><g style="isolation:isolate"><rect id="SVGID-13" data-name="SVGID" x="355.05" y="139.71" width="14.2" height="49.2" fill="#76ce89"/><g clip-path="url(#clip-path-15)"><rect x="355.2" y="139.71" width="14" height="49.2" transform="translate(-0.64 1.42) rotate(-0.22)" fill="#76ce89"/></g></g><g style="isolation:isolate"><rect id="SVGID-14" data-name="SVGID" x="373.95" y="147.21" width="14.2" height="41.7" fill="#76ce89"/><g clip-path="url(#clip-path-16)"><rect x="374.1" y="147.21" width="14" height="41.7" transform="translate(-0.65 1.49) rotate(-0.22)" fill="#76ce89"/></g></g><g style="isolation:isolate"><rect id="SVGID-15" data-name="SVGID" x="392.95" y="147.21" width="14.2" height="41.7" fill="#76ce89"/><g clip-path="url(#clip-path-17)"><rect x="393" y="147.21" width="14" height="41.7" transform="translate(-0.65 1.57) rotate(-0.22)" fill="#76ce89"/></g></g><g style="isolation:isolate"><rect id="SVGID-16" data-name="SVGID" x="411.85" y="147.21" width="14.2" height="41.7" fill="#76ce89"/><g clip-path="url(#clip-path-18)"><rect x="412" y="147.21" width="14" height="41.7" transform="translate(-0.65 1.64) rotate(-0.22)" fill="#76ce89"/></g></g><g style="isolation:isolate"><rect id="SVGID-17" data-name="SVGID" x="430.76" y="147.21" width="14.2" height="41.7" fill="#76ce89"/><g clip-path="url(#clip-path-19)"><rect x="430.9" y="147.21" width="14" height="41.7" transform="matrix(1, 0, 0, 1, -0.65, 1.71)" fill="#76ce89"/></g></g><g style="isolation:isolate"><rect id="SVGID-18" data-name="SVGID" x="449.66" y="150.01" width="14.2" height="38.9" fill="#76ce89"/><g clip-path="url(#clip-path-20)"><rect x="449.8" y="150.01" width="14" height="38.9" transform="translate(-0.66 1.79) rotate(-0.22)" fill="#76ce89"/></g></g><g style="isolation:isolate"><rect id="SVGID-19" data-name="SVGID" x="468.55" y="150.91" width="14.2" height="38" fill="#76ce89"/><g clip-path="url(#clip-path-21)"><rect x="468.7" y="150.91" width="14" height="38" transform="matrix(1, 0, 0, 1, -0.66, 1.86)" fill="#76ce89"/></g></g><g style="isolation:isolate"><rect id="SVGID-20" data-name="SVGID" x="487.55" y="154.71" width="14.2" height="34.3" fill="#76ce89"/><g clip-path="url(#clip-path-22)"><rect x="487.6" y="154.71" width="14" height="34.2" transform="translate(-0.67 1.94) rotate(-0.22)" fill="#76ce89"/></g></g><g style="isolation:isolate"><g clip-path="url(#clip-path-23)"><rect x="506.5" y="159.41" width="14" height="29.6" transform="translate(-0.68 2.02) rotate(-0.22)" fill="#ffda00"/></g></g><g style="isolation:isolate"><rect id="SVGID-21" data-name="SVGID" x="70.45" y="120.11" width="14.3" height="68.9" fill="#76ce89"/><g clip-path="url(#clip-path-24)"><rect x="70.7" y="120.11" width="14" height="68.9" transform="translate(-0.6 0.31) rotate(-0.22)" fill="#76ce89"/></g></g><g style="isolation:isolate"><rect id="SVGID-22" data-name="SVGID" x="51.45" y="115.41" width="14.3" height="73.6" fill="#76ce89"/><g clip-path="url(#clip-path-25)"><rect x="51.6" y="115.41" width="14" height="73.6" transform="translate(-0.59 0.23) rotate(-0.22)" fill="#76ce89"/></g></g><circle cx="202.79" cy="398.23" r="20.92" fill="#bddff4" stroke="#2277d6" stroke-miterlimit="10" stroke-width="2"/><path d="M198.32,390.46a18.62,18.62,0,0,1,4.66-.67c3.74,0,5.06,1.32,5.06,4.12a3.94,3.94,0,0,1-2.35,3.6c1.61.58,2.73,1.28,2.73,3.84,0,3.2-1.56,4.78-5.13,4.78a26,26,0,0,1-5.21-.65l.17-1.51a28.52,28.52,0,0,0,4.85.53c2.35,0,3.43-1,3.43-3.07s-1.47-2.91-3.27-3h-3.19v-1.58h3.19a3,3,0,0,0,2.88-2.88c0-1.8-.88-2.55-3.24-2.55a24.13,24.13,0,0,0-4.41.48Z"/><circle cx="255.7" cy="398.23" r="20.92" fill="#bddff4"/><path d="M260.22,390.05v1.68h-7.71l-.43,5.16a9.18,9.18,0,0,1,3.72-1c3.1,0,5,1.29,5,4.68,0,3.64-2,5.52-5.3,5.52a26,26,0,0,1-5.26-.7l.22-1.46a32.06,32.06,0,0,0,4.87.52c2.18,0,3.57-1.29,3.57-3.74s-1.34-3.17-3.36-3.17a9.15,9.15,0,0,0-3.77,1l-1.27-.24.43-8.23Z"/><circle cx="308.61" cy="398.23" r="20.92" fill="#bddff4"/><path d="M312.82,391.73a36.45,36.45,0,0,0-4.18-.29c-2.76,0-4.27,2-4.27,5.47a13.68,13.68,0,0,1,4-.93c3.5,0,5.33,1.58,5.33,4.92s-2,5.23-5.55,5.23c-3.93,0-5.66-3.1-5.66-8.23,0-5.74,2.42-8.09,6.19-8.09a29.62,29.62,0,0,1,4.35.41Zm-8.48,6.82c0,3.38,1,5.95,3.77,5.95,2.35,0,3.63-1.27,3.63-3.6s-1.32-3.27-3.53-3.27A11,11,0,0,0,304.34,398.55Z"/><circle cx="361.52" cy="398.23" r="20.92" fill="#bddff4"/><path d="M356.55,404.21a36.45,36.45,0,0,0,4.18.29c2.9,0,4.34-1.78,4.37-5.52a14.66,14.66,0,0,1-4.13.91c-3.31,0-5.19-1.49-5.19-4.82s2.16-5.26,5.5-5.26c4,0,5.74,3.17,5.74,8.21,0,6.14-2.38,8.11-6.29,8.11a28.29,28.29,0,0,1-4.35-.43Zm8.57-6.82c-.05-3.45-1.06-5.95-3.84-5.95a3.33,3.33,0,0,0-3.58,3.63c0,2.23,1.2,3.19,3.41,3.19A14.62,14.62,0,0,0,365.12,397.39Z"/></g></g></svg>