<svg xmlns="http://www.w3.org/2000/svg" viewBox="0 0 579.59 494.77"><title>r_4_0_Tablet_1</title><g id="Layer_2" data-name="Layer 2"><g id="Tablet_Msk_Top"><line x1="0.23" y1="0.5" x2="579.59" y2="0.5" fill="none" stroke="#ddd" stroke-miterlimit="10"/><rect y="0.5" width="579.59" height="494.27" fill="#f7f7f7"/><line x1="0.23" y1="0.5" x2="579.59" y2="0.5" fill="none" stroke="#ddd" stroke-miterlimit="10"/><path d="M26.58,49.41c0-4.56,1.18-7.18,5.46-7.18s5.48,2.58,5.48,7.18c0,4.76-1.18,7.06-5.48,7.06S26.58,54.05,26.58,49.41Zm9.34,0c0-3.74-.72-5.82-3.88-5.82s-3.88,2.06-3.88,5.82.68,5.7,3.88,5.7S35.92,53.31,35.92,49.41Z"/><path d="M49.8,42.43,46.18,56.27H42.74L39.12,42.43h1.6L43.9,54.91H45L48.2,42.43Z"/><path d="M52,42.43H60.4v1.36H53.52v4.78H59.2v1.34H53.52v5H60.4v1.36H52Z"/><path d="M64.58,51v5.3H63V42.43h5.13c2.9,0,4.42,1.28,4.42,4.2,0,2-.8,3.46-2.54,4l2.66,5.62H71L68.5,51Zm3.58-7.18H64.58v5.82h3.6c2.08,0,2.82-1.24,2.82-3C71,44.73,70.1,43.79,68.16,43.79Z"/><path d="M84.82,42.43,81.2,56.27H77.76L74.14,42.43h1.6l3.18,12.48H80l3.18-12.48Z"/><path d="M87,42.43h1.54V56.27H87Z"/><path d="M91.91,42.43h8.43v1.36H93.45v4.78h5.69v1.34H93.45v5h6.89v1.36H91.91Z"/><path d="M103.47,42.43l2.36,12.48h.58l2.83-12.36H111l2.82,12.36h.58l2.36-12.48h1.58l-2.8,13.84h-2.82l-2.62-11.82-2.62,11.82H104.7l-2.83-13.84Z"/><path d="M27.64,348.46,30,360.94h.58l2.82-12.36h1.8L38,360.94h.58L41,348.46h1.58l-2.8,13.84H36.92L34.3,350.48,31.68,362.3H28.86L26,348.46Z"/><path d="M53.44,356h-7v6.26H44.86V348.46H46.4v6.2h7v-6.2H55V362.3H53.44Z"/><path d="M62.82,362.3H61.28v-5.82l-4.43-8H58.6L62,354.94l3.44-6.48h1.74l-4.4,8Z"/><path d="M73.51,348.46h1.54V362.3H73.51Z"/><path d="M86.2,349.94s-2.78-.34-3.94-.34c-2,0-3,.7-3,2.26,0,1.8,1,2.1,3.39,2.64,2.76.62,4,1.3,4,3.72,0,3.06-1.68,4.26-4.43,4.26a36.65,36.65,0,0,1-4.38-.44l.16-1.28s2.72.36,4.14.36c2,0,3-.86,3-2.78,0-1.56-.82-2-3.09-2.44-2.86-.62-4.3-1.3-4.3-3.94s1.76-3.72,4.46-3.72a34.47,34.47,0,0,1,4.19.4Z"/><path d="M92.23,348.46h10v1.38H98V362.3H96.49V349.84H92.23Z"/><path d="M112.77,356h-7v6.26h-1.54V348.46h1.54v6.2h7v-6.2h1.53V362.3h-1.53Z"/><path d="M117.69,348.46h1.54V362.3h-1.54Z"/><path d="M130.37,349.94s-2.78-.34-3.94-.34c-2,0-3,.7-3,2.26,0,1.8,1,2.1,3.38,2.64,2.76.62,4,1.3,4,3.72,0,3.06-1.68,4.26-4.42,4.26A36.39,36.39,0,0,1,122,362l.16-1.28s2.72.36,4.14.36c2,0,3-.86,3-2.78,0-1.56-.82-2-3.08-2.44-2.86-.62-4.3-1.3-4.3-3.94s1.76-3.72,4.46-3.72a34.46,34.46,0,0,1,4.18.4Z"/><path d="M139.39,357v5.3h-1.54V348.46H143c2.9,0,4.42,1.28,4.42,4.2,0,2-.8,3.46-2.54,4l2.66,5.62h-1.7l-2.5-5.3Zm3.58-7.18h-3.58v5.82H143c2.08,0,2.82-1.24,2.82-3C145.81,350.76,144.91,349.82,143,349.82Z"/><path d="M150.17,348.46h8.42v1.36h-6.88v4.78h5.68v1.34h-5.68v5h6.88v1.36h-8.42Z"/><path d="M169.59,362.08a20.83,20.83,0,0,1-3.82.42c-4.14,0-5.06-2.52-5.06-7.08s.9-7.16,5.06-7.16a20.32,20.32,0,0,1,3.82.44l-.06,1.3a24.64,24.64,0,0,0-3.6-.36c-3.08,0-3.62,1.84-3.62,5.78s.5,5.7,3.66,5.7a21.88,21.88,0,0,0,3.56-.36Z"/><path d="M171.55,355.44c0-4.56,1.18-7.18,5.46-7.18s5.48,2.58,5.48,7.18c0,4.76-1.18,7.06-5.48,7.06S171.55,360.08,171.55,355.44Zm9.34,0c0-3.74-.72-5.82-3.88-5.82s-3.88,2.06-3.88,5.82.68,5.7,3.88,5.7S180.89,359.34,180.89,355.44Z"/><path d="M185.31,348.46h2.78l3.92,11.7,3.92-11.7h2.78V362.3h-1.54V350.1h-.28l-4,11.7h-1.72l-4-11.7h-.28v12.2h-1.54Z"/><path d="M202.11,348.46h2.78l3.92,11.7,3.92-11.7h2.78V362.3H214V350.1h-.28l-4,11.7H208l-4-11.7h-.28v12.2h-1.54Z"/><path d="M218.91,348.46h8.42v1.36h-6.88v4.78h5.68v1.34h-5.68v5h6.88v1.36h-8.42Z"/><path d="M230,348.46h2.88l5.3,12.48h.42V348.46h1.52V362.3h-2.82l-5.38-12.48h-.38V362.3H230Z"/><path d="M243.49,362.3V348.46h4.94c4,0,5.12,2.8,5.12,6.72s-1,7.12-5.12,7.12Zm4.94-12.48H245v11.12h3.4c2.88,0,3.54-2.76,3.54-5.76S251.31,349.82,248.43,349.82Z"/><path d="M256.39,348.46h8.42v1.36h-6.88v4.78h5.68v1.34h-5.68v5h6.88v1.36h-8.42Z"/><path d="M267.45,362.3V348.46h4.94c4,0,5.12,2.8,5.12,6.72s-1,7.12-5.12,7.12Zm4.94-12.48H269v11.12h3.4c2.88,0,3.54-2.76,3.54-5.76S275.27,349.82,272.39,349.82Z"/><path d="M284.91,355.08c-1.18,1-1.78,1.6-1.78,2.5v.7h-1.26a3.11,3.11,0,0,1-.26-1.22c0-1,.8-1.76,1.86-2.66,1.44-1.24,1.78-1.7,1.78-2.82,0-1.42-.86-2-2.66-2a18.55,18.55,0,0,0-3.1.46l-.1-1.22a15.14,15.14,0,0,1,3.34-.6c2.68,0,4,.88,4,3.2C286.77,353.18,286.47,353.78,284.91,355.08Zm-3.26,5h1.64v2.24h-1.64Z"/><path d="M25.67,385.93h9v1.24h-3.8v11.22H29.51V387.17H25.67Z" fill="#3a3d3f"/><path d="M36.2,398.39V385.46h1.35v4.43a7.55,7.55,0,0,1,2.77-.69c2.47,0,3,1.23,3,4.43v4.76H42v-4.72c0-2.38-.27-3.26-1.93-3.26a7.41,7.41,0,0,0-2.54.54v7.44Z" fill="#3a3d3f"/><path d="M52.51,397.22l0,1.06a31.38,31.38,0,0,1-3.51.29c-2.69,0-3.57-1.57-3.57-4.63,0-3.42,1.48-4.74,3.76-4.74s3.62,1.26,3.62,4.22l-.07,1H46.84c0,1.93.59,2.94,2.36,2.94C50.55,397.38,52.51,397.22,52.51,397.22Zm-1-3.86c0-2.23-.68-3-2.27-3s-2.39.84-2.41,3Z" fill="#3a3d3f"/><path d="M55,389.38h1.33v1.23a10.18,10.18,0,0,1,3.29-1.42v1.36a13.24,13.24,0,0,0-3.27,1.23v6.61H55Z" fill="#3a3d3f"/><path d="M67.83,397.22l0,1.06a31.12,31.12,0,0,1-3.51.29c-2.68,0-3.56-1.57-3.56-4.63,0-3.42,1.47-4.74,3.76-4.74s3.62,1.26,3.62,4.22l-.07,1H62.16c0,1.93.59,2.94,2.35,2.94C65.87,397.38,67.83,397.22,67.83,397.22Zm-1-3.86c0-2.23-.68-3-2.27-3s-2.39.84-2.41,3Z" fill="#3a3d3f"/><path d="M80.59,396.71c0,.52.47.72,1,.79l0,1.07a2.75,2.75,0,0,1-2.14-.72,9.2,9.2,0,0,1-3.24.72c-1.64,0-2.54-.94-2.54-2.76s.9-2.48,2.75-2.66l2.83-.27v-.78c0-1.26-.54-1.71-1.62-1.71-1.26,0-3.4.24-3.4.24l-.06-1a21.6,21.6,0,0,1,3.53-.4c2,0,2.9.94,2.9,2.9Zm-4-2.55c-1.09.1-1.53.62-1.53,1.62s.45,1.65,1.37,1.65a9.57,9.57,0,0,0,2.83-.56v-3Z" fill="#3a3d3f"/><path d="M83.25,389.38h1.33v1.23a10.17,10.17,0,0,1,3.3-1.42v1.36a13.41,13.41,0,0,0-3.28,1.23v6.61H83.25Z" fill="#3a3d3f"/><path d="M96.12,397.22l0,1.06a31.12,31.12,0,0,1-3.51.29c-2.69,0-3.57-1.57-3.57-4.63,0-3.42,1.48-4.74,3.77-4.74s3.61,1.26,3.61,4.22l-.07,1H90.45c0,1.93.6,2.94,2.36,2.94C94.16,397.38,96.12,397.22,96.12,397.22Zm-1-3.86c0-2.23-.68-3-2.26-3s-2.4.84-2.42,3Z" fill="#3a3d3f"/><path d="M107.71,396.06H102V395l3.39-8.48h1.51l-3.44,8.34h4.3v-3.71h1.39v3.71h1.51v1.22H109.1v2.33h-1.39Z" fill="#3a3d3f"/><path d="M119.13,385.93h3l3.42,12.46H124.2l-.9-3.21H118l-.9,3.21H115.7Zm-.85,8H123l-1.89-6.83h-.94Z" fill="#3a3d3f"/><path d="M132.46,392h3.44v6.12a28.75,28.75,0,0,1-4.05.44c-3.82,0-4.82-2.34-4.82-6.38s1-6.44,4.79-6.44a23.46,23.46,0,0,1,4.08.46l-.05,1.16A28.37,28.37,0,0,0,132,387c-2.88,0-3.51,1.67-3.51,5.2s.61,5.15,3.49,5.15a16.58,16.58,0,0,0,2.57-.25v-3.83h-2.07Z" fill="#3a3d3f"/><path d="M147.13,385.93l-3.25,12.46h-3.1l-3.26-12.46H139l2.86,11.23h1l2.86-11.23Z" fill="#3a3d3f"/><path d="M154.84,390.7a29.33,29.33,0,0,0-3.15-.29c-1.12,0-2,.31-2,1.37,0,.84.44,1.08,2.34,1.4,2.26.38,3.1.83,3.1,2.58,0,2.1-1.33,2.81-3.49,2.81a25,25,0,0,1-3.17-.35l.07-1.17a29.5,29.5,0,0,0,3,.31c1.48,0,2.27-.32,2.27-1.55,0-.94-.47-1.17-2.43-1.47s-3-.71-3-2.51c0-2,1.61-2.63,3.24-2.63a22.55,22.55,0,0,1,3.26.35Z" fill="#3a3d3f"/><path d="M167.55,396.71c0,.52.46.72,1,.79l-.05,1.07a2.76,2.76,0,0,1-2.15-.72,9.2,9.2,0,0,1-3.24.72c-1.64,0-2.54-.94-2.54-2.76s.9-2.48,2.76-2.66l2.83-.27v-.78c0-1.26-.54-1.71-1.62-1.71-1.27,0-3.41.24-3.41.24l0-1a21.6,21.6,0,0,1,3.53-.4c2,0,2.9.94,2.9,2.9Zm-4-2.55c-1.1.1-1.53.62-1.53,1.62s.45,1.65,1.37,1.65a9.57,9.57,0,0,0,2.83-.56v-3Z" fill="#3a3d3f"/><path d="M170.8,389.38l2.11,7.84h.66l2.18-7.84h1.39l-2.54,9h-2.7l-2.54-9Z" fill="#3a3d3f"/><path d="M185.22,396.71c0,.52.47.72,1.05.79l-.06,1.07a2.75,2.75,0,0,1-2.14-.72,9.2,9.2,0,0,1-3.24.72c-1.64,0-2.54-.94-2.54-2.76s.9-2.48,2.75-2.66l2.83-.27v-.78c0-1.26-.54-1.71-1.62-1.71-1.26,0-3.4.24-3.4.24l-.06-1a21.6,21.6,0,0,1,3.53-.4c2,0,2.9.94,2.9,2.9Zm-4-2.55c-1.1.1-1.53.62-1.53,1.62s.45,1.65,1.36,1.65a9.48,9.48,0,0,0,2.83-.56v-3Z" fill="#3a3d3f"/><path d="M187.88,385.78h1.35v1.57h-1.35Zm0,3.6h1.35v9h-1.35Z" fill="#3a3d3f"/><path d="M191.93,385.46h1.35v12.93h-1.35Z" fill="#3a3d3f"/><path d="M202.34,396.71c0,.52.47.72,1,.79l0,1.07a2.74,2.74,0,0,1-2.14-.72,9.2,9.2,0,0,1-3.24.72c-1.64,0-2.54-.94-2.54-2.76s.9-2.48,2.75-2.66l2.83-.27v-.78c0-1.26-.54-1.71-1.62-1.71-1.26,0-3.41.24-3.41.24l-.05-1a21.6,21.6,0,0,1,3.53-.4c2,0,2.9.94,2.9,2.9Zm-4-2.55c-1.09.1-1.53.62-1.53,1.62s.45,1.65,1.37,1.65a9.57,9.57,0,0,0,2.83-.56v-3Z" fill="#3a3d3f"/><path d="M212.26,393.74c0,3.58-1,4.83-4.25,4.83-1.08,0-3-.2-3-.2V385.46h1.33v4.37a7.44,7.44,0,0,1,2.65-.63C211.43,389.2,212.26,390.5,212.26,393.74Zm-1.37,0c0-2.32-.47-3.33-2-3.33a7.59,7.59,0,0,0-2.51.52v6.34s1.17.09,1.66.09C210.46,397.36,210.89,396.26,210.89,393.74Z" fill="#3a3d3f"/><path d="M214.58,385.46h1.35v12.93h-1.35Z" fill="#3a3d3f"/><path d="M225.27,397.22l0,1.06a31.38,31.38,0,0,1-3.51.29c-2.69,0-3.57-1.57-3.57-4.63,0-3.42,1.48-4.74,3.76-4.74s3.62,1.26,3.62,4.22l-.07,1H219.6c0,1.93.59,2.94,2.36,2.94C223.31,397.38,225.27,397.22,225.27,397.22Zm-1-3.86c0-2.23-.68-3-2.27-3s-2.39.84-2.41,3Z" fill="#3a3d3f"/><path d="M233.48,390.55v4.31c0,2,.12,2.52,1.29,2.52.51,0,1.61-.11,1.61-.11l.09,1.12a16.5,16.5,0,0,1-1.84.19c-1.86,0-2.49-.7-2.49-3.29v-4.74h-1.27v-1.17h1.27v-2.75h1.34v2.75h2.86v1.17Z" fill="#3a3d3f"/><path d="M245.3,393.78c0,3.27-.81,4.79-3.85,4.79s-3.85-1.52-3.85-4.79c0-3.1,1-4.58,3.85-4.58S245.3,390.68,245.3,393.78Zm-1.38,0c0-2.51-.54-3.41-2.47-3.41s-2.46.9-2.46,3.41.34,3.62,2.46,3.62S243.92,396.33,243.92,393.78Z" fill="#3a3d3f"/><path d="M251.46,389.38h1.33v1.23a10.17,10.17,0,0,1,3.3-1.42v1.36a13.21,13.21,0,0,0-3.28,1.23v6.61h-1.35Z" fill="#3a3d3f"/><path d="M264.65,389.38v9H263.3v-.63a6.07,6.07,0,0,1-2.66.81c-2.52,0-3-1.17-3-4.49v-4.7H259v4.69c0,2.48.21,3.29,1.89,3.29a5.4,5.4,0,0,0,2.46-.67v-7.31Z" fill="#3a3d3f"/><path d="M267.24,398.39v-9h1.34V390a6.79,6.79,0,0,1,2.79-.81c2.48,0,3,1.23,3,4.43v4.76h-1.33v-4.72c0-2.38-.27-3.26-1.95-3.26a6.18,6.18,0,0,0-2.54.67v7.31Z" fill="#3a3d3f"/><path d="M287.78,398.39h-1.33v-.62a6.44,6.44,0,0,1-2.74.8c-1.76,0-3.24-.72-3.24-4.61,0-3.17,1-4.76,3.77-4.76a14.12,14.12,0,0,1,2.21.24v-4h1.33Zm-1.33-1.7v-6.1a15.75,15.75,0,0,0-2.14-.22c-1.89,0-2.45,1.25-2.45,3.59,0,2.91.95,3.4,2,3.4A6.47,6.47,0,0,0,286.45,396.69Z" fill="#3a3d3f"/><path d="M297.36,389.38v9H296v-.63a6.08,6.08,0,0,1-2.67.81c-2.52,0-3-1.17-3-4.49v-4.7h1.35v4.69c0,2.48.22,3.29,1.89,3.29a5.47,5.47,0,0,0,2.47-.67v-7.31Z" fill="#3a3d3f"/><path d="M300,389.38h1.33v1.23a10.17,10.17,0,0,1,3.3-1.42v1.36a13.21,13.21,0,0,0-3.28,1.23v6.61H300Z" fill="#3a3d3f"/><path d="M306.18,385.78h1.35v1.57h-1.35Zm0,3.6h1.35v9h-1.35Z" fill="#3a3d3f"/><path d="M310.12,398.39v-9h1.33V390a6.85,6.85,0,0,1,2.79-.81c2.49,0,3,1.23,3,4.43v4.76H316v-4.72c0-2.38-.27-3.26-1.94-3.26a6.12,6.12,0,0,0-2.54.67v7.31Z" fill="#3a3d3f"/><path d="M319.39,399.9c0-1,.48-1.53,1.42-2.23a1.49,1.49,0,0,1-.5-1.25,5.82,5.82,0,0,1,.61-1.42c-.76-.34-1.43-1.06-1.43-2.72,0-2.21,1.37-3.08,3.37-3.08a9.22,9.22,0,0,1,1.88.24l2.66-.07v1.15l-1.71,0a2.35,2.35,0,0,1,.59,1.8c0,2.34-1.17,3.05-3.47,3.05a6.69,6.69,0,0,1-.88-.08,5.44,5.44,0,0,0-.33,1c0,.72.15.83,2.18.83,2.56,0,3.48.5,3.48,2.64s-1.46,2.87-4,2.87C320.41,402.62,319.39,402,319.39,399.9Zm2.34-1.69c-.76.55-1,.88-1,1.58,0,1.24.52,1.69,2.56,1.69,1.8,0,2.61-.48,2.61-1.67,0-1.37-.58-1.51-2.22-1.51C323,398.3,321.73,398.21,321.73,398.21Zm3.2-5.93c0-1.42-.56-2-2.07-2s-2,.56-2,2,.61,2,2,2S324.93,393.7,324.93,392.28Z" fill="#3a3d3f"/><path d="M334.8,390.55v4.31c0,2,.12,2.52,1.29,2.52.51,0,1.61-.11,1.61-.11l.08,1.12a16.23,16.23,0,0,1-1.83.19c-1.86,0-2.49-.7-2.49-3.29v-4.74h-1.27v-1.17h1.27v-2.75h1.34v2.75h2.86v1.17Z" fill="#3a3d3f"/><path d="M339.31,398.39V385.46h1.35v4.43a7.57,7.57,0,0,1,2.78-.69c2.46,0,3,1.23,3,4.43v4.76h-1.35v-4.72c0-2.38-.27-3.26-1.93-3.26a7.41,7.41,0,0,0-2.54.54v7.44Z" fill="#3a3d3f"/><path d="M355.62,397.22l0,1.06a31.12,31.12,0,0,1-3.51.29c-2.68,0-3.57-1.57-3.57-4.63,0-3.42,1.48-4.74,3.77-4.74s3.62,1.26,3.62,4.22l-.08,1H350c0,1.93.6,2.94,2.36,2.94C353.66,397.38,355.62,397.22,355.62,397.22Zm-1-3.86c0-2.23-.69-3-2.27-3s-2.4.84-2.42,3Z" fill="#3a3d3f"/><path d="M362,389.38h1.33V390a6.12,6.12,0,0,1,2.7-.83c2.27,0,3.26,1.39,3.26,4.58,0,3.53-1.15,4.79-3.92,4.79a12,12,0,0,1-2-.2v4H362Zm1.35,1.75v6.07a14.27,14.27,0,0,0,1.95.2c2,0,2.62-1,2.62-3.62s-.77-3.37-2.08-3.37A5.87,5.87,0,0,0,363.38,391.13Z" fill="#3a3d3f"/><path d="M371.52,389.38h1.33v1.23a10.06,10.06,0,0,1,3.29-1.42v1.36a13.24,13.24,0,0,0-3.27,1.23v6.61h-1.35Z" fill="#3a3d3f"/><path d="M385.05,393.78c0,3.27-.81,4.79-3.85,4.79s-3.85-1.52-3.85-4.79c0-3.1,1-4.58,3.85-4.58S385.05,390.68,385.05,393.78Zm-1.38,0c0-2.51-.54-3.41-2.47-3.41s-2.47.9-2.47,3.41.35,3.62,2.47,3.62S383.67,396.33,383.67,393.78Z" fill="#3a3d3f"/><path d="M394.5,393.74c0,3.58-1,4.83-4.25,4.83-1.08,0-3-.2-3-.2V385.46h1.33v4.37a7.44,7.44,0,0,1,2.65-.63C393.68,389.2,394.5,390.5,394.5,393.74Zm-1.36,0c0-2.32-.47-3.33-2.06-3.33a7.57,7.57,0,0,0-2.5.52v6.34s1.17.09,1.66.09C392.7,397.36,393.14,396.26,393.14,393.74Z" fill="#3a3d3f"/><path d="M396.82,385.46h1.35v12.93h-1.35Z" fill="#3a3d3f"/><path d="M407.52,397.22l0,1.06a31.12,31.12,0,0,1-3.51.29c-2.68,0-3.56-1.57-3.56-4.63,0-3.42,1.47-4.74,3.76-4.74s3.62,1.26,3.62,4.22l-.07,1h-5.94c0,1.93.59,2.94,2.35,2.94C405.55,397.38,407.52,397.22,407.52,397.22Zm-1-3.86c0-2.23-.68-3-2.27-3s-2.39.84-2.41,3Z" fill="#3a3d3f"/><path d="M410,398.39v-9h1.34V390a6,6,0,0,1,2.62-.81,2.55,2.55,0,0,1,2.35.92,7.46,7.46,0,0,1,3.2-.92c2.45,0,3,1.17,3,4.43v4.76h-1.35v-4.72c0-2.38-.27-3.26-1.89-3.26a6,6,0,0,0-2.54.67,9.71,9.71,0,0,1,.24,2.62v4.69h-1.35v-4.65c0-2.48-.25-3.33-1.89-3.33a5.4,5.4,0,0,0-2.42.67v7.31Z" fill="#3a3d3f"/><path d="M431.37,396.71c0,.52.46.72,1,.79l-.05,1.07a2.76,2.76,0,0,1-2.15-.72,9.2,9.2,0,0,1-3.24.72c-1.64,0-2.54-.94-2.54-2.76s.9-2.48,2.76-2.66l2.83-.27v-.78c0-1.26-.54-1.71-1.62-1.71-1.26,0-3.41.24-3.41.24l-.05-1a21.6,21.6,0,0,1,3.53-.4c2,0,2.9.94,2.9,2.9Zm-4-2.55c-1.1.1-1.53.62-1.53,1.62s.45,1.65,1.37,1.65a9.57,9.57,0,0,0,2.83-.56v-3Z" fill="#3a3d3f"/><path d="M435.83,390.55v4.31c0,2,.12,2.52,1.3,2.52.5,0,1.6-.11,1.6-.11l.09,1.12a16.5,16.5,0,0,1-1.84.19c-1.85,0-2.48-.7-2.48-3.29v-4.74h-1.28v-1.17h1.28v-2.75h1.33v2.75h2.86v1.17Z" fill="#3a3d3f"/><path d="M440.35,385.78h1.35v1.57h-1.35Zm0,3.6h1.35v9h-1.35Z" fill="#3a3d3f"/><path d="M450.11,389.47l-.06,1.1s-1.44-.16-2.12-.16c-2.07,0-2.63.9-2.63,3.31,0,2.67.41,3.64,2.64,3.64.69,0,2.13-.16,2.13-.16l.05,1.11a23.06,23.06,0,0,1-2.5.26c-2.86,0-3.71-1.32-3.71-4.85,0-3.26,1.06-4.52,3.75-4.52A21.18,21.18,0,0,1,450.11,389.47Z" fill="#3a3d3f"/><path d="M457.9,390.55v4.31c0,2,.12,2.52,1.29,2.52.51,0,1.61-.11,1.61-.11l.09,1.12a16.5,16.5,0,0,1-1.84.19c-1.85,0-2.48-.7-2.48-3.29v-4.74h-1.28v-1.17h1.28v-2.75h1.33v2.75h2.86v1.17Z" fill="#3a3d3f"/><path d="M462.41,385.78h1.36v1.57h-1.36Zm0,3.6h1.36v9h-1.36Z" fill="#3a3d3f"/><path d="M466.36,398.39v-9h1.33V390a6,6,0,0,1,2.63-.81,2.53,2.53,0,0,1,2.34.92,7.46,7.46,0,0,1,3.2-.92c2.45,0,3.05,1.17,3.05,4.43v4.76h-1.35v-4.72c0-2.38-.27-3.26-1.89-3.26a5.89,5.89,0,0,0-2.54.67,10.25,10.25,0,0,1,.23,2.62v4.69H472v-4.65c0-2.48-.25-3.33-1.89-3.33a5.34,5.34,0,0,0-2.41.67v7.31Z" fill="#3a3d3f"/><path d="M488.05,397.22l0,1.06a31.38,31.38,0,0,1-3.51.29c-2.69,0-3.57-1.57-3.57-4.63,0-3.42,1.48-4.74,3.76-4.74s3.62,1.26,3.62,4.22l-.07,1h-5.94c0,1.93.59,2.94,2.36,2.94C486.09,397.38,488.05,397.22,488.05,397.22Zm-1-3.86c0-2.23-.68-3-2.27-3s-2.39.84-2.41,3Z" fill="#3a3d3f"/><path d="M492.22,398.39h-1.35v-7.84h-1.13v-1.17h1.13v-.81c0-2.59.67-3.29,2.43-3.29.62,0,1.82.12,1.82.12l0,1.12s-1,0-1.54,0c-1,0-1.34.43-1.34,2.1v.79h2.61v1.17h-2.61Z" fill="#3a3d3f"/><path d="M496.45,389.38h1.34v1.23a10.06,10.06,0,0,1,3.29-1.42v1.36a13.41,13.41,0,0,0-3.28,1.23v6.61h-1.35Z" fill="#3a3d3f"/><path d="M509,396.71c0,.52.46.72,1,.79l-.05,1.07a2.76,2.76,0,0,1-2.15-.72,9.2,9.2,0,0,1-3.24.72c-1.64,0-2.54-.94-2.54-2.76s.9-2.48,2.76-2.66l2.83-.27v-.78c0-1.26-.54-1.71-1.62-1.71-1.26,0-3.41.24-3.41.24l-.05-1a21.6,21.6,0,0,1,3.53-.4c2,0,2.9.94,2.9,2.9Zm-4-2.55c-1.1.1-1.53.62-1.53,1.62s.45,1.65,1.37,1.65a9.57,9.57,0,0,0,2.83-.56v-3Z" fill="#3a3d3f"/><path d="M511.7,398.39v-9H513V390a6,6,0,0,1,2.63-.81,2.53,2.53,0,0,1,2.34.92,7.47,7.47,0,0,1,3.21-.92c2.44,0,3,1.17,3,4.43v4.76H522.9v-4.72c0-2.38-.27-3.26-1.89-3.26a5.89,5.89,0,0,0-2.54.67,10.25,10.25,0,0,1,.23,2.62v4.69h-1.35v-4.65c0-2.48-.25-3.33-1.89-3.33a5.34,5.34,0,0,0-2.41.67v7.31Z" fill="#3a3d3f"/><path d="M533.39,397.22l0,1.06a31.4,31.4,0,0,1-3.52.29c-2.68,0-3.56-1.57-3.56-4.63,0-3.42,1.48-4.74,3.76-4.74s3.62,1.26,3.62,4.22l-.07,1h-5.94c0,1.93.59,2.94,2.36,2.94C531.43,397.38,533.39,397.22,533.39,397.22Zm-1-3.86c0-2.23-.68-3-2.27-3s-2.39.84-2.41,3Z" fill="#3a3d3f"/><path d="M535.75,396.33h1.47v2.06h-1.47Z" fill="#3a3d3f"/><path d="M543.92,385.93h1.38v12.46h-1.38Z" fill="#3a3d3f"/><path d="M549.84,398.39h-1.35v-7.84h-1.13v-1.17h1.13v-.81c0-2.59.67-3.29,2.43-3.29.61,0,1.82.12,1.82.12l0,1.12s-1,0-1.55,0c-1,0-1.33.43-1.33,2.1v.79h2.61v1.17h-2.61Z" fill="#3a3d3f"/><path d="M27.34,417.38l1.82,7.84h.29l2.14-7.66H33l2.14,7.66h.31l1.8-7.84H38.6l-2.14,9H34.2l-1.9-7-1.91,7H28.14l-2.15-9Z" fill="#3a3d3f"/><path d="M47.09,425.22l0,1.06a31.12,31.12,0,0,1-3.51.29c-2.69,0-3.57-1.57-3.57-4.63,0-3.42,1.48-4.74,3.77-4.74s3.61,1.26,3.61,4.22l-.07,1H41.42c0,1.93.6,2.94,2.36,2.94C45.13,425.38,47.09,425.22,47.09,425.22Zm-1-3.86c0-2.23-.68-3-2.26-3s-2.4.84-2.42,3Z" fill="#3a3d3f"/><path d="M53.5,417.38h1.33V418a6.12,6.12,0,0,1,2.7-.83c2.27,0,3.26,1.39,3.26,4.58,0,3.53-1.15,4.79-3.92,4.79a12,12,0,0,1-2-.2v4H53.5Zm1.35,1.75v6.07a14.27,14.27,0,0,0,1.94.2c2,0,2.63-1,2.63-3.62s-.77-3.37-2.09-3.37A5.86,5.86,0,0,0,54.85,419.13Z" fill="#3a3d3f"/><path d="M63,417.38h1.33v1.23a10.06,10.06,0,0,1,3.29-1.42v1.36a13.41,13.41,0,0,0-3.28,1.23v6.61H63Z" fill="#3a3d3f"/><path d="M69.21,413.78h1.35v1.57H69.21Zm0,3.6h1.35v9H69.21Z" fill="#3a3d3f"/><path d="M80.46,421.78c0,3.27-.81,4.79-3.85,4.79s-3.85-1.52-3.85-4.79c0-3.1,1-4.58,3.85-4.58S80.46,418.68,80.46,421.78Zm-1.38,0c0-2.51-.54-3.41-2.47-3.41s-2.46.9-2.46,3.41.34,3.62,2.46,3.62S79.08,424.33,79.08,421.78Z" fill="#3a3d3f"/><path d="M82.66,417.38H84v1.23a10.17,10.17,0,0,1,3.3-1.42v1.36A13.21,13.21,0,0,0,84,419.78v6.61H82.66Z" fill="#3a3d3f"/><path d="M88.89,413.78h1.35v1.57H88.89Zm0,3.6h1.35v9H88.89Z" fill="#3a3d3f"/><path d="M94.63,418.55v4.31c0,2,.12,2.52,1.3,2.52.5,0,1.6-.11,1.6-.11l.09,1.12a16.5,16.5,0,0,1-1.84.19c-1.85,0-2.48-.7-2.48-3.29v-4.74H92v-1.17H93.3v-2.75h1.33v2.75h2.86v1.17Z" fill="#3a3d3f"/><path d="M99.15,413.78h1.35v1.57H99.15Zm0,3.6h1.35v9H99.15Z" fill="#3a3d3f"/><path d="M102.55,417.38h6.68v1.21l-5,6.59h5v1.21h-6.68v-1.21l5-6.59h-5Z" fill="#3a3d3f"/><path d="M117.92,425.22l0,1.06a31.12,31.12,0,0,1-3.51.29c-2.69,0-3.57-1.57-3.57-4.63,0-3.42,1.48-4.74,3.76-4.74s3.62,1.26,3.62,4.22l-.07,1h-5.94c0,1.93.59,2.94,2.36,2.94C116,425.38,117.92,425.22,117.92,425.22Zm-1-3.86c0-2.23-.68-3-2.27-3s-2.39.84-2.41,3Z" fill="#3a3d3f"/><path d="M128.74,414.5H130v11.89h-1.38V416.05l-3.06,2L125,417Z" fill="#3a3d3f"/><path d="M134.34,420.8h5.45v1.27h-5.45Z" fill="#3a3d3f"/><path d="M142.24,426.39v-1.17l3.47-3.66c1.48-1.53,2.4-2.5,2.4-3.91,0-1.58-.89-2.08-2.6-2.08a17.46,17.46,0,0,0-3.07.39l-.11-1.15a14.3,14.3,0,0,1,3.44-.49c2.5,0,3.76,1,3.76,3.19,0,1.78-.81,2.83-2.49,4.45l-3.16,3.22h6v1.21Z" fill="#3a3d3f"/><path d="M158.06,426.39h-1.35v-7.84h-1.13v-1.17h1.13v-.81c0-2.59.67-3.29,2.43-3.29.61,0,1.82.12,1.82.12l0,1.12s-1,0-1.55,0c-1,0-1.33.43-1.33,2.1v.79h2.61v1.17h-2.61Z" fill="#3a3d3f"/><path d="M162.4,413.46h1.35v12.93H162.4Z" fill="#3a3d3f"/><path d="M166.45,413.78h1.35v1.57h-1.35Zm0,3.6h1.35v9h-1.35Z" fill="#3a3d3f"/><path d="M170,427.9c0-1,.49-1.53,1.42-2.23a1.49,1.49,0,0,1-.5-1.25,5.82,5.82,0,0,1,.61-1.42c-.75-.34-1.42-1.06-1.42-2.72,0-2.21,1.37-3.08,3.37-3.08a9.07,9.07,0,0,1,1.87.24l2.67-.07v1.15l-1.72,0a2.31,2.31,0,0,1,.6,1.8c0,2.34-1.17,3.05-3.48,3.05a6.85,6.85,0,0,1-.88-.08,5.56,5.56,0,0,0-.32,1c0,.72.14.83,2.18.83,2.55,0,3.47.5,3.47,2.64s-1.46,2.87-4,2.87C171,430.62,170,430,170,427.9Zm2.34-1.69c-.75.55-1,.88-1,1.58,0,1.24.52,1.69,2.55,1.69,1.8,0,2.61-.48,2.61-1.67,0-1.37-.57-1.51-2.21-1.51C173.65,426.3,172.33,426.21,172.33,426.21Zm3.21-5.93c0-1.42-.56-2-2.07-2s-2,.56-2,2,.61,2,2,2S175.54,421.7,175.54,420.28Z" fill="#3a3d3f"/><path d="M179.64,426.39V413.46H181v4.43a7.55,7.55,0,0,1,2.77-.69c2.47,0,3.05,1.23,3.05,4.43v4.76h-1.35v-4.72c0-2.38-.27-3.26-1.93-3.26A7.41,7.41,0,0,0,181,419v7.44Z" fill="#3a3d3f"/><path d="M191.11,418.55v4.31c0,2,.12,2.52,1.29,2.52.51,0,1.61-.11,1.61-.11l.09,1.12a16.5,16.5,0,0,1-1.84.19c-1.85,0-2.48-.7-2.48-3.29v-4.74H188.5v-1.17h1.28v-2.75h1.33v2.75H194v1.17Z" fill="#3a3d3f"/><path d="M201.6,418.7a29.33,29.33,0,0,0-3.15-.29c-1.11,0-2,.31-2,1.37,0,.84.43,1.08,2.34,1.4,2.25.38,3.1.83,3.1,2.58,0,2.1-1.34,2.81-3.5,2.81a24.71,24.71,0,0,1-3.16-.35l.07-1.17a29.5,29.5,0,0,0,3,.31c1.47,0,2.27-.32,2.27-1.55,0-.94-.47-1.17-2.43-1.47s-3-.71-3-2.51c0-2,1.6-2.63,3.24-2.63a22.55,22.55,0,0,1,3.26.35Z" fill="#3a3d3f"/><path d="M214.31,424.71c0,.52.47.72,1.05.79l-.06,1.07a2.75,2.75,0,0,1-2.14-.72,9.2,9.2,0,0,1-3.24.72c-1.64,0-2.54-.94-2.54-2.76s.9-2.48,2.75-2.66l2.83-.27v-.78c0-1.26-.54-1.71-1.62-1.71-1.26,0-3.4.24-3.4.24l-.06-1a21.6,21.6,0,0,1,3.53-.4c2,0,2.9.94,2.9,2.9Zm-4-2.55c-1.1.1-1.53.62-1.53,1.62s.45,1.65,1.36,1.65a9.48,9.48,0,0,0,2.83-.56v-3Z" fill="#3a3d3f"/><path d="M217,426.39v-9h1.34V418a6.79,6.79,0,0,1,2.79-.81c2.48,0,3,1.23,3,4.43v4.76h-1.33v-4.72c0-2.38-.27-3.26-1.95-3.26a6.18,6.18,0,0,0-2.54.67v7.31Z" fill="#3a3d3f"/><path d="M233.55,426.39h-1.33v-.62a6.44,6.44,0,0,1-2.74.8c-1.76,0-3.24-.72-3.24-4.61,0-3.17,1-4.76,3.77-4.76a14.12,14.12,0,0,1,2.21.24v-4h1.33Zm-1.33-1.7v-6.1a15.75,15.75,0,0,0-2.14-.22c-1.89,0-2.45,1.25-2.45,3.59,0,2.91,1,3.4,2,3.4A6.53,6.53,0,0,0,232.22,424.69Z" fill="#3a3d3f"/><path d="M246.48,424.71c0,.52.46.72,1,.79l-.05,1.07a2.76,2.76,0,0,1-2.15-.72,9.2,9.2,0,0,1-3.24.72c-1.64,0-2.54-.94-2.54-2.76s.9-2.48,2.76-2.66l2.83-.27v-.78c0-1.26-.54-1.71-1.62-1.71-1.27,0-3.41.24-3.41.24l0-1a21.6,21.6,0,0,1,3.53-.4c2,0,2.9.94,2.9,2.9Zm-4-2.55c-1.1.1-1.53.62-1.53,1.62s.45,1.65,1.37,1.65a9.57,9.57,0,0,0,2.83-.56v-3Z" fill="#3a3d3f"/><path d="M255.12,418.7a29.33,29.33,0,0,0-3.16-.29c-1.11,0-2,.31-2,1.37,0,.84.43,1.08,2.34,1.4,2.25.38,3.1.83,3.1,2.58,0,2.1-1.33,2.81-3.49,2.81a24.7,24.7,0,0,1-3.17-.35l.07-1.17a29.5,29.5,0,0,0,3,.31c1.48,0,2.27-.32,2.27-1.55,0-.94-.47-1.17-2.43-1.47s-3-.71-3-2.51c0-2,1.6-2.63,3.24-2.63a22.55,22.55,0,0,1,3.26.35Z" fill="#3a3d3f"/><path d="M263.49,418.7a29.33,29.33,0,0,0-3.16-.29c-1.11,0-2,.31-2,1.37,0,.84.43,1.08,2.34,1.4,2.25.38,3.1.83,3.1,2.58,0,2.1-1.33,2.81-3.49,2.81a24.7,24.7,0,0,1-3.17-.35l.07-1.17a29.5,29.5,0,0,0,3,.31c1.48,0,2.27-.32,2.27-1.55,0-.94-.47-1.17-2.43-1.47s-3-.71-3-2.51c0-2,1.6-2.63,3.24-2.63a22.55,22.55,0,0,1,3.26.35Z" fill="#3a3d3f"/><path d="M265.88,413.78h1.35v1.57h-1.35Zm0,3.6h1.35v9h-1.35Z" fill="#3a3d3f"/><path d="M269.42,427.9c0-1,.49-1.53,1.43-2.23a1.47,1.47,0,0,1-.51-1.25A5.82,5.82,0,0,1,271,423c-.75-.34-1.42-1.06-1.42-2.72,0-2.21,1.37-3.08,3.37-3.08a9.07,9.07,0,0,1,1.87.24l2.67-.07v1.15l-1.71,0a2.35,2.35,0,0,1,.59,1.8c0,2.34-1.17,3.05-3.47,3.05a7,7,0,0,1-.89-.08,5.56,5.56,0,0,0-.32,1c0,.72.14.83,2.18.83,2.55,0,3.47.5,3.47,2.64s-1.46,2.87-4,2.87C270.45,430.62,269.42,430,269.42,427.9Zm2.35-1.69c-.76.55-1,.88-1,1.58,0,1.24.52,1.69,2.55,1.69,1.8,0,2.61-.48,2.61-1.67,0-1.37-.57-1.51-2.21-1.51C273.08,426.3,271.77,426.21,271.77,426.21Zm3.2-5.93c0-1.42-.56-2-2.07-2s-2,.56-2,2,.61,2,2,2S275,421.7,275,420.28Z" fill="#3a3d3f"/><path d="M279.07,426.39v-9h1.34V418a6.79,6.79,0,0,1,2.79-.81c2.48,0,3,1.23,3,4.43v4.76h-1.33v-4.72c0-2.38-.27-3.26-2-3.26a6.12,6.12,0,0,0-2.54.67v7.31Z" fill="#3a3d3f"/><path d="M292.64,426.39v-1.17l3.48-3.66c1.48-1.53,2.39-2.5,2.39-3.91,0-1.58-.88-2.08-2.59-2.08a17.64,17.64,0,0,0-3.08.39l-.11-1.15a14.41,14.41,0,0,1,3.44-.49c2.51,0,3.77,1,3.77,3.19,0,1.78-.81,2.83-2.49,4.45l-3.17,3.22h6v1.21Z" fill="#3a3d3f"/><path d="M312.55,417.47l-.05,1.1s-1.44-.16-2.12-.16c-2.07,0-2.63.9-2.63,3.31,0,2.67.41,3.64,2.64,3.64.69,0,2.13-.16,2.13-.16l.05,1.11a23.06,23.06,0,0,1-2.5.26c-2.86,0-3.71-1.32-3.71-4.85,0-3.26,1.06-4.52,3.75-4.52A20.91,20.91,0,0,1,312.55,417.47Z" fill="#3a3d3f"/><path d="M314.59,426.39V413.46h1.35v4.43a7.55,7.55,0,0,1,2.77-.69c2.47,0,3,1.23,3,4.43v4.76H320.4v-4.72c0-2.38-.27-3.26-1.92-3.26a7.41,7.41,0,0,0-2.54.54v7.44Z" fill="#3a3d3f"/><path d="M330.9,425.22l0,1.06a31.12,31.12,0,0,1-3.51.29c-2.68,0-3.56-1.57-3.56-4.63,0-3.42,1.47-4.74,3.76-4.74s3.62,1.26,3.62,4.22l-.07,1h-5.95c0,1.93.6,2.94,2.36,2.94C328.93,425.38,330.9,425.22,330.9,425.22Zm-1-3.86c0-2.23-.69-3-2.27-3s-2.4.84-2.41,3Z" fill="#3a3d3f"/><path d="M339.16,417.47l-.06,1.1s-1.44-.16-2.12-.16c-2.07,0-2.63.9-2.63,3.31,0,2.67.41,3.64,2.65,3.64.68,0,2.12-.16,2.12-.16l.06,1.11a23.34,23.34,0,0,1-2.51.26c-2.86,0-3.71-1.32-3.71-4.85,0-3.26,1.07-4.52,3.75-4.52A20.89,20.89,0,0,1,339.16,417.47Z" fill="#3a3d3f"/><path d="M341.19,426.39V413.46h1.35v7.63l1.4-.07,2.58-3.64h1.53l-2.93,4.15,3.06,4.86h-1.53L344,422.21l-1.42.05v4.13Z" fill="#3a3d3f"/><path d="M349.74,420.8h5.46v1.27h-5.46Z" fill="#3a3d3f"/><path d="M357.7,413.78h1.35v1.57H357.7Zm0,3.6h1.35v9H357.7Z" fill="#3a3d3f"/><path d="M361.64,426.39v-9H363V418a6.85,6.85,0,0,1,2.79-.81c2.48,0,3,1.23,3,4.43v4.76h-1.33v-4.72c0-2.38-.27-3.26-1.94-3.26a6.12,6.12,0,0,0-2.54.67v7.31Z" fill="#3a3d3f"/><path d="M382.18,426.39h-1.34v-.62a6.37,6.37,0,0,1-2.73.8c-1.77,0-3.24-.72-3.24-4.61,0-3.17,1-4.76,3.76-4.76a14,14,0,0,1,2.21.24v-4h1.34Zm-1.34-1.7v-6.1a15.56,15.56,0,0,0-2.14-.22c-1.89,0-2.45,1.25-2.45,3.59,0,2.91,1,3.4,2,3.4A6.47,6.47,0,0,0,380.84,424.69Z" fill="#3a3d3f"/><path d="M391.43,425.22l0,1.06a31.12,31.12,0,0,1-3.51.29c-2.68,0-3.56-1.57-3.56-4.63,0-3.42,1.48-4.74,3.76-4.74s3.62,1.26,3.62,4.22l-.07,1h-5.94c0,1.93.59,2.94,2.36,2.94C389.47,425.38,391.43,425.22,391.43,425.22Zm-1-3.86c0-2.23-.68-3-2.27-3s-2.39.84-2.41,3Z" fill="#3a3d3f"/><path d="M399.85,418.7a29.33,29.33,0,0,0-3.15-.29c-1.12,0-2,.31-2,1.37,0,.84.43,1.08,2.34,1.4,2.25.38,3.1.83,3.1,2.58,0,2.1-1.34,2.81-3.5,2.81a25,25,0,0,1-3.17-.35l.08-1.17a29.5,29.5,0,0,0,3,.31c1.47,0,2.27-.32,2.27-1.55,0-.94-.47-1.17-2.43-1.47s-3-.71-3-2.51c0-2,1.6-2.63,3.24-2.63a22.55,22.55,0,0,1,3.26.35Z" fill="#3a3d3f"/><path d="M402.24,426.39V413.46h1.35v7.63L405,421l2.57-3.64h1.53l-2.93,4.15,3.06,4.86H407.7L405,422.21l-1.43.05v4.13Z" fill="#3a3d3f"/><path d="M416.84,418.7a29,29,0,0,0-3.15-.29c-1.11,0-2,.31-2,1.37,0,.84.43,1.08,2.34,1.4,2.25.38,3.1.83,3.1,2.58,0,2.1-1.33,2.81-3.49,2.81a24.7,24.7,0,0,1-3.17-.35l.07-1.17a29.5,29.5,0,0,0,3,.31c1.48,0,2.27-.32,2.27-1.55,0-.94-.47-1.17-2.43-1.47s-3-.71-3-2.51c0-2,1.6-2.63,3.24-2.63a22.55,22.55,0,0,1,3.26.35Z" fill="#3a3d3f"/><path d="M419.38,424.46h1.49l-1.2,4.14h-1.12Z" fill="#3a3d3f"/><path d="M429,418.55v4.31c0,2,.13,2.52,1.3,2.52.5,0,1.6-.11,1.6-.11l.09,1.12a16.5,16.5,0,0,1-1.84.19c-1.85,0-2.48-.7-2.48-3.29v-4.74H426.4v-1.17h1.28v-2.75H429v2.75h2.86v1.17Z" fill="#3a3d3f"/><path d="M433.53,426.39V413.46h1.35v4.43a7.55,7.55,0,0,1,2.77-.69c2.47,0,3.05,1.23,3.05,4.43v4.76h-1.36v-4.72c0-2.38-.27-3.26-1.92-3.26a7.41,7.41,0,0,0-2.54.54v7.44Z" fill="#3a3d3f"/><path d="M449.84,425.22l0,1.06a31.12,31.12,0,0,1-3.51.29c-2.68,0-3.56-1.57-3.56-4.63,0-3.42,1.48-4.74,3.76-4.74s3.62,1.26,3.62,4.22l-.07,1h-5.94c0,1.93.59,2.94,2.36,2.94C447.88,425.38,449.84,425.22,449.84,425.22Zm-1-3.86c0-2.23-.68-3-2.27-3s-2.39.84-2.41,3Z" fill="#3a3d3f"/><path d="M463.5,421.74c0,3.58-1,4.83-4.25,4.83-1.08,0-3-.2-3-.2V413.46h1.34v4.37a7.43,7.43,0,0,1,2.64-.63C462.67,417.2,463.5,418.5,463.5,421.74Zm-1.37,0c0-2.32-.47-3.33-2.05-3.33a7.57,7.57,0,0,0-2.5.52v6.34s1.17.09,1.65.09C461.7,425.36,462.13,424.26,462.13,421.74Z" fill="#3a3d3f"/><path d="M472.07,424.71c0,.52.47.72,1,.79l-.05,1.07a2.74,2.74,0,0,1-2.14-.72,9.22,9.22,0,0,1-3.25.72c-1.63,0-2.53-.94-2.53-2.76s.9-2.48,2.75-2.66l2.83-.27v-.78c0-1.26-.54-1.71-1.62-1.71-1.26,0-3.41.24-3.41.24l-.05-1a21.6,21.6,0,0,1,3.53-.4c2,0,2.9.94,2.9,2.9Zm-4-2.55c-1.1.1-1.53.62-1.53,1.62s.45,1.65,1.37,1.65a9.57,9.57,0,0,0,2.83-.56v-3Z" fill="#3a3d3f"/><path d="M474.33,427.9c0-1,.49-1.53,1.43-2.23a1.47,1.47,0,0,1-.51-1.25,5.82,5.82,0,0,1,.61-1.42c-.75-.34-1.42-1.06-1.42-2.72,0-2.21,1.37-3.08,3.37-3.08a9.07,9.07,0,0,1,1.87.24l2.67-.07v1.15l-1.71,0a2.35,2.35,0,0,1,.59,1.8c0,2.34-1.17,3.05-3.48,3.05a7,7,0,0,1-.88-.08,5.56,5.56,0,0,0-.32,1c0,.72.14.83,2.18.83,2.55,0,3.47.5,3.47,2.64s-1.46,2.87-4,2.87C475.36,430.62,474.33,430,474.33,427.9Zm2.34-1.69c-.75.55-1,.88-1,1.58,0,1.24.52,1.69,2.55,1.69,1.8,0,2.61-.48,2.61-1.67,0-1.37-.57-1.51-2.21-1.51C478,426.3,476.67,426.21,476.67,426.21Zm3.21-5.93c0-1.42-.56-2-2.07-2s-2,.56-2,2,.61,2,2,2S479.88,421.7,479.88,420.28Z" fill="#3a3d3f"/><path d="M490,418.7a29.33,29.33,0,0,0-3.15-.29c-1.12,0-2,.31-2,1.37,0,.84.43,1.08,2.34,1.4,2.25.38,3.09.83,3.09,2.58,0,2.1-1.33,2.81-3.49,2.81a25,25,0,0,1-3.17-.35l.07-1.17a29.86,29.86,0,0,0,3,.31c1.48,0,2.27-.32,2.27-1.55,0-.94-.47-1.17-2.43-1.47s-3-.71-3-2.51c0-2,1.6-2.63,3.24-2.63a22.55,22.55,0,0,1,3.26.35Z" fill="#3a3d3f"/><path d="M502.13,417.47l-.06,1.1s-1.44-.16-2.12-.16c-2.07,0-2.63.9-2.63,3.31,0,2.67.41,3.64,2.65,3.64.68,0,2.12-.16,2.12-.16l.06,1.11a23.34,23.34,0,0,1-2.51.26c-2.86,0-3.71-1.32-3.71-4.85,0-3.26,1.07-4.52,3.75-4.52A20.89,20.89,0,0,1,502.13,417.47Z" fill="#3a3d3f"/><path d="M510.52,424.71c0,.52.46.72,1,.79l-.05,1.07a2.76,2.76,0,0,1-2.15-.72,9.2,9.2,0,0,1-3.24.72c-1.64,0-2.54-.94-2.54-2.76s.9-2.48,2.76-2.66l2.82-.27v-.78c0-1.26-.54-1.71-1.62-1.71-1.26,0-3.4.24-3.4.24l-.05-1a21.6,21.6,0,0,1,3.53-.4c2,0,2.9.94,2.9,2.9Zm-4-2.55c-1.1.1-1.53.62-1.53,1.62s.45,1.65,1.37,1.65a9.47,9.47,0,0,0,2.82-.56v-3Z" fill="#3a3d3f"/><path d="M513.18,426.39v-9h1.33V418a6.85,6.85,0,0,1,2.79-.81c2.48,0,3,1.23,3,4.43v4.76H519v-4.72c0-2.38-.27-3.26-1.94-3.26a6.12,6.12,0,0,0-2.54.67v7.31Z" fill="#3a3d3f"/><path d="M534.06,421.74c0,3.58-1,4.83-4.25,4.83-1.08,0-3-.2-3-.2V413.46h1.34v4.37a7.36,7.36,0,0,1,2.64-.63C533.23,417.2,534.06,418.5,534.06,421.74Zm-1.37,0c0-2.32-.47-3.33-2.05-3.33a7.57,7.57,0,0,0-2.5.52v6.34s1.17.09,1.65.09C532.26,425.36,532.69,424.26,532.69,421.74Z" fill="#3a3d3f"/><path d="M542.91,425.22l0,1.06a31.12,31.12,0,0,1-3.51.29c-2.68,0-3.57-1.57-3.57-4.63,0-3.42,1.48-4.74,3.77-4.74s3.62,1.26,3.62,4.22l-.08,1h-5.94c0,1.93.6,2.94,2.36,2.94C541,425.38,542.91,425.22,542.91,425.22Zm-1-3.86c0-2.23-.69-3-2.27-3s-2.4.84-2.41,3Z" fill="#3a3d3f"/><path d="M33.65,454.39H32.31v-.62a6.37,6.37,0,0,1-2.73.8c-1.77,0-3.24-.72-3.24-4.61,0-3.17,1-4.76,3.76-4.76a14.12,14.12,0,0,1,2.21.24v-4h1.34Zm-1.34-1.7v-6.1a15.56,15.56,0,0,0-2.14-.22c-1.89,0-2.45,1.25-2.45,3.59,0,2.91,1,3.4,2,3.4A6.47,6.47,0,0,0,32.31,452.69Z" fill="#3a3d3f"/><path d="M42.9,453.22l0,1.06a31.12,31.12,0,0,1-3.51.29c-2.68,0-3.56-1.57-3.56-4.63,0-3.42,1.47-4.74,3.76-4.74s3.62,1.26,3.62,4.22l-.07,1H37.23c0,1.93.59,2.94,2.35,2.94C40.94,453.38,42.9,453.22,42.9,453.22Zm-1-3.86c0-2.23-.68-3-2.27-3s-2.39.84-2.41,3Z" fill="#3a3d3f"/><path d="M45.45,441.46H46.8v12.93H45.45Z" fill="#3a3d3f"/><path d="M49.5,441.78h1.35v1.57H49.5Zm0,3.6h1.35v9H49.5Z" fill="#3a3d3f"/><path d="M54,445.38l2.1,7.84h.67L59,445.38h1.39l-2.54,9h-2.7l-2.54-9Z" fill="#3a3d3f"/><path d="M68.75,453.22l0,1.06a31.12,31.12,0,0,1-3.51.29c-2.68,0-3.56-1.57-3.56-4.63,0-3.42,1.47-4.74,3.76-4.74s3.62,1.26,3.62,4.22l-.07,1H63.07c0,1.93.6,2.94,2.36,2.94C66.78,453.38,68.75,453.22,68.75,453.22Zm-1-3.86c0-2.23-.69-3-2.27-3s-2.4.84-2.41,3Z" fill="#3a3d3f"/><path d="M71.19,445.38h1.33v1.23a10.17,10.17,0,0,1,3.3-1.42v1.36a13.41,13.41,0,0,0-3.28,1.23v6.61H71.19Z" fill="#3a3d3f"/><path d="M84.06,453.22l0,1.06a31.12,31.12,0,0,1-3.51.29c-2.68,0-3.57-1.57-3.57-4.63,0-3.42,1.48-4.74,3.77-4.74s3.62,1.26,3.62,4.22l-.08,1H78.39c0,1.93.6,2.94,2.36,2.94C82.1,453.38,84.06,453.22,84.06,453.22Zm-1-3.86c0-2.23-.68-3-2.26-3s-2.4.84-2.42,3Z" fill="#3a3d3f"/><path d="M93.42,454.39H92.09v-.62a6.44,6.44,0,0,1-2.74.8c-1.76,0-3.24-.72-3.24-4.61,0-3.17,1-4.76,3.77-4.76a14.12,14.12,0,0,1,2.21.24v-4h1.33Zm-1.33-1.7v-6.1a15.75,15.75,0,0,0-2.14-.22c-1.89,0-2.45,1.25-2.45,3.59,0,2.91,1,3.4,2,3.4A6.53,6.53,0,0,0,92.09,452.69Z" fill="#3a3d3f"/><path d="M107.3,449.78c0,3.27-.81,4.79-3.85,4.79s-3.86-1.52-3.86-4.79c0-3.1,1-4.58,3.86-4.58S107.3,446.68,107.3,449.78Zm-1.39,0c0-2.51-.54-3.41-2.46-3.41s-2.47.9-2.47,3.41.34,3.62,2.47,3.62S105.91,452.33,105.91,449.78Z" fill="#3a3d3f"/><path d="M109.49,454.39v-9h1.34V446a6.79,6.79,0,0,1,2.79-.81c2.48,0,3,1.23,3,4.43v4.76h-1.33v-4.72c0-2.38-.27-3.26-2-3.26a6.18,6.18,0,0,0-2.54.67v7.31Z" fill="#3a3d3f"/><path d="M124.92,446.55v4.31c0,2,.13,2.52,1.3,2.52.5,0,1.6-.11,1.6-.11l.09,1.12a16.5,16.5,0,0,1-1.84.19c-1.85,0-2.48-.7-2.48-3.29v-4.74h-1.28v-1.17h1.28v-2.75h1.33v2.75h2.86v1.17Z" fill="#3a3d3f"/><path d="M129.44,441.78h1.35v1.57h-1.35Zm0,3.6h1.35v9h-1.35Z" fill="#3a3d3f"/><path d="M133.38,454.39v-9h1.33V446a6,6,0,0,1,2.63-.81,2.53,2.53,0,0,1,2.34.92,7.53,7.53,0,0,1,3.21-.92c2.45,0,3,1.17,3,4.43v4.76h-1.35v-4.72c0-2.38-.27-3.26-1.89-3.26a6,6,0,0,0-2.54.67,10.15,10.15,0,0,1,.24,2.62v4.69H139v-4.65c0-2.48-.25-3.33-1.89-3.33a5.39,5.39,0,0,0-2.41.67v7.31Z" fill="#3a3d3f"/><path d="M155.07,453.22l0,1.06a31.12,31.12,0,0,1-3.51.29c-2.69,0-3.57-1.57-3.57-4.63,0-3.42,1.48-4.74,3.77-4.74s3.61,1.26,3.61,4.22l-.07,1H149.4c0,1.93.6,2.94,2.36,2.94C153.11,453.38,155.07,453.22,155.07,453.22Zm-1-3.86c0-2.23-.68-3-2.26-3s-2.4.84-2.42,3Z" fill="#3a3d3f"/><path d="M157.43,452.33h1.48v2.06h-1.48Z" fill="#3a3d3f"/><path d="M30.06,213.28h3.36l3.8,13.84H35.7l-1-3.56H28.78l-1,3.56H26.26Zm-.94,8.9h5.24l-2.1-7.58h-1Z"/><path d="M44.6,220h3.82v6.8a33.71,33.71,0,0,1-4.5.48c-4.24,0-5.36-2.6-5.36-7.08s1.16-7.16,5.32-7.16a25.77,25.77,0,0,1,4.54.52l-.06,1.28a31.73,31.73,0,0,0-4.3-.42c-3.2,0-3.9,1.86-3.9,5.78S40.84,226,44,226a18.56,18.56,0,0,0,2.86-.28v-4.26H44.6Z"/><path d="M60.72,213.28,57.1,227.12H53.66L50,213.28h1.6l3.18,12.48h1.12l3.18-12.48Z"/><path d="M68.8,218.58a32.74,32.74,0,0,0-3.5-.32c-1.24,0-2.18.34-2.18,1.52,0,.94.48,1.2,2.6,1.56,2.5.42,3.44.92,3.44,2.86,0,2.34-1.48,3.12-3.88,3.12a28.23,28.23,0,0,1-3.52-.38l.08-1.3s2.28.34,3.3.34c1.64,0,2.52-.36,2.52-1.72,0-1-.52-1.3-2.7-1.64s-3.34-.78-3.34-2.78c0-2.2,1.78-2.92,3.6-2.92a25.57,25.57,0,0,1,3.62.38Z"/><path d="M67,152.76H58.28v-1.63l5.09-12.77h2.28l-5.18,12.56H67v-5.59H69v5.59h2.28v1.84H69v3.5H67Z" fill="#3a3d3f"/><path d="M132.47,148.53h5.12v-5.29h1.9v5.29h5.18v1.84h-5.18v5.35h-1.9v-5.35h-5.12Z" fill="#3a3d3f"/><path d="M154.75,138.36h2v17.9h-2.09V140.7l-4.61,3-.95-1.57Z" fill="#3a3d3f"/><path d="M163.21,156.26V154.5l5.24-5.51c2.22-2.3,3.6-3.77,3.6-5.88,0-2.39-1.33-3.15-3.9-3.15a26,26,0,0,0-4.64.6l-.16-1.74a21.81,21.81,0,0,1,5.18-.73c3.77,0,5.67,1.44,5.67,4.8,0,2.69-1.22,4.26-3.75,6.7l-4.77,4.85h9v1.82Z" fill="#3a3d3f"/><path d="M190.63,147.58c0,6.86-2.42,8.95-6.51,8.95s-6.54-2-6.54-8.92c0-7.38,2.39-9.54,6.51-9.54S190.63,140.21,190.63,147.58Zm-10.88,0c0,5.61,1.55,7.08,4.37,7.08s4.36-1.49,4.36-7.11c0-6-1.38-7.64-4.36-7.64S179.75,141.51,179.75,147.61Z" fill="#3a3d3f"/><path d="M247.73,140.26a42.12,42.12,0,0,0-4.72-.32c-3.12,0-4.82,2.22-4.82,6.18a15.2,15.2,0,0,1,4.47-1.06c4,0,6,1.79,6,5.56s-2.28,5.91-6.26,5.91c-4.45,0-6.4-3.5-6.4-9.3,0-6.48,2.73-9.14,7-9.14a33.62,33.62,0,0,1,4.91.46Zm-9.57,7.7c0,3.82,1.16,6.73,4.26,6.73,2.65,0,4.09-1.44,4.09-4.07s-1.49-3.69-4-3.69A12.5,12.5,0,0,0,238.16,148Z" fill="#3a3d3f"/><path d="M263.94,147.58c0,6.86-2.41,8.95-6.5,8.95s-6.54-2-6.54-8.92c0-7.38,2.39-9.54,6.51-9.54S263.94,140.21,263.94,147.58Zm-10.87,0c0,5.61,1.55,7.08,4.37,7.08s4.36-1.49,4.36-7.11c0-6-1.38-7.64-4.36-7.64S253.07,141.51,253.07,147.61Z" fill="#3a3d3f"/><path d="M271.75,141.83c0,2.63-1.16,3.83-3,3.83s-3-1.2-3-3.83,1.14-3.74,3-3.74S271.75,139.23,271.75,141.83Zm-3,2.44c1,0,1.36-.84,1.36-2.44s-.36-2.36-1.36-2.36-1.33.76-1.33,2.36S267.79,144.27,268.77,144.27Zm6-6.48,1.3.44-5.56,18.52-1.3-.38Zm4.66,14.92c0,2.6-1.16,3.82-3,3.82s-3-1.22-3-3.85,1.12-3.72,3-3.72S279.45,150.1,279.45,152.71Zm-3,2.44c1,0,1.36-.84,1.36-2.44s-.33-2.36-1.36-2.36-1.33.76-1.33,2.33S275.49,155.15,276.47,155.15Z" fill="#3a3d3f"/><rect x="267.52" y="81.02" width="10.84" height="41.27" transform="translate(545.89 203.31) rotate(-180)" fill="#2277d6"/><rect x="252.39" y="94.76" width="10.84" height="27.53" transform="translate(515.63 217.05) rotate(-180)" fill="#2277d6"/><rect x="236.37" y="108.53" width="10.84" height="13.77" transform="translate(483.59 230.82) rotate(-180)" fill="#2277d6"/><path d="M185,89.79h-8.67V85.45A4.33,4.33,0,0,0,172,81.12h-8.66A4.33,4.33,0,0,0,159,85.45v4.34h-8.67A4.3,4.3,0,0,0,146,94.12L146,118a4.32,4.32,0,0,0,4.33,4.33H184.4a4.92,4.92,0,0,0,4.92-4.92V94.12A4.33,4.33,0,0,0,185,89.79Zm-13,0h-8.66V85.45H172Z" fill="#2277d6"/><path d="M51.44,95.94l5.93,8.11a6.26,6.26,0,0,0,4.45,1.85h37.1l-6-8.17c-.95-1.27-1.65-1.79-2.79-1.79Z" fill="#2277d6"/><path d="M99.93,108.47H60.19a6.31,6.31,0,0,1-4.57-2L49,97.93a4.29,4.29,0,0,0-3.16-1.13c-3.55,0-8.48-.08-11.76.13a3.61,3.61,0,0,0-3,2.35l-2.77,8.57a1.8,1.8,0,0,0,0,1.19l1.57,3.59a2.27,2.27,0,0,0,2.13,1.49H97.64a3.23,3.23,0,0,0,3-2.11l1.2-3.49Z" fill="#2277d6"/><path d="M45.32,116.69c0,2.44-2.29,4.42-5.11,4.42s-5.1-2-5.1-4.42" fill="#2277d6"/><path d="M94.17,116.69c0,2.44-2.28,4.42-5.1,4.42s-5.11-2-5.11-4.42" fill="#2277d6"/></g><g id="CMs_Msk_Screen"><circle cx="47.61" cy="277.67" r="20.92" fill="#bddff4"/><path d="M42.14,269.91a18.37,18.37,0,0,1,4.66-.68c3.74,0,5.06,1.32,5.06,4.13a4,4,0,0,1-2.35,3.6c1.61.58,2.73,1.27,2.73,3.84,0,3.19-1.56,4.78-5.13,4.78a26,26,0,0,1-5.21-.65l.17-1.51a28.52,28.52,0,0,0,4.85.53c2.35,0,3.43-1,3.43-3.08s-1.47-2.9-3.27-3H43.89v-1.59h3.19A3,3,0,0,0,50,273.43c0-1.8-.88-2.54-3.24-2.54a24.13,24.13,0,0,0-4.41.48Z" fill="#424127"/><circle cx="100.52" cy="277.67" r="20.92" fill="#bddff4"/><path d="M105,269.5v1.68H97.33l-.43,5.16a9.11,9.11,0,0,1,3.72-1c3.1,0,5,1.3,5,4.68,0,3.65-2,5.52-5.3,5.52a26.31,26.31,0,0,1-5.26-.69l.22-1.47a31.48,31.48,0,0,0,4.87.53c2.18,0,3.57-1.29,3.57-3.74S102.42,277,100.4,277a9.08,9.08,0,0,0-3.76,1l-1.28-.24.44-8.23Z" fill="#574666"/><circle cx="153.43" cy="277.67" r="20.92" fill="#bddff4"/><path d="M157.64,271.18a36.45,36.45,0,0,0-4.18-.29c-2.76,0-4.27,2-4.27,5.47a13.68,13.68,0,0,1,4-.93c3.5,0,5.33,1.58,5.33,4.92s-2,5.23-5.55,5.23c-3.93,0-5.66-3.1-5.66-8.23,0-5.74,2.42-8.09,6.19-8.09a30.33,30.33,0,0,1,4.35.4ZM149.17,278c0,3.39,1,6,3.76,6,2.36,0,3.63-1.28,3.63-3.6s-1.32-3.27-3.53-3.27A11,11,0,0,0,149.17,278Z" fill="#274444"/><circle cx="206.34" cy="277.67" r="20.92" fill="#bddff4"/><path d="M201.37,283.66a36.45,36.45,0,0,0,4.18.29c2.9,0,4.34-1.78,4.37-5.52a14.66,14.66,0,0,1-4.13.91c-3.31,0-5.19-1.49-5.19-4.83s2.16-5.25,5.5-5.25c4,0,5.74,3.17,5.74,8.21,0,6.14-2.38,8.11-6.29,8.11a28.29,28.29,0,0,1-4.35-.43Zm8.57-6.82c-.05-3.46-1.05-5.95-3.84-5.95a3.33,3.33,0,0,0-3.58,3.62c0,2.24,1.2,3.19,3.41,3.19A14.77,14.77,0,0,0,209.94,276.84Z" fill="#2f4249"/></g></g></svg>