<svg xmlns="http://www.w3.org/2000/svg" viewBox="0 0 579.59 494.77"><title>r_4_C_Tablet_1</title><g id="Layer_2" data-name="Layer 2"><g id="MC_Tab_Content"><line x1="0.23" y1="0.5" x2="579.59" y2="0.5" fill="none" stroke="#ddd" stroke-miterlimit="10"/><rect y="0.5" width="579.59" height="494.27" fill="#f7f7f7"/><line x1="0.23" y1="0.5" x2="579.59" y2="0.5" fill="none" stroke="#ddd" stroke-miterlimit="10"/></g><g id="PF_Cont_Screen"><polygon points="364.7 267.2 364.7 291.52 399 291.62 398.99 255.17 386 265.12 364.7 267.2" fill="#8dd69d"/><path d="M28.56,29.12h8.29v1.36H30.11v5.4h5.7v1.36h-5.7V43H28.56Z"/><path d="M39.08,43V29.12h1.54V41.58h6.09V43Z"/><path d="M48.66,29.12H50.2V43H48.66Z"/><path d="M59.07,35.88h3.82v6.8a33.71,33.71,0,0,1-4.5.48c-4.24,0-5.37-2.6-5.37-7.08s1.17-7.16,5.33-7.16a25.77,25.77,0,0,1,4.54.52l-.06,1.28a31.73,31.73,0,0,0-4.3-.42c-3.21,0-3.91,1.86-3.91,5.78s.69,5.72,3.89,5.72a18.56,18.56,0,0,0,2.86-.28V37.26h-2.3Z"/><path d="M74.49,36.7h-7V43H65.9V29.12h1.54v6.2h7v-6.2H76V43H74.49Z"/><path d="M78,29.12H88V30.5H83.75V43H82.23V30.5H78Z"/><line x1="26.12" y1="51.27" x2="525.71" y2="51.27" fill="none" stroke="#ddd" stroke-miterlimit="10"/><path d="M27.1,445.33h9v1.24H32.3v11.22H30.93V446.57H27.1Z" fill="#3a3d3f"/><path d="M37.63,457.79V444.86H39v4.43a7.64,7.64,0,0,1,2.77-.68c2.47,0,3,1.22,3,4.43v4.75H43.44v-4.72c0-2.37-.27-3.26-1.92-3.26a7.41,7.41,0,0,0-2.54.54v7.44Z" fill="#3a3d3f"/><path d="M53.94,456.62l0,1.06a31.4,31.4,0,0,1-3.52.29c-2.68,0-3.56-1.57-3.56-4.63,0-3.42,1.48-4.73,3.76-4.73s3.62,1.26,3.62,4.21l-.07,1H48.27c0,1.92.59,2.93,2.36,2.93C52,456.78,53.94,456.62,53.94,456.62Zm-1-3.85c0-2.24-.68-3-2.27-3s-2.39.85-2.41,3Z" fill="#3a3d3f"/><path d="M60.35,457.79v-9h1.33v.63a6,6,0,0,1,2.63-.81,2.54,2.54,0,0,1,2.34.92,7.46,7.46,0,0,1,3.2-.92c2.45,0,3,1.17,3,4.43v4.75H71.54v-4.72c0-2.37-.27-3.26-1.89-3.26a6,6,0,0,0-2.54.67,9.8,9.8,0,0,1,.24,2.63v4.68H66v-4.65c0-2.48-.25-3.33-1.89-3.33a5.4,5.4,0,0,0-2.42.67v7.31Z" fill="#3a3d3f"/><path d="M82.7,453.18c0,3.28-.81,4.79-3.85,4.79S75,456.46,75,453.18c0-3.1,1-4.57,3.85-4.57S82.7,450.08,82.7,453.18Zm-1.38,0c0-2.5-.54-3.4-2.47-3.4s-2.47.9-2.47,3.4.35,3.62,2.47,3.62S81.32,455.74,81.32,453.18Z" fill="#3a3d3f"/><path d="M90.87,450.1a29,29,0,0,0-3.15-.29c-1.11,0-2,.31-2,1.37,0,.85.43,1.08,2.34,1.41,2.25.38,3.1.82,3.1,2.57,0,2.11-1.33,2.81-3.49,2.81a25.4,25.4,0,0,1-3.17-.34l.07-1.17s2,.3,3,.3c1.48,0,2.27-.32,2.27-1.54,0-.94-.47-1.17-2.43-1.48s-3-.7-3-2.5c0-2,1.6-2.63,3.24-2.63a23.19,23.19,0,0,1,3.26.34Z" fill="#3a3d3f"/><path d="M95.07,450v4.3c0,2,.12,2.52,1.29,2.52.51,0,1.61-.11,1.61-.11l.09,1.12a15.71,15.71,0,0,1-1.84.2c-1.86,0-2.49-.7-2.49-3.3V450H92.46v-1.17h1.27V446h1.34v2.76h2.86V450Z" fill="#3a3d3f"/><path d="M109.52,450.1a29.33,29.33,0,0,0-3.15-.29c-1.11,0-2,.31-2,1.37,0,.85.43,1.08,2.34,1.41,2.25.38,3.1.82,3.1,2.57,0,2.11-1.34,2.81-3.5,2.81a25.4,25.4,0,0,1-3.16-.34l.07-1.17s2,.3,3,.3c1.47,0,2.27-.32,2.27-1.54,0-.94-.47-1.17-2.43-1.48s-3-.7-3-2.5c0-2,1.6-2.63,3.24-2.63a23.19,23.19,0,0,1,3.26.34Z" fill="#3a3d3f"/><path d="M118.88,448.79v9h-1.35v-.63a6.07,6.07,0,0,1-2.66.81c-2.52,0-3.05-1.17-3.05-4.48v-4.7h1.36v4.68c0,2.48.21,3.29,1.89,3.29a5.46,5.46,0,0,0,2.46-.66v-7.31Z" fill="#3a3d3f"/><path d="M121.47,445.19h1.35v1.56h-1.35Zm0,3.6h1.35v9h-1.35Z" fill="#3a3d3f"/><path d="M127.22,450v4.3c0,2,.12,2.52,1.29,2.52.51,0,1.6-.11,1.6-.11l.09,1.12a15.44,15.44,0,0,1-1.83.2c-1.86,0-2.49-.7-2.49-3.3V450h-1.27v-1.17h1.27V446h1.34v2.76h2.86V450Z" fill="#3a3d3f"/><path d="M138.09,456.12c0,.52.47.72,1,.79l0,1.06a2.75,2.75,0,0,1-2.14-.72,9.2,9.2,0,0,1-3.24.72c-1.64,0-2.54-.94-2.54-2.75s.9-2.49,2.75-2.67l2.83-.27v-.77c0-1.26-.54-1.71-1.62-1.71-1.26,0-3.4.23-3.4.23l-.06-1a22.13,22.13,0,0,1,3.53-.39c2,0,2.9.93,2.9,2.9Zm-4-2.56c-1.09.11-1.53.63-1.53,1.62s.45,1.66,1.37,1.66a9.57,9.57,0,0,0,2.83-.56v-3Z" fill="#3a3d3f"/><path d="M148,453.14c0,3.59-1,4.83-4.25,4.83-1.08,0-3-.2-3-.2V444.86h1.33v4.38a7.44,7.44,0,0,1,2.65-.63C147.18,448.61,148,449.9,148,453.14Zm-1.37,0c0-2.32-.47-3.33-2-3.33a7.47,7.47,0,0,0-2.51.53v6.33s1.17.09,1.66.09C146.21,456.76,146.64,455.67,146.64,453.14Z" fill="#3a3d3f"/><path d="M150.33,444.86h1.35v12.93h-1.35Z" fill="#3a3d3f"/><path d="M161,456.62l0,1.06a31.38,31.38,0,0,1-3.51.29c-2.69,0-3.57-1.57-3.57-4.63,0-3.42,1.48-4.73,3.76-4.73s3.62,1.26,3.62,4.21l-.07,1h-5.94c0,1.92.59,2.93,2.36,2.93C159.06,456.78,161,456.62,161,456.62Zm-1-3.85c0-2.24-.68-3-2.27-3s-2.39.85-2.41,3Z" fill="#3a3d3f"/><path d="M173.49,449l-.07,1.91s-1.42-.15-2.1-.15c-1.73,0-2.06.67-2.06,2.47,0,2,.35,2.65,2.07,2.65.69,0,2.09-.15,2.09-.15l.07,1.93a21,21,0,0,1-2.93.38c-2.68,0-3.75-1.43-3.75-4.81,0-3.19,1.12-4.63,3.8-4.63A18.14,18.14,0,0,1,173.49,449Z" fill="#3a3d3f"/><path d="M175.27,457.79v-12.6h2.42v4a5.94,5.94,0,0,1,2.23-.65c2.52,0,3.17,1.59,3.17,4.34v4.88h-2.41V453c0-1.36-.18-2.24-1.35-2.24a5.84,5.84,0,0,0-1.64.29v6.77Z" fill="#3a3d3f"/><path d="M192.36,455.72l0,1.78a19,19,0,0,1-3.75.51c-2.72,0-3.87-1.35-3.87-4.6s1.35-4.84,4-4.84,3.92,1.35,3.92,4.07l-.18,1.67h-5.29c0,1.09.52,1.57,1.82,1.57C190.5,455.88,192.36,455.72,192.36,455.72Zm-2.05-3.24c0-1.46-.42-1.93-1.55-1.93s-1.55.56-1.57,1.93Z" fill="#3a3d3f"/><path d="M200.66,449l-.08,1.91s-1.42-.15-2.1-.15c-1.73,0-2,.67-2,2.47,0,2,.34,2.65,2.07,2.65.68,0,2.08-.15,2.08-.15l.08,1.93a21.2,21.2,0,0,1-2.94.38c-2.68,0-3.74-1.43-3.74-4.81,0-3.19,1.11-4.63,3.8-4.63A18.34,18.34,0,0,1,200.66,449Z" fill="#3a3d3f"/><path d="M202.44,457.79v-12.6h2.41v7.16l.92-.16,1.78-3.4h2.7l-2.34,4.27,2.47,4.73h-2.72l-1.82-3.51-1,.16v3.35Z" fill="#3a3d3f"/><path d="M211.6,451.9h5.33v2.2H211.6Z" fill="#3a3d3f"/><path d="M219.05,445.19h2.41v2.45h-2.41Zm0,3.6h2.41v9h-2.41Z" fill="#3a3d3f"/><path d="M223.69,457.79v-9h2.4v.5a5.42,5.42,0,0,1,2.25-.72c2.52,0,3.17,1.59,3.17,4.34v4.88H229.1V453c0-1.37-.18-2.25-1.35-2.25a4.83,4.83,0,0,0-1.64.33v6.73Z" fill="#3a3d3f"/><path d="M245.26,457.79h-2.39v-.38a6.43,6.43,0,0,1-2.18.6c-2.72,0-3.51-1.59-3.51-4.76s1.27-4.68,3.72-4.68a14.17,14.17,0,0,1,1.95.25v-3.63h2.41Zm-2.41-2.21v-4.74a12,12,0,0,0-1.77-.18c-.9,0-1.46.77-1.46,2.59s.35,2.6,1.48,2.6A7.07,7.07,0,0,0,242.85,455.58Z" fill="#3a3d3f"/><path d="M254.62,455.72l0,1.78a18.85,18.85,0,0,1-3.75.51c-2.72,0-3.87-1.35-3.87-4.6s1.35-4.84,4-4.84,3.92,1.35,3.92,4.07l-.18,1.67h-5.29c0,1.09.52,1.57,1.82,1.57C252.77,455.88,254.62,455.72,254.62,455.72Zm-2.05-3.24c0-1.46-.42-1.93-1.55-1.93s-1.55.56-1.57,1.93Z" fill="#3a3d3f"/><path d="M263.13,451s-2.23-.29-3.27-.29-1.26.23-1.26.72.34.5,2,.81c2.08.38,2.82,1,2.82,2.81,0,2.11-1.37,2.92-3.62,2.92a22.06,22.06,0,0,1-3.45-.44l.07-2s2.23.29,3.15.29c1.15,0,1.46-.24,1.46-.71s-.2-.57-1.86-.84c-1.94-.33-3-.79-3-2.78s1.59-2.93,3.48-2.93a23.2,23.2,0,0,1,3.49.45Z" fill="#3a3d3f"/><path d="M265.17,457.79v-12.6h2.41v7.16l.92-.16,1.78-3.4H273l-2.34,4.27,2.47,4.73h-2.72l-1.82-3.51-1,.16v3.35Z" fill="#3a3d3f"/><path d="M280.9,451s-2.23-.29-3.28-.29-1.26.23-1.26.72.34.5,2,.81c2.09.38,2.83,1,2.83,2.81,0,2.11-1.37,2.92-3.62,2.92a22.26,22.26,0,0,1-3.46-.44l.07-2s2.24.29,3.15.29c1.16,0,1.46-.24,1.46-.71s-.2-.57-1.85-.84c-1.95-.33-3-.79-3-2.78s1.58-2.93,3.47-2.93a23.19,23.19,0,0,1,3.5.45Z" fill="#3a3d3f"/><path d="M288.8,457.79h-1.35V450h-1.14v-1.17h1.14V448c0-2.59.67-3.3,2.43-3.3.61,0,1.82.13,1.82.13l0,1.11s-1,0-1.55,0c-1,0-1.33.43-1.33,2.11v.79h2.61V450H288.8Z" fill="#3a3d3f"/><path d="M300.34,453.18c0,3.28-.81,4.79-3.85,4.79s-3.86-1.51-3.86-4.79c0-3.1,1-4.57,3.86-4.57S300.34,450.08,300.34,453.18Zm-1.39,0c0-2.5-.54-3.4-2.46-3.4s-2.47.9-2.47,3.4.34,3.62,2.47,3.62S299,455.74,299,453.18Z" fill="#3a3d3f"/><path d="M302.53,448.79h1.34V450a10.06,10.06,0,0,1,3.29-1.42V450a13.15,13.15,0,0,0-3.28,1.22v6.61h-1.35Z" fill="#3a3d3f"/><path d="M314.52,450v4.3c0,2,.13,2.52,1.3,2.52.5,0,1.6-.11,1.6-.11l.09,1.12a15.71,15.71,0,0,1-1.84.2c-1.85,0-2.48-.7-2.48-3.3V450h-1.28v-1.17h1.28V446h1.33v2.76h2.86V450Z" fill="#3a3d3f"/><path d="M319,457.79V444.86h1.35v4.43a7.64,7.64,0,0,1,2.77-.68c2.47,0,3,1.22,3,4.43v4.75h-1.35v-4.72c0-2.37-.28-3.26-1.93-3.26a7.41,7.41,0,0,0-2.54.54v7.44Z" fill="#3a3d3f"/><path d="M328.7,445.19h1.36v1.56H328.7Zm0,3.6h1.36v9H328.7Z" fill="#3a3d3f"/><path d="M338.63,450.1a29.33,29.33,0,0,0-3.16-.29c-1.11,0-2,.31-2,1.37,0,.85.43,1.08,2.34,1.41,2.25.38,3.1.82,3.1,2.57,0,2.11-1.33,2.81-3.49,2.81a25.4,25.4,0,0,1-3.17-.34l.07-1.17s2.05.3,3,.3c1.48,0,2.27-.32,2.27-1.54,0-.94-.47-1.17-2.43-1.48s-3-.7-3-2.5c0-2,1.6-2.63,3.24-2.63a23.19,23.19,0,0,1,3.26.34Z" fill="#3a3d3f"/><path d="M346.71,457.79h-1.35V450h-1.14v-1.17h1.14V448c0-2.59.66-3.3,2.43-3.3.61,0,1.82.13,1.82.13l0,1.11s-1,0-1.55,0c-1,0-1.33.43-1.33,2.11v.79h2.61V450h-2.61Z" fill="#3a3d3f"/><path d="M351,444.86h1.35v12.93H351Z" fill="#3a3d3f"/><path d="M355.09,445.19h1.35v1.56h-1.35Zm0,3.6h1.35v9h-1.35Z" fill="#3a3d3f"/><path d="M358.64,459.3c0-1,.49-1.53,1.42-2.23a1.47,1.47,0,0,1-.5-1.24,5.82,5.82,0,0,1,.61-1.42c-.76-.35-1.42-1.07-1.42-2.72,0-2.22,1.37-3.08,3.36-3.08a9.46,9.46,0,0,1,1.88.23l2.66-.07v1.15l-1.71,0a2.33,2.33,0,0,1,.6,1.8c0,2.34-1.17,3-3.48,3-.18,0-.68,0-.88-.07a5.42,5.42,0,0,0-.32,1c0,.72.14.83,2.17.83,2.56,0,3.48.51,3.48,2.65s-1.46,2.86-4,2.86C359.67,462,358.64,461.39,358.64,459.3Zm2.34-1.69c-.76.56-1,.88-1,1.58,0,1.25.52,1.7,2.56,1.7,1.8,0,2.61-.49,2.61-1.68,0-1.37-.58-1.51-2.21-1.51C362.3,457.7,361,457.61,361,457.61Zm3.21-5.92c0-1.43-.56-2-2.08-2s-2,.55-2,2,.61,2,2,2S364.19,453.11,364.19,451.69Z" fill="#3a3d3f"/><path d="M368.29,457.79V444.86h1.35v4.43a7.64,7.64,0,0,1,2.77-.68c2.47,0,3,1.22,3,4.43v4.75H374.1v-4.72c0-2.37-.27-3.26-1.92-3.26a7.41,7.41,0,0,0-2.54.54v7.44Z" fill="#3a3d3f"/><path d="M379.75,450v4.3c0,2,.13,2.52,1.3,2.52.51,0,1.6-.11,1.6-.11l.09,1.12a15.44,15.44,0,0,1-1.83.2c-1.86,0-2.49-.7-2.49-3.3V450h-1.28v-1.17h1.28V446h1.33v2.76h2.87V450Z" fill="#3a3d3f"/><path d="M394.59,456.12c0,.52.47.72,1,.79l-.05,1.06a2.74,2.74,0,0,1-2.14-.72,9.22,9.22,0,0,1-3.25.72c-1.63,0-2.53-.94-2.53-2.75s.9-2.49,2.75-2.67l2.83-.27v-.77c0-1.26-.54-1.71-1.62-1.71-1.26,0-3.41.23-3.41.23l0-1a22.13,22.13,0,0,1,3.53-.39c2,0,2.9.93,2.9,2.9Zm-4-2.56c-1.09.11-1.53.63-1.53,1.62s.45,1.66,1.37,1.66a9.57,9.57,0,0,0,2.83-.56v-3Z" fill="#3a3d3f"/><path d="M397.25,448.79h1.33V450a10.17,10.17,0,0,1,3.3-1.42V450a13.15,13.15,0,0,0-3.28,1.22v6.61h-1.35Z" fill="#3a3d3f"/><path d="M410.12,456.62l0,1.06a31.12,31.12,0,0,1-3.51.29c-2.69,0-3.57-1.57-3.57-4.63,0-3.42,1.48-4.73,3.76-4.73s3.62,1.26,3.62,4.21l-.07,1h-5.94c0,1.92.59,2.93,2.36,2.93C408.16,456.78,410.12,456.62,410.12,456.62Zm-1-3.85c0-2.24-.68-3-2.27-3s-2.39.85-2.41,3Z" fill="#3a3d3f"/><path d="M416.4,457.79v-2.11l2.54-2.57c1.55-1.59,2.41-2.5,2.41-3.66s-.56-1.56-1.94-1.56a20.22,20.22,0,0,0-2.81.27l-.13-1.93a14,14,0,0,1,3.57-.54c2.72,0,3.87,1.19,3.87,3.4,0,1.84-.7,2.88-2.67,4.67l-2.07,1.87h4.94v2.16Z" fill="#3a3d3f"/><path d="M434.13,445.91v2.16h-5.31l-.3,2.57a6.9,6.9,0,0,1,2.12-.43c2.43,0,3.85,1.08,3.85,3.58,0,2.69-1.47,4.22-4.07,4.22a18.75,18.75,0,0,1-4.21-.67l.27-1.84a29.09,29.09,0,0,0,3.64.35,1.64,1.64,0,0,0,1.82-1.79c0-1.2-.53-1.69-1.66-1.69a8.35,8.35,0,0,0-2.25.31l-1.48-.35.33-6.42Z" fill="#3a3d3f"/><path d="M447,456.12c0,.52.47.72,1.05.79L448,458a2.75,2.75,0,0,1-2.14-.72,9.2,9.2,0,0,1-3.24.72c-1.64,0-2.54-.94-2.54-2.75s.9-2.49,2.76-2.67l2.82-.27v-.77c0-1.26-.54-1.71-1.62-1.71-1.26,0-3.4.23-3.4.23l-.05-1a22.13,22.13,0,0,1,3.53-.39c2,0,2.89.93,2.89,2.9Zm-4-2.56c-1.1.11-1.53.63-1.53,1.62s.45,1.66,1.37,1.66a9.47,9.47,0,0,0,2.82-.56v-3Z" fill="#3a3d3f"/><path d="M449.67,457.79v-9H451v.63a6.85,6.85,0,0,1,2.79-.81c2.48,0,3,1.22,3,4.43v4.75H455.5v-4.72c0-2.37-.27-3.26-1.95-3.26a6.11,6.11,0,0,0-2.53.67v7.31Z" fill="#3a3d3f"/><path d="M466.25,457.79h-1.34v-.61a6.42,6.42,0,0,1-2.73.79c-1.77,0-3.24-.72-3.24-4.61,0-3.17,1-4.75,3.76-4.75a15.79,15.79,0,0,1,2.21.23v-4h1.34Zm-1.34-1.69V450a16.07,16.07,0,0,0-2.14-.21c-1.89,0-2.45,1.24-2.45,3.58,0,2.92,1,3.4,2,3.4A6.54,6.54,0,0,0,464.91,456.1Z" fill="#3a3d3f"/><path d="M472.76,445.91h7.6v2.81L476.13,458l-2.31-.65,4.05-8.66v-.58h-5.11Z" fill="#3a3d3f"/><path d="M491.25,451.92c0,4.5-1.66,6.09-4.61,6.09s-4.61-1.59-4.61-6.09,1.66-6.23,4.61-6.23S491.25,447.42,491.25,451.92Zm-6.66,0c0,2.92.63,3.93,2.07,3.93s2-1,2-3.93c0-3.1-.59-4.07-2-4.07S484.59,448.82,484.59,451.92Z" fill="#3a3d3f"/><path d="M492.69,454.8h2.59v3h-2.59Z" fill="#3a3d3f"/><path d="M28.4,100.23H61v3.4H28.4Zm33.5-16a2.57,2.57,0,0,0-3.2-1.8l-9.1,2.4-11.8-11-3.3.9L41.6,87l-8.5,2.3-3.4-2.6-2.5.7,3.1,5.4,1.3,2.3,2.7-.7L43.4,92l7.5-2,9.1-2.4A2.85,2.85,0,0,0,61.9,84.23Z" fill="#f2a120"/><path d="M30.78,189.81V194H29.4V181.54H34c2.72,0,4,1.32,4,4s-1.26,4.25-4,4.25Zm3.15-1.23c1.82,0,2.58-1.09,2.58-3s-.76-2.79-2.58-2.79H30.78v5.81Z" fill="#4c4c4c"/><path d="M46.19,192.33c0,.52.47.72,1,.79l0,1.06a2.75,2.75,0,0,1-2.14-.72,9.2,9.2,0,0,1-3.24.72c-1.64,0-2.54-.93-2.54-2.75s.9-2.49,2.75-2.67l2.83-.27v-.77c0-1.26-.54-1.71-1.62-1.71-1.26,0-3.4.23-3.4.23l-.06-1a21.6,21.6,0,0,1,3.53-.4c2,0,2.9.94,2.9,2.9Zm-4-2.56c-1.1.11-1.53.63-1.53,1.62s.45,1.66,1.36,1.66a9.48,9.48,0,0,0,2.83-.56v-3Z" fill="#4c4c4c"/><path d="M54.83,186.31a30.35,30.35,0,0,0-3.15-.28c-1.12,0-2,.3-2,1.37,0,.84.43,1.08,2.34,1.4,2.25.38,3.09.83,3.09,2.57,0,2.11-1.33,2.81-3.49,2.81a25.65,25.65,0,0,1-3.17-.34l.07-1.17a29.8,29.8,0,0,0,3,.31c1.47,0,2.26-.33,2.26-1.55,0-.94-.46-1.17-2.43-1.48s-3-.7-3-2.5c0-2,1.6-2.63,3.24-2.63a23.19,23.19,0,0,1,3.26.34Z" fill="#4c4c4c"/><path d="M63.2,186.31a30.35,30.35,0,0,0-3.15-.28c-1.12,0-2,.3-2,1.37,0,.84.43,1.08,2.34,1.4,2.25.38,3.09.83,3.09,2.57,0,2.11-1.33,2.81-3.49,2.81a25.65,25.65,0,0,1-3.17-.34l.08-1.17a29.5,29.5,0,0,0,3,.31c1.47,0,2.26-.33,2.26-1.55,0-.94-.46-1.17-2.43-1.48s-3-.7-3-2.5c0-2,1.6-2.63,3.24-2.63a23.19,23.19,0,0,1,3.26.34Z" fill="#4c4c4c"/><path d="M72.24,192.83l0,1.07a32.2,32.2,0,0,1-3.51.28c-2.68,0-3.56-1.56-3.56-4.62,0-3.42,1.47-4.74,3.76-4.74s3.62,1.26,3.62,4.21l-.07,1h-6c0,1.93.6,2.94,2.36,2.94C70.27,193,72.24,192.83,72.24,192.83Zm-1-3.85c0-2.23-.69-3-2.27-3s-2.4.84-2.41,3Z" fill="#4c4c4c"/><path d="M74.68,194v-9H76v.63a6.79,6.79,0,0,1,2.79-.81c2.48,0,3,1.23,3,4.43V194H80.52v-4.71c0-2.38-.27-3.26-2-3.26a6.19,6.19,0,0,0-2.54.66V194Z" fill="#4c4c4c"/><path d="M84,195.52c0-1.05.49-1.53,1.42-2.24a1.46,1.46,0,0,1-.5-1.24,5.82,5.82,0,0,1,.61-1.42c-.75-.34-1.42-1.06-1.42-2.72,0-2.22,1.37-3.08,3.37-3.08a9.07,9.07,0,0,1,1.87.24L92,185v1.16l-1.72,0a2.31,2.31,0,0,1,.6,1.8c0,2.34-1.17,3-3.48,3a6.79,6.79,0,0,1-.88-.07,5.32,5.32,0,0,0-.32,1c0,.72.14.82,2.18.82,2.55,0,3.47.51,3.47,2.65s-1.46,2.86-4,2.86C85,198.23,84,197.6,84,195.52Zm2.34-1.7c-.75.56-1,.89-1,1.59,0,1.24.53,1.69,2.56,1.69,1.8,0,2.61-.49,2.61-1.67,0-1.37-.57-1.52-2.21-1.52C87.61,193.91,86.29,193.82,86.29,193.82Zm3.21-5.92c0-1.42-.56-2-2.07-2s-2,.56-2,2,.61,2,2,2S89.5,189.32,89.5,187.9Z" fill="#4c4c4c"/><path d="M100.24,192.83l0,1.07a32.2,32.2,0,0,1-3.51.28c-2.68,0-3.57-1.56-3.57-4.62,0-3.42,1.48-4.74,3.77-4.74s3.62,1.26,3.62,4.21l-.07,1h-6c0,1.93.6,2.94,2.36,2.94C98.28,193,100.24,192.83,100.24,192.83Zm-1-3.85c0-2.23-.69-3-2.27-3s-2.4.84-2.41,3Z" fill="#4c4c4c"/><path d="M102.69,185H104v1.22a10.17,10.17,0,0,1,3.3-1.42v1.37A13,13,0,0,0,104,187.4V194h-1.35Z" fill="#4c4c4c"/><path d="M114.9,186.31a30.34,30.34,0,0,0-3.16-.28c-1.11,0-2,.3-2,1.37,0,.84.43,1.08,2.34,1.4,2.25.38,3.1.83,3.1,2.57,0,2.11-1.33,2.81-3.49,2.81a25.4,25.4,0,0,1-3.17-.34l.07-1.17a29.5,29.5,0,0,0,3,.31c1.48,0,2.27-.33,2.27-1.55,0-.94-.47-1.17-2.43-1.48s-3-.7-3-2.5c0-2,1.6-2.63,3.24-2.63a23.19,23.19,0,0,1,3.26.34Z" fill="#4c4c4c"/><path d="M286.94,77.48h8v1.11h-3.38v10h-1.21v-10h-3.41Z" fill="#4c4c4c"/><path d="M296.3,77.35h1.2v1.4h-1.2Zm0,3.2h1.2v8h-1.2Z" fill="#4c4c4c"/><path d="M299.8,88.56v-8H301v.56a5.36,5.36,0,0,1,2.33-.72,2.23,2.23,0,0,1,2.08.82,6.67,6.67,0,0,1,2.85-.82c2.18,0,2.71,1,2.71,3.94v4.23h-1.2v-4.2c0-2.11-.24-2.89-1.68-2.89a5.3,5.3,0,0,0-2.26.59A9.29,9.29,0,0,1,306,84.4v4.16h-1.2V84.43c0-2.21-.23-3-1.68-3a4.82,4.82,0,0,0-2.15.59v6.5Z" fill="#4c4c4c"/><path d="M319.08,87.52l0,.94a27.65,27.65,0,0,1-3.13.26c-2.38,0-3.16-1.39-3.16-4.12,0-3,1.31-4.21,3.34-4.21s3.22,1.13,3.22,3.75l-.07.91H314c0,1.72.53,2.61,2.1,2.61C317.34,87.66,319.08,87.52,319.08,87.52Zm-.89-3.43c0-2-.61-2.69-2-2.69s-2.13.76-2.14,2.69Z" fill="#4c4c4c"/><path d="M322.79,88.56h-1.2v-7h-1v-1h1v-.72c0-2.3.6-2.93,2.16-2.93.55,0,1.62.12,1.62.12v1s-.9,0-1.38,0c-.9,0-1.19.38-1.19,1.87v.7h2.32v1h-2.32Z" fill="#4c4c4c"/><path d="M326.55,80.55h1.19v1.09a9,9,0,0,1,2.93-1.26V81.6a11.6,11.6,0,0,0-2.92,1.08v5.88h-1.2Z" fill="#4c4c4c"/><path d="M337.74,87.07c0,.46.42.64.93.7l-.05,1a2.43,2.43,0,0,1-1.9-.64,8.27,8.27,0,0,1-2.89.64c-1.45,0-2.25-.83-2.25-2.45s.8-2.21,2.45-2.37l2.51-.24V83c0-1.12-.48-1.52-1.44-1.52-1.12,0-3,.21-3,.21l0-.91a19,19,0,0,1,3.13-.36c1.81,0,2.58.84,2.58,2.58Zm-3.57-2.27c-1,.09-1.36.56-1.36,1.44s.4,1.47,1.22,1.47a8.44,8.44,0,0,0,2.51-.5V84.57Z" fill="#4c4c4c"/><path d="M340.11,88.56v-8h1.18v.56a5.37,5.37,0,0,1,2.34-.72,2.26,2.26,0,0,1,2.08.82,6.61,6.61,0,0,1,2.85-.82c2.17,0,2.7,1,2.7,3.94v4.23h-1.2v-4.2c0-2.11-.24-2.89-1.68-2.89a5.35,5.35,0,0,0-2.26.59,8.84,8.84,0,0,1,.21,2.34v4.16h-1.2V84.43c0-2.21-.22-3-1.68-3a4.75,4.75,0,0,0-2.14.59v6.5Z" fill="#4c4c4c"/><path d="M359.39,87.52l0,.94a27.37,27.37,0,0,1-3.12.26c-2.39,0-3.17-1.39-3.17-4.12,0-3,1.31-4.21,3.34-4.21s3.22,1.13,3.22,3.75l-.06.91h-5.28c0,1.72.52,2.61,2.09,2.61C357.64,87.66,359.39,87.52,359.39,87.52Zm-.9-3.43c0-2-.61-2.69-2-2.69s-2.12.76-2.14,2.69Z" fill="#4c4c4c"/><path d="M261.8,98.27h2.45v15.84h-2.66V101.29l-3.73,2.4-1.22-2Z" fill="#4c4c4c"/><path d="M280.43,102.23c0,2-.56,2.69-2.12,3.67,1.47.94,2.36,1.8,2.36,3.91,0,3.41-2.72,4.56-6,4.56s-5.95-1-5.95-4.29a4.38,4.38,0,0,1,2.3-4.18,3.79,3.79,0,0,1-2-3.7c0-2.73,2.23-4.2,5.69-4.2S280.43,99.44,280.43,102.23Zm-2.62,7.22c0-1.25-.79-1.89-2-2.28h-2.3a2.35,2.35,0,0,0-1.95,2.33c0,1.78,1.2,2.47,3.1,2.47S277.81,111.28,277.81,109.45Zm-6-6.84a2.43,2.43,0,0,0,1.68,2.28h2.3c1.13-.53,1.78-1.2,1.78-2.28,0-1.49-1.06-2.21-2.91-2.21S271.81,101.1,271.81,102.61Z" fill="#4c4c4c"/><path d="M282.87,103.38h2.81v3.46h-2.81Zm0,7.27h2.81v3.46h-2.81Z" fill="#4c4c4c"/><path d="M295.23,111.28H288.1v-2l4.18-11h3L290.82,109h4.41v-4.66h2.69V109h1.73v2.33h-1.73v2.83h-2.69Z" fill="#4c4c4c"/><path d="M312.2,98.27v2.35h-7.34l-.41,4.18a8.93,8.93,0,0,1,3.21-.75c3.17,0,5.09,1.37,5.09,4.75,0,3.6-2,5.57-5.37,5.57a25.12,25.12,0,0,1-5.45-.81l.29-2a36,36,0,0,0,4.84.48,2.67,2.67,0,0,0,2.93-3c0-2-1-2.67-2.69-2.67a9.38,9.38,0,0,0-3.33.65l-1.68-.36.43-8.42Z" fill="#4c4c4c"/><path d="M320.77,106.45h7.17v2.38h-7.17Z" fill="#4c4c4c"/><path d="M342,98.27h2.45v15.84h-2.67V101.29l-3.72,2.4-1.22-2Z" fill="#4c4c4c"/><path d="M349.73,111.71a36.57,36.57,0,0,0,4.35.33c2.47,0,3.67-1.6,3.69-4.6a14,14,0,0,1-3.5.81c-3.39,0-5.33-1.58-5.33-5S351.12,98,354.61,98c4.1,0,5.92,3.12,5.92,8.16,0,6.22-2.47,8.21-6.45,8.21a25.68,25.68,0,0,1-4.59-.57Zm8.07-6.51c0-2.76-.84-4.87-3.19-4.87a2.7,2.7,0,0,0-2.91,3c0,1.8,1,2.62,2.78,2.62A11.44,11.44,0,0,0,357.8,105.2Z" fill="#4c4c4c"/><path d="M363,103.38h2.81v3.46H363Zm0,7.27h2.81v3.46H363Z" fill="#4c4c4c"/><path d="M375.39,111.28h-7.13v-2l4.18-11h2.95L371,109h4.42v-4.66h2.69V109h1.73v2.33h-1.73v2.83h-2.69Z" fill="#4c4c4c"/><path d="M392.36,98.27v2.35H385l-.41,4.18a9,9,0,0,1,3.22-.75c3.17,0,5.09,1.37,5.09,4.75,0,3.6-2,5.57-5.38,5.57a25.12,25.12,0,0,1-5.45-.81l.29-2a36,36,0,0,0,4.85.48,2.67,2.67,0,0,0,2.93-3c0-2-1-2.67-2.69-2.67a9.47,9.47,0,0,0-3.34.65l-1.68-.36.44-8.42Z" fill="#4c4c4c"/><line x1="65" y1="206.32" x2="65" y2="292.02" fill="none" stroke="#adadad" stroke-miterlimit="10"/><line x1="519.8" y1="291.62" x2="65" y2="291.62" fill="none" stroke="#adadad" stroke-miterlimit="10"/><path d="M70.5,307.72H67V307l2.1-5.2H70l-2.1,5.1h2.6v-2.3h.8v2.3h.9v.7h-.9V309h-.8Z" fill="#4c4c4c"/><path d="M153.5,303.62a1.71,1.71,0,0,1-1.2,1.7c.8.4,1.3.8,1.3,1.8,0,1.6-1.2,2.1-2.7,2.1s-2.7-.5-2.7-2a1.87,1.87,0,0,1,1.3-1.9,1.63,1.63,0,0,1-1.1-1.7c0-1.3,1-1.9,2.6-1.9C152.4,301.72,153.5,302.32,153.5,303.62Zm-.8,3.4c0-.8-.6-1.1-1.3-1.3h-1.2a1.32,1.32,0,0,0-1.2,1.4c0,1,.8,1.3,1.8,1.3S152.7,308.12,152.7,307Zm-3.5-3.3c0,.7.4,1,1.1,1.3h1.2c.7-.2,1.2-.6,1.2-1.3,0-.9-.6-1.2-1.7-1.2S149.2,302.82,149.2,303.72Z" fill="#4c4c4c"/><path d="M232.5,301.82h.8v7.3h-.8v-6.3l-1.9,1.2-.4-.6Z" fill="#4c4c4c"/><path d="M235.9,309.12v-.7l2.1-2.2c.9-.9,1.5-1.5,1.5-2.4s-.5-1.3-1.6-1.3a13.13,13.13,0,0,0-1.9.2l-.1-.7a8.25,8.25,0,0,1,2.1-.3c1.5,0,2.3.6,2.3,1.9,0,1.1-.5,1.7-1.5,2.7l-1.9,2h3.6v.7h-4.6Z" fill="#4c4c4c"/><path d="M319.9,301.82h.8v7.3h-.8v-6.3L318,304l-.4-.6Z" fill="#4c4c4c"/><path d="M327.8,302.62s-1-.1-1.9-.1c-1.3,0-2,.9-2,2.5a5.91,5.91,0,0,1,1.8-.4c1.6,0,2.4.7,2.4,2.3a2.24,2.24,0,0,1-2.5,2.4c-1.8,0-2.6-1.4-2.6-3.8,0-2.6,1.1-3.7,2.8-3.7a13.38,13.38,0,0,1,2,.2Zm-3.8,3.1c0,1.6.5,2.7,1.7,2.7a1.5,1.5,0,0,0,1.7-1.6,1.4,1.4,0,0,0-1.6-1.5A5.11,5.11,0,0,0,324,305.72Z" fill="#4c4c4c"/><path d="M404.5,309.12v-.7l2.1-2.2c.9-.9,1.5-1.5,1.5-2.4s-.5-1.3-1.6-1.3a13.13,13.13,0,0,0-1.9.2l-.1-.7a8.25,8.25,0,0,1,2.1-.3c1.5,0,2.3.6,2.3,1.9,0,1.1-.5,1.7-1.5,2.7l-1.9,2h3.6v.7h-4.6Z" fill="#4c4c4c"/><path d="M415.6,305.62c0,2.8-1,3.6-2.6,3.6s-2.7-.8-2.7-3.6c0-3,1-3.9,2.6-3.9C414.7,301.72,415.6,302.62,415.6,305.62Zm-4.4,0c0,2.3.6,2.9,1.8,2.9s1.8-.6,1.8-2.9-.6-3.1-1.8-3.1S411.2,303.12,411.2,305.62Z" fill="#4c4c4c"/><path d="M491.9,309.12v-.7l2.1-2.2c.9-.9,1.5-1.5,1.5-2.4s-.5-1.3-1.6-1.3a13.13,13.13,0,0,0-1.9.2l-.1-.7a8.25,8.25,0,0,1,2.1-.3c1.5,0,2.3.6,2.3,1.9,0,1.1-.5,1.7-1.5,2.7l-1.9,2h3.6v.7h-4.6Z" fill="#4c4c4c"/><path d="M501.3,307.72h-3.5V307l2.1-5.2h.9l-2.1,5.1h2.6v-2.3h.8v2.3h.9v.7h-.9V309h-.8Z" fill="#4c4c4c"/><path d="M56.4,284.62c0,2.8-1,3.6-2.6,3.6s-2.7-.8-2.7-3.6c0-3,1-3.9,2.6-3.9C55.5,280.82,56.4,281.62,56.4,284.62Zm-4.4,0c0,2.3.6,2.9,1.8,2.9s1.8-.6,1.8-2.9-.6-3.1-1.8-3.1S52,282.12,52,284.62Z" fill="#4c4c4c"/><path d="M49,257.72v.8H45.5l-.2,2.4a3.63,3.63,0,0,1,1.7-.5c1.4,0,2.3.6,2.3,2.1a2.19,2.19,0,0,1-2.4,2.5,12.69,12.69,0,0,1-2.4-.3l.1-.7a18.13,18.13,0,0,0,2.2.2,1.5,1.5,0,0,0,1.6-1.7,1.32,1.32,0,0,0-1.5-1.5,4.29,4.29,0,0,0-1.7.4l-.6-.1.2-3.8H49Z" fill="#4c4c4c"/><path d="M55.6,261.42c0,2.8-1,3.6-2.6,3.6s-2.7-.8-2.7-3.6c0-3,1-3.9,2.6-3.9C54.7,257.62,55.6,258.42,55.6,261.42Zm-4.4,0c0,2.3.6,2.9,1.8,2.9s1.8-.6,1.8-2.9-.6-3.1-1.8-3.1S51.2,258.92,51.2,261.42Z" fill="#4c4c4c"/><path d="M44.2,233.62H45v7.3h-.8v-6.3l-1.9,1.2-.4-.6Z" fill="#4c4c4c"/><path d="M52.6,237.42c0,2.8-1,3.6-2.6,3.6s-2.7-.8-2.7-3.6c0-3,1-3.9,2.6-3.9C51.7,233.52,52.6,234.42,52.6,237.42Zm-4.4,0c0,2.3.6,2.9,1.8,2.9s1.8-.6,1.8-2.9-.6-3.1-1.8-3.1S48.2,234.92,48.2,237.42Z" fill="#4c4c4c"/><path d="M58.7,237.42c0,2.8-1,3.6-2.6,3.6s-2.7-.8-2.7-3.6c0-3,1-3.9,2.6-3.9C57.8,233.52,58.7,234.42,58.7,237.42Zm-4.4,0c0,2.3.6,2.9,1.8,2.9s1.8-.6,1.8-2.9-.6-3.1-1.8-3.1S54.3,234.92,54.3,237.42Z" fill="#4c4c4c"/><path d="M44.2,209.62H45v7.3h-.8v-6.3l-1.9,1.2-.4-.6Z" fill="#4c4c4c"/><path d="M52.1,209.62v.8H48.6l-.2,2.4a3.63,3.63,0,0,1,1.7-.5c1.4,0,2.3.6,2.3,2.1a2.19,2.19,0,0,1-2.4,2.5,12.69,12.69,0,0,1-2.4-.3l.1-.7a18.13,18.13,0,0,0,2.2.2,1.5,1.5,0,0,0,1.6-1.7,1.32,1.32,0,0,0-1.5-1.5,4.29,4.29,0,0,0-1.7.4l-.6-.1.2-3.8h4.2Z" fill="#4c4c4c"/><path d="M58.7,213.42c0,2.8-1,3.6-2.6,3.6s-2.7-.8-2.7-3.6c0-3,1-3.9,2.6-3.9C57.8,209.52,58.7,210.42,58.7,213.42Zm-4.4,0c0,2.3.6,2.9,1.8,2.9s1.8-.6,1.8-2.9-.6-3.1-1.8-3.1S54.3,210.92,54.3,213.42Z" fill="#4c4c4c"/><polyline points="66.6 287.02 82.5 287.02 103.1 284.02 116.8 278.02 126.7 278.12 139.2 280.12 158.7 275.12 176.9 274.12 204 281.32 224.6 277.32 257.2 241.42 286.5 251.42 296.9 265.12 324.3 272.12 358.5 269.12 386 265.12 413.4 244.12 431.6 246.12 449.9 260.12 465.9 260.12 478.5 274.12 499 282.12" fill="none" stroke="#2277d6" stroke-width="2"/><path d="M91.07,144.52V141l4.23-4.29c2.58-2.64,4-4.17,4-6.09S98.39,128,96.08,128a33.82,33.82,0,0,0-4.68.45l-.21-3.21a23.21,23.21,0,0,1,5.94-.9c4.53,0,6.45,2,6.45,5.67,0,3.06-1.17,4.8-4.44,7.77l-3.45,3.12h8.22v3.6Z" fill="#3a3d3f"/><path d="M122,134.74c0,7.5-2.76,10.14-7.68,10.14s-7.68-2.64-7.68-10.14,2.76-10.38,7.68-10.38S122,127.24,122,134.74Zm-11.1,0c0,4.86,1,6.54,3.45,6.54s3.39-1.68,3.39-6.54c0-5.16-1-6.78-3.39-6.78S110.9,129.58,110.9,134.74Z" fill="#3a3d3f"/><path d="M124.4,130.87h4.32v5H124.4Zm0,8.67h4.32v5H124.4Z" fill="#3a3d3f"/><path d="M132.26,125.44a17.9,17.9,0,0,1,5.76-1.08c5.22,0,6.93,1.77,6.93,5.46a4.89,4.89,0,0,1-2.31,4.44c1.65.9,2.67,1.62,2.67,4.29,0,4.17-1.92,6.33-6.75,6.33a27.62,27.62,0,0,1-6.45-1l.21-3.15a42.57,42.57,0,0,0,5.64.57c2,0,3.09-.81,3.09-2.64,0-1.47-1.17-2.43-2.88-2.43h-4v-3.42h4a2.74,2.74,0,0,0,2.52-2.7c0-1.41-.93-2.13-3-2.13a33.34,33.34,0,0,0-5.19.54Z" fill="#3a3d3f"/><path d="M163.28,134.74c0,7.5-2.76,10.14-7.68,10.14s-7.68-2.64-7.68-10.14,2.76-10.38,7.68-10.38S163.28,127.24,163.28,134.74Zm-11.1,0c0,4.86,1,6.54,3.45,6.54s3.39-1.68,3.39-6.54c0-5.16-1-6.78-3.39-6.78S152.18,129.58,152.18,134.74Z" fill="#3a3d3f"/><path d="M99.16,101s-2.5-.31-3.55-.31c-1.76,0-2.7.64-2.7,2,0,1.62.87,1.89,3,2.38,2.48.55,3.58,1.17,3.58,3.34,0,2.76-1.51,3.84-4,3.84a32.29,32.29,0,0,1-3.94-.4l.14-1.15s2.45.33,3.73.33c1.76,0,2.66-.78,2.66-2.51,0-1.4-.74-1.8-2.77-2.19-2.57-.56-3.87-1.17-3.87-3.55s1.58-3.35,4-3.35a31.12,31.12,0,0,1,3.77.36Z" fill="#3a3d3f"/><path d="M103.5,104.28v4.3c0,2,.12,2.52,1.29,2.52.51,0,1.61-.11,1.61-.11l.09,1.12a15.71,15.71,0,0,1-1.84.2c-1.85,0-2.48-.71-2.48-3.3v-4.73h-1.28V103.1h1.28v-2.75h1.33v2.75h2.86v1.18Z" fill="#3a3d3f"/><path d="M115.33,107.5c0,3.28-.81,4.79-3.86,4.79s-3.85-1.51-3.85-4.79c0-3.1,1-4.57,3.85-4.57S115.33,104.4,115.33,107.5Zm-1.39,0c0-2.5-.54-3.4-2.47-3.4s-2.46.9-2.46,3.4.34,3.62,2.46,3.62S113.94,110.06,113.94,107.5Z" fill="#3a3d3f"/><path d="M123.34,103.2l-.06,1.09s-1.44-.16-2.12-.16c-2.07,0-2.63.9-2.63,3.31,0,2.67.41,3.64,2.64,3.64.69,0,2.13-.16,2.13-.16l0,1.12a24,24,0,0,1-2.5.25c-2.86,0-3.71-1.32-3.71-4.85,0-3.25,1.06-4.51,3.75-4.51A21.18,21.18,0,0,1,123.34,103.2Z" fill="#3a3d3f"/><path d="M125.37,112.11V99.18h1.35v7.63l1.4-.07,2.58-3.64h1.53l-2.94,4.15,3.06,4.86h-1.53l-2.68-4.18-1.42,0v4.13Z" fill="#3a3d3f"/><path d="M134,112.11V99.18h1.35v4.43a7.64,7.64,0,0,1,2.77-.68c2.47,0,3,1.22,3,4.42v4.76h-1.35v-4.72c0-2.38-.28-3.26-1.93-3.26a7.41,7.41,0,0,0-2.54.54v7.44Z" fill="#3a3d3f"/><path d="M151,107.5c0,3.28-.82,4.79-3.86,4.79s-3.85-1.51-3.85-4.79c0-3.1,1-4.57,3.85-4.57S151,104.4,151,107.5Zm-1.39,0c0-2.5-.54-3.4-2.47-3.4s-2.46.9-2.46,3.4.34,3.62,2.46,3.62S149.58,110.06,149.58,107.5Z" fill="#3a3d3f"/><path d="M153.27,99.18h1.35v12.93h-1.35Z" fill="#3a3d3f"/><path d="M157.32,112.11v-9h1.33v.64a6,6,0,0,1,2.63-.81,2.56,2.56,0,0,1,2.34.91,7.52,7.52,0,0,1,3.2-.91c2.45,0,3.05,1.17,3.05,4.42v4.76h-1.35v-4.72c0-2.38-.27-3.26-1.89-3.26a5.89,5.89,0,0,0-2.54.67,10.34,10.34,0,0,1,.23,2.63v4.68H163v-4.65c0-2.48-.25-3.33-1.89-3.33a5.34,5.34,0,0,0-2.41.67v7.31Z" fill="#3a3d3f"/><path d="M172.29,106.53h5.46v1.26h-5.46Z" fill="#3a3d3f"/><path d="M180,105.93c0-4.1,1.06-6.46,4.91-6.46s4.94,2.32,4.94,6.46-1.06,6.36-4.94,6.36S180,110.11,180,105.93Zm8.41,0c0-3.37-.65-5.24-3.5-5.24s-3.49,1.86-3.49,5.24.61,5.13,3.49,5.13S188.39,109.44,188.39,105.93Z" fill="#3a3d3f"/><path d="M198.11,104.42a29.33,29.33,0,0,0-3.15-.29c-1.12,0-2,.31-2,1.37,0,.85.44,1.08,2.34,1.4,2.25.38,3.1.83,3.1,2.58,0,2.11-1.33,2.81-3.49,2.81a25.65,25.65,0,0,1-3.17-.34l.07-1.17s2,.3,3,.3c1.48,0,2.27-.32,2.27-1.55,0-.93-.47-1.17-2.43-1.47s-3-.71-3-2.51c0-2,1.61-2.62,3.24-2.62a23.19,23.19,0,0,1,3.26.34Z" fill="#3a3d3f"/><path d="M200.61,99.18H202v12.93h-1.35Z" fill="#3a3d3f"/><path d="M212,107.5c0,3.28-.81,4.79-3.86,4.79s-3.85-1.51-3.85-4.79c0-3.1,1-4.57,3.85-4.57S212,104.4,212,107.5Zm-1.39,0c0-2.5-.54-3.4-2.47-3.4s-2.46.9-2.46,3.4.34,3.62,2.46,3.62S210.58,110.06,210.58,107.5Z" fill="#3a3d3f"/><path d="M100.8,88.6a23.64,23.64,0,0,1-4.16.49c-4.41,0-5.46-2.4-5.46-7.39,0-5.42,1.22-7.39,5.46-7.39a20.34,20.34,0,0,1,4.18.56l-.09,2.31a30.45,30.45,0,0,0-3.67-.31c-2.2,0-2.9.77-2.9,4.83,0,3.84.51,4.82,3,4.82a30.7,30.7,0,0,0,3.59-.29Z"/><path d="M103.15,88.83V74.56H108c5,0,6.07,2.12,6.07,6.86s-1,7.41-6.07,7.41ZM108,77.08h-1.91v9.23H108c2.81,0,3.09-1.72,3.09-4.89S110.77,77.08,108,77.08Z"/><path d="M116.3,86.25a31.49,31.49,0,0,0,3.9.32c1.91,0,2.8-1.28,2.8-3.4a11.24,11.24,0,0,1-2.65.63c-3,0-4.77-1.43-4.77-4.43s2-4.65,5.08-4.65c3.66,0,5.32,2.71,5.32,7.1,0,5.5-2.23,7.27-5.78,7.27a20.75,20.75,0,0,1-4.15-.61ZM123,80.79c0-2-.59-3.55-2.36-3.55a1.92,1.92,0,0,0-2.1,2.13c0,1.28.76,1.91,2,1.91A8,8,0,0,0,123,80.79Z"/><path d="M138,82c0,5.25-1.93,7.1-5.38,7.1s-5.37-1.85-5.37-7.1,1.93-7.27,5.37-7.27S138,76.74,138,82Zm-7.77,0c0,3.4.74,4.58,2.42,4.58S135,85.39,135,82c0-3.61-.69-4.75-2.37-4.75S130.24,78.38,130.24,82Z"/><path d="M216.8,415.39a22.77,22.77,0,0,1-4.1.46c-4.39,0-5.39-2.5-5.39-7.41,0-5.19,1.09-7.44,5.39-7.44a20.13,20.13,0,0,1,4.12.53l-.09,1.89a26.09,26.09,0,0,0-3.71-.34c-2.65,0-3.3,1.28-3.3,5.36s.53,5.33,3.36,5.33a27.24,27.24,0,0,0,3.65-.32Z" fill="#4c4c4c"/><path d="M227.84,409.4h-6.21v6.22H219.3V401.23h2.33v6.13h6.21v-6.13h2.35v14.39h-2.35Z" fill="#4c4c4c"/><path d="M233.49,401.23h9.07v2h-6.74v4.07h5.49v2h-5.49v4.2h6.74v2.06h-9.07Z" fill="#4c4c4c"/><path d="M254,415.39a22.75,22.75,0,0,1-4.09.46c-4.39,0-5.4-2.5-5.4-7.41,0-5.19,1.09-7.44,5.4-7.44a20,20,0,0,1,4.11.53l-.08,1.89a26.37,26.37,0,0,0-3.72-.34c-2.64,0-3.29,1.28-3.29,5.36s.52,5.33,3.35,5.33a27.4,27.4,0,0,0,3.66-.32Z" fill="#4c4c4c"/><path d="M261,409.61l-2.14.15v5.86h-2.33V401.23h2.33v6.49l2.14-.17,2.94-6.32h2.67l-3.55,7.23,3.7,7.16h-2.71Z" fill="#4c4c4c"/><path d="M268.4,408.92h6.27V411H268.4Z" fill="#4c4c4c"/><path d="M277.62,401.23H280v14.39h-2.33Z" fill="#4c4c4c"/><path d="M283.26,401.23h4.08l4.37,12.33H292V401.23h2.33v14.39h-4l-4.47-12.35h-.29v12.35h-2.34Z" fill="#4c4c4c"/><path d="M302.29,415.62V401.23h5c4.64,0,5.75,2.48,5.75,6.95s-1,7.44-5.75,7.44Zm5-12.35h-2.65v10.29h2.65c2.89,0,3.34-2.23,3.34-5.38S310.16,403.27,307.27,403.27Z" fill="#4c4c4c"/><path d="M315.75,401.23h9.07v2h-6.74v4.07h5.48v2h-5.48v4.2h6.74v2.06h-9.07Z" fill="#4c4c4c"/><path d="M335.74,403.38s-2.94-.34-4.15-.34c-1.77,0-2.67.63-2.67,1.87s.75,1.66,3.21,2.33c3,.84,4.12,1.64,4.12,4.09,0,3.15-2,4.52-4.81,4.52a30.57,30.57,0,0,1-4.71-.57l.24-1.87s2.83.38,4.32.38c1.79,0,2.61-.8,2.61-2.31,0-1.22-.66-1.64-2.86-2.16-3.11-.8-4.45-1.75-4.45-4.24,0-2.9,1.91-4.1,4.79-4.1a31.49,31.49,0,0,1,4.55.51Z" fill="#4c4c4c"/><path d="M343.24,409.61l-2.14.15v5.86h-2.33V401.23h2.33v6.49l2.14-.17,2.94-6.32h2.67l-3.55,7.23,3.69,7.16h-2.7Z" fill="#4c4c4c"/><path d="M359.39,403.38s-2.94-.34-4.16-.34c-1.76,0-2.67.63-2.67,1.87s.76,1.66,3.22,2.33c3,.84,4.11,1.64,4.11,4.09,0,3.15-2,4.52-4.81,4.52a30.56,30.56,0,0,1-4.7-.57l.23-1.87s2.84.38,4.33.38c1.78,0,2.6-.8,2.6-2.31,0-1.22-.65-1.64-2.85-2.16-3.11-.8-4.46-1.75-4.46-4.24,0-2.9,1.92-4.1,4.79-4.1a31.5,31.5,0,0,1,4.56.51Z" fill="#4c4c4c"/><rect x="172.45" y="337.75" width="41.81" height="41.81" fill="#bddff4" stroke="#2277d6" stroke-miterlimit="10" stroke-width="3"/><rect x="235.09" y="337.75" width="41.81" height="41.81" fill="#48b1ff"/><rect x="296.74" y="337.75" width="41.81" height="41.81" fill="#48b1ff"/><rect x="357.08" y="337.75" width="41.81" height="41.81" fill="#bddff4"/><path d="M308.11,353.37h8.21v2l-5.08,11.38-1.46-.46,5-11v-.52h-6.65Z"/><path d="M328.18,360.17c0,5.06-1.78,6.6-4.8,6.6s-4.82-1.5-4.82-6.58c0-5.44,1.76-7,4.8-7S328.18,354.73,328.18,360.17Zm-8,0c0,4.14,1.14,5.22,3.22,5.22s3.22-1.1,3.22-5.24c0-4.44-1-5.64-3.22-5.64S320.16,355.69,320.16,360.19Z"/><path d="M245.85,365.57v-1.3l3.86-4.06c1.64-1.7,2.66-2.78,2.66-4.34,0-1.76-1-2.32-2.88-2.32a19.21,19.21,0,0,0-3.42.44l-.12-1.28a16,16,0,0,1,3.82-.54c2.78,0,4.18,1.06,4.18,3.54,0,2-.9,3.14-2.76,4.94l-3.52,3.58h6.62v1.34Z"/><path d="M265.21,352.37v1.4h-6.42l-.36,4.3a7.62,7.62,0,0,1,3.1-.82c2.58,0,4.2,1.08,4.2,3.9,0,3-1.66,4.6-4.42,4.6a21.77,21.77,0,0,1-4.38-.58l.18-1.22a26.33,26.33,0,0,0,4.06.44,2.79,2.79,0,0,0,3-3.12c0-2-1.12-2.64-2.8-2.64a7.57,7.57,0,0,0-3.14.8l-1.06-.2.36-6.86Z"/><path d="M192.59,359.17c0,5.06-1.78,6.6-4.81,6.6s-4.82-1.5-4.82-6.58c0-5.44,1.76-7,4.8-7S192.59,353.73,192.59,359.17Zm-8,0c0,4.14,1.14,5.22,3.22,5.22s3.23-1.1,3.23-5.24c0-4.44-1-5.64-3.23-5.64S184.56,354.69,184.56,359.19Z"/><path d="M203.73,355.59c0,1.7-.67,2.4-2.21,3.08,1.43.64,2.41,1.42,2.41,3.32,0,2.9-2.24,3.78-5,3.78S194,365,194,362.21a3.52,3.52,0,0,1,2.28-3.54,3.06,3.06,0,0,1-2.06-3.1c0-2.28,1.82-3.42,4.7-3.42S203.73,353.27,203.73,355.59Zm-1.44,6.24c0-1.54-1-2-2.35-2.42h-2.1c-1.38.38-2.18,1.06-2.18,2.54,0,1.82,1.4,2.42,3.28,2.42S202.29,363.77,202.29,361.83Zm-6.41-6.08c0,1.22.66,1.86,2,2.32h2.1c1.37-.44,2.15-1.08,2.15-2.3,0-1.58-1.19-2.22-3.13-2.22S195.88,354.17,195.88,355.75Z"/><path d="M377.51,356.59c0,1.7-.66,2.4-2.2,3.08,1.42.64,2.4,1.42,2.4,3.32,0,2.9-2.24,3.78-5,3.78s-4.92-.82-4.92-3.56a3.52,3.52,0,0,1,2.28-3.54,3.06,3.06,0,0,1-2.06-3.1c0-2.28,1.82-3.42,4.7-3.42S377.51,354.27,377.51,356.59Zm-1.44,6.24c0-1.54-1-2-2.34-2.42h-2.1c-1.38.38-2.18,1.06-2.18,2.54,0,1.82,1.4,2.42,3.28,2.42S376.07,364.77,376.07,362.83Zm-6.4-6.08c0,1.22.66,1.86,2,2.32h2.1c1.36-.44,2.14-1.08,2.14-2.3,0-1.58-1.18-2.22-3.12-2.22S369.67,355.17,369.67,356.75Z"/><path d="M379.75,366.57v-1.3l3.86-4.06c1.64-1.7,2.66-2.78,2.66-4.34,0-1.76-1-2.32-2.88-2.32A19.21,19.21,0,0,0,380,355l-.12-1.28a16,16,0,0,1,3.82-.54c2.78,0,4.18,1.06,4.18,3.54,0,2-.9,3.14-2.76,4.94l-3.52,3.58h6.62v1.34Z"/><path d="M459.85,84.8v3.73h-1.23V77.45h4.05c2.42,0,3.54,1.17,3.54,3.57s-1.12,3.78-3.54,3.78Zm2.8-1.09c1.62,0,2.29-1,2.29-2.69s-.67-2.48-2.29-2.48h-2.8v5.17Z" fill="#3a3d3f"/><path d="M467.68,80.53h1.18v1.09a9.09,9.09,0,0,1,2.93-1.27v1.22a11.44,11.44,0,0,0-2.91,1.09v5.87h-1.2Z" fill="#3a3d3f"/><path d="M473,77.33h1.2v1.39H473Zm0,3.2h1.2v8H473Z" fill="#3a3d3f"/><path d="M482.77,84.43c0,2.92-.72,4.26-3.43,4.26s-3.42-1.34-3.42-4.26c0-2.75.89-4.06,3.42-4.06S482.77,81.68,482.77,84.43Zm-1.24,0c0-2.22-.48-3-2.19-3s-2.19.8-2.19,3,.3,3.22,2.19,3.22S481.53,86.71,481.53,84.43Z" fill="#3a3d3f"/><path d="M484.49,80.53h1.19v1.09a9.09,9.09,0,0,1,2.93-1.27v1.22a11.42,11.42,0,0,0-2.92,1.09v5.87h-1.2Z" fill="#3a3d3f"/><path d="M489.8,77.33H491v1.39h-1.2Zm0,3.2H491v8h-1.2Z" fill="#3a3d3f"/><path d="M494.69,81.57v3.82c0,1.75.11,2.24,1.15,2.24.45,0,1.42-.09,1.42-.09l.08,1a13.65,13.65,0,0,1-1.63.18c-1.65,0-2.21-.63-2.21-2.93V81.57h-1.14v-1h1.14V78.08h1.19v2.45h2.54v1Z" fill="#3a3d3f"/><path d="M498.48,77.33h1.2v1.39h-1.2Zm0,3.2h1.2v8h-1.2Z" fill="#3a3d3f"/><path d="M501.28,80.53h5.93V81.6l-4.48,5.86h4.48v1.07h-5.93V87.46l4.48-5.86h-4.48Z" fill="#3a3d3f"/><path d="M514.72,87.49l0,.94a27.37,27.37,0,0,1-3.12.26c-2.39,0-3.17-1.39-3.17-4.11,0-3,1.31-4.21,3.35-4.21S515,81.49,515,84.11L515,85h-5.28c0,1.72.52,2.61,2.09,2.61C513,87.63,514.72,87.49,514.72,87.49Zm-.9-3.43c0-2-.61-2.68-2-2.68s-2.13.75-2.15,2.68Z" fill="#3a3d3f"/><path d="M504.78,129.48H475.26a12,12,0,0,1,0-24h29.52a12,12,0,1,1,0,24" fill="#ddd"/><path d="M485.92,117a15,15,0,1,1-15-15,15,15,0,0,1,15,15" fill="#b3b3b3"/></g></g></svg>