<svg xmlns="http://www.w3.org/2000/svg" xmlns:xlink="http://www.w3.org/1999/xlink" viewBox="0 0 639 207">
    <title>Asset 2</title>
    <g style="isolation:isolate">
        <g id="Layer_2" data-name="Layer 2">
            <g id="Layer_5" data-name="Layer 5">
                <rect x="3.75" y="1.09" width="631.5" height="200.13" fill="#fff"/>
            </g>
            <g id="Layer_1-2" data-name="Layer 1">
                <polyline class="arrow" points="298.58 169.09 318.36 184.07 338.14 169.09" fill="none" stroke="#5b5b5b" stroke-linecap="round" stroke-linejoin="round" stroke-width="2"/>
                <text transform="translate(120.12 43.74)" font-size="21" font-family="Titillium-Regular, Titillium">WEAR AND TEAR MODE</text>
                <text transform="translate(518.21 140.68)" font-size="15.34" font-family="Titillium-Semibold, Titillium" font-weight="600">17:00 - 20:00</text>
                <text transform="translate(547.35 121.84)" font-size="12.39" fill="#3a3d3f" font-family="Titillium-Regular, Titillium">
                <tspan letter-spacing="-0.05em">T</tspan>
                <tspan x="5.86" y="0" letter-spacing="0em">od</tspan>
                <tspan x="18.96" y="0" letter-spacing="-0.01em">a</tspan><tspan x="24.99" y="0">y</tspan>
                </text>
                <text transform="translate(32.41 146.72)" font-size="12.39" fill="#3a3d3f" font-family="Titillium-Regular, Titillium" letter-spacing="-0.01em">
                Preview
                </text>
                <path d="M71.27,180.68H41.75a12,12,0,0,1,0-24H71.27a12,12,0,0,1,0,24" fill="#f2f2f2"/>
                <path id="switch" d="M55.94,168.18a15,15,0,1,1-15-15,15,15,0,0,1,15,15" fill="#b3b3b3"/>
                <path d="M89,58.82a33.5,33.5,0,1,1-33.5-33.5A33.5,33.5,0,0,1,89,58.82" fill="#e3f0fc"/>
                <polygon points="56.36 39.04 37.72 71.32 75 71.32 56.36 39.04" fill="#2277d6"/>
                <text transform="translate(120.12 74.33)" font-size="16" fill="#3a3d3f" font-family="Titillium-Regular, Titillium">
                This would provide an increase in the system 
                <tspan x="0" y="25">
                productivity. Although it may solve the issue, it highly 
                </tspan>
                <tspan x="0" y="50">
                increases the battery consumption.
                </tspan></text><text transform="translate(582.43 45.9) scale(1.07 1)" font-size="27.2" fill="#2277d6" font-family="Titillium-Semibold, Titillium" font-weight="600">3h</text>
                <circle cx="562.84" cy="72.98" r="23.9" fill="none" stroke="#3899e8" stroke-miterlimit="10" stroke-width="4"/>
                <path d="M562.84,56A18.16,18.16,0,0,1,581,74.21H562.84Z" fill="#8dc5f2"/>
            </g>
        </g>
    </g>
</svg>