<svg xmlns="http://www.w3.org/2000/svg" xmlns:xlink="http://www.w3.org/1999/xlink" viewBox="0 0 639 368"><title>Asset 8</title><g style="isolation:isolate"><g id="Layer_2" data-name="Layer 2"><g id="Layer_5" data-name="Layer 5"><rect x="3.61" y="1.05" width="631.5" height="361.44" fill="#fff"/></g><g id="Layer_1-2" data-name="Layer 1"><path d="M145.32,86.34h9.07v2h-6.73v4.07h5.47v2h-5.47v4.2h6.73v2.06h-9.07Z"/><path d="M162.23,100.73h-2.35V94.8l-4.52-8.46H158l3,6.18,3.07-6.18h2.6l-4.47,8.46Z"/><path d="M173.88,98.25h-6.23V96.46l3.65-9.59h2.58L170,96.21h3.86V92.14h2.36v4.07h1.51v2h-1.51v2.48h-2.36Z"/><path d="M185.64,98.25h-6.23V96.46l3.65-9.59h2.58l-3.86,9.34h3.86V92.14H188v4.07h1.51v2H188v2.48h-2.36Z"/><path d="M220.67,37h8.69v1.43h-7.07v5.67h6v1.42h-6v6h-1.62Z"/><path d="M231.72,51.57V37h1.61V50.12h6.38v1.45Z"/><path d="M241.77,37h1.62V51.57h-1.62Z"/><path d="M252.69,44.14h4v7.14a36.25,36.25,0,0,1-4.72.5c-4.45,0-5.63-2.73-5.63-7.43s1.22-7.52,5.59-7.52a26.82,26.82,0,0,1,4.76.55l-.06,1.34a33.29,33.29,0,0,0-4.51-.44c-3.36,0-4.1,1.95-4.1,6.07s.72,6,4.07,6a20.39,20.39,0,0,0,3-.29V45.58h-2.42Z"/><path d="M268.88,45h-7.39v6.57h-1.61V37h1.61v6.51h7.39V37h1.6V51.57h-1.6Z"/><path d="M272.54,37H283v1.45h-4.43V51.57H277V38.49h-4.47Z"/><path d="M289.72,37h1.61V51.57h-1.61Z"/><path d="M294.88,37h3l5.57,13.1h.44V37h1.6V51.57h-3l-5.64-13.1h-.4v13.1h-1.62Z"/><path d="M309.08,37h8.69v1.43h-7.08v5.67h6v1.42h-6v6h-1.61Z"/><path d="M319.54,44.37c0-4.79,1.23-7.54,5.73-7.54S331,39.54,331,44.37c0,5-1.24,7.41-5.75,7.41S319.54,49.24,319.54,44.37Zm9.8,0c0-3.93-.76-6.11-4.07-6.11s-4.08,2.16-4.08,6.11.72,6,4.08,6S329.34,48.46,329.34,44.37Z"/><path d="M335.6,46v5.57H334V37h5.38c3,0,4.64,1.34,4.64,4.41,0,2.14-.84,3.63-2.67,4.22l2.79,5.9h-1.78L339.71,46Zm3.76-7.53H335.6v6.11h3.78c2.18,0,3-1.3,3-3.13C342.34,39.45,341.39,38.47,339.36,38.47Z"/><path d="M346.92,37h2.92L354,49.32,358.07,37H361V51.57h-1.61V38.76h-.3L354.85,51h-1.8l-4.22-12.28h-.3V51.57h-1.61Z"/><path d="M367.27,37h3.52l4,14.53h-1.59l-1.05-3.74h-6.22l-1.05,3.74h-1.59Zm-1,9.34h5.5l-2.2-8h-1.1Z"/><path d="M375.56,37h10.5v1.45h-4.43V51.57H380V38.49h-4.47Z"/><path d="M388.12,37h1.62V51.57h-1.62Z"/><path d="M392.7,44.37c0-4.79,1.24-7.54,5.73-7.54s5.75,2.71,5.75,7.54c0,5-1.24,7.41-5.75,7.41S392.7,49.24,392.7,44.37Zm9.8,0c0-3.93-.75-6.11-4.07-6.11s-4.07,2.16-4.07,6.11.71,6,4.07,6S402.5,48.46,402.5,44.37Z"/><path d="M407.15,37h3l5.56,13.1h.44V37h1.6V51.57h-3l-5.65-13.1h-.4v13.1h-1.61Z"/>
<path d="M120.24,119.86A34.75,34.75,0,1,1,85.49,85.11a34.75,34.75,0,0,1,34.75,34.75" fill="#ffdede"/><path d="M152.18,114.74s-2.5-.3-3.54-.3c-1.77,0-2.7.63-2.7,2,0,1.62.86,1.89,3,2.38,2.48.56,3.58,1.17,3.58,3.35,0,2.75-1.51,3.83-4,3.83a33.35,33.35,0,0,1-3.94-.39l.14-1.16s2.45.33,3.73.33c1.76,0,2.66-.78,2.66-2.51,0-1.4-.73-1.8-2.77-2.19-2.57-.56-3.87-1.17-3.87-3.55s1.59-3.35,4-3.35a31.11,31.11,0,0,1,3.76.36Z" fill="#3a3d3f"/><path d="M156.52,118v4.3c0,2,.13,2.52,1.3,2.52.5,0,1.6-.11,1.6-.11l.09,1.12a15.71,15.71,0,0,1-1.84.2c-1.85,0-2.48-.7-2.48-3.3V118h-1.28v-1.17h1.28v-2.76h1.33v2.76h2.86V118Z" fill="#3a3d3f"/><path d="M168.35,121.26c0,3.28-.81,4.79-3.86,4.79s-3.85-1.51-3.85-4.79c0-3.1,1-4.57,3.85-4.57S168.35,118.16,168.35,121.26Zm-1.39,0c0-2.5-.54-3.4-2.47-3.4s-2.46.9-2.46,3.4.34,3.62,2.46,3.62S167,123.82,167,121.26Z" fill="#3a3d3f"/><path d="M176.36,117l-.06,1.1s-1.44-.17-2.12-.17c-2.07,0-2.63.9-2.63,3.32,0,2.66.41,3.63,2.65,3.63.68,0,2.12-.16,2.12-.16l.05,1.12a24,24,0,0,1-2.5.25c-2.86,0-3.71-1.31-3.71-4.84,0-3.26,1.07-4.52,3.75-4.52A20.89,20.89,0,0,1,176.36,117Z" fill="#3a3d3f"/><path d="M178.39,125.87V112.94h1.35v7.64l1.4-.08,2.58-3.63h1.53L182.31,121l3.06,4.86h-1.53l-2.68-4.18-1.42.06v4.12Z" fill="#3a3d3f"/><path d="M187,125.87V112.94h1.35v4.43a7.64,7.64,0,0,1,2.77-.68c2.47,0,3.05,1.22,3.05,4.43v4.75h-1.35v-4.72c0-2.37-.27-3.26-1.93-3.26a7.41,7.41,0,0,0-2.54.54v7.44Z" fill="#3a3d3f"/><path d="M204,121.26c0,3.28-.81,4.79-3.86,4.79s-3.85-1.51-3.85-4.79c0-3.1,1-4.57,3.85-4.57S204,118.16,204,121.26Zm-1.39,0c0-2.5-.54-3.4-2.47-3.4s-2.46.9-2.46,3.4.34,3.62,2.46,3.62S202.6,123.82,202.6,121.26Z" fill="#3a3d3f"/><path d="M206.29,112.94h1.35v12.93h-1.35Z" fill="#3a3d3f"/><path d="M210.34,125.87v-9h1.33v.63a6,6,0,0,1,2.63-.81,2.55,2.55,0,0,1,2.34.91,7.53,7.53,0,0,1,3.21-.91c2.44,0,3,1.17,3,4.43v4.75h-1.35v-4.72c0-2.37-.27-3.26-1.89-3.26a5.89,5.89,0,0,0-2.54.67,10.34,10.34,0,0,1,.23,2.63v4.68H216v-4.65c0-2.48-.25-3.33-1.89-3.33a5.34,5.34,0,0,0-2.41.67v7.31Z" fill="#3a3d3f"/><path d="M229.27,120.29h5.46v1.26h-5.46Z" fill="#3a3d3f"/><path d="M241.42,113.41h1.39v12.46h-1.39Z" fill="#3a3d3f"/><path d="M251.6,118.18a29.33,29.33,0,0,0-3.16-.29c-1.11,0-2,.31-2,1.37,0,.85.43,1.08,2.34,1.41,2.25.37,3.1.82,3.1,2.57,0,2.11-1.33,2.81-3.49,2.81a25.4,25.4,0,0,1-3.17-.34l.07-1.17s2,.3,3,.3c1.48,0,2.27-.32,2.27-1.55,0-.93-.47-1.17-2.43-1.47s-3-.7-3-2.5c0-2,1.6-2.63,3.24-2.63a23.19,23.19,0,0,1,3.26.34Z" fill="#3a3d3f"/><path d="M255.79,118v4.3c0,2,.12,2.52,1.3,2.52.5,0,1.6-.11,1.6-.11l.09,1.12a15.71,15.71,0,0,1-1.84.2c-1.85,0-2.48-.7-2.48-3.3V118h-1.28v-1.17h1.28v-2.76h1.33v2.76h2.86V118Z" fill="#3a3d3f"/><path d="M266.66,124.2c0,.52.47.72,1,.79l-.06,1.06a2.75,2.75,0,0,1-2.14-.72,9.2,9.2,0,0,1-3.24.72c-1.64,0-2.54-.94-2.54-2.76s.9-2.48,2.75-2.66l2.83-.27v-.77c0-1.26-.54-1.71-1.62-1.71-1.26,0-3.4.23-3.4.23l-.06-1a22.3,22.3,0,0,1,3.53-.39c2,0,2.9.93,2.9,2.9Zm-4-2.56c-1.1.11-1.53.63-1.53,1.62s.45,1.66,1.36,1.66a9.48,9.48,0,0,0,2.83-.56v-3Z" fill="#3a3d3f"/><path d="M269.32,125.87v-9h1.34v.63a6.79,6.79,0,0,1,2.79-.81c2.48,0,3,1.22,3,4.43v4.75h-1.33v-4.72c0-2.37-.27-3.26-2-3.26a6.18,6.18,0,0,0-2.54.67v7.31Z" fill="#3a3d3f"/><path d="M286.25,121.22c0,3.59-1,4.83-4.25,4.83-1.08,0-3-.2-3-.2V112.94h1.33v4.38a7.44,7.44,0,0,1,2.65-.63C285.42,116.69,286.25,118,286.25,121.22Zm-1.37,0c0-2.32-.47-3.33-2.05-3.33a7.47,7.47,0,0,0-2.51.53v6.33s1.17.09,1.66.09C284.45,124.84,284.88,123.75,284.88,121.22Z" fill="#3a3d3f"/><path d="M295.43,116.87v9h-1.35v-.63a6.08,6.08,0,0,1-2.67.81c-2.52,0-3-1.17-3-4.48v-4.7h1.35v4.68c0,2.48.21,3.29,1.89,3.29a5.53,5.53,0,0,0,2.47-.66v-7.31Z" fill="#3a3d3f"/><path d="M298.12,112.94h1.35v12.93h-1.35Z" fill="#3a3d3f"/><path d="M149.37,136.83h1.3v11.89h-1.39V138.38l-3.06,2-.63-1.05Z" fill="#3a3d3f"/><path d="M155.13,136.83h7.39v1.82l-4.58,10.25-1.31-.42,4.48-9.92v-.47h-6Z" fill="#3a3d3f"/><path d="M165,140.87h1.48v2H165Zm0,5.79h1.48v2.06H165Z" fill="#3a3d3f"/><path d="M169,137.14a14,14,0,0,1,3.49-.5c2.81,0,3.8,1,3.8,3.09a3,3,0,0,1-1.76,2.7,2.59,2.59,0,0,1,2.05,2.88c0,2.4-1.17,3.59-3.85,3.59a19.41,19.41,0,0,1-3.91-.49l.13-1.13a21.72,21.72,0,0,0,3.63.39c1.77,0,2.58-.77,2.58-2.3s-1.1-2.18-2.45-2.23h-2.4V142h2.4a2.24,2.24,0,0,0,2.16-2.16c0-1.35-.67-1.91-2.43-1.91a18.07,18.07,0,0,0-3.31.36Z" fill="#3a3d3f"/><path d="M187.18,143c0,4.55-1.61,5.94-4.33,5.94s-4.33-1.35-4.33-5.93c0-4.89,1.58-6.33,4.32-6.33S187.18,138.06,187.18,143ZM180,143c0,3.73,1,4.7,2.89,4.7s2.9-1,2.9-4.71c0-4-.91-5.08-2.9-5.08S180,138.92,180,143Z" fill="#3a3d3f"/><path d="M534,209.06a14.09,14.09,0,0,1,3.5-.5c2.81,0,3.8,1,3.8,3.1a3,3,0,0,1-1.77,2.7,2.57,2.57,0,0,1,2,2.88c0,2.39-1.17,3.58-3.85,3.58a19.92,19.92,0,0,1-3.91-.48l.13-1.14a21.23,21.23,0,0,0,3.64.4c1.76,0,2.57-.78,2.57-2.31s-1.1-2.18-2.45-2.23h-2.39v-1.19h2.39a2.23,2.23,0,0,0,2.16-2.16c0-1.35-.66-1.91-2.43-1.91a18.07,18.07,0,0,0-3.31.36Z" fill="#3a3d3f"/><path d="M549.23,218.32h-5.76v-1.08l3.38-8.48h1.51l-3.43,8.34h4.3v-3.71h1.38v3.71h1.52v1.22h-1.52v2.32h-1.38Z" fill="#3a3d3f"/><path d="M558.48,207.89l1.21.45-5.08,12.55-1.21-.43Z" fill="#3a3d3f"/><path d="M566,208.76h1.3v11.88h-1.39V210.31l-3.06,2-.63-1Z" fill="#3a3d3f"/><path d="M579.69,214.88c0,4.56-1.61,5.94-4.33,5.94S571,219.47,571,214.9c0-4.9,1.59-6.34,4.33-6.34S579.69,210,579.69,214.88Zm-7.22,0c0,3.73,1,4.7,2.89,4.7s2.9-1,2.9-4.72c0-4-.91-5.08-2.9-5.08S572.47,210.85,572.47,214.9Z" fill="#3a3d3f"/><path d="M589.77,214.88c0,4.56-1.61,5.94-4.33,5.94s-4.34-1.35-4.34-5.92c0-4.9,1.59-6.34,4.33-6.34S589.77,210,589.77,214.88Zm-7.22,0c0,3.73,1,4.7,2.89,4.7s2.9-1,2.9-4.72c0-4-.91-5.08-2.9-5.08S582.55,210.85,582.55,214.9Z" fill="#3a3d3f"/><path d="M539.15,269.47h-5.76v-1.08l3.38-8.48h1.51l-3.43,8.34h4.3v-3.71h1.38v3.71h1.52v1.22h-1.52v2.32h-1.38Z" fill="#3a3d3f"/><path d="M551.34,259.91v1.26h-5.78l-.33,3.87a6.87,6.87,0,0,1,2.79-.74c2.33,0,3.78,1,3.78,3.51,0,2.74-1.49,4.15-4,4.15a19.39,19.39,0,0,1-3.94-.53l.16-1.1a23.49,23.49,0,0,0,3.66.4,2.5,2.5,0,0,0,2.68-2.81c0-1.8-1-2.38-2.52-2.38a6.75,6.75,0,0,0-2.83.73l-.95-.18.32-6.18Z" fill="#3a3d3f"/><path d="M558.48,259.05l1.21.45L554.61,272l-1.21-.43Z" fill="#3a3d3f"/><path d="M566,259.91h1.3v11.88h-1.39V261.46l-3.06,2-.63-1Z" fill="#3a3d3f"/><path d="M578.91,259.91v1.26h-5.78l-.32,3.87a6.81,6.81,0,0,1,2.79-.74c2.32,0,3.78,1,3.78,3.51,0,2.74-1.49,4.15-4,4.15a19.26,19.26,0,0,1-3.94-.53l.16-1.1a23.46,23.46,0,0,0,3.65.4,2.51,2.51,0,0,0,2.69-2.81c0-1.8-1-2.38-2.52-2.38a6.75,6.75,0,0,0-2.83.73l-1-.18.33-6.18Z" fill="#3a3d3f"/><path d="M589.77,266c0,4.56-1.61,5.94-4.33,5.94s-4.34-1.35-4.34-5.92c0-4.9,1.59-6.34,4.33-6.34S589.77,261.13,589.77,266Zm-7.22,0c0,3.73,1,4.7,2.89,4.7s2.9-1,2.9-4.72c0-4-.91-5.08-2.9-5.08S582.55,262,582.55,266.05Z" fill="#3a3d3f"/></g><g id="Layer_2-2" data-name="Layer 2"><rect x="107.75" y="202.24" width="410.25" height="23.57" fill="#f2f2f2"/><rect x="107.75" y="255.44" width="410.25" height="23.57" fill="#f2f2f2"/><rect x="107.75" y="202.24" width="176.33" height="23.57" fill="#bae6c4"/><rect x="107.75" y="255.44" width="234" height="23.57" fill="#bae6c4"/><path d="M68.21,128.85h34.63v3.64H68.21Zm35.67-17.06a2.72,2.72,0,0,0-3.35-1.93l-9.68,2.58L78.27,100.72l-3.51.93,7.54,13.07-9.06,2.42-3.59-2.8-2.64.71,3.32,5.76,1.4,2.42,2.92-.78,9.67-2.59,7.93-2.11,9.68-2.59A2.78,2.78,0,0,0,103.88,111.79Z" fill="#f22020"/><path d="M65.52,212a6.9,6.9,0,1,0-6.9-6.9A6.89,6.89,0,0,0,65.52,212Zm0,3.45c-4.61,0-13.8,2.31-13.8,6.9v3.44H79.31v-3.44C79.31,217.78,70.12,215.47,65.52,215.47Z" fill="#f2a120"/><path d="M78.32,256.14H72.19v-3.06A3.06,3.06,0,0,0,69.13,250H63a3.06,3.06,0,0,0-3.06,3.07v3.06H53.81a3,3,0,0,0-3.05,3.07l0,16.85a3.06,3.06,0,0,0,3.07,3.06h24.1a3.47,3.47,0,0,0,3.47-3.48V259.21A3.06,3.06,0,0,0,78.32,256.14Zm-9.19,0H63v-3.06h6.13Z" fill="#f2a120"/><rect x="107.75" y="202.24" width="122.6" height="23.57" fill="#40bd73"/><rect x="107.75" y="255.44" width="162.7" height="23.57" fill="#40bd73"/></g></g></g></svg>