<svg xmlns="http://www.w3.org/2000/svg" viewBox="0 0 579.59 555.77"><title>Asset 7</title><g id="Layer_2" data-name="Layer 2"><g id="Layer_2-2" data-name="Layer 2"><rect y="0.5" width="579.59" height="494.27" fill="#f7f7f7"/><line x1="0.23" y1="0.5" x2="579.59" y2="0.5" fill="none" stroke="#ddd" stroke-miterlimit="10"/><path d="M26.58,49.41c0-4.56,1.18-7.19,5.46-7.19s5.48,2.59,5.48,7.19c0,4.76-1.18,7.06-5.48,7.06S26.58,54.05,26.58,49.41Zm9.34,0c0-3.74-.72-5.82-3.88-5.82s-3.88,2.06-3.88,5.82.68,5.7,3.88,5.7S35.92,53.31,35.92,49.41Z"/><path d="M49.8,42.42,46.18,56.27H42.74L39.12,42.42h1.6L43.9,54.91H45L48.2,42.42Z"/><path d="M52,42.42H60.4v1.36H53.52v4.79H59.2v1.34H53.52v5H60.4v1.36H52Z"/><path d="M64.57,51v5.3H63V42.42h5.13c2.9,0,4.42,1.29,4.42,4.21,0,2-.8,3.46-2.54,4l2.66,5.62H71L68.5,51Zm3.59-7.19H64.57v5.83h3.61c2.08,0,2.82-1.24,2.82-3C71,44.73,70.1,43.78,68.16,43.78Z"/><path d="M84.82,42.42,81.2,56.27H77.76L74.14,42.42h1.6l3.18,12.49H80l3.18-12.49Z"/><path d="M87,42.42h1.54V56.27H87Z"/><path d="M91.91,42.42h8.43v1.36H93.45v4.79h5.69v1.34H93.45v5h6.89v1.36H91.91Z"/><path d="M103.47,42.42l2.36,12.49h.58l2.83-12.37H111l2.82,12.37h.58l2.36-12.49h1.58l-2.8,13.85h-2.82l-2.62-11.83-2.62,11.83H104.7l-2.83-13.85Z"/><path d="M27.64,348.46,30,360.94h.58l2.82-12.36h1.8L38,360.94h.58L41,348.46h1.58l-2.8,13.84H36.92L34.3,350.48,31.68,362.3H28.86L26,348.46Z"/><path d="M53.44,356h-7v6.26H44.86V348.46H46.4v6.2h7v-6.2H55V362.3H53.44Z"/><path d="M62.82,362.3H61.28v-5.82l-4.43-8h1.74L62,354.94l3.44-6.48h1.74l-4.4,8Z"/><path d="M73.51,348.46h1.54V362.3H73.51Z"/><path d="M86.2,349.94s-2.78-.34-3.94-.34c-2,0-3,.7-3,2.26,0,1.8,1,2.1,3.39,2.64,2.76.62,4,1.3,4,3.72,0,3.06-1.68,4.26-4.43,4.26a36.39,36.39,0,0,1-4.38-.44l.16-1.28s2.72.36,4.14.36c2,0,3-.86,3-2.78,0-1.56-.82-2-3.09-2.44-2.86-.62-4.3-1.3-4.3-3.94s1.76-3.72,4.46-3.72a34.47,34.47,0,0,1,4.19.4Z"/><path d="M92.23,348.46h10v1.38H98V362.3H96.49V349.84H92.23Z"/><path d="M112.77,356h-7v6.26h-1.54V348.46h1.54v6.2h7v-6.2h1.53V362.3h-1.53Z"/><path d="M117.69,348.46h1.54V362.3h-1.54Z"/><path d="M130.37,349.94s-2.78-.34-3.94-.34c-2,0-3,.7-3,2.26,0,1.8,1,2.1,3.38,2.64,2.76.62,4,1.3,4,3.72,0,3.06-1.68,4.26-4.42,4.26A36.39,36.39,0,0,1,122,362l.16-1.28s2.72.36,4.14.36c2,0,3-.86,3-2.78,0-1.56-.82-2-3.08-2.44-2.86-.62-4.3-1.3-4.3-3.94s1.76-3.72,4.46-3.72a34.46,34.46,0,0,1,4.18.4Z"/><path d="M139.39,357v5.3h-1.54V348.46H143c2.9,0,4.42,1.28,4.42,4.2,0,2-.8,3.46-2.54,4l2.66,5.62h-1.7l-2.5-5.3Zm3.58-7.18h-3.58v5.82H143c2.08,0,2.82-1.24,2.82-3C145.81,350.76,144.91,349.82,143,349.82Z"/><path d="M150.17,348.46h8.42v1.36h-6.88v4.78h5.68v1.34h-5.68v5h6.88v1.36h-8.42Z"/><path d="M169.59,362.08a20.83,20.83,0,0,1-3.82.42c-4.14,0-5.06-2.52-5.06-7.08s.9-7.16,5.06-7.16a20.32,20.32,0,0,1,3.82.44l-.06,1.3a24.64,24.64,0,0,0-3.6-.36c-3.08,0-3.62,1.84-3.62,5.78s.5,5.7,3.66,5.7a21.88,21.88,0,0,0,3.56-.36Z"/><path d="M171.55,355.44c0-4.56,1.18-7.18,5.46-7.18s5.48,2.58,5.48,7.18c0,4.76-1.18,7.06-5.48,7.06S171.55,360.08,171.55,355.44Zm9.34,0c0-3.74-.72-5.82-3.88-5.82s-3.88,2.06-3.88,5.82.68,5.7,3.88,5.7S180.89,359.34,180.89,355.44Z"/><path d="M185.31,348.46h2.78l3.92,11.7,3.92-11.7h2.78V362.3h-1.54V350.1h-.28l-4,11.7h-1.72l-4-11.7h-.28v12.2h-1.54Z"/><path d="M202.11,348.46h2.78l3.92,11.7,3.92-11.7h2.78V362.3H214V350.1h-.28l-4,11.7H208l-4-11.7h-.28v12.2h-1.54Z"/><path d="M218.91,348.46h8.42v1.36h-6.88v4.78h5.68v1.34h-5.68v5h6.88v1.36h-8.42Z"/><path d="M230,348.46h2.88l5.3,12.48h.42V348.46h1.52V362.3h-2.82l-5.38-12.48h-.38V362.3H230Z"/><path d="M243.49,362.3V348.46h4.94c4,0,5.12,2.8,5.12,6.72s-1,7.12-5.12,7.12Zm4.94-12.48H245v11.12h3.4c2.88,0,3.54-2.76,3.54-5.76S251.31,349.82,248.43,349.82Z"/><path d="M256.39,348.46h8.42v1.36h-6.88v4.78h5.68v1.34h-5.68v5h6.88v1.36h-8.42Z"/><path d="M267.45,362.3V348.46h4.94c4,0,5.12,2.8,5.12,6.72s-1,7.12-5.12,7.12Zm4.94-12.48H269v11.12h3.4c2.88,0,3.54-2.76,3.54-5.76S275.27,349.82,272.39,349.82Z"/><path d="M284.91,355.08c-1.18,1-1.78,1.6-1.78,2.5v.7h-1.26a3.11,3.11,0,0,1-.26-1.22c0-1,.8-1.76,1.86-2.66,1.44-1.24,1.78-1.7,1.78-2.82,0-1.42-.86-2-2.66-2a18.55,18.55,0,0,0-3.1.46l-.1-1.22a15.14,15.14,0,0,1,3.34-.6c2.68,0,4,.88,4,3.2C286.77,353.18,286.47,353.78,284.91,355.08Zm-3.26,5h1.64v2.24h-1.64Z"/><path d="M36.89,154.41v-1.76l5.24-5.51c2.22-2.3,3.6-3.77,3.6-5.88,0-2.39-1.32-3.15-3.9-3.15a26,26,0,0,0-4.64.6L37,137a21.81,21.81,0,0,1,5.18-.73c3.77,0,5.67,1.44,5.67,4.8,0,2.68-1.22,4.26-3.75,6.7l-4.77,4.85h9v1.82Z" fill="#3a3d3f"/><path d="M111.93,146.68h5.12v-5.29H119v5.29h5.18v1.84H119v5.35h-1.9v-5.35h-5.12Z" fill="#3a3d3f"/><path d="M134.22,136.51h1.95v17.9h-2.09V138.84l-4.61,3-.95-1.57Z" fill="#3a3d3f"/><path d="M150.57,150.91h-8.68v-1.63l5.1-12.77h2.27l-5.18,12.56h6.49v-5.59h2.08v5.59h2.28v1.84h-2.28v3.5h-2.08Z" fill="#3a3d3f"/><path d="M170,140.88c0,2.3-.9,3.25-3,4.17,1.93.87,3.26,1.93,3.26,4.5,0,3.94-3,5.13-6.75,5.13s-6.67-1.11-6.67-4.83c0-2.79,1.24-3.79,3.09-4.8-1.87-.92-2.8-2-2.8-4.2,0-3.09,2.47-4.64,6.38-4.64S170,137.73,170,140.88Zm-2,8.46c0-2.09-1.38-2.77-3.17-3.28H162c-1.87.51-2.95,1.43-2.95,3.44,0,2.47,1.9,3.28,4.45,3.28S168.05,152,168.05,149.34Zm-8.67-8.25c0,1.66.89,2.53,2.65,3.15h2.85c1.84-.6,2.9-1.46,2.9-3.12,0-2.14-1.6-3-4.23-3S159.38,139,159.38,141.09Z" fill="#3a3d3f"/><path d="M241.58,136.51v1.9h-8.7l-.49,5.83a10.35,10.35,0,0,1,4.2-1.11c3.5,0,5.7,1.46,5.7,5.29,0,4.12-2.25,6.23-6,6.23a29.58,29.58,0,0,1-5.93-.78l.24-1.66a35.52,35.52,0,0,0,5.5.6c2.47,0,4-1.47,4-4.23s-1.51-3.58-3.79-3.58a10.28,10.28,0,0,0-4.26,1.08l-1.44-.27.49-9.3Z" fill="#3a3d3f"/><path d="M256.76,136.51v1.9h-8.7l-.49,5.83a10.36,10.36,0,0,1,4.21-1.11c3.49,0,5.69,1.46,5.69,5.29,0,4.12-2.25,6.23-6,6.23a29.74,29.74,0,0,1-5.94-.78l.24-1.66a35.55,35.55,0,0,0,5.51.6c2.46,0,4-1.47,4-4.23s-1.52-3.58-3.8-3.58a10.34,10.34,0,0,0-4.26,1.08l-1.43-.27.49-9.3Z" fill="#3a3d3f"/><path d="M265.74,140c0,2.63-1.17,3.83-3,3.83s-3-1.2-3-3.83,1.14-3.74,3-3.74S265.74,137.38,265.74,140Zm-3,2.44c1,0,1.35-.84,1.35-2.44s-.35-2.36-1.35-2.36-1.33.76-1.33,2.36S261.78,142.42,262.76,142.42Zm6-6.48,1.3.44-5.56,18.52-1.3-.38Zm4.66,14.92c0,2.6-1.17,3.82-3,3.82s-3-1.22-3-3.85,1.11-3.72,3-3.72S273.44,148.25,273.44,150.86Zm-3,2.44c1,0,1.35-.84,1.35-2.44s-.32-2.36-1.35-2.36-1.33.76-1.33,2.33S269.48,153.3,270.46,153.3Z" fill="#3a3d3f"/><path d="M25.67,385.92h9v1.25h-3.8v11.21H29.51V387.17H25.67Z" fill="#3a3d3f"/><path d="M43.51,393.78c0,3.27-.81,4.79-3.85,4.79s-3.86-1.52-3.86-4.79c0-3.1,1-4.58,3.86-4.58S43.51,390.68,43.51,393.78Zm-1.39,0c0-2.51-.54-3.41-2.46-3.41s-2.47.9-2.47,3.41.34,3.61,2.47,3.61S42.12,396.33,42.12,393.78Z" fill="#3a3d3f"/><path d="M52.62,398.38H51.29v-.61a6.44,6.44,0,0,1-2.74.8c-1.76,0-3.24-.73-3.24-4.61,0-3.17,1-4.76,3.76-4.76a14.13,14.13,0,0,1,2.22.24v-4h1.33Zm-1.33-1.69v-6.1a14.43,14.43,0,0,0-2.15-.22c-1.89,0-2.44,1.24-2.44,3.59,0,2.91.95,3.4,2,3.4A6.54,6.54,0,0,0,51.29,396.69Z" fill="#3a3d3f"/><path d="M61.58,396.71c0,.52.47.72,1.05.79l-.06,1.07a2.76,2.76,0,0,1-2.14-.73,9.1,9.1,0,0,1-3.24.73c-1.64,0-2.54-.94-2.54-2.76s.9-2.48,2.75-2.66l2.83-.27v-.78c0-1.26-.54-1.71-1.62-1.71-1.26,0-3.4.23-3.4.23l-.06-1a21.77,21.77,0,0,1,3.53-.4c2,0,2.9.94,2.9,2.9Zm-4-2.56c-1.1.11-1.53.63-1.53,1.62s.45,1.66,1.36,1.66a9.48,9.48,0,0,0,2.83-.56v-3Z" fill="#3a3d3f"/><path d="M64.75,389.38,67,397.21h.59l2.27-7.83h1.35l-3.74,13H66.12l1.17-4H66l-2.55-9Z" fill="#3a3d3f"/><path d="M78.7,390.55v4.31c0,2,.12,2.52,1.29,2.52.51,0,1.61-.11,1.61-.11l.09,1.11a15.71,15.71,0,0,1-1.84.2c-1.85,0-2.48-.7-2.48-3.29v-4.74H76.09v-1.17h1.28v-2.75H78.7v2.75h2.86v1.17Z" fill="#3a3d3f"/><path d="M83.22,398.38V385.46h1.35v4.43a7.55,7.55,0,0,1,2.77-.69c2.47,0,3,1.23,3,4.43v4.75H89v-4.71c0-2.38-.27-3.26-1.93-3.26a7.39,7.39,0,0,0-2.53.54v7.43Z" fill="#3a3d3f"/><path d="M99.53,397.21l0,1.07a31.12,31.12,0,0,1-3.51.29c-2.68,0-3.56-1.57-3.56-4.63,0-3.42,1.47-4.74,3.76-4.74s3.62,1.26,3.62,4.22l-.07,1h-6c0,1.93.6,2.94,2.36,2.94C97.56,397.38,99.53,397.21,99.53,397.21Zm-1-3.85c0-2.23-.69-3-2.27-3s-2.4.84-2.41,3Z" fill="#3a3d3f"/><path d="M102,389.38h1.33v1.23a10.32,10.32,0,0,1,3.3-1.43v1.37a13,13,0,0,0-3.28,1.23v6.6H102Z" fill="#3a3d3f"/><path d="M114.84,397.21l0,1.07a31.12,31.12,0,0,1-3.51.29c-2.69,0-3.57-1.57-3.57-4.63,0-3.42,1.48-4.74,3.77-4.74s3.61,1.26,3.61,4.22l-.07,1h-5.94c0,1.93.6,2.94,2.36,2.94C112.88,397.38,114.84,397.21,114.84,397.21Zm-1-3.85c0-2.23-.68-3-2.26-3s-2.4.84-2.42,3Z" fill="#3a3d3f"/><path d="M127.6,396.71c0,.52.47.72,1.05.79l-.06,1.07a2.76,2.76,0,0,1-2.14-.73,9.1,9.1,0,0,1-3.24.73c-1.64,0-2.54-.94-2.54-2.76s.9-2.48,2.76-2.66l2.82-.27v-.78c0-1.26-.54-1.71-1.62-1.71-1.26,0-3.4.23-3.4.23l0-1a21.6,21.6,0,0,1,3.53-.4c2,0,2.89.94,2.89,2.9Zm-4-2.56c-1.1.11-1.53.63-1.53,1.62s.45,1.66,1.37,1.66a9.47,9.47,0,0,0,2.82-.56v-3Z" fill="#3a3d3f"/><path d="M130.27,389.38h1.33v1.23a10.34,10.34,0,0,1,3.29-1.43v1.37a12.81,12.81,0,0,0-3.27,1.23v6.6h-1.35Z" fill="#3a3d3f"/><path d="M143.14,397.21l0,1.07a31.12,31.12,0,0,1-3.51.29c-2.68,0-3.56-1.57-3.56-4.63,0-3.42,1.47-4.74,3.76-4.74s3.62,1.26,3.62,4.22l-.07,1h-5.94c0,1.93.59,2.94,2.35,2.94C141.18,397.38,143.14,397.21,143.14,397.21Zm-1-3.85c0-2.23-.68-3-2.27-3s-2.39.84-2.41,3Z" fill="#3a3d3f"/><path d="M151.34,390.55v4.31c0,2,.13,2.52,1.3,2.52.5,0,1.6-.11,1.6-.11l.09,1.11a15.44,15.44,0,0,1-1.83.2c-1.86,0-2.49-.7-2.49-3.29v-4.74h-1.28v-1.17H150v-2.75h1.33v2.75h2.87v1.17Z" fill="#3a3d3f"/><path d="M155.86,385.78h1.35v1.57h-1.35Zm0,3.6h1.35v9h-1.35Z" fill="#3a3d3f"/><path d="M159.8,398.38v-9h1.34V390a6,6,0,0,1,2.62-.81,2.55,2.55,0,0,1,2.35.92,7.46,7.46,0,0,1,3.2-.92c2.45,0,3,1.17,3,4.43v4.75H171v-4.71c0-2.38-.27-3.26-1.89-3.26a6,6,0,0,0-2.54.66,9.85,9.85,0,0,1,.24,2.63v4.68h-1.35v-4.64c0-2.48-.25-3.33-1.89-3.33a5.46,5.46,0,0,0-2.42.66v7.31Z" fill="#3a3d3f"/><path d="M181.5,397.21l0,1.07a31.12,31.12,0,0,1-3.51.29c-2.68,0-3.56-1.57-3.56-4.63,0-3.42,1.47-4.74,3.76-4.74s3.62,1.26,3.62,4.22l-.08,1h-5.94c0,1.93.6,2.94,2.36,2.94C179.53,397.38,181.5,397.21,181.5,397.21Zm-1-3.85c0-2.23-.69-3-2.27-3s-2.4.84-2.41,3Z" fill="#3a3d3f"/><path d="M193.88,390.7a29.33,29.33,0,0,0-3.15-.29c-1.12,0-2,.3-2,1.37,0,.84.44,1.08,2.35,1.4,2.25.38,3.09.83,3.09,2.58,0,2.1-1.33,2.81-3.49,2.81a25,25,0,0,1-3.17-.35l.07-1.17a29.86,29.86,0,0,0,3,.31c1.48,0,2.27-.33,2.27-1.55,0-.94-.47-1.17-2.43-1.48s-3-.7-3-2.5c0-2,1.6-2.63,3.24-2.63a23.19,23.19,0,0,1,3.26.34Z" fill="#3a3d3f"/><path d="M196.38,385.46h1.35v12.92h-1.35Z" fill="#3a3d3f"/><path d="M207.74,393.78c0,3.27-.81,4.79-3.85,4.79s-3.86-1.52-3.86-4.79c0-3.1,1-4.58,3.86-4.58S207.74,390.68,207.74,393.78Zm-1.39,0c0-2.51-.54-3.41-2.46-3.41s-2.47.9-2.47,3.41.34,3.61,2.47,3.61S206.35,396.33,206.35,393.78Z" fill="#3a3d3f"/><path d="M211.73,390.55v4.31c0,2,.13,2.52,1.3,2.52.5,0,1.6-.11,1.6-.11l.09,1.11a15.44,15.44,0,0,1-1.83.2c-1.86,0-2.49-.7-2.49-3.29v-4.74h-1.28v-1.17h1.28v-2.75h1.33v2.75h2.87v1.17Z" fill="#3a3d3f"/><path d="M222.23,390.7a29.33,29.33,0,0,0-3.15-.29c-1.12,0-2,.3-2,1.37,0,.84.43,1.08,2.34,1.4,2.25.38,3.09.83,3.09,2.58,0,2.1-1.33,2.81-3.49,2.81a25,25,0,0,1-3.17-.35l.07-1.17a29.86,29.86,0,0,0,3,.31c1.48,0,2.27-.33,2.27-1.55,0-.94-.47-1.17-2.43-1.48s-3-.7-3-2.5c0-2,1.6-2.63,3.24-2.63a23.19,23.19,0,0,1,3.26.34Z" fill="#3a3d3f"/><path d="M230.38,390.55v4.31c0,2,.13,2.52,1.3,2.52.5,0,1.6-.11,1.6-.11l.09,1.11a15.43,15.43,0,0,1-1.84.2c-1.85,0-2.48-.7-2.48-3.29v-4.74h-1.28v-1.17h1.28v-2.75h1.33v2.75h2.87v1.17Z" fill="#3a3d3f"/><path d="M234.9,398.38V385.46h1.35v4.43a7.55,7.55,0,0,1,2.77-.69c2.47,0,3,1.23,3,4.43v4.75h-1.35v-4.71c0-2.38-.27-3.26-1.93-3.26a7.41,7.41,0,0,0-2.54.54v7.43Z" fill="#3a3d3f"/><path d="M250.92,396.71c0,.52.47.72,1.05.79l-.06,1.07a2.76,2.76,0,0,1-2.14-.73,9.1,9.1,0,0,1-3.24.73c-1.64,0-2.54-.94-2.54-2.76s.9-2.48,2.75-2.66l2.83-.27v-.78c0-1.26-.54-1.71-1.62-1.71-1.26,0-3.4.23-3.4.23l-.06-1a21.6,21.6,0,0,1,3.53-.4c2,0,2.9.94,2.9,2.9Zm-4-2.56c-1.1.11-1.53.63-1.53,1.62s.45,1.66,1.36,1.66a9.48,9.48,0,0,0,2.83-.56v-3Z" fill="#3a3d3f"/><path d="M255.38,390.55v4.31c0,2,.13,2.52,1.3,2.52.5,0,1.6-.11,1.6-.11l.09,1.11a15.44,15.44,0,0,1-1.83.2c-1.86,0-2.49-.7-2.49-3.29v-4.74h-1.28v-1.17h1.28v-2.75h1.33v2.75h2.87v1.17Z" fill="#3a3d3f"/><path d="M270.22,396.71c0,.52.47.72,1,.79l-.05,1.07a2.74,2.74,0,0,1-2.14-.73,9.11,9.11,0,0,1-3.25.73c-1.63,0-2.53-.94-2.53-2.76s.9-2.48,2.75-2.66l2.83-.27v-.78c0-1.26-.54-1.71-1.62-1.71-1.26,0-3.41.23-3.41.23l0-1a21.6,21.6,0,0,1,3.53-.4c2,0,2.9.94,2.9,2.9Zm-4-2.56c-1.1.11-1.53.63-1.53,1.62s.45,1.66,1.37,1.66a9.57,9.57,0,0,0,2.83-.56v-3Z" fill="#3a3d3f"/><path d="M272.88,389.38h1.33v1.23a10.32,10.32,0,0,1,3.3-1.43v1.37a12.78,12.78,0,0,0-3.28,1.23v6.6h-1.35Z" fill="#3a3d3f"/><path d="M285.75,397.21l0,1.07a31.38,31.38,0,0,1-3.51.29c-2.69,0-3.57-1.57-3.57-4.63,0-3.42,1.48-4.74,3.76-4.74s3.62,1.26,3.62,4.22l-.07,1h-5.94c0,1.93.59,2.94,2.36,2.94C283.79,397.38,285.75,397.21,285.75,397.21Zm-1-3.85c0-2.23-.68-3-2.27-3s-2.39.84-2.41,3Z" fill="#3a3d3f"/><path d="M292.16,398.38v-9h1.33V390a6.85,6.85,0,0,1,2.79-.81c2.48,0,3,1.23,3,4.43v4.75H298v-4.71c0-2.38-.27-3.26-1.94-3.26a6.19,6.19,0,0,0-2.54.66v7.31Z" fill="#3a3d3f"/><path d="M309.13,393.78c0,3.27-.81,4.79-3.85,4.79s-3.85-1.52-3.85-4.79c0-3.1,1-4.58,3.85-4.58S309.13,390.68,309.13,393.78Zm-1.38,0c0-2.51-.54-3.41-2.47-3.41s-2.47.9-2.47,3.41.35,3.61,2.47,3.61S307.75,396.33,307.75,393.78Z" fill="#3a3d3f"/><path d="M313.13,390.55v4.31c0,2,.12,2.52,1.29,2.52.51,0,1.61-.11,1.61-.11l.09,1.11a15.71,15.71,0,0,1-1.84.2c-1.85,0-2.48-.7-2.48-3.29v-4.74h-1.28v-1.17h1.28v-2.75h1.33v2.75H316v1.17Z" fill="#3a3d3f"/><path d="M321.6,398.38V385.46H323v4.43a7.55,7.55,0,0,1,2.77-.69c2.47,0,3,1.23,3,4.43v4.75h-1.35v-4.71c0-2.38-.27-3.26-1.93-3.26A7.39,7.39,0,0,0,323,391v7.43Z" fill="#3a3d3f"/><path d="M331.27,385.78h1.35v1.57h-1.35Zm0,3.6h1.35v9h-1.35Z" fill="#3a3d3f"/><path d="M334.82,399.9c0-1,.48-1.53,1.42-2.24a1.46,1.46,0,0,1-.5-1.24,5.82,5.82,0,0,1,.61-1.42c-.76-.34-1.42-1.06-1.42-2.72,0-2.21,1.36-3.08,3.36-3.08a9.22,9.22,0,0,1,1.88.24l2.66-.08v1.16l-1.71,0a2.35,2.35,0,0,1,.59,1.8c0,2.34-1.17,3-3.47,3a6.65,6.65,0,0,1-.88-.07,5.21,5.21,0,0,0-.33,1c0,.72.15.83,2.18.83,2.56,0,3.48.5,3.48,2.64s-1.46,2.87-4,2.87C335.84,402.62,334.82,402,334.82,399.9Zm2.34-1.7c-.76.56-1,.89-1,1.59,0,1.24.52,1.69,2.56,1.69,1.8,0,2.61-.48,2.61-1.67,0-1.37-.58-1.51-2.22-1.51C338.47,398.3,337.16,398.2,337.16,398.2Zm3.2-5.92c0-1.42-.56-2-2.07-2s-2,.56-2,2,.61,2,2,2S340.36,393.7,340.36,392.28Z" fill="#3a3d3f"/><path d="M344.47,398.38V385.46h1.35v4.43a7.55,7.55,0,0,1,2.77-.69c2.47,0,3,1.23,3,4.43v4.75h-1.35v-4.71c0-2.38-.27-3.26-1.93-3.26a7.39,7.39,0,0,0-2.53.54v7.43Z" fill="#3a3d3f"/><path d="M354.24,385.46h1.35v12.92h-1.35Z" fill="#3a3d3f"/><path d="M358.79,389.38l2.25,7.83h.6l2.27-7.83h1.35l-3.75,13h-1.35l1.17-4H360l-2.56-9Z" fill="#3a3d3f"/><path d="M378.2,393.74c0,3.58-1,4.83-4.25,4.83-1.08,0-3-.2-3-.2V385.46h1.34v4.37a7.36,7.36,0,0,1,2.64-.63C377.37,389.2,378.2,390.5,378.2,393.74Zm-1.37,0c0-2.32-.47-3.33-2.05-3.33a7.57,7.57,0,0,0-2.5.52v6.34s1.17.09,1.65.09C376.4,397.36,376.83,396.26,376.83,393.74Z" fill="#3a3d3f"/><path d="M387.38,389.38v9H386v-.63a6,6,0,0,1-2.67.82c-2.52,0-3-1.18-3-4.49v-4.7h1.35v4.68c0,2.49.22,3.3,1.89,3.3a5.47,5.47,0,0,0,2.47-.67v-7.31Z" fill="#3a3d3f"/><path d="M396,390.7a29.33,29.33,0,0,0-3.15-.29c-1.12,0-2,.3-2,1.37,0,.84.43,1.08,2.34,1.4,2.25.38,3.1.83,3.1,2.58,0,2.1-1.33,2.81-3.49,2.81a25,25,0,0,1-3.17-.35l.07-1.17a29.5,29.5,0,0,0,3,.31c1.48,0,2.27-.33,2.27-1.55,0-.94-.47-1.17-2.43-1.48s-3-.7-3-2.5c0-2,1.61-2.63,3.24-2.63a23.19,23.19,0,0,1,3.26.34Z" fill="#3a3d3f"/><path d="M398.84,389.38l2.25,7.83h.6l2.27-7.83h1.35l-3.75,13h-1.35l1.17-4h-1.33l-2.56-9Z" fill="#3a3d3f"/><path d="M406.94,396.33h1.48v2.05h-1.48Z" fill="#3a3d3f"/><path d="M413.82,385.92h9v1.25H419v11.21h-1.37V387.17h-3.83Z" fill="#3a3d3f"/><path d="M424.35,398.38V385.46h1.35v4.43a7.55,7.55,0,0,1,2.77-.69c2.47,0,3,1.23,3,4.43v4.75h-1.35v-4.71c0-2.38-.27-3.26-1.92-3.26a7.41,7.41,0,0,0-2.54.54v7.43Z" fill="#3a3d3f"/><path d="M434,385.78h1.35v1.57H434Zm0,3.6h1.35v9H434Z" fill="#3a3d3f"/><path d="M443.93,390.7a29.33,29.33,0,0,0-3.15-.29c-1.11,0-2,.3-2,1.37,0,.84.43,1.08,2.34,1.4,2.25.38,3.1.83,3.1,2.58,0,2.1-1.33,2.81-3.5,2.81a24.71,24.71,0,0,1-3.16-.35l.07-1.17a29.5,29.5,0,0,0,3,.31c1.48,0,2.27-.33,2.27-1.55,0-.94-.47-1.17-2.43-1.48s-3-.7-3-2.5c0-2,1.6-2.63,3.24-2.63a23.19,23.19,0,0,1,3.26.34Z" fill="#3a3d3f"/><path d="M456.93,397.21l0,1.07a31.4,31.4,0,0,1-3.52.29c-2.68,0-3.56-1.57-3.56-4.63,0-3.42,1.48-4.74,3.76-4.74s3.62,1.26,3.62,4.22l-.07,1h-5.94c0,1.93.59,2.94,2.36,2.94C455,397.38,456.93,397.21,456.93,397.21Zm-1-3.85c0-2.23-.68-3-2.27-3s-2.39.84-2.41,3Z" fill="#3a3d3f"/><path d="M459.38,398.38v-9h1.33V390a6.85,6.85,0,0,1,2.79-.81c2.48,0,3,1.23,3,4.43v4.75h-1.33v-4.71c0-2.38-.27-3.26-1.95-3.26a6.18,6.18,0,0,0-2.53.66v7.31Z" fill="#3a3d3f"/><path d="M475.4,396.71c0,.52.47.72,1,.79l-.05,1.07a2.74,2.74,0,0,1-2.14-.73,9.11,9.11,0,0,1-3.25.73c-1.63,0-2.53-.94-2.53-2.76s.9-2.48,2.75-2.66l2.83-.27v-.78c0-1.26-.54-1.71-1.62-1.71-1.26,0-3.41.23-3.41.23l0-1a21.6,21.6,0,0,1,3.53-.4c2,0,2.9.94,2.9,2.9Zm-4-2.56c-1.1.11-1.53.63-1.53,1.62s.45,1.66,1.37,1.66a9.57,9.57,0,0,0,2.83-.56v-3Z" fill="#3a3d3f"/><path d="M485.32,393.74c0,3.58-1,4.83-4.25,4.83-1.08,0-3-.2-3-.2V385.46h1.33v4.37a7.44,7.44,0,0,1,2.65-.63C484.49,389.2,485.32,390.5,485.32,393.74Zm-1.37,0c0-2.32-.47-3.33-2.06-3.33a7.57,7.57,0,0,0-2.5.52v6.34s1.17.09,1.66.09C483.51,397.36,484,396.26,484,393.74Z" fill="#3a3d3f"/><path d="M487.64,385.46H489v12.92h-1.35Z" fill="#3a3d3f"/><path d="M498.33,397.21l0,1.07a31.4,31.4,0,0,1-3.52.29c-2.68,0-3.56-1.57-3.56-4.63,0-3.42,1.48-4.74,3.76-4.74s3.62,1.26,3.62,4.22l-.07,1h-5.94c0,1.93.59,2.94,2.36,2.94C496.37,397.38,498.33,397.21,498.33,397.21Zm-1-3.85c0-2.23-.68-3-2.27-3s-2.39.84-2.41,3Z" fill="#3a3d3f"/><path d="M506.75,390.7a29.33,29.33,0,0,0-3.15-.29c-1.11,0-2,.3-2,1.37,0,.84.43,1.08,2.34,1.4,2.25.38,3.1.83,3.1,2.58,0,2.1-1.34,2.81-3.5,2.81a24.71,24.71,0,0,1-3.16-.35l.07-1.17a29.5,29.5,0,0,0,3,.31c1.47,0,2.27-.33,2.27-1.55,0-.94-.47-1.17-2.43-1.48s-3-.7-3-2.5c0-2,1.6-2.63,3.24-2.63a23.19,23.19,0,0,1,3.26.34Z" fill="#3a3d3f"/><path d="M520.07,389.38v9h-1.35v-.63a6,6,0,0,1-2.66.82c-2.52,0-3-1.18-3-4.49v-4.7h1.36v4.68c0,2.49.21,3.3,1.89,3.3a5.4,5.4,0,0,0,2.46-.67v-7.31Z" fill="#3a3d3f"/><path d="M528.64,390.7a29.33,29.33,0,0,0-3.15-.29c-1.12,0-2,.3-2,1.37,0,.84.43,1.08,2.34,1.4,2.25.38,3.1.83,3.1,2.58,0,2.1-1.34,2.81-3.5,2.81a25,25,0,0,1-3.17-.35l.07-1.17a29.8,29.8,0,0,0,3,.31c1.47,0,2.26-.33,2.26-1.55,0-.94-.46-1.17-2.43-1.48s-3-.7-3-2.5c0-2,1.6-2.63,3.24-2.63a23.19,23.19,0,0,1,3.26.34Z" fill="#3a3d3f"/><path d="M536.79,390.55v4.31c0,2,.13,2.52,1.3,2.52.5,0,1.6-.11,1.6-.11l.09,1.11a15.44,15.44,0,0,1-1.83.2c-1.86,0-2.49-.7-2.49-3.29v-4.74h-1.28v-1.17h1.28v-2.75h1.33v2.75h2.87v1.17Z" fill="#3a3d3f"/><path d="M548.62,393.78c0,3.27-.81,4.79-3.85,4.79s-3.85-1.52-3.85-4.79c0-3.1,1-4.58,3.85-4.58S548.62,390.68,548.62,393.78Zm-1.39,0c0-2.51-.54-3.41-2.46-3.41s-2.47.9-2.47,3.41.34,3.61,2.47,3.61S547.23,396.33,547.23,393.78Z" fill="#3a3d3f"/><path d="M32.55,417.47l0,1.1s-1.45-.16-2.13-.16c-2.07,0-2.63.9-2.63,3.31,0,2.67.42,3.64,2.65,3.64.68,0,2.12-.16,2.12-.16l.06,1.11a23.34,23.34,0,0,1-2.51.26c-2.86,0-3.71-1.32-3.71-4.85,0-3.26,1.07-4.52,3.75-4.52A20.89,20.89,0,0,1,32.55,417.47Z" fill="#3a3d3f"/><path d="M34.58,426.38V413.46h1.35v4.43a7.55,7.55,0,0,1,2.77-.69c2.47,0,3,1.23,3,4.43v4.75H40.4v-4.71c0-2.38-.27-3.26-1.93-3.26a7.41,7.41,0,0,0-2.54.54v7.43Z" fill="#3a3d3f"/><path d="M50.6,424.71c0,.52.47.72,1,.79l-.06,1.07a2.76,2.76,0,0,1-2.14-.73,9.1,9.1,0,0,1-3.24.73c-1.64,0-2.54-.94-2.54-2.76s.9-2.48,2.76-2.66l2.82-.27v-.78c0-1.26-.54-1.71-1.62-1.71-1.26,0-3.4.23-3.4.23l0-1a21.57,21.57,0,0,1,3.52-.4c2,0,2.9.94,2.9,2.9Zm-4-2.56c-1.1.11-1.53.63-1.53,1.62s.45,1.66,1.37,1.66a9.47,9.47,0,0,0,2.82-.56v-3Z" fill="#3a3d3f"/><path d="M53.26,417.38H54.6v1.23a10.21,10.21,0,0,1,3.29-1.43v1.37a13,13,0,0,0-3.28,1.23v6.6H53.26Z" fill="#3a3d3f"/><path d="M59.1,427.9c0-1,.48-1.53,1.42-2.24a1.43,1.43,0,0,1-.51-1.24,5.78,5.78,0,0,1,.62-1.42c-.76-.34-1.43-1.06-1.43-2.72,0-2.21,1.37-3.08,3.37-3.08a9.07,9.07,0,0,1,1.87.24l2.67-.08v1.16l-1.71,0a2.35,2.35,0,0,1,.59,1.8c0,2.34-1.17,3-3.47,3a6.65,6.65,0,0,1-.88-.07,5.21,5.21,0,0,0-.33,1c0,.72.14.83,2.18.83,2.56,0,3.47.5,3.47,2.64s-1.45,2.87-4,2.87C60.12,430.62,59.1,430,59.1,427.9Zm2.34-1.7c-.76.56-1,.89-1,1.59,0,1.24.52,1.69,2.55,1.69,1.81,0,2.62-.48,2.62-1.67,0-1.37-.58-1.51-2.22-1.51C62.75,426.3,61.44,426.2,61.44,426.2Zm3.2-5.92c0-1.42-.56-2-2.07-2s-2,.56-2,2,.62,2,2,2S64.64,421.7,64.64,420.28Z" fill="#3a3d3f"/><path d="M75.39,425.21l0,1.07a31.12,31.12,0,0,1-3.51.29c-2.68,0-3.56-1.57-3.56-4.63,0-3.42,1.47-4.74,3.76-4.74s3.62,1.26,3.62,4.22l-.07,1H69.72c0,1.93.59,2.94,2.35,2.94C73.43,425.38,75.39,425.21,75.39,425.21Zm-1-3.85c0-2.23-.68-3-2.27-3s-2.39.84-2.41,3Z" fill="#3a3d3f"/><path d="M87.61,417.47l0,1.1s-1.45-.16-2.13-.16c-2.07,0-2.63.9-2.63,3.31,0,2.67.42,3.64,2.65,3.64.68,0,2.12-.16,2.12-.16l.06,1.11a23.34,23.34,0,0,1-2.51.26c-2.86,0-3.7-1.32-3.7-4.85,0-3.26,1.06-4.52,3.74-4.52A20.89,20.89,0,0,1,87.61,417.47Z" fill="#3a3d3f"/><path d="M96.29,425.21l0,1.07a31.12,31.12,0,0,1-3.51.29c-2.68,0-3.56-1.57-3.56-4.63,0-3.42,1.47-4.74,3.76-4.74s3.62,1.26,3.62,4.22l-.07,1h-6c0,1.93.6,2.94,2.36,2.94C94.32,425.38,96.29,425.21,96.29,425.21Zm-1-3.85c0-2.23-.69-3-2.27-3s-2.4.84-2.41,3Z" fill="#3a3d3f"/><path d="M98.73,417.38h1.33v1.23a10.32,10.32,0,0,1,3.3-1.43v1.37a13,13,0,0,0-3.28,1.23v6.6H98.73Z" fill="#3a3d3f"/><path d="M106.76,418.55v4.31c0,2,.13,2.52,1.3,2.52.5,0,1.6-.11,1.6-.11l.09,1.11a15.71,15.71,0,0,1-1.84.2c-1.85,0-2.48-.7-2.48-3.29v-4.74h-1.28v-1.17h1.28v-2.75h1.33v2.75h2.86v1.17Z" fill="#3a3d3f"/><path d="M117.63,424.71c0,.52.47.72,1.05.79l-.06,1.07a2.76,2.76,0,0,1-2.14-.73,9.1,9.1,0,0,1-3.24.73c-1.64,0-2.54-.94-2.54-2.76s.9-2.48,2.76-2.66l2.82-.27v-.78c0-1.26-.54-1.71-1.62-1.71-1.26,0-3.4.23-3.4.23l-.05-1a21.57,21.57,0,0,1,3.52-.4c2,0,2.9.94,2.9,2.9Zm-4-2.56c-1.1.11-1.53.63-1.53,1.62s.45,1.66,1.37,1.66a9.47,9.47,0,0,0,2.82-.56v-3Z" fill="#3a3d3f"/><path d="M120.29,413.78h1.35v1.57h-1.35Zm0,3.6h1.35v9h-1.35Z" fill="#3a3d3f"/><path d="M124.24,426.38v-9h1.33V418a6.85,6.85,0,0,1,2.79-.81c2.48,0,3,1.23,3,4.43v4.75h-1.33v-4.71c0-2.38-.27-3.26-1.94-3.26a6.19,6.19,0,0,0-2.54.66v7.31Z" fill="#3a3d3f"/><path d="M140.42,413.92h3l3.43,12.46H145.5l-.9-3.2h-5.33l-.9,3.2H137Zm-.85,8h4.72l-1.89-6.83h-.94Z" fill="#3a3d3f"/><path d="M153.76,420h3.44v6.12a30.57,30.57,0,0,1-4,.44c-3.82,0-4.83-2.35-4.83-6.38s1-6.44,4.79-6.44a23.65,23.65,0,0,1,4.09.46l-.06,1.16a28.37,28.37,0,0,0-3.87-.38c-2.88,0-3.51,1.67-3.51,5.2s.61,5.15,3.49,5.15a16.86,16.86,0,0,0,2.58-.25v-3.84h-2.07Z" fill="#3a3d3f"/><path d="M168.43,413.92l-3.26,12.46h-3.1l-3.26-12.46h1.45l2.86,11.24h1L167,413.92Z" fill="#3a3d3f"/><path d="M176.13,418.7a29.33,29.33,0,0,0-3.15-.29c-1.12,0-2,.3-2,1.37,0,.84.43,1.08,2.34,1.4,2.25.38,3.1.83,3.1,2.58,0,2.1-1.34,2.81-3.5,2.81a25,25,0,0,1-3.17-.35l.08-1.17a29.5,29.5,0,0,0,3,.31c1.47,0,2.27-.33,2.27-1.55,0-.94-.47-1.17-2.43-1.48s-3-.7-3-2.5c0-2,1.6-2.63,3.24-2.63a23.19,23.19,0,0,1,3.26.34Z" fill="#3a3d3f"/><path d="M183.1,417.38l1.82,7.83h.28l2.15-7.65h1.4l2.14,7.65h.31l1.8-7.83h1.35l-2.14,9H190l-1.91-7-1.91,7h-2.25l-2.14-9Z" fill="#3a3d3f"/><path d="M196.2,426.38V413.46h1.35v4.43a7.55,7.55,0,0,1,2.77-.69c2.47,0,3.05,1.23,3.05,4.43v4.75H202v-4.71c0-2.38-.27-3.26-1.93-3.26a7.41,7.41,0,0,0-2.54.54v7.43Z" fill="#3a3d3f"/><path d="M205.87,413.78h1.35v1.57h-1.35Zm0,3.6h1.35v9h-1.35Z" fill="#3a3d3f"/><path d="M209.92,413.46h1.35v12.92h-1.35Z" fill="#3a3d3f"/><path d="M220.61,425.21l0,1.07a31.4,31.4,0,0,1-3.52.29c-2.68,0-3.56-1.57-3.56-4.63,0-3.42,1.48-4.74,3.76-4.74s3.62,1.26,3.62,4.22l-.07,1h-5.94c0,1.93.59,2.94,2.36,2.94C218.65,425.38,220.61,425.21,220.61,425.21Zm-1-3.85c0-2.23-.68-3-2.27-3s-2.39.84-2.41,3Z" fill="#3a3d3f"/><path d="M228.82,418.55v4.31c0,2,.12,2.52,1.29,2.52.51,0,1.61-.11,1.61-.11l.08,1.11a15.44,15.44,0,0,1-1.83.2c-1.86,0-2.49-.7-2.49-3.29v-4.74h-1.27v-1.17h1.27v-2.75h1.34v2.75h2.86v1.17Z" fill="#3a3d3f"/><path d="M233.33,426.38V413.46h1.35v4.43a7.57,7.57,0,0,1,2.78-.69c2.46,0,3,1.23,3,4.43v4.75h-1.35v-4.71c0-2.38-.27-3.26-1.93-3.26a7.41,7.41,0,0,0-2.54.54v7.43Z" fill="#3a3d3f"/><path d="M249.64,425.21l0,1.07a31.12,31.12,0,0,1-3.51.29c-2.68,0-3.57-1.57-3.57-4.63,0-3.42,1.48-4.74,3.77-4.74s3.62,1.26,3.62,4.22l-.08,1H244c0,1.93.6,2.94,2.36,2.94C247.68,425.38,249.64,425.21,249.64,425.21Zm-1-3.85c0-2.23-.69-3-2.27-3s-2.4.84-2.42,3Z" fill="#3a3d3f"/><path d="M252.09,417.38h1.33v1.23a10.32,10.32,0,0,1,3.3-1.43v1.37a12.78,12.78,0,0,0-3.28,1.23v6.6h-1.35Z" fill="#3a3d3f"/><path d="M265,425.21l0,1.07a31.38,31.38,0,0,1-3.51.29c-2.69,0-3.57-1.57-3.57-4.63,0-3.42,1.48-4.74,3.76-4.74s3.62,1.26,3.62,4.22l-.07,1h-5.94c0,1.93.59,2.94,2.36,2.94C263,425.38,265,425.21,265,425.21Zm-1-3.85c0-2.23-.68-3-2.27-3s-2.39.84-2.41,3Z" fill="#3a3d3f"/><path d="M271.37,413.78h1.35v1.57h-1.35Zm0,3.6h1.35v9h-1.35Z" fill="#3a3d3f"/><path d="M281.29,418.7a29.33,29.33,0,0,0-3.15-.29c-1.12,0-2,.3-2,1.37,0,.84.44,1.08,2.34,1.4,2.25.38,3.1.83,3.1,2.58,0,2.1-1.33,2.81-3.49,2.81a25,25,0,0,1-3.17-.35l.07-1.17a29.5,29.5,0,0,0,3,.31c1.48,0,2.27-.33,2.27-1.55,0-.94-.47-1.17-2.43-1.48s-3-.7-3-2.5c0-2,1.61-2.63,3.24-2.63a23.19,23.19,0,0,1,3.26.34Z" fill="#3a3d3f"/><path d="M293.62,418.7a29.33,29.33,0,0,0-3.15-.29c-1.12,0-2,.3-2,1.37,0,.84.44,1.08,2.34,1.4,2.25.38,3.1.83,3.1,2.58,0,2.1-1.33,2.81-3.49,2.81a25,25,0,0,1-3.17-.35l.07-1.17a29.5,29.5,0,0,0,3,.31c1.48,0,2.27-.33,2.27-1.55,0-.94-.47-1.17-2.43-1.48s-3-.7-3-2.5c0-2,1.61-2.63,3.24-2.63a23.19,23.19,0,0,1,3.26.34Z" fill="#3a3d3f"/><path d="M297.81,418.55v4.31c0,2,.13,2.52,1.3,2.52.5,0,1.6-.11,1.6-.11l.09,1.11a15.71,15.71,0,0,1-1.84.2c-1.85,0-2.48-.7-2.48-3.29v-4.74H295.2v-1.17h1.28v-2.75h1.33v2.75h2.86v1.17Z" fill="#3a3d3f"/><path d="M302.33,413.78h1.35v1.57h-1.35Zm0,3.6h1.35v9h-1.35Z" fill="#3a3d3f"/><path d="M306.38,413.46h1.35v12.92h-1.35Z" fill="#3a3d3f"/><path d="M310.54,413.46h1.35v12.92h-1.35Z" fill="#3a3d3f"/><path d="M324.9,424.71c0,.52.47.72,1.05.79l-.06,1.07a2.76,2.76,0,0,1-2.14-.73,9.1,9.1,0,0,1-3.24.73c-1.64,0-2.54-.94-2.54-2.76s.9-2.48,2.75-2.66l2.83-.27v-.78c0-1.26-.54-1.71-1.62-1.71-1.26,0-3.4.23-3.4.23l-.06-1a21.77,21.77,0,0,1,3.53-.4c2,0,2.9.94,2.9,2.9Zm-4-2.56c-1.1.11-1.53.63-1.53,1.62s.45,1.66,1.36,1.66a9.48,9.48,0,0,0,2.83-.56v-3Z" fill="#3a3d3f"/><path d="M327.56,413.78h1.35v1.57h-1.35Zm0,3.6h1.35v9h-1.35Z" fill="#3a3d3f"/><path d="M331.51,417.38h1.33v1.23a10.34,10.34,0,0,1,3.29-1.43v1.37a12.81,12.81,0,0,0-3.27,1.23v6.6h-1.35Z" fill="#3a3d3f"/><path d="M348.05,424.71c0,.52.47.72,1,.79l0,1.07a2.76,2.76,0,0,1-2.14-.73,9.1,9.1,0,0,1-3.24.73c-1.64,0-2.54-.94-2.54-2.76s.9-2.48,2.75-2.66l2.83-.27v-.78c0-1.26-.54-1.71-1.62-1.71-1.26,0-3.4.23-3.4.23l-.06-1a21.6,21.6,0,0,1,3.53-.4c2,0,2.9.94,2.9,2.9Zm-4-2.56c-1.09.11-1.53.63-1.53,1.62s.45,1.66,1.37,1.66a9.48,9.48,0,0,0,2.83-.56v-3Z" fill="#3a3d3f"/><path d="M350.71,426.38v-9H352V418a6.86,6.86,0,0,1,2.8-.81c2.48,0,3,1.23,3,4.43v4.75h-1.33v-4.71c0-2.38-.27-3.26-1.95-3.26a6.19,6.19,0,0,0-2.54.66v7.31Z" fill="#3a3d3f"/><path d="M367.29,426.38H366v-.61a6.44,6.44,0,0,1-2.74.8c-1.76,0-3.24-.73-3.24-4.61,0-3.17,1-4.76,3.76-4.76a14.13,14.13,0,0,1,2.22.24v-4h1.33ZM366,424.69v-6.1a14.42,14.42,0,0,0-2.14-.22c-1.89,0-2.45,1.24-2.45,3.59,0,2.91.95,3.4,2,3.4A6.53,6.53,0,0,0,366,424.69Z" fill="#3a3d3f"/><path d="M373.86,417.38h1.33V418a6.12,6.12,0,0,1,2.7-.83c2.27,0,3.26,1.39,3.26,4.58,0,3.52-1.15,4.79-3.92,4.79a12,12,0,0,1-2-.2v4h-1.35Zm1.35,1.75v6.07a14.72,14.72,0,0,0,1.94.19c2,0,2.63-1,2.63-3.61s-.77-3.37-2.09-3.37A5.86,5.86,0,0,0,375.21,419.13Z" fill="#3a3d3f"/><path d="M389.7,424.71c0,.52.47.72,1.05.79l-.06,1.07a2.76,2.76,0,0,1-2.14-.73,9.1,9.1,0,0,1-3.24.73c-1.64,0-2.54-.94-2.54-2.76s.9-2.48,2.75-2.66l2.83-.27v-.78c0-1.26-.54-1.71-1.62-1.71-1.26,0-3.4.23-3.4.23l-.06-1a21.6,21.6,0,0,1,3.53-.4c2,0,2.9.94,2.9,2.9Zm-4-2.56c-1.1.11-1.53.63-1.53,1.62s.45,1.66,1.36,1.66a9.48,9.48,0,0,0,2.83-.56v-3Z" fill="#3a3d3f"/><path d="M398.34,418.7a29.33,29.33,0,0,0-3.15-.29c-1.12,0-2,.3-2,1.37,0,.84.43,1.08,2.34,1.4,2.25.38,3.1.83,3.1,2.58,0,2.1-1.34,2.81-3.5,2.81a25,25,0,0,1-3.17-.35l.08-1.17a29.5,29.5,0,0,0,3,.31c1.47,0,2.26-.33,2.26-1.55,0-.94-.46-1.17-2.43-1.48s-3-.7-3-2.5c0-2,1.6-2.63,3.24-2.63a23.19,23.19,0,0,1,3.26.34Z" fill="#3a3d3f"/><path d="M406.71,418.7a29.33,29.33,0,0,0-3.15-.29c-1.12,0-2,.3-2,1.37,0,.84.43,1.08,2.34,1.4,2.25.38,3.1.83,3.1,2.58,0,2.1-1.34,2.81-3.5,2.81a25,25,0,0,1-3.17-.35l.07-1.17a29.8,29.8,0,0,0,3,.31c1.47,0,2.26-.33,2.26-1.55,0-.94-.46-1.17-2.43-1.48s-3-.7-3-2.5c0-2,1.6-2.63,3.24-2.63a23.19,23.19,0,0,1,3.26.34Z" fill="#3a3d3f"/><path d="M415.75,425.21l0,1.07a31.12,31.12,0,0,1-3.51.29c-2.68,0-3.56-1.57-3.56-4.63,0-3.42,1.47-4.74,3.76-4.74s3.62,1.26,3.62,4.22l-.07,1h-5.94c0,1.93.59,2.94,2.35,2.94C413.78,425.38,415.75,425.21,415.75,425.21Zm-1-3.85c0-2.23-.69-3-2.27-3s-2.39.84-2.41,3Z" fill="#3a3d3f"/><path d="M418.19,426.38v-9h1.34V418a6.79,6.79,0,0,1,2.79-.81c2.48,0,3,1.23,3,4.43v4.75H424v-4.71c0-2.38-.27-3.26-1.95-3.26a6.25,6.25,0,0,0-2.54.66v7.31Z" fill="#3a3d3f"/><path d="M427.46,427.9c0-1,.49-1.53,1.43-2.24a1.43,1.43,0,0,1-.51-1.24A5.82,5.82,0,0,1,429,423c-.75-.34-1.42-1.06-1.42-2.72,0-2.21,1.37-3.08,3.37-3.08a9.07,9.07,0,0,1,1.87.24l2.67-.08v1.16l-1.72,0a2.31,2.31,0,0,1,.6,1.8c0,2.34-1.17,3-3.48,3a6.79,6.79,0,0,1-.88-.07,5.32,5.32,0,0,0-.32,1c0,.72.14.83,2.18.83,2.55,0,3.47.5,3.47,2.64s-1.46,2.87-4,2.87C428.49,430.62,427.46,430,427.46,427.9Zm2.34-1.7c-.75.56-1,.89-1,1.59,0,1.24.52,1.69,2.55,1.69,1.8,0,2.61-.48,2.61-1.67,0-1.37-.57-1.51-2.21-1.51C431.12,426.3,429.8,426.2,429.8,426.2Zm3.21-5.92c0-1.42-.56-2-2.07-2s-2,.56-2,2,.61,2,2,2S433,421.7,433,420.28Z" fill="#3a3d3f"/><path d="M443.76,425.21l0,1.07a31.12,31.12,0,0,1-3.51.29c-2.68,0-3.56-1.57-3.56-4.63,0-3.42,1.47-4.74,3.76-4.74s3.62,1.26,3.62,4.22l-.08,1h-5.94c0,1.93.6,2.94,2.36,2.94C441.79,425.38,443.76,425.21,443.76,425.21Zm-1-3.85c0-2.23-.69-3-2.27-3s-2.4.84-2.41,3Z" fill="#3a3d3f"/><path d="M446.2,417.38h1.33v1.23a10.32,10.32,0,0,1,3.3-1.43v1.37a13,13,0,0,0-3.28,1.23v6.6H446.2Z" fill="#3a3d3f"/><path d="M458.19,418.55v4.31c0,2,.12,2.52,1.3,2.52.5,0,1.6-.11,1.6-.11l.09,1.11a15.71,15.71,0,0,1-1.84.2c-1.85,0-2.48-.7-2.48-3.29v-4.74h-1.28v-1.17h1.28v-2.75h1.33v2.75h2.86v1.17Z" fill="#3a3d3f"/><path d="M462.71,417.38H464v1.23a10.34,10.34,0,0,1,3.29-1.43v1.37a12.81,12.81,0,0,0-3.27,1.23v6.6h-1.35Z" fill="#3a3d3f"/><path d="M475.29,424.71c0,.52.47.72,1,.79l-.05,1.07a2.76,2.76,0,0,1-2.14-.73,9.1,9.1,0,0,1-3.24.73c-1.64,0-2.54-.94-2.54-2.76s.9-2.48,2.75-2.66l2.83-.27v-.78c0-1.26-.54-1.71-1.62-1.71-1.26,0-3.4.23-3.4.23l-.06-1a21.6,21.6,0,0,1,3.53-.4c2,0,2.9.94,2.9,2.9Zm-4-2.56c-1.09.11-1.53.63-1.53,1.62s.45,1.66,1.37,1.66a9.48,9.48,0,0,0,2.83-.56v-3Z" fill="#3a3d3f"/><path d="M479.68,426.38h-1.35v-7.83H477.2v-1.17h1.13v-.81c0-2.59.67-3.29,2.43-3.29.61,0,1.82.12,1.82.12l0,1.12s-1,0-1.55,0c-1,0-1.33.44-1.33,2.11v.79h2.61v1.17h-2.61Z" fill="#3a3d3f"/><path d="M485.64,426.38h-1.35v-7.83h-1.14v-1.17h1.14v-.81c0-2.59.66-3.29,2.43-3.29.61,0,1.82.12,1.82.12l0,1.12s-1,0-1.55,0c-1,0-1.33.44-1.33,2.11v.79h2.61v1.17h-2.61Z" fill="#3a3d3f"/><path d="M489.87,413.78h1.35v1.57h-1.35Zm0,3.6h1.35v9h-1.35Z" fill="#3a3d3f"/><path d="M499.63,417.47l-.06,1.1s-1.44-.16-2.12-.16c-2.07,0-2.63.9-2.63,3.31,0,2.67.41,3.64,2.64,3.64.69,0,2.13-.16,2.13-.16l.05,1.11a23.06,23.06,0,0,1-2.5.26c-2.86,0-3.71-1.32-3.71-4.85,0-3.26,1.06-4.52,3.75-4.52A21.18,21.18,0,0,1,499.63,417.47Z" fill="#3a3d3f"/><path d="M501.57,424.33H503v2.05h-1.47Z" fill="#3a3d3f"/><rect x="261.51" y="79.17" width="10.84" height="41.27" transform="translate(533.86 199.61) rotate(-180)" fill="#2277d6"/><rect x="246.38" y="92.91" width="10.84" height="27.53" transform="translate(503.6 213.35) rotate(-180)" fill="#2277d6"/><rect x="230.36" y="106.68" width="10.84" height="13.77" transform="translate(471.56 227.12) rotate(-180)" fill="#2277d6"/><path d="M51.08,110.74a6.67,6.67,0,0,1-13.33.15l0-7.51,6.51-6.47v-9a.81.81,0,0,0-.81-.81H41.25V80.53a1.36,1.36,0,0,0-1.36-1.36h-.25a1.36,1.36,0,0,0-1.37,1.36v6.59H32.38V80.53a1.36,1.36,0,0,0-2.72,0v6.59H27.55a.81.81,0,0,0-.81.81l0,9,6.55,6.54,0,7.43a11.14,11.14,0,0,0,22.27-.15Z" fill="#2277d6"/><path d="M164.45,87.94h-8.67V83.6a4.33,4.33,0,0,0-4.34-4.33h-8.66a4.33,4.33,0,0,0-4.34,4.33v4.34h-8.67a4.3,4.3,0,0,0-4.31,4.33l0,23.84a4.32,4.32,0,0,0,4.33,4.33h34.09a4.92,4.92,0,0,0,4.92-4.92V92.27A4.33,4.33,0,0,0,164.45,87.94Zm-13,0h-8.66V83.6h8.66Z" fill="#2277d6"/><path d="M32.06,213.28h3.36l3.8,13.84H37.7l-1-3.56H30.78l-1,3.56H28.26Zm-.94,8.9h5.24l-2.1-7.58h-1Z"/><path d="M46.6,220h3.82v6.8a33.71,33.71,0,0,1-4.5.48c-4.24,0-5.36-2.6-5.36-7.08s1.16-7.16,5.32-7.16a25.77,25.77,0,0,1,4.54.52l-.06,1.28a31.73,31.73,0,0,0-4.3-.42c-3.2,0-3.9,1.86-3.9,5.78S42.84,226,46,226a18.56,18.56,0,0,0,2.86-.28v-4.26H46.6Z"/><path d="M62.72,213.28,59.1,227.12H55.66L52,213.28h1.6l3.18,12.48h1.12l3.18-12.48Z"/><path d="M70.8,218.58a32.74,32.74,0,0,0-3.5-.32c-1.24,0-2.18.34-2.18,1.52,0,.94.48,1.2,2.6,1.56,2.5.42,3.44.92,3.44,2.86,0,2.34-1.48,3.12-3.88,3.12a28.23,28.23,0,0,1-3.52-.38l.08-1.3s2.28.34,3.3.34c1.64,0,2.52-.36,2.52-1.72,0-1-.52-1.3-2.7-1.64s-3.34-.78-3.34-2.78c0-2.2,1.78-2.92,3.6-2.92a25.57,25.57,0,0,1,3.62.38Z"/><circle cx="42.85" cy="265.49" r="20.9" fill="#cfeaff" stroke="#2277d6" stroke-miterlimit="10" stroke-width="2"/><circle cx="102.12" cy="265.49" r="20.9" fill="#cfeaff" stroke="#2277d6" stroke-miterlimit="10" stroke-width="2"/><path d="M40.15,259a14.61,14.61,0,0,1,3.67-.53c3,0,4,1,4,3.26A3.12,3.12,0,0,1,46,264.55a2.71,2.71,0,0,1,2.16,3c0,2.52-1.23,3.77-4,3.77a20.67,20.67,0,0,1-4.11-.51l.14-1.19a22.86,22.86,0,0,0,3.82.41c1.85,0,2.7-.81,2.7-2.42s-1.15-2.29-2.57-2.35H41.53V264h2.52a2.34,2.34,0,0,0,2.27-2.27c0-1.41-.7-2-2.55-2a19,19,0,0,0-3.48.38Z"/><path d="M106.44,258.66V260h-6.07l-.34,4.06a7.26,7.26,0,0,1,2.93-.77c2.44,0,4,1,4,3.69,0,2.87-1.57,4.35-4.18,4.35a20.52,20.52,0,0,1-4.15-.55l.17-1.15a25.35,25.35,0,0,0,3.84.41,2.64,2.64,0,0,0,2.82-2.95c0-1.89-1.06-2.5-2.65-2.5a7.15,7.15,0,0,0-3,.76l-1-.19.34-6.49Z"/></g></g></svg>