<svg xmlns="http://www.w3.org/2000/svg" xmlns:xlink="http://www.w3.org/1999/xlink" viewBox="0 0 579.59 494.77"><defs><clipPath id="clip-path"><rect x="94.08" y="138.52" width="12.67" height="75.17" fill="#76ce89"/></clipPath><clipPath id="clip-path-2"><rect x="112" y="140.61" width="12.67" height="73.07" fill="#76ce89"/></clipPath><clipPath id="clip-path-3"><rect x="129.92" y="143.75" width="12.66" height="69.93" fill="#76ce89"/></clipPath><clipPath id="clip-path-4"><rect x="147.84" y="144.1" width="12.66" height="69.58" fill="#76ce89"/></clipPath><clipPath id="clip-path-5"><rect x="165.75" y="144.12" width="12.65" height="69.57" fill="#76ce89"/></clipPath><clipPath id="clip-path-6"><rect x="183.65" y="144.1" width="12.65" height="69.58" fill="#76ce89"/></clipPath><clipPath id="clip-path-7"><rect x="201.55" y="147.63" width="12.65" height="66.05" fill="#76ce89"/></clipPath><clipPath id="clip-path-8"><rect x="219.46" y="149.97" width="12.63" height="63.71" fill="#76ce89"/></clipPath><clipPath id="clip-path-9"><rect x="237.34" y="149.97" width="12.63" height="63.71" fill="#76ce89"/></clipPath><clipPath id="clip-path-10"><rect x="255.22" y="152.31" width="12.63" height="61.38" fill="#76ce89"/></clipPath><clipPath id="clip-path-11"><rect x="273.1" y="153.49" width="12.63" height="60.2" fill="#76ce89"/></clipPath><clipPath id="clip-path-12"><rect x="290.98" y="155.82" width="12.62" height="57.86" fill="#76ce89"/></clipPath><clipPath id="clip-path-13"><rect x="308.86" y="158.17" width="12.61" height="55.51" fill="#76ce89"/></clipPath><clipPath id="clip-path-14"><rect x="326.72" y="161.68" width="12.6" height="52.01" fill="#76ce89"/></clipPath><clipPath id="clip-path-15"><rect x="344.57" y="164.02" width="12.59" height="49.66" fill="#76ce89"/></clipPath><clipPath id="clip-path-16"><rect x="362.41" y="167.55" width="12.58" height="46.14" fill="#ffda00"/></clipPath><clipPath id="clip-path-17"><rect x="380.25" y="171.06" width="12.57" height="42.62" fill="#ffda00"/></clipPath><clipPath id="clip-path-18"><rect x="398.07" y="193.94" width="12.56" height="19.74" fill="#ff4200"/></clipPath><clipPath id="clip-path-19"><rect x="415.88" y="165.8" width="12.54" height="47.89" fill="#76ce89"/></clipPath><clipPath id="clip-path-20"><rect x="469.21" y="159.35" width="12.6" height="54.34" fill="#76ce89"/></clipPath><clipPath id="clip-path-21"><rect x="487.06" y="159.35" width="12.59" height="54.34" fill="#76ce89"/></clipPath><clipPath id="clip-path-22"><rect x="433.67" y="159.35" width="12.53" height="54.34" fill="#76ce89"/></clipPath><clipPath id="clip-path-23"><rect x="451.46" y="159.35" width="12.51" height="54.34" fill="#76ce89"/></clipPath><clipPath id="clip-path-24"><rect x="76.15" y="134.31" width="12.68" height="79.42" fill="#76ce89"/></clipPath><clipPath id="clip-path-25"><rect x="58.21" y="131.17" width="12.69" height="82.62" fill="#76ce89"/></clipPath></defs><title>wear_tear_sectionC_tablet</title><g id="Layer_2" data-name="Layer 2"><g id="Layer_2-2" data-name="Layer 2"><rect y="0.5" width="579.59" height="494.27" fill="#f7f7f7"/><line x1="0.23" y1="0.5" x2="579.59" y2="0.5" fill="none" stroke="#ddd" stroke-miterlimit="10"/><path d="M42.49,75.55c1.89,0,2.88.74,2.88,2.46a2.14,2.14,0,0,1-1.24,2.23,2.13,2.13,0,0,1,1.54,2.28c0,2-1.18,2.72-3,2.72H39V75.55Zm-2.44,1v3.35h2.49c1.22,0,1.72-.58,1.72-1.74s-.58-1.61-1.82-1.61Zm0,4.28v3.51h2.58c1.17,0,1.94-.38,1.94-1.81s-1.27-1.7-2-1.7Z" fill="#4c4c4c"/><path d="M52.36,83.94c0,.4.36.56.81.61l0,.83a2.15,2.15,0,0,1-1.67-.56,7.16,7.16,0,0,1-2.52.56c-1.28,0-2-.73-2-2.14s.7-1.94,2.15-2.08l2.2-.21v-.6c0-1-.42-1.33-1.26-1.33s-2.65.18-2.65.18l0-.8a16.84,16.84,0,0,1,2.74-.31c1.58,0,2.26.73,2.26,2.26Zm-3.13-2c-.85.08-1.19.49-1.19,1.26s.35,1.29,1.07,1.29a7.41,7.41,0,0,0,2.2-.44V81.75Z" fill="#4c4c4c"/><path d="M55.83,79.15v3.34c0,1.53.1,2,1,2,.39,0,1.24-.08,1.24-.08l.07.87a12.62,12.62,0,0,1-1.43.15c-1.44,0-1.93-.54-1.93-2.56V79.15h-1v-.92h1V76.09h1v2.14h2.22v.92Z" fill="#4c4c4c"/><path d="M60.74,79.15v3.34c0,1.53.1,2,1,2,.39,0,1.25-.08,1.25-.08l.07.87a12.62,12.62,0,0,1-1.43.15c-1.45,0-1.94-.54-1.94-2.56V79.15h-1v-.92h1V76.09h1v2.14H63v.92Z" fill="#4c4c4c"/><path d="M69.42,84.33l0,.82a23.89,23.89,0,0,1-2.73.23c-2.09,0-2.77-1.22-2.77-3.6,0-2.66,1.14-3.69,2.92-3.69s2.82,1,2.82,3.28l-.06.8H65c0,1.5.46,2.28,1.84,2.28C67.9,84.45,69.42,84.33,69.42,84.33Zm-.78-3c0-1.74-.53-2.35-1.77-2.35S65,79.64,65,81.33Z" fill="#4c4c4c"/><path d="M71.32,78.23h1v1a8,8,0,0,1,2.56-1.11v1.07a9.92,9.92,0,0,0-2.54.95v5.14H71.32Z" fill="#4c4c4c"/><path d="M76.56,78.23l1.75,6.1h.46l1.77-6.1h1L78.68,88.35H77.63l.91-3.11h-1l-2-7Z" fill="#4c4c4c"/><path d="M86.19,85.24V75.55h1.08v8.72h4.26v1Z" fill="#4c4c4c"/><path d="M97.89,84.33l0,.82a23.64,23.64,0,0,1-2.73.23c-2.09,0-2.77-1.22-2.77-3.6,0-2.66,1.15-3.69,2.93-3.69s2.81,1,2.81,3.28l-.05.8H93.47c0,1.5.46,2.28,1.84,2.28C96.36,84.45,97.89,84.33,97.89,84.33Zm-.79-3c0-1.74-.53-2.35-1.76-2.35s-1.87.66-1.88,2.35Z" fill="#4c4c4c"/><path d="M100.25,78.23l1.64,6.1h.52l1.69-6.1h1.08l-2,7h-2.1l-2-7Z" fill="#4c4c4c"/><path d="M111.69,84.33l0,.82a23.91,23.91,0,0,1-2.74.23c-2.08,0-2.77-1.22-2.77-3.6,0-2.66,1.15-3.69,2.93-3.69s2.81,1,2.81,3.28l0,.8h-4.62c0,1.5.46,2.28,1.83,2.28C110.16,84.45,111.69,84.33,111.69,84.33Zm-.79-3c0-1.74-.53-2.35-1.76-2.35s-1.86.66-1.88,2.35Z" fill="#4c4c4c"/><path d="M113.67,75.18h1V85.24h-1Z" fill="#4c4c4c"/><path d="M41,265.3h2l2.74,8.19,2.75-8.19h2V275H49.28v-8.54h-.2l-2.82,8.19h-1.2l-2.82-8.19h-.19V275H41Z" fill="#4c4c4c"/><path d="M57.49,273.69c0,.4.37.56.81.61l0,.83a2.13,2.13,0,0,1-1.66-.56,7.24,7.24,0,0,1-2.53.56c-1.27,0-2-.73-2-2.14s.7-1.94,2.14-2.08l2.2-.21v-.6c0-1-.42-1.33-1.26-1.33s-2.65.18-2.65.18l0-.8a17.4,17.4,0,0,1,2.75-.3c1.58,0,2.25.72,2.25,2.25Zm-3.12-2c-.86.08-1.19.49-1.19,1.26s.35,1.29,1.06,1.29a7.32,7.32,0,0,0,2.2-.44V271.5Z" fill="#4c4c4c"/><path d="M59.56,265.18h1v1.22h-1Zm0,2.81h1v7h-1Z" fill="#4c4c4c"/><path d="M62.63,275v-7h1v.49a5.35,5.35,0,0,1,2.17-.63c1.94,0,2.37.95,2.37,3.44V275h-1v-3.67c0-1.85-.21-2.54-1.52-2.54a4.74,4.74,0,0,0-2,.52V275Z" fill="#4c4c4c"/><path d="M71.55,268.9v3.34c0,1.53.09,2,1,2,.4,0,1.25-.09,1.25-.09l.07.87a12.62,12.62,0,0,1-1.43.15c-1.44,0-1.93-.54-1.93-2.56V268.9h-1V268h1v-2.15h1V268h2.22v.91Z" fill="#4c4c4c"/><path d="M80.23,274.08l0,.83a25,25,0,0,1-2.74.22c-2.08,0-2.77-1.22-2.77-3.6,0-2.66,1.15-3.68,2.93-3.68s2.81,1,2.81,3.27l0,.8H75.82c0,1.5.46,2.29,1.83,2.29C78.7,274.21,80.23,274.08,80.23,274.08Zm-.79-3c0-1.73-.53-2.35-1.76-2.35s-1.86.66-1.88,2.35Z" fill="#4c4c4c"/><path d="M82.13,275v-7h1v.49a5.29,5.29,0,0,1,2.17-.63c1.93,0,2.36.95,2.36,3.44V275h-1v-3.67c0-1.85-.21-2.54-1.51-2.54a4.81,4.81,0,0,0-2,.52V275Z" fill="#4c4c4c"/><path d="M94.59,273.69c0,.4.37.56.81.61l0,.83a2.13,2.13,0,0,1-1.66-.56,7.24,7.24,0,0,1-2.53.56c-1.27,0-2-.73-2-2.14s.7-1.94,2.14-2.08l2.2-.21v-.6c0-1-.42-1.33-1.26-1.33s-2.65.18-2.65.18l0-.8a17.4,17.4,0,0,1,2.75-.3c1.58,0,2.25.72,2.25,2.25Zm-3.12-2c-.86.08-1.19.49-1.19,1.26s.35,1.29,1.06,1.29a7.32,7.32,0,0,0,2.2-.44V271.5Z" fill="#4c4c4c"/><path d="M96.66,275v-7h1v.49a5.29,5.29,0,0,1,2.17-.63c1.93,0,2.37.95,2.37,3.44V275h-1v-3.67c0-1.85-.21-2.54-1.51-2.54a4.81,4.81,0,0,0-2,.52V275Z" fill="#4c4c4c"/><path d="M108.7,268.06l0,.85s-1.12-.13-1.65-.13c-1.61,0-2.05.71-2.05,2.58,0,2.08.32,2.83,2.06,2.83.53,0,1.65-.12,1.65-.12l0,.86a18.46,18.46,0,0,1-2,.2c-2.23,0-2.89-1-2.89-3.77,0-2.53.83-3.51,2.92-3.51A16.26,16.26,0,0,1,108.7,268.06Z" fill="#4c4c4c"/><path d="M115.45,274.08l0,.83a25,25,0,0,1-2.73.22c-2.09,0-2.78-1.22-2.78-3.6,0-2.66,1.15-3.68,2.93-3.68s2.82,1,2.82,3.27l-.06.8H111c0,1.5.46,2.29,1.83,2.29C113.92,274.21,115.45,274.08,115.45,274.08Zm-.78-3c0-1.73-.54-2.35-1.77-2.35s-1.86.66-1.88,2.35Z" fill="#4c4c4c"/><path d="M41.16,359h1.53l2.16,6.44L47,359h1.53v7.61h-.85v-6.71h-.15l-2.21,6.44h-1l-2.21-6.44H42v6.71h-.85Z" fill="#4c4c4c"/><path d="M54.14,365.56c0,.32.29.44.64.48l0,.65a1.67,1.67,0,0,1-1.31-.44,5.62,5.62,0,0,1-2,.44c-1,0-1.56-.57-1.56-1.68s.55-1.52,1.69-1.63l1.72-.16v-.48c0-.77-.33-1-1-1s-2.07.14-2.07.14l0-.62a12.93,12.93,0,0,1,2.16-.25,1.54,1.54,0,0,1,1.77,1.77ZM51.69,364c-.68.06-.94.38-.94,1s.28,1,.84,1a5.81,5.81,0,0,0,1.72-.34v-1.82Z" fill="#4c4c4c"/><path d="M55.77,361.08h.81v.75a6.27,6.27,0,0,1,2-.87v.84a8,8,0,0,0-2,.75v4h-.82Z" fill="#4c4c4c"/><path d="M99.78,359h1.84l2.1,7.61h-.84l-.55-1.95H99.07l-.55,1.95h-.83Zm-.52,4.9h2.88L101,359.7h-.58Z" fill="#4c4c4c"/><path d="M104.77,361.08h.81v.4a3.75,3.75,0,0,1,1.66-.51c1.38,0,2,.85,2,2.8,0,2.15-.71,2.92-2.4,2.92a6.41,6.41,0,0,1-1.23-.12V369h-.83Zm.83,1.07v3.71a8.44,8.44,0,0,0,1.18.12c1.21,0,1.61-.63,1.61-2.21s-.47-2.06-1.28-2.06A3.57,3.57,0,0,0,105.6,362.15Z" fill="#4c4c4c"/><path d="M110.57,361.08h.81v.75a6.27,6.27,0,0,1,2-.87v.84a8,8,0,0,0-2,.75v4h-.82Z" fill="#4c4c4c"/><path d="M154.51,365.54c0,1.65-.64,1.84-2.09,1.84v-.76c1,0,1.24-.07,1.24-1.2V359h.84Z" fill="#4c4c4c"/><path d="M160.45,361.08v5.5h-.82v-.38a3.77,3.77,0,0,1-1.63.49c-1.54,0-1.86-.71-1.86-2.74v-2.87H157v2.86c0,1.52.14,2,1.16,2a3.36,3.36,0,0,0,1.51-.41v-4.47Z" fill="#4c4c4c"/><path d="M162,366.58v-5.5h.82v.39a4.14,4.14,0,0,1,1.7-.5c1.52,0,1.86.75,1.86,2.71v2.9h-.81V363.7c0-1.45-.17-2-1.19-2a3.75,3.75,0,0,0-1.55.41v4.46Z" fill="#4c4c4c"/><path d="M208.08,365.54c0,1.65-.64,1.84-2.09,1.84v-.76c1,0,1.24-.07,1.24-1.2V359h.84Z" fill="#4c4c4c"/><path d="M214,361.08v5.5h-.82v-.38a3.77,3.77,0,0,1-1.63.49c-1.54,0-1.86-.71-1.86-2.74v-2.87h.82v2.86c0,1.52.13,2,1.16,2a3.36,3.36,0,0,0,1.51-.41v-4.47Z" fill="#4c4c4c"/><path d="M215.67,358.68h.82v7.9h-.82Z" fill="#4c4c4c"/><path d="M258.35,359h1.85l2.09,7.61h-.84l-.55-1.95h-3.26l-.55,1.95h-.83Zm-.52,4.9h2.88l-1.15-4.17H259Z" fill="#4c4c4c"/><path d="M267.6,361.08v5.5h-.83v-.38a3.7,3.7,0,0,1-1.62.49c-1.54,0-1.86-.71-1.86-2.74v-2.87h.82v2.86c0,1.52.13,2,1.16,2a3.29,3.29,0,0,0,1.5-.41v-4.47Z" fill="#4c4c4c"/><path d="M268.94,367.51c0-.64.3-.94.87-1.37a.88.88,0,0,1-.31-.76,3.58,3.58,0,0,1,.38-.86c-.47-.21-.87-.65-.87-1.67,0-1.35.83-1.88,2.05-1.88a5.54,5.54,0,0,1,1.15.15l1.63-.05v.71l-1,0a1.43,1.43,0,0,1,.36,1.1c0,1.43-.71,1.86-2.12,1.86a5.09,5.09,0,0,1-.54,0,3.13,3.13,0,0,0-.2.63c0,.44.09.5,1.33.5,1.57,0,2.13.31,2.13,1.62s-.89,1.75-2.44,1.75C269.57,369.17,268.94,368.78,268.94,367.51Zm1.43-1c-.46.34-.62.54-.62,1,0,.76.32,1,1.57,1s1.59-.3,1.59-1-.35-.92-1.35-.92C271.17,366.53,270.37,366.47,270.37,366.47Zm2-3.62c0-.86-.34-1.21-1.27-1.21s-1.23.35-1.23,1.21.38,1.2,1.23,1.2S272.33,363.72,272.33,362.85Z" fill="#4c4c4c"/><path d="M317.89,359.78s-1.53-.18-2.17-.18c-1.07,0-1.65.38-1.65,1.24s.53,1.16,1.86,1.45c1.52.34,2.19.72,2.19,2,0,1.68-.92,2.34-2.43,2.34a20.26,20.26,0,0,1-2.41-.24l.09-.7s1.5.19,2.28.19c1.07,0,1.63-.47,1.63-1.52,0-.86-.46-1.1-1.7-1.35-1.57-.34-2.36-.71-2.36-2.16s1-2,2.45-2a19,19,0,0,1,2.3.22Z" fill="#4c4c4c"/><path d="M323.5,365.87l0,.65a19.72,19.72,0,0,1-2.14.17c-1.64,0-2.18-.95-2.18-2.82,0-2.09.9-2.9,2.3-2.9s2.21.77,2.21,2.58l0,.62H320c0,1.18.37,1.8,1.45,1.8C322.3,366,323.5,365.87,323.5,365.87Zm-.62-2.36c0-1.36-.41-1.84-1.38-1.84s-1.47.51-1.48,1.84Z" fill="#4c4c4c"/><path d="M325,361.08h.81v.4a3.74,3.74,0,0,1,1.65-.51c1.39,0,2,.85,2,2.8,0,2.15-.7,2.92-2.4,2.92a6.61,6.61,0,0,1-1.23-.12V369H325Zm.82,1.07v3.71A8.63,8.63,0,0,0,327,366c1.21,0,1.61-.63,1.61-2.21s-.48-2.06-1.28-2.06A3.59,3.59,0,0,0,325.82,362.15Z" fill="#4c4c4c"/><path d="M369.27,362.81c0-2.51.65-3.95,3-3.95s3,1.42,3,3.95-.65,3.88-3,3.88S369.27,365.36,369.27,362.81Zm5.14,0c0-2.06-.4-3.2-2.14-3.2s-2.13,1.13-2.13,3.2.37,3.14,2.13,3.14S374.41,365,374.41,362.81Z" fill="#4c4c4c"/><path d="M380.25,361.14l0,.67s-.88-.1-1.3-.1c-1.27,0-1.61.55-1.61,2,0,1.63.25,2.23,1.62,2.23.42,0,1.3-.1,1.3-.1l0,.68a14.87,14.87,0,0,1-1.53.15c-1.75,0-2.27-.8-2.27-3,0-2,.65-2.76,2.29-2.76A12.4,12.4,0,0,1,380.25,361.14Z" fill="#4c4c4c"/><path d="M382.59,361.8v2.63c0,1.2.08,1.54.79,1.54.31,0,1-.07,1-.07l.06.68a9.79,9.79,0,0,1-1.12.12c-1.14,0-1.52-.42-1.52-2V361.8H381v-.72h.78V359.4h.81v1.68h1.75v.72Z" fill="#4c4c4c"/><path d="M424.14,359h1.58l2.92,6.87h.23V359h.83v7.61h-1.55l-3-6.86H425v6.86h-.84Z" fill="#4c4c4c"/><path d="M435.9,363.77c0,2-.5,2.92-2.36,2.92s-2.35-.92-2.35-2.92.61-2.8,2.35-2.8S435.9,361.88,435.9,363.77Zm-.85,0c0-1.53-.33-2.08-1.51-2.08s-1.51.55-1.51,2.08.21,2.21,1.51,2.21S435.05,365.33,435.05,363.77Z" fill="#4c4c4c"/><path d="M437.5,361.08l1.29,4.79h.41l1.33-4.79h.84l-1.55,5.5h-1.65l-1.55-5.5Z" fill="#4c4c4c"/><path d="M481.22,366.58V359h2.71c2.21,0,2.82,1.54,2.82,3.7s-.57,3.91-2.82,3.91Zm2.71-6.86h-1.87v6.12h1.87c1.59,0,1.95-1.52,1.95-3.17S485.52,359.72,483.93,359.72Z" fill="#4c4c4c"/><path d="M492.23,365.87l0,.65a20,20,0,0,1-2.15.17c-1.64,0-2.18-.95-2.18-2.82,0-2.09.91-2.9,2.3-2.9s2.22.77,2.22,2.58l-.05.62h-3.63c0,1.18.36,1.8,1.44,1.8C491,366,492.23,365.87,492.23,365.87Zm-.62-2.36c0-1.36-.42-1.84-1.39-1.84s-1.46.51-1.47,1.84Z" fill="#4c4c4c"/><path d="M497.28,361.14l0,.67s-.88-.1-1.3-.1c-1.26,0-1.6.55-1.6,2,0,1.63.25,2.23,1.61,2.23.42,0,1.3-.1,1.3-.1l0,.68a15.21,15.21,0,0,1-1.53.15c-1.75,0-2.27-.8-2.27-3,0-2,.65-2.76,2.29-2.76A12.68,12.68,0,0,1,497.28,361.14Z" fill="#4c4c4c"/><line x1="496.41" y1="353.14" x2="37.46" y2="353.14" fill="none" stroke="#adadad" stroke-miterlimit="10"/><polyline points="41.66 348.64 83.95 346.44 117.3 342.05 137.09 333.62 155.12 329.34 175.66 329.75 193.84 328.18 210.71 321.59 222.12 313.07 232.84 309.55 248.32 305.16 268.57 302.53 293.94 296.37 299.43 295.25 313.65 300.6 325.74 304.28 341.93 307.48 353.09 310.84 365.61 313.44 387.02 316.34 397.21 327.12 410.31 334.14 419.84 338.54 435.33 342.93 444.86 345.56 466.3 348.2 481.18 346 493.1 340.73" fill="none" stroke="#3899e8"/><polyline points="40.47 348.64 82.76 346.44 116.11 342.05 137.09 333.62 155.12 329.34 174.47 329.75 192.65 328.18 209.52 321.59 220.93 313.07 231.65 309.55 247.13 306.04 267.38 304.28 284.06 299.89 299.43 296.93 312.41 301.51 324.55 304.28 341.93 307.48 353.09 310.84 367.48 313.69 387.02 316.34 397.21 327.12 409.12 334.14 418.65 338.54 434.13 342.93 443.66 345.56 465.1 348.2 479.99 346 491.9 340.73" fill="none" stroke="#8dc5f2"/><rect x="40.43" y="290.62" width="451.79" height="58.52" fill="none"/><path d="M37.65,426.11h9v1.25h-3.8v11.21H41.48V427.36H37.65Z" fill="#3a3d3f"/><path d="M55.49,434c0,3.27-.81,4.79-3.86,4.79s-3.85-1.52-3.85-4.79c0-3.1,1-4.58,3.85-4.58S55.49,430.87,55.49,434Zm-1.39,0c0-2.51-.54-3.41-2.47-3.41s-2.46.9-2.46,3.41.34,3.61,2.46,3.61S54.1,436.52,54.1,434Z" fill="#3a3d3f"/><path d="M64.59,438.57H63.26V438a6.44,6.44,0,0,1-2.74.8c-1.76,0-3.24-.73-3.24-4.61,0-3.17,1-4.76,3.77-4.76a14.12,14.12,0,0,1,2.21.24v-4h1.33Zm-1.33-1.69v-6.1a14.27,14.27,0,0,0-2.14-.22c-1.89,0-2.45,1.24-2.45,3.59,0,2.91.95,3.4,2,3.4A6.47,6.47,0,0,0,63.26,436.88Z" fill="#3a3d3f"/><path d="M73.56,436.9c0,.52.46.72,1,.79l0,1.07A2.77,2.77,0,0,1,72.4,438a9.1,9.1,0,0,1-3.24.73c-1.64,0-2.53-.94-2.53-2.76s.89-2.49,2.75-2.66l2.83-.28v-.77c0-1.26-.54-1.71-1.62-1.71-1.26,0-3.41.23-3.41.23l-.05-1a21.6,21.6,0,0,1,3.53-.4c2,0,2.9.94,2.9,2.9Zm-4-2.56c-1.1.11-1.53.63-1.53,1.62s.45,1.66,1.37,1.66a9.57,9.57,0,0,0,2.83-.56v-3Z" fill="#3a3d3f"/><path d="M76.72,429.57,79,437.4h.6l2.27-7.83h1.35l-3.75,13H78.09l1.17-4H77.93l-2.56-9Z" fill="#3a3d3f"/><path d="M88.87,426h1.35v1.57H88.87Zm0,3.6h1.35v9H88.87Z" fill="#3a3d3f"/><path d="M94.61,430.74v4.31c0,2,.13,2.52,1.3,2.52.51,0,1.6-.11,1.6-.11l.09,1.11a15.44,15.44,0,0,1-1.83.2c-1.86,0-2.49-.7-2.49-3.29v-4.74H92v-1.17h1.28v-2.75h1.33v2.75h2.87v1.17Z" fill="#3a3d3f"/><path d="M103.09,426h1.35v1.57h-1.35Zm0,3.6h1.35v9h-1.35Z" fill="#3a3d3f"/><path d="M113,430.89a29.33,29.33,0,0,0-3.15-.29c-1.11,0-2,.3-2,1.37,0,.84.43,1.08,2.34,1.4,2.25.38,3.1.83,3.1,2.58,0,2.1-1.34,2.81-3.5,2.81a24.71,24.71,0,0,1-3.16-.35l.07-1.17a29.5,29.5,0,0,0,3,.31c1.47,0,2.27-.33,2.27-1.55,0-.94-.47-1.17-2.43-1.48s-3-.7-3-2.5c0-2,1.6-2.63,3.24-2.63a23.19,23.19,0,0,1,3.26.34Z" fill="#3a3d3f"/><path d="M119.37,429.57h1.33v.65a6.12,6.12,0,0,1,2.7-.83c2.27,0,3.26,1.39,3.26,4.58,0,3.52-1.15,4.79-3.93,4.79a12,12,0,0,1-2-.2v4h-1.35Zm1.35,1.75v6.07a14.72,14.72,0,0,0,1.94.19c2,0,2.63-1,2.63-3.61s-.78-3.37-2.09-3.37A5.86,5.86,0,0,0,120.72,431.32Z" fill="#3a3d3f"/><path d="M136.16,434c0,3.27-.81,4.79-3.85,4.79s-3.85-1.52-3.85-4.79c0-3.1,1-4.58,3.85-4.58S136.16,430.87,136.16,434Zm-1.39,0c0-2.51-.54-3.41-2.46-3.41s-2.47.9-2.47,3.41.34,3.61,2.47,3.61S134.77,436.52,134.77,434Z" fill="#3a3d3f"/><path d="M144.33,430.89a29.33,29.33,0,0,0-3.15-.29c-1.11,0-2,.3-2,1.37,0,.84.43,1.08,2.34,1.4,2.25.38,3.1.83,3.1,2.58,0,2.1-1.34,2.81-3.5,2.81a24.71,24.71,0,0,1-3.16-.35l.07-1.17a29.5,29.5,0,0,0,3,.31c1.47,0,2.27-.33,2.27-1.55,0-.94-.47-1.17-2.43-1.48s-3-.7-3-2.5c0-2,1.6-2.63,3.24-2.63a23.19,23.19,0,0,1,3.26.34Z" fill="#3a3d3f"/><path d="M152.7,430.89a29.33,29.33,0,0,0-3.15-.29c-1.11,0-2,.3-2,1.37,0,.84.43,1.08,2.34,1.4,2.25.38,3.1.83,3.1,2.58,0,2.1-1.34,2.81-3.5,2.81a24.71,24.71,0,0,1-3.16-.35l.07-1.17a29.5,29.5,0,0,0,3,.31c1.48,0,2.27-.33,2.27-1.55,0-.94-.47-1.17-2.43-1.48s-3-.7-3-2.5c0-2,1.6-2.63,3.24-2.63a23.19,23.19,0,0,1,3.26.34Z" fill="#3a3d3f"/><path d="M155.1,426h1.35v1.57H155.1Zm0,3.6h1.35v9H155.1Z" fill="#3a3d3f"/><path d="M166.29,433.93c0,3.58-1,4.83-4.25,4.83-1.08,0-3-.2-3-.2V425.65h1.33V430a7.44,7.44,0,0,1,2.65-.63C165.47,429.39,166.29,430.69,166.29,433.93Zm-1.36,0c0-2.32-.47-3.33-2.06-3.33a7.57,7.57,0,0,0-2.5.52v6.34s1.17.09,1.66.09C164.49,437.55,164.93,436.45,164.93,433.93Z" fill="#3a3d3f"/><path d="M168.61,425.65H170v12.92h-1.35Z" fill="#3a3d3f"/><path d="M179.31,437.4l0,1.07a31.12,31.12,0,0,1-3.51.29c-2.68,0-3.56-1.57-3.56-4.63,0-3.42,1.47-4.74,3.76-4.74s3.62,1.26,3.62,4.21l-.07,1h-5.94c0,1.93.59,2.94,2.35,2.94C177.34,437.57,179.31,437.4,179.31,437.4Zm-1-3.85c0-2.23-.69-3-2.27-3s-2.39.84-2.41,3Z" fill="#3a3d3f"/><path d="M187.51,430.74v4.31c0,2,.13,2.52,1.3,2.52.5,0,1.6-.11,1.6-.11l.09,1.11a15.44,15.44,0,0,1-1.83.2c-1.86,0-2.49-.7-2.49-3.29v-4.74H184.9v-1.17h1.28v-2.75h1.33v2.75h2.87v1.17Z" fill="#3a3d3f"/><path d="M199.34,434c0,3.27-.81,4.79-3.85,4.79s-3.85-1.52-3.85-4.79c0-3.1,1-4.58,3.85-4.58S199.34,430.87,199.34,434ZM198,434c0-2.51-.54-3.41-2.46-3.41s-2.47.9-2.47,3.41.34,3.61,2.47,3.61S198,436.52,198,434Z" fill="#3a3d3f"/><path d="M212.46,429.57v9h-1.35v-.63a6,6,0,0,1-2.66.82c-2.52,0-3-1.18-3-4.49v-4.7h1.36v4.68c0,2.49.21,3.3,1.89,3.3a5.4,5.4,0,0,0,2.46-.67v-7.31Z" fill="#3a3d3f"/><path d="M221,430.89a29.33,29.33,0,0,0-3.15-.29c-1.12,0-2,.3-2,1.37,0,.84.43,1.08,2.34,1.4,2.25.38,3.09.83,3.09,2.58,0,2.1-1.33,2.81-3.49,2.81a25,25,0,0,1-3.17-.35l.07-1.17a29.8,29.8,0,0,0,3,.31c1.47,0,2.26-.33,2.26-1.55,0-.94-.46-1.17-2.43-1.48s-3-.7-3-2.5c0-2,1.6-2.63,3.24-2.63a23.19,23.19,0,0,1,3.26.34Z" fill="#3a3d3f"/><path d="M230.07,437.4l0,1.07a31.12,31.12,0,0,1-3.51.29c-2.68,0-3.56-1.57-3.56-4.63,0-3.42,1.47-4.74,3.76-4.74s3.62,1.26,3.62,4.21l-.07,1h-6c0,1.93.6,2.94,2.36,2.94C228.1,437.57,230.07,437.4,230.07,437.4Zm-1-3.85c0-2.23-.69-3-2.27-3s-2.4.84-2.41,3Z" fill="#3a3d3f"/><path d="M239,426.11h3l3.42,12.46h-1.36l-.9-3.2h-5.33l-.9,3.2h-1.37Zm-.85,8h4.72L241,427.3h-.94Z" fill="#3a3d3f"/><path d="M252.37,432.2h3.44v6.12a30.57,30.57,0,0,1-4.05.44c-3.82,0-4.83-2.35-4.83-6.38s1-6.45,4.79-6.45a23.17,23.17,0,0,1,4.09.47l-.06,1.16a28.37,28.37,0,0,0-3.87-.38c-2.88,0-3.51,1.67-3.51,5.2s.61,5.15,3.49,5.15a16.86,16.86,0,0,0,2.58-.25v-3.84h-2.07Z" fill="#3a3d3f"/><path d="M267,426.11l-3.26,12.46h-3.1l-3.26-12.46h1.44l2.87,11.24h1l2.86-11.24Z" fill="#3a3d3f"/><path d="M272.81,426.69h7.39v1.82l-4.58,10.25-1.31-.42,4.48-9.92V428h-6Z" fill="#3a3d3f"/><path d="M293.12,436.9c0,.52.47.72,1,.79l-.05,1.07A2.76,2.76,0,0,1,292,438a9.1,9.1,0,0,1-3.24.73c-1.64,0-2.54-.94-2.54-2.76s.9-2.49,2.75-2.66l2.83-.28v-.77c0-1.26-.54-1.71-1.62-1.71-1.26,0-3.4.23-3.4.23l-.06-1a21.6,21.6,0,0,1,3.53-.4c2,0,2.9.94,2.9,2.9Zm-4-2.56c-1.09.11-1.53.63-1.53,1.62s.45,1.66,1.37,1.66a9.57,9.57,0,0,0,2.83-.56v-3Z" fill="#3a3d3f"/><path d="M297.58,430.74v4.31c0,2,.13,2.52,1.3,2.52.5,0,1.6-.11,1.6-.11l.09,1.11a15.71,15.71,0,0,1-1.84.2c-1.85,0-2.48-.7-2.48-3.29v-4.74H295v-1.17h1.28v-2.75h1.33v2.75h2.86v1.17Z" fill="#3a3d3f"/><path d="M306.06,426h1.35v1.57h-1.35Zm0,3.6h1.35v9h-1.35Z" fill="#3a3d3f"/><path d="M311.8,430.74v4.31c0,2,.13,2.52,1.3,2.52.5,0,1.6-.11,1.6-.11l.09,1.11a15.43,15.43,0,0,1-1.84.2c-1.85,0-2.48-.7-2.48-3.29v-4.74h-1.28v-1.17h1.28v-2.75h1.33v2.75h2.87v1.17Z" fill="#3a3d3f"/><path d="M322.3,430.89a29.33,29.33,0,0,0-3.15-.29c-1.12,0-2,.3-2,1.37,0,.84.44,1.08,2.34,1.4,2.26.38,3.1.83,3.1,2.58,0,2.1-1.33,2.81-3.49,2.81a25,25,0,0,1-3.17-.35l.07-1.17a29.5,29.5,0,0,0,3,.31c1.48,0,2.27-.33,2.27-1.55,0-.94-.47-1.17-2.43-1.48s-3-.7-3-2.5c0-2,1.61-2.63,3.24-2.63a23,23,0,0,1,3.26.34Z" fill="#3a3d3f"/><path d="M330.38,438.57H329v-7.83h-1.14v-1.17H329v-.81c0-2.59.66-3.29,2.43-3.29.61,0,1.82.12,1.82.12l0,1.12s-1,0-1.55,0c-1,0-1.33.43-1.33,2.11v.79H333v1.17h-2.61Z" fill="#3a3d3f"/><path d="M341.58,429.57v9h-1.35v-.63a6,6,0,0,1-2.67.82c-2.52,0-3-1.18-3-4.49v-4.7h1.35v4.68c0,2.49.21,3.3,1.89,3.3a5.47,5.47,0,0,0,2.47-.67v-7.31Z" fill="#3a3d3f"/><path d="M344.27,425.65h1.35v12.92h-1.35Z" fill="#3a3d3f"/><path d="M348.43,425.65h1.35v12.92h-1.35Z" fill="#3a3d3f"/><path d="M356.44,429.57h1.33v.65a6.12,6.12,0,0,1,2.7-.83c2.27,0,3.26,1.39,3.26,4.58,0,3.52-1.15,4.79-3.92,4.79a12,12,0,0,1-2-.2v4h-1.35Zm1.35,1.75v6.07a14.93,14.93,0,0,0,1.95.19c2,0,2.63-1,2.63-3.61s-.78-3.37-2.09-3.37A5.87,5.87,0,0,0,357.79,431.32Z" fill="#3a3d3f"/><path d="M372.57,437.4l0,1.07a31.12,31.12,0,0,1-3.51.29c-2.69,0-3.57-1.57-3.57-4.63,0-3.42,1.48-4.74,3.77-4.74s3.61,1.26,3.61,4.21l-.07,1H366.9c0,1.93.6,2.94,2.36,2.94C370.61,437.57,372.57,437.4,372.57,437.4Zm-1-3.85c0-2.23-.68-3-2.26-3s-2.4.84-2.42,3Z" fill="#3a3d3f"/><path d="M375,429.57h1.33v1.23a10.32,10.32,0,0,1,3.3-1.43v1.37a12.78,12.78,0,0,0-3.28,1.23v6.6H375Z" fill="#3a3d3f"/><path d="M383,438.57h-1.35v-7.83h-1.13v-1.17h1.13v-.81c0-2.59.67-3.29,2.44-3.29.61,0,1.81.12,1.81.12v1.12s-1,0-1.55,0c-1,0-1.34.43-1.34,2.11v.79h2.62v1.17H383Z" fill="#3a3d3f"/><path d="M394.51,434c0,3.27-.81,4.79-3.85,4.79s-3.85-1.52-3.85-4.79c0-3.1,1-4.58,3.85-4.58S394.51,430.87,394.51,434Zm-1.38,0c0-2.51-.54-3.41-2.47-3.41s-2.47.9-2.47,3.41.35,3.61,2.47,3.61S393.13,436.52,393.13,434Z" fill="#3a3d3f"/><path d="M396.71,429.57H398v1.23a10.32,10.32,0,0,1,3.3-1.43v1.37a12.78,12.78,0,0,0-3.28,1.23v6.6h-1.35Z" fill="#3a3d3f"/><path d="M402.94,438.57v-9h1.33v.63a6,6,0,0,1,2.63-.81,2.54,2.54,0,0,1,2.34.92,7.46,7.46,0,0,1,3.2-.92c2.45,0,3,1.17,3,4.43v4.75h-1.34v-4.71c0-2.38-.28-3.26-1.9-3.26a6,6,0,0,0-2.53.66,10.4,10.4,0,0,1,.23,2.63v4.68h-1.35v-4.64c0-2.49-.25-3.33-1.89-3.33a5.39,5.39,0,0,0-2.41.66v7.31Z" fill="#3a3d3f"/><path d="M424.34,436.9c0,.52.47.72,1,.79l-.05,1.07a2.76,2.76,0,0,1-2.14-.73,9.1,9.1,0,0,1-3.24.73c-1.64,0-2.54-.94-2.54-2.76s.9-2.49,2.75-2.66l2.83-.28v-.77c0-1.26-.54-1.71-1.62-1.71-1.26,0-3.4.23-3.4.23l-.06-1a21.6,21.6,0,0,1,3.53-.4c2,0,2.9.94,2.9,2.9Zm-4-2.56c-1.09.11-1.53.63-1.53,1.62s.45,1.66,1.37,1.66a9.57,9.57,0,0,0,2.83-.56v-3Z" fill="#3a3d3f"/><path d="M427,438.57v-9h1.33v.63a6.85,6.85,0,0,1,2.79-.81c2.49,0,3.05,1.23,3.05,4.43v4.75h-1.34v-4.71c0-2.38-.27-3.26-1.94-3.26a6.19,6.19,0,0,0-2.54.66v7.31Z" fill="#3a3d3f"/><path d="M442.48,429.66l-.05,1.1s-1.44-.16-2.13-.16c-2.07,0-2.62.9-2.62,3.31,0,2.67.41,3.64,2.64,3.64.69,0,2.13-.16,2.13-.16l.05,1.11a23.06,23.06,0,0,1-2.5.26c-2.86,0-3.71-1.32-3.71-4.85,0-3.26,1.06-4.52,3.74-4.52A20.89,20.89,0,0,1,442.48,429.66Z" fill="#3a3d3f"/><path d="M451.16,437.4l0,1.07a31.12,31.12,0,0,1-3.51.29c-2.68,0-3.56-1.57-3.56-4.63,0-3.42,1.48-4.74,3.76-4.74s3.62,1.26,3.62,4.21l-.07,1h-5.94c0,1.93.59,2.94,2.36,2.94C449.2,437.57,451.16,437.4,451.16,437.4Zm-1-3.85c0-2.23-.68-3-2.27-3s-2.39.84-2.41,3Z" fill="#3a3d3f"/><path d="M453.51,436.52H455v2.05h-1.48Z" fill="#3a3d3f"/><path d="M461.69,426.11h1.38v12.46h-1.38Z" fill="#3a3d3f"/><path d="M467.68,430.74v4.31c0,2,.13,2.52,1.3,2.52.5,0,1.6-.11,1.6-.11l.09,1.11a15.71,15.71,0,0,1-1.84.2c-1.85,0-2.48-.7-2.48-3.29v-4.74h-1.28v-1.17h1.28v-2.75h1.33v2.75h2.86v1.17Z" fill="#3a3d3f"/><path d="M476.77,429.57l1.82,7.83h.29l2.14-7.65h1.4l2.15,7.65h.3l1.8-7.83H488l-2.14,9h-2.25l-1.91-7-1.91,7h-2.25l-2.14-9Z" fill="#3a3d3f"/><path d="M497.18,434c0,3.27-.81,4.79-3.85,4.79s-3.85-1.52-3.85-4.79c0-3.1,1-4.58,3.85-4.58S497.18,430.87,497.18,434Zm-1.38,0c0-2.51-.54-3.41-2.47-3.41s-2.47.9-2.47,3.41.35,3.61,2.47,3.61S495.8,436.52,495.8,434Z" fill="#3a3d3f"/><path d="M506.35,429.57v9H505v-.63a6.09,6.09,0,0,1-2.67.82c-2.52,0-3-1.18-3-4.49v-4.7h1.35v4.68c0,2.49.21,3.3,1.89,3.3a5.47,5.47,0,0,0,2.47-.67v-7.31Z" fill="#3a3d3f"/><path d="M509,425.65h1.35v12.92H509Z" fill="#3a3d3f"/><path d="M520,438.57h-1.33V438a6.44,6.44,0,0,1-2.74.8c-1.77,0-3.24-.73-3.24-4.61,0-3.17,1-4.76,3.76-4.76a14.28,14.28,0,0,1,2.22.24v-4H520Zm-1.33-1.69v-6.1a14.43,14.43,0,0,0-2.15-.22c-1.89,0-2.45,1.24-2.45,3.59,0,2.91,1,3.4,2,3.4A6.54,6.54,0,0,0,518.68,436.88Z" fill="#3a3d3f"/><path d="M38.71,466.57v-9H40v.63a6.85,6.85,0,0,1,2.79-.81c2.49,0,3,1.23,3,4.43v4.75H44.54v-4.71c0-2.38-.27-3.26-1.94-3.26a6.19,6.19,0,0,0-2.54.66v7.31Z" fill="#3a3d3f"/><path d="M55,465.4l0,1.07a31.12,31.12,0,0,1-3.51.29c-2.68,0-3.56-1.57-3.56-4.63,0-3.42,1.47-4.74,3.76-4.74s3.62,1.26,3.62,4.21l-.07,1H49.35c0,1.93.59,2.94,2.35,2.94C53.06,465.57,55,465.4,55,465.4Zm-1-3.85c0-2.23-.68-3-2.27-3s-2.39.84-2.41,3Z" fill="#3a3d3f"/><path d="M64.11,465.4l0,1.07a31.12,31.12,0,0,1-3.51.29c-2.68,0-3.56-1.57-3.56-4.63,0-3.42,1.47-4.74,3.76-4.74s3.62,1.26,3.62,4.21l-.07,1H58.44c0,1.93.59,2.94,2.35,2.94C62.14,465.57,64.11,465.4,64.11,465.4Zm-1-3.85c0-2.23-.68-3-2.27-3s-2.39.84-2.41,3Z" fill="#3a3d3f"/><path d="M73.47,466.57H72.14V466a6.44,6.44,0,0,1-2.74.8c-1.77,0-3.24-.73-3.24-4.61,0-3.17,1-4.76,3.76-4.76a14.28,14.28,0,0,1,2.22.24v-4h1.33Zm-1.33-1.69v-6.1a14.43,14.43,0,0,0-2.15-.22c-1.89,0-2.45,1.24-2.45,3.59,0,2.91,1,3.4,2,3.4A6.54,6.54,0,0,0,72.14,464.88Z" fill="#3a3d3f"/><path d="M85.85,457.66l0,1.1s-1.44-.16-2.13-.16c-2.07,0-2.63.9-2.63,3.31,0,2.67.42,3.64,2.65,3.64.68,0,2.12-.16,2.12-.16l.06,1.11a23.37,23.37,0,0,1-2.5.26c-2.87,0-3.71-1.32-3.71-4.85,0-3.26,1.06-4.52,3.74-4.52A20.89,20.89,0,0,1,85.85,457.66Z" fill="#3a3d3f"/><path d="M87.88,466.57V453.65h1.35v4.43a7.57,7.57,0,0,1,2.78-.69c2.46,0,3,1.23,3,4.43v4.75H93.7v-4.71c0-2.38-.27-3.26-1.93-3.26a7.41,7.41,0,0,0-2.54.54v7.43Z" fill="#3a3d3f"/><path d="M103.9,464.9c0,.52.47.72,1,.79l-.06,1.07a2.76,2.76,0,0,1-2.14-.73,9.1,9.1,0,0,1-3.24.73c-1.64,0-2.54-.94-2.54-2.76s.9-2.49,2.76-2.66l2.82-.28v-.77c0-1.26-.54-1.71-1.62-1.71-1.26,0-3.4.23-3.4.23l0-1a21.6,21.6,0,0,1,3.53-.4c2,0,2.89.94,2.89,2.9Zm-4-2.56c-1.1.11-1.53.63-1.53,1.62s.45,1.66,1.37,1.66a9.47,9.47,0,0,0,2.82-.56v-3Z" fill="#3a3d3f"/><path d="M106.57,457.57h1.33v1.23a10.34,10.34,0,0,1,3.29-1.43v1.37a12.81,12.81,0,0,0-3.27,1.23v6.6h-1.35Z" fill="#3a3d3f"/><path d="M112.4,468.09c0-1,.48-1.53,1.42-2.24a1.46,1.46,0,0,1-.5-1.24,5.82,5.82,0,0,1,.61-1.42c-.76-.34-1.42-1.06-1.42-2.72,0-2.21,1.36-3.08,3.36-3.08a9.22,9.22,0,0,1,1.88.24l2.66-.08v1.16l-1.71,0a2.35,2.35,0,0,1,.59,1.8c0,2.34-1.17,3-3.47,3a6.65,6.65,0,0,1-.88-.07,5.21,5.21,0,0,0-.33,1c0,.72.15.83,2.18.83,2.56,0,3.48.5,3.48,2.64s-1.46,2.87-4,2.87C113.42,470.81,112.4,470.18,112.4,468.09Zm2.34-1.7c-.76.56-1,.89-1,1.59,0,1.24.52,1.69,2.56,1.69,1.8,0,2.61-.49,2.61-1.67,0-1.37-.58-1.52-2.22-1.52C116.05,466.48,114.74,466.39,114.74,466.39Zm3.2-5.92c0-1.42-.55-2-2.07-2s-2,.56-2,2,.61,2,2,2S117.94,461.89,117.94,460.47Z" fill="#3a3d3f"/><path d="M128.69,465.4l0,1.07a31.38,31.38,0,0,1-3.51.29c-2.69,0-3.57-1.57-3.57-4.63,0-3.42,1.48-4.74,3.76-4.74s3.62,1.26,3.62,4.21l-.07,1H123c0,1.93.59,2.94,2.36,2.94C126.73,465.57,128.69,465.4,128.69,465.4Zm-1-3.85c0-2.23-.68-3-2.27-3s-2.39.84-2.41,3Z" fill="#3a3d3f"/><path d="M141.45,464.9c0,.52.47.72,1.05.79l-.06,1.07a2.76,2.76,0,0,1-2.14-.73,9.1,9.1,0,0,1-3.24.73c-1.64,0-2.54-.94-2.54-2.76s.9-2.49,2.75-2.66l2.83-.28v-.77c0-1.26-.54-1.71-1.62-1.71-1.26,0-3.4.23-3.4.23l-.06-1a21.6,21.6,0,0,1,3.53-.4c2,0,2.9.94,2.9,2.9Zm-4-2.56c-1.1.11-1.53.63-1.53,1.62s.45,1.66,1.36,1.66a9.48,9.48,0,0,0,2.83-.56v-3Z" fill="#3a3d3f"/><path d="M144.11,457.57h1.34v1.23a10.21,10.21,0,0,1,3.29-1.43v1.37a13,13,0,0,0-3.28,1.23v6.6h-1.35Z" fill="#3a3d3f"/><path d="M157.65,462c0,3.27-.81,4.79-3.85,4.79s-3.86-1.52-3.86-4.79c0-3.1,1-4.58,3.86-4.58S157.65,458.87,157.65,462Zm-1.39,0c0-2.51-.54-3.41-2.46-3.41s-2.47.9-2.47,3.41.34,3.61,2.47,3.61S156.26,464.52,156.26,462Z" fill="#3a3d3f"/><path d="M166.81,457.57v9h-1.35v-.63a6,6,0,0,1-2.66.82c-2.52,0-3.05-1.18-3.05-4.49v-4.7h1.35v4.68c0,2.49.22,3.3,1.9,3.3a5.4,5.4,0,0,0,2.46-.67v-7.31Z" fill="#3a3d3f"/><path d="M169.4,466.57v-9h1.33v.63a6.86,6.86,0,0,1,2.8-.81c2.48,0,3,1.23,3,4.43v4.75h-1.33v-4.71c0-2.38-.27-3.26-2-3.26a6.19,6.19,0,0,0-2.54.66v7.31Z" fill="#3a3d3f"/><path d="M186,466.57h-1.33V466a6.44,6.44,0,0,1-2.74.8c-1.76,0-3.24-.73-3.24-4.61,0-3.17,1-4.76,3.76-4.76a14.13,14.13,0,0,1,2.22.24v-4H186Zm-1.33-1.69v-6.1a14.27,14.27,0,0,0-2.14-.22c-1.89,0-2.45,1.24-2.45,3.59,0,2.91.95,3.4,2,3.4A6.53,6.53,0,0,0,184.65,464.88Z" fill="#3a3d3f"/><path d="M192.5,466.57V465.4l3.47-3.65c1.48-1.53,2.4-2.5,2.4-3.91,0-1.58-.89-2.09-2.6-2.09a17.22,17.22,0,0,0-3.08.4l-.1-1.15a14.28,14.28,0,0,1,3.43-.49c2.51,0,3.77,1,3.77,3.19,0,1.78-.81,2.82-2.49,4.45l-3.17,3.22h6v1.2Z" fill="#3a3d3f"/><path d="M210.7,460.81c0,4.56-1.61,5.95-4.32,5.95S202,465.4,202,460.83c0-4.9,1.58-6.34,4.32-6.34S210.7,455.92,210.7,460.81Zm-7.22,0c0,3.73,1,4.7,2.9,4.7s2.89-1,2.89-4.72c0-4-.91-5.07-2.89-5.07S203.48,456.78,203.48,460.83Z" fill="#3a3d3f"/><path d="M212.62,458.72h1.48v2.06h-1.48Zm0,5.8h1.48v2.05h-1.48Z" fill="#3a3d3f"/><path d="M224.68,460.81c0,4.56-1.6,5.95-4.32,5.95S216,465.4,216,460.83c0-4.9,1.59-6.34,4.32-6.34S224.68,455.92,224.68,460.81Zm-7.22,0c0,3.73,1,4.7,2.9,4.7s2.9-1,2.9-4.72c0-4-.92-5.07-2.9-5.07S217.46,456.78,217.46,460.83Z" fill="#3a3d3f"/><path d="M234.76,460.81c0,4.56-1.6,5.95-4.32,5.95s-4.34-1.36-4.34-5.93c0-4.9,1.59-6.34,4.32-6.34S234.76,455.92,234.76,460.81Zm-7.22,0c0,3.73,1,4.7,2.9,4.7s2.9-1,2.9-4.72c0-4-.92-5.07-2.9-5.07S227.54,456.78,227.54,460.83Z" fill="#3a3d3f"/><path d="M236.69,464.52h1.47v2.05h-1.47Z" fill="#3a3d3f"/><path d="M42.19,23.85h3.36l3.8,13.85H47.83l-1-3.56H40.91l-1,3.56H38.39Zm-.94,8.91h5.24l-2.1-7.58h-1Z"/><path d="M57,30.62h3.82v6.8a33.71,33.71,0,0,1-4.5.48c-4.24,0-5.36-2.6-5.36-7.08s1.16-7.17,5.32-7.17a25.77,25.77,0,0,1,4.54.52l-.06,1.28a31.73,31.73,0,0,0-4.3-.42c-3.2,0-3.9,1.87-3.9,5.79s.68,5.72,3.88,5.72a18.56,18.56,0,0,0,2.86-.28V32H57Z"/><path d="M73.31,23.85,69.69,37.7H66.25L62.63,23.85h1.6l3.18,12.49h1.12l3.18-12.49Z"/><path d="M79.73,24.49h8.2v2L82.85,37.9l-1.46-.46,5-11v-.53H79.73Z"/><line x1="39.78" y1="46.01" x2="539.37" y2="46.01" fill="none" stroke="#ddd" stroke-miterlimit="10"/><line x1="56.75" y1="127.15" x2="56.75" y2="223.35" fill="none" stroke="#adadad" stroke-miterlimit="10"/><line x1="501.85" y1="214.67" x2="46.45" y2="214.67" fill="none" stroke="#adadad" stroke-miterlimit="10"/><path d="M70.56,227.36H66.15v-.83L68.74,220H69.9l-2.63,6.38h3.29v-2.84h1.06v2.84h1.16v.94H71.62v1.78H70.56Z" fill="#4c4c4c"/><path d="M44.82,216.71c0,3.49-1.22,4.55-3.3,4.55s-3.32-1-3.32-4.53c0-3.75,1.21-4.85,3.3-4.85S44.82,213,44.82,216.71Zm-5.52,0c0,2.85.78,3.59,2.22,3.59s2.22-.75,2.22-3.61c0-3.06-.71-3.88-2.22-3.88S39.3,213.63,39.3,216.73Z" fill="#4c4c4c"/><path d="M38.61,193.94v-.89l2.66-2.8c1.13-1.17,1.83-1.92,1.83-3s-.67-1.6-2-1.6a13.36,13.36,0,0,0-2.36.3l-.08-.88a11.09,11.09,0,0,1,2.63-.37c1.92,0,2.88.73,2.88,2.44,0,1.36-.62,2.16-1.9,3.4L39.86,193h4.56v.92Z" fill="#4c4c4c"/><path d="M42.62,164H38.21v-.83l2.59-6.49H42l-2.63,6.38h3.29v-2.84h1.06v2.84h1.16V164H43.68v1.78H42.62Z" fill="#4c4c4c"/><path d="M44.3,129.52a21.76,21.76,0,0,0-2.4-.16c-1.58,0-2.45,1.13-2.45,3.14a7.53,7.53,0,0,1,2.27-.54c2,0,3.06.91,3.06,2.83s-1.15,3-3.18,3c-2.26,0-3.25-1.78-3.25-4.72,0-3.3,1.39-4.65,3.55-4.65a16.74,16.74,0,0,1,2.5.24Zm-4.86,3.92c0,1.94.59,3.41,2.16,3.41a1.86,1.86,0,0,0,2.08-2.06c0-1.27-.76-1.88-2-1.88A6.23,6.23,0,0,0,39.44,133.44Z" fill="#4c4c4c"/><path d="M152.42,222.27a2,2,0,0,1-1.51,2.13,2.27,2.27,0,0,1,1.65,2.28c0,2-1.54,2.61-3.43,2.61s-3.39-.57-3.39-2.46a2.41,2.41,0,0,1,1.57-2.43,2.12,2.12,0,0,1-1.42-2.14c0-1.57,1.25-2.36,3.24-2.36S152.42,220.68,152.42,222.27Zm-1,4.3c0-1.06-.7-1.4-1.61-1.66h-1.45c-1,.26-1.5.73-1.5,1.75,0,1.25,1,1.66,2.26,1.66S151.43,227.91,151.43,226.57ZM147,222.38c0,.84.46,1.28,1.35,1.6h1.45c.94-.3,1.47-.74,1.47-1.58,0-1.09-.81-1.53-2.15-1.53S147,221.3,147,222.38Z" fill="#4c4c4c"/><path d="M229.36,220.06h1v9.09h-1.07v-7.91L227,222.78l-.48-.8Z" fill="#4c4c4c"/><path d="M233.67,229.15v-.9l2.66-2.79c1.12-1.18,1.83-1.92,1.83-3,0-1.22-.68-1.6-2-1.6a13.35,13.35,0,0,0-2.35.3l-.09-.88a11.12,11.12,0,0,1,2.64-.37c1.91,0,2.88.73,2.88,2.44,0,1.36-.62,2.16-1.9,3.4l-2.43,2.47h4.56v.92Z" fill="#4c4c4c"/><path d="M316.78,220.06h1v9.09h-1.06v-7.91l-2.34,1.54-.48-.8Z" fill="#4c4c4c"/><path d="M326.77,221a20.45,20.45,0,0,0-2.39-.17c-1.59,0-2.46,1.13-2.46,3.15a7.53,7.53,0,0,1,2.28-.54c2,0,3.06.91,3.06,2.82s-1.16,3-3.19,3c-2.26,0-3.25-1.78-3.25-4.73,0-3.29,1.39-4.64,3.56-4.64a17.41,17.41,0,0,1,2.49.23Zm-4.86,3.91c0,1.95.59,3.42,2.16,3.42a1.87,1.87,0,0,0,2.08-2.07c0-1.26-.75-1.87-2-1.87A6.4,6.4,0,0,0,321.91,224.93Z" fill="#4c4c4c"/><path d="M400.78,229.15v-.9l2.66-2.79c1.13-1.18,1.83-1.92,1.83-3,0-1.22-.67-1.6-2-1.6a13.36,13.36,0,0,0-2.36.3l-.08-.88a11.09,11.09,0,0,1,2.63-.37c1.92,0,2.88.73,2.88,2.44,0,1.36-.62,2.16-1.9,3.4L402,228.23h4.57v.92Z" fill="#4c4c4c"/><path d="M414.71,224.74c0,3.49-1.22,4.55-3.3,4.55s-3.32-1-3.32-4.54c0-3.74,1.21-4.85,3.3-4.85S414.71,221,414.71,224.74Zm-5.52,0c0,2.86.78,3.6,2.22,3.6s2.22-.76,2.22-3.61c0-3.06-.71-3.89-2.22-3.89S409.19,221.65,409.19,224.75Z" fill="#4c4c4c"/><path d="M488.2,229.15v-.9l2.66-2.79c1.13-1.18,1.83-1.92,1.83-3,0-1.22-.68-1.6-2-1.6a13.36,13.36,0,0,0-2.36.3l-.08-.88a11.09,11.09,0,0,1,2.63-.37c1.91,0,2.88.73,2.88,2.44,0,1.36-.62,2.16-1.9,3.4l-2.43,2.47H494v.92Z" fill="#4c4c4c"/><path d="M499.93,227.37h-4.41v-.83l2.59-6.48h1.16l-2.64,6.37h3.3V223.6H501v2.83h1.16v.94H501v1.78h-1.06Z" fill="#4c4c4c"/><g style="isolation:isolate"><rect x="94.08" y="138.52" width="12.67" height="75.17" fill="#76ce89"/><g clip-path="url(#clip-path)"><polygon points="94.31 213.68 94.08 138.57 106.52 138.52 106.75 213.63 94.31 213.68" fill="#76ce89"/></g></g><g style="isolation:isolate"><rect x="112" y="140.61" width="12.67" height="73.07" fill="#76ce89"/><g clip-path="url(#clip-path-2)"><polygon points="112.23 213.68 112 140.67 124.45 140.61 124.67 213.63 112.23 213.68" fill="#76ce89"/></g></g><g style="isolation:isolate"><rect x="129.92" y="143.75" width="12.66" height="69.93" fill="#76ce89"/><g clip-path="url(#clip-path-3)"><polygon points="130.14 213.68 129.92 143.81 142.37 143.75 142.58 213.63 130.14 213.68" fill="#76ce89"/></g></g><g style="isolation:isolate"><rect x="147.84" y="144.1" width="12.66" height="69.58" fill="#76ce89"/><g clip-path="url(#clip-path-4)"><polygon points="148.05 213.68 147.84 144.16 160.28 144.1 160.5 213.63 148.05 213.68" fill="#76ce89"/></g></g><g style="isolation:isolate"><rect x="165.75" y="144.12" width="12.65" height="69.57" fill="#76ce89"/><g clip-path="url(#clip-path-5)"><polygon points="165.96 213.68 165.74 144.17 178.19 144.11 178.4 213.63 165.96 213.68" fill="#76ce89"/></g></g><g style="isolation:isolate"><rect x="183.65" y="144.1" width="12.65" height="69.58" fill="#76ce89"/><g clip-path="url(#clip-path-6)"><polygon points="183.86 213.68 183.65 144.16 196.09 144.11 196.31 213.63 183.86 213.68" fill="#76ce89"/></g></g><g style="isolation:isolate"><rect x="201.55" y="147.63" width="12.65" height="66.05" fill="#76ce89"/><g clip-path="url(#clip-path-7)"><polygon points="201.76 213.68 201.56 147.68 214 147.63 214.21 213.63 201.76 213.68" fill="#76ce89"/></g></g><g style="isolation:isolate"><rect x="219.46" y="149.97" width="12.63" height="63.71" fill="#76ce89"/><g clip-path="url(#clip-path-8)"><polygon points="219.65 213.68 219.45 150.02 231.9 149.97 232.09 213.63 219.65 213.68" fill="#76ce89"/></g></g><g style="isolation:isolate"><rect x="237.34" y="149.97" width="12.63" height="63.71" fill="#76ce89"/><g clip-path="url(#clip-path-9)"><polygon points="237.53 213.68 237.33 150.02 249.78 149.97 249.97 213.63 237.53 213.68" fill="#76ce89"/></g></g><g style="isolation:isolate"><rect x="255.22" y="152.31" width="12.63" height="61.38" fill="#76ce89"/><g clip-path="url(#clip-path-10)"><polygon points="255.4 213.68 255.22 152.36 267.66 152.31 267.85 213.63 255.4 213.68" fill="#76ce89"/></g></g><g style="isolation:isolate"><rect x="273.1" y="153.49" width="12.63" height="60.2" fill="#76ce89"/><g clip-path="url(#clip-path-11)"><polygon points="273.29 213.68 273.1 153.54 285.55 153.48 285.73 213.63 273.29 213.68" fill="#76ce89"/></g></g><g style="isolation:isolate"><rect x="290.98" y="155.82" width="12.62" height="57.86" fill="#76ce89"/><g clip-path="url(#clip-path-12)"><polygon points="291.16 213.68 290.99 155.88 303.43 155.82 303.61 213.63 291.16 213.68" fill="#76ce89"/></g></g><g style="isolation:isolate"><rect x="308.86" y="158.17" width="12.61" height="55.51" fill="#76ce89"/><g clip-path="url(#clip-path-13)"><polygon points="309.03 213.68 308.86 158.22 321.3 158.17 321.47 213.63 309.03 213.68" fill="#76ce89"/></g></g><g style="isolation:isolate"><rect x="326.72" y="161.68" width="12.6" height="52.01" fill="#76ce89"/><g clip-path="url(#clip-path-14)"><polygon points="326.88 213.68 326.71 161.73 339.16 161.68 339.32 213.63 326.88 213.68" fill="#76ce89"/></g></g><g style="isolation:isolate"><rect x="344.57" y="164.02" width="12.59" height="49.66" fill="#76ce89"/><g clip-path="url(#clip-path-15)"><polygon points="344.72 213.68 344.57 164.08 357.01 164.02 357.17 213.63 344.72 213.68" fill="#76ce89"/></g></g><rect x="362.41" y="167.55" width="12.58" height="46.14" fill="#ffda00"/><g clip-path="url(#clip-path-16)"><polygon points="362.56 213.68 362.42 167.6 374.86 167.55 375 213.63 362.56 213.68" fill="#ffda00"/></g><rect x="380.25" y="171.06" width="12.57" height="42.62" fill="#ffda00"/><g clip-path="url(#clip-path-17)"><polygon points="380.38 213.68 380.24 171.11 392.69 171.06 392.82 213.63 380.38 213.68" fill="#ffda00"/></g><rect x="398.07" y="193.94" width="12.56" height="19.74" fill="#ff4200"/><g clip-path="url(#clip-path-18)"><polygon points="398.19 213.68 398.07 193.97 410.51 193.94 410.64 213.66 398.19 213.68" fill="#ff4200"/></g><rect x="415.88" y="165.8" width="12.54" height="47.89" fill="#76ce89"/><g clip-path="url(#clip-path-19)"><polygon points="415.98 213.68 415.88 165.87 428.32 165.8 428.43 213.61 415.98 213.68" fill="#76ce89"/></g><g style="isolation:isolate"><rect x="469.21" y="159.35" width="12.6" height="54.34" fill="#76ce89"/><g clip-path="url(#clip-path-20)"><polygon points="469.37 213.68 469.2 159.4 481.65 159.35 481.82 213.63 469.37 213.68" fill="#76ce89"/></g></g><g style="isolation:isolate"><rect x="487.06" y="159.35" width="12.59" height="54.34" fill="#76ce89"/><g clip-path="url(#clip-path-21)"><polygon points="487.21 213.68 487.06 159.4 499.5 159.34 499.66 213.62 487.21 213.68" fill="#76ce89"/></g></g><rect x="433.67" y="159.35" width="12.53" height="54.34" fill="#76ce89"/><g clip-path="url(#clip-path-22)"><polygon points="433.76 213.68 433.68 159.46 446.12 159.36 446.21 213.57 433.76 213.68" fill="#76ce89"/></g><rect x="451.46" y="159.35" width="12.51" height="54.34" fill="#76ce89"/><g clip-path="url(#clip-path-23)"><polygon points="451.52 213.68 451.45 159.48 463.9 159.34 463.96 213.54 451.52 213.68" fill="#76ce89"/></g><g style="isolation:isolate"><rect x="76.15" y="134.31" width="12.68" height="79.42" fill="#76ce89"/><g clip-path="url(#clip-path-24)"><polygon points="76.39 213.73 76.14 134.36 88.59 134.31 88.83 213.68 76.39 213.73" fill="#76ce89"/></g></g><g style="isolation:isolate"><rect x="58.21" y="131.17" width="12.69" height="82.62" fill="#76ce89"/><g clip-path="url(#clip-path-25)"><polygon points="58.46 213.79 58.2 131.22 70.65 131.17 70.9 213.74 58.46 213.79" fill="#76ce89"/></g></g></g></g></svg>