<svg xmlns="http://www.w3.org/2000/svg" xmlns:xlink="http://www.w3.org/1999/xlink" viewBox="0 0 579.59 494.77"><defs><clipPath id="clip-path"><rect x="92.48" y="143.84" width="13.08" height="72.04" fill="#76ce89"/></clipPath><clipPath id="clip-path-2"><rect x="110.04" y="145.85" width="13.08" height="70.03" fill="#76ce89"/></clipPath><clipPath id="clip-path-3"><rect x="127.59" y="148.86" width="13.07" height="67.02" fill="#76ce89"/></clipPath><clipPath id="clip-path-4"><rect x="145.14" y="149.2" width="13.07" height="66.68" fill="#76ce89"/></clipPath><clipPath id="clip-path-5"><rect x="162.69" y="149.21" width="13.06" height="66.67" fill="#76ce89"/></clipPath><clipPath id="clip-path-6"><rect x="180.23" y="149.2" width="13.06" height="66.68" fill="#76ce89"/></clipPath><clipPath id="clip-path-7"><rect x="197.77" y="152.58" width="13.06" height="63.3" fill="#76ce89"/></clipPath><clipPath id="clip-path-8"><rect x="215.3" y="154.82" width="13.04" height="61.06" fill="#76ce89"/></clipPath><clipPath id="clip-path-9"><rect x="232.82" y="154.82" width="13.04" height="61.06" fill="#76ce89"/></clipPath><clipPath id="clip-path-10"><rect x="250.34" y="157.06" width="13.04" height="58.82" fill="#76ce89"/></clipPath><clipPath id="clip-path-11"><rect x="267.86" y="158.19" width="13.04" height="57.69" fill="#76ce89"/></clipPath><clipPath id="clip-path-12"><rect x="285.37" y="160.43" width="13.03" height="55.45" fill="#76ce89"/></clipPath><clipPath id="clip-path-13"><rect x="302.88" y="162.68" width="13.02" height="53.2" fill="#76ce89"/></clipPath><clipPath id="clip-path-14"><rect x="320.38" y="166.04" width="13.01" height="49.84" fill="#76ce89"/></clipPath><clipPath id="clip-path-15"><rect x="337.86" y="168.29" width="13" height="47.59" fill="#ffda00"/></clipPath><clipPath id="clip-path-16"><rect x="355.34" y="171.67" width="12.99" height="44.22" fill="#ffda00"/></clipPath><clipPath id="clip-path-17"><rect x="372.8" y="182.88" width="12.95" height="33" fill="none"/></clipPath><clipPath id="clip-path-18"><rect x="425.04" y="163.81" width="13.01" height="52.07" fill="#76ce89"/></clipPath><clipPath id="clip-path-19"><rect x="442.52" y="168.3" width="13" height="47.58" fill="#76ce89"/></clipPath><clipPath id="clip-path-20"><rect x="460" y="171.66" width="13" height="44.23" fill="#76ce89"/></clipPath><clipPath id="clip-path-21"><rect x="477.48" y="171.66" width="13" height="44.23" fill="#76ce89"/></clipPath><clipPath id="clip-path-22"><rect x="390.23" y="196.36" width="12.95" height="19.53" fill="#ff4200"/></clipPath><clipPath id="clip-path-23"><rect x="407.65" y="163.81" width="12.91" height="52.07" fill="#76ce89"/></clipPath><clipPath id="clip-path-24"><rect x="74.91" y="139.81" width="13.09" height="76.11" fill="#76ce89"/></clipPath><clipPath id="clip-path-25"><rect x="57.33" y="136.8" width="13.1" height="79.18" fill="#76ce89"/></clipPath></defs><title>wear_tear_sectionA_tablet</title><g id="Layer_2" data-name="Layer 2"><g id="Layer_2-2" data-name="Layer 2"><rect y="0.5" width="579.59" height="494.27" fill="#f7f7f7"/><line x1="0.23" y1="0.5" x2="579.59" y2="0.5" fill="none" stroke="#ddd" stroke-miterlimit="10"/></g><g id="WT_Screen_Assets"><path d="M42.59,266.29h1.95l2.74,8.2,2.75-8.2H52V276H50.9v-8.55h-.2l-2.81,8.2H46.68l-2.81-8.2h-.2V276H42.59Z" fill="#4c4c4c"/><path d="M59.11,274.68c0,.41.37.56.82.62l0,.83a2.13,2.13,0,0,1-1.66-.56,7.16,7.16,0,0,1-2.52.56c-1.28,0-2-.73-2-2.15s.7-1.93,2.14-2.07l2.2-.21v-.6c0-1-.42-1.33-1.26-1.33s-2.65.18-2.65.18l0-.8a16.87,16.87,0,0,1,2.75-.31c1.58,0,2.25.73,2.25,2.26Zm-3.12-2c-.86.09-1.19.49-1.19,1.26s.35,1.29,1.06,1.29a7.46,7.46,0,0,0,2.2-.43V272.5Z" fill="#4c4c4c"/><path d="M61.18,266.18h1v1.22h-1Zm0,2.8h1v7h-1Z" fill="#4c4c4c"/><path d="M64.25,276v-7h1v.49a5.36,5.36,0,0,1,2.18-.63c1.93,0,2.36,1,2.36,3.45V276h-1v-3.67c0-1.85-.21-2.54-1.52-2.54a4.8,4.8,0,0,0-2,.52V276Z" fill="#4c4c4c"/><path d="M73.17,269.89v3.35c0,1.53.1,2,1,2,.39,0,1.24-.08,1.24-.08l.07.87a12.62,12.62,0,0,1-1.43.15c-1.44,0-1.93-.55-1.93-2.56v-3.69h-1V269h1v-2.14h1V269h2.22v.91Z" fill="#4c4c4c"/><path d="M81.85,275.08l0,.82a23.89,23.89,0,0,1-2.73.23c-2.09,0-2.78-1.22-2.78-3.6,0-2.67,1.15-3.69,2.93-3.69s2.82,1,2.82,3.28l-.06.8H77.44c0,1.5.46,2.28,1.83,2.28C80.32,275.2,81.85,275.08,81.85,275.08Zm-.79-3c0-1.74-.53-2.36-1.76-2.36s-1.86.66-1.88,2.36Z" fill="#4c4c4c"/><path d="M83.75,276v-7h1v.49a5.29,5.29,0,0,1,2.17-.63c1.93,0,2.37,1,2.37,3.45V276h-1v-3.67c0-1.85-.21-2.54-1.51-2.54a4.81,4.81,0,0,0-2,.52V276Z" fill="#4c4c4c"/><path d="M96.21,274.68c0,.41.37.56.82.62l0,.83a2.13,2.13,0,0,1-1.66-.56,7.17,7.17,0,0,1-2.53.56c-1.27,0-2-.73-2-2.15s.7-1.93,2.14-2.07l2.2-.21v-.6c0-1-.42-1.33-1.26-1.33s-2.65.18-2.65.18l0-.8a16.87,16.87,0,0,1,2.75-.31c1.58,0,2.25.73,2.25,2.26Zm-3.12-2c-.86.09-1.19.49-1.19,1.26s.35,1.29,1.06,1.29a7.46,7.46,0,0,0,2.2-.43V272.5Z" fill="#4c4c4c"/><path d="M98.28,276v-7h1v.49a5.29,5.29,0,0,1,2.17-.63c1.93,0,2.37,1,2.37,3.45V276h-1v-3.67c0-1.85-.21-2.54-1.51-2.54a4.81,4.81,0,0,0-2,.52V276Z" fill="#4c4c4c"/><path d="M110.32,269.05l0,.86s-1.12-.13-1.65-.13c-1.61,0-2,.7-2,2.58,0,2.07.33,2.83,2.06,2.83.54,0,1.66-.13,1.66-.13l0,.87a18.46,18.46,0,0,1-2,.2c-2.23,0-2.88-1-2.88-3.77,0-2.54.82-3.52,2.91-3.52A16.26,16.26,0,0,1,110.32,269.05Z" fill="#4c4c4c"/><path d="M117.07,275.08l0,.82a23.89,23.89,0,0,1-2.73.23c-2.09,0-2.78-1.22-2.78-3.6,0-2.67,1.15-3.69,2.93-3.69s2.82,1,2.82,3.28l-.06.8h-4.62c0,1.5.46,2.28,1.83,2.28C115.54,275.2,117.07,275.08,117.07,275.08Zm-.78-3c0-1.74-.54-2.36-1.77-2.36s-1.86.66-1.87,2.36Z" fill="#4c4c4c"/><path d="M46.11,77.17c1.89,0,2.88.74,2.88,2.46a2.13,2.13,0,0,1-1.24,2.23,2.13,2.13,0,0,1,1.54,2.28c0,2-1.18,2.72-3,2.72h-3.7V77.17Zm-2.44,1v3.35h2.49c1.22,0,1.73-.58,1.73-1.74s-.59-1.61-1.83-1.61Zm0,4.29v3.5h2.58c1.17,0,1.94-.38,1.94-1.81s-1.27-1.69-2-1.69Z" fill="#4c4c4c"/><path d="M56,85.56c0,.4.36.56.81.61l0,.83a2.15,2.15,0,0,1-1.67-.56,7.16,7.16,0,0,1-2.52.56c-1.28,0-2-.73-2-2.14s.7-1.94,2.15-2.08l2.2-.21V82c0-1-.42-1.33-1.26-1.33s-2.65.18-2.65.18l0-.8a17.38,17.38,0,0,1,2.74-.3c1.59,0,2.26.72,2.26,2.25Zm-3.13-2c-.85.08-1.19.49-1.19,1.26s.35,1.29,1.07,1.29a7.41,7.41,0,0,0,2.2-.44V83.37Z" fill="#4c4c4c"/><path d="M59.45,80.77v3.34c0,1.53.1,2,1,2,.39,0,1.24-.09,1.24-.09l.07.87a12.62,12.62,0,0,1-1.43.15c-1.44,0-1.93-.54-1.93-2.56V80.77h-1v-.91h1V77.71h1v2.15h2.22v.91Z" fill="#4c4c4c"/><path d="M64.36,80.77v3.34c0,1.53.1,2,1,2,.39,0,1.25-.09,1.25-.09l.07.87a12.62,12.62,0,0,1-1.43.15c-1.44,0-1.93-.54-1.93-2.56V80.77h-1v-.91h1V77.71h1v2.15h2.23v.91Z" fill="#4c4c4c"/><path d="M73,86l0,.83a25,25,0,0,1-2.73.22c-2.09,0-2.77-1.22-2.77-3.6,0-2.66,1.14-3.68,2.92-3.68s2.82,1,2.82,3.27l-.06.8H68.63c0,1.5.46,2.29,1.84,2.29C71.52,86.08,73,86,73,86Zm-.78-3c0-1.74-.53-2.35-1.77-2.35s-1.86.66-1.87,2.35Z" fill="#4c4c4c"/><path d="M75,79.86h1v1a8,8,0,0,1,2.56-1.11v1.07a9.92,9.92,0,0,0-2.54,1v5.14H75Z" fill="#4c4c4c"/><path d="M80.18,79.86,81.93,86h.46l1.77-6.09h1L82.3,90h-1l.91-3.11h-1l-2-7Z" fill="#4c4c4c"/><path d="M89.81,86.86V77.17h1.08v8.72h4.26v1Z" fill="#4c4c4c"/><path d="M101.51,86l0,.83A24.68,24.68,0,0,1,98.8,87C96.71,87,96,85.78,96,83.4c0-2.66,1.15-3.68,2.93-3.68s2.81,1,2.81,3.27l0,.8H97.09c0,1.5.47,2.29,1.84,2.29C100,86.08,101.51,86,101.51,86Zm-.79-3c0-1.74-.53-2.35-1.76-2.35s-1.87.66-1.88,2.35Z" fill="#4c4c4c"/><path d="M103.87,79.86,105.51,86H106l1.69-6.09h1.08l-2,7h-2.11l-2-7Z" fill="#4c4c4c"/><path d="M115.31,86l0,.83a25,25,0,0,1-2.73.22c-2.09,0-2.78-1.22-2.78-3.6,0-2.66,1.15-3.68,2.93-3.68s2.82,1,2.82,3.27l-.06.8H110.9c0,1.5.46,2.29,1.83,2.29C113.78,86.08,115.31,86,115.31,86Zm-.79-3c0-1.74-.53-2.35-1.76-2.35s-1.86.66-1.88,2.35Z" fill="#4c4c4c"/><path d="M117.29,76.8h1.06V86.86h-1.06Z" fill="#4c4c4c"/><path d="M43.21,362h1.53l2.15,6.44L49.05,362h1.53v7.62h-.85v-6.71h-.15l-2.21,6.43h-.95l-2.21-6.43h-.16v6.71h-.84Z" fill="#4c4c4c"/><path d="M56.19,368.54c0,.32.28.44.64.49l0,.65a1.69,1.69,0,0,1-1.31-.44,5.62,5.62,0,0,1-2,.44c-1,0-1.55-.58-1.55-1.69s.55-1.52,1.68-1.63l1.73-.16v-.47c0-.77-.33-1.05-1-1.05s-2.08.14-2.08.14l0-.62a12.93,12.93,0,0,1,2.16-.25c1.24,0,1.77.58,1.77,1.78ZM53.73,367c-.67.07-.93.39-.93,1s.27,1,.83,1a5.82,5.82,0,0,0,1.73-.34v-1.81Z" fill="#4c4c4c"/><path d="M57.81,364.07h.82v.74a6.27,6.27,0,0,1,2-.87v.84a8,8,0,0,0-2,.75v4h-.83Z" fill="#4c4c4c"/><path d="M100.9,362h1.85l2.09,7.62H104l-.55-2H100.2l-.55,2h-.84Zm-.51,4.9h2.88l-1.16-4.17h-.57Z" fill="#4c4c4c"/><path d="M105.9,364.07h.81v.39a3.74,3.74,0,0,1,1.65-.51c1.39,0,2,.85,2,2.8,0,2.16-.7,2.93-2.4,2.93a6.39,6.39,0,0,1-1.23-.13V372h-.82Zm.82,1.06v3.71a8.82,8.82,0,0,0,1.19.12c1.21,0,1.61-.63,1.61-2.21s-.48-2.06-1.28-2.06A3.59,3.59,0,0,0,106.72,365.13Z" fill="#4c4c4c"/><path d="M111.69,364.07h.82v.74a6.27,6.27,0,0,1,2-.87v.84a8,8,0,0,0-2,.75v4h-.83Z" fill="#4c4c4c"/><path d="M154.72,368.52c0,1.65-.64,1.84-2.09,1.84v-.76c1,0,1.24-.07,1.24-1.2V362h.84Z" fill="#4c4c4c"/><path d="M160.66,364.07v5.5h-.82v-.39a3.72,3.72,0,0,1-1.63.5c-1.54,0-1.86-.72-1.86-2.74v-2.87h.82v2.86c0,1.51.14,2,1.16,2a3.36,3.36,0,0,0,1.51-.41v-4.46Z" fill="#4c4c4c"/><path d="M162.24,369.57v-5.5h.82v.38a4.14,4.14,0,0,1,1.7-.5c1.52,0,1.86.75,1.86,2.71v2.91h-.81v-2.89c0-1.45-.17-2-1.19-2a3.75,3.75,0,0,0-1.55.41v4.47Z" fill="#4c4c4c"/><path d="M207.37,368.52c0,1.65-.64,1.84-2.09,1.84v-.76c1,0,1.24-.07,1.24-1.2V362h.84Z" fill="#4c4c4c"/><path d="M213.31,364.07v5.5h-.83v-.39a3.65,3.65,0,0,1-1.62.5c-1.54,0-1.86-.72-1.86-2.74v-2.87h.82v2.86c0,1.51.13,2,1.16,2a3.29,3.29,0,0,0,1.5-.41v-4.46Z" fill="#4c4c4c"/><path d="M215,361.67h.82v7.9H215Z" fill="#4c4c4c"/><path d="M256.72,362h1.85l2.09,7.62h-.84l-.55-2H256l-.55,2h-.84Zm-.52,4.9h2.88l-1.15-4.17h-.57Z" fill="#4c4c4c"/><path d="M266,364.07v5.5h-.82v-.39a3.72,3.72,0,0,1-1.63.5c-1.54,0-1.86-.72-1.86-2.74v-2.87h.82v2.86c0,1.51.14,2,1.16,2a3.36,3.36,0,0,0,1.51-.41v-4.46Z" fill="#4c4c4c"/><path d="M267.31,370.49c0-.64.3-.94.87-1.36a.9.9,0,0,1-.31-.76,3.51,3.51,0,0,1,.38-.87,1.59,1.59,0,0,1-.87-1.66c0-1.36.83-1.89,2.06-1.89a5.38,5.38,0,0,1,1.14.15l1.63-.05v.71l-1,0a1.4,1.4,0,0,1,.37,1.1c0,1.43-.72,1.86-2.13,1.86a5.16,5.16,0,0,1-.54-.05,3.37,3.37,0,0,0-.2.63c0,.44.09.5,1.34.5,1.56,0,2.12.31,2.12,1.62s-.89,1.75-2.44,1.75C267.94,372.15,267.31,371.77,267.31,370.49Zm1.43-1c-.46.34-.61.54-.61,1,0,.76.32,1,1.56,1s1.59-.3,1.59-1-.35-.93-1.35-.93C269.54,369.51,268.74,369.46,268.74,369.46Zm2-3.62c0-.87-.34-1.21-1.26-1.21s-1.24.34-1.24,1.21.38,1.2,1.24,1.2S270.7,366.71,270.7,365.84Z" fill="#4c4c4c"/><path d="M315.34,362.77s-1.53-.19-2.17-.19c-1.07,0-1.65.38-1.65,1.24s.53,1.16,1.86,1.46c1.52.34,2.19.71,2.19,2,0,1.69-.92,2.35-2.43,2.35a19.47,19.47,0,0,1-2.41-.25l.09-.7s1.5.2,2.28.2c1.08,0,1.63-.48,1.63-1.53,0-.86-.46-1.1-1.7-1.34-1.57-.35-2.36-.72-2.36-2.17s1-2.05,2.45-2.05a19,19,0,0,1,2.3.22Z" fill="#4c4c4c"/><path d="M321,368.85l0,.65a18.65,18.65,0,0,1-2.14.18c-1.64,0-2.18-1-2.18-2.83,0-2.09.9-2.9,2.3-2.9s2.21.78,2.21,2.58l0,.63h-3.63c0,1.17.36,1.79,1.44,1.79C319.75,369,321,368.85,321,368.85Zm-.61-2.35c0-1.37-.42-1.85-1.39-1.85s-1.46.52-1.48,1.85Z" fill="#4c4c4c"/><path d="M322.45,364.07h.81v.39a3.74,3.74,0,0,1,1.65-.51c1.39,0,2,.85,2,2.8,0,2.16-.7,2.93-2.4,2.93a6.39,6.39,0,0,1-1.23-.13V372h-.82Zm.82,1.06v3.71a8.82,8.82,0,0,0,1.19.12c1.21,0,1.61-.63,1.61-2.21s-.48-2.06-1.28-2.06A3.59,3.59,0,0,0,323.27,365.13Z" fill="#4c4c4c"/><path d="M365.8,365.79c0-2.51.65-4,3-4s3,1.42,3,4-.65,3.89-3,3.89S365.8,368.35,365.8,365.79Zm5.14,0c0-2.06-.4-3.2-2.13-3.2s-2.14,1.13-2.14,3.2.37,3.14,2.14,3.14S370.94,367.94,370.94,365.79Z" fill="#4c4c4c"/><path d="M376.78,364.12l0,.67s-.88-.1-1.3-.1c-1.27,0-1.61.55-1.61,2s.26,2.22,1.62,2.22c.42,0,1.3-.1,1.3-.1l0,.68a14,14,0,0,1-1.53.16c-1.75,0-2.26-.81-2.26-3,0-2,.64-2.77,2.28-2.77A12.4,12.4,0,0,1,376.78,364.12Z" fill="#4c4c4c"/><path d="M379.12,364.78v2.63c0,1.2.08,1.54.79,1.54.31,0,1-.07,1-.07l.06.69a9.79,9.79,0,0,1-1.12.12c-1.14,0-1.52-.43-1.52-2v-2.89h-.78v-.71h.78v-1.69h.81v1.69h1.75v.71Z" fill="#4c4c4c"/><path d="M419.75,362h1.58l2.92,6.87h.23V362h.84v7.62h-1.55l-3-6.87h-.21v6.87h-.85Z" fill="#4c4c4c"/><path d="M431.51,366.75c0,2-.5,2.93-2.36,2.93s-2.35-.93-2.35-2.93.62-2.8,2.35-2.8S431.51,364.86,431.51,366.75Zm-.85,0c0-1.53-.33-2.08-1.51-2.08s-1.5.55-1.5,2.08.21,2.21,1.5,2.21S430.66,368.31,430.66,366.75Z" fill="#4c4c4c"/><path d="M433.11,364.07l1.29,4.78h.41l1.33-4.78H437l-1.55,5.5h-1.66l-1.55-5.5Z" fill="#4c4c4c"/><path d="M475.91,369.57V362h2.71c2.22,0,2.82,1.54,2.82,3.7s-.57,3.92-2.82,3.92Zm2.71-6.87h-1.87v6.12h1.87c1.59,0,1.95-1.52,1.95-3.17S480.21,362.7,478.62,362.7Z" fill="#4c4c4c"/><path d="M486.92,368.85l0,.65a18.65,18.65,0,0,1-2.14.18c-1.64,0-2.18-1-2.18-2.83,0-2.09.9-2.9,2.3-2.9s2.21.78,2.21,2.58l-.05.63h-3.63c0,1.17.37,1.79,1.44,1.79C485.72,369,486.92,368.85,486.92,368.85Zm-.62-2.35c0-1.37-.42-1.85-1.38-1.85s-1.47.52-1.48,1.85Z" fill="#4c4c4c"/><path d="M492,364.12l0,.67s-.88-.1-1.29-.1c-1.27,0-1.61.55-1.61,2s.25,2.22,1.62,2.22c.42,0,1.3-.1,1.3-.1l0,.68a14.29,14.29,0,0,1-1.53.16c-1.75,0-2.27-.81-2.27-3,0-2,.65-2.77,2.29-2.77A12.4,12.4,0,0,1,492,364.12Z" fill="#4c4c4c"/><line x1="491.18" y1="354.91" x2="39.35" y2="354.91" fill="none" stroke="#adadad" stroke-miterlimit="10"/><path d="M46.2,25.48h3.36l3.8,13.84H51.84l-1-3.56H44.92l-1,3.56H42.4Zm-.94,8.9H50.5L48.4,26.8h-1Z"/><path d="M61,32.24h3.82V39a33.71,33.71,0,0,1-4.5.48c-4.24,0-5.36-2.6-5.36-7.08s1.16-7.16,5.32-7.16a25.77,25.77,0,0,1,4.54.52l-.06,1.28a31.73,31.73,0,0,0-4.3-.42c-3.2,0-3.9,1.86-3.9,5.78s.68,5.72,3.88,5.72a18.56,18.56,0,0,0,2.86-.28V33.62H61Z"/><path d="M77.32,25.48,73.7,39.32H70.26L66.64,25.48h1.6L71.42,38h1.12l3.18-12.48Z"/><path d="M83.64,26.46a15.43,15.43,0,0,1,3.88-.56c3.12,0,4.22,1.1,4.22,3.44a3.3,3.3,0,0,1-2,3,2.87,2.87,0,0,1,2.28,3.2c0,2.66-1.3,4-4.28,4A21.78,21.78,0,0,1,83.44,39l.14-1.26a23.88,23.88,0,0,0,4,.44c2,0,2.86-.86,2.86-2.56s-1.22-2.42-2.72-2.48H85.1V31.8h2.66a2.48,2.48,0,0,0,2.4-2.4c0-1.5-.74-2.12-2.7-2.12a20.15,20.15,0,0,0-3.68.4Z"/><path d="M39.55,427.73h9V429h-3.8v11.21H43.38V429H39.55Z" fill="#3a3d3f"/><path d="M57.39,435.59c0,3.27-.81,4.78-3.85,4.78s-3.86-1.51-3.86-4.78c0-3.1,1-4.58,3.86-4.58S57.39,432.49,57.39,435.59Zm-1.39,0c0-2.51-.54-3.41-2.46-3.41s-2.47.9-2.47,3.41.34,3.61,2.47,3.61S56,438.14,56,435.59Z" fill="#3a3d3f"/><path d="M66.5,440.19H65.16v-.61a6.42,6.42,0,0,1-2.73.79c-1.77,0-3.24-.72-3.24-4.6,0-3.17,1-4.76,3.76-4.76a14,14,0,0,1,2.21.24v-4H66.5Zm-1.34-1.69v-6.1a14.12,14.12,0,0,0-2.14-.22c-1.89,0-2.45,1.25-2.45,3.59,0,2.91,1,3.4,2,3.4A6.47,6.47,0,0,0,65.16,438.5Z" fill="#3a3d3f"/><path d="M75.46,438.52c0,.52.47.72,1,.79l0,1.06a2.75,2.75,0,0,1-2.14-.72,9.2,9.2,0,0,1-3.24.72c-1.64,0-2.54-.93-2.54-2.75s.9-2.48,2.75-2.67l2.83-.26v-.78c0-1.26-.54-1.71-1.62-1.71-1.26,0-3.4.24-3.4.24l-.06-1a21.6,21.6,0,0,1,3.53-.4c2,0,2.9.94,2.9,2.9Zm-4-2.56c-1.1.11-1.54.63-1.54,1.62s.46,1.66,1.37,1.66a9.48,9.48,0,0,0,2.83-.56v-3Z" fill="#3a3d3f"/><path d="M78.63,431.19,80.88,439h.59l2.27-7.84h1.35l-3.74,13H80l1.17-4H79.83l-2.55-9Z" fill="#3a3d3f"/><path d="M90.78,427.59h1.35v1.57H90.78Zm0,3.6h1.35v9H90.78Z" fill="#3a3d3f"/><path d="M96.52,432.36v4.31c0,2,.12,2.52,1.29,2.52.51,0,1.61-.11,1.61-.11l.09,1.11a15.71,15.71,0,0,1-1.84.2c-1.85,0-2.48-.7-2.48-3.29v-4.74H93.91v-1.17h1.28v-2.75h1.33v2.75h2.86v1.17Z" fill="#3a3d3f"/><path d="M105,427.59h1.36v1.57H105Zm0,3.6h1.36v9H105Z" fill="#3a3d3f"/><path d="M114.92,432.51a29.33,29.33,0,0,0-3.16-.29c-1.11,0-2,.31-2,1.37,0,.84.43,1.08,2.34,1.4,2.25.38,3.1.83,3.1,2.58,0,2.1-1.33,2.8-3.49,2.8a25.4,25.4,0,0,1-3.17-.34l.07-1.17a29.5,29.5,0,0,0,3,.31c1.48,0,2.27-.33,2.27-1.55,0-.94-.47-1.17-2.43-1.48s-3-.7-3-2.5c0-2,1.6-2.63,3.24-2.63a23.19,23.19,0,0,1,3.26.34Z" fill="#3a3d3f"/><path d="M121.27,431.19h1.33v.65a6.12,6.12,0,0,1,2.7-.83c2.27,0,3.26,1.39,3.26,4.58,0,3.52-1.15,4.78-3.93,4.78a12.32,12.32,0,0,1-2-.19v4h-1.35Zm1.35,1.75V439a14.72,14.72,0,0,0,1.94.19c2,0,2.63-1,2.63-3.61s-.77-3.37-2.09-3.37A5.86,5.86,0,0,0,122.62,432.94Z" fill="#3a3d3f"/><path d="M138.06,435.59c0,3.27-.81,4.78-3.85,4.78s-3.85-1.51-3.85-4.78c0-3.1,1-4.58,3.85-4.58S138.06,432.49,138.06,435.59Zm-1.38,0c0-2.51-.54-3.41-2.47-3.41s-2.47.9-2.47,3.41.35,3.61,2.47,3.61S136.68,438.14,136.68,435.59Z" fill="#3a3d3f"/><path d="M146.24,432.51a29.33,29.33,0,0,0-3.16-.29c-1.11,0-2,.31-2,1.37,0,.84.43,1.08,2.34,1.4,2.25.38,3.1.83,3.1,2.58,0,2.1-1.33,2.8-3.49,2.8a25.4,25.4,0,0,1-3.17-.34l.07-1.17a29.5,29.5,0,0,0,3,.31c1.48,0,2.27-.33,2.27-1.55,0-.94-.47-1.17-2.43-1.48s-3-.7-3-2.5c0-2,1.6-2.63,3.24-2.63a23.19,23.19,0,0,1,3.26.34Z" fill="#3a3d3f"/><path d="M154.61,432.51a29.33,29.33,0,0,0-3.16-.29c-1.11,0-2,.31-2,1.37,0,.84.43,1.08,2.34,1.4,2.25.38,3.1.83,3.1,2.58,0,2.1-1.33,2.8-3.49,2.8a25.4,25.4,0,0,1-3.17-.34l.07-1.17a29.5,29.5,0,0,0,3,.31c1.48,0,2.27-.33,2.27-1.55,0-.94-.47-1.17-2.43-1.48s-3-.7-3-2.5c0-2,1.6-2.63,3.24-2.63a23.19,23.19,0,0,1,3.26.34Z" fill="#3a3d3f"/><path d="M157,427.59h1.35v1.57H157Zm0,3.6h1.35v9H157Z" fill="#3a3d3f"/><path d="M168.2,435.55c0,3.58-1,4.82-4.25,4.82-1.08,0-3-.19-3-.19V427.27h1.33v4.37a7.44,7.44,0,0,1,2.65-.63C167.37,431,168.2,432.31,168.2,435.55Zm-1.37,0c0-2.32-.47-3.33-2.05-3.33a7.59,7.59,0,0,0-2.51.52v6.34s1.17.09,1.66.09C166.4,439.17,166.83,438.07,166.83,435.55Z" fill="#3a3d3f"/><path d="M170.52,427.27h1.35v12.92h-1.35Z" fill="#3a3d3f"/><path d="M181.21,439l0,1.06a32.47,32.47,0,0,1-3.51.28c-2.69,0-3.57-1.56-3.57-4.62,0-3.42,1.48-4.74,3.76-4.74s3.62,1.26,3.62,4.22l-.07,1h-5.94c0,1.93.59,2.94,2.36,2.94C179.25,439.19,181.21,439,181.21,439Zm-1-3.86c0-2.23-.68-3-2.27-3s-2.39.84-2.41,3Z" fill="#3a3d3f"/><path d="M189.42,432.36v4.31c0,2,.12,2.52,1.29,2.52.51,0,1.61-.11,1.61-.11l.09,1.11a15.71,15.71,0,0,1-1.84.2c-1.86,0-2.49-.7-2.49-3.29v-4.74h-1.27v-1.17h1.27v-2.75h1.34v2.75h2.86v1.17Z" fill="#3a3d3f"/><path d="M201.24,435.59c0,3.27-.81,4.78-3.85,4.78s-3.85-1.51-3.85-4.78c0-3.1,1-4.58,3.85-4.58S201.24,432.49,201.24,435.59Zm-1.38,0c0-2.51-.54-3.41-2.47-3.41s-2.47.9-2.47,3.41.35,3.61,2.47,3.61S199.86,438.14,199.86,435.59Z" fill="#3a3d3f"/><path d="M214.37,431.19v9H213v-.63a6.14,6.14,0,0,1-2.67.81c-2.52,0-3-1.17-3-4.48v-4.7h1.35v4.68c0,2.49.21,3.3,1.89,3.3a5.47,5.47,0,0,0,2.47-.67v-7.31Z" fill="#3a3d3f"/><path d="M222.93,432.51a29.33,29.33,0,0,0-3.15-.29c-1.11,0-2,.31-2,1.37,0,.84.43,1.08,2.34,1.4,2.25.38,3.1.83,3.1,2.58,0,2.1-1.34,2.8-3.5,2.8a25.4,25.4,0,0,1-3.16-.34l.07-1.17a29.5,29.5,0,0,0,3,.31c1.48,0,2.27-.33,2.27-1.55,0-.94-.47-1.17-2.43-1.48s-3-.7-3-2.5c0-2,1.6-2.63,3.24-2.63a23.19,23.19,0,0,1,3.26.34Z" fill="#3a3d3f"/><path d="M232,439l0,1.06a32.5,32.5,0,0,1-3.52.28c-2.68,0-3.56-1.56-3.56-4.62,0-3.42,1.48-4.74,3.76-4.74s3.62,1.26,3.62,4.22l-.07,1H226.3c0,1.93.59,2.94,2.36,2.94C230,439.19,232,439,232,439Zm-1-3.86c0-2.23-.68-3-2.27-3s-2.39.84-2.41,3Z" fill="#3a3d3f"/><path d="M240.93,427.73h3l3.42,12.46H246l-.9-3.2h-5.33l-.9,3.2h-1.37Zm-.84,8h4.71l-1.89-6.83H242Z" fill="#3a3d3f"/><path d="M254.27,433.82h3.44v6.12a29.1,29.1,0,0,1-4,.43c-3.82,0-4.83-2.34-4.83-6.37s1-6.44,4.79-6.44a23.65,23.65,0,0,1,4.09.46l0,1.16a28.6,28.6,0,0,0-3.88-.38c-2.88,0-3.51,1.67-3.51,5.2s.62,5.15,3.5,5.15a16.71,16.71,0,0,0,2.57-.25v-3.84h-2.07Z" fill="#3a3d3f"/><path d="M268.94,427.73l-3.26,12.46h-3.09l-3.26-12.46h1.44L263.63,439h1l2.86-11.24Z" fill="#3a3d3f"/><path d="M274.57,440.19V439l3.48-3.66c1.47-1.53,2.39-2.5,2.39-3.91,0-1.58-.88-2.09-2.59-2.09a17.06,17.06,0,0,0-3.08.4l-.11-1.15a14.3,14.3,0,0,1,3.44-.49c2.5,0,3.76,1,3.76,3.19,0,1.78-.81,2.83-2.48,4.45L276.21,439h6v1.2Z" fill="#3a3d3f"/><path d="M295,438.52c0,.52.47.72,1.05.79l-.06,1.06a2.75,2.75,0,0,1-2.14-.72,9.2,9.2,0,0,1-3.24.72c-1.64,0-2.54-.93-2.54-2.75s.9-2.48,2.75-2.67l2.83-.26v-.78c0-1.26-.54-1.71-1.62-1.71-1.26,0-3.4.24-3.4.24l-.06-1a21.77,21.77,0,0,1,3.53-.4c2,0,2.9.94,2.9,2.9ZM291,436c-1.1.11-1.53.63-1.53,1.62s.45,1.66,1.36,1.66a9.48,9.48,0,0,0,2.83-.56v-3Z" fill="#3a3d3f"/><path d="M299.48,432.36v4.31c0,2,.13,2.52,1.3,2.52.5,0,1.6-.11,1.6-.11l.09,1.11a15.44,15.44,0,0,1-1.83.2c-1.86,0-2.49-.7-2.49-3.29v-4.74h-1.28v-1.17h1.28v-2.75h1.33v2.75h2.87v1.17Z" fill="#3a3d3f"/><path d="M308,427.59h1.35v1.57H308Zm0,3.6h1.35v9H308Z" fill="#3a3d3f"/><path d="M313.7,432.36v4.31c0,2,.13,2.52,1.3,2.52.51,0,1.6-.11,1.6-.11l.09,1.11a15.44,15.44,0,0,1-1.83.2c-1.86,0-2.49-.7-2.49-3.29v-4.74h-1.28v-1.17h1.28v-2.75h1.33v2.75h2.87v1.17Z" fill="#3a3d3f"/><path d="M324.2,432.51a29.33,29.33,0,0,0-3.15-.29c-1.12,0-2,.31-2,1.37,0,.84.43,1.08,2.34,1.4,2.25.38,3.1.83,3.1,2.58,0,2.1-1.34,2.8-3.5,2.8a25.65,25.65,0,0,1-3.17-.34l.07-1.17a29.8,29.8,0,0,0,3,.31c1.47,0,2.26-.33,2.26-1.55,0-.94-.46-1.17-2.43-1.48s-3-.7-3-2.5c0-2,1.6-2.63,3.24-2.63a23.19,23.19,0,0,1,3.26.34Z" fill="#3a3d3f"/><path d="M332.28,440.19h-1.35v-7.83H329.8v-1.17h1.13v-.81c0-2.59.67-3.29,2.43-3.29.61,0,1.82.12,1.82.12l0,1.12s-1,0-1.55,0c-1,0-1.33.44-1.33,2.11v.79h2.61v1.17h-2.61Z" fill="#3a3d3f"/><path d="M343.48,431.19v9h-1.35v-.63a6.08,6.08,0,0,1-2.67.81c-2.52,0-3-1.17-3-4.48v-4.7h1.35v4.68c0,2.49.22,3.3,1.89,3.3a5.47,5.47,0,0,0,2.47-.67v-7.31Z" fill="#3a3d3f"/><path d="M346.18,427.27h1.35v12.92h-1.35Z" fill="#3a3d3f"/><path d="M350.33,427.27h1.36v12.92h-1.36Z" fill="#3a3d3f"/><path d="M358.34,431.19h1.34v.65a6.12,6.12,0,0,1,2.7-.83c2.27,0,3.26,1.39,3.26,4.58,0,3.52-1.15,4.78-3.93,4.78a12.32,12.32,0,0,1-2-.19v4h-1.36Zm1.36,1.75V439a14.72,14.72,0,0,0,1.94.19c2,0,2.63-1,2.63-3.61s-.78-3.37-2.09-3.37A5.86,5.86,0,0,0,359.7,432.94Z" fill="#3a3d3f"/><path d="M374.48,439l0,1.06a32.2,32.2,0,0,1-3.51.28c-2.68,0-3.56-1.56-3.56-4.62,0-3.42,1.47-4.74,3.76-4.74s3.62,1.26,3.62,4.22l-.08,1H368.8c0,1.93.6,2.94,2.36,2.94C372.51,439.19,374.48,439,374.48,439Zm-1-3.86c0-2.23-.69-3-2.27-3s-2.4.84-2.41,3Z" fill="#3a3d3f"/><path d="M376.92,431.19h1.33v1.23a10.32,10.32,0,0,1,3.3-1.43v1.37a13,13,0,0,0-3.28,1.23v6.6h-1.35Z" fill="#3a3d3f"/><path d="M384.88,440.19h-1.35v-7.83h-1.14v-1.17h1.14v-.81c0-2.59.66-3.29,2.43-3.29.61,0,1.82.12,1.82.12l0,1.12s-1,0-1.55,0c-1,0-1.33.44-1.33,2.11v.79h2.61v1.17h-2.61Z" fill="#3a3d3f"/><path d="M396.42,435.59c0,3.27-.81,4.78-3.86,4.78s-3.85-1.51-3.85-4.78c0-3.1,1-4.58,3.85-4.58S396.42,432.49,396.42,435.59Zm-1.39,0c0-2.51-.54-3.41-2.47-3.41s-2.46.9-2.46,3.41.34,3.61,2.46,3.61S395,438.14,395,435.59Z" fill="#3a3d3f"/><path d="M398.61,431.19h1.33v1.23a10.32,10.32,0,0,1,3.3-1.43v1.37a13,13,0,0,0-3.28,1.23v6.6h-1.35Z" fill="#3a3d3f"/><path d="M404.84,440.19v-9h1.33v.63a6,6,0,0,1,2.63-.81,2.53,2.53,0,0,1,2.34.92,7.46,7.46,0,0,1,3.2-.92c2.45,0,3.05,1.17,3.05,4.43v4.75H416v-4.71c0-2.38-.27-3.26-1.89-3.26a6,6,0,0,0-2.54.66,10.4,10.4,0,0,1,.23,2.63v4.68h-1.35v-4.64c0-2.48-.25-3.33-1.89-3.33a5.39,5.39,0,0,0-2.41.66v7.31Z" fill="#3a3d3f"/><path d="M426.24,438.52c0,.52.47.72,1.05.79l-.06,1.06a2.75,2.75,0,0,1-2.14-.72,9.2,9.2,0,0,1-3.24.72c-1.64,0-2.54-.93-2.54-2.75s.9-2.48,2.75-2.67l2.83-.26v-.78c0-1.26-.54-1.71-1.62-1.71-1.26,0-3.4.24-3.4.24l-.06-1a21.6,21.6,0,0,1,3.53-.4c2,0,2.9.94,2.9,2.9Zm-4-2.56c-1.1.11-1.53.63-1.53,1.62s.45,1.66,1.36,1.66a9.48,9.48,0,0,0,2.83-.56v-3Z" fill="#3a3d3f"/><path d="M428.9,440.19v-9h1.34v.63A6.79,6.79,0,0,1,433,431c2.48,0,3,1.23,3,4.43v4.75h-1.33v-4.71c0-2.38-.27-3.26-1.95-3.26a6.25,6.25,0,0,0-2.54.66v7.31Z" fill="#3a3d3f"/><path d="M444.39,431.28l-.06,1.1s-1.44-.16-2.12-.16c-2.07,0-2.63.9-2.63,3.31,0,2.67.41,3.64,2.64,3.64.69,0,2.13-.16,2.13-.16l0,1.11a24,24,0,0,1-2.5.25c-2.86,0-3.71-1.31-3.71-4.84,0-3.26,1.06-4.52,3.75-4.52A21.18,21.18,0,0,1,444.39,431.28Z" fill="#3a3d3f"/><path d="M453.06,439l0,1.06a32.47,32.47,0,0,1-3.51.28c-2.69,0-3.57-1.56-3.57-4.62,0-3.42,1.48-4.74,3.76-4.74s3.62,1.26,3.62,4.22l-.07,1h-5.94c0,1.93.59,2.94,2.36,2.94C451.1,439.19,453.06,439,453.06,439Zm-1-3.86c0-2.23-.68-3-2.27-3s-2.39.84-2.41,3Z" fill="#3a3d3f"/><path d="M455.42,438.14h1.47v2.05h-1.47Z" fill="#3a3d3f"/><path d="M463.59,427.73H465v12.46h-1.39Z" fill="#3a3d3f"/><path d="M469.58,432.36v4.31c0,2,.13,2.52,1.3,2.52.5,0,1.6-.11,1.6-.11l.09,1.11a15.44,15.44,0,0,1-1.83.2c-1.86,0-2.49-.7-2.49-3.29v-4.74H467v-1.17h1.28v-2.75h1.33v2.75h2.87v1.17Z" fill="#3a3d3f"/><path d="M478.67,431.19l1.82,7.84h.29l2.14-7.66h1.41l2.14,7.66h.31l1.8-7.84h1.35l-2.15,9h-2.25l-1.91-7-1.9,7h-2.25l-2.15-9Z" fill="#3a3d3f"/><path d="M499.09,435.59c0,3.27-.81,4.78-3.86,4.78s-3.85-1.51-3.85-4.78c0-3.1,1-4.58,3.85-4.58S499.09,432.49,499.09,435.59Zm-1.39,0c0-2.51-.54-3.41-2.47-3.41s-2.46.9-2.46,3.41.34,3.61,2.46,3.61S497.7,438.14,497.7,435.59Z" fill="#3a3d3f"/><path d="M508.25,431.19v9H506.9v-.63a6.08,6.08,0,0,1-2.67.81c-2.52,0-3-1.17-3-4.48v-4.7h1.35v4.68c0,2.49.22,3.3,1.89,3.3a5.47,5.47,0,0,0,2.47-.67v-7.31Z" fill="#3a3d3f"/><path d="M511,427.27h1.35v12.92H511Z" fill="#3a3d3f"/><path d="M521.91,440.19h-1.33v-.61a6.49,6.49,0,0,1-2.74.79c-1.76,0-3.24-.72-3.24-4.6,0-3.17,1-4.76,3.76-4.76a14.13,14.13,0,0,1,2.22.24v-4h1.33Zm-1.33-1.69v-6.1a14.42,14.42,0,0,0-2.14-.22c-1.9,0-2.45,1.25-2.45,3.59,0,2.91,1,3.4,2,3.4A6.54,6.54,0,0,0,520.58,438.5Z" fill="#3a3d3f"/><path d="M40.61,468.19v-9h1.33v.63a6.86,6.86,0,0,1,2.8-.81c2.48,0,3,1.23,3,4.43v4.75H46.45v-4.71c0-2.38-.27-3.26-2-3.26a6.19,6.19,0,0,0-2.54.66v7.31Z" fill="#3a3d3f"/><path d="M56.92,467l0,1.06a32.2,32.2,0,0,1-3.51.28c-2.69,0-3.57-1.56-3.57-4.62,0-3.42,1.48-4.74,3.76-4.74s3.62,1.26,3.62,4.22l-.07,1H51.25c0,1.93.59,2.94,2.36,2.94C55,467.19,56.92,467,56.92,467Zm-1-3.86c0-2.23-.68-3-2.27-3s-2.39.84-2.41,3Z" fill="#3a3d3f"/><path d="M66,467l0,1.06a32.47,32.47,0,0,1-3.51.28c-2.69,0-3.57-1.56-3.57-4.62,0-3.42,1.48-4.74,3.76-4.74s3.62,1.26,3.62,4.22l-.07,1H60.34c0,1.93.59,2.94,2.36,2.94C64.05,467.19,66,467,66,467Zm-1-3.86c0-2.23-.68-3-2.27-3s-2.39.84-2.41,3Z" fill="#3a3d3f"/><path d="M75.37,468.19H74v-.61a6.49,6.49,0,0,1-2.74.79c-1.76,0-3.24-.72-3.24-4.6,0-3.17,1-4.76,3.76-4.76a14.13,14.13,0,0,1,2.22.24v-4h1.33ZM74,466.5v-6.1a14.42,14.42,0,0,0-2.14-.22c-1.89,0-2.45,1.25-2.45,3.59,0,2.91,1,3.4,2,3.4A6.54,6.54,0,0,0,74,466.5Z" fill="#3a3d3f"/><path d="M87.75,459.28l0,1.1s-1.44-.16-2.12-.16c-2.07,0-2.63.9-2.63,3.31,0,2.67.41,3.64,2.64,3.64.69,0,2.13-.16,2.13-.16l0,1.11a24,24,0,0,1-2.5.25c-2.86,0-3.71-1.31-3.71-4.84,0-3.26,1.06-4.52,3.75-4.52A20.91,20.91,0,0,1,87.75,459.28Z" fill="#3a3d3f"/><path d="M89.79,468.19V455.27h1.35v4.43a7.55,7.55,0,0,1,2.77-.69c2.47,0,3,1.23,3,4.43v4.75H95.6v-4.71c0-2.38-.27-3.26-1.92-3.26a7.41,7.41,0,0,0-2.54.54v7.43Z" fill="#3a3d3f"/><path d="M105.81,466.52c0,.52.47.72,1,.79l0,1.06a2.74,2.74,0,0,1-2.14-.72,9.22,9.22,0,0,1-3.25.72c-1.63,0-2.53-.93-2.53-2.75s.9-2.48,2.75-2.67l2.83-.26v-.78c0-1.26-.54-1.71-1.62-1.71-1.26,0-3.41.24-3.41.24l-.05-1a21.6,21.6,0,0,1,3.53-.4c2,0,2.9.94,2.9,2.9Zm-4-2.56c-1.09.11-1.53.63-1.53,1.62s.45,1.66,1.37,1.66a9.57,9.57,0,0,0,2.83-.56v-3Z" fill="#3a3d3f"/><path d="M108.47,459.19h1.33v1.23a10.32,10.32,0,0,1,3.3-1.43v1.37a13,13,0,0,0-3.28,1.23v6.6h-1.35Z" fill="#3a3d3f"/><path d="M114.3,469.71c0-1,.49-1.53,1.42-2.24a1.46,1.46,0,0,1-.5-1.24,5.82,5.82,0,0,1,.61-1.42c-.75-.34-1.42-1.06-1.42-2.72,0-2.21,1.37-3.08,3.37-3.08a9.07,9.07,0,0,1,1.87.24l2.66-.08v1.16l-1.71,0a2.31,2.31,0,0,1,.6,1.8c0,2.34-1.17,3-3.48,3a6.79,6.79,0,0,1-.88-.07,5.32,5.32,0,0,0-.32,1c0,.72.14.83,2.18.83,2.55,0,3.47.5,3.47,2.64s-1.46,2.87-4,2.87C115.33,472.43,114.3,471.8,114.3,469.71Zm2.34-1.69c-.75.55-1,.88-1,1.58,0,1.24.53,1.69,2.56,1.69,1.8,0,2.61-.48,2.61-1.67,0-1.37-.57-1.51-2.21-1.51C118,468.11,116.64,468,116.64,468Zm3.21-5.93c0-1.42-.56-2-2.07-2s-2,.56-2,2,.61,2,2,2S119.85,463.51,119.85,462.09Z" fill="#3a3d3f"/><path d="M130.59,467l0,1.06a32.2,32.2,0,0,1-3.51.28c-2.68,0-3.57-1.56-3.57-4.62,0-3.42,1.48-4.74,3.77-4.74s3.62,1.26,3.62,4.22l-.08,1h-5.94c0,1.93.6,2.94,2.36,2.94C128.63,467.19,130.59,467,130.59,467Zm-1-3.86c0-2.23-.68-3-2.26-3s-2.4.84-2.42,3Z" fill="#3a3d3f"/><path d="M143.36,466.52c0,.52.46.72,1,.79l-.05,1.06a2.76,2.76,0,0,1-2.15-.72,9.2,9.2,0,0,1-3.24.72c-1.64,0-2.54-.93-2.54-2.75s.9-2.48,2.76-2.67l2.82-.26v-.78c0-1.26-.54-1.71-1.62-1.71-1.26,0-3.4.24-3.4.24l0-1a21.6,21.6,0,0,1,3.53-.4c2,0,2.9.94,2.9,2.9Zm-4-2.56c-1.1.11-1.53.63-1.53,1.62s.45,1.66,1.37,1.66a9.47,9.47,0,0,0,2.82-.56v-3Z" fill="#3a3d3f"/><path d="M146,459.19h1.33v1.23a10.34,10.34,0,0,1,3.29-1.43v1.37a12.81,12.81,0,0,0-3.27,1.23v6.6H146Z" fill="#3a3d3f"/><path d="M159.55,463.59c0,3.27-.81,4.78-3.85,4.78s-3.85-1.51-3.85-4.78c0-3.1,1-4.58,3.85-4.58S159.55,460.49,159.55,463.59Zm-1.38,0c0-2.51-.54-3.41-2.47-3.41s-2.46.9-2.46,3.41.34,3.61,2.46,3.61S158.17,466.14,158.17,463.59Z" fill="#3a3d3f"/><path d="M168.72,459.19v9h-1.35v-.63a6.08,6.08,0,0,1-2.67.81c-2.52,0-3-1.17-3-4.48v-4.7H163v4.68c0,2.49.21,3.3,1.89,3.3a5.47,5.47,0,0,0,2.47-.67v-7.31Z" fill="#3a3d3f"/><path d="M171.31,468.19v-9h1.33v.63a6.85,6.85,0,0,1,2.79-.81c2.48,0,3,1.23,3,4.43v4.75h-1.33v-4.71c0-2.38-.27-3.26-1.94-3.26a6.19,6.19,0,0,0-2.54.66v7.31Z" fill="#3a3d3f"/><path d="M187.89,468.19h-1.34v-.61a6.42,6.42,0,0,1-2.73.79c-1.77,0-3.24-.72-3.24-4.6,0-3.17,1-4.76,3.76-4.76a14.12,14.12,0,0,1,2.21.24v-4h1.34Zm-1.34-1.69v-6.1a14.12,14.12,0,0,0-2.14-.22c-1.89,0-2.45,1.25-2.45,3.59,0,2.91,1,3.4,2,3.4A6.47,6.47,0,0,0,186.55,466.5Z" fill="#3a3d3f"/><path d="M194.4,468.19V467l3.47-3.66c1.48-1.53,2.4-2.5,2.4-3.91,0-1.58-.88-2.09-2.59-2.09a17.06,17.06,0,0,0-3.08.4l-.11-1.15a14.3,14.3,0,0,1,3.44-.49c2.5,0,3.76,1,3.76,3.19,0,1.78-.81,2.83-2.48,4.45L196,467h6v1.2Z" fill="#3a3d3f"/><path d="M209,456.31h1.29v11.88h-1.39V457.86l-3.06,2-.63-1.05Z" fill="#3a3d3f"/><path d="M214.52,460.34H216v2.06h-1.48Zm0,5.8H216v2.05h-1.48Z" fill="#3a3d3f"/><path d="M226.59,462.43c0,4.56-1.61,5.94-4.33,5.94s-4.33-1.34-4.33-5.92c0-4.9,1.58-6.34,4.32-6.34S226.59,457.54,226.59,462.43Zm-7.22,0c0,3.73,1,4.7,2.89,4.7s2.9-1,2.9-4.72c0-4-.91-5.07-2.9-5.07S219.37,458.4,219.37,462.45Z" fill="#3a3d3f"/><path d="M236.67,462.43c0,4.56-1.61,5.94-4.33,5.94S228,467,228,462.45c0-4.9,1.58-6.34,4.32-6.34S236.67,457.54,236.67,462.43Zm-7.22,0c0,3.73,1,4.7,2.89,4.7s2.9-1,2.9-4.72c0-4-.91-5.07-2.9-5.07S229.45,458.4,229.45,462.45Z" fill="#3a3d3f"/><path d="M238.59,466.14h1.48v2.05h-1.48Z" fill="#3a3d3f"/><line x1="41.89" y1="47.63" x2="541.48" y2="47.63" fill="none" stroke="#ddd" stroke-miterlimit="10"/><path d="M67.93,226.74H63.7V226l2.48-6.23h1.11l-2.52,6.12h3.16v-2.72h1v2.72h1.11v.9H69v1.7h-1Z" fill="#4c4c4c"/><path d="M48.64,216.54c0,3.34-1.17,4.36-3.17,4.36s-3.18-1-3.18-4.35c0-3.6,1.16-4.65,3.17-4.65S48.64,212.94,48.64,216.54Zm-5.3,0c0,2.73.76,3.45,2.13,3.45s2.13-.73,2.13-3.46c0-2.94-.68-3.73-2.13-3.73S43.34,213.58,43.34,216.55Z" fill="#4c4c4c"/><path d="M42.68,194.72v-.86l2.55-2.68c1.09-1.13,1.76-1.84,1.76-2.87s-.65-1.53-1.9-1.53a12.64,12.64,0,0,0-2.26.29l-.08-.85a10.42,10.42,0,0,1,2.52-.36c1.84,0,2.76.7,2.76,2.34,0,1.31-.59,2.08-1.82,3.27l-2.33,2.36h4.38v.89Z" fill="#4c4c4c"/><path d="M46.53,166H42.3v-.79L44.78,159h1.11l-2.52,6.12h3.16v-2.72h1v2.72h1.11v.9H47.55v1.7h-1Z" fill="#4c4c4c"/><path d="M48.14,133a20,20,0,0,0-2.3-.16c-1.52,0-2.35,1.08-2.35,3a7.23,7.23,0,0,1,2.18-.52c1.93,0,2.93.88,2.93,2.71s-1.11,2.88-3.05,2.88c-2.17,0-3.12-1.7-3.12-4.53,0-3.16,1.34-4.45,3.41-4.45a16.64,16.64,0,0,1,2.39.22Zm-4.66,3.75c0,1.86.56,3.27,2.07,3.27a1.79,1.79,0,0,0,2-2c0-1.21-.73-1.79-1.95-1.79A6.09,6.09,0,0,0,43.48,136.73Z" fill="#4c4c4c"/><path d="M142.27,221.86a1.94,1.94,0,0,1-1.46,2,2.19,2.19,0,0,1,1.59,2.19c0,1.92-1.48,2.5-3.29,2.5s-3.25-.54-3.25-2.35a2.33,2.33,0,0,1,1.51-2.34,2,2,0,0,1-1.37-2.05c0-1.51,1.21-2.26,3.11-2.26S142.27,220.33,142.27,221.86Zm-1,4.13c0-1-.68-1.35-1.55-1.6h-1.39c-.91.25-1.44.7-1.44,1.68,0,1.2.93,1.59,2.17,1.59S141.32,227.27,141.32,226Zm-4.23-4c0,.81.43,1.23,1.29,1.53h1.39c.9-.29,1.41-.71,1.41-1.52,0-1-.77-1.46-2.06-1.46S137.09,220.93,137.09,222Z" fill="#4c4c4c"/><path d="M211.89,219.74h1v8.72h-1v-7.59l-2.25,1.48-.46-.76Z" fill="#4c4c4c"/><path d="M216,228.46v-.86l2.55-2.68c1.09-1.13,1.76-1.84,1.76-2.87s-.65-1.53-1.9-1.53a12.64,12.64,0,0,0-2.26.29l-.08-.85a10.42,10.42,0,0,1,2.52-.36c1.84,0,2.76.7,2.76,2.34,0,1.31-.59,2.08-1.82,3.27l-2.32,2.36h4.37v.89Z" fill="#4c4c4c"/><path d="M291.56,219.74h.95v8.72h-1v-7.59l-2.25,1.48-.46-.76Z" fill="#4c4c4c"/><path d="M301.13,220.66a19.75,19.75,0,0,0-2.29-.16c-1.52,0-2.36,1.09-2.36,3a7.23,7.23,0,0,1,2.18-.52c1.93,0,2.94.87,2.94,2.71s-1.11,2.88-3.05,2.88c-2.17,0-3.12-1.7-3.12-4.53,0-3.16,1.33-4.46,3.41-4.46a16,16,0,0,1,2.39.23Zm-4.66,3.75c0,1.87.57,3.28,2.08,3.28a1.79,1.79,0,0,0,2-2c0-1.22-.73-1.8-1.94-1.8A6.11,6.11,0,0,0,296.47,224.41Z" fill="#4c4c4c"/><path d="M367.94,228.46v-.86l2.55-2.68c1.09-1.13,1.76-1.84,1.76-2.87s-.65-1.53-1.9-1.53a12.64,12.64,0,0,0-2.26.29L368,220a10.53,10.53,0,0,1,2.52-.36c1.84,0,2.77.7,2.77,2.34,0,1.31-.6,2.08-1.83,3.27l-2.32,2.36h4.37v.89Z" fill="#4c4c4c"/><path d="M381.3,224.23c0,3.34-1.17,4.36-3.17,4.36s-3.18-1-3.18-4.35c0-3.59,1.16-4.65,3.17-4.65S381.3,220.64,381.3,224.23Zm-5.3,0c0,2.74.76,3.45,2.13,3.45s2.13-.73,2.13-3.46c0-2.93-.68-3.73-2.13-3.73S376,221.27,376,224.24Z" fill="#4c4c4c"/><path d="M478.39,228.46v-.86l2.55-2.68c1.08-1.13,1.76-1.84,1.76-2.87s-.65-1.53-1.91-1.53a12.8,12.8,0,0,0-2.26.29l-.07-.85a10.42,10.42,0,0,1,2.52-.36c1.84,0,2.76.7,2.76,2.34,0,1.31-.59,2.08-1.82,3.27l-2.33,2.36H484v.89Z" fill="#4c4c4c"/><path d="M489.63,226.75H485.4V226l2.49-6.22H489l-2.53,6.11h3.16v-2.72h1v2.72h1.11v.9h-1.11v1.71h-1Z" fill="#4c4c4c"/><line x1="56.19" y1="131.1" x2="56.19" y2="223.88" fill="none" stroke="#adadad" stroke-miterlimit="10"/><line x1="492.01" y1="216.43" x2="52.18" y2="216.43" fill="none" stroke="#adadad" stroke-miterlimit="10"/><g style="isolation:isolate"><rect x="92.48" y="143.84" width="13.08" height="72.04" fill="#76ce89"/><g clip-path="url(#clip-path)"><rect x="92.59" y="143.87" width="12.84" height="71.98" transform="translate(-0.6 0.33) rotate(-0.19)" fill="#76ce89"/></g></g><g style="isolation:isolate"><rect x="110.04" y="145.85" width="13.08" height="70.03" fill="#76ce89"/><g clip-path="url(#clip-path-2)"><rect x="110.15" y="145.88" width="12.84" height="69.97" transform="translate(-0.6 0.39) rotate(-0.19)" fill="#76ce89"/></g></g><g style="isolation:isolate"><rect x="127.59" y="148.86" width="13.07" height="67.02" fill="#76ce89"/><g clip-path="url(#clip-path-3)"><rect x="127.7" y="148.89" width="12.84" height="66.97" transform="translate(-0.61 0.45) rotate(-0.19)" fill="#76ce89"/></g></g><g style="isolation:isolate"><rect x="145.14" y="149.2" width="13.07" height="66.68" fill="#76ce89"/><g clip-path="url(#clip-path-4)"><rect x="145.26" y="149.22" width="12.84" height="66.63" transform="translate(-0.61 0.51) rotate(-0.19)" fill="#76ce89"/></g></g><g style="isolation:isolate"><rect x="162.69" y="149.21" width="13.06" height="66.67" fill="#76ce89"/><g clip-path="url(#clip-path-5)"><rect x="162.8" y="149.23" width="12.84" height="66.62" transform="translate(-0.61 0.56) rotate(-0.19)" fill="#76ce89"/></g></g><g style="isolation:isolate"><rect x="180.23" y="149.2" width="13.06" height="66.68" fill="#76ce89"/><g clip-path="url(#clip-path-6)"><rect x="180.33" y="149.23" width="12.84" height="66.63" transform="translate(-0.61 0.62) rotate(-0.19)" fill="#76ce89"/></g></g><g style="isolation:isolate"><rect x="197.77" y="152.58" width="13.06" height="63.3" fill="#76ce89"/><g clip-path="url(#clip-path-7)"><rect x="197.88" y="152.6" width="12.84" height="63.25" transform="translate(-0.61 0.68) rotate(-0.19)" fill="#76ce89"/></g></g><g style="isolation:isolate"><rect x="215.3" y="154.82" width="13.04" height="61.06" fill="#76ce89"/><g clip-path="url(#clip-path-8)"><rect x="215.4" y="154.84" width="12.84" height="61.01" transform="translate(-0.62 0.74) rotate(-0.19)" fill="#76ce89"/></g></g><g style="isolation:isolate"><rect x="232.82" y="154.82" width="13.04" height="61.06" fill="#76ce89"/><g clip-path="url(#clip-path-9)"><rect x="232.92" y="154.84" width="12.84" height="61.01" transform="translate(-0.61 0.8) rotate(-0.19)" fill="#76ce89"/></g></g><g style="isolation:isolate"><rect x="250.34" y="157.06" width="13.04" height="58.82" fill="#76ce89"/><g clip-path="url(#clip-path-10)"><rect x="250.43" y="157.09" width="12.84" height="58.77" transform="translate(-0.62 0.86) rotate(-0.19)" fill="#76ce89"/></g></g><g style="isolation:isolate"><rect x="267.86" y="158.19" width="13.04" height="57.69" fill="#76ce89"/><g clip-path="url(#clip-path-11)"><rect x="267.95" y="158.21" width="12.84" height="57.64" transform="translate(-0.62 0.91) rotate(-0.19)" fill="#76ce89"/></g></g><g style="isolation:isolate"><rect x="285.37" y="160.43" width="13.03" height="55.45" fill="#76ce89"/><g clip-path="url(#clip-path-12)"><rect x="285.47" y="160.45" width="12.84" height="55.4" transform="translate(-0.62 0.97) rotate(-0.19)" fill="#76ce89"/></g></g><g style="isolation:isolate"><rect x="302.88" y="162.68" width="13.02" height="53.2" fill="#76ce89"/><g clip-path="url(#clip-path-13)"><rect x="302.97" y="162.7" width="12.84" height="53.15" transform="translate(-0.63 1.03) rotate(-0.19)" fill="#76ce89"/></g></g><g style="isolation:isolate"><rect x="320.38" y="166.04" width="13.01" height="49.84" fill="#76ce89"/><g clip-path="url(#clip-path-14)"><rect x="320.46" y="166.07" width="12.84" height="49.79" transform="translate(-0.63 1.09) rotate(-0.19)" fill="#76ce89"/></g></g><rect x="337.86" y="168.29" width="13" height="47.59" fill="#ffda00"/><g clip-path="url(#clip-path-15)"><rect x="337.94" y="168.31" width="12.84" height="47.54" transform="translate(-0.64 1.15) rotate(-0.19)" fill="#ffda00"/></g><rect x="355.34" y="171.67" width="12.99" height="44.22" fill="#ffda00"/><g clip-path="url(#clip-path-16)"><rect x="355.41" y="171.69" width="12.84" height="44.16" transform="translate(-0.64 1.21) rotate(-0.19)" fill="#ffda00"/></g><g style="isolation:isolate"><g clip-path="url(#clip-path-17)"><rect x="372.86" y="182.91" width="12.84" height="32.94" transform="translate(-0.66 1.26) rotate(-0.19)" fill="#ffda00"/></g></g><g style="isolation:isolate"><rect x="425.04" y="163.81" width="13.01" height="52.07" fill="#76ce89"/><g clip-path="url(#clip-path-18)"><rect x="425.12" y="163.84" width="12.84" height="52.02" transform="translate(-0.63 1.44) rotate(-0.19)" fill="#76ce89"/></g></g><g style="isolation:isolate"><rect x="442.52" y="168.3" width="13" height="47.58" fill="#76ce89"/><g clip-path="url(#clip-path-19)"><rect x="442.6" y="168.32" width="12.84" height="47.54" transform="translate(-0.64 1.5) rotate(-0.19)" fill="#76ce89"/></g></g><g style="isolation:isolate"><rect x="460" y="171.66" width="13" height="44.23" fill="#76ce89"/><g clip-path="url(#clip-path-20)"><rect x="460.08" y="171.68" width="12.84" height="44.17" transform="translate(-0.64 1.55) rotate(-0.19)" fill="#76ce89"/></g></g><g style="isolation:isolate"><rect x="477.48" y="171.66" width="13" height="44.23" fill="#76ce89"/><g clip-path="url(#clip-path-21)"><rect x="477.55" y="171.68" width="12.84" height="44.17" transform="matrix(1, 0, 0, 1, -0.64, 1.61)" fill="#76ce89"/></g></g><rect x="390.23" y="196.36" width="12.95" height="19.53" fill="#ff4200"/><g clip-path="url(#clip-path-22)"><polygon points="390.33 215.88 390.23 196.39 403.07 196.36 403.17 215.85 390.33 215.88" fill="#ff4200"/></g><rect x="407.65" y="163.81" width="12.91" height="52.07" fill="#76ce89"/><g clip-path="url(#clip-path-23)"><polygon points="407.72 215.88 407.65 163.94 420.5 163.8 420.56 215.74 407.72 215.88" fill="#76ce89"/></g><g style="isolation:isolate"><rect x="74.91" y="139.81" width="13.09" height="76.11" fill="#76ce89"/><g clip-path="url(#clip-path-24)"><rect x="75.03" y="139.84" width="12.84" height="76.07" transform="translate(-0.59 0.27) rotate(-0.19)" fill="#76ce89"/></g></g><g style="isolation:isolate"><rect x="57.33" y="136.8" width="13.1" height="79.18" fill="#76ce89"/><g clip-path="url(#clip-path-25)"><rect x="57.46" y="136.83" width="12.84" height="79.13" transform="translate(-0.59 0.21) rotate(-0.19)" fill="#76ce89"/></g></g><polyline points="41.94 348.62 58.53 348.62 79.87 345.62 94.09 339.62 110.69 330.62 129.65 324.62 146.25 317.62 155.73 311.62 178.25 302.62 199.59 298.62 226.85 302.62 244.63 308.62 267.15 316.62 283.75 330.62 297.97 335.62 324.05 339.62 351.31 343.62 369.09 344.62 408.21 345.62 448.51 348.62 479.33 345.62 491.18 339.62" fill="none" stroke="#3899e8"/><polyline points="41.94 349.12 58.53 349.12 79.87 346.12 94.09 340.12 110.69 331.12 129.65 325.12 146.25 318.12 155.73 312.12 178.25 303.12 199.59 301.12 226.85 305.12 244.63 309.12 267.15 317.12 283.75 331.12 297.97 336.12 324.05 340.12 351.31 344.12 369.09 345.12 408.21 346.12 448.51 349.12 479.33 346.12 491.18 340.12" fill="none" stroke="#8dc5f2" opacity="0.8" style="isolation:isolate"/></g></g></svg>