<svg xmlns="http://www.w3.org/2000/svg" xmlns:xlink="http://www.w3.org/1999/xlink" viewBox="0 0 579.59 494.77"><defs><clipPath id="clip-path"><rect x="85.42" y="143.34" width="13.36" height="71.21" fill="#76ce89"/></clipPath><clipPath id="clip-path-2"><rect x="102.77" y="145.33" width="13.36" height="69.23" fill="#76ce89"/></clipPath><clipPath id="clip-path-3"><rect x="120.12" y="148.3" width="13.35" height="66.25" fill="#76ce89"/></clipPath><clipPath id="clip-path-4"><rect x="137.46" y="148.64" width="13.35" height="65.92" fill="#76ce89"/></clipPath><clipPath id="clip-path-5"><rect x="154.8" y="148.65" width="13.34" height="65.91" fill="#76ce89"/></clipPath><clipPath id="clip-path-6"><rect x="172.13" y="148.64" width="13.34" height="65.92" fill="#76ce89"/></clipPath><clipPath id="clip-path-7"><rect x="189.47" y="151.98" width="13.34" height="62.58" fill="#76ce89"/></clipPath><clipPath id="clip-path-8"><rect x="206.8" y="154.2" width="13.32" height="60.36" fill="#76ce89"/></clipPath><clipPath id="clip-path-9"><rect x="224.11" y="154.2" width="13.32" height="60.36" fill="#76ce89"/></clipPath><clipPath id="clip-path-10"><rect x="241.42" y="156.41" width="13.32" height="58.15" fill="#76ce89"/></clipPath><clipPath id="clip-path-11"><rect x="258.73" y="157.53" width="13.32" height="57.03" fill="#76ce89"/></clipPath><clipPath id="clip-path-12"><rect x="276.04" y="159.74" width="13.31" height="54.82" fill="#76ce89"/></clipPath><clipPath id="clip-path-13"><rect x="293.33" y="161.97" width="13.3" height="52.59" fill="#76ce89"/></clipPath><clipPath id="clip-path-14"><rect x="310.62" y="165.29" width="13.29" height="49.27" fill="#ffda00"/></clipPath><clipPath id="clip-path-15"><rect x="327.9" y="167.51" width="13.28" height="47.05" fill="#ffda00"/></clipPath><clipPath id="clip-path-16"><rect x="345.17" y="195.26" width="13.27" height="19.3" fill="#ff4200"/></clipPath><clipPath id="clip-path-17"><rect x="362.43" y="165.29" width="13.26" height="49.27" fill="#76ce89"/></clipPath><clipPath id="clip-path-18"><rect x="379.67" y="170.84" width="13.22" height="43.72" fill="#76ce89"/></clipPath><clipPath id="clip-path-19"><rect x="448.55" y="172.37" width="13.28" height="42.19" fill="#76ce89"/></clipPath><clipPath id="clip-path-20"><rect x="431.28" y="172.37" width="13.28" height="42.19" fill="#76ce89"/></clipPath><clipPath id="clip-path-21"><rect x="465.81" y="172.37" width="13.28" height="42.19" fill="#76ce89"/></clipPath><clipPath id="clip-path-22"><rect x="396.89" y="172.37" width="13.22" height="42.19" fill="#76ce89"/></clipPath><clipPath id="clip-path-23"><rect x="414.1" y="172.37" width="13.18" height="42.19" fill="#76ce89"/></clipPath><clipPath id="clip-path-24"><rect x="68.05" y="139.36" width="13.37" height="75.24" fill="#76ce89"/></clipPath><clipPath id="clip-path-25"><rect x="50.68" y="136.38" width="13.38" height="78.27" fill="#76ce89"/></clipPath></defs><title>wear_tear_sectionB_tablet</title><g id="Layer_2" data-name="Layer 2"><g id="Layer_2-2" data-name="Layer 2"><rect y="0.5" width="579.59" height="494.27" fill="#f7f7f7"/><line x1="0.23" y1="0.5" x2="579.59" y2="0.5" fill="none" stroke="#ddd" stroke-miterlimit="10"/></g><g id="WT_Screen_Assets"><path d="M40,75.55c1.89,0,2.88.74,2.88,2.46a2.13,2.13,0,0,1-1.25,2.23,2.13,2.13,0,0,1,1.55,2.28c0,2-1.18,2.72-3,2.72h-3.7V75.55Zm-2.44,1v3.35h2.49c1.22,0,1.72-.58,1.72-1.74S41.2,76.5,40,76.5Zm0,4.28v3.51h2.58c1.17,0,1.94-.38,1.94-1.81s-1.27-1.7-2-1.7Z" fill="#4c4c4c"/><path d="M49.88,83.94c0,.4.36.56.81.61l0,.83A2.14,2.14,0,0,1,49,84.82a7.16,7.16,0,0,1-2.52.56c-1.28,0-2-.73-2-2.14s.7-1.94,2.15-2.08l2.2-.21v-.6c0-1-.42-1.33-1.27-1.33s-2.64.18-2.64.18l0-.8a16.84,16.84,0,0,1,2.74-.31c1.58,0,2.26.73,2.26,2.26Zm-3.13-2c-.85.08-1.19.49-1.19,1.26s.35,1.29,1.07,1.29a7.41,7.41,0,0,0,2.2-.44V81.75Z" fill="#4c4c4c"/><path d="M53.35,79.15v3.34c0,1.53.09,2,1,2,.4,0,1.25-.08,1.25-.08l.07.87a12.62,12.62,0,0,1-1.43.15c-1.44,0-1.93-.54-1.93-2.56V79.15h-1v-.92h1V76.09h1v2.14h2.22v.92Z" fill="#4c4c4c"/><path d="M58.26,79.15v3.34c0,1.53.1,2,1,2,.39,0,1.24-.08,1.24-.08l.08.87a12.62,12.62,0,0,1-1.43.15c-1.45,0-1.94-.54-1.94-2.56V79.15h-1v-.92h1V76.09h1v2.14h2.23v.92Z" fill="#4c4c4c"/><path d="M66.94,84.33l0,.82a23.89,23.89,0,0,1-2.73.23c-2.09,0-2.77-1.22-2.77-3.6,0-2.66,1.14-3.69,2.92-3.69s2.82,1,2.82,3.28l-.06.8H62.53c0,1.5.46,2.28,1.83,2.28C65.42,84.45,66.94,84.33,66.94,84.33Zm-.78-3c0-1.74-.53-2.35-1.77-2.35s-1.86.66-1.87,2.35Z" fill="#4c4c4c"/><path d="M68.84,78.23h1v1a8,8,0,0,1,2.56-1.11v1.07a10.08,10.08,0,0,0-2.55.95v5.14h-1Z" fill="#4c4c4c"/><path d="M74.08,78.23l1.75,6.1h.46l1.77-6.1h1L76.19,88.35h-1l.92-3.11H75l-2-7Z" fill="#4c4c4c"/><path d="M83.71,85.24V75.55h1.08v8.72h4.26v1Z" fill="#4c4c4c"/><path d="M95.4,84.33l0,.82a23.64,23.64,0,0,1-2.73.23c-2.09,0-2.77-1.22-2.77-3.6,0-2.66,1.15-3.69,2.92-3.69s2.82,1,2.82,3.28l-.06.8H91c0,1.5.46,2.28,1.84,2.28C93.88,84.45,95.4,84.33,95.4,84.33Zm-.78-3c0-1.74-.53-2.35-1.77-2.35S91,79.64,91,81.33Z" fill="#4c4c4c"/><path d="M97.77,78.23l1.64,6.1h.52l1.69-6.1h1.08l-2,7h-2.1l-2-7Z" fill="#4c4c4c"/><path d="M109.21,84.33l0,.82a23.91,23.91,0,0,1-2.74.23c-2.08,0-2.77-1.22-2.77-3.6,0-2.66,1.15-3.69,2.93-3.69s2.81,1,2.81,3.28l0,.8H104.8c0,1.5.46,2.28,1.83,2.28C107.68,84.45,109.21,84.33,109.21,84.33Zm-.79-3c0-1.74-.53-2.35-1.76-2.35s-1.86.66-1.88,2.35Z" fill="#4c4c4c"/><path d="M111.19,75.18h1V85.24h-1Z" fill="#4c4c4c"/><path d="M36.49,265.3h1.95l2.74,8.19,2.75-8.19h2V275H44.8v-8.54h-.2l-2.82,8.19h-1.2l-2.82-8.19h-.19V275H36.49Z" fill="#4c4c4c"/><path d="M53,273.69c0,.4.37.56.81.61l0,.83a2.13,2.13,0,0,1-1.66-.56,7.24,7.24,0,0,1-2.53.56c-1.27,0-2-.73-2-2.14s.7-1.94,2.14-2.08l2.2-.21v-.6c0-1-.42-1.33-1.26-1.33s-2.65.18-2.65.18l0-.8a17.4,17.4,0,0,1,2.75-.3c1.58,0,2.25.72,2.25,2.25Zm-3.12-2c-.86.08-1.19.49-1.19,1.26s.35,1.29,1.06,1.29a7.32,7.32,0,0,0,2.2-.44V271.5Z" fill="#4c4c4c"/><path d="M55.08,265.19h1.05v1.21H55.08Zm0,2.8h1.05v7H55.08Z" fill="#4c4c4c"/><path d="M58.15,275v-7h1v.49a5.35,5.35,0,0,1,2.17-.63c1.94,0,2.37.95,2.37,3.44V275h-1v-3.67c0-1.85-.21-2.54-1.52-2.54a4.74,4.74,0,0,0-2,.52V275Z" fill="#4c4c4c"/><path d="M67.07,268.9v3.34c0,1.53.09,2,1,2,.4,0,1.25-.09,1.25-.09l.07.87a12.62,12.62,0,0,1-1.43.15c-1.44,0-1.93-.54-1.93-2.56V268.9H65V268h1v-2.15h1V268h2.22v.91Z" fill="#4c4c4c"/><path d="M75.75,274.08l0,.83a25,25,0,0,1-2.74.22c-2.08,0-2.77-1.22-2.77-3.6,0-2.66,1.15-3.68,2.93-3.68s2.81,1,2.81,3.27l-.05.8H71.34c0,1.5.46,2.29,1.83,2.29C74.22,274.21,75.75,274.08,75.75,274.08Zm-.79-3c0-1.73-.53-2.35-1.76-2.35s-1.86.66-1.88,2.35Z" fill="#4c4c4c"/><path d="M77.65,275v-7h1v.49a5.29,5.29,0,0,1,2.17-.63c1.93,0,2.36.95,2.36,3.44V275h-1v-3.67c0-1.85-.21-2.54-1.51-2.54a4.81,4.81,0,0,0-2,.52V275Z" fill="#4c4c4c"/><path d="M90.11,273.69c0,.4.37.56.81.61l0,.83a2.13,2.13,0,0,1-1.66-.56,7.24,7.24,0,0,1-2.53.56c-1.27,0-2-.73-2-2.14s.7-1.94,2.14-2.08l2.2-.21v-.6c0-1-.42-1.33-1.26-1.33s-2.65.18-2.65.18l0-.8a17.4,17.4,0,0,1,2.75-.3c1.58,0,2.25.72,2.25,2.25Zm-3.12-2c-.86.08-1.19.49-1.19,1.26s.35,1.29,1.06,1.29a7.32,7.32,0,0,0,2.2-.44V271.5Z" fill="#4c4c4c"/><path d="M92.18,275v-7h1v.49a5.29,5.29,0,0,1,2.17-.63c1.93,0,2.37.95,2.37,3.44V275h-1v-3.67c0-1.85-.21-2.54-1.51-2.54a4.81,4.81,0,0,0-2,.52V275Z" fill="#4c4c4c"/><path d="M104.22,268.06l0,.85s-1.12-.13-1.65-.13c-1.61,0-2,.7-2,2.58,0,2.08.33,2.83,2.06,2.83.53,0,1.65-.12,1.65-.12l0,.86a18.46,18.46,0,0,1-1.95.2c-2.23,0-2.89-1-2.89-3.77,0-2.53.83-3.51,2.92-3.51A16.26,16.26,0,0,1,104.22,268.06Z" fill="#4c4c4c"/><path d="M111,274.08l0,.83a25,25,0,0,1-2.73.22c-2.09,0-2.78-1.22-2.78-3.6,0-2.66,1.15-3.68,2.93-3.68s2.82,1,2.82,3.27l-.06.8h-4.62c0,1.5.46,2.29,1.83,2.29C109.44,274.21,111,274.08,111,274.08Zm-.78-3c0-1.73-.54-2.35-1.77-2.35s-1.86.66-1.88,2.35Z" fill="#4c4c4c"/><path d="M38.3,359h1.53L42,365.41,44.14,359h1.53v7.61h-.85v-6.71h-.16l-2.21,6.44h-.94l-2.21-6.44h-.16v6.71H38.3Z" fill="#4c4c4c"/><path d="M51.28,365.56c0,.32.28.44.63.48l0,.65a1.69,1.69,0,0,1-1.31-.44,5.62,5.62,0,0,1-2,.44c-1,0-1.55-.57-1.55-1.68s.55-1.52,1.68-1.63l1.73-.16v-.48c0-.77-.33-1-1-1s-2.08.14-2.08.14l0-.62A12.9,12.9,0,0,1,49.5,361c1.25,0,1.78.58,1.78,1.77ZM48.82,364a.87.87,0,0,0-.93,1c0,.64.27,1,.83,1a5.82,5.82,0,0,0,1.73-.34v-1.82Z" fill="#4c4c4c"/><path d="M52.9,361.08h.82v.75a6.14,6.14,0,0,1,2-.87v.84a8,8,0,0,0-2,.75v4H52.9Z" fill="#4c4c4c"/><path d="M96.91,359h1.85l2.09,7.61H100l-.55-1.95H96.21l-.55,1.95h-.84Zm-.51,4.9h2.88l-1.16-4.17h-.57Z" fill="#4c4c4c"/><path d="M101.91,361.08h.81v.4a3.74,3.74,0,0,1,1.65-.51c1.39,0,2,.85,2,2.8,0,2.15-.7,2.92-2.4,2.92a6.61,6.61,0,0,1-1.23-.12V369h-.82Zm.82,1.07v3.71a8.82,8.82,0,0,0,1.19.12c1.21,0,1.61-.63,1.61-2.21s-.48-2.06-1.28-2.06A3.59,3.59,0,0,0,102.73,362.15Z" fill="#4c4c4c"/><path d="M107.7,361.08h.82v.75a6.14,6.14,0,0,1,2-.87v.84a8,8,0,0,0-2,.75v4h-.83Z" fill="#4c4c4c"/><path d="M151.65,365.54c0,1.65-.64,1.84-2.09,1.84v-.76c1,0,1.24-.07,1.24-1.2V359h.84Z" fill="#4c4c4c"/><path d="M157.59,361.08v5.5h-.83v-.38a3.7,3.7,0,0,1-1.62.49c-1.55,0-1.86-.71-1.86-2.74v-2.87h.82v2.86c0,1.52.13,2,1.16,2a3.29,3.29,0,0,0,1.5-.41v-4.47Z" fill="#4c4c4c"/><path d="M159.17,366.58v-5.5H160v.39a4.14,4.14,0,0,1,1.7-.5c1.52,0,1.86.75,1.86,2.71v2.9h-.81V363.7c0-1.45-.17-2-1.19-2a3.75,3.75,0,0,0-1.55.41v4.46Z" fill="#4c4c4c"/><path d="M205.22,365.54c0,1.65-.64,1.84-2.09,1.84v-.76c1,0,1.24-.07,1.24-1.2V359h.84Z" fill="#4c4c4c"/><path d="M211.16,361.08v5.5h-.83v-.38a3.71,3.71,0,0,1-1.63.49c-1.54,0-1.86-.71-1.86-2.74v-2.87h.83v2.86c0,1.52.13,2,1.15,2a3.31,3.31,0,0,0,1.51-.41v-4.47Z" fill="#4c4c4c"/><path d="M212.81,358.69h.82v7.89h-.82Z" fill="#4c4c4c"/><path d="M255.48,359h1.85l2.09,7.61h-.83l-.55-1.95h-3.26l-.55,1.95h-.84Zm-.51,4.9h2.88l-1.16-4.17h-.57Z" fill="#4c4c4c"/><path d="M264.74,361.08v5.5h-.83v-.38a3.71,3.71,0,0,1-1.63.49c-1.54,0-1.86-.71-1.86-2.74v-2.87h.83v2.86c0,1.52.13,2,1.15,2a3.31,3.31,0,0,0,1.51-.41v-4.47Z" fill="#4c4c4c"/><path d="M266.08,367.51c0-.64.29-.94.87-1.37a.88.88,0,0,1-.31-.76,3.63,3.63,0,0,1,.37-.86,1.61,1.61,0,0,1-.87-1.67c0-1.35.84-1.88,2.06-1.88a5.38,5.38,0,0,1,1.14.15l1.63-.05v.71l-1,0a1.43,1.43,0,0,1,.36,1.1c0,1.43-.71,1.86-2.12,1.86a5.09,5.09,0,0,1-.54,0,3.13,3.13,0,0,0-.2.63c0,.44.09.5,1.33.5,1.56,0,2.12.31,2.12,1.62s-.89,1.75-2.44,1.75C266.7,369.17,266.08,368.78,266.08,367.51Zm1.43-1c-.46.34-.62.54-.62,1,0,.76.32,1,1.56,1s1.6-.3,1.6-1-.35-.92-1.36-.92C268.31,366.53,267.51,366.47,267.51,366.47Zm2-3.62c0-.87-.35-1.21-1.27-1.21S267,362,267,362.85s.37,1.2,1.23,1.2S269.47,363.72,269.47,362.85Z" fill="#4c4c4c"/><path d="M315,359.78s-1.53-.18-2.17-.18c-1.08,0-1.65.38-1.65,1.24s.53,1.16,1.86,1.45c1.52.34,2.19.72,2.19,2,0,1.68-.93,2.34-2.43,2.34a20.26,20.26,0,0,1-2.41-.24l.09-.7s1.49.2,2.27.2c1.08,0,1.63-.48,1.63-1.53,0-.86-.45-1.1-1.69-1.35-1.58-.34-2.37-.71-2.37-2.16s1-2,2.46-2a18.77,18.77,0,0,1,2.29.22Z" fill="#4c4c4c"/><path d="M320.64,365.87l0,.65a20,20,0,0,1-2.15.17c-1.64,0-2.17-.95-2.17-2.82,0-2.09.9-2.9,2.3-2.9s2.21.77,2.21,2.58l-.05.62h-3.63c0,1.18.36,1.8,1.44,1.8C319.44,366,320.64,365.87,320.64,365.87Zm-.62-2.36c0-1.36-.42-1.84-1.38-1.84s-1.47.51-1.48,1.84Z" fill="#4c4c4c"/><path d="M322.13,361.08H323v.4a3.69,3.69,0,0,1,1.65-.51c1.38,0,2,.85,2,2.8,0,2.15-.71,2.92-2.4,2.92a6.41,6.41,0,0,1-1.23-.12V369h-.83Zm.83,1.07v3.71a8.45,8.45,0,0,0,1.19.12c1.21,0,1.6-.63,1.6-2.21s-.47-2.06-1.27-2.06A3.59,3.59,0,0,0,323,362.15Z" fill="#4c4c4c"/><path d="M366.41,362.81c0-2.51.65-3.95,3-3.95s3,1.42,3,3.95-.64,3.88-3,3.88S366.41,365.36,366.41,362.81Zm5.13,0c0-2.06-.39-3.2-2.13-3.2s-2.13,1.13-2.13,3.2.37,3.14,2.13,3.14S371.54,365,371.54,362.81Z" fill="#4c4c4c"/><path d="M377.39,361.14l0,.67s-.88-.1-1.3-.1c-1.26,0-1.6.55-1.6,2,0,1.63.25,2.23,1.61,2.23.42,0,1.3-.1,1.3-.1l0,.68a15.21,15.21,0,0,1-1.53.15c-1.75,0-2.27-.8-2.27-3,0-2,.65-2.76,2.29-2.76A12.68,12.68,0,0,1,377.39,361.14Z" fill="#4c4c4c"/><path d="M379.73,361.8v2.63c0,1.2.08,1.54.79,1.54.31,0,1-.07,1-.07l.05.68a9.51,9.51,0,0,1-1.12.12c-1.13,0-1.52-.42-1.52-2V361.8h-.78v-.72h.78V359.4h.82v1.68h1.75v.72Z" fill="#4c4c4c"/><path d="M421.27,359h1.59l2.91,6.87H426V359h.84v7.61h-1.55l-3-6.86h-.21v6.86h-.85Z" fill="#4c4c4c"/><path d="M433,363.77c0,2-.49,2.92-2.35,2.92s-2.36-.92-2.36-2.92.62-2.8,2.36-2.8S433,361.88,433,363.77Zm-.84,0c0-1.53-.33-2.08-1.51-2.08s-1.51.55-1.51,2.08.21,2.21,1.51,2.21S432.19,365.33,432.19,363.77Z" fill="#4c4c4c"/><path d="M434.64,361.08l1.29,4.79h.4l1.33-4.79h.85l-1.55,5.5h-1.65l-1.55-5.5Z" fill="#4c4c4c"/><path d="M478.35,366.58V359h2.72c2.21,0,2.82,1.54,2.82,3.7s-.58,3.91-2.82,3.91Zm2.72-6.86H479.2v6.12h1.87c1.58,0,1.95-1.52,1.95-3.17S482.65,359.72,481.07,359.72Z" fill="#4c4c4c"/><path d="M489.36,365.87l0,.65a20,20,0,0,1-2.15.17c-1.64,0-2.18-.95-2.18-2.82,0-2.09.9-2.9,2.3-2.9s2.21.77,2.21,2.58l0,.62H485.9c0,1.18.36,1.8,1.44,1.8C488.16,366,489.36,365.87,489.36,365.87Zm-.61-2.36c0-1.36-.42-1.84-1.39-1.84s-1.46.51-1.47,1.84Z" fill="#4c4c4c"/><path d="M494.41,361.14l0,.67s-.88-.1-1.3-.1c-1.27,0-1.61.55-1.61,2,0,1.63.26,2.23,1.62,2.23.42,0,1.3-.1,1.3-.1l0,.68a14.87,14.87,0,0,1-1.53.15c-1.75,0-2.26-.8-2.26-3,0-2,.65-2.76,2.29-2.76A12.42,12.42,0,0,1,494.41,361.14Z" fill="#4c4c4c"/><path d="M43.09,23.86h3.36l3.8,13.84H48.73l-1-3.56H41.81l-1,3.56H39.29Zm-.94,8.9h5.24l-2.1-7.58h-1Z"/><path d="M57.91,30.62h3.82v6.8a33.71,33.71,0,0,1-4.5.48c-4.24,0-5.36-2.6-5.36-7.08s1.16-7.17,5.32-7.17a25.77,25.77,0,0,1,4.54.52l-.06,1.28a31.73,31.73,0,0,0-4.3-.42c-3.2,0-3.9,1.87-3.9,5.79s.68,5.72,3.88,5.72a18.56,18.56,0,0,0,2.86-.28V32h-2.3Z"/><path d="M74.21,23.86,70.59,37.7H67.15L63.53,23.86h1.6l3.18,12.48h1.12l3.18-12.48Z"/><path d="M88.63,24.49V25.9H82.21l-.36,4.3a7.62,7.62,0,0,1,3.1-.82c2.58,0,4.2,1.08,4.2,3.9,0,3-1.66,4.6-4.42,4.6a21.77,21.77,0,0,1-4.38-.58l.18-1.22a26.33,26.33,0,0,0,4.06.44,2.79,2.79,0,0,0,3-3.12c0-2-1.12-2.64-2.8-2.64a7.57,7.57,0,0,0-3.14.8l-1.06-.2.36-6.87Z"/><line x1="493.55" y1="353.14" x2="34.6" y2="353.14" fill="none" stroke="#adadad" stroke-miterlimit="10"/><polyline points="38.8 348.64 81.08 346.44 114.44 342.05 135.88 339.42 152.55 334.14 172.8 329.75 190.98 328.18 207.85 321.59 219.25 313.07 229.97 309.55 245.46 305.16 265.71 302.53 282.38 298.14 294.29 298.14 308.59 302.53 322.88 304.28 335.98 309.55 349.08 313.94 361 315.7 382.44 320.09 394.35 327.12 407.45 334.14 416.98 338.54 432.46 342.93 441.99 345.56 463.43 348.2 478.32 346 490.23 340.73" fill="none" stroke="#3899e8"/><polyline points="37.61 348.64 79.89 346.44 113.25 342.05 134.69 339.42 151.36 334.14 171.61 329.75 189.78 328.18 206.66 321.59 218.06 313.07 228.78 309.55 244.27 306.04 264.52 304.28 281.19 299.89 293.1 298.14 307.4 302.53 321.69 304.28 334.79 309.55 347.89 313.94 359.81 315.7 381.25 320.09 393.16 327.12 406.26 334.14 415.79 338.54 431.27 342.93 440.8 345.56 462.24 348.2 477.13 346 489.04 340.73" fill="none" stroke="#8dc5f2"/><rect x="37.56" y="290.62" width="451.79" height="58.52" fill="none"/><path d="M40.76,426.11h9v1.25H46v11.21H44.59V427.36H40.76Z" fill="#3a3d3f"/><path d="M58.6,434c0,3.27-.81,4.78-3.86,4.78s-3.85-1.51-3.85-4.78c0-3.1,1-4.58,3.85-4.58S58.6,430.87,58.6,434Zm-1.39,0c0-2.51-.54-3.41-2.47-3.41s-2.46.9-2.46,3.41.34,3.61,2.46,3.61S57.21,436.52,57.21,434Z" fill="#3a3d3f"/><path d="M67.71,438.57H66.37V438a6.42,6.42,0,0,1-2.73.79c-1.77,0-3.24-.72-3.24-4.6,0-3.17,1-4.76,3.76-4.76a14.12,14.12,0,0,1,2.21.24v-4h1.34Zm-1.34-1.69v-6.1a14.12,14.12,0,0,0-2.14-.22c-1.89,0-2.45,1.24-2.45,3.59,0,2.91,1,3.4,2,3.4A6.47,6.47,0,0,0,66.37,436.88Z" fill="#3a3d3f"/><path d="M76.67,436.9c0,.52.47.72,1,.79l0,1.06a2.75,2.75,0,0,1-2.14-.72,9.2,9.2,0,0,1-3.24.72c-1.64,0-2.54-.93-2.54-2.75s.9-2.48,2.75-2.67l2.83-.27v-.77c0-1.26-.54-1.71-1.62-1.71-1.26,0-3.4.23-3.4.23l-.06-1a21.6,21.6,0,0,1,3.53-.4c2,0,2.9.94,2.9,2.9Zm-4-2.56c-1.09.11-1.53.63-1.53,1.62s.45,1.66,1.37,1.66a9.48,9.48,0,0,0,2.83-.56v-3Z" fill="#3a3d3f"/><path d="M79.84,429.57l2.25,7.83h.59L85,429.57H86.3l-3.75,13H81.2l1.17-4H81l-2.55-9Z" fill="#3a3d3f"/><path d="M92,426h1.34v1.57H92Zm0,3.6h1.34v9H92Z" fill="#3a3d3f"/><path d="M97.73,430.74v4.31c0,2,.12,2.52,1.29,2.52.51,0,1.61-.11,1.61-.11l.09,1.11a15.71,15.71,0,0,1-1.84.2c-1.86,0-2.49-.7-2.49-3.29v-4.74H95.12v-1.17h1.27v-2.75h1.34v2.75h2.86v1.17Z" fill="#3a3d3f"/><path d="M106.2,426h1.35v1.57H106.2Zm0,3.6h1.35v9H106.2Z" fill="#3a3d3f"/><path d="M116.12,430.89a29,29,0,0,0-3.15-.29c-1.11,0-2,.3-2,1.37,0,.84.43,1.08,2.34,1.4,2.25.38,3.1.83,3.1,2.58,0,2.1-1.33,2.8-3.49,2.8a25.4,25.4,0,0,1-3.17-.34l.07-1.17a29.5,29.5,0,0,0,3,.31c1.48,0,2.27-.33,2.27-1.55,0-.94-.47-1.17-2.43-1.48s-3-.7-3-2.5c0-2,1.6-2.63,3.24-2.63a23.19,23.19,0,0,1,3.26.34Z" fill="#3a3d3f"/><path d="M122.48,429.57h1.33v.65a6.12,6.12,0,0,1,2.7-.83c2.27,0,3.26,1.39,3.26,4.58,0,3.52-1.15,4.78-3.93,4.78a12.32,12.32,0,0,1-2-.19v4h-1.35Zm1.35,1.75v6.07a14.72,14.72,0,0,0,1.94.19c2,0,2.63-1,2.63-3.61s-.77-3.37-2.09-3.37A5.86,5.86,0,0,0,123.83,431.32Z" fill="#3a3d3f"/><path d="M139.27,434c0,3.27-.81,4.78-3.85,4.78s-3.85-1.51-3.85-4.78c0-3.1,1-4.58,3.85-4.58S139.27,430.87,139.27,434Zm-1.38,0c0-2.51-.54-3.41-2.47-3.41s-2.47.9-2.47,3.41.35,3.61,2.47,3.61S137.89,436.52,137.89,434Z" fill="#3a3d3f"/><path d="M147.45,430.89a29.33,29.33,0,0,0-3.16-.29c-1.11,0-2,.3-2,1.37,0,.84.43,1.08,2.34,1.4,2.25.38,3.1.83,3.1,2.58,0,2.1-1.33,2.8-3.49,2.8a25.4,25.4,0,0,1-3.17-.34l.07-1.17a29.5,29.5,0,0,0,3,.31c1.48,0,2.27-.33,2.27-1.55,0-.94-.47-1.17-2.43-1.48s-3-.7-3-2.5c0-2,1.6-2.63,3.24-2.63a23.19,23.19,0,0,1,3.26.34Z" fill="#3a3d3f"/><path d="M155.82,430.89a29.33,29.33,0,0,0-3.16-.29c-1.11,0-2,.3-2,1.37,0,.84.43,1.08,2.34,1.4,2.25.38,3.1.83,3.1,2.58,0,2.1-1.33,2.8-3.49,2.8a25.4,25.4,0,0,1-3.17-.34l.07-1.17a29.5,29.5,0,0,0,3,.31c1.48,0,2.27-.33,2.27-1.55,0-.94-.47-1.17-2.43-1.48s-3-.7-3-2.5c0-2,1.6-2.63,3.24-2.63a23.19,23.19,0,0,1,3.26.34Z" fill="#3a3d3f"/><path d="M158.21,426h1.35v1.57h-1.35Zm0,3.6h1.35v9h-1.35Z" fill="#3a3d3f"/><path d="M169.41,433.93c0,3.58-1,4.82-4.25,4.82-1.08,0-3-.19-3-.19V425.65h1.33V430a7.44,7.44,0,0,1,2.65-.63C168.58,429.39,169.41,430.69,169.41,433.93Zm-1.37,0c0-2.32-.47-3.33-2.06-3.33a7.57,7.57,0,0,0-2.5.52v6.34s1.17.09,1.66.09C167.6,437.55,168,436.45,168,433.93Z" fill="#3a3d3f"/><path d="M171.72,425.65h1.36v12.92h-1.36Z" fill="#3a3d3f"/><path d="M182.42,437.4l0,1.07a32.2,32.2,0,0,1-3.51.28c-2.68,0-3.56-1.56-3.56-4.62,0-3.42,1.48-4.74,3.76-4.74s3.62,1.26,3.62,4.22l-.07,1h-5.94c0,1.93.59,2.94,2.36,2.94C180.46,437.57,182.42,437.4,182.42,437.4Zm-1-3.85c0-2.23-.68-3-2.27-3s-2.39.84-2.41,3Z" fill="#3a3d3f"/><path d="M190.62,430.74v4.31c0,2,.13,2.52,1.3,2.52.51,0,1.6-.11,1.6-.11l.09,1.11a15.44,15.44,0,0,1-1.83.2c-1.86,0-2.49-.7-2.49-3.29v-4.74H188v-1.17h1.28v-2.75h1.33v2.75h2.87v1.17Z" fill="#3a3d3f"/><path d="M202.45,434c0,3.27-.81,4.78-3.85,4.78s-3.85-1.51-3.85-4.78c0-3.1,1-4.58,3.85-4.58S202.45,430.87,202.45,434Zm-1.38,0c0-2.51-.54-3.41-2.47-3.41s-2.47.9-2.47,3.41.35,3.61,2.47,3.61S201.07,436.52,201.07,434Z" fill="#3a3d3f"/><path d="M215.58,429.57v9h-1.36v-.63a6.07,6.07,0,0,1-2.66.81c-2.52,0-3-1.17-3-4.48v-4.7h1.35v4.68c0,2.49.21,3.3,1.89,3.3a5.4,5.4,0,0,0,2.46-.67v-7.31Z" fill="#3a3d3f"/><path d="M224.14,430.89a29.33,29.33,0,0,0-3.15-.29c-1.12,0-2,.3-2,1.37,0,.84.43,1.08,2.34,1.4,2.25.38,3.1.83,3.1,2.58,0,2.1-1.34,2.8-3.5,2.8a25.65,25.65,0,0,1-3.17-.34l.08-1.17a29.5,29.5,0,0,0,3,.31c1.47,0,2.27-.33,2.27-1.55,0-.94-.47-1.17-2.43-1.48s-3-.7-3-2.5c0-2,1.6-2.63,3.24-2.63a23.19,23.19,0,0,1,3.26.34Z" fill="#3a3d3f"/><path d="M233.18,437.4l0,1.07a32.2,32.2,0,0,1-3.51.28c-2.68,0-3.56-1.56-3.56-4.62,0-3.42,1.48-4.74,3.76-4.74s3.62,1.26,3.62,4.22l-.07,1h-5.94c0,1.93.59,2.94,2.36,2.94C231.22,437.57,233.18,437.4,233.18,437.4Zm-1-3.85c0-2.23-.68-3-2.27-3s-2.39.84-2.41,3Z" fill="#3a3d3f"/><path d="M242.14,426.11h3l3.42,12.46h-1.37l-.9-3.2H241l-.9,3.2h-1.37Zm-.85,8H246l-1.89-6.83h-.93Z" fill="#3a3d3f"/><path d="M255.48,432.2h3.44v6.12a30.76,30.76,0,0,1-4.05.43c-3.82,0-4.83-2.34-4.83-6.37s1.05-6.44,4.79-6.44a23.65,23.65,0,0,1,4.09.46l-.06,1.16a28.37,28.37,0,0,0-3.87-.38c-2.88,0-3.51,1.67-3.51,5.2s.61,5.15,3.5,5.15a16.71,16.71,0,0,0,2.57-.25v-3.84h-2.07Z" fill="#3a3d3f"/><path d="M270.15,426.11l-3.26,12.46h-3.1l-3.25-12.46H262l2.86,11.24h1l2.86-11.24Z" fill="#3a3d3f"/><path d="M281,436.25h-5.76v-1.08l3.38-8.48h1.52L276.72,435H281v-3.71h1.39V435h1.51v1.22h-1.51v2.32H281Z" fill="#3a3d3f"/><path d="M296.23,436.9c0,.52.47.72,1,.79l-.06,1.06a2.75,2.75,0,0,1-2.14-.72,9.2,9.2,0,0,1-3.24.72c-1.64,0-2.54-.93-2.54-2.75s.9-2.48,2.75-2.67l2.83-.27v-.77c0-1.26-.54-1.71-1.62-1.71-1.26,0-3.4.23-3.4.23l-.06-1a21.6,21.6,0,0,1,3.53-.4c2,0,2.9.94,2.9,2.9Zm-4-2.56c-1.1.11-1.53.63-1.53,1.62s.45,1.66,1.36,1.66a9.48,9.48,0,0,0,2.83-.56v-3Z" fill="#3a3d3f"/><path d="M300.69,430.74v4.31c0,2,.13,2.52,1.3,2.52.5,0,1.6-.11,1.6-.11l.09,1.11a15.44,15.44,0,0,1-1.83.2c-1.86,0-2.49-.7-2.49-3.29v-4.74h-1.28v-1.17h1.28v-2.75h1.33v2.75h2.87v1.17Z" fill="#3a3d3f"/><path d="M309.17,426h1.35v1.57h-1.35Zm0,3.6h1.35v9h-1.35Z" fill="#3a3d3f"/><path d="M314.91,430.74v4.31c0,2,.13,2.52,1.3,2.52.5,0,1.6-.11,1.6-.11l.09,1.11a15.44,15.44,0,0,1-1.83.2c-1.86,0-2.49-.7-2.49-3.29v-4.74H312.3v-1.17h1.28v-2.75h1.33v2.75h2.87v1.17Z" fill="#3a3d3f"/><path d="M325.41,430.89a29.33,29.33,0,0,0-3.15-.29c-1.12,0-2,.3-2,1.37,0,.84.43,1.08,2.34,1.4,2.25.38,3.09.83,3.09,2.58,0,2.1-1.33,2.8-3.49,2.8a25.65,25.65,0,0,1-3.17-.34l.07-1.17a29.8,29.8,0,0,0,3,.31c1.47,0,2.26-.33,2.26-1.55,0-.94-.47-1.17-2.43-1.48s-3-.7-3-2.5c0-2,1.6-2.63,3.24-2.63a23.19,23.19,0,0,1,3.26.34Z" fill="#3a3d3f"/><path d="M333.49,438.57h-1.35v-7.83H331v-1.17h1.13v-.81c0-2.59.67-3.29,2.43-3.29.61,0,1.82.12,1.82.12l0,1.12s-1,0-1.55,0c-1,0-1.33.44-1.33,2.11v.79h2.61v1.17h-2.61Z" fill="#3a3d3f"/><path d="M344.69,429.57v9h-1.35v-.63a6.08,6.08,0,0,1-2.67.81c-2.52,0-3-1.17-3-4.48v-4.7H339v4.68c0,2.49.22,3.3,1.89,3.3a5.47,5.47,0,0,0,2.47-.67v-7.31Z" fill="#3a3d3f"/><path d="M347.39,425.65h1.35v12.92h-1.35Z" fill="#3a3d3f"/><path d="M351.54,425.65h1.35v12.92h-1.35Z" fill="#3a3d3f"/><path d="M359.55,429.57h1.34v.65a6.07,6.07,0,0,1,2.7-.83c2.27,0,3.26,1.39,3.26,4.58,0,3.52-1.16,4.78-3.93,4.78a12.61,12.61,0,0,1-2-.19v4h-1.35Zm1.35,1.75v6.07a15.13,15.13,0,0,0,2,.19c2,0,2.63-1,2.63-3.61s-.78-3.37-2.09-3.37A5.87,5.87,0,0,0,360.9,431.32Z" fill="#3a3d3f"/><path d="M375.68,437.4l0,1.07a32.2,32.2,0,0,1-3.51.28c-2.68,0-3.57-1.56-3.57-4.62,0-3.42,1.48-4.74,3.77-4.74s3.62,1.26,3.62,4.22l-.08,1H370c0,1.93.6,2.94,2.36,2.94C373.72,437.57,375.68,437.4,375.68,437.4Zm-1-3.85c0-2.23-.69-3-2.27-3s-2.4.84-2.42,3Z" fill="#3a3d3f"/><path d="M378.13,429.57h1.33v1.23a10.32,10.32,0,0,1,3.3-1.43v1.37a13,13,0,0,0-3.28,1.23v6.6h-1.35Z" fill="#3a3d3f"/><path d="M386.09,438.57h-1.35v-7.83H383.6v-1.17h1.14v-.81c0-2.59.66-3.29,2.43-3.29.61,0,1.82.12,1.82.12l0,1.12s-1,0-1.55,0c-1,0-1.33.44-1.33,2.11v.79h2.61v1.17h-2.61Z" fill="#3a3d3f"/><path d="M397.63,434c0,3.27-.81,4.78-3.86,4.78s-3.85-1.51-3.85-4.78c0-3.1,1-4.58,3.85-4.58S397.63,430.87,397.63,434Zm-1.39,0c0-2.51-.54-3.41-2.47-3.41s-2.46.9-2.46,3.41.34,3.61,2.46,3.61S396.24,436.52,396.24,434Z" fill="#3a3d3f"/><path d="M399.82,429.57h1.33v1.23a10.32,10.32,0,0,1,3.3-1.43v1.37a12.78,12.78,0,0,0-3.28,1.23v6.6h-1.35Z" fill="#3a3d3f"/><path d="M406.05,438.57v-9h1.33v.63a6,6,0,0,1,2.63-.81,2.54,2.54,0,0,1,2.34.92,7.46,7.46,0,0,1,3.2-.92c2.45,0,3.05,1.17,3.05,4.43v4.75h-1.35v-4.71c0-2.38-.27-3.26-1.89-3.26a6,6,0,0,0-2.54.66,10.4,10.4,0,0,1,.23,2.63v4.68H411.7v-4.64c0-2.49-.25-3.33-1.89-3.33a5.39,5.39,0,0,0-2.41.66v7.31Z" fill="#3a3d3f"/><path d="M427.45,436.9c0,.52.47.72,1,.79l-.05,1.06a2.75,2.75,0,0,1-2.14-.72,9.2,9.2,0,0,1-3.24.72c-1.64,0-2.54-.93-2.54-2.75s.9-2.48,2.75-2.67l2.83-.27v-.77c0-1.26-.54-1.71-1.62-1.71-1.26,0-3.4.23-3.4.23l-.06-1a21.6,21.6,0,0,1,3.53-.4c2,0,2.9.94,2.9,2.9Zm-4-2.56c-1.1.11-1.53.63-1.53,1.62s.45,1.66,1.36,1.66a9.48,9.48,0,0,0,2.83-.56v-3Z" fill="#3a3d3f"/><path d="M430.11,438.57v-9h1.34v.63a6.79,6.79,0,0,1,2.79-.81c2.48,0,3,1.23,3,4.43v4.75H436v-4.71c0-2.38-.27-3.26-1.95-3.26a6.25,6.25,0,0,0-2.54.66v7.31Z" fill="#3a3d3f"/><path d="M445.59,429.66l0,1.1s-1.44-.16-2.12-.16c-2.07,0-2.63.9-2.63,3.31,0,2.67.41,3.64,2.64,3.64.69,0,2.13-.16,2.13-.16l.05,1.11a24,24,0,0,1-2.5.25c-2.86,0-3.71-1.31-3.71-4.84,0-3.26,1.06-4.52,3.75-4.52A20.91,20.91,0,0,1,445.59,429.66Z" fill="#3a3d3f"/><path d="M454.27,437.4l0,1.07a32.47,32.47,0,0,1-3.51.28c-2.69,0-3.57-1.56-3.57-4.62,0-3.42,1.48-4.74,3.76-4.74s3.62,1.26,3.62,4.22l-.07,1H448.6c0,1.93.59,2.94,2.36,2.94C452.31,437.57,454.27,437.4,454.27,437.4Zm-1-3.85c0-2.23-.68-3-2.27-3s-2.39.84-2.41,3Z" fill="#3a3d3f"/><path d="M456.63,436.52h1.47v2.05h-1.47Z" fill="#3a3d3f"/><path d="M464.8,426.11h1.38v12.46H464.8Z" fill="#3a3d3f"/><path d="M470.79,430.74v4.31c0,2,.13,2.52,1.3,2.52.5,0,1.6-.11,1.6-.11l.09,1.11a15.43,15.43,0,0,1-1.84.2c-1.85,0-2.48-.7-2.48-3.29v-4.74h-1.28v-1.17h1.28v-2.75h1.33v2.75h2.87v1.17Z" fill="#3a3d3f"/><path d="M479.88,429.57l1.82,7.83H482l2.14-7.65h1.41l2.14,7.65h.3l1.8-7.83h1.36l-2.15,9h-2.25l-1.91-7-1.91,7h-2.25l-2.14-9Z" fill="#3a3d3f"/><path d="M500.3,434c0,3.27-.81,4.78-3.86,4.78s-3.85-1.51-3.85-4.78c0-3.1,1-4.58,3.85-4.58S500.3,430.87,500.3,434Zm-1.39,0c0-2.51-.54-3.41-2.47-3.41s-2.46.9-2.46,3.41.34,3.61,2.46,3.61S498.91,436.52,498.91,434Z" fill="#3a3d3f"/><path d="M509.46,429.57v9h-1.35v-.63a6.08,6.08,0,0,1-2.67.81c-2.52,0-3-1.17-3-4.48v-4.7h1.35v4.68c0,2.49.22,3.3,1.89,3.3a5.47,5.47,0,0,0,2.47-.67v-7.31Z" fill="#3a3d3f"/><path d="M512.16,425.65h1.35v12.92h-1.35Z" fill="#3a3d3f"/><path d="M523.12,438.57h-1.33V438a6.49,6.49,0,0,1-2.74.79c-1.76,0-3.24-.72-3.24-4.6,0-3.17,1-4.76,3.76-4.76a14.13,14.13,0,0,1,2.22.24v-4h1.33Zm-1.33-1.69v-6.1a14.43,14.43,0,0,0-2.15-.22c-1.89,0-2.44,1.24-2.44,3.59,0,2.91.95,3.4,2,3.4A6.54,6.54,0,0,0,521.79,436.88Z" fill="#3a3d3f"/><path d="M41.82,466.57v-9h1.33v.63a6.85,6.85,0,0,1,2.79-.81c2.49,0,3.05,1.23,3.05,4.43v4.75H47.65v-4.71c0-2.38-.27-3.26-1.94-3.26a6.19,6.19,0,0,0-2.54.66v7.31Z" fill="#3a3d3f"/><path d="M58.13,465.4l0,1.07a32.47,32.47,0,0,1-3.51.28c-2.69,0-3.57-1.56-3.57-4.62,0-3.42,1.48-4.74,3.76-4.74s3.62,1.26,3.62,4.22l-.07,1H52.46c0,1.93.59,2.94,2.36,2.94C56.17,465.57,58.13,465.4,58.13,465.4Zm-1-3.85c0-2.23-.68-3-2.27-3s-2.39.84-2.41,3Z" fill="#3a3d3f"/><path d="M67.22,465.4l0,1.07a32.5,32.5,0,0,1-3.52.28c-2.68,0-3.56-1.56-3.56-4.62,0-3.42,1.48-4.74,3.76-4.74s3.62,1.26,3.62,4.22l-.07,1H61.55c0,1.93.59,2.94,2.36,2.94C65.26,465.57,67.22,465.4,67.22,465.4Zm-1-3.85c0-2.23-.68-3-2.27-3s-2.39.84-2.41,3Z" fill="#3a3d3f"/><path d="M76.58,466.57H75.25V466a6.49,6.49,0,0,1-2.74.79c-1.76,0-3.24-.72-3.24-4.6,0-3.17,1-4.76,3.76-4.76a14.13,14.13,0,0,1,2.22.24v-4h1.33Zm-1.33-1.69v-6.1a14.42,14.42,0,0,0-2.14-.22c-1.9,0-2.45,1.24-2.45,3.59,0,2.91,1,3.4,2,3.4A6.54,6.54,0,0,0,75.25,464.88Z" fill="#3a3d3f"/><path d="M89,457.66l0,1.1s-1.44-.16-2.13-.16c-2.07,0-2.62.9-2.62,3.31,0,2.67.41,3.64,2.64,3.64.69,0,2.13-.16,2.13-.16l0,1.11a24,24,0,0,1-2.5.25c-2.86,0-3.71-1.31-3.71-4.84,0-3.26,1.06-4.52,3.74-4.52A20.89,20.89,0,0,1,89,457.66Z" fill="#3a3d3f"/><path d="M91,466.57V453.65h1.36v4.43a7.55,7.55,0,0,1,2.77-.69c2.47,0,3,1.23,3,4.43v4.75H96.81v-4.71c0-2.38-.27-3.26-1.93-3.26a7.39,7.39,0,0,0-2.53.54v7.43Z" fill="#3a3d3f"/><path d="M107,464.9c0,.52.47.72,1,.79l0,1.06a2.74,2.74,0,0,1-2.14-.72,9.29,9.29,0,0,1-3.25.72c-1.63,0-2.54-.93-2.54-2.75s.91-2.48,2.76-2.67l2.83-.27v-.77c0-1.26-.54-1.71-1.62-1.71-1.26,0-3.41.23-3.41.23l0-1a21.6,21.6,0,0,1,3.53-.4c2,0,2.9.94,2.9,2.9Zm-4-2.56c-1.1.11-1.53.63-1.53,1.62s.45,1.66,1.37,1.66a9.57,9.57,0,0,0,2.83-.56v-3Z" fill="#3a3d3f"/><path d="M109.68,457.57H111v1.23a10.32,10.32,0,0,1,3.3-1.43v1.37A12.78,12.78,0,0,0,111,460v6.6h-1.35Z" fill="#3a3d3f"/><path d="M115.51,468.09c0-1,.49-1.53,1.42-2.24a1.46,1.46,0,0,1-.5-1.24,5.82,5.82,0,0,1,.61-1.42c-.76-.34-1.42-1.06-1.42-2.72,0-2.21,1.37-3.08,3.37-3.08a9.07,9.07,0,0,1,1.87.24l2.66-.08v1.16l-1.71,0a2.35,2.35,0,0,1,.6,1.8c0,2.34-1.17,3-3.48,3a6.79,6.79,0,0,1-.88-.07,5.32,5.32,0,0,0-.32,1c0,.72.14.83,2.17.83,2.56,0,3.48.5,3.48,2.64s-1.46,2.87-4,2.87C116.54,470.81,115.51,470.18,115.51,468.09Zm2.34-1.7c-.76.56-1,.89-1,1.59,0,1.24.53,1.69,2.56,1.69,1.8,0,2.61-.48,2.61-1.67,0-1.37-.58-1.52-2.21-1.52C119.17,466.48,117.85,466.39,117.85,466.39Zm3.21-5.92c0-1.42-.56-2-2.07-2s-2,.56-2,2,.61,2,2,2S121.06,461.89,121.06,460.47Z" fill="#3a3d3f"/><path d="M131.8,465.4l0,1.07a32.2,32.2,0,0,1-3.51.28c-2.69,0-3.57-1.56-3.57-4.62,0-3.42,1.48-4.74,3.77-4.74s3.61,1.26,3.61,4.22l-.07,1h-5.94c0,1.93.6,2.94,2.36,2.94C129.84,465.57,131.8,465.4,131.8,465.4Zm-1-3.85c0-2.23-.68-3-2.26-3s-2.4.84-2.42,3Z" fill="#3a3d3f"/><path d="M144.56,464.9c0,.52.47.72,1.05.79l-.06,1.06a2.75,2.75,0,0,1-2.14-.72,9.2,9.2,0,0,1-3.24.72c-1.64,0-2.54-.93-2.54-2.75s.9-2.48,2.76-2.67l2.82-.27v-.77c0-1.26-.54-1.71-1.62-1.71-1.26,0-3.4.23-3.4.23l-.05-1a21.57,21.57,0,0,1,3.52-.4c2,0,2.9.94,2.9,2.9Zm-4-2.56c-1.1.11-1.53.63-1.53,1.62s.45,1.66,1.37,1.66a9.47,9.47,0,0,0,2.82-.56v-3Z" fill="#3a3d3f"/><path d="M147.23,457.57h1.33v1.23a10.21,10.21,0,0,1,3.29-1.43v1.37a12.81,12.81,0,0,0-3.27,1.23v6.6h-1.35Z" fill="#3a3d3f"/><path d="M160.76,462c0,3.27-.81,4.78-3.85,4.78s-3.85-1.51-3.85-4.78c0-3.1,1-4.58,3.85-4.58S160.76,458.87,160.76,462Zm-1.38,0c0-2.51-.54-3.41-2.47-3.41s-2.47.9-2.47,3.41.35,3.61,2.47,3.61S159.38,464.52,159.38,462Z" fill="#3a3d3f"/><path d="M169.93,457.57v9h-1.35v-.63a6.14,6.14,0,0,1-2.67.81c-2.52,0-3-1.17-3-4.48v-4.7h1.35v4.68c0,2.49.21,3.3,1.89,3.3a5.47,5.47,0,0,0,2.47-.67v-7.31Z" fill="#3a3d3f"/><path d="M172.51,466.57v-9h1.34v.63a6.85,6.85,0,0,1,2.79-.81c2.48,0,3,1.23,3,4.43v4.75h-1.33v-4.71c0-2.38-.27-3.26-1.95-3.26a6.18,6.18,0,0,0-2.53.66v7.31Z" fill="#3a3d3f"/><path d="M189.09,466.57h-1.33V466a6.42,6.42,0,0,1-2.73.79c-1.77,0-3.25-.72-3.25-4.6,0-3.17,1-4.76,3.77-4.76a14.12,14.12,0,0,1,2.21.24v-4h1.33Zm-1.33-1.69v-6.1a14.27,14.27,0,0,0-2.14-.22c-1.89,0-2.45,1.24-2.45,3.59,0,2.91,1,3.4,2,3.4A6.47,6.47,0,0,0,187.76,464.88Z" fill="#3a3d3f"/><path d="M200.07,454.69h1.3v11.88H200V456.24l-3.06,2-.63-1.05Z" fill="#3a3d3f"/><path d="M205.76,465.31a27,27,0,0,0,3.13.22c2.18,0,3.26-1.33,3.28-4.14a11,11,0,0,1-3.1.68c-2.48,0-3.89-1.11-3.89-3.62s1.62-3.94,4.13-3.94c3,0,4.3,2.38,4.3,6.16,0,4.61-1.78,6.08-4.72,6.08a21.41,21.41,0,0,1-3.26-.32Zm6.43-5.11c0-2.59-.79-4.47-2.88-4.47a2.5,2.5,0,0,0-2.69,2.72c0,1.68.91,2.4,2.56,2.4A11.08,11.08,0,0,0,212.19,460.2Z" fill="#3a3d3f"/><path d="M215.73,458.72h1.48v2.06h-1.48Zm0,5.8h1.48v2.05h-1.48Z" fill="#3a3d3f"/><path d="M227.8,460.81c0,4.56-1.61,5.94-4.33,5.94s-4.34-1.35-4.34-5.92c0-4.9,1.59-6.34,4.33-6.34S227.8,455.92,227.8,460.81Zm-7.22,0c0,3.73,1,4.7,2.89,4.7s2.9-1,2.9-4.72c0-4-.92-5.08-2.9-5.08S220.58,456.78,220.58,460.83Z" fill="#3a3d3f"/><path d="M237.88,460.81c0,4.56-1.61,5.94-4.33,5.94s-4.34-1.35-4.34-5.92c0-4.9,1.59-6.34,4.33-6.34S237.88,455.92,237.88,460.81Zm-7.22,0c0,3.73,1,4.7,2.89,4.7s2.9-1,2.9-4.72c0-4-.92-5.08-2.9-5.08S230.66,456.78,230.66,460.83Z" fill="#3a3d3f"/><path d="M239.8,464.52h1.48v2.05H239.8Z" fill="#3a3d3f"/><line x1="37.28" y1="46.01" x2="536.87" y2="46.01" fill="none" stroke="#ddd" stroke-miterlimit="10"/><path d="M61.16,225.49H57v-.79l2.45-6.15h1.1l-2.49,6h3.12v-2.69h1v2.69h1.1v.89h-1.1v1.68h-1Z" fill="#4c4c4c"/><path d="M42.09,215.4c0,3.3-1.16,4.31-3.13,4.31s-3.15-1-3.15-4.3c0-3.55,1.15-4.6,3.13-4.6S42.09,211.85,42.09,215.4Zm-5.24,0c0,2.71.75,3.41,2.11,3.41s2.1-.72,2.1-3.42c0-2.9-.67-3.68-2.1-3.68S36.85,212.47,36.85,215.41Z" fill="#4c4c4c"/><path d="M36.2,193.83V193l2.52-2.65c1.07-1.11,1.74-1.82,1.74-2.84S39.82,186,38.58,186a12.61,12.61,0,0,0-2.24.29l-.07-.84a10.5,10.5,0,0,1,2.49-.35c1.82,0,2.73.69,2.73,2.31,0,1.29-.59,2.05-1.8,3.23L37.39,193h4.32v.88Z" fill="#4c4c4c"/><path d="M40,165.48H35.82v-.78l2.46-6.16h1.1l-2.5,6.05H40V161.9h1v2.69h1.1v.89H41v1.69H40Z" fill="#4c4c4c"/><path d="M41.6,132.79a21,21,0,0,0-2.28-.15c-1.5,0-2.32,1.07-2.32,3a7.62,7.62,0,0,1,2.15-.5c1.91,0,2.9.86,2.9,2.67s-1.09,2.85-3,2.85c-2.15,0-3.09-1.69-3.09-4.48,0-3.12,1.32-4.4,3.37-4.4a16.39,16.39,0,0,1,2.37.22ZM37,136.5c0,1.84.57,3.24,2.06,3.24a1.77,1.77,0,0,0,2-2c0-1.2-.72-1.77-1.92-1.77A6.11,6.11,0,0,0,37,136.5Z" fill="#4c4c4c"/><path d="M135.93,220.67a1.92,1.92,0,0,1-1.43,2,2.17,2.17,0,0,1,1.56,2.17c0,1.89-1.46,2.47-3.25,2.47s-3.21-.54-3.21-2.33a2.3,2.3,0,0,1,1.49-2.31,2,2,0,0,1-1.35-2c0-1.48,1.19-2.23,3.07-2.23S135.93,219.15,135.93,220.67Zm-.94,4.07c0-1-.66-1.33-1.53-1.58h-1.37c-.9.25-1.42.69-1.42,1.66,0,1.19.91,1.58,2.14,1.58S135,226,135,224.74Zm-4.18-4c0,.8.43,1.22,1.28,1.52h1.37c.89-.29,1.4-.71,1.4-1.51,0-1-.77-1.44-2-1.44S130.81,219.74,130.81,220.77Z" fill="#4c4c4c"/><path d="M206,218.56H207v8.63h-1v-7.5l-2.22,1.46-.46-.76Z" fill="#4c4c4c"/><path d="M210.12,227.19v-.85l2.52-2.65c1.07-1.12,1.74-1.82,1.74-2.84s-.64-1.51-1.88-1.51a12.86,12.86,0,0,0-2.24.28l-.08-.83a10.26,10.26,0,0,1,2.5-.36c1.81,0,2.73.7,2.73,2.32,0,1.29-.59,2.05-1.8,3.22l-2.3,2.34h4.32v.88Z" fill="#4c4c4c"/><path d="M286.08,218.56H287v8.63h-1v-7.5l-2.22,1.46-.46-.76Z" fill="#4c4c4c"/><path d="M295.55,219.48a19.42,19.42,0,0,0-2.27-.16c-1.5,0-2.33,1.07-2.33,3a7.24,7.24,0,0,1,2.16-.51c1.91,0,2.9.86,2.9,2.68s-1.1,2.85-3,2.85c-2.14,0-3.08-1.69-3.08-4.48,0-3.13,1.32-4.41,3.37-4.41a15.48,15.48,0,0,1,2.36.23Zm-4.61,3.71c0,1.84.56,3.24,2.05,3.24a1.77,1.77,0,0,0,2-2c0-1.2-.72-1.78-1.92-1.78A6,6,0,0,0,290.94,223.19Z" fill="#4c4c4c"/><path d="M362.88,227.19v-.85l2.52-2.65c1.07-1.12,1.74-1.82,1.74-2.84s-.64-1.51-1.88-1.51a12.86,12.86,0,0,0-2.24.28l-.07-.83a10.24,10.24,0,0,1,2.49-.36c1.82,0,2.73.7,2.73,2.32,0,1.29-.59,2.05-1.8,3.22l-2.3,2.34h4.32v.88Z" fill="#4c4c4c"/><path d="M376.08,223c0,3.3-1.16,4.31-3.13,4.31s-3.15-1-3.15-4.3c0-3.55,1.15-4.6,3.14-4.6S376.08,219.45,376.08,223Zm-5.23,0c0,2.7.74,3.41,2.1,3.41s2.1-.72,2.1-3.42c0-2.9-.66-3.69-2.1-3.69S370.85,220.08,370.85,223Z" fill="#4c4c4c"/><path d="M464.26,227.19v-.85l2.53-2.65c1.07-1.12,1.73-1.82,1.73-2.84s-.64-1.51-1.88-1.51a12.85,12.85,0,0,0-2.23.28l-.08-.83a10.24,10.24,0,0,1,2.49-.36c1.82,0,2.73.7,2.73,2.32,0,1.29-.58,2.05-1.8,3.22l-2.3,2.34h4.33v.88Z" fill="#4c4c4c"/><path d="M475.38,225.5H471.2v-.78l2.45-6.16h1.1l-2.49,6.05h3.12v-2.69h1v2.69h1.1v.89h-1.1v1.69h-1Z" fill="#4c4c4c"/><line x1="49.56" y1="126.55" x2="49.56" y2="222.66" fill="none" stroke="#adadad" stroke-miterlimit="10"/><line x1="480.4" y1="215.3" x2="45.59" y2="215.3" fill="none" stroke="#adadad" stroke-miterlimit="10"/><g style="isolation:isolate"><rect x="85.42" y="143.34" width="13.36" height="71.21" fill="#76ce89"/><g clip-path="url(#clip-path)"><rect x="85.54" y="143.37" width="13.12" height="71.16" transform="translate(-0.62 0.32) rotate(-0.2)" fill="#76ce89"/></g></g><g style="isolation:isolate"><rect x="102.77" y="145.33" width="13.36" height="69.23" fill="#76ce89"/><g clip-path="url(#clip-path-2)"><rect x="102.89" y="145.36" width="13.12" height="69.17" transform="translate(-0.62 0.38) rotate(-0.2)" fill="#76ce89"/></g></g><g style="isolation:isolate"><rect x="120.12" y="148.3" width="13.35" height="66.25" fill="#76ce89"/><g clip-path="url(#clip-path-3)"><rect x="120.23" y="148.33" width="13.12" height="66.2" transform="translate(-0.62 0.44) rotate(-0.2)" fill="#76ce89"/></g></g><g style="isolation:isolate"><rect x="137.46" y="148.64" width="13.35" height="65.92" fill="#76ce89"/><g clip-path="url(#clip-path-4)"><rect x="137.58" y="148.66" width="13.12" height="65.87" transform="translate(-0.62 0.5) rotate(-0.2)" fill="#76ce89"/></g></g><g style="isolation:isolate"><rect x="154.8" y="148.65" width="13.34" height="65.91" fill="#76ce89"/><g clip-path="url(#clip-path-5)"><rect x="154.91" y="148.67" width="13.12" height="65.86" transform="translate(-0.62 0.56) rotate(-0.2)" fill="#76ce89"/></g></g><g style="isolation:isolate"><rect x="172.13" y="148.64" width="13.34" height="65.92" fill="#76ce89"/><g clip-path="url(#clip-path-6)"><rect x="172.24" y="148.66" width="13.12" height="65.87" transform="translate(-0.63 0.62) rotate(-0.2)" fill="#76ce89"/></g></g><g style="isolation:isolate"><rect x="189.47" y="151.98" width="13.34" height="62.58" fill="#76ce89"/><g clip-path="url(#clip-path-7)"><rect x="189.58" y="152" width="13.12" height="62.53" transform="translate(-0.63 0.68) rotate(-0.2)" fill="#76ce89"/></g></g><g style="isolation:isolate"><rect x="206.8" y="154.2" width="13.32" height="60.36" fill="#76ce89"/><g clip-path="url(#clip-path-8)"><rect x="206.9" y="154.22" width="13.12" height="60.31" transform="translate(-0.63 0.73) rotate(-0.2)" fill="#76ce89"/></g></g><g style="isolation:isolate"><rect x="224.11" y="154.2" width="13.32" height="60.36" fill="#76ce89"/><g clip-path="url(#clip-path-9)"><rect x="224.21" y="154.22" width="13.12" height="60.31" transform="translate(-0.63 0.79) rotate(-0.2)" fill="#76ce89"/></g></g><g style="isolation:isolate"><rect x="241.42" y="156.41" width="13.32" height="58.15" fill="#76ce89"/><g clip-path="url(#clip-path-10)"><rect x="241.51" y="156.43" width="13.12" height="58.1" transform="translate(-0.64 0.86) rotate(-0.2)" fill="#76ce89"/></g></g><g style="isolation:isolate"><rect x="258.73" y="157.53" width="13.32" height="57.03" fill="#76ce89"/><g clip-path="url(#clip-path-11)"><rect x="258.82" y="157.55" width="13.12" height="56.98" transform="translate(-0.64 0.91) rotate(-0.2)" fill="#76ce89"/></g></g><g style="isolation:isolate"><rect x="276.04" y="159.74" width="13.31" height="54.82" fill="#76ce89"/><g clip-path="url(#clip-path-12)"><rect x="276.13" y="159.76" width="13.12" height="54.77" transform="translate(-0.64 0.97) rotate(-0.2)" fill="#76ce89"/></g></g><g style="isolation:isolate"><rect x="293.33" y="161.97" width="13.3" height="52.59" fill="#76ce89"/><g clip-path="url(#clip-path-13)"><rect x="293.43" y="161.99" width="13.12" height="52.54" transform="translate(-0.65 1.03) rotate(-0.2)" fill="#76ce89"/></g></g><rect x="310.62" y="165.29" width="13.29" height="49.27" fill="#ffda00"/><g clip-path="url(#clip-path-14)"><rect x="310.7" y="165.31" width="13.12" height="49.22" transform="translate(-0.65 1.09) rotate(-0.2)" fill="#ffda00"/></g><rect x="327.9" y="167.51" width="13.28" height="47.05" fill="#ffda00"/><g clip-path="url(#clip-path-15)"><rect x="327.98" y="167.53" width="13.12" height="47" transform="translate(-0.66 1.15) rotate(-0.2)" fill="#ffda00"/></g><rect x="345.17" y="195.26" width="13.27" height="19.3" fill="#ff4200"/><g clip-path="url(#clip-path-16)"><polygon points="345.32 214.56 345.17 195.28 358.29 195.26 358.44 214.53 345.32 214.56" fill="#ff4200"/></g><rect x="362.43" y="165.29" width="13.26" height="49.27" fill="#76ce89"/><g clip-path="url(#clip-path-17)"><polygon points="362.56 214.56 362.43 165.35 375.55 165.28 375.68 214.49 362.56 214.56" fill="#76ce89"/></g><rect x="379.67" y="170.84" width="13.22" height="43.72" fill="#76ce89"/><g clip-path="url(#clip-path-18)"><polygon points="379.78 214.56 379.67 170.91 392.79 170.84 392.9 214.49 379.78 214.56" fill="#76ce89"/></g><g style="isolation:isolate"><rect x="448.55" y="172.37" width="13.28" height="42.19" fill="#76ce89"/><g clip-path="url(#clip-path-19)"><rect x="448.62" y="172.4" width="13.12" height="42.14" transform="translate(-0.69 1.62) rotate(-0.2)" fill="#76ce89"/></g></g><g style="isolation:isolate"><rect x="431.28" y="172.37" width="13.28" height="42.19" fill="#76ce89"/><g clip-path="url(#clip-path-20)"><rect x="431.36" y="172.4" width="13.12" height="42.14" transform="translate(-0.69 1.56) rotate(-0.2)" fill="#76ce89"/></g></g><g style="isolation:isolate"><rect x="465.81" y="172.37" width="13.28" height="42.19" fill="#76ce89"/><g clip-path="url(#clip-path-21)"><rect x="465.89" y="172.4" width="13.12" height="42.14" transform="translate(-0.69 1.69) rotate(-0.2)" fill="#76ce89"/></g></g><rect x="396.89" y="172.37" width="13.22" height="42.19" fill="#76ce89"/><g clip-path="url(#clip-path-22)"><polygon points="396.99 214.56 396.89 172.44 410.01 172.37 410.11 214.49 396.99 214.56" fill="#76ce89"/></g><rect x="414.1" y="172.37" width="13.18" height="42.19" fill="#76ce89"/><g clip-path="url(#clip-path-23)"><polygon points="414.17 214.55 414.1 172.47 427.22 172.36 427.29 214.44 414.17 214.55" fill="#76ce89"/></g><g style="isolation:isolate"><rect x="68.05" y="139.36" width="13.37" height="75.24" fill="#76ce89"/><g clip-path="url(#clip-path-24)"><rect x="68.18" y="139.38" width="13.12" height="75.2" transform="translate(-0.61 0.26) rotate(-0.2)" fill="#76ce89"/></g></g><g style="isolation:isolate"><rect x="50.68" y="136.38" width="13.38" height="78.27" fill="#76ce89"/><g clip-path="url(#clip-path-25)"><rect x="50.81" y="136.41" width="13.12" height="78.22" transform="translate(-0.6 0.2) rotate(-0.2)" fill="#76ce89"/></g></g></g></g></svg>