<svg xmlns="http://www.w3.org/2000/svg" viewBox="0 0 579.59 494.77"><title>r_4_B_Tablet</title><g id="Layer_2" data-name="Layer 2"><g id="MC_Tab_Content"><line x1="0.23" y1="0.5" x2="579.59" y2="0.5" fill="none" stroke="#ddd" stroke-miterlimit="10"/><rect y="0.5" width="579.59" height="494.27" fill="#f7f7f7"/><line x1="0.23" y1="0.5" x2="579.59" y2="0.5" fill="none" stroke="#ddd" stroke-miterlimit="10"/></g><g id="PF_Cont_Screen"><polygon points="331.61 272.18 331.61 292.58 365.91 292.68 365.93 268.28 351.41 270.28 331.61 272.18" fill="#8dd69d"/><path d="M29.55,29.69h8.28v1.36H31.09v5.4h5.7v1.36h-5.7v5.72H29.55Z"/><path d="M40.06,43.53V29.69h1.55V42.15h6.08v1.38Z"/><path d="M49.65,29.69h1.54V43.53H49.65Z"/><path d="M60.05,36.45h3.82v6.8a33.71,33.71,0,0,1-4.5.48c-4.24,0-5.36-2.6-5.36-7.08s1.16-7.16,5.32-7.16a25.77,25.77,0,0,1,4.54.52l-.06,1.28a31.73,31.73,0,0,0-4.3-.42c-3.2,0-3.9,1.86-3.9,5.78s.68,5.72,3.88,5.72a18.56,18.56,0,0,0,2.86-.28V37.83h-2.3Z"/><path d="M75.47,37.27h-7v6.26H66.89V29.69h1.54v6.2h7v-6.2H77V43.53H75.47Z"/><path d="M78.94,29.69H89v1.38H84.73V43.53H83.21V31.07H78.94Z"/><path d="M29.79,446.22h9v1.25H35v11.21H33.63V447.47H29.79Z" fill="#3a3d3f"/><path d="M40.32,458.68V445.76h1.35v4.43a7.57,7.57,0,0,1,2.78-.69c2.46,0,3,1.23,3,4.43v4.75H46.14V454c0-2.38-.27-3.26-1.93-3.26a7.48,7.48,0,0,0-2.54.54v7.43Z" fill="#3a3d3f"/><path d="M56.63,457.51l0,1.07a32.2,32.2,0,0,1-3.51.28c-2.68,0-3.57-1.56-3.57-4.62,0-3.42,1.48-4.74,3.77-4.74S57,450.76,57,453.71l-.08,1H51c0,1.93.6,2.94,2.36,2.94C54.67,457.68,56.63,457.51,56.63,457.51Zm-1-3.85c0-2.23-.69-3-2.27-3s-2.4.84-2.42,3Z" fill="#3a3d3f"/><path d="M63,458.68v-9h1.33v.63A6,6,0,0,1,67,449.5a2.53,2.53,0,0,1,2.34.92,7.47,7.47,0,0,1,3.21-.92c2.45,0,3,1.17,3,4.43v4.75H74.24V454c0-2.38-.27-3.26-1.89-3.26a6,6,0,0,0-2.54.66A10.4,10.4,0,0,1,70,454v4.68H68.69V454c0-2.49-.25-3.33-1.89-3.33a5.39,5.39,0,0,0-2.41.66v7.31Z" fill="#3a3d3f"/><path d="M85.4,454.07c0,3.28-.81,4.79-3.86,4.79s-3.85-1.51-3.85-4.79c0-3.09,1-4.57,3.85-4.57S85.4,451,85.4,454.07Zm-1.39,0c0-2.5-.54-3.4-2.47-3.4s-2.46.9-2.46,3.4.34,3.62,2.46,3.62S84,456.63,84,454.07Z" fill="#3a3d3f"/><path d="M93.57,451a29.33,29.33,0,0,0-3.15-.29c-1.12,0-2,.3-2,1.37,0,.84.43,1.08,2.34,1.4,2.25.38,3.09.83,3.09,2.57,0,2.11-1.33,2.81-3.49,2.81a25.65,25.65,0,0,1-3.17-.34l.07-1.17a29.86,29.86,0,0,0,3,.31c1.48,0,2.27-.33,2.27-1.55,0-.94-.47-1.17-2.43-1.48s-3-.7-3-2.5c0-2,1.6-2.63,3.24-2.63a23.19,23.19,0,0,1,3.26.34Z" fill="#3a3d3f"/><path d="M97.76,450.85v4.3c0,2,.13,2.53,1.3,2.53.5,0,1.6-.11,1.6-.11l.09,1.11a15.43,15.43,0,0,1-1.84.2c-1.85,0-2.48-.7-2.48-3.29v-4.74H95.15v-1.17h1.28v-2.75h1.33v2.75h2.87v1.17Z" fill="#3a3d3f"/><path d="M112.22,451a29.33,29.33,0,0,0-3.15-.29c-1.12,0-2,.3-2,1.37,0,.84.43,1.08,2.33,1.4,2.26.38,3.1.83,3.1,2.57,0,2.11-1.33,2.81-3.49,2.81a25.65,25.65,0,0,1-3.17-.34l.07-1.17a29.5,29.5,0,0,0,3,.31c1.48,0,2.27-.33,2.27-1.55,0-.94-.47-1.17-2.43-1.48s-3-.7-3-2.5c0-2,1.61-2.63,3.24-2.63a23,23,0,0,1,3.26.34Z" fill="#3a3d3f"/><path d="M121.58,449.68v9h-1.35v-.63a6.08,6.08,0,0,1-2.67.81c-2.52,0-3-1.17-3-4.48v-4.7h1.35v4.68c0,2.49.22,3.3,1.89,3.3a5.47,5.47,0,0,0,2.47-.67v-7.31Z" fill="#3a3d3f"/><path d="M124.17,446.08h1.35v1.57h-1.35Zm0,3.6h1.35v9h-1.35Z" fill="#3a3d3f"/><path d="M129.91,450.85v4.3c0,2,.13,2.53,1.3,2.53.5,0,1.6-.11,1.6-.11l.09,1.11a15.71,15.71,0,0,1-1.84.2c-1.85,0-2.48-.7-2.48-3.29v-4.74H127.3v-1.17h1.28v-2.75h1.33v2.75h2.86v1.17Z" fill="#3a3d3f"/><path d="M140.78,457c0,.52.47.72,1.05.79l-.06,1.06a2.75,2.75,0,0,1-2.14-.72,9.2,9.2,0,0,1-3.24.72c-1.64,0-2.54-.93-2.54-2.75s.9-2.49,2.76-2.67l2.82-.27v-.77c0-1.26-.54-1.71-1.62-1.71-1.26,0-3.4.23-3.4.23l0-1a21.6,21.6,0,0,1,3.53-.4c2,0,2.89.94,2.89,2.9Zm-4-2.56c-1.1.11-1.53.63-1.53,1.62s.45,1.66,1.37,1.66a9.47,9.47,0,0,0,2.82-.56v-3Z" fill="#3a3d3f"/><path d="M150.7,454c0,3.58-1,4.82-4.25,4.82-1.08,0-3-.19-3-.19V445.76h1.33v4.37a7.44,7.44,0,0,1,2.65-.63C149.87,449.5,150.7,450.8,150.7,454Zm-1.37,0c0-2.32-.46-3.33-2.05-3.33a7.57,7.57,0,0,0-2.5.52v6.34s1.17.09,1.66.09C148.9,457.66,149.33,456.56,149.33,454Z" fill="#3a3d3f"/><path d="M153,445.76h1.35v12.92H153Z" fill="#3a3d3f"/><path d="M163.72,457.51l0,1.07a32.2,32.2,0,0,1-3.51.28c-2.68,0-3.56-1.56-3.56-4.62,0-3.42,1.47-4.74,3.76-4.74s3.62,1.26,3.62,4.21l-.07,1h-6c0,1.93.6,2.94,2.36,2.94C161.75,457.68,163.72,457.51,163.72,457.51Zm-1-3.85c0-2.23-.69-3-2.27-3s-2.4.84-2.41,3Z" fill="#3a3d3f"/><path d="M176.19,449.86l-.07,1.91s-1.42-.14-2.11-.14c-1.73,0-2,.66-2,2.46,0,2,.34,2.65,2.07,2.65.68,0,2.09-.14,2.09-.14l.07,1.92a21.22,21.22,0,0,1-2.93.38c-2.69,0-3.75-1.42-3.75-4.81,0-3.18,1.12-4.63,3.8-4.63A18.34,18.34,0,0,1,176.19,449.86Z" fill="#3a3d3f"/><path d="M178,458.68v-12.6h2.41v4a6,6,0,0,1,2.24-.65c2.52,0,3.16,1.59,3.16,4.34v4.88h-2.41v-4.82c0-1.35-.18-2.23-1.35-2.23a6.12,6.12,0,0,0-1.64.28v6.77Z" fill="#3a3d3f"/><path d="M195.05,456.61l0,1.79a19.18,19.18,0,0,1-3.74.5c-2.72,0-3.88-1.35-3.88-4.59s1.35-4.85,4-4.85,3.93,1.36,3.93,4.07l-.18,1.68h-5.3c0,1.08.53,1.57,1.82,1.57C193.2,456.78,195.05,456.61,195.05,456.61ZM193,453.37c0-1.46-.41-1.92-1.55-1.92s-1.55.55-1.56,1.92Z" fill="#3a3d3f"/><path d="M203.35,449.86l-.07,1.91s-1.42-.14-2.11-.14c-1.73,0-2,.66-2,2.46,0,2,.34,2.65,2.07,2.65.69,0,2.09-.14,2.09-.14l.07,1.92a21,21,0,0,1-2.93.38c-2.69,0-3.75-1.42-3.75-4.81,0-3.18,1.12-4.63,3.8-4.63A18.14,18.14,0,0,1,203.35,449.86Z" fill="#3a3d3f"/><path d="M205.13,458.68v-12.6h2.42v7.17l.91-.17,1.79-3.4H213L210.61,454l2.46,4.73h-2.72l-1.81-3.51-1,.16v3.35Z" fill="#3a3d3f"/><path d="M214.29,452.8h5.33V455h-5.33Z" fill="#3a3d3f"/><path d="M221.75,446.08h2.41v2.45h-2.41Zm0,3.6h2.41v9h-2.41Z" fill="#3a3d3f"/><path d="M226.39,458.68v-9h2.39v.51a5.44,5.44,0,0,1,2.25-.73c2.53,0,3.17,1.59,3.17,4.34v4.88h-2.41v-4.8c0-1.37-.18-2.25-1.35-2.25a5,5,0,0,0-1.64.32v6.73Z" fill="#3a3d3f"/><path d="M248,458.68h-2.4v-.37a6.51,6.51,0,0,1-2.18.59c-2.72,0-3.51-1.58-3.51-4.75s1.28-4.69,3.73-4.69a13.67,13.67,0,0,1,1.94.26v-3.64H248Zm-2.42-2.21v-4.74a11.93,11.93,0,0,0-1.76-.18c-.9,0-1.46.78-1.46,2.6s.34,2.59,1.48,2.59A7.05,7.05,0,0,0,245.54,456.47Z" fill="#3a3d3f"/><path d="M257.31,456.61l0,1.79a19.18,19.18,0,0,1-3.74.5c-2.72,0-3.88-1.35-3.88-4.59s1.36-4.85,4-4.85,3.93,1.36,3.93,4.07l-.18,1.68h-5.29c0,1.08.52,1.57,1.81,1.57C255.46,456.78,257.31,456.61,257.31,456.61Zm-2.05-3.24c0-1.46-.41-1.92-1.55-1.92s-1.54.55-1.56,1.92Z" fill="#3a3d3f"/><path d="M265.83,451.93s-2.23-.29-3.28-.29-1.26.24-1.26.72.34.51,2,.81c2.09.38,2.83,1,2.83,2.81,0,2.11-1.37,2.92-3.62,2.92a22.75,22.75,0,0,1-3.46-.43l.07-2s2.24.29,3.15.29c1.16,0,1.46-.23,1.46-.7s-.2-.58-1.85-.85c-1.95-.32-3-.79-3-2.77s1.58-2.94,3.47-2.94a23,23,0,0,1,3.49.45Z" fill="#3a3d3f"/><path d="M267.86,458.68v-12.6h2.41v7.17l.92-.17,1.78-3.4h2.71L273.33,454l2.47,4.73h-2.72l-1.82-3.51-1,.16v3.35Z" fill="#3a3d3f"/><path d="M283.59,451.93s-2.23-.29-3.27-.29-1.26.24-1.26.72.34.51,2,.81c2.08.38,2.82,1,2.82,2.81,0,2.11-1.37,2.92-3.62,2.92a22.54,22.54,0,0,1-3.45-.43l.07-2s2.23.29,3.15.29c1.15,0,1.46-.23,1.46-.7s-.2-.58-1.86-.85c-1.94-.32-3-.79-3-2.77s1.59-2.94,3.48-2.94a23.2,23.2,0,0,1,3.49.45Z" fill="#3a3d3f"/><path d="M291.5,458.68h-1.35v-7.83H289v-1.17h1.14v-.81c0-2.59.66-3.29,2.43-3.29.61,0,1.81.12,1.81.12v1.12s-1,0-1.55,0c-1,0-1.33.43-1.33,2.11v.79h2.61v1.17H291.5Z" fill="#3a3d3f"/><path d="M303,454.07c0,3.28-.81,4.79-3.85,4.79s-3.85-1.51-3.85-4.79c0-3.09,1-4.57,3.85-4.57S303,451,303,454.07Zm-1.38,0c0-2.5-.54-3.4-2.47-3.4s-2.46.9-2.46,3.4.34,3.62,2.46,3.62S301.65,456.63,301.65,454.07Z" fill="#3a3d3f"/><path d="M305.23,449.68h1.33v1.23a10.32,10.32,0,0,1,3.3-1.43v1.37a12.78,12.78,0,0,0-3.28,1.23v6.6h-1.35Z" fill="#3a3d3f"/><path d="M317.22,450.85v4.3c0,2,.12,2.53,1.29,2.53.51,0,1.61-.11,1.61-.11l.09,1.11a15.71,15.71,0,0,1-1.84.2c-1.86,0-2.49-.7-2.49-3.29v-4.74h-1.27v-1.17h1.27v-2.75h1.34v2.75h2.86v1.17Z" fill="#3a3d3f"/><path d="M321.73,458.68V445.76h1.35v4.43a7.57,7.57,0,0,1,2.78-.69c2.46,0,3,1.23,3,4.43v4.75h-1.35V454c0-2.38-.27-3.26-1.93-3.26a7.48,7.48,0,0,0-2.54.54v7.43Z" fill="#3a3d3f"/><path d="M331.4,446.08h1.35v1.57H331.4Zm0,3.6h1.35v9H331.4Z" fill="#3a3d3f"/><path d="M341.32,451a29.33,29.33,0,0,0-3.15-.29c-1.12,0-2,.3-2,1.37,0,.84.43,1.08,2.34,1.4,2.25.38,3.1.83,3.1,2.57,0,2.11-1.34,2.81-3.5,2.81a25.65,25.65,0,0,1-3.17-.34l.07-1.17a29.8,29.8,0,0,0,3,.31c1.47,0,2.26-.33,2.26-1.55,0-.94-.46-1.17-2.43-1.48s-3-.7-3-2.5c0-2,1.6-2.63,3.24-2.63a23.19,23.19,0,0,1,3.26.34Z" fill="#3a3d3f"/><path d="M349.4,458.68h-1.35v-7.83h-1.13v-1.17h1.13v-.81c0-2.59.67-3.29,2.43-3.29.61,0,1.82.12,1.82.12l0,1.12s-1,0-1.55,0c-1,0-1.33.43-1.33,2.11v.79H352v1.17H349.4Z" fill="#3a3d3f"/><path d="M353.74,445.76h1.35v12.92h-1.35Z" fill="#3a3d3f"/><path d="M357.79,446.08h1.35v1.57h-1.35Zm0,3.6h1.35v9h-1.35Z" fill="#3a3d3f"/><path d="M361.34,460.2c0-1.05.48-1.53,1.42-2.24a1.43,1.43,0,0,1-.51-1.24,5.78,5.78,0,0,1,.62-1.42c-.76-.34-1.43-1.06-1.43-2.72,0-2.22,1.37-3.08,3.37-3.08a9.07,9.07,0,0,1,1.87.24l2.67-.08v1.16l-1.71,0a2.35,2.35,0,0,1,.59,1.8c0,2.34-1.17,3-3.47,3a6.94,6.94,0,0,1-.89-.07,5.32,5.32,0,0,0-.32,1c0,.72.14.83,2.18.83,2.56,0,3.47.5,3.47,2.64s-1.45,2.87-4,2.87C362.36,462.92,361.34,462.28,361.34,460.2Zm2.34-1.7c-.76.56-1,.89-1,1.59,0,1.24.52,1.69,2.55,1.69,1.8,0,2.62-.49,2.62-1.67,0-1.37-.58-1.52-2.22-1.52C365,458.59,363.68,458.5,363.68,458.5Zm3.2-5.92c0-1.42-.56-2-2.07-2s-2,.56-2,2,.62,2,2,2S366.88,454,366.88,452.58Z" fill="#3a3d3f"/><path d="M371,458.68V445.76h1.35v4.43a7.57,7.57,0,0,1,2.78-.69c2.46,0,3,1.23,3,4.43v4.75H376.8V454c0-2.38-.27-3.26-1.93-3.26a7.41,7.41,0,0,0-2.54.54v7.43Z" fill="#3a3d3f"/><path d="M382.45,450.85v4.3c0,2,.13,2.53,1.3,2.53.5,0,1.6-.11,1.6-.11l.09,1.11a15.71,15.71,0,0,1-1.84.2c-1.85,0-2.48-.7-2.48-3.29v-4.74h-1.28v-1.17h1.28v-2.75h1.33v2.75h2.86v1.17Z" fill="#3a3d3f"/><path d="M397.28,457c0,.52.47.72,1.05.79l-.06,1.06a2.75,2.75,0,0,1-2.14-.72,9.2,9.2,0,0,1-3.24.72c-1.64,0-2.54-.93-2.54-2.75s.9-2.49,2.76-2.67l2.82-.27v-.77c0-1.26-.54-1.71-1.62-1.71-1.26,0-3.4.23-3.4.23l-.05-1a21.57,21.57,0,0,1,3.52-.4c2,0,2.9.94,2.9,2.9Zm-4-2.56c-1.1.11-1.53.63-1.53,1.62s.45,1.66,1.37,1.66a9.47,9.47,0,0,0,2.82-.56v-3Z" fill="#3a3d3f"/><path d="M399.94,449.68h1.34v1.23a10.21,10.21,0,0,1,3.29-1.43v1.37a12.81,12.81,0,0,0-3.27,1.23v6.6h-1.36Z" fill="#3a3d3f"/><path d="M412.82,457.51l0,1.07a32.2,32.2,0,0,1-3.51.28c-2.68,0-3.56-1.56-3.56-4.62,0-3.42,1.47-4.74,3.76-4.74s3.62,1.26,3.62,4.21l-.07,1h-5.94c0,1.93.59,2.94,2.35,2.94C410.85,457.68,412.82,457.51,412.82,457.51Zm-1-3.85c0-2.23-.69-3-2.27-3s-2.39.84-2.41,3Z" fill="#3a3d3f"/><path d="M426.86,449a26.61,26.61,0,0,0-3.35-.28c-1.64,0-2.4,1.14-2.4,2.78a11.21,11.21,0,0,1,2.27-.45c2.68,0,4.09,1.17,4.09,3.85s-1.68,4-4.36,4c-3.17,0-4.55-2.32-4.55-6.1,0-4.54,1.91-6.22,4.95-6.22a17.59,17.59,0,0,1,3.56.53Zm-5.76,4.6c0,1.73.5,3.12,2,3.12a1.65,1.65,0,0,0,1.8-1.82,1.54,1.54,0,0,0-1.74-1.69A7.24,7.24,0,0,0,421.1,453.62Z" fill="#3a3d3f"/><path d="M436.94,449a26.61,26.61,0,0,0-3.35-.28c-1.64,0-2.4,1.14-2.4,2.78a11.21,11.21,0,0,1,2.27-.45c2.69,0,4.09,1.17,4.09,3.85s-1.68,4-4.36,4c-3.17,0-4.55-2.32-4.55-6.1,0-4.54,1.91-6.22,4.95-6.22a17.59,17.59,0,0,1,3.56.53Zm-5.76,4.6c0,1.73.5,3.12,2,3.12a1.65,1.65,0,0,0,1.8-1.82,1.54,1.54,0,0,0-1.74-1.69A7.24,7.24,0,0,0,431.18,453.62Z" fill="#3a3d3f"/><path d="M449.7,457c0,.52.47.72,1,.79l-.05,1.06a2.74,2.74,0,0,1-2.14-.72,9.2,9.2,0,0,1-3.24.72c-1.64,0-2.54-.93-2.54-2.75s.9-2.49,2.75-2.67l2.83-.27v-.77c0-1.26-.54-1.71-1.62-1.71-1.26,0-3.41.23-3.41.23l-.05-1a21.6,21.6,0,0,1,3.53-.4c2,0,2.9.94,2.9,2.9Zm-4-2.56c-1.09.11-1.53.63-1.53,1.62s.45,1.66,1.37,1.66a9.57,9.57,0,0,0,2.83-.56v-3Z" fill="#3a3d3f"/><path d="M452.36,458.68v-9h1.33v.63a6.85,6.85,0,0,1,2.79-.81c2.49,0,3,1.23,3,4.43v4.75h-1.34V454c0-2.38-.27-3.26-1.94-3.26a6.19,6.19,0,0,0-2.54.66v7.31Z" fill="#3a3d3f"/><path d="M468.94,458.68h-1.33v-.61a6.49,6.49,0,0,1-2.74.79c-1.76,0-3.24-.72-3.24-4.61,0-3.16,1-4.75,3.76-4.75a14.13,14.13,0,0,1,2.22.24v-4h1.33ZM467.61,457v-6.1a14.42,14.42,0,0,0-2.14-.22c-1.9,0-2.45,1.24-2.45,3.58,0,2.92,1,3.41,2,3.41A6.54,6.54,0,0,0,467.61,457Z" fill="#3a3d3f"/><path d="M480,456.72h-5v-1.89l2.94-8h2.73l-3.18,7.76H480v-3.33h2.49v3.33h1.13v2.16h-1.13v2H480Z" fill="#3a3d3f"/><path d="M493.67,449.84a2.78,2.78,0,0,1-1.29,2.72,3.24,3.24,0,0,1,1.47,2.9c0,2.5-2.05,3.44-4.55,3.44s-4.5-.74-4.5-3.24a3.43,3.43,0,0,1,1.49-3.1,2.94,2.94,0,0,1-1.3-2.73c0-2.06,1.71-3.25,4.31-3.25S493.67,447.75,493.67,449.84Zm-2.48,5.24a1.46,1.46,0,0,0-1.06-1.35h-1.59a1.45,1.45,0,0,0-1.08,1.35c0,1.1.61,1.59,1.84,1.59S491.19,456.18,491.19,455.08Zm-3.53-4.86a1.67,1.67,0,0,0,.88,1.41h1.59a1.69,1.69,0,0,0,.88-1.41c0-.9-.58-1.4-1.68-1.4S487.66,449.32,487.66,450.22Z" fill="#3a3d3f"/><path d="M495.38,455.7H498v3h-2.59Z" fill="#3a3d3f"/><line x1="26.31" y1="51.84" x2="525.9" y2="51.84" fill="none" stroke="#ddd" stroke-miterlimit="10"/><line x1="63.54" y1="207.38" x2="63.54" y2="293.08" fill="none" stroke="#adadad" stroke-miterlimit="10"/><line x1="518.34" y1="292.68" x2="63.54" y2="292.68" fill="none" stroke="#adadad" stroke-miterlimit="10"/><path d="M28.74,100.1h32.6v3.4H28.74Zm33.6-16a2.57,2.57,0,0,0-3.2-1.8L50,84.7l-11.8-11-3.3.9L42,86.9l-8.5,2.3-3.4-2.6-2.5.7,3.1,5.4L32,95l2.7-.7,9.1-2.4,7.5-2,9.1-2.4A3,3,0,0,0,62.34,84.1Z" fill="#f2a120"/><path d="M69,308.78h-3.5v-.7l2.1-5.2h.9l-2.1,5.1H69v-2.3h.8V308h.9v.7h-.9v1.4H69Z" fill="#4c4c4c"/><path d="M152,304.68a1.71,1.71,0,0,1-1.2,1.7c.8.4,1.3.8,1.3,1.8,0,1.6-1.2,2.1-2.7,2.1s-2.7-.5-2.7-2a1.87,1.87,0,0,1,1.3-1.9,1.63,1.63,0,0,1-1.1-1.7c0-1.3,1-1.9,2.6-1.9C150.94,302.78,152,303.38,152,304.68Zm-.8,3.4c0-.8-.6-1.1-1.3-1.3h-1.2a1.32,1.32,0,0,0-1.2,1.4c0,1,.8,1.3,1.8,1.3S151.24,309.18,151.24,308.08Zm-3.5-3.3c0,.7.4,1,1.1,1.3H150c.7-.2,1.2-.6,1.2-1.3,0-.9-.6-1.2-1.7-1.2S147.74,303.88,147.74,304.78Z" fill="#4c4c4c"/><path d="M231,302.88h.8v7.3H231v-6.3l-1.9,1.2-.4-.6Z" fill="#4c4c4c"/><path d="M234.44,310.18v-.7l2.1-2.2c.9-.9,1.5-1.5,1.5-2.4s-.5-1.3-1.6-1.3a13.13,13.13,0,0,0-1.9.2l-.1-.7a8.25,8.25,0,0,1,2.1-.3c1.5,0,2.3.6,2.3,1.9,0,1.1-.5,1.7-1.5,2.7l-1.9,2H239v.7h-4.6Z" fill="#4c4c4c"/><path d="M318.44,302.88h.8v7.3h-.8v-6.3l-1.9,1.2-.4-.6Z" fill="#4c4c4c"/><path d="M326.34,303.68s-1-.1-1.9-.1c-1.3,0-2,.9-2,2.5a5.91,5.91,0,0,1,1.8-.4c1.6,0,2.4.7,2.4,2.3a2.24,2.24,0,0,1-2.5,2.4c-1.8,0-2.6-1.4-2.6-3.8,0-2.6,1.1-3.7,2.8-3.7a13.38,13.38,0,0,1,2,.2Zm-3.8,3.1c0,1.6.5,2.7,1.7,2.7a1.5,1.5,0,0,0,1.7-1.6,1.4,1.4,0,0,0-1.6-1.5A5.11,5.11,0,0,0,322.54,306.78Z" fill="#4c4c4c"/><path d="M403,310.18v-.7l2.1-2.2c.9-.9,1.5-1.5,1.5-2.4s-.5-1.3-1.6-1.3a13.13,13.13,0,0,0-1.9.2l-.1-.7a8.25,8.25,0,0,1,2.1-.3c1.5,0,2.3.6,2.3,1.9,0,1.1-.5,1.7-1.5,2.7l-1.9,2h3.6v.7H403Z" fill="#4c4c4c"/><path d="M414.14,306.68c0,2.8-1,3.6-2.6,3.6s-2.7-.8-2.7-3.6c0-3,1-3.9,2.6-3.9C413.24,302.78,414.14,303.68,414.14,306.68Zm-4.4,0c0,2.3.6,2.9,1.8,2.9s1.8-.6,1.8-2.9-.6-3.1-1.8-3.1S409.74,304.18,409.74,306.68Z" fill="#4c4c4c"/><path d="M490.44,310.18v-.7l2.1-2.2c.9-.9,1.5-1.5,1.5-2.4s-.5-1.3-1.6-1.3a13.13,13.13,0,0,0-1.9.2l-.1-.7a8.25,8.25,0,0,1,2.1-.3c1.5,0,2.3.6,2.3,1.9,0,1.1-.5,1.7-1.5,2.7l-1.9,2H495v.7h-4.6Z" fill="#4c4c4c"/><path d="M499.84,308.78h-3.5v-.7l2.1-5.2h.9l-2.1,5.1h2.6v-2.3h.8V308h.9v.7h-.9v1.4h-.8Z" fill="#4c4c4c"/><path d="M54.94,286c0,2.8-1,3.6-2.6,3.6s-2.7-.8-2.7-3.6c0-3,1-3.9,2.6-3.9C54,282.23,54.94,283,54.94,286Zm-4.4,0c0,2.3.6,2.9,1.8,2.9s1.8-.6,1.8-2.9-.6-3.1-1.8-3.1S50.54,283.53,50.54,286Z" fill="#4c4c4c"/><path d="M47.54,259.13v.8H44l-.2,2.4a3.63,3.63,0,0,1,1.7-.5c1.4,0,2.3.6,2.3,2.1a2.19,2.19,0,0,1-2.4,2.5,12.69,12.69,0,0,1-2.4-.3l.1-.7a18.13,18.13,0,0,0,2.2.2,1.5,1.5,0,0,0,1.6-1.7,1.32,1.32,0,0,0-1.5-1.5,4.29,4.29,0,0,0-1.7.4l-.6-.1.2-3.8h4.2Z" fill="#4c4c4c"/><path d="M54.14,262.83c0,2.8-1,3.6-2.6,3.6s-2.7-.8-2.7-3.6c0-3,1-3.9,2.6-3.9C53.24,259,54.14,259.83,54.14,262.83Zm-4.4,0c0,2.3.6,2.9,1.8,2.9s1.8-.6,1.8-2.9-.6-3.1-1.8-3.1S49.74,260.33,49.74,262.83Z" fill="#4c4c4c"/><path d="M42.74,235h.8v7.3h-.8V236l-1.9,1.2-.4-.6Z" fill="#4c4c4c"/><path d="M51.14,238.83c0,2.8-1,3.6-2.6,3.6s-2.7-.8-2.7-3.6c0-3,1-3.9,2.6-3.9C50.24,234.93,51.14,235.83,51.14,238.83Zm-4.4,0c0,2.3.6,2.9,1.8,2.9s1.8-.6,1.8-2.9-.6-3.1-1.8-3.1S46.74,236.33,46.74,238.83Z" fill="#4c4c4c"/><path d="M57.24,238.83c0,2.8-1,3.6-2.6,3.6s-2.7-.8-2.7-3.6c0-3,1-3.9,2.6-3.9C56.34,234.93,57.24,235.83,57.24,238.83Zm-4.4,0c0,2.3.6,2.9,1.8,2.9s1.8-.6,1.8-2.9-.6-3.1-1.8-3.1S52.84,236.33,52.84,238.83Z" fill="#4c4c4c"/><path d="M42.74,211h.8v7.3h-.8V212l-1.9,1.2-.4-.6Z" fill="#4c4c4c"/><path d="M50.64,211v.8h-3.5l-.2,2.4a3.63,3.63,0,0,1,1.7-.5c1.4,0,2.3.6,2.3,2.1a2.19,2.19,0,0,1-2.4,2.5,12.69,12.69,0,0,1-2.4-.3l.1-.7a18.13,18.13,0,0,0,2.2.2,1.5,1.5,0,0,0,1.6-1.7,1.32,1.32,0,0,0-1.5-1.5,4.29,4.29,0,0,0-1.7.4l-.6-.1.2-3.8h4.2Z" fill="#4c4c4c"/><path d="M57.24,214.83c0,2.8-1,3.6-2.6,3.6s-2.7-.8-2.7-3.6c0-3,1-3.9,2.6-3.9C56.34,210.93,57.24,211.83,57.24,214.83Zm-4.4,0c0,2.3.6,2.9,1.8,2.9s1.8-.6,1.8-2.9-.6-3.1-1.8-3.1S52.84,212.33,52.84,214.83Z" fill="#4c4c4c"/><polyline points="65.14 288.08 81.04 288.08 101.64 285.08 115.34 279.08 125.24 279.18 137.74 281.18 157.24 276.18 175.44 275.18 202.54 282.38 223.14 278.38 255.74 242.48 285.04 252.48 295.44 266.18 322.84 273.18 357.04 270.18 384.54 266.18 411.94 245.18 430.14 247.18 448.44 261.18 464.44 261.18 477.04 275.18 497.54 283.18" fill="none" stroke="#2277d6" stroke-width="2"/><path d="M29.66,190.87v4.19H28.27V182.6h4.56c2.71,0,4,1.32,4,4s-1.27,4.25-4,4.25Zm3.15-1.23c1.82,0,2.57-1.09,2.57-3s-.75-2.79-2.57-2.79H29.66v5.81Z" fill="#4c4c4c"/><path d="M45.07,193.39c0,.52.46.72,1,.79l0,1.06a2.76,2.76,0,0,1-2.15-.72,9.2,9.2,0,0,1-3.24.72c-1.64,0-2.54-.93-2.54-2.75s.9-2.49,2.76-2.67l2.83-.27v-.77c0-1.26-.54-1.71-1.62-1.71-1.27,0-3.41.23-3.41.23l0-1a21.6,21.6,0,0,1,3.53-.4c2,0,2.9.94,2.9,2.9Zm-4-2.56c-1.1.11-1.53.63-1.53,1.62s.45,1.66,1.37,1.66a9.57,9.57,0,0,0,2.83-.56v-3Z" fill="#4c4c4c"/><path d="M53.71,187.37a30.34,30.34,0,0,0-3.16-.28c-1.11,0-2,.3-2,1.37,0,.84.43,1.08,2.34,1.4,2.25.38,3.1.83,3.1,2.58,0,2.1-1.33,2.8-3.49,2.8a25.4,25.4,0,0,1-3.17-.34l.07-1.17a29.5,29.5,0,0,0,3,.31c1.48,0,2.27-.33,2.27-1.55,0-.94-.47-1.17-2.43-1.48s-3-.7-3-2.5c0-2,1.6-2.63,3.24-2.63a23.19,23.19,0,0,1,3.26.34Z" fill="#4c4c4c"/><path d="M62.08,187.37a30.34,30.34,0,0,0-3.16-.28c-1.11,0-2,.3-2,1.37,0,.84.43,1.08,2.34,1.4,2.25.38,3.1.83,3.1,2.58,0,2.1-1.33,2.8-3.49,2.8a25.4,25.4,0,0,1-3.17-.34l.07-1.17a29.5,29.5,0,0,0,3,.31c1.48,0,2.27-.33,2.27-1.55,0-.94-.47-1.17-2.43-1.48s-3-.7-3-2.5c0-2,1.6-2.63,3.24-2.63a23.19,23.19,0,0,1,3.26.34Z" fill="#4c4c4c"/><path d="M71.11,193.89l0,1.07a32.2,32.2,0,0,1-3.51.28c-2.69,0-3.57-1.56-3.57-4.62,0-3.42,1.48-4.74,3.76-4.74s3.62,1.26,3.62,4.21l-.07,1H65.44c0,1.93.59,2.94,2.36,2.94C69.15,194.06,71.11,193.89,71.11,193.89Zm-1-3.85c0-2.23-.68-3-2.27-3s-2.39.84-2.41,3Z" fill="#4c4c4c"/><path d="M73.56,195.06v-9h1.33v.63a6.85,6.85,0,0,1,2.79-.81c2.49,0,3,1.23,3,4.43v4.75H79.39v-4.71c0-2.38-.27-3.26-1.94-3.26a6.19,6.19,0,0,0-2.54.66v7.31Z" fill="#4c4c4c"/><path d="M82.83,196.58c0-1.05.48-1.53,1.42-2.24a1.46,1.46,0,0,1-.5-1.24,5.82,5.82,0,0,1,.61-1.42c-.76-.34-1.42-1.06-1.42-2.72,0-2.21,1.36-3.08,3.36-3.08a9.6,9.6,0,0,1,1.88.23l2.66-.07v1.16l-1.71,0a2.35,2.35,0,0,1,.59,1.8c0,2.34-1.17,3-3.47,3a6.65,6.65,0,0,1-.88-.07,5.21,5.21,0,0,0-.33,1c0,.72.15.82,2.18.82,2.56,0,3.48.51,3.48,2.65s-1.46,2.86-4,2.86C83.85,199.29,82.83,198.66,82.83,196.58Zm2.34-1.7c-.76.56-1,.89-1,1.59,0,1.24.52,1.69,2.56,1.69,1.8,0,2.61-.49,2.61-1.67,0-1.37-.58-1.52-2.22-1.52C86.48,195,85.17,194.88,85.17,194.88Zm3.2-5.92c0-1.42-.56-2-2.07-2s-2,.56-2,2,.61,2,2,2S88.37,190.38,88.37,189Z" fill="#4c4c4c"/><path d="M99.12,193.89l0,1.07a32.5,32.5,0,0,1-3.52.28c-2.68,0-3.56-1.56-3.56-4.62,0-3.42,1.48-4.74,3.76-4.74s3.62,1.26,3.62,4.21l-.07,1H93.45c0,1.93.59,2.94,2.36,2.94C97.16,194.06,99.12,193.89,99.12,193.89Zm-1-3.85c0-2.23-.68-3-2.27-3s-2.39.84-2.41,3Z" fill="#4c4c4c"/><path d="M101.57,186.06h1.33v1.22a10.06,10.06,0,0,1,3.29-1.42v1.37a12.81,12.81,0,0,0-3.27,1.23v6.6h-1.35Z" fill="#4c4c4c"/><path d="M113.77,187.37a30.35,30.35,0,0,0-3.15-.28c-1.12,0-2,.3-2,1.37,0,.84.43,1.08,2.34,1.4,2.25.38,3.1.83,3.1,2.58,0,2.1-1.34,2.8-3.5,2.8a25.65,25.65,0,0,1-3.17-.34l.08-1.17a29.5,29.5,0,0,0,3,.31c1.47,0,2.26-.33,2.26-1.55,0-.94-.46-1.17-2.43-1.48s-3-.7-3-2.5c0-2,1.6-2.63,3.24-2.63a23.19,23.19,0,0,1,3.26.34Z" fill="#4c4c4c"/><path d="M298.87,78.05h8v1.11h-3.38v10h-1.22v-10h-3.4Z" fill="#4c4c4c"/><path d="M308.23,77.92h1.2v1.4h-1.2Zm0,3.2h1.2v8h-1.2Z" fill="#4c4c4c"/><path d="M311.73,89.13v-8h1.18v.56a5.37,5.37,0,0,1,2.34-.72,2.24,2.24,0,0,1,2.08.82,6.67,6.67,0,0,1,2.85-.82c2.18,0,2.71,1,2.71,3.94v4.23h-1.2v-4.2c0-2.11-.24-2.89-1.68-2.89a5.3,5.3,0,0,0-2.26.59A9.29,9.29,0,0,1,318,85v4.16h-1.2V85c0-2.21-.23-3-1.68-3a4.82,4.82,0,0,0-2.15.59v6.5Z" fill="#4c4c4c"/><path d="M331,88.09l0,.94a27.37,27.37,0,0,1-3.12.26c-2.38,0-3.17-1.4-3.17-4.12,0-3,1.32-4.21,3.35-4.21s3.22,1.12,3.22,3.75l-.07.91H326c0,1.71.53,2.61,2.1,2.61C329.27,88.23,331,88.09,331,88.09Zm-.89-3.43c0-2-.61-2.69-2-2.69s-2.13.75-2.15,2.69Z" fill="#4c4c4c"/><path d="M334.72,89.13h-1.2v-7h-1v-1h1V80.4c0-2.3.59-2.93,2.16-2.93.55,0,1.62.12,1.62.12l0,1s-.89,0-1.37,0c-.9,0-1.19.38-1.19,1.87v.7H337v1h-2.32Z" fill="#4c4c4c"/><path d="M338.48,81.12h1.19v1.09A9,9,0,0,1,342.6,81v1.21a11.85,11.85,0,0,0-2.92,1.09v5.88h-1.2Z" fill="#4c4c4c"/><path d="M349.67,87.64c0,.46.41.64.93.7l-.05,1a2.46,2.46,0,0,1-1.91-.64,8.18,8.18,0,0,1-2.88.64c-1.45,0-2.25-.84-2.25-2.45s.8-2.21,2.44-2.37l2.52-.24v-.69c0-1.12-.48-1.52-1.44-1.52-1.12,0-3,.21-3,.21l-.05-.91a19.15,19.15,0,0,1,3.14-.36c1.81,0,2.58.84,2.58,2.58Zm-3.57-2.28c-1,.1-1.36.57-1.36,1.45s.4,1.47,1.21,1.47a8.45,8.45,0,0,0,2.52-.5V85.14Z" fill="#4c4c4c"/><path d="M352,89.13v-8h1.19v.56a5.37,5.37,0,0,1,2.34-.72,2.26,2.26,0,0,1,2.08.82,6.6,6.6,0,0,1,2.84-.82c2.18,0,2.71,1,2.71,3.94v4.23H362v-4.2c0-2.11-.24-2.89-1.68-2.89a5.3,5.3,0,0,0-2.26.59,8.84,8.84,0,0,1,.21,2.34v4.16h-1.2V85c0-2.21-.22-3-1.68-3a4.82,4.82,0,0,0-2.15.59v6.5Z" fill="#4c4c4c"/><path d="M371.32,88.09l0,.94a27.63,27.63,0,0,1-3.12.26c-2.39,0-3.17-1.4-3.17-4.12,0-3,1.31-4.21,3.34-4.21s3.22,1.12,3.22,3.75l-.06.91h-5.29c0,1.71.53,2.61,2.1,2.61C369.57,88.23,371.32,88.09,371.32,88.09Zm-.9-3.43c0-2-.61-2.69-2-2.69s-2.13.75-2.14,2.69Z" fill="#4c4c4c"/><path d="M273.73,98.84h2.45v15.84h-2.66V101.86l-3.73,2.4-1.22-2Z" fill="#4c4c4c"/><path d="M291.66,101.24a35.52,35.52,0,0,0-4.35-.34c-2.42,0-3.64,1.7-3.67,4.46a14.29,14.29,0,0,1,3.46-.74c3.53,0,5.38,1.58,5.38,5s-2.14,5.28-5.69,5.28c-4.11,0-5.91-3.09-5.91-8.18,0-5.91,2.5-8.19,6.43-8.19a25.26,25.26,0,0,1,4.59.58Zm-8,6.43c0,2.78.84,4.94,3.17,4.94a2.65,2.65,0,0,0,2.92-3c0-1.8-1-2.69-2.85-2.69A10.28,10.28,0,0,0,283.62,107.67Z" fill="#4c4c4c"/><path d="M294.8,104h2.81v3.46H294.8Zm0,7.27h2.81v3.46H294.8Z" fill="#4c4c4c"/><path d="M307.16,111.85H300v-2l4.18-11h3l-4.41,10.68h4.41v-4.66h2.69v4.66h1.73v2.33h-1.73v2.83h-2.69Z" fill="#4c4c4c"/><path d="M324.13,98.84v2.35h-7.34l-.41,4.17a9,9,0,0,1,3.21-.74c3.17,0,5.09,1.37,5.09,4.75,0,3.6-2,5.57-5.37,5.57a24.84,24.84,0,0,1-5.45-.82l.29-2a36,36,0,0,0,4.84.48,2.67,2.67,0,0,0,2.93-3c0-2-1-2.67-2.69-2.67a9.38,9.38,0,0,0-3.33.65l-1.68-.36.43-8.42Z" fill="#4c4c4c"/><path d="M332.7,107h7.17v2.38H332.7Z" fill="#4c4c4c"/><path d="M353.89,98.84h2.45v15.84h-2.67V101.86l-3.72,2.4-1.22-2Z" fill="#4c4c4c"/><path d="M361.81,98.84h10V102L366,114.94l-2.5-.72L369.1,102v-.72h-7.29Z" fill="#4c4c4c"/><path d="M375,104h2.81v3.46H375Zm0,7.27h2.81v3.46H375Z" fill="#4c4c4c"/><path d="M387.32,111.85h-7.13v-2l4.18-11h2.95l-4.42,10.68h4.42v-4.66H390v4.66h1.72v2.33H390v2.83h-2.69Z" fill="#4c4c4c"/><path d="M404.29,98.84v2.35h-7.35l-.41,4.17a9.11,9.11,0,0,1,3.22-.74c3.17,0,5.09,1.37,5.09,4.75,0,3.6-2,5.57-5.38,5.57a24.84,24.84,0,0,1-5.45-.82l.29-2a36,36,0,0,0,4.85.48,2.67,2.67,0,0,0,2.93-3c0-2-1-2.67-2.69-2.67a9.47,9.47,0,0,0-3.34.65l-1.68-.36.44-8.42Z" fill="#4c4c4c"/><path d="M99.5,101.55s-2.5-.31-3.55-.31c-1.76,0-2.7.63-2.7,2,0,1.62.87,1.89,3,2.38,2.48.55,3.58,1.17,3.58,3.34,0,2.76-1.51,3.84-4,3.84a32.29,32.29,0,0,1-3.94-.4l.14-1.15s2.45.32,3.73.32c1.76,0,2.66-.77,2.66-2.5,0-1.4-.74-1.8-2.77-2.19-2.58-.56-3.87-1.17-3.87-3.55s1.58-3.35,4-3.35a31.12,31.12,0,0,1,3.77.36Z" fill="#3a3d3f"/><path d="M103.84,104.85v4.3c0,2,.12,2.52,1.29,2.52.51,0,1.61-.11,1.61-.11l.09,1.12a15.71,15.71,0,0,1-1.84.2c-1.86,0-2.49-.71-2.49-3.3v-4.73h-1.27v-1.18h1.27v-2.75h1.34v2.75h2.86v1.18Z" fill="#3a3d3f"/><path d="M115.66,108.07c0,3.28-.81,4.79-3.85,4.79s-3.85-1.51-3.85-4.79c0-3.1,1-4.58,3.85-4.58S115.66,105,115.66,108.07Zm-1.38,0c0-2.5-.54-3.4-2.47-3.4s-2.46.9-2.46,3.4.34,3.62,2.46,3.62S114.28,110.62,114.28,108.07Z" fill="#3a3d3f"/><path d="M123.67,103.77l0,1.09s-1.44-.16-2.12-.16c-2.07,0-2.63.9-2.63,3.31,0,2.67.41,3.64,2.64,3.64.69,0,2.13-.16,2.13-.16l0,1.12a24,24,0,0,1-2.5.25c-2.86,0-3.71-1.32-3.71-4.85,0-3.25,1.06-4.52,3.75-4.52A20.2,20.2,0,0,1,123.67,103.77Z" fill="#3a3d3f"/><path d="M125.71,112.68V99.75h1.35v7.63l1.4-.07,2.58-3.64h1.53l-2.94,4.15,3.06,4.86h-1.53l-2.68-4.18-1.42,0v4.13Z" fill="#3a3d3f"/><path d="M134.33,112.68V99.75h1.35v4.43a7.55,7.55,0,0,1,2.77-.69c2.47,0,3,1.23,3,4.43v4.76h-1.35V108c0-2.38-.27-3.26-1.92-3.26a7.41,7.41,0,0,0-2.54.54v7.44Z" fill="#3a3d3f"/><path d="M151.3,108.07c0,3.28-.81,4.79-3.85,4.79s-3.85-1.51-3.85-4.79c0-3.1,1-4.58,3.85-4.58S151.3,105,151.3,108.07Zm-1.38,0c0-2.5-.54-3.4-2.47-3.4s-2.47.9-2.47,3.4.35,3.62,2.47,3.62S149.92,110.62,149.92,108.07Z" fill="#3a3d3f"/><path d="M153.61,99.75H155v12.93h-1.35Z" fill="#3a3d3f"/><path d="M157.66,112.68v-9H159v.63a6,6,0,0,1,2.63-.81,2.57,2.57,0,0,1,2.34.92,7.46,7.46,0,0,1,3.2-.92c2.45,0,3.05,1.18,3.05,4.43v4.76h-1.35V108c0-2.38-.27-3.26-1.89-3.26a5.89,5.89,0,0,0-2.54.67,10.34,10.34,0,0,1,.23,2.63v4.68h-1.35V108c0-2.48-.25-3.33-1.89-3.33a5.34,5.34,0,0,0-2.41.67v7.31Z" fill="#3a3d3f"/><path d="M172.63,107.1h5.46v1.26h-5.46Z" fill="#3a3d3f"/><path d="M180.82,112.68V100.22h1.39v11.22h5.47v1.24Z" fill="#3a3d3f"/><path d="M189.21,100.07h1.35v1.57h-1.35Zm0,3.6h1.35v9h-1.35Z" fill="#3a3d3f"/><path d="M199.13,105a29.33,29.33,0,0,0-3.15-.29c-1.12,0-2,.31-2,1.37,0,.85.43,1.08,2.34,1.4,2.25.38,3.09.83,3.09,2.58,0,2.11-1.33,2.81-3.49,2.81a25.65,25.65,0,0,1-3.17-.34l.07-1.17s2.06.3,3,.3c1.48,0,2.27-.32,2.27-1.55,0-.93-.47-1.17-2.43-1.47s-3-.71-3-2.51c0-2,1.6-2.63,3.24-2.63a22.55,22.55,0,0,1,3.26.35Z" fill="#3a3d3f"/><path d="M208.78,108c0,3.58-1,4.83-4.25,4.83-1.08,0-3-.2-3-.2V99.75h1.33v4.37a7.44,7.44,0,0,1,2.65-.63C208,103.49,208.78,104.79,208.78,108Zm-1.37,0c0-2.32-.47-3.33-2-3.33a7.59,7.59,0,0,0-2.51.52v6.34s1.17.09,1.66.09C207,111.65,207.41,110.55,207.41,108Z" fill="#3a3d3f"/><path d="M218.3,108.07c0,3.28-.81,4.79-3.85,4.79s-3.86-1.51-3.86-4.79c0-3.1,1-4.58,3.86-4.58S218.3,105,218.3,108.07Zm-1.39,0c0-2.5-.54-3.4-2.46-3.4s-2.47.9-2.47,3.4.34,3.62,2.47,3.62S216.91,110.62,216.91,108.07Z" fill="#3a3d3f"/><path d="M220.49,112.68v-9h1.34v.63a6.79,6.79,0,0,1,2.79-.81c2.48,0,3,1.23,3,4.43v4.76h-1.33V108c0-2.38-.27-3.26-2-3.26a6.18,6.18,0,0,0-2.54.67v7.31Z" fill="#3a3d3f"/><path d="M96.41,125.29h3.78v19.8H96.05V130l-4.29,2.76-1.89-3.09Z" fill="#3a3d3f"/><path d="M120.08,130.36c0,2.37-.45,3.15-2.16,4.53,1.59,1.32,2.46,2.34,2.46,4.83,0,4.17-3.42,5.73-7.59,5.73s-7.5-1.23-7.5-5.4a5.71,5.71,0,0,1,2.49-5.16,4.93,4.93,0,0,1-2.16-4.56c0-3.42,2.85-5.4,7.17-5.4S120.08,126.88,120.08,130.36Zm-4.14,8.73a2.43,2.43,0,0,0-1.77-2.25h-2.64a2.41,2.41,0,0,0-1.8,2.25c0,1.83,1,2.64,3.06,2.64S115.94,140.92,115.94,139.09Zm-5.88-8.1a2.79,2.79,0,0,0,1.47,2.34h2.64a2.79,2.79,0,0,0,1.47-2.34c0-1.5-1-2.34-2.79-2.34S110.06,129.49,110.06,131Z" fill="#3a3d3f"/><path d="M122.93,131.44h4.32v5h-4.32Zm0,8.67h4.32v5h-4.32Z" fill="#3a3d3f"/><path d="M130.79,126a17.9,17.9,0,0,1,5.76-1.08c5.22,0,6.93,1.77,6.93,5.46a4.89,4.89,0,0,1-2.31,4.44c1.65.9,2.67,1.62,2.67,4.29,0,4.17-1.92,6.33-6.75,6.33a27.62,27.62,0,0,1-6.45-1l.21-3.15a42.57,42.57,0,0,0,5.64.57c2,0,3.09-.81,3.09-2.64,0-1.47-1.17-2.43-2.88-2.43h-4v-3.42h4a2.74,2.74,0,0,0,2.52-2.7c0-1.41-.93-2.13-3-2.13a33.34,33.34,0,0,0-5.19.54Z" fill="#3a3d3f"/><path d="M161.81,135.31c0,7.5-2.76,10.14-7.68,10.14s-7.68-2.64-7.68-10.14,2.76-10.38,7.68-10.38S161.81,127.81,161.81,135.31Zm-11.1,0c0,4.86,1,6.54,3.45,6.54s3.39-1.68,3.39-6.54c0-5.16-1-6.78-3.39-6.78S150.71,130.15,150.71,135.31Z" fill="#3a3d3f"/><path d="M94.1,75.13h5.5l3.22,14.27h-2.9l-.57-2.58h-5l-.57,2.58h-2.9Zm.8,9.17h3.91l-1.45-6.78h-1Z"/><path d="M110.33,75.13c2.88,0,4.46,1.05,4.46,3.78a3.18,3.18,0,0,1-1.58,3.15c1.22.52,1.85,1.4,1.85,3.25,0,2.86-1.79,4.09-4.64,4.09h-5.69V75.13Zm-2.7,2.47V81h2.58c1.13,0,1.64-.59,1.64-1.73a1.46,1.46,0,0,0-1.66-1.68Zm0,5.84v3.49h2.64c1.2,0,1.85-.36,1.85-1.77,0-1.17-.69-1.72-1.85-1.72Z"/><path d="M126.25,75.55v2.52h-6.19l-.36,3a8,8,0,0,1,2.48-.51c2.83,0,4.49,1.26,4.49,4.18,0,3.13-1.72,4.92-4.74,4.92a21.89,21.89,0,0,1-4.92-.78l.32-2.14a34.54,34.54,0,0,0,4.24.4,1.9,1.9,0,0,0,2.12-2.08c0-1.41-.61-2-1.93-2a9.72,9.72,0,0,0-2.62.36l-1.73-.4.38-7.49Z"/><path d="M129,86.82a31.49,31.49,0,0,0,3.9.32c1.91,0,2.79-1.28,2.79-3.4a11.29,11.29,0,0,1-2.64.62c-3,0-4.77-1.42-4.77-4.42s1.95-4.65,5.08-4.65c3.66,0,5.32,2.71,5.32,7.1,0,5.5-2.23,7.27-5.78,7.27a20.91,20.91,0,0,1-4.16-.61Zm6.71-5.46c0-2-.58-3.55-2.35-3.55a1.92,1.92,0,0,0-2.1,2.13c0,1.28.76,1.91,2,1.91A8,8,0,0,0,135.74,81.36Z"/><path d="M219.63,416a22.59,22.59,0,0,1-4.09.47c-4.39,0-5.4-2.5-5.4-7.41,0-5.19,1.09-7.44,5.4-7.44a20,20,0,0,1,4.11.53l-.08,1.89a26.37,26.37,0,0,0-3.72-.34c-2.64,0-3.29,1.28-3.29,5.36s.52,5.33,3.36,5.33a27.24,27.24,0,0,0,3.65-.32Z" fill="#4c4c4c"/><path d="M230.68,410h-6.22v6.22h-2.33V401.8h2.33v6.13h6.22V401.8H233v14.39h-2.35Z" fill="#4c4c4c"/><path d="M236.33,401.8h9.07v2h-6.74v4.07h5.48v2h-5.48v4.2h6.74v2.06h-9.07Z" fill="#4c4c4c"/><path d="M256.87,416a22.81,22.81,0,0,1-4.1.47c-4.39,0-5.39-2.5-5.39-7.41,0-5.19,1.09-7.44,5.39-7.44a20.23,20.23,0,0,1,4.12.53L256.8,404a26.23,26.23,0,0,0-3.71-.34c-2.65,0-3.3,1.28-3.3,5.36s.52,5.33,3.36,5.33a27.24,27.24,0,0,0,3.65-.32Z" fill="#4c4c4c"/><path d="M263.84,410.18l-2.14.15v5.86h-2.33V401.8h2.33v6.49l2.14-.17,2.94-6.32h2.66L265.9,409l3.69,7.16h-2.71Z" fill="#4c4c4c"/><path d="M271.23,409.49h6.28v2.08h-6.28Z" fill="#4c4c4c"/><path d="M280.45,401.8h2.33v14.39h-2.33Z" fill="#4c4c4c"/><path d="M286.1,401.8h4.07l4.37,12.33h.32V401.8h2.33v14.39h-4l-4.48-12.35h-.29v12.35H286.1Z" fill="#4c4c4c"/><path d="M305.13,416.19V401.8h5c4.64,0,5.76,2.48,5.76,6.95s-1,7.44-5.76,7.44Zm5-12.35h-2.64v10.29h2.64c2.9,0,3.34-2.23,3.34-5.38S313,403.84,310.1,403.84Z" fill="#4c4c4c"/><path d="M318.59,401.8h9.07v2h-6.74v4.07h5.48v2h-5.48v4.2h6.74v2.06h-9.07Z" fill="#4c4c4c"/><path d="M338.58,404s-2.94-.34-4.16-.34c-1.76,0-2.67.63-2.67,1.87s.76,1.66,3.22,2.33c3,.84,4.11,1.64,4.11,4.09,0,3.15-2,4.52-4.81,4.52a30.37,30.37,0,0,1-4.7-.57l.23-1.87s2.84.38,4.33.38c1.78,0,2.6-.8,2.6-2.31,0-1.22-.65-1.64-2.86-2.16-3.1-.8-4.45-1.75-4.45-4.24,0-2.9,1.91-4.1,4.79-4.1a31.5,31.5,0,0,1,4.56.51Z" fill="#4c4c4c"/><path d="M346.08,410.18l-2.15.15v5.86H341.6V401.8h2.33v6.49l2.15-.17L349,401.8h2.66L348.13,409l3.7,7.16h-2.71Z" fill="#4c4c4c"/><path d="M362.22,404s-2.94-.34-4.15-.34c-1.77,0-2.67.63-2.67,1.87s.76,1.66,3.21,2.33c3,.84,4.12,1.64,4.12,4.09,0,3.15-2,4.52-4.81,4.52a30.37,30.37,0,0,1-4.7-.57l.23-1.87s2.83.38,4.32.38c1.79,0,2.61-.8,2.61-2.31,0-1.22-.65-1.64-2.86-2.16-3.11-.8-4.45-1.75-4.45-4.24,0-2.9,1.91-4.1,4.79-4.1a31.49,31.49,0,0,1,4.55.51Z" fill="#4c4c4c"/><rect x="175.29" y="338.32" width="41.81" height="41.81" fill="#cfeaff" stroke="#2277d6" stroke-miterlimit="10"/><rect x="237.92" y="338.32" width="41.81" height="41.81" fill="#fff" stroke="#2277d6" stroke-miterlimit="10"/><rect x="299.57" y="338.32" width="41.81" height="41.81" fill="#fff" stroke="#2277d6" stroke-miterlimit="10"/><rect x="359.91" y="338.32" width="41.81" height="41.81" fill="#fff" stroke="#2277d6" stroke-miterlimit="10"/><path d="M316.61,364.56h-6.4v-1.2l3.76-9.42h1.68l-3.82,9.26h4.78v-4.12h1.54v4.12h1.68v1.36h-1.68v2.58h-1.54Z"/><path d="M331,357.16c0,1.7-.66,2.4-2.2,3.08,1.42.64,2.4,1.42,2.4,3.32,0,2.9-2.24,3.78-5,3.78s-4.92-.82-4.92-3.56a3.52,3.52,0,0,1,2.28-3.54,3.06,3.06,0,0,1-2.06-3.1c0-2.28,1.82-3.42,4.7-3.42S331,354.84,331,357.16Zm-1.44,6.24c0-1.54-1-2-2.34-2.42h-2.1c-1.38.38-2.18,1.06-2.18,2.54,0,1.82,1.4,2.42,3.28,2.42S329.51,365.34,329.51,363.4Zm-6.4-6.08c0,1.22.66,1.86,2,2.32h2.1c1.36-.44,2.14-1.08,2.14-2.3,0-1.58-1.18-2.22-3.12-2.22S323.11,355.74,323.11,357.32Z"/><path d="M257,354.34a30.56,30.56,0,0,0-3.48-.24c-2.3,0-3.56,1.64-3.56,4.56a11.18,11.18,0,0,1,3.3-.78c2.92,0,4.44,1.32,4.44,4.1s-1.68,4.36-4.62,4.36c-3.28,0-4.72-2.58-4.72-6.86,0-4.78,2-6.74,5.16-6.74a24.75,24.75,0,0,1,3.62.34ZM249.89,360c0,2.82.86,5,3.14,5a2.71,2.71,0,0,0,3-3c0-1.84-1.1-2.72-2.94-2.72A9.21,9.21,0,0,0,249.89,360Z"/><path d="M268.15,354.34a30.56,30.56,0,0,0-3.48-.24c-2.3,0-3.56,1.64-3.56,4.56a11.18,11.18,0,0,1,3.3-.78c2.92,0,4.44,1.32,4.44,4.1s-1.68,4.36-4.62,4.36c-3.28,0-4.72-2.58-4.72-6.86,0-4.78,2-6.74,5.16-6.74a24.75,24.75,0,0,1,3.62.34ZM261.09,360c0,2.82.86,5,3.14,5a2.71,2.71,0,0,0,3-3c0-1.84-1.1-2.72-2.94-2.72A9.21,9.21,0,0,0,261.09,360Z"/><path d="M191.36,352.94h1.44v13.2h-1.54V354.66l-3.4,2.24-.7-1.16Z"/><path d="M197.6,366.14v-1.3l3.86-4.06c1.64-1.7,2.66-2.78,2.66-4.34,0-1.76-1-2.32-2.88-2.32a19.21,19.21,0,0,0-3.42.44l-.12-1.28a16,16,0,0,1,3.82-.54c2.78,0,4.18,1.06,4.18,3.54,0,2-.9,3.14-2.76,4.94l-3.52,3.58H206v1.34Z"/><path d="M380.35,357.16c0,1.7-.66,2.4-2.2,3.08,1.42.64,2.4,1.42,2.4,3.32,0,2.9-2.24,3.78-5,3.78s-4.92-.82-4.92-3.56a3.51,3.51,0,0,1,2.28-3.54,3.06,3.06,0,0,1-2.07-3.1c0-2.28,1.83-3.42,4.71-3.42S380.35,354.84,380.35,357.16Zm-1.44,6.24c0-1.54-1-2-2.34-2.42h-2.1c-1.38.38-2.19,1.06-2.19,2.54,0,1.82,1.41,2.42,3.29,2.42S378.91,365.34,378.91,363.4Zm-6.4-6.08c0,1.22.66,1.86,2,2.32h2.1c1.36-.44,2.14-1.08,2.14-2.3,0-1.58-1.18-2.22-3.12-2.22S372.51,355.74,372.51,357.32Z"/><path d="M382.74,353.94H391v2l-5.08,11.38-1.47-.46,5-11v-.52h-6.65Z"/><path d="M462.44,85.37V89.1h-1.23V78h4.05c2.42,0,3.54,1.17,3.54,3.57s-1.12,3.78-3.54,3.78Zm2.8-1.09c1.62,0,2.29-1,2.29-2.69s-.67-2.48-2.29-2.48h-2.8v5.17Z" fill="#3a3d3f"/><path d="M470.27,81.1h1.18v1.09a9.09,9.09,0,0,1,2.93-1.27v1.22a11.26,11.26,0,0,0-2.91,1.09V89.1h-1.2Z" fill="#3a3d3f"/><path d="M475.58,77.9h1.2v1.39h-1.2Zm0,3.2h1.2v8h-1.2Z" fill="#3a3d3f"/><path d="M485.36,85c0,2.92-.72,4.26-3.43,4.26s-3.42-1.34-3.42-4.26c0-2.75.89-4.06,3.42-4.06S485.36,82.25,485.36,85Zm-1.24,0c0-2.22-.48-3-2.19-3s-2.19.8-2.19,3,.3,3.22,2.19,3.22S484.12,87.28,484.12,85Z" fill="#3a3d3f"/><path d="M487.08,81.1h1.19v1.09a9.11,9.11,0,0,1,2.92-1.27v1.22a11.44,11.44,0,0,0-2.91,1.09V89.1h-1.2Z" fill="#3a3d3f"/><path d="M492.39,77.9h1.2v1.39h-1.2Zm0,3.2h1.2v8h-1.2Z" fill="#3a3d3f"/><path d="M497.27,82.14V86c0,1.75.12,2.24,1.16,2.24.44,0,1.42-.09,1.42-.09l.08,1a13.65,13.65,0,0,1-1.63.18c-1.65,0-2.21-.63-2.21-2.93V82.14H495v-1h1.14V78.65h1.18V81.1h2.55v1Z" fill="#3a3d3f"/><path d="M501.07,77.9h1.2v1.39h-1.2Zm0,3.2h1.2v8h-1.2Z" fill="#3a3d3f"/><path d="M503.86,81.1h5.94v1.07L505.32,88h4.48V89.1h-5.94V88l4.49-5.86h-4.49Z" fill="#3a3d3f"/><path d="M517.31,88.06l0,.94a27.37,27.37,0,0,1-3.12.26c-2.39,0-3.17-1.39-3.17-4.11,0-3,1.31-4.21,3.34-4.21s3.22,1.12,3.22,3.74l-.06.91h-5.28c0,1.72.52,2.61,2.09,2.61C515.56,88.2,517.31,88.06,517.31,88.06Zm-.9-3.43c0-2-.61-2.68-2-2.68s-2.12.75-2.14,2.68Z" fill="#3a3d3f"/><path d="M505.62,130.05H476.1a12,12,0,1,1,0-24h29.52a12,12,0,0,1,0,24" fill="#ddd"/><path d="M487.85,117.55a15,15,0,1,1-15-15,15,15,0,0,1,15,15" fill="#b3b3b3"/></g></g></svg>