<svg xmlns="http://www.w3.org/2000/svg" xmlns:xlink="http://www.w3.org/1999/xlink" viewBox="0 0 579.59 555.77"><defs><clipPath id="clip-path"><rect x="0.01" y="182.65" width="520.26" height="73.31" fill="none"/></clipPath><clipPath id="clip-path-2"><rect x="4.71" y="183.13" width="517.18" height="62.04" fill="none"/></clipPath><clipPath id="clip-path-3"><rect x="260.14" y="141.58" width="54.85" height="141.23" fill="#edf4f9"/></clipPath></defs><title>Asset 6</title><g style="isolation:isolate"><g id="Layer_2" data-name="Layer 2"><g id="Layer_1-2" data-name="Layer 1"><path d="M17.49,52.84h1.29V64.72H17.4V54.38l-3.06,2-.63-1Z" fill="#3a3d3f"/><path d="M23.1,64.72V63.55l3.48-3.66C28.05,58.36,29,57.39,29,56c0-1.59-.88-2.09-2.59-2.09a17.64,17.64,0,0,0-3.08.39l-.11-1.15a14.58,14.58,0,0,1,3.44-.48c2.51,0,3.76,1,3.76,3.18,0,1.79-.8,2.83-2.48,4.45l-3.17,3.22h6v1.21Z" fill="#3a3d3f"/><path d="M44.42,53.59s-2.51-.3-3.55-.3c-1.76,0-2.7.63-2.7,2,0,1.62.86,1.89,3,2.38,2.49.56,3.59,1.17,3.59,3.35,0,2.75-1.52,3.83-4,3.83a33.35,33.35,0,0,1-4-.39L37,63.33s2.45.33,3.72.33c1.77,0,2.67-.78,2.67-2.51,0-1.4-.74-1.8-2.77-2.19-2.58-.56-3.88-1.17-3.88-3.55s1.59-3.35,4-3.35a30.86,30.86,0,0,1,3.76.36Z" fill="#3a3d3f"/><path d="M53.6,63.55l0,1.06a31.12,31.12,0,0,1-3.51.29c-2.68,0-3.56-1.57-3.56-4.63,0-3.42,1.47-4.73,3.76-4.73s3.62,1.26,3.62,4.21l-.07,1H47.93c0,1.92.59,2.93,2.35,2.93C51.63,63.71,53.6,63.55,53.6,63.55Zm-1-3.85c0-2.24-.69-3-2.27-3s-2.39.85-2.41,3Z" fill="#3a3d3f"/><path d="M56,55.72h1.34v.65a6.07,6.07,0,0,1,2.7-.83c2.27,0,3.26,1.38,3.26,4.57,0,3.53-1.16,4.79-3.93,4.79a11,11,0,0,1-2-.2v4H56Zm1.35,1.74v6.07a13,13,0,0,0,2,.2c2,0,2.63-1,2.63-3.62s-.78-3.37-2.09-3.37A5.87,5.87,0,0,0,57.39,57.46Z" fill="#3a3d3f"/><path d="M69.43,64.72V63.55l3.48-3.66c1.48-1.53,2.4-2.5,2.4-3.9,0-1.59-.89-2.09-2.6-2.09a17.64,17.64,0,0,0-3.08.39l-.11-1.15A14.69,14.69,0,0,1,73,52.66c2.51,0,3.77,1,3.77,3.18,0,1.79-.81,2.83-2.49,4.45l-3.17,3.22h6v1.21Z" fill="#3a3d3f"/><path d="M87.64,59c0,4.55-1.61,5.94-4.33,5.94S79,63.55,79,59c0-4.9,1.59-6.34,4.33-6.34S87.64,54.06,87.64,59Zm-7.22,0c0,3.72,1,4.7,2.89,4.7s2.9-1,2.9-4.72c0-4-.91-5.08-2.9-5.08S80.42,54.92,80.42,59Z" fill="#3a3d3f"/><path d="M94.06,52.84h1.3V64.72H94V54.38l-3.06,2-.63-1Z" fill="#3a3d3f"/><path d="M99.82,52.84h7.38v1.81L102.63,64.9l-1.32-.41,4.49-9.93V54.1h-6Z" fill="#3a3d3f"/><path d="M110,62.79h1.5l-1.21,4.14h-1.11Z" fill="#3a3d3f"/><path d="M122.19,52.84h1.3V64.72H122.1V54.38l-3.06,2-.63-1Z" fill="#3a3d3f"/><path d="M127.86,53.14a14.09,14.09,0,0,1,3.5-.5c2.81,0,3.8,1,3.8,3.09a3,3,0,0,1-1.77,2.71,2.57,2.57,0,0,1,2.05,2.88c0,2.39-1.17,3.58-3.85,3.58a19.54,19.54,0,0,1-3.91-.49l.13-1.13a21.23,21.23,0,0,0,3.64.4c1.76,0,2.57-.78,2.57-2.31s-1.1-2.18-2.45-2.23h-2.39V58h2.39a2.23,2.23,0,0,0,2.16-2.16c0-1.35-.66-1.91-2.43-1.91a18.07,18.07,0,0,0-3.31.36Z" fill="#3a3d3f"/><path d="M137.85,56.87h1.48v2.05h-1.48Zm0,5.8h1.48v2h-1.48Z" fill="#3a3d3f"/><path d="M149.92,59c0,4.55-1.61,5.94-4.32,5.94s-4.34-1.35-4.34-5.92c0-4.9,1.58-6.34,4.32-6.34S149.92,54.06,149.92,59Zm-7.22,0c0,3.72,1,4.7,2.9,4.7s2.89-1,2.89-4.72c0-4-.91-5.08-2.89-5.08S142.7,54.92,142.7,59Z" fill="#3a3d3f"/><path d="M160,59c0,4.55-1.61,5.94-4.32,5.94s-4.34-1.35-4.34-5.92c0-4.9,1.58-6.34,4.32-6.34S160,54.06,160,59Zm-7.22,0c0,3.72,1,4.7,2.9,4.7s2.89-1,2.89-4.72c0-4-.91-5.08-2.89-5.08S152.78,54.92,152.78,59Z" fill="#3a3d3f"/><path d="M165.9,59.14h5.45V60.4H165.9Z" fill="#3a3d3f"/><path d="M182.22,52.84h1.3V64.72h-1.39V54.38l-3.06,2-.63-1Z" fill="#3a3d3f"/><path d="M195.19,52.84V54.1h-5.78L189.08,58a6.87,6.87,0,0,1,2.79-.74c2.33,0,3.78,1,3.78,3.51,0,2.74-1.49,4.14-4,4.14a19.74,19.74,0,0,1-3.94-.52l.16-1.1a23.49,23.49,0,0,0,3.66.4,2.5,2.5,0,0,0,2.68-2.81c0-1.8-1-2.38-2.52-2.38a6.82,6.82,0,0,0-2.83.72l-.95-.18.32-6.17Z" fill="#3a3d3f"/><path d="M197.88,56.87h1.48v2.05h-1.48Zm0,5.8h1.48v2h-1.48Z" fill="#3a3d3f"/><path d="M201.88,53.14a14,14,0,0,1,3.49-.5c2.81,0,3.8,1,3.8,3.09a3,3,0,0,1-1.76,2.71,2.58,2.58,0,0,1,2.05,2.88c0,2.39-1.17,3.58-3.85,3.58a19.41,19.41,0,0,1-3.91-.49l.13-1.13a21.2,21.2,0,0,0,3.63.4c1.77,0,2.58-.78,2.58-2.31s-1.1-2.18-2.45-2.23h-2.4V58h2.4a2.23,2.23,0,0,0,2.16-2.16c0-1.35-.67-1.91-2.43-1.91a18.07,18.07,0,0,0-3.31.36Z" fill="#3a3d3f"/><path d="M220,59c0,4.55-1.61,5.94-4.33,5.94s-4.33-1.35-4.33-5.92c0-4.9,1.58-6.34,4.32-6.34S220,54.06,220,59Zm-7.22,0c0,3.72,1,4.7,2.89,4.7s2.9-1,2.9-4.72c0-4-.91-5.08-2.9-5.08S212.81,54.92,212.81,59Z" fill="#3a3d3f"/><path d="M10.94,402.48h1.39v12.46H10.94Z" fill="#3a3d3f"/><path d="M15.14,414.94v-9h1.33v.63a6.85,6.85,0,0,1,2.79-.81c2.49,0,3,1.22,3,4.43v4.75H21v-4.72C21,407.84,20.7,407,19,407a6.12,6.12,0,0,0-2.54.67v7.31Z" fill="#3a3d3f"/><path d="M30.56,407.11v4.3c0,2,.13,2.52,1.3,2.52.5,0,1.6-.11,1.6-.11l.09,1.12a15.44,15.44,0,0,1-1.83.2c-1.86,0-2.49-.7-2.49-3.3v-4.73H28v-1.17h1.28v-2.76h1.33v2.76h2.87v1.17Z" fill="#3a3d3f"/><path d="M35.08,414.94V402h1.35v4.43a7.65,7.65,0,0,1,2.78-.68c2.46,0,3,1.22,3,4.43v4.75H40.9v-4.72c0-2.38-.27-3.26-1.93-3.26a7.41,7.41,0,0,0-2.54.54v7.44Z" fill="#3a3d3f"/><path d="M44.75,402.34H46.1v1.56H44.75Zm0,3.6H46.1v9H44.75Z" fill="#3a3d3f"/><path d="M54.67,407.25a29.33,29.33,0,0,0-3.15-.29c-1.12,0-2,.31-2,1.37,0,.85.44,1.08,2.34,1.41,2.26.37,3.1.82,3.1,2.57,0,2.11-1.33,2.81-3.49,2.81a25.65,25.65,0,0,1-3.17-.34l.07-1.17s2.05.3,3,.3c1.48,0,2.27-.32,2.27-1.55,0-.93-.47-1.17-2.43-1.47s-3-.7-3-2.5c0-2,1.61-2.63,3.24-2.63a23,23,0,0,1,3.26.34Z" fill="#3a3d3f"/><path d="M66.84,406l-.06,1.09s-1.44-.16-2.12-.16c-2.07,0-2.63.9-2.63,3.32,0,2.66.41,3.63,2.65,3.63.68,0,2.12-.16,2.12-.16l0,1.12a24,24,0,0,1-2.5.25c-2.86,0-3.71-1.32-3.71-4.84,0-3.26,1.06-4.52,3.75-4.52A20.89,20.89,0,0,1,66.84,406Z" fill="#3a3d3f"/><path d="M75.22,413.26c0,.53.47.72,1,.8l-.06,1.06a2.75,2.75,0,0,1-2.14-.72,9.2,9.2,0,0,1-3.24.72c-1.64,0-2.54-.94-2.54-2.76s.9-2.48,2.76-2.66l2.82-.27v-.77c0-1.27-.54-1.72-1.62-1.72-1.26,0-3.4.24-3.4.24l0-1a22.13,22.13,0,0,1,3.53-.39c2,0,2.89.93,2.89,2.9Zm-4-2.55c-1.1.11-1.53.63-1.53,1.62s.45,1.65,1.37,1.65a9.61,9.61,0,0,0,2.82-.55v-3Z" fill="#3a3d3f"/><path d="M83.86,407.25a29.33,29.33,0,0,0-3.15-.29c-1.11,0-2,.31-2,1.37,0,.85.43,1.08,2.34,1.41,2.25.37,3.1.82,3.1,2.57,0,2.11-1.34,2.81-3.5,2.81a25.4,25.4,0,0,1-3.16-.34l.07-1.17s2.05.3,3,.3c1.48,0,2.27-.32,2.27-1.55,0-.93-.47-1.17-2.43-1.47s-3-.7-3-2.5c0-2,1.6-2.63,3.24-2.63a23.19,23.19,0,0,1,3.26.34Z" fill="#3a3d3f"/><path d="M92.9,413.77l0,1.06a31.38,31.38,0,0,1-3.51.29c-2.69,0-3.57-1.57-3.57-4.63,0-3.42,1.48-4.73,3.76-4.73S93.24,407,93.24,410l-.07,1H87.23c0,1.92.59,2.93,2.36,2.93C90.94,413.93,92.9,413.77,92.9,413.77Zm-1-3.85c0-2.24-.68-3-2.27-3s-2.39.85-2.41,3Z" fill="#3a3d3f"/><path d="M95.49,413H97l-1.2,4.14H94.66Z" fill="#3a3d3f"/><path d="M103.26,414.94v-1.17l3.48-3.66c1.48-1.53,2.4-2.5,2.4-3.9,0-1.59-.89-2.09-2.6-2.09a17.64,17.64,0,0,0-3.08.39l-.11-1.15a14.69,14.69,0,0,1,3.44-.48c2.51,0,3.77.95,3.77,3.18,0,1.78-.81,2.83-2.49,4.45l-3.17,3.22h6v1.21Z" fill="#3a3d3f"/><path d="M118,405.94l2.11,7.83h.67l2.17-7.83h1.39l-2.54,9h-2.7l-2.54-9Z" fill="#3a3d3f"/><path d="M132.66,413.77l0,1.06a31.38,31.38,0,0,1-3.51.29c-2.69,0-3.57-1.57-3.57-4.63,0-3.42,1.48-4.73,3.76-4.73S133,407,133,410l-.07,1H127c0,1.92.59,2.93,2.36,2.93C130.7,413.93,132.66,413.77,132.66,413.77Zm-1-3.85c0-2.24-.68-3-2.27-3s-2.39.85-2.41,3Z" fill="#3a3d3f"/><path d="M135.11,414.94V402h1.35v4.43a7.64,7.64,0,0,1,2.77-.68c2.47,0,3,1.22,3,4.43v4.75h-1.35v-4.72c0-2.38-.27-3.26-1.92-3.26a7.41,7.41,0,0,0-2.54.54v7.44Z" fill="#3a3d3f"/><path d="M144.77,402.34h1.35v1.56h-1.35Zm0,3.6h1.35v9h-1.35Z" fill="#3a3d3f"/><path d="M154.53,406l-.05,1.09S153,407,152.35,407c-2.07,0-2.63.9-2.63,3.32,0,2.66.42,3.63,2.65,3.63.69,0,2.13-.16,2.13-.16l.05,1.12a24,24,0,0,1-2.5.25c-2.87,0-3.71-1.32-3.71-4.84,0-3.26,1.06-4.52,3.74-4.52A20.89,20.89,0,0,1,154.53,406Z" fill="#3a3d3f"/><path d="M156.67,402H158v12.93h-1.35Z" fill="#3a3d3f"/><path d="M167.37,413.77l0,1.06a31.12,31.12,0,0,1-3.51.29c-2.68,0-3.56-1.57-3.56-4.63,0-3.42,1.47-4.73,3.76-4.73s3.62,1.26,3.62,4.21l-.07,1h-5.95c0,1.92.6,2.93,2.36,2.93C165.4,413.93,167.37,413.77,167.37,413.77Zm-1-3.85c0-2.24-.69-3-2.27-3s-2.4.85-2.41,3Z" fill="#3a3d3f"/><path d="M175.79,407.25a29.33,29.33,0,0,0-3.15-.29c-1.12,0-2,.31-2,1.37,0,.85.43,1.08,2.34,1.41,2.25.37,3.09.82,3.09,2.57,0,2.11-1.33,2.81-3.49,2.81a25.65,25.65,0,0,1-3.17-.34l.07-1.17s2.06.3,3,.3c1.48,0,2.27-.32,2.27-1.55,0-.93-.47-1.17-2.43-1.47s-3-.7-3-2.5c0-2,1.6-2.63,3.24-2.63a23.19,23.19,0,0,1,3.26.34Z" fill="#3a3d3f"/><path d="M182.14,405.94h1.33v1.22a10.17,10.17,0,0,1,3.3-1.42v1.37a13.15,13.15,0,0,0-3.28,1.22v6.61h-1.35Z" fill="#3a3d3f"/><path d="M195,413.77l0,1.06a31.12,31.12,0,0,1-3.51.29c-2.69,0-3.57-1.57-3.57-4.63,0-3.42,1.48-4.73,3.77-4.73s3.61,1.26,3.61,4.21l-.07,1h-5.94c0,1.92.6,2.93,2.36,2.93C193.05,413.93,195,413.77,195,413.77Zm-1-3.85c0-2.24-.68-3-2.26-3s-2.4.85-2.42,3Z" fill="#3a3d3f"/><path d="M203.27,406l-.05,1.09s-1.44-.16-2.12-.16c-2.07,0-2.63.9-2.63,3.32,0,2.66.41,3.63,2.64,3.63.69,0,2.13-.16,2.13-.16l0,1.12a24,24,0,0,1-2.5.25c-2.86,0-3.71-1.32-3.71-4.84,0-3.26,1.06-4.52,3.75-4.52A20.91,20.91,0,0,1,203.27,406Z" fill="#3a3d3f"/><path d="M205.31,414.94V402h1.35v4.43a7.64,7.64,0,0,1,2.77-.68c2.47,0,3,1.22,3,4.43v4.75h-1.35v-4.72c0-2.38-.27-3.26-1.92-3.26a7.41,7.41,0,0,0-2.54.54v7.44Z" fill="#3a3d3f"/><path d="M221.33,413.26c0,.53.47.72,1,.8l-.05,1.06a2.74,2.74,0,0,1-2.14-.72,9.22,9.22,0,0,1-3.25.72c-1.63,0-2.53-.94-2.53-2.76s.9-2.48,2.75-2.66l2.83-.27v-.77c0-1.27-.54-1.72-1.62-1.72-1.26,0-3.41.24-3.41.24l0-1a22.13,22.13,0,0,1,3.53-.39c2,0,2.9.93,2.9,2.9Zm-4-2.55c-1.09.11-1.53.63-1.53,1.62s.45,1.65,1.37,1.65a9.72,9.72,0,0,0,2.83-.55v-3Z" fill="#3a3d3f"/><path d="M224,405.94h1.33v1.22a10.17,10.17,0,0,1,3.3-1.42v1.37a13.15,13.15,0,0,0-3.28,1.22v6.61H224Z" fill="#3a3d3f"/><path d="M229.82,416.45c0-1,.49-1.53,1.42-2.23a1.48,1.48,0,0,1-.5-1.24,5.75,5.75,0,0,1,.61-1.43c-.75-.34-1.42-1.06-1.42-2.72,0-2.21,1.37-3.07,3.37-3.07a9.43,9.43,0,0,1,1.87.23l2.66-.07v1.15l-1.71,0a2.33,2.33,0,0,1,.6,1.8c0,2.35-1.17,3.05-3.48,3.05-.18,0-.68,0-.88-.07a5.42,5.42,0,0,0-.32,1c0,.72.14.83,2.18.83,2.55,0,3.47.5,3.47,2.65s-1.46,2.86-4,2.86C230.85,419.17,229.82,418.54,229.82,416.45Zm2.34-1.69c-.75.56-1,.88-1,1.58,0,1.25.53,1.7,2.56,1.7,1.8,0,2.61-.49,2.61-1.68,0-1.37-.57-1.51-2.21-1.51C233.48,414.85,232.16,414.76,232.16,414.76Zm3.21-5.93c0-1.42-.56-2-2.07-2s-2,.56-2,2,.61,2,2,2S235.37,410.26,235.37,408.83Z" fill="#3a3d3f"/><path d="M246.11,413.77l0,1.06a31.12,31.12,0,0,1-3.51.29c-2.68,0-3.57-1.57-3.57-4.63,0-3.42,1.48-4.73,3.77-4.73s3.62,1.26,3.62,4.21l-.08,1h-5.94c0,1.92.6,2.93,2.36,2.93C244.15,413.93,246.11,413.77,246.11,413.77Zm-1-3.85c0-2.24-.68-3-2.26-3s-2.4.85-2.42,3Z" fill="#3a3d3f"/><path d="M255.47,414.94h-1.33v-.61a6.49,6.49,0,0,1-2.74.79c-1.76,0-3.24-.72-3.24-4.61,0-3.17,1-4.75,3.77-4.75a15.79,15.79,0,0,1,2.21.23v-4h1.33Zm-1.33-1.69v-6.11a16.07,16.07,0,0,0-2.14-.21c-1.89,0-2.45,1.24-2.45,3.58,0,2.92.95,3.4,2,3.4A6.54,6.54,0,0,0,254.14,413.25Z" fill="#3a3d3f"/><path d="M263.77,414.94h-1.35v-7.83h-1.14v-1.17h1.14v-.81c0-2.6.67-3.3,2.43-3.3.61,0,1.82.13,1.82.13l0,1.11s-1,0-1.55,0c-1,0-1.33.43-1.33,2.1v.8h2.61v1.17h-2.61Z" fill="#3a3d3f"/><path d="M275.31,410.33c0,3.28-.81,4.79-3.85,4.79s-3.86-1.51-3.86-4.79c0-3.1,1-4.57,3.86-4.57S275.31,407.23,275.31,410.33Zm-1.39,0c0-2.5-.54-3.4-2.46-3.4s-2.47.9-2.47,3.4.34,3.62,2.47,3.62S273.92,412.89,273.92,410.33Z" fill="#3a3d3f"/><path d="M277.5,405.94h1.34v1.22a10.06,10.06,0,0,1,3.29-1.42v1.37a13.15,13.15,0,0,0-3.28,1.22v6.61H277.5Z" fill="#3a3d3f"/><path d="M292.1,403.06h1.3v11.88H292V404.6l-3.06,2-.63-1Z" fill="#3a3d3f"/><path d="M301.73,414.94V402h1.35v4.43a7.64,7.64,0,0,1,2.77-.68c2.47,0,3,1.22,3,4.43v4.75h-1.35v-4.72c0-2.38-.27-3.26-1.93-3.26a7.41,7.41,0,0,0-2.54.54v7.44Z" fill="#3a3d3f"/><path d="M318.71,410.33c0,3.28-.81,4.79-3.86,4.79s-3.85-1.51-3.85-4.79c0-3.1,1-4.57,3.85-4.57S318.71,407.23,318.71,410.33Zm-1.39,0c0-2.5-.54-3.4-2.47-3.4s-2.46.9-2.46,3.4.34,3.62,2.46,3.62S317.32,412.89,317.32,410.33Z" fill="#3a3d3f"/><path d="M327.87,405.94v9h-1.35v-.63a6.08,6.08,0,0,1-2.67.81c-2.52,0-3-1.17-3-4.48v-4.7h1.35v4.68c0,2.48.22,3.29,1.89,3.29a5.53,5.53,0,0,0,2.47-.66v-7.31Z" fill="#3a3d3f"/><path d="M330.46,405.94h1.33v1.22a10.17,10.17,0,0,1,3.3-1.42v1.37a13,13,0,0,0-3.28,1.22v6.61h-1.35Z" fill="#3a3d3f"/><path d="M340.65,405.94H342v.64a6.17,6.17,0,0,1,2.7-.82c2.27,0,3.26,1.38,3.26,4.57,0,3.53-1.15,4.79-3.93,4.79a11,11,0,0,1-2-.2v4h-1.35Zm1.35,1.74v6.07a12.78,12.78,0,0,0,1.94.2c2,0,2.63-1,2.63-3.62s-.77-3.37-2.09-3.37A5.86,5.86,0,0,0,342,407.68Z" fill="#3a3d3f"/><path d="M350.13,405.94h1.33v1.22a10.17,10.17,0,0,1,3.3-1.42v1.37a13.15,13.15,0,0,0-3.28,1.22v6.61h-1.35Z" fill="#3a3d3f"/><path d="M363.67,410.33c0,3.28-.81,4.79-3.85,4.79s-3.86-1.51-3.86-4.79c0-3.1,1-4.57,3.86-4.57S363.67,407.23,363.67,410.33Zm-1.39,0c0-2.5-.54-3.4-2.46-3.4s-2.47.9-2.47,3.4.34,3.62,2.47,3.62S362.28,412.89,362.28,410.33Z" fill="#3a3d3f"/><path d="M366.46,405.94l2.1,7.83h.67l2.18-7.83h1.39l-2.54,9h-2.7l-2.54-9Z" fill="#3a3d3f"/><path d="M374.52,402.34h1.35v1.56h-1.35Zm0,3.6h1.35v9h-1.35Z" fill="#3a3d3f"/><path d="M385.38,414.94h-1.33v-.61a6.49,6.49,0,0,1-2.74.79c-1.77,0-3.24-.72-3.24-4.61,0-3.17,1-4.75,3.76-4.75a16,16,0,0,1,2.22.23v-4h1.33Zm-1.33-1.69v-6.11a16.26,16.26,0,0,0-2.15-.21c-1.89,0-2.45,1.24-2.45,3.58,0,2.92,1,3.4,2,3.4A6.62,6.62,0,0,0,384.05,413.25Z" fill="#3a3d3f"/><path d="M394.63,413.77l0,1.06a31.4,31.4,0,0,1-3.52.29c-2.68,0-3.56-1.57-3.56-4.63,0-3.42,1.48-4.73,3.76-4.73S395,407,395,410l-.07,1H389c0,1.92.59,2.93,2.36,2.93C392.67,413.93,394.63,413.77,394.63,413.77Zm-1-3.85c0-2.24-.68-3-2.27-3s-2.39.85-2.41,3Z" fill="#3a3d3f"/><path d="M404,414.94h-1.33v-.61a6.49,6.49,0,0,1-2.74.79c-1.76,0-3.24-.72-3.24-4.61,0-3.17,1-4.75,3.76-4.75a15.79,15.79,0,0,1,2.22.23v-4H404Zm-1.33-1.69v-6.11a16.26,16.26,0,0,0-2.15-.21c-1.89,0-2.44,1.24-2.44,3.58,0,2.92.95,3.4,2,3.4A6.62,6.62,0,0,0,402.66,413.25Z" fill="#3a3d3f"/><path d="M417.85,403.06v1.26h-5.78l-.33,3.87a6.88,6.88,0,0,1,2.8-.74c2.32,0,3.78,1,3.78,3.51,0,2.74-1.5,4.14-4,4.14a19.76,19.76,0,0,1-3.95-.52l.17-1.1a23.46,23.46,0,0,0,3.65.4,2.51,2.51,0,0,0,2.68-2.81c0-1.8-1-2.38-2.52-2.38a6.81,6.81,0,0,0-2.82.72l-1-.18.33-6.17Z" fill="#3a3d3f"/><path d="M428.7,409.18c0,4.55-1.6,5.94-4.32,5.94S420,413.77,420,409.2c0-4.9,1.59-6.34,4.32-6.34S428.7,404.28,428.7,409.18Zm-7.22,0c0,3.72,1,4.69,2.9,4.69s2.9-1,2.9-4.71c0-4-.92-5.08-2.9-5.08S421.48,405.14,421.48,409.2Z" fill="#3a3d3f"/><path d="M433.89,405.36c0,1.75-.78,2.54-2,2.54s-2-.79-2-2.54.76-2.48,2-2.48S433.89,403.63,433.89,405.36Zm-2,1.62c.67,0,.91-.56.91-1.62s-.24-1.57-.91-1.57-.88.51-.88,1.57S431.26,407,431.9,407Zm4-4.3.87.29-3.69,12.29-.87-.25Zm3.1,9.9c0,1.73-.78,2.54-2,2.54s-2-.81-2-2.56.73-2.46,2-2.46S439,410.85,439,412.58Zm-2,1.62c.68,0,.9-.56.9-1.62S437.7,411,437,411s-.88.51-.88,1.55S436.37,414.2,437,414.2Z" fill="#3a3d3f"/><path d="M444.76,414.94v-9h1.33v.63a6,6,0,0,1,2.63-.81,2.56,2.56,0,0,1,2.34.91,7.52,7.52,0,0,1,3.2-.91c2.45,0,3.05,1.17,3.05,4.43v4.75H456v-4.72c0-2.38-.27-3.26-1.89-3.26a5.89,5.89,0,0,0-2.54.67,10.34,10.34,0,0,1,.23,2.63v4.68h-1.35v-4.65c0-2.48-.25-3.33-1.89-3.33a5.34,5.34,0,0,0-2.41.67v7.31Z" fill="#3a3d3f"/><path d="M467.11,410.33c0,3.28-.81,4.79-3.85,4.79s-3.85-1.51-3.85-4.79c0-3.1,1-4.57,3.85-4.57S467.11,407.23,467.11,410.33Zm-1.38,0c0-2.5-.54-3.4-2.47-3.4s-2.46.9-2.46,3.4.34,3.62,2.46,3.62S465.73,412.89,465.73,410.33Z" fill="#3a3d3f"/><path d="M469.31,405.94h1.33v1.22a10.17,10.17,0,0,1,3.3-1.42v1.37a13,13,0,0,0-3.28,1.22v6.61h-1.35Z" fill="#3a3d3f"/><path d="M482.18,413.77l0,1.06a31.4,31.4,0,0,1-3.52.29c-2.68,0-3.56-1.57-3.56-4.63,0-3.42,1.48-4.73,3.76-4.73s3.62,1.26,3.62,4.21l-.07,1h-5.94c0,1.92.59,2.93,2.36,2.93C480.22,413.93,482.18,413.77,482.18,413.77Zm-1-3.85c0-2.24-.68-3-2.27-3s-2.39.85-2.41,3Z" fill="#3a3d3f"/><path d="M16.53,434l-.06,1.09S15,435,14.35,435c-2.07,0-2.63.9-2.63,3.32,0,2.66.41,3.63,2.64,3.63.69,0,2.13-.16,2.13-.16l.05,1.12a24,24,0,0,1-2.5.25c-2.86,0-3.71-1.32-3.71-4.84,0-3.26,1.06-4.52,3.75-4.52A21.18,21.18,0,0,1,16.53,434Z" fill="#3a3d3f"/><path d="M24.91,441.26c0,.53.47.72,1.05.8l-.06,1.06a2.75,2.75,0,0,1-2.14-.72,9.2,9.2,0,0,1-3.24.72c-1.64,0-2.54-.94-2.54-2.76s.9-2.48,2.76-2.66l2.82-.27v-.77c0-1.27-.54-1.72-1.62-1.72-1.26,0-3.4.24-3.4.24l-.05-1a22.1,22.1,0,0,1,3.52-.39c2,0,2.9.93,2.9,2.9Zm-4-2.55c-1.1.11-1.53.63-1.53,1.62s.45,1.65,1.37,1.65a9.61,9.61,0,0,0,2.82-.55v-3Z" fill="#3a3d3f"/><path d="M27.58,433.94h1.33v.64a6.17,6.17,0,0,1,2.7-.82c2.27,0,3.26,1.38,3.26,4.57,0,3.53-1.15,4.79-3.93,4.79a11,11,0,0,1-2-.2v4H27.58Zm1.35,1.74v6.07a12.78,12.78,0,0,0,1.94.2c2,0,2.63-1,2.63-3.62S32.72,435,31.41,435A5.86,5.86,0,0,0,28.93,435.68Z" fill="#3a3d3f"/><path d="M43.42,441.26c0,.53.47.72,1,.8l-.05,1.06a2.78,2.78,0,0,1-2.15-.72,9.2,9.2,0,0,1-3.24.72c-1.63,0-2.53-.94-2.53-2.76s.9-2.48,2.75-2.66l2.83-.27v-.77c0-1.27-.54-1.72-1.62-1.72-1.26,0-3.41.24-3.41.24l0-1a22.13,22.13,0,0,1,3.53-.39c2,0,2.9.93,2.9,2.9Zm-4-2.55c-1.1.11-1.53.63-1.53,1.62s.45,1.65,1.37,1.65a9.72,9.72,0,0,0,2.83-.55v-3Z" fill="#3a3d3f"/><path d="M51.89,434l0,1.09S50.4,435,49.72,435c-2.07,0-2.63.9-2.63,3.32,0,2.66.41,3.63,2.64,3.63.69,0,2.13-.16,2.13-.16l0,1.12a24,24,0,0,1-2.5.25c-2.86,0-3.71-1.32-3.71-4.84,0-3.26,1.06-4.52,3.75-4.52A20.91,20.91,0,0,1,51.89,434Z" fill="#3a3d3f"/><path d="M53.93,430.34h1.35v1.56H53.93Zm0,3.6h1.35v9H53.93Z" fill="#3a3d3f"/><path d="M59.67,435.11v4.3c0,2,.12,2.52,1.3,2.52.5,0,1.6-.11,1.6-.11l.09,1.12a15.71,15.71,0,0,1-1.84.2c-1.85,0-2.48-.7-2.48-3.3v-4.73H57.06v-1.17h1.28v-2.76h1.33v2.76h2.86v1.17Z" fill="#3a3d3f"/><path d="M64.69,433.94l2.25,7.83h.6l2.26-7.83h1.35l-3.74,13H66.06l1.17-4H65.9l-2.56-9Z" fill="#3a3d3f"/><path d="M83.75,442.94H82.42v-.61a6.49,6.49,0,0,1-2.74.79c-1.76,0-3.24-.72-3.24-4.61,0-3.17,1-4.75,3.77-4.75a15.79,15.79,0,0,1,2.21.23v-4h1.33Zm-1.33-1.69v-6.11a16.07,16.07,0,0,0-2.14-.21c-1.89,0-2.45,1.24-2.45,3.58,0,2.92,1,3.4,2,3.4A6.54,6.54,0,0,0,82.42,441.25Z" fill="#3a3d3f"/><path d="M93.33,433.94v9H92v-.63a6.08,6.08,0,0,1-2.67.81c-2.52,0-3-1.17-3-4.48v-4.7h1.35v4.68c0,2.48.22,3.29,1.89,3.29a5.53,5.53,0,0,0,2.47-.66v-7.31Z" fill="#3a3d3f"/><path d="M95.92,433.94h1.33v1.22a10.17,10.17,0,0,1,3.3-1.42v1.37a13,13,0,0,0-3.28,1.22v6.61H95.92Z" fill="#3a3d3f"/><path d="M102.15,430.34h1.35v1.56h-1.35Zm0,3.6h1.35v9h-1.35Z" fill="#3a3d3f"/><path d="M106.09,442.94v-9h1.33v.63a6.85,6.85,0,0,1,2.79-.81c2.49,0,3.05,1.22,3.05,4.43v4.75h-1.34v-4.72c0-2.38-.27-3.26-1.94-3.26a6.12,6.12,0,0,0-2.54.67v7.31Z" fill="#3a3d3f"/><path d="M115.36,444.45c0-1,.49-1.53,1.42-2.23a1.48,1.48,0,0,1-.5-1.24,5.75,5.75,0,0,1,.61-1.43c-.76-.34-1.42-1.06-1.42-2.72,0-2.21,1.37-3.07,3.36-3.07a9.6,9.6,0,0,1,1.88.23l2.66-.07v1.15l-1.71,0a2.37,2.37,0,0,1,.59,1.8c0,2.35-1.17,3.05-3.47,3.05-.18,0-.68,0-.88-.07a5.3,5.3,0,0,0-.33,1c0,.72.15.83,2.18.83,2.56,0,3.48.5,3.48,2.65s-1.46,2.86-4,2.86C116.39,447.17,115.36,446.54,115.36,444.45Zm2.34-1.69c-.76.56-1,.88-1,1.58,0,1.25.52,1.7,2.56,1.7,1.8,0,2.61-.49,2.61-1.68,0-1.37-.58-1.51-2.22-1.51C119,442.85,117.7,442.76,117.7,442.76Zm3.2-5.93c0-1.42-.55-2-2.07-2s-2,.56-2,2,.61,2,2,2S120.9,438.26,120.9,436.83Z" fill="#3a3d3f"/><path d="M130.77,435.11v4.3c0,2,.12,2.52,1.29,2.52.51,0,1.61-.11,1.61-.11l.09,1.12a15.71,15.71,0,0,1-1.84.2c-1.86,0-2.49-.7-2.49-3.3v-4.73h-1.27v-1.17h1.27v-2.76h1.34v2.76h2.86v1.17Z" fill="#3a3d3f"/><path d="M135.28,442.94V430h1.36v4.43a7.64,7.64,0,0,1,2.77-.68c2.47,0,3,1.22,3,4.43v4.75H141.1v-4.72c0-2.38-.27-3.26-1.93-3.26a7.39,7.39,0,0,0-2.53.54v7.44Z" fill="#3a3d3f"/><path d="M151.6,441.77l0,1.06a31.12,31.12,0,0,1-3.51.29c-2.68,0-3.56-1.57-3.56-4.63,0-3.42,1.47-4.73,3.76-4.73s3.62,1.26,3.62,4.21l-.08,1h-5.94c0,1.92.6,2.93,2.36,2.93C149.63,441.93,151.6,441.77,151.6,441.77Zm-1-3.85c0-2.24-.69-3-2.27-3s-2.4.85-2.41,3Z" fill="#3a3d3f"/><path d="M158,433.94h1.33v.64a6.17,6.17,0,0,1,2.7-.82c2.27,0,3.26,1.38,3.26,4.57,0,3.53-1.15,4.79-3.92,4.79a11,11,0,0,1-2-.2v4H158Zm1.35,1.74v6.07a13,13,0,0,0,2,.2c2,0,2.62-1,2.62-3.62s-.77-3.37-2.08-3.37A5.87,5.87,0,0,0,159.35,435.68Z" fill="#3a3d3f"/><path d="M167.49,433.94h1.33v1.22a10.18,10.18,0,0,1,3.29-1.42v1.37a13,13,0,0,0-3.27,1.22v6.61h-1.35Z" fill="#3a3d3f"/><path d="M181,438.33c0,3.28-.81,4.79-3.85,4.79s-3.85-1.51-3.85-4.79c0-3.1,1-4.57,3.85-4.57S181,435.23,181,438.33Zm-1.38,0c0-2.5-.54-3.4-2.47-3.4s-2.46.9-2.46,3.4.34,3.62,2.46,3.62S179.64,440.89,179.64,438.33Z" fill="#3a3d3f"/><path d="M190.47,438.29c0,3.59-1,4.83-4.24,4.83-1.09,0-3-.2-3-.2V430h1.33v4.38a7.44,7.44,0,0,1,2.65-.63C189.65,433.76,190.47,435.05,190.47,438.29Zm-1.36,0c0-2.32-.47-3.33-2.06-3.33a7.57,7.57,0,0,0-2.5.52v6.34s1.17.09,1.66.09C188.67,441.91,189.11,440.81,189.11,438.29Z" fill="#3a3d3f"/><path d="M192.79,430h1.35v12.93h-1.35Z" fill="#3a3d3f"/><path d="M203.49,441.77l0,1.06a31.12,31.12,0,0,1-3.51.29c-2.68,0-3.56-1.57-3.56-4.63,0-3.42,1.48-4.73,3.76-4.73s3.62,1.26,3.62,4.21l-.07,1h-5.94c0,1.92.59,2.93,2.36,2.93C201.53,441.93,203.49,441.77,203.49,441.77Zm-1-3.85c0-2.24-.68-3-2.27-3s-2.39.85-2.41,3Z" fill="#3a3d3f"/><path d="M205.93,442.94v-9h1.34v.63a6,6,0,0,1,2.63-.81,2.56,2.56,0,0,1,2.34.91,7.52,7.52,0,0,1,3.2-.91c2.45,0,3,1.17,3,4.43v4.75h-1.35v-4.72c0-2.38-.27-3.26-1.89-3.26a6,6,0,0,0-2.54.67,9.8,9.8,0,0,1,.24,2.63v4.68h-1.35v-4.65c0-2.48-.25-3.33-1.89-3.33a5.4,5.4,0,0,0-2.42.67v7.31Z" fill="#3a3d3f"/><path d="M227.34,441.26c0,.53.47.72,1,.8l0,1.06a2.74,2.74,0,0,1-2.14-.72,9.22,9.22,0,0,1-3.25.72c-1.63,0-2.53-.94-2.53-2.76s.9-2.48,2.75-2.66l2.83-.27v-.77c0-1.27-.54-1.72-1.62-1.72-1.26,0-3.41.24-3.41.24l-.05-1a22.13,22.13,0,0,1,3.53-.39c2,0,2.9.93,2.9,2.9Zm-4-2.55c-1.1.11-1.53.63-1.53,1.62s.45,1.65,1.37,1.65a9.72,9.72,0,0,0,2.83-.55v-3Z" fill="#3a3d3f"/><path d="M231.8,435.11v4.3c0,2,.13,2.52,1.3,2.52.5,0,1.6-.11,1.6-.11l.09,1.12a15.71,15.71,0,0,1-1.84.2c-1.85,0-2.48-.7-2.48-3.3v-4.73h-1.28v-1.17h1.28v-2.76h1.33v2.76h2.86v1.17Z" fill="#3a3d3f"/><path d="M236.32,430.34h1.35v1.56h-1.35Zm0,3.6h1.35v9h-1.35Z" fill="#3a3d3f"/><path d="M246.08,434l-.06,1.09s-1.44-.16-2.12-.16c-2.07,0-2.63.9-2.63,3.32,0,2.66.41,3.63,2.65,3.63.68,0,2.12-.16,2.12-.16l.05,1.12a24,24,0,0,1-2.5.25c-2.86,0-3.71-1.32-3.71-4.84,0-3.26,1.06-4.52,3.75-4.52A20.89,20.89,0,0,1,246.08,434Z" fill="#3a3d3f"/><path d="M253.87,435.11v4.3c0,2,.12,2.52,1.3,2.52.5,0,1.6-.11,1.6-.11l.09,1.12a15.71,15.71,0,0,1-1.84.2c-1.85,0-2.48-.7-2.48-3.3v-4.73h-1.28v-1.17h1.28v-2.76h1.33v2.76h2.86v1.17Z" fill="#3a3d3f"/><path d="M258.39,430.34h1.35v1.56h-1.35Zm0,3.6h1.35v9h-1.35Z" fill="#3a3d3f"/><path d="M262.33,442.94v-9h1.33v.63a6,6,0,0,1,2.63-.81,2.55,2.55,0,0,1,2.34.91,7.53,7.53,0,0,1,3.21-.91c2.44,0,3,1.17,3,4.43v4.75h-1.35v-4.72c0-2.38-.27-3.26-1.89-3.26a6,6,0,0,0-2.54.67,10.34,10.34,0,0,1,.23,2.63v4.68H268v-4.65c0-2.48-.25-3.33-1.89-3.33a5.34,5.34,0,0,0-2.41.67v7.31Z" fill="#3a3d3f"/><path d="M284,441.77l0,1.06a31.38,31.38,0,0,1-3.51.29c-2.69,0-3.57-1.57-3.57-4.63,0-3.42,1.48-4.73,3.76-4.73s3.62,1.26,3.62,4.21l-.07,1h-5.94c0,1.92.59,2.93,2.36,2.93C282.06,441.93,284,441.77,284,441.77Zm-1-3.85c0-2.24-.68-3-2.27-3s-2.39.85-2.41,3Z" fill="#3a3d3f"/><path d="M292.16,442.94h-1.35v-7.83h-1.14v-1.17h1.14v-.81c0-2.6.66-3.3,2.43-3.3.61,0,1.81.13,1.81.13v1.11s-1,0-1.55,0c-1,0-1.33.43-1.33,2.1v.8h2.61v1.17h-2.61Z" fill="#3a3d3f"/><path d="M296.38,433.94h1.34v1.22a10.06,10.06,0,0,1,3.29-1.42v1.37a13.15,13.15,0,0,0-3.28,1.22v6.61h-1.35Z" fill="#3a3d3f"/><path d="M309,441.26c0,.53.47.72,1,.8l-.05,1.06a2.74,2.74,0,0,1-2.14-.72,9.22,9.22,0,0,1-3.25.72c-1.63,0-2.53-.94-2.53-2.76s.9-2.48,2.75-2.66l2.83-.27v-.77c0-1.27-.54-1.72-1.62-1.72-1.26,0-3.41.24-3.41.24l0-1a22.13,22.13,0,0,1,3.53-.39c2,0,2.9.93,2.9,2.9Zm-4-2.55c-1.1.11-1.53.63-1.53,1.62s.45,1.65,1.37,1.65a9.72,9.72,0,0,0,2.83-.55v-3Z" fill="#3a3d3f"/><path d="M311.63,442.94v-9H313v.63a6,6,0,0,1,2.63-.81,2.55,2.55,0,0,1,2.34.91,7.53,7.53,0,0,1,3.21-.91c2.45,0,3,1.17,3,4.43v4.75h-1.35v-4.72c0-2.38-.27-3.26-1.89-3.26a6,6,0,0,0-2.54.67,10.34,10.34,0,0,1,.23,2.63v4.68h-1.35v-4.65c0-2.48-.25-3.33-1.89-3.33a5.34,5.34,0,0,0-2.41.67v7.31Z" fill="#3a3d3f"/><path d="M333.32,441.77l0,1.06a31.12,31.12,0,0,1-3.51.29c-2.69,0-3.57-1.57-3.57-4.63,0-3.42,1.48-4.73,3.76-4.73s3.62,1.26,3.62,4.21l-.07,1h-5.94c0,1.92.59,2.93,2.36,2.93C331.36,441.93,333.32,441.77,333.32,441.77Zm-1-3.85c0-2.24-.68-3-2.27-3s-2.39.85-2.41,3Z" fill="#3a3d3f"/><path d="M335.68,440.89h1.47v2.05h-1.47Z" fill="#3a3d3f"/><path d="M13.15,9.4v4.66H11.61V.22h5.06c3,0,4.42,1.46,4.42,4.46S19.69,9.4,16.67,9.4ZM16.65,8c2,0,2.86-1.22,2.86-3.36s-.84-3.1-2.86-3.1h-3.5V8Z"/><path d="M25,8.76v5.3H23.47V.22h5.12C31.49.22,33,1.5,33,4.42c0,2-.8,3.46-2.54,4l2.66,5.62h-1.7l-2.5-5.3Zm3.58-7.18H25V7.4h3.6c2.08,0,2.82-1.24,2.82-3C31.43,2.52,30.53,1.58,28.59,1.58Z"/><path d="M35.79.22h8.42V1.58H37.33V6.36H43V7.7H37.33v5h6.88v1.36H35.79Z"/><path d="M56.31.22,52.69,14.06H49.25L45.63.22h1.6L50.41,12.7h1.12L54.71.22Z"/><path d="M58.49.22H60V14.06H58.49Z"/><path d="M62.85,7.2C62.85,2.64,64,0,68.31,0S73.79,2.6,73.79,7.2c0,4.76-1.18,7.06-5.48,7.06S62.85,11.84,62.85,7.2Zm9.34,0c0-3.74-.72-5.82-3.88-5.82S64.43,3.44,64.43,7.2s.68,5.7,3.88,5.7S72.19,11.1,72.19,7.2Z"/><path d="M81.29,12.9c2.16,0,3.38-.84,3.38-3V.22h1.52V9.86c0,3.16-1.74,4.4-4.9,4.4S76.51,13,76.51,9.86V.22h1.54V9.9C78.05,12.06,79.25,12.9,81.29,12.9Z"/><path d="M97.25,1.7s-2.78-.34-3.94-.34c-2,0-3,.7-3,2.26,0,1.8,1,2.1,3.38,2.64,2.76.62,4,1.3,4,3.72,0,3.06-1.68,4.26-4.42,4.26a36.39,36.39,0,0,1-4.38-.44L89,12.52s2.72.36,4.14.36c2,0,3-.86,3-2.78,0-1.56-.82-2-3.08-2.44-2.86-.62-4.3-1.3-4.3-3.94S90.51,0,93.21,0a34.46,34.46,0,0,1,4.18.4Z"/><path d="M109.41,12.9c2.16,0,3.38-.84,3.38-3V.22h1.52V9.86c0,3.16-1.74,4.4-4.9,4.4s-4.78-1.22-4.78-4.4V.22h1.54V9.9C106.17,12.06,107.37,12.9,109.41,12.9Z"/><path d="M125.37,1.7s-2.78-.34-3.94-.34c-2,0-3,.7-3,2.26,0,1.8,1,2.1,3.38,2.64,2.76.62,4,1.3,4,3.72,0,3.06-1.68,4.26-4.42,4.26A36.39,36.39,0,0,1,117,13.8l.16-1.28s2.72.36,4.14.36c2,0,3-.86,3-2.78,0-1.56-.82-2-3.08-2.44-2.86-.62-4.3-1.3-4.3-3.94S118.63,0,121.33,0a34.46,34.46,0,0,1,4.18.4Z"/><path d="M131,.22h3.36l3.8,13.84h-1.52l-1-3.56h-5.92l-1,3.56h-1.52Zm-.94,8.9h5.24l-2.1-7.58h-1Z"/><path d="M145.85,7h3.82v6.8a33.71,33.71,0,0,1-4.5.48c-4.24,0-5.36-2.6-5.36-7.08S141,0,145.13,0a25.77,25.77,0,0,1,4.54.52l-.06,1.28a31.73,31.73,0,0,0-4.3-.42c-3.2,0-3.9,1.86-3.9,5.78s.68,5.72,3.88,5.72a18.56,18.56,0,0,0,2.86-.28V8.36h-2.3Z"/><path d="M152.69.22h8.42V1.58h-6.88V6.36h5.68V7.7h-5.68v5h6.88v1.36h-8.42Z"/><line x1="11.78" y1="22.37" x2="511.37" y2="22.37" fill="none" stroke="#a2a7aa" stroke-miterlimit="10"/><g opacity="0.24" style="isolation:isolate"><g clip-path="url(#clip-path)"><path d="M512.22,196c-4.56-1.26-8-2.79-11.38-.56S494.14,201,490.12,207s-12.72,13.39-21.42,16.36-13.39,4.83-21.43,5.21-20.09-1.86-26.11,0-11.38,10-12.72,13-14,9.58-24.11,10c-28.79,1.3-52.9-5.64-57.58-5.76-14.06-.38-20,3.14-26.78,4.09-8,1.11-13.39,3.34-18.75,3.34s-20.09-7.43-29.46-8.18-20.35-6.69-22.77-6.69c-6,0-12.05,1.12-19.41-.37s-8.71-3.16-14.73-3.16-12.06.37-17.41-2.23-9.38-.37-12.72,1.86-8,12.26-20.76,12.64-27.45,5.2-31.47,7.43-14.73,1.5-19.42-.37-3.58-7.9-7.36-8.73c-6.7-1.5-26.78-2.61-30.8-1.12S42.19,232.09,38.84,228c-3.1-3.79-8.71-18.59-18.75-16.73-6.48,1.2-8.09.65-12.06,2.23a42.35,42.35,0,0,1-6.69,2.23L0,212s10.71-29.37,30.13-22.68,16.74,17.1,23.43,13.38,6-.55,21.43,2,25.44,8.18,30.13,5.2,4.69-12.27,10-12.64,10.72,4.09,16.08,4.46,18.74,1.5,24.77,1.5,9.37-14.5,17.41-13,28.79,7.44,32.14,12.27,10.72,1.5,12.06-.74,5.35-8.55,16.07-3.35,30.13,16.36,32.8,13.76,11.38-12.65,23.44-9.3,28.12,21.19,28.12,21.19,22.77,11.9,35.49,15.24,26.78,3.35,31.47-1.49,15.4-23.42,20.09-26,18.75-1.86,24.77-.75,21.43,6.69,26.78,5.58,14.06-2.6,16.74-6.69,10.71-15.62,16.07-19.34,9.38-10.41,18.08-7.06,12.72,8,12.72,8v7.81s-2-1.66-8-3.34" fill="#f2a120"/></g></g><g opacity="0.31" style="isolation:isolate"><g clip-path="url(#clip-path-2)"><path d="M521.89,190.29s-10.05-8.18-16.07-7.06-12.4,2-15.74,9.48-16.76,20.82-29.49,21.94-22.77-3.35-27.46-3.35S411,207.21,409,213.16s-15.41,21.94-20.77,25.29-13.4,4.83-18.09,4.09-20.76-2.23-22.77-2.23S334,236.22,328,235.47s-10.05-5.57-20.77-10.78-23.45-15.24-26.79-14.13-8,6.69-14.74,5.95-15.41-9.67-20.1-9.3-15.41-7.81-18.09-7.06-9.38,8.55-14.07,8.17-15.4-12.64-22.77-12.64-12.06-3-18.09,0-6,11.53-11.39,11.53-11.39-2.6-16.75-3-10.72,1.5-14.07,1.5-9.38-3.72-14.73-.38-5.36,7.07-16.08,6.33-30.82-8.56-34.84-5.21-7-2.42-15.07-4.28-18.76-8.92-24.12-9.66-16.75,7.06-18.09,8.92a35.55,35.55,0,0,0-2.68,4.83v3s1.59-2.29,6.7-4.1c7.37-2.6,8.81-3.13,18.09.38,14.74,5.57,16.08,28.63,21.44,27.88s7.37,5.21,14.07,4.09,22.44.19,27.8,1.3,10.72,3.35,14.07-.74,10.71-5.2,16.74-5.2S141,229.52,143.05,231s11.39,7.06,15.41,3.34,10.72-15.24,19.43-15.61,26.79,1.12,29.47,4.83,12.4,6.88,13.07,5,2.34-7.25,11.72-1.3,19.43,3.35,20.77,6,6.7,7.06,16.07,7.81,21.78.18,25.8,2.41,8-3.72,17.41-4.09a161.75,161.75,0,0,1,20.77.37c3.35.38,18.42,5.4,27.13,5.4s28.14.37,30.82-1.49,14.07-4.09,16.08-9.3,6-14.13,28.13-12.27,41.54-4.83,50.92-16,12.72-17.85,19.42-17.1a63.28,63.28,0,0,1,11.73,2.41l4.69,2.6Z" fill="#f2a120"/></g></g><path d="M513.57,157.84a6.82,6.82,0,0,1,.9.07c4.27.66,11.18,5.82,11.71,6.44v2.23c-1.87-2.17-9.7-7.2-12.25-7.59a1.8,1.8,0,0,0-.92.06c-2,.73-6.91,5.44-11.67,10a156.77,156.77,0,0,1-12.85,11.45,60.68,60.68,0,0,1-32.87,11.75c-3.69.12-6.47,0-8.92-.11-5.52-.25-8.56-.38-15.26,2.6-4.48,2-7.79,5.11-11,8.12-3.92,3.71-7.62,7.2-13.32,8.68-10.35,2.68-25.93,10.83-35.37,10.08-2.74-.21-6.62-.73-11.11-1.33-10.48-1.39-24.84-3.31-31.24-2-7.89,1.57-38.1,4-49.9.43-2.89-.88-5.62-1.72-7.77-2.31-3.09-.86-5.88-1.58-8.57-2.26A239.57,239.57,0,0,1,239.54,207c-13.83-4.89-24.76-.49-30.92,2.55-3.64,1.8,4.12-12.25-1.67-13.62-4.84-1.13-8.21,1.4-11.3,2.18a49.38,49.38,0,0,0-8.86,3.59c-4.36,2.1-14.65,10-20.74,11-3.93.58-9,1-14,1.4-7.84.65-15.95,1.31-19.89,2.62-4.46,1.49-10.77,4.9-16.53,3.68a104.45,104.45,0,0,0-12.92-2.11A27,27,0,0,1,92.88,216c-2.56-1.11-3-4-13.43-4-9.55,0-14.28-5.58-18.4-4.09-3.81,1.38-4.53-3.87-8.88-5.28l-.62-.2C43.9,199.89,36.84,179,22.23,180.72c-14.81,1.79-11.86,7.3-13.39,1.86v-1.12c.12-.09.66-.37,2.68-1.49,3.73-2.07.59-3.24,10.71-4.46,15.37-1.86,21.86,22.82,29.45,25.28l2,.74c3.28,1.06,3.77,6.14,7.37,4.84,4.11-1.49,7.25-1.86,17.4-1.86,11.14,0,15,2,17.67,3.12a23.71,23.71,0,0,0,8.92,2.09A148.52,148.52,0,0,1,120.47,212c5.71,1.2,6.38-4.29,10-5.5,4.28-1.43,2.85-6.12,10.89-6.77,4.89-.41,7.56-9.48,11.38-10,5.65-.84,17-11.65,21.41-13.76,3.17-1.52,14.89.8,18.07,0,3.9-1,9.24,13,14.48,14.21s6.26,11.65,9,10.33c6.71-3.32,14.94-2.14,29.65,3.06a239,239,0,0,0,23.4,7c2.71.69,5.51,1.41,8.64,2.28,2.19.61,4.93,1.45,7.84,2.34,10.81,3.31,34.53-7,41.57-8.35s21.46,2.21,32.79,3.72c4.44.59,9.87.54,12.52.75,9.1.72,24.2,1.9,34.24-.7,5.13-1.33,8.68-4.68,12.43-8.23,3.29-3.1,6.69-6.31,11.46-8.43,7.33-3.26,11.05-3.09,16.68-2.84,2.39.1,5.1.23,8.65.11,12.4-.38,24.34-6.08,31.38-11.3a159,159,0,0,0,12.71-11.34c6.16-5.88,10.05-9.53,12.3-10.36a4.91,4.91,0,0,1,1.66-.28" fill="#3899e8" opacity="0.51"/><rect x="8.84" y="157.84" width="517.33" height="63.83" fill="none"/><path d="M6.79,180.36c.18,5.33.17,1.91,14.89.13S39.09,198.34,51,199.92l.62.2c4.35,1.41,6.68,5.53,10.49,4.16,4.12-1.49,8.91.38,18.48.38,10.46,0,9.87,7.36,12.43,8.47a26.52,26.52,0,0,0,9.84,2.3,106.55,106.55,0,0,1,12.93,2.12c5.76,1.22,12.08-2.19,16.54-3.67,3.94-1.32,4.69-2.73,12.54-3.37,4.94-.41,10.06-.83,14-1.41,6.1-.9,16.39-8.85,20.75-10.94a48.74,48.74,0,0,1,8.87-3.59c3.1-.78,14.8-4.07,19.64-2.93,5.8,1.37-1.61,15,2,13.25,6.16-3,17.09-7.44,30.93-2.55a240.57,240.57,0,0,0,23.65,7.07c2.69.69,5.48,1.4,8.58,2.26,2.16.6,4.88,1.43,7.77,2.32,11.81,3.61,41.37.38,49.26-1.18,6.4-1.27,20.77.64,31.26,2,4.5.6,8.38,1.11,11.12,1.33,9.43.75,24.36-4.8,34.71-7.48,5.7-1.48,9.41-5,13.33-8.68,3.2-3,6.5-6.13,11-8.12,6.71-3,9.76-2.85,15.28-2.6,2.46.11,5.23.23,8.93.11a60.77,60.77,0,0,0,32.89-11.75,156.64,156.64,0,0,0,12.84-11.45c4.78-4.55,9.71-9.25,11.69-10a1.69,1.69,0,0,1,.92-.07c2.55.39,10.38,5.42,12.25,7.6v-2.24c-.54-.62-7.45-5.78-11.72-6.43a5.46,5.46,0,0,0-.9-.07,4.76,4.76,0,0,0-1.67.28c-2.24.83-6.13,4.47-12.3,10.35A155.33,155.33,0,0,1,487.26,177c-7,5.22-19,10.92-31.39,11.31-3.56.11-6.27,0-8.65-.12-5.64-.25-9.37-.42-16.7,2.84-4.77,2.12-8.17,5.33-11.46,8.44-3.76,3.55-7.31,6.89-12.44,8.23-10.05,2.6-26.49,3.65-35.59,2.92-2.64-.21-6.49-.72-10.94-1.31-11.33-1.51-25.43-5.65-32.39-4.27s-34.79,11.29-45.62,8c-2.9-.89-5.64-1.73-7.84-2.34-3.12-.87-5.93-1.59-8.64-2.28a235.86,235.86,0,0,1-23.42-7c-14.71-5.2-20.27-5.63-27-2.32-2.7,1.33-3.07-10.58-8.29-11.81S195,184,191.09,185c-3.19.81-12.23-3.75-15.4-2.23-4.4,2.11-11.09,15.16-16.74,16-3.82.57-8.51,3.32-13.39,3.72-8.05.66-9.11,2.66-13.4,4.09-3.62,1.21-7,6-12.72,4.83-3.83-.81-11.1.09-16.25-.36a24.1,24.1,0,0,1-8.92-2.09c-2.72-1.17-3.19-5.73-14.34-5.73-10.15,0-14.78-1.31-18.9.17-3.6,1.3-3.77-5-7-6l-.62-.2c-4.91-3.59-14.28-29.25-31-26.28,0,0-15.71,5-15.56,9.54" fill="#3899e8" opacity="0.5"/><rect x="6.8" y="155.01" width="519.77" height="62.8" fill="none"/><g style="mix-blend-mode:multiply"><rect x="260.14" y="141.58" width="54.85" height="141.23" fill="#edf4f9"/><g clip-path="url(#clip-path-3)"><rect x="260.13" y="141.57" width="54.85" height="141.23" fill="#edf4f9"/></g></g></g></g></g></svg>