<svg xmlns="http://www.w3.org/2000/svg" xmlns:xlink="http://www.w3.org/1999/xlink" viewBox="-10 0 579.59 555.77"><defs><clipPath id="clip-path"><rect x="55.92" y="110.5" width="12.28" height="79.78" fill="#76ce89"/></clipPath><clipPath id="clip-path-2"><rect x="73.84" y="123.27" width="12.25" height="67.01" fill="#76ce89"/></clipPath><clipPath id="clip-path-3"><rect x="91.74" y="123.29" width="12.25" height="66.99" fill="#76ce89"/></clipPath><clipPath id="clip-path-4"><rect x="109.63" y="123.29" width="12.25" height="66.99" fill="#76ce89"/></clipPath><clipPath id="clip-path-5"><rect x="127.52" y="131.43" width="12.22" height="58.85" fill="#76ce89"/></clipPath><clipPath id="clip-path-6"><rect x="145.38" y="138.4" width="12.23" height="51.88" fill="#76ce89"/></clipPath><clipPath id="clip-path-7"><rect x="163.26" y="150.39" width="12.21" height="39.89" fill="#ffda00"/></clipPath><clipPath id="clip-path-8"><rect x="181.11" y="154.39" width="12.19" height="35.9" fill="#ffda00"/></clipPath><clipPath id="clip-path-9"><rect x="198.95" y="123.27" width="12.18" height="67.01" fill="#76ce89"/></clipPath><clipPath id="clip-path-10"><rect x="216.77" y="126.78" width="12.17" height="63.5" fill="#76ce89"/></clipPath><clipPath id="clip-path-11"><rect x="234.59" y="126.78" width="12.25" height="63.5" fill="#76ce89"/></clipPath><clipPath id="clip-path-12"><rect x="252.48" y="126.78" width="12.24" height="63.5" fill="#76ce89"/></clipPath><clipPath id="clip-path-13"><rect x="270.36" y="126.78" width="12.23" height="63.5" fill="#76ce89"/></clipPath><clipPath id="clip-path-14"><rect x="288.23" y="134.78" width="12.23" height="55.5" fill="#76ce89"/></clipPath><clipPath id="clip-path-15"><rect x="306.11" y="137.56" width="12.22" height="52.72" fill="#76ce89"/></clipPath><clipPath id="clip-path-16"><rect x="323.97" y="140.16" width="12.2" height="50.12" fill="#76ce89"/></clipPath><clipPath id="clip-path-17"><rect x="341.82" y="140.16" width="12.2" height="50.12" fill="#76ce89"/></clipPath><clipPath id="clip-path-18"><rect x="359.67" y="140.16" width="12.2" height="50.12" fill="#76ce89"/></clipPath><clipPath id="clip-path-19"><rect x="377.52" y="144.64" width="12.2" height="45.64" fill="#76ce89"/></clipPath><clipPath id="clip-path-20"><rect x="395.36" y="144.64" width="12.19" height="45.64" fill="#76ce89"/></clipPath><clipPath id="clip-path-21"><rect x="413.2" y="144.64" width="12.19" height="45.64" fill="#76ce89"/></clipPath><clipPath id="clip-path-22"><rect x="431.03" y="147.69" width="12.18" height="42.59" fill="#76ce89"/></clipPath><clipPath id="clip-path-23"><rect x="448.85" y="158.14" width="12.15" height="32.14" fill="none"/></clipPath><clipPath id="clip-path-24"><rect x="37.98" y="104.69" width="12.3" height="85.65" fill="#76ce89"/></clipPath><clipPath id="clip-path-25"><rect x="20.02" y="98.88" width="12.32" height="91.52" fill="#76ce89"/></clipPath></defs><title>Asset 5</title><g id="Layer_2" data-name="Layer 2"><g id="Layer_1-2" data-name="Layer 1"><path d="M4.47,51.89c1.9,0,2.89.74,2.89,2.47a2.11,2.11,0,0,1-1.25,2.22,2.14,2.14,0,0,1,1.54,2.29c0,2-1.17,2.71-3,2.71H1V51.89ZM2,52.84v3.35H4.53c1.22,0,1.72-.57,1.72-1.74s-.58-1.61-1.82-1.61Zm0,4.29v3.5H4.61c1.18,0,1.95-.38,1.95-1.8s-1.27-1.7-2-1.7Z" fill="#4c4c4c"/><path d="M14.34,60.28c0,.41.37.56.82.62l0,.82a2.14,2.14,0,0,1-1.67-.56,7.16,7.16,0,0,1-2.52.56c-1.28,0-2-.72-2-2.14s.7-1.93,2.14-2.07l2.2-.21v-.6c0-1-.42-1.33-1.26-1.33s-2.64.18-2.64.18l-.05-.8a16.87,16.87,0,0,1,2.75-.31c1.58,0,2.25.73,2.25,2.26Zm-3.12-2c-.85.09-1.19.49-1.19,1.26s.35,1.29,1.06,1.29a7.46,7.46,0,0,0,2.2-.43V58.1Z" fill="#4c4c4c"/><path d="M17.81,55.49v3.35c0,1.53.1,2,1,2,.39,0,1.25-.08,1.25-.08l.07.86a11.86,11.86,0,0,1-1.43.16c-1.44,0-1.93-.55-1.93-2.56V55.49h-1v-.91h1V52.44h1v2.14H20v.91Z" fill="#4c4c4c"/><path d="M22.73,55.49v3.35c0,1.53.1,2,1,2,.39,0,1.24-.08,1.24-.08l.07.86a11.61,11.61,0,0,1-1.42.16c-1.45,0-1.94-.55-1.94-2.56V55.49h-1v-.91h1V52.44h1v2.14H25v.91Z" fill="#4c4c4c"/><path d="M31.41,60.67l0,.83a25,25,0,0,1-2.73.22c-2.09,0-2.78-1.21-2.78-3.6,0-2.66,1.15-3.68,2.93-3.68s2.82,1,2.82,3.28l-.06.8H27c0,1.5.46,2.28,1.83,2.28C29.88,60.8,31.41,60.67,31.41,60.67Zm-.78-3c0-1.74-.54-2.36-1.77-2.36S27,56,27,57.68Z" fill="#4c4c4c"/><path d="M33.31,54.58h1v1a7.84,7.84,0,0,1,2.56-1.1v1.06a10.53,10.53,0,0,0-2.55.95v5.14h-1Z" fill="#4c4c4c"/><path d="M38.55,54.58l1.75,6.09h.46l1.77-6.09h1L40.66,64.69h-1l.91-3.11h-1l-2-7Z" fill="#4c4c4c"/><path d="M48.18,61.58V51.89h1.08v8.73h4.26v1Z" fill="#4c4c4c"/><path d="M59.87,60.67l0,.83a25,25,0,0,1-2.73.22c-2.09,0-2.77-1.21-2.77-3.6,0-2.66,1.14-3.68,2.92-3.68s2.82,1,2.82,3.28l-.06.8H55.46c0,1.5.46,2.28,1.83,2.28C58.35,60.8,59.87,60.67,59.87,60.67Zm-.78-3c0-1.74-.53-2.36-1.77-2.36s-1.86.66-1.87,2.36Z" fill="#4c4c4c"/><path d="M62.24,54.58l1.64,6.09h.51l1.7-6.09h1.08l-2,7h-2.1l-2-7Z" fill="#4c4c4c"/><path d="M73.68,60.67l0,.83a24.68,24.68,0,0,1-2.73.22c-2.08,0-2.77-1.21-2.77-3.6,0-2.66,1.15-3.68,2.93-3.68s2.81,1,2.81,3.28l0,.8H69.26c0,1.5.47,2.28,1.84,2.28C72.15,60.8,73.68,60.67,73.68,60.67Zm-.79-3c0-1.74-.53-2.36-1.76-2.36s-1.87.66-1.88,2.36Z" fill="#4c4c4c"/><path d="M75.66,51.53h1v10h-1Z" fill="#4c4c4c"/><path d="M3.15,241.64H5.09l2.75,8.2,2.74-8.2h1.95v9.7H11.45v-8.55h-.19L8.44,251H7.24l-2.82-8.2H4.23v8.55H3.15Z" fill="#4c4c4c"/><path d="M19.67,250c0,.41.36.56.81.62l0,.83a2.15,2.15,0,0,1-1.67-.56,7.16,7.16,0,0,1-2.52.56c-1.27,0-2-.73-2-2.15s.7-1.93,2.14-2.07l2.2-.21v-.6c0-1-.42-1.33-1.26-1.33s-2.65.18-2.65.18l0-.8a16.84,16.84,0,0,1,2.74-.31c1.59,0,2.26.73,2.26,2.26Zm-3.13-2c-.85.09-1.19.49-1.19,1.26s.36,1.29,1.07,1.29a7.46,7.46,0,0,0,2.2-.43v-2.31Z" fill="#4c4c4c"/><path d="M21.74,241.53h1.05v1.22H21.74Zm0,2.8h1.05v7H21.74Z" fill="#4c4c4c"/><path d="M24.8,251.34v-7h1v.49a5.35,5.35,0,0,1,2.17-.63c1.94,0,2.37.95,2.37,3.45v3.7h-1v-3.67c0-1.85-.21-2.54-1.51-2.54a4.74,4.74,0,0,0-2,.52v5.69Z" fill="#4c4c4c"/><path d="M33.72,245.24v3.35c0,1.53.1,2,1,2,.39,0,1.25-.08,1.25-.08l.07.87a12.62,12.62,0,0,1-1.43.15c-1.44,0-1.93-.55-1.93-2.56v-3.69h-1v-.91h1v-2.14h1v2.14H36v.91Z" fill="#4c4c4c"/><path d="M42.41,250.42l0,.83a23.64,23.64,0,0,1-2.73.23c-2.09,0-2.77-1.22-2.77-3.6,0-2.67,1.15-3.69,2.93-3.69s2.81,1,2.81,3.28l-.05.8H38c0,1.5.47,2.28,1.84,2.28C40.88,250.55,42.41,250.42,42.41,250.42Zm-.79-3c0-1.74-.53-2.36-1.76-2.36s-1.87.66-1.88,2.36Z" fill="#4c4c4c"/><path d="M44.31,251.34v-7h1v.49a5.35,5.35,0,0,1,2.17-.63c1.94,0,2.37.95,2.37,3.45v3.7h-1v-3.67c0-1.85-.21-2.54-1.51-2.54a4.74,4.74,0,0,0-2,.52v5.69Z" fill="#4c4c4c"/><path d="M56.77,250c0,.41.36.56.81.62l0,.83a2.15,2.15,0,0,1-1.67-.56,7.16,7.16,0,0,1-2.52.56c-1.27,0-2-.73-2-2.15s.7-1.93,2.14-2.07l2.2-.21v-.6c0-1-.42-1.33-1.26-1.33s-2.65.18-2.65.18l0-.8a16.84,16.84,0,0,1,2.74-.31c1.59,0,2.26.73,2.26,2.26Zm-3.13-2c-.85.09-1.19.49-1.19,1.26s.35,1.29,1.07,1.29a7.46,7.46,0,0,0,2.2-.43v-2.31Z" fill="#4c4c4c"/><path d="M58.84,251.34v-7h1v.49a5.35,5.35,0,0,1,2.17-.63c1.94,0,2.37.95,2.37,3.45v3.7h-1v-3.67c0-1.85-.21-2.54-1.52-2.54a4.74,4.74,0,0,0-2,.52v5.69Z" fill="#4c4c4c"/><path d="M70.88,244.4l0,.86s-1.12-.13-1.66-.13c-1.61,0-2,.7-2,2.58,0,2.07.32,2.83,2.06,2.83.53,0,1.65-.13,1.65-.13l0,.87a18.17,18.17,0,0,1-1.94.2c-2.23,0-2.89-1-2.89-3.77,0-2.54.83-3.52,2.91-3.52A16.24,16.24,0,0,1,70.88,244.4Z" fill="#4c4c4c"/><path d="M77.63,250.42l0,.83a23.91,23.91,0,0,1-2.74.23c-2.08,0-2.77-1.22-2.77-3.6,0-2.67,1.15-3.69,2.93-3.69s2.81,1,2.81,3.28l0,.8H73.21c0,1.5.47,2.28,1.84,2.28C76.1,250.55,77.63,250.42,77.63,250.42Zm-.79-3c0-1.74-.53-2.36-1.76-2.36s-1.87.66-1.88,2.36Z" fill="#4c4c4c"/><path d="M5.25,335.32H6.78l2.16,6.43,2.16-6.43h1.53v7.61h-.85v-6.71h-.16l-2.21,6.43H8.47l-2.22-6.43H6.1v6.71H5.25Z" fill="#4c4c4c"/><path d="M18.23,341.91c0,.32.29.44.64.48l0,.65a1.69,1.69,0,0,1-1.31-.44,5.62,5.62,0,0,1-2,.44c-1,0-1.55-.57-1.55-1.68s.55-1.52,1.68-1.63l1.73-.17v-.47c0-.77-.33-1-1-1s-2.08.15-2.08.15l0-.63a13.41,13.41,0,0,1,2.15-.24c1.25,0,1.77.57,1.77,1.77Zm-2.45-1.57c-.67.07-.93.39-.93,1s.27,1,.83,1a5.68,5.68,0,0,0,1.73-.35v-1.81Z" fill="#4c4c4c"/><path d="M19.86,337.43h.82v.75a6.14,6.14,0,0,1,2-.87v.83a7.84,7.84,0,0,0-2,.75v4h-.83Z" fill="#4c4c4c"/><path d="M63.87,335.32h1.85l2.09,7.61H67l-.55-2H63.17l-.55,2h-.84Zm-.52,4.89h2.89L65.08,336h-.57Z" fill="#4c4c4c"/><path d="M68.86,337.43h.82v.39a3.74,3.74,0,0,1,1.65-.5c1.38,0,2,.85,2,2.79,0,2.16-.7,2.93-2.4,2.93a7.37,7.37,0,0,1-1.23-.12v2.45h-.83Zm.83,1.07v3.7a7.14,7.14,0,0,0,1.19.12c1.21,0,1.6-.62,1.6-2.21s-.47-2.05-1.27-2.05A3.59,3.59,0,0,0,69.69,338.5Z" fill="#4c4c4c"/><path d="M74.66,337.43h.82v.75a6.14,6.14,0,0,1,2-.87v.83a7.84,7.84,0,0,0-2,.75v4h-.83Z" fill="#4c4c4c"/><path d="M118.61,341.88c0,1.65-.64,1.84-2.09,1.84V343c1,0,1.24-.06,1.24-1.2v-6.44h.83Z" fill="#4c4c4c"/><path d="M124.55,337.43v5.5h-.83v-.39a3.66,3.66,0,0,1-1.63.5c-1.54,0-1.86-.72-1.86-2.74v-2.87h.83v2.86c0,1.52.13,2,1.15,2a3.37,3.37,0,0,0,1.51-.4v-4.47Z" fill="#4c4c4c"/><path d="M126.13,342.93v-5.5h.81v.38a4.21,4.21,0,0,1,1.71-.49c1.52,0,1.86.75,1.86,2.7v2.91h-.82v-2.88c0-1.46-.16-2-1.19-2a3.82,3.82,0,0,0-1.55.4v4.47Z" fill="#4c4c4c"/><path d="M172.17,341.88c0,1.65-.63,1.84-2.09,1.84V343c1,0,1.25-.06,1.25-1.2v-6.44h.83Z" fill="#4c4c4c"/><path d="M178.11,337.43v5.5h-.82v-.39a3.72,3.72,0,0,1-1.63.5c-1.54,0-1.86-.72-1.86-2.74v-2.87h.83v2.86c0,1.52.13,2,1.15,2a3.37,3.37,0,0,0,1.51-.4v-4.47Z" fill="#4c4c4c"/><path d="M179.76,335h.83v7.9h-.83Z" fill="#4c4c4c"/><path d="M222.44,335.32h1.85l2.09,7.61h-.84l-.55-2h-3.25l-.55,2h-.84Zm-.52,4.89h2.89L223.65,336h-.57Z" fill="#4c4c4c"/><path d="M231.69,337.43v5.5h-.82v-.39a3.72,3.72,0,0,1-1.63.5c-1.54,0-1.86-.72-1.86-2.74v-2.87h.83v2.86c0,1.52.13,2,1.15,2a3.42,3.42,0,0,0,1.51-.4v-4.47Z" fill="#4c4c4c"/><path d="M233,343.85c0-.63.3-.93.87-1.36a.91.91,0,0,1-.3-.76,3.56,3.56,0,0,1,.37-.87,1.6,1.6,0,0,1-.87-1.66c0-1.35.84-1.88,2.06-1.88a5.74,5.74,0,0,1,1.14.14l1.63,0v.7l-1.05,0a1.43,1.43,0,0,1,.37,1.1c0,1.43-.72,1.86-2.12,1.86a4.9,4.9,0,0,1-.54,0,3.22,3.22,0,0,0-.2.62c0,.44.09.51,1.33.51,1.56,0,2.12.31,2.12,1.62s-.89,1.74-2.44,1.74C233.66,345.51,233,345.13,233,343.85Zm1.43-1c-.46.34-.61.54-.61,1,0,.76.32,1,1.56,1s1.6-.3,1.6-1-.36-.93-1.36-.93C235.27,342.87,234.46,342.82,234.46,342.82Zm2-3.62c0-.87-.34-1.21-1.26-1.21s-1.23.34-1.23,1.21.37,1.2,1.23,1.2S236.42,340.07,236.42,339.2Z" fill="#4c4c4c"/><path d="M282,336.13s-1.53-.19-2.17-.19c-1.08,0-1.65.39-1.65,1.25s.53,1.15,1.86,1.45c1.51.34,2.19.71,2.19,2.05,0,1.68-.93,2.34-2.43,2.34a20,20,0,0,1-2.41-.24l.08-.71s1.5.2,2.28.2c1.08,0,1.63-.47,1.63-1.53,0-.86-.45-1.1-1.7-1.34-1.57-.34-2.36-.72-2.36-2.17s1-2,2.45-2a18.78,18.78,0,0,1,2.3.22Z" fill="#4c4c4c"/><path d="M287.59,342.21l0,.65a18.93,18.93,0,0,1-2.15.18c-1.64,0-2.18-1-2.18-2.83,0-2.09.91-2.89,2.3-2.89s2.21.77,2.21,2.57l0,.63h-3.63c0,1.18.36,1.79,1.44,1.79C286.4,342.31,287.59,342.21,287.59,342.21Zm-.61-2.35c0-1.36-.42-1.85-1.39-1.85s-1.46.52-1.47,1.85Z" fill="#4c4c4c"/><path d="M289.09,337.43h.81v.39a3.79,3.79,0,0,1,1.65-.5c1.39,0,2,.85,2,2.79,0,2.16-.71,2.93-2.4,2.93a7.37,7.37,0,0,1-1.23-.12v2.45h-.83Zm.83,1.07v3.7a7.12,7.12,0,0,0,1.18.12c1.21,0,1.61-.62,1.61-2.21s-.47-2.05-1.28-2.05A3.57,3.57,0,0,0,289.92,338.5Z" fill="#4c4c4c"/><path d="M333.36,339.16c0-2.51.65-4,3-4s3,1.42,3,4-.65,3.88-3,3.88S333.36,341.71,333.36,339.16Zm5.14,0c0-2.06-.39-3.21-2.13-3.21s-2.14,1.14-2.14,3.21.38,3.13,2.14,3.13S338.5,341.3,338.5,339.16Z" fill="#4c4c4c"/><path d="M344.34,337.48l0,.67s-.88-.09-1.3-.09c-1.26,0-1.6.55-1.6,2,0,1.63.25,2.22,1.61,2.22.42,0,1.3-.1,1.3-.1l0,.69a14.87,14.87,0,0,1-1.53.15c-1.74,0-2.26-.8-2.26-3,0-2,.65-2.76,2.29-2.76A13.17,13.17,0,0,1,344.34,337.48Z" fill="#4c4c4c"/><path d="M346.69,338.14v2.63c0,1.2.07,1.54.79,1.54.31,0,1-.06,1-.06l.05.68a9.79,9.79,0,0,1-1.12.12c-1.13,0-1.52-.43-1.52-2v-2.9h-.78v-.71h.78v-1.68h.82v1.68h1.74v.71Z" fill="#4c4c4c"/><path d="M388.23,335.32h1.59l2.91,6.86H393v-6.86h.84v7.61h-1.55l-3-6.87h-.21v6.87h-.85Z" fill="#4c4c4c"/><path d="M400,340.11c0,2-.49,2.93-2.35,2.93s-2.36-.92-2.36-2.93.62-2.79,2.36-2.79S400,338.22,400,340.11Zm-.85,0c0-1.53-.33-2.08-1.5-2.08s-1.51.55-1.51,2.08.21,2.21,1.51,2.21S399.14,341.67,399.14,340.11Z" fill="#4c4c4c"/><path d="M401.6,337.43l1.28,4.78h.41l1.33-4.78h.85l-1.55,5.5h-1.65l-1.55-5.5Z" fill="#4c4c4c"/><path d="M445.31,342.93v-7.61H448c2.21,0,2.81,1.54,2.81,3.69s-.57,3.92-2.81,3.92Zm2.72-6.87h-1.87v6.12H448c1.58,0,1.94-1.52,1.94-3.17S449.61,336.06,448,336.06Z" fill="#4c4c4c"/><path d="M456.32,342.21l0,.65a18.65,18.65,0,0,1-2.14.18c-1.64,0-2.18-1-2.18-2.83,0-2.09.9-2.89,2.3-2.89s2.21.77,2.21,2.57l0,.63h-3.64c0,1.18.37,1.79,1.45,1.79C455.12,342.31,456.32,342.21,456.32,342.21Zm-.62-2.35c0-1.36-.41-1.85-1.38-1.85s-1.47.52-1.48,1.85Z" fill="#4c4c4c"/><path d="M461.37,337.48l0,.67s-.88-.09-1.3-.09c-1.27,0-1.61.55-1.61,2,0,1.63.25,2.22,1.62,2.22.42,0,1.3-.1,1.3-.1l0,.69a14.87,14.87,0,0,1-1.53.15c-1.75,0-2.27-.8-2.27-3,0-2,.65-2.76,2.29-2.76A13.14,13.14,0,0,1,461.37,337.48Z" fill="#4c4c4c"/><path d="M4.05.2H7.41L11.21,14H9.69l-1-3.56H2.77L1.77,14H.25ZM3.11,9.1H8.35L6.25,1.52h-1Z"/><path d="M18.87,7h3.82v6.8a33.71,33.71,0,0,1-4.5.48c-4.24,0-5.36-2.6-5.36-7.08S14,0,18.15,0a25.77,25.77,0,0,1,4.54.52L22.63,1.8a31.73,31.73,0,0,0-4.3-.42c-3.2,0-3.9,1.86-3.9,5.78s.68,5.72,3.88,5.72a18.56,18.56,0,0,0,2.86-.28V8.34h-2.3Z"/><path d="M35.17.2,31.55,14H28.11L24.49.2h1.6l3.18,12.48h1.12L33.57.2Z"/><path d="M49.59.84v1.4H43.17l-.36,4.3a7.62,7.62,0,0,1,3.1-.82c2.58,0,4.2,1.08,4.2,3.9,0,3-1.66,4.6-4.42,4.6a21.77,21.77,0,0,1-4.38-.58l.18-1.22a26.33,26.33,0,0,0,4.06.44,2.79,2.79,0,0,0,3-3.12c0-2-1.12-2.64-2.8-2.64a7.57,7.57,0,0,0-3.14.8l-1.06-.2L41.89.84Z"/><line x1="460.5" y1="329.48" x2="1.56" y2="329.48" fill="none" stroke="#adadad" stroke-miterlimit="10"/><polyline points="5.76 324.98 48.04 322.79 81.39 318.39 102.83 315.76 119.51 310.49 139.76 306.1 157.93 304.52 174.81 297.94 186.21 289.41 196.93 285.9 212.41 281.51 232.66 278.87 249.34 274.48 261.25 274.48 275.54 278.87 289.84 280.63 302.94 285.9 316.04 290.29 327.95 292.05 349.39 296.44 361.3 303.46 374.41 310.49 383.94 314.88 399.42 319.27 408.95 321.91 430.39 324.54 445.28 322.35 457.19 317.08" fill="none" stroke="#3899e8"/><polyline points="4.57 324.98 46.85 322.79 80.2 318.39 101.64 315.76 118.32 310.49 138.57 306.1 156.74 304.52 173.62 297.94 185.02 289.41 195.74 285.9 211.22 282.38 231.47 280.63 248.15 276.24 260.06 274.48 274.35 278.87 288.65 280.63 301.75 285.9 314.85 290.29 326.76 292.05 348.2 296.44 360.11 303.46 373.21 310.49 382.74 314.88 398.23 319.27 407.76 321.91 429.2 324.54 444.09 322.35 456 317.08" fill="none" stroke="#8dc5f2"/><rect x="4.52" y="266.96" width="451.79" height="58.52" fill="none"/><path d="M1.72,402.46h9v1.24H6.92v11.22H5.55V403.7H1.72Z" fill="#3a3d3f"/><path d="M19.56,410.31c0,3.28-.81,4.79-3.86,4.79s-3.85-1.51-3.85-4.79c0-3.1,1-4.57,3.85-4.57S19.56,407.21,19.56,410.31Zm-1.39,0c0-2.5-.54-3.4-2.47-3.4s-2.46.9-2.46,3.4.34,3.62,2.46,3.62S18.17,412.87,18.17,410.31Z" fill="#3a3d3f"/><path d="M28.66,414.92H27.33v-.61a6.49,6.49,0,0,1-2.74.79c-1.76,0-3.24-.72-3.24-4.61,0-3.17,1-4.75,3.77-4.75a15.79,15.79,0,0,1,2.21.23v-4h1.33Zm-1.33-1.69v-6.11a16.07,16.07,0,0,0-2.14-.21c-1.89,0-2.45,1.24-2.45,3.58,0,2.92,1,3.4,2,3.4A6.54,6.54,0,0,0,27.33,413.23Z" fill="#3a3d3f"/><path d="M37.63,413.24c0,.53.46.72,1,.8l-.05,1.06a2.76,2.76,0,0,1-2.15-.72,9.2,9.2,0,0,1-3.24.72c-1.64,0-2.54-.94-2.54-2.76s.9-2.48,2.76-2.66l2.83-.27v-.77c0-1.27-.54-1.72-1.62-1.72-1.26,0-3.41.24-3.41.24l-.05-1a22.13,22.13,0,0,1,3.53-.39c2,0,2.9.93,2.9,2.9Zm-4-2.55c-1.1.11-1.53.63-1.53,1.62s.45,1.65,1.37,1.65a9.72,9.72,0,0,0,2.83-.55v-3Z" fill="#3a3d3f"/><path d="M40.79,405.92,43,413.75h.6l2.27-7.83h1.35l-3.75,13H42.16l1.17-4H42l-2.56-9Z" fill="#3a3d3f"/><path d="M52.94,402.32h1.35v1.56H52.94Zm0,3.6h1.35v9H52.94Z" fill="#3a3d3f"/><path d="M58.68,407.09v4.3c0,2,.13,2.52,1.3,2.52.5,0,1.6-.11,1.6-.11l.09,1.12a15.44,15.44,0,0,1-1.83.2c-1.86,0-2.49-.7-2.49-3.3v-4.73H56.07v-1.17h1.28v-2.76h1.33v2.76h2.87v1.17Z" fill="#3a3d3f"/><path d="M67.16,402.32h1.35v1.56H67.16Zm0,3.6h1.35v9H67.16Z" fill="#3a3d3f"/><path d="M77.08,407.23a29.33,29.33,0,0,0-3.15-.29c-1.12,0-2,.31-2,1.37,0,.85.43,1.08,2.34,1.41,2.25.37,3.1.82,3.1,2.57,0,2.11-1.34,2.81-3.5,2.81a25.65,25.65,0,0,1-3.17-.34l.08-1.17s2.05.3,3,.3c1.47,0,2.27-.32,2.27-1.55,0-.93-.47-1.17-2.43-1.47s-3-.7-3-2.5c0-2,1.6-2.63,3.24-2.63a23.19,23.19,0,0,1,3.26.34Z" fill="#3a3d3f"/><path d="M83.43,405.92h1.34v.64a6.12,6.12,0,0,1,2.7-.82c2.27,0,3.26,1.38,3.26,4.57,0,3.53-1.16,4.79-3.93,4.79a11.25,11.25,0,0,1-2-.2v4H83.43Zm1.35,1.74v6.07a13.12,13.12,0,0,0,2,.2c2,0,2.63-1,2.63-3.62s-.78-3.37-2.09-3.37A5.87,5.87,0,0,0,84.78,407.66Z" fill="#3a3d3f"/><path d="M100.23,410.31c0,3.28-.81,4.79-3.85,4.79s-3.86-1.51-3.86-4.79c0-3.1,1-4.57,3.86-4.57S100.23,407.21,100.23,410.31Zm-1.39,0c0-2.5-.54-3.4-2.46-3.4s-2.47.9-2.47,3.4.34,3.62,2.47,3.62S98.84,412.87,98.84,410.31Z" fill="#3a3d3f"/><path d="M108.4,407.23a29.33,29.33,0,0,0-3.15-.29c-1.12,0-2,.31-2,1.37,0,.85.43,1.08,2.34,1.41,2.25.37,3.1.82,3.1,2.57,0,2.11-1.34,2.81-3.5,2.81a25.65,25.65,0,0,1-3.17-.34l.08-1.17s2,.3,3,.3c1.47,0,2.27-.32,2.27-1.55,0-.93-.47-1.17-2.43-1.47s-3-.7-3-2.5c0-2,1.6-2.63,3.24-2.63a23.19,23.19,0,0,1,3.26.34Z" fill="#3a3d3f"/><path d="M116.77,407.23a29.33,29.33,0,0,0-3.15-.29c-1.12,0-2,.31-2,1.37,0,.85.43,1.08,2.34,1.41,2.25.37,3.1.82,3.1,2.57,0,2.11-1.34,2.81-3.5,2.81a25.65,25.65,0,0,1-3.17-.34l.08-1.17s2,.3,3,.3c1.47,0,2.27-.32,2.27-1.55,0-.93-.47-1.17-2.43-1.47s-3-.7-3-2.5c0-2,1.6-2.63,3.24-2.63a23.19,23.19,0,0,1,3.26.34Z" fill="#3a3d3f"/><path d="M119.17,402.32h1.34v1.56h-1.34Zm0,3.6h1.34v9h-1.34Z" fill="#3a3d3f"/><path d="M130.36,410.27c0,3.59-1,4.83-4.25,4.83-1.08,0-3-.2-3-.2V402h1.33v4.38a7.43,7.43,0,0,1,2.64-.63C129.53,405.74,130.36,407,130.36,410.27Zm-1.37,0c0-2.32-.46-3.33-2.05-3.33a7.57,7.57,0,0,0-2.5.52v6.34s1.17.09,1.65.09C128.56,413.89,129,412.79,129,410.27Z" fill="#3a3d3f"/><path d="M132.68,402H134v12.93h-1.35Z" fill="#3a3d3f"/><path d="M143.38,413.75l0,1.06a31.12,31.12,0,0,1-3.51.29c-2.68,0-3.56-1.57-3.56-4.63,0-3.42,1.47-4.73,3.76-4.73s3.62,1.26,3.62,4.21l-.07,1h-6c0,1.92.6,2.93,2.36,2.93C141.41,413.91,143.38,413.75,143.38,413.75Zm-1-3.85c0-2.24-.69-3-2.27-3s-2.4.85-2.41,3Z" fill="#3a3d3f"/><path d="M151.58,407.09v4.3c0,2,.13,2.52,1.3,2.52.5,0,1.6-.11,1.6-.11l.09,1.12a15.43,15.43,0,0,1-1.84.2c-1.85,0-2.48-.7-2.48-3.3v-4.73H149v-1.17h1.28v-2.76h1.33v2.76h2.87v1.17Z" fill="#3a3d3f"/><path d="M163.41,410.31c0,3.28-.81,4.79-3.85,4.79s-3.86-1.51-3.86-4.79c0-3.1,1-4.57,3.86-4.57S163.41,407.21,163.41,410.31Zm-1.39,0c0-2.5-.54-3.4-2.46-3.4s-2.47.9-2.47,3.4.34,3.62,2.47,3.62S162,412.87,162,410.31Z" fill="#3a3d3f"/><path d="M175.38,406l0,1.09s-1.44-.16-2.13-.16c-2.07,0-2.63.9-2.63,3.32,0,2.66.42,3.63,2.65,3.63.68,0,2.12-.16,2.12-.16l.06,1.12a24.24,24.24,0,0,1-2.51.25c-2.86,0-3.7-1.32-3.7-4.84,0-3.26,1.06-4.52,3.74-4.52A20.89,20.89,0,0,1,175.38,406Z" fill="#3a3d3f"/><path d="M177.41,414.92V402h1.35v4.43a7.65,7.65,0,0,1,2.78-.68c2.46,0,3,1.22,3,4.43v4.75h-1.35V410.2c0-2.38-.27-3.26-1.93-3.26a7.41,7.41,0,0,0-2.54.54v7.44Z" fill="#3a3d3f"/><path d="M193.43,413.24c0,.53.47.72,1,.8l-.06,1.06a2.75,2.75,0,0,1-2.14-.72,9.2,9.2,0,0,1-3.24.72c-1.64,0-2.54-.94-2.54-2.76s.9-2.48,2.76-2.66l2.82-.27v-.77c0-1.27-.54-1.72-1.62-1.72-1.26,0-3.4.24-3.4.24l-.05-1a22.1,22.1,0,0,1,3.52-.39c2,0,2.9.93,2.9,2.9Zm-4-2.55c-1.1.11-1.53.63-1.53,1.62s.45,1.65,1.37,1.65a9.61,9.61,0,0,0,2.82-.55v-3Z" fill="#3a3d3f"/><path d="M196.09,405.92h1.34v1.22a10.06,10.06,0,0,1,3.29-1.42v1.37a13,13,0,0,0-3.27,1.22v6.61h-1.36Z" fill="#3a3d3f"/><path d="M201.93,416.43c0-1,.48-1.53,1.42-2.23a1.49,1.49,0,0,1-.51-1.24,5.7,5.7,0,0,1,.62-1.43c-.76-.34-1.43-1.06-1.43-2.72,0-2.21,1.37-3.07,3.37-3.07a9.43,9.43,0,0,1,1.87.23l2.67-.07v1.15l-1.71,0a2.37,2.37,0,0,1,.59,1.8c0,2.35-1.17,3.05-3.47,3.05-.18,0-.69,0-.88-.07a5.3,5.3,0,0,0-.33,1c0,.72.15.83,2.18.83,2.56,0,3.47.5,3.47,2.65s-1.45,2.86-4,2.86C203,419.15,201.93,418.52,201.93,416.43Zm2.34-1.69c-.76.56-1,.88-1,1.58,0,1.25.52,1.7,2.56,1.7,1.8,0,2.61-.49,2.61-1.68,0-1.37-.58-1.51-2.22-1.51C205.58,414.83,204.27,414.74,204.27,414.74Zm3.2-5.93c0-1.42-.56-2-2.07-2s-2,.56-2,2,.62,2,2,2S207.47,410.24,207.47,408.81Z" fill="#3a3d3f"/><path d="M218.22,413.75l0,1.06a31.12,31.12,0,0,1-3.51.29c-2.68,0-3.56-1.57-3.56-4.63,0-3.42,1.48-4.73,3.76-4.73s3.62,1.26,3.62,4.21l-.07,1h-5.94c0,1.92.59,2.93,2.36,2.93C216.26,413.91,218.22,413.75,218.22,413.75Zm-1-3.85c0-2.24-.68-3-2.27-3s-2.39.85-2.41,3Z" fill="#3a3d3f"/><path d="M227.18,402.46h3l3.42,12.46h-1.37l-.9-3.21H226l-.9,3.21h-1.37Zm-.85,8h4.72l-1.89-6.82h-.93Z" fill="#3a3d3f"/><path d="M240.52,408.54H244v6.13a30.76,30.76,0,0,1-4.05.43c-3.82,0-4.83-2.34-4.83-6.37s1-6.45,4.79-6.45a23.17,23.17,0,0,1,4.09.47l-.06,1.15a28.37,28.37,0,0,0-3.87-.38c-2.88,0-3.51,1.68-3.51,5.21s.61,5.14,3.5,5.14a16.71,16.71,0,0,0,2.57-.25v-3.83h-2.07Z" fill="#3a3d3f"/><path d="M255.19,402.46l-3.26,12.46h-3.1l-3.25-12.46H247l2.86,11.23h1l2.86-11.23Z" fill="#3a3d3f"/><path d="M264.21,403v1.26h-5.78l-.33,3.87a6.87,6.87,0,0,1,2.79-.74c2.33,0,3.79,1,3.79,3.51,0,2.74-1.5,4.14-4,4.14a19.76,19.76,0,0,1-3.95-.52l.17-1.1a23.46,23.46,0,0,0,3.65.4,2.51,2.51,0,0,0,2.68-2.81c0-1.8-1-2.38-2.52-2.38a6.81,6.81,0,0,0-2.82.72l-1-.18.33-6.17Z" fill="#3a3d3f"/><path d="M271,402.32h1.35v1.56H271Zm0,3.6h1.35v9H271Z" fill="#3a3d3f"/><path d="M274.9,414.92v-9h1.33v.63a6.85,6.85,0,0,1,2.79-.81c2.48,0,3,1.22,3,4.43v4.75h-1.33V410.2c0-2.38-.27-3.26-1.94-3.26a6.12,6.12,0,0,0-2.54.67v7.31Z" fill="#3a3d3f"/><path d="M294.88,413.24c0,.53.47.72,1,.8l-.05,1.06a2.75,2.75,0,0,1-2.14-.72,9.2,9.2,0,0,1-3.24.72c-1.64,0-2.54-.94-2.54-2.76s.9-2.48,2.75-2.66l2.83-.27v-.77c0-1.27-.54-1.72-1.62-1.72-1.26,0-3.41.24-3.41.24l-.05-1a22.13,22.13,0,0,1,3.53-.39c2,0,2.9.93,2.9,2.9Zm-4-2.55c-1.09.11-1.53.63-1.53,1.62s.45,1.65,1.37,1.65a9.72,9.72,0,0,0,2.83-.55v-3Z" fill="#3a3d3f"/><path d="M301.61,402H303v12.93h-1.35Z" fill="#3a3d3f"/><path d="M312.3,413.75l0,1.06a31.12,31.12,0,0,1-3.51.29c-2.69,0-3.57-1.57-3.57-4.63,0-3.42,1.48-4.73,3.77-4.73s3.61,1.26,3.61,4.21l-.07,1h-5.94c0,1.92.6,2.93,2.36,2.93C310.34,413.91,312.3,413.75,312.3,413.75Zm-1-3.85c0-2.24-.68-3-2.26-3s-2.4.85-2.42,3Z" fill="#3a3d3f"/><path d="M320.73,407.23a29.33,29.33,0,0,0-3.15-.29c-1.12,0-2,.31-2,1.37,0,.85.43,1.08,2.34,1.41,2.25.37,3.1.82,3.1,2.57,0,2.11-1.33,2.81-3.49,2.81a25.65,25.65,0,0,1-3.17-.34l.07-1.17s2.05.3,3,.3c1.48,0,2.27-.32,2.27-1.55,0-.93-.47-1.17-2.43-1.47s-3-.7-3-2.5c0-2,1.61-2.63,3.24-2.63a23.19,23.19,0,0,1,3.26.34Z" fill="#3a3d3f"/><path d="M329.1,407.23a29.33,29.33,0,0,0-3.15-.29c-1.12,0-2,.31-2,1.37,0,.85.44,1.08,2.34,1.41,2.25.37,3.1.82,3.1,2.57,0,2.11-1.33,2.81-3.49,2.81a25.65,25.65,0,0,1-3.17-.34l.07-1.17s2.05.3,3,.3c1.48,0,2.27-.32,2.27-1.55,0-.93-.47-1.17-2.43-1.47s-3-.7-3-2.5c0-2,1.61-2.63,3.24-2.63a23.19,23.19,0,0,1,3.26.34Z" fill="#3a3d3f"/><path d="M335.45,402.32h1.35v1.56h-1.35Zm0,3.6h1.35v9h-1.35Z" fill="#3a3d3f"/><path d="M339.39,414.92v-9h1.33v.63a6.85,6.85,0,0,1,2.79-.81c2.49,0,3.05,1.22,3.05,4.43v4.75h-1.34V410.2c0-2.38-.26-3.26-1.94-3.26a6.12,6.12,0,0,0-2.54.67v7.31Z" fill="#3a3d3f"/><path d="M350.86,407.09v4.3c0,2,.12,2.52,1.29,2.52.51,0,1.61-.11,1.61-.11l.09,1.12a15.71,15.71,0,0,1-1.84.2c-1.85,0-2.48-.7-2.48-3.3v-4.73h-1.28v-1.17h1.28v-2.76h1.33v2.76h2.86v1.17Z" fill="#3a3d3f"/><path d="M362,413.75l0,1.06a31.4,31.4,0,0,1-3.52.29c-2.68,0-3.56-1.57-3.56-4.63,0-3.42,1.48-4.73,3.76-4.73s3.62,1.26,3.62,4.21l-.07,1h-5.94c0,1.92.59,2.93,2.36,2.93C360.06,413.91,362,413.75,362,413.75Zm-1-3.85c0-2.24-.68-3-2.27-3s-2.39.85-2.41,3Z" fill="#3a3d3f"/><path d="M364.47,414.92v-9h1.33v.63a6.85,6.85,0,0,1,2.79-.81c2.48,0,3,1.22,3,4.43v4.75H370.3V410.2c0-2.38-.27-3.26-1.95-3.26a6.11,6.11,0,0,0-2.53.67v7.31Z" fill="#3a3d3f"/><path d="M380.11,407.23a29.33,29.33,0,0,0-3.15-.29c-1.12,0-2,.31-2,1.37,0,.85.43,1.08,2.34,1.41,2.25.37,3.09.82,3.09,2.57,0,2.11-1.33,2.81-3.49,2.81a25.65,25.65,0,0,1-3.17-.34l.07-1.17s2.06.3,3,.3c1.48,0,2.27-.32,2.27-1.55,0-.93-.47-1.17-2.43-1.47s-3-.7-3-2.5c0-2,1.6-2.63,3.24-2.63a23.19,23.19,0,0,1,3.26.34Z" fill="#3a3d3f"/><path d="M382.5,402.32h1.35v1.56H382.5Zm0,3.6h1.35v9H382.5Z" fill="#3a3d3f"/><path d="M387,405.92l2.1,7.83h.67l2.18-7.83h1.39l-2.54,9h-2.7l-2.54-9Z" fill="#3a3d3f"/><path d="M401.75,413.75l0,1.06a31.12,31.12,0,0,1-3.51.29c-2.68,0-3.56-1.57-3.56-4.63,0-3.42,1.47-4.73,3.76-4.73s3.62,1.26,3.62,4.21l-.07,1h-5.95c0,1.92.6,2.93,2.36,2.93C399.78,413.91,401.75,413.75,401.75,413.75Zm-1-3.85c0-2.24-.69-3-2.27-3s-2.4.85-2.41,3Z" fill="#3a3d3f"/><path d="M408.15,405.92h1.33v.64a6.17,6.17,0,0,1,2.7-.82c2.27,0,3.26,1.38,3.26,4.57,0,3.53-1.15,4.79-3.92,4.79a11,11,0,0,1-2-.2v4h-1.35Zm1.35,1.74v6.07a13,13,0,0,0,1.95.2c2,0,2.63-1,2.63-3.62s-.78-3.37-2.09-3.37A5.87,5.87,0,0,0,409.5,407.66Z" fill="#3a3d3f"/><path d="M424.28,413.75l0,1.06a31.12,31.12,0,0,1-3.51.29c-2.69,0-3.57-1.57-3.57-4.63,0-3.42,1.48-4.73,3.76-4.73s3.62,1.26,3.62,4.21l-.07,1h-5.94c0,1.92.6,2.93,2.36,2.93C422.32,413.91,424.28,413.75,424.28,413.75Zm-1-3.85c0-2.24-.68-3-2.27-3s-2.39.85-2.41,3Z" fill="#3a3d3f"/><path d="M426.73,405.92h1.33v1.22a10.17,10.17,0,0,1,3.3-1.42v1.37a13,13,0,0,0-3.28,1.22v6.61h-1.35Z" fill="#3a3d3f"/><path d="M433,402.32h1.35v1.56H433Zm0,3.6h1.35v9H433Z" fill="#3a3d3f"/><path d="M444.21,410.31c0,3.28-.81,4.79-3.86,4.79s-3.85-1.51-3.85-4.79c0-3.1,1-4.57,3.85-4.57S444.21,407.21,444.21,410.31Zm-1.39,0c0-2.5-.54-3.4-2.47-3.4s-2.46.9-2.46,3.4.34,3.62,2.46,3.62S442.82,412.87,442.82,410.31Z" fill="#3a3d3f"/><path d="M453.32,414.92H452v-.61a6.42,6.42,0,0,1-2.73.79c-1.77,0-3.25-.72-3.25-4.61,0-3.17,1-4.75,3.77-4.75A15.79,15.79,0,0,1,452,406v-4h1.34ZM452,413.23v-6.11a16.07,16.07,0,0,0-2.14-.21c-1.89,0-2.45,1.24-2.45,3.58,0,2.92,1,3.4,2,3.4A6.54,6.54,0,0,0,452,413.23Z" fill="#3a3d3f"/><path d="M455.83,412.87h1.48v2.05h-1.48Z" fill="#3a3d3f"/><path d="M10.54,442.72a18.72,18.72,0,0,1-3.44.38c-3.73,0-4.56-2.27-4.56-6.37s.81-6.45,4.56-6.45a17.59,17.59,0,0,1,3.44.4l-.06,1.17a21.24,21.24,0,0,0-3.24-.33c-2.77,0-3.26,1.66-3.26,5.21s.45,5.13,3.3,5.13a19.78,19.78,0,0,0,3.2-.33Z" fill="#3a3d3f"/><path d="M12.57,442.92V430h1.35v4.43a7.64,7.64,0,0,1,2.77-.68c2.47,0,3,1.22,3,4.43v4.75H18.39V438.2c0-2.38-.27-3.26-1.93-3.26a7.41,7.41,0,0,0-2.54.54v7.44Z" fill="#3a3d3f"/><path d="M28.59,441.24c0,.53.47.72,1.05.8l-.06,1.06a2.75,2.75,0,0,1-2.14-.72,9.2,9.2,0,0,1-3.24.72c-1.64,0-2.54-.94-2.54-2.76s.9-2.48,2.75-2.66l2.83-.27v-.77c0-1.27-.54-1.72-1.62-1.72-1.26,0-3.4.24-3.4.24l-.06-1a22.13,22.13,0,0,1,3.53-.39c2,0,2.9.93,2.9,2.9Zm-4-2.55c-1.1.11-1.53.63-1.53,1.62S23.5,442,24.41,442a9.63,9.63,0,0,0,2.83-.55v-3Z" fill="#3a3d3f"/><path d="M31.25,433.92h1.34v1.22a10.06,10.06,0,0,1,3.29-1.42v1.37a13.15,13.15,0,0,0-3.28,1.22v6.61H31.25Z" fill="#3a3d3f"/><path d="M37.08,444.43c0-1,.49-1.53,1.43-2.23A1.46,1.46,0,0,1,38,441a5.7,5.7,0,0,1,.62-1.43c-.76-.34-1.43-1.06-1.43-2.72,0-2.21,1.37-3.07,3.37-3.07a9.43,9.43,0,0,1,1.87.23l2.67-.07v1.15l-1.71,0a2.37,2.37,0,0,1,.59,1.8c0,2.35-1.17,3.05-3.47,3.05-.18,0-.69,0-.89-.07a5.42,5.42,0,0,0-.32,1c0,.72.14.83,2.18.83,2.56,0,3.47.5,3.47,2.65s-1.45,2.86-4,2.86C38.11,447.15,37.08,446.52,37.08,444.43Zm2.35-1.69c-.76.56-1,.88-1,1.58,0,1.25.52,1.7,2.55,1.7,1.8,0,2.61-.49,2.61-1.68,0-1.37-.57-1.51-2.21-1.51C40.74,442.83,39.43,442.74,39.43,442.74Zm3.2-5.93c0-1.42-.56-2-2.07-2s-2,.56-2,2,.62,2,2,2S42.63,438.24,42.63,436.81Z" fill="#3a3d3f"/><path d="M46.73,430.32h1.35v1.56H46.73Zm0,3.6h1.35v9H46.73Z" fill="#3a3d3f"/><path d="M50.67,442.92v-9H52v.63a6.79,6.79,0,0,1,2.79-.81c2.48,0,3,1.22,3,4.43v4.75H56.51V438.2c0-2.38-.27-3.26-1.95-3.26a6.18,6.18,0,0,0-2.54.67v7.31Z" fill="#3a3d3f"/><path d="M59.94,444.43c0-1,.49-1.53,1.43-2.23a1.46,1.46,0,0,1-.51-1.24,5.75,5.75,0,0,1,.61-1.43c-.75-.34-1.42-1.06-1.42-2.72,0-2.21,1.37-3.07,3.37-3.07a9.43,9.43,0,0,1,1.87.23L68,433.9v1.15l-1.71,0a2.37,2.37,0,0,1,.59,1.8c0,2.35-1.17,3.05-3.47,3.05-.18,0-.69,0-.89-.07a5.42,5.42,0,0,0-.32,1c0,.72.14.83,2.18.83,2.55,0,3.47.5,3.47,2.65s-1.46,2.86-4,2.86C61,447.15,59.94,446.52,59.94,444.43Zm2.35-1.69c-.76.56-1,.88-1,1.58,0,1.25.52,1.7,2.55,1.7,1.8,0,2.61-.49,2.61-1.68,0-1.37-.57-1.51-2.21-1.51C63.6,442.83,62.29,442.74,62.29,442.74Zm3.2-5.93c0-1.42-.56-2-2.07-2s-2,.56-2,2,.61,2,2,2S65.49,438.24,65.49,436.81Z" fill="#3a3d3f"/><path d="M75.35,435.09v4.3c0,2,.13,2.52,1.3,2.52.5,0,1.6-.11,1.6-.11l.09,1.12a15.43,15.43,0,0,1-1.84.2c-1.85,0-2.48-.7-2.48-3.3v-4.73H72.74v-1.17H74v-2.76h1.33v2.76h2.87v1.17Z" fill="#3a3d3f"/><path d="M79.87,442.92V430h1.35v4.43a7.64,7.64,0,0,1,2.77-.68c2.47,0,3.05,1.22,3.05,4.43v4.75H85.69V438.2c0-2.38-.27-3.26-1.93-3.26a7.41,7.41,0,0,0-2.54.54v7.44Z" fill="#3a3d3f"/><path d="M89.54,430.32h1.35v1.56H89.54Zm0,3.6h1.35v9H89.54Z" fill="#3a3d3f"/><path d="M99.46,435.23a29.33,29.33,0,0,0-3.15-.29c-1.12,0-2,.31-2,1.37,0,.85.44,1.08,2.34,1.41,2.25.37,3.1.82,3.1,2.57,0,2.11-1.33,2.81-3.49,2.81a25.65,25.65,0,0,1-3.17-.34l.07-1.17s2,.3,3,.3c1.48,0,2.27-.32,2.27-1.55,0-.93-.47-1.17-2.43-1.47s-3-.7-3-2.5c0-2,1.61-2.63,3.24-2.63a23.19,23.19,0,0,1,3.26.34Z" fill="#3a3d3f"/><path d="M106.4,433.92l2.11,7.83h.67l2.17-7.83h1.39l-2.54,9h-2.7l-2.54-9Z" fill="#3a3d3f"/><path d="M121.11,441.75l0,1.06a31.38,31.38,0,0,1-3.51.29c-2.69,0-3.57-1.57-3.57-4.63,0-3.42,1.48-4.73,3.76-4.73s3.62,1.26,3.62,4.21l-.07,1h-5.94c0,1.92.59,2.93,2.36,2.93C119.15,441.91,121.11,441.75,121.11,441.75Zm-1-3.85c0-2.24-.68-3-2.27-3s-2.39.85-2.41,3Z" fill="#3a3d3f"/><path d="M123.56,442.92V430h1.35v4.43a7.64,7.64,0,0,1,2.77-.68c2.47,0,3,1.22,3,4.43v4.75h-1.35V438.2c0-2.38-.27-3.26-1.92-3.26a7.41,7.41,0,0,0-2.54.54v7.44Z" fill="#3a3d3f"/><path d="M133.22,430.32h1.35v1.56h-1.35Zm0,3.6h1.35v9h-1.35Z" fill="#3a3d3f"/><path d="M143,434l0,1.09s-1.44-.16-2.13-.16c-2.07,0-2.63.9-2.63,3.32,0,2.66.42,3.63,2.65,3.63.68,0,2.12-.16,2.12-.16l.06,1.12a24.28,24.28,0,0,1-2.5.25c-2.87,0-3.71-1.32-3.71-4.84,0-3.26,1.06-4.52,3.74-4.52A20.89,20.89,0,0,1,143,434Z" fill="#3a3d3f"/><path d="M145.12,430h1.35v12.93h-1.35Z" fill="#3a3d3f"/><path d="M155.81,441.75l0,1.06a31.12,31.12,0,0,1-3.51.29c-2.68,0-3.57-1.57-3.57-4.63,0-3.42,1.48-4.73,3.77-4.73s3.62,1.26,3.62,4.21l-.08,1h-5.94c0,1.92.6,2.93,2.36,2.93C153.85,441.91,155.81,441.75,155.81,441.75Zm-1-3.85c0-2.24-.69-3-2.27-3s-2.4.85-2.41,3Z" fill="#3a3d3f"/><path d="M169.13,442.92H167.8v-.61a6.42,6.42,0,0,1-2.73.79c-1.77,0-3.25-.72-3.25-4.61,0-3.17,1-4.75,3.77-4.75a15.79,15.79,0,0,1,2.21.23v-4h1.33Zm-1.33-1.69v-6.11a16.07,16.07,0,0,0-2.14-.21c-1.89,0-2.45,1.24-2.45,3.58,0,2.92,1,3.4,2,3.4A6.54,6.54,0,0,0,167.8,441.23Z" fill="#3a3d3f"/><path d="M179.05,438.31c0,3.28-.81,4.79-3.85,4.79s-3.85-1.51-3.85-4.79c0-3.1,1-4.57,3.85-4.57S179.05,435.21,179.05,438.31Zm-1.38,0c0-2.5-.54-3.4-2.47-3.4s-2.47.9-2.47,3.4.34,3.62,2.47,3.62S177.67,440.87,177.67,438.31Z" fill="#3a3d3f"/><path d="M187.89,441.75l0,1.06a31.38,31.38,0,0,1-3.51.29c-2.69,0-3.57-1.57-3.57-4.63,0-3.42,1.48-4.73,3.76-4.73s3.62,1.26,3.62,4.21l-.07,1h-5.94c0,1.92.59,2.93,2.36,2.93C185.93,441.91,187.89,441.75,187.89,441.75Zm-1-3.85c0-2.24-.68-3-2.27-3s-2.39.85-2.41,3Z" fill="#3a3d3f"/><path d="M196.31,435.23a29.33,29.33,0,0,0-3.15-.29c-1.11,0-2,.31-2,1.37,0,.85.43,1.08,2.34,1.41,2.25.37,3.1.82,3.1,2.57,0,2.11-1.34,2.81-3.5,2.81a25.4,25.4,0,0,1-3.16-.34l.07-1.17s2,.3,3,.3c1.48,0,2.27-.32,2.27-1.55,0-.93-.47-1.17-2.43-1.47s-3-.7-3-2.5c0-2,1.6-2.63,3.24-2.63a23.19,23.19,0,0,1,3.26.34Z" fill="#3a3d3f"/><path d="M202.67,442.92v-9H204v.63a6.85,6.85,0,0,1,2.79-.81c2.48,0,3,1.22,3,4.43v4.75H208.5V438.2c0-2.38-.27-3.26-1.95-3.26a6.11,6.11,0,0,0-2.53.67v7.31Z" fill="#3a3d3f"/><path d="M219.64,438.31c0,3.28-.81,4.79-3.85,4.79s-3.85-1.51-3.85-4.79c0-3.1,1-4.57,3.85-4.57S219.64,435.21,219.64,438.31Zm-1.39,0c0-2.5-.54-3.4-2.46-3.4s-2.47.9-2.47,3.4.34,3.62,2.47,3.62S218.25,440.87,218.25,438.31Z" fill="#3a3d3f"/><path d="M223.64,435.09v4.3c0,2,.12,2.52,1.29,2.52.51,0,1.61-.11,1.61-.11l.09,1.12a15.71,15.71,0,0,1-1.84.2c-1.86,0-2.49-.7-2.49-3.3v-4.73H221v-1.17h1.27v-2.76h1.34v2.76h2.86v1.17Z" fill="#3a3d3f"/><path d="M237.93,434l-.05,1.09s-1.45-.16-2.13-.16c-2.07,0-2.63.9-2.63,3.32,0,2.66.42,3.63,2.65,3.63.68,0,2.12-.16,2.12-.16l.06,1.12a24.24,24.24,0,0,1-2.51.25c-2.86,0-3.7-1.32-3.7-4.84,0-3.26,1.06-4.52,3.74-4.52A20.89,20.89,0,0,1,237.93,434Z" fill="#3a3d3f"/><path d="M247.27,438.31c0,3.28-.81,4.79-3.85,4.79s-3.85-1.51-3.85-4.79c0-3.1,1-4.57,3.85-4.57S247.27,435.21,247.27,438.31Zm-1.39,0c0-2.5-.54-3.4-2.46-3.4s-2.47.9-2.47,3.4.34,3.62,2.47,3.62S245.88,440.87,245.88,438.31Z" fill="#3a3d3f"/><path d="M249.47,442.92v-9h1.33v.63a6,6,0,0,1,2.63-.81,2.56,2.56,0,0,1,2.34.91,7.52,7.52,0,0,1,3.2-.91c2.45,0,3,1.17,3,4.43v4.75h-1.34V438.2c0-2.38-.28-3.26-1.9-3.26a5.88,5.88,0,0,0-2.53.67,10.34,10.34,0,0,1,.23,2.63v4.68h-1.35v-4.65c0-2.48-.25-3.33-1.89-3.33a5.34,5.34,0,0,0-2.41.67v7.31Z" fill="#3a3d3f"/><path d="M264.51,433.92h1.34v.64a6.12,6.12,0,0,1,2.7-.82c2.27,0,3.26,1.38,3.26,4.57,0,3.53-1.16,4.79-3.93,4.79a11.14,11.14,0,0,1-2-.2v4h-1.35Zm1.35,1.74v6.07a13,13,0,0,0,1.95.2c2,0,2.63-1,2.63-3.62s-.78-3.37-2.09-3.37A5.87,5.87,0,0,0,265.86,435.66Z" fill="#3a3d3f"/><path d="M274,433.92h1.33v1.22a10.17,10.17,0,0,1,3.3-1.42v1.37a13,13,0,0,0-3.28,1.22v6.61H274Z" fill="#3a3d3f"/><path d="M287.54,438.31c0,3.28-.81,4.79-3.86,4.79s-3.85-1.51-3.85-4.79c0-3.1,1-4.57,3.85-4.57S287.54,435.21,287.54,438.31Zm-1.39,0c0-2.5-.54-3.4-2.47-3.4s-2.46.9-2.46,3.4.34,3.62,2.46,3.62S286.15,440.87,286.15,438.31Z" fill="#3a3d3f"/><path d="M289.73,442.92v-9h1.33v.63a6,6,0,0,1,2.63-.81,2.55,2.55,0,0,1,2.34.91,7.59,7.59,0,0,1,3.21-.91c2.45,0,3,1.17,3,4.43v4.75h-1.35V438.2c0-2.38-.27-3.26-1.89-3.26a6,6,0,0,0-2.54.67,10.24,10.24,0,0,1,.24,2.63v4.68h-1.36v-4.65c0-2.48-.25-3.33-1.89-3.33a5.39,5.39,0,0,0-2.41.67v7.31Z" fill="#3a3d3f"/><path d="M304.78,430.32h1.35v1.56h-1.35Zm0,3.6h1.35v9h-1.35Z" fill="#3a3d3f"/><path d="M314.7,435.23a29.33,29.33,0,0,0-3.15-.29c-1.12,0-2,.31-2,1.37,0,.85.44,1.08,2.35,1.41,2.25.37,3.09.82,3.09,2.57,0,2.11-1.33,2.81-3.49,2.81a25.65,25.65,0,0,1-3.17-.34l.07-1.17s2.06.3,3,.3c1.48,0,2.27-.32,2.27-1.55,0-.93-.47-1.17-2.43-1.47s-3-.7-3-2.5c0-2,1.6-2.63,3.24-2.63a23.19,23.19,0,0,1,3.26.34Z" fill="#3a3d3f"/><path d="M323.74,441.75l0,1.06a31.12,31.12,0,0,1-3.51.29c-2.68,0-3.56-1.57-3.56-4.63,0-3.42,1.47-4.73,3.76-4.73s3.62,1.26,3.62,4.21l-.08,1h-5.94c0,1.92.6,2.93,2.36,2.93C321.77,441.91,323.74,441.75,323.74,441.75Zm-1-3.85c0-2.24-.69-3-2.27-3s-2.4.85-2.41,3Z" fill="#3a3d3f"/><path d="M330.14,430.32h1.35v1.56h-1.35Zm0,3.6h1.35v9h-1.35Z" fill="#3a3d3f"/><path d="M335.88,435.09v4.3c0,2,.13,2.52,1.3,2.52.5,0,1.6-.11,1.6-.11l.09,1.12a15.44,15.44,0,0,1-1.83.2c-1.86,0-2.49-.7-2.49-3.3v-4.73h-1.28v-1.17h1.28v-2.76h1.33v2.76h2.87v1.17Z" fill="#3a3d3f"/><path d="M346.38,435.23a29.33,29.33,0,0,0-3.15-.29c-1.12,0-2,.31-2,1.37,0,.85.44,1.08,2.35,1.41,2.25.37,3.09.82,3.09,2.57,0,2.11-1.33,2.81-3.49,2.81a25.65,25.65,0,0,1-3.17-.34l.07-1.17s2.06.3,3,.3c1.48,0,2.27-.32,2.27-1.55,0-.93-.47-1.17-2.43-1.47s-3-.7-3-2.5c0-2,1.6-2.63,3.24-2.63a23.19,23.19,0,0,1,3.26.34Z" fill="#3a3d3f"/><path d="M352.73,433.92h1.33v1.22a10.17,10.17,0,0,1,3.3-1.42v1.37a13.15,13.15,0,0,0-3.28,1.22v6.61h-1.35Z" fill="#3a3d3f"/><path d="M365.6,441.75l0,1.06a31.12,31.12,0,0,1-3.51.29c-2.69,0-3.57-1.57-3.57-4.63,0-3.42,1.48-4.73,3.77-4.73s3.61,1.26,3.61,4.21l-.07,1h-5.94c0,1.92.6,2.93,2.36,2.93C363.64,441.91,365.6,441.75,365.6,441.75Zm-1-3.85c0-2.24-.68-3-2.26-3s-2.4.85-2.42,3Z" fill="#3a3d3f"/><path d="M367.65,444.43c0-1,.49-1.53,1.42-2.23a1.48,1.48,0,0,1-.5-1.24,5.75,5.75,0,0,1,.61-1.43c-.75-.34-1.42-1.06-1.42-2.72,0-2.21,1.37-3.07,3.37-3.07A9.43,9.43,0,0,1,373,434l2.67-.07v1.15L374,435a2.33,2.33,0,0,1,.6,1.8c0,2.35-1.17,3.05-3.48,3.05-.18,0-.68,0-.88-.07a5.42,5.42,0,0,0-.32,1c0,.72.14.83,2.18.83,2.55,0,3.47.5,3.47,2.65s-1.46,2.86-4,2.86C368.68,447.15,367.65,446.52,367.65,444.43Zm2.34-1.69c-.75.56-1,.88-1,1.58,0,1.25.53,1.7,2.56,1.7,1.8,0,2.61-.49,2.61-1.68,0-1.37-.57-1.51-2.21-1.51C371.31,442.83,370,442.74,370,442.74Zm3.21-5.93c0-1.42-.56-2-2.07-2s-2,.56-2,2,.61,2,2,2S373.2,438.24,373.2,436.81Z" fill="#3a3d3f"/><path d="M384.27,433.92v9h-1.35v-.63a6.08,6.08,0,0,1-2.67.81c-2.52,0-3-1.17-3-4.48v-4.7h1.35v4.68c0,2.48.22,3.29,1.89,3.29a5.53,5.53,0,0,0,2.47-.66v-7.31Z" fill="#3a3d3f"/><path d="M387,430h1.35v12.93H387Z" fill="#3a3d3f"/><path d="M397.37,441.24c0,.53.47.72,1.05.8l-.06,1.06a2.75,2.75,0,0,1-2.14-.72,9.2,9.2,0,0,1-3.24.72c-1.64,0-2.54-.94-2.54-2.76s.9-2.48,2.75-2.66l2.83-.27v-.77c0-1.27-.54-1.72-1.62-1.72-1.26,0-3.4.24-3.4.24l-.06-1a22.13,22.13,0,0,1,3.53-.39c2,0,2.9.93,2.9,2.9Zm-4-2.55c-1.1.11-1.53.63-1.53,1.62s.45,1.65,1.36,1.65a9.63,9.63,0,0,0,2.83-.55v-3Z" fill="#3a3d3f"/><path d="M400,433.92h1.34v1.22a10.06,10.06,0,0,1,3.29-1.42v1.37a13.15,13.15,0,0,0-3.28,1.22v6.61H400Z" fill="#3a3d3f"/><path d="M410.22,442.92v-9h1.33v.63a6,6,0,0,1,2.63-.81,2.55,2.55,0,0,1,2.34.91,7.59,7.59,0,0,1,3.21-.91c2.45,0,3,1.17,3,4.43v4.75h-1.35V438.2c0-2.38-.27-3.26-1.89-3.26a6,6,0,0,0-2.54.67,10.24,10.24,0,0,1,.24,2.63v4.68h-1.35v-4.65c0-2.48-.26-3.33-1.9-3.33a5.39,5.39,0,0,0-2.41.67v7.31Z" fill="#3a3d3f"/><path d="M431.63,441.24c0,.53.46.72,1,.8l-.05,1.06a2.76,2.76,0,0,1-2.15-.72,9.2,9.2,0,0,1-3.24.72c-1.64,0-2.54-.94-2.54-2.76s.9-2.48,2.76-2.66l2.82-.27v-.77c0-1.27-.54-1.72-1.62-1.72-1.26,0-3.4.24-3.4.24l-.05-1a22.13,22.13,0,0,1,3.53-.39c2,0,2.9.93,2.9,2.9Zm-4-2.55c-1.1.11-1.53.63-1.53,1.62s.45,1.65,1.37,1.65a9.61,9.61,0,0,0,2.82-.55v-3Z" fill="#3a3d3f"/><path d="M434.29,430.32h1.35v1.56h-1.35Zm0,3.6h1.35v9h-1.35Z" fill="#3a3d3f"/><path d="M438.23,442.92v-9h1.33v.63a6.85,6.85,0,0,1,2.79-.81c2.49,0,3,1.22,3,4.43v4.75h-1.34V438.2c0-2.38-.27-3.26-1.94-3.26a6.12,6.12,0,0,0-2.54.67v7.31Z" fill="#3a3d3f"/><path d="M449.7,435.09v4.3c0,2,.12,2.52,1.29,2.52.51,0,1.6-.11,1.6-.11l.09,1.12a15.44,15.44,0,0,1-1.83.2c-1.86,0-2.49-.7-2.49-3.3v-4.73h-1.28v-1.17h1.28v-2.76h1.34v2.76h2.86v1.17Z" fill="#3a3d3f"/><path d="M460.86,441.75l0,1.06a31.12,31.12,0,0,1-3.51.29c-2.68,0-3.56-1.57-3.56-4.63,0-3.42,1.47-4.73,3.76-4.73S461.2,435,461.2,438l-.07,1h-5.94c0,1.92.59,2.93,2.35,2.93C458.89,441.91,460.86,441.75,460.86,441.75Zm-1-3.85c0-2.24-.68-3-2.27-3s-2.39.85-2.41,3Z" fill="#3a3d3f"/><path d="M463.3,442.92v-9h1.34v.63a6.79,6.79,0,0,1,2.79-.81c2.48,0,3,1.22,3,4.43v4.75h-1.33V438.2c0-2.38-.27-3.26-1.95-3.26a6.18,6.18,0,0,0-2.54.67v7.31Z" fill="#3a3d3f"/><path d="M479.33,441.24c0,.53.46.72,1,.8l-.05,1.06a2.76,2.76,0,0,1-2.15-.72,9.2,9.2,0,0,1-3.24.72c-1.64,0-2.54-.94-2.54-2.76s.9-2.48,2.76-2.66l2.82-.27v-.77c0-1.27-.54-1.72-1.62-1.72-1.26,0-3.4.24-3.4.24l-.05-1a22.13,22.13,0,0,1,3.53-.39c2,0,2.9.93,2.9,2.9Zm-4-2.55c-1.1.11-1.53.63-1.53,1.62s.45,1.65,1.37,1.65a9.61,9.61,0,0,0,2.82-.55v-3Z" fill="#3a3d3f"/><path d="M482,442.92v-9h1.33v.63a6.85,6.85,0,0,1,2.79-.81c2.48,0,3,1.22,3,4.43v4.75h-1.33V438.2c0-2.38-.27-3.26-1.94-3.26a6.12,6.12,0,0,0-2.54.67v7.31Z" fill="#3a3d3f"/><path d="M497.47,434l-.05,1.09s-1.45-.16-2.13-.16c-2.07,0-2.63.9-2.63,3.32,0,2.66.42,3.63,2.65,3.63.68,0,2.12-.16,2.12-.16l.06,1.12a24.24,24.24,0,0,1-2.51.25c-2.86,0-3.71-1.32-3.71-4.84,0-3.26,1.07-4.52,3.75-4.52A20.89,20.89,0,0,1,497.47,434Z" fill="#3a3d3f"/><path d="M506.14,441.75l0,1.06a31.12,31.12,0,0,1-3.51.29c-2.68,0-3.57-1.57-3.57-4.63,0-3.42,1.48-4.73,3.77-4.73s3.62,1.26,3.62,4.21l-.07,1h-5.95c0,1.92.6,2.93,2.36,2.93C504.18,441.91,506.14,441.75,506.14,441.75Zm-1-3.85c0-2.24-.69-3-2.27-3s-2.4.85-2.41,3Z" fill="#3a3d3f"/><path d="M508.5,440.87H510v2.05H508.5Z" fill="#3a3d3f"/><line x1="0.7" y1="22.35" x2="500.3" y2="22.35" fill="none" stroke="#a2a7aa" stroke-miterlimit="10"/><path d="M25.34,205.29H21v-.82L23.54,198h1.14l-2.61,6.33h3.27v-2.81h1.05v2.81h1.15v.93H26.39v1.77H25.34Z" fill="#4c4c4c"/><path d="M7.24,191.25c0,3.81-1.34,5-3.61,5S0,195.09,0,191.26c0-4.09,1.33-5.3,3.62-5.3S7.24,187.15,7.24,191.25Zm-6,0c0,3.12.85,3.93,2.42,3.93s2.42-.83,2.42-3.94c0-3.35-.76-4.25-2.42-4.25S1.21,187.87,1.21,191.26Z" fill="#4c4c4c"/><path d="M.45,166v-1l2.91-3.06c1.23-1.28,2-2.09,2-3.27s-.74-1.74-2.17-1.74a14.41,14.41,0,0,0-2.57.33l-.09-1a12.21,12.21,0,0,1,2.87-.4c2.1,0,3.15.8,3.15,2.66,0,1.49-.68,2.37-2.08,3.72L1.82,165h5v1Z" fill="#4c4c4c"/><path d="M4.83,132.84H0v-.9l2.83-7.1H4.11l-2.87,7H4.83v-3.11H6v3.11H7.26v1H6v1.94H4.83Z" fill="#4c4c4c"/><path d="M6.67,94.72a23,23,0,0,0-2.62-.18c-1.73,0-2.68,1.24-2.68,3.43a8.68,8.68,0,0,1,2.49-.58c2.19,0,3.34,1,3.34,3.08s-1.27,3.29-3.48,3.29c-2.47,0-3.55-2-3.55-5.17,0-3.6,1.52-5.07,3.88-5.07a19.07,19.07,0,0,1,2.73.25ZM1.36,99c0,2.12.64,3.73,2.36,3.73A2,2,0,0,0,6,100.47c0-1.38-.82-2-2.21-2A6.91,6.91,0,0,0,1.36,99Z" fill="#4c4c4c"/><path d="M108.5,200.25a2,2,0,0,1-1.5,2.1,2.27,2.27,0,0,1,1.64,2.27c0,2-1.53,2.59-3.41,2.59s-3.36-.56-3.36-2.44a2.42,2.42,0,0,1,1.56-2.42,2.08,2.08,0,0,1-1.41-2.11c0-1.56,1.24-2.34,3.21-2.34S108.5,198.66,108.5,200.25Zm-1,4.26c0-1-.7-1.39-1.6-1.65h-1.44c-.94.26-1.49.72-1.49,1.74,0,1.24,1,1.65,2.24,1.65S107.52,205.84,107.52,204.51Zm-4.38-4.15c0,.83.45,1.27,1.34,1.58h1.44c.93-.3,1.46-.73,1.46-1.57,0-1.08-.81-1.52-2.13-1.52S103.14,199.28,103.14,200.36Z" fill="#4c4c4c"/><path d="M186.78,198.05h1v9h-1.06v-7.85l-2.32,1.53-.48-.79Z" fill="#4c4c4c"/><path d="M191.05,207.07v-.89l2.64-2.77c1.12-1.16,1.81-1.9,1.81-3s-.67-1.59-2-1.59a12.77,12.77,0,0,0-2.34.31l-.08-.88a10.93,10.93,0,0,1,2.61-.37c1.9,0,2.85.73,2.85,2.42,0,1.35-.61,2.15-1.88,3.38l-2.41,2.45h4.53v.91Z" fill="#4c4c4c"/><path d="M275.46,198.05h1v9h-1.05v-7.85l-2.33,1.53-.48-.79Z" fill="#4c4c4c"/><path d="M285.37,199a21.41,21.41,0,0,0-2.38-.16c-1.57,0-2.43,1.12-2.43,3.12a7.42,7.42,0,0,1,2.25-.54c2,0,3,.91,3,2.81s-1.15,3-3.16,3c-2.24,0-3.23-1.77-3.23-4.69,0-3.27,1.38-4.61,3.53-4.61a17,17,0,0,1,2.47.23Zm-4.83,3.89c0,1.93.59,3.39,2.15,3.39a1.85,1.85,0,0,0,2.06-2.05c0-1.26-.75-1.86-2-1.86A6.3,6.3,0,0,0,280.54,202.89Z" fill="#4c4c4c"/><path d="M360.74,207.07v-.89l2.64-2.77c1.12-1.16,1.81-1.9,1.81-3s-.67-1.59-2-1.59a12.75,12.75,0,0,0-2.33.31l-.09-.88a11,11,0,0,1,2.62-.37c1.9,0,2.85.73,2.85,2.42,0,1.35-.61,2.15-1.88,3.38L362,206.16h4.53v.91Z" fill="#4c4c4c"/><path d="M374.56,202.7c0,3.46-1.22,4.51-3.28,4.51s-3.3-1-3.3-4.5c0-3.72,1.21-4.81,3.28-4.81S374.56,199,374.56,202.7Zm-5.48,0c0,2.83.78,3.57,2.2,3.57s2.2-.75,2.2-3.58c0-3-.7-3.86-2.2-3.86S369.08,199.63,369.08,202.71Z" fill="#4c4c4c"/><path d="M449.41,207.07v-.89l2.64-2.77c1.12-1.16,1.82-1.9,1.82-3s-.67-1.59-2-1.59a12.77,12.77,0,0,0-2.34.31l-.08-.88a10.93,10.93,0,0,1,2.61-.37c1.9,0,2.86.73,2.86,2.42,0,1.35-.62,2.15-1.89,3.38l-2.41,2.45h4.53v.91Z" fill="#4c4c4c"/><path d="M461,205.31h-4.37v-.82l2.57-6.44h1.15l-2.61,6.33H461v-2.82h1.06v2.82h1.14v.93H462.1v1.76H461Z" fill="#4c4c4c"/><line x1="17.73" y1="87.29" x2="17.73" y2="199.66" fill="none" stroke="#adadad" stroke-miterlimit="10"/><line x1="465.27" y1="191.06" x2="7.51" y2="191.06" fill="none" stroke="#adadad" stroke-miterlimit="10"/><g style="isolation:isolate"><rect x="55.92" y="110.5" width="12.28" height="79.78" fill="#76ce89"/><g clip-path="url(#clip-path)"><polygon points="56.14 190.28 55.92 110.56 67.98 110.5 68.2 190.22 56.14 190.28" fill="#76ce89"/></g></g><g style="isolation:isolate"><rect x="73.84" y="123.27" width="12.25" height="67.01" fill="#76ce89"/><g clip-path="url(#clip-path-2)"><polygon points="74.03 190.28 73.85 123.33 85.91 123.27 86.09 190.22 74.03 190.28" fill="#76ce89"/></g></g><g style="isolation:isolate"><rect x="91.74" y="123.29" width="12.25" height="66.99" fill="#76ce89"/><g clip-path="url(#clip-path-3)"><polygon points="91.92 190.28 91.74 123.35 103.8 123.29 103.98 190.22 91.92 190.28" fill="#76ce89"/></g></g><g style="isolation:isolate"><rect x="109.63" y="123.29" width="12.25" height="66.99" fill="#76ce89"/><g clip-path="url(#clip-path-4)"><polygon points="109.81 190.28 109.63 123.35 121.69 123.29 121.87 190.22 109.81 190.28" fill="#76ce89"/></g></g><g style="isolation:isolate"><rect x="127.52" y="131.43" width="12.22" height="58.85" fill="#76ce89"/><g clip-path="url(#clip-path-5)"><polygon points="127.67 190.28 127.51 131.48 139.58 131.42 139.74 190.22 127.67 190.28" fill="#76ce89"/></g></g><g style="isolation:isolate"><rect x="145.38" y="138.4" width="12.23" height="51.88" fill="#76ce89"/><g clip-path="url(#clip-path-6)"><polygon points="145.54 190.28 145.38 138.45 157.45 138.39 157.61 190.23 145.54 190.28" fill="#76ce89"/></g></g><rect x="163.26" y="150.39" width="12.21" height="39.89" fill="#ffda00"/><g clip-path="url(#clip-path-7)"><rect x="163.33" y="150.41" width="12.06" height="39.85" transform="translate(-0.63 0.62) rotate(-0.21)" fill="#ffda00"/></g><rect x="181.11" y="154.39" width="12.19" height="35.9" fill="#ffda00"/><g clip-path="url(#clip-path-8)"><rect x="181.17" y="154.4" width="12.06" height="35.86" transform="translate(-0.63 0.68) rotate(-0.21)" fill="#ffda00"/></g><rect x="198.95" y="123.27" width="12.18" height="67.01" fill="#76ce89"/><g clip-path="url(#clip-path-9)"><polygon points="199.06 190.28 198.95 123.36 211.01 123.26 211.13 190.19 199.06 190.28" fill="#76ce89"/></g><rect x="216.77" y="126.78" width="12.17" height="63.5" fill="#76ce89"/><g clip-path="url(#clip-path-10)"><polygon points="216.87 190.28 216.77 126.88 228.84 126.78 228.94 190.18 216.87 190.28" fill="#76ce89"/></g><g style="isolation:isolate"><rect x="234.59" y="126.78" width="12.25" height="63.5" fill="#76ce89"/><g clip-path="url(#clip-path-11)"><polygon points="234.77 190.28 234.58 126.83 246.65 126.77 246.83 190.23 234.77 190.28" fill="#76ce89"/></g></g><g style="isolation:isolate"><rect x="252.48" y="126.78" width="12.24" height="63.5" fill="#76ce89"/><g clip-path="url(#clip-path-12)"><polygon points="252.65 190.28 252.47 126.83 264.54 126.77 264.71 190.22 252.65 190.28" fill="#76ce89"/></g></g><g style="isolation:isolate"><rect x="270.36" y="126.78" width="12.23" height="63.5" fill="#76ce89"/><g clip-path="url(#clip-path-13)"><polygon points="270.53 190.28 270.36 126.83 282.42 126.77 282.59 190.22 270.53 190.28" fill="#76ce89"/></g></g><g style="isolation:isolate"><rect x="288.23" y="134.78" width="12.23" height="55.5" fill="#76ce89"/><g clip-path="url(#clip-path-14)"><polygon points="288.4 190.28 288.23 134.84 300.3 134.78 300.46 190.23 288.4 190.28" fill="#76ce89"/></g></g><g style="isolation:isolate"><rect x="306.11" y="137.56" width="12.22" height="52.72" fill="#76ce89"/><g clip-path="url(#clip-path-15)"><polygon points="306.26 190.28 306.1 137.61 318.17 137.56 318.33 190.23 306.26 190.28" fill="#76ce89"/></g></g><g style="isolation:isolate"><rect x="323.97" y="140.16" width="12.2" height="50.12" fill="#76ce89"/><g clip-path="url(#clip-path-16)"><polygon points="324.11 190.28 323.97 140.22 336.04 140.16 336.18 190.22 324.11 190.28" fill="#76ce89"/></g></g><g style="isolation:isolate"><rect x="341.82" y="140.16" width="12.2" height="50.12" fill="#76ce89"/><g clip-path="url(#clip-path-17)"><polygon points="341.96 190.28 341.82 140.22 353.88 140.16 354.02 190.22 341.96 190.28" fill="#76ce89"/></g></g><g style="isolation:isolate"><rect x="359.67" y="140.16" width="12.2" height="50.12" fill="#76ce89"/><g clip-path="url(#clip-path-18)"><polygon points="359.8 190.28 359.66 140.22 371.73 140.16 371.87 190.22 359.8 190.28" fill="#76ce89"/></g></g><g style="isolation:isolate"><rect x="377.52" y="144.64" width="12.2" height="45.64" fill="#76ce89"/><g clip-path="url(#clip-path-19)"><polygon points="377.65 190.28 377.51 144.69 389.58 144.63 389.72 190.23 377.65 190.28" fill="#76ce89"/></g></g><g style="isolation:isolate"><rect x="395.36" y="144.64" width="12.19" height="45.64" fill="#76ce89"/><g clip-path="url(#clip-path-20)"><polygon points="395.5 190.28 395.36 144.7 407.43 144.64 407.56 190.23 395.5 190.28" fill="#76ce89"/></g></g><g style="isolation:isolate"><rect x="413.2" y="144.64" width="12.19" height="45.64" fill="#76ce89"/><g clip-path="url(#clip-path-21)"><polygon points="413.33 190.28 413.2 144.69 425.26 144.63 425.39 190.22 413.33 190.28" fill="#76ce89"/></g></g><g style="isolation:isolate"><rect x="431.03" y="147.69" width="12.18" height="42.59" fill="#76ce89"/><g clip-path="url(#clip-path-22)"><polygon points="431.14 190.28 431.03 147.75 443.1 147.69 443.21 190.22 431.14 190.28" fill="#76ce89"/></g></g><g style="isolation:isolate"><g clip-path="url(#clip-path-23)"><polygon points="448.94 190.28 448.85 158.2 460.92 158.14 461 190.22 448.94 190.28" fill="#ffda00"/></g></g><g style="isolation:isolate"><rect x="37.98" y="104.69" width="12.3" height="85.65" fill="#76ce89"/><g clip-path="url(#clip-path-24)"><polygon points="38.21 190.34 37.98 104.75 50.04 104.69 50.27 190.28 38.21 190.34" fill="#76ce89"/></g></g><g style="isolation:isolate"><rect x="20.02" y="98.88" width="12.32" height="91.52" fill="#76ce89"/><g clip-path="url(#clip-path-25)"><polygon points="20.27 190.4 20.02 98.94 32.08 98.88 32.33 190.34 20.27 190.4" fill="#76ce89"/></g></g></g></g></svg>