<svg xmlns="http://www.w3.org/2000/svg" xmlns:xlink="http://www.w3.org/1999/xlink" viewBox="-10 0 579.59 555.77"><defs><clipPath id="clip-path"><rect x="60.54" y="112.77" width="12.91" height="75.95" fill="#76ce89"/></clipPath><clipPath id="clip-path-2"><rect x="77.73" y="112.77" width="12.91" height="75.95" fill="#76ce89"/></clipPath><clipPath id="clip-path-3"><rect x="94.93" y="119.41" width="12.89" height="69.31" fill="#76ce89"/></clipPath><clipPath id="clip-path-4"><rect x="112.1" y="119.42" width="12.89" height="69.3" fill="#76ce89"/></clipPath><clipPath id="clip-path-5"><rect x="129.27" y="133.25" width="12.88" height="55.48" fill="#76ce89"/></clipPath><clipPath id="clip-path-6"><rect x="146.43" y="145.27" width="12.87" height="43.45" fill="#ffda00"/></clipPath><clipPath id="clip-path-7"><rect x="163.57" y="153.7" width="12.87" height="35.02" fill="#ffda00"/></clipPath><clipPath id="clip-path-8"><rect x="180.72" y="123.84" width="12.82" height="64.89" fill="#76ce89"/></clipPath><clipPath id="clip-path-9"><rect x="197.82" y="128.27" width="12.8" height="60.45" fill="#76ce89"/></clipPath><clipPath id="clip-path-10"><rect x="214.9" y="128.67" width="12.79" height="60.05" fill="#76ce89"/></clipPath><clipPath id="clip-path-11"><rect x="231.97" y="130.47" width="12.88" height="58.25" fill="#76ce89"/></clipPath><clipPath id="clip-path-12"><rect x="249.13" y="130.47" width="12.87" height="58.25" fill="#76ce89"/></clipPath><clipPath id="clip-path-13"><rect x="266.28" y="135.89" width="12.86" height="52.83" fill="#76ce89"/></clipPath><clipPath id="clip-path-14"><rect x="283.41" y="138.37" width="12.86" height="50.35" fill="#76ce89"/></clipPath><clipPath id="clip-path-15"><rect x="300.55" y="139.33" width="12.86" height="49.39" fill="#76ce89"/></clipPath><clipPath id="clip-path-16"><rect x="317.69" y="141.42" width="12.83" height="47.3" fill="#76ce89"/></clipPath><clipPath id="clip-path-17"><rect x="334.8" y="141.42" width="12.83" height="47.3" fill="#76ce89"/></clipPath><clipPath id="clip-path-18"><rect x="351.9" y="141.42" width="12.83" height="47.3" fill="#76ce89"/></clipPath><clipPath id="clip-path-19"><rect x="369.01" y="143.76" width="12.83" height="44.97" fill="#76ce89"/></clipPath><clipPath id="clip-path-20"><rect x="386.12" y="143.76" width="12.82" height="44.97" fill="#76ce89"/></clipPath><clipPath id="clip-path-21"><rect x="403.22" y="143.76" width="12.81" height="44.97" fill="#76ce89"/></clipPath><clipPath id="clip-path-22"><rect x="420.32" y="148.18" width="12.8" height="40.54" fill="#76ce89"/></clipPath><clipPath id="clip-path-23"><rect x="437.4" y="153.7" width="12.79" height="35.02" fill="none"/></clipPath><clipPath id="clip-path-24"><rect x="43.33" y="107.24" width="12.93" height="81.53" fill="#76ce89"/></clipPath><clipPath id="clip-path-25"><rect x="26.11" y="101.71" width="12.95" height="87.12" fill="#76ce89"/></clipPath></defs><title>Asset 4</title><g id="Layer_2" data-name="Layer 2"><g id="Layer_1-2" data-name="Layer 1"><path d="M3.24,227.05h2l2.74,8.19,2.75-8.19h2v9.69H11.55V228.2h-.2l-2.81,8.19H7.33L4.52,228.2h-.2v8.54H3.24Z" fill="#4c4c4c"/><path d="M19.76,235.44c0,.41.37.56.82.62l0,.82a2.13,2.13,0,0,1-1.66-.56,7.16,7.16,0,0,1-2.52.56c-1.28,0-2-.73-2-2.14s.7-1.93,2.14-2.07l2.2-.21v-.61c0-1-.42-1.33-1.26-1.33s-2.65.19-2.65.19l0-.8a16.87,16.87,0,0,1,2.75-.31c1.58,0,2.25.73,2.25,2.25Zm-3.12-2c-.85.08-1.19.49-1.19,1.26S15.8,236,16.51,236a7.46,7.46,0,0,0,2.2-.43v-2.32Z" fill="#4c4c4c"/><path d="M21.83,226.94h1.05v1.22H21.83Zm0,2.8h1.05v7H21.83Z" fill="#4c4c4c"/><path d="M24.9,236.74v-7h1v.49a5.29,5.29,0,0,1,2.17-.63c1.93,0,2.36,1,2.36,3.44v3.7h-1v-3.67c0-1.85-.21-2.53-1.52-2.53a4.8,4.8,0,0,0-2,.52v5.68Z" fill="#4c4c4c"/><path d="M33.82,230.65V234c0,1.52.1,2,1,2,.39,0,1.24-.09,1.24-.09l.07.87a11.86,11.86,0,0,1-1.43.16c-1.44,0-1.93-.55-1.93-2.57v-3.68h-1v-.91h1V227.6h1v2.14H36v.91Z" fill="#4c4c4c"/><path d="M42.5,235.83l0,.83a25,25,0,0,1-2.73.22c-2.09,0-2.78-1.22-2.78-3.6,0-2.66,1.15-3.68,2.93-3.68s2.82,1,2.82,3.28l-.06.79H38.09c0,1.5.46,2.29,1.83,2.29C41,236,42.5,235.83,42.5,235.83Zm-.79-3c0-1.73-.53-2.35-1.76-2.35s-1.86.66-1.88,2.35Z" fill="#4c4c4c"/><path d="M44.4,236.74v-7h1v.49a5.29,5.29,0,0,1,2.17-.63c1.93,0,2.37,1,2.37,3.44v3.7h-1v-3.67c0-1.85-.21-2.53-1.51-2.53a4.81,4.81,0,0,0-2,.52v5.68Z" fill="#4c4c4c"/><path d="M56.86,235.44c0,.41.37.56.82.62l0,.82a2.13,2.13,0,0,1-1.66-.56,7.16,7.16,0,0,1-2.52.56c-1.28,0-2-.73-2-2.14s.7-1.93,2.14-2.07l2.2-.21v-.61c0-1-.42-1.33-1.26-1.33s-2.65.19-2.65.19l0-.8a16.87,16.87,0,0,1,2.75-.31c1.58,0,2.25.73,2.25,2.25Zm-3.12-2c-.86.08-1.19.49-1.19,1.26S52.9,236,53.61,236a7.46,7.46,0,0,0,2.2-.43v-2.32Z" fill="#4c4c4c"/><path d="M58.93,236.74v-7h1v.49a5.29,5.29,0,0,1,2.17-.63c1.93,0,2.37,1,2.37,3.44v3.7h-1v-3.67c0-1.85-.21-2.53-1.51-2.53a4.81,4.81,0,0,0-2,.52v5.68Z" fill="#4c4c4c"/><path d="M71,229.81l0,.85s-1.12-.12-1.65-.12c-1.61,0-2,.7-2,2.57,0,2.08.33,2.83,2.06,2.83.54,0,1.66-.12,1.66-.12l0,.87a19.07,19.07,0,0,1-1.95.19c-2.23,0-2.88-1-2.88-3.77,0-2.53.82-3.51,2.91-3.51A16.26,16.26,0,0,1,71,229.81Z" fill="#4c4c4c"/><path d="M77.72,235.83l0,.83a25,25,0,0,1-2.73.22c-2.09,0-2.77-1.22-2.77-3.6,0-2.66,1.14-3.68,2.92-3.68s2.82,1,2.82,3.28l-.06.79H73.31c0,1.5.46,2.29,1.83,2.29C76.2,236,77.72,235.83,77.72,235.83Zm-.78-3c0-1.73-.53-2.35-1.77-2.35s-1.86.66-1.87,2.35Z" fill="#4c4c4c"/><path d="M6.76,51.89c1.89,0,2.88.74,2.88,2.47A2.11,2.11,0,0,1,8.4,56.58a2.15,2.15,0,0,1,1.54,2.29c0,2-1.18,2.71-3,2.71H3.24V51.89Zm-2.44,1v3.35H6.81c1.22,0,1.73-.57,1.73-1.74S8,52.84,6.71,52.84Zm0,4.29v3.5H6.9c1.17,0,1.94-.38,1.94-1.8s-1.27-1.7-2-1.7Z" fill="#4c4c4c"/><path d="M16.63,60.28c0,.41.36.56.81.62l0,.82a2.15,2.15,0,0,1-1.67-.56,7.16,7.16,0,0,1-2.52.56c-1.27,0-2-.72-2-2.14s.7-1.93,2.14-2.07l2.2-.21v-.6c0-1-.42-1.33-1.26-1.33s-2.65.18-2.65.18l0-.8a16.84,16.84,0,0,1,2.74-.31c1.59,0,2.26.73,2.26,2.26Zm-3.13-2c-.85.09-1.19.49-1.19,1.26s.35,1.29,1.07,1.29a7.46,7.46,0,0,0,2.2-.43V58.1Z" fill="#4c4c4c"/><path d="M20.1,55.49v3.35c0,1.53.1,2,1,2,.39,0,1.24-.08,1.24-.08l.07.86a11.86,11.86,0,0,1-1.43.16c-1.44,0-1.93-.55-1.93-2.56V55.49h-1v-.91h1V52.44h1v2.14h2.23v.91Z" fill="#4c4c4c"/><path d="M25,55.49v3.35c0,1.53.1,2,1,2,.39,0,1.25-.08,1.25-.08l.07.86a11.86,11.86,0,0,1-1.43.16c-1.44,0-1.93-.55-1.93-2.56V55.49H23v-.91h1V52.44h1v2.14h2.23v.91Z" fill="#4c4c4c"/><path d="M33.69,60.67l0,.83a25,25,0,0,1-2.73.22c-2.09,0-2.77-1.21-2.77-3.6,0-2.66,1.15-3.68,2.92-3.68s2.82,1,2.82,3.28l-.06.8H29.28c0,1.5.46,2.28,1.84,2.28C32.17,60.8,33.69,60.67,33.69,60.67Zm-.78-3c0-1.74-.53-2.36-1.77-2.36s-1.86.66-1.87,2.36Z" fill="#4c4c4c"/><path d="M35.6,54.58h1v1a7.83,7.83,0,0,1,2.57-1.1v1.06a10.33,10.33,0,0,0-2.55.95v5.14h-1Z" fill="#4c4c4c"/><path d="M40.83,54.58l1.75,6.09H43l1.77-6.09h1L43,64.69H41.9l.91-3.11h-1l-2-7Z" fill="#4c4c4c"/><path d="M50.46,61.58V51.89h1.08v8.73H55.8v1Z" fill="#4c4c4c"/><path d="M62.16,60.67l0,.83a24.68,24.68,0,0,1-2.73.22c-2.08,0-2.77-1.21-2.77-3.6,0-2.66,1.15-3.68,2.93-3.68s2.81,1,2.81,3.28l-.05.8H57.74c0,1.5.47,2.28,1.84,2.28C60.63,60.8,62.16,60.67,62.16,60.67Zm-.79-3c0-1.74-.53-2.36-1.76-2.36s-1.87.66-1.88,2.36Z" fill="#4c4c4c"/><path d="M64.52,54.58l1.64,6.09h.52l1.69-6.09h1.08l-2,7H65.37l-2-7Z" fill="#4c4c4c"/><path d="M76,60.67l0,.83a25,25,0,0,1-2.73.22c-2.09,0-2.78-1.21-2.78-3.6,0-2.66,1.15-3.68,2.93-3.68s2.82,1,2.82,3.28l-.06.8H71.55c0,1.5.46,2.28,1.83,2.28C74.43,60.8,76,60.67,76,60.67Zm-.79-3c0-1.74-.53-2.36-1.76-2.36s-1.86.66-1.88,2.36Z" fill="#4c4c4c"/><path d="M78,51.53h1v10H78Z" fill="#4c4c4c"/><path d="M3.86,322.71H5.39l2.15,6.44,2.16-6.44h1.53v7.61h-.85v-6.71h-.15L8,330.05H7.07l-2.21-6.44H4.7v6.71H3.86Z" fill="#4c4c4c"/><path d="M16.84,329.3c0,.32.28.44.64.48l0,.65a1.69,1.69,0,0,1-1.31-.44,5.62,5.62,0,0,1-2,.44c-1,0-1.55-.57-1.55-1.68s.55-1.52,1.69-1.63L16,327v-.48c0-.77-.33-1-1-1s-2.08.14-2.08.14l0-.63a13.44,13.44,0,0,1,2.16-.24c1.24,0,1.77.57,1.77,1.77Zm-2.46-1.56a.87.87,0,0,0-.93,1c0,.64.27,1,.84,1A5.81,5.81,0,0,0,16,329.4v-1.82Z" fill="#4c4c4c"/><path d="M18.46,324.82h.82v.75a6.27,6.27,0,0,1,2-.87v.84a8.22,8.22,0,0,0-2,.74v4h-.83Z" fill="#4c4c4c"/><path d="M61.55,322.71H63.4l2.09,7.61h-.83l-.55-2H60.85l-.55,2h-.84ZM61,327.6h2.88l-1.16-4.16h-.57Z" fill="#4c4c4c"/><path d="M66.55,324.82h.81v.4a3.74,3.74,0,0,1,1.65-.51c1.39,0,2,.85,2,2.8,0,2.15-.7,2.92-2.39,2.92a7.66,7.66,0,0,1-1.24-.12v2.45h-.82Zm.82,1.07v3.71a8.82,8.82,0,0,0,1.19.12c1.21,0,1.61-.63,1.61-2.21s-.48-2.06-1.28-2.06A3.59,3.59,0,0,0,67.37,325.89Z" fill="#4c4c4c"/><path d="M72.34,324.82h.82v.75a6.27,6.27,0,0,1,2-.87v.84a8.22,8.22,0,0,0-2,.74v4h-.83Z" fill="#4c4c4c"/><path d="M115.37,329.28c0,1.65-.64,1.83-2.09,1.83v-.75c1,0,1.24-.07,1.24-1.2v-6.45h.84Z" fill="#4c4c4c"/><path d="M121.31,324.82v5.5h-.82v-.38a3.77,3.77,0,0,1-1.63.49c-1.54,0-1.86-.71-1.86-2.74v-2.87h.82v2.86c0,1.52.14,2,1.16,2a3.36,3.36,0,0,0,1.51-.41v-4.47Z" fill="#4c4c4c"/><path d="M122.89,330.32v-5.5h.82v.39a4.14,4.14,0,0,1,1.7-.5c1.52,0,1.86.75,1.86,2.71v2.9h-.81v-2.88c0-1.45-.17-2-1.19-2a3.75,3.75,0,0,0-1.55.41v4.46Z" fill="#4c4c4c"/><path d="M168,329.28c0,1.65-.64,1.83-2.09,1.83v-.75c1,0,1.24-.07,1.24-1.2v-6.45H168Z" fill="#4c4c4c"/><path d="M174,324.82v5.5h-.82v-.38a3.77,3.77,0,0,1-1.63.49c-1.54,0-1.86-.71-1.86-2.74v-2.87h.82v2.86c0,1.52.14,2,1.16,2a3.36,3.36,0,0,0,1.51-.41v-4.47Z" fill="#4c4c4c"/><path d="M175.61,322.42h.83v7.9h-.83Z" fill="#4c4c4c"/><path d="M217.37,322.71h1.85l2.09,7.61h-.84l-.55-2h-3.25l-.55,2h-.84Zm-.52,4.89h2.89l-1.16-4.16H218Z" fill="#4c4c4c"/><path d="M226.62,324.82v5.5h-.82v-.38a3.77,3.77,0,0,1-1.63.49c-1.54,0-1.86-.71-1.86-2.74v-2.87h.82v2.86c0,1.52.14,2,1.16,2a3.36,3.36,0,0,0,1.51-.41v-4.47Z" fill="#4c4c4c"/><path d="M228,331.25c0-.64.3-.94.87-1.37a.89.89,0,0,1-.31-.76,3.51,3.51,0,0,1,.38-.87,1.6,1.6,0,0,1-.87-1.66c0-1.35.83-1.88,2.06-1.88a5.74,5.74,0,0,1,1.14.14l1.63,0v.7l-1.05,0a1.43,1.43,0,0,1,.37,1.1c0,1.43-.72,1.86-2.13,1.86a5.09,5.09,0,0,1-.54,0,3.25,3.25,0,0,0-.19.63c0,.44.08.5,1.33.5,1.56,0,2.12.31,2.12,1.62s-.89,1.75-2.44,1.75C228.59,332.91,228,332.52,228,331.25Zm1.43-1c-.46.34-.61.54-.61,1,0,.76.32,1,1.56,1s1.59-.29,1.59-1-.35-.92-1.35-.92C230.2,330.27,229.39,330.21,229.39,330.21Zm2-3.62c0-.87-.34-1.21-1.26-1.21s-1.24.34-1.24,1.21.38,1.2,1.24,1.2S231.35,327.46,231.35,326.59Z" fill="#4c4c4c"/><path d="M276,323.52s-1.53-.18-2.16-.18c-1.08,0-1.66.38-1.66,1.24s.53,1.15,1.86,1.45c1.52.34,2.19.72,2.19,2.05,0,1.68-.92,2.34-2.43,2.34a20.26,20.26,0,0,1-2.41-.24l.09-.7s1.5.19,2.28.19c1.08,0,1.63-.47,1.63-1.53,0-.85-.45-1.1-1.7-1.34-1.57-.34-2.36-.71-2.36-2.17s1-2,2.45-2a19,19,0,0,1,2.3.22Z" fill="#4c4c4c"/><path d="M281.6,329.61l0,.65a19.72,19.72,0,0,1-2.14.17c-1.64,0-2.18-.95-2.18-2.83,0-2.09.9-2.89,2.3-2.89s2.21.77,2.21,2.58l0,.62h-3.63c0,1.18.36,1.8,1.44,1.8C280.4,329.71,281.6,329.61,281.6,329.61Zm-.61-2.36c0-1.36-.42-1.85-1.39-1.85s-1.46.52-1.47,1.85Z" fill="#4c4c4c"/><path d="M283.1,324.82h.81v.4a3.74,3.74,0,0,1,1.65-.51c1.39,0,2,.85,2,2.8,0,2.15-.7,2.92-2.39,2.92a7.66,7.66,0,0,1-1.24-.12v2.45h-.82Zm.82,1.07v3.71a8.82,8.82,0,0,0,1.19.12c1.21,0,1.61-.63,1.61-2.21s-.48-2.06-1.28-2.06A3.59,3.59,0,0,0,283.92,325.89Z" fill="#4c4c4c"/><path d="M326.45,326.55c0-2.51.65-3.95,3-3.95s3,1.42,3,3.95-.65,3.88-3,3.88S326.45,329.1,326.45,326.55Zm5.14,0c0-2.06-.4-3.2-2.13-3.2s-2.14,1.13-2.14,3.2.38,3.13,2.14,3.13S331.59,328.69,331.59,326.55Z" fill="#4c4c4c"/><path d="M337.43,324.88l0,.67s-.88-.1-1.3-.1c-1.27,0-1.61.55-1.61,2,0,1.63.26,2.23,1.62,2.23.42,0,1.3-.1,1.3-.1l0,.68a14.87,14.87,0,0,1-1.53.15c-1.75,0-2.26-.8-2.26-3,0-2,.64-2.76,2.28-2.76A12.4,12.4,0,0,1,337.43,324.88Z" fill="#4c4c4c"/><path d="M339.77,325.54v2.63c0,1.2.08,1.54.8,1.54.3,0,1-.07,1-.07l.06.68a9.79,9.79,0,0,1-1.12.12c-1.14,0-1.52-.43-1.52-2v-2.89h-.78v-.72H339v-1.68h.81v1.68h1.75v.72Z" fill="#4c4c4c"/><path d="M380.4,322.71H382l2.92,6.86h.23v-6.86H386v7.61h-1.55l-3-6.86h-.21v6.86h-.85Z" fill="#4c4c4c"/><path d="M392.16,327.51c0,2-.5,2.92-2.36,2.92s-2.35-.92-2.35-2.92.62-2.8,2.35-2.8S392.16,325.61,392.16,327.51Zm-.85,0c0-1.53-.33-2.08-1.51-2.08s-1.5.55-1.5,2.08.21,2.21,1.5,2.21S391.31,329.07,391.31,327.51Z" fill="#4c4c4c"/><path d="M393.76,324.82l1.29,4.79h.41l1.33-4.79h.85l-1.55,5.5h-1.65l-1.56-5.5Z" fill="#4c4c4c"/><path d="M436.56,330.32v-7.61h2.72c2.21,0,2.81,1.54,2.81,3.7s-.57,3.91-2.81,3.91Zm2.72-6.86h-1.87v6.11h1.87c1.58,0,1.94-1.51,1.94-3.16S440.86,323.46,439.28,323.46Z" fill="#4c4c4c"/><path d="M447.57,329.61l0,.65a19.72,19.72,0,0,1-2.14.17c-1.64,0-2.18-.95-2.18-2.83,0-2.09.9-2.89,2.3-2.89s2.21.77,2.21,2.58l0,.62H444.1c0,1.18.37,1.8,1.44,1.8C446.37,329.71,447.57,329.61,447.57,329.61Zm-.62-2.36c0-1.36-.41-1.85-1.38-1.85s-1.47.52-1.48,1.85Z" fill="#4c4c4c"/><path d="M452.62,324.88l0,.67s-.87-.1-1.29-.1c-1.27,0-1.61.55-1.61,2,0,1.63.25,2.23,1.62,2.23.42,0,1.3-.1,1.3-.1l0,.68a14.87,14.87,0,0,1-1.53.15c-1.75,0-2.27-.8-2.27-3,0-2,.65-2.76,2.29-2.76A12.4,12.4,0,0,1,452.62,324.88Z" fill="#4c4c4c"/><line x1="451.83" y1="315.66" y2="315.66" fill="none" stroke="#adadad" stroke-miterlimit="10"/><polyline points="3.25 311.16 19.82 311.16 41.12 308.16 55.33 302.16 71.9 293.16 90.83 287.16 107.41 280.16 116.87 274.16 139.36 265.16 160.67 261.16 187.89 265.16 205.64 271.16 228.13 279.16 244.7 293.16 258.91 298.16 284.94 302.16 312.17 306.16 329.92 307.16 368.98 308.16 409.22 311.16 440 308.16 451.83 302.16" fill="none" stroke="#3899e8"/><polyline points="3.25 311.66 19.82 311.66 41.12 308.66 55.33 302.66 71.9 293.66 90.83 287.66 107.41 280.66 116.87 274.66 139.36 265.66 160.67 263.66 187.89 267.66 205.64 271.66 228.13 279.66 244.7 293.66 258.91 298.66 284.94 302.66 312.17 306.66 329.92 307.66 368.98 308.66 409.22 311.66 440 308.66 451.83 302.66" fill="none" stroke="#8dc5f2"/><path d="M6.85.2h3.36L14,14H12.49l-1-3.56H5.57L4.57,14H3.05ZM5.91,9.1h5.24L9.05,1.52H8Z"/><path d="M21.67,7h3.82v6.8a33.71,33.71,0,0,1-4.5.48c-4.24,0-5.36-2.6-5.36-7.08S16.79,0,21,0a25.77,25.77,0,0,1,4.54.52L25.43,1.8a31.73,31.73,0,0,0-4.3-.42c-3.2,0-3.9,1.86-3.9,5.78s.68,5.72,3.88,5.72A18.56,18.56,0,0,0,24,12.6V8.34h-2.3Z"/><path d="M38,.2,34.35,14H30.91L27.29.2h1.6l3.18,12.48h1.12L36.37.2Z"/><path d="M44.29,1.18A15.43,15.43,0,0,1,48.17.62c3.12,0,4.22,1.1,4.22,3.44a3.3,3.3,0,0,1-2,3,2.87,2.87,0,0,1,2.28,3.2c0,2.66-1.3,4-4.28,4a21.78,21.78,0,0,1-4.34-.54l.14-1.26a23.88,23.88,0,0,0,4,.44c2,0,2.86-.86,2.86-2.56S49.91,7.9,48.41,7.84H45.75V6.52h2.66a2.48,2.48,0,0,0,2.4-2.4c0-1.5-.74-2.12-2.7-2.12a20.15,20.15,0,0,0-3.68.4Z"/><path d="M.2,402.46h9v1.24H5.4v11.22H4V403.7H.2Z" fill="#3a3d3f"/><path d="M18,410.31c0,3.28-.81,4.79-3.85,4.79s-3.86-1.51-3.86-4.79c0-3.1,1-4.57,3.86-4.57S18,407.21,18,410.31Zm-1.39,0c0-2.5-.54-3.4-2.46-3.4s-2.47.9-2.47,3.4.34,3.62,2.47,3.62S16.65,412.87,16.65,410.31Z" fill="#3a3d3f"/><path d="M27.15,414.92H25.81v-.61a6.42,6.42,0,0,1-2.73.79c-1.77,0-3.24-.72-3.24-4.61,0-3.17,1-4.75,3.76-4.75a15.61,15.61,0,0,1,2.21.23v-4h1.34Zm-1.34-1.69v-6.11a15.89,15.89,0,0,0-2.14-.21c-1.89,0-2.45,1.24-2.45,3.58,0,2.92,1,3.4,2,3.4A6.54,6.54,0,0,0,25.81,413.23Z" fill="#3a3d3f"/><path d="M36.11,413.24c0,.53.47.72,1,.8l0,1.06a2.75,2.75,0,0,1-2.14-.72,9.2,9.2,0,0,1-3.24.72c-1.64,0-2.54-.94-2.54-2.76s.9-2.48,2.75-2.66l2.83-.27v-.77c0-1.27-.54-1.72-1.62-1.72-1.26,0-3.4.24-3.4.24l-.06-1a22.13,22.13,0,0,1,3.53-.39c2,0,2.9.93,2.9,2.9Zm-4-2.55c-1.1.11-1.54.63-1.54,1.62S31,414,31.93,414a9.63,9.63,0,0,0,2.83-.55v-3Z" fill="#3a3d3f"/><path d="M39.28,405.92l2.25,7.83h.59l2.27-7.83h1.35l-3.74,13H40.64l1.17-4H40.48l-2.55-9Z" fill="#3a3d3f"/><path d="M51.43,402.32h1.35v1.56H51.43Zm0,3.6h1.35v9H51.43Z" fill="#3a3d3f"/><path d="M57.17,407.09v4.3c0,2,.12,2.52,1.29,2.52.51,0,1.61-.11,1.61-.11l.09,1.12a15.71,15.71,0,0,1-1.84.2c-1.85,0-2.48-.7-2.48-3.3v-4.73H54.56v-1.17h1.28v-2.76h1.33v2.76H60v1.17Z" fill="#3a3d3f"/><path d="M65.64,402.32H67v1.56H65.64Zm0,3.6H67v9H65.64Z" fill="#3a3d3f"/><path d="M75.57,407.23a29.33,29.33,0,0,0-3.16-.29c-1.11,0-2,.31-2,1.37,0,.85.43,1.08,2.34,1.41,2.25.37,3.1.82,3.1,2.57,0,2.11-1.33,2.81-3.49,2.81a25.4,25.4,0,0,1-3.17-.34l.07-1.17s2,.3,3,.3c1.48,0,2.27-.32,2.27-1.55,0-.93-.47-1.17-2.43-1.47s-3-.7-3-2.5c0-2,1.6-2.63,3.24-2.63a23.19,23.19,0,0,1,3.26.34Z" fill="#3a3d3f"/><path d="M81.92,405.92h1.33v.64a6.17,6.17,0,0,1,2.7-.82c2.27,0,3.26,1.38,3.26,4.57,0,3.53-1.15,4.79-3.93,4.79a11,11,0,0,1-2-.2v4H81.92Zm1.35,1.74v6.07a12.78,12.78,0,0,0,1.94.2c2,0,2.63-1,2.63-3.62s-.77-3.37-2.09-3.37A5.86,5.86,0,0,0,83.27,407.66Z" fill="#3a3d3f"/><path d="M98.71,410.31c0,3.28-.81,4.79-3.85,4.79S91,413.59,91,410.31c0-3.1,1-4.57,3.85-4.57S98.71,407.21,98.71,410.31Zm-1.38,0c0-2.5-.54-3.4-2.47-3.4s-2.47.9-2.47,3.4.35,3.62,2.47,3.62S97.33,412.87,97.33,410.31Z" fill="#3a3d3f"/><path d="M106.89,407.23a29.33,29.33,0,0,0-3.16-.29c-1.11,0-2,.31-2,1.37,0,.85.43,1.08,2.34,1.41,2.25.37,3.1.82,3.1,2.57,0,2.11-1.33,2.81-3.49,2.81a25.4,25.4,0,0,1-3.17-.34l.07-1.17s2,.3,3,.3c1.48,0,2.27-.32,2.27-1.55,0-.93-.47-1.17-2.43-1.47s-3-.7-3-2.5c0-2,1.6-2.63,3.24-2.63a23.19,23.19,0,0,1,3.26.34Z" fill="#3a3d3f"/><path d="M115.26,407.23a29.33,29.33,0,0,0-3.16-.29c-1.11,0-2,.31-2,1.37,0,.85.43,1.08,2.34,1.41,2.25.37,3.1.82,3.1,2.57,0,2.11-1.33,2.81-3.49,2.81a25.65,25.65,0,0,1-3.17-.34l.07-1.17s2.05.3,3,.3c1.48,0,2.27-.32,2.27-1.55,0-.93-.47-1.17-2.43-1.47s-3-.7-3-2.5c0-2,1.6-2.63,3.24-2.63a23.19,23.19,0,0,1,3.26.34Z" fill="#3a3d3f"/><path d="M117.65,402.32H119v1.56h-1.35Zm0,3.6H119v9h-1.35Z" fill="#3a3d3f"/><path d="M128.85,410.27c0,3.59-1,4.83-4.25,4.83-1.08,0-3-.2-3-.2V402h1.33v4.38a7.44,7.44,0,0,1,2.65-.63C128,405.74,128.85,407,128.85,410.27Zm-1.37,0c0-2.32-.47-3.33-2-3.33a7.59,7.59,0,0,0-2.51.52v6.34s1.17.09,1.66.09C127.05,413.89,127.48,412.79,127.48,410.27Z" fill="#3a3d3f"/><path d="M131.17,402h1.35v12.93h-1.35Z" fill="#3a3d3f"/><path d="M141.86,413.75l0,1.06a31.38,31.38,0,0,1-3.51.29c-2.69,0-3.57-1.57-3.57-4.63,0-3.42,1.48-4.73,3.76-4.73S142.2,407,142.2,410l-.07,1h-5.94c0,1.92.59,2.93,2.36,2.93C139.9,413.91,141.86,413.75,141.86,413.75Zm-1-3.85c0-2.24-.68-3-2.27-3s-2.39.85-2.41,3Z" fill="#3a3d3f"/><path d="M150.07,407.09v4.3c0,2,.12,2.52,1.29,2.52.51,0,1.61-.11,1.61-.11l.09,1.12a15.71,15.71,0,0,1-1.84.2c-1.86,0-2.49-.7-2.49-3.3v-4.73h-1.27v-1.17h1.27v-2.76h1.34v2.76h2.86v1.17Z" fill="#3a3d3f"/><path d="M161.89,410.31c0,3.28-.81,4.79-3.85,4.79s-3.85-1.51-3.85-4.79c0-3.1,1-4.57,3.85-4.57S161.89,407.21,161.89,410.31Zm-1.38,0c0-2.5-.54-3.4-2.47-3.4s-2.47.9-2.47,3.4.35,3.62,2.47,3.62S160.51,412.87,160.51,410.31Z" fill="#3a3d3f"/><path d="M173.86,406l-.05,1.09s-1.44-.16-2.12-.16c-2.08,0-2.63.9-2.63,3.32,0,2.66.41,3.63,2.64,3.63.69,0,2.13-.16,2.13-.16l0,1.12a24,24,0,0,1-2.5.25c-2.86,0-3.71-1.32-3.71-4.84,0-3.26,1.06-4.52,3.74-4.52A20.89,20.89,0,0,1,173.86,406Z" fill="#3a3d3f"/><path d="M175.89,414.92V402h1.36v4.43a7.64,7.64,0,0,1,2.77-.68c2.47,0,3,1.22,3,4.43v4.75h-1.35V410.2c0-2.38-.27-3.26-1.93-3.26a7.39,7.39,0,0,0-2.53.54v7.44Z" fill="#3a3d3f"/><path d="M191.92,413.24c0,.53.47.72,1,.8l-.05,1.06a2.74,2.74,0,0,1-2.14-.72,9.29,9.29,0,0,1-3.25.72c-1.63,0-2.54-.94-2.54-2.76s.91-2.48,2.76-2.66l2.83-.27v-.77c0-1.27-.54-1.72-1.62-1.72-1.26,0-3.41.24-3.41.24l0-1a22.13,22.13,0,0,1,3.53-.39c2,0,2.9.93,2.9,2.9Zm-4-2.55c-1.1.11-1.53.63-1.53,1.62s.45,1.65,1.37,1.65a9.72,9.72,0,0,0,2.83-.55v-3Z" fill="#3a3d3f"/><path d="M194.58,405.92h1.33v1.22a10.17,10.17,0,0,1,3.3-1.42v1.37a13,13,0,0,0-3.28,1.22v6.61h-1.35Z" fill="#3a3d3f"/><path d="M200.41,416.43c0-1,.49-1.53,1.42-2.23a1.48,1.48,0,0,1-.5-1.24,5.75,5.75,0,0,1,.61-1.43c-.75-.34-1.42-1.06-1.42-2.72,0-2.21,1.37-3.07,3.37-3.07a9.43,9.43,0,0,1,1.87.23l2.66-.07v1.15l-1.71,0a2.37,2.37,0,0,1,.6,1.8c0,2.35-1.17,3.05-3.48,3.05-.18,0-.68,0-.88-.07a5.42,5.42,0,0,0-.32,1c0,.72.14.83,2.17.83,2.56,0,3.48.5,3.48,2.65s-1.46,2.86-4,2.86C201.44,419.15,200.41,418.52,200.41,416.43Zm2.34-1.69c-.76.56-1,.88-1,1.58,0,1.25.53,1.7,2.56,1.7,1.8,0,2.61-.49,2.61-1.68,0-1.37-.58-1.51-2.21-1.51C204.07,414.83,202.75,414.74,202.75,414.74Zm3.21-5.93c0-1.42-.56-2-2.07-2s-2,.56-2,2,.61,2,2,2S206,410.24,206,408.81Z" fill="#3a3d3f"/><path d="M216.7,413.75l0,1.06a31.12,31.12,0,0,1-3.51.29c-2.69,0-3.57-1.57-3.57-4.63,0-3.42,1.48-4.73,3.77-4.73S217,407,217,410l-.07,1H211c0,1.92.6,2.93,2.36,2.93C214.74,413.91,216.7,413.75,216.7,413.75Zm-1-3.85c0-2.24-.68-3-2.26-3s-2.4.85-2.42,3Z" fill="#3a3d3f"/><path d="M225.67,402.46h3l3.42,12.46h-1.37l-.9-3.21h-5.33l-.9,3.21h-1.37Zm-.85,8h4.72l-1.89-6.82h-.94Z" fill="#3a3d3f"/><path d="M239,408.54h3.44v6.13a30.76,30.76,0,0,1-4.05.43c-3.82,0-4.82-2.34-4.82-6.37s1-6.45,4.78-6.45a23,23,0,0,1,4.09.47l-.05,1.15a28.37,28.37,0,0,0-3.87-.38c-2.88,0-3.51,1.68-3.51,5.21s.61,5.14,3.49,5.14a16.58,16.58,0,0,0,2.57-.25v-3.83H239Z" fill="#3a3d3f"/><path d="M253.67,402.46l-3.25,12.46h-3.1l-3.26-12.46h1.44l2.86,11.23h1l2.86-11.23Z" fill="#3a3d3f"/><path d="M255.4,403.34a14,14,0,0,1,3.49-.5c2.81,0,3.8,1,3.8,3.09a3,3,0,0,1-1.76,2.71,2.58,2.58,0,0,1,2.05,2.88c0,2.39-1.17,3.58-3.85,3.58a19.41,19.41,0,0,1-3.91-.49l.13-1.13a21.72,21.72,0,0,0,3.63.39c1.77,0,2.58-.77,2.58-2.3s-1.1-2.18-2.45-2.23h-2.4v-1.19h2.4a2.23,2.23,0,0,0,2.16-2.16c0-1.35-.67-1.91-2.43-1.91a18.07,18.07,0,0,0-3.31.36Z" fill="#3a3d3f"/><path d="M269.44,402.32h1.35v1.56h-1.35Zm0,3.6h1.35v9h-1.35Z" fill="#3a3d3f"/><path d="M273.38,414.92v-9h1.33v.63a6.85,6.85,0,0,1,2.79-.81c2.49,0,3.05,1.22,3.05,4.43v4.75h-1.34V410.2c0-2.38-.27-3.26-1.94-3.26a6.12,6.12,0,0,0-2.54.67v7.31Z" fill="#3a3d3f"/><path d="M293.36,413.24c0,.53.47.72,1.05.8l-.06,1.06a2.75,2.75,0,0,1-2.14-.72,9.2,9.2,0,0,1-3.24.72c-1.64,0-2.54-.94-2.54-2.76s.9-2.48,2.76-2.66l2.82-.27v-.77c0-1.27-.54-1.72-1.62-1.72-1.26,0-3.4.24-3.4.24l-.05-1a22.1,22.1,0,0,1,3.52-.39c2,0,2.9.93,2.9,2.9Zm-4-2.55c-1.1.11-1.53.63-1.53,1.62s.45,1.65,1.37,1.65a9.61,9.61,0,0,0,2.82-.55v-3Z" fill="#3a3d3f"/><path d="M300.09,402h1.35v12.93h-1.35Z" fill="#3a3d3f"/><path d="M310.79,413.75l0,1.06a31.12,31.12,0,0,1-3.51.29c-2.68,0-3.56-1.57-3.56-4.63,0-3.42,1.47-4.73,3.76-4.73s3.62,1.26,3.62,4.21l-.07,1h-5.95c0,1.92.6,2.93,2.36,2.93C308.82,413.91,310.79,413.75,310.79,413.75Zm-1-3.85c0-2.24-.69-3-2.27-3s-2.4.85-2.41,3Z" fill="#3a3d3f"/><path d="M319.21,407.23a29.33,29.33,0,0,0-3.15-.29c-1.12,0-2,.31-2,1.37,0,.85.43,1.08,2.34,1.41,2.25.37,3.09.82,3.09,2.57,0,2.11-1.33,2.81-3.49,2.81a25.65,25.65,0,0,1-3.17-.34l.07-1.17s2.06.3,3,.3c1.47,0,2.26-.32,2.26-1.55,0-.93-.46-1.17-2.43-1.47s-3-.7-3-2.5c0-2,1.6-2.63,3.24-2.63a23.19,23.19,0,0,1,3.26.34Z" fill="#3a3d3f"/><path d="M327.58,407.23a29.33,29.33,0,0,0-3.15-.29c-1.12,0-2,.31-2,1.37,0,.85.43,1.08,2.34,1.41,2.25.37,3.09.82,3.09,2.57,0,2.11-1.33,2.81-3.49,2.81a25.65,25.65,0,0,1-3.17-.34l.07-1.17s2.06.3,3,.3c1.47,0,2.26-.32,2.26-1.55,0-.93-.46-1.17-2.43-1.47s-3-.7-3-2.5c0-2,1.6-2.63,3.24-2.63a23.19,23.19,0,0,1,3.26.34Z" fill="#3a3d3f"/><path d="M333.93,402.32h1.35v1.56h-1.35Zm0,3.6h1.35v9h-1.35Z" fill="#3a3d3f"/><path d="M337.88,414.92v-9h1.33v.63a6.85,6.85,0,0,1,2.79-.81c2.48,0,3,1.22,3,4.43v4.75h-1.33V410.2c0-2.38-.27-3.26-1.95-3.26a6.11,6.11,0,0,0-2.53.67v7.31Z" fill="#3a3d3f"/><path d="M349.34,407.09v4.3c0,2,.13,2.52,1.3,2.52.5,0,1.6-.11,1.6-.11l.09,1.12a15.71,15.71,0,0,1-1.84.2c-1.85,0-2.48-.7-2.48-3.3v-4.73h-1.28v-1.17H348v-2.76h1.33v2.76h2.86v1.17Z" fill="#3a3d3f"/><path d="M360.5,413.75l0,1.06a31.12,31.12,0,0,1-3.51.29c-2.68,0-3.57-1.57-3.57-4.63,0-3.42,1.48-4.73,3.77-4.73s3.62,1.26,3.62,4.21l-.08,1h-5.94c0,1.92.6,2.93,2.36,2.93C358.54,413.91,360.5,413.75,360.5,413.75Zm-1-3.85c0-2.24-.68-3-2.26-3s-2.4.85-2.42,3Z" fill="#3a3d3f"/><path d="M363,414.92v-9h1.33v.63a6.85,6.85,0,0,1,2.79-.81c2.49,0,3.05,1.22,3.05,4.43v4.75h-1.34V410.2c0-2.38-.27-3.26-1.94-3.26a6.12,6.12,0,0,0-2.54.67v7.31Z" fill="#3a3d3f"/><path d="M378.59,407.23a29.33,29.33,0,0,0-3.15-.29c-1.11,0-2,.31-2,1.37,0,.85.43,1.08,2.34,1.41,2.25.37,3.1.82,3.1,2.57,0,2.11-1.34,2.81-3.5,2.81a25.4,25.4,0,0,1-3.16-.34l.07-1.17s2.05.3,3,.3c1.47,0,2.27-.32,2.27-1.55,0-.93-.47-1.17-2.43-1.47s-3-.7-3-2.5c0-2,1.6-2.63,3.24-2.63a23.19,23.19,0,0,1,3.26.34Z" fill="#3a3d3f"/><path d="M381,402.32h1.36v1.56H381Zm0,3.6h1.36v9H381Z" fill="#3a3d3f"/><path d="M385.52,405.92l2.11,7.83h.66l2.18-7.83h1.39l-2.54,9h-2.7l-2.54-9Z" fill="#3a3d3f"/><path d="M400.23,413.75l0,1.06a31.4,31.4,0,0,1-3.52.29c-2.68,0-3.56-1.57-3.56-4.63,0-3.42,1.48-4.73,3.76-4.73s3.62,1.26,3.62,4.21l-.07,1h-5.94c0,1.92.59,2.93,2.36,2.93C398.27,413.91,400.23,413.75,400.23,413.75Zm-1-3.85c0-2.24-.68-3-2.27-3s-2.39.85-2.41,3Z" fill="#3a3d3f"/><path d="M406.64,405.92H408v.64a6.17,6.17,0,0,1,2.7-.82c2.27,0,3.26,1.38,3.26,4.57,0,3.53-1.15,4.79-3.93,4.79a11,11,0,0,1-2-.2v4h-1.35Zm1.35,1.74v6.07a12.78,12.78,0,0,0,1.94.2c2,0,2.63-1,2.63-3.62s-.77-3.37-2.09-3.37A5.86,5.86,0,0,0,408,407.66Z" fill="#3a3d3f"/><path d="M422.77,413.75l0,1.06a31.12,31.12,0,0,1-3.51.29c-2.68,0-3.56-1.57-3.56-4.63,0-3.42,1.47-4.73,3.76-4.73s3.62,1.26,3.62,4.21l-.07,1h-6c0,1.92.6,2.93,2.36,2.93C420.8,413.91,422.77,413.75,422.77,413.75Zm-1-3.85c0-2.24-.69-3-2.27-3s-2.4.85-2.41,3Z" fill="#3a3d3f"/><path d="M425.21,405.92h1.33v1.22a10.17,10.17,0,0,1,3.3-1.42v1.37a13.15,13.15,0,0,0-3.28,1.22v6.61h-1.35Z" fill="#3a3d3f"/><path d="M431.44,402.32h1.35v1.56h-1.35Zm0,3.6h1.35v9h-1.35Z" fill="#3a3d3f"/><path d="M442.69,410.31c0,3.28-.81,4.79-3.85,4.79s-3.86-1.51-3.86-4.79c0-3.1,1-4.57,3.86-4.57S442.69,407.21,442.69,410.31Zm-1.39,0c0-2.5-.54-3.4-2.46-3.4s-2.47.9-2.47,3.4.34,3.62,2.47,3.62S441.3,412.87,441.3,410.31Z" fill="#3a3d3f"/><path d="M451.8,414.92h-1.33v-.61a6.49,6.49,0,0,1-2.74.79c-1.76,0-3.24-.72-3.24-4.61,0-3.17,1-4.75,3.76-4.75a15.79,15.79,0,0,1,2.22.23v-4h1.33Zm-1.33-1.69v-6.11a16.26,16.26,0,0,0-2.15-.21c-1.89,0-2.44,1.24-2.44,3.58,0,2.92.95,3.4,2,3.4A6.62,6.62,0,0,0,450.47,413.23Z" fill="#3a3d3f"/><path d="M454.32,412.87h1.47v2.05h-1.47Z" fill="#3a3d3f"/><path d="M9,442.72a18.72,18.72,0,0,1-3.44.38c-3.72,0-4.55-2.27-4.55-6.37s.81-6.45,4.55-6.45a17.59,17.59,0,0,1,3.44.4l0,1.17a21.38,21.38,0,0,0-3.24-.33c-2.78,0-3.26,1.66-3.26,5.21s.45,5.13,3.29,5.13A20,20,0,0,0,9,441.53Z" fill="#3a3d3f"/><path d="M11.05,442.92V430H12.4v4.43a7.65,7.65,0,0,1,2.78-.68c2.46,0,3,1.22,3,4.43v4.75H16.87V438.2c0-2.38-.27-3.26-1.93-3.26a7.41,7.41,0,0,0-2.54.54v7.44Z" fill="#3a3d3f"/><path d="M27.08,441.24c0,.53.46.72,1,.8l-.05,1.06a2.76,2.76,0,0,1-2.15-.72,9.2,9.2,0,0,1-3.24.72c-1.64,0-2.54-.94-2.54-2.76s.9-2.48,2.76-2.66l2.83-.27v-.77c0-1.27-.54-1.72-1.63-1.72-1.26,0-3.4.24-3.4.24l-.05-1a22.13,22.13,0,0,1,3.53-.39c2,0,2.9.93,2.9,2.9Zm-4-2.55c-1.1.11-1.53.63-1.53,1.62S22,442,22.9,442a9.72,9.72,0,0,0,2.83-.55v-3Z" fill="#3a3d3f"/><path d="M29.74,433.92h1.33v1.22a10.18,10.18,0,0,1,3.29-1.42v1.37a13,13,0,0,0-3.27,1.22v6.61H29.74Z" fill="#3a3d3f"/><path d="M35.57,444.43c0-1,.49-1.53,1.42-2.23a1.48,1.48,0,0,1-.5-1.24,5.75,5.75,0,0,1,.61-1.43c-.76-.34-1.42-1.06-1.42-2.72,0-2.21,1.37-3.07,3.36-3.07a9.6,9.6,0,0,1,1.88.23l2.66-.07v1.15l-1.71,0a2.37,2.37,0,0,1,.59,1.8c0,2.35-1.17,3.05-3.47,3.05-.18,0-.68,0-.88-.07a5.3,5.3,0,0,0-.33,1c0,.72.15.83,2.18.83,2.56,0,3.48.5,3.48,2.65s-1.46,2.86-4,2.86C36.6,447.15,35.57,446.52,35.57,444.43Zm2.34-1.69c-.76.56-1,.88-1,1.58,0,1.25.52,1.7,2.56,1.7,1.8,0,2.61-.49,2.61-1.68,0-1.37-.58-1.51-2.22-1.51C39.22,442.83,37.91,442.74,37.91,442.74Zm3.2-5.93c0-1.42-.55-2-2.07-2s-2,.56-2,2,.61,2,2,2S41.11,438.24,41.11,436.81Z" fill="#3a3d3f"/><path d="M45.22,430.32h1.35v1.56H45.22Zm0,3.6h1.35v9H45.22Z" fill="#3a3d3f"/><path d="M49.16,442.92v-9h1.33v.63a6.85,6.85,0,0,1,2.79-.81c2.49,0,3,1.22,3,4.43v4.75H55V438.2c0-2.38-.27-3.26-1.94-3.26a6.12,6.12,0,0,0-2.54.67v7.31Z" fill="#3a3d3f"/><path d="M58.43,444.43c0-1,.48-1.53,1.42-2.23a1.48,1.48,0,0,1-.5-1.24,5.75,5.75,0,0,1,.61-1.43c-.76-.34-1.42-1.06-1.42-2.72,0-2.21,1.36-3.07,3.36-3.07a9.6,9.6,0,0,1,1.88.23l2.66-.07v1.15l-1.71,0a2.37,2.37,0,0,1,.59,1.8c0,2.35-1.17,3.05-3.47,3.05-.18,0-.69,0-.88-.07a5.3,5.3,0,0,0-.33,1c0,.72.15.83,2.18.83,2.56,0,3.48.5,3.48,2.65s-1.46,2.86-4,2.86C59.45,447.15,58.43,446.52,58.43,444.43Zm2.34-1.69c-.76.56-1,.88-1,1.58,0,1.25.52,1.7,2.56,1.7,1.8,0,2.61-.49,2.61-1.68,0-1.37-.58-1.51-2.22-1.51C62.08,442.83,60.77,442.74,60.77,442.74Zm3.2-5.93c0-1.42-.55-2-2.07-2s-2,.56-2,2,.61,2,2,2S64,438.24,64,436.81Z" fill="#3a3d3f"/><path d="M73.84,435.09v4.3c0,2,.12,2.52,1.29,2.52.51,0,1.61-.11,1.61-.11l.09,1.12a15.71,15.71,0,0,1-1.84.2c-1.86,0-2.49-.7-2.49-3.3v-4.73H71.23v-1.17H72.5v-2.76h1.34v2.76H76.7v1.17Z" fill="#3a3d3f"/><path d="M78.35,442.92V430H79.7v4.43a7.65,7.65,0,0,1,2.78-.68c2.46,0,3,1.22,3,4.43v4.75H84.17V438.2c0-2.38-.27-3.26-1.93-3.26a7.48,7.48,0,0,0-2.54.54v7.44Z" fill="#3a3d3f"/><path d="M88,430.32h1.35v1.56H88Zm0,3.6h1.35v9H88Z" fill="#3a3d3f"/><path d="M97.94,435.23a29.33,29.33,0,0,0-3.15-.29c-1.12,0-2,.31-2,1.37,0,.85.43,1.08,2.34,1.41,2.25.37,3.1.82,3.1,2.57,0,2.11-1.34,2.81-3.5,2.81a25.65,25.65,0,0,1-3.17-.34l.07-1.17s2.06.3,3,.3c1.47,0,2.26-.32,2.26-1.55,0-.93-.46-1.17-2.43-1.47s-3-.7-3-2.5c0-2,1.6-2.63,3.24-2.63a23.19,23.19,0,0,1,3.26.34Z" fill="#3a3d3f"/><path d="M104.89,433.92l2.1,7.83h.67l2.18-7.83h1.39l-2.54,9H106l-2.54-9Z" fill="#3a3d3f"/><path d="M119.6,441.75l0,1.06a31.12,31.12,0,0,1-3.51.29c-2.68,0-3.56-1.57-3.56-4.63,0-3.42,1.47-4.73,3.76-4.73s3.62,1.26,3.62,4.21l-.07,1h-6c0,1.92.6,2.93,2.36,2.93C117.63,441.91,119.6,441.75,119.6,441.75Zm-1-3.85c0-2.24-.69-3-2.27-3s-2.4.85-2.41,3Z" fill="#3a3d3f"/><path d="M122,442.92V430h1.35v4.43a7.64,7.64,0,0,1,2.77-.68c2.47,0,3.05,1.22,3.05,4.43v4.75h-1.35V438.2c0-2.38-.27-3.26-1.93-3.26a7.41,7.41,0,0,0-2.54.54v7.44Z" fill="#3a3d3f"/><path d="M131.71,430.32h1.35v1.56h-1.35Zm0,3.6h1.35v9h-1.35Z" fill="#3a3d3f"/><path d="M141.46,434l-.05,1.09s-1.44-.16-2.12-.16c-2.07,0-2.63.9-2.63,3.32,0,2.66.41,3.63,2.64,3.63.69,0,2.13-.16,2.13-.16l0,1.12a24,24,0,0,1-2.5.25c-2.86,0-3.71-1.32-3.71-4.84,0-3.26,1.06-4.52,3.75-4.52A20.91,20.91,0,0,1,141.46,434Z" fill="#3a3d3f"/><path d="M143.6,430H145v12.93H143.6Z" fill="#3a3d3f"/><path d="M154.3,441.75l0,1.06a31.12,31.12,0,0,1-3.51.29c-2.68,0-3.56-1.57-3.56-4.63,0-3.42,1.47-4.73,3.76-4.73s3.62,1.26,3.62,4.21l-.07,1h-5.94c0,1.92.59,2.93,2.35,2.93C152.34,441.91,154.3,441.75,154.3,441.75Zm-1-3.85c0-2.24-.68-3-2.27-3s-2.39.85-2.41,3Z" fill="#3a3d3f"/><path d="M167.62,442.92h-1.33v-.61a6.49,6.49,0,0,1-2.74.79c-1.77,0-3.24-.72-3.24-4.61,0-3.17,1-4.75,3.76-4.75a15.79,15.79,0,0,1,2.22.23v-4h1.33Zm-1.33-1.69v-6.11a16.26,16.26,0,0,0-2.15-.21c-1.89,0-2.45,1.24-2.45,3.58,0,2.92,1,3.4,2,3.4A6.62,6.62,0,0,0,166.29,441.23Z" fill="#3a3d3f"/><path d="M177.54,438.31c0,3.28-.81,4.79-3.86,4.79s-3.85-1.51-3.85-4.79c0-3.1,1-4.57,3.85-4.57S177.54,435.21,177.54,438.31Zm-1.39,0c0-2.5-.54-3.4-2.47-3.4s-2.46.9-2.46,3.4.34,3.62,2.46,3.62S176.15,440.87,176.15,438.31Z" fill="#3a3d3f"/><path d="M186.37,441.75l0,1.06a31.12,31.12,0,0,1-3.51.29c-2.68,0-3.57-1.57-3.57-4.63,0-3.42,1.48-4.73,3.77-4.73s3.62,1.26,3.62,4.21l-.08,1H180.7c0,1.92.6,2.93,2.36,2.93C184.41,441.91,186.37,441.75,186.37,441.75Zm-1-3.85c0-2.24-.68-3-2.26-3s-2.4.85-2.42,3Z" fill="#3a3d3f"/><path d="M194.8,435.23a29.33,29.33,0,0,0-3.15-.29c-1.12,0-2,.31-2,1.37,0,.85.44,1.08,2.34,1.41,2.25.37,3.1.82,3.1,2.57,0,2.11-1.33,2.81-3.49,2.81a25.65,25.65,0,0,1-3.17-.34l.07-1.17s2.05.3,3,.3c1.48,0,2.27-.32,2.27-1.55,0-.93-.47-1.17-2.43-1.47s-3-.7-3-2.5c0-2,1.61-2.63,3.24-2.63a23.19,23.19,0,0,1,3.26.34Z" fill="#3a3d3f"/><path d="M201.15,442.92v-9h1.33v.63a6.85,6.85,0,0,1,2.79-.81c2.49,0,3,1.22,3,4.43v4.75H207V438.2c0-2.38-.27-3.26-1.94-3.26a6.12,6.12,0,0,0-2.54.67v7.31Z" fill="#3a3d3f"/><path d="M218.13,438.31c0,3.28-.82,4.79-3.86,4.79s-3.85-1.51-3.85-4.79c0-3.1,1-4.57,3.85-4.57S218.13,435.21,218.13,438.31Zm-1.39,0c0-2.5-.54-3.4-2.47-3.4s-2.46.9-2.46,3.4.34,3.62,2.46,3.62S216.74,440.87,216.74,438.31Z" fill="#3a3d3f"/><path d="M222.12,435.09v4.3c0,2,.13,2.52,1.3,2.52.5,0,1.6-.11,1.6-.11l.09,1.12a15.71,15.71,0,0,1-1.84.2c-1.85,0-2.48-.7-2.48-3.3v-4.73h-1.28v-1.17h1.28v-2.76h1.33v2.76H225v1.17Z" fill="#3a3d3f"/><path d="M236.41,434l0,1.09s-1.44-.16-2.13-.16c-2.07,0-2.62.9-2.62,3.32,0,2.66.41,3.63,2.64,3.63.69,0,2.13-.16,2.13-.16l.05,1.12a24,24,0,0,1-2.5.25c-2.86,0-3.71-1.32-3.71-4.84,0-3.26,1.06-4.52,3.74-4.52A20.89,20.89,0,0,1,236.41,434Z" fill="#3a3d3f"/><path d="M245.76,438.31c0,3.28-.82,4.79-3.86,4.79s-3.85-1.51-3.85-4.79c0-3.1,1-4.57,3.85-4.57S245.76,435.21,245.76,438.31Zm-1.39,0c0-2.5-.54-3.4-2.47-3.4s-2.46.9-2.46,3.4.34,3.62,2.46,3.62S244.37,440.87,244.37,438.31Z" fill="#3a3d3f"/><path d="M248,442.92v-9h1.33v.63a6,6,0,0,1,2.63-.81,2.55,2.55,0,0,1,2.34.91,7.53,7.53,0,0,1,3.21-.91c2.44,0,3,1.17,3,4.43v4.75h-1.35V438.2c0-2.38-.27-3.26-1.89-3.26a6,6,0,0,0-2.54.67,10.34,10.34,0,0,1,.23,2.63v4.68H253.6v-4.65c0-2.48-.25-3.33-1.89-3.33a5.34,5.34,0,0,0-2.41.67v7.31Z" fill="#3a3d3f"/><path d="M263,433.92h1.33v.64a6.17,6.17,0,0,1,2.7-.82c2.27,0,3.26,1.38,3.26,4.57,0,3.53-1.15,4.79-3.93,4.79a11,11,0,0,1-2-.2v4H263Zm1.35,1.74v6.07a12.78,12.78,0,0,0,1.94.2c2,0,2.63-1,2.63-3.62s-.77-3.37-2.09-3.37A5.86,5.86,0,0,0,264.35,435.66Z" fill="#3a3d3f"/><path d="M272.48,433.92h1.34v1.22a10.06,10.06,0,0,1,3.29-1.42v1.37a13.15,13.15,0,0,0-3.28,1.22v6.61h-1.35Z" fill="#3a3d3f"/><path d="M286,438.31c0,3.28-.81,4.79-3.85,4.79s-3.86-1.51-3.86-4.79c0-3.1,1-4.57,3.86-4.57S286,435.21,286,438.31Zm-1.39,0c0-2.5-.54-3.4-2.46-3.4s-2.47.9-2.47,3.4.34,3.62,2.47,3.62S284.63,440.87,284.63,438.31Z" fill="#3a3d3f"/><path d="M288.22,442.92v-9h1.33v.63a6,6,0,0,1,2.63-.81,2.56,2.56,0,0,1,2.34.91,7.52,7.52,0,0,1,3.2-.91c2.45,0,3,1.17,3,4.43v4.75h-1.35V438.2c0-2.38-.27-3.26-1.89-3.26a6,6,0,0,0-2.54.67,9.8,9.8,0,0,1,.24,2.63v4.68h-1.35v-4.65c0-2.48-.25-3.33-1.89-3.33a5.4,5.4,0,0,0-2.42.67v7.31Z" fill="#3a3d3f"/><path d="M303.26,430.32h1.35v1.56h-1.35Zm0,3.6h1.35v9h-1.35Z" fill="#3a3d3f"/><path d="M313.18,435.23a29.33,29.33,0,0,0-3.15-.29c-1.11,0-2,.31-2,1.37,0,.85.43,1.08,2.34,1.41,2.25.37,3.1.82,3.1,2.57,0,2.11-1.34,2.81-3.5,2.81a25.4,25.4,0,0,1-3.16-.34l.07-1.17s2.05.3,3,.3c1.47,0,2.27-.32,2.27-1.55,0-.93-.47-1.17-2.43-1.47s-3-.7-3-2.5c0-2,1.6-2.63,3.24-2.63a23.19,23.19,0,0,1,3.26.34Z" fill="#3a3d3f"/><path d="M322.22,441.75l0,1.06a31.4,31.4,0,0,1-3.52.29c-2.68,0-3.56-1.57-3.56-4.63,0-3.42,1.48-4.73,3.76-4.73s3.62,1.26,3.62,4.21l-.07,1h-5.94c0,1.92.59,2.93,2.36,2.93C320.26,441.91,322.22,441.75,322.22,441.75Zm-1-3.85c0-2.24-.68-3-2.27-3s-2.39.85-2.41,3Z" fill="#3a3d3f"/><path d="M328.63,430.32H330v1.56h-1.35Zm0,3.6H330v9h-1.35Z" fill="#3a3d3f"/><path d="M334.37,435.09v4.3c0,2,.12,2.52,1.29,2.52.51,0,1.61-.11,1.61-.11l.09,1.12a15.71,15.71,0,0,1-1.84.2c-1.86,0-2.49-.7-2.49-3.3v-4.73h-1.27v-1.17H333v-2.76h1.34v2.76h2.86v1.17Z" fill="#3a3d3f"/><path d="M344.86,435.23a29.33,29.33,0,0,0-3.15-.29c-1.11,0-2,.31-2,1.37,0,.85.43,1.08,2.34,1.41,2.25.37,3.1.82,3.1,2.57,0,2.11-1.34,2.81-3.5,2.81a25.65,25.65,0,0,1-3.17-.34l.08-1.17s2,.3,3,.3c1.47,0,2.27-.32,2.27-1.55,0-.93-.47-1.17-2.43-1.47s-3-.7-3-2.5c0-2,1.6-2.63,3.24-2.63a23.19,23.19,0,0,1,3.26.34Z" fill="#3a3d3f"/><path d="M351.22,433.92h1.33v1.22a10.06,10.06,0,0,1,3.29-1.42v1.37a13.15,13.15,0,0,0-3.28,1.22v6.61h-1.34Z" fill="#3a3d3f"/><path d="M364.09,441.75l0,1.06a31.12,31.12,0,0,1-3.51.29c-2.68,0-3.56-1.57-3.56-4.63,0-3.42,1.47-4.73,3.76-4.73s3.62,1.26,3.62,4.21l-.07,1h-5.95c0,1.92.6,2.93,2.36,2.93C362.12,441.91,364.09,441.75,364.09,441.75Zm-1-3.85c0-2.24-.69-3-2.27-3s-2.4.85-2.41,3Z" fill="#3a3d3f"/><path d="M366.14,444.43c0-1,.48-1.53,1.42-2.23a1.46,1.46,0,0,1-.51-1.24,5.7,5.7,0,0,1,.62-1.43c-.76-.34-1.43-1.06-1.43-2.72,0-2.21,1.37-3.07,3.37-3.07a9.43,9.43,0,0,1,1.87.23l2.67-.07v1.15l-1.71,0a2.37,2.37,0,0,1,.59,1.8c0,2.35-1.17,3.05-3.47,3.05-.18,0-.69,0-.88-.07a5.3,5.3,0,0,0-.33,1c0,.72.14.83,2.18.83,2.56,0,3.47.5,3.47,2.65s-1.45,2.86-4,2.86C367.16,447.15,366.14,446.52,366.14,444.43Zm2.34-1.69c-.76.56-1,.88-1,1.58,0,1.25.52,1.7,2.55,1.7,1.81,0,2.62-.49,2.62-1.68,0-1.37-.58-1.51-2.22-1.51C369.79,442.83,368.48,442.74,368.48,442.74Zm3.2-5.93c0-1.42-.56-2-2.07-2s-2,.56-2,2,.62,2,2,2S371.68,438.24,371.68,436.81Z" fill="#3a3d3f"/><path d="M382.75,433.92v9H381.4v-.63a6.07,6.07,0,0,1-2.66.81c-2.52,0-3.05-1.17-3.05-4.48v-4.7H377v4.68c0,2.48.22,3.29,1.9,3.29a5.46,5.46,0,0,0,2.46-.66v-7.31Z" fill="#3a3d3f"/><path d="M385.45,430h1.35v12.93h-1.35Z" fill="#3a3d3f"/><path d="M395.86,441.24c0,.53.46.72,1,.8l0,1.06a2.76,2.76,0,0,1-2.15-.72,9.2,9.2,0,0,1-3.24.72c-1.64,0-2.54-.94-2.54-2.76s.9-2.48,2.76-2.66l2.83-.27v-.77c0-1.27-.54-1.72-1.62-1.72-1.27,0-3.41.24-3.41.24l-.05-1a22.13,22.13,0,0,1,3.53-.39c2,0,2.9.93,2.9,2.9Zm-4-2.55c-1.1.11-1.53.63-1.53,1.62s.45,1.65,1.37,1.65a9.72,9.72,0,0,0,2.83-.55v-3Z" fill="#3a3d3f"/><path d="M398.52,433.92h1.33v1.22a10.18,10.18,0,0,1,3.29-1.42v1.37a13,13,0,0,0-3.27,1.22v6.61h-1.35Z" fill="#3a3d3f"/><path d="M408.71,442.92v-9H410v.63a6,6,0,0,1,2.63-.81,2.56,2.56,0,0,1,2.34.91,7.52,7.52,0,0,1,3.2-.91c2.45,0,3,1.17,3,4.43v4.75H419.9V438.2c0-2.38-.27-3.26-1.89-3.26a5.88,5.88,0,0,0-2.53.67,10.34,10.34,0,0,1,.23,2.63v4.68h-1.35v-4.65c0-2.48-.25-3.33-1.89-3.33a5.34,5.34,0,0,0-2.41.67v7.31Z" fill="#3a3d3f"/><path d="M430.11,441.24c0,.53.47.72,1,.8l0,1.06a2.74,2.74,0,0,1-2.14-.72,9.2,9.2,0,0,1-3.24.72c-1.64,0-2.54-.94-2.54-2.76s.9-2.48,2.75-2.66l2.83-.27v-.77c0-1.27-.54-1.72-1.62-1.72-1.26,0-3.41.24-3.41.24l-.05-1a22.13,22.13,0,0,1,3.53-.39c2,0,2.9.93,2.9,2.9Zm-4-2.55c-1.09.11-1.53.63-1.53,1.62S425,442,425.93,442a9.72,9.72,0,0,0,2.83-.55v-3Z" fill="#3a3d3f"/><path d="M432.77,430.32h1.35v1.56h-1.35Zm0,3.6h1.35v9h-1.35Z" fill="#3a3d3f"/><path d="M436.71,442.92v-9h1.34v.63a6.79,6.79,0,0,1,2.79-.81c2.48,0,3,1.22,3,4.43v4.75h-1.33V438.2c0-2.38-.27-3.26-1.95-3.26a6.18,6.18,0,0,0-2.54.67v7.31Z" fill="#3a3d3f"/><path d="M448.18,435.09v4.3c0,2,.13,2.52,1.3,2.52.5,0,1.6-.11,1.6-.11l.09,1.12a15.71,15.71,0,0,1-1.84.2c-1.85,0-2.48-.7-2.48-3.3v-4.73h-1.28v-1.17h1.28v-2.76h1.33v2.76H451v1.17Z" fill="#3a3d3f"/><path d="M459.34,441.75l0,1.06a31.38,31.38,0,0,1-3.51.29c-2.69,0-3.57-1.57-3.57-4.63,0-3.42,1.48-4.73,3.76-4.73s3.62,1.26,3.62,4.21l-.07,1h-5.94c0,1.92.59,2.93,2.36,2.93C457.38,441.91,459.34,441.75,459.34,441.75Zm-1-3.85c0-2.24-.68-3-2.27-3s-2.39.85-2.41,3Z" fill="#3a3d3f"/><path d="M461.79,442.92v-9h1.33v.63a6.85,6.85,0,0,1,2.79-.81c2.49,0,3,1.22,3,4.43v4.75h-1.33V438.2c0-2.38-.27-3.26-1.94-3.26a6.12,6.12,0,0,0-2.54.67v7.31Z" fill="#3a3d3f"/><path d="M477.81,441.24c0,.53.47.72,1,.8l-.05,1.06a2.75,2.75,0,0,1-2.14-.72,9.2,9.2,0,0,1-3.24.72c-1.64,0-2.54-.94-2.54-2.76s.9-2.48,2.75-2.66l2.83-.27v-.77c0-1.27-.54-1.72-1.62-1.72-1.26,0-3.4.24-3.4.24l-.06-1a22.13,22.13,0,0,1,3.53-.39c2,0,2.9.93,2.9,2.9Zm-4-2.55c-1.09.11-1.53.63-1.53,1.62s.45,1.65,1.37,1.65a9.72,9.72,0,0,0,2.83-.55v-3Z" fill="#3a3d3f"/><path d="M480.47,442.92v-9h1.33v.63a6.85,6.85,0,0,1,2.79-.81c2.49,0,3.05,1.22,3.05,4.43v4.75H486.3V438.2c0-2.38-.26-3.26-1.94-3.26a6.12,6.12,0,0,0-2.54.67v7.31Z" fill="#3a3d3f"/><path d="M496,434l-.05,1.09s-1.44-.16-2.13-.16c-2.07,0-2.62.9-2.62,3.32,0,2.66.41,3.63,2.64,3.63.69,0,2.13-.16,2.13-.16l.05,1.12a24,24,0,0,1-2.5.25c-2.86,0-3.71-1.32-3.71-4.84,0-3.26,1.06-4.52,3.74-4.52A20.89,20.89,0,0,1,496,434Z" fill="#3a3d3f"/><path d="M504.63,441.75l0,1.06a31.4,31.4,0,0,1-3.52.29c-2.68,0-3.56-1.57-3.56-4.63,0-3.42,1.48-4.73,3.76-4.73S505,435,505,438l-.07,1H499c0,1.92.59,2.93,2.36,2.93C502.67,441.91,504.63,441.75,504.63,441.75Zm-1-3.85c0-2.24-.68-3-2.27-3s-2.39.85-2.41,3Z" fill="#3a3d3f"/><path d="M507,440.87h1.48v2.05H507Z" fill="#3a3d3f"/><line x1="2.54" y1="22.35" x2="502.13" y2="22.35" fill="none" stroke="#a2a7aa" stroke-miterlimit="10"/><path d="M29.25,203H25.08v-.78l2.45-6.13h1.09l-2.48,6h3.11v-2.68h1v2.68h1.09V203H30.25v1.68h-1Z" fill="#4c4c4c"/><path d="M8.47,189.64c0,3.63-1.28,4.73-3.44,4.73s-3.45-1.07-3.45-4.71c0-3.9,1.26-5,3.44-5S8.47,185.75,8.47,189.64Zm-5.75,0c0,3,.82,3.74,2.31,3.74s2.31-.79,2.31-3.76c0-3.18-.73-4-2.31-4S2.72,186.43,2.72,189.66Z" fill="#4c4c4c"/><path d="M2,165.57v-.94l2.76-2.9c1.18-1.22,1.91-2,1.91-3.11S6,157,4.61,157a13.89,13.89,0,0,0-2.44.31l-.09-.92A11.65,11.65,0,0,1,4.82,156c2,0,3,.76,3,2.53,0,1.42-.64,2.25-2,3.54l-2.52,2.57H8.05v1Z" fill="#4c4c4c"/><path d="M6.18,134H1.59v-.86l2.7-6.75h1.2l-2.74,6.64H6.18v-3h1.1v3h1.2v1H7.28v1.85H6.18Z" fill="#4c4c4c"/><path d="M7.92,97.76a20.7,20.7,0,0,0-2.49-.18c-1.65,0-2.55,1.18-2.55,3.27a8.17,8.17,0,0,1,2.37-.56c2.09,0,3.18.95,3.18,2.94s-1.21,3.12-3.31,3.12c-2.35,0-3.39-1.85-3.39-4.91,0-3.43,1.45-4.83,3.7-4.83A17.79,17.79,0,0,1,8,96.85Zm-5,4.07c0,2,.61,3.55,2.25,3.55a1.94,1.94,0,0,0,2.16-2.15c0-1.32-.79-2-2.11-2A6.51,6.51,0,0,0,2.87,101.83Z" fill="#4c4c4c"/><path d="M102,198.21a1.92,1.92,0,0,1-1.43,2,2.15,2.15,0,0,1,1.56,2.16c0,1.88-1.46,2.46-3.24,2.46s-3.2-.54-3.2-2.32a2.29,2.29,0,0,1,1.48-2.3,2,2,0,0,1-1.34-2c0-1.49,1.19-2.23,3.06-2.23S102,196.7,102,198.21Zm-.94,4.06c0-1-.66-1.33-1.52-1.57H98.19a1.59,1.59,0,0,0-1.41,1.65c0,1.18.91,1.57,2.13,1.57S101.08,203.53,101.08,202.27Zm-4.16-4c0,.79.43,1.21,1.27,1.51h1.37c.89-.29,1.39-.71,1.39-1.5,0-1-.76-1.45-2-1.45S96.92,197.29,96.92,198.32Z" fill="#4c4c4c"/><path d="M170.15,196.12h.94v8.59h-1v-7.47l-2.21,1.45-.45-.75Z" fill="#4c4c4c"/><path d="M174.21,204.71v-.85l2.51-2.64c1.07-1.11,1.73-1.81,1.73-2.83s-.64-1.51-1.87-1.51a12.43,12.43,0,0,0-2.23.29l-.08-.83a10.5,10.5,0,0,1,2.49-.35c1.81,0,2.72.69,2.72,2.3,0,1.29-.58,2-1.8,3.21l-2.29,2.33h4.31v.88Z" fill="#4c4c4c"/><path d="M248.9,196.12h.94v8.59h-1v-7.47l-2.22,1.45-.45-.75Z" fill="#4c4c4c"/><path d="M258.34,197a19.42,19.42,0,0,0-2.27-.16c-1.49,0-2.31,1.07-2.31,3a7.14,7.14,0,0,1,2.15-.51c1.9,0,2.88.86,2.88,2.67s-1.09,2.84-3,2.84c-2.14,0-3.07-1.68-3.07-4.47,0-3.11,1.31-4.38,3.35-4.38a16.16,16.16,0,0,1,2.36.22Zm-4.6,3.69c0,1.84.56,3.23,2,3.23a1.76,1.76,0,0,0,2-1.95c0-1.2-.71-1.77-1.91-1.77A6.09,6.09,0,0,0,253.74,200.72Z" fill="#4c4c4c"/><path d="M324.43,204.71v-.85l2.51-2.64c1.07-1.11,1.73-1.81,1.73-2.83s-.64-1.51-1.87-1.51a12.43,12.43,0,0,0-2.23.29l-.08-.83A10.5,10.5,0,0,1,327,196c1.81,0,2.72.69,2.72,2.3,0,1.29-.58,2-1.8,3.21l-2.29,2.33h4.31v.88Z" fill="#4c4c4c"/><path d="M337.59,200.54c0,3.29-1.16,4.3-3.13,4.3s-3.13-1-3.13-4.29c0-3.54,1.14-4.58,3.12-4.58S337.59,197,337.59,200.54Zm-5.22,0c0,2.7.74,3.4,2.09,3.4s2.1-.71,2.1-3.41c0-2.89-.66-3.67-2.1-3.67S332.37,197.63,332.37,200.55Z" fill="#4c4c4c"/><path d="M436.67,204.71v-.85l2.51-2.64c1.07-1.11,1.74-1.81,1.74-2.83s-.64-1.51-1.88-1.51a12.25,12.25,0,0,0-2.22.29l-.08-.83a10.37,10.37,0,0,1,2.48-.35c1.81,0,2.72.69,2.72,2.3,0,1.29-.58,2-1.79,3.21l-2.29,2.33h4.3v.88Z" fill="#4c4c4c"/><path d="M447.75,203h-4.17v-.78l2.45-6.13h1.09l-2.48,6h3.11v-2.68h1v2.68h1.09V203h-1.09v1.68h-1Z" fill="#4c4c4c"/><line x1="21.83" y1="90.68" x2="21.83" y2="197.65" fill="none" stroke="#adadad" stroke-miterlimit="10"/><line x1="451.83" y1="189.46" x2="12.1" y2="189.46" fill="none" stroke="#adadad" stroke-miterlimit="10"/><g style="isolation:isolate"><rect x="60.54" y="112.77" width="12.91" height="75.95" fill="#76ce89"/><g clip-path="url(#clip-path)"><polygon points="60.77 188.72 60.55 112.83 73.23 112.77 73.46 188.67 60.77 188.72" fill="#76ce89"/></g></g><g style="isolation:isolate"><rect x="77.73" y="112.77" width="12.91" height="75.95" fill="#76ce89"/><g clip-path="url(#clip-path-2)"><polygon points="77.96 188.72 77.74 112.83 90.42 112.77 90.65 188.67 77.96 188.72" fill="#76ce89"/></g></g><g style="isolation:isolate"><rect x="94.93" y="119.41" width="12.89" height="69.31" fill="#76ce89"/><g clip-path="url(#clip-path-3)"><polygon points="95.13 188.72 94.93 119.46 107.61 119.41 107.82 188.67 95.13 188.72" fill="#76ce89"/></g></g><g style="isolation:isolate"><rect x="112.1" y="119.42" width="12.89" height="69.3" fill="#76ce89"/><g clip-path="url(#clip-path-4)"><polygon points="112.3 188.72 112.1 119.47 124.78 119.42 124.99 188.67 112.3 188.72" fill="#76ce89"/></g></g><g style="isolation:isolate"><rect x="129.27" y="133.25" width="12.88" height="55.48" fill="#76ce89"/><g clip-path="url(#clip-path-5)"><rect x="129.36" y="133.27" width="12.69" height="55.43" transform="translate(-0.56 0.47) rotate(-0.2)" fill="#76ce89"/></g></g><rect x="146.43" y="145.27" width="12.87" height="43.45" fill="#ffda00"/><g clip-path="url(#clip-path-6)"><rect x="146.52" y="145.29" width="12.68" height="43.41" transform="translate(-0.69 0.64) rotate(-0.24)" fill="#ffda00"/></g><rect x="163.57" y="153.7" width="12.87" height="35.02" fill="#ffda00"/><g clip-path="url(#clip-path-7)"><polygon points="163.75 188.72 163.57 153.73 176.26 153.7 176.44 188.69 163.75 188.72" fill="#ffda00"/></g><rect x="180.72" y="123.84" width="12.82" height="64.89" fill="#76ce89"/><g clip-path="url(#clip-path-8)"><polygon points="180.85 188.72 180.72 123.91 193.4 123.83 193.54 188.65 180.85 188.72" fill="#76ce89"/></g><rect x="197.82" y="128.27" width="12.8" height="60.45" fill="#76ce89"/><g clip-path="url(#clip-path-9)"><polygon points="197.94 188.72 197.82 128.35 210.5 128.26 210.62 188.64 197.94 188.72" fill="#76ce89"/></g><rect x="214.9" y="128.67" width="12.79" height="60.05" fill="#76ce89"/><g clip-path="url(#clip-path-10)"><polygon points="215.01 188.72 214.9 128.77 227.59 128.68 227.69 188.63 215.01 188.72" fill="#76ce89"/></g><g style="isolation:isolate"><rect x="231.97" y="130.47" width="12.88" height="58.25" fill="#76ce89"/><g clip-path="url(#clip-path-11)"><rect x="232.07" y="130.49" width="12.69" height="58.21" transform="translate(-0.53 0.8) rotate(-0.19)" fill="#76ce89"/></g></g><g style="isolation:isolate"><rect x="249.13" y="130.47" width="12.87" height="58.25" fill="#76ce89"/><g clip-path="url(#clip-path-12)"><polygon points="249.31 188.72 249.13 130.52 261.81 130.47 261.99 188.67 249.31 188.72" fill="#76ce89"/></g></g><g style="isolation:isolate"><rect x="266.28" y="135.89" width="12.86" height="52.83" fill="#76ce89"/><g clip-path="url(#clip-path-13)"><rect x="266.36" y="135.91" width="12.69" height="52.79" transform="translate(-0.55 0.93) rotate(-0.2)" fill="#76ce89"/></g></g><g style="isolation:isolate"><rect x="283.41" y="138.37" width="12.86" height="50.35" fill="#76ce89"/><g clip-path="url(#clip-path-14)"><rect x="283.5" y="138.39" width="12.69" height="50.3" transform="translate(-0.56 1) rotate(-0.2)" fill="#76ce89"/></g></g><g style="isolation:isolate"><rect x="300.55" y="139.33" width="12.86" height="49.39" fill="#76ce89"/><g clip-path="url(#clip-path-15)"><rect x="300.63" y="139.35" width="12.69" height="49.34" transform="translate(-0.58 1.08) rotate(-0.2)" fill="#76ce89"/></g></g><g style="isolation:isolate"><rect x="317.69" y="141.42" width="12.83" height="47.3" fill="#76ce89"/><g clip-path="url(#clip-path-16)"><polygon points="317.83 188.72 317.68 141.47 330.37 141.41 330.52 188.67 317.83 188.72" fill="#76ce89"/></g></g><g style="isolation:isolate"><rect x="334.8" y="141.42" width="12.83" height="47.3" fill="#76ce89"/><g clip-path="url(#clip-path-17)"><polygon points="334.94 188.72 334.79 141.47 347.48 141.41 347.63 188.67 334.94 188.72" fill="#76ce89"/></g></g><g style="isolation:isolate"><rect x="351.9" y="141.42" width="12.83" height="47.3" fill="#76ce89"/><g clip-path="url(#clip-path-18)"><polygon points="352.05 188.72 351.9 141.47 364.59 141.41 364.73 188.67 352.05 188.72" fill="#76ce89"/></g></g><g style="isolation:isolate"><rect x="369.01" y="143.76" width="12.83" height="44.97" fill="#76ce89"/><g clip-path="url(#clip-path-19)"><rect x="369.08" y="143.78" width="12.69" height="44.92" transform="translate(-0.54 1.23) rotate(-0.19)" fill="#76ce89"/></g></g><g style="isolation:isolate"><rect x="386.12" y="143.76" width="12.82" height="44.97" fill="#76ce89"/><g clip-path="url(#clip-path-20)"><polygon points="386.26 188.72 386.13 143.81 398.81 143.76 398.95 188.67 386.26 188.72" fill="#76ce89"/></g></g><g style="isolation:isolate"><rect x="403.22" y="143.76" width="12.81" height="44.97" fill="#76ce89"/><g clip-path="url(#clip-path-21)"><polygon points="403.35 188.72 403.22 143.81 415.91 143.75 416.04 188.67 403.35 188.72" fill="#76ce89"/></g></g><g style="isolation:isolate"><rect x="420.32" y="148.18" width="12.8" height="40.54" fill="#76ce89"/><g clip-path="url(#clip-path-22)"><polygon points="420.43 188.72 420.31 148.23 433 148.18 433.12 188.67 420.43 188.72" fill="#76ce89"/></g></g><g style="isolation:isolate"><g clip-path="url(#clip-path-23)"><polygon points="437.5 188.72 437.4 153.75 450.08 153.7 450.19 188.67 437.5 188.72" fill="#ffda00"/></g></g><g style="isolation:isolate"><rect x="43.33" y="107.24" width="12.93" height="81.53" fill="#76ce89"/><g clip-path="url(#clip-path-24)"><polygon points="43.58 188.78 43.34 107.3 56.02 107.25 56.27 188.72 43.58 188.78" fill="#76ce89"/></g></g><g style="isolation:isolate"><rect x="26.11" y="101.71" width="12.95" height="87.12" fill="#76ce89"/><g clip-path="url(#clip-path-25)"><polygon points="26.37 188.84 26.11 101.77 38.79 101.72 39.05 188.78 26.37 188.84" fill="#76ce89"/></g></g></g></g></svg>